<?xml version="1.0" standalone="no"?><!DOCTYPE svg PUBLIC "-//W3C//DTD SVG 1.1//EN" "http://www.w3.org/Graphics/SVG/1.1/DTD/svg11.dtd"><svg t="1548838779499" class="icon" style="" viewBox="0 0 1024 1024" version="1.1" xmlns="http://www.w3.org/2000/svg" p-id="9817" xmlns:xlink="http://www.w3.org/1999/xlink" width="200" height="200"><defs><style type="text/css"></style></defs><path d="M619.7536642844444 513.3822998755555l-0.8056035555555555-0.8056035555555555c-4.093784746666667-4.1102256355555555-10.875655964444443-3.97047808-15.092747377777778 0.24661333333333332l-43.91364608000001 43.905425635555545-14.426890239999999-14.418669795555555 33.580539448888885-33.59698147555556c4.241752746666666-4.233532302222222 4.365059413333333-10.99896263111111 0.25483377777777777-15.117408711111109l-0.6576355555555555-0.6494151111111112c-4.077343857777778-4.1102256355555555-10.867435519999999-3.978698524444445-15.109188266666663 0.24661333333333332l-32.62696789333333 32.61874744888889 1.6523104711111112-70.82740053333333a10.193359075555554 10.193359075555554 0 0 0-2.9675827199999993-7.587475911111111 10.176918186666665 10.176918186666665 0 0 0-7.579255466666667-2.9511418311111113 11.171591964444445 11.171591964444445 0 0 0-7.645017884444444 3.321061831111111c-2.055112248888889 2.0633326933333334-3.255298275555555 4.78430208-3.345724302222222 7.653239466666665l-1.5536651377777777 66.77471914666667-66.96378936888888 1.5701060266666669a11.286678186666666 11.286678186666666 0 0 0-7.694341688888888 3.3457231644444447 11.188032853333334 11.188032853333334 0 0 0-3.3375027199999994 7.669680355555555c-0.09042488888888889 2.9018191644444444 0.9782340266666666 5.631008995555556 2.9758031644444443 7.628578133333334 1.9893486933333333 1.9893486933333333 4.6938771911111115 3.0497871644444445 7.6039167999999995 2.9840236088888887l71.40283278222223-2.137317831111111-33.153076337777776 33.13663658666666c-4.217091413333333 4.233532302222222-4.34039808 10.99896263111111-0.23017358222222223 15.10918712888889l0.6576366933333333 0.6411958044444445c4.102005191111111 4.1102256355555555 10.867435519999999 3.9951394133333333 15.092747377777778-0.23017244444444446l33.58875989333333-33.59698147555556 14.418670933333331 14.418669795555555-43.89720632888889 43.92186766222222-0.008220444444444443-0.008220444444444443c-4.225311857777777 4.225311857777777-4.3321776355555555 10.990742186666667-0.24661333333333332 15.076305351111111l0.8138251377777778 0.8220455822222221c4.102005191111111 4.077343857777778 10.867435519999999 3.978698524444445 15.09274624-0.23839288888888888l43.90542677333334-43.90542677333334 27.102824675555553 27.094605368888892c4.093784746666667 4.093784746666667 10.834553742222223 3.978698524444445 15.059865599999998-0.23839288888888888l0.7398399999999999-0.7398411377777777c4.208870968888888-4.217091413333333 4.315736746666666-10.966080853333333 0.23839288888888888-15.043423573333333L575.5851844266666 572.3804728888889l43.905425635555545-43.905425635555545c4.225311857777777-4.208870968888888 4.34039808-10.974301297777776 0.2630542222222222-15.092747377777778zM505.71135544888887 24.775165724444452C232.85816320000004 24.775165724444452 11.662282524444436 245.97104640000006 11.662282524444436 518.8242386488888c0 272.8449718044444 221.19588067555554 494.04085247999996 494.0490729244445 494.04085247999996 272.8449718044444 0 494.04085247999996-221.19588067555554 494.04085247999996-494.04085247999996C999.752207928889 245.97104640000006 778.5563272533334 24.775165724444452 505.71135544888887 24.775165724444452zM215.02800668444445 529.7656581688889l301.90426339555546-301.89604408888886c23.6995584-23.6995584 61.39854506666667-24.45584042666667 84.4569088-1.7920580266666666L213.24416910222226 614.2225658311112c-22.672002844444442-23.041922844444446-21.923941262222222-60.75734926222222 1.783837582222222-84.45690766222222z m581.3666975288888-22.417169066666666L494.4904408177778 809.2527536355557c-23.806424177777778 23.806424177777778-61.7931264 24.472281315555556-84.8103879111111 1.4303584711111108l-175.58060145777776-175.5888219022222 388.16145066666667-388.15323022222225 175.58060145777776 175.58060145777776c23.017261511111112 23.025481955555556 22.37606570666667 61.00396259555556-1.44679936 84.82682766222223z m0 0" fill="" p-id="9818"></path></svg>