<svg xmlns="http://www.w3.org/2000/svg" viewBox="0 0 214.12 259.95"><defs><style>.cls-1{fill:#155077;}.cls-2{fill:#26688c;}.cls-3{fill:#dda322;}.cls-4{fill:#3e3f3f;}.cls-5{fill:#f9dab4;}.cls-6{fill:#c18714;}.cls-7{fill:#1f6477;}.cls-8{fill:#535454;}.cls-9{fill:#5caabc;}.cls-10{fill:#fff;}.cls-11{fill:#f7cea6;}.cls-12{fill:#d84945;}.cls-13{fill:#bc4333;}.cls-14{fill:#e5be9e;}</style></defs><title>资源 358</title><g id="图层_2" data-name="图层 2"><g id="Layer_1" data-name="Layer 1"><path class="cls-1" d="M51,152.08c4.94-2.37,17.82,5.26,19.61,10.57.45,1.31.94,2.6,1.51,3.86,4.31,9.45,6,11.67,11.86,17.82L56.88,199.67c-17.56,7-17.83,41.62-16.63,60.28H.16C-2.87,178.75,37.49,158.55,51,152.08Z"/><path class="cls-2" d="M37.84,163.59c5-3.31,14.71-11.65,16.43-6.53,0,0,.48,8.73.59,13.13.21,8.69,1.25,20,1.25,20s-1.76.66-5.88,3.83C46.55,186.82,38,181.61,38,181.61s-8.42,5.31-11,11c4.9.92,13.74,15.88,15.46,20.53-.8,1.76-5.17,27.83-4.57,37.83a49.38,49.38,0,0,1-.35,8.95H1.91c-1.19-15.19,8.36-52.65,11.8-64C17.8,182.34,32.87,166.89,37.84,163.59Z"/><path class="cls-3" d="M52.81,202c-5.07-9.94-14.2-17.17-14.2-17.17s-6.18,4.49-7.79,8c4.94,2.27,11.37,14.08,14.3,19.89A26.06,26.06,0,0,1,52.81,202Z"/><path class="cls-1" d="M163.14,152.08c-4.94-2.37-17.82,5.26-19.62,10.57a38.57,38.57,0,0,1-1.51,3.86c-4.3,9.45-6,11.67-11.85,17.82l27.08,15.34c17.56,7,17.83,41.62,16.63,60.28H214C217,178.75,176.62,158.55,163.14,152.08Z"/><path class="cls-2" d="M176.28,163.59c-5-3.31-14.71-11.65-16.43-6.53,0,0-.49,8.73-.59,13.13-.21,8.69-1.25,20-1.25,20s1.76.66,5.87,3.83c3.68-7.2,12.27-12.41,12.27-12.41s8.43,5.31,11,11c-4.9.92-13.74,15.88-15.46,20.53.8,1.76,5.17,27.83,4.57,37.83a48.49,48.49,0,0,0,.35,8.95H212.2c1.19-15.19-8.35-52.65-11.79-64C196.32,182.34,181.25,166.89,176.28,163.59Z"/><path class="cls-3" d="M161.3,202c5.08-9.94,14.21-17.17,14.21-17.17s6.18,4.49,7.79,8c-4.94,2.27-11.38,14.08-14.3,19.89A26,26,0,0,0,161.3,202Z"/><path class="cls-1" d="M59.71,151.27s-14.27-.4-14.4,9c-1.25,14.94,3.3,44.9,3.3,44.9V260H163.76V181.52s2.8-18.19,2-26.82C164.61,143.17,59.71,151.27,59.71,151.27Z"/><path class="cls-2" d="M86,185.42V168.64c0-1.06.88-2.6,9.63-3.9-5.79,0-19.14,1.18-19.14,1.18H62.25c-9.57,0-13.4-9.33-13.4-6.92-.69,8.33.21,24.91.82,29.25a11.85,11.85,0,0,0,3.85,6.89c1.86,1.86,3.41,8.35,2.53,16-.57,4.88-.86,30.69-1,48.84h45.72c.75-28.08,2.23-72.72,2.23-74.18C95.21,185.77,86,191.09,86,185.42Z"/><path class="cls-2" d="M156.09,153s1.71,9.55-5.2,11.5-20.5,3.07-28.12,1.83-23.13-.62-23.13-.62-6.11,1-8.77,2.39-3,2.75-3,8.59-1,10.19,2.92,9.22,12-2.48,15.69-1.95,4.91,2.08,3.54,3.46-4.56-2-5.32,2c-.52,2.8-.15,44.92.13,70.46h55.82c.69-29.91.7-77.22.68-78.08-.12-4.26,2.64-24.33,2.8-25.69C163.1,153.84,156.09,153,156.09,153Z"/><path class="cls-1" d="M103.9,176.2a5.32,5.32,0,1,1-5.32-5.31A5.32,5.32,0,0,1,103.9,176.2Z"/><path class="cls-4" d="M38.21,126.27h131s8.41-16.7,4.51-57.46c0-40.76-57.77-56.71-88.25-47.14S40.1,49.32,36.2,73.06,38.21,126.27,38.21,126.27Z"/><path class="cls-5" d="M54,74.72s-.94,59.07-2.84,73.72,4.26,14.18,28.36,14.18h63.8c11.34,0,11.34-9.93,11.34-23.63s-2.84-51.51-2.84-51.51-3.56,1.52-2.6,4.37c.61,1.79-7.08,1.06-12.4-4.25,0,0-1.86,3.36,1,5.58,1.25,1-.73,3.45-9.6,2.1a17.42,17.42,0,0,1-12.4-8.87,16.73,16.73,0,0,0,.94,11.82S93.62,96.81,95,74.84C74.6,74.84,54,74.72,54,74.72Z"/><path class="cls-6" d="M30.88,83s84-12.41,148.87-1.77c3-38.47-14.89-69.12-47.5-78S60,4,42.58,28.76,30.88,83,30.88,83Z"/><path class="cls-7" d="M107.91,28.88,133.25,3.54c-.33-.1-.66-.21-1-.3a98.27,98.27,0,0,0-50.45.11Z"/><path class="cls-3" d="M79.8,7.14S34.07,21.32,37.26,63.85c0,9.92-.7,11.34,7.45,11.34s38.63-2.48,64.86-2.48,55.29,2.13,60.61,2.13,3.19-8.16,3.19-18.08-8.51-39.7-39-48.91C125.69,16.53,111,29.82,107.8,33S79.8,7.14,79.8,7.14Z"/><path class="cls-6" d="M44.35,43.06s2.13,14.41,14.42,18.19,26.69.93,31.42-10.87c2.84-2.84,12.76-8.51,21.5-4.25s9.57,5.08,9.57,5.08S123.27,62,137.92,62s34.5-7.8,28.12-14.18-35.69-2.13-41.71-3.66-17.6-5.32-28-2.48S44.35,31,44.35,43.06Z"/><path class="cls-8" d="M84.39,47.6s12.55-4.8,18.44-5.55c8.39-1.06,22.51,6.2,22.51,6.2l1.77-5.84s-11.87-3.9-20-5.32-22.86,5.49-22.86,5.49Z"/><path class="cls-8" d="M89.76,41.4c0,10.19-9.62,18.45-21.49,18.45S46.78,51.59,46.78,41.4,56.4,23,68.27,23,89.76,31.21,89.76,41.4Z"/><path class="cls-9" d="M86.67,41.4c0,8.72-8.24,15.8-18.4,15.8s-18.4-7.08-18.4-15.8,8.24-15.79,18.4-15.79S86.67,32.68,86.67,41.4Z"/><path class="cls-10" d="M78.31,28.17l-8,28.92a20.22,20.22,0,0,0,2.09-.31L80,29.24C79.47,28.86,78.9,28.5,78.31,28.17ZM72.2,26,63.74,56.71a22,22,0,0,0,4.49.49l8.24-29.94A20.54,20.54,0,0,0,72.2,26Z"/><path class="cls-8" d="M121,41.4c0,10.19,9.62,18.45,21.49,18.45s21.49-8.26,21.49-18.45S154.32,23,142.45,23,121,31.21,121,41.4Z"/><path class="cls-9" d="M124.05,41.4c0,8.72,8.24,15.8,18.4,15.8s18.4-7.08,18.4-15.8-8.24-15.79-18.4-15.79S124.05,32.68,124.05,41.4Z"/><path class="cls-10" d="M130.71,29.24l7.57,27.54a20.22,20.22,0,0,0,2.09.31l-8-28.92A19.52,19.52,0,0,0,130.71,29.24Zm3.54-2,8.24,29.94a22,22,0,0,0,4.49-.49L138.52,26A20.54,20.54,0,0,0,134.25,27.26Z"/><polygon class="cls-4" points="60.43 103.68 81.12 100.98 81.05 94 61.84 95.03 60.43 103.68"/><polygon class="cls-4" points="142.59 96.31 142.59 103.76 122.07 101.66 122.71 95.35 142.59 96.31"/><path class="cls-10" d="M106.68,131.13c.24.69-1,1.65-2.77,2.14s-3.39.33-3.63-.37,1-1.65,2.77-2.14S106.45,130.43,106.68,131.13Z"/><path class="cls-11" d="M97.79,134.62c-6.1-2.38-5.65-9.08-3.23-12.78s8.19-3.47,10.9-1.51,2.14,3.76,3.75-1.17,1-5.72-.34-7.06-2.31-1-2.31-.23.23,3.59.23,3.59c.15,2-.17,2.63-1,1.85s-6.8-2.47-11,0-5.82,9.63-3.34,15.51,9.61,6,14.88,4.15c0,0,7.26-3.61,6.69-9.1s-3.69-4.55-3.92-3.42,3,3.63-.23,7.25A10.1,10.1,0,0,1,97.79,134.62Z"/><path class="cls-4" d="M82.92,119.9a9.42,9.42,0,1,1-9.42-9.41A9.42,9.42,0,0,1,82.92,119.9Z"/><path class="cls-10" d="M72.56,119.56c-2,1.4-4.6,1.17-5.78-.52s-.51-4.2,1.5-5.61,4.6-1.17,5.78.52S74.57,118.15,72.56,119.56Z"/><path class="cls-4" d="M140,119.9a9.42,9.42,0,1,1-9.42-9.41A9.42,9.42,0,0,1,140,119.9Z"/><path class="cls-10" d="M129.62,119.56c-2,1.4-4.59,1.17-5.77-.52s-.51-4.2,1.5-5.61,4.59-1.17,5.77.52S131.63,118.15,129.62,119.56Z"/><path class="cls-12" d="M114.1,148.2s3.19,9.81,12.17,9.22,15-6.86,15-12.29a44,44,0,0,0-2-11.58S128.17,144.22,114.1,148.2Z"/><path class="cls-13" d="M129.55,148.38c-5,0-9,3.19-9,7.12a6.33,6.33,0,0,0,.05.76,10.39,10.39,0,0,0,5.62,1.16,18,18,0,0,0,11.42-4.86A9.29,9.29,0,0,0,129.55,148.38Z"/><path class="cls-11" d="M97.83,152.24a28.16,28.16,0,0,1-5.21-.4h0a1.06,1.06,0,0,1-.83-1.25h0a1.07,1.07,0,0,1,1.26-.83h0s.39.08,1.2.17h0a33.09,33.09,0,0,0,3.58.18h0c7.57,0,23.27-2.18,40.85-17.59h0a1.05,1.05,0,0,1,1.5.1h0a1.06,1.06,0,0,1-.1,1.5h0c-18,15.75-34.22,18.12-42.22,18.12h0Z"/><path class="cls-5" d="M54.6,122.5s-3-12.36-14.59-9.28-10.55,15.11-6.42,20.61,18.24,13.41,21.84,2.6C55.3,129.6,54.6,122.5,54.6,122.5Z"/><path class="cls-11" d="M40,113.22c11.57-3.08,14.59,9.28,14.59,9.28l0,.23s-5.07-10.31-15.53-7.87-5.68,18.62-.92,21,12.36,6.45,17.26.57c-3.6,10.81-17.69,2.91-21.84-2.6S28.45,116.29,40,113.22Z"/><path class="cls-14" d="M49.31,126.62A10.63,10.63,0,0,0,47.86,122a1.4,1.4,0,0,0-.1-.16,7.19,7.19,0,0,0-3.58-2.88,6.36,6.36,0,0,0-1.87-.38,1,1,0,0,0-1,.83.79.79,0,0,0,.81.85h.06a5.22,5.22,0,0,1,1.22.28,5.71,5.71,0,0,1,2,1.29,15.13,15.13,0,0,0-1.88.62,10,10,0,0,0-5.36,4.88,5.08,5.08,0,0,0-.22.52.76.76,0,0,0,.46,1l.06,0a1,1,0,0,0,1.15-.57,3.52,3.52,0,0,1,.18-.4A8.07,8.07,0,0,1,44.18,124a11.19,11.19,0,0,1,2-.62l.29-.06a10.12,10.12,0,0,1,1,3.62.75.75,0,0,0,.52.65.84.84,0,0,0,.45,0A.93.93,0,0,0,49.31,126.62Z"/><path class="cls-5" d="M152.61,122.5s3-12.36,14.58-9.28,10.56,15.11,6.42,20.61-18.23,13.41-21.84,2.6C151.9,129.6,152.61,122.5,152.61,122.5Z"/><path class="cls-11" d="M167.19,113.22c-11.56-3.08-14.58,9.28-14.58,9.28l0,.23s5.08-10.31,15.53-7.87,5.69,18.62.92,21-12.36,6.45-17.26.57c3.61,10.81,17.7,2.91,21.84-2.6S178.76,116.29,167.19,113.22Z"/><path class="cls-14" d="M157.89,126.62a10.63,10.63,0,0,1,1.45-4.64,1.4,1.4,0,0,1,.1-.16,7.16,7.16,0,0,1,3.59-2.88,6.27,6.27,0,0,1,1.86-.38.94.94,0,0,1,1,.83.79.79,0,0,1-.81.85H165a5.32,5.32,0,0,0-1.22.28,5.71,5.71,0,0,0-2,1.29,15.23,15.23,0,0,1,1.89.62,10,10,0,0,1,5.35,4.88,3.53,3.53,0,0,1,.22.52.77.77,0,0,1-.45,1l-.06,0a1,1,0,0,1-1.15-.57l-.18-.4A8.08,8.08,0,0,0,163,124a11.19,11.19,0,0,0-2.05-.62l-.28-.06a9.91,9.91,0,0,0-1,3.62.74.74,0,0,1-.51.65.89.89,0,0,1-.46,0A.93.93,0,0,1,157.89,126.62Z"/></g></g></svg>