<svg xmlns="http://www.w3.org/2000/svg" viewBox="0 0 223.19 259.87"><defs><style>.cls-1{fill:#c6c1ba;}.cls-2{fill:#f9f5ed;}.cls-3{fill:#5c9ea0;}.cls-4{fill:#c65044;}.cls-5{fill:#ad3936;}.cls-6{fill:#6b4627;}.cls-7{fill:#f9dab4;}.cls-8{fill:#6dbdc6;}.cls-9{fill:#393c3d;}.cls-10{fill:#efc4a0;}</style></defs><title>资源 178</title><g id="图层_2" data-name="图层 2"><g id="Layer_1" data-name="Layer 1"><path class="cls-1" d="M68.78,177.07s-35.22,64.42-37.23,78.64a12.82,12.82,0,0,0,0,4.16h29.6C70.57,238.87,82.71,167.25,68.78,177.07Z"/><path class="cls-2" d="M96.87,176.4,85,175.93v.93l-17.13.67s-15.48,52.89-16.63,82.34h89.81c-1.29-30.3-15.18-82.34-15.18-82.34l-17.13-.67v-.93Z"/><path class="cls-3" d="M52.7,244.79h87c-1.42-11.09-3.68-23.19-6-34.06H59.27C56.74,221.65,54.24,233.79,52.7,244.79Z"/><path class="cls-4" d="M165.47,221.27c-17-4.54-31.85-44.66-31.85-44.66H112.11s-.7,45.82,2.67,83.26h71c.4-.82.8-1.65,1.17-2.51,7.92-18,9.33-44.56,5.53-58C192.5,199.35,182.43,225.82,165.47,221.27Z"/><path class="cls-5" d="M137,184.8c-2.17-4.85-3.41-8.19-3.41-8.19H112.11s-.06,4.26-.06,11.19C120,187.94,129.77,188.46,137,184.8Z"/><path class="cls-5" d="M126.59,194.39c.33,3.9.66,7.78,1.17,11.64s1,7.72,1.6,11.54A121.1,121.1,0,0,0,135,240a41.34,41.34,0,0,0,5.22,10,16.72,16.72,0,0,0,8.6,6.54,14.6,14.6,0,0,0,10.84-.67,19.78,19.78,0,0,0,8.28-7.75,19.2,19.2,0,0,1-7.72,8.83,16.11,16.11,0,0,1-11.91,1.42c-4.11-.9-7.52-3.77-10-7a42.36,42.36,0,0,1-5.66-10.58,98.34,98.34,0,0,1-5.21-23A144.75,144.75,0,0,1,126.59,194.39Z"/><path class="cls-5" d="M139.85,242.37a26.63,26.63,0,0,0,4,3.36,5.11,5.11,0,0,0,4,1,8.31,8.31,0,0,0,3.76-2.47c1.18-1.19,2.28-2.57,3.53-3.94a14,14,0,0,1-2,5.15,8.08,8.08,0,0,1-4.7,3.68,6.28,6.28,0,0,1-5.82-1.9A10.15,10.15,0,0,1,139.85,242.37Z"/><path class="cls-6" d="M173.33,27.3s.72-11.58,17.32-12.82,18.25,19.1,19.07,25.68,2.9,26.84,12,15.68c0,0,3.31,5.79,0,9.51,0,0,2.89,7.45-6.21,7.86s-21.92.83-27.29-26.06S173.33,27.3,173.33,27.3Z"/><path class="cls-4" d="M160.92,27.3s15.3-6.21,21.09-1.66,16.13,25.23,0,30.2S160.92,27.3,160.92,27.3Z"/><path class="cls-6" d="M192.33,89.34c0,49.34-43.06,89.34-96.17,89.34S0,138.68,0,89.34,43.05,0,96.16,0,192.33,40,192.33,89.34Z"/><path class="cls-4" d="M129.78,167.51a60.52,60.52,0,0,0,5.6-10.34c2.89-6.62-11.59-7-11.59-7l-27.63,4.74-27.63-4.74s-14.47.41-11.58,7a59.68,59.68,0,0,0,5.6,10.34s-10.77-4.93-9.84,3.74,2.59,11.56,15.82,12.8c8,.76,19.68.59,27.63.35,8,.24,19.61.41,27.63-.35,13.24-1.24,14.89-4.13,15.82-12.8S129.78,167.51,129.78,167.51Z"/><path class="cls-7" d="M39.71,95.13s13.64,71.55,55.83,70.72,57.08-65.34,57.08-65.34L98.44,55.84Z"/><path class="cls-8" d="M151,85.61H41.33s-1,27.91,1,31.21,38.37,12.38,53.84-5.91c15.48,18.29,51.87,9.22,53.84,5.91S151,85.61,151,85.61Z"/><path class="cls-2" d="M63.05,85.61,49.69,119.94A70.09,70.09,0,0,0,66.35,122l14.16-36.4Z"/><path class="cls-2" d="M126,85.61l-13.55,34.84a57.53,57.53,0,0,0,16.89,1.46l14.12-36.3Z"/><path class="cls-9" d="M125.78,124.49h0c-9,0-21.12-1.74-29.62-9.62-8.5,7.88-20.58,9.62-29.61,9.62-11.81,0-24.87-3.19-26.88-6.56s-1.6-23.82-1.3-32.39l.09-2.41H153.87l.08,2.41c.3,8.57.79,28.9-1.3,32.39S137.58,124.49,125.78,124.49ZM96.16,106.62l2.42,2.85c7,8.31,18.67,10.06,27.2,10.06,10.7,0,19.83-2.73,21.64-4,.89-2.45,1-15.32.69-27.47H44.21c-.35,12.1-.19,24.92.71,27.47,1.82,1.25,10.94,4,21.63,4,8.53,0,20.17-1.75,27.19-10.06Z"/><path class="cls-6" d="M36.1,110.85s18.2-4.55,21.92-9.1c0,0,30.83,7.54,63.26-27.08,0,0,24,32,41,32.87s-33.5-58.74-33.5-58.74l-52.53-5L20.73,94.64Z"/><path class="cls-4" d="M84,144.06s3.07-4.79,6.63-4.57,5.49,3.75,5.49,3.75,3.2-3.67,6.93-3.6,5.37,4.79,5.37,4.79-3.71,9-12.57,9S84,144.06,84,144.06Z"/><path class="cls-10" d="M90,129.15s.61-5.66,5.89-5.68,6.35,5.68,6.35,5.68-2.88-3.49-6.25-3.49S90,129.15,90,129.15Z"/></g></g></svg>