<svg xmlns="http://www.w3.org/2000/svg" viewBox="0 0 228.69 260.01"><defs><style>.cls-1{fill:#efc4a0;}.cls-2{fill:#421313;}.cls-3{fill:#3f2c20;}.cls-4{fill:#f9dab4;}.cls-5{fill:#e2e2e2;}.cls-6{fill:#f9f5ed;}.cls-7{fill:#f4d3b0;}.cls-8{fill:#6b4627;}.cls-9{fill:#3a332d;}.cls-10{fill:#5b3d2f;}.cls-11{fill:#8c532d;}.cls-12{fill:#f7bc5c;}</style></defs><title>资源 339</title><g id="图层_2" data-name="图层 2"><g id="Layer_1" data-name="Layer 1"><path class="cls-1" d="M83.75,182.44,45.38,249.79l16.36,8.45s12.95-4.74,21-12.64S100.63,195,100.63,195Z"/><path class="cls-2" d="M204,62.89c1.39-.86,8.35-2.56,12.28-2.9s14.35.82,12.15,5.77c-.86,1.93-15,.46-17.79,2.3,1.27.66,4,2.46,5.23,3.26,1.58,1,9,10,7.11,12.94-1.69,2.65-10.11-2.48-11.11-3.49-2.3-2.31-2.94-5.69-5.06-8.12-.81-.93-2.43-1.29-3.05-2.25C203.29,69.71,203.07,63.44,204,62.89Z"/><path class="cls-2" d="M207.25,67.07c0,4.29-4.83,7.76-7.28,7.76s-4.44-3.47-4.44-7.76,2-7.75,4.44-7.75S207.25,62.79,207.25,67.07Z"/><path class="cls-3" d="M129.5,0h-2.59C87.23.7,57.83,28.94,57.83,63.69A60.91,60.91,0,0,0,58.73,74l4.16,47.68H98.66a78.43,78.43,0,0,0,28.25,5.65h0c.36,0,.72,0,1.08,0h.44c.36,0,.71,0,1.07,0h0a78.44,78.44,0,0,0,28.26-5.65h35.77L197.68,74a59.91,59.91,0,0,0,.9-10.35C198.58,28.94,169.19.7,129.5,0Z"/><path class="cls-4" d="M178.8,182.44l-19.52,8.91s32.87,47.09,33.39,49.12c.25,1-5.41,10.42-11.11,19.54h19.6c5.7-8.95,11.83-19.44,10.85-21.82C210.22,233.86,178.8,182.44,178.8,182.44Z"/><path class="cls-5" d="M156,152.91s18.3,2,33.74,33.61l-27.6,12.72Z"/><path class="cls-5" d="M100.4,152.91s-18.29,2-33.73,33.61l27.6,12.72Z"/><path class="cls-6" d="M128.21,149.21l-22.06-1s-11.87,5.34-13.55,21c-1.19,11-8.62,61.71-12.93,90.8h97.07c-4.3-29.09-11.74-79.79-12.92-90.8-1.69-15.66-13.55-21-13.55-21Z"/><path class="cls-1" d="M141.79,160.82c0,3.73-7.25,18.12-16.2,18.12s-16.2-14.39-16.2-18.12,7.26-6.75,16.2-6.75S141.79,157.09,141.79,160.82Z"/><path class="cls-7" d="M73.91,115.46s-8.07-9.91-17-5.3,3.46,34.73,21.2,37.18Z"/><path class="cls-7" d="M182.51,115.46s8.07-9.91,17.05-5.3-3.45,34.73-21.2,37.18Z"/><path class="cls-4" d="M70.26,72.16v59a28.67,28.67,0,0,0,11.21,22.77s18.12,13,46.74,12.55,46.73-12.55,46.73-12.55a28.62,28.62,0,0,0,11.22-22.77v-59Z"/><path class="cls-3" d="M69.05,68.49A27.79,27.79,0,0,0,80.6,82c8.05,4.71,21.81,6,23.33,6,3.14,0-3.47-8-3.47-8s23.17,5.51,25.19,4.26-10.58-10.66-10.58-10.66,26.1,10.66,37.42,8.53S150.12,74,150.12,74s29.13,9.41,34.51,7.28,7.49-42.46-39.8-44.05S69.05,68.49,69.05,68.49Z"/><path class="cls-8" d="M56.59,74.45c.73,1.26,19.13-6.16,28.53-7,15.48-1.32,31-3.16,46.48-4.09,13.63-.82,66.67,10.28,68.2,9.94s.83-6.37.83-9.65c0-34.75-30.28-63-71.17-63.69h-2.67C85.91.7,55.62,28.94,55.62,63.69,55.62,67.22,55.85,73.19,56.59,74.45Z"/><path class="cls-1" d="M139.29,128.79s-2.52-8.06-10.62-8.57-11.54,9.87-11.54,9.87,5.09-7.71,11.52-7S139.29,128.79,139.29,128.79Z"/><path class="cls-1" d="M94.27,142.83l2.93.51c1.86.33,4.54.65,7.73,1.06l5.16.53,5.77.42,6.16.23,6.36-.08c2,0,4.28-.24,6.37-.35s4.12-.42,6.11-.61,3.89-.57,5.71-.81,3.51-.65,5.1-.91c6.32-1.21,10.48-2.47,10.48-2.47s-1,.52-2.69,1.29c-.88.35-1.93.84-3.18,1.29s-2.63,1-4.2,1.47-3.25,1-5.09,1.41-3.73.94-5.78,1.2-4.15.75-6.27.87-4.21.38-6.48.46l-6.52,0-6.29-.47a103,103,0,0,1-11-1.84A70.93,70.93,0,0,1,94.27,142.83Z"/><path class="cls-9" d="M85.05,116.61A1.75,1.75,0,0,1,83.3,115a9.45,9.45,0,0,1,7.12-9.8c6.15-1.81,10.71,3,12.25,5.75a1.76,1.76,0,0,1-.68,2.4c-.85.47-15.81,3.15-16.78,3.24Z"/><polygon class="cls-10" points="102.82 91.95 104.43 96.08 75.37 99.21 76.72 92.29 102.82 91.95"/><path class="cls-9" d="M171.37,116.61h-.17c-1-.09-15.93-2.78-16.77-3.25a1.76,1.76,0,0,1-.68-2.39c1.54-2.78,6.09-7.56,12.25-5.75a9.45,9.45,0,0,1,7.12,9.8A1.76,1.76,0,0,1,171.37,116.61Z"/><polygon class="cls-10" points="153.6 91.95 151.99 96.08 181.05 99.21 179.7 92.29 153.6 91.95"/><path class="cls-11" d="M44,231.45s21.17-9.15,26.94-14.62l1.2,19S59.28,246.46,44,245.55Z"/><path class="cls-12" d="M51,234a69.73,69.73,0,0,0,10.37-4.44,60.17,60.17,0,0,0,10-6.5l-.4-6.26C65.17,222.3,44,231.45,44,231.45v4.41C46.33,235.28,48.68,234.8,51,234Z"/><path class="cls-12" d="M61.36,236.26c-5.48,2.09-11.42,4.4-17.36,5.17v4.12c15.28.91,28.14-9.67,28.14-9.67l-.35-5.54A47.85,47.85,0,0,1,61.36,236.26Z"/><path class="cls-11" d="M31.33,215.51S19,233.4,18.88,238.06c0,0,16.86,10.43,25.12,7.49V229.7Z"/><path class="cls-12" d="M36.17,220.94l-4.84-5.43S19,233.4,18.88,238.06A80,80,0,0,0,27,242.3,49.3,49.3,0,0,1,36.17,220.94Z"/><path class="cls-12" d="M35.16,236.6a45.61,45.61,0,0,0-.43,8.57c3.41.93,6.75,1.28,9.27.38V229.7l-3.85-4.31A25.08,25.08,0,0,0,35.16,236.6Z"/><path class="cls-11" d="M23.74,206.5S33,226.07,44,231.45c0,0,13.59-5.37,20.94-10.12,0,0-11.43-13.51-21-19.83S23.74,206.5,23.74,206.5Z"/><path class="cls-11" d="M69.7,205.6s-.12,30.1,1.7,30.5S85.77,223.73,85.89,209Z"/><path class="cls-12" d="M79.52,227.85c3.29-4.95,6.31-11.67,6.37-18.85l-5.3-1.11a123.43,123.43,0,0,1-.4,16.32A33.83,33.83,0,0,1,79.52,227.85Z"/><path class="cls-12" d="M75.88,221.38c-.29-4.94-1-9.83-1.32-14.76l-4.86-1s-.12,30.1,1.7,30.5c.62.13,2.52-1.3,4.75-3.83C76.14,228.63,76.09,225,75.88,221.38Z"/><path class="cls-11" d="M59.62,205.48s18.9,4.86,27.39,4.64c0,0,3.51-13-2.37-25H71.17Z"/><path class="cls-12" d="M78,192.62c3,.16,6.16-.09,9.21.19a32.71,32.71,0,0,0-2.59-7.73H71.17l-3.86,6.83C70.88,192.15,74.44,192.45,78,192.62Z"/><path class="cls-12" d="M81.17,201.26a43.77,43.77,0,0,1-9.15-.58,66.72,66.72,0,0,1-8.35-2.35l-4.05,7.15s18.9,4.86,27.39,4.64a38.38,38.38,0,0,0,1-8.49A62.44,62.44,0,0,0,81.17,201.26Z"/><path class="cls-11" d="M51.59,169.37s-7.81,20.83-7.25,33.4l12.9,11.77s17-19.81,16.76-31.69l-12.56-11Z"/><path class="cls-12" d="M54.67,189.34c1.2-4.59,2.51-9.2,3.51-13.84.3-1.44.58-2.87,1-4.26l-7.55-1.87s-7.81,20.83-7.25,33.4l4.54,4.13A175.87,175.87,0,0,0,54.67,189.34Z"/><path class="cls-12" d="M65.94,175.77C64.2,188,58.64,199.32,52.25,210l5,4.56s17-19.81,16.76-31.69Z"/><path class="cls-12" d="M41.85,205.46c2.92,3.46,5.78,7,8.51,10.65,2.32,3.09,4.56,6.3,6.59,9.6a80,80,0,0,0,8-4.38s-11.43-13.51-21-19.83a11.43,11.43,0,0,0-8.39-1.74A40.27,40.27,0,0,1,41.85,205.46Z"/><path class="cls-12" d="M39.89,218.08c-2.73-3.47-5.49-7-7.91-10.74a29.33,29.33,0,0,1-2.81-5.12,27.83,27.83,0,0,0-5.43,4.28S33,226.07,44,231.45c0,0,1.94-.76,4.75-2C45.39,226,42.89,221.9,39.89,218.08Z"/><path class="cls-11" d="M12.51,185.1s16.84-8.43,34.33-1.12L44.46,201.5S27,211.82,14.58,208.25,12.51,185.1,12.51,185.1Z"/><path class="cls-12" d="M46.25,188.31l.59-4.33c-17.49-7.31-34.33,1.12-34.33,1.12a43.71,43.71,0,0,0-2.88,7.25C20.87,187.12,33.94,186.22,46.25,188.31Z"/><path class="cls-12" d="M44,195c-4.57.92-9.05,2-13.67,2.71A155.22,155.22,0,0,1,8.48,199.4c0,3.95,1.46,7.52,6.1,8.85,12.39,3.57,29.88-6.75,29.88-6.75l.92-6.78C44.9,194.79,44.43,194.87,44,195Z"/><path class="cls-11" d="M9.82,175.15S-7,189.58,3.37,216.57L18,221.33s-6.68-25.13-3.08-38.71Z"/><path class="cls-12" d="M14.89,182.62l-.64-.94C10.46,188,9.39,195.58,9.85,203c.39,6.41,2.86,11.89,5.44,17.44l2.68.88S11.29,196.2,14.89,182.62Z"/><path class="cls-12" d="M4.61,195.64c.57-6.2,1.29-14.49,6.26-18.95l-1-1.54S-7,189.58,3.37,216.57l4.19,1.37A52.71,52.71,0,0,1,4.61,195.64Z"/><path class="cls-11" d="M1.34,213.51s8.65,5.78,26.48,7.82L19.67,236.1S6.43,231.35,1.34,213.51Z"/><path class="cls-12" d="M14.58,222.35c4.08.41,8.17.62,12.27.74l1-1.76c-17.83-2-26.48-7.82-26.48-7.82a40.45,40.45,0,0,0,2.39,6.38C6.81,221.81,11.13,222,14.58,222.35Z"/><path class="cls-12" d="M8,226.8c5.53,7.07,11.69,9.3,11.69,9.3l4.67-8.46A162.8,162.8,0,0,1,8,226.8Z"/><path class="cls-11" d="M38,169.92s20-3.26,36,15l8.49.57s.23-16.41-27.62-27.28l-9.49,3.68Z"/><path class="cls-12" d="M64,166.32c6.87,4.8,13,11.54,15.38,18.92l3.07.21s.23-16.41-27.62-27.28L50.24,160A55.21,55.21,0,0,1,64,166.32Z"/><path class="cls-12" d="M70.65,177.25c-3.6-3.55-7.3-6.86-12.13-8.62a53.53,53.53,0,0,0-16.76-2.82L38,169.92s20-2.69,36,15.53l3-.37A71.44,71.44,0,0,0,70.65,177.25Z"/><path class="cls-11" d="M23.74,162.58l.6-1.69s15.25-8.72,32.9-2.72c0,0-16.63,9.62-24,20.49Z"/><path class="cls-12" d="M40.7,156.23a43.49,43.49,0,0,0-16.36,4.66l-.6,1.69,2.9,4.89A101.16,101.16,0,0,1,40.7,156.23Z"/><path class="cls-12" d="M50.34,156.51c-2,1.39-3.76,3-5.77,4.4-3.47,2.38-6.81,4.9-10,7.6q-2.45,2-4.84,4.1l3.57,6c7.36-10.87,24-20.49,24-20.49A38.14,38.14,0,0,0,50.34,156.51Z"/><path class="cls-11" d="M7.45,176.39l7.07,7.85a48,48,0,0,1,21.66-3s-2.53-12.55-11.84-20.36C24.34,160.89,11.52,165.53,7.45,176.39Z"/><path class="cls-12" d="M11.36,169.92a21.55,21.55,0,0,0-3.91,6.47l7.07,7.85a40.5,40.5,0,0,1,7.18-2.13C19.38,176.91,16.43,172.18,11.36,169.92Z"/><path class="cls-12" d="M24.34,160.89a34.4,34.4,0,0,0-6.76,3.59,30.35,30.35,0,0,1,7,9.39c1.09,2.42,2,4.89,2.9,7.38a48.31,48.31,0,0,1,8.68,0S33.65,168.7,24.34,160.89Z"/><path class="cls-4" d="M79,235.57S75.3,215.14,68.55,216,60.38,234,60.38,234,49,218.34,43.86,220.12s-1.42,17.94-1.42,17.94-16.52-13.86-24-8.88S22.19,261.33,52,259.73,79,235.57,79,235.57Z"/></g></g></svg>