<svg xmlns="http://www.w3.org/2000/svg" viewBox="0 0 169.02 260.13"><defs><style>.cls-1{fill:#393c3d;}.cls-2{fill:#515151;}.cls-3{fill:#606060;}.cls-4{fill:#f9f5ed;}.cls-5{fill:#e2d9d3;}.cls-6{fill:#edefef;}.cls-7{fill:#664027;}.cls-8{fill:#492c19;}.cls-9{fill:#4f301f;}.cls-10{fill:#472b18;}.cls-11{fill:#5b3b24;}.cls-12{fill:#f9dab4;}.cls-13{fill:#6b4627;}.cls-14{fill:#f4c7a2;}.cls-15{fill:#f7cea6;}.cls-16{fill:#51301a;}.cls-17{fill:#e5be9e;}</style></defs><title>资源 223</title><g id="图层_2" data-name="图层 2"><g id="Layer_1" data-name="Layer 1"><path class="cls-1" d="M155.32,252.07a310.7,310.7,0,0,1-31.95.12s-.08,3.45.1,7.94h32.08Z"/><path class="cls-2" d="M121.67,151.78c.63.7,29.28,21.23,35.32,102.1L121.67,255s-11.39-80.76-10.09-100.47C111.58,154.49,114.84,145.4,121.67,151.78Z"/><path class="cls-3" d="M118.23,163.65s13.17-4.19,21.73,20.1c6.11,17.33,20.84,61.2,4.32,65.88s-16.64-8.54-17.6-19S118.23,163.65,118.23,163.65Z"/><path class="cls-1" d="M6.59,250.6l-.25,9.53H38.41c.21-5,.13-9.41.13-9.41A307.35,307.35,0,0,1,6.59,250.6Z"/><path class="cls-2" d="M42.54,149.66c-.64.7-31,21.45-37.06,103.39l37.06,1.15s11.39-81.83,10.08-101.8C52.62,152.4,49.36,143.19,42.54,149.66Z"/><path class="cls-3" d="M46,161.68s-14.5-4.24-23.06,20.37c-6.11,17.56-19.5,62-3,66.74s16.64-8.65,17.6-19.25S46,161.68,46,161.68Z"/><path class="cls-4" d="M52.27,156.15s30.51-25.33,62.27.45v72.47l-61.89-.46Z"/><polygon class="cls-5" points="76.35 167.7 66.67 175.92 64.58 172.94 76.82 165.31 77.76 166.86 76.35 167.7"/><polygon class="cls-5" points="90.3 167.7 99.98 175.92 102.07 172.94 89.82 165.31 88.89 166.86 90.3 167.7"/><path class="cls-4" d="M65.24,174.27,83.38,161.5,56,158.34ZM83.38,161.5l16.93,12.77,6.26-15.93Z"/><polygon class="cls-6" points="88.05 166.77 78.91 166.77 78.75 167.68 70.26 214.19 84.45 234.72 99.45 213.69 88.05 166.77"/><polygon class="cls-7" points="79.88 167.87 87.14 167.87 98.22 213.46 84.46 232.76 71.47 213.95 79.88 167.87"/><polygon class="cls-8" points="98.22 213.46 87.14 167.87 84.02 167.87 84.02 232.11 84.46 232.76 98.22 213.46"/><path class="cls-4" d="M88.93,175.23a29.17,29.17,0,0,1-2.55,2.63,31.62,31.62,0,0,1-9.4,5.91l-1.22,6.66A38.13,38.13,0,0,0,90.6,182.1Z"/><path class="cls-4" d="M94.45,198l-1.73-7.12a28.53,28.53,0,0,1-4.55,4.77,36.23,36.23,0,0,1-14.69,7.3l-1.14,6.28a43.22,43.22,0,0,0,20.3-9.55C93.3,199.07,93.9,198.51,94.45,198Z"/><path class="cls-4" d="M96.82,207.7c-2.58,3-9.07,8.91-21.48,11.85l3.56,5.16a50,50,0,0,0,17.18-8.25l2.14-3Z"/><path class="cls-9" d="M77.44,162.37H90c.48,0,.21,6.11,0,6.73-.81,3.26-4.45,3.19-7.11,3.16-1.85,0-4.17-.19-5.26-1.91C76.27,168.15,77.31,164.76,77.44,162.37Z"/><path class="cls-2" d="M83.29,209a310.87,310.87,0,0,1-30.93-50.13l-6.14-.2S39,221.23,37.65,260.13h86.7c-.06-7.35-.23-24.73-.39-36.67-.21-15.49-4.66-64.8-4.66-64.8h-4.66S101.08,188.21,83.29,209Z"/><path class="cls-3" d="M47.7,170.07s-6.35,53.39-6.35,66.43c0,10.07-2.14,19.16,1.85,23.63H75.45V219A49.58,49.58,0,0,0,82,211.34S61.16,179.75,56.5,172.62,49,163.25,47.7,170.07Z"/><path class="cls-3" d="M118.77,173.54c0-10.81-5.4-8.06-6-6s-7.94,14.06-11.43,20.69-23,31.18-23,31.18-.58,30.63,0,40.74h41.14c3-7.8,2.57-33.46,2.57-41.56C122.05,209.1,118.77,184.33,118.77,173.54Z"/><rect class="cls-1" x="49.57" y="193.15" width="15.42" height="3.51"/><path class="cls-10" d="M154.27,103.34s6.61-15.25,6.61-42.63S141.53,10.76,116.75,3.63C87.86-4.67,48.54,1.33,28,21s-23.25,58-12.59,83.16C100.22,104.18,154.27,103.34,154.27,103.34Z"/><path class="cls-11" d="M22.75,64.19S79,33.94,101.18,25.94s39.8-9.54,43.33,8-.42,40.1-.42,40.1l-115.77-6Z"/><path class="cls-12" d="M22.75,64.19v59.69c0,11.08,16,41.85,56.5,41.85s64.84-11.7,64.84-49.85V74S130.6,54.35,22.75,64.19Z"/><path class="cls-13" d="M60.66,96.73a9.08,9.08,0,0,1-6.37,11.46,9.78,9.78,0,0,1-12.11-6A9.07,9.07,0,0,1,48.54,90.7,9.8,9.8,0,0,1,60.66,96.73Z"/><path class="cls-4" d="M57,94.35c-.27,1.17-2,1.79-3.86,1.4S50,94.09,50.24,92.93s2-1.79,3.87-1.4S57.25,93.19,57,94.35Z"/><path class="cls-13" d="M109,96.73a9.07,9.07,0,0,0,6.37,11.46,9.78,9.78,0,0,0,12.11-6,9.07,9.07,0,0,0-6.37-11.46A9.79,9.79,0,0,0,109,96.73Z"/><path class="cls-4" d="M112.63,94.35c.28,1.17,2,1.79,3.86,1.4s3.15-1.66,2.87-2.82-2-1.79-3.86-1.4S112.36,93.19,112.63,94.35Z"/><path class="cls-14" d="M93.16,114.91a7.59,7.59,0,0,0-2-4.18h0a9.26,9.26,0,0,0-7.17-3h0a9.89,9.89,0,0,0-6.91,2.94h0a15.66,15.66,0,0,0-3,4.08h0c-.1.2-.14.3-.14.3h0a.94.94,0,0,1-1.19.46h0a.84.84,0,0,1-.5-1.12h0A17.41,17.41,0,0,1,75,110.23h0A12.09,12.09,0,0,1,84,106h0a11.11,11.11,0,0,1,8.55,3.61h0A9,9,0,0,1,95,114.91h0a.89.89,0,0,1-.91.86h0a.89.89,0,0,1-.91-.86Z"/><path class="cls-12" d="M141.87,104.3s3.43-14,16.59-10.52,12,17.13,7.3,23.37-20.74,15.19-24.85,2.94C141.07,112.35,141.87,104.3,141.87,104.3Z"/><path class="cls-15" d="M158.46,93.78c-13.16-3.49-16.59,10.52-16.59,10.52l0,.26s5.77-11.68,17.67-8.92,6.47,21.11,1.05,23.81-14.06,7.3-19.65.64c4.11,12.25,20.14,3.3,24.85-2.94S171.62,97.27,158.46,93.78Z"/><path class="cls-14" d="M147.89,109a12.05,12.05,0,0,1,1.64-5.27,1.74,1.74,0,0,1,.11-.18,8.13,8.13,0,0,1,4.08-3.26,7.39,7.39,0,0,1,2.13-.44,1.1,1.1,0,0,1,1.1.94.9.9,0,0,1-.93,1H156a5.81,5.81,0,0,0-1.39.32,6.34,6.34,0,0,0-2.3,1.46,17.06,17.06,0,0,1,2.15.7,11.36,11.36,0,0,1,6.09,5.53c.09.19.17.38.25.59a.86.86,0,0,1-.52,1.16l-.07,0a1.1,1.1,0,0,1-1.31-.64c-.06-.16-.13-.31-.2-.46a9.15,9.15,0,0,0-4.95-4.46,12.67,12.67,0,0,0-2.33-.71l-.32-.06a11.23,11.23,0,0,0-1.15,4.1.88.88,0,0,1-.59.74,1.13,1.13,0,0,1-.52,0A1,1,0,0,1,147.89,109Z"/><path class="cls-12" d="M27.15,103.31s-3.43-14-16.59-10.52-12,17.13-7.3,23.37S24,131.36,28.1,119.1C28,111.36,27.15,103.31,27.15,103.31Z"/><path class="cls-15" d="M10.56,92.79c13.16-3.48,16.59,10.52,16.59,10.52s0,.1,0,.26c0,0-5.78-11.68-17.67-8.92s-6.47,21.11-1,23.81,14.06,7.3,19.64.64C24,131.36,8,122.4,3.26,116.16S-2.61,96.28,10.56,92.79Z"/><path class="cls-14" d="M21.13,108a12,12,0,0,0-1.64-5.26.81.81,0,0,0-.12-.18,8.1,8.1,0,0,0-4.07-3.27,7.17,7.17,0,0,0-2.13-.43,1.08,1.08,0,0,0-1.1.94.89.89,0,0,0,.92,1h.07a5.76,5.76,0,0,1,1.38.32,6.3,6.3,0,0,1,2.3,1.47,14.62,14.62,0,0,0-2.14.7,11.33,11.33,0,0,0-6.09,5.53,6.29,6.29,0,0,0-.26.58.87.87,0,0,0,.53,1.16l.06,0a1.1,1.1,0,0,0,1.31-.65c.06-.15.13-.3.21-.46A9.08,9.08,0,0,1,15.3,105a12.06,12.06,0,0,1,2.33-.72l.33-.06a11.23,11.23,0,0,1,1.15,4.11.86.86,0,0,0,.59.73,1,1,0,0,0,.52,0A1.05,1.05,0,0,0,21.13,108Z"/><path class="cls-10" d="M111.52,78.67c4.83.23,12.19,2.49,16.69,4.06,2.46.86,9.18,5.17,11,1.1,1.1-2.52-2.89-6.51-4.65-8a19.92,19.92,0,0,0-15.1-4.6C117,71.59,105.15,78.36,111.52,78.67Z"/><path class="cls-10" d="M61.76,78.67c-4.83.23-12.19,2.49-16.69,4.06-2.46.86-9.18,5.17-11,1.1-1.1-2.52,2.89-6.51,4.65-8a19.93,19.93,0,0,1,15.1-4.6C56.24,71.59,68.13,78.36,61.76,78.67Z"/><path class="cls-16" d="M138.74,27.17c-.36.09,1.25,8.18.36,18.31-.71,10.11-2.38,18.22-2,18.3s2.75-8,3.47-18.2C141.5,35.28,139.18,27,138.74,27.17ZM123.87,42.28c-1.81,9.53-2.66,17.34-2.25,17.4s1.92-7.64,3.72-17.14,3.59-17.06,3.55-17.11C128.17,25.14,125.56,32.75,123.87,42.28Zm-18.72-2c-3.66,7.9-5.1,14.77-4.72,14.86s2.5-6.53,6.08-14.26A35.65,35.65,0,0,1,115.2,28.3C114.82,27.54,108.47,32.14,105.15,40.31ZM89,44.31c-3.46,7.14-4.58,13.45-4.21,13.53s2.19-6,5.57-12.92a34.84,34.84,0,0,1,8.13-11.29C98.25,33,92.18,36.87,89,44.31Zm-12.1,2.21c-3.43,5.24-5.31,9.93-5,10.08s2.85-4.18,6.21-9.31C81.43,42,85.09,38.76,85,38.55,84.72,38,80.19,41.14,76.92,46.52Zm-13,4.7c-2.58,3.56-3.84,6.86-3.48,7s2.22-2.78,4.71-6.21,5-5.6,4.92-5.9C69.84,45.67,66.35,47.54,63.89,51.22ZM53.14,54.44c-2.71,2.78-4.39,5.41-4.07,5.65s2.52-2,5.16-4.66,5-4.51,4.9-4.77C58.94,50.13,55.77,51.59,53.14,54.44Z"/><path class="cls-17" d="M56,149.23a1,1,0,0,1-1-1h0a1,1,0,0,1,1-1h1.61c7.76,0,42.1-.5,58.72-8.09h0a1,1,0,0,1,1.35.5h0a1,1,0,0,1-.51,1.36h0c-17.41,7.87-51.66,8.26-59.56,8.28H56Z"/></g></g></svg>