<svg xmlns="http://www.w3.org/2000/svg" viewBox="0 0 184.96 273.71"><defs><style>.cls-1{fill:#f9dab4;}.cls-2{fill:#f7cea6;}.cls-3{fill:#438970;}.cls-4{fill:#61aa90;}.cls-5{fill:#ffbc36;}.cls-6{fill:#472b18;}.cls-7{fill:#fff;}.cls-8{fill:#f9f7f2;}.cls-9{fill:#e5be9e;}.cls-10{fill:#f4c7a2;}.cls-11{fill:#efa92b;}</style></defs><title>资源 17</title><g id="图层_2" data-name="图层 2"><g id="Layer_1" data-name="Layer 1"><path class="cls-1" d="M167,273.71H147.5l-7.24-70.4,19.63,0S165.26,259.77,167,273.71Z"/><path class="cls-2" d="M161.54,220.43s-9.53-4-14.66-3.29-2.58,10.09-1.48,21.1c.76,7.67,1.85,25.43,2.43,35.47h-.33l-7.24-70.4,19.63,0S160.58,210.52,161.54,220.43Z"/><path class="cls-3" d="M129.68,158s34.41,15.07,38.93,58.39H126V158Z"/><path class="cls-4" d="M150.52,213.58s10.91-.29,12.26-8.44-14.52-32.63-20.92-36-9.22-3.19-7.81,5.66,5.17,34.84,5.17,38.23C142.8,214.71,150.52,213.58,150.52,213.58Z"/><path class="cls-1" d="M20.38,273.71H39.92l7.24-70.4-19.63,0S22.16,259.77,20.38,273.71Z"/><path class="cls-2" d="M25.88,220.43s9.53-4,14.66-3.29,2.58,10.09,1.48,21.1c-.76,7.67-1.85,25.43-2.44,35.47h.34l7.24-70.4-19.63,0S26.84,210.52,25.88,220.43Z"/><path class="cls-3" d="M57.74,158S23.33,173.08,18.81,216.4H61.39V158Z"/><path class="cls-4" d="M36.9,213.58s-10.91-.29-12.26-8.44,14.52-32.63,20.92-36,9.22-3.19,7.81,5.66S48.2,209.62,48.2,213C44.62,214.71,36.9,213.58,36.9,213.58Z"/><path class="cls-3" d="M57.23,148.63s-15.54,78.8-12.14,125.08h96s.38-82.62-11.76-125.46C75.06,148.25,57.23,148.63,57.23,148.63Z"/><path class="cls-4" d="M63.68,156.66a156.23,156.23,0,0,0-12,43.42c-3.13,25-10.53,71.4,11.38,71.42h67.43c8,0,8-22.65,8-33.55s-4.59-73.59-13-82C93.36,137.25,63.68,156.66,63.68,156.66Z"/><path class="cls-3" d="M93.23,193c-9.63,0-15.07-4-17.93-7.38-6.93-8.16-5.33-19.49-5.12-20.75l.92-5.66h44.26l.92,5.66c.21,1.26,1.82,12.59-5.11,20.75C108.3,188.94,102.87,193,93.23,193Z"/><path class="cls-2" d="M76.84,165.9s-3.32,20.31,16.39,20.31,16.4-20.31,16.4-20.31Z"/><path class="cls-1" d="M137.1,64.69c-16.94-7-26.13.86-43.65.3h0a85.74,85.74,0,0,0-25.92,3.77c-40.27,10.85-44.81,43.69-45.43,53.13C20,153.49,53.5,179.44,92.7,179.7s71.14-25.22,71.35-56.9C164.05,122.8,165.52,77.94,137.1,64.69Z"/><path class="cls-5" d="M117.67,101.24s4.45-2,12-1.63c7.32.33,13.42,3.65,13.74,2.07.56-2.81-3.33-7.66-9.39-9.87-5.69-2.07-10.77-.3-14.67,2.59S113.76,102.31,117.67,101.24Z"/><path class="cls-5" d="M69.13,101.24s-4.45-2-12-1.63c-7.32.33-13.42,3.65-13.74,2.07-.56-2.81,3.33-7.66,9.39-9.87,5.69-2.07,10.77-.3,14.67,2.59S73,102.31,69.13,101.24Z"/><path class="cls-6" d="M139.23,115.25a11.45,11.45,0,1,1-15.87-3.2A11.44,11.44,0,0,1,139.23,115.25Z"/><path class="cls-7" d="M131.46,112.56c1.14,1.71-.35,4.7-3.32,6.68s-6.31,2.19-7.45.48.36-4.7,3.33-6.67S130.33,110.85,131.46,112.56Z"/><path class="cls-6" d="M66.77,112.62a11.45,11.45,0,1,1-15.87-3.19A11.45,11.45,0,0,1,66.77,112.62Z"/><path class="cls-7" d="M59,109.94c1.14,1.71-.35,4.7-3.32,6.68s-6.31,2.19-7.45.48.36-4.7,3.33-6.67S57.87,108.23,59,109.94Z"/><path class="cls-2" d="M86.25,140.92h0a27.6,27.6,0,0,1,2.11-2.79,17.45,17.45,0,0,1,1.95-2,7.62,7.62,0,0,1,2-1.3,2.17,2.17,0,0,1,.76-.13,3.8,3.8,0,0,1,1.81.57,11.77,11.77,0,0,1,3,2.61,16.92,16.92,0,0,1,2.21,3.32,1,1,0,0,0,1.74-.85,19.13,19.13,0,0,0-3.55-4.89,11.52,11.52,0,0,0-2.42-1.88,5.68,5.68,0,0,0-2.75-.82,4.13,4.13,0,0,0-1.46.26,9.46,9.46,0,0,0-2.66,1.7,23.23,23.23,0,0,0-3.08,3.36c-.79,1-1.27,1.78-1.28,1.79a1,1,0,1,0,1.63,1Z"/><path class="cls-8" d="M49.16,141.26a1.27,1.27,0,0,1-1.32,1.23l-4.33-.16A1.28,1.28,0,0,1,42.28,141h0a1.27,1.27,0,0,1,1.33-1.23l4.32.16a1.27,1.27,0,0,1,1.23,1.33Z"/><path class="cls-8" d="M142.26,141.86a1.28,1.28,0,0,1-1.33,1.23l-4.32-.16a1.27,1.27,0,0,1-1.23-1.33h0a1.26,1.26,0,0,1,1.33-1.23l4.32.15a1.29,1.29,0,0,1,1.23,1.34Z"/><path class="cls-1" d="M155,143.2a23.57,23.57,0,0,0,19.81-.26c10.39-5.08,15.52-25.95,2.05-30.95s-17.62,10.49-17.62,10.49Z"/><path class="cls-2" d="M161.24,136.85s4.28-22.86,14.28-15c6.14,4.85,2.5,11.63-3.2,14.41C168.74,138,164.09,138.19,161.24,136.85Z"/><path class="cls-9" d="M161.37,136.59l1.48-5.76s19-5.43,13.68,2.2S161.37,136.59,161.37,136.59Z"/><path class="cls-1" d="M29.74,141.89a23.55,23.55,0,0,1-19.8-.52c-10.33-5.22-15.19-26.15-1.66-31s17.49,10.72,17.49,10.72Z"/><path class="cls-2" d="M23.56,135.46s-4-22.92-14.09-15.15c-6.2,4.77-2.64,11.59,3,14.44C16,136.54,20.69,136.75,23.56,135.46Z"/><path class="cls-9" d="M23.43,135.2,22,129.41s-18.94-5.66-13.71,2S23.43,135.2,23.43,135.2Z"/><path class="cls-10" d="M92.32,166.89A63.79,63.79,0,0,1,70.63,163a1.38,1.38,0,0,1,1.05-2.55h0c.23.09,23.27,9.31,43.41-1.88a1.38,1.38,0,1,1,1.34,2.41A49.42,49.42,0,0,1,92.32,166.89Z"/><path class="cls-5" d="M166,46.11c-13.26-19.73-31.11-31.94-72.95-31.94-20.59,0-34,1.7-44.79,6.9-9.6,4.63-12.52,15.65-12.52,15.65S27,35.39,21.14,44.41c-6.51,10-8.34,25.7-8.34,39.8,0,17.26,1.65,25.33,1.65,25.33l8.49,5.52C27.78,95,35.1,89.18,39.74,85.4c8.71-7.1,29-11.57,43.1-12.26,38.66-1.91,44,1.65,52.54,5.06s22.41,11.48,27.73,37l8.76-4.2s1.43-9.53,1.43-26.79C173.3,70.11,172.66,56,166,46.11Z"/><path class="cls-11" d="M163.68,42.81,131.34,76.56h0c26.7-2.19,38.07-23.74,38.08-23.76A33.46,33.46,0,0,0,166,46.11C165.24,45,164.47,43.88,163.68,42.81Z"/><path class="cls-5" d="M93,27.66S144.73,27.4,146.59,0c0,0,22.83,12.58,17.09,42.81-6.45,34-63.14,50.55-91.41,31.41Z"/></g></g></svg>