<svg xmlns="http://www.w3.org/2000/svg" viewBox="0 0 187.75 260.03"><defs><style>.cls-1{fill:#e0dbd3;}.cls-2{fill:#c6c1ba;}.cls-3{fill:#eae5dc;}.cls-4{fill:#3a332d;}.cls-5{fill:#f4d3b0;}.cls-6{fill:#f9dab4;}.cls-7{fill:#efc4a0;}.cls-8{fill:#2f3233;}.cls-9{fill:#393c3d;}.cls-10{fill:#6dbdc6;}.cls-11{fill:#f9f5ed;}</style></defs><title>资源 184</title><g id="图层_2" data-name="图层 2"><g id="Layer_1" data-name="Layer 1"><path class="cls-1" d="M144.48,179.29l-14.95,4.84-6.41,24,31.61,46.76s-.84,2-2.12,5.17h34.85a39.21,39.21,0,0,0,.15-7.91C185.84,234.06,144.48,179.29,144.48,179.29Z"/><path class="cls-1" d="M11.36,195.81C9.51,203.47,4.57,231.88.87,260H37.34c2.2-36.21,3.77-74.6,3.77-74.6l-15.33-6.14S15.14,180.23,11.36,195.81Z"/><polygon class="cls-2" points="25.93 250.71 15.94 260.03 26.73 260.03 25.93 250.71"/><polygon class="cls-2" points="14.3 260.03 12.1 242.9 1.54 260.03 14.3 260.03"/><path class="cls-2" d="M38.63,225.53l.59.65c1.16-22.87,1.89-40.75,1.89-40.75l-15.33-6.14s-5.6.52-10.12,6.77C18.07,201.25,28.61,214.31,38.63,225.53Z"/><polygon class="cls-3" points="85.13 169.77 55.39 165.94 25.78 179.28 27.49 260.03 142.78 260.03 144.48 179.28 114.88 165.94 85.13 169.77"/><polygon class="cls-2" points="35.85 187.31 64.37 180.94 65.08 202.73 84.43 192.63 85.13 214.48 105.8 204.42 109.7 226.18 129.88 215.26 135.86 246.99 94.95 250.71 42.47 206.79 35.85 187.31"/><path class="cls-2" d="M92.65,222a159.4,159.4,0,0,1-36.11-26.31c-6.69-6.42-13.54-13.92-16.65-22.76l-14.11,6.36.66,31.2a163.72,163.72,0,0,0,12.19,15c10.53,11.79,21.09,23,34.43,31.71q2.18,1.42,4.4,2.79h65.32l.3-14.2-1-.46C125.38,238.06,108.78,230.41,92.65,222Z"/><path class="cls-1" d="M119.61,169.79l-6.84-18-29.2,3-29.19-3-6.85,18s2.53,7,35.55,7.08h1C117.09,176.78,119.61,169.79,119.61,169.79Z"/><path class="cls-4" d="M162.81,69C161.42,44.66,140.49,1.15,83.58,0c0,0-1,0-1.47,0s-1.46,0-1.46,0C23.74,1.15,2.81,44.66,1.42,69,0,93.82,14.12,112.24,14.12,112.24h136S164.22,93.82,162.81,69Z"/><path class="cls-5" d="M24,107.82s-8.63-11.39-18.25-6.09,3.7,39.92,22.69,42.74Z"/><path class="cls-5" d="M140.22,107.82s8.63-11.39,18.25-6.09-3.7,39.92-22.69,42.74Z"/><path class="cls-6" d="M15.19,66.55l-.72.71s2.79,55.6,11.83,74.37c8.33,17.29,37.72,24.31,55.81,24.31s47.49-7,55.82-24.31c9-18.77,11.83-74.37,11.83-74.37l-.72-.71Z"/><polygon class="cls-4" points="105.22 94.15 104.51 103.06 133.77 101.86 130.64 92.69 105.22 94.15"/><polygon class="cls-4" points="63.64 94.15 64.35 103.06 35.09 101.86 38.23 92.69 63.64 94.15"/><path class="cls-4" d="M63.3,114.63h0L41.64,120a1.28,1.28,0,0,1-1.39-1.11c-.19-.76.19-1.56.7-1.63l21.65-5.37c.58-.15,1.2.36,1.39,1.11A1.28,1.28,0,0,1,63.3,114.63Z"/><path class="cls-4" d="M105.51,115.1h0l21.86,4.44c.58.12,1.19-.4,1.35-1.17s-.26-1.55-.77-1.6l-21.86-4.44c-.59-.12-1.19.41-1.35,1.17A1.27,1.27,0,0,0,105.51,115.1Z"/><path class="cls-7" d="M95.48,127.47s-2.51-8-10.59-8.55-11.5,9.84-11.5,9.84,5.07-7.68,11.48-7S95.48,127.47,95.48,127.47Z"/><path class="cls-4" d="M8.13,71.51S46.73,111.17,62,104.09L48.86,89.57S80,109.05,92.42,104.45c0,0-17-9.92-15.94-12.4s40.73,18.76,58.08,13.1c0,0-3.54-6.72-18.77-14.16,0,0,24.44,11.68,34.35,6.37L134.92,83.2s15.22,7.08,19.12,3.54,2.83-24.79-6.73-29S5,26.54,8.13,70.09Z"/><path class="cls-8" d="M37.19,39.31S4.07,44.39,2.72,47.68-1,62.77.48,63.88s20.88-4.2,38.54-4.2Z"/><path class="cls-8" d="M129.87,39.31s30.29,5.08,31.64,8.37,3.74,15.09,2.24,16.2-18.05-4.2-35.71-4.2Z"/><path class="cls-9" d="M136.6,30.21c-18.49-11.81-87.3-11.81-105.8,0,0,0-4.36,34.28-1.33,37.76s19.11,11.17,25.9,8.31c5.85-2.47,20.06-14.75,28.33-18,8.26,3.21,22.48,15.49,28.34,18,6.78,2.86,22.85-4.82,25.89-8.31S136.6,30.21,136.6,30.21Z"/><path class="cls-10" d="M130.48,33.41c-16.36-8.93-77.2-8.93-93.56,0,0,0-4.81,26.66-2.12,29.3S50.44,72,56.44,69.83c5.17-1.87,20-14.9,27.26-17.33,7.31,2.43,22,14.28,27.21,16.14,6,2.16,19-3.3,21.69-5.93S130.48,33.41,130.48,33.41Z"/><path class="cls-11" d="M61.86,27.73l-27.8,27.8c-.19,3.59-.05,6.41.74,7.18a15.65,15.65,0,0,0,2.42,1.78L74.83,26.88C70.36,27,66,27.32,61.86,27.73Z"/><path class="cls-11" d="M100.25,62.21l29.27-29.27A43.3,43.3,0,0,0,120.36,30L92.93,57.4C95.35,58.94,97.85,60.61,100.25,62.21Z"/><path class="cls-4" d="M38.14,144.47c-2.61.56-7.43-1.41-12.36-4,.17.39.34.79.52,1.16,2.85,5.93,8.22,10.63,14.73,14.27a43.7,43.7,0,0,0,9.15-11.33c5.31-9.46,19.1-7,19.1-7v-2C50.84,133.84,44.87,143.05,38.14,144.47Z"/><path class="cls-4" d="M138.45,140.47c-4.93,2.59-9.75,4.56-12.36,4-6.73-1.42-12.71-10.63-31.14-8.86v2s13.79-2.5,19.1,7a43.7,43.7,0,0,0,9.15,11.33c6.51-3.64,11.87-8.34,14.73-14.27C138.11,141.26,138.28,140.86,138.45,140.47Z"/><path class="cls-7" d="M60.47,149.78A35.15,35.15,0,0,0,72,153.6a69.88,69.88,0,0,0,12,.92,85.49,85.49,0,0,0,12.09-.86,45.53,45.53,0,0,0,5.89-1.31,17.65,17.65,0,0,0,5.51-2.57c-2.73,3.25-6.95,4.87-11,6A53.29,53.29,0,0,1,84,157.32a44.4,44.4,0,0,1-12.55-1.51C67.41,154.68,63.37,152.83,60.47,149.78Z"/></g></g></svg>