<?xml version="1.0" standalone="no"?><!DOCTYPE svg PUBLIC "-//W3C//DTD SVG 1.1//EN" "http://www.w3.org/Graphics/SVG/1.1/DTD/svg11.dtd"><svg t="1548742426721" class="icon" style="" viewBox="0 0 1417 1024" version="1.1" xmlns="http://www.w3.org/2000/svg" p-id="4123" xmlns:xlink="http://www.w3.org/1999/xlink" width="276.7578125" height="200"><defs><style type="text/css"></style></defs><path d="M391.703631 664.229415h57.674831V238.513231h-42.590524c-7.640615 33.083077-19.093662 53.972677-34.563938 62.905107s-42.590523 15.210338-81.549785 19.007016v41.243569h101.029416v302.560492zM656.596677 577.378462l46.213908-83.243324a61.991385 61.991385 0 0 1-11.074954-18.817969h-94.916923a153.718154 153.718154 0 0 0 43.732677 87.993108 124.085169 124.085169 0 0 0 16.045292 14.068185z m353.886523-124.297847a262.301538 262.301538 0 0 1-25.017108 112.135877c7.089231 0.378092 14.1312 0.567138 21.385846 0.787693a151.685908 151.685908 0 0 0 45.071754-28.356923c109.056-96.547446 60.542031-205.445908 215.04-148.810831 0 0-118.216862-125.621169-179.712-85.330708-73.145108 65.9456-72.381046-27.175385-13.390769-26.4192 55.1936 0.787692 117.4528 9.121477 156.9792-45.229292 37.242092-51.129108 2.678154-87.615015 2.678154-87.615016-30.940554 50.932185-53.476431 59.076923-122.226215 39.5264-66.465477-15.013415 39.148308-36.674954 68.93883-81.337107 35.335877-58.344369-12.028062-102.4-12.028061-102.4s-13.564062 118.784-197.096369 103.581538c-46.788923-3.9936-95.680985-0.787692-131.205908 15.753846a150.795815 150.795815 0 0 0-65.504492 54.547693c-3.820308 5.316923-7.640615 10.830769-11.264 16.541538a262.923815 262.923815 0 0 1 247.335384 262.648123z m-311.492923-34.209477l-54.429539-78.107569c-1.339077 1.3312-2.8672 2.6624-4.1984 3.9936a154.836677 154.836677 0 0 0-43.732676 87.993108h94.916923a79.556923 79.556923 0 0 1 7.443692-13.879139z m50.609231 96.933416a54.185354 54.185354 0 0 1-9.546831-0.787692l-46.213908 83.243323a154.238031 154.238031 0 0 0 125.660554-6.459077l-54.429538-78.115446a59.510154 59.510154 0 0 1-15.470277 2.095261z m50.412307-26.608246l54.429539 78.107569c1.339077-1.3312 2.678154-2.6624 4.206277-3.9936a154.915446 154.915446 0 0 0 43.732677-87.993108h-95.10597a63.440738 63.440738 0 0 1-7.254646 13.879139z m-50.412307-96.925539a50.711631 50.711631 0 0 1 9.357784 0.787693l46.221785-83.243324a154.253785 154.253785 0 0 0-125.668431 6.301539l54.429539 78.115446a69.190892 69.190892 0 0 1 15.659323-1.898338z m57.67483 40.479508h94.9248a153.773292 153.773292 0 0 0-43.740553-87.993108 140.894523 140.894523 0 0 0-16.037416-14.068184L796.199385 413.932308a61.991385 61.991385 0 0 1 11.074953 18.817969zM748.457354 673.161846a219.844923 219.844923 0 1 0-155.080862-64.590769 218.112 218.112 0 0 0 155.080862 64.590769zM625.081108 329.168738a173.985477 173.985477 0 0 1 246.752492 0 175.608123 175.608123 0 0 1 0 247.831631 173.985477 173.985477 0 0 1-246.752492 0 175.592369 175.592369 0 0 1 0-247.831631z m-529.58917 456.861539H0v41.621661h95.491938V936.566154L0 948.736V992.492308l95.491938-12.16197V1024h72.570093V720.4864h-72.570093v65.567508z m204.540062 41.621661h93.963815v-41.621661H300.032v-65.756554h-72.570092v302.757415h152.591754l20.054646-37.446892H300.032v-157.932308z m471.339323 93.506954h-74.673231l21.393723 101.084554h76.579447l19.692307-43.693292h-31.1296l-11.815384-57.391262z m41.448369-178.806154H649.720123v-20.338215H568.170338v20.338215H405.070769v39.5264h407.937969v-39.5264h-0.189046zM727.638646 872.920615H492.733046v-35.540677h237.008739v71.459447h78.682584V801.083077H414.050462v107.764185h154.119876v68.608h-36.099938l16.431262 46.166646h101.218461V908.996923h55.004554l22.913969-36.107815z m-288.571077 105.661047h-31.1296l19.692308 43.693292h76.587323l21.385846-101.084554h-74.673231l-11.815384 57.391262z m388.261416-234.897724V1024h96.256v-112.128l21.393723 22.803692h152.024615V775.412185l-42.590523-31.736123h-227.083815z m182.390153 139.8784h-86.134153v-88.576h86.134153v88.568124z m375.831631 100.336247l-104.077784-110.607754 121.304615-123.155693h-97.035815l-97.97317 98.634831V742.006154H1121.673846v281.875692h86.094769v-124.557784l113.632493 121.997784h80.399754l16.045292-37.423261h-32.295385z" p-id="4124"></path></svg>