<?xml version="1.0" standalone="no"?><!DOCTYPE svg PUBLIC "-//W3C//DTD SVG 1.1//EN" "http://www.w3.org/Graphics/SVG/1.1/DTD/svg11.dtd"><svg t="1548490908022" class="icon" style="" viewBox="0 0 1024 1024" version="1.1" xmlns="http://www.w3.org/2000/svg" p-id="2484" xmlns:xlink="http://www.w3.org/1999/xlink" width="200" height="200"><defs><style type="text/css"></style></defs><path d="M981.333333 1024H42.666667a42.666667 42.666667 0 0 1-42.666667-42.666667V42.666667a42.666667 42.666667 0 0 1 42.666667-42.666667h938.666666a42.666667 42.666667 0 0 1 42.666667 42.666667v938.666666a42.666667 42.666667 0 0 1-42.666667 42.666667zM476.373333 232H248.96a57.002667 57.002667 0 0 0 0 114.005333h227.413333a57.002667 57.002667 0 0 0 0-114.005333z m75.946667 208.661333H248.96a57.002667 57.002667 0 0 0 0 114.005334h303.36a57.002667 57.002667 0 0 0 0-114.005334z m75.946667 228.010667H248.96a57.002667 57.002667 0 0 0 0 113.984h379.306667a57.002667 57.002667 0 0 0 0-113.984z" p-id="2485"></path></svg>