<svg xmlns="http://www.w3.org/2000/svg" viewBox="0 0 182.87 270.25"><defs><style>.cls-1{fill:#f9dab4;}.cls-2{fill:#efc4a0;}.cls-3{fill:#4793a0;}.cls-4{fill:#f5fcfc;}.cls-5{fill:#c65044;}.cls-6{fill:#4c3626;}.cls-7{fill:#3f2c20;}.cls-8{fill:#f4d3b0;}.cls-9{fill:#3a332d;}.cls-10{fill:#e8dfd9;}.cls-11{fill:#492020;}</style></defs><title>资源 332</title><g id="图层_2" data-name="图层 2"><g id="Layer_1" data-name="Layer 1"><path class="cls-1" d="M128.91,185.4l-18.72,8s5.92,44,11.39,76.85h19.6C137.75,254,128.91,185.4,128.91,185.4Z"/><path class="cls-2" d="M48,199.78s-11.75,19.7-12.55,28.82l16,3,7.2-29S54.69,195.37,48,199.78Z"/><path class="cls-3" d="M116.09,169s14.73,6.83,18.78,37.56l-19.64,1.07-8.53-36.07Z"/><path class="cls-3" d="M61.45,169s-14.73,6.83-18.79,37.56l19.64,1.07,8.54-36.07Z"/><path class="cls-4" d="M93.06,171.32H67.59S47.08,204,48,270.25h81.51c.93-66.3-19.58-98.93-19.58-98.93Z"/><path class="cls-5" d="M110.19,209.3a8.88,8.88,0,1,1-8.87-8.88A8.87,8.87,0,0,1,110.19,209.3Z"/><path class="cls-2" d="M103.36,177.53c0,6.73-6.54,12.19-14.6,12.19s-14.59-5.46-14.59-12.19,6.53-12.18,14.59-12.18S103.36,170.8,103.36,177.53Z"/><path class="cls-6" d="M21.18,132.21s-8.64-53.13,0-76.5S58.32,16.65,58.32,16.65L56.4,30.1S77.85,7,97.7,0l-6,16s23-15,45.05-11.53L126.2,16.33s30.09-5.12,41.94,4.8l-14.56,9.61A40.13,40.13,0,0,1,181.26,46.1l-15.65,5.68S177.42,56,182.87,73.32c0,0-8-1.92-19.22,4.16,0,0,9,5.12,11.85,14.09,0,0-12.16-5.44-16.65-2.24,0,0-2.88,30.71-4.48,42.88Z"/><path class="cls-7" d="M142.06,70.92c-4.11-.8-8.28-1.17-12.45-1.63-4.67-.52-10-1.46-14.73-.85-7,.89-23,27.29-29.88,33.69,19.14,3.81,34.92,2.89,54.43,3a3.39,3.39,0,0,1,2.61,1.11,88.34,88.34,0,0,0,5.68-14.68C149.58,84.53,152.12,72.9,142.06,70.92Z"/><path class="cls-8" d="M34.79,127.67s-8-9.85-16.95-5.27,3.44,34.52,21.08,37Z"/><path class="cls-8" d="M142.73,127.67s8-9.85,17-5.27-3.43,34.52-21.07,37Z"/><path class="cls-1" d="M135.21,165.92s-18,12-46.44,12.47-46.46-12.47-46.46-12.47a28.46,28.46,0,0,1-11.15-22.63V93.88l27.3-2.69L88.76,99,121,91l25.34,2.87v49.41A28.43,28.43,0,0,1,135.21,165.92Z"/><path class="cls-1" d="M39.26,223.65s-4.8-14.43-9.6-15.39S9.17,206.5,5,212.59s-1.77,12.8,9.44,12.32c0,0-13.77,9.29-14.41,16.81s5.93,19.85,15.85,5a17.76,17.76,0,0,0,6.24,15.69c7.85,6.72,17,0,15.05-4S29.5,247.48,29.82,247c0,0,6.24,2.88,12-4.48a17.49,17.49,0,0,0,11.57-2.09c5.39-3.35,6.35-7.67,4.11-9S39.26,223.65,39.26,223.65Z"/><path class="cls-2" d="M23.73,224.05a22.23,22.23,0,0,0-3.1-.61,28.31,28.31,0,0,0-4.43-.15,30.88,30.88,0,0,0-5.06.57l-2.4.52a18.79,18.79,0,0,0,5.71.53s-.69.47-1.74,1.26c1.25-.25,2.5-.44,3.69-.64,1.54-.3,3-.39,4.23-.62l4.23-.48A8.52,8.52,0,0,0,23.73,224.05Z"/><path class="cls-2" d="M19.47,242.4a66.57,66.57,0,0,0-5.35,6.67l-.1.15a29,29,0,0,0,1.87-2.54,15.56,15.56,0,0,0,0,4.29c.1-.15.21-.29.31-.43a67.77,67.77,0,0,0,4.45-7.3,33.22,33.22,0,0,0,1.63-3.6A29.35,29.35,0,0,0,19.47,242.4Z"/><path class="cls-2" d="M41.83,242.52a9.48,9.48,0,0,0,1,.14v-.07a20.86,20.86,0,0,0-.37-3.88,21.47,21.47,0,0,0-1-3.79,20.08,20.08,0,0,0-1.37-3.13,15.27,15.27,0,0,0-1.36-2,6.89,6.89,0,0,0-.62-.69s.22,1.35.6,3.22c.12,1,.41,2,.57,3.22s.48,2.39.64,3.64.44,2.49.64,3.66c.06.32.12.62.19.93C41.13,243.37,41.48,243,41.83,242.52Z"/><polygon class="cls-6" points="103.09 115.83 104.47 122.14 128.34 117.97 127.06 109.49 103.09 115.83"/><polygon class="cls-6" points="69.73 115.97 67.85 122.14 44.39 116.05 46.36 107.7 69.73 115.97"/><path class="cls-9" d="M127.69,127.84l-21.72,4s1.31,12.93,14.86,9.59C128.35,139.61,127.69,127.84,127.69,127.84Z"/><path class="cls-10" d="M120.53,135.29a2.62,2.62,0,1,1-2.84-2.37A2.61,2.61,0,0,1,120.53,135.29Z"/><path class="cls-9" d="M45.61,127.23l21.44,5.34S65,145.4,51.63,141.24C44.24,138.94,45.61,127.23,45.61,127.23Z"/><path class="cls-10" d="M52.3,135.1a2.62,2.62,0,1,0,3-2.2A2.63,2.63,0,0,0,52.3,135.1Z"/><path class="cls-2" d="M97.36,144.11s-5.51-5.91-11-5.91-10.87,6.54-10.87,6.54,8.11-4.65,11-4.65S97.36,144.11,97.36,144.11Z"/><path class="cls-11" d="M70.31,151.81s12.37,3.15,32.21,0l-1.32,16.31s-16,2.94-27.56,0Z"/><path class="cls-5" d="M92.17,160c-7.71-1.5-13.72,2-17.29,8.41,11.46,2.46,26.32-.28,26.32-.28l.11-1.32C99,163.54,96.18,160.77,92.17,160Z"/></g></g></svg>