<svg xmlns="http://www.w3.org/2000/svg" viewBox="0 0 161.27 260.08"><defs><style>.cls-1{fill:#c2da52;}.cls-2{fill:#b5c445;}.cls-3{fill:#f9dab4;}.cls-4{fill:#e8e074;}.cls-5{fill:#89a560;}.cls-6{opacity:0.28;}.cls-7{fill:#949632;}.cls-8{fill:#9fa833;}.cls-9{fill:#f7cea6;}.cls-10{fill:#60391e;}.cls-11{fill:#4c2c16;}.cls-12{fill:#e5be9e;}.cls-13{fill:#2f3233;}.cls-14{fill:#f9f5ed;}.cls-15{fill:#e0605c;}.cls-16{fill:#ad3936;}</style></defs><title>资源 219</title><g id="图层_2" data-name="图层 2"><g id="Layer_1" data-name="Layer 1"><path class="cls-1" d="M57.12,159.4a141.18,141.18,0,0,0-23.73,8.93C22.07,174,17.82,177.14,13.8,181.17s-6.32,5.88-8.06,13.06-3.59,19.85-.8,22.64h52.4Z"/><path class="cls-2" d="M57.34,216.87l-.22-57.47a141.18,141.18,0,0,0-23.73,8.93c-1.39.69-2.67,1.35-3.86,2a3.34,3.34,0,0,0,.45.35c9-3.19,18.87-1.31,20.32,5.51s1.16,28.16-8.57,16.55S20.4,185.31,15,187.27,12.71,190,12.71,190s18.72-9.87,27.86,5.23l-.39,21.69Z"/><path class="cls-3" d="M148.77,254.67,147.28,245l-20.87,1.94L128.58,260a.66.66,0,0,1,0,.09h23.32A21.22,21.22,0,0,0,148.77,254.67Z"/><path class="cls-1" d="M107.15,159.61S124,170.76,140.61,210c9.19,21.5,9.93,31.22,9.93,31.22l-42,14.63S90.82,146.87,107.15,159.61Z"/><path class="cls-2" d="M122.3,190.93c-2-12.89,9.6.89,9.64.94-13.36-24.67-24.79-32.26-24.79-32.26-10.92-8.52-6.62,37.39-2.58,68.73,4.07,10,9.22,19,15.51,23.46l.69-.25C128.72,225.62,124.28,203.74,122.3,190.93Z"/><path class="cls-4" d="M121.08,244l30.34-4.49s2.5-.54,2.36,4.07.87,6.56-4.76,8-26.47,8.14-27.9,2.51S119.6,244.35,121.08,244Z"/><path class="cls-5" d="M153.78,243.55c.14-4.61-2.36-4.07-2.36-4.07l-2.38.35a36.53,36.53,0,0,1,1,11.43C154.53,249.85,153.64,247.87,153.78,243.55Z"/><path class="cls-5" d="M140.29,241.13l1.16,12.47c1.72-.45,3.3-.89,4.66-1.27l-1.85-11.79Z"/><path class="cls-5" d="M130.59,255.92c1.55-.21,3.19-.52,4.83-.87l-1.26-13-4.66.69Z"/><path class="cls-5" d="M125.22,243.36l-4.14.61c-1.48.38-1.39,4.45,0,10.08.34,1.33,1.77,2,3.82,2.15C124.73,252.58,125,246.64,125.22,243.36Z"/><g class="cls-6"><path class="cls-7" d="M120.26,249.87c.19,1.25.47,2.66.86,4.18,1.43,5.63,22.28-1.08,27.9-2.51s4.61-3.38,4.76-8C153.78,243.55,136,253,120.26,249.87Z"/></g><path class="cls-1" d="M53.84,157.84S38.58,212.49,38.58,250.9h86.16s-1-39.39-19.57-93C82,157.9,53.84,157.84,53.84,157.84Z"/><path class="cls-8" d="M81.18,178.46a2.32,2.32,0,0,1,.77.07,12.33,12.33,0,0,1,2,.87,19.75,19.75,0,0,1,5.26,3.76,13.68,13.68,0,0,1,2.45,3.48c1.48,2.63,2.79,3.45-.08,5.66s-3.28,3-5-1-3.59-9.45-5.74-12C80.31,178.72,80.69,178.5,81.18,178.46Z"/><path class="cls-2" d="M104.19,169.82c-.22-.12-3,4.62-7.39,12.39l-.35.63a2.25,2.25,0,0,0-.24-.36,13.7,13.7,0,0,0-2.82-2.82,26.33,26.33,0,0,0-7.69-3.81,35.5,35.5,0,0,0-4.49-1.18h0c-.47.4,1-.9-1.05.9v1.11l0,1.17.06,2.37c.08,3.2.16,6.51.24,9.91.78,27.15.23,49.12.51,49.15.74.06,2.11-22,1.33-49.19-.07-3.4-.17-6.72-.28-9.92L82,177.78l0-1.17c1.1.24,2.2.53,3.24.85a25.79,25.79,0,0,1,7.3,3.43,12.32,12.32,0,0,1,2.59,2.43c.18.21.3.47.46.69l.21.35.09.13v0h0l1.22,0,.1-.19.78-1.52C102,174.9,104.42,169.94,104.19,169.82ZM72.1,177.67A45.83,45.83,0,0,0,68,180.44c-.74.56-1.5,1.18-2.26,1.86l-.21-.48c-3.5-8.23-10.3-12-10.5-11.3-.19.32,5.52,4.29,8.83,12.07l.6,1.39.06.17v0h0c3,.67.84.18,1.51.33h0l0,0,.07-.07.27-.26.52-.51c.72-.67,1.43-1.3,2.12-1.87,1.39-1.17,2.69-2.18,3.78-3,2.2-1.69,3.57-2.74,3.44-3S74.52,176.24,72.1,177.67Z"/><path class="cls-4" d="M120.06,246.61c-11.32-1.23-62.28.24-68.44.24s-12.8-1.23-14,3.94a13,13,0,0,0-.21,4.86c.19,1.26.65,3.17,1.84,3.87a5.83,5.83,0,0,0,1.39.56h82.92A8.21,8.21,0,0,0,125,259c1.2-1.09,1.33-2.32,1.53-3.68.3-2,.91-4.31-.52-6.06S122.28,246.85,120.06,246.61Z"/><path class="cls-5" d="M106.78,246.14c-2,0-4.11,0-6.31,0a87.34,87.34,0,0,1-.49,14h6.46A52.56,52.56,0,0,0,106.78,246.14Z"/><path class="cls-5" d="M117.81,246.43c-1.72-.11-3.86-.18-6.31-.23,1.45,5.07.66,10.05-.21,13.88h6C118,255.09,118.45,249.73,117.81,246.43Z"/><path class="cls-5" d="M94.54,246.15l-6.24.06c.59,3.92,0,10.35-.45,13.87h6.63A47.43,47.43,0,0,0,94.54,246.15Z"/><path class="cls-5" d="M126.54,255.35c.3-2,.91-4.31-.52-6.06a6.61,6.61,0,0,0-2.6-1.89,92.69,92.69,0,0,1-.72,12.68h.82A7.5,7.5,0,0,0,125,259C126.21,257.94,126.34,256.71,126.54,255.35Z"/><path class="cls-5" d="M82.47,246.29l-6.27.1a39.94,39.94,0,0,0,.2,13.69h6.53C82.51,256.58,81.9,250.22,82.47,246.29Z"/><path class="cls-5" d="M70.85,246.49l-7.11.14A35.76,35.76,0,0,0,64,260.08H71.4C70.93,256.64,70.26,250.44,70.85,246.49Z"/><path class="cls-5" d="M41.51,247.12a4.76,4.76,0,0,0-3.92,3.67,13,13,0,0,0-.21,4.86c.19,1.26.65,3.17,1.84,3.87a5.41,5.41,0,0,0,1.3.53l.26,0h1.76C40.75,255.76,41.18,249.84,41.51,247.12Z"/><path class="cls-5" d="M56.23,246.79c-2.19,0-3.79.06-4.61.06s-1.67,0-2.5,0a36.13,36.13,0,0,0,.31,13.28h7.39C56.36,256.73,55.71,250.74,56.23,246.79Z"/><g class="cls-6"><path class="cls-7" d="M71.2,257.81C49.42,259.67,37.26,254,37.25,254a13.27,13.27,0,0,0,.13,1.67c.19,1.26.65,3.17,1.84,3.87a5.83,5.83,0,0,0,1.39.56h82.92A8.21,8.21,0,0,0,125,259c1.2-1.09,1.33-2.32,1.53-3.68.07-.45.15-.92.22-1.39C109.58,251.22,93,256,71.2,257.81Z"/></g><path class="cls-3" d="M49.17,224.71s2.29,21.77-2.28,22.64-14.37.11-19.6.87S26,236,35.67,236.69c2.4,0,1.53-5.88,1.53-5.88v-5.34Z"/><path class="cls-3" d="M8.42,221.31a14.09,14.09,0,0,1,.63-3.56c1.32-4.24,2.85-11.46,6-14.59,7-7,10.76-9.82,19.18-4.88s11.44,3.72,17.68,14.6C54.26,217,60.31,224.49,63.5,226s4.94,9.72,1.89,12.77-13.93,10-25-7.26c0,0-.58-.8-.58,2.61s.43,4.94-3.05,5.81-6.1.87-7.55-.87c0,3.05-7.43,2.41-8.73.53,0,2-3.62,2.89-5.94.57-2.09-2.09-3.26-5.34-4.2-8.08A29,29,0,0,1,8.42,221.31Z"/><path class="cls-9" d="M26.6,241.28c-2.29,3.41-2.27,7.37.69,6.94,5.23-.76,15,0,19.6-.87,1-.19,1.71-1.46,2.15-3.29C43.17,245.74,27.87,249.29,26.6,241.28ZM64.44,226.6C65.38,229,66,236.75,63,238.17c-7.55,4.07-11.58,2.36-16.65-2s-8.2-12.12-8.64-16-1.23-6-2.21-5,0,6,0,6a36.07,36.07,0,0,0,3.44,9.42c-.06,1.23-.17,3.65-.17,5.16,0,2.11-1.67,3.92-5.59,3.49s-3.77-3.78-4.86-10.74c-.74-4.7-.73-6.35-1.24-7.22,1.79-.5,3.31-1.5,3.05-2.44-.36-1.3-.72-1.45-3.26.08a3.93,3.93,0,0,1-4.65-.51c-1.17-.74-1.6-.07-1.6.8s1.67,2.26,4,2.38c0,.26.1.45.1.45s1.16,7.22,2,10.3,1.81,6.31.74,7.38-3.82.35-5.06-.23-4.53-6.57-6.17-9.94a16.22,16.22,0,0,0-2-3.31,8.23,8.23,0,0,0,2-1.66c.65-.66-.94-2-1.67-.66-1.41,2.61-4.79.66-3.48,2a3.14,3.14,0,0,0,1.74.63c.13.26.25.46.25.46s2.76,5.59,4.54,9,1.74,5.3-.73,4.65S11.91,236,11.91,236a14,14,0,0,0,2.67,4.1c2.32,2.32,5.94,1.45,5.94-.57,1.3,1.88,8.73,2.52,8.73-.53,1.45,1.74,4.07,1.74,7.55.87s3.05-2.4,3.05-5.81c0-.64,0-1.13,0-1.51l0-.26h0q0-.14,0-.24h0l0-.17v0a1.64,1.64,0,0,1,.07-.25v0l0,0v0l0-.05v0a.17.17,0,0,1,.25,0c11,17.27,21.91,10.3,25,7.26C68.12,236,67,229.05,64.44,226.6Zm-8.16,5.91c.58-1.45,3.89-4.39,6.06-4.82s2.11-1.53.87-1.53c-2,0-4.79,1.45-6.82,3.49a5.94,5.94,0,0,1-2.68-5.45C49.86,226.31,55.7,234,56.28,232.51Z"/><path class="cls-4" d="M8.39,222.17s3.2-14.76,16.39-18.41a26.87,26.87,0,0,1,11.9-.46,42.38,42.38,0,0,1,5.86,1.52c3.05,1,6.65,3.73,6.53-1.47-.07-3.09-1.29-6.07-4.14-7.59-6.53-3.49-20.9-5.95-31.35,3.05s-11.9,14.36-10.31,17.7S7,223.53,8.39,222.17Z"/><path class="cls-5" d="M20.58,194.56A37.84,37.84,0,0,0,23.87,204c.3-.1.6-.2.91-.28a25.26,25.26,0,0,1,6.1-.89,33,33,0,0,0-1.68-10.21A27.87,27.87,0,0,0,20.58,194.56Zm28.49,8.79a8.55,8.55,0,0,0-3.63-7.29,32.29,32.29,0,0,1,1.68,10.37C48.32,206.52,49.13,205.86,49.07,203.35ZM35.65,192.92a19,19,0,0,1,1.4,10.46,40.32,40.32,0,0,1,5.29,1.38,24.25,24.25,0,0,0-.8-10.45A31.63,31.63,0,0,0,35.65,192.92Zm-22.07,5.89c-1.51,1.29-2.82,2.51-4,3.66A27.1,27.1,0,0,0,13.17,212a22.88,22.88,0,0,1,5.71-5.54,38.85,38.85,0,0,1-3.45-9.11A20.63,20.63,0,0,0,13.58,198.81ZM3.27,216.51c1.6,3.34,3.77,7,5.12,5.66a25.84,25.84,0,0,1,1.28-3.85c-2.44-2.75-4-7.55-4.73-10.3C2.46,211.8,2.32,214.52,3.27,216.51Z"/><g class="cls-6"><path class="cls-7" d="M49.07,203.35c0-.25,0-.51,0-.76-14.33-10.59-32-4.07-35,3.18S3.09,216.06,3.08,216.06c.06.15.12.31.19.45,1.6,3.34,3.77,7,5.12,5.66,0,0,3.2-14.76,16.39-18.41a26.87,26.87,0,0,1,11.9-.46,42.38,42.38,0,0,1,5.86,1.52C45.59,205.83,49.19,208.55,49.07,203.35Z"/></g><path class="cls-2" d="M94,158.58A12.62,12.62,0,1,1,81.4,146.37,12.41,12.41,0,0,1,94,158.58Z"/><path class="cls-3" d="M94.26,158.58c0,6.33-5.76,11.46-12.86,11.46s-12.86-5.13-12.86-11.46,5.76-11.47,12.86-11.47S94.26,152.24,94.26,158.58Z"/><path class="cls-10" d="M18.86,128.44H143.12s9.08-32.53,9.08-56S149.27,15.32,100.62,3,29,19.86,25.6,23.23c0,0,.68-6.25-2.74-7.91s-4.69,10.06-3.42,14c-7-1.46-10.16.68-10.16,2.64s6.55,2.73,8.31,2.73C12.51,42.48-4.59,83.31,18.86,128.44Z"/><path class="cls-11" d="M73.91,69a10.49,10.49,0,0,1,1.16,9.45l-1.16,2.4A16.94,16.94,0,0,0,81,72a10.79,10.79,0,0,1-.34,9.94s5.89-4.65,5.89-11c3.1,1.24,2.87,9.91,1.55,13.4,3.87-3.87,6.35-9.92,5.5-15,4,.39,5.58,5.58,4.72,9.37,2.42-2.16,3.23-6.94,2.12-11.18,2.78-1,4.62,4.75,3.69,9.17,0,0,2.69-4,2.69-7.85h7.77V94.68H65V69Z"/><path class="cls-11" d="M17.59,34.66c-5.08,7.82-22.18,48.65,1.27,93.78H27C-6,97.09,17.59,34.66,17.59,34.66Z"/><path class="cls-11" d="M14.11,99.21l.1,2.07c9.61,1.44,23.35.41,23.35.41V99.21C27.64,101.17,14.11,99.21,14.11,99.21Zm0,4.13.1,2.07c9.61,1.45,23.35.41,23.35.41v-2.48C27.64,105.31,14.11,103.34,14.11,103.34Zm0,4.34.1,2.07c9.61,1.44,23.35.41,23.35.41v-2.48C27.64,109.64,14.11,107.68,14.11,107.68Zm0,4.34.1,2.07c9.61,1.44,23.35.41,23.35.41V112C27.64,114,14.11,112,14.11,112Zm0,3.61.1,2.07c9.61,1.45,23.35.41,23.35.41v-2.48C27.64,117.6,14.11,115.63,14.11,115.63Z"/><path class="cls-11" d="M128,101.27l.16,2.07c6.78.82,15.56.37,20.18,0,.14-.74.28-1.48.42-2.24C139.3,102.59,128,101.27,128,101.27Zm.13,4.34.16,2.06a112.1,112.1,0,0,0,19.18.1c.15-.71.3-1.44.44-2.17A92.88,92.88,0,0,1,128.13,105.61Zm-.25-8.67L128,99c7.26.88,16.83.3,21.11,0l.39-2.32C139.91,98.34,127.88,96.94,127.88,96.94Zm.35,12.28.16,2.06a108.55,108.55,0,0,0,18.32.16c.14-.69.29-1.4.45-2.12A94.32,94.32,0,0,1,128.23,109.22Zm-.46-16.41.16,2.06c7.77.95,18.17.21,21.92-.11.12-.8.25-1.6.37-2.4C140.47,94.29,127.77,92.81,127.77,92.81Z"/><path class="cls-11" d="M129.06,78.71H116.21l.11,3h12.79Zm-.2-9.86h-13L116,71.9h13Zm.3,15H116.4l.06,1.86,12.81,3.63Zm-.2-9.76H116l.09,2.48H129Z"/><path class="cls-11" d="M33.34,86.41H47.79L48,82.74H33.57Zm.36-5.89H48.09l.13-2.58H33.86ZM33,91.42l14.65-2.79H33.2Zm1.43-23.19-.17,2.68H48.57l.14-2.74ZM34,75.72H48.33l.13-2.59H34.15Z"/><path class="cls-11" d="M21.59,31.44c-1.46-2.93-.78-10,0-12.7s4,1.55,4,1.55c-.21-1.86-.86-4.08-2.7-5-3.42-1.66-4.69,10.06-3.42,14-7-1.46-10.16.68-10.16,2.64,0,1.62,4.52,2.43,7,2.66h0s-6.56-1.78-5.09-3.25S15.44,30.27,21.59,31.44Z"/><path class="cls-11" d="M151.25,87.36a134,134,0,0,0,.95-14.89C152.2,49,149.27,15.32,100.62,3,58.78-7.57,35.91,12.52,28.18,20.49l-1.75,1.86c-.35.38-.63.68-.83.88,0,0,36.34-30.47,84.4-14.36C157.68,24.86,151.35,86.37,151.25,87.36Z"/><path class="cls-3" d="M27.85,124.83v26s16.31,16.93,53.7,16.93S133.71,153,133.71,153l-4.64-66.61a81.22,81.22,0,0,0-10.75-2.9V68.85H106.86s-.26,6.76-3.62,10.12c0,0,1.45-9.09-1.86-10.53,0,0,1.35,9.91-4,12.49,0,0,1.44-8.05-2.79-10,0,6.1-3.31,14-8.68,15.7,0,0,4-10,1.24-14.25,0,0,.1,8.06-9.6,12.6,0,0,4.54-6.09,3.51-13,0,0-.67,7.59-9.45,11.56,0,0,4.85-7,2.32-14.56,0,0-19,.28-26.78-1,0,0-1.75,16-1.75,18.65-7.23,2.12-12.16,3.64-12.16,3.64Z"/><path class="cls-9" d="M81.55,167.79c37.39,0,52.16-14.77,52.16-14.77l-.9-13h0l.08,12.14c-27.58,17.87-61.46,14.56-82.73,6.92s-22.31-24.6-22.31-24.6v16.34S44.16,167.79,81.55,167.79Z"/><path class="cls-3" d="M31.45,123.63s-2.75-23-14.86-26.43-23.19,11-11.87,27.23C16.59,141.4,34.43,138.41,31.45,123.63Z"/><path class="cls-12" d="M23.29,123.72s-3-15.54-10.09-15.72S7.63,124.79,23.29,123.72Z"/><path class="cls-9" d="M23,123.74C19,119.8,12.58,113.46,9.59,110.51,7.75,115.1,11.45,124.34,23,123.74Z"/><path class="cls-9" d="M16.59,97.2c-10.68-3-20.54,7.88-15,21.58h0S0,103.35,8.08,100.68c10.56-3.48,19.31,7.82,22.33,17.37C28.77,111,24.87,99.52,16.59,97.2Z"/><path class="cls-3" d="M129.82,123.63s2.74-23,14.86-26.43,23.19,11,11.87,27.23C144.68,141.4,126.84,138.41,129.82,123.63Z"/><path class="cls-12" d="M138,123.72s3-15.54,10.1-15.72S153.64,124.79,138,123.72Z"/><path class="cls-9" d="M138.31,123.74c3.95-3.94,10.37-10.28,13.37-13.23C153.52,115.1,149.82,124.34,138.31,123.74Z"/><path class="cls-9" d="M144.68,97.2c10.67-3,20.54,7.88,15,21.58h0s1.65-15.43-6.47-18.1c-10.56-3.48-19.31,7.82-22.33,17.37C132.5,111,136.4,99.52,144.68,97.2Z"/><path class="cls-13" d="M67.92,111.66A9.66,9.66,0,1,1,58.26,102,9.66,9.66,0,0,1,67.92,111.66Z"/><path class="cls-14" d="M63.48,106.61c-.29,1.28-2.28,1.92-4.45,1.43s-3.69-1.93-3.41-3.21,2.29-1.92,4.46-1.43S63.77,105.33,63.48,106.61Z"/><path class="cls-13" d="M115.17,111.66a9.66,9.66,0,1,1-9.65-9.66A9.66,9.66,0,0,1,115.17,111.66Z"/><path class="cls-14" d="M110.74,106.61c-.29,1.28-2.29,1.92-4.46,1.43s-3.69-1.93-3.4-3.21,2.28-1.92,4.45-1.43S111,105.33,110.74,106.61Z"/><path class="cls-9" d="M76.28,128.41A9.72,9.72,0,0,0,78,131.13,8.52,8.52,0,0,0,80.45,133a8.14,8.14,0,0,0,3.69.86,9.2,9.2,0,0,0,3.43-.62,7,7,0,0,0,3.4-2.77,7.34,7.34,0,0,0,1.14-3.95,8,8,0,0,0-.08-1.09.77.77,0,1,0-1.53.22,6.36,6.36,0,0,1,.06.87A5.54,5.54,0,0,1,87,131.81a7.65,7.65,0,0,1-2.86.51,6.53,6.53,0,0,1-3-.69,7.36,7.36,0,0,1-2.64-2.37,10.35,10.35,0,0,1-.6-1l-.14-.3a.24.24,0,0,0,0-.07v0h0a.77.77,0,0,0-1-.45A.78.78,0,0,0,76.28,128.41Z"/><path class="cls-10" d="M97.84,84s12.38,4.65,17.33,5.58,5.91,1.86,5.91,3.61.93,4-2.38,2.9a144.12,144.12,0,0,0-15.39-3.72c-4-.73-7.47-.66-6.85-2.41S96.8,84,97.84,84Z"/><path class="cls-10" d="M68.62,84s-12.38,4.65-17.33,5.58-5.91,1.86-5.91,3.61-.93,4,2.38,2.9A144.12,144.12,0,0,1,63.15,92.4c4-.73,7.47-.66,6.85-2.41S69.66,84,68.62,84Z"/><path class="cls-15" d="M75,147.05a57.2,57.2,0,0,0,28.2-13.73s4.44,14.15-2.27,24a74.26,74.26,0,0,0-26-2.58Z"/><path class="cls-16" d="M100.89,157.28a21,21,0,0,0,3.24-8.18,18.19,18.19,0,0,0-8.51-2c-6.57,0-12.09,3.15-13.64,7.41A75.68,75.68,0,0,1,100.89,157.28Z"/><path class="cls-9" d="M100.65,157.77c-1.42-.7-5.07-1.44-9.16-2h0a100.27,100.27,0,0,0-12.17-.88h0a22.44,22.44,0,0,0-4.34.31h0a.58.58,0,0,1-.46-.11h0a.55.55,0,0,1-.2-.43h0l.09-6.91c-.76.07-1.27.08-1.52.08h-.16a.56.56,0,0,1-.53-.57h0a.54.54,0,0,1,.56-.52h.13c1.39,0,13.86-.38,29.92-13.87h0a.54.54,0,0,1,.53-.09h0a.53.53,0,0,1,.35.4h0A58.66,58.66,0,0,1,105,144.73h0c0,8.21-2.51,11.74-3.71,12.93h0a.51.51,0,0,1-.38.16h0a.69.69,0,0,1-.24,0Zm-9-3.05a43.21,43.21,0,0,1,9.12,1.91h0c1.09-1.24,3.14-4.52,3.15-11.9h0a56,56,0,0,0-1.1-10.41h0C90.44,144.48,80.2,147,75.5,147.65h0l-.09,6.4a28.42,28.42,0,0,1,3.91-.22h0a102.31,102.31,0,0,1,12.31.89Z"/></g></g></svg>