<svg xmlns="http://www.w3.org/2000/svg" viewBox="0 0 215.2 260"><defs><style>.cls-1{fill:#efc4a0;}.cls-2{fill:#f9dab4;}.cls-3{fill:#d19865;}.cls-4{fill:#ba8156;}.cls-5{fill:#515151;}.cls-6{fill:#c65044;}.cls-7{fill:#f4bb3b;}.cls-8{fill:#54a3b5;}.cls-9{fill:#e8e3d9;}.cls-10{fill:#f4d3b0;}.cls-11{fill:#393c3d;}</style></defs><title>资源 314</title><g id="图层_2" data-name="图层 2"><g id="Layer_1" data-name="Layer 1"><rect class="cls-1" x="71.26" y="136.73" width="73.89" height="74.14"/><path class="cls-2" d="M0,260H23.61c1.8-18.07,5.56-35,13.35-56.56l-22.55-8C6.21,219.34,2.08,238.37,0,260Z"/><path class="cls-2" d="M201.22,195.41l-22.54,8C186.46,225,190.23,241.93,192,260H215.2S214.13,219.2,201.22,195.41Z"/><path class="cls-3" d="M166.62,151H139.54l-31.72,50.87L76.1,151H49S20.19,174.62,7.84,204.13L28,211.79A235.17,235.17,0,0,0,20,260H195.59a235.17,235.17,0,0,0-7.94-48.21l20.15-7.66C195.44,174.62,166.62,151,166.62,151Z"/><path class="cls-4" d="M107.81,201.83s17.67-11.39,31.84,1.61l-.48-51.9Z"/><polygon class="cls-4" points="176.09 157.15 171.59 160.59 197.54 192.59 202.66 189.12 176.09 157.15"/><path class="cls-4" d="M113.87,218.14a6.05,6.05,0,1,1-6.05-6A6.05,6.05,0,0,1,113.87,218.14Z"/><path class="cls-4" d="M113.87,238.77a6.05,6.05,0,1,1-6.05-6A6.05,6.05,0,0,1,113.87,238.77Z"/><path class="cls-4" d="M107.82,253.36a6,6,0,0,0-6,6,5.88,5.88,0,0,0,0,.6h12c0-.2,0-.39,0-.6A6,6,0,0,0,107.82,253.36Z"/><path class="cls-4" d="M160.92,236.05h-.21a10.66,10.66,0,0,1-10.66-10.66V204.47h21.54v20.92A10.67,10.67,0,0,1,160.92,236.05Z"/><rect class="cls-5" x="41.93" y="210.87" width="1.01" height="9.38"/><path class="cls-6" d="M44.68,220.26A2.25,2.25,0,1,1,42.44,218,2.24,2.24,0,0,1,44.68,220.26Z"/><rect class="cls-5" x="49.49" y="210.87" width="1.01" height="9.38"/><path class="cls-7" d="M52.24,220.26A2.24,2.24,0,1,1,50,218,2.24,2.24,0,0,1,52.24,220.26Z"/><rect class="cls-5" x="57.06" y="210.87" width="1.01" height="9.38"/><path class="cls-8" d="M59.8,220.26A2.24,2.24,0,1,1,57.56,218,2.24,2.24,0,0,1,59.8,220.26Z"/><rect class="cls-5" x="64.62" y="210.87" width="1.01" height="9.38"/><path class="cls-4" d="M67.36,220.26A2.24,2.24,0,1,1,65.12,218,2.24,2.24,0,0,1,67.36,220.26Z"/><rect class="cls-9" x="41.07" y="203.44" width="25.37" height="8.65"/><path class="cls-4" d="M107.82,201.83S90.15,190.44,76,203.44l.49-51.9Z"/><polygon class="cls-4" points="39.54 157.15 44.05 160.59 18.09 192.59 12.98 189.12 39.54 157.15"/><path class="cls-5" d="M194.75,48.35C192.39,26.15,178.7,0,107.82,0S23.24,26.15,20.88,48.35A177,177,0,0,0,20.45,76H195.18A177,177,0,0,0,194.75,48.35Z"/><path class="cls-10" d="M40.8,75.65S33,66.84,24.61,69.1C15.19,71.65,8.6,101,26,114.18H40.8Z"/><path class="cls-10" d="M175.05,75.65s7.84-8.81,16.18-6.55c9.42,2.55,16,31.85-1.39,45.08H175.05Z"/><path class="cls-2" d="M182.85,95V70l-6.68-8.86a25,25,0,0,0-32.6-6.55c-11.73,6.86-26.38,14.14-35.75,14.14S83.77,61.44,72,54.57a25,25,0,0,0-32.57,6.52L32.78,69.9V95c-9.06,5-15.2,13-15.2,25.73,0,44.5,72.23,45.74,90.24,45.74s90.23,0,90.23-45.74C198.05,108,191.92,100,182.85,95Z"/><path class="cls-1" d="M102.31,146.82a160,160,0,0,1-26.79-2,1.37,1.37,0,0,1,.51-2.7,174.1,174.1,0,0,0,63.33-2,1.37,1.37,0,1,1,.61,2.68A171.18,171.18,0,0,1,102.31,146.82Z"/><path class="cls-1" d="M107.32,114.84c9.32,0,8.56,8.07,8.56,8.07a10,10,0,0,0-8.65-5.16c-6.08,0-9.28,5.16-9.28,5.16S98,114.84,107.32,114.84Z"/><polygon class="cls-11" points="135.59 80.9 135.59 73.78 171.92 69.21 171.92 75.97 135.59 80.9"/><path class="cls-5" d="M56.34,111.84A1.37,1.37,0,0,1,55,110.61c-.06-.53-1.3-13.12,7.91-15.48,7.39-1.9,12.32,5,13.9,9a1.38,1.38,0,0,1-2.55,1c-.15-.37-3.78-9.11-10.66-7.35s-5.88,12.42-5.87,12.53a1.37,1.37,0,0,1-1.22,1.51Z"/><polygon class="cls-11" points="79.85 80.9 79.85 73.78 43.52 69.21 43.52 75.97 79.85 80.9"/><path class="cls-5" d="M159.1,111.84H159a1.37,1.37,0,0,1-1.22-1.51h0c0-.11,1-10.75-5.86-12.53s-10.63,7.26-10.67,7.35a1.38,1.38,0,0,1-2.55-1c1.58-3.94,6.52-10.88,13.9-9,9.21,2.36,8,15,7.92,15.48A1.38,1.38,0,0,1,159.1,111.84Z"/></g></g></svg>