<svg xmlns="http://www.w3.org/2000/svg" viewBox="0 0 148.48 260"><defs><style>.cls-1{fill:#f9f5ed;}.cls-2{fill:#393c3d;}.cls-3{fill:#515151;}.cls-4{fill:#e2963b;}.cls-5{fill:#f4a556;}.cls-6{fill:#4c3626;}.cls-7{fill:#f9dab4;}.cls-8{fill:#f4d3b0;}.cls-9{fill:#3a291d;}.cls-10{fill:#efc4a0;}.cls-11{fill:#3a332d;}</style></defs><title>资源 167</title><g id="图层_2" data-name="图层 2"><g id="Layer_1" data-name="Layer 1"><polygon class="cls-1" points="45.94 176.73 102.53 180.56 71.78 244.35 45.94 176.73"/><path class="cls-2" d="M3.93,260H33.06l9.2-84.34-21.37-9.49S6.25,237.9,3.93,260Z"/><path class="cls-2" d="M127.58,166.17l-21.37,9.49L115.42,260h29.12C142.22,237.9,127.58,166.17,127.58,166.17Z"/><path class="cls-3" d="M81.34,215.91c-2.33,7.11-7,15.64-8.19,24.4A176.66,176.66,0,0,0,71.57,260h56.69c-.77-6.85-1.68-14.43-2.65-22.17-3.89-31-8.65-64.67-8.65-64.67l-23.15,1.78S88.46,194.18,81.34,215.91Z"/><path class="cls-2" d="M71.57,260h7.51a166.14,166.14,0,0,0-1.75-20.88c-.41-2.05-1.78-3.76-2.59-5.66a43,43,0,0,0-1.59,6.85A176.66,176.66,0,0,0,71.57,260Z"/><path class="cls-2" d="M81.34,215.91c5.73-17.48,10.3-33.32,11.87-38.86l2.91-.32s9.8,22.68,9.8,32.77c0,5-14.61,3-14.61,3s5,12.12,4.28,15c-.53,2.13-13.34,2.58-19.75,2.67C77.67,225.07,79.93,220.23,81.34,215.91Z"/><path class="cls-3" d="M31.51,173.16s-4.76,33.65-8.64,64.67c-1,7.74-1.89,15.32-2.66,22.17H76.9a174.21,174.21,0,0,0-1.57-19.69c-1.25-8.76-5.86-17.29-8.2-24.4-7.12-21.73-12.46-41-12.46-41Z"/><path class="cls-2" d="M72.14,249.21a3.34,3.34,0,1,1-3.35-3.34A3.34,3.34,0,0,1,72.14,249.21Z"/><path class="cls-2" d="M67.13,215.91c-5.73-17.48-10.3-33.32-11.87-38.86l-2.91-.32s-9.79,22.68-9.79,32.77c0,5,14.6,3,14.6,3s-5,12.12-4.27,15c.53,2.13,13.34,2.58,19.74,2.67C70.8,225.07,68.55,220.23,67.13,215.91Z"/><path class="cls-4" d="M130,260c-1.7-36.95-5.48-80.05-11.08-86.48-9.62-11-31,7.84-31,7.84s6.77,15.31,6.77,39.89c0,8.58-.83,23.23-1.61,38.75Z"/><path class="cls-5" d="M35.6,135.5s-11,14.51-11.76,17.72,5.65,7.12,5.65,7.12-8.14,0-11.35,3.92,5.35,12.82,8.73,15,50.76,10,63.94,8.9,37.4-13.53,37.76-18.87-4.18-11.4-4.18-11.4,5.28-3.92,4.2-8.2-15.7-7.46-15.7-7.46Z"/><path class="cls-6" d="M141.49,36.25c-.73-3.31-7.3-11.46-12-13.58a9.88,9.88,0,0,0-10.32,1.07s-1.41-10.19-8.28-15C101.46,2.22,84.88.46,76,.07c-.19,0-.37-.07-.57-.07L74.24,0,73,0c-.21,0-.38.06-.57.07C46.53,1.21,11,17.87,7,36.25c-4.19,19.09,3.72,70,3.72,70h127S145.68,55.34,141.49,36.25Z"/><path class="cls-7" d="M128.53,51H20s-2.14,57.17,0,74.8,42.29,41.39,54.29,40.34c12,1.05,52.16-22.81,54.29-40.34S128.53,51,128.53,51Z"/><path class="cls-8" d="M20.67,95.5S12.35,85.29,3.09,90s3.56,35.8,21.85,38.33Z"/><path class="cls-8" d="M127.81,95.5s8.31-10.21,17.58-5.46-3.56,35.8-21.86,38.33Z"/><path class="cls-6" d="M17.74,45.64s-4.63,9.26,0,15,9.69,2.46,9.69,2.46,2.06,4.31,17.38,4.31S68,59.53,68,59.53s8.2,5.7,26.72,2.85,36-11.39,36-11.39l2.14-13.18L76.87,27.12,30.92,35.31Z"/><path class="cls-9" d="M12.47,39.5a41.34,41.34,0,0,0-1,7.21,19.54,19.54,0,0,0,.84,6.89,14.29,14.29,0,0,0,3.56,5.78,27.66,27.66,0,0,0,5.87,4.2,15.39,15.39,0,0,1-7-2.95,13.09,13.09,0,0,1-4.5-6.37,16.26,16.26,0,0,1-.46-7.73A18.45,18.45,0,0,1,12.47,39.5Z"/><path class="cls-9" d="M21.71,47.25a73.17,73.17,0,0,0,1.85,8.37,22.94,22.94,0,0,0,1.54,3.82,25.36,25.36,0,0,0,2.33,3.62,8.61,8.61,0,0,1-3.72-2.69,12.27,12.27,0,0,1-2.19-4.11,14.72,14.72,0,0,1-.64-4.55A11.93,11.93,0,0,1,21.71,47.25Z"/><path class="cls-10" d="M84,124.81a11.23,11.23,0,0,1-9.75,5.63c-5.11,0-9.83-4.93-9.83-4.93s5.46,3.29,9.44,3.29A16.55,16.55,0,0,0,84,124.81Z"/><path class="cls-11" d="M34.33,101.55a1.55,1.55,0,0,1-1.54-1.4A8.3,8.3,0,0,1,39,91.55c5.4-1.59,9.39,2.61,10.75,5a1.54,1.54,0,0,1-.6,2.1,1.56,1.56,0,0,1-2.1-.6c-.11-.2-2.81-4.87-7.18-3.59a5.17,5.17,0,0,0-4,5.35,1.55,1.55,0,0,1-1.4,1.68Z"/><polygon class="cls-6" points="53.53 84.76 54.11 88.61 28.64 85.69 31.13 80.02 53.53 84.76"/><polygon class="cls-6" points="94.94 84.76 94.36 88.61 119.83 85.69 117.34 80.02 94.94 84.76"/><path class="cls-11" d="M114.15,101.55H114a1.54,1.54,0,0,1-1.39-1.67,5.18,5.18,0,0,0-4-5.36c-4.37-1.28-7.06,3.39-7.18,3.59a1.54,1.54,0,0,1-2.69-1.5c1.35-2.44,5.34-6.64,10.75-5a8.28,8.28,0,0,1,6.24,8.6A1.53,1.53,0,0,1,114.15,101.55Z"/><path class="cls-10" d="M50,137.19a92.7,92.7,0,0,0,13,2.33,93,93,0,0,0,39-4,58.17,58.17,0,0,1-25.81,6.66,64.66,64.66,0,0,1-13.4-1A50.19,50.19,0,0,1,50,137.19Z"/></g></g></svg>