<svg xmlns="http://www.w3.org/2000/svg" viewBox="0 0 257.28 268.14"><defs><style>.cls-1{fill:#f9dab4;}.cls-2{fill:#eae5dc;}.cls-3{fill:#ad3936;}.cls-4{fill:#f9f5ed;}.cls-5{fill:#efc4a0;}.cls-6{fill:#302f2d;}.cls-7{fill:#f4d3b0;}.cls-8{fill:#cc5a2e;}.cls-9{fill:#3f3e3d;}.cls-10{fill:#3a332d;}.cls-11{fill:#e8dfd9;}.cls-12{fill:#492020;}.cls-13{fill:#c65044;}.cls-14{fill:#512e1f;}.cls-15{fill:#603a26;}</style></defs><title>资源 350</title><g id="图层_2" data-name="图层 2"><g id="Layer_1" data-name="Layer 1"><path class="cls-1" d="M136.88,197.31l-20.44,44.43L93.17,201.67,73,215.88s25.6,52.47,42.67,52.22,37.91-61,37.91-61Z"/><path class="cls-1" d="M235.56,199l-20,8.53s17.15,49.25,20.48,60.58h19.07C250.52,250.54,235.56,199,235.56,199Z"/><path class="cls-2" d="M209.65,167.69s16.65,2,30.71,33.14l-25.13,12.55Z"/><path class="cls-3" d="M214.83,169.55l20.44,33.82,1.35-.67L217.5,171.06C216.53,170.44,215.65,170,214.83,169.55Z"/><path class="cls-3" d="M229.6,206.21,211.32,168.1a11.52,11.52,0,0,0-1.67-.41l.07.55,18.53,38.64Z"/><polygon class="cls-3" points="221.29 210.35 222.64 209.68 210.86 177.59 211.66 184.14 221.29 210.35"/><path class="cls-2" d="M159,167.69s-16.65,2-30.71,33.14l25.13,12.55Z"/><path class="cls-3" d="M153.84,169.55,133.4,203.37l-1.35-.67,19.12-31.64C152.14,170.44,153,170,153.84,169.55Z"/><path class="cls-3" d="M139.07,206.21l18.28-38.11a11.52,11.52,0,0,1,1.67-.41l-.07.55-18.53,38.64Z"/><polygon class="cls-3" points="147.38 210.35 146.03 209.68 157.81 177.59 157.01 184.14 147.38 210.35"/><path class="cls-4" d="M184.33,164l-20.08-1s-10.8,5.27-12.33,20.71c-1,10.23-7.08,55.22-11.06,84.38h86.95c-4-29.16-10-74.15-11.06-84.38-1.53-15.44-12.33-20.71-12.33-20.71Z"/><path class="cls-3" d="M209.85,167.45l10.51,100.69h1.52l-10.29-98.52A23.9,23.9,0,0,0,209.85,167.45Z"/><polygon class="cls-3" points="202.55 163.14 212.15 268.14 213.66 268.14 204.06 163.07 202.55 163.14"/><polygon class="cls-3" points="196.23 163.45 203.78 268.14 205.29 268.14 197.73 163.38 196.23 163.45"/><polygon class="cls-3" points="189.92 163.76 195.37 268.14 196.88 268.14 191.43 163.69 189.92 163.76"/><polygon class="cls-3" points="184.33 164.04 184.08 164.03 186.77 268.14 188.28 268.14 185.59 163.97 184.33 164.04"/><polygon class="cls-3" points="180.23 163.84 178.3 268.14 179.81 268.14 181.74 163.91 180.23 163.84"/><path class="cls-3" d="M156,171.26l-10.11,96.88h1.52l10.37-99.45A26.82,26.82,0,0,0,156,171.26Z"/><path class="cls-3" d="M164.25,163.05s-.23.11-.59.33l-9.58,104.76h1.52l9.6-105Z"/><polygon class="cls-3" points="170.02 163.33 162.46 268.14 163.97 268.14 171.52 163.41 170.02 163.33"/><polygon class="cls-3" points="176.32 163.64 170.87 268.14 172.38 268.14 177.83 163.72 176.32 163.64"/><polygon class="cls-3" points="191.96 205.6 209.03 205.6 209.03 220.66 200.97 224.68 191.96 221.41 191.96 205.6"/><path class="cls-3" d="M206.28,172.71c0,8.73-5,15.82-21.94,15.82s-22-7.09-22-15.82,9.83-15.81,22-15.81S206.28,164,206.28,172.71Z"/><path class="cls-5" d="M202.25,169.7c0,7.76-4.09,14.06-17.91,14.06s-17.92-6.3-17.92-14.06,8-14.06,17.92-14.06S202.25,161.94,202.25,169.7Z"/><path class="cls-6" d="M250.87,78.87c-3.85-10.45-33.92-17.35-65.6-18v0l-.94,0-.93,0v0c-31.68.66-61.75,7.56-65.6,18-8.13,22.09,4.61,44.68,4.61,44.68l61,1.32v0l.93,0,.94,0v0l61-1.32S259,101,250.87,78.87Z"/><path class="cls-7" d="M131.07,122.48s-7.93-10.64-16.74-5.69,3.4,37.29,20.8,39.92Z"/><path class="cls-7" d="M237.61,122.48s7.92-10.64,16.73-5.69-3.39,37.29-20.8,39.92Z"/><path class="cls-1" d="M127.48,71.59v67.77a31.88,31.88,0,0,0,11,24.44s17.77,11,45.86,10.46,45.85-10.46,45.85-10.46a31.85,31.85,0,0,0,11-24.44V71.59Z"/><path class="cls-3" d="M189.16,6.27c0,5.14-2.16,9.29-4.82,9.29s-4.83-4.15-4.83-9.29S181.67,0,184.34,0,189.16,1.15,189.16,6.27Z"/><path class="cls-8" d="M253.85,84c0-.32,0-.64,0-1,0-41.58-27.8-75.29-69.54-75.29S114.8,41.49,114.8,83.07c0,.32,0,.64,0,1Z"/><path class="cls-4" d="M253.85,84c0-.32,0-.64,0-1,0-41.58-27.8-75.29-69.54-75.29S114.8,41.49,114.8,83.07c0,.32,0,.64,0,1Z"/><path class="cls-3" d="M221.35,18.36A63.81,63.81,0,0,0,213,13.8c14.44,12,29.14,33.14,31.7,70.23H247C244.81,51.9,233.72,31.38,221.35,18.36Z"/><path class="cls-3" d="M201.56,9.85c-1.55-.38-3.12-.71-4.72-1C210.69,20.37,229.17,43.15,232.49,84h2.27C231.67,45.36,215.29,22.46,201.56,9.85Z"/><path class="cls-3" d="M193.56,8.37q-1.62-.19-3.27-.33c10.05,12,24.8,36.22,26.91,76h2.27C217.45,45.58,203.79,21.32,193.56,8.37Z"/><path class="cls-3" d="M189.3,8q-1.38-.09-2.79-.12c5.7,10.29,13.79,32.49,14.76,76.19h2.26C202.6,41.6,195.15,19.14,189.3,8Z"/><path class="cls-3" d="M147.31,18.37C135,31.38,123.86,51.9,121.68,84H124c2.56-37.08,17.27-58.28,31.7-70.23A65.88,65.88,0,0,0,147.31,18.37Z"/><path class="cls-3" d="M136.18,84C139.5,43.15,158,20.37,171.83,8.86c-1.6.28-3.17.61-4.72,1C153.38,22.46,137,45.36,133.91,84Z"/><path class="cls-3" d="M149.2,84h2.26c2.12-39.77,16.88-64,26.92-76q-1.65.14-3.27.33C164.89,21.32,151.22,45.58,149.2,84Z"/><path class="cls-3" d="M165.14,84h2.26c1-43.7,9.06-65.9,14.76-76.19q-1.41,0-2.79.12C173.52,19.14,166.07,41.6,165.14,84Z"/><path class="cls-3" d="M182.86,7.82V84h2.26V7.8l-.79,0C183.84,7.78,183.35,7.81,182.86,7.82Z"/><path class="cls-3" d="M127.48,84.53c8.58,8.59,29.26,14.63,56.85,14.63s48.28-6,56.87-14.63V75H127.48Z"/><path class="cls-9" d="M144.6,106.72s12.89-.27,23.13,3.32l0-2.2c0-2.69-3.05-5.29-9.8-6.87s-11.17-.21-12.22,2.71Z"/><path class="cls-10" d="M163.66,120.1a7,7,0,1,1-7-7A7,7,0,0,1,163.66,120.1Z"/><path class="cls-11" d="M157.79,115.21c.17.85-.88,1.78-2.35,2.07s-2.79-.15-3-1,.89-1.78,2.35-2.08S157.62,114.35,157.79,115.21Z"/><path class="cls-9" d="M224.07,106.58s-12.89-.12-23.09,3.58V108c0-2.69,3-5.33,9.73-7s11.17-.33,12.24,2.58Z"/><path class="cls-10" d="M219.06,120.1a7,7,0,1,1-7-7A7,7,0,0,1,219.06,120.1Z"/><path class="cls-11" d="M213.19,115.21c.17.85-.88,1.78-2.36,2.07s-2.79-.15-3-1,.88-1.78,2.35-2.08S213,114.35,213.19,115.21Z"/><path class="cls-5" d="M193.18,133.09s-2-6.43-8.48-6.84-9.2,7.87-9.2,7.87,4.06-6.15,9.19-5.57A14.35,14.35,0,0,1,193.18,133.09Z"/><path class="cls-12" d="M162.24,148.06h44.19s.75,17-22.1,17.3S162.24,148.06,162.24,148.06Z"/><path class="cls-13" d="M171.75,163a28.13,28.13,0,0,0,12.58,2.35,29.67,29.67,0,0,0,12.56-2.56,12.76,12.76,0,0,0-25.14.21Z"/><path class="cls-14" d="M69,224.68l-3.12,4.82s5,13,12,10.72,35.82-23.58,35.39-28.09-9.66-10.92-9.66-10.92Z"/><path class="cls-15" d="M105.77,202.84s3.27-51.31,2-54.78-7.28-7.73-15.31-4-12,25.61-12,25.61-7-24.35-8.79-31.13-1.76-15.46-8.53-15.64-21.85.58-14.57,27.44c0,0-8.28-17.57-22.09-12.05s-30.37,23.21-25.6,36,20.33,37.85,32.63,45.88,33.64,12.18,33.64,12.18Z"/></g></g></svg>