<?xml version="1.0" standalone="no"?><!DOCTYPE svg PUBLIC "-//W3C//DTD SVG 1.1//EN" "http://www.w3.org/Graphics/SVG/1.1/DTD/svg11.dtd"><svg t="1548838333354" class="icon" style="" viewBox="0 0 1024 1024" version="1.1" xmlns="http://www.w3.org/2000/svg" p-id="8439" xmlns:xlink="http://www.w3.org/1999/xlink" width="200" height="200"><defs><style type="text/css"></style></defs><path d="M489.3 67h50.6c0.7 1.4 2.1 0.8 3.2 0.9 22.8 1.5 45.3 4.5 67.6 9.5 98.1 22.2 179.9 71.6 244.6 148.5 60.2 71.6 94.1 154.4 102.4 247.6 0.4 4.3-0.2 8.8 1.6 12.9v51.5c-1.5 0.7-0.8 2.1-0.9 3.1-3.1 43.9-12.2 86.6-27.8 127.8C869.9 828.5 722.1 940.4 552 954c-4.3 0.3-8.8-0.3-12.9 1.5h-48.9c-0.8-1.4-2.1-0.8-3.2-0.9-24-1.5-47.7-4.8-71.1-10.3-94-22-173-69.2-236.3-142-63-72.5-98.6-157.2-107.2-253.2-0.4-4 0.2-8.2-1.6-12v-51.5c1.3-0.6 0.8-1.8 0.9-2.7 2.1-31.1 7.1-61.7 15.6-91.7 24.1-84.4 68.9-156 135-213.8 73.1-63.9 158.2-100.1 255-108.7 4-0.4 8.2 0.1 12-1.7zM313.4 757.1h-0.3v0.3l-0.7 0.7c-1.9 0.8-3 2.3-3.8 4.1-0.4 0.9-1.1 1.8-0.2 2.8 0.8 0.9 1.9 1.1 2.8 0.7 3.4-1.4 7.6-1.4 10.1-4.7 0.3-0.1 0.6-0.3 0.9-0.4 2.1-0.2 3.5-1.4 4.7-3 0.3 0 0.5-0.1 0.6-0.4 1.9-0.5 3.1-2 4.5-3.2 0.3-0.1 0.6-0.3 0.9-0.4 0.8-0.1 1.4-0.6 1.6-1.4 0.4-0.3 0.7-0.7 1.1-1 2-0.4 3.5-1.6 4.6-3.3 0.6-0.4 1.1-0.9 1.7-1.3 2.4-1.3 4.8-2.5 6.2-5 0.6-0.5 1.3-1 1.9-1.6 0.3-0.2 0.5-0.3 0.8-0.5 3.4-1 5.9-3.2 8.1-5.9 0.3-0.3 0.6-0.5 0.8-0.8 0.8-0.1 1.3-0.5 1.7-1.2 1.9-0.7 4-1 4.8-3.2 0.5-0.3 1-0.7 1.5-1 0.3-0.1 0.6-0.2 0.8-0.3 1.1-0.1 2.1-0.4 2.4-1.6 1-0.6 2-1.3 2.9-1.9 1.1-0.2 2-0.5 2.4-1.6 0.7-0.4 1.4-0.7 2-1.1 2.1-0.6 4.1-1.3 5.4-3.3 1.3-0.3 2.6-0.6 3.1-2l3-1.8c1.5 0.2 2.4-0.8 3.6-1.5 5.4-3 10.7-6.2 16.2-8.7 11.7-5.4 23.5-10.4 35.3-15.6l1.8-0.3c0.5 0.2 0.8 0 0.9-0.5 3.5 0.1 6.6-1.5 9.7-2.8 6.1-2.5 12.9-2.8 18.7-6.2 0.6-0.1 1.1-0.1 1.7-0.2 4.3-0.6 8.7-0.9 12.5-3.4 0.9-0.2 1.7-0.3 2.6-0.5 16.3-2.8 32.6-5.4 48.9-8.4 5.5-1 11.2-1.2 16.1-4.4 0.6-0.1 1.1-0.2 1.7-0.2 0.9 0 1.8 0.2 2.6-0.1 7.7-2.4 15.6-4.5 23-7.7 4-1.7 8.7-1.8 12-5.2 0.5-0.1 1-0.3 1.5-0.4 7.2-1.8 13.6-5.5 20.2-8.6 5-2.4 10.5-3.8 14.6-7.9 6-2.2 11.5-5.4 16.5-9.4 0.4-0.2 0.8-0.3 1.2-0.5 3.5-1.3 6.6-3.2 9.2-6 0.5-0.3 1.1-0.6 1.6-0.9 4.5-2 8.3-4.9 11.9-8.2 0.8-0.8 2.2-1.6 1.6-2.9-0.6-1.2-2.1-0.9-3.2-0.6-6.3 1.5-12.6 3.1-18.3 6.2-0.6 0.1-1.1 0.1-1.7 0.2-7.4 1.9-15 2.9-21.9 6.5-0.4 0.1-0.9 0.2-1.3 0.2-1 0-2.1-0.2-3.1 0.1-10.7 2.8-21.7 4.2-32.5 6.4-0.6 0.1-1.1 0.2-1.7 0.3-2.8 0-5.5 0.1-8.3 0.1-11.5 0.2-12.4-0.8-11.7-12.1 0.2-2.7 1-3.8 3.8-3.1 1.8 0.4 3.6 1.3 5.6 0.6 1.5 0.1 2.9 0.3 4.4 0.4 0.6 0.3 1.2 0.7 1.8 1 2.5 2.6 11.7 2.7 15 0.3 1.7-1 3.6-1.2 5.5-1.4 4.9-0.5 9.4-2.4 13.6-4.8 1.2-0.6 2.3-1.6 1.9-3.1-0.3-1.1-1.3-0.9-2.2-0.8-7.5 0.8-15 0.2-22.5-0.4-1.4-0.1-2.9-0.2-4.3-0.3-6.6-2.9-13.7-4.6-20.5-6.8-0.8-0.5-1.7-0.7-1.9-1.8-0.2-2.6 1.6-5.7-2-7.4-2.1-7.1-3.1-14.1 2.2-20.4l0.9-0.9c3-0.4 4.6-2.4 5.6-5l-0.2-0.2 0.2 0.2c0.3-0.3 0.6-0.7 1-1 0.3 0 0.4-0.2 0.5-0.4 6.2-4.9 11.9-10.5 17-16.5 2.9-1.8 5.4-4.1 7.3-6.9l-0.2-0.3 0.2 0.3c1.3-1.2 2.7-2.3 3.8-3.6 5.6-6.4 12.3-11.8 17.1-18.9h0.8c4.3 0.3 5-2.7 5.4-6 4.3-5.2 8.5-10.5 12.8-15.7 2.9-3.5 6.2-6.6 7.9-10.9 0.6-0.3 1.5-0.5 1.9-1 4.7-6.5 9.9-12.7 13.9-19.7 1.6-1.1 2.8-2.5 3.1-4.5 0.3-0.5 0.6-1.1 0.8-1.6 2.8-1.6 4-4.3 4.9-7.2v-0.1c4.4-6 8.4-12.1 11-19.2l-0.3-0.3 0.3 0.2c3-3.9 5.2-8.1 6.6-12.8 0.2-0.1 0.4-0.3 0.3-0.5 1.2-0.7 1.4-1.8 1.3-3l0.6-1.2c3-5.2 5.5-10.6 6.8-16.5 0.5-0.5 0.7-1.1 0.4-1.8 0.1-0.6 0.3-1.1 0.4-1.7 3.6-6.7 4.6-14.1 5.9-21.4 0.1-0.6 0.1-1.2 0.2-1.8 1.1-3.5 2.1-6.9 1.5-10.6 0-1.5 0.1-3 0.1-4.5 0.8-8 1.1-16-1.5-23.8-0.1-1.5-0.2-2.9-0.3-4.4-0.5-4.3-2.1-8.2-3.7-12.2-0.6-1.4-1.6-3.1-0.1-4.5 1.3-1.3 3.1-0.6 4.6-0.2 3.5 0.8 6.2 2.9 7.8 6 1.4 2.7 2.6 5.6 3.9 8.3v0.1c0.4 1.7 0.8 3.3 1.2 5 0.1 1.2 0.1 2.4 0.2 3.5 0.3 4.9 0.4 9.7 0.8 14.6 0.5 6.2 0.7 12.4 2.5 18.4 0.1 0.9 0.2 1.7 0.3 2.6 2.3 11.4 5.4 14.5 15.7 15.8 0.9 0 1.7 0.1 2.6 0.1 0.9 0.7 1.8 0.7 2.7 0 0.9 0 1.7-0.1 2.6-0.1 11.6-1.5 20.9-7.2 28.7-15.6 0.3 0 0.5-0.2 0.6-0.5 3.4-2.5 6.3-5.4 7.9-9.4 0.3-0.4 0.6-0.7 1-1.1 5.9-6.6 8.4-14.6 9.8-23 1.4-8.4-0.4-15.9-6-22.4 0-0.3-0.1-0.5-0.3-0.6-1.9-3.6-4-7-7.6-9.1-0.4-1.5-1.8-2.3-2.9-3.1-8.3-6.3-17.5-11.1-26.5-16.3-6-3.5-12.1-7.1-17.2-12-0.3-0.4-0.6-0.8-0.9-1.1l0.1 0.1c-0.3-4.2-2.5-6.6-6.7-7.3-0.3-0.1-0.7-0.2-1-0.4 0.1-0.3 0-0.4-0.3-0.5-1.7-4.9-5-8.6-8.6-12.1-4.5-4.4-9.4-4.7-14.1-0.6-8.3 7.3-14.3 16.7-22.8 23.8-0.5 0.1-0.9 0.2-1.4 0.4-3.5 0-7-0.1-10.5-0.1-0.3 0-0.6 0-0.9 0.1-1-1.5-2.7-2.1-4.3-3-5.9-3.4-12-6.4-18.3-8.8-9.5-3.6-19-7.2-29.2-8.3-1.2-0.1-2.3-0.2-3.5-0.2-5.9-2.9-12.4-2.3-18.7-3.2-2.7-0.1-5.3-0.2-8-0.3-10.2-2.1-20.5-1.5-30.8-1.4-6.6 0.1-13.3-0.2-19.8 1.5-2.7 0.1-5.3 0.2-8 0.3-8.3 1-16.8 0.9-24.9 3.2-0.6 0.1-1.2 0.1-1.8 0.2-6.5-0.5-12.7 1.7-19 2.7-6.3 1-12.8 1.1-18.7 4-1 0-2.1 0.1-3.1 0.1-6.5-0.2-12.4 2.3-18.5 3.8-10 2.4-20 4.8-29.4 8.8l-1.8 0.3c-3.2 0.5-6.4 1-8.9 3.2-0.6 0.1-1.2 0.2-1.8 0.2-2.3 0.2-4.5 0.7-6.2 2.4-0.6 0.1-1.2 0.2-1.8 0.4-3.1 0.6-6.4 0.8-8.9 3.2l-1.8 0.3c-2.9 0.6-5.7 1.2-8 3.2-0.6 0.1-1.2 0.2-1.7 0.4-7.7 1.9-14.8 5.4-22.1 8.4-6 2.5-12.5 4.2-17.9 8.1-2.4 0.2-4.5 1-6.2 2.8-1.1-0.1-1.9 0.4-2.7 1-3.9 1.5-8 2.7-11.2 5.7-0.4 0.2-0.9 0.3-1.3 0.5-2-0.1-3.5 0.9-4.7 2.3l-0.9 0.6c-2.7 0.5-5.2 1.5-7.3 3.4l-0.1 0.1h-0.3l-0.1 0.3c-4 1.5-7.7 3.6-11 6.2-0.4 0.2-0.9 0.5-1.3 0.7-4.7 2.3-9.3 4.8-13.2 8.4-0.6 0.4-1.3 0.7-1.9 1.1-1.4 0.5-2.7 1.1-3.5 2.5-7.7 4.9-15.1 10.1-21.5 16.7-1.2 0.8-2.7 1.4-3.3 2.9l-0.1 0.1c-1.5 0.8-3 1.7-3.5 3.5l-1 1c-1.4 0.3-2.2 1.2-2.6 2.6l-1 1c-2.8 2.5-5.7 4.9-6.7 8.8-0.1 0.3-0.3 0.6-0.4 0.9-1.1 0.5-1.5 1.5-1.9 2.5-0.3 0-0.5 0.2-0.7 0.4-3.1 3.5-5.1 7.6-6.2 12.1-0.2 0.7-0.5 1.4-0.7 2.1-0.3 0.8-0.7 1.6-1 2.4-0.2 0.2-0.3 0.5-0.2 0.8-0.1 0.1-0.3 0.1-0.3 0.2v0.7c-0.1 0.6-0.3 1.2-0.4 1.9-0.7 0.8-1.2 1.6-0.9 2.7 0 0.6-0.1 1.2-0.1 1.7 0 0.6-0.1 1.3-0.1 1.9-0.6 1.1-0.7 2.2-0.5 3.4v0.9c0 1.7 0 3.5 0.1 5.2-0.6 1.3 0 2.5 0.5 3.6 0 0.9 0.1 1.7 0.1 2.6 0.3 3.6 0.8 7.1 3.3 10 0 0.3 0.1 0.5 0.4 0.7 1 4.4 2.6 8.6 5.7 12 0.2 0.4 0.5 0.9 0.7 1.3 0.3 2.2 1.2 4.1 3.1 5.3 3 6.4 7 12.1 12.4 16.7 0.3 0.3 0.6 0.7 0.9 1 0.2 1.5 1.3 2.2 2.5 2.8 0.1 1.2 0.6 2.2 1.9 2.5 0.3 0.3 0.7 0.6 1 0.9 0.4 1.3 1.1 2.3 2.5 2.6 0.3 0.3 0.7 0.6 1 0.9 0.4 1.2 1.1 2 2.4 2.1 0.3 0.2 0.5 0.5 0.8 0.7 0.3 1.5 1 2.6 2.6 2.9 0.3 0.2 0.7 0.4 1 0.6 0.4 1.4 1.2 2.4 2.7 2.6 0.7 0.6 1.4 1.1 2.1 1.7 0 0.5 0.2 0.7 0.7 0.7l0.2 0.2c0 0.5 0.2 0.7 0.6 0.6 0.6 0.4 1.2 0.8 1.9 1.3 0.1 1 0.7 1.6 1.7 1.7 0.6 0.3 1.2 0.7 1.7 1 0.3 0.2 0.6 0.5 0.9 0.7 0.4 0.3 0.7 0.7 1.1 1 0 0.4 0.2 0.6 0.6 0.5 0.6 0.4 1.2 0.9 1.8 1.3 0.5 1.7 2 2.2 3.5 2.6 0.1 0.2 0.3 0.3 0.6 0.3 3.9 4.1 8.6 7 13.7 9.4 0.2 0.2 0.4 0.3 0.7 0.3 1.8 1.2 3.1 3.2 5.5 3.3 0.6 0.4 1.2 0.7 1.8 1.1 4.8 3.9 10.2 6.7 16 8.7 0.9 0.4 1.8 0.7 2.7 1.1 1 1.8 2.6 2.3 4.4 2.3 0.5 0.2 0.9 0.4 1.4 0.6 1.5 1.7 3.4 2.8 5.8 2.7 1.1 0.5 2.2 1.1 3.3 1.6 4.3 2.1 8.3 5 13.2 5.5l0.1-0.2-0.1 0.2c2 2.1 4.8 2.2 7.3 3.3 0.9 2.6 3.2 1.5 5 1.8 1.2 0.6 2.3 1.2 3.6 1.6 9.1 3 18 6.4 27.2 8.9 5.2 1.4 10.1 4 15.7 3.9 0.6 0.1 1.3 0.2 1.9 0.4 7.4 3.1 15.1 5 23.1 5.9 0.6 0.2 1.2 0.3 1.7 0.5 4.5 0.9 8.6 3.2 13.3 2.9 1.1 0.4 2.3 0.9 3.6 0.7 10.7 3.4 21.9 4.4 32.9 6.1 1.7 0.1 3.5 0.1 5.2 0.2 3.2 1.1 6.6 1.6 10 2 11 1.4 22 2 33.1 2.2 4.7 0.1 6.3 2.4 5 7-0.8 2.8-2 5.4-4 7.7-3.5 4.1-8.2 6.7-11.8 10.5l-0.1 0.1c-8.3 4.2-16.9 7.7-25.7 10.7-0.6 0.1-1.2 0.2-1.8 0.2-4 0.9-8.3 0.8-12.1 2.9l-6.6 0.6c-7.1 0.5-14.3 1-21.3 2.5-0.9 0.1-1.8 0.1-2.7 0.2-1.3-0.5-2.4 0.2-3.6 0.6-2.1 0.1-4.1 0.2-6.2 0.2-6 0.2-12.1 0.1-17.8 2.5-1.8 0.2-3.6 0.5-5.4 0.7-8.2 0.6-16.1 2.5-23.6 6-1.1 0-2.1 0.1-3 0.8-6.5 1.5-12.5 4.3-18 8.2-2.3 1-5.1 1.4-6.6 3.8l-1.2 0.9c-2.3 0-3.6 1.6-4.6 3.3-3.4 2.6-6 6.5-11.4 4.9-3.3-1-6.6-2-9.9-3.1-14.4-5.1-23.3-15.2-27.6-29.6-1.1-3.7-1.8-7.4-2.8-11.1-0.3-1-0.7-2.1-2-2-1 0.1-1.3 1.2-1.4 2-0.3 1.9-0.3 3.8-0.5 5.7-0.3 3.4-2.8 7.5 2.7 9.2l1.2 2.1c-0.3 0.6 0 1 0.5 1.4l0.1 0.2c5.1 15.6 16.6 26 29 35.7h-0.1c0.4 1.4 1.5 2.2 2.7 2.8 3.1 1.7 3.6 4 2 7-0.4 0.7-0.4 1.7-0.7 2.5-0.1 0.6-0.2 1.2-0.3 1.7-4.7 12.1-2.7 24.5-1.1 36.7 1.3 10.1 0.2 19.4-6.7 27.4-5.2 0.3-6 4-6.2 8.1-0.1 0.4-0.2 0.9-0.3 1.3-1 0.3-1.5 1.1-1.6 2.1-1.7 0.6-2.9 1.8-3.4 3.5l-0.1 0.1c-1.8 0.5-2.8 1.8-3.4 3.5l-0.1 0.1c-1.6 0.6-2.7 1.8-3.2 3.4-0.5 0.5-0.9 1.1-1.4 1.6l-0.2-0.1v0.2c0.1 0-0.1 0.2-0.2 0.5z m456.1-108.4c-0.7-1.2-1.4-2.6-2.9-3-3.5-3.1-6.7-6.8-10.7-9.3-12.6-7.9-26.1-13.6-41.2-15.1-13.1-1.3-25.8-0.2-38.5 3.6-9 2.7-17.4 6.5-24.9 11.9-16 11.5-27.9 26.5-34.4 45.3-4.9 14.1-6.2 28.5-4.1 43.2-0.6 1.5 0 2.9 0.2 4.3 2 12.7 6.8 24.3 13.9 34.9 4 5.9 8.3 11.7 14.3 15.9l0.1 0.1c6.5 7 14 12.6 23.1 15.7l0.3 0.2 0.2 0.3 0.3-0.2c0.7 0.1 1.4 0.3 2.1 0.4 5.4 5.1 12.3 5.7 19.2 6.4 1.6 0.2 3.1 0.5 4.7 0.7 2.1 1.6 4.7 1.4 7.1 1.6 8.3 0.5 16.4-0.1 24.4-2.4 3-0.9 6.6-0.1 9.1-2.7 0.6-0.1 1.3-0.3 1.9-0.4 2.6 0 4.6-1 6.2-3 0.6-0.2 1.1-0.4 1.7-0.6 2.4-0.1 4.5-0.8 6-2.8l0.3-0.2c6.9-3 13.2-6.9 17.7-13.1 0.6-0.7 1.2-1.4 1.8-2.2 0.3-0.1 0.5-0.3 0.6-0.5l1.2-0.9c2.8 0 3.5-2.6 4.8-4.1 8.4-10 14.8-21.1 17.9-33.9 0.4-2.1 0.7-4.3 1.1-6.4 3-5.2 2.8-11 2.7-16.7V711c0.5-6.1-0.6-12-2.6-17.7-0.3-1.8-0.6-3.6-1-5.4-0.1-2.4-0.3-4.8-2.2-6.6-0.2-0.8-0.4-1.6-0.6-2.3-0.2-0.3-0.3-0.5-0.5-0.8l-0.1-0.1c-3-8.5-6.6-16.6-13.4-22.9l-0.1-0.1c-1-2.8-3.5-4.5-5.7-6.4z" fill="#ED2128" p-id="8440"></path><path d="M789.3 679.1c0.2 0.8 0.4 1.6 0.6 2.3 0.2 2.4-2 5.6 2.2 6.6 0.3 1.8 0.6 3.6 1 5.4-2.5 6.4 1.5 11.8 2.6 17.7v4.7c-0.8 2.5-1.9 4.9-2.2 7.4-0.3 3.1-2.3 6.1-0.4 9.3-0.4 2.1-0.7 4.3-1.1 6.4-1.4 0.8-1.7 2.3-2.5 3.5-3.1 4.9-4 10.7-7.3 15.5-1.3 1.9-3.8 2.4-4.4 4.7-1.2 4.7-4.4 8.1-7.6 11.5-0.8 0.8-0.9 1.8-0.9 2.9l-1.2 0.9c-0.3 0.1-0.5 0.3-0.6 0.5-0.6 0.7-1.2 1.4-1.8 2.2-1.7-0.1-3 0.6-4.5 1.3-2.5 1.2-3.8 4.3-6.4 4.8-4.1 0.8-5.7 3.6-6.8 7l-0.3 0.2c-2.2 0.4-5.5-1.4-6 2.8-0.6 0.2-1.1 0.4-1.7 0.6-3.4-1.7-5.1 0-6.2 3-0.6 0.1-1.3 0.3-1.9 0.4-3.1-0.8-6.4-1.3-9 0.3-3.8 2.3-7.7 2.5-11.8 2.7-6.6 0.3-13.2-0.6-19.8 0.5-1.6-0.2-3.1-0.5-4.7-0.7-1.5-1.6-3.2-2.3-5.4-2.6-2.6-0.3-5.6 0-7.4-2.2-1.9-2.2-3.9-2.3-6.3-1.7-0.7-0.1-1.4-0.3-2.1-0.4-0.1-0.1-0.3-0.2-0.5-0.1l-0.3-0.2c-0.1-3.2-3.8-1.9-4.8-3.7-2.9-5.3-8.9-6.1-13.2-9.2-1.5-1.1-2.6-3.5-5.1-2.7l-0.1-0.1c0-1.3-0.3-2.4-1.2-3.6-1.8-2.2-4.4-3.7-5.8-6.4-2.1-4.1-4.4-7.9-7.5-11.5-5.3-6.3-8.4-14.2-10.2-22.6-0.7-3.6 0-8.2-3.8-11-2.2-14.7-0.8-29.1 4.1-43.2 6.6-18.9 18.4-33.8 34.4-45.3 7.5-5.4 15.9-9.2 24.9-11.9 12.7-3.8 25.4-4.9 38.5-3.6 15.1 1.5 28.6 7.2 41.2 15.1 3.9 2.5 7.1 6.1 10.7 9.3 0 2 0.3 3.6 2.9 3 0.5 3.5 3 5.2 5.9 6.5l0.1 0.1c-0.2 1.3-0.3 2.6-0.5 3.9-0.3 1.5-0.1 2.9 1.7 2.9 4.3 0.1 4.9 3.4 6 6.4 1.3 3.6 3.2 7 6.2 9.6l0.1 0.1c-0.1 0.2 0 0.5 0.2 0.7z m-78.7-3.5c-0.3-0.3-0.6-0.5-0.9-0.8l-0.1-0.1c-0.5-1.2-1.3-2.2-2.6-2.6l-0.1-0.1c-3.1-4.3-3.9-4.3-6.8 0.1-2.5 1.8-4.7 3.9-6.5 6.4-1.5 0.6-2.3 1.8-2.7 3.3-2.9 1.3-4.9 3.4-6.2 6.3-2.7 1.4-5.2 3.1-6.2 6.2l-1.2 0.9c-0.3 0-0.5 0.1-0.6 0.4-2.4 1.5-4.3 3.3-5.6 5.8-3.9 2.4-6.4 6.3-9.7 9.2-2.3 2-1.6 3.3 0.1 4.9-0.2 2.5 1.4 4.1 2.9 5.7 5.5 6.1 12.2 11.1 17.1 17.7 1.5 2.1 3.3 2.7 5.7 2.4l0.2 0.2c-0.2 2.5 0.7 4.5 2.8 6.1 2.8 2.3 5.6 4.8 8.1 7.4 3.4 3.6 8.2 3.5 11.2-0.5 2.3-3 4.7-5.8 8-7.8 2.1-1.2 3-3.2 2.5-5.7 3.1-1.1 6.4-1.9 6.2-6.2 2.4 0 3.9-0.8 3.6-3.6 2.7 0.7 4.6-0.7 6-2.7 2.3-3.2 5-5.8 8.2-8.1 2-1.5 3.2-3.4 2.7-6.1v-0.7c0.5-0.6 0.5-1.2 0-1.7-0.7-1.6-1.8-2.7-3.4-3.5l-0.1-0.1c-0.3-0.2-0.5-0.5-0.8-0.7l-0.1-0.1c-0.2-0.9-0.7-1.5-1.6-1.8-0.4-0.3-0.7-0.7-1.1-1-0.3-0.2-0.5-0.4-0.8-0.7l-0.1-0.1c-0.4-1.3-1.3-2.2-2.6-2.6h-0.1c-0.6-1.1-1.2-2.2-2.5-2.6l-0.2-0.2c-0.8-1.5-1.8-2.8-3.4-3.4-0.3-0.3-0.6-0.5-0.8-0.8l-0.1-0.1c-1.1-2.4-2.9-4.1-5.2-5.3-0.3-0.3-0.7-0.6-1-0.9-0.3-0.8-0.7-1.4-1.5-1.7-0.4-0.9-1.1-1.5-2-1.8-0.4-1.3-1.2-2.2-2.5-2.6l-0.1-0.1c-0.7-1-1.3-2.2-2.5-2.7-0.4-0.3-0.7-0.7-1.1-1l-0.7-0.7h-0.1c-0.2-0.9-0.8-1.5-1.7-1.8z" fill="#FCF903" p-id="8441"></path><path d="M253.8 365.1c7.5-6 14.8-12.2 23.1-17.1 11.2-6.6 23.4-10.4 36.3-12.1 2.4 0.4 4.7 0.5 7.1 0.2 0.6 0.4 1.2 0.9 1.9 1.1 6.5 2.5 8.2 6.4 5.5 12.8-1.5 3.6-3.9 6.5-6.5 9.4-8 9.2-18.1 15.9-27.4 23.6l-0.2 0.1c-1.3 0.1-2.3 0.6-2.8 1.9-0.3 0-0.7 0-1 0.1-2.1 0-4.4-0.4-6.1 1.5-1.6 1.8-3.8 2.5-6.1 3-2.4-0.6-5.3 1.3-7.2-1.8-1.7-2.7-3.7-2.5-5.5 0-1.4 2-3.1 2.4-4.7 0.5-3-3.9-3.9-1-5 1.4-1.9 4.2-2.6 9-6.2 12.3-3.1 0.1-6.1 0.4-9.2-0.6-5-1.7-6.3-5-3.5-9.4 1.4-2.1 1.9-4.3 1.1-6.7 0.6-3.5 4-5.3 4.9-8.5-0.1-0.1-0.2-0.1-0.2-0.2 0.1 0.1 0.1 0.2 0.2 0.2 2.5-1.7 4.2-4.2 6-6.6 0.2-0.3 0.5-0.5 0.7-0.8 1.8-0.7 2.8-2.1 3.7-3.7 0.6-0.2 0.8-0.4 1.1-0.6z m2.3 16.2c0.2-2.2-0.6-3.7-3-4.1-3.1-0.5-8.5 4.3-8.9 7.8-0.3 2.3 0.8 3.7 3 4 3.3 0.7 8.6-3.9 8.9-7.7z" fill="#CF1A1C" p-id="8442"></path><path d="M515.1 388.4c-0.8 0.4-1.5 0.8-2.3 1.2-0.3-0.2-0.5-0.4-0.8-0.6-0.3-0.8-0.9-1.4-1.7-1.7-3-2.7-4.7-2-5.2 2-0.3 1.1-0.6 2.3-0.9 3.4-0.8 0.4-1.1 1-0.8 1.9-0.3 1-0.5 1.9-0.8 2.9-1 0.6-1.2 1.4-0.9 2.4l-0.3 0.9c-0.9 0.6-1.1 1.5-1.1 2.5-2 4.6-4.1 9.1-5.9 13.8-3.6 9.2-9.4 17.3-13.6 26.2l-0.3 0.1v0.3c-2.5 2.8-4.7 5.8-6.1 9.3-0.8 0.2-1.2 0.7-1.2 1.5l0.2 0.2-0.3-0.1c-1.2 0.9-2.3 1.9-2.7 3.4v0.1c-2.2 2.3-4.3 4.6-5.8 7.4-2.9 2.4-5.3 5.3-7.4 8.4l-0.1 0.1c-2.5 1.6-4.1 4-6.1 6.1l-0.1 0.1c-2.4 2.1-4.8 4-6.6 6.6-1.2 1.1-2.5 2.1-3.7 3.2-5.3 4.2-10.6 8.5-15.8 12.7h-0.1c-5.5 3-10.6 6.6-15.6 10.4h-0.3l-0.1 0.2c-1.8 0.4-3.3 1.3-4.4 2.7-0.4 0.1-0.7 0.3-1.1 0.4-1.2-0.1-2 0.3-2.4 1.4-0.6 0.4-1.2 0.8-1.8 1.1l-29.1 13.5c-0.4 0.1-0.7 0.3-1.1 0.4-2.6 0.4-4.9 1.3-7.1 2.7-0.9 0.2-1.7 0.4-2.6 0.6-0.4-0.1-0.8-0.1-1.2-0.2-0.8-1-5.6 1.1-2.5-3.1 2.4-1.2 4.8-2.5 7.1-3.7 0.6-0.2 1.3-0.4 1.9-0.6 1.1 0.2 1.9-0.3 2.6-1.1 3.9-1.2 7.8-2.4 11-5 0.9-0.1 1.8-0.3 2.3-1.1 1 0 1.8-0.5 2.4-1.3h0.2l0.1-0.2c0.5-0.2 0.9-0.5 1.4-0.7 1.8-0.3 3.4-1.1 4.7-2.3 1.1 0.1 1.8-0.4 2.4-1.2l1.2-0.6c1.9-0.2 3.3-1.2 4.4-2.6 1.8-0.3 3.1-1.6 4.4-2.7 2.9-0.3 4.7-2.3 6.7-4 0.2 0 0.4-0.1 0.4-0.3 1.1 0 1.7-0.6 2.2-1.6 0.5-0.3 0.9-0.6 1.4-0.8 0.4 0.2 0.6 0 0.6-0.4 0.7-0.5 1.4-1.1 2.1-1.6 1.3 0 2.1-0.8 2.7-1.8 1.3-0.3 2.1-1.2 2.9-2.1 0.9 0 1.4-0.5 1.8-1.2 1-0.4 2-0.9 2.3-2 0.7-0.4 1.3-0.9 2-1.3 1.6-0.5 2.7-1.6 3.6-2.9 0.5-0.4 1-0.8 1.6-1.1 0.5 0 0.8-0.2 0.8-0.7 0.3-0.3 0.6-0.6 1-0.9 0.6 0 0.9-0.3 0.9-0.9 1.9-0.4 3-1.8 4-3.3 0.2 0 0.4-0.1 0.4-0.4 0.5 0.1 0.8-0.2 0.8-0.7 0.3-0.3 0.6-0.7 1-1 0.3-0.3 0.6-0.6 0.9-0.8 1.3-0.2 1.9-1 2.2-2.2 0.7-0.1 1.2-0.5 1.4-1.3 1-0.2 1.6-0.7 1.8-1.8 0.6-0.6 1.2-1.2 1.7-1.9 1-0.2 1.5-0.8 1.6-1.8l0.1-0.1c0.5 0 0.8-0.2 0.8-0.8l0.1-0.1c2.7-1.5 4-4.3 5.8-6.7 1.2-0.6 1.7-1.8 2.3-2.9 0.6-0.1 0.8-0.4 0.8-1 0.2 0 0.3-0.2 0.3-0.4 1-0.4 1.5-1.1 1.6-2.1 0.8-0.2 1.2-0.7 1.2-1.5 0.9-0.3 1.4-1 1.4-2 0.9-0.2 1.2-0.8 1.2-1.6 0.2-0.4 0.4-0.7 0.6-1.1 0.2-0.3 0.5-0.6 0.7-1 1.2-1.3 2.3-2.6 2.8-4.4 1.1-0.6 1.7-1.4 1.7-2.7l0.1-0.1c0.6 0 0.7-0.3 0.5-0.8 0.2-0.4 0.4-0.9 0.6-1.3 1.5-0.9 2-2.4 2.4-4 0.7-0.4 0.9-1 0.9-1.8 1.1-0.6 1.7-1.4 1.5-2.7 0.2-0.4 0.4-0.9 0.5-1.3 1-0.5 1.4-1.2 1.2-2.3 0.2-0.4 0.3-0.9 0.5-1.3 1.7-1.2 1.9-3.1 2.3-4.9 0.6-1.5 1.2-2.9 1.9-4.4 0.9-0.7 1.2-1.6 0.9-2.6l0.6-1.2c0.5-0.3 0.7-0.8 0.5-1.4 0.2-0.1 0.3-0.3 0.2-0.5 1.6-2.3 2-4.9 2.3-7.5 0.8-1 0.9-2.3 0.9-3.5 1.8-3 2.3-6.4 2.7-9.8 0.2-1.2 0.4-2.3 0.6-3.5 0.9-1.1 1.5-2.4 0.5-3.5-1.4-1.5-3.1-0.9-4.7-0.1-0.6 0.1-1.2 0.2-1.7 0.3-2.6 0.1-4.8-0.2-3.3-3.8 2.9-1.9 5.7-3.7 8.6-5.6 4.2-0.5 8.4 0 12.6 0.4 0.8 0.3 1.6 0.7 2.4 1 0.2 0.9 0.9 1.2 1.8 1.4 0.3 0.2 0.7 0.4 1 0.6 1.3 1.4 2.6 2.9 4 4.3 0.3 0.7 0.5 1.3 0.8 2v0.9c0.2 1 0.2 2 0.3 2.9z" fill="#C82126" p-id="8443"></path><path d="M510.6 304.5c-0.6-0.1-1.2-0.2-1.9-0.2-1.1-5.2-6.6-4.1-9.7-6.6-4.4-3.5-6.5-6.5-5.1-11.8 0.7-2.8 1.7-5.3 5.4-2.9 1.6 1 3.4 0.8 5-0.3 1-0.7 2.3-1.3 3.3-0.8 4.7 2.7 10.7 3.4 13.6 8.7-1.3 0.4-2.9 0.9-2.2 2.6 0.7 1.7 2.5 0.9 3.9 1l0.1 0.1c0 0.3 0.1 0.6 0.1 1-0.5 3.2-0.8 6.5-5.4 6.2-1.4-1-2.7-1.9-2.1-4.2 0.7-2.5-0.8-4.1-2.5-6.2-3-3.9-6.6-1.9-9.8-2.9-1.9-0.6-3.3 0.4-3.9 2.5-0.5 1.9 0 3.2 1.7 4 2 0.9 3.3 0.1 4.1-1.9 1-2.6 2.8-1.8 4.2-0.5 1.6 1.5 2.9 3.3 2.8 5.8-0.1 1.9 0.3 3.5 2.1 4.5-0.7 1.4-2.6 1-3.7 1.9z" fill="#D91217" p-id="8444"></path><path d="M517.7 301.4c4.5 0.3 4.9-3 5.4-6.2 0.1-0.1 0.2-0.2 0.2-0.3l-0.3-0.6-0.1-0.1c0.1-1.5-0.4-2.8-1.7-3.6-3-5.4-8.9-6-13.6-8.7-1-0.5-2.3 0-3.3 0.8-1.6 1.2-3.4 1.3-5 0.3-3.7-2.3-4.7 0.1-5.4 2.9-1.4 5.4 0.8 8.3 5.1 11.8 3.1 2.5 8.7 1.4 9.7 6.6-8.5-0.9-14.6-5.3-18.1-12.9-2.5-5.4 0.1-10.3 5.9-12.1 9.2-2.9 23 3.1 27.4 11.8 3.3 6.5 0.1 12.8-7.2 13.8-2 0.3-4.1 0.6-6.1-0.3 1.1-0.9 3-0.5 3.8-2.1 1.1-0.3 2.4-0.2 3.3-1.1z" fill="#C43A3E" p-id="8445"></path><path d="M290 386c-9.7 5.4-19 11.8-29.7 15.2-1 0.3-2 0.5-3 0.7 0.2-0.8 0.5-1.6 0.7-2.5 0.6-0.6 1.3-1.2 1.9-1.7 2.9-1.2 5.9-2.4 8.8-3.6h0.9c1.2 0.9 1.6 0.2 1.8-0.9 1.9-1.5 5-1 6.3-3.6 2.3-0.5 4.4-1.2 6.1-3 1.7-1.9 3.9-1.4 6.1-1.5 0 0.3 0.1 0.6 0.1 0.9zM255 402.3c-4.9 2.8-10.2 2.5-15.4 1.4-4.4-1-6.4-4.6-5.6-9.6 0.4-2.4 1.3-4.8 2-7.2l0.1-0.3c0.5-0.5 1.1-0.9 1.6-1.4 0.8 2.4 0.3 4.5-1.1 6.7-2.9 4.4-1.6 7.7 3.5 9.4 3 1 6.1 0.7 9.2 0.6 1.5 0 2.9 0 4.4-0.1 0.4 0.2 0.8 0.4 1.3 0.5z" fill="#C82126" p-id="8446"></path><path d="M253.6 401.9c-1.5 0-2.9 0-4.4 0.1 3.6-3.3 4.3-8.1 6.2-12.3 1-2.3 2-5.2 5-1.4 1.5 2 3.2 1.5 4.7-0.5 1.8-2.5 3.8-2.7 5.5 0 1.9 3 4.8 1.2 7.2 1.8-1.3 2.6-4.4 2.1-6.3 3.6l-1.8 0.9h-0.9c-1.8-3.1-4.8-1.9-7.1-1.4-2.4 0.6-1.7 3.1-1.7 4.9-0.6 0.6-1.3 1.2-1.9 1.7-2 0.1-3.9 0.1-4.5 2.6z" fill="#D91217" p-id="8447"></path><path d="M253.6 401.9c0.6-2.5 2.5-2.5 4.4-2.5-0.3 0.8-0.5 1.6-0.7 2.5-0.7 0.5-1.4 0.7-2.3 0.5-0.5-0.2-0.9-0.4-1.4-0.5zM517.7 301.4c-0.9 0.9-2.2 0.8-3.4 1-1.8-1-2.2-2.7-2.1-4.5 0.1-2.4-1.2-4.3-2.8-5.8-1.4-1.3-3.2-2-4.2 0.5-0.8 2-2.1 2.8-4.1 1.9-1.7-0.8-2.3-2.1-1.7-4 0.6-2.1 2-3.1 3.9-2.5 3.2 1 6.8-1 9.8 2.9 1.7 2.2 3.1 3.8 2.5 6.2-0.6 2.4 0.7 3.3 2.1 4.3zM521.2 290.5c1.4 0.8 1.9 2.1 1.7 3.6-1.4-0.1-3.2 0.7-3.9-1-0.7-1.7 0.9-2.2 2.2-2.6zM523 294.2l0.3 0.6c0 0.1-0.1 0.2-0.2 0.3 0-0.3-0.1-0.6-0.1-0.9zM260 397.7c0.1-1.9-0.7-4.4 1.7-4.9 2.3-0.5 5.3-1.8 7.1 1.4-3 1.1-5.9 2.3-8.8 3.5zM269.6 394.1l1.8-0.9c-0.2 1.1-0.5 1.8-1.8 0.9z" fill="#CF1A1C" p-id="8448"></path></svg>