<svg xmlns="http://www.w3.org/2000/svg" viewBox="0 0 193.8 260.02"><defs><style>.cls-1{fill:#f9dab4;}.cls-2{fill:#61aa90;}.cls-3{fill:#57a084;}.cls-4{fill:#4e9679;}.cls-5{fill:#348264;}.cls-6{fill:#3f896b;}.cls-7{fill:#8e633f;}.cls-8{fill:#966b4b;}.cls-9{fill:#3a2618;}.cls-10{fill:#f9f5ed;}.cls-11{fill:#a07352;}.cls-12{fill:#f7cea6;}.cls-13{fill:#f9f7f2;}.cls-14{fill:#47413e;}.cls-15{fill:#e5be9e;}</style></defs><title>资源 144</title><g id="图层_2" data-name="图层 2"><g id="Layer_1" data-name="Layer 1"><polygon class="cls-1" points="14.25 260.02 31.76 260.02 55.1 201.89 35.6 194.57 14.25 260.02"/><path class="cls-2" d="M58.32,154.64S42.44,166.05,27.81,197.8l34.35,11.6S68,163,58.32,154.64Z"/><path class="cls-3" d="M43.7,170.45A38.83,38.83,0,0,1,47.47,187c0,7.89-.43,14.15-.68,17.25l15.37,5.19S68,163,58.32,154.64C58.32,154.64,52,159.17,43.7,170.45Z"/><path class="cls-4" d="M27.36,195.66l25.07,8.89,8.69,2.59-1.7,9.06s-29.87-10.3-33.28-11.65S26,195.16,27.36,195.66Z"/><polygon class="cls-1" points="155.5 194.57 136 201.89 159.34 260.02 176.85 260.02 155.5 194.57"/><path class="cls-2" d="M133.46,154.64S149.34,166.05,164,197.8l-34.36,11.6S123.75,163,133.46,154.64Z"/><path class="cls-3" d="M148.07,170.45A39,39,0,0,0,144.3,187c0,7.89.44,14.15.68,17.25l-15.37,5.19s-5.86-46.41,3.85-54.76C133.46,154.64,139.76,159.17,148.07,170.45Z"/><path class="cls-4" d="M164.41,195.66l-25.07,8.89-8.68,2.59,1.69,9.06s29.87-10.3,33.28-11.65S165.83,195.16,164.41,195.66Z"/><path class="cls-2" d="M69.14,143.51s-18.8,31.91-18.8,51.39c0,26.37-.48,50.25-.87,65.12h91.61V197.8c0-14.09-10.07-44.34-17.27-54.7C102,143.1,69.14,143.51,69.14,143.51Z"/><path class="cls-5" d="M58,142.09s17.92,4.71,30.4,6.73,17.32,3.58,30.25-1.48,13.1-5.09,18.86,1-4,11.62-4,11.62,11,6.41.69,10.44-55.37,5.51-71.7-.95-17.61-9.49-10.25-17.24C48.39,148.15,49,141.41,58,142.09Z"/><path class="cls-6" d="M77.07,149.87s-19-3.47-17.85,1.15,17.63,8.71,8.87,8.71-16.51,3.67-6.74,7.34,54.8,10.92,72.09-.63c4.27-2.17-4.94-6.71-4.94-6.71s8.54-1.47,8.54-8-13.25-4.61-19.54-3.56S81.19,150.49,77.07,149.87Z"/><path class="cls-7" d="M81.65,209.41a11.5,11.5,0,1,1-11.5-11.49A11.5,11.5,0,0,1,81.65,209.41Z"/><path class="cls-8" d="M77.86,209.41a7.71,7.71,0,1,1-7.71-7.7A7.7,7.7,0,0,1,77.86,209.41Z"/><path class="cls-7" d="M134.19,217.63a11.5,11.5,0,1,1-11.49-11.49A11.49,11.49,0,0,1,134.19,217.63Z"/><path class="cls-8" d="M130.4,217.63a7.71,7.71,0,1,1-7.7-7.7A7.71,7.71,0,0,1,130.4,217.63Z"/><path class="cls-7" d="M125,228.87a30,30,0,1,1-30-30A30,30,0,0,1,125,228.87Z"/><path class="cls-9" d="M87.69,223a5,5,0,1,1-4.88-5.22A5.05,5.05,0,0,1,87.69,223Z"/><path class="cls-9" d="M110.77,223.82a5.05,5.05,0,1,1-4.88-5.22A5.06,5.06,0,0,1,110.77,223.82Z"/><path class="cls-10" d="M106.22,240.64c0,5.82-6.18,10.53-13.82,10.53s-13.82-4.71-13.82-10.53S84.77,230.1,92.4,230.1,106.22,234.82,106.22,240.64Z"/><path class="cls-7" d="M90.49,236.4s-4.38-2.88-1.23-2.88,6,.41,4.79,1.64S92,237.9,90.49,236.4Z"/><path class="cls-7" d="M90.8,245.6a10.12,10.12,0,0,1-.83-4.34h0a22.17,22.17,0,0,1,.81-5.67h0a.4.4,0,0,1,.51-.28h0a.4.4,0,0,1,.27.51h0a22.49,22.49,0,0,0-.77,5.43h0a9.44,9.44,0,0,0,.75,4h0a.42.42,0,0,1-.19.55h0a.58.58,0,0,1-.18,0h0a.41.41,0,0,1-.37-.24Z"/><path class="cls-7" d="M82.5,242.66a.4.4,0,0,1,.08-.57h0a.4.4,0,0,1,.57.08h0a3.36,3.36,0,0,0,.39.41h0a7,7,0,0,0,1.28,1h0a10.71,10.71,0,0,0,5.6,1.42h0a21.82,21.82,0,0,0,8.93-2.23h0a.41.41,0,0,1,.54.2h0a.4.4,0,0,1-.2.54h0a22.49,22.49,0,0,1-9.27,2.31h0c-5.53,0-7.88-3.06-7.92-3.12Z"/><path class="cls-7" d="M50.05,37.57A24.87,24.87,0,0,1,25,62.29a24.73,24.73,0,1,1,0-49.45A24.87,24.87,0,0,1,50.05,37.57Z"/><path class="cls-11" d="M42.55,37.57A17.53,17.53,0,1,1,25,20.25,17.41,17.41,0,0,1,42.55,37.57Z"/><path class="cls-7" d="M193.55,41.94A25,25,0,1,1,165.27,21,24.87,24.87,0,0,1,193.55,41.94Z"/><path class="cls-11" d="M186.13,43a17.53,17.53,0,1,1-19.81-14.65A17.43,17.43,0,0,1,186.13,43Z"/><path class="cls-1" d="M166,96.47c0,37.25-31.15,67.45-69.58,67.45s-69.59-30.2-69.59-67.45S58,29,96.45,29,166,59.22,166,96.47Z"/><path class="cls-12" d="M92.15,96.84c-1.75,3.54-2.58,7.38-3.89,11.06s-4.69,7.8-3.4,12c1.15,3.79,5,5.35,8.71,5.71,10,1,14.69-2.87,12.34-12.84C104.88,108.43,98.94,83.13,92.15,96.84Z"/><path class="cls-1" d="M93.15,95.69c-1.49,3.18-2.22,6.63-3.35,9.94s-4,7-3,10.78c.91,3.38,4.08,4.73,7.12,5,8.22.76,12.16-2.74,10.34-11.64C103.51,105.9,98.91,83.35,93.15,95.69Z"/><path class="cls-13" d="M93.48,120.47c.09.52,1.18.79,2.45.6s2.24-.77,2.15-1.29-1.18-.79-2.45-.6S93.4,120,93.48,120.47Z"/><path class="cls-14" d="M78.23,84.35c-.21.38-.71.68-1.64.83-1.66.29-3.2-.76-4.76-1.14a19.73,19.73,0,0,0-5.26-.41,25.61,25.61,0,0,0-8.81,1.89C54.88,86.7,52.91,89,50.61,91s-4,.17-3-2.42,4-4.26,6.23-5.67A25.46,25.46,0,0,1,64,79.38a19.5,19.5,0,0,1,6.1.13A27.6,27.6,0,0,1,75.72,81C77,81.56,78.86,83.26,78.23,84.35Z"/><path class="cls-14" d="M55.75,112.19a1.38,1.38,0,0,1-1.27-1.48h0A1.37,1.37,0,0,1,56,109.45h0s.41,0,1.25,0h0a43.83,43.83,0,0,0,12-1.81h0a3.21,3.21,0,0,0,.56-.21h0c-.06-.08-.14-.18-.24-.29h0a9.58,9.58,0,0,0-1.61-1.33h0a44.66,44.66,0,0,0-5.42-3h0c-4-2-8-3.52-8-3.52h0a1.38,1.38,0,0,1-.79-1.78h0a1.37,1.37,0,0,1,1.78-.78h0s3.16,1.22,6.71,2.87h0c3.58,1.7,7.48,3.68,9.4,5.72h0a3.5,3.5,0,0,1,1.06,2.29h0a2.38,2.38,0,0,1-.86,1.81h0a4.69,4.69,0,0,1-1.77.89h0a46.3,46.3,0,0,1-12.76,1.92h0c-.91,0-1.43,0-1.46,0Z"/><path class="cls-14" d="M118.37,84.35a2.15,2.15,0,0,0,1.64.83c1.66.29,3.21-.76,4.76-1.14a19.76,19.76,0,0,1,5.26-.41,25.71,25.71,0,0,1,8.82,1.89C141.72,86.7,143.69,89,146,91s4,.17,3-2.42-4-4.26-6.23-5.67a25.46,25.46,0,0,0-10.15-3.48,19.5,19.5,0,0,0-6.1.13,27.77,27.77,0,0,0-5.6,1.52C119.62,81.56,117.74,83.26,118.37,84.35Z"/><path class="cls-14" d="M139.94,112.19a1.37,1.37,0,0,0,1.26-1.48h0a1.36,1.36,0,0,0-1.47-1.26h0s-.42,0-1.26,0h0a43.83,43.83,0,0,1-12-1.81h0a3,3,0,0,1-.55-.21h0a3.56,3.56,0,0,1,.23-.29h0a9.73,9.73,0,0,1,1.62-1.33h0a43.91,43.91,0,0,1,5.42-3h0c4-2,8-3.52,8-3.52h0A1.38,1.38,0,0,0,142,97.5h0a1.37,1.37,0,0,0-1.78-.78h0s-3.15,1.22-6.71,2.87h0c-3.57,1.7-7.47,3.68-9.39,5.72h0a3.45,3.45,0,0,0-1.06,2.29h0a2.4,2.4,0,0,0,.85,1.81h0a4.69,4.69,0,0,0,1.77.89h0a46.39,46.39,0,0,0,12.76,1.92h0c.92,0,1.44,0,1.47,0Z"/><path class="cls-12" d="M91.47,144.72a3.76,3.76,0,0,0-3.31-2h0c-1.91-.05-4.29,1.54-5.26,2.38h0c-.33.27-.49.42-.49.42h0a1.36,1.36,0,0,1-1.94,0h0a1.36,1.36,0,0,1,0-1.94h0c.12,0,3.42-3.49,7.66-3.58h0a6.62,6.62,0,0,1,5.67,3.36h0l0,.07,0,.07c.64,1.17,1,1.17,1.27,1.2h0a3.35,3.35,0,0,0,1.76-.81h0a19.79,19.79,0,0,0,2.09-1.9h0a8.25,8.25,0,0,1,5.7-2.4h0c2.52,0,5.34,1.35,7.73,4.75h0a1.38,1.38,0,0,1-.33,1.92h0a1.38,1.38,0,0,1-1.92-.33h0c-2.08-2.89-3.94-3.58-5.48-3.6h0a5.52,5.52,0,0,0-3.75,1.61h0a24.53,24.53,0,0,1-2.4,2.16h0a5.88,5.88,0,0,1-3.4,1.35h-.06a4.26,4.26,0,0,1-3.64-2.66Z"/><path class="cls-14" d="M38.46,46.75s17.16,9.68,21.36,20c0,0,2.85-16.7-4.2-23.48C74.78,52.33,81.8,71.41,81.8,71.41s8.54-25.84,0-38.75C108,51.45,97.06,74.34,97.06,74.34s25-12.33,15.26-41.1c0,0,12.21,15.86,9.76,28.77,0,0,23.81-17.61,14-37C136.12,25,67.76-4.33,38.46,46.75Z"/><path class="cls-7" d="M164.2,104.71s3.66-50.36-40.29-68.37A73.23,73.23,0,0,0,44.29,51.82C25.61,70.5,25.64,95.25,27.93,104.64l-7,2.46S8.24,80.83,18.77,53.59,49,1.17,94.54,0,181.6,37,171.22,104Z"/><path class="cls-1" d="M158.47,101.69s13.83-7.82,20.51,5.75-12,30.31-26,14Z"/><path class="cls-15" d="M160.68,118.5s2.61-12.89,8.06-11.36S172.45,121.8,160.68,118.5Z"/><path class="cls-12" d="M168.74,107.14a4.18,4.18,0,0,1,2.84,3.44c-3.22,1.74-8.2,4.7-10.85,7.68C161.11,116.54,163.72,105.73,168.74,107.14Z"/><path class="cls-1" d="M29.56,101.69s-13.83-7.82-20.51,5.75,12,30.31,26.05,14Z"/><path class="cls-15" d="M27.35,118.5s-2.61-12.89-8.06-11.36S15.58,121.8,27.35,118.5Z"/><path class="cls-12" d="M19.29,107.14a4.18,4.18,0,0,0-2.84,3.44c3.22,1.74,8.2,4.7,10.85,7.68C26.92,116.54,24.31,105.73,19.29,107.14Z"/></g></g></svg>