<svg xmlns="http://www.w3.org/2000/svg" viewBox="0 0 191.11 293.42"><defs><style>.cls-1{fill:#d8d7d6;}.cls-2{fill:#e2e1e0;}.cls-3{fill:#d35757;}.cls-4{fill:#b7b6b3;}.cls-5{fill:#ea6868;}.cls-6{fill:#f9dab4;}.cls-7{fill:#f7cea6;}.cls-8{fill:#6d6d6d;}.cls-9{fill:#6b4627;}.cls-10{fill:#fff;}.cls-11{fill:#5b5959;}</style></defs><title>资源 215</title><g id="图层_2" data-name="图层 2"><g id="Layer_1" data-name="Layer 1"><path class="cls-1" d="M54.79,161.17S13.36,207.73,23.13,293.42H168.87c1.21-9.07,9.91-85.23-31.5-132.33Z"/><path class="cls-2" d="M30.42,230.25S19.9,285,41.64,287.05s106.54,4.86,117.46-3.5c5.61-5.61,8.93-28.93,5.61-46.29s-13.6-51.69-20.73-56.1-68.52-7.21-80.6-2.45S40.94,185,30.42,230.25Z"/><polygon class="cls-3" points="72.06 181.51 87.05 212.02 95.58 215.15 106.42 212.28 114.49 181.07 72.06 181.51"/><path class="cls-4" d="M105.65,245.55a4.67,4.67,0,1,0-4.66-4.67A4.67,4.67,0,0,0,105.65,245.55Z"/><path class="cls-4" d="M105.65,263a4.67,4.67,0,1,0-4.66-4.67A4.67,4.67,0,0,0,105.65,263Z"/><path class="cls-4" d="M96.84,213.52h0c-1.41,2.39-2.76,0-2.76,0h0c-5.45-10-19.2-23.83-19.2-23.83l-2,1.06,7.54,37.08c3.78-13.51,11.22-13,13.84-12.4l-.64,78h2.92c0-1.4,0-3.25,0-4.46,0-11.95.23-67.29.26-73.55,2.7-.62,10-.94,13.75,12.42l7.54-37.08-2-1.06S102.29,203.54,96.84,213.52Z"/><path class="cls-4" d="M105.65,280.92a4.67,4.67,0,1,0-4.66-4.67A4.67,4.67,0,0,0,105.65,280.92Z"/><path class="cls-5" d="M165.08,220.34s3.42,21.83,2.1,28.14-1.31,11.84,7.36,3.16,4.74-38.13,2.63-53.12-4.95-17-4.95-17,2.06-14.8-14.51-18.75-12.15,10.14-9.13,16.4S161.66,205.35,165.08,220.34Z"/><path class="cls-3" d="M148.58,179.15c3.49,0,4.29,5.5,5.71,6.92s3.49-.74,3.49-4.56,0-3.48,2.3-1.18,4.67,0,3.55-3.42,1.12-2.3,4.67-.2.64-7,.54-7.34a17.68,17.68,0,0,1,3.38,12.13s2.85,2,4.95,17c1.18,8.38,2.93,21.29,2.73,32.55a13.29,13.29,0,0,0-1.15-5.38c-1.15-2.1-3.81-.92-4.73,2.76s-1.51.2-3.29-1.57-2.1-.53-3.29,2.76c-.24.67-.59.93-1,.93-.65-5.61-1.37-10.23-1.37-10.23C161.66,205.35,151.6,185.41,148.58,179.15Z"/><path class="cls-6" d="M162.18,190.1s-6-2.28-11.35.05-4.51,18.89.31,21.78,10.52-1.49,9.64-8.77C160.47,198.34,162.18,190.1,162.18,190.1Z"/><path class="cls-7" d="M150.83,190.15c5.31-2.33,11.35-.05,11.35-.05s-.35,1.72-.71,4.05c-.64-.25-1.31-.54-2-.89,0,0-7.5-2.79-9.77.24s-2.33,13.35,1.18,16.06,7.18,3.25,9.46-1.61l0,.07c-1.46,4.16-5.57,6.08-9.18,3.91C146.32,209,145.53,192.47,150.83,190.15Z"/><path class="cls-6" d="M189.45,197.47a20,20,0,0,0-8.24-14.38c-7.89-5.61-18.06-1.93-23,3s-4,7.36-3,10.69,3,2.5,3,2.5-1.94,1.19-.47,5.39,1.46,6.84,6.2,6.84c-3.34,1.58-3.51,4.73-2.63,8.42s4.2,6.13,11.74,3c8.07,2.1,13.5.52,16.66-5.79S189.45,197.47,189.45,197.47Z"/><path class="cls-7" d="M173.5,180.32s-15.87,5.76-16.71,11.45.66,5.7,3.68,5.7,8.29-1.89,9.6-2.35,2.63,1.38-.52,2.1-10.44,1.19-10.44,4.25,1.4,8.5,2.86,8.77,8.17-.72,10.4-1.31,2.63.72.14,1.51-9.41,2.17-9.87,4.14-1.15,5.1.86,7.1,8.41,1.51,9.14-.39,1.18-1.45,2.27-.36,8.82,4.46,14.63-3.35c-3.19,5.9-8.55,7.36-16.4,5.31-7.54,3.15-10.87.7-11.74-3s-.71-6.84,2.63-8.42c-4.74,0-4.74-2.63-6.2-6.84s.47-5.39.47-5.39-2,.84-3-2.5-1.93-5.78,3-10.69A20.47,20.47,0,0,1,173.5,180.32Z"/><path class="cls-5" d="M26,220.34s-3.42,21.83-2.11,28.14,1.32,11.84-7.36,3.16-4.73-38.13-2.63-53.12,5-17,5-17-2.06-14.8,14.51-18.75,12.15,10.14,9.13,16.4S29.46,205.35,26,220.34Z"/><path class="cls-3" d="M42.53,179.15c-3.49,0-4.29,5.5-5.71,6.92s-3.49-.74-3.49-4.56,0-3.48-2.3-1.18-4.66,0-3.55-3.42-1.11-2.3-4.66-.2-.64-7-.54-7.34a17.65,17.65,0,0,0-3.39,12.13s-2.85,2-5,17c-1.18,8.38-2.93,21.29-2.73,32.55a13.29,13.29,0,0,1,1.15-5.38c1.16-2.1,3.82-.92,4.74,2.76s1.51.2,3.28-1.57,2.11-.53,3.29,2.76c.24.67.59.93,1,.93C25.31,225,26,220.34,26,220.34,29.46,205.35,39.51,185.41,42.53,179.15Z"/><path class="cls-6" d="M28.93,190.1s6-2.28,11.35.05S44.8,209,40,211.93s-10.52-1.49-9.65-8.77C30.64,198.34,28.93,190.1,28.93,190.1Z"/><path class="cls-7" d="M40.28,190.15c-5.3-2.33-11.35-.05-11.35-.05s.36,1.72.71,4.05c.64-.25,1.31-.54,2-.89,0,0,7.5-2.79,9.77.24s2.32,13.35-1.18,16.06-7.19,3.25-9.47-1.61l0,.07c1.46,4.16,5.57,6.08,9.19,3.91C44.8,209,45.59,192.47,40.28,190.15Z"/><path class="cls-6" d="M1.67,197.47a20,20,0,0,1,8.24-14.38c7.89-5.61,18.06-1.93,23,3s4,7.36,3,10.69-3,2.5-3,2.5,1.94,1.19.48,5.39-1.47,6.84-6.2,6.84c3.33,1.58,3.5,4.73,2.63,8.42s-4.21,6.13-11.75,3c-8.06,2.1-13.5.52-16.65-5.79S1.67,197.47,1.67,197.47Z"/><path class="cls-7" d="M17.61,180.32s15.88,5.76,16.71,11.45-.66,5.7-3.68,5.7-8.28-1.89-9.6-2.35-2.63,1.38.53,2.1S32,198.41,32,201.47s-1.39,8.5-2.86,8.77-8.17-.72-10.4-1.31-2.63.72-.13,1.51,9.4,2.17,9.86,4.14,1.15,5.1-.86,7.1-8.41,1.51-9.13-.39-1.19-1.45-2.27-.36-8.83,4.46-14.63-3.35c3.19,5.9,8.54,7.36,16.39,5.31,7.54,3.15,10.87.7,11.75-3s.7-6.84-2.63-8.42c4.73,0,4.73-2.63,6.2-6.84s-.48-5.39-.48-5.39,2,.84,3-2.5,1.92-5.78-3-10.69A20.47,20.47,0,0,0,17.61,180.32Z"/><path class="cls-8" d="M105.46,50S102.3,31.79,76.35,36s-56.1,37.52-49.79,81.7c3.51,28.05,6.67,28.4,6.67,28.4s-.35,24.19,3.15,31.2c1.73,1.74,1.62-5.12,3.73-5.78,2.49,10,10,23.8,13.15,10C56.67,191.9,66,202.94,68.64,191c2.24,7.49,10.72,20.84,15.78,4.86,8.68,9.87,13.8,13.81,17.22-.78,5.53,6.83,10.92,9.46,14.86-.66,8.75,8.74,11.7,5.92,14.33-4.87,8,5.53,13.15,5.53,13.15-5.65,6.84,6.84,9.08,2,6.84-3.81,3.88,6.77,5.65,3.28,6.44-8.29,0,0,5.5-17.8,2-27.66,2.5-20.25,13-29.4,5.94-57s-31.29-37.87-47.07-34.45c6-10.52.79-13.67-7.36-2.1C110.72,37.4,107.3,39,105.46,50Z"/><path class="cls-6" d="M88.63,75s-.79,15.51,5.78,18.93,12.36-1.32,13.68-6.57c0,0,2.36,14.72,10.78,14.72s10.25-8.15,10.25-10.78c0,0,4.48,19.07,19.07,19.07,7,9.59,8,32.21-8,40.63-11.57,7.1-31.95-13.28-31.95-13.28h-22S81.79,146,68.64,150.48,36,146.27,42.87,117.87c9.2-3.15,17-12.49,18.8-17,1.45,5.78,3.55,6.18,9.86,1A39,39,0,0,0,84.68,79.87C86.26,73.43,88.59,70.92,88.63,75Z"/><path class="cls-6" d="M159,144.84c8.44,11,20.45,6.72,24-5s-2.63-21.76-11.64-22.72-14.44,13.77-14.44,13.77A17.82,17.82,0,0,0,159,144.84Z"/><path class="cls-7" d="M172.24,140.09c-.06,0-5.64-1.36-7.49-5.39h0a.63.63,0,0,1,.05-.61h0c2.77-4.28,5.75-5.58,8.13-5.57h0a6.61,6.61,0,0,1,3.88,1.23h0a.65.65,0,0,1,0,1h0a1,1,0,0,1-1.19,0h0l0,0h0l-.14-.09h0a3.77,3.77,0,0,0-.56-.3h0a4.9,4.9,0,0,0-2-.44h0c-1.58,0-3.87.75-6.46,4.53h0c1.14,2.18,4,3.49,5.47,4h0c.49.17.78.24.78.24h0a.72.72,0,0,1,.57.9h0a.85.85,0,0,1-.81.51h0a1,1,0,0,1-.24,0Z"/><path class="cls-7" d="M173.35,147.63c-6.95,2.18-14.38-2.79-14.38-2.79,8.44,11,20.45,6.72,24-5s-2.63-21.76-11.64-22.72c-3.37-.36-6.25,1.48-8.52,3.93,6.74-3.12,14.86-1.22,17.34,5C182.79,132.71,180.3,145.44,173.35,147.63Z"/><path class="cls-6" d="M34.63,144.84c-8.45,11-20.46,6.72-24-5s2.63-21.76,11.64-22.72,14.44,13.77,14.44,13.77A17.84,17.84,0,0,1,34.63,144.84Z"/><path class="cls-7" d="M21.35,140.09c.07,0,5.64-1.36,7.5-5.39h0a.66.66,0,0,0-.06-.61h0c-2.77-4.28-5.75-5.58-8.12-5.57h0a6.63,6.63,0,0,0-3.89,1.23h0a.65.65,0,0,0,0,1h0a1,1,0,0,0,1.19,0h0l0,0h0l.14-.09h0a4.37,4.37,0,0,1,.56-.3h0a5,5,0,0,1,2-.44h0c1.57,0,3.86.75,6.45,4.53h0c-1.14,2.18-4,3.49-5.47,4h0c-.49.17-.78.24-.78.24h0a.72.72,0,0,0-.57.9h0a.85.85,0,0,0,.81.51h0a1,1,0,0,0,.24,0Z"/><path class="cls-7" d="M20.25,147.63c7,2.18,14.38-2.79,14.38-2.79-8.45,11-20.46,6.72-24-5s2.63-21.76,11.64-22.72c3.37-.36,6.25,1.48,8.52,3.93-6.74-3.12-14.85-1.22-17.34,5C10.8,132.71,13.29,145.44,20.25,147.63Z"/><path class="cls-9" d="M73.55,124.19a9.47,9.47,0,1,1-9.47-9.63A9.55,9.55,0,0,1,73.55,124.19Z"/><path class="cls-10" d="M70.83,121.19c-.69,1.56-3.32,1.91-5.87.79s-4.08-3.3-3.39-4.86,3.31-1.91,5.87-.79S71.51,119.63,70.83,121.19Z"/><path class="cls-9" d="M143,124.19a9.47,9.47,0,1,1-9.47-9.63A9.55,9.55,0,0,1,143,124.19Z"/><path class="cls-10" d="M140.25,121.19c-.68,1.56-3.31,1.91-5.87.79s-4.07-3.3-3.38-4.86,3.31-1.91,5.86-.79S140.94,119.63,140.25,121.19Z"/><path class="cls-7" d="M85.34,131.15H107c6.84,0,11.84,1.32,9.34,8.68S106.9,150.48,96,150.48s-16.17-6.18-17.36-11.7S81,131.15,85.34,131.15Z"/><path class="cls-6" d="M111.09,131.38a30.15,30.15,0,0,0-4.06-.23H85.34a10.79,10.79,0,0,0-1.15.06c-2.43.79-4,2.87-3.21,6.73,1,5.15,5.65,10.92,15.22,10.92s15.69-3.07,17.88-9.94C115.55,134.3,114.05,132.24,111.09,131.38Z"/><path class="cls-10" d="M106.38,145.75c0,.79-1.88,1.44-4.21,1.44s-4.2-.65-4.2-1.44,1.88-1.44,4.2-1.44S106.38,145,106.38,145.75Z"/><path class="cls-5" d="M87.27,168.56s.11,8.94,5.5,11,9.39-.65,11.43-12.23c0,0-5.59-3.54-7.29-7.29-1-1.78-1.65-.08-2.8,1.64S90.19,167.5,87.27,168.56Z"/><path class="cls-11" d="M73.41,172.43a15.3,15.3,0,0,0,1.82.08,25.64,25.64,0,0,0,9.32-1.74A20.52,20.52,0,0,0,95,161.65h0a8.94,8.94,0,0,1,.86-1.38,1.32,1.32,0,0,1,.22-.2h0l0-.08,0,.09h0l0-.08,0,.09,0-.21v.22h0l0-.21v.05l-.07.15.07,0v-.17l-.07.15.06,0a5.19,5.19,0,0,1,.73,1c.33.53.73,1.22,1.23,2a10.71,10.71,0,0,0,2.18,2.44,20.26,20.26,0,0,0,5.22,3.2,17,17,0,0,0,6.5,1.41,10.77,10.77,0,0,0,6.08-1.74.79.79,0,0,0-.87-1.32,9.23,9.23,0,0,1-5.21,1.49,16.51,16.51,0,0,1-7.68-2.17,17.4,17.4,0,0,1-3-2.06,9.08,9.08,0,0,1-1.86-2.07c-.64-1-1.12-1.9-1.56-2.54a4.49,4.49,0,0,0-.69-.84,2.15,2.15,0,0,0-.46-.3,1.42,1.42,0,0,0-.59-.13,1.52,1.52,0,0,0-.78.23,3.2,3.2,0,0,0-.83.85,12.27,12.27,0,0,0-.8,1.32l.7.37-.69-.39A18.92,18.92,0,0,1,84,169.3a24.17,24.17,0,0,1-8.74,1.64c-.52,0-.94,0-1.22,0l-.32,0H73.6a.79.79,0,1,0-.19,1.56Z"/><path class="cls-3" d="M102,175.1a7.2,7.2,0,0,0-6-3.25,7.35,7.35,0,0,0-6.72,4.65,6.85,6.85,0,0,0,3.43,3C96.63,181,99.78,180,102,175.1Z"/><path class="cls-9" d="M44.45,35.82s60.31,39.8,130.43,61.54c10.17,1.4,6.84-9.12,6.84-9.12s-7,3.86-9.82-1-2.8-7-2.8-7,5.26-8.42,9.29-9.65,5.26-5.08,5.26-13-1.4-18.06-23.32-32.78S129.3,4.44,102,1.11,70.57,2.69,70.57,6.19s.88,19.64-11.22,24.72C55.14,32,46.9,25.13,46.9,23.55,46.9,23.55,37.08,25,44.45,35.82Z"/><path class="cls-5" d="M175.94,57.3A13.24,13.24,0,1,1,162.7,44.06,13.23,13.23,0,0,1,175.94,57.3Z"/><path class="cls-3" d="M173.83,57.3A11.13,11.13,0,1,1,162.7,46.17,11.13,11.13,0,0,1,173.83,57.3Z"/><path class="cls-2" d="M165.68,53.7s-3.29,5.4-7.69,5.4-5.33.78-4.41,3.68,5.66,5.85,11.31,2.5S168.44,55,168.44,55l3.88-2.82a53.9,53.9,0,0,0-6.38-2.63C163.18,48.64,158.32,49.5,165.68,53.7Z"/></g></g></svg>