<svg xmlns="http://www.w3.org/2000/svg" viewBox="0 0 161.67 260"><defs><style>.cls-1{fill:#f9dab4;}.cls-2{fill:#d19865;}.cls-3{fill:#f4efed;}.cls-4{fill:#e2dcd9;}.cls-5{fill:#563a28;}.cls-6{fill:#c65044;}.cls-7{fill:#ad3e3b;}.cls-8{fill:#f4d3b0;}.cls-9{fill:#efc4a0;}.cls-10{fill:#3a332d;}</style></defs><title>资源 63</title><g id="图层_2" data-name="图层 2"><g id="Layer_1" data-name="Layer 1"><path class="cls-1" d="M117.13,260h13a34.59,34.59,0,0,0,2.48-11.72l-17-9.22Z"/><polygon class="cls-2" points="119.46 260 118.73 252.83 46.84 252.83 46.25 260 119.46 260"/><path class="cls-1" d="M28.52,246.5A51.65,51.65,0,0,0,26.34,260H48.11a51.65,51.65,0,0,0-1.76-7.41Z"/><path class="cls-3" d="M54.39,155.59s-20.37-1.87-22,17.09-5.62,80.15-5.62,80.15H46.84s40.65,7.7,71.89,0V241.76l14.39,8.07s10.21-21.59,10.28-37.65c0-10.78-16.45-57.06-39.06-56.64Z"/><path class="cls-4" d="M46.84,252.83l-1.17-84.26s-5.41,26.49-4,84.26Z"/><path class="cls-4" d="M118.73,241.76l-3.2-70.41s8.46,43.62,5.9,71.92Z"/><path class="cls-5" d="M83,169.45h-5a2,2,0,0,1-2-1.86v-5.92a2,2,0,0,1,2-1.86h5a2,2,0,0,1,2,1.86v5.92A2,2,0,0,1,83,169.45Z"/><polygon class="cls-5" points="77.83 168.52 67.9 227.84 80.89 236.42 93.45 227.49 83.08 168.52 77.83 168.52"/><polygon class="cls-4" points="56.31 157.51 58.94 177.48 80.84 164.63 103.05 177.48 104.33 157.43 56.31 157.51"/><path class="cls-6" d="M80.83,0C9.84,0-3.15,49.64.57,83.94a65,65,0,0,0,13.21,32.5l67.05,9.25,67.06-9.25a65,65,0,0,0,13.2-32.5C164.82,49.64,151.83,0,80.83,0Z"/><path class="cls-7" d="M67.05,84.28S86.72,66.83,90,44.8c0,0,.44,18.68-6.32,28.58,0,0,14.23-12.77,17.1-28.58,0,0-.43,19.64-9.19,27.78,0,0,14.51-4.15,22.27-23.15,0,0,2.44,10.06-7,21.72,0,0,7.62,2.23,14.94-19,0,0,3.24,14.58-8.76,22.68,0,0,13.51-2.68,16.81-10.28,0,0,1,6.95-11.87,14.44L90.17,95.74,67.05,88.23Z"/><path class="cls-8" d="M27.46,110.86s-10.15-6.49-14.94,3.89S21.33,143.22,38,144.28Z"/><path class="cls-8" d="M134.28,110.86s10.16-6.49,14.95,3.89-8.82,28.47-25.49,29.53Z"/><path class="cls-1" d="M62.82,83.42,39.24,78C27.39,75.2,17.17,87.49,20.59,100.4l8.15,30.79c3.37,12.73,12.34,22.68,23.8,26.41l18.45,6a31.7,31.7,0,0,0,19.69,0l18.45-6c11.46-3.73,20.43-13.68,23.8-26.41l8.15-30.79c3.41-12.91-6.8-25.2-18.66-22.45L98.84,83.42A79.66,79.66,0,0,1,62.82,83.42Z"/><path class="cls-9" d="M90.81,134.07s-3.35-6.42-8.82-6.42-8.83,6.42-8.83,6.42,2.51-8.69,8.83-8.69S90.81,134.07,90.81,134.07Z"/><path class="cls-9" d="M81.4,153a40.35,40.35,0,0,1-7.24-.67,47.6,47.6,0,0,1-16.73-6.49,1.4,1.4,0,0,1-.39-1.8,1.11,1.11,0,0,1,1.62-.44,46.61,46.61,0,0,0,16,6.15c12.25,2.21,23-1.27,31.9-10.35a1.1,1.1,0,0,1,1.67.08,1.42,1.42,0,0,1-.08,1.86C99.18,150.46,89.48,153,81.4,153Z"/><path class="cls-10" d="M45.68,129.8a1.38,1.38,0,0,1-1.3-1.32c-.26-2.84.83-8.69,6.79-10.44s9.31,3.82,10.16,7a1.5,1.5,0,0,1-.89,1.81,1.3,1.3,0,0,1-1.64-1,10.34,10.34,0,0,0-1.64-3.26,4.57,4.57,0,0,0-5.32-1.78C46.53,122.42,47,128,47,128.19a1.43,1.43,0,0,1-1.17,1.6Z"/><path class="cls-10" d="M61.35,99.11S55.41,113.87,35.48,114v-5.93s16.71-2,21.74-13Z"/><path class="cls-10" d="M116.84,129.8h-.13a1.44,1.44,0,0,1-1.18-1.6c0-.25.4-5.78-4.85-7.33s-6.89,4.77-7,5a1.3,1.3,0,0,1-1.63,1,1.48,1.48,0,0,1-.89-1.81c.85-3.22,4.06-8.82,10.15-7s7.05,7.6,6.79,10.44A1.37,1.37,0,0,1,116.84,129.8Z"/><path class="cls-10" d="M101.17,99.11S107.11,113.87,127,114v-5.93s-16.71-2-21.74-13Z"/></g></g></svg>