<svg xmlns="http://www.w3.org/2000/svg" viewBox="0 0 180.45 259.43"><defs><style>.cls-1{fill:#352b23;}.cls-2{fill:#e5b693;}.cls-3{fill:#ea8383;}.cls-4{fill:#d86f6f;}.cls-5{fill:#cc6464;}.cls-6{fill:#efa3a3;}.cls-7{fill:#d34646;}.cls-8{fill:#f9dab4;}.cls-9{fill:#f7cea6;}.cls-10{fill:#2f3233;}.cls-11{fill:#f9f5ed;}.cls-12{fill:#dd2626;}.cls-13{fill:#e0605c;}</style></defs><title>资源 122</title><g id="图层_2" data-name="图层 2"><g id="Layer_1" data-name="Layer 1"><path class="cls-1" d="M.23,161s145.48,7.49,179.9,0c0-51.42,6.42-129-38.09-150.54S17.67-1.67,7.8,59.35.23,161,.23,161Z"/><path class="cls-2" d="M68.41,162.13l24.16,34.29L117,162.13S95.46,150.32,68.41,162.13Z"/><path class="cls-3" d="M162.6,249.41c-5-10.32-23.15-55.5-27.62-67.5a23.5,23.5,0,0,0-15.85-14.44s3,46.29,7.59,92h39.74A54.4,54.4,0,0,0,162.6,249.41Z"/><path class="cls-4" d="M142.51,247.46c-2.27-6.31-8.92-35.14-12.55-53-2.22-10.9-.9-17,.45-20.09a23.58,23.58,0,0,0-11.28-6.9s1.23,19.17,3.34,45l7.21,33.31,6.08,13.64H146A77,77,0,0,0,142.51,247.46Z"/><path class="cls-3" d="M23.15,249.41c5-10.32,23.15-55.5,27.61-67.5a23.5,23.5,0,0,1,15.85-14.44s-3,46.29-7.59,92H19.28A53.8,53.8,0,0,1,23.15,249.41Z"/><path class="cls-4" d="M43.23,247.46c2.27-6.31,8.93-35.14,12.55-53,2.22-10.9.91-17-.45-20.09a23.58,23.58,0,0,1,11.28-6.9s-1.22,19.17-3.33,45l-7.22,33.31L50,259.43H39.79A79.23,79.23,0,0,1,43.23,247.46Z"/><path class="cls-3" d="M120,167.69l-7.62-1.75c-25.48,13.56-39.38,0-39.38,0l-3,.69-4.62,1.06c-2.14,0-5.35,9.86-7.92,24.85-3.42,19.92-7.14,39.78-10.63,59.68-.42,2.4-.84,4.81-1.25,7.21h93.29c-2.32-14.16-4.68-28.32-6.93-42.5-1.29-8.13-2.61-16.27-4-24.39C125.37,177.55,122.16,167.69,120,167.69Z"/><path class="cls-5" d="M92.66,172.33a8.9,8.9,0,0,0-6.56-7.15,86.23,86.23,0,0,0-17.63-3.05l-2.88,7.38S70.29,171.55,92.66,172.33Z"/><path class="cls-5" d="M92.79,172.33a8.9,8.9,0,0,1,6.56-7.15A86.32,86.32,0,0,1,117,162.13l2.87,7.38S115.17,171.55,92.79,172.33Z"/><path class="cls-5" d="M93.27,174.32a.61.61,0,0,0-.68.57h0s-3.35,38.49-3.35,54.73c0,4.52.06,15.82.15,29.82h1.26c-.09-14-.16-25.3-.16-29.82,0-8.05.84-21.72,1.68-33.36S93.84,175,93.84,175A.62.62,0,0,0,93.27,174.32Z"/><path class="cls-6" d="M45.59,259.43h93.29Q138,254,137.1,248.58H47.49c-.21,1.21-.44,2.42-.65,3.64C46.42,254.62,46,257,45.59,259.43Z"/><rect class="cls-7" x="49.69" y="248.58" width="5.9" height="10.85"/><rect class="cls-7" x="59.96" y="248.58" width="5.9" height="10.85"/><rect class="cls-7" x="69.35" y="248.58" width="5.9" height="10.85"/><rect class="cls-7" x="79.61" y="248.58" width="5.9" height="10.85"/><rect class="cls-7" x="89" y="248.58" width="5.9" height="10.85"/><rect class="cls-7" x="99.27" y="248.58" width="5.9" height="10.85"/><rect class="cls-7" x="108.65" y="248.58" width="5.9" height="10.85"/><rect class="cls-7" x="118.04" y="248.58" width="5.9" height="10.85"/><rect class="cls-7" x="127.43" y="248.58" width="5.9" height="10.85"/><path class="cls-8" d="M154.43,89.35c1.79,24.59-3.8,63.11-30.24,73.13-10.1,3.83-22,4.22-32.73,4.22C27,166.7,30.15,92.33,30.15,92.33s-3-52.39,58.42-58.42S154.42,89.25,154.43,89.35Z"/><path class="cls-9" d="M98.92,116.53a1.31,1.31,0,0,1,1,1.58h0a12.94,12.94,0,0,1-1.67,3.75h0a7.42,7.42,0,0,1-6.8,3.63h-.21A9.27,9.27,0,0,1,84.66,122h0A9.43,9.43,0,0,1,83,119h0a1.32,1.32,0,0,1,.91-1.62h0a1.33,1.33,0,0,1,1.62.91h0a.45.45,0,0,0,0,.14h0a4.59,4.59,0,0,0,.19.47h0a7.7,7.7,0,0,0,.94,1.52h0a6.59,6.59,0,0,0,4.77,2.5h.12a4.58,4.58,0,0,0,4.06-1.94h0a10.25,10.25,0,0,0,1.62-3.21h0c0-.16.06-.22.06-.22h0a1.32,1.32,0,0,1,1.36-1h0l.22,0Z"/><path class="cls-10" d="M56.53,100.29a8.41,8.41,0,0,0-8.63,10,5.23,5.23,0,0,1-.79-.32A4.16,4.16,0,0,1,45,107a.5.5,0,0,0-.6-.38.48.48,0,0,0-.4.57,5.11,5.11,0,0,0,2.66,3.71,6.44,6.44,0,0,0,1.59.56c.11.29.22.56.35.83a7,7,0,0,1-2.35.43,5.07,5.07,0,0,1-2.17-.47,5.79,5.79,0,0,1-2.13-1.8.53.53,0,0,0-.72-.1.47.47,0,0,0-.11.68,6.83,6.83,0,0,0,2.51,2.1,6.18,6.18,0,0,0,2.62.57,8.39,8.39,0,0,0,2.84-.54,8.86,8.86,0,0,0,7.48,4,8.43,8.43,0,1,0,0-16.85Z"/><path class="cls-11" d="M61,104.54a2.1,2.1,0,0,1,.37,3,2.34,2.34,0,0,1-3.15-.27,2.1,2.1,0,0,1-.37-3A2.34,2.34,0,0,1,61,104.54Z"/><path class="cls-10" d="M133.86,118.23l-15.12-8.43a1,1,0,0,1-.51-.9h0a1,1,0,0,1,.57-.86h0l14.65-6.94h0a1,1,0,0,1,1.32.47h0a1,1,0,0,1-.47,1.32h0L121.39,109l13.44,7.49a1,1,0,0,1,.38,1.35h0a1,1,0,0,1-.86.51h0a1.09,1.09,0,0,1-.49-.13Z"/><path class="cls-10" d="M113.23,96S127.5,85.64,143,94.75c-.53-8.39-6.07-10-15.49-10s-16.7,7-16.7,7Z"/><path class="cls-10" d="M70.16,95S55.89,84.65,40.4,93.76c.53-8.4,6.07-10,15.49-10s16.7,7,16.7,7Z"/><path class="cls-12" d="M104.57,140.93a5.69,5.69,0,0,0-2-.89c-3.08-1-3.87-3.78-6-3.1s-3.74,4.07-5.76,2.37-3-2.86-5.57-.73c-2.16,1.78-5.58,1.07-6.17,2a.74.74,0,0,0,0,.6.77.77,0,0,0,.05.19,47.65,47.65,0,0,0,25.43,0,.4.4,0,0,0,.11-.06C104.68,141.27,104.77,141.13,104.57,140.93Z"/><path class="cls-13" d="M92.15,147.4a12.47,12.47,0,0,1,9.81,4.24,17,17,0,0,0,2.67-9.28c0-.35,0-.68,0-1a.4.4,0,0,1-.11.06,47.65,47.65,0,0,1-25.43,0,.77.77,0,0,1-.05-.19c0,.38,0,.77,0,1.16a17,17,0,0,0,3,9.81C83.84,149.34,87.69,147.4,92.15,147.4Z"/><path class="cls-12" d="M91.78,157.61a12.26,12.26,0,0,0,10.18-6,12.47,12.47,0,0,0-9.81-4.24c-4.46,0-8.31,1.94-10.2,4.77A12.15,12.15,0,0,0,91.78,157.61Z"/><path class="cls-1" d="M28,95.3s41.81-9.25,60-44.12c11.9,20.82,33.22,38.17,70.9,38.17,0-33.71-13.86-75.21-78.83-64C17.09,36.3,28,95.3,28,95.3Z"/></g></g></svg>