<svg xmlns="http://www.w3.org/2000/svg" viewBox="0 0 182.16 260.03"><defs><style>.cls-1{fill:#44ada0;}.cls-2{fill:#76c4bb;}.cls-3{fill:#f9f5ed;}.cls-4{fill:#4c3626;}.cls-5{fill:#f4d3b0;}.cls-6{fill:#f9dab4;}.cls-7{fill:#3a332d;}.cls-8{fill:#efc4a0;}</style></defs><title>资源 197</title><g id="图层_2" data-name="图层 2"><g id="Layer_1" data-name="Layer 1"><path class="cls-1" d="M21.91,244.32A19.4,19.4,0,0,0,26.45,260H49.59l27.9-102.87-16.88-5.35S25.72,214.93,21.91,244.32Z"/><path class="cls-1" d="M159.68,244.32A19.4,19.4,0,0,1,155.14,260H132L104.1,157.16,121,151.81S155.87,214.93,159.68,244.32Z"/><path class="cls-2" d="M112.36,154.49l-19.54,1.85H89.35L69.8,154.49s-23.68,70.6-26.15,90.77c-.74,6.05.3,10.91,3,14.77h89c2.65-3.86,3.69-8.72,2.95-14.77C136,225.09,112.36,154.49,112.36,154.49Z"/><path class="cls-3" d="M45.53,235.38h91.11c-1-4.36-2.32-9.42-3.81-14.82H49.33C47.84,226,46.53,231,45.53,235.38Z"/><rect class="cls-1" x="102.2" y="163.11" width="2.47" height="27.52" transform="translate(-9.75 6.07) rotate(-3.21)"/><path class="cls-1" d="M109.14,192a4.48,4.48,0,1,1-4.47-4.48A4.48,4.48,0,0,1,109.14,192Z"/><rect class="cls-1" x="64.97" y="175.64" width="27.52" height="2.47" transform="translate(-102.28 245.56) rotate(-86.78)"/><path class="cls-1" d="M73,192a4.48,4.48,0,1,0,4.48-4.48A4.49,4.49,0,0,0,73,192Z"/><path class="cls-2" d="M163.47,41.46C146.87,17.61,117.76.94,92.44.08V0c-.23,0-.45,0-.68,0l-.68,0c-.22,0-.45,0-.68,0S90,0,89.72,0V.08c-25.31.86-54.42,17.53-71,41.38C3.46,63.35,0,92.05,0,106.89c0,31.44,39.56,30.41,88.37,30.41H93.8c48.8,0,88.36,1,88.36-30.41C182.16,92.05,178.7,63.35,163.47,41.46Z"/><polygon class="cls-4" points="164.59 126.42 17.57 126.42 17.57 72.77 94.13 46.01 164.59 72.77 164.59 126.42"/><path class="cls-5" d="M41.78,120.11S31.49,100.77,15.85,109s15.64,45.69,32.52,35S41.78,120.11,41.78,120.11Z"/><path class="cls-5" d="M140.38,120.11s10.29-19.34,25.93-11.11-15.64,45.69-32.52,35S140.38,120.11,140.38,120.11Z"/><path class="cls-6" d="M138.3,51.36,91.08,54.58,43.86,51.36,28.92,72.77s.88,51.87,11,68.75C49.55,157.64,74,166.23,90,166.61h2.2c15.95-.38,40.43-9,50.08-25.09,10.1-16.88,11-68.75,11-68.75Z"/><path class="cls-7" d="M106,149.07a8.36,8.36,0,0,1-2.38-.35,14.14,14.14,0,0,1-4.4-2.44c-1.86-1.36-3.32-2.43-5.85-1.89a9.32,9.32,0,0,0-3.36,1.9A16.82,16.82,0,0,1,87.4,148a9.11,9.11,0,0,1-9.11-.35,17.31,17.31,0,0,1-2-1.64c-1.21-1.09-2.17-1.95-3.86-2.05-2.42-.13-3.67.75-5.32,2.67A1.24,1.24,0,1,1,65.22,145c2-2.32,3.91-3.73,7.33-3.51,2.56.15,4,1.43,5.37,2.67a15.34,15.34,0,0,0,1.75,1.43,6.67,6.67,0,0,0,6.63.19,14.91,14.91,0,0,0,2.25-1.5A11.2,11.2,0,0,1,92.87,142c3.62-.77,5.85.87,7.83,2.32a12,12,0,0,0,3.64,2.06,6.44,6.44,0,0,0,5.2-.8,10,10,0,0,0,2.77-2.37c.52-.55,1-1.12,1.66-1.66a1.23,1.23,0,0,1,1.74.1,1.25,1.25,0,0,1-.1,1.75,18.87,18.87,0,0,0-1.48,1.49,12.42,12.42,0,0,1-3.45,2.88A9.9,9.9,0,0,1,106,149.07Z"/><polygon class="cls-4" points="20.48 90.88 65.77 60.42 43.12 89.23 87.74 66.18 75.65 83.88 111.05 62.89 101.58 85.53 135.75 65.77 124.34 84.3 141.92 73.18 140.28 87.18 161.69 64.12 129.58 35.72 63.71 35.72 32.42 48.07 20.48 90.88"/><path class="cls-2" d="M153.31,27.47,92.62,9.25V8.32l-1.54.46-1.54-.46v.93L28.86,27.47S-8.83,99.32,17.27,108.32A17.34,17.34,0,0,1,20,107.4c-.08-8,.8-44.46,23.54-52.15,20.07-6.78,75-6.78,95.12,0,22.75,7.69,23.63,44.13,23.54,52.16a16.39,16.39,0,0,1,2.72.91C191,99.33,153.31,27.47,153.31,27.47Z"/><polygon class="cls-4" points="109.96 94.17 109.26 101 138.02 99.82 134.95 92.73 109.96 94.17"/><polygon class="cls-4" points="69.08 94.17 69.78 101 41.02 99.82 44.1 92.73 69.08 94.17"/><path class="cls-7" d="M68.72,115.17h0l-21.92-.24a1.26,1.26,0,0,1-1.06-1.4c0-.77.57-1.43,1.07-1.38l21.93.23a1.28,1.28,0,0,1,1,1.41A1.26,1.26,0,0,1,68.72,115.17Z"/><path class="cls-7" d="M110.32,115.17h0l21.93-.24c.58,0,1.05-.63,1.05-1.4s-.56-1.43-1.07-1.38l-21.93.23a1.28,1.28,0,0,0-1,1.41A1.26,1.26,0,0,0,110.32,115.17Z"/><path class="cls-8" d="M100.38,125s-2.47-7.9-10.41-8.41-11.3,9.67-11.3,9.67,5-7.55,11.29-6.85A17.67,17.67,0,0,1,100.38,125Z"/></g></g></svg>