<svg xmlns="http://www.w3.org/2000/svg" viewBox="0 0 179.06 260"><defs><style>.cls-1{fill:#6b4627;}.cls-2{fill:#f2d0af;}.cls-3{fill:#393c3d;}.cls-4{fill:#e0dbd3;}.cls-5{fill:#515151;}.cls-6{fill:#ddb58e;}.cls-7{fill:#6fbc9f;}.cls-8{fill:#438970;}.cls-9{fill:#f4d3b0;}.cls-10{fill:#302f2d;}.cls-11{fill:#eae5dc;}.cls-12{fill:#6dbdc6;}.cls-13{fill:#c65044;}</style></defs><title>资源 257</title><g id="图层_2" data-name="图层 2"><g id="Layer_1" data-name="Layer 1"><path class="cls-1" d="M172.24,243.44c3.22-.67,9-11.15,4.58-9.63s-6.88-1-6.88-1c7.68-2.7,7.37-14.36,6.36-14.53s-1.68,3.84-6.36,2.87c-8.52-1.77.65-71.81,3-108a158.07,158.07,0,0,0,1.39-20.67C174.31,31,137.71,0,92.56,0H86.5C41.35,0,4.75,31,4.75,92.48a159.82,159.82,0,0,0,1.38,20.67c2.33,36.17,11.5,106.21,3,108-4.67,1-5.33-3-6.35-2.87s-1.33,11.83,6.35,14.53c0,0-2.5,2.54-6.88,1s1.37,9,4.59,9.63C4.7,246.57.3,244.29,0,246.15c-.18,1.13,1.63,8.08,9.59,13.85H169.46c7.95-5.77,9.76-12.72,9.59-13.85C178.76,244.29,174.35,246.57,172.24,243.44Z"/><path class="cls-2" d="M55,247.77l-11.83,3.72L45.79,260H59.51A86.77,86.77,0,0,0,55,247.77Z"/><path class="cls-3" d="M56.81,171.94s-27.63,42.69-27.38,51.14,13.69,30.51,13.69,30.51l15.75-3.81S46.08,222.4,46.13,220.37s16.71-26.11,16.71-26.11S64.93,167.38,56.81,171.94Z"/><path class="cls-4" d="M93.87,171.94H56.09S58.86,220.3,53.66,260h75.1c-5.21-39.7-2.44-88.06-2.44-88.06Z"/><path class="cls-5" d="M83.27,193.62c-1.32-7.47-3.85-14.48-6-21.68H56.09S58.86,220.3,53.66,260H86.72c.42-10.43.68-20.86.12-31.27A295.12,295.12,0,0,0,83.27,193.62Z"/><path class="cls-5" d="M106.17,171.94c-3,6.69-6.15,13.4-7.27,20.6-1.71,11-1.19,22.38-1,33.46.23,11.51,1,22.78,2.37,34h28.46c-5.21-39.7-2.44-88.06-2.44-88.06Z"/><path class="cls-6" d="M79.78,178.22c.54,7.47,5.45,13.33,11.43,13.33s10.9-5.86,11.45-13.33Z"/><path class="cls-7" d="M120.05,171.42l-10.59,5.76c8.45.51,4.4,51.39,5.92,64.07,1,8.26,3.5,15.09,6.2,18.75h7.48c.28-.43.56-.87.81-1.3a41.61,41.61,0,0,0,3.43-7.82s-3.38-62-4.05-70.82S120.05,171.42,120.05,171.42Z"/><path class="cls-8" d="M112.69,181.15a43.32,43.32,0,0,0,16.09-3.53c-1.9-6.3-8.73-6.2-8.73-6.2l-10.59,5.76C110.85,177.27,111.9,178.74,112.69,181.15Z"/><path class="cls-8" d="M143.91,247.54c-2.54.26-5.57-3.56-8.37-.51s-5.67,11.67-5.67,11.67.18.54.53,1.3h12.08c4-6,7.57-15.44,6-18.16C146.19,237.91,146.44,247.29,143.91,247.54Z"/><path class="cls-7" d="M127.86,152.67l-36.65,5.76-36.65-5.76s-8.29,4.23-6.77,9.81,11.33,5.58,11.33,5.58-6.43,2.53-5.25,6.08c.57,1.69,18.3,7.07,36.33,7.1,18.71,0,37.75-5.35,38.34-7.1,1.19-3.55-5.24-6.08-5.24-6.08s9.8,0,11.32-5.58S127.86,152.67,127.86,152.67Z"/><path class="cls-9" d="M30.72,107.53s-8.2-5.93-14.86,0c-6.4,5.7-2.12,35.31,24.41,32.13Z"/><path class="cls-9" d="M148.34,107.53s8.2-5.93,14.86,0c6.4,5.7,2.12,35.31-24.41,32.13Z"/><path class="cls-2" d="M152.39,118.85c0,35.7-28.14,48.42-62.86,48.42s-62.86-12.72-62.86-48.42c0-1.81.07-21.9.21-23.74C29.53,60.43,56.56,38,89.53,38s60,22.44,62.65,57.11C152.32,96.93,152.39,117,152.39,118.85Z"/><path class="cls-10" d="M152.32,104.18,124.18,124.9l1.2,1.63,27-19.84C152.33,105.84,152.33,105,152.32,104.18Z"/><path class="cls-10" d="M26.72,106.67l27.22,20,1.2-1.64-28.4-20.82C26.73,105,26.73,105.82,26.72,106.67Z"/><path class="cls-10" d="M64,129.67,62.84,128c.23-.16,23.48-15.89,53.25-1.27l-.89,1.83C86.5,114.45,64.21,129.52,64,129.67Z"/><ellipse class="cls-11" cx="116.41" cy="125.71" rx="10.65" ry="11.07"/><path class="cls-12" d="M109.46,134.09a10.39,10.39,0,0,0,7,2.69,10.86,10.86,0,0,0,10.65-11.07,11.29,11.29,0,0,0-2.33-6.89Z"/><path class="cls-12" d="M120.05,115.32a10.28,10.28,0,0,0-3.64-.68,10.87,10.87,0,0,0-10.65,11.07,11.49,11.49,0,0,0,.51,3.39Z"/><ellipse class="cls-11" cx="62.65" cy="125.71" rx="10.65" ry="11.07"/><path class="cls-12" d="M65.74,115.12a10.19,10.19,0,0,0-3.09-.48A10.87,10.87,0,0,0,52,125.71a11.59,11.59,0,0,0,.36,2.79Z"/><path class="cls-12" d="M55.32,133.72a10.4,10.4,0,0,0,7.33,3.06A10.86,10.86,0,0,0,73.3,125.71a11.3,11.3,0,0,0-2.66-7.31Z"/><path class="cls-1" d="M132.36,48.16C127.14,42,106.55,19.59,82.93,21.34c-27.38,2-62.88,30.93-60.85,67s11.15,45.57,11.15,45.57c-3-42.09,34.49-25.86,68-38C117.42,90,125.53,79,129.58,69.15c2.18,5.53,5.79,15.14,8.88,18.61,8.11,9.13,17,11.85,17,11.85S152.21,47.68,132.36,48.16Z"/><path class="cls-1" d="M135.49,101s-12.88-2.48-23.75-.64l.39-2.2c.47-2.7,4-4.78,11-5.2s11.23,1.7,11.78,4.81Z"/><path class="cls-13" d="M76.35,147.08s3.32-4.56,7.16-4.35a8.07,8.07,0,0,1,5.92,3.57s3.45-3.5,7.49-3.42,5.79,4.55,5.79,4.55-4,8.54-13.57,8.54S76.35,147.08,76.35,147.08Z"/></g></g></svg>