<svg xmlns="http://www.w3.org/2000/svg" viewBox="0 0 196.15 266.76"><defs><style>.cls-1{fill:#f9dab4;}.cls-2{fill:#f7cea6;}.cls-3{fill:#f2ac2f;}.cls-4{fill:#ffc55f;}.cls-5{fill:#eae5dc;}.cls-6{fill:#f9f7f2;}.cls-7{fill:#e5be9e;}.cls-8{fill:#c4987a;}.cls-9{fill:#3b3d3d;}.cls-10{fill:#fff;}.cls-11{fill:#e55420;}.cls-12{fill:#ef6535;}</style></defs><title>资源 41</title><g id="图层_2" data-name="图层 2"><g id="Layer_1" data-name="Layer 1"><path class="cls-1" d="M36.29,266.76H54.42L60,207.62l-18.35,0S38.42,246.37,36.29,266.76Z"/><path class="cls-2" d="M40.09,223.62h0s8.91-3.75,13.7-3.08,2.42,9.43,1.39,19.71c-.46,4.66-1.06,18-1.56,26.51h.8L60,207.62l-18.35,0S41,214.35,40.09,223.62Z"/><path class="cls-3" d="M69.86,165.28S37.7,179.36,33.47,219.85H73.26V165.28Z"/><path class="cls-4" d="M50.37,217.21s-10.18-.27-11.45-7.89,13.57-30.48,19.55-33.65,8.61-3,7.3,5.28-4.83,32.56-4.83,35.73C57.59,218.27,50.37,217.21,50.37,217.21Z"/><path class="cls-1" d="M173.64,266.76H155.51l-5.57-59.14,18.35,0S171.51,246.37,173.64,266.76Z"/><path class="cls-2" d="M169.84,223.62h0s-8.91-3.75-13.7-3.08-2.42,9.43-1.39,19.71c.46,4.66,1.06,18,1.56,26.51h-.8l-5.57-59.14,18.35,0S168.93,214.35,169.84,223.62Z"/><path class="cls-3" d="M140.07,165.28s32.16,14.08,36.39,54.57H136.67V165.28Z"/><path class="cls-4" d="M159.56,217.21s10.18-.27,11.45-7.89-13.57-30.48-19.55-33.65-8.61-3-7.3,5.28S149,213.51,149,216.68C152.34,218.27,159.56,217.21,159.56,217.21Z"/><path class="cls-4" d="M153.81,266.76c-1.86-18-9.13-83.4-19-108l-61.72.37s-14.85,64.36-15.89,107.6Z"/><path class="cls-3" d="M129.62,266.76h24.19c-.92-8.89-3.16-29.35-6.38-50.75a298.19,298.19,0,0,1,.32,32.34C147.1,259.92,139.29,264.8,129.62,266.76Z"/><path class="cls-3" d="M75.78,159.14l-2.65,0s-14.85,64.36-15.89,107.6H80.88c-9.61-1.8-17.34-7.18-17.34-23.12-.37-20.65,8.61-67.35,8.61-67.35Z"/><path class="cls-5" d="M104.65,189.86c-10.11,0-15.81-4.21-18.81-7.75-7.27-8.55-5.59-20.43-5.37-21.76l1-5.93h46.42l1,5.93c.22,1.33,1.9,13.21-5.37,21.76C120.46,185.65,114.76,189.86,104.65,189.86Z"/><path class="cls-2" d="M87.45,161.49s-3.47,21.3,17.2,21.3,17.2-21.3,17.2-21.3Z"/><path class="cls-1" d="M175.47,56.82,36.86,56.66s.68,23.58-1.2,38.68c-1.08,8.67-.48,16.17-.7,19.58-2.06,31.28,31.08,57,69.88,57.22s70.41-25,70.62-56.31a87.87,87.87,0,0,0-.49-10.38c-.27-2.65-.27-5.52-.42-8.78C173.91,82.57,175.47,56.82,175.47,56.82Z"/><path class="cls-6" d="M61.75,134.1a1.26,1.26,0,0,1-1.31,1.22l-4.28-.16a1.27,1.27,0,0,1-1.22-1.32h0a1.26,1.26,0,0,1,1.31-1.22l4.28.15a1.28,1.28,0,0,1,1.22,1.33Z"/><path class="cls-6" d="M153.89,134.69a1.26,1.26,0,0,1-1.31,1.22l-4.28-.16a1.26,1.26,0,0,1-1.22-1.31h0a1.27,1.27,0,0,1,1.31-1.23l4.28.16a1.27,1.27,0,0,1,1.22,1.32Z"/><path class="cls-1" d="M166.48,136a23.27,23.27,0,0,0,19.6-.26c10.29-5,15.36-25.68,2-30.62s-17.43,10.38-17.43,10.38Z"/><path class="cls-2" d="M172.68,129.73s4.23-22.63,14.13-14.81c6.08,4.8,2.47,11.51-3.17,14.25C180.1,130.9,175.5,131.05,172.68,129.73Z"/><path class="cls-7" d="M172.8,129.47l1.47-5.7s18.81-5.37,13.54,2.18S172.8,129.47,172.8,129.47Z"/><path class="cls-1" d="M42.53,134.71a23.29,23.29,0,0,1-19.6-.51c-10.22-5.16-15-25.88-1.64-30.65S38.6,114.16,38.6,114.16Z"/><path class="cls-2" d="M36.41,128.35s-3.94-22.68-13.94-15c-6.13,4.72-2.62,11.47,3,14.29C29,129.42,33.57,129.64,36.41,128.35Z"/><path class="cls-7" d="M36.29,128.09l-1.4-5.72s-18.74-5.61-13.56,2S36.29,128.09,36.29,128.09Z"/><path class="cls-8" d="M105.63,128.52a21.23,21.23,0,0,1-11.76-3.61,1.37,1.37,0,0,1,1.65-2.18c.38.29,9.35,6.86,20.24-.06a1.36,1.36,0,0,1,1.89.42,1.38,1.38,0,0,1-.42,1.89A21.41,21.41,0,0,1,105.63,128.52Z"/><path class="cls-9" d="M151.46,101.33a11.34,11.34,0,1,1-15.71-3.16A11.34,11.34,0,0,1,151.46,101.33Z"/><path class="cls-10" d="M143.77,98.68c1.12,1.69-.35,4.65-3.29,6.61s-6.24,2.17-7.37.48.35-4.65,3.3-6.61S142.65,97,143.77,98.68Z"/><path class="cls-9" d="M79.75,101A11.34,11.34,0,1,1,64,97.87,11.34,11.34,0,0,1,79.75,101Z"/><path class="cls-10" d="M72.06,98.38c1.12,1.69-.35,4.65-3.3,6.61s-6.24,2.17-7.36.47.35-4.64,3.29-6.6S70.93,96.69,72.06,98.38Z"/><path class="cls-11" d="M50.83,94.8,70,92.29a82.82,82.82,0,0,1,13.17-.53s-1.59-8.16-3-9.68S66.4,82.08,59,84,50.83,85.88,50.83,94.8Z"/><path class="cls-11" d="M160.35,94.8S145,92.61,141.16,92.29c-5.83-.49-13.18-.53-13.18-.53s1.6-8.16,3-9.68,13.8,0,21.23,1.9S160.35,85.88,160.35,94.8Z"/><path class="cls-8" d="M105.42,149.66c-16.51,0-27.07-2.23-27.51-2.33a1.37,1.37,0,0,1,.58-2.67,141.62,141.62,0,0,0,26.93,2.27,149.42,149.42,0,0,0,27.29-2.27,1.37,1.37,0,0,1,.56,2.68A149.75,149.75,0,0,1,105.42,149.66Z"/><path class="cls-12" d="M2.81,24.1S13.35-8.75,54.91,2.26c0,0-25.28,16.56-8.3,23.41S79.79,6.4,119.5,6.72s42.11,18.57,42.11,18.57,4.49-2,13,1.52c0,0,1.84,27.76,1.87,62.83a233.62,233.62,0,0,1-1,26.19c-1.54,14-5.76,22.23-5.76,22.23l-9.77.47a274.43,274.43,0,0,0,3.52-36.61c.58-20.29-.38-34.78-.38-34.78s-3.75-3.21-36.15,8.86c-12.76,3.93-55,37.9-102.57,11.64C24.35,87.64-9.85,68.21,2.81,24.1Z"/><path class="cls-12" d="M37.53,72.43l12.39-4.22s-2.21,12.65-3.07,35.93C46,128.08,50.7,140,50.7,140L40,138s-3.39-4.08-5.07-23c-.78-8.79.61-16.34,1-25.63C36.26,83.61,37.18,77.63,37.53,72.43Z"/><path class="cls-11" d="M142,50s0,17.35-11.53,24.7h0L126.92,76a57.39,57.39,0,0,0-8.08,3.71h0C135.68,70,142,50,142,50Z"/><path class="cls-11" d="M47,100.45c.06-1.5.14-3,.21-4.35h0a101.58,101.58,0,0,1-11.43-3.21h0c-.09,1.39-.21,2.75-.32,4.09C39.6,98.28,44,99.69,47,100.45Z"/></g></g></svg>