<svg xmlns="http://www.w3.org/2000/svg" viewBox="0 0 224.7 260.04"><defs><style>.cls-1{fill:#f2b955;}.cls-2{fill:#e2a442;}.cls-3{fill:#efc4a0;}.cls-4{fill:#2f3233;}.cls-5{fill:#db8c19;}.cls-6{fill:#f7cea6;}.cls-7{fill:#e2af86;}.cls-8{fill:#efc19c;}.cls-9{fill:#dd2626;}.cls-10{fill:#e0605c;}</style></defs><title>资源 125</title><g id="图层_2" data-name="图层 2"><g id="Layer_1" data-name="Layer 1"><path class="cls-1" d="M160.31,221.77c-2.26-10.39-5.82-40.5-22.54-53.62-17.6-13.81-25.14-10.64-30.27-9.33,0,0,5.47,30.66,18,38.45,3.29,2.45,12.64,43.63,16.83,62.77H168C165.52,247.52,161.78,228.56,160.31,221.77Z"/><path class="cls-2" d="M137.77,168.15c-17.6-13.81-25.14-10.64-30.27-9.33a125.05,125.05,0,0,0,3.76,14.66l15,24.81s-1.78-20.55,5-23.67c4.47-2.06,13.11,4.17,18.05,8.25A43.53,43.53,0,0,0,137.77,168.15Z"/><path class="cls-1" d="M10.54,221.77c2.25-10.39,5.81-40.5,22.54-53.62,17.59-13.81,25.13-10.64,30.27-9.33,0,0-5.48,30.66-18,38.45C42.09,199.72,32.74,240.9,28.54,260H2.87C5.32,247.52,9.07,228.56,10.54,221.77Z"/><path class="cls-2" d="M33.08,168.15c17.59-13.81,25.13-10.64,30.27-9.33a125.05,125.05,0,0,1-3.76,14.66L44,197.75s2.41-20-4.34-23.13c-4.46-2.06-13.1,4.17-18,8.25A43.29,43.29,0,0,1,33.08,168.15Z"/><path class="cls-1" d="M34.34,260h106c-7.25-39.35-21.76-94.6-29.66-104.67-26.54-9.13-53.54,1.11-53.54,1.11S38.38,199.31,34.34,260Z"/><path class="cls-2" d="M104,161c0,12.07-9.09,21.86-20.31,21.86S63.37,173,63.37,161s9.09-21.86,20.3-21.86S104,148.9,104,161Z"/><path class="cls-3" d="M100.76,159.42a17.09,17.09,0,1,1-17.09-17.1A17.09,17.09,0,0,1,100.76,159.42Z"/><path class="cls-4" d="M158.66,28s18.13-19,37.11,2.44,1.34,38.1,10.15,52.69,15,2.92,15-4.86c0,0,6.86,10.14,1.29,19.13a11.16,11.16,0,0,1-6.73,5.08s3.2.49,5.18-1a22.12,22.12,0,0,0,3.7-4,22.82,22.82,0,0,1,.14,6.94c-1.25,6.73-7.24,18.57-20.22,19.38s-36.62-10.86-43.94-42.32S158.66,28,158.66,28Z"/><path class="cls-5" d="M147.25,31.68c.81-1.73,5.92-3.68,7.61-4.84,3.2-2.2,5.72-2.61,8.86-.18a34,34,0,0,1,8.85,10.89,29.42,29.42,0,0,1,3.05,9.84c.42,3,1.28,7.06.23,10-1.24,3.46-5.17,3.8-8.19,4.83-1.26.43-6.56,2.79-7.78,1.86C159.87,64.09,139.59,48,147.25,31.68Z"/><path class="cls-4" d="M168.33,62.34c-5.09-23.4-24.15-43.81-47.75-54.47A85.94,85.94,0,0,0,85.34,0,93.19,93.19,0,0,0,60.53,3.69,91.76,91.76,0,0,0,50.6,7.11C30.81,15.31,16.78,32.33,7.27,49.76-4.26,70.9-2.09,99.49,13.83,118.63H154.34l4.06,0c5,0,11.33-25.08,11.74-28.61A85.2,85.2,0,0,0,168.33,62.34Z"/><path class="cls-6" d="M29.6,108.88s-4.08-8.54-12.43-7.54-9.37,19.45-4.48,26.39,20.37,17.66,30.55,13.89C35.7,128.52,29.6,108.88,29.6,108.88Z"/><path class="cls-7" d="M17.14,117.8v0a12.41,12.41,0,0,1,1.26-2.43A6,6,0,0,1,19.64,114a2.25,2.25,0,0,1,1.38-.54,2.5,2.5,0,0,1,1.54.62,9.27,9.27,0,0,1,2,2.47l.52-.31-.54.28s.06.1.14.27.32.63.48,1c.08.18.14.36.19.5l.05.17v0h.4l-.33-.2a.33.33,0,0,0-.07.2h.4l-.33-.2.45.27-.26-.45a.55.55,0,0,0-.19.18l.45.27-.26-.45.25.44V118a.53.53,0,0,0-.25.06l.25.44v-.16l.15-.32a.44.44,0,0,0-.15,0v.34l.15-.32h0a3.13,3.13,0,0,1-.44-.37,2.61,2.61,0,0,0-1.83-.74A4,4,0,0,0,21,118.33a5,5,0,0,0-1.31,3.39,5.61,5.61,0,0,0,.4,2.06.62.62,0,0,0,.79.34.6.6,0,0,0,.35-.77,4.61,4.61,0,0,1-.32-1.63,3.86,3.86,0,0,1,1-2.6,2.84,2.84,0,0,1,1.94-1,1.34,1.34,0,0,1,1,.39,4.61,4.61,0,0,0,.54.46,1.35,1.35,0,0,0,.26.15.83.83,0,0,0,.37.09.7.7,0,0,0,.33-.08.67.67,0,0,0,.33-.37.93.93,0,0,0,.05-.3,1.52,1.52,0,0,0-.06-.39,7.84,7.84,0,0,0-.55-1.37c-.21-.43-.39-.77-.4-.78h0a10.28,10.28,0,0,0-2.32-2.79,3.72,3.72,0,0,0-2.3-.88,3.55,3.55,0,0,0-2.25.88,8.88,8.88,0,0,0-2.07,2.7,13.37,13.37,0,0,0-.72,1.58.59.59,0,0,0,.38.76.61.61,0,0,0,.78-.37Z"/><path class="cls-4" d="M35.5,141.42A4.48,4.48,0,1,1,31,137.06,4.43,4.43,0,0,1,35.5,141.42Z"/><path class="cls-6" d="M140.43,108.88s4.07-8.54,12.42-7.54,9.37,19.45,4.48,26.39S137,145.39,126.78,141.62C134.32,128.52,140.43,108.88,140.43,108.88Z"/><path class="cls-7" d="M152.89,117.8l0,0a12.41,12.41,0,0,0-1.26-2.43,5.92,5.92,0,0,0-1.22-1.35,2.28,2.28,0,0,0-1.39-.54,2.46,2.46,0,0,0-1.53.62,8.9,8.9,0,0,0-2,2.47l-.53-.31.54.28s-.06.1-.14.27-.32.63-.48,1l-.19.5,0,.17v0h-.41l.34-.2a.35.35,0,0,1,.06.2h-.4l.34-.2-.45.27.25-.45a.51.51,0,0,1,.2.18l-.45.27.25-.45-.24.44V118a.5.5,0,0,1,.24.06l-.24.44v-.16l-.15-.32a.38.38,0,0,1,.15,0v.34l-.15-.32h0a3.59,3.59,0,0,0,.45-.37,2.58,2.58,0,0,1,1.83-.74,4,4,0,0,1,2.84,1.38,5,5,0,0,1,1.31,3.39,5.61,5.61,0,0,1-.4,2.06.62.62,0,0,1-.79.34.6.6,0,0,1-.35-.77,4.4,4.4,0,0,0,.32-1.63,3.81,3.81,0,0,0-1-2.6,2.82,2.82,0,0,0-1.93-1,1.36,1.36,0,0,0-1,.39,4.61,4.61,0,0,1-.54.46,1.1,1.1,0,0,1-.26.15.82.82,0,0,1-.36.09.73.73,0,0,1-.34-.08.72.72,0,0,1-.33-.37.93.93,0,0,1,0-.3,1.52,1.52,0,0,1,.06-.39,8.78,8.78,0,0,1,.56-1.37c.2-.43.39-.77.39-.78h0a10.47,10.47,0,0,1,2.32-2.79,3.74,3.74,0,0,1,2.3-.88,3.6,3.6,0,0,1,2.26.88,8.68,8.68,0,0,1,2.06,2.7,11.64,11.64,0,0,1,.72,1.58.6.6,0,0,1-.37.76.61.61,0,0,1-.78-.37Z"/><path class="cls-4" d="M134.52,141.42a4.48,4.48,0,1,0,4.48-4.36A4.43,4.43,0,0,0,134.52,141.42Z"/><path class="cls-6" d="M86,62.47C75.85,52.33,63.17,47.52,49.34,53.05A49.76,49.76,0,0,0,28.62,69c-6.17,8-4.93,17.07-4.93,26.55,0,39.57,27.26,71.66,60.9,71.66s60.9-32.09,60.9-71.66c0-7.78,0-16.22-3.15-23.51-3.27-7.57-11-13.91-18.44-17.49-4.33-2.09-10.63-3.85-15.52-3.1C100.67,52.64,91.9,57.61,86,62.47Z"/><path class="cls-4" d="M107.47,85s15.7-15.44,27.63.17c0,0,.51-4.07-5.15-8-6.11-4.21-15-2.9-20.12,2.25C106.24,83.09,107.47,85,107.47,85Z"/><path class="cls-4" d="M36.86,85s15.7-15.44,27.63.17c0,0,.51-4.07-5.15-8-6.11-4.21-15-2.9-20.12,2.25C35.63,83.09,36.86,85,36.86,85Z"/><path class="cls-4" d="M111.09,103l-.46,0,.45,0h0l-.46,0,.45,0a12.24,12.24,0,0,1,1.2-4.07,10.34,10.34,0,0,1,2.28-3.06,9.94,9.94,0,0,1,4.12-2.18,10.16,10.16,0,0,1,2.54-.34,8.14,8.14,0,0,1,3.78.9,9.84,9.84,0,0,1,4.07,4.09,12.65,12.65,0,0,1,1.53,6,1.31,1.31,0,0,0,2.62,0A14.82,14.82,0,0,0,130,95.09,11.86,11.86,0,0,0,126.21,92a10.87,10.87,0,0,0-5-1.19,12.77,12.77,0,0,0-3.23.43,12.47,12.47,0,0,0-5.27,2.83,13.36,13.36,0,0,0-3.6,5.72,13.67,13.67,0,0,0-.65,3.06,1.29,1.29,0,0,0,1.23,1.35A1.31,1.31,0,0,0,111.09,103Z"/><path class="cls-4" d="M137.34,99h0a14.7,14.7,0,0,1-1.59,2.5,9.6,9.6,0,0,1-1.65,1.66,4.38,4.38,0,0,1-1.92.9.86.86,0,0,0-.7,1,.87.87,0,0,0,1,.69,6.28,6.28,0,0,0,2.76-1.29,13,13,0,0,0,2.7-3,15,15,0,0,0,1-1.71.84.84,0,0,0-.43-1.13A.88.88,0,0,0,137.34,99Z"/><path class="cls-4" d="M135,95.17h0a12.15,12.15,0,0,1-1,2.15,7.36,7.36,0,0,1-1.1,1.49,3.47,3.47,0,0,1-1.36.9.83.83,0,0,0-.55,1.07.87.87,0,0,0,1.1.54,5.13,5.13,0,0,0,2.12-1.39,10.23,10.23,0,0,0,1.84-2.79,13.69,13.69,0,0,0,.59-1.49.84.84,0,0,0-.59-1.06A.86.86,0,0,0,135,95.17Z"/><path class="cls-4" d="M65.69,102.85A14.46,14.46,0,0,0,64.3,98a12.92,12.92,0,0,0-2.86-3.88,12.47,12.47,0,0,0-5.27-2.83,12.77,12.77,0,0,0-3.23-.43A10.87,10.87,0,0,0,48,92a12.32,12.32,0,0,0-5.17,5.14,15.15,15.15,0,0,0-1.84,7.24,1.31,1.31,0,0,0,2.62,0,12.3,12.3,0,0,1,2.65-7.7,9.22,9.22,0,0,1,2.95-2.42,8.14,8.14,0,0,1,3.78-.9,10.3,10.3,0,0,1,2.55.34,9.76,9.76,0,0,1,4.16,2.23,10.8,10.8,0,0,1,2.89,4.64,12.46,12.46,0,0,1,.45,1.78c0,.22.06.39.07.51V103h0a1.31,1.31,0,0,0,1.39,1.19A1.29,1.29,0,0,0,65.69,102.85Z"/><path class="cls-4" d="M35.24,99.74a15.6,15.6,0,0,0,1.7,2.71,11.5,11.5,0,0,0,2,2,6.28,6.28,0,0,0,2.76,1.29.87.87,0,0,0,1-.69.86.86,0,0,0-.7-1,4.45,4.45,0,0,1-2-.94,11.31,11.31,0,0,1-2.32-2.63c-.28-.43-.5-.81-.65-1.08l-.17-.32,0-.08v0a.88.88,0,0,0-1.15-.42A.84.84,0,0,0,35.24,99.74Z"/><path class="cls-4" d="M37.48,95.66a12.72,12.72,0,0,0,1.05,2.39,9.82,9.82,0,0,0,1.37,1.89A5.23,5.23,0,0,0,42,101.33a.87.87,0,0,0,1.1-.54.83.83,0,0,0-.55-1.07,3.5,3.5,0,0,1-1.4-.94,8.87,8.87,0,0,1-1.52-2.33c-.17-.37-.3-.7-.39-.93l-.09-.26,0-.07v0a.86.86,0,0,0-1.08-.57A.84.84,0,0,0,37.48,95.66Z"/><path class="cls-8" d="M91.39,115.43a1.21,1.21,0,0,1,.91,1.44h0a12.09,12.09,0,0,1-1.56,3.41h0a7,7,0,0,1-6.35,3.3H84.2a8.72,8.72,0,0,1-6.12-3.16h0a8.42,8.42,0,0,1-1.54-2.78h0a1.2,1.2,0,0,1,.85-1.47h0a1.24,1.24,0,0,1,1.51.83h0a.5.5,0,0,0,0,.12h0a2.89,2.89,0,0,0,.18.43h0a6.58,6.58,0,0,0,.87,1.38h0a6.2,6.2,0,0,0,4.45,2.28h.11a4.34,4.34,0,0,0,3.8-1.77h0a9.15,9.15,0,0,0,1.51-2.92h0l.06-.2h0a1.22,1.22,0,0,1,1.27-.92h0l.2,0Z"/><path class="cls-9" d="M96.34,137.11a5.19,5.19,0,0,0-1.86-.82c-2.88-.88-3.62-3.43-5.64-2.82s-3.5,3.7-5.38,2.16-2.77-2.6-5.2-.66c-2,1.61-5.21,1-5.76,1.83a.67.67,0,0,0,0,.55c0,.05,0,.11.06.18a45.64,45.64,0,0,0,23.72,0,.4.4,0,0,0,.11-.06C96.44,137.41,96.53,137.29,96.34,137.11Z"/><path class="cls-10" d="M84.75,143a11.79,11.79,0,0,1,9.15,3.85,15.19,15.19,0,0,0,2.49-8.43c0-.32,0-.63,0-.94a.4.4,0,0,1-.11.06,45.64,45.64,0,0,1-23.72,0c0-.07,0-.13-.06-.18,0,.35,0,.7,0,1.06a15.22,15.22,0,0,0,2.81,8.92C77,144.75,80.58,143,84.75,143Z"/><path class="cls-9" d="M84.4,152.27a11.47,11.47,0,0,0,9.5-5.43A11.79,11.79,0,0,0,84.75,143c-4.17,0-7.76,1.76-9.52,4.34A11.39,11.39,0,0,0,84.4,152.27Z"/></g></g></svg>