<svg xmlns="http://www.w3.org/2000/svg" viewBox="0 0 192.05 259.31"><defs><style>.cls-1{fill:#f9dab4;}.cls-2{fill:#efc4a0;}.cls-3{fill:#408e49;}.cls-4{fill:#357c39;}.cls-5{fill:#7f5732;}.cls-6{fill:#f4d3b0;}.cls-7{fill:#3a332d;}.cls-8{fill:#e8dfd9;}</style></defs><title>资源 291</title><g id="图层_2" data-name="图层 2"><g id="Layer_1" data-name="Layer 1"><path class="cls-1" d="M150.14,128.61s-9.33-17.89-9.22-20.14,2.6-4.38,2.6-4.38-18-15.92-12-20.86c2.46-2,3.72-.92,3.72-.92s-2.17-3.71,1.12-5.88c3.84-2.54,6.09.49,6.09.49a3.68,3.68,0,0,1,2.45-2.87c3.64-1.19,11.42,2.45,20.45,15s11.41,23.53,12,31.44Z"/><path class="cls-2" d="M145.41,93.2,135.2,82.31l-.16-.1a2.53,2.53,0,0,0-2.59.34C134.54,82.3,145.41,93.2,145.41,93.2Z"/><path class="cls-2" d="M138.37,75.52c3.73,2.48,13.14,11,13.14,11-1.06-1.93-9.1-9.58-9.1-9.58A4.07,4.07,0,0,0,138.37,75.52Z"/><path class="cls-2" d="M151.65,110.74s9.39-6.07,5.26-11.14c-5-6.13-13,1.41-14.79,3.19.86.82,1.4,1.3,1.4,1.3s7.71-8.06,11.35-3.44S151.65,110.74,151.65,110.74Z"/><path class="cls-3" d="M73.87,159H48v9.71s-17.1,5.37-36.15,90.56H119.2c-2.21-26.56-7.68-59-19.45-90.56V159Z"/><path class="cls-3" d="M95,170.31l63.32-2.77L145.46,124.4l33-7.39s15.83,67.55,13.26,73.88-88.66,12.27-88.66,12.27Z"/><rect class="cls-4" x="72.09" y="162.44" width="3.54" height="96.87"/><polygon class="cls-4" points="29.92 259.31 40.42 196.33 26.52 259.31 29.92 259.31"/><path class="cls-4" d="M191.77,190.89c.73-1.81,0-8.65-1.52-17.48-.59,1.54-.7,2.94-1.85,3.12-2.49.41-5.92-7.16-10.49.53s2.91,10.19,6.85,12.16c1.24.62,2.15,2.12,2.84,3.9C190,192.39,191.46,191.64,191.77,190.89Z"/><path class="cls-4" d="M40.42,196.33s2.66-3,5.5.89S42.55,207.5,48.22,210s8.33,5,5.68,9.6-8.51,3.69-5.14,9.19c1.9,3.11,6.73,14.53-4.08,14.89S33,240.83,33,240.83Z"/><path class="cls-4" d="M98.91,199.17c5,5.49,5.53,15.48,2,17-4.15,1.79-6.25-.07-6.9-2.72-.58-2.4.26-5.45-2.31-7-5.25-3.21-4.22,6.83-9.57,2.48-5.68-4.61-1.13-12.31,2.83-13.7C88.7,193.9,94,193.68,98.91,199.17Z"/><path class="cls-4" d="M110.44,258.13c-4.35-1.56,2.5-12.9-7.28-13.41-8.71-.46-3.55,11.13-10.2,11.59s1.44-9.89-9.51-8.63c-5.21.6-5.82,5.64-4.6,11.63h38C114.92,256.8,112.44,258.85,110.44,258.13Z"/><path class="cls-4" d="M131.87,184.44c8,3.22,5.65-6.13,13.09-6.13,7.17,0,3,9.35,12.58,6.76,9.18-2.5,3.59-13,.64-17.52l-28.63,1.25C128,173.76,126.31,182.2,131.87,184.44Z"/><path class="cls-4" d="M27.52,228.86a6.79,6.79,0,0,0-6.11-6.79c-1.94,6.46-3.93,13.7-5.95,21.82a6.11,6.11,0,0,0,8.07-8.81A6.83,6.83,0,0,0,27.52,228.86Z"/><path class="cls-5" d="M13.12,101.16s-24.52-94,60.75-94,61.24,94,61.24,94Z"/><path class="cls-6" d="M26.36,101.62s-5-8.65-12.78-6.08C4.9,98.42,4.66,136.31,25.35,139Z"/><path class="cls-6" d="M121.72,101.62s5-8.65,12.78-6.08c8.68,2.88,8.92,40.77-11.77,43.41Z"/><path class="cls-1" d="M126.3,140.85a19.09,19.09,0,0,1-12.61,18,119.45,119.45,0,0,1-39.82,7.27A119.46,119.46,0,0,1,34,158.8a19.09,19.09,0,0,1-12.6-18V70.61H126.3Z"/><path class="cls-2" d="M71.53,142.72c-16.14,0-25.05-2.37-25.6-2.52a1.17,1.17,0,0,1-.82-1.45,1.18,1.18,0,0,1,1.45-.83c.24.07,20.41,5.38,55,0a1.18,1.18,0,1,1,.36,2.33A196.75,196.75,0,0,1,71.53,142.72Z"/><path class="cls-2" d="M74.34,153.05a28.36,28.36,0,0,1-9.56-1.56,1.18,1.18,0,0,1,.87-2.2h0a28,28,0,0,0,17.42,0,1.17,1.17,0,0,1,1.49.74,1.18,1.18,0,0,1-.74,1.5A29.73,29.73,0,0,1,74.34,153.05Z"/><path class="cls-2" d="M73.94,120.36c-5.4-.14-9.92,5-9.92,5s5.87-2.42,9.92-2.48,9.91,2.48,9.91,2.48S79.34,120.49,73.94,120.36Z"/><path class="cls-7" d="M49,109.35a6.75,6.75,0,1,1-6.75-6.76A6.75,6.75,0,0,1,49,109.35Z"/><path class="cls-8" d="M43.39,104.64c.16.82-.84,1.71-2.25,2s-2.69-.15-2.85-1,.84-1.71,2.25-2S43.23,103.83,43.39,104.64Z"/><rect class="cls-5" x="28.5" y="92.22" width="21.93" height="5.57" rx="2.36"/><path class="cls-7" d="M99.9,109.35a6.76,6.76,0,1,0,6.76-6.76A6.76,6.76,0,0,0,99.9,109.35Z"/><path class="cls-8" d="M105.54,104.64c-.17.82.84,1.71,2.25,2s2.69-.15,2.85-1-.84-1.71-2.25-2S105.7,103.83,105.54,104.64Z"/><rect class="cls-5" x="98.5" y="92.22" width="21.93" height="5.57" rx="2.36"/><path class="cls-5" d="M18.88,67.52s4.89,18,30,21.07c0,0-5.81-2.73-6.15-10.53,0,0,8,9.74,21,10.53,0,0-6.27-4-6.61-9.56a39.44,39.44,0,0,0,27.11,11s-7.41-3-5.81-10c0,0,12.53,10.25,28.47,9,0,0-5.47-3.3-5.47-8.09,0,0,11.51,6.84,18.8,7.18,0,0-4.22-4.44-3.19-7.86,0,0,5.69,7.29,13.21,7.17V67.52Z"/><path class="cls-3" d="M146.83,65.84a3.35,3.35,0,0,0-2.6-1.31c-4.58-.15-4.43-2.8-4.87-6.35S137.29,0,73.87,0,8.81,54.64,8.37,58.18s-.29,6.2-4.87,6.35A3.35,3.35,0,0,0,.9,65.84a4.14,4.14,0,0,0,3.29,6.67H143.54A4.13,4.13,0,0,0,146.83,65.84Z"/><path class="cls-4" d="M12.24,39.12A11.82,11.82,0,0,0,32.8,44.64a10.48,10.48,0,0,1,8.43-3.58,11.71,11.71,0,0,0,1.45,0A12.41,12.41,0,0,0,54.21,29.68a12,12,0,0,0-.13-3.06,8.75,8.75,0,0,1,1.89-7A12.07,12.07,0,0,0,53.53,2.2C28,8.2,17.05,25.34,12.24,39.12Z"/><path class="cls-4" d="M61.19,61.57H61.1A10.67,10.67,0,0,1,54.9,59,11.25,11.25,0,0,0,37.46,72.51H67.31a7.49,7.49,0,0,0,.75-4.22A7.6,7.6,0,0,0,61.19,61.57Z"/><path class="cls-4" d="M128,81.51h0C128,81.64,128,81.63,128,81.51Z"/><path class="cls-4" d="M145.8,65a3.39,3.39,0,0,0-1.57-.43c-4.58-.15-4.43-2.8-4.87-6.35-.05-.35-.1-1.22-.23-2.49a8.35,8.35,0,0,0-1.74-.18A8.48,8.48,0,0,0,128.91,64h0a1.27,1.27,0,0,1-1.27,1.27h-2A1.26,1.26,0,0,1,124.42,64V58.73a9.14,9.14,0,0,0-8.85-9.2,8.93,8.93,0,0,0-4.13.91,4.25,4.25,0,0,1-4.56-.51,11.24,11.24,0,0,0-15.62,1.28,10.18,10.18,0,0,1-7.2,3.5h-.14A12.64,12.64,0,0,0,73.13,72.51h67.43A10.74,10.74,0,0,0,145.8,65Z"/><path class="cls-4" d="M102.16,19.7h0l0,0c-.27-.12-.55-.23-.83-.33A38.1,38.1,0,0,0,87.24,17a7.53,7.53,0,0,0-.85,15,7,7,0,0,0,1.29,0,4.31,4.31,0,0,1,3.61,1.57A9.06,9.06,0,1,0,102.16,19.7Z"/><path class="cls-4" d="M125.11,34.23a1.62,1.62,0,0,1,1.19,1.57h0a7.5,7.5,0,0,0,10.34,6.94c-2.47-8.56-7.26-19.11-16.72-27.59a11.5,11.5,0,0,0,5.19,19.07Z"/></g></g></svg>