<svg xmlns="http://www.w3.org/2000/svg" viewBox="0 0 173.33 260.24"><defs><style>.cls-1{fill:#4e9b7b;}.cls-2{fill:#448c6b;}.cls-3{fill:#408465;}.cls-4{fill:#2f3233;}.cls-5{fill:#f9dab4;}.cls-6{fill:#44302c;}.cls-7{fill:#f9f5ed;}.cls-8{fill:#f7cea6;}.cls-9{fill:#f9f7f2;}.cls-10{fill:#e5be9e;}</style></defs><title>资源 147</title><g id="图层_2" data-name="图层 2"><g id="Layer_1" data-name="Layer 1"><path class="cls-1" d="M165.08,217.22c-14.85-32.82-32.76-46.26-43-50.13l4.28,57.67c12.36,13.42,12.59,27.3,15.48,35.48h31.52C172.31,251.34,169.16,226.25,165.08,217.22Z"/><path class="cls-2" d="M154.51,197.58c-12.09-18.84-24.55-27.51-32.46-30.49l4.28,57.67a51,51,0,0,1,11.33,19.84c1.18-10.82,1.82-23,2-28.57C140,200.58,154.5,197.58,154.51,197.58Z"/><path class="cls-1" d="M16.46,217.22c14.85-32.82,32.76-46.26,43-50.13l-4.29,57.67c-12.35,13.42-12.59,27.3-15.48,35.48H8.21C9.23,251.34,12.38,226.25,16.46,217.22Z"/><path class="cls-2" d="M27,197.58c12.09-18.84,24.54-27.51,32.46-30.49l-4.29,57.67A51.13,51.13,0,0,0,43.88,244.6c-1.17-10.82-1.81-23-1.94-28.57C41.57,200.58,27,197.58,27,197.58Z"/><path class="cls-1" d="M56.5,166.84s-7.91,10.92-7.91,45.2c0,13.69-.54,30.93-1.36,48.2h89.33c-.19-2.05-.38-3.94-.57-5.63-3.39-29.38-8.86-90.69-15.36-90.69C97.18,169.1,56.5,166.84,56.5,166.84Z"/><path class="cls-3" d="M55,169.85s31.65,13.56,67.06-4.52c0-8.29-2.26-17.33-9-12.81s-37.3,7.54-48.22,4.52C56.12,154.78,53.86,154,55,169.85Z"/><path class="cls-4" d="M160.8,78.05c0,43.11-36,78.06-80.4,78.06S0,121.16,0,78.05,36,0,80.4,0,160.8,35,160.8,78.05Z"/><path class="cls-5" d="M147.79,103.54A63.79,63.79,0,1,1,84,39.75,63.79,63.79,0,0,1,147.79,103.54Z"/><path class="cls-6" d="M41.73,120.55l.28.18a11.51,11.51,0,0,0,7.22,1.19c4.56-.48,10.94-2.27,12.61-7.7,1.54-5-4.1-4.26-6.31-2.43s-4.62,3.75-7.38,3.64c-2.21-.09-5.33-2.31-7.29-.63S39.86,119.25,41.73,120.55Z"/><path class="cls-7" d="M56.8,113c-.15.67.62,1.33,1.74,1.47s2.13-.26,2.28-.93-.63-1.32-1.74-1.47S57,112.3,56.8,113Z"/><path class="cls-6" d="M35.09,121.35a.76.76,0,0,1-.44-1h0a.76.76,0,0,1,1-.44h0a3.88,3.88,0,0,0,1.31.22h0a8.14,8.14,0,0,0,4-1.34h0l.35-.24h0a.77.77,0,0,1,1.08.15h0a.77.77,0,0,1-.16,1.07h0a9.86,9.86,0,0,1-5.23,1.89h0a5.16,5.16,0,0,1-1.83-.32Z"/><path class="cls-6" d="M40,123.85a.77.77,0,0,1,.61-.9h0c1.84-.31,3.27-2.44,3.81-3.54h0c.18-.36.26-.57.26-.57h0a.77.77,0,0,1,1-.44h0a.78.78,0,0,1,.44,1h0c-.07,0-1.56,4.26-5.21,5h-.15a.76.76,0,0,1-.75-.62Z"/><path class="cls-6" d="M102.6,108.35l.29.17a11.45,11.45,0,0,0,7.26.84c4.54-.69,10.83-2.78,12.24-8.28C123.69,96,118.1,97,116,99s-4.43,4-7.2,4c-2.21,0-5.43-2.05-7.31-.28S100.67,107.14,102.6,108.35Z"/><path class="cls-7" d="M117.29,100.07c-.12.67.69,1.3,1.81,1.39s2.12-.36,2.24-1-.69-1.29-1.81-1.39S117.41,99.4,117.29,100.07Z"/><path class="cls-6" d="M96,109.46a.76.76,0,0,1-.49-1h0a.76.76,0,0,1,1-.49h0a3.83,3.83,0,0,0,1.31.16h0a8.13,8.13,0,0,0,3.9-1.53h0l.34-.26h0a.76.76,0,0,1,1.08.11h0a.76.76,0,0,1-.11,1.07h0a10,10,0,0,1-5.14,2.14h0a5.16,5.16,0,0,1-1.85-.24Z"/><path class="cls-6" d="M101.07,111.73a.77.77,0,0,1,.56-.93h0c1.83-.39,3.16-2.6,3.64-3.71h0c.16-.37.24-.58.24-.58h0a.76.76,0,0,1,1-.48h0a.77.77,0,0,1,.48,1h0c-.07,0-1.36,4.33-5,5.29h0l-.14,0h0a.76.76,0,0,1-.78-.58Z"/><path class="cls-8" d="M78.37,112.79c-.72,3.45-.58,7-.89,10.44s-2.32,7.8-.27,11.16c1.84,3,5.54,3.51,8.81,3,8.86-1.38,12.08-5.77,7.82-13.88C92,120,81.19,99.4,78.37,112.79Z"/><path class="cls-5" d="M79,111.57c-.58,3.08-.44,6.23-.68,9.35s-1.86,7-.15,10c1.54,2.72,4.58,3.18,7.28,2.74,7.29-1.17,9.91-5.08,6.35-12.38C90.23,118.1,81.22,99.59,79,111.57Z"/><path class="cls-9" d="M84.8,133c.19.43,1.2.42,2.26,0s1.76-1.16,1.57-1.6-1.2-.42-2.26,0S84.61,132.51,84.8,133Z"/><path class="cls-8" d="M79.45,155.57a1.16,1.16,0,0,1,.37-1.59h0s19.49-12.24,28.91-15.79h0a1.15,1.15,0,0,1,1.48.67h0a1.15,1.15,0,0,1-.67,1.48h0c-4.45,1.66-11.63,5.58-17.63,9.06h0c-6,3.48-10.86,6.52-10.87,6.53h0a1.14,1.14,0,0,1-.61.18h0a1.16,1.16,0,0,1-1-.54Z"/><path class="cls-8" d="M21.35,115.51c0-1.43.71-32.13,13.91-42.84V62.42a63.67,63.67,0,0,0-13.9,53.09Z"/><path class="cls-8" d="M84,39.75a63.49,63.49,0,0,0-34.24,10C48.06,57.09,47,69,54.21,78.6c11.29,15.12,26.58,10.22,29.47.77C85,74.2,80.52,67.79,73.59,70c0,0,5.62,5.7,3.3,8S66.65,75.18,68,62.35,81.58,38.22,100.52,45.3,138,67.47,142.79,88.13c4.48,19.37,3.61,23.81,3.48,24.3.09-.3.64-2.2,1.37-4.74.09-1.37.15-2.75.15-4.15A63.79,63.79,0,0,0,84,39.75Z"/><path class="cls-4" d="M91.14,40.15S71.63,38.6,67,54.68,69.46,85.37,77.17,79C82.34,74.71,73.62,70,73.59,70A11.53,11.53,0,0,1,77,68.7c3.35-1,6.75-1,9.62,1.21a8.15,8.15,0,0,1,2.33,2.76,11.06,11.06,0,0,1,.79,7.91A18.93,18.93,0,0,1,87.78,85c-3.53,6-10.43,9-17,10.12-6.88,1.18-14.47,1.61-21.2-.56-3.82-1.24-8.31-3.67-11-6.74-4.5-5.1-5.53-12.94-5.75-19.48,0-1,0-1.9,0-2.85C32.81,65.48,37.94,18.35,91.14,40.15Z"/><path class="cls-5" d="M146,103.17s11.17-8.73,17.47,3.3-8.47,29.62-21.08,15.79Z"/><path class="cls-10" d="M148.7,118.69s1.52-12.34,6.17-11.47S158.74,120.59,148.7,118.69Z"/><path class="cls-8" d="M154.87,107.22a3.55,3.55,0,0,1,2.55,3c-2.61,2-6.62,5.23-8.69,8.29C149,116.81,150.59,106.42,154.87,107.22Z"/><path class="cls-5" d="M25.09,115.41s-11.17-8.73-17.47,3.31,8.47,29.61,21.08,15.79Z"/><path class="cls-10" d="M22.36,130.94s-1.51-12.35-6.16-11.47S12.33,132.84,22.36,130.94Z"/><path class="cls-8" d="M16.2,119.47a3.55,3.55,0,0,0-2.55,3c2.6,2,6.62,5.23,8.68,8.29C22.1,129.06,20.48,118.66,16.2,119.47Z"/></g></g></svg>