<svg xmlns="http://www.w3.org/2000/svg" viewBox="0 0 191.21 259.28"><defs><style>.cls-1{fill:#6b4627;}.cls-2{fill:#ea9d49;}.cls-3{fill:#f2d0af;}.cls-4{fill:#54a3b5;}.cls-5{fill:#e5c4a5;}.cls-6{fill:#eae5dc;}.cls-7{fill:#3d868e;}.cls-8{fill:#4c3626;}.cls-9{fill:#f4d3b0;}.cls-10{fill:#c65044;}.cls-11{fill:#ddb58e;}.cls-12{fill:#3f3e3d;}.cls-13{fill:#3a332d;}.cls-14{fill:#e8dfd9;}</style></defs><title>资源 246</title><g id="图层_2" data-name="图层 2"><g id="Layer_1" data-name="Layer 1"><path class="cls-1" d="M149.26,204.35s7.64-5.49,17,1.3,7.07,28.86,13.58,33.1,11.31-4.81,11.31-4.81,2.27,19.8-17.82,23.76-34.26-7.37-32.69-46.68Z"/><path class="cls-2" d="M133.33,207.16s3.2,9.24,9.8,6.79,18.86-13.2,3.4-19.62Z"/><path class="cls-1" d="M28.62,116.2S16.6,91.55,22,51.14C26.91,14.67,67.66-3.67,108.21.61c27.68,2.92,71.07,33.55,67.52,98.4C173.45,140.45,162,144.7,154,165.75c-6.91,18.22,1.78,59-45.18,34.07S28.62,116.2,28.62,116.2Z"/><path class="cls-3" d="M72.19,162.08s-7.27-2.19-9.81,1.75-11.13,45.35-11.13,45.35l-15.5-19.39-7.3-1.58-3.4,6.56s17.51,30.53,24.08,32.66,14.11-4.68,18-14.65S72.19,162.08,72.19,162.08Z"/><path class="cls-4" d="M29.84,202.77c-2.19-3.55-3.84-6.36-4.49-7.47,4.57-.2,9.13-1.53,10.74-5.09l4.18,5.23a12.9,12.9,0,0,1-3.79,5.3A14,14,0,0,1,29.84,202.77Z"/><path class="cls-3" d="M30.1,189.79s8.81,3.36,11.41,0,.65-6.61,1.78-8.56,9.73-9.92,5.52-12.58-8.76.92-11.68,7.16c0,0-3.89-19.23-8.11-19.23s-7.13,2.55-5.51,13.2c0,0-7.79-9.49-14.11-6S13,176.37,13,176.37,1.78,171.83.15,180.1s10.06,5.71,11.19,6.75c.76.68,3.56,7.81,8.05,9.33,2.3.78,5,.07,8.17-3.73C27.56,192.45,28.45,188.21,30.1,189.79Z"/><path class="cls-5" d="M17.18,182.61c.58-.72,1.2-1.42,1.84-2.1a23.25,23.25,0,0,1,2.1-1.86,20.41,20.41,0,0,1,2.34-1.58A24.29,24.29,0,0,1,26,175.79a20.28,20.28,0,0,1,2.74-.87,15,15,0,0,1,2.84-.46,14.69,14.69,0,0,1,2.89,0c.48.05,1,.11,1.44.2l.73.16c.06-.14.12-.29.17-.43.2.88.31,1.41.31,1.41a24,24,0,0,1,1.43-2.62c-.22,1-.43,1.91-.67,2.85l-.17.69-.84-.16c-.36-.07-.81-.16-1.23-.2s-.86-.08-1.29-.1a18.78,18.78,0,0,0-2.6.1,9.53,9.53,0,0,0-1.29.18,11.27,11.27,0,0,0-1.29.24c-.86.16-1.68.47-2.53.7s-1.65.61-2.45,1-1.59.79-2.39,1.2-1.53.94-2.34,1.38S18,182.12,17.18,182.61Z"/><path class="cls-3" d="M135.46,250.37c-2.63-23.87-6.62-69.76-10.69-81.61-5.22-15.19-15.84-4.95-15.84-4.95l14.42,95.47h14.32A40.73,40.73,0,0,1,135.46,250.37Z"/><path class="cls-6" d="M119.43,192.39c-2.43-15.61-5.18-28.31-8.12-35.52L91.46,155v-.1l-.57.06-.57-.06v.1l-19.86,1.84c-2.93,7.21-5.68,19.91-8.11,35.52Z"/><path class="cls-4" d="M90.89,186.1c-3-5.4-7.68-9.53-13-9.53-8.18,0-14.93,9.59-16,18.73-2.84,18.87-5.24,41.6-7,64H127c-1.77-22.38-4.16-45.11-7-64-1.11-9.14-7.86-18.73-16-18.73C98.57,176.57,93.84,180.7,90.89,186.1Z"/><rect class="cls-7" x="65.14" y="244.58" width="5.09" height="14.7"/><path class="cls-7" d="M56.07,244.58c-.45,4.89-.86,9.8-1.24,14.7h1.54v-14.7Z"/><rect class="cls-7" x="58.63" y="244.58" width="4.24" height="14.7"/><rect class="cls-7" x="72.49" y="244.58" width="3.96" height="14.7"/><rect class="cls-7" x="78.71" y="244.58" width="4.81" height="14.7"/><rect class="cls-7" x="85.79" y="244.58" width="4.53" height="14.7"/><rect class="cls-7" x="92.58" y="244.58" width="5.09" height="14.7"/><rect class="cls-7" x="99.93" y="244.58" width="5.66" height="14.7"/><rect class="cls-7" x="107.85" y="244.58" width="4.81" height="14.7"/><rect class="cls-7" x="114.93" y="244.58" width="4.81" height="14.7"/><path class="cls-7" d="M122,244.58v14.7h5c-.39-4.9-.8-9.81-1.24-14.7Z"/><path class="cls-8" d="M153.09,82.08c-.8-6.46-8.27-17.34-8.27-17.34l-4.06,48.44s8.51.62,10.32.61c0,0,2.12-.48,2.12-.48S153.78,87.6,153.09,82.08Z"/><path class="cls-9" d="M41.6,106.4s-7.7-5.7-13.72-1.87c-7.56,4.82,1.39,26,10.48,35.92Z"/><path class="cls-9" d="M142.06,106.4s7.69-5.7,13.71-1.87c7.56,4.82-1.38,26-10.47,35.92Z"/><path class="cls-3" d="M38.35,56.17v84.28s15.54,25.3,53.48,25.3,53.47-25.3,53.47-25.3V56.17Z"/><path class="cls-10" d="M78.36,143.45s3.4-5.29,7.34-5,6.07,4.15,6.07,4.15,3.53-4.07,7.67-4,5.93,5.29,5.93,5.29-4.1,9.91-13.91,9.91S78.36,143.45,78.36,143.45Z"/><path class="cls-11" d="M85.1,126.94s.68-6.25,6.51-6.28,7,6.28,7,6.28-3.19-3.85-6.92-3.85S85.1,126.94,85.1,126.94Z"/><path class="cls-12" d="M135.14,93.58s-11.33-2.19-20.91-.57l.34-1.94c.42-2.37,3.5-4.2,9.7-4.58s9.89,1.5,10.37,4.24Z"/><path class="cls-13" d="M120.91,111.7a1.23,1.23,0,0,1-.11-2.46c.08,0,8.5-.84,11.8-2.84a1.23,1.23,0,1,1,1.28,2.11c-3.78,2.29-12.48,3.15-12.85,3.18Z"/><path class="cls-13" d="M122.23,109h-.18a1.25,1.25,0,0,1-1.22-1.25,1.23,1.23,0,0,1,1.23-1.22h.16c6.21,0,9.9-5.06,9.93-5.11a1.23,1.23,0,1,1,2,1.42C134,103.1,129.73,109,122.23,109Z"/><path class="cls-13" d="M115.07,107.06a6.06,6.06,0,1,0,4.45-7.33A6.06,6.06,0,0,0,115.07,107.06Z"/><path class="cls-14" d="M118.23,102.19c0,.88,1.31,1.55,2.83,1.49s2.74-.83,2.7-1.71-1.3-1.55-2.83-1.49S118.2,101.31,118.23,102.19Z"/><path class="cls-12" d="M48.59,93.58S59.93,91.39,69.51,93l-.35-1.94c-.41-2.37-3.5-4.2-9.69-4.58s-9.9,1.5-10.38,4.24Z"/><path class="cls-13" d="M62.83,111.7a1.23,1.23,0,0,0,.11-2.46c-.08,0-8.51-.84-11.81-2.84a1.23,1.23,0,0,0-1.27,2.11c3.77,2.29,12.48,3.15,12.85,3.18Z"/><path class="cls-13" d="M61.51,109h.18a1.26,1.26,0,0,0,1.22-1.25,1.24,1.24,0,0,0-1.24-1.22h-.15c-6.21,0-9.9-5.06-9.93-5.11a1.23,1.23,0,0,0-2,1.42C49.75,103.1,54,109,61.51,109Z"/><path class="cls-13" d="M68.66,107.06a6.06,6.06,0,1,1-4.45-7.33A6,6,0,0,1,68.66,107.06Z"/><path class="cls-14" d="M65.5,102.19c0,.88-1.3,1.55-2.83,1.49S59.94,102.85,60,102s1.3-1.55,2.82-1.49S65.54,101.31,65.5,102.19Z"/><path class="cls-1" d="M34.56,80.1s30.27-18.56,32-18.27,34.23,67.78,81.47,75.33c0,0,4.1-43.74,2.34-62.37s-.64-37.29-38.27-38.71S24.38,17.75,34.56,80.1Z"/><path class="cls-8" d="M148.12,135.84l-1.11-1-2-1.72c-.64-.61-1.25-1.27-1.88-1.89l-1.89-1.87-1.76-2-1.75-2-1.63-2.09c-1.1-1.37-2.15-2.77-3.12-4.2s-2-2.81-2.87-4.24c-1.82-2.82-3.52-5.6-5.07-8.27s-2.94-5.25-4.19-7.64c-2.47-4.81-4.44-8.86-5.72-11.75s-2-4.54-2-4.54a144.27,144.27,0,0,0,6.59,16.85c1.16,2.45,2.43,5.11,3.88,7.87s3,5.67,4.87,8.53c.88,1.46,1.85,2.9,2.85,4.35s2,2.9,3.12,4.33l1.63,2.15,1.77,2.08,1.78,2.08,1.93,2c.65.65,1.29,1.31,2,1.93l2.12,1.77.18.15c.74.14,1.47.32,2.21.44C148,137.16,148.05,136.68,148.12,135.84Z"/></g></g></svg>