<svg xmlns="http://www.w3.org/2000/svg" viewBox="0 0 243.4 278.6"><defs><style>.cls-1{fill:#f9dab4;}.cls-2{fill:#0b5668;}.cls-3{fill:#05424c;}.cls-4{fill:#efc4a0;}.cls-5{fill:#ba8156;}.cls-6{fill:#7f5732;}.cls-7{fill:#515151;}.cls-8{fill:#f4d3b0;}.cls-9{fill:#aa714b;}</style></defs><title>资源 295</title><g id="图层_2" data-name="图层 2"><g id="Layer_1" data-name="Layer 1"><path class="cls-1" d="M54.61,278.6h21l6-45-19.64-4A383.88,383.88,0,0,0,54.61,278.6Z"/><path class="cls-1" d="M181.41,229.57l-19.64,4,6,45h21A383.88,383.88,0,0,0,181.41,229.57Z"/><path class="cls-2" d="M150.05,177.87H93.35s-27,22.17-34,53.89l22.3,3.93a360.44,360.44,0,0,0-5.9,42.91h92a359.13,359.13,0,0,0-5.91-42.91l22.31-3.93C177.07,200,150.05,177.87,150.05,177.87Z"/><path class="cls-3" d="M127.3,212.39a5.61,5.61,0,1,1-5.6-5.61A5.61,5.61,0,0,1,127.3,212.39Z"/><path class="cls-3" d="M127.3,237.79a5.61,5.61,0,1,1-5.6-5.61A5.6,5.6,0,0,1,127.3,237.79Z"/><path class="cls-3" d="M127.3,263.19a5.61,5.61,0,1,1-5.6-5.61A5.6,5.6,0,0,1,127.3,263.19Z"/><polygon class="cls-3" points="151.99 233.79 143.63 240.14 135.27 233.79 135.27 222.26 151.99 222.26 151.99 233.79"/><circle class="cls-4" cx="121.7" cy="175.42" r="23.65"/><path class="cls-5" d="M121.7,0h0C97.9,0-9.17,92.14.63,97.25c25.26,13.16,120.81,13.91,121.07,13.91h0c.26,0,95.8-.75,121.06-13.91C252.57,92.14,145.49,0,121.7,0Z"/><path class="cls-6" d="M31.86,94.9s10.24,5.32,35.23,5.32V59.48Z"/><path class="cls-6" d="M211.53,94.9s-10.24,5.32-35.23,5.32V59.48Z"/><path class="cls-7" d="M44.82,116.58S16.14,20.06,121.7,20.06s77.84,96.52,77.84,96.52Z"/><path class="cls-8" d="M60.24,117.3s-5.53-8.6-15.63-5.44S34,148.78,71.34,157.61Z"/><path class="cls-8" d="M183.52,117.3s5.54-8.6,15.63-5.44,10.65,36.92-26.72,45.75Z"/><path class="cls-1" d="M122.35,186h-1.3a64.39,64.39,0,0,1-64.39-64.39V74.75H186.74v46.83A64.39,64.39,0,0,1,122.35,186Z"/><path class="cls-4" d="M117.3,163.62A131.43,131.43,0,0,1,95.38,162a1.27,1.27,0,1,1,.48-2.49,142.23,142.23,0,0,0,51.69-1.64,1.27,1.27,0,0,1,.57,2.48A140.25,140.25,0,0,1,117.3,163.62Z"/><path class="cls-4" d="M121.4,137.34c7.62,0,7,6.6,7,6.6a8.19,8.19,0,0,0-7.08-4.22,9.53,9.53,0,0,0-7.58,4.22S113.78,137.34,121.4,137.34Z"/><polygon class="cls-7" points="95.62 106.4 95.62 112.22 65.93 115.95 65.93 110.43 95.62 106.4"/><path class="cls-7" d="M76.4,135a1.28,1.28,0,0,1-1.26-1.14c0-.44-1.07-10.85,6.58-12.81,6.13-1.58,10.23,4.17,11.53,7.43a1.27,1.27,0,1,1-2.35.94c-.12-.29-3-7.32-8.55-5.91s-4.69,10-4.68,10.08a1.28,1.28,0,0,1-1.13,1.4Z"/><polygon class="cls-7" points="147.84 106.4 147.84 112.22 177.53 115.95 177.53 110.43 147.84 106.4"/><path class="cls-7" d="M167.05,135h-.13a1.27,1.27,0,0,1-1.13-1.4c0-.14.82-8.67-4.69-10.08s-8.51,5.84-8.54,5.91a1.27,1.27,0,0,1-2.36-.94c1.31-3.26,5.4-9,11.53-7.43,7.65,2,6.63,12.37,6.58,12.81A1.28,1.28,0,0,1,167.05,135Z"/><path class="cls-4" d="M157,156.38a1.27,1.27,0,0,1-.67-.2l-14.83-9.24a1.27,1.27,0,0,1,1.34-2.16L157.68,154a1.27,1.27,0,0,1,.41,1.75A1.29,1.29,0,0,1,157,156.38Z"/><path class="cls-4" d="M86.7,158.88a1.27,1.27,0,0,1-.72-2.32l14.31-9.83a1.27,1.27,0,0,1,1.44,2.09l-14.31,9.84A1.27,1.27,0,0,1,86.7,158.88Z"/><path class="cls-7" d="M51.1,89.69s10.62,21,25.94,14.1c0,0,7,5.92,19.95-3.88,0,0,12.74,10.62,27.05-1a18.94,18.94,0,0,0,22.67-2.25s16.14,8.37,20,0c0,0,13.89,10,20.43,1.84V72.33H51.1Z"/><path class="cls-5" d="M211.53,94.9c-2.4-36.61-29-68.21-89.83-92.71h0C60.83,26.69,34.26,58.29,31.86,94.9c0,0,26.72-18.59,89.83-18.59S211.53,94.9,211.53,94.9Z"/><path class="cls-9" d="M121.69,7.67s0,.23,0,.66,0,1.05.09,1.85c.07,1.59.16,3.86.24,6.59,0,1.36.08,2.84.11,4.4s.07,3.22.08,4.92,0,3.47.06,5.26,0,3.61,0,5.43,0,3.63,0,5.42,0,3.56-.06,5.26,0,3.36-.08,4.92-.07,3-.11,4.4c-.08,2.73-.17,5-.24,6.6,0,.79-.07,1.42-.09,1.85l0,.65s0-.23,0-.65,0-1.06-.09-1.85c-.07-1.59-.17-3.87-.24-6.6,0-1.36-.08-2.84-.11-4.4s-.07-3.21-.08-4.92-.06-3.46-.06-5.26,0-3.6,0-5.42,0-3.64,0-5.43,0-3.55.06-5.26,0-3.35.08-4.92.07-3,.11-4.4c.08-2.73.17-5,.24-6.59,0-.8.07-1.43.09-1.85Z"/><path class="cls-9" d="M112.51,9.37s-.57,3.47-1.5,8.66c-.24,1.3-.49,2.7-.76,4.19s-.54,3.05-.85,4.67-.59,3.29-.9,5-.62,3.43-.91,5.16-.63,3.46-.91,5.16c-.14.85-.28,1.7-.43,2.53s-.27,1.66-.4,2.47-.27,1.61-.39,2.39-.24,1.55-.35,2.3-.22,1.47-.33,2.17-.18,1.38-.27,2-.17,1.28-.25,1.87-.13,1.16-.19,1.69c-.1,1.07-.24,2-.27,2.76s-.1,1.37-.13,1.78l0,.63s0-.22,0-.63,0-1-.06-1.79,0-1.71,0-2.78c0-.54,0-1.11,0-1.71s.09-1.23.14-1.89.1-1.35.16-2.06l.23-2.19c.08-.76.16-1.53.25-2.32s.21-1.59.32-2.41c.22-1.64.45-3.33.73-5s.57-3.44.87-5.18.64-3.46,1-5.16.68-3.37,1-5c.68-3.23,1.36-6.23,2-8.8.3-1.28.59-2.46.86-3.49s.51-2,.7-2.69.37-1.33.48-1.72Z"/><path class="cls-9" d="M101,17l-.76,2.14c-.49,1.36-1.18,3.3-2,5.63s-1.83,5-2.88,7.94c-.53,1.45-1.07,2.95-1.62,4.48s-1.12,3.07-1.65,4.63c-.28.78-.56,1.55-.83,2.32s-.54,1.55-.8,2.32-.53,1.52-.79,2.27-.51,1.5-.75,2.23c-.5,1.46-1,2.88-1.39,4.22S86.7,57.8,86.34,59s-.67,2.27-.94,3.24c-.13.48-.26.93-.37,1.35s-.2.81-.29,1.16l-.39,1.63-.14.58.07-.59c0-.39.12-.95.22-1.67,0-.36.09-.76.17-1.19s.17-.89.26-1.38.2-1,.3-1.58.26-1.13.4-1.74c.29-1.2.58-2.52,1-3.88s.76-2.83,1.23-4.3.91-3,1.45-4.56c.25-.77.51-1.55.78-2.33l.81-2.33c.55-1.56,1.14-3.11,1.7-4.63s1.17-3,1.72-4.46,1.14-2.82,1.69-4.13,1.07-2.55,1.56-3.68,1-2.17,1.38-3.09S99.71,19.69,100,19s.56-1.16.73-1.51Z"/><path class="cls-9" d="M86.7,26.51l-3.88,6.77-3.95,6.94c-.73,1.26-1.44,2.59-2.19,3.93s-1.49,2.7-2.24,4.07l-2.2,4.08c-.69,1.37-1.43,2.69-2.08,4s-1.31,2.55-1.9,3.75-1.13,2.34-1.64,3.39l-1.34,2.89L65,67c-.08.2-.17.4-.25.59-.16.37-.31.72-.45,1-.27.63-.49,1.12-.64,1.45l-.23.51s.06-.18.16-.53.26-.87.47-1.52c.11-.32.22-.68.35-1.08l.2-.61c.07-.21.15-.43.24-.65.32-.89.7-1.9,1.12-3s.93-2.26,1.45-3.5,1.14-2.51,1.76-3.84c.3-.67.64-1.33,1-2s.67-1.37,1-2c.72-1.36,1.44-2.75,2.17-4.13s1.52-2.74,2.29-4.07,1.54-2.63,2.3-3.88c.38-.63.75-1.25,1.12-1.84l1.11-1.75c.71-1.14,1.42-2.19,2.06-3.17,1.3-1.95,2.42-3.55,3.22-4.66.4-.56.73-1,.94-1.28Z"/><path class="cls-9" d="M61.93,44.08l-1.24,1.51-3.3,3.95L52.73,55.1l-2.62,3.14c-.9,1.07-1.8,2.16-2.69,3.26s-1.8,2.18-2.66,3.27S43,66.92,42.23,68c-.41.52-.8,1-1.19,1.54L39.91,71c-.72,1-1.39,1.91-2,2.78s-1.15,1.67-1.6,2.4c-.24.36-.44.71-.63,1s-.37.62-.51.89-.27.52-.39.73l-.26.55-.22.46.15-.49c0-.16.12-.35.19-.58L35,78c.11-.29.25-.6.41-1s.32-.71.53-1.1c.38-.77.85-1.64,1.4-2.56s1.16-1.9,1.84-2.92,1.4-2.09,2.19-3.16c.39-.55.79-1.09,1.2-1.64s.83-1.1,1.27-1.66c.86-1.1,1.74-2.21,2.64-3.32s1.82-2.18,2.73-3.24,1.83-2.09,2.72-3.08,1.76-1.94,2.59-2.83,1.63-1.72,2.37-2.49c1.49-1.53,2.76-2.77,3.65-3.63.45-.44.81-.77,1-1Z"/><path class="cls-9" d="M131.12,9.37l.17.61c.11.39.28,1,.47,1.72s.45,1.65.71,2.69.56,2.21.86,3.49c.63,2.57,1.3,5.57,2,8.8.33,1.61.69,3.28,1,5s.66,3.43,1,5.16.6,3.47.87,5.18.51,3.4.73,5c.11.82.21,1.62.32,2.41s.17,1.56.25,2.32.16,1.48.23,2.19.11,1.4.16,2.06.09,1.29.13,1.89,0,1.17.06,1.71c0,1.07.08,2,0,2.78s0,1.38-.05,1.79l0,.63,0-.63c0-.41-.07-1-.13-1.78s-.17-1.69-.27-2.76c-.06-.53-.12-1.09-.19-1.69s-.16-1.22-.25-1.87-.18-1.33-.27-2-.22-1.43-.33-2.17-.23-1.51-.35-2.3-.25-1.58-.39-2.39-.25-1.64-.4-2.47-.3-1.68-.43-2.53c-.28-1.7-.6-3.43-.91-5.16s-.61-3.45-.91-5.16-.61-3.37-.91-5-.57-3.19-.84-4.67-.52-2.89-.76-4.19C131.69,12.84,131.12,9.37,131.12,9.37Z"/><path class="cls-9" d="M142.62,17l.26.53c.17.35.43.86.73,1.51s.68,1.45,1.09,2.37.88,2,1.37,3.09,1,2.37,1.57,3.68,1.12,2.69,1.69,4.13,1.16,2.93,1.72,4.46,1.15,3.07,1.7,4.63l.81,2.33.78,2.33c.53,1.54,1,3.08,1.45,4.56s.85,2.93,1.23,4.3.69,2.68,1,3.88c.13.61.29,1.18.39,1.74s.21,1.08.31,1.58.18,1,.26,1.38.12.83.17,1.19c.1.72.17,1.28.21,1.67s.08.59.08.59l-.14-.58-.4-1.63c-.08-.35-.16-.74-.28-1.16s-.24-.87-.38-1.35c-.26-1-.55-2.06-.93-3.24s-.73-2.46-1.18-3.81-.89-2.76-1.39-4.22c-.25-.73-.49-1.48-.75-2.23s-.52-1.51-.79-2.27-.53-1.54-.8-2.32-.55-1.54-.83-2.32c-.53-1.56-1.1-3.1-1.65-4.63s-1.09-3-1.62-4.48l-2.88-7.94c-.84-2.33-1.53-4.27-2-5.63Z"/><path class="cls-9" d="M156.93,26.51l.34.45c.21.3.54.72.94,1.28.8,1.11,1.92,2.71,3.22,4.66.64,1,1.35,2,2.06,3.17.36.57.73,1.15,1.1,1.75s.75,1.21,1.13,1.84c.76,1.25,1.53,2.55,2.3,3.88s1.52,2.71,2.29,4.07,1.45,2.77,2.17,4.13c.35.68.69,1.37,1,2s.67,1.34,1,2c.62,1.33,1.22,2.61,1.75,3.84s1,2.41,1.46,3.5.79,2.11,1.12,3c.09.22.17.44.24.65l.2.61c.13.4.24.76.35,1.08.21.65.36,1.17.47,1.52s.16.53.16.53L180,70c-.15-.33-.37-.82-.64-1.45l-.45-1c-.08-.19-.17-.39-.25-.59s-.2-.41-.3-.63c-.4-.86-.86-1.83-1.34-2.89L175.36,60c-.58-1.2-1.25-2.44-1.89-3.75s-1.39-2.62-2.08-4l-2.2-4.08c-.75-1.37-1.48-2.74-2.24-4.07s-1.46-2.67-2.19-3.93l-3.95-6.94Z"/><path class="cls-9" d="M181.7,44.08l.38.35c.24.22.6.55,1,1,.89.86,2.16,2.1,3.64,3.63.75.77,1.55,1.59,2.38,2.49s1.71,1.83,2.59,2.83,1.81,2,2.72,3.08,1.82,2.15,2.73,3.24S199,62.91,199.83,64c.43.56.86,1.11,1.26,1.66s.82,1.09,1.21,1.64c.79,1.07,1.52,2.14,2.19,3.16s1.29,2,1.84,2.92,1,1.79,1.4,2.56c.21.39.38.76.53,1.1s.3.66.41,1,.22.55.31.78.13.42.19.58l.15.49-.22-.46-.26-.55-.4-.73c-.14-.27-.31-.57-.5-.89s-.39-.67-.63-1c-.46-.73-1-1.53-1.6-2.4s-1.27-1.8-2-2.78l-1.13-1.49c-.39-.5-.78-1-1.19-1.54-.8-1.06-1.67-2.11-2.53-3.21s-1.76-2.18-2.66-3.27-1.79-2.19-2.69-3.26L190.9,55.1l-4.66-5.56-3.3-3.95Z"/></g></g></svg>