<svg xmlns="http://www.w3.org/2000/svg" viewBox="0 0 171.01 259.93"><defs><style>.cls-1{fill:#684225;}.cls-2{fill:#7f5732;}.cls-3{fill:#4c3626;}.cls-4{fill:#efc4a0;}.cls-5{fill:#2f3233;}.cls-6{fill:#f4d3b0;}.cls-7{fill:#f9dab4;}.cls-8{fill:#3a332d;}.cls-9{fill:#e8dfd9;}</style></defs><title>资源 297</title><g id="图层_2" data-name="图层 2"><g id="Layer_1" data-name="Layer 1"><path class="cls-1" d="M132.7,158.88l15,101.05H171C163.61,204.19,132.7,158.88,132.7,158.88Z"/><path class="cls-1" d="M38.31,158.88l-15,101.05H0C7.4,204.19,38.31,158.88,38.31,158.88Z"/><path class="cls-2" d="M20.09,259.93H150.81c-4.95-45.67-19.05-105-19.05-105H39.14S25,214.26,20.09,259.93Z"/><path class="cls-3" d="M92.74,259.15H77.89a7.52,7.52,0,0,1-7.51-7.52V222.5h29.87v29.13A7.52,7.52,0,0,1,92.74,259.15Z"/><path class="cls-1" d="M85.45,236.33c12.73,0,14.8-13.83,14.8-13.83H70.38S72.72,236.33,85.45,236.33Z"/><path class="cls-3" d="M54,259.15H39.11a7.52,7.52,0,0,1-7.52-7.52V222.5H61.47v29.13A7.52,7.52,0,0,1,54,259.15Z"/><path class="cls-1" d="M46.67,236.33c12.73,0,14.8-13.83,14.8-13.83H31.59S33.94,236.33,46.67,236.33Z"/><path class="cls-3" d="M131.52,259.15H116.68a7.52,7.52,0,0,1-7.52-7.52V222.5H139v29.13A7.52,7.52,0,0,1,131.52,259.15Z"/><path class="cls-1" d="M124.24,236.33c12.73,0,14.8-13.83,14.8-13.83H109.16S111.51,236.33,124.24,236.33Z"/><circle class="cls-3" cx="85.31" cy="158.95" r="36.06" transform="translate(-88.99 205.46) rotate(-76.72)"/><circle class="cls-4" cx="85.31" cy="158.95" r="25.7"/><path class="cls-5" d="M11.89,106.74S-14.78,0,85.31,0s73.81,106.74,73.81,106.74Z"/><path class="cls-6" d="M28.28,109s-3.91-11.08-12.42-9.61C6.18,101.05,2.73,125.63,27.34,143Z"/><path class="cls-6" d="M142.52,109s3.91-11.08,12.42-9.61c9.67,1.67,13.13,26.25-11.49,43.6Z"/><path class="cls-7" d="M146.21,141.71a17.79,17.79,0,0,1-13.08,17.17c-12.65,3.48-32.16,8-47.82,8s-35.16-4.54-47.81-8a17.79,17.79,0,0,1-13.08-17.17V61H146.21Z"/><path class="cls-4" d="M81,150.89c-15.39,0-23.89-2.66-24.42-2.83a1.19,1.19,0,0,1,.73-2.27h0c.19.06,19.33,6,52.21,0a1.19,1.19,0,1,1,.43,2.35A160.33,160.33,0,0,1,81,150.89Z"/><path class="cls-4" d="M85.34,161.05a28.28,28.28,0,0,1-9.65-1.58,1.19,1.19,0,1,1,.87-2.22,28.15,28.15,0,0,0,17.6,0,1.19,1.19,0,1,1,.76,2.26A29.85,29.85,0,0,1,85.34,161.05Z"/><path class="cls-4" d="M84.94,115.8c-5.45-.14-10,5-10,5s5.92-2.44,10-2.5,10,2.5,10,2.5S90.39,115.93,84.94,115.8Z"/><circle class="cls-8" cx="52.95" cy="107.36" r="6.82"/><path class="cls-9" d="M54.07,102.61c.17.82-.85,1.73-2.27,2s-2.71-.15-2.88-1,.85-1.73,2.28-2S53.91,101.78,54.07,102.61Z"/><rect class="cls-8" x="39.03" y="90.06" width="22.15" height="5.62" rx="2.39"/><circle class="cls-8" cx="117.99" cy="107.36" r="6.82"/><path class="cls-9" d="M116.86,102.61c-.17.82.85,1.73,2.27,2s2.71-.15,2.88-1-.85-1.73-2.27-2S117,101.78,116.86,102.61Z"/><rect class="cls-8" x="109.74" y="90.06" width="22.15" height="5.62" rx="2.39"/><path class="cls-5" d="M146.21,141.71V110.53c-17.12,13-21.83,28.44-21.83,28.44s-8.55-14.78-40.92-14.78S42.54,139,42.54,139s-4-13.19-18.12-25.43v28.17A17.79,17.79,0,0,0,37.5,158.88l3.65,1c5.38-7.08,14.06-24,42.31-24s38.13,18.28,42.91,24.77c2.41-.6,4.68-1.2,6.76-1.78A17.79,17.79,0,0,0,146.21,141.71Z"/><path class="cls-5" d="M18.42,65.64S30,80.52,66.54,83.9c0,0-9.73-8.34-10.52-14.89,0,0,22.82,11.91,54,11.12,0,0-7.15-5.56-9.33-11.91,0,0,38.1,5.56,47.83,15.68V60.48H18.42Z"/></g></g></svg>