<svg xmlns="http://www.w3.org/2000/svg" viewBox="0 0 186.69 260"><defs><style>.cls-1{fill:#f9dab4;}.cls-2{fill:#f7cea6;}.cls-3{fill:#515151;}.cls-4{fill:#848484;}.cls-5{fill:#3b3d3d;}.cls-6{fill:#fff;}.cls-7{fill:#f9f7f2;}.cls-8{fill:#e5be9e;}.cls-9{fill:#ad3936;}.cls-10{fill:#2c3030;}</style></defs><title>资源 14</title><g id="图层_2" data-name="图层 2"><g id="Layer_1" data-name="Layer 1"><path class="cls-1" d="M161,196.92H140.62L147.11,260h20.14C164.9,238.2,161,196.92,161,196.92Z"/><path class="cls-2" d="M140.62,196.93,147.11,260h.77c-.6-9.75-1.36-21.06-1.93-26.85-1.14-11.41-3.78-21.14,1.54-21.88s15.2,3.42,15.2,3.42c-1-10.28-1.71-17.77-1.71-17.77Z"/><path class="cls-3" d="M129.64,150s35.69,15.63,40.38,60.55H125.87V150Z"/><path class="cls-4" d="M151.26,207.58s11.31-.29,12.71-8.75S148.92,165,142.28,161.48s-9.56-3.3-8.1,5.87,5.36,36.13,5.36,39.65C143.25,208.76,151.26,207.58,151.26,207.58Z"/><path class="cls-1" d="M19.24,260H39.39l6.49-63.07H25.52S21.6,238.2,19.24,260Z"/><path class="cls-2" d="M23.81,214.69s9.88-4.16,15.2-3.42,2.68,10.47,1.54,21.88c-.58,5.79-1.33,17.1-1.93,26.85h.77l6.49-63.07H25.52S24.81,204.41,23.81,214.69Z"/><path class="cls-3" d="M56.85,150s-35.68,15.63-40.37,60.55H60.63V150Z"/><path class="cls-4" d="M35.24,207.58s-11.31-.29-12.71-8.75,15-33.83,21.69-37.35,9.56-3.3,8.1,5.87S47,203.48,47,207C43.24,208.76,35.24,207.58,35.24,207.58Z"/><path class="cls-3" d="M130.59,142.82c-55.69,0-74,.39-74,.39S42.84,212.39,43.67,260h98.91C142.23,236.05,140.35,177,130.59,142.82Z"/><path class="cls-4" d="M63.21,151.38A158.18,158.18,0,0,0,51,195.59c-2.39,18.84-7.17,49.7-.33,64.41h87.51c1.89-7.73,1.89-19,1.89-25.86,0-11.1-4.71-74.92-13.33-83.53C93.69,131.62,63.21,151.38,63.21,151.38Z"/><rect class="cls-3" x="112.58" y="193.25" width="20.45" height="4.09"/><polygon class="cls-3" points="91.71 162.46 108.05 178.63 125.67 158.5 108.69 185.15 91.71 162.46"/><polygon class="cls-3" points="96.83 162.46 80.49 178.63 62.87 158.5 79.85 185.15 96.83 162.46"/><path class="cls-1" d="M138.38,51c-17.1-7-26.37.88-44,.32h0c-9.22,0-28.33-6.44-36.45-3.92-40.64,11-34.94,51.83-35.57,61.35-2.09,31.9,31.71,58.1,71.27,58.35s71.82-25.46,72-57.43C165.58,109.64,167.07,64.36,138.38,51Z"/><path class="cls-5" d="M118.77,87.88s4.49-2,12.14-1.65c7.39.33,13.55,3.69,13.87,2.1.57-2.84-3.36-7.73-9.48-10-5.74-2.1-10.87-.31-14.8,2.61S114.83,89,118.77,87.88Z"/><path class="cls-5" d="M69.78,87.88s-4.49-2-12.14-1.65c-7.39.33-13.55,3.69-13.87,2.1-.57-2.84,3.36-7.73,9.47-10C59,76.27,64.12,78.06,68.05,81S73.72,89,69.78,87.88Z"/><path class="cls-5" d="M140.54,102a11.56,11.56,0,1,1-16-3.23A11.55,11.55,0,0,1,140.54,102Z"/><path class="cls-6" d="M132.69,99.31c1.15,1.73-.35,4.74-3.35,6.74s-6.37,2.21-7.52.48.36-4.74,3.36-6.73S131.55,97.58,132.69,99.31Z"/><path class="cls-5" d="M67.4,99.37a11.56,11.56,0,1,1-16-3.23A11.57,11.57,0,0,1,67.4,99.37Z"/><path class="cls-6" d="M59.56,96.66c1.14,1.73-.36,4.75-3.36,6.74s-6.37,2.22-7.51.49S49,99.15,52,97.15,58.41,94.94,59.56,96.66Z"/><path class="cls-2" d="M87.06,127.93h0a30.8,30.8,0,0,1,2.13-2.82,19.59,19.59,0,0,1,2-2,7.17,7.17,0,0,1,2-1.31,1.94,1.94,0,0,1,.76-.14,3.8,3.8,0,0,1,1.82.58,11.45,11.45,0,0,1,3,2.63,16.84,16.84,0,0,1,2.23,3.36,1,1,0,0,0,1.76-.87,19,19,0,0,0-3.58-4.93,11.48,11.48,0,0,0-2.44-1.9A5.68,5.68,0,0,0,94,119.7a3.78,3.78,0,0,0-1.47.26,9.24,9.24,0,0,0-2.69,1.72,23.73,23.73,0,0,0-3.11,3.39c-.79,1-1.28,1.79-1.29,1.81a1,1,0,1,0,1.65,1.05Z"/><path class="cls-7" d="M49.62,128.28a1.29,1.29,0,0,1-1.34,1.24l-4.36-.16A1.3,1.3,0,0,1,42.67,128h0A1.3,1.3,0,0,1,44,126.77l4.36.16a1.29,1.29,0,0,1,1.24,1.35Z"/><path class="cls-7" d="M143.59,128.88a1.3,1.3,0,0,1-1.34,1.25l-4.36-.17a1.28,1.28,0,0,1-1.25-1.34h0a1.3,1.3,0,0,1,1.34-1.25l4.37.16a1.3,1.3,0,0,1,1.24,1.35Z"/><path class="cls-1" d="M156.43,130.23a23.77,23.77,0,0,0,20-.26c10.49-5.13,15.67-26.2,2.07-31.24s-17.78,10.59-17.78,10.59Z"/><path class="cls-2" d="M162.75,123.82s4.32-23.07,14.41-15.1c6.2,4.89,2.52,11.73-3.23,14.54C170.32,125,165.63,125.17,162.75,123.82Z"/><path class="cls-8" d="M162.88,123.56l1.49-5.82s19.19-5.47,13.81,2.23S162.88,123.56,162.88,123.56Z"/><path class="cls-1" d="M30,128.91a23.81,23.81,0,0,1-20-.52C-.4,123.12-5.3,102,8.36,97.13S26,107.94,26,107.94Z"/><path class="cls-2" d="M23.78,122.42s-4-23.13-14.22-15.29c-6.26,4.81-2.67,11.7,3,14.58C16.19,123.51,20.88,123.73,23.78,122.42Z"/><path class="cls-8" d="M23.65,122.15l-1.42-5.83S3.12,110.6,8.4,118.37,23.65,122.15,23.65,122.15Z"/><path class="cls-9" d="M83.75,139.37h18l12.89,8.94c-3.89,3.72-10.23,7.19-20.36,7.19-10.93,0-17.26-4-20.86-8.07Z"/><path class="cls-5" d="M95.29,136.18c1.84-2.7,6.88-3.63,14-.52,6.2,2.7,14.75,12,21.19,8.66,4.32-2.24,4.15-7.83,4.15-7.83s7.4,13.23-8.5,16.69S89.4,144.82,95.29,136.18Z"/><path class="cls-5" d="M93.25,136.18c-1.84-2.7-6.88-3.63-14-.52-6.2,2.7-14.76,12-21.19,8.66-4.32-2.24-4.15-7.83-4.15-7.83s-7.4,13.23,8.5,16.69S99.14,144.82,93.25,136.18Z"/><path class="cls-5" d="M167.55,32.23C154.17,12.32,136.15,0,93.92,0S35.64,10.3,21.33,30.52c-7,9.84-8.41,25.94-8.41,40.17,0,17.42,1.67,25.57,1.67,25.57l8.56,5.57c2.39-16.41,5.4-23,9.57-30.43,3-5.28,10-13.63,10-13.63,8.57,4.13,24.42,7.66,45,8.42,31.7,1.16,45.43-14.9,45.43-14.9C143.29,55.48,160.84,70,164.64,102l8.84-4.24s1.44-9.62,1.44-27C174.92,56.46,174.27,42.24,167.55,32.23Z"/><path class="cls-10" d="M42.67,39.76S31,35.56,34.66,17c0,0-5.63,5.39-3.1,16.12a15.5,15.5,0,0,1-7.78-5.21S19.14,52.83,39.65,61.53c1.72-2.2,3-3.76,3-3.76s-16.9-7.36-16.9-24.62A20.89,20.89,0,0,0,42.67,39.76Z"/></g></g></svg>