<svg xmlns="http://www.w3.org/2000/svg" viewBox="0 0 206.54 265.83"><defs><style>.cls-1{fill:#f9f5ed;}.cls-2{fill:#c65044;}.cls-3{fill:#ad3e3b;}.cls-4{fill:#61aa90;}.cls-5{fill:#f4d3b0;}.cls-6{fill:#f9dab4;}.cls-7{fill:#efc4a0;}.cls-8{fill:#3a332d;}.cls-9{fill:#e8dfd9;}</style></defs><title>资源 75</title><g id="图层_2" data-name="图层 2"><g id="Layer_1" data-name="Layer 1"><path class="cls-1" d="M125.32,180.67,128,265.83h14.46c5.53-8.46,10.72-18,11.18-24.65,1-14.66-25.83-63.79-25.83-63.79Z"/><path class="cls-1" d="M51.8,180.67l-2.65,85.16H34.69c-5.53-8.46-10.72-18-11.18-24.65-1-14.66,25.81-63.79,25.81-63.79Z"/><rect class="cls-1" x="69.21" y="166.92" width="39.92" height="36.2"/><path class="cls-2" d="M88.55,178.3v2.59l-14.92,4a2.67,2.67,0,0,1-3.35-2.58v-6a2.66,2.66,0,0,1,3.45-2.55Z"/><path class="cls-2" d="M88.55,178.3v2.59l14.91,4a2.67,2.67,0,0,0,3.35-2.58v-6a2.66,2.66,0,0,0-3.45-2.55Z"/><rect class="cls-3" x="83.82" y="175.44" width="9.45" height="8.46" rx="2.95"/><path class="cls-4" d="M69.14,165.47c-8.24,4.37-16.68,9.15-19.82,11.92l-4.53,88.44h87.52l-4.53-88.44c-3.15-2.77-11.58-7.55-19.83-11.92l-19.4,35.09Z"/><ellipse class="cls-3" cx="172.1" cy="36.32" rx="34.45" ry="36.32"/><path class="cls-1" d="M144.26,24.31s13.66-9.64,25,9.92,5.18,27.47-4.75,29.34Z"/><path class="cls-5" d="M142.92,110.92s10.85-15.51,23.25-8.27-3.61,28.43-23.25,34.11Z"/><path class="cls-5" d="M36.82,110.92S26,95.41,13.57,102.65s3.61,28.43,23.25,34.11Z"/><circle class="cls-6" cx="90.01" cy="106.93" r="65.06" transform="translate(-49.25 94.96) rotate(-45)"/><path class="cls-2" d="M75.46,151.69s3.16-4.75,6.81-4.53,5.63,3.72,5.63,3.72,3.28-3.64,7.12-3.57,5.5,4.75,5.5,4.75-3.8,8.9-12.9,8.9S75.46,151.69,75.46,151.69Z"/><path class="cls-7" d="M80.41,130.34s.63-5.62,6-5.64S93,130.34,93,130.34s-3-3.46-6.42-3.46S80.41,130.34,80.41,130.34Z"/><path class="cls-8" d="M59,123.7h-.13c-.42,0-10.14-1-14.35-3.55a1.37,1.37,0,1,1,1.42-2.35C49.62,120,59,120.94,59.13,121A1.38,1.38,0,0,1,59,123.7Z"/><path class="cls-8" d="M57.53,120.69c-8.38,0-13.13-6.59-13.33-6.88a1.37,1.37,0,0,1,2.25-1.58h0s4.15,5.71,11.09,5.71h.15a1.38,1.38,0,1,1,0,2.75Z"/><path class="cls-8" d="M65.52,118.52a6.77,6.77,0,1,1-5-8.18A6.77,6.77,0,0,1,65.52,118.52Z"/><path class="cls-9" d="M62,113.08c0,1-1.45,1.74-3.16,1.67s-3-.93-3-1.92,1.45-1.73,3.16-1.66S62,112.09,62,113.08Z"/><path class="cls-3" d="M73.62,101.91V98.65A.77.77,0,0,0,73,97.9c-3.7-.51-22.14-2.78-31.07,2.1a.76.76,0,0,0-.28,1.06l1.68,2.76a.76.76,0,0,0,.88.33c2.54-.83,13.43-3.93,28.56-1.5A.75.75,0,0,0,73.62,101.91Z"/><path class="cls-8" d="M116.39,123.7a1.38,1.38,0,0,1-.13-2.75c.09,0,9.5-.94,13.18-3.16a1.38,1.38,0,0,1,1.43,2.35c-4.22,2.55-13.94,3.51-14.35,3.55Z"/><path class="cls-8" d="M117.86,120.69h-.2a1.38,1.38,0,0,1,0-2.75h.17c6.94,0,11.05-5.66,11.09-5.71a1.37,1.37,0,1,1,2.24,1.58C131,114.1,126.24,120.69,117.86,120.69Z"/><path class="cls-8" d="M109.87,118.52a6.77,6.77,0,1,0,5-8.18A6.76,6.76,0,0,0,109.87,118.52Z"/><path class="cls-9" d="M113.4,113.08c0,1,1.45,1.74,3.16,1.67s3-.93,3-1.92-1.45-1.73-3.16-1.66S113.36,112.09,113.4,113.08Z"/><path class="cls-3" d="M101.77,101.91V98.65a.76.76,0,0,1,.65-.75c3.69-.51,22.13-2.78,31.06,2.1a.75.75,0,0,1,.28,1.06l-1.68,2.76a.75.75,0,0,1-.88.33c-2.53-.83-13.42-3.93-28.55-1.5A.75.75,0,0,1,101.77,101.91Z"/><path class="cls-2" d="M142.66,126.43s19.62-6.57,25.79-27.44C179,63.41,168.6,5.31,90,5.31S15.41,83.87,13.73,88.13,10.21,98.38,0,94.73c19.34,17.34,35.72,19.24,61.54-2.9,0,0,1.07,7.92-4.87,11,0,0,31.23,0,53.33-30.47,0,0,4.27,15.23,22.55,21.63C158.7,103.12,142.66,126.43,142.66,126.43Z"/></g></g></svg>