<svg xmlns="http://www.w3.org/2000/svg" viewBox="0 0 168.98 260"><defs><style>.cls-1{fill:#ea9628;}.cls-2{fill:#f9dab4;}.cls-3{fill:#f4efed;}.cls-4{fill:#c65044;}.cls-5{fill:#e2dcd9;}.cls-6{fill:#393c3d;}.cls-7{fill:#515151;}.cls-8{fill:#606060;}.cls-9{fill:#e08a22;}.cls-10{fill:#f4d3b0;}.cls-11{fill:#3a332d;}</style></defs><title>资源 52</title><g id="图层_2" data-name="图层 2"><g id="Layer_1" data-name="Layer 1"><path class="cls-1" d="M169,186.07s-20.27-9.2-7.79-107.11c7.37-57.79-32.75-79-76.26-79S1.31,21.17,8.68,79C21.16,176.87.89,186.07.89,186.07,3.24,191.75,17,189.53,17,189.53c-2.24,8-14.14,8.6-14.14,8.6,14,33.75,82.1,31.08,82.1,31.08S153,231.88,167,198.13c0,0-11.9-.63-14.14-8.6C152.9,189.53,166.63,191.75,169,186.07Z"/><path class="cls-2" d="M27.43,255.49c-.43,1.39-.95,2.9-1.54,4.51H48.21L50,200.64l-10.48-2.23S34.17,233.82,27.43,255.49Z"/><path class="cls-2" d="M142.85,255.49c.43,1.39,1,2.9,1.54,4.51H122.07l-1.82-59.36,10.47-2.23S136.11,233.82,142.85,255.49Z"/><rect class="cls-3" x="56.4" y="157.78" width="56.95" height="57.09"/><rect class="cls-4" x="78.94" y="164.79" width="11.42" height="7.48" rx="2.01"/><polygon class="cls-4" points="82.18 168.53 87.31 168.53 90.36 206.53 84.65 216.73 78.94 206.25 82.18 168.53"/><polygon class="cls-5" points="75.93 175.08 84.68 163.75 93.44 175.08 111.09 159.54 58.63 159.54 75.93 175.08"/><path class="cls-6" d="M49.57,162.75S33.63,180.7,27.43,199.12c0,0,9.21,5.13,24.26,6.37Z"/><path class="cls-6" d="M119.8,162.75s15.94,17.95,22.14,36.37c0,0-9.21,5.13-24.27,6.37Z"/><path class="cls-7" d="M112.84,159,84.68,209.76,56.53,159c-3.4.69-6,1.68-6.67,3.1-4.18,8.15-3.33,84.43-3.15,97.95h75.94c.19-13.52,1-89.8-3.14-97.95C118.78,160.63,116.24,159.64,112.84,159Z"/><polygon class="cls-8" points="57.58 160.85 53.82 190.27 64.77 190.27 63.53 205.49 84.68 209.76 57.58 160.85"/><polygon class="cls-8" points="111.79 160.85 115.55 190.27 104.6 190.27 105.83 205.49 84.68 209.76 111.79 160.85"/><path class="cls-6" d="M84.68,209.76V260S80.93,227.2,84.68,209.76Z"/><polygon class="cls-9" points="152.44 94.04 151.83 85 155.87 94.87 152.44 94.04"/><path class="cls-10" d="M23.68,100.38s-8-11.53-18.64-5c-12.63,7.76-.77,44.39,27.09,42.66Z"/><path class="cls-10" d="M144.22,100.38s8-11.53,18.63-5c12.63,7.76.77,44.39-27.09,42.66Z"/><path class="cls-2" d="M84.72,166.79H83.36A67.29,67.29,0,0,1,16.08,99.5V53.4H152V99.5A67.29,67.29,0,0,1,84.72,166.79Z"/><path class="cls-4" d="M71.78,146.83s3-4.49,6.43-4.29,5.32,3.52,5.32,3.52,3.1-3.44,6.73-3.37,5.21,4.49,5.21,4.49-3.6,8.41-12.2,8.41S71.78,146.83,71.78,146.83Z"/><path class="cls-11" d="M40,115.57a1.31,1.31,0,0,1-1.3-1.29c0-3.46,1.73-10.06,8.45-10.28s9.54,5.18,10.2,8.07a1.3,1.3,0,1,1-2.53.58c-.07-.27-1.55-6.25-7.58-6.05s-5.94,7.36-5.93,7.67a1.3,1.3,0,0,1-1.3,1.3Z"/><path class="cls-1" d="M34.23,98.64s18.65-2.92,25.25,0L53.83,92.9S37.11,92.9,34.23,98.64Z"/><path class="cls-1" d="M133.6,98.64s-18.66-2.92-25.25,0L114,92.9S130.72,92.9,133.6,98.64Z"/><path class="cls-11" d="M37.77,115.51a17.17,17.17,0,0,1-5.59-1,1.3,1.3,0,0,1-.8-1.66,1.29,1.29,0,0,1,1.65-.8,12.2,12.2,0,0,0,6.6.66,1.3,1.3,0,0,1,.73,2.5A10,10,0,0,1,37.77,115.51Z"/><path class="cls-11" d="M40.16,112.8c-3.82,0-8.2-3.57-8.38-3.73a1.3,1.3,0,1,1,1.65-2h0c1.07.87,4.34,3.13,6.73,3.13h.08a1.3,1.3,0,0,1,0,2.6Z"/><path class="cls-11" d="M126.19,115.57h0a1.3,1.3,0,0,1-1.29-1.3c0-.31-.07-7.48-5.93-7.67-6.09-.21-7.52,5.79-7.58,6.05a1.3,1.3,0,1,1-2.54-.58c.66-2.89,3.64-8.3,10.2-8.07,6.72.22,8.46,6.82,8.45,10.28A1.3,1.3,0,0,1,126.19,115.57Z"/><path class="cls-11" d="M128.41,115.51a9.82,9.82,0,0,1-2.58-.29,1.3,1.3,0,0,1,.71-2.5,12.26,12.26,0,0,0,6.61-.66,1.3,1.3,0,0,1,1.66.8,1.31,1.31,0,0,1-.81,1.66A17.12,17.12,0,0,1,128.41,115.51Z"/><path class="cls-11" d="M126,112.8h-.09a1.3,1.3,0,0,1,0-2.6H126c2.39,0,5.66-2.26,6.72-3.13a1.3,1.3,0,0,1,1.66,2C134.22,109.23,129.84,112.8,126,112.8Z"/><path class="cls-1" d="M16.08,94.27S39.86,81.73,44.93,63.88c0,0,10.94,14.72,41.42,27.61s43.5,7.56,52.09,19.41c4.65,6.41,2.83,24.53-5.82,31.46,0,0,23,6.31,19.5-56.6l2.47-35L11.72,46.17Z"/><path class="cls-9" d="M38.63,52.87s.73,10.45,5.06,14.49a27.19,27.19,0,0,0,1.24-3.48A44.68,44.68,0,0,1,38.63,52.87Z"/></g></g></svg>