<svg xmlns="http://www.w3.org/2000/svg" viewBox="0 0 183.44 260.01"><defs><style>.cls-1{fill:#0c4666;}.cls-2{fill:#1f6e89;}.cls-3{fill:#efc6a3;}.cls-4{fill:#f9dab4;}.cls-5{fill:#f9f7f2;}.cls-6{fill:#f7cea6;}.cls-7{fill:#e5be9e;}.cls-8{fill:#f4c7a2;}.cls-9{fill:#3b3d3d;}.cls-10{fill:#fff;}.cls-11{fill:#4c3626;}.cls-12{fill:#ad3936;}.cls-13{fill:#e0605c;}</style></defs><title>资源 31</title><g id="图层_2" data-name="图层 2"><g id="Layer_1" data-name="Layer 1"><path class="cls-1" d="M50.37,150.41S13.05,187,2.35,260H44c4-19.92,17.31-87.1,17.31-105.86C61.29,154.15,58.36,143.77,50.37,150.41Z"/><path class="cls-2" d="M30.18,184.94C21.65,203.61.48,251.63,18.33,258s19-8.34,20.77-20,11.27-69.7,11.27-69.7S38.72,166.26,30.18,184.94Z"/><path class="cls-1" d="M135.41,150.41c-8-6.64-10.91,3.74-10.91,3.74,0,18.76,13.28,85.94,17.3,105.86h41.64C172.74,187,135.41,150.41,135.41,150.41Z"/><path class="cls-2" d="M135.41,168.39s9.46,58.08,11.28,69.7,2.92,26.37,20.77,20-3.32-54.43-11.85-73.1S135.41,168.39,135.41,168.39Z"/><path class="cls-2" d="M145.62,260c-3.25-27.78-10.55-82.37-19.93-105l-69.26.4S42.37,214.18,39.17,260Z"/><path class="cls-1" d="M59.4,155.41h-3S42.37,214.18,39.17,260H57.64c-3.23-3.13-5.87-7.79-7.92-14.74C43.39,223.92,55.33,174,55.33,174Z"/><path class="cls-1" d="M136,260h9.64c-1.32-11.26-3.3-26.92-5.82-43.08a230.58,230.58,0,0,1,.36,35A11.56,11.56,0,0,1,136,260Z"/><path class="cls-1" d="M92.15,189.79c-12.15,0-26-30-25.75-31.42l1-6.32h49.45l1,6.32C118.14,159.78,104.31,189.79,92.15,189.79Z"/><path class="cls-3" d="M73.84,159.58s13,22.68,18.31,22.68,18.32-22.68,18.32-22.68Z"/><path class="cls-4" d="M92.18,0C7.74,0,19.53,59.62,19.37,70.7c-.11,7.3,2.6,36.15,2.52,37.35-2.06,31.32,31.12,57,70,57.29s70.5-25,70.7-56.38c0,0,2.48-30.95,2.52-38.26C165.16,59.11,176.62,0,92.18,0Z"/><path class="cls-5" d="M48.72,127.25a1.28,1.28,0,0,1-1.32,1.22l-4.28-.16A1.27,1.27,0,0,1,41.89,127h0a1.27,1.27,0,0,1,1.32-1.23l4.28.16a1.27,1.27,0,0,1,1.23,1.32Z"/><path class="cls-5" d="M141,127.85a1.27,1.27,0,0,1-1.31,1.22l-4.29-.16a1.27,1.27,0,0,1-1.22-1.32h0a1.27,1.27,0,0,1,1.31-1.23l4.29.16a1.28,1.28,0,0,1,1.22,1.33Z"/><path class="cls-4" d="M153.57,129.17a23.34,23.34,0,0,0,19.63-.26c10.3-5,15.38-25.72,2-30.66s-17.46,10.39-17.46,10.39Z"/><path class="cls-6" d="M159.78,122.88s4.24-22.66,14.14-14.83c6.09,4.8,2.48,11.52-3.17,14.27C167.21,124.05,162.6,124.2,159.78,122.88Z"/><path class="cls-7" d="M159.9,122.62l1.47-5.71s18.84-5.37,13.55,2.19S159.9,122.62,159.9,122.62Z"/><path class="cls-4" d="M29.47,127.87a23.33,23.33,0,0,1-19.62-.51c-10.24-5.17-15-25.92-1.64-30.69s17.32,10.62,17.32,10.62Z"/><path class="cls-6" d="M23.34,121.5s-3.94-22.71-13.95-15c-6.15,4.72-2.63,11.49,3,14.31C15.9,122.57,20.5,122.79,23.34,121.5Z"/><path class="cls-7" d="M23.22,121.24l-1.39-5.73s-18.77-5.62-13.58,2S23.22,121.24,23.22,121.24Z"/><path class="cls-8" d="M92.64,121.66a21.15,21.15,0,0,1-11.77-3.61,1.36,1.36,0,1,1,1.65-2.17c.39.28,9.37,6.86,20.27-.07a1.37,1.37,0,0,1,1.47,2.31A21.34,21.34,0,0,1,92.64,121.66Z"/><path class="cls-9" d="M138.53,94.6a11.35,11.35,0,1,1-15.73-3.17A11.35,11.35,0,0,1,138.53,94.6Z"/><path class="cls-10" d="M130.84,91.94c1.12,1.7-.35,4.66-3.3,6.62s-6.25,2.17-7.38.48.35-4.66,3.3-6.62S129.71,90.25,130.84,91.94Z"/><path class="cls-9" d="M66.73,94.15A11.35,11.35,0,1,1,51,91,11.34,11.34,0,0,1,66.73,94.15Z"/><path class="cls-10" d="M59,91.49c1.13,1.7-.35,4.66-3.29,6.62s-6.25,2.17-7.38.48.35-4.66,3.3-6.62S57.91,89.8,59,91.49Z"/><path class="cls-10" d="M32.08,53.55h-.36a3.53,3.53,0,0,1-3.15-3.85c0-.41,1.1-10.21,9-20.24,7.2-9.1,21.68-20.18,49.8-21.33a3.52,3.52,0,0,1,.28,7C67.55,16,52.14,22.43,43.12,33.81c-6.67,8.43-7.54,16.5-7.55,16.58A3.51,3.51,0,0,1,32.08,53.55Z"/><path class="cls-10" d="M34.43,61.13a3.37,3.37,0,1,1-3.37-3.37A3.37,3.37,0,0,1,34.43,61.13Z"/><path class="cls-11" d="M36.78,83.11s15.5.79,19.34,1.21c5.83.65,13.05,2,13.05,2s0-8.32-1.09-10.09S54.52,73.6,46.86,74,38.5,74.34,36.78,83.11Z"/><path class="cls-11" d="M148.44,82.9s-15.49,1-19.33,1.45c-5.81.71-13,2.18-13,2.18s-.1-8.33,1-10.11,13.53-2.81,21.19-2.47S146.62,74.15,148.44,82.9Z"/><path class="cls-12" d="M116.79,142.37C112.53,148,105,154,92.43,154c-12.88,0-20.47-6.31-24.7-12C64.23,137.31,120.47,137.51,116.79,142.37Z"/><path class="cls-13" d="M92.43,154a30.16,30.16,0,0,0,17.66-5.2c-5-3.3-12.13-6.21-17.7-6.21a28,28,0,0,0-17.5,6.32h0A30.38,30.38,0,0,0,92.43,154Z"/></g></g></svg>