<svg xmlns="http://www.w3.org/2000/svg" viewBox="0 0 182.24 260"><defs><style>.cls-1{fill:#515151;}.cls-2{fill:#f9dab4;}.cls-3{fill:#efc4a0;}.cls-4{fill:#c65044;}.cls-5{fill:#4d9980;}.cls-6{fill:#e5a82e;}.cls-7{fill:#f4d3b0;}.cls-8{fill:#3a332d;}.cls-9{fill:#393c3d;}.cls-10{fill:#f4bb3b;}</style></defs><title>资源 286</title><g id="图层_2" data-name="图层 2"><g id="Layer_1" data-name="Layer 1"><path class="cls-1" d="M182.19,156.69s-12.64,3.13-17-3.12c0,0,6.13-1.51,5.88-9.27,0,0-10-.62-10.14-16.39S176.4,0,91.12,0,21.45,112.14,21.32,127.91,11.19,144.3,11.19,144.3c-.25,7.76,5.88,9.27,5.88,9.27-4.38,6.25-17,3.12-17,3.12-1.13,20.53,18,34.56,18,34.56-3.09,3.08-8.33,1.49-8.33,1.49.62,32.64,36.09,41.08,36.09,41.08-2.16,5.86-8.79,5.86-8.79,5.86A34.64,34.64,0,0,0,52.9,260h76.44a34.68,34.68,0,0,0,15.84-20.32s-6.63,0-8.79-5.86c0,0,35.47-8.44,36.09-41.08,0,0-5.25,1.59-8.33-1.49C164.15,191.25,183.31,177.22,182.19,156.69Z"/><path class="cls-2" d="M80.14,181.57,64.41,163.49s-42.76,50.22-42.9,55.68,24.55,33.65,25.11,34.66c0,0-4.19,1.21-6.19,3.37A16.67,16.67,0,0,0,38.3,260H58.53c1.14-8,2.24-13.81,2.24-13.81s-22.35-23.64-22.22-26.37S80.14,181.57,80.14,181.57Z"/><path class="cls-3" d="M50.47,260h2.37l1.29-21-1.71-1.89A128.7,128.7,0,0,0,50.47,260Z"/><path class="cls-2" d="M126.26,176.18c-3.62-10.23-8.45-12.69-8.45-12.69-1.07,3.42.2,60,3.82,96.51H147C145.93,242.6,134.4,199.12,126.26,176.18Z"/><path class="cls-3" d="M120.24,179.09,127.92,260h5.14A623,623,0,0,0,120.24,179.09Z"/><path class="cls-2" d="M91.11,158.88h0c-.35,0-22.69,2.89-26.7,4.61,0,0-9.28,56.86-12.2,96.51H130c-2.93-39.65-12.21-96.51-12.21-96.51-4-1.72-26.34-4.57-26.69-4.61h0Z"/><path class="cls-4" d="M126.26,223.07l-3-23s-8.3-15.24-15.79-13.85-11.71,7.73-16.36,7.89c-4.64-.16-8.86-6.51-16.35-7.89S59,200.06,59,200.06l-3,23c6.07-2.92,34.8-2,35.15-1.95h0C91.47,221.11,120.2,220.15,126.26,223.07Z"/><path class="cls-5" d="M139,254.5a5.91,5.91,0,0,0-6.64-6.64,5.91,5.91,0,0,0-9.39,0,5.91,5.91,0,0,0-6.64,6.64,5.9,5.9,0,0,0-2.32,4.7,5.29,5.29,0,0,0,.06.8h11.77l0,0a6.49,6.49,0,0,0,0-.77,6.66,6.66,0,0,0,0-.78,5.47,5.47,0,0,0,.58-.5,6.94,6.94,0,0,0,.51-.59,6.48,6.48,0,0,0,.77.06,6.65,6.65,0,0,0,.78-.06,4.7,4.7,0,0,0,1.09,1.09,6.65,6.65,0,0,0-.06.78,6.48,6.48,0,0,0,.06.77l0,0h11.77a5.29,5.29,0,0,0,.06-.8A5.9,5.9,0,0,0,139,254.5Z"/><path class="cls-6" d="M127.63,250.65a8.52,8.52,0,0,0-8.44,9.35h16.88a8.43,8.43,0,0,0-8.44-9.35Z"/><path class="cls-7" d="M44.65,106.38s-7.06-6.11-12.85.24C27,111.86,30.45,143,56.16,142Z"/><path class="cls-7" d="M137.58,106.38s7.06-6.11,12.86.24c4.77,5.24,1.35,36.35-24.37,35.4Z"/><path class="cls-2" d="M145.18,85.26c0,44.86-24.21,81.24-54.06,81.24-37.55,0-54.06-36.38-54.06-81.24S145.18,40.39,145.18,85.26Z"/><path class="cls-8" d="M52.37,116.16a1.24,1.24,0,0,1-1.25-1.24c0-3.33,1.67-9.68,8.13-9.9s9.19,5,9.82,7.77a1.25,1.25,0,0,1-2.44.56c-.06-.26-1.44-5.83-7-5.83h-.29c-5.64.19-5.71,7.09-5.71,7.39a1.24,1.24,0,0,1-1.24,1.25Z"/><path class="cls-8" d="M50.23,116.1a16.32,16.32,0,0,1-5.38-1,1.25,1.25,0,1,1,.82-2.36,11.8,11.8,0,0,0,6.36.64,1.25,1.25,0,0,1,.69,2.41A9.71,9.71,0,0,1,50.23,116.1Z"/><path class="cls-8" d="M52.53,113.5c-3.67,0-7.89-3.44-8.07-3.59a1.25,1.25,0,1,1,1.6-1.93c1,.85,4.23,3,6.53,3h0a1.26,1.26,0,0,1,0,2.51Z"/><path class="cls-8" d="M130.32,116.16h0a1.25,1.25,0,0,1-1.25-1.26c0-.29-.06-7.19-5.71-7.38-5.85-.2-7.24,5.58-7.29,5.83a1.26,1.26,0,0,1-1.5.94,1.24,1.24,0,0,1-.94-1.5c.63-2.78,3.5-8,9.82-7.77s8.14,6.57,8.12,9.9A1.24,1.24,0,0,1,130.32,116.16Z"/><path class="cls-8" d="M132.46,116.1a9.58,9.58,0,0,1-2.48-.27,1.25,1.25,0,0,1,.68-2.41,12,12,0,0,0,6.37-.64,1.25,1.25,0,1,1,.81,2.36A16.28,16.28,0,0,1,132.46,116.1Z"/><path class="cls-8" d="M130.16,113.5h-.09a1.26,1.26,0,0,1,0-2.51h.06c2.29,0,5.44-2.17,6.47-3a1.25,1.25,0,1,1,1.59,1.93C138.05,110.06,133.84,113.5,130.16,113.5Z"/><path class="cls-4" d="M79.65,142s2.87-4.32,6.19-4.12S91,141.22,91,141.22s3-3.32,6.47-3.25,5,4.32,5,4.32-3.46,8.09-11.74,8.09S79.65,142,79.65,142Z"/><path class="cls-3" d="M85.34,128s.57-5.11,5.49-5.13S96.76,128,96.76,128s-2.69-3.14-5.83-3.14S85.34,128,85.34,128Z"/><path class="cls-9" d="M113.6,100.45l.11-3a.69.69,0,0,1,.62-.65c3.38-.35,20.23-1.76,28.17,3a.68.68,0,0,1,.22,1l-1.62,2.45a.7.7,0,0,1-.82.27c-2.27-.85-12.06-4-25.9-2.36A.69.69,0,0,1,113.6,100.45Z"/><path class="cls-9" d="M68.61,100.06l-.15-3a.7.7,0,0,0-.63-.65C64.45,96.16,47.59,95,39.7,99.82a.69.69,0,0,0-.2,1l1.66,2.43a.68.68,0,0,0,.81.25c2.27-.87,12-4.19,25.88-2.69A.69.69,0,0,0,68.61,100.06Z"/><path class="cls-1" d="M38.07,103.76S88.2,98.7,114.56,75.38c0,0,12.77,19,32.92,17.39V41.93L30,51V82.1Z"/><path class="cls-5" d="M31.49,23.86S38.55,10.7,41.76,11.77s-2,10.38-2,10.38,8.67-9.63,10.81-7.38-3.21,10.91-3.21,10.91,10.7-1.6,11,1.61-11.24,7.38-11.24,7.38,10.49,4.82,7.71,8.46S42.4,41.74,42.4,41.74,51.5,51.8,47,55.33,37.48,53,37.48,53s5.89,13,1.18,14.88-9-6.42-9-6.42S31,71.6,26.78,72.13s-4.17-7.38-4.17-7.38S20.36,69.67,17,69s.86-14.13.86-14.13Z"/><path class="cls-10" d="M39.69,20.35c3.87,2.3,2.17,12.35-3.82,22.45S21.89,59.23,18,56.93s-2.18-12.35,3.81-22.45S35.81,18.05,39.69,20.35Z"/><path class="cls-6" d="M26.35,54.35l-.28-.11,2.08-3.05,1.12.45c.42-.43.83-.88,1.25-1.36l-1.38-.56,2.08-3,1.65.67c.35-.47.69-1,1-1.45l-1.68-.68,2.07-3.06,1.58.65c.3-.51.59-1,.87-1.52l-1.45-.59,2.07-3,1,.41c.25-.53.48-1.06.7-1.58l-.72-.3,1.89-2.78a30.13,30.13,0,0,0,1.25-4.92L39.79,31l-3.42-1.39,2.08-3.06,3.15,1.29c.08-.64.13-1.24.15-1.81l-2.31-.94,1.84-2.7a4.22,4.22,0,0,0-1-1.59L37.8,24.42,34.39,23l2-2.95a11.23,11.23,0,0,0-3,1.39l-.6.89-.44-.18q-.78.55-1.56,1.23l1,.41-2.08,3.06-1.75-.72c-.4.44-.81.9-1.21,1.38l2,.8L26.6,31.41l-2.19-.89c-.34.47-.67,1-1,1.45l2.2.9-2.07,3-2.06-.84q-.43.76-.84,1.53l1.91.77-2.08,3.06L19,39.85c-.24.53-.47,1.06-.68,1.59l1.12.45-2.08,3-.26-.1A27.84,27.84,0,0,0,16,50l2-3,3.41,1.39-2.08,3L16,50.15A16.9,16.9,0,0,0,15.94,52l2.43,1-1.69,2.48a3.71,3.71,0,0,0,1.17,1.36L20,53.64,23.43,55l-1.28,1.88A15.9,15.9,0,0,0,26.35,54.35Zm1.15-5.29-3.42-1.4,2.08-3L29.58,46Zm3.08-4.52-3.42-1.39,2.07-3,3.42,1.39ZM33.65,40l-3.42-1.39,2.07-3L35.72,37Zm5.15-7.56-2.08,3.06L33.3,34.13l2.07-3.06Zm-5.41-8,3.42,1.39-2.08,3.05-3.42-1.39ZM30.32,29l3.41,1.39-2.07,3.05-3.42-1.39Zm-3.07,4.52,3.41,1.38-2.07,3-3.41-1.39ZM24.19,38l3.4,1.39-2.07,3-3.41-1.39ZM19,45.61l2.07-3,3.41,1.38L22.44,47Zm2,6.57,2.08-3,3.42,1.39-2.08,3Z"/></g></g></svg>