<svg xmlns="http://www.w3.org/2000/svg" viewBox="0 0 137.75 259.99"><defs><style>.cls-1{fill:#e3bc96;}.cls-2{fill:#d88832;}.cls-3{fill:#cc7d2e;}.cls-4{fill:#f4a556;}.cls-5{fill:#e2963b;}.cls-6{fill:#8e5c3a;}.cls-7{fill:#774e32;}.cls-8{fill:#d3a784;}.cls-9{fill:#47413e;}.cls-10{fill:#fff;}.cls-11{fill:#c4987a;}</style></defs><title>资源 361</title><g id="图层_2" data-name="图层 2"><g id="Layer_1" data-name="Layer 1"><path class="cls-1" d="M104.87,202.58s.88,44,5.2,57.41h13.29c.61-29.43-6.73-61.54-6.73-61.54Z"/><path class="cls-2" d="M94.33,172.68S112,176.59,120.7,204L95,208.62Z"/><path class="cls-3" d="M115.25,191.34c-.8,4.44-3,8.24-8.82,6.4-3.38-1.07-3.22-13-3-20.3a26.47,26.47,0,0,0-9.11-4.76L95,208.62,120.7,204A66.58,66.58,0,0,0,115.25,191.34Z"/><path class="cls-1" d="M33.75,202.58s-.88,44-5.19,57.41H15.27C14.66,230.56,22,198.45,22,198.45Z"/><path class="cls-2" d="M44.29,172.68S26.63,176.59,17.93,204l25.72,4.58Z"/><path class="cls-3" d="M23.37,191.34c.8,4.44,3,8.24,8.83,6.4,3.37-1.07,3.22-13,3-20.3a26.48,26.48,0,0,1,9.1-4.76l-.64,35.94L17.93,204A66.6,66.6,0,0,1,23.37,191.34Z"/><path class="cls-4" d="M76.24,169.67l-6.93,2.59-6.93-2.59c-25.36,1-25.56,9.31-27.33,12.57-3.62,6.69-1.63,68-1.28,77.75h71.09c.34-9.72,2.34-71.06-1.29-77.75C101.81,179,101.61,170.63,76.24,169.67Z"/><path class="cls-5" d="M73,179.83c.69,1.61,2.25,6.62,4.79,3.85,2.8-3,2-8.29,4.91-11.1a7.17,7.17,0,0,1,4.4-1.84,81.36,81.36,0,0,0-10.9-1.07l-6.93,2.59-6.93-2.59a66.65,66.65,0,0,0-15,2,34.31,34.31,0,0,1,8.3,2.63c3.56,2,4.28,6.84,7.78,8.82,5.13,2.89,4.36-4.26,5.79-7.28a.66.66,0,0,1,.9-.23A9.08,9.08,0,0,1,73,179.83Z"/><path class="cls-2" d="M64.72,166.31s-4.33.6-5.35,3.54-.93,9.35,6.74,13.39c0,0,.45-8.59,2.75-10.31,0,0,5.7,3.35,6.78,9.11,0,0,7.13-7.46,1.66-15.57S64.72,166.31,64.72,166.31Z"/><path class="cls-6" d="M4.15,103.74s-2.48-29.59.59-46.85c0,0-4.44-12.53-3.92-19.53L5,38.72s-3.17-9.24.19-15.55l2.58,4.2s-1.87-8.78,4.55-14.18L12.21,20S19,1.45,45.26,3.54c0,0,24.61,11.28,40.95,4.07,8.09-3.57,16-.24,18.55.62,8.07,2.72,21.75,11.44,19.75,31.12l6.19,30.73s1.46,22.79-.41,32.4l-10,26.15-93.26-1.17-12.87-4.11-4.14-18.66Z"/><path class="cls-7" d="M104.71,81.58S106,71.85,101,68.67s-1.66,1.68-1.66,1.68Z"/><path class="cls-7" d="M96.43,78.63s1.2-8.47-5.11-11.23-3.53,1.27-3.53,1.27Z"/><path class="cls-7" d="M89,78.54S86.92,68.7,78.18,67.61s17,20.2,17,20.2Z"/><path class="cls-7" d="M56.25,65.2s-2.06,6.15,5.87,7.74S56.25,65.2,56.25,65.2Z"/><path class="cls-7" d="M33.82,66.67c-3.09,1.7-2.2,6.51-1.18,9.07.6,1.52,2.66,3,3.39,4.15.73-.09,1.38-.82,2.1-1C35.75,75.45,34.71,70.73,33.82,66.67Z"/><path class="cls-7" d="M46.62,69.9c-1.62-1.61-1-4.54-1.5-4.12a5.24,5.24,0,0,0-1.33,4.9c.6,2,4.68,6.17,8.7,6.3a.6.6,0,0,1,.5.27l.61-.09c-.38.06-1.72-1.64-2-1.93a16.49,16.49,0,0,0-1.81-1.92C48.35,72.18,47.9,71.18,46.62,69.9Z"/><path class="cls-7" d="M11.53,62.63l.46.08c8,.27,16.27-3.4,23.36-6.26,9-3.63,17.91-7.15,27.82-7.2a71.29,71.29,0,0,1,17.27,2,40.33,40.33,0,0,0,6.47,1.53A71.25,71.25,0,0,1,95,54.2a41.35,41.35,0,0,1,10.61,3.41c2.55,1.35,5.15,2.87,7.69,4.33,2.75,1.58,5.22,3.61,8,5.21,1,.57,9.55,4.55,9.58,5.06-.07-1.34-.12-2.13-.12-2.13l-6.19-30.73a35.54,35.54,0,0,0,.09-6.41c-2.1-6.7-8.65-11.3-13.79-15.67C105.92,13.13,100.57,8.38,94.42,6a19.38,19.38,0,0,0-8.21,1.61C69.87,14.82,45.26,3.54,45.26,3.54c-1.24-.1-2.42-.14-3.58-.15-4,2.31-7.41,3.29-11.62,7.4-4.48,4.37-10.31,9.61-13.54,14.94-5.85,9.6-9.73,18-12.49,29,.42,1.32.71,2.13.71,2.13-.16.89-.3,1.83-.43,2.78A23.43,23.43,0,0,0,11.53,62.63Z"/><path class="cls-7" d="M119.81,98c-1.09,3.3-1.77,8.63-5.32,10.36-4.88,2.38-11.59.5-16.8.43-8-.1-16-.09-24-.63-15.47-1.05-30.87-3.43-46.23-5.43-5.25-.69-9-2.57-11.63-7.15-1.62-2.81-3.33-5.5-6.68-6.4a11.84,11.84,0,0,0-5.81-.35c.26,8.56.8,14.95.8,14.95l5.9,1,4.14,18.66,12.87,4.11,93.26,1.17,10-26.15a84.22,84.22,0,0,0,.94-13.93C127.42,91.89,121.59,92.55,119.81,98Z"/><polygon class="cls-7" points="0.82 37.35 6.63 42.41 4.97 38.72 0.82 37.35"/><path class="cls-7" d="M5.16,23.17s1.2,7.25,3.3,10l-.72-5.78Z"/><path class="cls-7" d="M12.29,13.19a10,10,0,0,0-.63,11.54L12.21,20Z"/><path class="cls-1" d="M19.7,121S14.56,94,10.85,93.1.13,92.74,0,102.6s4.85,14.51,9.78,14.79c0,0,2.42,42.73,22.09,45.6s29.73,3.44,29.73,3.44,1.48,4.84,7.82,4.92,8.4-6,8.4-6,31.57-.95,38.75-10.22c5.61-7.23,9.68-27.92,10.8-29.66s11.64-2.92,10.26-14.76-6.38-15.41-10.33-15-6.67,26.19-8.21,26.61-5.94,2.55-6.56-.74-3.08-51.06-3.08-51.06a16.72,16.72,0,0,1-4.74,11.11s-1.62-10.75-5.33-11.23c0,0,.35,6.57-2.95,8.28,0,0-1.84-10.54-8.64-10,0,0,5.61,7.07,1.2,9.87,0,0-7.33-9.79-12.58-10,0,0,3.16,10.14.74,10.54S69.3,74.24,58.26,67a5.48,5.48,0,0,0,3.86,6s-4.63,2.57-15.5-3c0,0,.81,4.61,4.29,6.84,0,0-13.59.27-16.55-7.43,0,0-2.67,3.69,1.2,9.43,0,0-11.58-2.55-12.35-10.45,0,0-4.05,8.93.2,53.43C23.41,121.72,20.12,123.16,19.7,121Z"/><path class="cls-8" d="M132.58,119.24c-3.16.85-8.31,1.4-9,5.38-.34,2.09-.16,4.23-.56,6.31-.43,2.33-1.06,4.6-1.66,6.9-.87,3.39-1.7,7-3.44,10.06-3.94,7-11.25,9.65-18.72,11.39-4.93,1.16-9.9,1.81-14.87,2.73-2.27.41-5.51.63-7.13,2.49a16.94,16.94,0,0,1-2.52,2.82c-2.73,2-5.21,1.8-7.85-.16-3.91-2.91-7.13-4.4-12.06-4.78-13.67-1-32.94-3-37.49-18.75C16,139,15.52,134,14.74,129.22c-.62-3.8-.85-10.26-3.8-13.1-2.49-2.39-6-2.76-8.9-4a9.56,9.56,0,0,0,7.74,5.31S12.2,160.12,31.87,163s29.73,3.44,29.73,3.44,1.48,4.84,7.82,4.92,8.4-6,8.4-6,31.57-.95,38.75-10.22c5.61-7.23,9.68-27.92,10.8-29.66.85-1.33,7.19-2.35,9.52-8A16.43,16.43,0,0,1,132.58,119.24Z"/><path class="cls-8" d="M23.91,73c2.34,2.31,4,4.91,7.29,6.09,1,.37,7.15,1.84,5.75-.15-1-1.39-2.06-2.7-2.16-4.44a.66.66,0,0,1,.84-.62c4.7,1.56,9,4,14,4.25.55,0,4.78.42,3.58-.81A28,28,0,0,1,51,74.83c-.35-.48.25-1.11.76-1,2,.63,4,1.44,6,2a17.67,17.67,0,0,0,3.93.85c.49,0,5.31.47,3-2.27a.66.66,0,0,1,1-.92c3.07,2.75,7,5.73,11.13,6.7,5.84,1.4,4.16-3.91,3-7.2a.66.66,0,0,1,1.1-.62,78.82,78.82,0,0,1,6.71,7.93c3.19,4.54,4.55-3,4.61-5,0-.6,1-.94,1.23-.31a16.75,16.75,0,0,1,.81,2.32c.31,1.09,1.53,5.74,4.23,2.75a10.59,10.59,0,0,0,2.3-4.66c.15-.6,1.16-.64,1.26,0a19.18,19.18,0,0,1,.1,4.35c-.21,3,3.4,2.76,5.31,1.55a11,11,0,0,0,2.42-2.14c-.28-5.21-.46-8.75-.46-8.75a16.72,16.72,0,0,1-4.74,11.11s-1.62-10.75-5.33-11.23c0,0,.35,6.57-2.95,8.28,0,0-1.84-10.54-8.64-10,0,0,5.61,7.07,1.2,9.87,0,0-7.33-9.79-12.58-10,0,0,3.16,10.14.74,10.54S69.3,74.24,58.26,67a5.48,5.48,0,0,0,3.86,6s-4.63,2.57-15.5-3c0,0,.81,4.61,4.29,6.84,0,0-13.59.27-16.55-7.43,0,0-2.67,3.69,1.2,9.43,0,0-11.58-2.55-12.35-10.45a17.25,17.25,0,0,0-.87,3.79A3.36,3.36,0,0,1,23.91,73Z"/><path class="cls-8" d="M19.7,121S14.56,94,10.85,93.1C8,92.38,3.11,92.59,1,97.32a7.42,7.42,0,0,1,2.44-1c3.34-2,6.71-.84,8.78,2.94a21.66,21.66,0,0,1,2.15,8.08c.49,1.64,1,3.3,1.35,5,.67,2.82,1.13,6.31,2.85,8.71,1,1.37,1.63,1.54,2.07,1.12A1.29,1.29,0,0,1,19.7,121Z"/><path class="cls-8" d="M127.3,95.66c-3.94.39-6.67,26.19-8.21,26.61s-5.94,2.55-6.56-.74c-.06-.31-.13-1-.22-2-.44,2.1-.59,4.26,1,5.58a5.14,5.14,0,0,0,1,.67c4,.76,5.8-1.62,7.47-4.86,1.5-5.74,1.59-12.45,3.91-18.08,1.57-3.82,6.89-4.7,9.21-1.32l.66.64C133.32,97.06,130.06,95.39,127.3,95.66Z"/><path class="cls-4" d="M11.08,57.63,4,57.1s3.52-3.63,5.51-11.53C11.4,37.92,29.55-.82,61.07,0s58.28,21.13,64.55,38.7c6,16.93,5.91,27,5.91,27l-7.11-2.06S84.86,36,69.76,37.35,11.08,57.63,11.08,57.63Z"/><path class="cls-5" d="M129.6,60.65c-6.54-6-10.29-14.31-16.57-20.59a29.49,29.49,0,0,0-12.48-7.91c-4.37-1.33-8.85-2-13.31-2.93-17.95-3.69-38.53-4.78-54.68,5.5C23,40.81,15.45,51.52,4.89,56A13.23,13.23,0,0,1,4,57.1l7.11.53S54.67,38.69,69.76,37.35s54.66,26.3,54.66,26.3l7.11,2.06a37.5,37.5,0,0,0-.25-3.78A18.19,18.19,0,0,1,129.6,60.65Z"/><path class="cls-2" d="M4,57.1s4.64,5.31,13.88,2.15S46,46,70.53,48.52s31.71,3.25,41.05,9.28,13.88,12.43,20,7.91c0,0-6.21-3.36-13.73-15.28S96,30.23,66.43,30.3,25.91,44.7,22.15,47.82,11.85,57.41,4,57.1Z"/><path class="cls-3" d="M124.42,64c-6.2-2.9-10.76-8.25-17-11.09a84.41,84.41,0,0,0-20.58-5.87c-7.68-1.35-15.58-3-23.4-2.85a79.56,79.56,0,0,0-23.35,4C32.39,50.69,25,53.78,17.4,56.6c-2.83,1.06-6.24,2.3-9.3,1.49a14.8,14.8,0,0,1-2.65-1A14.62,14.62,0,0,1,4,57.1s4.64,5.31,13.88,2.15S46,46,70.53,48.52s31.71,3.25,41.05,9.28,13.88,12.43,20,7.91c0,0-.24-.13-.67-.42A15.06,15.06,0,0,1,124.42,64Z"/><path class="cls-6" d="M27,97l14.6-11.13s-4.28-7.4-12.85-1.22S27,97,27,97Z"/><path class="cls-6" d="M87.7,89.21,104.27,96s3.23-7-4-10.82S87.7,89.21,87.7,89.21Z"/><path class="cls-9" d="M102.44,104a8.76,8.76,0,1,1-8.64-8.87A8.75,8.75,0,0,1,102.44,104Z"/><path class="cls-10" d="M93.26,102.48c-1.13,1.85-3.12,2.7-4.43,1.89s-1.45-3-.32-4.8,3.11-2.7,4.42-1.9S94.39,100.63,93.26,102.48Z"/><path class="cls-9" d="M50.13,102.42a8.75,8.75,0,1,1-8.64-8.86A8.75,8.75,0,0,1,50.13,102.42Z"/><path class="cls-10" d="M41,100.94c-1.13,1.85-3.12,2.7-4.43,1.89s-1.46-3-.33-4.8,3.12-2.69,4.43-1.89S42.09,99.09,41,100.94Z"/><path class="cls-8" d="M55.12,96.12s-5,28.92,2.56,34.68,18.19,4.85,23.59-2.13,1.69-24.07-2-29.92S60.79,85.91,55.12,96.12Z"/><path class="cls-1" d="M56.38,94.55S51.65,122,58.81,127.42s17.24,4.6,22.36-2,1.6-22.82-1.94-28.36S61.75,84.87,56.38,94.55Z"/><path class="cls-8" d="M128,116.44s-2.48-12.47,2.76-9.83c3.22,1.61,3,5.65,1.37,7.92A4.48,4.48,0,0,1,128,116.44Z"/><path class="cls-11" d="M128,116.28l-.47-3.2s6.28-5.58,5.62-.85A4.46,4.46,0,0,1,128,116.28Z"/><path class="cls-8" d="M10.27,111.24s.07-12.71-4.57-9.12c-2.86,2.19-1.92,6.12.15,8A4.46,4.46,0,0,0,10.27,111.24Z"/><path class="cls-11" d="M10.24,111.09l-.15-3.23s-7.22-4.29-5.68.23A4.48,4.48,0,0,0,10.24,111.09Z"/><path class="cls-8" d="M47.09,137.72s-1.87-2.59-3.72-2.18-1.73,1.44-2.17,2.18-1.37.06-1.29-.92.73-3.5,4.09-3,4,3,4,3S48.15,138.34,47.09,137.72Z"/><path class="cls-8" d="M93.84,136s1.07,17.93-26.52,19.09-23.59-14.54-23.59-14.54.55-1.44,1.62-.17.06,5.33,2.9,8S56.79,155,68,153.53s22.06-5.29,23.8-17.33C91.82,136.2,92.77,134.16,93.84,136Z"/></g></g></svg>