<?xml version="1.0" standalone="no"?><!DOCTYPE svg PUBLIC "-//W3C//DTD SVG 1.1//EN" "http://www.w3.org/Graphics/SVG/1.1/DTD/svg11.dtd"><svg t="1548420537166" class="icon" style="" viewBox="0 0 1024 1024" version="1.1" xmlns="http://www.w3.org/2000/svg" p-id="17788" xmlns:xlink="http://www.w3.org/1999/xlink" width="200" height="200"><defs><style type="text/css"></style></defs><path d="M260.218 626.441L155.699 838.205l164.503-29.083 77.253 148.144 107.711-218.137c-97.973-1.941-184.147-45.534-244.948-112.688zM755.293 633.583c-59.7 63.549-145.199 103.662-239.226 105.545l112.239 219.046 74.526-149.053 165.412 26.357L760.998 627.35a323.13 323.13 0 0 1-5.705 6.233z" fill="#E14C4B" p-id="17789"></path><path d="M514.925 260.932c-26.281 28.91-56.317 52.563-95.364 74.339h188.1c-36.794-19.899-65.704-43.177-92.736-74.339z" fill="#F5CB2B" p-id="17790"></path><path d="M755.293 633.583a326.452 326.452 0 0 0 5.706-6.233c53.623-59.985 87.25-138.146 87.25-225.397 0-186.316-150.87-337.186-337.186-337.186s-337.186 150.87-337.186 337.186c0 86.341 32.719 164.503 86.341 224.488 60.893 67.255 148.144 109.972 245.391 111.789l-0.443 0.898 0.443 0.011h9.997c0.153-0.003 0.306-0.009 0.46-0.012l-0.46-0.897c94.209-0.88 179.889-40.996 239.687-104.647z m-409.696-72.292v-34.917h146.425v-82.599H367.373V409.61h124.649v-39.798h-90.108v-24.78c-14.267 7.509-30.036 14.643-46.556 21.776-6.758-12.014-14.643-24.78-22.151-35.668 86.729-34.166 136.288-69.834 167.45-113.761l46.18 4.13-8.635 12.014c42.05 45.805 87.48 72.837 152.432 91.985-6.758 11.263-15.018 25.906-20.65 37.545-18.022-6.758-34.166-13.516-49.184-21.025v27.783h-87.48v39.798h123.9v34.166H533.322v82.599h146.425v34.917h-334.15z m37.92-91.985l29.661-18.397c17.646 18.772 30.787 33.79 45.805 51.437l-31.913 19.899c-11.639-15.018-26.657-33.791-43.553-52.939z m258.31-1.126c-16.144 19.148-30.411 34.917-48.058 53.689l-30.411-19.148c15.393-16.52 32.289-34.917 46.18-52.188l32.289 17.647z" fill="#F5CB2B" p-id="17791"></path><path d="M260.218 626.441c60.802 67.154 146.975 110.746 244.948 112.687l0.443-0.898c-97.247-1.817-184.498-44.533-245.391-111.789zM755.293 633.583c-59.798 63.652-145.477 103.767-239.686 104.648l0.46 0.897c94.027-1.883 179.525-41.996 239.226-105.545z" fill="#F5CB2B" p-id="17792"></path><path d="M413.178 450.909l-29.661 18.397c16.895 19.148 31.913 37.92 43.552 52.938l31.913-19.899c-15.017-17.645-28.158-32.663-45.804-51.436z" fill="#CC9F29" p-id="17793"></path><path d="M679.747 526.375H533.322v-82.599H657.22V409.61H533.322v-39.798h87.48v-27.783c15.018 7.509 31.162 14.267 49.184 21.025 5.632-11.639 13.892-26.281 20.65-37.545-64.953-19.148-110.382-46.18-152.432-91.985l8.635-12.014-46.18-4.13c-31.162 43.928-80.722 79.595-167.45 113.761 7.509 10.888 15.393 23.653 22.151 35.668 16.52-7.134 32.289-14.267 46.556-21.776v24.78h90.108v39.798H367.373v34.166h124.649v82.599H345.597v34.917h334.15v-34.918zM419.561 335.271c39.047-21.776 69.083-45.429 95.364-74.339 27.032 31.162 55.942 54.44 92.736 74.339h-188.1z" fill="#CC9F29" p-id="17794"></path><path d="M593.769 521.869c17.646-18.773 31.913-34.541 48.058-53.689l-32.289-17.646c-13.892 17.271-30.787 35.668-46.18 52.188l30.411 19.147z" fill="#CC9F29" p-id="17795"></path></svg>