<svg xmlns="http://www.w3.org/2000/svg" viewBox="0 0 177.55 260"><defs><style>.cls-1{fill:#f9dab4;}.cls-2{fill:#f7cea6;}.cls-3{fill:#e0dbd3;}.cls-4{fill:#f9f5ed;}.cls-5{fill:#f9f7f2;}.cls-6{fill:#e5be9e;}.cls-7{fill:#f4c7a2;}.cls-8{fill:#a5a09b;}.cls-9{fill:#3b3d3d;}.cls-10{fill:#fff;}.cls-11{fill:#c6c1ba;}.cls-12{fill:#ad3936;}.cls-13{fill:#e0605c;}</style></defs><title>资源 26</title><g id="图层_2" data-name="图层 2"><g id="Layer_1" data-name="Layer 1"><path class="cls-1" d="M161.37,260H141.14s-5-54.75-6.78-61.6c-1.14-4.36-7.19-11.47-7.19-11.47L124,159.85s19.26,2.88,29.5,26.6C158.88,198.87,159.53,245.56,161.37,260Z"/><path class="cls-2" d="M141.85,260c-.61-10.4-2.38-32.74-3.17-40.69-1.13-11.39-3.78-21.14,1.54-21.85,5.81-.78,12.9,1.44,16.42,2.86-.82-6-1.83-10.9-3.11-13.87-10.24-23.72-29.5-26.6-29.5-26.6l3.14,27.08s6,7.11,7.19,11.47c1.8,6.85,6.78,61.6,6.78,61.6Z"/><path class="cls-1" d="M13.9,260H34.14s5-54.75,6.77-61.6c1.14-4.36,7.19-11.47,7.19-11.47l3.15-27.08s-19.26,2.88-29.5,26.6C16.39,198.87,15.75,245.56,13.9,260Z"/><path class="cls-2" d="M33.42,260c.61-10.4,2.38-32.74,3.17-40.69,1.14-11.39,3.78-21.14-1.53-21.85-5.82-.78-12.9,1.44-16.43,2.86.83-6,1.84-10.9,3.12-13.87,10.24-23.72,29.5-26.6,29.5-26.6L48.1,186.93S42.05,194,40.91,198.4c-1.8,6.85-6.77,61.6-6.77,61.6Z"/><rect class="cls-2" x="60.33" y="150.06" width="60.63" height="67.17"/><path class="cls-3" d="M87.67,189c-24,.13-24-30.9-24-30.9l-13.3-1.26S43.21,213.73,38.21,260h98.91c-1.08-34.12-11.44-102.27-11.44-102.27l-14.1,1.41S111.66,188.87,87.67,189Z"/><path class="cls-4" d="M125.49,174.19c-1.09-6.49-5.46-5.36-9.37-4.23s-2.81,1.27-7,10.3S89.71,192.67,80.65,191s-13.91-11.43-15.32-15.66-1.75-5.2-8.75-5.79c-5.33-.44-6.34,2.28-6.34,2.28s-4.2,48.7-5.83,63.68c-.89,8.17-3.09,20.12-1.9,24.51h90.06c4.12-7.53.49-22.09-.36-30.36C131.12,218.92,126.59,180.68,125.49,174.19Z"/><path class="cls-3" d="M94.71,199.73s-23.33,31.61-35,38.38,2.5,5.65,8.12.57S99.5,204.06,94.71,199.73Z"/><path class="cls-3" d="M95.81,213.41s-16.19,24.4-24.83,30,2.28,4,6.34,0S99.8,216.33,95.81,213.41Z"/><path class="cls-1" d="M157.49,46.18,23.05,46s.66,31.57-1.17,46.22c-1,8.41-.46,15.69-.68,19-2,30.34,30.15,55.25,67.79,55.5s68.29-24.21,68.49-54.62a84.81,84.81,0,0,0-.47-10.07c-.26-2.56-.26-5.35-.4-8.51C156,79.86,157.49,46.18,157.49,46.18Z"/><path class="cls-5" d="M47.2,126.06a1.24,1.24,0,0,1-1.28,1.18l-4.15-.16a1.22,1.22,0,0,1-1.18-1.27h0a1.22,1.22,0,0,1,1.27-1.19l4.15.15a1.25,1.25,0,0,1,1.19,1.29Z"/><path class="cls-5" d="M136.57,126.63a1.23,1.23,0,0,1-1.28,1.18l-4.15-.15a1.23,1.23,0,0,1-1.18-1.28h0a1.23,1.23,0,0,1,1.27-1.19l4.15.16a1.24,1.24,0,0,1,1.19,1.28Z"/><path class="cls-1" d="M148.77,131.7a22.62,22.62,0,0,0,19-.25c10-4.88,14.9-24.92,2-29.71s-16.92,10.07-16.92,10.07Z"/><path class="cls-2" d="M154.79,125.61s4.1-22,13.7-14.37c5.9,4.65,2.4,11.16-3.07,13.83C162,126.74,157.52,126.89,154.79,125.61Z"/><path class="cls-6" d="M154.91,125.35l1.42-5.53s18.25-5.2,13.13,2.12S154.91,125.35,154.91,125.35Z"/><path class="cls-1" d="M28.55,130.44a22.62,22.62,0,0,1-19-.5C-.38,124.93-5,104.84,8,100.21S24.74,110.5,24.74,110.5Z"/><path class="cls-2" d="M22.61,124.27s-3.82-22-13.52-14.54c-5.95,4.57-2.54,11.13,2.9,13.86C15.4,125.31,19.86,125.51,22.61,124.27Z"/><path class="cls-6" d="M22.5,124l-1.36-5.56S3,113,8,120.41,22.5,124,22.5,124Z"/><path class="cls-7" d="M89.75,124.43a20.62,20.62,0,0,1-11.41-3.5,1.32,1.32,0,0,1,1.6-2.11c.38.28,9.08,6.65,19.64-.06A1.32,1.32,0,1,1,101,121,20.68,20.68,0,0,1,89.75,124.43Z"/><path class="cls-8" d="M113.51,86.84s4.27-1.89,11.54-1.57c7,.32,12.89,3.51,13.19,2,.54-2.7-3.19-7.36-9-9.47-5.46-2-10.34-.29-14.08,2.48S109.76,87.87,113.51,86.84Z"/><path class="cls-8" d="M66.91,86.84S62.64,85,55.37,85.27c-7,.32-12.89,3.51-13.19,2-.54-2.7,3.19-7.36,9-9.47,5.46-2,10.34-.29,14.08,2.48S70.66,87.87,66.91,86.84Z"/><path class="cls-9" d="M134.21,100.29A11,11,0,1,1,119,97.22,11,11,0,0,1,134.21,100.29Z"/><path class="cls-10" d="M126.75,97.71c1.09,1.65-.34,4.51-3.19,6.41s-6.06,2.11-7.15.46.34-4.5,3.19-6.4S125.66,96.07,126.75,97.71Z"/><path class="cls-9" d="M64.65,97.77A11,11,0,1,1,49.41,94.7,11,11,0,0,1,64.65,97.77Z"/><path class="cls-10" d="M57.19,95.2c1.09,1.64-.34,4.51-3.19,6.4s-6.06,2.11-7.15.47.34-4.51,3.19-6.41S56.1,93.56,57.19,95.2Z"/><path class="cls-11" d="M161.26,33.39C145.19,1.93,114.4,0,89.3,0S33.42,1.93,17.35,33.39c-3.46,6.77-3.65,25.19-3.65,40.39,0,23.9,2.15,26,2.15,26l5.36,3.81c2.78-20,11-35.68,11.06-37.28,0,0-2.31-14.44,9.17-14.43,11.1,0,31,6.22,47.93,6.22,17.68,0,38.17-6.18,49.34-6.17,10.58,0,7.63,14.48,7.63,14.48.09,2.36,8.12,18,10.86,37.72l5.25-3.08s2.46-3.93,2.46-27.29C164.91,58.58,164.72,40.16,161.26,33.39Z"/><path class="cls-12" d="M47.55,132.35l83.51,0s-8.25,26.83-41.68,26.83S47.55,132.35,47.55,132.35Z"/><path class="cls-13" d="M89.38,159.14c10.84,0,19-2.83,25.13-6.64-7.1-4.2-17.26-7.91-25.19-7.91a42.73,42.73,0,0,0-24.89,8.06h0C70.55,156.39,78.68,159.14,89.38,159.14Z"/></g></g></svg>