<svg xmlns="http://www.w3.org/2000/svg" viewBox="0 0 177.96 288.24"><defs><style>.cls-1{fill:#56beb7;}.cls-2{fill:#7f5732;}.cls-3{fill:#3a332d;}.cls-4{fill:#f4d3b0;}.cls-5{fill:#76c4bb;}.cls-6{fill:#44ada0;}.cls-7{fill:#f9dab4;}.cls-8{fill:#9e6f4c;}.cls-9{fill:#efc4a0;}.cls-10{fill:#492020;}.cls-11{fill:#c65044;}</style></defs><title>资源 160</title><g id="图层_2" data-name="图层 2"><g id="Layer_1" data-name="Layer 1"><path class="cls-1" d="M105.27,186.65c-7.22-4.27-5.11,17.17.25,42.38A289.06,289.06,0,0,1,126,288.24H150.9a13.36,13.36,0,0,0-.18-3.32C137.66,212.22,105.27,186.65,105.27,186.65Z"/><path class="cls-1" d="M53.48,186.65c7.23-4.27,5.11,17.17-.25,42.38a289.39,289.39,0,0,0-20.49,59.21H7.86A13.34,13.34,0,0,1,8,284.92C21.09,212.22,53.48,186.65,53.48,186.65Z"/><path class="cls-2" d="M144.35,5.6A5.6,5.6,0,1,1,138.76,0,5.59,5.59,0,0,1,144.35,5.6Z"/><path class="cls-3" d="M11.47,146.06l-5-15,8.6-21.18L90.8,80.23,155.06,116s-2.15,29-12.93,32.66S11.47,146.06,11.47,146.06Z"/><path class="cls-4" d="M130.86,141.92s14.54-8.54,14.54,3.92-25.84,23.5-25.84,23.5Z"/><path class="cls-4" d="M19.94,141.92s-14.53-8.54-14.53,3.92,25.84,23.5,25.84,23.5Z"/><path class="cls-5" d="M102.61,187.65H54l-2.31.09S39.23,260.16,42,288.24h72.69c2.74-28.08-9.75-100.5-9.75-100.5Z"/><path class="cls-6" d="M75.44,190.7c0,.66,5.25,74.47,3.07,97.54h2.16c2.16-23.53-2.86-95-3.09-97.72Z"/><path class="cls-6" d="M76.89,197.7s4,11.49,5.92,10.59,5.93-3.77,2.52-6.19S76,195.26,76.89,197.7Z"/><path class="cls-7" d="M6.46,103.92s9.15,90.46,66.76,92.61c.55,0,1.07,0,1.6,0H76c.53,0,1,0,1.6,0,57.62-2.15,66.77-92.61,66.77-92.61L75.4,80.23Z"/><path class="cls-3" d="M9.79,128.57s3.27,5.79,11.89,9.82,20.19,1.34,15.07-2.7a31.15,31.15,0,0,0,10.5,2.7c8.27.46,17.64-1.59,11.85-5.93,0,0,27.19,9.67,29.07-.81,0,0,18.58,8.36,23.16,6.74s-5.66-9.82-5.66-9.82,14,7.38,16.16,5.91,4.84-8.48,4.84-8.48,4.37,18.5,8.89,15.88,11.3-42.27,11.3-42.27L53.17,72.15,3.94,99.34Z"/><path class="cls-8" d="M6.46,131s-9-23.69-5.76-35.89S27.26,46,51.31,34.1s46-4,51.34-4.31,28.71-24,37-23,32.66,35.9,37.69,65.33-20.38,77.58-31.91,73.69c0,0,5.78-19.48,0-25.23S88.65,98.36,77.16,99.07,16.52,121.69,6.46,131Z"/><path class="cls-2" d="M153,116.18C145,110,85.5,88.44,76,88.65c-10.71.24-67.58,30-72.64,32.6C4.9,126.92,6.46,131,6.46,131c10.06-9.33,59.21-31.23,70.7-32s62.46,15.8,68.24,21.54,0,25.23,0,25.23c3.79,1.28,9.07-3.08,14.28-10.52C160,127.82,158.74,120.66,153,116.18Z"/><path class="cls-8" d="M140.28,7a4.5,4.5,0,0,0-.66-.16C132.7,5.92,115.21,22.4,106.55,28,113.54,24.9,129.86,11.36,140.28,7Z"/><path class="cls-2" d="M152.83,119.42c-6.55-5.74-64.23-28.71-77.23-28-10.91.61-51.87,20.7-71.46,32.65,1.26,4.16,2.32,7,2.32,7,10.06-9.33,59.21-31.23,70.7-32s62.46,15.8,68.24,21.54,0,25.23,0,25.23c2.26.76,5-.49,8-3.18C154.89,137.55,158.1,124.05,152.83,119.42Z"/><path class="cls-8" d="M12.16,119.39c-2.93,1.64-5.64,3.22-8,4.68,1.26,4.16,2.32,7,2.32,7a51.94,51.94,0,0,1,8-5.58A39,39,0,0,1,12.16,119.39Z"/><path class="cls-8" d="M36.24,106.79c-3.35,1.64-6.7,3.32-10,5,1.06,1.86,2,3.77,2.94,5.71,2.86-1.42,5.85-2.84,8.86-4.23C37.44,111.13,36.86,109,36.24,106.79Z"/><path class="cls-8" d="M48.09,101.21c-3.22,1.46-6.54,3-9.89,4.63.62,2.18,1.19,4.38,1.83,6.54,3.57-1.62,7.17-3.18,10.66-4.63C49.88,105.55,49,103.36,48.09,101.21Z"/><path class="cls-8" d="M73.89,91.64A72.51,72.51,0,0,0,61.56,95.5q.7,3.72,1.71,7.36A96.71,96.71,0,0,1,73.8,99.63C73.82,97,73.86,94.3,73.89,91.64Z"/><path class="cls-8" d="M86.35,93.1a45.55,45.55,0,0,0-10.3-1.68C76,94,76,96.61,76,99.21c.43-.07.84-.11,1.2-.14a39.56,39.56,0,0,1,8.62,1C86,97.72,86.24,95.42,86.35,93.1Z"/><path class="cls-8" d="M116.82,103.08c-4.47-1.69-9-3.33-13.36-4.81-.53,1.89-1.15,3.76-1.78,5.62,4.17,1.17,8.5,2.49,12.76,3.86C115.25,106.2,116.05,104.65,116.82,103.08Z"/><path class="cls-8" d="M131,108.69c-3.85-1.6-7.95-3.25-12.15-4.86-.75,1.54-1.54,3.06-2.33,4.58,4.42,1.46,8.7,3,12.58,4.42A41.63,41.63,0,0,0,131,108.69Z"/><path class="cls-8" d="M141.38,113.24c-2.57-1.19-5.45-2.45-8.53-3.76-.55,1.39-1.19,2.74-1.88,4.08,3.1,1.2,5.86,2.35,8.16,3.42Z"/><path class="cls-8" d="M147.19,123.8a69.93,69.93,0,0,0,6.6-3.29,6.25,6.25,0,0,0-1-1.09c-1.33-1.16-4.76-3-9.48-5.27l-2.27,3.77a18.53,18.53,0,0,1,4.32,2.69A7.7,7.7,0,0,1,147.19,123.8Z"/><path class="cls-8" d="M147.17,137.93a76.26,76.26,0,0,1-1.77,7.91c2.26.76,5-.49,8-3.18a68.12,68.12,0,0,0,1.6-7C152.4,136.29,149.79,137.14,147.17,137.93Z"/><path class="cls-8" d="M147.51,135.69c2.62-.8,5.22-1.65,7.87-2.29.5-3.85.57-8-.59-11a72.12,72.12,0,0,1-7.11,3.51A35.25,35.25,0,0,1,147.51,135.69Z"/><path class="cls-8" d="M101.42,97.58c-4.63-1.54-9-2.89-12.94-3.93-.12,2.27-.34,4.53-.59,6.79,3.49.74,7.49,1.73,11.71,2.88C100.25,101.42,100.88,99.52,101.42,97.58Z"/><path class="cls-8" d="M59.55,96.3q-4.48,1.78-9.5,4c.94,2.17,1.8,4.38,2.63,6.6,3-1.23,5.87-2.34,8.59-3.35C60.6,101.18,60,98.76,59.55,96.3Z"/><path class="cls-8" d="M24.35,112.8c-3.58,1.86-7,3.72-10.26,5.51a33.8,33.8,0,0,0,2.15,6.07c3.25-1.88,7-3.89,11.05-5.92C26.37,116.54,25.41,114.64,24.35,112.8Z"/><path class="cls-2" d="M109.29,26.08c-3,2.15-5.33,3.63-6.64,3.71a16.66,16.66,0,0,1-3.19-.26c20.11,8.48,44.89,10.85,55.6,31.14C155.06,60.67,151.11,37,109.29,26.08Z"/><path class="cls-9" d="M80.85,160.73S78.74,154,72,153.59s-9.61,8.22-9.61,8.22,4.25-6.42,9.6-5.83A15,15,0,0,1,80.85,160.73Z"/><path class="cls-3" d="M35.65,152.35A1.47,1.47,0,0,1,34.19,151a7.87,7.87,0,0,1,5.94-8.16c5.13-1.52,8.92,2.47,10.2,4.78a1.46,1.46,0,1,1-2.55,1.43c-.11-.18-2.67-4.62-6.82-3.4a4.92,4.92,0,0,0-3.85,5.08,1.45,1.45,0,0,1-1.32,1.59Z"/><path class="cls-3" d="M107.58,152.35h-.14a1.45,1.45,0,0,1-1.32-1.59,4.94,4.94,0,0,0-3.85-5.08c-4.15-1.22-6.71,3.22-6.82,3.4a1.47,1.47,0,1,1-2.56-1.43c1.29-2.31,5.08-6.29,10.21-4.78A7.86,7.86,0,0,1,109,151,1.46,1.46,0,0,1,107.58,152.35Z"/><path class="cls-10" d="M60.87,174.63l39.8-5.94s3,15.22-17.58,18.55S60.87,174.63,60.87,174.63Z"/><path class="cls-11" d="M71.45,186.82a25.59,25.59,0,0,0,11.64.42,26.82,26.82,0,0,0,11-4,11.61,11.61,0,0,0-22.61,3.58Z"/></g></g></svg>