<svg xmlns="http://www.w3.org/2000/svg" viewBox="0 0 175.76 288.54"><defs><style>.cls-1{fill:#ad3936;}.cls-2{fill:#c65044;}.cls-3{fill:#962929;}.cls-4{fill:#f7f7f7;}.cls-5{fill:#2f3233;}.cls-6{fill:#141414;}.cls-7{fill:#fff;}.cls-8{fill:#3a332d;}.cls-9{fill:#f4d3b0;}.cls-10{fill:#f9dab4;}.cls-11{fill:#efc4a0;}.cls-12{fill:#4c3626;}</style></defs><title>资源 191</title><g id="图层_2" data-name="图层 2"><g id="Layer_1" data-name="Layer 1"><path class="cls-1" d="M32.27,226.41c-2.77,17.09-5.6,41.38-7.35,62.13H51.61l8.86-103.71S38.08,190.67,32.27,226.41Z"/><path class="cls-1" d="M142,211.88c-12.83-21.34-27.39-27-27.39-27l3.07,36.69,21,41.67-12.52,25.35H156c5.63-10.15,9.71-20.91,9.21-30.28C164.83,252.12,150.36,225.75,142,211.88Z"/><path class="cls-2" d="M86.65,208.76l-39.38,1.77s-3.07,44.3-4.48,78h88.49c-1.41-33.71-4.49-78-4.49-78l-39.38-1.77s-.14.61-.38,1.7C86.79,209.37,86.65,208.76,86.65,208.76Z"/><path class="cls-1" d="M43.6,271.29c-.3,5.87-.58,11.7-.81,17.25h88.49c-.24-5.55-.51-11.38-.81-17.25Z"/><path class="cls-2" d="M130.23,266.68H43.84c-.28,5.29-.55,10.59-.78,15.73l7.79-8.67,10.94,14.8h17L87,274.31l8.2,14.23h17l10.94-14.8,7.8,8.67C130.77,277.27,130.51,272,130.23,266.68Z"/><path class="cls-3" d="M105.72,176.7l-17.38,2.49h-.87L70.09,176.7S40,200,40.7,211.76s19,7,22.82,12.4c3.68,5.19,5.12,28.35,21.69,32.5a5,5,0,0,0,2.25.48h0c.16,0,.28,0,.43,0s.29,0,.44,0h0a5,5,0,0,0,2.25-.48c16.57-4.15,18-27.31,21.69-32.5,3.84-5.43,22.15-.68,22.82-12.4S105.72,176.7,105.72,176.7Z"/><path class="cls-4" d="M63.05,173.67s6.4,77.9,23.83,78.56,26.93-52.74,24.06-75.91S63.05,173.67,63.05,173.67Z"/><polygon class="cls-5" points="93.15 204.44 80.92 204.44 80.92 194.2 87.03 187.14 93.15 194.2 93.15 204.44"/><rect class="cls-6" x="80.92" y="202.97" width="12.23" height="1.47"/><path class="cls-5" d="M100.51,240.08,93.15,204H80.92L75.3,238.37c3.15,8.1,7,13.69,11.58,13.86C92.21,252.44,96.8,247.57,100.51,240.08Z"/><path class="cls-7" d="M61.45,175.22c-1,8.09-3.92,35.88,2.49,36.63,7.5.88,22.59-19.42,22.59-19.42s.29-.39.72-1.07c.43.68.72,1.07.72,1.07s15.08,20.3,22.58,19.42c6.42-.75,3.49-28.54,2.5-36.63Z"/><path class="cls-8" d="M154,86.24c-7.54-15-58.73-19.44-65.67-20V66.2l-.4,0-.39,0v.06c-6.94.54-58.13,5-65.68,20-8.1,16.07,6.21,55.1,6.21,55.1L87.88,140l59.87,1.31S162.05,102.31,154,86.24Z"/><path class="cls-9" d="M36.61,133.5s-9.58-8.81-18-2.85,11,34.51,29.28,34.4Z"/><path class="cls-9" d="M139.16,133.5s9.57-8.81,18-2.85-11,34.51-29.28,34.4Z"/><path class="cls-10" d="M29.63,90c.05,6.38,1,57.4,15.22,74.14,14.62,17.17,32.27,25.69,43,24.32,10.76,1.37,28.42-7.15,43-24.32,14.27-16.74,15.17-67.76,15.23-74.14Z"/><path class="cls-8" d="M23,88.27s19,31.34,43.26,36.19l-5.52-8.38s22.73,10.37,38,6.84L88.3,113.43s19.2,7.94,32.44,4.63l-3.31-4s12.79,5.52,26.7,4.86l-5.08-5.74s6.18,2.42,11.48-.22c0,0,9.49-24.94-10.38-33.55S47.47,62.89,23,88.27Z"/><path class="cls-2" d="M94.33,6.45A6.45,6.45,0,1,1,87.88,0,6.45,6.45,0,0,1,94.33,6.45Z"/><path class="cls-3" d="M0,69.18c.33,8.94,19.35,18.54,19.35,18.54C32.53,74,67.14,70,87.88,68.94c20.74,1.1,55.36,5,68.54,18.78,0,0,19-9.6,19.34-18.54.17-4.45-44-57.58-87.86-57.59C43.73,11.57-.16,64.7,0,69.18Z"/><path class="cls-2" d="M91.24,62.89l-2.8,0h-.12l-2.8,0C34.07,64.22,9.65,81.1,11.64,90c.89,4,4.38,5.68,8,6.35a17.12,17.12,0,0,1,6.66-9,1,1,0,0,1,.19-.08C34.72,80.46,60.64,73.81,88,74.48l.36,0h.12l.36,0c31-.76,59.81,11.36,63.83,15.56s3,5.56,3.56,6.5c3.92-.54,8-2.18,8.93-6.5C167.1,81.1,142.69,64.22,91.24,62.89Z"/><path class="cls-1" d="M129.71,257.25a318.12,318.12,0,0,1-45.12,2.38c-19.53-.48-33-1.58-40.24-2.31-.29,5.25-.58,10.62-.85,15.93,7.82.76,21.64,1.79,40.7,2.26q3.49.09,7.06.09a346.41,346.41,0,0,0,39.3-2.39C130.3,267.89,130,262.51,129.71,257.25Z"/><path class="cls-11" d="M77.73,153.13s3.92-6.66,11.12-6.32c5.32.26,9.18,6.63,9.18,6.63s-5-4.31-9.1-4.54C82.87,148.56,77.73,153.13,77.73,153.13Z"/><path class="cls-8" d="M45.88,141.05a1.8,1.8,0,0,1-1.78-1.62,9.61,9.61,0,0,1,7.24-10c6.25-1.84,10.88,3,12.45,5.85a1.78,1.78,0,1,1-3.12,1.73c-.13-.22-3.26-5.64-8.32-4.15a6,6,0,0,0-4.69,6.2A1.78,1.78,0,0,1,46.05,141Z"/><polygon class="cls-12" points="68.13 121.6 68.8 126.06 39.29 122.68 42.18 116.11 68.13 121.6"/><polygon class="cls-12" points="108.63 121.6 107.96 126.06 137.47 122.68 134.58 116.11 108.63 121.6"/><path class="cls-8" d="M130.88,141.05h-.17a1.77,1.77,0,0,1-1.61-1.93,6,6,0,0,0-4.69-6.21c-5.06-1.49-8.19,3.93-8.32,4.16a1.8,1.8,0,0,1-2.43.68,1.78,1.78,0,0,1-.69-2.42c1.57-2.83,6.19-7.69,12.45-5.85a9.61,9.61,0,0,1,7.24,10A1.8,1.8,0,0,1,130.88,141.05Z"/><path class="cls-11" d="M87.91,174.48c-12.11,0-18.87-3.76-19.15-3.92a1.39,1.39,0,1,1,1.37-2.43c.07,0,6.47,3.55,17.78,3.55s17.65-3.52,17.71-3.55a1.4,1.4,0,0,1,1.39,2.43C106.73,170.72,100,174.48,87.91,174.48Z"/></g></g></svg>