<svg xmlns="http://www.w3.org/2000/svg" viewBox="0 0 196.05 260.01"><defs><style>.cls-1{fill:#8e633f;}.cls-2{fill:#9e6f4c;}.cls-3{fill:#76c4bb;}.cls-4{fill:#44ada0;}.cls-5{fill:#6b4627;}.cls-6{fill:#4c3626;}.cls-7{fill:#f9dab4;}.cls-8{fill:#c65044;}.cls-9{fill:#efc4a0;}.cls-10{fill:#3a332d;}.cls-11{fill:#e8dfd9;}</style></defs><title>资源 188</title><g id="图层_2" data-name="图层 2"><g id="Layer_1" data-name="Layer 1"><path class="cls-1" d="M43.7,180.61S28.93,230.37,22.83,260H53.58C56.24,225.32,53.88,169.33,43.7,180.61Z"/><path class="cls-2" d="M91.89,180.73H45.8S42.91,225.94,43.29,260H130c.38-34.07-2.51-79.28-2.51-79.28Z"/><path class="cls-3" d="M195.22,245.61c-1.28-3.48-6.78-11.15-14.31-13.26-19.71-5.52-2.76,9.06-12.22,5.91s-28.58-12.61-37.14-57.53l-29.85,7.09s9.06,13.4,11,28c1,7-.27,25.14,1.39,44.21H182s7.83,0,11.32-3C197,253.86,196.25,248.42,195.22,245.61Z"/><path class="cls-4" d="M178.64,246.88a41,41,0,0,0-3.65-6.61q-.56-.78-1.17-1.53a18.91,18.91,0,0,0-1.32-1.43,10.68,10.68,0,0,1-1.08-1.29c.53,1.67.88,3-1.35,2.61.15.19.26.39.42.57a15.53,15.53,0,0,1,1.07,1.31c.33.46.66.93,1,1.42a42.27,42.27,0,0,1,3.23,6.19A44.32,44.32,0,0,1,179.11,260h2.61A37.07,37.07,0,0,0,178.64,246.88Z"/><path class="cls-4" d="M135.42,196.63a152.28,152.28,0,0,1-3.87-15.9l-29.85,7.09a81.83,81.83,0,0,1,7.6,15A57.57,57.57,0,0,0,135.42,196.63Z"/><path class="cls-3" d="M145.31,164.18c.44-7.88-18.74-11-18.74-11l-29.33-1.68c0-.13,0-.18-.08-.29H78.41c0,.11,0,.16-.08.29L49,153.14s-19.18,3.16-18.74,11,14.38,6.7,14.38,6.7S33.31,175.6,33.31,182.7,47.26,200,79.07,198.85c3.42-.12,14-.12,17.43,0,31.81,1.18,45.76-9.06,45.76-16.15s-11.33-11.82-11.33-11.82S144.87,172.06,145.31,164.18Z"/><rect class="cls-5" x="84.38" y="202.84" width="3.15" height="57.18"/><path class="cls-6" d="M173.28,80.55c0,15.09-4.46,40-12.23,52-15.12,23.52-42.79,28.53-74.41,28.53-26.92,0-51-.67-66.86-18.58C7.43,128.6,0,100,0,80.55,0,36.06,38.79,0,86.64,0S173.28,36.06,173.28,80.55Z"/><path class="cls-7" d="M154.6,88.27l-11.83-24.5H33.2L18.68,88.27s-2,74.15,65.68,77.68c0,0,1.51.12,2.28.09s2.28-.09,2.28-.09C156.59,162.42,154.6,88.27,154.6,88.27Z"/><path class="cls-8" d="M72.49,151.85s3.33-5.17,7.18-4.94S85.61,151,85.61,151s3.46-4,7.5-3.89,5.81,5.17,5.81,5.17-4,9.7-13.61,9.7S72.49,151.85,72.49,151.85Z"/><path class="cls-9" d="M79.08,133.48s.67-6.12,6.37-6.14,6.88,6.14,6.88,6.14-3.12-3.77-6.77-3.77S79.08,133.48,79.08,133.48Z"/><path class="cls-10" d="M122.14,127.43a1.46,1.46,0,0,1-.14-2.92c.09,0,10.09-1,14-3.37a1.47,1.47,0,0,1,2,.5,1.46,1.46,0,0,1-.5,2c-4.47,2.7-14.8,3.73-15.24,3.77Z"/><path class="cls-10" d="M123.7,124.23h-.22a1.46,1.46,0,0,1,0-2.92h.19c7.36,0,11.74-6,11.78-6.07a1.46,1.46,0,0,1,2.39,1.68C137.64,117.23,132.6,124.23,123.7,124.23Z"/><path class="cls-10" d="M115.21,121.92a7.19,7.19,0,1,0,5.28-8.69A7.19,7.19,0,0,0,115.21,121.92Z"/><path class="cls-11" d="M119,116.15c0,1,1.54,1.84,3.35,1.77s3.25-1,3.2-2-1.54-1.84-3.35-1.78S118.91,115.1,119,116.15Z"/><path class="cls-10" d="M53.23,127.43a1.46,1.46,0,0,0,.13-2.92c-.1,0-10.09-1-14-3.37a1.46,1.46,0,0,0-1.51,2.51c4.48,2.7,14.81,3.73,15.25,3.77Z"/><path class="cls-10" d="M51.66,124.23h.22a1.46,1.46,0,0,0,0-2.92h-.19c-7.37,0-11.74-6-11.78-6.07a1.46,1.46,0,0,0-2.39,1.68C37.72,117.23,42.76,124.23,51.66,124.23Z"/><path class="cls-10" d="M60.15,121.92a7.19,7.19,0,1,1-5.28-8.69A7.19,7.19,0,0,1,60.15,121.92Z"/><path class="cls-11" d="M56.4,116.15c0,1-1.54,1.84-3.36,1.77s-3.24-1-3.19-2,1.54-1.84,3.35-1.78S56.44,115.1,56.4,116.15Z"/><path class="cls-6" d="M15.32,115.45s44.64,7,89.61-28.86L102.58,104s27.19-13.42,33.9-32.22c0,0,13.42,16.78,22.49,42.63L167,59.74,116,34.57,25.39,57.73,6.26,91.29Z"/></g></g></svg>