<?xml version="1.0" standalone="no"?><!DOCTYPE svg PUBLIC "-//W3C//DTD SVG 1.1//EN" "http://www.w3.org/Graphics/SVG/1.1/DTD/svg11.dtd"><svg t="1548134544518" class="icon" style="" viewBox="0 0 1024 1024" version="1.1" xmlns="http://www.w3.org/2000/svg" p-id="24651" xmlns:xlink="http://www.w3.org/1999/xlink" width="200" height="200"><defs><style type="text/css"></style></defs><path d="M952.4 563.2c-4.2-16.9-10.4-33.7-18.5-50.2-5.6-11.5-19.6-16.3-31.3-10.7-11.6 5.6-16.5 19.5-10.8 31 6.6 13.5 11.7 27.3 15.1 40.9 3.7 15.3 5.6 31.4 5.6 47.9 0 70.4-38.8 138.2-103.8 181.4-6.5 4.3-10.4 11.5-10.4 19.2v59.1c0 4.8-2.4 9.2-6.6 12.1-7.2 2.3-12 2-16.3-0.9l-33.1-21.5c-0.9-0.8-1.8-1.5-2.8-2.2l-28.8-19.2c-4.9-3.3-10.9-4.6-16.8-3.7-65.4 10.4-129.1 0.4-184.4-29-5.5-2.9-11.9-3.6-17.8-1.8s-10.9 5.8-13.9 11.2c-6.1 11.3-1.9 25.3 9.5 31.4 61.8 32.9 132.4 45 204.8 35.3l18.8 12.5c2.4 2.2 4.8 3.7 6.4 4.6l32.3 21c10 6.6 21.7 10.1 33.9 10.1 8.4 0 17-1.7 26.4-5 1.2-0.4 2.4-1 3.5-1.6 19.6-11 31.8-31.4 31.8-53.4v-47.1c71.7-52.1 114.1-130.7 114.1-212.7 0-20-2.3-39.8-6.9-58.7z m-78.9-126.7c0-195.2-181.7-353.9-405.1-353.9C245 82.6 63.3 241.4 63.3 436.5c0 109.1 58.1 212.7 156 279.4v75.7c0 22.1 12.8 43 32.1 53 9.1 4.9 19.3 7.5 29.5 7.5 12.3 0 24.1-3.5 32.8-9.5l46.8-30.5c1.1-0.7 2.6-1.6 4.3-3.1l36.1-23.7c22.7 3.4 45.3 5.1 67.4 5.1 223.5 0.1 405.2-158.7 405.2-353.9zM468.4 744.1c-22.5 0-45.7-2-68.8-5.9-5.9-1-11.9 0.3-16.9 3.5l-45 29.6c-0.9 0.6-1.8 1.3-2.6 2v-0.1s-0.3 0.2-1.1 0.6l-46.6 30.4c-1.6 1-8 2.7-14-0.5-4.3-2.2-7.3-7.2-7.3-12.1v-88.1c0-7.9-4.1-15.2-10.8-19.5-90.9-57.8-145.2-150.3-145.2-247.5 0-169.6 160.7-307.6 358.2-307.6 197.6 0 358.3 138 358.3 307.6S665.9 744.1 468.4 744.1zM324.3 393.8c-22 0-40 17.8-40 39.6s18 39.6 40 39.6 40-17.8 40-39.6c-0.1-21.9-18-39.6-40-39.6z m150.9 11.3c-19.9 0-36.1 16.1-36.1 35.8s16.2 35.8 36.1 35.8c19.9 0 36.1-16.1 36.1-35.8s-16.2-35.8-36.1-35.8z m133 0c-19.9 0-36.1 16.1-36.1 35.8s16.2 35.8 36.1 35.8c19.9 0 36.1-16.1 36.1-35.8s-16.2-35.8-36.1-35.8z" fill="#231815" p-id="24652"></path></svg>