<svg xmlns="http://www.w3.org/2000/svg" viewBox="0 0 228.82 282.7"><defs><style>.cls-1{fill:#f2d0af;}.cls-2{fill:#393c3d;}.cls-3{fill:#2f3233;}.cls-4{fill:#f4ba53;}.cls-5{fill:#515151;}.cls-6{fill:#ddb58e;}.cls-7{fill:#6b4627;}.cls-8{fill:#f4d3b0;}.cls-9{fill:#c65044;}.cls-10{fill:#3a332d;}.cls-11{fill:#e8dfd9;}.cls-12{fill:#edac45;}</style></defs><title>资源 229</title><g id="图层_2" data-name="图层 2"><g id="Layer_1" data-name="Layer 1"><path class="cls-1" d="M139.66,263.37c-1.26-9.49-3.62-44.55-3.62-44.55l-17.52,5.91,8.07,58h18.54C142.61,275.87,140.37,268.74,139.66,263.37Z"/><path class="cls-1" d="M55.91,202.25s-28.06,24.81-35.47,48c-3.27,10.21,16,30.79,17.55,32.44H55.88a26.33,26.33,0,0,0-3.76-6C37.46,259,33.58,251.76,33.58,251.76L57.4,221.94Z"/><path class="cls-2" d="M69.28,182.22s-9.13-1.66-16.6,10-6.09,15.49-18.81,24.06c0,0,12,16.06,27.28,12.18S69.28,182.22,69.28,182.22Z"/><path class="cls-3" d="M60.42,221.11c-4.35-.43-9.72-1.54-13.48-3.91-2.51-1.58-4.69-3.77-7.13-5.47a56.68,56.68,0,0,1-5.94,4.51s12,16.06,27.28,12.18c3.27-.82,5.5-3.41,7-6.95A74.38,74.38,0,0,1,60.42,221.11Z"/><path class="cls-2" d="M71,223.44s-18.28,7.74-37.09-11.07L28.06,225s17.64,20,36.48,11.7Z"/><path class="cls-2" d="M112.48,182.22s9.13-1.66,16.6,10,6.09,15.49,18.81,24.06c0,0-12,16.06-27.28,12.18S112.48,182.22,112.48,182.22Z"/><path class="cls-3" d="M121.34,221.11c4.35-.43,9.72-1.54,13.48-3.91,2.51-1.58,4.69-3.77,7.14-5.47a56.43,56.43,0,0,0,5.93,4.51s-12,16.06-27.28,12.18c-3.26-.82-5.5-3.41-7-6.95A74.25,74.25,0,0,0,121.34,221.11Z"/><path class="cls-2" d="M110.8,223.44s18.28,7.74,37.09-11.07L153.7,225s-17.64,20-36.48,11.7Z"/><path class="cls-4" d="M66.62,173.18s-5.28,23.79-5.7,66.57a244.47,244.47,0,0,1-4.55,42.95H125.8a244.45,244.45,0,0,1-4.54-42.95c-.43-42.78-5.71-66.57-5.71-66.57s-12.14,1.69-24.46,3.35C78.76,174.87,66.62,173.18,66.62,173.18Z"/><rect class="cls-3" x="85.54" y="193.27" width="9.73" height="10.41"/><rect class="cls-5" x="85.54" y="201.28" width="9.73" height="2.1"/><polygon class="cls-3" points="102.06 245.68 91.09 267.69 80.11 245.68 85.54 203.18 95.27 203.18 102.06 245.68"/><polygon class="cls-5" points="98.72 224.79 91.09 240.42 82.78 224.8 80.11 245.68 91.09 267.69 102.06 245.68 98.72 224.79"/><ellipse class="cls-6" cx="91.09" cy="184.78" rx="11.22" ry="11.71"/><path class="cls-5" d="M65.3,180.55c-1.6,10.1-4.1,30.31-4.38,59.2a244.47,244.47,0,0,1-4.55,42.95H94.73c-.19-7.76,0-31.88,0-31.88S72.51,176.69,65.3,180.55Z"/><path class="cls-2" d="M90.73,237.89a33.86,33.86,0,0,0-5.79,3.83.56.56,0,0,0,0,.07V282.7h9.78c-.19-7.76,0-31.88,0-31.88Z"/><path class="cls-2" d="M73.67,244.55l5.11-23.42-10.21,1.48,3.13-35.18C80.47,204.08,93,245,94.59,250.22Z"/><path class="cls-5" d="M125.8,282.7a244.45,244.45,0,0,1-4.54-42.95c-.29-28.89-2.79-49.1-4.38-59.2-7.21-3.86-29.48,70.27-29.48,70.27s.23,24.12,0,31.88Z"/><path class="cls-2" d="M108.5,244.55l-5.1-23.42,10.21,1.48-3.13-35.18c-8.78,16.65-21.31,57.54-22.9,62.79Z"/><ellipse class="cls-7" cx="90.18" cy="104.21" rx="90.18" ry="80.6"/><path class="cls-8" d="M145,124.33s7.63-6.47,13.83,0c6,6.22,2,38.53-22.73,35.06Z"/><path class="cls-1" d="M148.74,136.68c0,39-26.21,52.84-58.56,52.84s-58.56-13.88-58.56-52.84c0-2,.07-23.89.2-25.9,2.47-37.84,27.66-62.35,58.36-62.35s55.88,24.48,58.36,62.31C148.67,112.77,148.74,134.7,148.74,136.68Z"/><path class="cls-9" d="M76.52,170.72s3.18-4.95,6.86-4.72,5.67,3.88,5.67,3.88,3.31-3.8,7.18-3.72,5.54,4.94,5.54,4.94-3.83,9.27-13,9.27S76.52,170.72,76.52,170.72Z"/><path class="cls-6" d="M95.47,152.59s-.63,5.85-6.08,5.87-6.57-5.87-6.57-5.87,3,3.6,6.47,3.6S95.47,152.59,95.47,152.59Z"/><path class="cls-7" d="M113.24,120.38V117a.77.77,0,0,1,.5-.79c2.85-.54,17-2.9,23.91,2.19a1,1,0,0,1,.21,1.1l-1.29,2.88a.51.51,0,0,1-.68.33c-1.95-.86-10.33-4.08-22-1.55C113.57,121.24,113.24,120.87,113.24,120.38Z"/><path class="cls-10" d="M122.59,141a1.44,1.44,0,0,1-.13-2.86c.09,0,9.58-1,13.29-3.3a1.35,1.35,0,0,1,1.9.48,1.46,1.46,0,0,1-.47,2c-4.24,2.65-14,3.66-14.46,3.7Z"/><path class="cls-10" d="M124.07,137.85h-.2a1.42,1.42,0,0,1-1.37-1.45,1.4,1.4,0,0,1,1.41-1.41h.16c7,0,11.12-5.89,11.16-6a1.37,1.37,0,0,1,1.94-.33,1.46,1.46,0,0,1,.33,2C137.3,131,132.52,137.85,124.07,137.85Z"/><path class="cls-10" d="M116,135.59a6.81,6.81,0,0,0,8.24,5.18,7.07,7.07,0,0,0,5-8.52,6.81,6.81,0,0,0-8.25-5.18A7.07,7.07,0,0,0,116,135.59Z"/><path class="cls-11" d="M119.58,129.93c0,1,1.47,1.8,3.18,1.73s3.08-1,3-2-1.46-1.81-3.18-1.74S119.54,128.9,119.58,129.93Z"/><path class="cls-7" d="M67.13,120.38V117a.77.77,0,0,0-.5-.79c-2.85-.54-17-2.9-23.91,2.19a1,1,0,0,0-.21,1.1l1.29,2.88a.51.51,0,0,0,.68.33c2-.86,10.33-4.08,22-1.55C66.81,121.24,67.13,120.87,67.13,120.38Z"/><path class="cls-10" d="M57.78,141a1.44,1.44,0,0,0,.13-2.86c-.09,0-9.58-1-13.29-3.3a1.35,1.35,0,0,0-1.9.48,1.47,1.47,0,0,0,.47,2c4.25,2.65,14,3.66,14.46,3.7Z"/><path class="cls-10" d="M56.3,137.85h.2a1.42,1.42,0,0,0,1.37-1.45,1.4,1.4,0,0,0-1.4-1.41H56.3c-7,0-11.12-5.89-11.16-6a1.37,1.37,0,0,0-1.94-.33,1.46,1.46,0,0,0-.33,2C43.07,131,47.85,137.85,56.3,137.85Z"/><path class="cls-10" d="M64.35,135.59a6.81,6.81,0,0,1-8.24,5.18,7.07,7.07,0,0,1-5-8.52,6.82,6.82,0,0,1,8.25-5.18A7.07,7.07,0,0,1,64.35,135.59Z"/><path class="cls-11" d="M60.79,129.93c0,1-1.46,1.8-3.18,1.73s-3.07-1-3-2,1.46-1.81,3.18-1.74S60.83,128.9,60.79,129.93Z"/><path class="cls-7" d="M36.84,166.53s-3.52-6.17,18.61-18.34,64.45-33.2,68.6-51.73a51.72,51.72,0,0,0,8,9.41c5.63,5.33,14.18,11.67,16.67,16.31L158.36,100s-10-62.41-74.14-60.48C52.38,40.43,26.44,71.7,22.53,103,18.54,134.75,36.84,166.53,36.84,166.53Z"/><path class="cls-4" d="M172.06,49.76c16.33,25.59,21.69,51.38,12,57.58s-30.86-9.5-47.19-35.09-21.7-51.38-12-57.59S155.72,24.17,172.06,49.76Z"/><path class="cls-12" d="M138,28.77C147.61,21.54,187.86.37,193,0s36.51,46.51,35.78,52.77-32.51,33.43-45,41.42S128.28,36,138,28.77Z"/><path class="cls-2" d="M146,23.56c-3.46,2.07-6.29,3.88-8.07,5.21-9.67,7.24,33.32,73.4,45.83,65.42,2.21-1.41,5-3.43,8.16-5.81C177.45,85.21,147.24,39.74,146,23.56Z"/><path class="cls-2" d="M188.86,96.46s1.28,9.27,2.11,13.14,5.26,19.92,10.79,24.07c0,0-6.09,3.27-7.06,3s-10.65-28.61-9.54-40.23Z"/><path class="cls-2" d="M187.37,98.4s13.42,25.45,20.61,32.3l6.81-2.78a48.49,48.49,0,0,1-12.27-12.37C197,107.53,191.25,94.94,187.37,98.4Z"/><path class="cls-2" d="M203,84.76c-2.45-3.44-8.75-3.16-14.09.63s-7.67,9.64-5.23,13.08,8.75,3.17,14.08-.62S205.41,88.21,203,84.76Z"/><path class="cls-3" d="M198.33,88.06c-1.27-1.79-4.55-1.65-7.32.32s-4,5-2.72,6.8,4.54,1.65,7.32-.32S199.59,89.85,198.33,88.06Z"/></g></g></svg>