<svg xmlns="http://www.w3.org/2000/svg" viewBox="0 0 172.15 286.61"><defs><style>.cls-1{fill:#f4ba53;}.cls-2{fill:#fc6;}.cls-3{fill:#9e6f4c;}.cls-4{fill:#ddb58e;}.cls-5{fill:#4c3626;}.cls-6{fill:#7f5732;}.cls-7{fill:#f4d3b0;}.cls-8{fill:#f2d0af;}.cls-9{fill:#3a332d;}.cls-10{fill:#c65044;}</style></defs><title>资源 241</title><g id="图层_2" data-name="图层 2"><g id="Layer_1" data-name="Layer 1"><path class="cls-1" d="M53.16,186.87S19.76,265.7,21.57,273.8c.89,4,3.29,8.18,7.87,12.81h30l3-6L45.28,264.82l19-55.35Z"/><path class="cls-1" d="M107.83,209.47l19,55.35-17.19,15.77,3,6h30c4.58-4.63,7-8.83,7.87-12.81,1.82-8.1-31.59-86.93-31.59-86.93Z"/><path class="cls-2" d="M106.55,180.3s-4.7-1.21-20.47-.85c-15.77-.36-20.47.85-20.47.85s-17-4.93-18.87,35.8c-.91,20.42-3,48-4.79,70.51H130.2c-1.82-22.47-3.87-50.09-4.79-70.51C123.59,175.37,106.55,180.3,106.55,180.3Z"/><path class="cls-1" d="M91,238a4.93,4.93,0,1,1-4.92-4.92A4.93,4.93,0,0,1,91,238Z"/><path class="cls-1" d="M91,263.09a4.93,4.93,0,1,1-4.92-4.92A4.93,4.93,0,0,1,91,263.09Z"/><polygon class="cls-1" points="62.38 180.12 67.94 238.82 86.12 213.1 62.38 180.12"/><polygon class="cls-1" points="109.77 180.12 104.21 238.82 86.04 213.1 109.77 180.12"/><path class="cls-3" d="M65.24,181.94s-16.65-3.95-20.15,7,4.22,27.49,10.07,44c6.07,17.11,4.33,39.59-4.08,53.66H77.35c14.22-32.3-3-56.46-8.83-68.13C63.17,207.77,47.94,189,65.24,181.94Z"/><path class="cls-3" d="M127.06,188.94c-3.5-10.95-20.14-7-20.14-7,17.3,7,2.06,25.83-3.29,36.54-5.82,11.67-23,35.83-8.82,68.13h26.26c-8.41-14.07-10.14-36.55-4.08-53.66C122.85,216.43,130.57,199.89,127.06,188.94Z"/><path class="cls-4" d="M108.74,181.38c0,5.69-10.11,37.24-22.62,37.24s-22.71-31.55-22.71-37.24,10.15-10.32,22.67-10.32S108.74,175.68,108.74,181.38Z"/><path class="cls-5" d="M28.36,204.93s-4.07,16.26.55,23.41S50,238.82,50,238.82l-8.41-9.54L50.54,233,48,223.51l8.52,9.06S57.28,206.32,28.36,204.93Z"/><path class="cls-5" d="M24.4,140.2c0,6.42-4.79,11.63-10.7,11.63S3,146.62,3,140.2s4.79-11.62,10.7-11.62S24.4,133.79,24.4,140.2Z"/><path class="cls-5" d="M22.35,160.29c-1.23,6.84-6.51,11.6-11.78,10.65S2,163.68,3.26,156.84,9.77,145.24,15,146.2,23.59,153.46,22.35,160.29Z"/><path class="cls-5" d="M29.91,181c6.33,11.12,5.75,23.39-1.29,27.4S10.73,206.6,4.4,195.48s-5.76-23.39,1.29-27.4S23.58,169.83,29.91,181Z"/><path class="cls-3" d="M35.43,203.17c.83,1,0,3.09-4.41,6.59s-6.58,3.87-7.41,2.82,0-3.08,4.41-6.58S34.6,202.13,35.43,203.17Z"/><path class="cls-5" d="M143.79,204.93s4.07,16.26-.55,23.41-21.13,10.48-21.13,10.48l8.43-9.54L121.61,233l2.53-9.52-8.52,9.06S114.88,206.32,143.79,204.93Z"/><path class="cls-5" d="M147.75,140.2c0,6.42,4.79,11.63,10.7,11.63s10.7-5.21,10.7-11.63-4.79-11.62-10.7-11.62S147.75,133.79,147.75,140.2Z"/><path class="cls-5" d="M149.8,160.29c1.23,6.84,6.51,11.6,11.78,10.65s8.54-7.26,7.31-14.1-6.51-11.6-11.78-10.64S148.56,153.46,149.8,160.29Z"/><path class="cls-5" d="M142.24,181c-6.33,11.12-5.76,23.39,1.29,27.4s17.9-1.75,24.22-12.87,5.76-23.39-1.29-27.4S148.57,169.83,142.24,181Z"/><path class="cls-3" d="M136.72,203.17c-.83,1,0,3.09,4.41,6.59s6.58,3.87,7.41,2.82,0-3.08-4.41-6.58S137.55,202.13,136.72,203.17Z"/><ellipse class="cls-3" cx="86.08" cy="15.44" rx="17.9" ry="15.44"/><path class="cls-6" d="M155.44,139.57a103.56,103.56,0,0,0,6-35c0-49.35-33.74-78.18-75.36-78.18S10.71,55.23,10.71,104.58a103.56,103.56,0,0,0,6,35Z"/><path class="cls-5" d="M154.08,138.59c-1.58-45.75-18-81.67-68-81.67-50.86,0-66.5,35.92-68,81.67Z"/><path class="cls-7" d="M26.9,134.31s-6.6-8.69-13.95-4.65,2.82,30.44,17.35,32.6Z"/><path class="cls-7" d="M145.25,134.31s6.6-8.69,14-4.65-2.83,30.44-17.36,32.6Z"/><path class="cls-8" d="M24.85,121.18v20.33c0,11.22,4.39,21.8,11.85,28.56a72.91,72.91,0,0,0,49.38,18.37c30.23-.58,49.37-18.37,49.37-18.37,7.47-6.76,11.85-17.34,11.85-28.56V121.18s-14.76-5.59-61.22-5.91S24.85,121.18,24.85,121.18Z"/><path class="cls-4" d="M95.17,153.68s-3.46-6-9.09-6-9.09,6-9.09,6,2.58-8.05,9.09-8.05S95.17,153.68,95.17,153.68Z"/><path class="cls-9" d="M59.22,121.28s-4.9,10.95-21.32,11v-4.4s13.77-1.49,17.92-9.62Z"/><path class="cls-9" d="M112.93,121.28s4.89,10.95,21.32,11v-4.4s-13.77-1.49-17.92-9.62Z"/><path class="cls-9" d="M127.69,145.27h0a1.24,1.24,0,0,1-1.22-1.24c0-.29-.07-7.06-5.61-7.25-5.74-.19-7.1,5.48-7.16,5.72a1.23,1.23,0,1,1-2.39-.55c.62-2.73,3.43-7.83,9.63-7.62,6.35.21,8,6.45,8,9.71A1.23,1.23,0,0,1,127.69,145.27Z"/><path class="cls-9" d="M129.8,145.2a9.34,9.34,0,0,1-2.44-.27,1.23,1.23,0,1,1,.67-2.36,11.58,11.58,0,0,0,6.25-.63,1.23,1.23,0,0,1,.8,2.33A16.13,16.13,0,0,1,129.8,145.2Z"/><path class="cls-9" d="M127.54,142.65h-.09a1.23,1.23,0,0,1,0-2.46h.06c2.28,0,5.36-2.13,6.38-3a1.23,1.23,0,1,1,1.56,1.89C135.28,139.27,131.14,142.65,127.54,142.65Z"/><path class="cls-9" d="M44.46,145.27h0A1.24,1.24,0,0,0,45.69,144c0-.29.06-7.06,5.6-7.25,5.74-.19,7.11,5.48,7.16,5.72a1.23,1.23,0,0,0,2.4-.55c-.62-2.73-3.43-7.83-9.64-7.62s-8,6.45-8,9.71A1.24,1.24,0,0,0,44.46,145.27Z"/><path class="cls-9" d="M42.36,145.2a9.43,9.43,0,0,0,2.44-.27,1.22,1.22,0,0,0,.84-1.52,1.23,1.23,0,0,0-1.52-.84,11.54,11.54,0,0,1-6.24-.63,1.23,1.23,0,0,0-.8,2.33A16.09,16.09,0,0,0,42.36,145.2Z"/><path class="cls-9" d="M44.61,142.65h.07a1.25,1.25,0,0,0,1.24-1.25,1.23,1.23,0,0,0-1.23-1.21h0c-2.28,0-5.37-2.13-6.38-3a1.23,1.23,0,1,0-1.56,1.89C36.87,139.27,41,142.65,44.61,142.65Z"/><path class="cls-10" d="M72.09,172.78s3.53-5.3,7.6-5.05S86,171.88,86,171.88s3.67-4.07,7.94-4,6.15,5.3,6.15,5.3-4.25,9.93-14.4,9.93S72.09,172.78,72.09,172.78Z"/></g></g></svg>