<svg xmlns="http://www.w3.org/2000/svg" viewBox="0 0 183.31 280.54"><defs><style>.cls-1{fill:#393c3d;}.cls-2{fill:#f2d0af;}.cls-3{fill:#c65044;}.cls-4{fill:#ad3936;}.cls-5{fill:#e2963b;}.cls-6{fill:#f4d3b0;}.cls-7{fill:#3a332d;}.cls-8{fill:#ddb58e;}</style></defs><title>资源 251</title><g id="图层_2" data-name="图层 2"><g id="Layer_1" data-name="Layer 1"><path class="cls-1" d="M24,270.26c-.47,4.8,1.49,8.92-.32,8.74s-6.71-4.6-6.23-9.39,6.15-8.16,8-8S24.51,265.46,24,270.26Z"/><path class="cls-2" d="M39.49,197c-7.5,22.58-13.3,75.4-14.55,83.58H49.16c6.11-40.63,9.12-99.15,9.12-99.15S47.57,172.65,39.49,197Z"/><path class="cls-1" d="M43,266.68a79.24,79.24,0,0,1-15.93-3c-2.55,5.31-1.74,8.67-1.74,13a51.75,51.75,0,0,0,16.73,3.09,40,40,0,0,0,7.3-.62c.6-4.07,1.17-8.32,1.71-12.66A34.38,34.38,0,0,1,43,266.68Z"/><path class="cls-2" d="M127.21,197c7.5,22.58,13.3,75.4,14.55,83.58H117.54c-6.11-40.63-9.13-99.15-9.13-99.15S119.13,172.65,127.21,197Z"/><polygon class="cls-3" points="127.48 280.54 114.83 177.52 52.93 177.52 40.28 280.54 127.48 280.54"/><polygon class="cls-1" points="116.77 193.36 114.83 177.52 52.93 177.52 50.98 193.36 116.77 193.36"/><polygon class="cls-1" points="127.48 280.54 120.35 222.47 111.23 222.47 111.23 280.54 127.48 280.54"/><path class="cls-4" d="M45.07,241.55l-4.79,39h43.2c1-11.91-1.76-23.52-11.11-32.75C64.36,239.87,54.86,239.93,45.07,241.55Z"/><path class="cls-4" d="M85.2,214.42c6.61,6,15.52,12.46,24.53,14a71.67,71.67,0,0,0,11.47.93l-6.37-51.87H69C70.15,191.43,74.26,204.47,85.2,214.42Z"/><path class="cls-5" d="M18.05,131,6.24,91.17h8.64S6.24,71.26,0,66.22c0,0,10.44-4.56,18.05-4.32L14.4,33.59l30,13.2S53.26,14.64,77,0V27.35S90.45,8.88,127.88,6.48L116.37,26.39s19.43-1.2,49.18,11.76l-16.31,5.28s23.51,18.34,34.07,41.68l-24-1.61s12,16.86,11.52,33.5l-17.28-2.55s-1,14.63-7.43,19.19Z"/><path class="cls-6" d="M33.68,124.6s-8.54-10.49-18-5.61,3.66,36.77,22.45,39.37Z"/><path class="cls-6" d="M137.76,124.6s8.54-10.49,18.06-5.61-3.66,36.77-22.45,39.37Z"/><path class="cls-2" d="M130.37,171.77s-17.31,15-44.65,15.51-44.64-15.51-44.64-15.51a31.57,31.57,0,0,1-10.71-24.11V100.49L45.42,89.21a16.29,16.29,0,0,1,18-1.26L81.6,98.17a8.23,8.23,0,0,0,8.23,0L107.36,88a16.3,16.3,0,0,1,17.94,1l15.78,11.46v47.17A31.6,31.6,0,0,1,130.37,171.77Z"/><path class="cls-5" d="M73.83,186.41a66.3,66.3,0,0,0,11.89.87,74.81,74.81,0,0,0,11.9-1.19V176.4H73.83Z"/><path class="cls-7" d="M41.59,128.93A1.47,1.47,0,0,1,41,127a1.52,1.52,0,0,1,1.76-1.12l20.62,7a1.44,1.44,0,0,1,.63,1.94A1.52,1.52,0,0,1,62.27,136l-20.62-7Z"/><polygon class="cls-5" points="66.87 126.23 37.77 116.39 41.25 109 67.28 116.87 66.87 126.23"/><path class="cls-7" d="M126.8,128.93a1.48,1.48,0,0,0,.58-1.93,1.54,1.54,0,0,0-1.77-1.12l-20.61,7a1.44,1.44,0,0,0-.63,1.94,1.52,1.52,0,0,0,1.76,1.13l20.61-7Z"/><polygon class="cls-5" points="101.53 126.23 130.62 116.39 127.15 109 101.11 116.87 101.53 126.23"/><path class="cls-8" d="M74.18,153.59a13.55,13.55,0,0,1,12-6.38c6.18.17,11.66,6.39,11.66,6.39s-6.45-4.22-11.25-4.39C79.55,149,74.18,153.59,74.18,153.59Z"/><path class="cls-8" d="M63.44,165.21s.84.08,2.31.18,3.55.13,6.06.14,5.42-.13,8.52-.39c1.56-.09,3.16-.31,4.79-.48s3.27-.45,4.92-.68,3.27-.57,4.88-.86l4.71-1L104,161c1.41-.31,2.68-.77,3.89-1.1s2.33-.64,3.29-1l2.51-.82,2.22-.69-2.07,1-2.41,1.15c-.92.47-2,.87-3.19,1.33s-2.44,1-3.83,1.42-2.83,1-4.36,1.39-3.12.82-4.75,1.19-3.29.66-5,.94-3.36.5-5,.62-3.3.28-4.89.32-3.12,0-4.58,0-2.82-.13-4.09-.22a58.63,58.63,0,0,1-6.06-.85C64.25,165.46,63.44,165.21,63.44,165.21Z"/></g></g></svg>