<svg xmlns="http://www.w3.org/2000/svg" viewBox="0 0 250.7 260.01"><defs><style>.cls-1{fill:#eae5dc;}.cls-2{fill:#f9f5ed;}.cls-3{fill:#edefef;}.cls-4{fill:#717272;}.cls-5{fill:#515151;}.cls-6{fill:#595958;}.cls-7{fill:#7f5732;}.cls-8{fill:#684427;}.cls-9{fill:#3b3d3d;}.cls-10{fill:#2c3030;}.cls-11{fill:#616363;}.cls-12{fill:#f9dab4;}.cls-13{fill:#f7cea6;}.cls-14{fill:#f4c7a2;}.cls-15{fill:#f9f7f2;}.cls-16{fill:#6b4627;}</style></defs><title>资源 207</title><g id="图层_2" data-name="图层 2"><g id="Layer_1" data-name="Layer 1"><path class="cls-1" d="M168.72,152.69s18,9.91,30,39.61c9.41,23.37,9.41,31.29,9.41,31.29s-26.9,5.8-45.34,9.23l-12.44-75.77Z"/><path class="cls-2" d="M170.51,158.58c4.29,1.65,7.23,5.71,10,9.21a110.68,110.68,0,0,1,8.66,12.08c.46.78,4.27,6.92,3.6,7.44-13.14,10.23-15.54,20.93-12.65,23.6s9.67-22,14.65-17c8.65,16.1-.85,26.2-11.76,30.06-7.15,2.53-13.27-18.28-14.57-22.15-3.94-11.72-7.48-25.33-5.36-37.79.34-2,.89-4.42,2.91-5.34A5.7,5.7,0,0,1,170.51,158.58Z"/><path class="cls-1" d="M85,152.69S67,162.6,55,192.3c-9.41,23.37-9.41,31.29-9.41,31.29s26.9,5.8,45.34,9.23l12.44-75.77Z"/><path class="cls-2" d="M83.21,158.58c-4.29,1.65-7.23,5.71-9.95,9.21a110.68,110.68,0,0,0-8.66,12.08c-.46.78-4.28,6.92-3.61,7.44,13.15,10.23,15.55,20.93,12.66,23.6s-9.67-22-14.65-17c-8.65,16.1.85,26.2,11.76,30.06C77.9,226.51,84,205.7,85.33,201.83c3.94-11.72,7.48-25.33,5.36-37.79-.34-2-.89-4.42-2.91-5.34A5.7,5.7,0,0,0,83.21,158.58Z"/><path class="cls-2" d="M96.12,155.87s-15,62.6-15,101.64h91.25s-7.5-76.07-18.25-102Z"/><path class="cls-1" d="M166.25,236.64c-1.25,15.09-31.24,12.12-45.9,12.12s-24.55.18-29.85-17.69,4.71-59.69,4.71-59.69l3.41-15.53-2.5,0s-15,62.6-15,101.64h91.25S170,233.18,166,207.35A192.21,192.21,0,0,1,166.25,236.64Z"/><polygon class="cls-1" points="119.39 165.72 108.5 175.31 106.14 171.83 119.93 162.92 120.99 164.73 119.39 165.72"/><polygon class="cls-1" points="135.11 165.72 146.01 175.31 148.36 171.83 134.57 162.92 133.52 164.73 135.11 165.72"/><path class="cls-2" d="M106.89,173.38l20.42-14.9-26.65-3.69Zm20.42-14.9,19.07,14.9,7.05-18.59Z"/><polygon class="cls-3" points="132.57 164.62 122.29 164.62 122.1 165.69 112.54 219.99 128.52 243.96 145.41 219.4 132.57 164.62"/><polygon class="cls-4" points="123.37 165.91 131.55 165.91 144.02 219.14 128.53 241.66 113.9 219.71 123.37 165.91"/><polygon class="cls-5" points="144.02 219.14 131.55 165.91 128.03 165.91 128.03 240.91 128.53 241.66 144.02 219.14"/><path class="cls-2" d="M133.56,174.5a33.6,33.6,0,0,1-2.86,3.08,35.41,35.41,0,0,1-10.59,6.89l-1.38,7.78a42.65,42.65,0,0,0,16.71-9.72Z"/><path class="cls-2" d="M139.78,201l-1.95-8.31a32.31,32.31,0,0,1-5.12,5.56,40.36,40.36,0,0,1-16.54,8.53l-1.29,7.32A48,48,0,0,0,137.74,203C138.49,202.34,139.16,201.68,139.78,201Z"/><path class="cls-2" d="M142.45,212.41c-2.91,3.45-10.21,10.4-24.19,13.84l4,6a55.73,55.73,0,0,0,19.34-9.63l2.4-3.5Z"/><path class="cls-6" d="M120.62,159.5h14.13c.54,0,.23,7.12.06,7.85-.92,3.8-5,3.72-8,3.68-2.08,0-4.7-.22-5.93-2.22C119.31,166.25,120.48,162.28,120.62,159.5Z"/><rect class="cls-7" x="81.02" y="249.78" width="91.36" height="10.05"/><rect class="cls-8" x="117.2" y="247.42" width="20.5" height="12.41"/><path class="cls-9" d="M199.87,117.32c8.83-17,14.39-58.89.66-61.95C201.67,2,143.2-3.4,101,1.37S46.57,39,49.18,53C41,56.73,40,62.51,43.63,75.11s11.44,42,11.44,42Z"/><path class="cls-10" d="M177,68.52a23.5,23.5,0,0,1-11.16,4.89c-17.67,2.72-52.25,3.51-73.54-4.77C62.79,57.15,68.06,31.88,68.06,31.88c-.61,4.34,5.76,8.8,5.76,8.8-3.43-7.53,4.78-17.36,4.78-17.36C77.25,27.15,80,33.54,80,33.54c0-7.28,8.83-14.43,8.83-14.43-2.45,8.17,5.27,17.74,5.27,17.74-6.87-3.7-7.36-13.91-7.36-13.91C80.07,28.3,81.3,39,81.3,39A14.75,14.75,0,0,1,77,28.68c-4.41,5.75-.61,16.09-.61,16.09a21.81,21.81,0,0,1-6.24-4.48c0,1.66,2,12.55,9.25,17,13.42,8.52,59.5,12.68,80.22,11.15,0,0,17.85.42,37.14-11.88C196.77,56.51,185.55,64.94,177,68.52Z"/><path class="cls-10" d="M49.18,53c-.71.33-1.37.68-2,1,8,3.6,19.55,2.71,19.55,2.71a81.53,81.53,0,0,1-17.68-4.42C49.11,52.54,49.14,52.76,49.18,53Z"/><path class="cls-10" d="M55.07,117.15l144.8.17c3.43-6.61,6.37-17,7.87-27.37-8.31,7-24.54-.88-24.54-.88H78.11c-23.84,6.46-32.76-7.84-32.77-7.85C49.25,95.32,55.07,117.15,55.07,117.15Z"/><path class="cls-11" d="M85,74.77V68.64c-35.8,4.6-42.93-8.11-42.93-8.11h0a19,19,0,0,0,0,7.71C59.42,78.43,85,74.77,85,74.77Z"/><path class="cls-11" d="M208,66.34c-11.86,16-36.49,17.37-36.49,17.37L174,88.05a84,84,0,0,0,34.75-15.6A47.94,47.94,0,0,0,208,66.34Z"/><path class="cls-12" d="M178.08,67.94c0,8.68,2.82,11.26,2.82,11.26,9.13,18.68,47.87,79-52.61,83.71v0l-.34,0-.33,0v0C27.14,158.24,65.88,97.88,75,79.2c4.57-9.37,4.49-15.32,3.27-18.94a113.39,113.39,0,0,0,27.9,7.49C127.39,70.69,164.51,75.17,178.08,67.94Z"/><path class="cls-13" d="M62.23,134.9c5.65,14.33,23.31,26,65.39,28v0l.33,0,.34,0v0c42.7-2,60.26-14,65.63-28.65C178.15,159,135.81,159.2,110.31,157.5s-48.08-22.6-48.08-22.6Z"/><path class="cls-13" d="M174.68,69.36c-15.6,5.15-48.86,1.11-68.5-1.61a113.39,113.39,0,0,1-27.9-7.49A14.35,14.35,0,0,1,79,64.15,99.07,99.07,0,0,0,107,71.45C125.25,73.35,155.89,77.1,174.68,69.36Z"/><path class="cls-14" d="M122.57,96.4c-2.56,4.24-3.62,8.79-5.47,13.18s-7,9.39-4.63,14.27c2.12,4.38,8.43,6,14.39,6.26,16.09.64,23.39-4.12,18.92-15.71C143.83,109.35,132.52,80,122.57,96.4Z"/><path class="cls-12" d="M124.09,95c-2.17,3.82-3.1,7.9-4.68,11.84s-5.87,8.46-4,12.81c1.69,3.92,6.87,5.34,11.78,5.52,13.26.47,19.34-3.84,15.79-14.19C141.44,106.46,132.5,80.2,124.09,95Z"/><path class="cls-15" d="M126.36,124.06c.17.62,2,.88,4,.59s3.54-1,3.36-1.63-1.95-.86-4-.58S126.19,123.46,126.36,124.06Z"/><path class="cls-12" d="M61.43,111.79S58.09,95,45.31,99.21s-11.66,20.48-7.09,28,20.15,18.18,24.13,3.52C62.2,121.42,61.43,111.79,61.43,111.79Z"/><path class="cls-13" d="M45.31,99.21C58.09,95,61.43,111.79,61.43,111.79s0,.11,0,.32c0,0-5.6-14-17.15-10.68s-6.29,25.25-1,28.48,13.65,8.74,19.07.77c-4,14.66-19.55,3.95-24.13-3.52S32.53,103.38,45.31,99.21Z"/><path class="cls-14" d="M55.58,117.39a16.73,16.73,0,0,0-1.59-6.3,1.43,1.43,0,0,0-.12-.21A8.28,8.28,0,0,0,49.92,107a5.66,5.66,0,0,0-2.07-.52,1.15,1.15,0,0,0-1.07,1.12,1,1,0,0,0,.9,1.16h.06a4.77,4.77,0,0,1,1.35.38,6.11,6.11,0,0,1,2.23,1.75,13.71,13.71,0,0,0-2.08.84,12.24,12.24,0,0,0-5.92,6.62c-.08.22-.16.45-.24.7a1.12,1.12,0,0,0,.51,1.39l.06,0a1,1,0,0,0,1.27-.77c.06-.18.13-.36.2-.55a9.79,9.79,0,0,1,4.8-5.33,10.1,10.1,0,0,1,2.27-.85l.31-.07a15.5,15.5,0,0,1,1.12,4.9,1,1,0,0,0,.57.88.85.85,0,0,0,.5.06A1.21,1.21,0,0,0,55.58,117.39Z"/><path class="cls-12" d="M193.38,111.79S196.71,95,209.49,99.21s11.66,20.48,7.09,28-20.14,18.18-24.13,3.52C192.6,121.42,193.38,111.79,193.38,111.79Z"/><path class="cls-13" d="M209.49,99.21c-12.78-4.17-16.11,12.58-16.11,12.58l0,.32s5.61-14,17.15-10.68,6.29,25.25,1,28.48-13.66,8.74-19.08.77c4,14.66,19.55,3.95,24.13-3.52S222.27,103.38,209.49,99.21Z"/><path class="cls-14" d="M199.22,117.39a16.91,16.91,0,0,1,1.6-6.3,1.39,1.39,0,0,1,.11-.21,8.29,8.29,0,0,1,4-3.91,5.59,5.59,0,0,1,2.06-.52,1.15,1.15,0,0,1,1.07,1.12,1,1,0,0,1-.9,1.16h-.06a4.85,4.85,0,0,0-1.35.38,6.28,6.28,0,0,0-2.23,1.75,13.31,13.31,0,0,1,2.08.84,12.16,12.16,0,0,1,5.92,6.62c.08.22.17.45.25.7a1.14,1.14,0,0,1-.51,1.39l-.07,0a1,1,0,0,1-1.27-.77c-.06-.18-.13-.36-.2-.55a9.79,9.79,0,0,0-4.8-5.33,10.23,10.23,0,0,0-2.26-.85l-.32-.07a16.07,16.07,0,0,0-1.12,4.9,1,1,0,0,1-.57.88.84.84,0,0,1-.5.06A1.21,1.21,0,0,1,199.22,117.39Z"/><path class="cls-9" d="M115,86.39S98.79,75.11,89.21,73.11c-2.64,2.74-5.59,6.75-4.56,7.2C93,84,99.91,85.68,113.74,94.23,116.61,89.58,115,86.39,115,86.39Z"/><path class="cls-9" d="M146.37,87.73s15.26-11.39,24.41-13.62c2.64,2.56,5.6,6.33,4.62,6.8-8,3.85-14.52,5.65-27.57,14.33C144.92,90.85,146.37,87.73,146.37,87.73Z"/><path class="cls-16" d="M89.38,106A.94.94,0,0,1,88.6,105h0a39.89,39.89,0,0,1,1.07-4.6h0c.76-2.47,1.83-5.29,3.72-6.86h0a3,3,0,0,1,2-.67h0a7.26,7.26,0,0,1,3.57,1.25h0a25.27,25.27,0,0,1,3.37,2.55h0a43.34,43.34,0,0,1,3.65,3.66h0a.93.93,0,0,1-.09,1.32h0a.93.93,0,0,1-1.32-.09h0s-.21-.24-.58-.63h0c-.37-.4-.9-1-1.53-1.57h0a27.65,27.65,0,0,0-4.47-3.64h0a5.45,5.45,0,0,0-2.6-1h0a1.1,1.1,0,0,0-.77.24h0a10.16,10.16,0,0,0-2.51,4.18h0A33,33,0,0,0,90.7,104h0c-.17.8-.25,1.29-.25,1.29h0a.93.93,0,0,1-.92.79h-.15Z"/><path class="cls-16" d="M169.47,105.48s-.08-.5-.24-1.32h0c-.17-.82-.43-1.93-.78-3.13h0c-.67-2.37-1.83-5-3.11-6.08h0a1.07,1.07,0,0,0-.76-.24h0c-.91,0-2.6.85-4.16,2.1h0a38.1,38.1,0,0,0-4,3.74h0c-.63.68-1,1.11-1,1.11h0a1,1,0,0,1-1.33.1h0a.93.93,0,0,1-.1-1.32h0a37.69,37.69,0,0,1,7-6.33h0a7.18,7.18,0,0,1,3.58-1.28h0a3.06,3.06,0,0,1,2,.68h0c1.88,1.6,3,4.48,3.72,7h0a39.11,39.11,0,0,1,1.06,4.69h0a.94.94,0,0,1-.78,1.07h-.15a.94.94,0,0,1-.92-.8Z"/><path class="cls-14" d="M157.6,131.79a2.13,2.13,0,0,0-1.4-1.51,2,2,0,0,0-.58-.09,9.25,9.25,0,0,0-4.9,1.37.79.79,0,0,0-.24,1.1.81.81,0,0,0,1.11.24l.06,0a7.67,7.67,0,0,1,3.9-1.08l.18,0,.14.08-.17.08a42.6,42.6,0,0,1-14.58,6,66.42,66.42,0,0,1-14,1.27c-2.55,0-5-.08-7.39-.13A43.48,43.48,0,0,1,107.09,137a36.05,36.05,0,0,1-3.48-1.35l-.89-.44-.23-.12,0,0h0a.82.82,0,0,0-.82,1.42,41,41,0,0,0,18.06,4.29c2.37.05,4.85.13,7.43.13a67.6,67.6,0,0,0,14.36-1.31,44.25,44.25,0,0,0,14.71-6,5.13,5.13,0,0,1-.08.71c-.05.36-.12.68-.17.9l-.09.35a.8.8,0,0,0,.53,1h0a.81.81,0,0,0,1-.54,12.12,12.12,0,0,0,.4-2.33A5.28,5.28,0,0,0,157.6,131.79Z"/><path class="cls-12" d="M15.18,246.13S-1.55,207.89.12,200,3.23,190,15.53,189.11a93.32,93.32,0,0,0,17.72-2.61,37.61,37.61,0,0,0,6.06-2.06c1.6-.74,3.56-2.35,5.4-1.22,1.26.77,1.81,2.74,2.28,4,1.2,3.26,1.4,7.12-.43,10.18a14.41,14.41,0,0,1-6,5C26.44,209,15.18,246.13,15.18,246.13Z"/><path class="cls-13" d="M15.53,189.11C3.23,190,1.78,192.16.12,200c-1.6,7.56,13.77,43.14,15,45.93l-1.23-18.3c-3.84.2-4.66-4-6.33-9.14S2.85,208.12,5.23,200C6.77,194.64,12,191,15.53,189.11Z"/><path class="cls-13" d="M44.71,183.22a2.49,2.49,0,0,0-.72-.31c1.25,1.3,1.27,2.78-2,9.58-3.9,8-19.44,7.35-26,8.47s-4.24,9.27-4.24,9.27c-.9,7.47,10.77,8.81,10.77,8.81l4.18-.48c4-7.26,8.76-13.75,13.92-16.15a14.41,14.41,0,0,0,6-5c1.83-3.06,1.63-6.92.43-10.18C46.52,186,46,184,44.71,183.22Z"/><path class="cls-12" d="M12.68,231.73S11.43,260.58,22.83,260l53-2.74c10.07-.51,13.57.09,14.3-12.66s1.57-40-5.81-43-14.44-2.51-14.89.77c0,0,.49-3.78-2.59-3.63l-12.52.65c-2.18.11-3.52,1.06-3.39,2.9,0,0,.37-3.43-2.71-3.27l-14.81.77c-1.89.09-1.64,3.78-1.64,3.78s-.33-3.39-2-3.3S19.06,203,16.63,203.84s-5.26,1.9-4.91,7.16C12.11,216.72,12.68,231.73,12.68,231.73Z"/><path class="cls-13" d="M84.31,201.58c-7.38-3-14.44-2.51-14.89.77,0,0,.49-3.78-2.59-3.63l-12.52.65c-2,.11-3.3.93-3.38,2.51,0-.89-.29-3-2.72-2.88l-14.81.77c-1.89.09-1.64,3.78-1.64,3.78s-.33-3.39-2-3.3S19.06,203,16.63,203.84s-5.26,1.9-4.91,7.16.88,18.45.95,20.46a1.16,1.16,0,0,1,0,.17v.1S11.43,260.58,22.83,260l53-2.74,1.72-.08h0c8.75-.41,11.89-.59,12.58-12.58C90.86,231.85,91.69,204.57,84.31,201.58ZM87.22,235a30.85,30.85,0,0,1-3.94,13.4c-3.52,4.59-22.44,4-33.8,4.63S29,249.43,22.85,245.54s-7.24-19-7.24-19h0c0-.84,0-1.44,0-1.44-.65-9.69-3.48-16.16,4.14-18.5s10.32-.73,10.68,4.51,1.68,23.06.75,24.08l3.71-.19a107.65,107.65,0,0,1-1.74-12c-.35-5.3-.92-18.69.63-20.39s3.62-1.49,7.46-1.68,8-1.2,8.45,5l1.51,22.43a21.2,21.2,0,0,1-.38,4.23l4-.21a34.19,34.19,0,0,1-1.54-9.12l-1.32-19.52c-.17-2.58,3.4-2.76,6-2.9s10.27-1.57,10.69,4.63l1.56,23.2a9.63,9.63,0,0,1-.38,4.24l3.71-.19A61.76,61.76,0,0,1,71.59,222c-.35-5.17-.72-18.51,1.37-19.13s10.11.13,12.53,6.48S87.74,227,87.22,235Z"/><path class="cls-13" d="M26.55,187.91c-2.69,4.52-.31,9.14-.54,5.72-.18-2.58,2.6-5.09,4.42-6.46C29.14,187.45,27.85,187.7,26.55,187.91Z"/><path class="cls-12" d="M235.52,246.13s16.73-38.24,15.06-46.11-3.11-10.07-15.41-10.91a93.32,93.32,0,0,1-17.72-2.61,37.17,37.17,0,0,1-6-2.06c-1.61-.74-3.57-2.35-5.41-1.22-1.26.77-1.81,2.74-2.28,4-1.2,3.26-1.4,7.12.43,10.18a14.41,14.41,0,0,0,6,5C224.26,209,235.52,246.13,235.52,246.13Z"/><path class="cls-13" d="M235.17,189.11c12.3.84,13.75,3,15.41,10.91,1.6,7.56-13.77,43.14-15,45.93l1.23-18.3c3.84.2,4.66-4,6.33-9.14s4.69-10.39,2.31-18.55C243.93,194.64,238.66,191,235.17,189.11Z"/><path class="cls-13" d="M206,183.22a2.49,2.49,0,0,1,.72-.31c-1.25,1.3-1.27,2.78,2,9.58,3.9,8,19.45,7.35,26,8.47s4.24,9.27,4.24,9.27c.9,7.47-10.77,8.81-10.77,8.81l-4.18-.48c-4-7.26-8.76-13.75-13.92-16.15a14.41,14.41,0,0,1-6-5c-1.83-3.06-1.63-6.92-.43-10.18C204.18,186,204.73,184,206,183.22Z"/><path class="cls-12" d="M238,231.73s1.25,28.85-10.15,28.27l-53-2.74c-10.07-.51-13.57.09-14.3-12.66s-1.57-40,5.81-43,14.44-2.51,14.89.77c0,0-.49-3.78,2.59-3.63l12.52.65c2.18.11,3.52,1.06,3.39,2.9,0,0-.37-3.43,2.72-3.27l14.8.77c1.89.09,1.64,3.78,1.64,3.78s.33-3.39,2-3.3,10.68,2.79,13.11,3.59,5.26,1.9,4.91,7.16C238.6,216.72,238,231.73,238,231.73Z"/><path class="cls-13" d="M160.58,244.6c.69,12,3.83,12.17,12.58,12.58h0l1.72.08,53,2.74c11.4.58,10.15-28.27,10.15-28.27v-.1a1.16,1.16,0,0,1,0-.17c.07-2,.59-15.18.95-20.46s-2.46-6.35-4.91-7.16-11.43-3.51-13.11-3.59-2,3.3-2,3.3.25-3.69-1.64-3.78L202.5,199c-2.44-.12-2.72,2-2.73,2.88-.08-1.58-1.36-2.4-3.38-2.51l-12.52-.65c-3.08-.15-2.59,3.63-2.59,3.63-.45-3.28-7.51-3.76-14.89-.77S159.84,231.85,160.58,244.6Zm4.63-35.3c2.42-6.35,10.45-7.11,12.53-6.48s1.72,14,1.37,19.13a61.76,61.76,0,0,1-1.92,10.8l3.71.19a9.63,9.63,0,0,1-.38-4.24l1.56-23.2c.42-6.2,8-4.77,10.69-4.63s6.22.32,6,2.9l-1.32,19.52a34.19,34.19,0,0,1-1.54,9.12l4,.21a20.71,20.71,0,0,1-.37-4.23l1.5-22.43c.42-6.2,4.61-5.2,8.45-5s5.92,0,7.47,1.68,1,15.09.62,20.39a107.65,107.65,0,0,1-1.74,12l3.71.19c-.93-1,.4-18.85.75-24.08s3.06-6.85,10.68-4.51,4.79,8.81,4.14,18.5c0,0,0,.6,0,1.44h0s-1.06,15.1-7.24,19-15.24,8.09-26.63,7.51-30.28,0-33.8-4.63a30.85,30.85,0,0,1-3.94-13.4C163,227,162.79,215.66,165.21,209.3Z"/><path class="cls-13" d="M224.15,187.91c2.69,4.52.31,9.14.54,5.72.18-2.58-2.6-5.09-4.42-6.46C221.56,187.45,222.85,187.7,224.15,187.91Z"/></g></g></svg>