<svg xmlns="http://www.w3.org/2000/svg" viewBox="0 0 203.69 259.96"><defs><style>.cls-1{fill:#2d2723;}.cls-2{fill:#d88832;}.cls-3{fill:#1e1a17;}.cls-4{fill:#f9dab4;}.cls-5{fill:#7f5732;}.cls-6{fill:#4c3626;}.cls-7{fill:#9e6f4c;}.cls-8{fill:#8e633f;}.cls-9{fill:#f4d3b0;}.cls-10{fill:#c65044;}.cls-11{fill:#efc4a0;}.cls-12{fill:#3a332d;}.cls-13{fill:#e8dfd9;}</style></defs><title>资源 177</title><g id="图层_2" data-name="图层 2"><g id="Layer_1" data-name="Layer 1"><path class="cls-1" d="M182.44,222.47s-8.92,2.34-8.49,14,12.73,17.62,12.73,17.62L183.15,246s4.81,10.19,12,10.62c0,0,5.1-7.86,2.34-13.38l3.39,7.43a17.62,17.62,0,0,0,1.91-14.85C200.05,227.57,194.32,216.32,182.44,222.47Z"/><path class="cls-2" d="M173.93,217.59s.85,9.34,7.85,7.85,14.65-4.88,8.07-12.73S173.93,217.59,173.93,217.59Z"/><path class="cls-1" d="M153.55,165s-6.37,6.16-5.09,14.86,9.34,14.43,9.34,14.43a10,10,0,0,0-.43,9.55c2.55,5.1,12.95,6.37,12.95,6.37s-3,13,12.74,9.77,12.52-21.23,7-23.57c0,0,6.16-11.88-3.61-17.61,0,0,4.81-16.72-8.46-19.18S153.55,165,153.55,165Z"/><path class="cls-2" d="M141.67,158.79s2.1,16.73,28,7c18.68-7,3.4-22.08,3.4-22.08Z"/><path class="cls-3" d="M156.6,193.28c.72.62,1.2,1,1.2,1A9,9,0,0,0,157,196a29,29,0,0,0,2.89,1.16,19.36,19.36,0,0,0,11.57.31,104.94,104.94,0,0,1-10.79-2.74C159.29,194.27,158,193.77,156.6,193.28Z"/><path class="cls-3" d="M172.44,209.44c-3.5-.37-6.92-1.08-10.61-1.84l.22.19a31.1,31.1,0,0,0,8.27,2.37,13.1,13.1,0,0,0-.19,1.44c.67.14,1.34.28,2,.37a17.07,17.07,0,0,0,11-2.23A72.55,72.55,0,0,1,172.44,209.44Z"/><path class="cls-3" d="M186.29,182.21a22.46,22.46,0,0,0,1.46-2.56,11.88,11.88,0,0,0-1.3-.9,24.15,24.15,0,0,0,.57-2.81,40.26,40.26,0,0,1-2.82,4.82,20.49,20.49,0,0,1-4.33,4.67,17.65,17.65,0,0,1-5.94,2.87,10.85,10.85,0,0,0,7-1.19A15.66,15.66,0,0,0,186.29,182.21Z"/><path class="cls-3" d="M190.06,196.36l.19-.38a27.13,27.13,0,0,1-2.32,3.43,13.93,13.93,0,0,1-3.17,2.9,6.64,6.64,0,0,0,4.53-1.45,11.26,11.26,0,0,0,2.69-3A5.19,5.19,0,0,0,190.06,196.36Z"/><path class="cls-1" d="M114.55.14C101.45-.68,87.44,2,77.31,10.59A46.21,46.21,0,0,0,59.41,7C26.6,7,0,42.05,0,85.34s26.6,78.37,59.41,78.37c12.41,0,63.66,3.3,77,3.3,35.15,0,49.1-26.36,49.1-70.83S161.51,3.11,114.55.14Z"/><path class="cls-4" d="M34.56,183.27c-2.82,11.27-4.9,47.78-5.74,76.69H50.06l4.14-84.7S39.19,164.78,34.56,183.27Z"/><path class="cls-4" d="M148.39,183.27c-4.63-18.49-19.63-8-19.63-8L132.9,260h21.23C153.29,231.05,151.22,194.54,148.39,183.27Z"/><path class="cls-5" d="M63.42,164.05s-28.88-8.56-48.31,43.31l36.83,12.93Z"/><path class="cls-6" d="M42.24,208.13c-7.63-3-15.57-7.15-23.76-8.95-1.15,2.55-2.28,5.26-3.37,8.18l36.83,12.93,1.54-7.52C49.75,211.18,46,209.61,42.24,208.13Z"/><path class="cls-5" d="M119.54,164.05s28.88-8.56,48.31,43.31L131,220.29Z"/><path class="cls-6" d="M140.71,208.13c7.64-3,15.58-7.15,23.77-8.95,1.15,2.55,2.28,5.26,3.37,8.18L131,220.29l-1.54-7.52C133.21,211.18,136.94,209.61,140.71,208.13Z"/><path class="cls-7" d="M121.07,164.05s-9.52.95-29.59,1.13c-20.08-.18-29.59-1.13-29.59-1.13s-14.25-2.55-17.54,18.67c-2.19,14.15-2.92,52.95-3.16,77.24H141.77c-.24-24.29-1-63.09-3.17-77.24C135.32,161.5,121.07,164.05,121.07,164.05Z"/><path class="cls-8" d="M62.67,260l-.2-48H42.24c-.62,15.93-.92,34.28-1.05,48Z"/><path class="cls-8" d="M141.77,260c-.14-13.72-.43-32.07-1.06-48H120.48l-.2,48Z"/><path class="cls-6" d="M64.21,153.37S59.5,167.25,68,172.66s42.58,5.85,49.16-1.88,0-17.41,0-17.41Z"/><rect class="cls-6" x="84.19" y="163.52" width="14.58" height="96.44"/><path class="cls-8" d="M84.19,176.38a97.2,97.2,0,0,0,14.58,0V163.52H84.19Z"/><path class="cls-9" d="M37,109.15S21.15,89,9.5,103.5,23.26,144,43.73,138.57Z"/><path class="cls-9" d="M145.93,109.15S161.81,89,173.45,103.5s-13.76,40.5-34.22,35.07Z"/><path class="cls-4" d="M168.8,72H14.16s11.7,92.17,76.2,94.84c0,0,.74.06,1.12.06s1.11-.06,1.11-.06C157.1,164.2,168.8,72,168.8,72Z"/><path class="cls-1" d="M147.79,64.69s12.06,29.21-4.38,73.88c0,0,27.5-17.73,25.9-66.54C169.31,72,161.9,57.36,147.79,64.69Z"/><path class="cls-1" d="M35.16,64.69s-12,29.21,4.38,73.88c0,0-27.49-17.73-25.9-66.54C13.64,72,21.05,57.36,35.16,64.69Z"/><path class="cls-1" d="M16.93,60.11s7.19,31.39,13.3,32.8,57.26,5,58,2.13S90,76.69,90,76.69s2.42,19.16,6.36,19.41c4.27.28,22.93,1.81,24.34,0s1.76-16.25,1.76-16.25,1.77,14.81,7.41,14.81,30.34,1.42,32.46-1.76S166,68.31,166,68.31L151.71,49.17Z"/><path class="cls-10" d="M76.43,144.64s3.47-5.41,7.49-5.16,6.2,4.24,6.2,4.24,3.61-4.15,7.83-4.06,6.06,5.4,6.06,5.4-4.19,10.12-14.2,10.12S76.43,144.64,76.43,144.64Z"/><path class="cls-11" d="M83.31,130.49s.69-6.38,6.65-6.41,7.17,6.41,7.17,6.41-3.25-3.93-7.06-3.93S83.31,130.49,83.31,130.49Z"/><path class="cls-1" d="M140.69,105.2s-13.26-2.56-24.47-.67l.41-2.27c.49-2.77,4.09-4.92,11.34-5.35s11.57,1.75,12.13,5Z"/><path class="cls-1" d="M39.46,105.2s13.26-2.56,24.46-.67l-.4-2.27c-.49-2.77-4.1-4.92-11.34-5.35s-11.57,1.75-12.14,5Z"/><path class="cls-12" d="M117.21,121a7.09,7.09,0,1,0,5.21-8.56A7.09,7.09,0,0,0,117.21,121Z"/><path class="cls-13" d="M120.91,115.27c0,1,1.53,1.82,3.31,1.74s3.2-1,3.15-2-1.52-1.81-3.3-1.74S120.87,114.24,120.91,115.27Z"/><path class="cls-12" d="M62.94,121a7.09,7.09,0,1,1-5.21-8.56A7.09,7.09,0,0,1,62.94,121Z"/><path class="cls-13" d="M59.24,115.27c0,1-1.53,1.82-3.31,1.74s-3.2-1-3.15-2,1.52-1.81,3.3-1.74S59.28,114.24,59.24,115.27Z"/></g></g></svg>