<svg xmlns="http://www.w3.org/2000/svg" viewBox="0 0 195.13 260.27"><defs><style>.cls-1{fill:#e06969;}.cls-2{fill:#ed7272;}.cls-3{fill:#d15454;}.cls-4{fill:#d35f5f;}.cls-5{fill:#717272;}.cls-6{fill:#515151;}.cls-7{fill:#fff;}.cls-8{fill:#595958;}.cls-9{fill:#505151;}.cls-10{fill:#8e8e8e;}.cls-11{fill:#f9dab4;}.cls-12{fill:#444;}.cls-13{fill:#f7cea6;}.cls-14{fill:#f4c7a2;}.cls-15{fill:#616363;}.cls-16{fill:#2f3233;}.cls-17{fill:#ffc41d;}</style></defs><title>资源 206</title><g id="图层_2" data-name="图层 2"><g id="Layer_1" data-name="Layer 1"><path class="cls-1" d="M77.4,156.11s-38.09,39.11-51.24,69.78,2,34.38,18.21,34.38,41.12-28.74,41.12-28.74l16.89-75.4Z"/><path class="cls-2" d="M52.62,192.18s11.31-21.05,18.21-24.94,13.82-4.22,11.12,4S74,198.42,74,198.42Z"/><path class="cls-3" d="M35.72,203s-4.67,7.41-1.3,13.31,19.59,38,38.43,33.28C62.13,231.86,35.72,203,35.72,203Z"/><path class="cls-2" d="M33.41,219s-13.65,20.22-9.6,31,27.3,8.76,35.05,1C53.8,245.94,39.65,236.17,33.41,219Z"/><path class="cls-1" d="M149.1,154.49l-8,.77.2,104.57h36c3.6-8.13,7.62-17.1,10.83-23.92,7.66-16.3-.4-25.65-7.77-38.25S149.1,154.49,149.1,154.49Z"/><path class="cls-2" d="M155,169.6c-1.83-.1-.47,8.66-.47,8.66s4.31,33.52,7.31,39.66c12-1.88,17.58,5.11,18.71,10.24s-1.68,5-1.59,3.35-.3-4.18-3.59-8S163.78,220,163.68,222c2.61.14,7.51,1.94,9.74,4.51s1.4,5.64-.21,3.79-3.71-4.28-7.64-4.49-6.37,21.12-4.58,26.35a25.86,25.86,0,0,0,4.21,7.67h9.05c3.94-5,9.05-14.85,11.79-24,3.93-13.14,1.09-19.94-7-35S156.8,169.7,155,169.6Z"/><path class="cls-2" d="M160.11,259.83c-.47-40.61-14.8-103.44-14.8-103.44L88,156c-9.62,24.33-16.6,91.29-17.84,103.79Z"/><path class="cls-1" d="M70.15,259.83h90c-.47-40.61-14.8-103.44-14.8-103.44l-2.46,0,3.36,16.12s9.89,43.39,4.65,61.93-15,18.36-29.49,18.36S77.25,255.87,76,240.21a211,211,0,0,1,.29-30.4C73,232.11,70.79,253.33,70.15,259.83Z"/><polygon class="cls-4" points="105.63 167.71 94.64 177.1 92.27 173.69 106.17 164.98 107.23 166.75 105.63 167.71"/><polygon class="cls-4" points="121.47 167.71 132.46 177.1 134.83 173.69 120.93 164.98 119.86 166.75 121.47 167.71"/><path class="cls-2" d="M93,175.21l20.59-14.58L82.54,157Zm20.59-14.58,19.23,14.58,7.1-18.18Z"/><polygon class="cls-4" points="118.91 166.64 108.54 166.64 108.35 167.68 98.72 220.81 114.82 244.25 131.86 220.22 118.91 166.64"/><polygon class="cls-5" points="109.64 167.9 117.88 167.9 130.46 219.97 114.84 242 100.09 220.53 109.64 167.9"/><polygon class="cls-6" points="130.46 219.97 117.88 167.9 114.33 167.9 114.33 241.26 114.84 242 130.46 219.97"/><path class="cls-7" d="M119.91,176.31a32.83,32.83,0,0,1-2.89,3,35.72,35.72,0,0,1-10.67,6.75L105,193.67a43.42,43.42,0,0,0,16.85-9.51Z"/><path class="cls-7" d="M126.18,202.27l-2-8.13a32.37,32.37,0,0,1-5.17,5.44,41.29,41.29,0,0,1-16.67,8.34l-1.3,7.17a49.05,49.05,0,0,0,23-10.9C124.87,203.54,125.56,202.89,126.18,202.27Z"/><path class="cls-7" d="M128.87,213.39c-2.93,3.37-10.3,10.17-24.39,13.54l4,5.89A56.84,56.84,0,0,0,128,223.39l2.42-3.42Z"/><path class="cls-8" d="M106.86,161.63h14.25c.54,0,.23,7,.06,7.68-.92,3.72-5.07,3.64-8.08,3.6-2.09,0-4.74-.21-6-2.17C105.54,168.23,106.72,164.35,106.86,161.63Z"/><path class="cls-9" d="M29.49,122.19S22.88,78,22.88,67s13-8.74,13-8.74S27,19.91,55.91,9.46C106.76-8.9,138.79,4.4,157.39,8.54c12,2.67,26.19,12.72,19.94,44,20.53,0,20.08,13.65,13.09,69.61C103.23,122.15,29.49,122.19,29.49,122.19Z"/><path class="cls-10" d="M23,70.07c.14,2.2.38,4.92.69,8C34,86.16,50.56,88.72,50.56,88.72V80C34.33,80,26.4,73.93,23,70.07Z"/><path class="cls-10" d="M194.7,72c-4.13,3.67-11.92,8-25.67,8v8.74s15.31-2.37,25.67-9.79C194.78,76.39,194.79,74.07,194.7,72Z"/><path class="cls-11" d="M47.43,84.43v63c0,8.74.45,16.1,40.62,16.1s83,3.68,83-13.34V81.67c0-13.34-6.55-21.16-17.26-24.53s-28.58,2.44-34.68,8.73c0,0,4.64,4.41.06,9.13,0,0,1.12-4.6-2.79-6.67,0,0,.23,6.55-5.58,7.93,0,0,2.79-4,1.12-7.47,0,0-2.68,5.75-7.81,5.17,0,0,4.8-4,3.23-7.35C98,57,47.43,45.18,47.43,84.43Z"/><path class="cls-12" d="M126.82,87.31s17.17-2,20.28-2.17c4.71-.25,10.64-.13,10.64-.13s-1.13-6.26-2.24-7.44-11.13-.28-17.16,1S127,80.5,126.82,87.31Z"/><path class="cls-12" d="M94.46,88.45s-17.32-3.14-20.23-3.58c-4.42-.68-10-1.08-10-1.08s1.63-6.13,2.79-7.22,10.5.72,16.06,2.54S94.92,81.66,94.46,88.45Z"/><path class="cls-11" d="M48.43,112.62S45,94.9,31.88,99.31s-12,21.68-7.28,29.58,20.69,19.24,24.78,3.72C49.23,122.81,48.43,112.62,48.43,112.62Z"/><path class="cls-13" d="M31.88,99.31C45,94.9,48.43,112.62,48.43,112.62l0,.34s-5.76-14.8-17.62-11.29-6.45,26.71-1.05,30.13,14,9.25,19.59.81c-4.09,15.52-20.08,4.18-24.78-3.72S18.76,103.72,31.88,99.31Z"/><path class="cls-14" d="M42.43,118.54a18.12,18.12,0,0,0-1.64-6.65,1,1,0,0,0-.12-.23,8.68,8.68,0,0,0-4.06-4.14,5.83,5.83,0,0,0-2.12-.55,1.21,1.21,0,0,0-1.1,1.19,1,1,0,0,0,.92,1.22h.07a4.63,4.63,0,0,1,1.38.4,6.42,6.42,0,0,1,2.29,1.85,12.83,12.83,0,0,0-8.21,7.89c-.09.23-.17.48-.25.74a1.19,1.19,0,0,0,.52,1.47l.07,0a1.05,1.05,0,0,0,1.3-.82c.06-.19.13-.38.2-.58a10.27,10.27,0,0,1,4.94-5.64,10.56,10.56,0,0,1,2.32-.9l.33-.08a17.25,17.25,0,0,1,1.14,5.2,1.1,1.1,0,0,0,.59.93.91.91,0,0,0,.52.06A1.3,1.3,0,0,0,42.43,118.54Z"/><path class="cls-11" d="M168.05,112.52s3.43-17.72,16.55-13.31,12,21.68,7.28,29.58S171.2,148,167.1,132.51C167.26,122.72,168.05,112.52,168.05,112.52Z"/><path class="cls-13" d="M184.6,99.21c-13.12-4.41-16.55,13.31-16.55,13.31s0,.12,0,.34c0,0,5.75-14.8,17.61-11.29s6.45,26.71,1.05,30.13-14,9.25-19.59.81c4.1,15.52,20.08,4.18,24.78-3.72S197.72,103.62,184.6,99.21Z"/><path class="cls-14" d="M174.05,118.45a18.12,18.12,0,0,1,1.64-6.66,1.67,1.67,0,0,1,.12-.23,8.65,8.65,0,0,1,4.06-4.13,5.78,5.78,0,0,1,2.12-.56,1.22,1.22,0,0,1,1.1,1.19,1,1,0,0,1-.92,1.22h-.06a4.59,4.59,0,0,0-1.39.4,6.42,6.42,0,0,0-2.29,1.85,13.86,13.86,0,0,1,2.14.89,12.73,12.73,0,0,1,6.07,7c.09.23.18.48.26.74a1.2,1.2,0,0,1-.53,1.47l-.06,0a1.06,1.06,0,0,1-1.31-.81c-.06-.2-.13-.39-.2-.59a10.25,10.25,0,0,0-4.93-5.64,10.8,10.8,0,0,0-2.33-.9l-.32-.08a17.22,17.22,0,0,0-1.15,5.2,1.08,1.08,0,0,1-.59.93.88.88,0,0,1-.51.06A1.3,1.3,0,0,1,174.05,118.45Z"/><path class="cls-14" d="M116.31,122.85a16.92,16.92,0,0,0-4-5.24h0a5.24,5.24,0,0,0-3.33-1.33h0a7.1,7.1,0,0,0-4.74,2.44h0a17.93,17.93,0,0,0-2.65,3.5h0l-.15.25h0a1,1,0,0,1-1.37.42h0a1.06,1.06,0,0,1-.41-1.42h0a19.47,19.47,0,0,1,2.53-3.58h0c1.58-1.77,3.87-3.68,6.79-3.71h0a7.23,7.23,0,0,1,4.58,1.78h0a18.89,18.89,0,0,1,4.51,5.87h0a1.07,1.07,0,0,1-.4,1.42h0a1,1,0,0,1-.49.14h0a1,1,0,0,1-.89-.54Z"/><path class="cls-15" d="M119.89,129.11s11.85-.87,20.84,13.08c-1.57-1.21-3.24-2.33-4.93-3.4a41.07,41.07,0,0,0-9.85-4.92,18.44,18.44,0,0,0-2.69-.62c-1.91-.28-3.22-.27-4.53-1.59-.32-.32-1-.84-.82-1.38S119.38,129.15,119.89,129.11Z"/><path class="cls-15" d="M103.05,129.07s-11.79-.92-20.45,12.61c1.54-1.16,3.17-2.24,4.83-3.28a40.38,40.38,0,0,1,9.69-4.74,19.34,19.34,0,0,1,2.66-.58c1.89-.27,3.2-.25,4.48-1.52.31-.31.95-.82.78-1.33S103.57,129.11,103.05,129.07Z"/><path class="cls-13" d="M88.05,163.54c40.17,0,83,3.68,83-13.34V137.92c-1.34,14.62-12.5,21.94-21.88,21.94s-54.23.92-77.22,0-24.55-21-24.55-21v8.57C47.43,156.18,47.88,163.54,88.05,163.54Z"/><path class="cls-7" d="M91.27,146.37s29.58-.25,37.67-3.79a57.77,57.77,0,0,0-1.27,9.61s-17.7-5.31-36.4-4.05Z"/><path class="cls-16" d="M153.18,88.71c-33.17,0-39.58,6.66-39.58,6.66h-10S97.13,88.71,64,88.71c-24.11,0-25.88.86-25.88,3,0,3.65.17,7,.17,7a12.94,12.94,0,0,1,6.25,8.65c1.55,6.46.88,24.52,26.32,25.16,15,0,23.44-3.65,28-12.58a97.87,97.87,0,0,0,6-13.54,4,4,0,0,1,7.62,0,99.54,99.54,0,0,0,6,13.54c4.54,8.93,12.94,12.58,28,12.58,25.43-.64,24.77-18.7,26.32-25.16a12.91,12.91,0,0,1,6.24-8.65s.17-3.39.17-7C179.06,89.57,177.29,88.71,153.18,88.71Z"/><path class="cls-10" d="M157.61,94.08s-14.82-1.93-29.2,1.94c-8.51,2.58-11.28,6.66-7.74,16.13s9.1,16.78,25.54,16.45,20.8-8,21.35-18.28C168.11,101.29,168.89,95.16,157.61,94.08Z"/><path class="cls-7" d="M168.89,95.7a1.2,1.2,0,0,0,1.21,1.18h4.54a1.2,1.2,0,0,0,1.21-1.18h0a1.2,1.2,0,0,0-1.21-1.19H170.1a1.2,1.2,0,0,0-1.21,1.19Z"/><path class="cls-10" d="M59.54,94.08S74.35,92.15,88.73,96c8.52,2.58,11.28,6.66,7.74,16.13s-9.09,16.78-25.54,16.45-20.79-8-21.35-18.28C49,101.29,48.26,95.16,59.54,94.08Z"/><path class="cls-7" d="M48.26,95.7A1.2,1.2,0,0,1,47,96.88H42.51a1.2,1.2,0,0,1-1.22-1.18h0a1.21,1.21,0,0,1,1.22-1.19H47a1.21,1.21,0,0,1,1.22,1.19Z"/><path class="cls-7" d="M88.73,96,88.49,96,68.26,128.47c.69.05,1.41.09,2.15.11L91.16,96.86Q90,96.41,88.73,96Zm-8.28-1.65L60.23,126.86A25.55,25.55,0,0,0,64.57,128L86.34,95.43C84.36,95,82.38,94.63,80.45,94.37Z"/><path class="cls-7" d="M163.66,95.62l-19.74,33c.74,0,1.5,0,2.29,0h0l19.65-31.27A7.48,7.48,0,0,0,163.66,95.62Zm-6-1.54s-.74-.09-2.05-.2l-20.08,33.53a29.76,29.76,0,0,0,4.62.91l21.5-33.51A21.65,21.65,0,0,0,157.61,94.08Z"/><path class="cls-14" d="M131.66,143.42a.5.5,0,0,1-.41-.58h0a3.63,3.63,0,0,0,.07-.67h0a1.12,1.12,0,0,0-.39-1h0a1.7,1.7,0,0,0-1-.27h0a6.12,6.12,0,0,0-1.53.24h0c-.43.12-.72.23-.72.23h0a.5.5,0,0,1-.66-.28h0a.51.51,0,0,1,.28-.65h0a8.12,8.12,0,0,1,2.63-.55h0a2.77,2.77,0,0,1,1.65.47h0a2.12,2.12,0,0,1,.79,1.81h0a5.38,5.38,0,0,1-.08.85h0a.51.51,0,0,1-.5.41h-.09Z"/><path class="cls-13" d="M60.81,242.75s3.44,6.79,10,6.79c4.75,0,19.86-9.79,24.9-12.31s11.19-9,8.4-11.76-2.8-8.39-7.56-8.39c1.68-4.48.56-23.23-13.57-19.73,2.66-5.46-3.22-21.41-17.77-16.37-6.44,1.68-14.83,7.56-14.83,7.56s-5.32-14.28-17.63-14.28S9,179.3,19,189.38,46,220.16,50.43,227.43,60.81,242.75,60.81,242.75Z"/><path class="cls-11" d="M47.67,189.39s-6.88-13.17-17.37-13.17-15.95,5.25-8.4,12.8S42.26,209,48.35,217.57s17.21,28.12,20.15,29.17,14.69-4.62,16.37-6.3,14.76-6.22,17.24-11.71c1.23-3.08-.77-5.07-2-6.28s-2.47-5-5.62-3.62a60.69,60.69,0,0,0-8,4c-.48.47-1.89-1.06-.48-1.58s9.21-4.08,10.13-6.93-1.47-11.43-4.83-13.85-7.76-2.73-17.63,5c-1.26,1.26-2.83-.32-.1-2.1S82,197.94,82,191.54s-8.92-12.17-15.74-9.76-15,7.56-16.16,8.71-4.83,2.94-5.46,2.31S47.67,189.39,47.67,189.39Z"/><path class="cls-17" d="M0,148.19s7.75-3.87,7.75-22.41c5.4,13.48,8.77,18,14.66,19.72-6.74,4-10.44,16.68-10.44,16.68S8.76,149.54,0,148.19Z"/></g></g></svg>