<?xml version="1.0" standalone="no"?><!DOCTYPE svg PUBLIC "-//W3C//DTD SVG 1.1//EN" "http://www.w3.org/Graphics/SVG/1.1/DTD/svg11.dtd"><svg t="1549180962005" class="icon" style="" viewBox="0 0 1024 1024" version="1.1" xmlns="http://www.w3.org/2000/svg" p-id="20362" xmlns:xlink="http://www.w3.org/1999/xlink" width="200" height="200"><defs><style type="text/css"></style></defs><path d="M511.984282 511.984282m-511.984282 0a511.984282 511.984282 0 1 0 1023.968564 0 511.984282 511.984282 0 1 0-1023.968564 0Z" fill="#BAD4C8" p-id="20363"></path><path d="M220.818821 679.044753s39.269194-89.597249 10.239686-285.840824 82.429469-287.581571 278.007465-287.581572 310.774459 71.677799 291.83104 273.041218-2.867112 282.461728 1.996739 300.381178c0.153595 0-332.943379 32.613399-582.07493 0z" fill="#6A4626" p-id="20364"></path><path d="M632.198192 698.346561a226.962632 226.962632 0 0 1-42.853085-13.260393c-63.690845-27.03277-150.932966 0.66558-150.932966 0.665579s-12.39002 9.062122-40.958743 12.031631-41.36833 42.648291-45.208212 56.318271c-3.123104 11.161257-25.599214 150.472181-40.190766 229.31776a513.622632 513.622632 0 0 0 399.34774 0.358389c-12.646012-73.213752-38.040432-219.590059-40.958743-235.205579-4.147073-19.353006-18.89222-47.153752-38.245225-50.225658z" fill="#F26D4A" p-id="20365"></path><path d="M403.955599 936.931236h69.988251s-0.358389 16.332299-0.358389 42.545894-30.258271 31.384636-37.118861 31.384637-32.511002-4.147073-32.511001-26.674382V936.931236z" fill="#D3401A" p-id="20366"></path><path d="M263.262318 467.288054s-25.599214-21.093752-39.678782-21.093752-40.293163 7.679764-40.293163 53.451159 47.614538 76.797642 93.181139 63.537249c0 0 50.532849 130.146405 235.51277 130.146405s237.099921-126.613713 237.099921-126.613713 91.747583 22.168919 91.747583-61.847701-71.677799-40.549155-76.029665-37.989234c0 0 1.94554-54.372731-35.8389-115.503654 0 0-139.003733-1.791945-215.033399-104.188802 0 0-85.757367 112.226955-214.623811 98.556975a405.184361 405.184361 0 0 0-36.043693 121.545068z" fill="#FADAB3" p-id="20367"></path><path d="M338.319214 415.372848a51.198428 51.198428 0 0 1 49.713673-34.149352c39.473988 0 49.713674 31.179843 49.713674 31.179843s1.791945 8.14055-13.36279 0.97277a73.520943 73.520943 0 0 0-35.838899-7.628565c-8.652534 0-33.842161 5.119843-42.392299 11.417249s-7.83336-1.791945-7.833359-1.791945zM695.172258 415.372848a51.198428 51.198428 0 0 0-49.713674-34.149352c-39.473988 0-49.713674 31.179843-49.713673 31.179843s-1.791945 8.14055 13.362789 0.97277a73.520943 73.520943 0 0 1 35.8389-7.628565c8.652534 0 33.842161 5.119843 42.392299 11.417249s7.83336-1.791945 7.833359-1.791945z" fill="#694625" p-id="20368"></path><path d="M387.060117 478.807701m-41.061139 0a41.061139 41.061139 0 1 0 82.122279 0 41.061139 41.061139 0 1 0-82.122279 0Z" fill="#452817" p-id="20369"></path><path d="M353.556917 472.252961a12.594813 22.373713 55.9 1 0 37.053569-25.087152 12.594813 22.373713 55.9 1 0-37.053569 25.087152Z" fill="#FDFEFB" p-id="20370"></path><path d="M646.431355 487.61383m-41.06114 0a41.061139 41.061139 0 1 0 82.122279 0 41.061139 41.061139 0 1 0-82.122279 0Z" fill="#452817" p-id="20371"></path><path d="M612.897728 481.021317a12.594813 22.373713 55.9 1 0 37.053568-25.087152 12.594813 22.373713 55.9 1 0-37.053568 25.087152Z" fill="#FDFEFB" p-id="20372"></path><path d="M486.385068 556.578113s28.363929-63.588448 57.905422 0c0 0-13.209194-22.220118-27.493556-22.220118S486.385068 556.578113 486.385068 556.578113z" fill="#EFC3A0" p-id="20373"></path><path d="M450.546168 603.629469h124.821768s-14.693949 46.078585-61.438114 46.078585-63.383654-46.078585-63.383654-46.078585z" fill="#AA3734" p-id="20374"></path><path d="M479.524479 639.468368a47.56334 47.56334 0 0 1 33.637367-14.233163 67.991513 67.991513 0 0 1 37.477249 12.594814s-35.8389 37.11886-71.114616 1.638349z" fill="#E25E5D" p-id="20375"></path><path d="M333.199371 554.581374m3.737485 0l18.124244 0q3.737485 0 3.737485 3.737486l0 0q0 3.737485-3.737485 3.737485l-18.124244 0q-3.737485 0-3.737485-3.737485l0 0q0-3.737485 3.737485-3.737486Z" fill="#FFFFFF" p-id="20376"></path><path d="M665.579567 554.581374m3.737485 0l18.124244 0q3.737485 0 3.737485 3.737486l0 0q0 3.737485-3.737485 3.737485l-18.124244 0q-3.737485 0-3.737485-3.737485l0 0q0-3.737485 3.737485-3.737486Z" fill="#FFFFFF" p-id="20377"></path><path d="M208.531198 510.499528s-11.519646-31.691827 16.741886-31.691827 35.326915 34.046955 37.682043 44.030648-53.399961-8.857328-54.423929-12.338821z" fill="#FCD4B1" p-id="20378"></path><path d="M265.668644 538.351473s-45.6178 12.799607-57.137446-27.851945c0 0 42.238703-5.119843 52.478389 3.635088a69.988251 69.988251 0 0 1 4.659057 24.216857z" fill="#F2C8AA" p-id="20379"></path><path d="M820.915598 510.499528s11.519646-31.691827-16.94668-31.691827-35.326915 34.046955-37.682043 44.030648 53.604754-8.857328 54.628723-12.338821z" fill="#FCD4B1" p-id="20380"></path><path d="M763.778152 538.351473s45.6178 12.799607 57.137446-27.851945c0 0-42.238703-5.119843-52.478389 3.635088a69.988251 69.988251 0 0 0-4.659057 24.216857z" fill="#F2C8AA" p-id="20381"></path><path d="M403.955599 696.964203c-2.099136 0.307191-4.24947 0.614381-6.553399 0.819175-19.506601 2.047937-31.640629 21.144951-38.603615 37.374853 31.691827 10.239686 13.260393 193.17167 2.508723 266.231826l8.191748 2.457525c9.318114-46.948959 33.790963-279.953005 34.456543-306.883379zM666.705932 736.745382c-6.246208-17.25387-18.89222-35.8389-34.50774-38.398821-2.355128-0.409587-4.761454-0.870373-7.218979-1.433556H624.620824c0.66558 26.72558 24.677642 255.992141 34.20055 305.654616l8.294146-2.508723c-10.598075-71.473006-27.749548-243.090137-0.409588-263.313516z" fill="#DF5838" p-id="20382"></path></svg>