<svg xmlns="http://www.w3.org/2000/svg" viewBox="0 0 170.2 260"><defs><style>.cls-1{fill:#f4efed;}.cls-2{fill:#3a332d;}.cls-3{fill:#e2dcd9;}.cls-4{fill:#f9dab4;}.cls-5{fill:#c6c2c1;}.cls-6{fill:#b2afaf;}.cls-7{fill:#d8d8d8;}.cls-8{fill:#f4d3b0;}.cls-9{fill:#e8dfd9;}.cls-10{fill:#ad3e3b;}.cls-11{fill:#efc4a0;}.cls-12{fill:#c65044;}</style></defs><title>资源 67</title><g id="图层_2" data-name="图层 2"><g id="Layer_1" data-name="Layer 1"><rect class="cls-1" x="62.19" y="159.98" width="45.81" height="100.02"/><rect class="cls-2" x="80.24" y="165.79" width="9.05" height="10.58" rx="2.05"/><polygon class="cls-2" points="82.02 175.35 70.17 258.06 72.3 260 98.8 260 101.2 257.64 87.29 175.35 82.02 175.35"/><polygon class="cls-3" points="60.45 163.28 60.45 185.19 85.04 171.08 107.62 185.19 108.58 163.18 60.45 163.28"/><path class="cls-4" d="M26,237.74A66.61,66.61,0,0,0,23.23,260H42.45A76.47,76.47,0,0,0,41,247.61Z"/><path class="cls-5" d="M57.25,161.34S49.79,165.08,39,192.47C32.38,209.16,23.33,229,23.74,239.69c.15,4,18.52,11.84,22.71,11.3l14.74-84.81Z"/><path class="cls-6" d="M46.12,251,56.2,171.14,40.55,249.82A19.14,19.14,0,0,0,46.12,251Z"/><path class="cls-5" d="M57.25,161.34s-6,58-12.52,98.66H81.07a42.8,42.8,0,0,0,3.18-16.61C84,205,64.93,160.78,64.93,160.78Z"/><path class="cls-7" d="M84.15,239.18c-1.26-31.4-14-65.45-18-75.47,0,0-4,27.34-7.2,32.85,0,0,6.59,1.2,10.54-.72,0,0-1.92,19.88-5.27,28.5C64.21,224.34,81.33,221.22,84.15,239.18Z"/><path class="cls-4" d="M131.15,247.61A77.61,77.61,0,0,0,129.69,260h19.23a66.61,66.61,0,0,0-2.73-22.26Z"/><path class="cls-5" d="M114.9,161.34s7.46,3.74,18.28,31.13c6.59,16.69,15.64,36.51,15.23,47.22-.15,4-18.52,11.84-22.71,11.3L111,166.18Z"/><path class="cls-6" d="M126,251,116,171.14l15.65,78.68A19.14,19.14,0,0,1,126,251Z"/><path class="cls-5" d="M114.9,161.34l-7.68-.56S88.14,205,87.9,243.39A43,43,0,0,0,91.07,260h36.35C120.92,219.35,114.9,161.34,114.9,161.34Z"/><path class="cls-7" d="M88,239.18c1.26-31.4,14-65.45,18-75.47,0,0,4,27.34,7.2,32.85,0,0-6.59,1.2-10.54-.72,0,0,1.92,19.88,5.27,28.5C107.94,224.34,90.82,221.22,88,239.18Z"/><path class="cls-8" d="M24.25,90.54s-6.59-13.8-17.93-8.7-8.52,38.57,17.4,45.42Z"/><path class="cls-8" d="M146,90.54s6.59-13.8,17.93-8.7,8.52,38.57-17.4,45.42Z"/><path class="cls-4" d="M151,131.37a26.41,26.41,0,0,1-18.34,25.15C117.83,161.3,97.43,167,85.08,167s-32.75-5.74-47.6-10.52a26.41,26.41,0,0,1-18.33-25.15V72.12H151Z"/><circle class="cls-2" cx="47.9" cy="111.31" r="8.13" transform="translate(-73.27 112.97) rotate(-67.5)"/><path class="cls-9" d="M45.44,106c-.24,1.17,1.2,2.44,3.21,2.84s3.83-.21,4.06-1.37-1.2-2.44-3.21-2.84S45.67,104.81,45.44,106Z"/><polygon class="cls-10" points="37.77 92.39 35.33 98.92 58.62 99.62 56.2 93.19 37.77 92.39"/><circle class="cls-2" cx="124.3" cy="111.31" r="8.13" transform="translate(-26.11 183.55) rotate(-67.5)"/><path class="cls-9" d="M121.84,106c-.24,1.17,1.2,2.44,3.21,2.84s3.82-.21,4.06-1.37-1.21-2.44-3.21-2.84S122.07,104.81,121.84,106Z"/><polygon class="cls-10" points="134.37 92.23 136.91 98.72 113.63 99.79 115.95 93.32 134.37 92.23"/><path class="cls-11" d="M83.74,150.25a87.68,87.68,0,0,1-18.27-2C57.29,146.52,53,143,52.83,142.87a1.17,1.17,0,0,1,1.49-1.8h0s4.07,3.31,11.64,5a83.92,83.92,0,0,0,25.22,1.52c10.18-1,17.89-4.22,22.95-9.42a1.16,1.16,0,0,1,1.64,0,1.18,1.18,0,0,1,0,1.65C108.25,147.5,95.88,150.25,83.74,150.25Z"/><path class="cls-11" d="M66.93,123.19a29,29,0,0,0,17.9,6.7,27.08,27.08,0,0,0,17.3-6.4,38.82,38.82,0,0,1-17.35,4A40.11,40.11,0,0,1,66.93,123.19Z"/><path class="cls-12" d="M166.28,83.53S184,0,85.08,0,5,82.61,5,82.61C9.07,80.32,13.84,82,16.29,84c4,3.25,2.86,39.23,2.86,39.23l3.54,2.34,3.92-47.32A209,209,0,0,0,80.39,97.64a29.8,29.8,0,0,1-5.88-13.26,146,146,0,0,0,41.71,17.5,38.39,38.39,0,0,1-6.84-17.09C119.71,91,129.84,94.18,144,95l3.41,30.51,3.64-2s-2-33.93.74-38.14C154.43,81.41,161.53,79.83,166.28,83.53Z"/></g></g></svg>