<svg xmlns="http://www.w3.org/2000/svg" viewBox="0 0 166.44 260"><defs><style>.cls-1{fill:#e5be9e;}.cls-2{fill:#f9dab4;}.cls-3{fill:#79a348;}.cls-4{fill:#a6c975;}.cls-5{fill:#6b4627;}.cls-6{fill:#f9f7f2;}.cls-7{fill:#f7cea6;}.cls-8{fill:#3a332d;}.cls-9{fill:#e8dfd9;}.cls-10{fill:#472b18;}.cls-11{fill:#fff;}.cls-12{fill:#f4c7a2;}</style></defs><title>资源 28</title><g id="图层_2" data-name="图层 2"><g id="Layer_1" data-name="Layer 1"><path class="cls-1" d="M4.18,260c2.31-19.44,6-46.55,6-46.55L56,216.09V260Z"/><path class="cls-2" d="M8.86,245c.42-3.43-.32-7.26.9-10.55a5.53,5.53,0,0,1,1.41-2.18c2.41-2.26,6.57-1.82,9.85-1.88s7.71.27,9.46,3.54c3.24,6.09.32,21.14-.16,26.06H6.6C7.31,255,8.24,250,8.86,245Z"/><path class="cls-3" d="M45.61,157.71S12.55,172.19,2.42,212.62c-.45,1.81,0,8,10.19,10.52C25.93,226.47,49.86,226,49.86,226v-68.3Z"/><path class="cls-4" d="M21.22,222.7s-12.75-.33-14.33-9.87,17-38.15,24.47-42.12,10.78-3.73,9.13,6.62S34.44,218.08,34.44,222C30.26,224,21.22,222.7,21.22,222.7Z"/><path class="cls-1" d="M162.56,260c-2.31-19.44-6-46.55-6-46.55l-45.82,2.64V260Z"/><path class="cls-2" d="M157.88,245c-.42-3.43.32-7.26-.9-10.55a5.53,5.53,0,0,0-1.41-2.18c-2.41-2.26-6.56-1.82-9.85-1.88s-7.71.27-9.46,3.54c-3.24,6.09-.32,21.14.16,26.06h23.72C159.43,255,158.5,250,157.88,245Z"/><path class="cls-3" d="M121.14,157.71s33.05,14.48,43.18,54.91c.46,1.81,0,8-10.19,10.52-13.32,3.33-37.25,2.87-37.25,2.87v-68.3Z"/><path class="cls-4" d="M145.52,222.7s12.75-.33,14.33-9.87-17-38.15-24.47-42.12-10.77-3.73-9.13,6.62,6.05,40.75,6.05,44.71C136.49,224,145.52,222.7,145.52,222.7Z"/><path class="cls-3" d="M112.93,152.72H54s-9.81,4.54-11.52,22.74c-1.44,15.35-9.87,65-6.31,84.54h94.6c3.56-19.51-4.87-69.19-6.31-84.54C122.74,157.26,112.93,152.72,112.93,152.72Z"/><path class="cls-4" d="M38.37,208.19a301.56,301.56,0,0,0,90.18,0c-1.29-10.75-2.69-20.71-3.53-27.63a257.85,257.85,0,0,1-83.12,0C41.06,187.48,39.67,197.44,38.37,208.19Z"/><path class="cls-4" d="M36.49,225.58c-.93,10.2-1.46,20-1.05,27.63,32,8.67,64,8.84,96,0,.41-7.62-.12-17.43-1-27.63A265.44,265.44,0,0,1,36.49,225.58Z"/><path class="cls-5" d="M164.12,74.76c0,14-4.14,37.07-11.34,48.28-14,21.83-39.72,26.48-69.07,26.48-25,0-47.3-.63-62-17.24C10.19,119.36,3.3,92.82,3.3,74.76,3.3,33.47,39.3,0,83.71,0S164.12,33.47,164.12,74.76Z"/><path class="cls-2" d="M147.63,54.78l-126-.15s.62,29.6-1.09,43.33c-1,7.88-.43,14.7-.63,17.8-1.87,28.44,28.26,51.79,63.54,52s64-22.69,64.2-51.2a77.49,77.49,0,0,0-.44-9.44c-.24-2.4-.24-5-.38-8C146.22,86.35,147.63,54.78,147.63,54.78Z"/><path class="cls-6" d="M44.24,129.65a1.16,1.16,0,0,1-1.19,1.11l-3.89-.15a1.17,1.17,0,0,1-1.12-1.2h0a1.16,1.16,0,0,1,1.2-1.11l3.89.14a1.16,1.16,0,0,1,1.11,1.21Z"/><path class="cls-6" d="M128,130.19a1.17,1.17,0,0,1-1.2,1.11l-3.89-.15a1.15,1.15,0,0,1-1.11-1.2h0a1.15,1.15,0,0,1,1.2-1.11l3.89.14a1.18,1.18,0,0,1,1.11,1.21Z"/><path class="cls-2" d="M139.46,134.94a21.17,21.17,0,0,0,17.82-.24c9.36-4.57,14-23.35,1.85-27.85s-15.85,9.45-15.85,9.45Z"/><path class="cls-7" d="M145.1,129.23s3.85-20.58,12.84-13.47c5.53,4.36,2.25,10.46-2.88,13C151.84,130.29,147.66,130.43,145.1,129.23Z"/><path class="cls-1" d="M145.21,129l1.33-5.19s17.11-4.88,12.31,2S145.21,129,145.21,129Z"/><path class="cls-2" d="M26.76,133.76a21.19,21.19,0,0,1-17.82-.47c-9.29-4.69-13.66-23.53-1.49-27.87s15.74,9.65,15.74,9.65Z"/><path class="cls-7" d="M21.2,128s-3.59-20.62-12.67-13.63c-5.58,4.29-2.39,10.43,2.71,13C14.44,129,18.62,129.14,21.2,128Z"/><path class="cls-1" d="M21.09,127.74l-1.27-5.21s-17-5.1-12.33,1.83S21.09,127.74,21.09,127.74Z"/><path class="cls-8" d="M57.16,112A7.18,7.18,0,1,1,50,104.84,7.18,7.18,0,0,1,57.16,112Z"/><path class="cls-9" d="M51.17,107c.18.87-.89,1.82-2.39,2.12s-2.86-.16-3-1,.89-1.81,2.39-2.11S51,106.15,51.17,107Z"/><path class="cls-8" d="M123.62,112a7.18,7.18,0,1,1-7.18-7.18A7.19,7.19,0,0,1,123.62,112Z"/><path class="cls-9" d="M117.63,107c.17.87-.9,1.82-2.39,2.12s-2.86-.16-3-1,.9-1.81,2.39-2.11S117.46,106.15,117.63,107Z"/><path class="cls-10" d="M125,108.79a10.31,10.31,0,1,1-14.29-2.87A10.31,10.31,0,0,1,125,108.79Z"/><path class="cls-11" d="M118,106.38c1,1.54-.31,4.23-3,6s-5.67,2-6.7.43.32-4.22,3-6S116.94,104.84,118,106.38Z"/><path class="cls-10" d="M59.75,106.43a10.31,10.31,0,1,1-14.29-2.87A10.31,10.31,0,0,1,59.75,106.43Z"/><path class="cls-11" d="M52.76,104c1,1.54-.32,4.23-3,6s-5.68,2-6.7.43.32-4.22,3-6S51.74,102.48,52.76,104Z"/><path class="cls-12" d="M74,132.59a1.24,1.24,0,0,1-.67-2.29,19.08,19.08,0,0,1,21.24.06,1.24,1.24,0,1,1-1.5,2c-.35-.26-8.5-6.23-18.4.06A1.26,1.26,0,0,1,74,132.59Z"/><path class="cls-12" d="M83.55,152.27c-15.07,0-24.72-3-25.12-3.17a1.24,1.24,0,1,1,.75-2.36c.1,0,9.72,3,24.37,3a92.65,92.65,0,0,0,24.7-3.05,1.24,1.24,0,0,1,1.55.82,1.23,1.23,0,0,1-.81,1.55C108.57,149.23,98.62,152.27,83.55,152.27Z"/><path class="cls-5" d="M18.94,101.83s37,7.43,78.69-25.89c1.88,7.13.67,14.34-2.9,21.61,0,0,29-13.45,35.24-30.89,0,0,13.52,13.1,17.66,42.18l10.68-53.39L111,32.08,22.18,41.64,9.11,84.73Z"/></g></g></svg>