<svg xmlns="http://www.w3.org/2000/svg" viewBox="0 0 214.74 260"><defs><style>.cls-1{fill:#f9dab4;}.cls-2{fill:#962a2a;}.cls-3{fill:#f9f5ed;}.cls-4{fill:#ad3936;}.cls-5{fill:#3a332d;}.cls-6{fill:#e0dbd3;}.cls-7{fill:#f4d3b0;}.cls-8{fill:#e0605c;}.cls-9{fill:#603a26;}.cls-10{fill:#bed3d3;}.cls-11{fill:#efc4a0;}.cls-12{fill:#963;}</style></defs><title>资源 353</title><g id="图层_2" data-name="图层 2"><g id="Layer_1" data-name="Layer 1"><path class="cls-1" d="M5.25,248.85A58,58,0,0,0,0,260H36.11c.4-4.62.63-9.71.68-15.31l-24.43-8.78A105.6,105.6,0,0,1,5.25,248.85Z"/><path class="cls-2" d="M47.18,133.52s-16.29-3.43-20.62,16.74S8.45,237,8.45,237l47.64,15.14Z"/><path class="cls-3" d="M64.25,238.5s-51.73-13-56.84-17.66a65.9,65.9,0,0,0-7,20.28s29,16.48,61.07,16.48Z"/><path class="cls-1" d="M209.48,248.85A57.41,57.41,0,0,1,214.74,260H178.63c-.4-4.62-.63-9.71-.68-15.31l24.43-8.78A106.13,106.13,0,0,0,209.48,248.85Z"/><path class="cls-2" d="M167.56,133.52s16.29-3.43,20.62,16.74S206.28,237,206.28,237l-47.64,15.14Z"/><path class="cls-3" d="M150.49,238.5s51.73-13,56.83-17.66a65.9,65.9,0,0,1,7,20.28s-29,16.48-61.07,16.48Z"/><path class="cls-4" d="M178.08,244.69,172,157c.06-.62.1-1.24.1-1.86,0-19.18-28.91-34.73-64.58-34.73h-.23c-35.66,0-64.58,15.55-64.58,34.73,0,.62,0,1.24.1,1.86l-6.05,87.71Z"/><polygon class="cls-5" points="119.15 235.41 95.72 235.41 93 235.41 36.79 244.69 36.79 260 178.08 260 178.08 244.69 121.87 235.41 119.15 235.41"/><path class="cls-3" d="M181.83,56.29c.44-9.49-18.33-38.41-25.83-43.93S123.16.13,107.66,0h-.45C91.71.13,66.31,6.9,58.87,12.36S32.6,46.8,33,56.29,45,89.63,45,89.63l62.48-2,62.47,2S181.39,65.79,181.83,56.29Z"/><path class="cls-3" d="M45.17,96s-12.5,29.72-12.43,41.79,23.32,53,68.65,60.93S158.2,189,158.2,189s-24.09-3.24-23.08-10,10.16-3.83,24.42-13,25.32-28.55,22-41.5A286.24,286.24,0,0,0,172,96Z"/><path class="cls-6" d="M159.54,166a48,48,0,0,0,7.83-6.33c-5.3,1.51-10.32,3.73-15.5,5.66-4.92,1.84-9.9,2.68-15,3.91-4.41,1.07-11.13,2.42-12.44,7.57-.85,3.32,1.44,5.63,4.23,7.05,6.84,3.49,15.19,4.28,22.75,4.58,1.21,0,2.4,0,3.56,0-6.51-1.15-20.65-4.27-19.87-9.49C136.13,172.19,145.28,175.13,159.54,166Z"/><path class="cls-7" d="M53.39,88.3s-3.7-6.55-10.28-3.1S39.12,113,55,113.91Z"/><path class="cls-7" d="M161.48,88.3s3.7-6.55,10.28-3.1,4,27.83-11.92,28.71Z"/><path class="cls-1" d="M168.14,53.86s-19.86-19.42-34.43-21.63c-12.62-1.91-23.55,4.77-26.27,6.6-2.72-1.83-13.66-8.51-26.27-6.6C66.59,34.44,46.73,53.86,46.73,53.86s7.94,39.3,4.85,64.91H163.29C160.2,93.16,168.14,53.86,168.14,53.86Z"/><path class="cls-3" d="M169.94,116.44c0,15.7-28,28.43-62.5,28.43s-62.51-12.73-62.51-28.43,28-17.83,62.51-17.83S169.94,100.74,169.94,116.44Z"/><path class="cls-6" d="M107.44,100.37c-14,0-30.58-.42-41.93,2.21-13.38,3.1-20.37,9.34-20.37,9.34,2.67-1.24,11.69-3.15,19.29-.44,9.19,3.28,25.1,13.52,43-6.32,17.9,19.84,33.81,9.6,43,6.32,7.6-2.71,16.62-.8,19.29.44A62.69,62.69,0,0,0,147,101.38C135.68,98.75,121.42,100.37,107.44,100.37Z"/><path class="cls-3" d="M79.4,49.74C80.29,48,70.57,44.15,65,47.39S58.8,61.52,60,63,78.52,51.51,79.4,49.74Z"/><path class="cls-3" d="M135.47,49.74c-.89-1.76,8.83-5.59,14.42-2.35s6.18,14.13,5,15.6S136.35,51.51,135.47,49.74Z"/><path class="cls-2" d="M107.43,132.71c-28.94,0-22.29-31.32-22.29-31.32h44.57S136.36,132.71,107.43,132.71Z"/><path class="cls-8" d="M107.43,118.77c-7.77,0-14.59,2.36-18.54,5.94,3.32,4.57,9,8,18.54,8s15.21-3.43,18.53-8C122,121.13,115.19,118.77,107.43,118.77Z"/><path class="cls-3" d="M111.15,89.63h-7.43s-35.26-9-58.58,22.29c0,0,10-5.51,19.29-2.2s25.1,11.75,43-8.09c17.9,19.84,33.81,11.37,43,8.09s19.29,2.2,19.29,2.2C146.41,80.58,111.15,89.63,111.15,89.63Z"/><circle class="cls-5" cx="138.27" cy="65.3" r="8.29"/><path class="cls-3" d="M139.74,59.93c.55,1-.48,2.61-2.31,3.65s-3.77,1.09-4.32.12.48-2.62,2.31-3.66S139.18,59,139.74,59.93Z"/><circle class="cls-5" cx="76.6" cy="65.3" r="8.29"/><path class="cls-3" d="M78.07,59.93c.56,1-.48,2.61-2.31,3.65s-3.77,1.09-4.32.12.48-2.62,2.31-3.66S77.51,59,78.07,59.93Z"/><path class="cls-9" d="M135.58,84.63c-.07-.1-6.73-10.25-28.19-10.25C85,74.38,78.87,84.5,78.81,84.6l-1.53-.88c.26-.45,6.59-11.11,30.11-11.11,22.53,0,29.4,10.63,29.69,11.08Z"/><circle class="cls-10" cx="78.05" cy="84.16" r="8.83"/><circle class="cls-10" cx="136.33" cy="84.16" r="8.83"/><ellipse class="cls-11" cx="107.44" cy="88.41" rx="16" ry="9.93"/><polygon class="cls-12" points="82.27 260 86.35 260 86.35 240.27 128.52 240.27 128.52 260 132.6 260 132.6 235.41 82.27 235.41 82.27 260"/></g></g></svg>