<svg xmlns="http://www.w3.org/2000/svg" viewBox="0 0 165.06 260.02"><defs><style>.cls-1{fill:#cc7d2e;}.cls-2{fill:#ad3936;}.cls-3{fill:#e0605c;}.cls-4{fill:#ea9d49;}.cls-5{fill:#eae5dc;}.cls-6{fill:#c6c1ba;}.cls-7{fill:#4c3626;}.cls-8{fill:#f4d3b0;}.cls-9{fill:#f9dab4;}.cls-10{fill:#393c3d;}.cls-11{fill:#6dbdc6;}.cls-12{fill:#f9f5ed;}.cls-13{fill:#efc4a0;}.cls-14{fill:#3a332d;}</style></defs><title>资源 149</title><g id="图层_2" data-name="图层 2"><g id="Layer_1" data-name="Layer 1"><path class="cls-1" d="M156.13,218.14c-2.14-6.21-6.06-7-6.06-7,2.85-1.42,3.21-6.77,2.85-9.62s-17.82-27.23-17.82-27.23l-9.12,6s2.51,54.58,3.55,79.68h35.53c-.93-7.65-4.65-16.41-4.65-16.41C166.11,239,158.27,224.36,156.13,218.14Z"/><path class="cls-1" d="M12.14,201.55c-.36,2.85,0,8.2,2.85,9.62,0,0-3.92.76-6.06,7S-1,239,4.65,243.61c0,0-3.72,8.76-4.65,16.41H35.54c1-25.1,3.54-79.68,3.54-79.68l-9.12-6S12.5,198.69,12.14,201.55Z"/><path class="cls-2" d="M130.47,260c-.25-32.92-4.49-87.35-4.49-87.35H39.25s-3.86,54.84-4,87.35Z"/><path class="cls-3" d="M130.34,252c0-.71,0-1.42-.05-2.14H35.4c0,.72,0,1.43,0,2.14Z"/><path class="cls-3" d="M129.77,234.88c-.31-7.34-.7-14.81-1.11-21.93H36.84c-.37,7.13-.71,14.61-1,21.93Z"/><path class="cls-4" d="M129.43,178.18c-6.66-3.19-17.61,7.87-17.61,7.87s-21.08,29.4-21.23,74h42.85C135.2,235.56,135,180.86,129.43,178.18Z"/><path class="cls-4" d="M35.64,178.18c-5.59,2.68-5.77,57.38-4,81.84H74.48c-.16-44.57-21.24-74-21.24-74S42.29,175,35.64,178.18Z"/><path class="cls-5" d="M44.91,137.83s-22.7,5.88-20.21,12.83c1,2.79,7.22,7.22,7.22,7.22s-6.58-.8-7.22,5.35-.7,11,7.22,13.36c0,0-4.56.27-5,2.41s4.31,9.89,8.75,11.5,56.84,7.48,66.73,5.88,38.23-14.17,38.23-18.18-5.88-10.43-9.09-8.56c0,0,5-11-5.51-15,0,0,4.61-4.86,4.4-6.57s-16-7.06-16-7.06Z"/><path class="cls-6" d="M84.45,176c-2,1.55-3.87,3.57-6,5-2.58,1.66-2.92,6-.22,4.86,10.46-4.36,21.43-9,32-13.19,5.67-2.22,10.58-5.84,16.28-8l6.19-2.29c-.38-2.91-2-6-6.62-7.75,0,0,4.61-4.86,4.4-6.57-.06-.45-1.22-1.16-2.87-2-9.63,5-18.12,12.83-27,18.87C95.17,168.66,89.61,172.11,84.45,176Z"/><path class="cls-6" d="M29.67,156.15c1.26,1,2.25,1.73,2.25,1.73a9.14,9.14,0,0,0-2.05.06l.07,0a41.49,41.49,0,0,0,6,2.45A30.9,30.9,0,0,0,48.83,162c-4.19-1.16-8.2-2.28-12.23-3.58C34.29,157.68,32,156.91,29.67,156.15Z"/><path class="cls-6" d="M102.92,172.78c-3.38,1.86-6.78,3.69-10.21,5.44s-6.86,3.49-10.37,5a35.39,35.39,0,0,1-5.27,1.87,16.91,16.91,0,0,1-5.41,0c-7.55-.91-15.09-2.71-22.62-4.33l-17.69-4.08c-.28,0-.63.09-1,.18,6.06,2,12.18,3.82,18.34,5.49a170,170,0,0,0,22.77,4.86,18.76,18.76,0,0,0,6.11-.08A34,34,0,0,0,83.15,185q5.32-2.44,10.34-5.38c6.73-3.85,13.28-8,19.61-12.42Z"/><path class="cls-6" d="M130.76,174a21.88,21.88,0,0,0,2.76-4.58,2.76,2.76,0,0,0-2,.25,13.46,13.46,0,0,0,.49-1.33,35.73,35.73,0,0,1-2.93,4.33,27.23,27.23,0,0,1-9.41,7.7,13.06,13.06,0,0,0,6.16-2A18.82,18.82,0,0,0,130.76,174Z"/><path class="cls-7" d="M21.39,122S10.93,82.31,24.53,75.17s11.62,48.09,11.62,48.09Z"/><path class="cls-7" d="M146,120.4s5.2-34.28-8.4-41.43-8.74,44.29-8.74,44.29Z"/><path class="cls-8" d="M42.9,118.78s-16-13.34-25.14-6,8.57,27.87,31.43,28.44Z"/><path class="cls-8" d="M122.16,118.78s16-13.34,25.14-6-8.57,27.87-31.43,28.44Z"/><path class="cls-9" d="M90.25,84.6H24.53s1.72,77.14,54.29,82.85h7.43c52.56-5.71,54.28-82.85,54.28-82.85Z"/><path class="cls-7" d="M21.88,93.17s30.57,28,48,27.14l-11.72-9.76S93,122.92,96.73,120.33s-13.14-9.78-13.14-9.78,29.14,6.91,32,4.9-4.86-8.52-4.86-8.52,12.86,10.24,16.86,8.81,0-11.71,0-11.71,9.14,10.28,12.86,9.71S143,80.6,143,80.6L21.88,78.89Z"/><path class="cls-2" d="M150.68,67.17S148.22,50,145.37,42s-8-21.43-12.86-25.14S99.7-.66,82.53,0c-17.17-.68-45.15,13.18-50,16.87S22.55,34,19.69,42s-5.31,25.14-5.31,25.14S10.76,106.6,19.69,102c15.64-8,57.43-9.43,57.43-9.43H87.94S129.74,94,145.37,102C154.3,106.6,150.68,67.17,150.68,67.17Z"/><path class="cls-7" d="M29.29,42.7s-13.87,5-15,9.83S11,74.69,12.33,76.32s3.34-3.73,18.53-3.73Z"/><path class="cls-7" d="M135.78,42.7s13.86,5,15,9.83,3.21,22.16,1.92,23.79-3.34-3.73-18.53-3.73Z"/><path class="cls-10" d="M140.33,36c-19.73-12.6-93.14-12.6-112.87,0,0,0-4.65,36.57-1.41,40.29s20.38,11.9,27.62,8.85C59.91,82.54,75.08,69.44,83.89,66c8.82,3.43,24,16.53,30.23,19.16,7.24,3,24.38-5.14,27.62-8.85S140.33,36,140.33,36Z"/><path class="cls-11" d="M133.8,39.44c-17.45-9.52-82.36-9.52-99.81,0,0,0-5.13,28.45-2.26,31.26s16.68,9.89,23.08,7.59c5.52-2,21.29-15.89,29.08-18.48C91.69,62.4,107.4,75,112.93,77c6.4,2.3,20.27-3.53,23.13-6.33S133.8,39.44,133.8,39.44Z"/><path class="cls-12" d="M60.6,33.38,30.94,63c-.2,3.84-.05,6.84.79,7.66a15.85,15.85,0,0,0,2.58,1.89L74.43,32.48C69.67,32.65,65,33,60.6,33.38Z"/><path class="cls-12" d="M101.54,70.17l31.24-31.23A46.9,46.9,0,0,0,123,35.79L93.74,65C96.32,66.68,99,68.46,101.54,70.17Z"/><path class="cls-13" d="M91.13,136.73A11.65,11.65,0,0,1,81,142.57c-5.3,0-10.19-5.12-10.19-5.12s5.66,3.42,9.78,3.41A17.18,17.18,0,0,0,91.13,136.73Z"/><path class="cls-14" d="M44.29,127.53a1.33,1.33,0,0,1-1.32-1.2A7.09,7.09,0,0,1,48.33,119c4.61-1.36,8,2.23,9.2,4.32a1.32,1.32,0,1,1-2.31,1.28c-.1-.17-2.41-4.17-6.15-3.07a4.46,4.46,0,0,0-3.47,4.58,1.31,1.31,0,0,1-1.18,1.44Z"/><path class="cls-14" d="M117.67,127.53h-.13a1.33,1.33,0,0,1-1.19-1.43,4.44,4.44,0,0,0-3.46-4.59c-3.74-1.1-6.06,2.9-6.15,3.08a1.32,1.32,0,0,1-2.31-1.29c1.16-2.09,4.58-5.68,9.2-4.32a7.09,7.09,0,0,1,5.35,7.36A1.32,1.32,0,0,1,117.67,127.53Z"/><path class="cls-13" d="M63.08,147.24s4.8,3.6,17.64,3.6,18.84-3.35,18.84-3.35-4.55,5.63-19,5.63S63.08,147.24,63.08,147.24Z"/></g></g></svg>