<svg xmlns="http://www.w3.org/2000/svg" viewBox="0 0 169.76 260"><defs><style>.cls-1{fill:#f2d0af;}.cls-2{fill:#3c7a62;}.cls-3{fill:#ad3936;}.cls-4{fill:#c65044;}.cls-5{fill:#393c3d;}.cls-6{fill:#ddb58e;}.cls-7{fill:#606060;}.cls-8{fill:#515151;}.cls-9{fill:#4c3626;}.cls-10{fill:#f4d3b0;}.cls-11{fill:#3a332d;}.cls-12{fill:#e8dfd9;}.cls-13{fill:#492020;}</style></defs><title>资源 248</title><g id="图层_2" data-name="图层 2"><g id="Layer_1" data-name="Layer 1"><path class="cls-1" d="M24.82,260H54.58l2.62-72.34H35.4S22.31,251.86,24.82,260Z"/><path class="cls-1" d="M123.34,210.31s1,26.41,2.49,49.69h13.7c-1.06-10.17-1.25-54.45-1.25-54.45Z"/><path class="cls-2" d="M125.11,251.69V260h19.08c0-3.1-.87-6.56-2.14-8.31C139.73,248.47,125.11,251.69,125.11,251.69Z"/><path class="cls-3" d="M122.2,164.06s5.48-3.14,11.92,6.89,12.4,29.59,12.4,29.59L122.2,215.32Z"/><polygon class="cls-4" points="120.77 211.98 147.95 194.34 152 201.01 122.2 221.04 120.77 211.98"/><path class="cls-3" d="M47.56,164.06s-5.48-3.14-11.92,6.89-12.4,29.59-12.4,29.59l24.32,14.78Z"/><polygon class="cls-4" points="48.99 211.98 21.81 194.34 17.75 201.01 47.56 221.04 48.99 211.98"/><path class="cls-5" d="M89.27,156.61v-.42l-4.39.21-4.4-.21v.42l-38.18,1.8S44,230.72,42.68,260h84.39c-1.3-29.28.39-101.59.39-101.59Z"/><path class="cls-3" d="M109.58,210.31s-15.37-1.66-25.83-1.9-23.58,1.9-23.58,1.9l-5.34-63.42h60.09Z"/><path class="cls-4" d="M107.89,166.56c0,10.34-10.3,18.72-23,18.72s-23-8.38-23-18.72,10.3-18.73,23-18.73S107.89,156.22,107.89,166.56Z"/><path class="cls-6" d="M103.83,165.8c0,8.18-8.48,14.8-19,14.8s-19-6.62-19-14.8,8.49-14.8,19-14.8S103.83,157.63,103.83,165.8Z"/><path class="cls-7" d="M50.76,227.58H79.61s4.08,30.28-13.94,30.28S50.76,227.58,50.76,227.58Z"/><path class="cls-8" d="M50.59,234.73H80c0-.81,0-1.57,0-2.28H50.55C50.55,233.16,50.56,233.92,50.59,234.73Z"/><path class="cls-7" d="M80,233.06a54.55,54.55,0,0,0-.37-5.48H50.77a54.44,54.44,0,0,0-.2,5.48Z"/><path class="cls-8" d="M68,238.84a2.68,2.68,0,1,1-2.68-2.68A2.68,2.68,0,0,1,68,238.84Z"/><path class="cls-9" d="M6.92,110.17S3.1,62,3.1,58.66s5-10,8.11-10.73c0,0,4.8-47.69,75.25-47.93s79,39.35,80,51-1.67,56.75-1.67,56.75l-85.6,21Z"/><path class="cls-10" d="M22.22,108.51s-10.51-12.13-19-3c-9.32,10,2.63,35.12,21.74,35.29Z"/><path class="cls-10" d="M147.53,108.51s10.51-12.13,19-3c9.33,10-2.62,35.12-21.74,35.29Z"/><path class="cls-1" d="M105.21,165.13H64.55a51,51,0,0,1-51-51V68.8c40.9-5.43,79.91,3,102.2-30.12C128.25,59.8,135.6,66.94,156.25,74v40.06A51,51,0,0,1,105.21,165.13Z"/><path class="cls-9" d="M13.51,121.45h9.37V81.79s13.43,16.69,39.36,18.84L47.86,84.89S72.38,104,104.91,103.25l-15.08-15a61.23,61.23,0,0,0,15.08-.72c7.78-1.43,21-13.35,42.44-11.2v39.82h8.9V102.6l2.82-44.89L111,25,10.93,54.8l2.58,47.8Z"/><path class="cls-9" d="M29.47,107.58s14.58-2.81,26.89-.73l-.44-2.49c-.54-3-4.5-5.41-12.47-5.89s-12.72,1.93-13.34,5.45Z"/><path class="cls-11" d="M50.84,120.66a8.11,8.11,0,1,1-8.11-8.1A8.1,8.1,0,0,1,50.84,120.66Z"/><path class="cls-12" d="M44.07,115c.2,1-1,2-2.7,2.39s-3.22-.18-3.42-1.16,1-2,2.7-2.39S43.88,114,44.07,115Z"/><path class="cls-9" d="M140.29,107.58s-14.58-2.81-26.9-.73l.44-2.49c.54-3,4.51-5.41,12.47-5.89s12.73,1.93,13.35,5.45Z"/><path class="cls-11" d="M135.13,120.66a8.11,8.11,0,1,1-8.11-8.1A8.1,8.1,0,0,1,135.13,120.66Z"/><path class="cls-12" d="M128.36,115c.2,1-1,2-2.7,2.39s-3.22-.18-3.42-1.16,1-2,2.71-2.39S128.17,114,128.36,115Z"/><path class="cls-13" d="M61,139.57c.71,11.8,12,21.19,25.83,21.19s25.12-9.39,25.83-21.19Z"/><path class="cls-4" d="M73.43,157.49a29.21,29.21,0,0,0,26.86,0,14.17,14.17,0,0,0-26.86,0Z"/><path class="cls-6" d="M97.11,133.56s-2.65-7.5-10.9-8.07-11.63,9-11.63,9,5.1-7.09,11.65-6.36A19.23,19.23,0,0,1,97.11,133.56Z"/></g></g></svg>