<svg xmlns="http://www.w3.org/2000/svg" viewBox="0 0 167.92 260.02"><defs><style>.cls-1{fill:#ffbc36;}.cls-2{fill:#e59d29;}.cls-3{fill:#cc4533;}.cls-4{fill:#44302c;}.cls-5{fill:#f9dab4;}.cls-6{fill:#efc4a0;}.cls-7{fill:#e5c29c;}.cls-8{fill:#2b6c77;}.cls-9{fill:#216066;}.cls-10{fill:#54a3b5;}.cls-11{fill:#f9f5ed;}</style></defs><title>资源 110</title><g id="图层_2" data-name="图层 2"><g id="Layer_1" data-name="Layer 1"><path class="cls-1" d="M27.57,182.84C23.38,198.17,14.73,246.47,12.33,260H44.16c.42-41.71,3.13-93.68,3.13-93.68S32.46,164.93,27.57,182.84Z"/><path class="cls-2" d="M32,260H53.66c-.56-41.95-6.37-93.68-6.37-93.68s-13.48-1.27-19,14.14c2.16,3.6,6.35,13.17,5.4,32.39C32.9,229.55,32.44,247.68,32,260Z"/><path class="cls-1" d="M144.11,182.84c-4.89-17.91-19.72-16.5-19.72-16.5s2.71,52,3.13,93.68h31.83C157,246.47,148.3,198.17,144.11,182.84Z"/><path class="cls-2" d="M124.39,166.34S118.59,218.07,118,260h21.66c-.44-12.34-.91-30.47-1.73-47.15-.94-19.22,3.24-28.79,5.41-32.39C137.87,165.07,124.39,166.34,124.39,166.34Z"/><polygon class="cls-1" points="57.02 162.75 39.43 167.81 38.76 260.02 131.21 260.02 131.21 167.47 114.5 162.55 57.02 162.75"/><path class="cls-2" d="M65.79,169C57.91,169,54,170.77,54,170.77s-2,2-2,7.48V260h3.34c-.79-25.81,0-70.06,0-86.46,4.62-2.45,7.27-2.11,26.29-2.11s28.81-6.25,28.81-6.25C102.78,169.71,73.67,169,65.79,169Z"/><path class="cls-2" d="M58.58,162.48a48.14,48.14,0,0,0,23.65,7.61h3.26S67.69,166,65,163.37,58.58,162.48,58.58,162.48Z"/><polygon class="cls-3" points="112.53 162.56 112.53 244.56 131.21 244.56 131.21 167.47 114.5 162.55 112.53 162.56"/><path class="cls-2" d="M74.76,195.57A7.55,7.55,0,1,1,67.21,188,7.55,7.55,0,0,1,74.76,195.57Z"/><path class="cls-2" d="M74.76,236.75a7.55,7.55,0,1,1-7.55-7.54A7.55,7.55,0,0,1,74.76,236.75Z"/><path class="cls-4" d="M20.93,124.81H156.84S172.15,81.5,161.22,43C156,28.13,142.84,19.81,142.84,19.81s6.45-1,9.19-3.71a14.49,14.49,0,0,0-12.25-2.85c-2.19-6.78-6.78-12-9.84-12,0,0,.1,8.64,2,10.5-9.84-6.56-36.75-16.62-68.68-9S-7.8,48.69,20.93,124.81Z"/><path class="cls-5" d="M19.47,67.71v47.06c0,18,17.89,53.52,58.15,52.11,45-1.61,68.6-7.72,76-67.55v-24S79.85,87.16,19.47,67.71Z"/><path class="cls-6" d="M57.5,148.43a43.36,43.36,0,0,0,8.16,6,42.65,42.65,0,0,0,21.22,5.94c8.31,0,17.88-2.72,27.85-10.56a1.45,1.45,0,0,0,.24-2,1.44,1.44,0,0,0-2-.24c-9.54,7.47-18.38,9.93-26.06,9.94a39.78,39.78,0,0,1-19.77-5.56,43.57,43.57,0,0,1-5.61-3.83c-.65-.52-1.15-.95-1.47-1.24l-.37-.34-.09-.09,0,0h0a1.45,1.45,0,0,0-2,2.05Z"/><path class="cls-6" d="M90.49,132.35a4.43,4.43,0,0,1,.79,2.49c0,2.93-3,5.31-6.79,5.31s-6.79-2.38-6.79-5.31a4.43,4.43,0,0,1,.79-2.49,5.68,5.68,0,0,0-2.14,4.29c0,3.52,3.64,6.37,8.14,6.37s8.13-2.85,8.13-6.37A5.67,5.67,0,0,0,90.49,132.35Z"/><path class="cls-7" d="M93.7,84.56c35.15,0,51.89-4.21,59.72-9.15-4.36.67-75.45,11.15-133.95-7.7v7C28,78.76,49.84,84.56,93.7,84.56Z"/><path class="cls-8" d="M152.76,89.52H15.16C6.71,89.52,0,88.6,0,101.86v27.46c0,6.48,5.63,16.05,27.9,13.11s36-2,41.52-2.93,8.16-1.24,8.75-8C78.73,125,79,121,84,120.71c4.93.3,5.24,4.25,5.8,10.77.58,6.78,3.21,7.09,8.75,8s19.25,0,41.51,2.93,27.9-6.63,27.9-13.11V101.86C167.92,88.6,161.22,89.52,152.76,89.52Z"/><path class="cls-9" d="M13.34,112.86,0,116.38V130a6.44,6.44,0,0,0,.29,1.89l13.05-4.58Z"/><polygon class="cls-9" points="0 112 12.61 108.19 12.61 102.21 0 105.9 0 112"/><path class="cls-10" d="M148.34,92.19H19.59C11.67,92.19,5.4,91.38,5.4,103v24c0,5.66,5.27,14,26.1,11.46s33.67-1.76,38.85-2.56,4.68-1.08,5.23-7c.52-5.7,1.86-11.11,8.38-11.37,5.62,0,7.28,5.67,7.8,11.37.55,5.93.63,6.2,5.81,7s18,0,38.85,2.56,26.11-5.8,26.11-11.46V103C162.53,91.38,156.25,92.19,148.34,92.19Z"/><path class="cls-11" d="M121,92.19H103.89L92.66,133.86c.67,1.26,2,1.54,4.91,2,2.35.36,6.3.4,11.83.57Z"/><path class="cls-11" d="M117,136.74c2.83.15,5.94.35,9.33.64l11-45.19H128Z"/></g></g></svg>