<?xml version="1.0" standalone="no"?><!DOCTYPE svg PUBLIC "-//W3C//DTD SVG 1.1//EN" "http://www.w3.org/Graphics/SVG/1.1/DTD/svg11.dtd"><svg t="1548304061090" class="icon" style="" viewBox="0 0 1024 1024" version="1.1" xmlns="http://www.w3.org/2000/svg" p-id="5165" xmlns:xlink="http://www.w3.org/1999/xlink" width="200" height="200"><defs><style type="text/css"></style></defs><path d="M489.472 112.554667v127.786666a255.36 255.36 0 0 0-255.146667 255.573334 255.36 255.36 0 0 0 255.146667 255.573333v239.104c-14.293333-54.485333-70.4-117.290667-88.832-121.685333a383.402667 383.402667 0 0 1-293.888-372.992c0-211.712 171.349333-383.36 382.72-383.36z m45.056 765.44v-127.744a255.36 255.36 0 0 0 255.146667-255.573334 255.36 255.36 0 0 0-255.146667-255.573333V0c14.293333 54.485333 63.274667 116.181333 78.464 119.381333a383.36 383.36 0 0 1 304.213333 375.296c0 211.712-171.306667 383.36-382.72 383.36z" fill="#39C2FF" p-id="5166"></path></svg>