<svg xmlns="http://www.w3.org/2000/svg" viewBox="0 0 167.7 260.59"><defs><style>.cls-1{fill:#e2963b;}.cls-2{fill:#cc7d2e;}.cls-3{fill:#2d2723;}.cls-4{fill:#f4d3b0;}.cls-5{fill:#bf6e25;}.cls-6{fill:#f9dab4;}.cls-7{fill:#231f1c;}.cls-8{fill:#3a332d;}.cls-9{fill:#efc4a0;}.cls-10{fill:#492020;}.cls-11{fill:#c65044;}</style></defs><title>资源 154</title><g id="图层_2" data-name="图层 2"><g id="Layer_1" data-name="Layer 1"><path class="cls-1" d="M87.21,151.65H56.27s-29.5,90.47-17.44,108.94h90c12.06-18.47-17.45-108.94-17.45-108.94Z"/><path class="cls-2" d="M60.92,238.9l-4.56-5.51c.69-7.15-1.8-10.6-11.07-16.7,0,0,17.39-45,19.6-65H56.27S32.56,224.37,36.34,252.72c.43,0,.84,0,1.28-.07l5,3.79S54.59,249.66,60.92,238.9Z"/><path class="cls-2" d="M106.74,238.9l4.56-5.51c-.69-7.15,1.79-10.6,11.06-16.7,0,0-17.38-45-19.59-65h8.61s23.71,72.72,19.93,101.07c-.42,0-.84,0-1.27-.07l-5,3.79S113.06,249.66,106.74,238.9Z"/><path class="cls-3" d="M11.1,118.44S-1.41,81.62.13,67.08s11-17,11-17S5.53,30.88,26.57,17.58,84.73-1.3,100.2.25,169.51,22.53,167.65,73s-14,51.19-14,51.19Z"/><path class="cls-4" d="M21.78,111.43s-9.44-8-17.2-2S14,141.91,31.37,141.11Z"/><path class="cls-4" d="M145.92,111.43s9.44-8,17.2-2-9.44,32.51-26.8,31.71Z"/><rect class="cls-2" x="94.99" y="162.94" width="2.47" height="27.58" transform="translate(-9.77 5.68) rotate(-3.22)"/><path class="cls-2" d="M102,191.89a4.49,4.49,0,1,1-4.49-4.49A4.49,4.49,0,0,1,102,191.89Z"/><rect class="cls-2" x="57.68" y="175.49" width="27.58" height="2.47" transform="translate(-108.99 238.17) rotate(-86.78)"/><path class="cls-2" d="M65.75,191.89a4.49,4.49,0,1,0,4.49-4.49A4.49,4.49,0,0,0,65.75,191.89Z"/><path class="cls-5" d="M33.88,243.59l8.68,7a23.52,23.52,0,0,0,13.8-11l-6.68-8Z"/><path class="cls-1" d="M51.9,155.36S9.73,210.09,13.32,227c3.25,15.31,19.54,24.92,31.5,18.32s9.55-19.87-3.65-28.53C41.17,216.83,70.46,141.34,51.9,155.36Z"/><path class="cls-5" d="M133.82,243.59l-8.68,7a23.52,23.52,0,0,1-13.8-11l6.68-8Z"/><path class="cls-1" d="M115.8,155.36S158,210.09,154.37,227c-3.24,15.31-19.53,24.92-31.49,18.32s-9.55-19.87,3.65-28.53C126.53,216.83,97.24,141.34,115.8,155.36Z"/><path class="cls-6" d="M153.77,86.47,147.17,65,84.47,56.2V56l-.62.08L83.23,56v.17L20.53,65l-6.6,21.45s0,79.36,69.3,80.2v0l.41,0h.42l.41,0v0C153.75,165.83,153.77,86.47,153.77,86.47Z"/><path class="cls-3" d="M149,71.13a22.75,22.75,0,0,0-4,4.31s2.45,33.67-6.19,52.28l5,1.15a140.74,140.74,0,0,0,11.82-42Z"/><path class="cls-3" d="M22.56,75.44a22.75,22.75,0,0,0-4-4.31L12.07,87.19a136.37,136.37,0,0,0,11.65,41.68l5-1.15C20.11,109.11,22.56,75.44,22.56,75.44Z"/><path class="cls-7" d="M145.36,87.91l1.28,10.32s18.49-28.36,7.13-31.46c-9.45-2.57-9.17,11.81-8.75,17.38C145.1,85.28,145.36,87.91,145.36,87.91Z"/><path class="cls-3" d="M10.05,97.09s15.77-5.26,19.8-26.61c0,0,42.69-.61,47.64-4,0,0,3.1,7.12,21.66-1.54a10.9,10.9,0,0,0,12.1,0s1.82,4.33,11.11,0c0,0,10.83,2.78,10.21,28.77,0,0,7.84-3.4,7.63-20.42,0,0,6.6,7.12,6.6,23.82,0,0,11.45-21.14,10.83-35S102.25,34,102.25,34l-56,4.64L12.83,60.27Z"/><path class="cls-7" d="M75,67.4a8.39,8.39,0,0,0,2.52-.94,3.4,3.4,0,0,0,.79,1,37.3,37.3,0,0,0,7-5.4,38.48,38.48,0,0,0,5.81-7.23,28.14,28.14,0,0,0,3.64-8.47A75,75,0,0,1,83.6,60.28,68.89,68.89,0,0,1,75,67.4Z"/><path class="cls-7" d="M97.24,63A67.79,67.79,0,0,1,85,69.17c3-.16,7.13-1.13,12.81-3.64l.85-.52A30.14,30.14,0,0,0,106,58.19a19.76,19.76,0,0,0,4-9A30.29,30.29,0,0,1,104.48,57,41.61,41.61,0,0,1,97.24,63Z"/><path class="cls-7" d="M118,54.11a45,45,0,0,1-6.74,6.27,61,61,0,0,1-9.4,5.82,10.8,10.8,0,0,0,3.26.57,36.68,36.68,0,0,0,7.64-4.42,31.55,31.55,0,0,0,6.77-7.07,21.29,21.29,0,0,0,3.71-8.93A35.72,35.72,0,0,1,118,54.11Z"/><path class="cls-7" d="M121.68,62.07a63.25,63.25,0,0,1-8.05,4.55c1.34.36,3.38.34,6.43-.76a33.53,33.53,0,0,0,3-1.74,25.59,25.59,0,0,0,6.16-5.77,15.44,15.44,0,0,0,3.28-7.67,26.07,26.07,0,0,1-4.74,6.42A38.77,38.77,0,0,1,121.68,62.07Z"/><path class="cls-8" d="M104.79,98.75l-3.72-5.16s8.25-10.13,31.35-13.31l1,4.65S116.34,87,104.79,98.75Z"/><path class="cls-8" d="M62.91,98.75C51.36,87,34.24,84.93,34.24,84.93l1-4.65c23.1,3.18,31.36,13.31,31.36,13.31l-3.72,5.16Z"/><path class="cls-8" d="M121,99.22a20.72,20.72,0,0,1,6.5,1,1.24,1.24,0,1,1-.82,2.33,19.39,19.39,0,0,0-18.37,4,1.24,1.24,0,1,1-1.63-1.87A21.38,21.38,0,0,1,121,99.22Z"/><path class="cls-8" d="M46.73,99.22a21.4,21.4,0,0,1,14.32,5.39,1.24,1.24,0,0,1-1.63,1.87,19.39,19.39,0,0,0-18.37-4,1.24,1.24,0,0,1-.83-2.33A20.89,20.89,0,0,1,46.73,99.22Z"/><path class="cls-9" d="M73.33,126.9a15.21,15.21,0,0,0,10.41,3.91c3.68-.07,7.23-1.58,10.63-3.91a12.41,12.41,0,0,1-10.57,6.38,11.6,11.6,0,0,1-6.31-1.65A9.93,9.93,0,0,1,73.33,126.9Z"/><path class="cls-10" d="M75.2,147.94s3.69,13.35,22.25,8.69S111.91,136,111.91,136Z"/><path class="cls-11" d="M95,146a12.13,12.13,0,0,0-8.51,11.3,26,26,0,0,0,11-.66c5.32-1.33,8.73-3.61,11-6.16A12.15,12.15,0,0,0,95,146Z"/></g></g></svg>