<svg xmlns="http://www.w3.org/2000/svg" viewBox="0 0 291.52 259.49"><defs><style>.cls-1{fill:#f9dab4;}.cls-2{fill:#efc4a0;}.cls-3{fill:#f9f5ed;}.cls-4{fill:#e8e3d9;}.cls-5{fill:#515151;}.cls-6{fill:#393c3d;}.cls-7{fill:#f4d3b0;}.cls-8{fill:#492020;}.cls-9{fill:#c65044;}</style></defs><title>资源 310</title><g id="图层_2" data-name="图层 2"><g id="Layer_1" data-name="Layer 1"><path class="cls-1" d="M234.45,182.53l-12.64,30.93-47-60-12.91,23.16s47.94,70.59,64.43,68.1c12.43-1.88,25.94-46,25.94-46Z"/><path class="cls-2" d="M247.53,212.4s-8.07.07-13.5-16.57l-2.28-6.68,2.52-5.55S249.3,203.14,247.53,212.4Z"/><path class="cls-1" d="M253.45,173.53a9.62,9.62,0,0,1,8.27-6.82c6.79-.82,14.32,5.79,14.32,5.79a6.12,6.12,0,0,1,6.22-5.54c7.68-.1,6.07,3.88,6.89,9.88s5.83,17.51-1.8,19.42c-5.26,1.32-6.19-.79-6.19-.79s4.16,12.43-8.17,13c-9,.43-11-4.32-11-4.32s-.63,10.3-10.58,9.32-13.52-13.83-18.46-24c0,0-10-2.19-12.87-6.95s-2.55-17.4-.5-20.13,7.6-4.81,11.58-1.6-.48,10.72-.48,10.72l9.47.82a8.31,8.31,0,0,1,5.94-2.73C249.66,169.65,253.45,173.53,253.45,173.53Z"/><path class="cls-2" d="M265.41,181.36s4.61-6.2,11.15-2.84c5.75,2.95,3.78,8.19,3.78,11.27a21.19,21.19,0,0,0,.82,5.68l0,0a2.53,2.53,0,0,0,1.78,1.08c-.27-1-1.44-5.31-1.1-7.3.39-2.25,2-11.5-6.49-13.11s-10.25,3.3-11.28,4.27l.64,6.23Z"/><path class="cls-2" d="M274.88,176.77l1.74.4c-.55-.88-.58-4.67-.58-4.67s-.36-.31-1-.79Z"/><path class="cls-2" d="M242.16,185.3c1.21-2.73,10.6-6,13.67-3.21S258,195.77,261.39,207a12.19,12.19,0,0,0,.58-2.79,41.74,41.74,0,0,0-1.2-9c-1.3-5.74-1-13.55-3.69-15.14-3.13-1.88-14.38-.82-16.59,4.42s.27,13.11,2.58,17.09C243.07,201.56,241,188,242.16,185.3Z"/><path class="cls-1" d="M57.07,182.53l12.65,30.93,47-60,12.91,23.16s-47.94,70.59-64.43,68.1c-12.42-1.88-25.93-46-25.93-46Z"/><path class="cls-2" d="M44,212.4s8.06.07,13.5-16.57l2.28-6.68-2.53-5.55S42.22,203.14,44,212.4Z"/><path class="cls-1" d="M38.07,173.53a9.62,9.62,0,0,0-8.26-6.82c-6.8-.82-14.33,5.79-14.33,5.79A6.12,6.12,0,0,0,9.26,167c-7.68-.1-6.07,3.88-6.89,9.88s-5.83,17.51,1.81,19.42c5.26,1.32,6.18-.79,6.18-.79s-4.15,12.43,8.17,13c9,.43,11-4.32,11-4.32s.63,10.3,10.58,9.32,13.53-13.83,18.46-24c0,0,10-2.19,12.88-6.95S74,165.1,72,162.37s-7.6-4.81-11.58-1.6.48,10.72.48,10.72l-9.47.82a8.31,8.31,0,0,0-5.94-2.73C41.86,169.65,38.07,173.53,38.07,173.53Z"/><path class="cls-2" d="M26.11,181.36s-4.61-6.2-11.15-2.84c-5.75,2.95-3.78,8.19-3.78,11.27a21.19,21.19,0,0,1-.82,5.68v0a2.56,2.56,0,0,1-1.79,1.08c.28-1,1.45-5.31,1.1-7.3-.39-2.25-2-11.5,6.49-13.11s10.26,3.3,11.28,4.27l-.64,6.23Z"/><path class="cls-2" d="M16.64,176.77l-1.74.4c.55-.88.58-4.67.58-4.67s.36-.31,1-.79Z"/><path class="cls-2" d="M49.36,185.3c-1.21-2.73-10.59-6-13.67-3.21S33.54,195.77,30.13,207a12.19,12.19,0,0,1-.58-2.79,41.74,41.74,0,0,1,1.2-9c1.3-5.74,1-13.55,3.69-15.14,3.14-1.88,14.38-.82,16.59,4.42s-.27,13.11-2.58,17.09C48.45,201.56,50.57,188,49.36,185.3Z"/><rect class="cls-2" x="120.27" y="158.98" width="49.49" height="35.21"/><path class="cls-3" d="M183.36,156.53h-10L145,182l-28.32-25.5h-10s-22.63,23.3-28,42.07c0,0,15.93,5.73,20.39,5.73,0,0-4.64,28.64-6.09,55.16H197.09C195.65,233,191,204.33,191,204.33c4.46,0,20.4-5.73,20.4-5.73C206,180,183.36,156.53,183.36,156.53Z"/><polygon class="cls-4" points="145.02 182.03 124.21 191.26 120.27 159.75 145.02 182.03"/><polygon class="cls-4" points="145.02 182.03 165.83 191.26 169.76 159.75 145.02 182.03"/><rect class="cls-4" x="152.53" y="196.6" width="29.66" height="17.23"/><path class="cls-5" d="M144.48,0h0C43.08,0,69,101.94,69,101.94H220S245.87,0,144.48,0Z"/><path class="cls-6" d="M81.07,95.73,76.7,77.6C89,44.27,139.29,29.67,173.31,29.67c17.22,7,36.18,26.77,38.52,49.31l-4.17,17.33Z"/><path class="cls-7" d="M89,105.45s-4.25-14.66-18-9.69-4.69,41.35,18,45.44Z"/><path class="cls-7" d="M200,105.45s4.25-14.66,18-9.69,4.7,41.35-18,45.44Z"/><path class="cls-1" d="M186.07,60.73l-.42-.16a33.86,33.86,0,0,0-31.56,4l-9.61,6.78-9.61-6.78a33.86,33.86,0,0,0-31.56-4l-.42.16A33.86,33.86,0,0,0,81.3,96.31l4.27,36.45a27.18,27.18,0,0,0,19.13,22.86l31.87,9.63a27.32,27.32,0,0,0,15.82,0l31.86-9.63a27.19,27.19,0,0,0,19.14-22.86l4.27-36.45A33.88,33.88,0,0,0,186.07,60.73Z"/><path class="cls-8" d="M119.21,141.82s32.62,1.85,59.63-10.2c0,0-2.9,33.49-49.33,27.46C129.51,159.08,129.91,149.79,119.21,141.82Z"/><path class="cls-9" d="M170.38,148.94a24.38,24.38,0,0,0-12.94-3.57c-10.62,0-19.36,6.27-20.57,14.35C154.17,160.49,164.38,155.16,170.38,148.94Z"/><path class="cls-2" d="M144.12,119.24c7.36,0,6.76,6.37,6.76,6.37a7.92,7.92,0,0,0-6.84-4.07,9.2,9.2,0,0,0-7.32,4.07S136.75,119.24,144.12,119.24Z"/><polygon class="cls-5" points="119.22 89.35 119.22 94.97 90.53 98.58 90.53 93.24 119.22 89.35"/><path class="cls-5" d="M100.65,117a1.22,1.22,0,0,1-1.22-1.09c0-.43-1-10.48,6.36-12.38,5.92-1.52,9.88,4,11.14,7.18a1.22,1.22,0,0,1-.68,1.59,1.23,1.23,0,0,1-1.6-.68c-.11-.29-2.93-7.08-8.25-5.71s-4.54,9.65-4.53,9.74a1.24,1.24,0,0,1-1.09,1.35Z"/><polygon class="cls-5" points="169.66 89.35 169.66 94.97 198.34 98.58 198.34 93.24 169.66 89.35"/><path class="cls-5" d="M188.22,117h-.13a1.23,1.23,0,0,1-1.09-1.35h0c0-.09.81-8.37-4.53-9.74s-8.14,5.42-8.25,5.71a1.23,1.23,0,0,1-2.28-.91c1.26-3.15,5.22-8.7,11.14-7.18,7.39,1.9,6.4,11.95,6.36,12.38A1.22,1.22,0,0,1,188.22,117Z"/></g></g></svg>