<svg xmlns="http://www.w3.org/2000/svg" viewBox="0 0 182.37 295"><defs><style>.cls-1{fill:#f9f5ed;}.cls-2{fill:#e8e3d9;}.cls-3{fill:#7f5732;}.cls-4{fill:#f4d3b0;}.cls-5{fill:#f9dab4;}.cls-6{fill:#efc4a0;}.cls-7{fill:#515151;}</style></defs><title>资源 316</title><g id="图层_2" data-name="图层 2"><g id="Layer_1" data-name="Layer 1"><polygon class="cls-1" points="41.48 295 42.61 214.7 21.95 295 41.48 295"/><polygon class="cls-2" points="39.12 295 40.89 254.16 37.13 295 39.12 295"/><polygon class="cls-1" points="139.75 214.7 140.88 295 160.41 295 139.75 214.7"/><polygon class="cls-2" points="141.47 254.16 143.25 295 145.24 295 141.47 254.16"/><polygon class="cls-1" points="91.18 197.36 91.18 197.36 64.42 197.36 64.42 210.22 42.61 214.7 39.12 295 143.25 295 139.75 214.7 117.94 210.22 117.94 197.36 91.18 197.36"/><path class="cls-2" d="M93,263.56l0-8.15,0-8.14-.09-8.14L92.71,231l-.16-8.14c-.07-2.71-.12-5.43-.21-8.14l0-1.16H87.52c-.41,0-.82,0-1.22,0l-2.44-.11-1.22-.06-1.21-.11-1.22-.11c-.4,0-.81-.06-1.21-.12l-2.42-.35-1.19-.24c-.39-.09-.8-.15-1.19-.26L73,211.9l-.58-.17-.29-.09h0l-.09-1.94-.1-2.28c-.09-1.51-.16-3-.26-4.55-.09,1.52-.16,3-.25,4.55l-.1,2.28L71.24,212v.29l.28.13.31.14.29.12.59.24,1.19.41c.4.14.8.23,1.21.35l1.21.34,2.44.55c.41.09.82.14,1.23.22l1.24.21,1.24.2,1.24.14,2.49.26c.41.05.83.05,1.25.08l1.24.07,1.32.07q-.1,3.53-.18,7.05L89.66,231l-.13,8.15-.09,8.14,0,8.14,0,8.15c0,2.71,0,5.42,0,8.14l0,8.14,0,4.07,0,4.07q0,3.51.09,7h3.21l.09-7,0-4.07,0-4.07,0-8.14C93,269,93,266.27,93,263.56Z"/><circle class="cls-2" cx="107.48" cy="233.99" r="4.47"/><path class="cls-2" d="M128.73,234a4.48,4.48,0,1,1-4.48-4.47A4.48,4.48,0,0,1,128.73,234Z"/><path class="cls-2" d="M112,253.56a4.48,4.48,0,1,1-4.47-4.47A4.47,4.47,0,0,1,112,253.56Z"/><path class="cls-2" d="M128.73,253.56a4.48,4.48,0,1,1-4.48-4.47A4.48,4.48,0,0,1,128.73,253.56Z"/><rect class="cls-3" x="29.06" y="109.45" width="124.25" height="40.61"/><path class="cls-4" d="M40.26,148.78s-1.65-8.1-8.81-4.52c-6.23,3.11-11,32.69,14.26,36.16Z"/><path class="cls-4" d="M142.37,148.78s1.66-8.1,8.81-4.52c6.23,3.11,11,32.69-14.25,36.16Z"/><path class="cls-5" d="M96.34,205H86a48.81,48.81,0,0,1-48.81-48.82V114.86h108v41.32A48.82,48.82,0,0,1,96.34,205Z"/><path class="cls-6" d="M87.06,183.35a116.55,116.55,0,0,1-19.3-1.46,1.12,1.12,0,0,1,.41-2.2,125.23,125.23,0,0,0,45.53-1.44,1.12,1.12,0,1,1,.5,2.18A123.29,123.29,0,0,1,87.06,183.35Z"/><path class="cls-6" d="M90.1,190.82a20.92,20.92,0,0,1-7-1.2,1.12,1.12,0,1,1,.82-2.08c.09,0,6.58,2.49,12.42-.29a1.12,1.12,0,1,1,1,2A16.67,16.67,0,0,1,90.1,190.82Z"/><path class="cls-6" d="M90.67,167.82c6.71,0,8,4.19,8,4.19a18.08,18.08,0,0,0-8-2.1,20.07,20.07,0,0,0-8.32,2.1S84,167.82,90.67,167.82Z"/><polygon class="cls-3" points="75.05 136.55 73.82 141.53 47.65 138.43 48.82 133.71 75.05 136.55"/><path class="cls-7" d="M69.65,151.45l-.23,0a51.12,51.12,0,0,0-14.68-.72,1.12,1.12,0,0,1-.17-2.23,53.4,53.4,0,0,1,15.32.76,1.12,1.12,0,0,1-.24,2.21Z"/><polygon class="cls-3" points="108.32 136.55 109.55 141.53 135.72 138.43 134.56 133.71 108.32 136.55"/><path class="cls-7" d="M113.72,151.45a1.12,1.12,0,0,1-.23-2.21,53.4,53.4,0,0,1,15.32-.76,1.12,1.12,0,0,1-.18,2.23,51.14,51.14,0,0,0-14.68.72Z"/><path class="cls-1" d="M168,29.51a14.14,14.14,0,0,0-5,.91,25.46,25.46,0,0,0-45.76-11.63,27.47,27.47,0,0,0-52.13,0A25.46,25.46,0,0,0,19.36,30.42a14.19,14.19,0,0,0-5-.91,14.35,14.35,0,1,0,5.49,27.6L22.46,120s23.57,6.89,68.72,6.89S159.91,120,159.91,120l2.63-62.91A14.35,14.35,0,1,0,168,29.51Z"/><path class="cls-2" d="M80,45.85l.06.79c0,.51.1,1.27.16,2.23s.14,2.14.21,3.48.15,2.85.21,4.5.14,3.44.19,5.34.13,3.88.15,6,.09,4.19.1,6.36,0,4.37,0,6.57,0,4.4,0,6.57S81,91.94,81,94s-.1,4.06-.16,6c0,1,0,1.87-.08,2.76s-.07,1.75-.11,2.57c-.06,1.66-.14,3.17-.21,4.51s-.15,2.51-.21,3.47-.12,1.72-.16,2.24l-.06.79-.06-.79c0-.52-.11-1.27-.16-2.24s-.14-2.13-.21-3.47-.15-2.85-.21-4.51c0-.82-.07-1.68-.11-2.57s-.06-1.81-.09-2.76c0-1.89-.12-3.88-.15-6s-.08-4.19-.1-6.36,0-4.37,0-6.57,0-4.4,0-6.57.07-4.3.1-6.36.09-4.06.15-6,.12-3.69.19-5.34.14-3.16.21-4.5.15-2.51.21-3.48.12-1.72.16-2.23Z"/><path class="cls-2" d="M57.63,51.44s0,.25.07.73.1,1.17.15,2.06.14,2,.21,3.19.15,2.63.21,4.15.15,3.17.2,4.91.11,3.58.15,5.48.08,3.86.1,5.86,0,4,0,6,0,4.06,0,6-.06,4-.1,5.86-.09,3.74-.15,5.48-.13,3.39-.2,4.91-.14,2.91-.21,4.15-.14,2.31-.21,3.19-.12,1.59-.15,2.06-.07.73-.07.73l-.06-.73c0-.47-.1-1.17-.16-2.06s-.14-2-.21-3.19-.15-2.63-.21-4.15-.14-3.17-.2-4.91-.11-3.58-.15-5.48-.08-3.86-.09-5.86,0-4,0-6,0-4,0-6,.05-4,.09-5.86.1-3.74.15-5.48.13-3.39.2-4.91.15-2.91.22-4.15.14-2.31.2-3.19.12-1.59.16-2.06Z"/><path class="cls-2" d="M35.27,57l.06.67c0,.43.1,1.07.16,1.88s.14,1.79.2,2.92.15,2.4.21,3.79.15,2.89.2,4.48.11,3.27.15,5,.08,3.53.1,5.35,0,3.68,0,5.53,0,3.7,0,5.53-.05,3.61-.09,5.35-.1,3.42-.15,5-.13,3.09-.2,4.48-.14,2.66-.22,3.79-.14,2.11-.2,2.92-.12,1.45-.16,1.89-.06.66-.06.66,0-.23-.07-.66-.1-1.07-.16-1.89-.14-1.79-.2-2.92-.16-2.4-.22-3.79-.14-2.89-.2-4.48-.11-3.27-.15-5-.07-3.53-.09-5.35,0-3.68,0-5.53,0-3.7,0-5.53,0-3.61.1-5.35.09-3.41.15-5,.13-3.09.2-4.48.14-2.66.21-3.79.14-2.11.2-2.92.13-1.45.16-1.88Z"/><path class="cls-2" d="M102.37,45.85l.06.79c0,.51.1,1.27.16,2.23s.14,2.14.2,3.48.16,2.85.22,4.5.14,3.44.19,5.34.12,3.88.15,6,.09,4.19.1,6.36,0,4.37,0,6.57,0,4.4,0,6.57,0,4.3-.09,6.36-.1,4.06-.16,6c0,1-.06,1.87-.08,2.76s-.08,1.75-.11,2.57c-.06,1.66-.14,3.17-.22,4.51s-.14,2.51-.2,3.47-.12,1.72-.16,2.24l-.06.79s0-.27-.07-.79-.1-1.27-.16-2.24-.14-2.13-.2-3.47-.15-2.85-.22-4.51c0-.82-.07-1.68-.1-2.57s-.06-1.81-.09-2.76c0-1.89-.12-3.88-.16-6s-.07-4.19-.09-6.36,0-4.37,0-6.57,0-4.4,0-6.57.07-4.3.1-6.36.1-4.06.15-6,.13-3.69.2-5.34.14-3.16.21-4.5.15-2.51.21-3.48.12-1.72.15-2.23Z"/><path class="cls-2" d="M124.73,51.44s0,.25.07.73.1,1.17.16,2.06.14,2,.2,3.19.15,2.63.21,4.15.15,3.17.2,4.91.11,3.58.15,5.48.08,3.86.1,5.86,0,4,0,6,0,4.06,0,6,0,4-.09,5.86-.1,3.74-.15,5.48-.13,3.39-.2,4.91-.15,2.91-.22,4.15-.14,2.31-.2,3.19-.13,1.59-.16,2.06-.07.73-.07.73l-.06-.73c0-.47-.1-1.17-.16-2.06s-.14-2-.2-3.19-.16-2.63-.22-4.15-.14-3.17-.2-4.91-.11-3.58-.15-5.48-.07-3.86-.09-5.86,0-4,0-6,0-4,0-6,0-4,.09-5.86.1-3.74.16-5.48.13-3.39.19-4.91.15-2.91.22-4.15.14-2.31.2-3.19.12-1.59.16-2.06Z"/><path class="cls-2" d="M147.1,57l.06.67c0,.43.11,1.07.16,1.88s.14,1.79.21,2.92.15,2.4.21,3.79.14,2.89.2,4.48.11,3.27.15,5,.08,3.53.09,5.35,0,3.68,0,5.53,0,3.7,0,5.53-.06,3.61-.1,5.35-.09,3.42-.15,5-.13,3.09-.2,4.48-.14,2.66-.21,3.79-.15,2.11-.21,2.92-.12,1.45-.15,1.89-.07.66-.07.66,0-.23-.06-.66-.1-1.07-.16-1.89-.14-1.79-.21-2.92-.15-2.4-.21-3.79-.14-2.89-.2-4.48-.11-3.27-.15-5S146,94,146,92.19s0-3.68,0-5.53,0-3.7,0-5.53,0-3.61.09-5.35.1-3.41.15-5,.13-3.09.2-4.48.14-2.66.22-3.79.14-2.11.2-2.92.12-1.45.16-1.88Z"/></g></g></svg>