<svg xmlns="http://www.w3.org/2000/svg" viewBox="0 0 170.89 266.86"><defs><style>.cls-1{fill:#f9dab4;}.cls-2{fill:#f4efed;}.cls-3{fill:#e2dcd9;}.cls-4{fill:#c65044;}.cls-5{fill:#ad3e3b;}.cls-6{fill:#d19865;}.cls-7{fill:#ba8156;}.cls-8{fill:#6d4c3a;}.cls-9{fill:#f4d3b0;}.cls-10{fill:#4c3626;}.cls-11{fill:#efc4a0;}.cls-12{fill:#3a332d;}</style></defs><title>资源 69</title><g id="图层_2" data-name="图层 2"><g id="Layer_1" data-name="Layer 1"><path class="cls-1" d="M22.6,249.56a47.47,47.47,0,0,0-1.83,17.3H41.28a52,52,0,0,0-2.18-11.62Z"/><path class="cls-2" d="M52.68,163.92S32.91,166.23,22,250.84l17.28,4.86Z"/><path class="cls-1" d="M133.81,249.56a47.6,47.6,0,0,1,1.84,17.3H115.13a52,52,0,0,1,2.19-11.62Z"/><path class="cls-2" d="M103.73,163.92s19.77,2.31,30.72,86.92l-17.28,4.86Z"/><rect class="cls-2" x="52.68" y="158.97" width="51.02" height="63.77"/><path class="cls-3" d="M81.21,190.28a2.74,2.74,0,1,1-2.73-2.52A2.63,2.63,0,0,1,81.21,190.28Z"/><path class="cls-3" d="M81.21,208.6a2.75,2.75,0,1,1-2.73-2.51A2.64,2.64,0,0,1,81.21,208.6Z"/><path class="cls-3" d="M81.21,226.92a2.75,2.75,0,1,1-2.73-2.51A2.64,2.64,0,0,1,81.21,226.92Z"/><path class="cls-4" d="M78.45,174.44v2.78L61,181.5a3.06,3.06,0,0,1-3.91-2.76v-6.5a3.08,3.08,0,0,1,4-2.73Z"/><path class="cls-4" d="M78.45,174.44v2.78l17.41,4.28a3.06,3.06,0,0,0,3.91-2.76v-6.5a3.08,3.08,0,0,0-4-2.73Z"/><path class="cls-5" d="M80.52,180.46H76.38a3.31,3.31,0,0,1-3.44-3.17v-2.76a3.31,3.31,0,0,1,3.44-3.16h4.14A3.32,3.32,0,0,1,84,174.53v2.76A3.32,3.32,0,0,1,80.52,180.46Z"/><path class="cls-6" d="M56,165.23H50.72s-5.46,31.45-9,67.44c-.81,8.11-1.81,28.26-2,34.19h77.47c-.69-9.77-4.52-74.07-13.63-101.63H99.77L78.68,216.8Z"/><path class="cls-7" d="M78.44,266.86h.24V216.8C74.35,242.73,77.5,262.08,78.44,266.86Z"/><rect class="cls-7" x="45.88" y="243.96" width="24.04" height="4.82"/><rect class="cls-7" x="86.99" y="243.96" width="24.04" height="4.82"/><path class="cls-8" d="M7.43,108.64S-6.74,87.28,4.06,60.08l4.72,2.69S13.05,19.15,54.19,5c0,0-5.84,7.42-5.17,11.24,0,0,22.71-19,63-15.89,0,0-8.1,4-8.1,7.8,0,0,32.83-4.05,51,19.33,0,0-7-.9-9.67.45,0,0,23.61,13,25.64,46.54,0,0-5.18-2.69-8.1-2.69,0,0,12.37,19.82,4.5,45.66,0,0-2-5-4.27-5.87,0,0-1.58,23.84-11.92,28.11,0,0-2.47,18.88-31.25,16.41Z"/><path class="cls-9" d="M26.56,105.05s-8.83-10.42-17.8-2.89c-9.26,7.76,5.94,32.4,20,33.27Z"/><path class="cls-9" d="M131.54,105.05s8.83-10.42,17.8-2.89c9.26,7.76-5.93,32.4-20,33.27Z"/><path class="cls-10" d="M152.17,83.36s-10.26,11.72-23.65,15.73l.26,5S149.44,98.32,152.17,83.36Z"/><path class="cls-10" d="M143.47,89.39c-28.8,18.64-30.9-8.81-30.9-8.81h0a83.77,83.77,0,0,0,39.6,2.78Z"/><path class="cls-1" d="M90.65,171.82H67.73a44.29,44.29,0,0,1-44.29-44.29V81.38L135,90.12v37.41A44.29,44.29,0,0,1,90.65,171.82Z"/><path class="cls-8" d="M129.66,132c.69,14.31-7.25,17.06-10.13,17.53-12.93,2.11-11.47-6.59-40.34-6.59s-27.4,8.7-40.33,6.59C36,149.05,28,146.3,28.73,132c.38-7.93-2.59-10.67-5.29-11.55v7.09a44.29,44.29,0,0,0,44.29,44.29H90.65A44.29,44.29,0,0,0,135,127.53v-7.09C132.25,121.32,129.28,124.06,129.66,132Z"/><path class="cls-1" d="M79.19,154.12H60.37c0,8.45,12,9.69,18.82,9.69S98,162.57,98,154.12Z"/><path class="cls-8" d="M19.11,78s27.2,30.56,65.88,35c0,0-23-13.17-29.43-27.75,0,0,26.07,17.94,49.9,19.06,0,0-4.48-1.4-6.73-8.83,0,0,43.53,14.16,53.44-12.19a46.53,46.53,0,0,1-39.6-2.78Z"/><path class="cls-11" d="M67.2,139s2.43-8.12,8.92-8.29,12.13,10,12.13,10-7.2-8-12.25-7.9S67.2,139,67.2,139Z"/><path class="cls-12" d="M38.27,125.83a1.46,1.46,0,0,1-1.45-1.32,7.82,7.82,0,0,1,5.89-8.11c5.09-1.5,8.86,2.46,10.14,4.76a1.46,1.46,0,0,1-2.55,1.41c-.1-.18-2.65-4.59-6.77-3.38a4.88,4.88,0,0,0-3.81,5,1.46,1.46,0,0,1-1.32,1.59Z"/><polygon class="cls-10" points="52.97 105.42 54.3 108.85 30.26 111.43 31.38 105.7 52.97 105.42"/><path class="cls-12" d="M119.08,125.83h-.14a1.46,1.46,0,0,1-1.31-1.58,4.88,4.88,0,0,0-3.81-5c-4.13-1.21-6.67,3.2-6.78,3.39a1.46,1.46,0,0,1-2.54-1.42c1.28-2.3,5-6.26,10.14-4.76a7.82,7.82,0,0,1,5.89,8.11A1.46,1.46,0,0,1,119.08,125.83Z"/><polygon class="cls-10" points="104.38 105.42 103.05 108.85 127.08 111.43 125.97 105.7 104.38 105.42"/></g></g></svg>