<svg xmlns="http://www.w3.org/2000/svg" viewBox="0 0 223.11 291.7"><defs><style>.cls-1{fill:#f9dab4;}.cls-2{fill:#efc4a0;}.cls-3{fill:#e8e3d9;}.cls-4{fill:#f9f5ed;}.cls-5{fill:#bcb9b3;}.cls-6{fill:#7f5732;}.cls-7{fill:#f4d3b0;}.cls-8{fill:#54a3b5;}.cls-9{fill:#515151;}</style></defs><title>资源 324</title><g id="图层_2" data-name="图层 2"><g id="Layer_1" data-name="Layer 1"><path class="cls-1" d="M20.43,257.5S9.68,245.42,6.81,241.26l10.36-25.51-7.92-16L22.13,193l27.52,51.65Z"/><path class="cls-2" d="M23.52,231.18,8.14,238l-1.33,3.28c.78,1.13,2.14,2.85,3.71,4.75a13.38,13.38,0,0,0,7.7-4.25C25.36,241.33,23.52,231.18,23.52,231.18Z"/><path class="cls-2" d="M40,236.34c-2.85-4.65-5.51-8.72-3.74-16.84l1.41,2.65Z"/><path class="cls-1" d="M52.66,245.85a27.71,27.71,0,0,0,1.82-8.71c.35-8.83-3.4-20.83-12.56-18.64-10.62,2.55-.2,21.49-.2,21.49L20.43,257.5a35,35,0,0,0,15.23,7L56.32,282A11.34,11.34,0,0,0,74,277.94L93.87,233l-22-9.56L60.1,259.18l-7.48-9.68Z"/><path class="cls-1" d="M9.14,222.6c-1.59.33-13.6,1.41-7.35,12.82,4.83,8.82,10.36,9.11,12.8,6.85,4.23-3.94,1.58-8,1.58-8Z"/><path class="cls-2" d="M16.91,236.4,8.08,222.78a21.42,21.42,0,0,0-2.27.53l.11.62c2.18,15.59,10.79,14.82,10.79,14.82l.2-.48A5.85,5.85,0,0,0,16.91,236.4Z"/><path class="cls-1" d="M17.17,215.75s-11.33.47-8.9,11.8S18.33,240.15,21,238.21c4.69-3.37,1.65-10,1.65-10Z"/><path class="cls-2" d="M23.52,231.18h0l-6.35-15.43a12.25,12.25,0,0,0-1.89.29C19.61,226.12,23.51,231.18,23.52,231.18Z"/><path class="cls-1" d="M21.65,192c1.09,2.3,5,10.69-.27,13.92s-9.91-1.86-12.13-6.19-4.74-11.8.76-14.25S20.56,189.7,21.65,192Z"/><path class="cls-3" d="M102.15,180.39S76.3,194.47,67.89,229.11a39.61,39.61,0,0,0,20.82,2.72Z"/><path class="cls-1" d="M195.26,216.74l-17.21.27,17.58,74.69h18.58C208.28,264.26,201.43,237.07,195.26,216.74Z"/><rect class="cls-2" x="102.15" y="180.39" width="64.47" height="55.95"/><path class="cls-3" d="M166.44,180.39s25.85,14.08,34.25,48.72a39.56,39.56,0,0,1-20.81,2.72Z"/><path class="cls-4" d="M110,180.39h-7.89C82.83,199.82,79.3,255.56,76.21,291.7H192.37c-3.08-36.14-6.61-91.88-25.93-111.31h-7.89l-24.26,43.93Z"/><polygon class="cls-3" points="134.29 224.32 108.58 219.13 110.04 180.39 134.29 224.32"/><polygon class="cls-3" points="134.29 224.32 160.01 219.13 158.55 180.39 134.29 224.32"/><circle class="cls-5" cx="148.4" cy="34.45" r="34.45" transform="translate(19.11 115.02) rotate(-45)"/><path class="cls-6" d="M114.15,38.16l67.16,6.48s-5-12.83-31.78-14.78S114.15,38.16,114.15,38.16Z"/><path class="cls-5" d="M60.22,148.08s-8.38-4.72-11.77-19.63C41,95.64,46,37,134.29,37S228,95.64,220.87,128.45c-3.26,14.91-11.55,19.63-11.55,19.63Z"/><path class="cls-7" d="M75.17,139.2S69.56,131,61.3,134.58c-7.19,3.15-8.32,31.44,21,36.83Z"/><path class="cls-7" d="M193.76,139.2s5.61-8.24,13.87-4.62c7.19,3.15,8.32,31.44-21,36.83Z"/><path class="cls-1" d="M135.94,198.91h-3.3a64.06,64.06,0,0,1-64-64.06V112.37A24.41,24.41,0,0,1,95.9,88.12l38.39,4.58,38.39-4.58A24.42,24.42,0,0,1,200,112.37v22.48A64.06,64.06,0,0,1,135.94,198.91Z"/><path class="cls-2" d="M129.93,176.66a128,128,0,0,1-21.16-1.6,1.23,1.23,0,1,1,.46-2.41,137.44,137.44,0,0,0,49.91-1.58,1.23,1.23,0,0,1,.54,2.39A135.52,135.52,0,0,1,129.93,176.66Z"/><path class="cls-2" d="M133.88,151.29c7.36,0,6.76,6.37,6.76,6.37a7.89,7.89,0,0,0-6.83-4.08,9.2,9.2,0,0,0-7.32,4.08S126.53,151.29,133.88,151.29Z"/><polygon class="cls-5" points="159.41 130.63 159.41 125.02 188.07 121.42 188.07 126.75 159.41 130.63"/><polygon class="cls-5" points="109 130.63 109 125.02 80.33 121.42 80.33 126.75 109 130.63"/><path class="cls-2" d="M134.76,187.25c-3.67,0-6.59-.29-6.82-.31a1.23,1.23,0,1,1,.24-2.44c.11,0,10.55,1,16.67-.81a1.23,1.23,0,0,1,.7,2.35A40.06,40.06,0,0,1,134.76,187.25Z"/><path class="cls-8" d="M80.06,138.46c20.75,8.35,47.74,5.92,47.74,5.92s-6.46,19.26-27.75,15C82,155.72,80.06,138.46,80.06,138.46Z"/><path class="cls-4" d="M100.26,143.52l-8.45,12.74a26.56,26.56,0,0,0,8.24,3.1l1,.19,10-15C107.72,144.35,104.06,144,100.26,143.52Z"/><path class="cls-4" d="M121.2,144.68c-1.34,0-2.86,0-4.51,0L106.56,160a23.37,23.37,0,0,0,4.9-.61Z"/><path class="cls-9" d="M106,161.2a31.47,31.47,0,0,1-6.2-.64,25.36,25.36,0,0,1-17.59-12.4,27,27,0,0,1-3.38-9.56l-.23-2,1.91.77c12.64,5.08,27.62,6.15,38,6.15,5.54,0,9.18-.32,9.22-.33l1.87-.16-.6,1.78A26.84,26.84,0,0,1,124,153,23.23,23.23,0,0,1,106,161.2ZM81.7,140.4A26.29,26.29,0,0,0,84.39,147a22.73,22.73,0,0,0,15.91,11.13,28.81,28.81,0,0,0,5.71.6,20.56,20.56,0,0,0,16.12-7.31,26.2,26.2,0,0,0,3.76-5.7c-1.64.09-4.2.19-7.42.19C108.48,145.93,94.23,145,81.7,140.4Z"/><polygon class="cls-9" points="68.58 134.19 79.52 139.56 80.6 137.36 68.58 131.46 68.58 134.19"/><path class="cls-8" d="M188.8,138.46c-20.75,8.35-47.74,5.92-47.74,5.92s6.46,19.26,27.75,15C186.88,155.72,188.8,138.46,188.8,138.46Z"/><path class="cls-4" d="M179.57,141.43l-11.66,18.09.9-.16a30,30,0,0,0,2.94-.76l11.78-18.28Q181.57,140.94,179.57,141.43Z"/><path class="cls-4" d="M167.44,143.68l-10.1,15.67a24.13,24.13,0,0,0,7.18.57l11.37-17.64C173,142.87,170.2,143.33,167.44,143.68Z"/><path class="cls-9" d="M162.85,161.2h0a23.25,23.25,0,0,1-18-8.22,27.34,27.34,0,0,1-4.92-8.21l-.6-1.78,1.87.16s3.68.33,9.22.33c10.33,0,25.31-1.07,38-6.15l1.9-.77-.23,2a27.13,27.13,0,0,1-3.37,9.56,25.38,25.38,0,0,1-17.6,12.4A31.39,31.39,0,0,1,162.85,161.2ZM143,145.74a26.2,26.2,0,0,0,3.76,5.7,20.56,20.56,0,0,0,16.12,7.31h0a28.91,28.91,0,0,0,5.72-.6A22.69,22.69,0,0,0,184.47,147a26.38,26.38,0,0,0,2.7-6.62c-12.53,4.55-26.79,5.53-36.78,5.53C147.17,145.93,144.61,145.83,143,145.74Z"/><path class="cls-9" d="M139.85,144.57a5.45,5.45,0,0,0-10.84,0l-2.42-.38a7.9,7.9,0,0,1,15.68,0Z"/><polygon class="cls-9" points="200 131.59 188.26 137.36 189.35 139.56 200 134.33 200 131.59"/><path class="cls-2" d="M155.47,116.75a29.56,29.56,0,0,1-10.34-1.53,31.41,31.41,0,0,0-11-1.54,29.72,29.72,0,0,0-10.54,1.46c-2.53.79-5.14,1.61-11.6,1.61-12.63,0-18.24-3.09-18.47-3.23a1.22,1.22,0,0,1,1.2-2.13c.08,0,5.4,2.91,17.27,2.91,6.08,0,8.41-.73,10.87-1.5a32.17,32.17,0,0,1,11.27-1.57,33.33,33.33,0,0,1,11.72,1.65,27.07,27.07,0,0,0,9.61,1.42,51.11,51.11,0,0,0,17.7-3,1.22,1.22,0,1,1,.94,2.26A52.15,52.15,0,0,1,155.47,116.75Z"/><path class="cls-2" d="M155.47,107.55A29.61,29.61,0,0,1,145.13,106a31.16,31.16,0,0,0-11-1.54A29.72,29.72,0,0,0,123.6,106c-2.53.79-5.14,1.6-11.6,1.6-12.63,0-18.24-3.09-18.47-3.22a1.23,1.23,0,0,1,1.2-2.14c.08,0,5.4,2.91,17.27,2.91,6.08,0,8.41-.72,10.87-1.49A32.17,32.17,0,0,1,134.14,102a33.33,33.33,0,0,1,11.72,1.65,27.36,27.36,0,0,0,9.61,1.41,50.82,50.82,0,0,0,17.7-3,1.22,1.22,0,1,1,.94,2.26A52.15,52.15,0,0,1,155.47,107.55Z"/></g></g></svg>