<?xml version="1.0" standalone="no"?><!DOCTYPE svg PUBLIC "-//W3C//DTD SVG 1.1//EN" "http://www.w3.org/Graphics/SVG/1.1/DTD/svg11.dtd"><svg t="1548136330147" class="icon" style="" viewBox="0 0 1024 1024" version="1.1" xmlns="http://www.w3.org/2000/svg" p-id="32820" xmlns:xlink="http://www.w3.org/1999/xlink" width="200" height="200"><defs><style type="text/css"></style></defs><path d="M837.6875 886.625H184.625c-13.5 0-27-6.75-35.4375-16.875-8.4375-11.8125-11.8125-25.3125-8.4375-38.8125 33.75-172.125 173.8125-300.375 342.5625-313.875 56.53125 0 117.703125 7.171875 178.875 32.0625 17.71875 7.171875 23.625 11.8125 33.75 16.875 97.875 55.6875 165.375 151.875 187.3125 264.9375 3.375 13.5 0 27-10.125 38.8125-8.4375 10.125-21.9375 16.875-35.4375 16.875z" fill="#333333" p-id="32821"></path><path d="M185.46875 859.203125c-5.484375 0-10.546875-2.109375-13.5-5.90625-0.421875-0.421875-0.421875-0.84375-0.84375-1.265625-4.21875-4.21875-4.640625-11.390625-3.796875-15.609375 31.21875-160.3125 162.421875-280.546875 319.359375-291.9375h12.65625c75.515625 0 148.078125 23.625 183.515625 45.984375C775.671875 646.15625 837.6875 733.484375 857.09375 836.421875c0.84375 5.90625-0.421875 11.390625-4.640625 16.875-2.953125 3.796875-8.015625 5.90625-13.5 5.90625H185.46875z" fill="#333333" p-id="32822"></path><path d="M499.34375 554.609375c73.40625 0 143.859375 22.78125 178.03125 44.296875h0.421875c90.28125 53.578125 150.1875 138.375 168.75 238.78125 0.421875 2.109375 0.421875 5.0625-2.953125 8.859375-0.421875 0.84375-2.53125 1.6875-5.0625 1.6875H185.46875c-2.53125 0-4.640625-0.84375-5.0625-1.6875-0.421875-0.84375-1.265625-1.6875-2.109375-2.109375-0.84375-0.84375-1.6875-3.375-0.84375-6.328125 30.375-155.671875 157.359375-272.109375 309.65625-283.5 3.796875 0.421875 8.015625 0 12.234375 0m0-21.09375c-4.21875 0-8.859375 0-13.078125 0.421875C324.265625 545.75 189.265625 668.9375 157.203125 834.3125c-1.6875 8.4375 0 18.5625 6.75 25.3125 5.0625 6.75 13.5 10.125 21.9375 10.125H838.953125c8.4375 0 16.875-3.375 21.9375-10.125 5.0625-6.75 8.4375-15.1875 6.75-25.3125-20.25-108-84.375-196.59375-178.875-253.125-35.859375-22.359375-109.265625-47.671875-189.421875-47.671875zM512 532.25c-106.3125 0-194.0625-87.75-194.0625-194.0625S405.6875 144.125 512 144.125s194.0625 87.75 194.0625 194.0625S618.3125 532.25 512 532.25z" fill="#333333" p-id="32823"></path><path d="M512 504.828125c-91.96875 0-166.640625-74.671875-166.640625-166.640625S420.03125 171.546875 512 171.546875s166.640625 74.671875 166.640625 166.640625-74.671875 166.640625-166.640625 166.640625z" fill="#333333" p-id="32824"></path><path d="M512 182.09375c86.0625 0 156.09375 70.03125 156.09375 156.09375S598.0625 494.28125 512 494.28125s-156.09375-70.03125-156.09375-156.09375 70.03125-156.09375 156.09375-156.09375m0-21.09375c-97.875 0-177.1875 79.3125-177.1875 177.1875s79.3125 177.1875 177.1875 177.1875 177.1875-79.3125 177.1875-177.1875S609.875 161 512 161z" fill="#333333" p-id="32825"></path></svg>