<svg xmlns="http://www.w3.org/2000/svg" viewBox="0 0 185.8 260"><defs><style>.cls-1{fill:#3b8d93;}.cls-2{fill:#5c9ea0;}.cls-3{fill:#f7cea6;}.cls-4{fill:#c6c1ba;}.cls-5{fill:#f9dab4;}.cls-6{fill:#f9f7f2;}.cls-7{fill:#e5be9e;}.cls-8{fill:#f4c7a2;}.cls-9{fill:#3b3d3d;}.cls-10{fill:#fff;}.cls-11{fill:#ad3936;}.cls-12{fill:#e0605c;}</style></defs><title>资源 21</title><g id="图层_2" data-name="图层 2"><g id="Layer_1" data-name="Layer 1"><path class="cls-1" d="M55.22,154.69S19.36,189.8,9.08,260h40C53,240.85,65.71,176.31,65.71,158.29,65.71,158.29,62.9,148.31,55.22,154.69Z"/><path class="cls-2" d="M35.82,187.86C27.62,205.81,7.28,252,24.43,258.11s18.21-8,20-19.18,10.83-67,10.83-67S44,169.92,35.82,187.86Z"/><path class="cls-1" d="M136.94,154.69c-7.68-6.38-10.49,3.6-10.49,3.6,0,18,12.76,82.56,16.63,101.71h40C172.8,189.8,136.94,154.69,136.94,154.69Z"/><path class="cls-2" d="M136.94,172s9.08,55.8,10.83,67,2.81,25.34,20,19.18-3.19-52.3-11.39-70.25S136.94,172,136.94,172Z"/><path class="cls-2" d="M147.46,260c-2.89-24.67-10.37-81.67-20.14-104.5l-68.14.38S44.39,215.76,41.92,260Z"/><path class="cls-1" d="M62.1,155.86l-2.92,0S44.39,215.76,41.92,260h26c-6.81-2.18-11.92-7.15-15.37-18.44-6.22-20.36,5.53-68,5.53-68Z"/><path class="cls-1" d="M127.74,260h19.71c-1.26-10.81-3.41-27.83-6.25-45.46a211.58,211.58,0,0,1,.35,33.37C141,254.55,135.39,258.12,127.74,260Z"/><path class="cls-1" d="M95.16,185.6l-19.1-7.86S70.4,157,70.62,155.65l1-6h47.12l1,6c.22,1.35-5.44,22.09-5.44,22.09Z"/><polygon class="cls-3" points="77.7 156.81 95.16 185.6 112.62 156.81 77.7 156.81"/><path class="cls-4" d="M157.68,106.72H29.4a16.67,16.67,0,0,1-16.59-15l-2.45-24.2A16.26,16.26,0,0,1,26.62,51.27H160.45a16.26,16.26,0,0,1,16.26,16.26l-2.44,24.2A16.67,16.67,0,0,1,157.68,106.72Z"/><path class="cls-5" d="M93.45,0C7.85,0,19.8,60.44,19.63,71.67c-.11,7.41,2.64,36.65,2.56,37.87-2.08,31.75,31.55,57.82,70.93,58.07s71.47-25.33,71.68-57.15c0,0,2.51-31.38,2.56-38.79C167.43,59.93,179.05,0,93.45,0Z"/><path class="cls-6" d="M49.39,129a1.3,1.3,0,0,1-1.33,1.24l-4.35-.16a1.29,1.29,0,0,1-1.24-1.34h0a1.29,1.29,0,0,1,1.34-1.24l4.34.16A1.29,1.29,0,0,1,49.39,129Z"/><path class="cls-6" d="M142.91,129.61a1.28,1.28,0,0,1-1.33,1.23l-4.35-.16a1.29,1.29,0,0,1-1.24-1.33h0a1.3,1.3,0,0,1,1.34-1.25l4.34.16a1.3,1.3,0,0,1,1.24,1.35Z"/><path class="cls-5" d="M155.68,131a23.65,23.65,0,0,0,19.9-.26c10.44-5.11,15.59-26.07,2.06-31.09S160,110.14,160,110.14Z"/><path class="cls-3" d="M162,124.57s4.3-23,14.34-15c6.17,4.87,2.51,11.68-3.22,14.47C169.51,125.76,164.84,125.91,162,124.57Z"/><path class="cls-7" d="M162.1,124.31l1.49-5.79s19.1-5.45,13.74,2.22S162.1,124.31,162.1,124.31Z"/><path class="cls-5" d="M29.88,129.63a23.68,23.68,0,0,1-19.9-.52C-.39,123.87-5.27,102.84,8.32,98s17.56,10.77,17.56,10.77Z"/><path class="cls-3" d="M23.66,123.17s-4-23-14.14-15.21c-6.23,4.79-2.66,11.64,3,14.5C16.12,124.26,20.78,124.48,23.66,123.17Z"/><path class="cls-7" d="M23.54,122.91l-1.41-5.81s-19-5.69-13.77,2S23.54,122.91,23.54,122.91Z"/><path class="cls-8" d="M93.92,123.34A21.6,21.6,0,0,1,82,119.68a1.39,1.39,0,0,1,1.68-2.21c.39.29,9.49,7,20.55-.06a1.38,1.38,0,1,1,1.48,2.34A21.69,21.69,0,0,1,93.92,123.34Z"/><path class="cls-9" d="M140.44,95.91a11.5,11.5,0,1,1-16-3.22A11.5,11.5,0,0,1,140.44,95.91Z"/><path class="cls-10" d="M132.64,93.21c1.14,1.72-.36,4.72-3.34,6.71s-6.34,2.2-7.48.48.35-4.72,3.34-6.7S131.5,91.49,132.64,93.21Z"/><path class="cls-9" d="M67.65,95.44a11.5,11.5,0,1,1-16-3.21A11.51,11.51,0,0,1,67.65,95.44Z"/><path class="cls-10" d="M59.85,92.75c1.14,1.72-.36,4.72-3.35,6.71s-6.33,2.2-7.47.48.35-4.72,3.34-6.7S58.7,91,59.85,92.75Z"/><path class="cls-11" d="M118.4,144.33c-4.32,5.69-11.93,11.82-24.7,11.82-13,0-20.75-6.39-25-12.17C65.12,139.21,122.13,139.41,118.4,144.33Z"/><path class="cls-12" d="M93.7,156.15a30.57,30.57,0,0,0,17.9-5.27c-5-3.35-12.3-6.3-17.94-6.3A28.39,28.39,0,0,0,75.92,151h0A30.88,30.88,0,0,0,93.7,156.15Z"/><path class="cls-3" d="M151.81,51.27a1.79,1.79,0,0,1-1.28-.53h0c-.07-.06-7-6.75-20.57-6.75-7,0-12.16,1.72-17.64,3.55s-11.2,3.73-18.78,3.73-13.28-1.9-18.79-3.73S64.1,44,57.11,44c-13.55,0-20.5,6.69-20.57,6.75A1.82,1.82,0,0,1,34,48.16c.32-.32,8-7.81,23.14-7.81,7.58,0,13.28,1.89,18.79,3.73s10.65,3.55,17.64,3.55,12.16-1.72,17.63-3.55,11.21-3.73,18.79-3.73c15.15,0,22.82,7.49,23.14,7.81a1.82,1.82,0,0,1-1.29,3.11Z"/><path class="cls-3" d="M151.81,39.39a1.84,1.84,0,0,1-1.28-.53h0c-.07-.07-7-6.75-20.57-6.75-7,0-12.16,1.72-17.64,3.54s-11.2,3.74-18.78,3.74-13.28-1.9-18.79-3.74S64.1,32.11,57.11,32.11c-13.55,0-20.5,6.68-20.57,6.75A1.82,1.82,0,0,1,34,36.28c.32-.32,8-7.82,23.14-7.82,7.58,0,13.28,1.9,18.79,3.74s10.65,3.55,17.64,3.55S105.7,34,111.17,32.2s11.21-3.74,18.79-3.74c15.15,0,22.82,7.5,23.14,7.82a1.82,1.82,0,0,1-1.29,3.11Z"/><path class="cls-4" d="M167.76,53l-.74-.13a9.14,9.14,0,0,0-10.61,8.86l-.55,30.07a9.14,9.14,0,0,0,9.56,9.3h.1l5.23-22.88Z"/><path class="cls-4" d="M19.32,53l.74-.13a9.15,9.15,0,0,1,10.61,8.86l.54,30.07a9.14,9.14,0,0,1-9.56,9.3h-.1L16.32,78.22Z"/><path class="cls-4" d="M118.27,86.06s4.47-2,12.08-1.64c7.35.34,13.49,3.67,13.8,2.09.56-2.83-3.34-7.7-9.43-9.91C129,74.51,123.9,76.3,120,79.19S114.34,87.14,118.27,86.06Z"/><path class="cls-4" d="M69.5,86.06s-4.46-2-12.08-1.64c-7.35.34-13.48,3.67-13.8,2.09-.56-2.83,3.35-7.7,9.43-9.91,5.72-2.09,10.82-.3,14.74,2.59S73.43,87.14,69.5,86.06Z"/><path class="cls-4" d="M104.17,125.7c-5.15,0-10.28,4.9-10.28,4.9s-5.14-4.9-10.29-4.9c-8.33,0-14.7,22-35.27,21.79,0,0,10.53,7.84,22.78,7.84s22.78-10,22.78-10,10.53,10,22.77,10,22.78-7.84,22.78-7.84C118.87,147.74,112.5,125.69,104.17,125.7Z"/></g></g></svg>