<svg xmlns="http://www.w3.org/2000/svg" viewBox="0 0 205.77 288.64"><defs><style>.cls-1{fill:#f9dab4;}.cls-2{fill:#f9f5ed;}.cls-3{fill:#7f5732;}.cls-4{fill:#e8e3d9;}.cls-5{fill:#4c3626;}.cls-6{fill:#686868;}.cls-7{fill:#393c3d;}.cls-8{fill:#515151;}.cls-9{fill:#f4d3b0;}.cls-10{fill:#efc4a0;}.cls-11{fill:#3a332d;}.cls-12{fill:#e8dfd9;}.cls-13{fill:#966b4b;}</style></defs><title>资源 289</title><g id="图层_2" data-name="图层 2"><g id="Layer_1" data-name="Layer 1"><path class="cls-1" d="M169.55,280.93l-1.13-9.09-18.65,1.63,1.65,12.27a21,21,0,0,1,.58,2.9h20.31A30.19,30.19,0,0,0,169.55,280.93Z"/><path class="cls-1" d="M36.54,280.93l1.13-9.09,18.65,1.63-1.65,12.27a20.18,20.18,0,0,0-.57,2.9H33.78A30.19,30.19,0,0,1,36.54,280.93Z"/><path class="cls-2" d="M96.38,210l-.23.18L74.83,182.74c-1.74,1.35-10.93,9-20.71,25.95A164.61,164.61,0,0,0,40,241.5a224,224,0,0,0-7.57,33.09C42.93,274,55.21,275,66.71,280c3.81-24.87,10.78-41.72,16.36-51.93C90,215.39,96.32,210.05,96.38,210Z"/><path class="cls-2" d="M110.27,210l.23.18,21.32-27.44c1.74,1.35,10.93,9,20.71,25.95A164.61,164.61,0,0,1,166.7,241.5a224,224,0,0,1,7.57,33.09c-10.55-.63-22.83.36-34.33,5.43-3.81-24.87-10.78-41.72-16.36-51.93C116.63,215.39,110.33,210.05,110.27,210Z"/><path class="cls-3" d="M33.27,259.1a4.33,4.33,0,0,0-3.94,3.65l-2.59,16.83a4.32,4.32,0,0,0,4.31,5c6.61-.06,18.52.43,29,4.09H66.5l4.67-23.81A86.7,86.7,0,0,0,33.27,259.1Z"/><path class="cls-3" d="M177.32,262.75a4.33,4.33,0,0,0-3.94-3.65,86.7,86.7,0,0,0-37.9,5.73l4.67,23.81h6.42c10.51-3.66,22.42-4.15,29-4.09a4.32,4.32,0,0,0,4.31-5Z"/><path class="cls-4" d="M103.33,285.51l41.43-4.63c-.82-74.09-10.9-94.52-10.9-94.52H72.79s-10.08,20.43-10.9,94.52l41.43,4.63h0Z"/><path class="cls-3" d="M61.89,280.88l20.72,2.31c18.12-52.37-11.7-91.52-11.7-91.52C68,201.63,62.48,227.14,61.89,280.88Z"/><path class="cls-3" d="M144.76,280.88,124,283.19c-18.12-52.37,11.7-91.52,11.7-91.52C138.7,201.63,144.17,227.14,144.76,280.88Z"/><path class="cls-5" d="M61.89,280.88l14.18,1.58c10.72-38.88-.75-67.36-7.78-80C65.49,216.43,62.33,240.8,61.89,280.88Z"/><path class="cls-5" d="M144.76,280.88l-14.18,1.58c-10.72-38.88.75-67.36,7.78-80C141.16,216.43,144.32,240.8,144.76,280.88Z"/><path class="cls-6" d="M61.84,288.64h83l0-7.76s-23.56,2.45-41.43,2.45-41.43-2.45-41.43-2.45Z"/><path class="cls-2" d="M103.33,275.42h0a11.51,11.51,0,0,0-11.51,11.51c0,.66,0,1.23.07,1.71h22.88q.06-.72.06-1.71A11.5,11.5,0,0,0,103.33,275.42Z"/><path class="cls-7" d="M98.84,285.15c-2.07-.34-3.36.43-3.57,1.71a2.16,2.16,0,0,0,.53,1.78H102a1.47,1.47,0,0,0,.22-.57C102.42,286.79,100.91,285.48,98.84,285.15Z"/><path class="cls-7" d="M107.82,285.15c-2.07.33-3.59,1.64-3.38,2.92a1.47,1.47,0,0,0,.22.57h6.2a2.16,2.16,0,0,0,.52-1.78C111.18,285.58,109.89,284.81,107.82,285.15Z"/><path class="cls-8" d="M103.33,32.48c-96.4,0-72,61.6-68,72s2.74,33.69,2.74,33.69H168.82s-1.27-23.29,2.74-33.69S200,32.48,103.33,32.48Z"/><path class="cls-9" d="M52.16,132.67s-4.82-7-13.93-2.68c-9.49,4.5-5.89,35.9,13.93,37.24Z"/><path class="cls-9" d="M154.7,132.67s4.83-7,13.93-2.68c9.5,4.5,5.9,35.9-13.93,37.24Z"/><path class="cls-1" d="M134.06,192.27l-16.7,5.43a45.3,45.3,0,0,1-28.06,0l-16.7-5.43A38.14,38.14,0,0,1,46.27,156V104.49H160.39V156A38.14,38.14,0,0,1,134.06,192.27Z"/><path class="cls-8" d="M72.6,192.27l2,.64,4-22.1s21.65-.9,24.37-.9,24.36.9,24.36.9l4,22.37,2.81-.91A38.14,38.14,0,0,0,160.39,156V137.42l-.89-3.13-8,31-12.75.88a10.48,10.48,0,0,0-1.4-4.88c-1.75-3-6.39-3-6.39-3s-18.1-.65-28.1-.65-28.11.65-28.11.65-4.64,0-6.39,3a10.48,10.48,0,0,0-1.4,4.88l-12.75-.88-8-31V156A38.14,38.14,0,0,0,72.6,192.27Z"/><path class="cls-8" d="M115,194a60.23,60.23,0,0,0-11.69-1.45A60.23,60.23,0,0,0,91.64,194s4,8.46,3.63,12.09l2.22-1.45s.12,9.66,5.84,15.71c5.72-6.05,5.84-15.71,5.84-15.71l2.22,1.45C111,202.45,115,194,115,194Z"/><path class="cls-10" d="M103.33,184.24A124.68,124.68,0,0,1,79.78,182a1.06,1.06,0,0,1,.45-2.08,121,121,0,0,0,23.1,2.25,106,106,0,0,0,22.13-2.24,1.06,1.06,0,1,1,.5,2.06A105.73,105.73,0,0,1,103.33,184.24Z"/><path class="cls-10" d="M102.89,141.64a11.8,11.8,0,0,0-10.73,7.44s5.45-3.72,10.73-3.72,10.31,3.72,10.31,3.72S111.09,141.42,102.89,141.64Z"/><path class="cls-11" d="M135.08,119.83h.21A10.21,10.21,0,0,1,145.5,130v8.48a10.22,10.22,0,0,1-10.22,10.22h-.21a10.21,10.21,0,0,1-10.21-10.21V130a10.22,10.22,0,0,1,10.22-10.22Z" transform="matrix(0.35, -0.94, 0.94, 0.35, -37.79, 214.21)"/><polygon class="cls-11" points="160.39 145.32 160.39 142.47 64.7 104.48 57.51 104.48 160.39 145.32"/><path class="cls-11" d="M75.74,134.3a6.07,6.07,0,1,1-6.06-6.07A6.06,6.06,0,0,1,75.74,134.3Z"/><path class="cls-12" d="M70.68,130.07c.15.74-.76,1.54-2,1.79s-2.41-.13-2.56-.86.76-1.54,2-1.79S70.53,129.34,70.68,130.07Z"/><polygon class="cls-11" points="55.58 117 79.24 123.72 79.24 117 56.59 113.69 55.58 117"/><polygon class="cls-8" points="43.75 104.36 95.14 111.32 91.67 105.5 113.49 112.1 114.27 104.38 133.74 112.66 133.07 104.27 146.95 113.39 145.71 105.05 162.02 114.9 162.02 90.62 44.12 90.62 43.75 104.36"/><path class="cls-3" d="M151.05.17c-16.74-1.48-13.31,7-48.16,7s-31.43-8.5-48.17-7C8.5,4.27,44.19,71.74,44.19,71.74H161.58S197.27,4.27,151.05.17Z"/><path class="cls-13" d="M201.67,35.87C196.31,33.93,179.51,51.5,157,59.56c-25.19,9-83,9-108.19,0C26.26,51.5,9.46,33.93,4.1,35.87S-5.14,67.31,17.81,82.2,102.77,95,102.89,95,165,97.09,188,82.2,207,37.81,201.67,35.87Z"/><path class="cls-4" d="M89.67,23.45l-2.81,2.81a3.89,3.89,0,0,1-5.5,0l-.06-.05a3.9,3.9,0,0,1,0-5.51l.06-.05a3.89,3.89,0,0,1,5.51,0Z"/><path class="cls-4" d="M92.48,20.63l-2.81,2.82-2.81-2.81a3.89,3.89,0,0,1,0-5.51l.06-.05a3.88,3.88,0,0,1,5.5,0l.06.06A3.9,3.9,0,0,1,92.48,20.63Z"/><rect class="cls-4" x="99.92" y="14.03" width="5.94" height="45.22" transform="translate(4.28 83.59) rotate(-45.06)"/><path class="cls-4" d="M118.92,58.16l-.06.05a3.88,3.88,0,0,1-5.5,0l-.06-.06a3.9,3.9,0,0,1,0-5.5l2.81-2.82,2.81,2.81A3.89,3.89,0,0,1,118.92,58.16Z"/><path class="cls-4" d="M124.48,52.59l-.06,0a3.89,3.89,0,0,1-5.51,0l-2.81-2.81L118.91,47a3.91,3.91,0,0,1,5.51,0l0,.06A3.9,3.9,0,0,1,124.48,52.59Z"/><path class="cls-4" d="M116.1,23.45l2.81,2.81a3.9,3.9,0,0,0,5.51,0l0-.05a3.9,3.9,0,0,0,0-5.51l-.06-.05a3.89,3.89,0,0,0-5.51,0Z"/><path class="cls-4" d="M113.29,20.63l2.81,2.82,2.81-2.81a3.89,3.89,0,0,0,0-5.51l-.06-.05a3.88,3.88,0,0,0-5.5,0l-.06.06A3.9,3.9,0,0,0,113.29,20.63Z"/><rect class="cls-4" x="80.27" y="33.68" width="45.22" height="5.94" transform="translate(4.17 83.37) rotate(-44.94)"/><path class="cls-4" d="M86.85,58.16l.06.05a3.88,3.88,0,0,0,5.5,0l.06-.06a3.9,3.9,0,0,0,0-5.5l-2.81-2.82-2.81,2.81A3.89,3.89,0,0,0,86.85,58.16Z"/><path class="cls-4" d="M81.29,52.59l.06,0a3.89,3.89,0,0,0,5.51,0l2.81-2.81L86.86,47a3.9,3.9,0,0,0-5.5,0l-.06.06A3.9,3.9,0,0,0,81.29,52.59Z"/><ellipse class="cls-2" cx="103.64" cy="34.37" rx="14.41" ry="9.59"/><path class="cls-2" d="M103.64,48.6a2.86,2.86,0,0,1-2.86-2.87v-8a2.87,2.87,0,1,1,5.73,0v8A2.87,2.87,0,0,1,103.64,48.6Z"/><path class="cls-2" d="M97.77,48.6a2.86,2.86,0,0,1-2.87-2.87v-8a2.87,2.87,0,1,1,5.73,0v8A2.86,2.86,0,0,1,97.77,48.6Z"/><path class="cls-2" d="M109.52,48.6a2.87,2.87,0,0,1-2.87-2.87v-8a2.87,2.87,0,1,1,5.73,0v8A2.86,2.86,0,0,1,109.52,48.6Z"/><path class="cls-11" d="M99.26,36.07c-.82,1.82-2.39,3.11-4.61,1.54s-1.32-3.47-.17-5.1a3.55,3.55,0,0,1,4.68-1.11C100.45,32.32,100.12,34.14,99.26,36.07Z"/><path class="cls-11" d="M108.3,36.07c.81,1.82,2.38,3.11,4.6,1.54s1.33-3.47.18-5.1a3.55,3.55,0,0,0-4.68-1.11C107.1,32.32,107.43,34.14,108.3,36.07Z"/></g></g></svg>