<svg xmlns="http://www.w3.org/2000/svg" viewBox="0 0 154.16 260"><defs><style>.cls-1{fill:#f9f5ed;}.cls-2{fill:#c65044;}.cls-3{fill:#e2dcd9;}.cls-4{fill:#7f5732;}.cls-5{fill:#4c3626;}.cls-6{fill:#f4d3b0;}.cls-7{fill:#f9dab4;}.cls-8{fill:#efc4a0;}.cls-9{fill:#3a332d;}.cls-10{fill:#e8dfd9;}.cls-11{fill:#ba8156;}</style></defs><title>资源 91</title><g id="图层_2" data-name="图层 2"><g id="Layer_1" data-name="Layer 1"><rect class="cls-1" x="56.01" y="161.12" width="39.55" height="98.88"/><rect class="cls-2" x="68.8" y="167.32" width="13.7" height="8.98" rx="2.41"/><polygon class="cls-2" points="72.68 171.81 78.84 171.81 82.5 242.44 75.65 250.51 68.8 242.11 72.68 171.81"/><polygon class="cls-3" points="65.19 179.66 75.69 166.07 86.19 179.66 101.41 161.12 50.39 161.12 65.19 179.66"/><path class="cls-4" d="M6.43,242.74c0,5.37,5.12,11.91,10.45,17.26H61.67l1.95-101H53.44S6.43,222.05,6.43,242.74Z"/><polygon class="cls-5" points="30.68 260 37.63 224.39 22.48 260 30.68 260"/><polygon class="cls-5" points="63.47 166.5 45.45 192.79 51.44 197.92 44.17 208.6 62.27 228.54 63.47 166.5"/><path class="cls-4" d="M87.82,159l2,101h44.78c5.33-5.35,10.45-11.89,10.45-17.26C145,222.05,98,159,98,159Z"/><polygon class="cls-5" points="113.82 224.39 120.77 260 128.96 260 113.82 224.39"/><polygon class="cls-5" points="87.97 166.5 105.99 192.79 100.01 197.92 107.27 208.6 89.17 228.54 87.97 166.5"/><path class="cls-6" d="M21.33,109.42s-10-6.68-16.78-1.11-.85,27.83,24.92,30.37Z"/><path class="cls-6" d="M132.82,109.42s10-6.68,16.78-1.11.85,27.83-24.92,30.37Z"/><ellipse class="cls-7" cx="77.08" cy="112.45" rx="59.14" ry="55.48"/><path class="cls-2" d="M62.84,147.2s3.08-4.36,6.65-4.16A7.55,7.55,0,0,1,75,146.46s3.21-3.34,7-3.28,5.39,4.36,5.39,4.36a14.6,14.6,0,0,1-12.62,6.76A12.79,12.79,0,0,1,62.84,147.2Z"/><path class="cls-8" d="M81.23,132.53s-.61,5.15-5.9,5.18S69,132.53,69,132.53s2.89,3.18,6.28,3.18S81.23,132.53,81.23,132.53Z"/><path class="cls-9" d="M45.32,129.09h-.13c-.41,0-9.91-.92-14-3.26a1.21,1.21,0,0,1-.45-1.73,1.39,1.39,0,0,1,1.84-.43c3.61,2,12.81,2.9,12.91,2.91A1.29,1.29,0,0,1,46.66,128,1.33,1.33,0,0,1,45.32,129.09Z"/><path class="cls-9" d="M43.88,126.33a17.18,17.18,0,0,1-13-6.31,1.21,1.21,0,0,1,.33-1.76,1.41,1.41,0,0,1,1.87.3h0a14.57,14.57,0,0,0,11,5.25h0a1.26,1.26,0,1,1,0,2.52Z"/><path class="cls-9" d="M51.69,124.34a6.65,6.65,0,0,1-8,4.56,6.2,6.2,0,0,1-4.86-7.51,6.66,6.66,0,0,1,8-4.56A6.2,6.2,0,0,1,51.69,124.34Z"/><path class="cls-10" d="M48.24,119.35c0,.91-1.42,1.59-3.09,1.53s-3-.85-2.95-1.76,1.43-1.59,3.09-1.53S48.28,118.44,48.24,119.35Z"/><path class="cls-4" d="M94.69,109.09v-3a.71.71,0,0,1,.64-.69c3.61-.47,21.65-2.55,30.38,1.93a.67.67,0,0,1,.28,1l-1.65,2.53a.75.75,0,0,1-.86.3c-2.48-.76-13.13-3.6-27.93-1.37A.73.73,0,0,1,94.69,109.09Z"/><path class="cls-9" d="M109,129.09a1.32,1.32,0,0,1-1.34-1.14,1.29,1.29,0,0,1,1.21-1.38c.09,0,9.3-.86,12.9-2.91a1.4,1.4,0,0,1,1.85.43,1.22,1.22,0,0,1-.46,1.73c-4.12,2.34-13.63,3.23-14,3.26Z"/><path class="cls-9" d="M110.43,126.33h-.2a1.26,1.26,0,1,1,0-2.52h.17a14.53,14.53,0,0,0,10.84-5.24,1.41,1.41,0,0,1,1.88-.31,1.21,1.21,0,0,1,.32,1.76A17.13,17.13,0,0,1,110.43,126.33Z"/><ellipse class="cls-9" cx="109.05" cy="122.87" rx="6.62" ry="6.21"/><path class="cls-10" d="M106.07,119.35c0,.91,1.42,1.59,3.08,1.53s3-.85,2.95-1.76-1.42-1.59-3.09-1.53S106,118.44,106.07,119.35Z"/><path class="cls-4" d="M59.62,109.09v-3a.71.71,0,0,0-.64-.69c-3.61-.47-21.65-2.55-30.39,1.93a.67.67,0,0,0-.27,1L30,110.85a.77.77,0,0,0,.87.3c2.47-.76,13.13-3.6,27.93-1.37A.73.73,0,0,0,59.62,109.09Z"/><path class="cls-11" d="M77.08,0C-53.69,0,21.53,184,21.53,184l9.9,2.22L27.18,93.1H127l-4.25,93.1,9.9-2.22S207.85,0,77.08,0Z"/></g></g></svg>