<?xml version="1.0" standalone="no"?><!DOCTYPE svg PUBLIC "-//W3C//DTD SVG 1.1//EN" "http://www.w3.org/Graphics/SVG/1.1/DTD/svg11.dtd"><svg t="1549022177068" class="icon" style="" viewBox="0 0 1024 1024" version="1.1" xmlns="http://www.w3.org/2000/svg" p-id="7069" xmlns:xlink="http://www.w3.org/1999/xlink" width="200" height="200"><defs><style type="text/css"></style></defs><path d="M938.666667 426.666667v170.666666a85.333333 85.333333 0 0 1-85.333334 85.333334v2.666666l-0.32 2.613334c-0.96 7.733333-24.8 174.186667-264.8 203.573333a85.333333 85.333333 0 1 1-5.333333-85.333333c155.626667-21.333333 181.6-111.413333 184.96-127.146667V426.666667c0-69.973333-25.226667-134.4-70.986667-181.333334-46.613333-48-112.32-74.666667-184.853333-74.666666s-138.24 26.666667-185.013333 74.666666C281.226667 292.266667 256 356.693333 256 426.666667v256H170.666667a85.333333 85.333333 0 0 1-85.333334-85.333334V426.666667a85.333333 85.333333 0 0 1 85.333334-85.333334h9.92C216.586667 190.72 347.093333 85.333333 512 85.333333s295.413333 105.386667 331.413333 256H853.333333a85.333333 85.333333 0 0 1 85.333334 85.333334z" p-id="7070"></path></svg>