<svg xmlns="http://www.w3.org/2000/svg" viewBox="0 0 172.14 260"><defs><style>.cls-1{fill:#f4efed;}.cls-2{fill:#423429;}.cls-3{fill:#382b23;}.cls-4{fill:#e2dcd9;}.cls-5{fill:#563a28;}.cls-6{fill:#634631;}.cls-7{fill:#70523e;}.cls-8{fill:#f4d3b0;}.cls-9{fill:#f9dab4;}.cls-10{fill:#efc4a0;}.cls-11{fill:#3a332d;}.cls-12{fill:#e8dfd9;}.cls-13{fill:#ea9628;}.cls-14{fill:#e28d27;}</style></defs><title>资源 56</title><g id="图层_2" data-name="图层 2"><g id="Layer_1" data-name="Layer 1"><rect class="cls-1" x="58.74" y="159.86" width="55.86" height="100.14"/><polygon class="cls-2" points="90.79 171.99 95.28 237.66 87.24 252.73 78.63 237.85 83.92 171.99 90.79 171.99"/><rect class="cls-3" x="80.03" y="163.88" width="14.42" height="11.55" rx="4.01"/><polygon class="cls-4" points="109.11 160.31 106.13 183.78 87.22 161.94 67.66 182.98 65.6 159.17 109.11 160.31"/><path class="cls-5" d="M20.39,260H48.92V168.12l-3.5-.1S25.71,228.69,20.39,260Z"/><path class="cls-6" d="M64.54,161l-1.38-1.37s-14-.92-17.17,6.41c-3,7-1.35,49.72-2.13,94H71c1.14-15,1-29.54,1-29.54Z"/><path class="cls-7" d="M55,179c-1.08-4.2,8.26-20.52,8.26-20.52l2.43,3.73c5.44,32.83,7.6,62.62,5.86,88.8,0,0-5.81-27.65-13.92-43.21-.85-1.62,6.21-15.83,5.41-17.36C62.33,189.1,56,183.08,55,179Z"/><path class="cls-5" d="M152,260c-5.32-31.31-25-92-25-92l-3.5.08V260Z"/><path class="cls-6" d="M126.36,166c-3.2-7.33-17.17-6.41-17.17-6.41L107.81,161l-7.46,69.46s-.13,14.53,1,29.54h27.13C127.71,215.76,129.39,173,126.36,166Z"/><path class="cls-7" d="M117.36,179c1.08-4.2-8.26-20.52-8.26-20.52l-2.43,3.73c-5.44,32.83-7.6,62.62-5.86,88.8,0,0,5.81-27.65,13.92-43.21.85-1.62-6.21-15.83-5.41-17.36C110,189.1,116.32,183.08,117.36,179Z"/><path class="cls-8" d="M26.32,100.05S15.63,82.15,3.66,91.68C-9.93,102.5,17.4,139.24,34.82,139.45Z"/><path class="cls-8" d="M145.82,100.05s10.7-17.9,22.66-8.37c13.59,10.82-13.74,47.56-31.16,47.77Z"/><path class="cls-9" d="M151.29,120.73V67.27H21.13v53.46h0s1.7,46.06,65.08,46.06,65.08-46.06,65.08-46.06Z"/><path class="cls-10" d="M74.09,127.91S78.88,136,86.21,136s11.91-9,11.91-9-8.24,6.36-12,6.36S74.09,127.91,74.09,127.91Z"/><path class="cls-10" d="M64.17,151.22A1.14,1.14,0,0,1,64,149l45.61-7.57a1.14,1.14,0,0,1,.37,2.25l-45.6,7.58Z"/><path class="cls-10" d="M117,143.64a1,1,0,0,1-.24,0,1.13,1.13,0,0,1-.87-1.36c1.1-5.11-2.87-6.4-3.33-6.53a1.14,1.14,0,0,1,.61-2.2c2.27.62,6.22,3.34,5,9.21A1.14,1.14,0,0,1,117,143.64Z"/><circle class="cls-11" cx="55.81" cy="114.03" r="7.98"/><ellipse class="cls-12" cx="54.66" cy="109.51" rx="3.64" ry="2.11" transform="translate(-20.58 12.97) rotate(-11.4)"/><circle class="cls-11" cx="114.95" cy="114.03" r="7.98"/><path class="cls-12" d="M117.37,108.8c.23,1.14-1.18,2.38-3.15,2.78s-3.75-.2-4-1.35,1.17-2.38,3.14-2.78S117.14,107.65,117.37,108.8Z"/><path class="cls-13" d="M68.11,100.29l.86-7s-17.88-2-29.55,4l3,5.91S56.16,97.62,68.11,100.29Z"/><path class="cls-13" d="M103.21,100.77l-1.14-6.94s17.8-2.65,29.68,2.83l-2.73,6S115,97.64,103.21,100.77Z"/><path class="cls-14" d="M160.45,61.93s2.4,18.52,2.91,27.19c0,0-11.18-2.08-12.07,13.9v16.51L142,122,141,79.3Z"/><path class="cls-13" d="M29.64,123.86,21.13,121l-.21-9.71s1.75-25-13.49-21.8V59.23S2-1.12,88.29,0c0,0,16-.11,26.76,4.84,14.71,6.74,23.63,21.06,31.6,6.83,0,0,4.27,5.41,0,10.25,0,0,4.27,2.33,6.55-3.25,0,0,4.55,18.62-5.41,22,0,0,8.54.57,13.66-5.7,0,0,1.42,12.53-6.55,16.23,0,0,8.54-.57,10.54-4.84,0,0,1.69,61.69-92,34.15a35.76,35.76,0,0,0,7.4,10.83A113.84,113.84,0,0,1,30.5,74.34Z"/></g></g></svg>