<svg xmlns="http://www.w3.org/2000/svg" viewBox="0 0 158.59 311.53"><defs><style>.cls-1{fill:#eae5dc;}.cls-2{fill:#2f3233;}.cls-3{fill:#393c3d;}.cls-4{fill:#f9f5ed;}.cls-5{fill:#494949;}.cls-6{fill:#4c3626;}.cls-7{fill:#c65044;}.cls-8{fill:#f4d3b0;}.cls-9{fill:#f2d0af;}.cls-10{fill:#ddb58e;}</style></defs><title>资源 255</title><g id="图层_2" data-name="图层 2"><g id="Layer_1" data-name="Layer 1"><polygon class="cls-1" points="19.09 311.53 37.74 311.53 37.74 300.69 17.8 300.69 19.09 311.53"/><path class="cls-2" d="M46,216.16s-1-7.9-6.32-7.74S18.64,221.21,16.11,308H42.23Z"/><polygon class="cls-1" points="121 311.53 139.65 311.53 140.94 300.69 121 300.69 121 311.53"/><path class="cls-2" d="M112.72,216.16s1-7.9,6.32-7.74S140.1,221.21,142.63,308H116.51Z"/><polygon class="cls-1" points="113.42 202.53 79.37 203.71 45.32 202.53 42.88 212.32 79.37 269.8 116.89 217.41 113.42 202.53"/><rect class="cls-3" x="72.18" y="214.02" width="12.62" height="10.56"/><rect class="cls-2" x="72.18" y="223.06" width="12.62" height="1.52"/><polygon class="cls-3" points="93.6 267.23 79.37 289.56 65.14 267.23 72.18 224.07 84.8 224.07 93.6 267.23"/><polygon class="cls-2" points="89.27 246.02 79.37 261.88 68.6 246.03 65.14 267.23 79.37 289.56 93.6 267.23 89.27 246.02"/><path class="cls-4" d="M91.33,206V226.5s-11.61-4.68-14.6-15.35Z"/><path class="cls-4" d="M65.49,206V226.5s11.61-4.68,14.61-15.35Z"/><path class="cls-3" d="M70.66,279.3v32.23h53c.86-53.76-5.1-87.46-8.3-101.48Z"/><polygon class="cls-2" points="70.66 279.3 70.66 311.53 90.79 311.53 90.79 277.92 80.78 263.62 70.66 279.3"/><path class="cls-3" d="M35.09,311.53h53V279.3L43.39,210.06C40.19,224.08,34.23,257.78,35.09,311.53Z"/><path class="cls-5" d="M118.91,38.54A37.07,37.07,0,1,1,83.34,0,37.07,37.07,0,0,1,118.91,38.54Z"/><rect class="cls-6" x="79.44" y="38.02" width="66.83" height="4.49" transform="translate(-2.12 74.03) rotate(-36)"/><rect class="cls-6" x="84.8" y="51.59" width="64.65" height="4.49" transform="translate(-9.5 29.72) rotate(-13.9)"/><path class="cls-7" d="M81.54,45.3A37,37,0,0,0,51.7,58.55a37,37,0,0,0,58.55,2.32A37,37,0,0,0,81.54,45.3Z"/><path class="cls-5" d="M158.59,129c0,41.83-35.5,75.74-79.3,75.74S0,170.87,0,129,35.5,53.31,79.29,53.31,158.59,87.22,158.59,129Z"/><path class="cls-8" d="M20.87,148.37s-9-6.63-15.95-2.16c-8.79,5.6,1.61,30.2,12.19,41.77Z"/><path class="cls-8" d="M137.72,148.37s8.94-6.63,15.95-2.16c8.79,5.6-1.61,30.2-12.19,41.77Z"/><path class="cls-9" d="M119.64,99.94c-21.07.45-40.35,16.59-40.35,16.59S60,100.39,39,99.94c-11.4-.25-18.09,5.42-21.85,10.67V188s18.06,29.43,62.19,29.43S141.49,188,141.49,188V110.61C137.73,105.36,131,99.69,119.64,99.94Z"/><polygon class="cls-3" points="141.49 143.79 126.15 146.38 126.52 148.59 141.49 146.07 141.49 143.79"/><polygon class="cls-3" points="17.1 146.07 32.07 148.59 32.44 146.38 17.1 143.79 17.1 146.07"/><path class="cls-3" d="M94.81,152.87c0-.06-5.46-6-15.62-6.22a19.64,19.64,0,0,0-15.38,6.18l-1.76-1.41c.24-.29,5.73-7,16.52-7h.68c11.17.29,17,6.7,17.24,7Z"/><path class="cls-3" d="M88.91,146.23l40.3-1s-.56,19.94-17,20.5S88.91,146.23,88.91,146.23Z"/><path class="cls-3" d="M69.67,146.23l-40.3-1s.57,19.94,17,20.5S69.67,146.23,69.67,146.23Z"/><path class="cls-10" d="M86.64,178s-2.79-4.8-7.34-4.8S72,178,72,178s2.09-6.5,7.35-6.5S86.64,178,86.64,178Z"/><path class="cls-7" d="M68,197.67s2.85-4.29,6.14-4.09,5.08,3.35,5.08,3.35,3-3.28,6.42-3.21,5,4.28,5,4.28-3.43,8-11.64,8S68,197.67,68,197.67Z"/></g></g></svg>