<svg xmlns="http://www.w3.org/2000/svg" viewBox="0 0 188.54 260.9"><defs><style>.cls-1{fill:#c2da52;}.cls-2{fill:#a9b748;}.cls-3{fill:#44302c;}.cls-4{fill:#513936;}.cls-5{fill:#3a2725;}.cls-6{fill:#f9dab4;}.cls-7{fill:#efceab;}.cls-8{fill:#e5be9e;}.cls-9{fill:#f7cea6;}.cls-10{fill:#f9f5ed;}.cls-11{fill:#e5bd98;}</style></defs><title>资源 145</title><g id="图层_2" data-name="图层 2"><g id="Layer_1" data-name="Layer 1"><path class="cls-1" d="M0,260.9H40.41c7.53-32.45,25.24-109.8,25.24-109.8C37.22,150.66,11.94,191.47,0,260.9Z"/><path class="cls-2" d="M28.53,260.9H40.41c7.53-32.45,25.24-109.8,25.24-109.8-9.87-.15-19.35,4.67-28,13.92,2.35,7.24,4.82,21.63,1,46.5C35.85,229.78,32.5,248.54,28.53,260.9Z"/><path class="cls-1" d="M188.54,260.9H148.13c-7.52-32.45-25.23-109.8-25.23-109.8C151.32,150.66,176.61,191.47,188.54,260.9Z"/><path class="cls-2" d="M160,260.9H148.13c-7.52-32.45-25.23-109.8-25.23-109.8,9.86-.15,19.35,4.67,28,13.92-2.35,7.24-4.83,21.63-1,46.5C152.7,229.78,156,248.54,160,260.9Z"/><path class="cls-1" d="M89.62,157.84c-10.24,0-21.89-.43-32.06,1.09-3.45.51-8.13,19.64-9.21,25.14,0,0-7.27,38.54-13.45,76.83H153.79l-17-78.86s-5.08-19.16-8.55-24C128.19,158,113.7,157.81,89.62,157.84Z"/><path class="cls-2" d="M115.32,196.81c-4.26-5.55-5.67-13.66-6.14-20.39a78,78,0,0,1,.12-12.06,1,1,0,0,1,1.08-.8.93.93,0,0,1,.89,1,76.48,76.48,0,0,0-.11,11.78c.41,6.55,1.92,14.35,5.7,19.38a7.18,7.18,0,0,1,3.06-.89c3.71-.2,6.89,2.35,7.11,5.69s-2.6,6.22-6.3,6.42-6.89-2.35-7.11-5.69A5.68,5.68,0,0,1,115.32,196.81Z"/><path class="cls-2" d="M64.63,196.07c-2.29-6.78-.82-15.3,1.1-22.16a87,87,0,0,1,4.4-12,1.1,1.1,0,0,1,1.38-.5.91.91,0,0,1,.53,1.24,84.47,84.47,0,0,0-4.29,11.75c-1.91,6.66-3.18,14.88-1.19,21a7.56,7.56,0,0,1,3.38,0c3.77.87,6,4.33,5.09,7.74s-4.81,5.47-8.58,4.59-6.06-4.34-5.09-7.74A6.44,6.44,0,0,1,64.63,196.07Z"/><path class="cls-3" d="M21,121.55l146-6.54s-2.47-55-3.13-69.85-.8-25-12.62-30.83c-8.57-4.2-18.4.1-21.4-2.64S132.71-.66,117.2,0,40.48.84,15.42,17.78C-.52,30.23,7.2,47.86,7.57,56S5.91,72.37,13.92,69.61C14.75,88.27,16.28,117.2,21,121.55Z"/><path class="cls-4" d="M127.76,11.79S126.13,2,119.93,2.31,109.88,2,98.42,2.55l-14.08.63S87.08,5.46,96.62,5,120.91,5.5,127.76,11.79Z"/><path class="cls-5" d="M16,69.68l9.86-.44a31,31,0,0,1,7,.73l-2.45,6.7A26.18,26.18,0,0,0,16,69.68Z"/><path class="cls-4" d="M118.87,42.62s-1.34,23.76-22,24.12C96.87,66.74,113.31,57.49,118.87,42.62Z"/><path class="cls-5" d="M26.28,107.25l-.4-8.93a14.65,14.65,0,0,1-10.5-4h0c.42,5,.92,9.81,1.55,14Z"/><path class="cls-5" d="M166,91a38.48,38.48,0,0,1-6.17,1l.36,8,6.31,2.23Z"/><path class="cls-6" d="M155.33,63.12s.54,12.12,1.48,33.17c-4.34,59.64-26.34,66.7-68.74,70.19-37.94,3.1-56.4-31.35-57.2-49.21s-2.12-47.52-2.12-47.52,18.31-7.45,68.84-.29c10.88,1.55,22.13-4.26,24-17.69S125.37,22.44,126,35.6s.93,31.35,9.21,29.3Z"/><path class="cls-7" d="M95.46,119a3.84,3.84,0,0,1,1.09,2.42c.13,2.91-3.54,5.44-8.2,5.65s-8.54-2-8.67-4.89a3.81,3.81,0,0,1,.87-2.51A5.34,5.34,0,0,0,78.09,124c.16,3.49,4.81,6.11,10.39,5.86s10-3.28,9.82-6.76A5.35,5.35,0,0,0,95.46,119Z"/><path class="cls-3" d="M62.51,84.59s-4.21-7-11.07-6-9.5,10.18-9.5,10.18a14.1,14.1,0,0,0-.07,6.72S50.54,84.11,62.51,84.59Z"/><path class="cls-3" d="M113.21,82.32s3.57-7.3,10.49-6.92,10.37,9.28,10.37,9.28a14.18,14.18,0,0,1,.67,6.7S125.09,80.77,113.21,82.32Z"/><path class="cls-6" d="M34,109.32s-11.81-12.3-21.37,1,5.05,36.71,22.41,22.4Z"/><path class="cls-8" d="M28.14,127.34s.3-15-5.38-14.7S15.88,127.89,28.14,127.34Z"/><path class="cls-9" d="M22.76,112.64c-1.61.07-2.86,1.32-3.55,3.07,2.77,2.77,7,7.35,8.93,11.35C28.15,125.05,28,112.4,22.76,112.64Z"/><path class="cls-9" d="M97.73,72.57c19.78,3.91,22.5-4.84,24.33-11.87,1.16-4.44,3-13.57,4.14-19.71-.09-1.85-.16-3.66-.24-5.39-.59-13.16-2.5,2.74-4.37,16.17S108.47,71,97.59,69.46c-50.53-7.16-68.84.29-68.84.29s.07,1.75.2,4.64C41.85,69.22,79,68.86,97.73,72.57Z"/><path class="cls-9" d="M126.42,45c0,.28-1.06,23.74,9.8,22.06S152.66,65.8,153,72.26s1.28,28.7,1.28,28.7l2.24-.6c.13-1.33.24-2.68.34-4.07-.94-21.05-1.48-33.17-1.48-33.17L135.17,64.9C128.75,66.49,127.11,55.92,126.42,45Z"/><path class="cls-6" d="M150.52,102.3s11.57-12.53,21.38.54-4.31,36.8-22,22.82Z"/><path class="cls-8" d="M156.76,120.2s-.59-15,5.1-14.81S169,120.51,156.76,120.2Z"/><path class="cls-9" d="M161.86,105.39c1.61,0,2.88,1.28,3.6,3-2.71,2.82-6.85,7.49-8.7,11.53C156.71,117.91,156.62,105.27,161.86,105.39Z"/><path class="cls-3" d="M44.91,106.77l.24.24a11.69,11.69,0,0,0,7,2.68c4.65.48,11.39,0,14.18-5,2.59-4.68-3.19-5.11-5.78-3.74-2.42,1.27-5.39,2.78-8.12,2.09-2.18-.56-4.83-3.42-7.14-2.15S43.32,105.08,44.91,106.77Z"/><path class="cls-10" d="M61.52,102.35c-.29.63.35,1.46,1.42,1.84s2.19.18,2.48-.46-.35-1.45-1.43-1.83S61.81,101.72,61.52,102.35Z"/><path class="cls-3" d="M113.28,103.71a2.61,2.61,0,0,0,.24.23,11.64,11.64,0,0,0,7,2.69c4.65.48,11.39,0,14.18-5,2.59-4.68-3.19-5.11-5.78-3.74-2.42,1.27-5.39,2.78-8.12,2.08-2.18-.55-4.83-3.41-7.14-2.14S111.68,102,113.28,103.71Z"/><path class="cls-10" d="M129.88,99.29c-.29.63.36,1.46,1.43,1.84s2.19.18,2.48-.46-.36-1.45-1.43-1.83S130.17,98.66,129.88,99.29Z"/><path class="cls-11" d="M89.05,155.1a2,2,0,0,1,0-.23h0a15.45,15.45,0,0,1,3-6.69h0c2.23-2.78,6.27-5.09,12.43-4h0a1.16,1.16,0,0,1,.93,1.34h0a1.15,1.15,0,0,1-1.34.93h0c-5.47-.93-8.36.91-10.23,3.15h0a13.32,13.32,0,0,0-2.56,5.63h0c0,.08,0,.09,0,.09h0a1.15,1.15,0,0,1-1.27,1H90a1.16,1.16,0,0,1-.94-1.27Z"/></g></g></svg>