<svg xmlns="http://www.w3.org/2000/svg" viewBox="0 0 165.7 260.01"><defs><style>.cls-1{fill:#ad281e;}.cls-2{fill:#c65044;}.cls-3{fill:#4c3626;}.cls-4{fill:#f4d3b0;}.cls-5{fill:#f9dab4;}.cls-6{fill:#6b4627;}.cls-7{fill:#efc4a0;}.cls-8{fill:#3a332d;}.cls-9{fill:#e8dfd9;}</style></defs><title>资源 151</title><g id="图层_2" data-name="图层 2"><g id="Layer_1" data-name="Layer 1"><path class="cls-1" d="M116.08,172s.27,70.81,8.92,88h27.64a13.16,13.16,0,0,0,.85-2.55c2.31-10.36-9.21-48.93-17.27-67.35S116.08,172,116.08,172Z"/><path class="cls-1" d="M43.84,190.11c-8.06,18.42-19.58,57-17.27,67.35a13.16,13.16,0,0,0,.85,2.55H55.06C63.72,242.78,64,172,64,172S51.9,171.68,43.84,190.11Z"/><path class="cls-2" d="M119.06,172.66a247.21,247.21,0,0,0-29-1.27,247,247,0,0,0-29,1.27s-7.51,2.69-9.12,25-.47,41.45-2.78,52.2c-.79,3.72-2,7.21-2.79,10.2h87.44c-.81-3-2-6.48-2.79-10.2-2.31-10.75-1.16-29.94-2.78-52.2S119.06,172.66,119.06,172.66Z"/><path class="cls-1" d="M114.25,157.14,90,158.53l-24.22-1.39s-8.45,15,0,17.27c6.48,1.77,8.73,3.46,24.22,3.46s17.74-1.69,24.22-3.46C122.7,172.11,114.25,157.14,114.25,157.14Z"/><path class="cls-2" d="M164.28,91.41C162.57,81.4,150.2,56.63,90.93,52v-.22l-1.39.11-1.38-.11V52C28.88,56.63,16.52,81.4,14.8,91.41c-1.74,10.16,5.15,18,5.15,18A36,36,0,0,1,34.46,82c13.32-10.2,47.8-11.1,55.08-11.17s41.77,1,55.09,11.17a36,36,0,0,1,14.5,27.43S166,101.57,164.28,91.41Z"/><path class="cls-3" d="M20.28,113s-7-32.77,6.47-39.12S39.19,113,39.19,113Z"/><path class="cls-3" d="M158.8,113s7-32.77-6.47-39.12S139.89,113,139.89,113Z"/><path class="cls-4" d="M34.55,114s-8.2-10.29-17.34-5.5,3.52,36.05,21.56,38.6Z"/><path class="cls-4" d="M145,114s8.2-10.29,17.34-5.5-3.51,36.05-21.56,38.6Z"/><path class="cls-5" d="M30.84,69.55v60.8A30,30,0,0,0,42.24,154s18.42,13.51,47.53,13,47.51-13,47.51-13a30,30,0,0,0,11.41-23.64V69.55Z"/><polygon class="cls-6" points="72.36 98.86 73 103.56 41.46 108.72 39.9 102.59 72.36 98.86"/><polygon class="cls-6" points="106.21 98.86 105.58 103.56 137.11 108.72 138.67 102.59 106.21 98.86"/><path class="cls-3" d="M26.35,79.72s8,9.49,26.2,7.12,49.09,2.37,59,25.06c0,0,3.32-6.1-1.66-13.89,0,0,10.28,1.36,15.26,16.26,0,0,4.31-9.48,1.33-17.27,0,0,8.62,4.4,8.62,14.22a21,21,0,0,0,4-19s8,7.11,8.62,17.27S157,98,156.68,83.45s-4-33.2-34.81-34.89S2.8,38.06,26.35,79.72Z"/><path class="cls-2" d="M160.61,93.14s16.69-31.71-10.37-63.89S89-.89,63.15.8,3.78,32,.79,61.09,4.11,98,6.1,98s8.7-6.6,8.7-6.6L18.48,95S18,61.43,84.71,59.4,160.61,93.14,160.61,93.14Z"/><path class="cls-1" d="M150.18,65.53A92.74,92.74,0,0,0,140,59.63c-2.64-1.16-5.3-2.25-8-3.19a134,134,0,0,0-51.55-7c-17.77,1-36.59,4.73-50.4,17.2-2.93,2.65-8.8,9.41-13.47,7.77-1.15-.41-5-6-5.47-6.87-1.23,8.93-.79,24.88-6.94,29,.78,1.06,1.49,1.5,2,1.5,2,0,8.7-6.6,8.7-6.6L18.48,95S18,61.43,84.71,59.4s75.9,33.74,75.9,33.74a50.39,50.39,0,0,0,4-12.74A54,54,0,0,0,150.18,65.53Z"/><path class="cls-1" d="M159.1,107.37l1.37.25c1.91-2.89,5.05-9,3.81-16.21C162.57,81.4,150.2,56.63,90.93,52a7.91,7.91,0,0,0-1.39-.11,7.76,7.76,0,0,0-1.38.11C28.88,56.63,16.52,81.4,14.8,91.41c-1.22,7.15,1.82,13.15,3.73,16.09h1.52A36.44,36.44,0,0,1,34.46,82c13.32-10.2,47.8-11.1,55.08-11.17s41.77,1,55.09,11.17A36.38,36.38,0,0,1,159,107.37.22.22,0,0,1,159.1,107.37Z"/><path class="cls-2" d="M27.85,71.32A40.48,40.48,0,0,0,17.46,83.81a86,86,0,0,1,7.16,9.38A37.38,37.38,0,0,1,34.46,82l.21-.15A109.53,109.53,0,0,1,27.85,71.32Z"/><path class="cls-2" d="M47.77,69.28c-.43-2.9-.56-5.84-.91-8.74A71,71,0,0,0,29.4,70.08a102.71,102.71,0,0,0,6.9,10.67,48.17,48.17,0,0,1,12.62-5.12C48.49,73.52,48.08,71.41,47.77,69.28Z"/><path class="cls-2" d="M65,55.24a117.07,117.07,0,0,0-16.29,4.59c.34,2.52.51,5.08.81,7.66s.77,5.11,1.29,7.64a133.55,133.55,0,0,1,16.55-2.88C66.49,66.59,65.63,60.93,65,55.24Z"/><path class="cls-2" d="M109.46,54.34A186.45,186.45,0,0,0,90.93,52s-.49-.08-.94-.11c0,6.32,0,12.64.13,19,2.66,0,7.82.18,14,.67A143.67,143.67,0,0,0,109.46,54.34Z"/><path class="cls-2" d="M129.76,59.62a122.5,122.5,0,0,0-18.34-4.93,140.46,140.46,0,0,1-5.2,17,155.73,155.73,0,0,1,19,2.75C126.61,69.44,128,64.46,129.76,59.62Z"/><path class="cls-2" d="M148.52,69.24a72.62,72.62,0,0,0-16.91-8.95c-1.78,4.76-3.1,9.66-4.42,14.57,6.7,1.58,12.83,3.79,17,6.86C145.75,77.6,147.15,73.43,148.52,69.24Z"/><path class="cls-2" d="M163.47,88.19c-2.92,1.83-5.89,3.55-8.94,5.15a35.64,35.64,0,0,1,4.49,14,.22.22,0,0,1,.08,0l1.37.25c1.91-2.89,5.05-9,3.81-16.21A23.67,23.67,0,0,0,163.47,88.19Z"/><path class="cls-2" d="M153.49,91.61q4.74-2.48,9.27-5.35c-1.89-4.59-5.6-10.3-12.55-15.77-1.39,4.2-2.8,8.39-4.35,12.53A37.34,37.34,0,0,1,153.49,91.61Z"/><path class="cls-2" d="M88,52a182.25,182.25,0,0,0-21,2.83c.6,5.75,1.47,11.47,2.38,17.19,8-.85,15.06-1.1,18.77-1.17C88,64.58,88,58.29,88,52Z"/><path class="cls-2" d="M16.52,85.79a25.34,25.34,0,0,0-1.72,5.62c-1.22,7.15,1.82,13.15,3.73,16.09h1.52a35.64,35.64,0,0,1,3.51-12.3A91.44,91.44,0,0,0,16.52,85.79Z"/><path class="cls-7" d="M78,126.29s5.7,6.24,11.39,6.24,11.22-6.9,11.22-6.9-8.37,4.9-11.31,4.9S78,126.29,78,126.29Z"/><path class="cls-7" d="M69.22,147.13a86.16,86.16,0,0,0,10,1.34c3.35.25,6.69.37,10,.29a131.58,131.58,0,0,0,20.06-2.11,53.9,53.9,0,0,1-20,4.14A56,56,0,0,1,79.06,150,38.3,38.3,0,0,1,69.22,147.13Z"/><path class="cls-8" d="M63.13,118a6.93,6.93,0,1,1-6.93-7.06A7,7,0,0,1,63.13,118Z"/><path class="cls-9" d="M57.35,113.07c.17.85-.86,1.78-2.31,2.08s-2.75-.16-2.92-1,.87-1.79,2.31-2.09S57.18,112.21,57.35,113.07Z"/><path class="cls-8" d="M129.81,118a6.93,6.93,0,1,1-6.92-7.06A7,7,0,0,1,129.81,118Z"/><path class="cls-9" d="M124,113.07c.17.85-.87,1.78-2.31,2.08s-2.75-.16-2.92-1,.87-1.79,2.31-2.09S123.86,112.21,124,113.07Z"/></g></g></svg>