<svg xmlns="http://www.w3.org/2000/svg" viewBox="0 0 170.06 260"><defs><style>.cls-1{fill:#f2ac2f;}.cls-2{fill:#ffc55f;}.cls-3{fill:#f7cea6;}.cls-4{fill:#f9dab4;}.cls-5{fill:#f9f7f2;}.cls-6{fill:#e5be9e;}.cls-7{fill:#f4c7a2;}.cls-8{fill:#3f2412;}.cls-9{fill:#fff;}.cls-10{fill:#6b4627;}</style></defs><title>资源 25</title><g id="图层_2" data-name="图层 2"><g id="Layer_1" data-name="Layer 1"><path class="cls-1" d="M115.35,144.08,105,145,105.3,260H153c1-6.5,2-13.46,2.79-19.94,1.72-15,2.56-38.81-9-56.15C137.32,169.75,115.35,144.08,115.35,144.08Z"/><path class="cls-2" d="M122.86,161.09c-2.35-.11-.6,9.74-.6,9.74s5.52,37.71,9.35,44.61a33.51,33.51,0,0,1,8.49-.14,22.37,22.37,0,0,1,6.81,1.91c1.55.72,4.67,2.09,4.31,4.21a1.12,1.12,0,0,1-.42.76,1,1,0,0,1-.89.1,3.25,3.25,0,0,1-.82-.44,18.09,18.09,0,0,0-4.2-2.45,18.42,18.42,0,0,0-7.18-.92c-.89.07-3.61.24-3.69,1.57,3.36.16,6.34-.33,9.2,2.55.89.91,2.51,3.23,1.48,4.57s-3.79-1.11-4.64-1.65c-1.75-1.11-4-1.92-5.48-.14-1.88,2.24-2.6,5.6-3.21,8.37a66.74,66.74,0,0,0-1.51,11.61c-.12,2.75-.31,6,.71,8.61a28.78,28.78,0,0,0,3.3,6h14a69.49,69.49,0,0,0,6.35-26c.51-13.91-2-30.94-4.56-38.16C143,177.08,125.21,161.2,122.86,161.09Z"/><path class="cls-1" d="M20.55,183.91C9,201.25,9.81,225.1,11.52,240.06c.75,6.48,1.76,13.44,2.8,19.94H62l.26-115L52,144.08S30,169.75,20.55,183.91Z"/><path class="cls-2" d="M44.48,161.09c-2.35.11-20.14,16-26.84,34.74-2.57,7.22-5.06,24.25-4.55,38.16a69.3,69.3,0,0,0,6.35,26h14a28.28,28.28,0,0,0,3.29-6c1-2.62.83-5.86.71-8.61A66.73,66.73,0,0,0,36,233.74c-.62-2.77-1.34-6.13-3.22-8.37-1.5-1.78-3.73-1-5.48.14-.84.54-3.64,3-4.64,1.65s.6-3.66,1.49-4.57C27,219.71,30,220.2,33.32,220c-.09-1.33-2.8-1.5-3.69-1.57a18.42,18.42,0,0,0-7.18.92,17.89,17.89,0,0,0-4.2,2.45,3.25,3.25,0,0,1-.82.44,1,1,0,0,1-.89-.1,1.13,1.13,0,0,1-.43-.76c-.35-2.12,2.77-3.49,4.31-4.21a22.54,22.54,0,0,1,6.81-1.91,33.5,33.5,0,0,1,8.49.14c3.84-6.9,9.36-44.61,9.36-44.61S46.83,161,44.48,161.09Z"/><path class="cls-2" d="M130.69,260c-2.41-22.31-9.19-79-18.12-101.39L52,159S38.39,217.72,36.5,260Z"/><path class="cls-1" d="M36.5,260H49c-4-3.45-6.48-9-6.48-18.05C42.16,221.67,51,175.81,51,175.81L54.55,159,52,159S38.39,217.72,36.5,260Z"/><path class="cls-1" d="M118.64,260h12c-1.09-10.12-3.09-27.32-5.77-45.19a292.06,292.06,0,0,1,.31,31.77C124.88,252.84,122.39,257.11,118.64,260Z"/><polygon class="cls-1" points="85.28 192.69 58.3 172.92 69.9 155.77 100.66 155.77 112.26 172.92 85.28 192.69"/><polygon class="cls-3" points="66.09 163.66 85.28 192.69 104.47 163.66 66.09 163.66"/><path class="cls-4" d="M150.85,51.27,22.07,51.12S22.71,81.37,21,95.39c-1,8.06-.44,15-.65,18.19-1.91,29.06,28.88,52.92,64.92,53.16s65.42-23.19,65.6-52.31a79.9,79.9,0,0,0-.45-9.65c-.25-2.45-.25-5.12-.38-8.15C149.4,83.53,150.85,51.27,150.85,51.27Z"/><path class="cls-5" d="M45.2,127.77A1.18,1.18,0,0,1,44,128.91l-4-.15a1.18,1.18,0,0,1-1.14-1.22h0a1.18,1.18,0,0,1,1.22-1.14l4,.14a1.18,1.18,0,0,1,1.13,1.23Z"/><path class="cls-5" d="M130.8,128.33a1.17,1.17,0,0,1-1.22,1.13l-4-.15a1.18,1.18,0,0,1-1.14-1.22h0a1.18,1.18,0,0,1,1.22-1.14l4,.15a1.17,1.17,0,0,1,1.13,1.23Z"/><path class="cls-4" d="M142.49,133.18a21.69,21.69,0,0,0,18.22-.24c9.55-4.67,14.27-23.86,1.88-28.45s-16.2,9.64-16.2,9.64Z"/><path class="cls-3" d="M148.25,127.34s3.94-21,13.13-13.76c5.64,4.46,2.3,10.69-2.94,13.25C155.14,128.43,150.87,128.57,148.25,127.34Z"/><path class="cls-6" d="M148.37,127.1l1.36-5.3s17.48-5,12.58,2S148.37,127.1,148.37,127.1Z"/><path class="cls-4" d="M27.34,132a21.62,21.62,0,0,1-18.2-.47c-9.5-4.8-14-24-1.52-28.48s16.07,9.86,16.07,9.86Z"/><path class="cls-3" d="M21.66,126.06S18,105,8.71,112.13c-5.7,4.39-2.43,10.66,2.77,13.28C14.75,127.06,19,127.25,21.66,126.06Z"/><path class="cls-6" d="M21.55,125.82l-1.3-5.32s-17.41-5.21-12.6,1.87S21.55,125.82,21.55,125.82Z"/><path class="cls-7" d="M75.8,126.24a1.27,1.27,0,0,1-.68-2.34,19.49,19.49,0,0,1,21.71.06,1.27,1.27,0,1,1-1.54,2c-.36-.27-8.69-6.37-18.81.06A1.2,1.2,0,0,1,75.8,126.24Z"/><path class="cls-8" d="M128.54,103.09a10.53,10.53,0,1,1-14.6-2.94A10.52,10.52,0,0,1,128.54,103.09Z"/><path class="cls-9" d="M121.4,100.63c1,1.57-.33,4.32-3.06,6.14s-5.8,2-6.84.44.32-4.32,3-6.14S120.35,99.06,121.4,100.63Z"/><path class="cls-8" d="M61.92,100.68a10.53,10.53,0,1,1-14.6-2.94A10.53,10.53,0,0,1,61.92,100.68Z"/><path class="cls-9" d="M54.78,98.22c1,1.57-.33,4.32-3.06,6.14s-5.8,2-6.85.44.33-4.32,3.06-6.14S53.73,96.65,54.78,98.22Z"/><path class="cls-10" d="M108.57,93.24s6.56-.74,23.71-1.37a50.53,50.53,0,0,0-.56-8.13s-15.93.45-24.86,2.76A25.41,25.41,0,0,0,108.57,93.24Z"/><path class="cls-10" d="M64.24,93.24s-6.57-.74-23.72-1.37a50.53,50.53,0,0,1,.56-8.13S57,84.19,65.94,86.5A25.68,25.68,0,0,1,64.24,93.24Z"/><path class="cls-7" d="M85.53,150c-15.4,0-25.26-3.1-25.67-3.24a1.27,1.27,0,1,1,.78-2.41c.09,0,9.92,3.11,24.89,3.11a94.6,94.6,0,0,0,25.24-3.12,1.27,1.27,0,0,1,.75,2.43C111.1,146.87,100.93,150,85.53,150Z"/><path class="cls-10" d="M85.1,0C-4.92,0,7.5,75.35,7.5,75.84c0,9.27,2.41,26.55,2.41,26.55a11.42,11.42,0,0,1,10.43,3.91C25.91,93.05,30.54,76.69,29,60.36,56,74.38,102.44,79.69,143.7,71.22c-2.22,16.67,6.86,35.57,6.86,35.57a13,13,0,0,1,9.54-3s2.67-18.67,2.66-27.94C162.76,75.35,175.12,0,85.1,0Z"/><path class="cls-10" d="M85.33,138.92c-2,7.53,11.7,13.62,20.89,11.52,7.29-1.67,7.29-9.09,7.29-9.09s-4.65,3.89-9,0C98.84,136.33,87.79,129.8,85.33,138.92Z"/><path class="cls-10" d="M86.53,138.92c2,7.53-11.7,13.62-20.89,11.52-7.29-1.67-7.29-9.09-7.29-9.09s4.65,3.89,9,0C73,136.33,84.07,129.8,86.53,138.92Z"/></g></g></svg>