<svg xmlns="http://www.w3.org/2000/svg" viewBox="0 0 182.87 260"><defs><style>.cls-1{fill:#f2d0af;}.cls-2{fill:#ad3936;}.cls-3{fill:#c65044;}.cls-4{fill:#442b1e;}.cls-5{fill:#aa9388;}.cls-6{fill:#393c3d;}.cls-7{fill:#f4d3b0;}.cls-8{fill:#3a332d;}.cls-9{fill:#e8dfd9;}.cls-10{fill:#ddb58e;}</style></defs><title>资源 266</title><g id="图层_2" data-name="图层 2"><g id="Layer_1" data-name="Layer 1"><path class="cls-1" d="M34.92,252.69s-.68,3.24-1.11,7.31H52.42a99.39,99.39,0,0,0,4.95-19l9.32-44.25-15.76-4.23S43.39,233.31,34.92,252.69Z"/><path class="cls-1" d="M130.94,189.46l-15.51,6.11S122.78,232.4,128,260h17.38C140.12,231.49,130.94,189.46,130.94,189.46Z"/><path class="cls-2" d="M114.18,168.3S132.64,176,141.74,191c0,0-12.24,11.77-22.75,9.1l-9.73-29.34Z"/><path class="cls-2" d="M68.73,168.19S50.23,176,41.13,191c0,0,12.24,11.77,22.75,9.1l9.73-29.34Z"/><path class="cls-3" d="M91.32,169.27l-22.59-1.08s-22.52,84.46-20.65,88.1c.59,1.16,2,2.47,4.69,3.71h76.61a15.71,15.71,0,0,0,5.19-3.71c3.36-3.72-20.39-88-20.39-88Z"/><path class="cls-4" d="M114.06,168.16c-1.21,6.41-8.69,19.9-15.81,28-3.45,3.91-6.43,6.08-8.39,6.1h0c-5.12,0-14.53-19.58-20.27-34.24-.6.18-1.21.34-1.81.54,4,10.25,14.67,35.59,22.09,35.59h0c2.57,0,5.86-2.31,9.77-6.74,6.65-7.52,14.48-21,16.15-28.42Z"/><path class="cls-5" d="M98.21,205.69c0-3-3.58-5.49-8-5.49s-8,2.46-8,5.49c0,2.34,2.14,4.33,5.14,5.12v15h5.72v-15C96.08,210,98.21,208,98.21,205.69Z"/><path class="cls-2" d="M91.26,147.32c-9.49,0-17.76,2.83-22.25,7l-.3,13.83c4.49,4.2,13.06,5.8,22.55,5.8s18.38-1.54,22.9-5.69l-.76-14C108.88,150.1,100.67,147.32,91.26,147.32Z"/><path class="cls-6" d="M164.74,117.78S169.45,27.07,182.87,0H79.76L77.43,14.12,71.55,0H0S23.06,32.71,22.83,114.85Z"/><path class="cls-7" d="M35.61,118.09s-6.7-12.47-15.69-6.12c-11.72,8.27,5.29,35.8,18.51,31Z"/><path class="cls-7" d="M147.25,118.09S154,105.62,163,112c11.72,8.27-5.29,35.8-18.52,31Z"/><path class="cls-1" d="M127.48,158.87l-13.56,4a79.46,79.46,0,0,1-45,0l-13.56-4a37.55,37.55,0,0,1-26.92-36s.13-38.6,0-47.19,125.93-8,125.93,0v47.19A37.55,37.55,0,0,1,127.48,158.87Z"/><path class="cls-6" d="M65.55,100.5s-5-6-16.63-6.12l-.78-4.24s9.89-3.6,20.08,6.44Z"/><path class="cls-6" d="M117.75,100.5s5-6,16.63-6.12l.78-4.24s-9.88-3.6-20.08,6.44Z"/><circle class="cls-8" cx="56.27" cy="116.28" r="8.78"/><path class="cls-9" d="M53.61,110.51c-.26,1.26,1.3,2.63,3.46,3.07s4.14-.23,4.39-1.48S60.16,109.46,58,109,53.86,109.26,53.61,110.51Z"/><path class="cls-8" d="M117.81,116.28a8.79,8.79,0,1,0,8.78-8.78A8.78,8.78,0,0,0,117.81,116.28Z"/><path class="cls-9" d="M123.93,110.51c-.25,1.26,1.3,2.63,3.47,3.07s4.13-.23,4.39-1.48-1.3-2.64-3.47-3.07S124.19,109.26,123.93,110.51Z"/><path class="cls-10" d="M81.6,134.61s4.15-7.59,10.21-7.75,9.46,6.94,9.46,6.94-4.85-5-9.56-4.94S81.6,134.61,81.6,134.61Z"/><path class="cls-10" d="M62.58,143.55s.9.29,2.51.64,3.92.8,6.71,1.16c1.39.22,2.91.38,4.52.5l2.46.21,2.59.12c1.75.1,3.57.18,5.41.17s3.75.1,5.56,0l5.63-.27,5.32-.64c1.72-.24,3.38-.61,5-.87s3-.73,4.41-1,2.57-.79,3.67-1.1,2-.72,2.8-1c1.53-.6,2.39-1,2.39-1a25.66,25.66,0,0,1-2.24,1.34c-.74.36-1.62.86-2.69,1.31s-2.25,1-3.61,1.46-2.82,1-4.41,1.38-3.25.88-5,1.17-3.62.57-5.5.82l-5.62.33c-2,.12-3.82,0-5.7,0s-3.71-.18-5.49-.33l-2.61-.24-2.49-.38c-1.62-.23-3.14-.5-4.53-.82l-2-.43-1.78-.51c-1.12-.3-2.07-.63-2.85-.91s-1.39-.54-1.8-.7Z"/><path class="cls-6" d="M83.17,154c-1.12,1-1.1,6.47-.81,11.56a79.31,79.31,0,0,0,20.65-.29c.25-4.28.26-8.68-.55-10.28C100.71,151.54,85.37,152,83.17,154Z"/></g></g></svg>