<svg xmlns="http://www.w3.org/2000/svg" viewBox="0 0 212.15 265.15"><defs><style>.cls-1{fill:#f9dab4;}.cls-2{fill:#f4bb3b;}.cls-3{fill:#c65044;}.cls-4{fill:#e5aa33;}.cls-5{fill:#b23f39;}.cls-6{fill:#efc4a0;}.cls-7{fill:#515151;}.cls-8{fill:#e8e3d9;}</style></defs><title>资源 294</title><g id="图层_2" data-name="图层 2"><g id="Layer_1" data-name="Layer 1"><path class="cls-1" d="M32.62,247.23l-17.27,1.93.63,8.48a27.88,27.88,0,0,0-1.1,7.51H34.05a18.56,18.56,0,0,1-.69-6.45Z"/><path class="cls-2" d="M45.58,165.12s-33,27.6-33.2,91.64c0,0,15,4.94,30,5.14Z"/><path class="cls-3" d="M42.7,253.38c-9.41-.21-22.44-3-30.11-4.88q-.19,4-.21,8.26s15,4.94,30,5.14Z"/><path class="cls-4" d="M41,183.68S31.77,204.9,30.19,252.1c3.32.53,6.64,1,9.7,1.15Z"/><path class="cls-5" d="M32.31,261.13h.09l1.15.15h0c1.2.14,2.42.26,3.65.36h0c.4,0,.81.06,1.21.09h.05l1.23.07.13-8.56c-3.06-.2-6.38-.62-9.7-1.15q-.15,4.22-.2,8.7h0l1.12.17h.08Z"/><path class="cls-1" d="M167.15,184.48s1.63-9.54,0-15.46c-.62-2.28-2.08-2.66-3.56-4.47-3-3.7,11.88-7.85,14.6,4.69,0,0,9.23-11.53,14.59-8.23s-5.71,16.17-5.71,16.17,10.58-12.22,15.45-9.53-5.42,17.18-5.42,17.18,10-12.37,13.94-8.56S209,199.7,181.62,209.21l-15.7-19.12Z"/><path class="cls-6" d="M178.23,169.24s.4,3.93-.74,6.16c0,0,14.08,5.77,16.9,12.85,0,0-.48-8-15-13.55C179.43,174.7,180.9,171,178.23,169.24Z"/><path class="cls-2" d="M114.2,165.12l30.67,34.25,18.81-20.14,25.74,31.19c-8.3,10.34-41.31,30-44.06,29.59-13.76-2-24.26-14.4-24.26-14.4Z"/><path class="cls-3" d="M158.08,185.22c6,8.38,16.3,21.9,26.1,30.4a41.5,41.5,0,0,0,5.24-5.2l-25.74-31.19Z"/><path class="cls-4" d="M118.83,183.68l2.27,41.93a50.59,50.59,0,0,0,7.44,6.8C126.43,208.14,118.83,183.68,118.83,183.68Z"/><path class="cls-2" d="M33.36,265.15h93.05c-.77-26.22-3.54-77.1-13.51-103.76h-66C36.9,188.05,34.13,238.93,33.36,265.15Z"/><path class="cls-3" d="M125.28,240c-.53-8.61-1.25-17.9-2.24-27.18,0,0-15.19,2.7-42.93,2.7s-43.38-2.7-43.38-2.7c-1,9.28-1.71,18.57-2.24,27.18a385.79,385.79,0,0,0,45.62,2.71A373,373,0,0,0,125.28,240Z"/><path class="cls-3" d="M125.28,240c-.53-8.61-1.25-17.9-2.24-27.18,0,0-13.69,2.44-38.8,2.68v27.18A368.63,368.63,0,0,0,125.28,240Z"/><path class="cls-3" d="M36.73,212.83c-1,9.28-1.71,18.57-2.24,27.18A382.39,382.39,0,0,0,76,242.69V215.51C50.83,215.27,36.73,212.83,36.73,212.83Z"/><path class="cls-4" d="M84.24,215.51V161.39H76v54.12c1.34,0,2.72,0,4.13,0S82.9,215.53,84.24,215.51Z"/><path class="cls-4" d="M76,242.69v22.46h8.26V242.69c-1.36,0-2.73,0-4.13,0S77.34,242.71,76,242.69Z"/><path class="cls-5" d="M84.24,242.69V215.51c-1.34,0-2.72,0-4.13,0s-2.79,0-4.13,0v27.18c1.36,0,2.74,0,4.13,0S82.88,242.71,84.24,242.69Z"/><path class="cls-1" d="M141,132.87a36.49,36.49,0,0,1-28,35.48,143.77,143.77,0,0,1-33.14,4.18,143.86,143.86,0,0,1-33.15-4.18,36.5,36.5,0,0,1-28-35.48V73H141Z"/><path class="cls-6" d="M76.8,151.82a111.08,111.08,0,0,1-18.69-1.42,1.08,1.08,0,1,1,.41-2.12,121.4,121.4,0,0,0,44.07-1.4,1.08,1.08,0,0,1,.48,2.11A119.28,119.28,0,0,1,76.8,151.82Z"/><path class="cls-6" d="M79.74,159.05A20.16,20.16,0,0,1,73,157.89a1.08,1.08,0,1,1,.79-2h0c.06,0,6.35,2.42,12-.28a1.09,1.09,0,0,1,1.44.52,1.08,1.08,0,0,1-.51,1.44A16.17,16.17,0,0,1,79.74,159.05Z"/><path class="cls-6" d="M79.89,142.87a15.36,15.36,0,0,1-10.42-4.06s6.25,2,10.48,2,10.76-2,10.76-2A17.07,17.07,0,0,1,79.89,142.87Z"/><polygon class="cls-7" points="58.31 105.74 58.31 110.7 33 113.88 33 109.18 58.31 105.74"/><path class="cls-7" d="M41.93,130.15a1.08,1.08,0,0,1-1.07-1c0-.38-.91-9.25,5.61-10.92,5.22-1.35,8.71,3.55,9.83,6.33a1.08,1.08,0,1,1-2,.8c-.1-.25-2.59-6.24-7.28-5s-4,8.52-4,8.6a1.08,1.08,0,0,1-1,1.19Z"/><polygon class="cls-7" points="102.83 105.74 102.83 110.7 128.14 113.88 128.14 109.18 102.83 105.74"/><path class="cls-7" d="M119.21,130.15h-.12a1.09,1.09,0,0,1-1-1.19h0c0-.08.71-7.39-4-8.6s-7.26,5-7.29,5a1.08,1.08,0,1,1-2-.8c1.12-2.78,4.61-7.68,9.83-6.33,6.52,1.67,5.65,10.54,5.61,10.92A1.08,1.08,0,0,1,119.21,130.15Z"/><path class="cls-7" d="M15.7,71.38V99.66a21.77,21.77,0,0,0,17.6-.94c6.37,3.52,14.65,5.32,25.17,2.71,0,0,12.53,4.61,25.62.18,0,0,7.19,6.46,24.33,1.11,0,0,9.22,3.5,15.67-.18,0,0,10.21,4.79,17.21,0V71.38Z"/><path class="cls-8" d="M12.38,161.53h3.77A2.58,2.58,0,0,0,18.74,159V76.21H9.79V159A2.58,2.58,0,0,0,12.38,161.53Z"/><path class="cls-8" d="M143.62,161.53h3.77A2.58,2.58,0,0,0,150,159V76.21H141V159A2.58,2.58,0,0,0,143.62,161.53Z"/><path class="cls-2" d="M152.8,80.44H7V71a65.8,65.8,0,0,1,65.8-65.8H87A65.8,65.8,0,0,1,152.8,71Z"/><path class="cls-2" d="M86.72,9.8H73.05V3.42A3.42,3.42,0,0,1,76.47,0h6.84a3.42,3.42,0,0,1,3.41,3.42Z"/><rect class="cls-4" y="70.63" width="159.78" height="9.8"/><path class="cls-3" d="M53.35,31.63S56,35.32,55,44.49c-.63,5.47,2.27,19.07,22.36,18.9s26.27-15.74,19.86-31.27c0,0-1.47,4.88-4,5.74,0,0,2.73-8.35-3.57-18.22,0,0-2.09,4.22-3.62,5.25,0,0-1-7.29-6.6-11.21,0,0-7.2,3.77-8,11.19a4.77,4.77,0,0,1-2.58-4.38s-6,4.23-7.11,16.16C61.73,36.65,58.11,31.8,53.35,31.63Z"/></g></g></svg>