<?xml version="1.0" standalone="no"?><!DOCTYPE svg PUBLIC "-//W3C//DTD SVG 1.1//EN" "http://www.w3.org/Graphics/SVG/1.1/DTD/svg11.dtd"><svg t="1548749155077" class="icon" style="" viewBox="0 0 1675 1024" version="1.1" xmlns="http://www.w3.org/2000/svg" p-id="13343" xmlns:xlink="http://www.w3.org/1999/xlink" width="327.1484375" height="200"><defs><style type="text/css"></style></defs><path d="M1410.941673 661.764655l35.597963-1.861819c3.090618-0.148945 7.633455-0.930909 8.592291-4.952436 1.9456-7.410036 0.679564-14.0288-9.588363-13.535418-8.508509 0.4096-17.054255 0-25.590691 0-13.405091 0.018618-26.810182-0.176873-40.215273 0.158254-8.257164 0.2048-13.935709 6.7584-13.014109 14.522182 0.977455 8.378182 7.363491 7.68 13.200291 7.400727 10.3424-0.484073 31.017891-1.731491 31.017891-1.73149m-136.713309-87.04v0.09309c-13.405091 0-26.810182-0.139636-40.215273 0.055855-6.795636 0.093091-12.176291 6.646691-10.472727 17.2032 0.958836 5.920582 5.957818 5.613382 9.914181 5.641309 20.414836 0.167564 40.820364 0 61.2352-0.074473 5.790255-0.018618 11.599127 0.223418 17.352146-0.260654 7.3728-0.623709 12.250764-7.149382 11.682909-14.9504-0.586473-7.949964-6.367418-7.726545-12.036655-7.707927-12.483491 0.018618-24.976291 0-37.459781 0m160.023272 0.083781c-13.702982 0-27.424582-0.242036-41.127563 0.083782-8.136145 0.186182-13.591273 6.469818-13.237528 14.550109 0.372364 8.489891 6.590836 8.210618 12.557964 8.210618 23.7568 0 47.522909-0.046545 71.289018 0.093091 13.637818 0.093091 13.460945-0.009309 17.435928-13.163054 2.373818-7.875491-0.269964-10.016582-7.614837-9.867637-13.088582 0.242036-26.195782 0.065164-39.302982 0.093091m100.277528-194.113163l-0.837819-2.569309h-48.407272c-18.934691 0.018618-37.888-0.139636-56.832 0.139636-8.424727 0.121018-13.423709 5.874036-13.367855 14.401164 0.055855 9.234618 6.749091 8.8064 12.958255 8.815709 21.0944 0.046545 42.263273-1.154327 63.236654 0.372363 19.456 1.396364 30.4128-11.0592 43.250037-21.159563m-141.535419 149.969454c4.561455 0.279273 9.346327 0.828509 14.112582 0.837818 34.555345 0.074473 69.101382 0.009309 103.647418 0.093091 4.254255 0 8.620218 0.139636 12.753455 1.051928 13.609891 3.006836 21.429527 14.484945 18.934691 28.197236-2.978909 16.384-6.181236 32.730764-9.988655 48.928582-1.154327 4.877964-4.049455 9.644218-7.149381 13.684363-8.378182 10.928873-8.005818 12.706909 0.968145 23.570619 10.733382 12.995491 21.159564 26.363345 30.533818 40.382836 7.894109 11.831855 5.334109 22.872436-5.306182 32.023273-11.375709 9.774545-28.094836 12.716218-35.830691 3.1744-13.963636-17.221818-31.4368-16.9984-50.455272-16.020946-97.373091 4.989673-194.755491 9.588364-292.137891 14.317382-16.495709 0.800582-32.9728 1.694255-49.468509 2.327273-15.071418 0.567855-25.171782-5.250327-27.052218-15.229673-2.243491-11.8784 5.259636-25.097309 18.413381-29.640145 7.633455-2.634473 16.048873-3.630545 24.175709-4.049455 48.546909-2.420364 97.093818-4.431127 145.640728-6.646691 4.570764-0.214109 9.206691-0.446836 13.665745-1.368436 7.801018-1.610473 12.474182-8.992582 11.636364-17.389382-0.875055-8.852945-7.540364-7.428655-13.144437-7.447273-35.160436-0.074473-70.320873-0.009309-105.472-0.046545-21.876364-0.027927-31.902255-12.557964-27.461818-34.071273 3.1744-15.406545 6.050909-30.878255 9.355637-46.238254 3.500218-16.197818 15.322764-26.9312 31.604363-28.997819 3.630545-0.465455 7.307636-0.539927 10.975418-0.539927 33.922327-0.037236 67.863273-0.167564 101.79491 0.065164 9.653527 0.074473 17.398691-1.591855 21.010618-12.194909 1.210182-3.565382 4.598691-6.376727 7.801018-10.612364-4.002909-1.293964-7.447273-2.718255-11.031273-3.537455-25.637236-5.864727-49.133382-16.532945-70.739782-31.595054-11.515345-8.024436-13.712291-7.195927-24.110545 2.699636a1183.390255 1183.390255 0 0 1-49.840873 44.962909c-5.948509 5.026909-13.544727 8.359564-20.796509 11.459491-11.115055 4.766255-21.597091 0.7168-28.355491-9.960727-5.296873-8.378182-3.984291-17.491782 4.170473-25.972364 3.1744-3.295418 6.795636-6.237091 10.537891-8.871563 27.052218-19.1488 50.017745-42.542545 69.864727-69.073455 6.786327-9.076364 12.222836-19.176727 19.083636-28.206545 6.944582-9.141527 16.626036-12.129745 27.815564-9.150837 13.945018 3.714327 17.873455 10.128291 14.708364 24.427055-1.684945 7.5776-0.865745 14.754909 5.492363 19.269818 13.405091 9.504582 27.052218 18.813673 41.2672 27.024291 7.568291 4.365964 11.608436 1.4336 13.470255-7.596218a4224.651636 4224.651636 0 0 0 10.873018-54.411637c1.824582-9.383564-0.549236-12.111127-10.5472-12.129745-45.251491-0.065164-90.502982-0.037236-135.735854-0.037236-3.072 0-6.125382 0.018618-9.178764 0-15.946473-0.1024-24.864582-6.804945-25.553455-19.195346-0.688873-12.427636 10.109673-24.901818 23.384437-26.754327 3.611927-0.493382 7.326255-0.4096 10.984727-0.4096 125.039709-0.018618 250.079418-0.009309 375.109818-0.046546 10.947491 0 21.848436 0.093091 27.685237 11.822546 6.022982 12.064582-1.340509 20.833745-8.192 29.0816-7.447273 8.964655-15.788218 17.184582-23.831273 25.655854-4.589382 4.840727-7.233164 9.513891-5.892655 17.175273 2.690327 15.453091-12.148364 29.2864-30.450036 29.323637-41.276509 0.111709-82.543709 0.037236-123.810909 0.046545-2.755491 0-5.510982 0-8.257164 0.065164-8.322327 0.214109-12.306618 5.334109-12.660363 12.958254-0.390982 8.489891 6.376727 8.750545 12.232145 8.843637 54.393018 0.800582 108.795345 1.387055 163.197673 2.271418 6.004364 0.093091 12.325236 0.707491 17.910691 2.727563 10.612364 3.863273 14.168436 13.237527 10.314472 24.129164-4.4032 12.455564-16.923927 21.448145-32.544581 21.261964-55.007418-0.670255-109.996218-1.908364-165.003637-2.932364-0.297891 0-0.595782-0.037236-0.912291-0.065164-16.1792-1.275345-16.551564-0.865745-14.214982 16.579491" p-id="13344"></path><path d="M980.461382 641.480145c0 0.018618-23.179636-0.251345-34.732218 0.186182-7.586909 0.297891-12.911709 7.149382-12.018037 14.5408 0.930909 7.754473 6.786327 7.614836 12.399709 7.354182 22.211491-1.070545 44.432291-2.010764 66.615855-3.574691 3.3792-0.232727 9.020509-3.016145 9.402182-5.334109 1.340509-8.210618-3.127855-13.032727-10.593746-13.144436-10.361018-0.148945-20.722036-0.027927-31.073745-0.027928m-139.236073-66.746181c0 0.018618-26.810182-0.065164-40.215273 0.139636-6.795636 0.093091-12.958255 6.804945-10.463418 17.2032 1.508073 6.320873 5.957818 5.613382 9.914182 5.641309 20.414836 0.167564 40.820364 0 61.2352-0.074473 5.771636-0.018618 11.599127 0.223418 17.352145-0.260654 7.354182-0.623709 12.250764-7.149382 11.6736-14.9504-0.586473-7.940655-6.358109-7.726545-12.027345-7.707927-12.4928 0.027927-24.976291 0-37.469091 0m160.265309 0.065163v0.037237c-14.010182 0-28.038982-0.269964-42.039854 0.111709-7.586909 0.2048-12.753455 6.479127-12.567273 14.270836 0.195491 8.452655 6.265018 8.452655 12.325236 8.443345 23.766109-0.009309 47.532218-0.065164 71.307637 0.093091 13.963636 0.093091 14.121891-0.130327 17.845527-13.833309 1.768727-6.534982 0.176873-9.262545-6.656-9.160145-13.405091 0.167564-26.810182 0.037236-40.215273 0.037236m100.109964-193.9456c-0.726109-1.442909-0.865745-1.954909-0.996073-1.954909-35.728291-0.223418-71.465891-0.595782-107.194182-0.428218-7.074909 0.027927-12.045964 7.763782-11.329163 15.36 0.763345 7.931345 6.711855 7.633455 12.269381 7.652073 21.997382 0.055855 44.059927-0.949527 66.001455 0.335127 18.785745 1.089164 28.662691-11.915636 41.248582-20.964073m4.4032 280.687709c-22.891055 12.772073-31.371636 31.688145-25.916509 56.915782-0.558545 0.186182-1.396364 0.651636-1.508073 0.512-9.681455-12.334545-22.593164-13.405091-37.0688-12.632436-73.569745 3.928436-147.176727 7.223855-220.765091 10.724072-43.352436 2.075927-86.714182 4.217018-130.085236 6.171928-15.090036 0.679564-25.1904-5.203782-27.098764-15.173818-2.271418-11.8784 5.2224-25.106618 18.376146-29.668073 7.633455-2.643782 16.048873-3.658473 24.185018-4.058764 48.5376-2.420364 97.112436-4.449745 145.668654-6.656 4.561455-0.214109 9.197382-0.446836 13.665746-1.368436 7.801018-1.610473 12.474182-8.992582 11.636363-17.389382-0.884364-8.862255-7.540364-7.428655-13.163054-7.447273-35.169745-0.074473-70.330182-0.009309-105.490618-0.046545-21.904291-0.027927-31.874327-12.539345-27.424582-34.117818 3.183709-15.406545 6.050909-30.868945 9.374254-46.247564 3.490909-16.169891 15.313455-27.284945 31.650909-28.839564 10.612364-1.005382 21.373673-0.6144 32.06051-0.633018 27.219782-0.074473 54.430255-0.158255 81.640727 0.037237 8.983273 0.065164 16.104727-1.675636 19.595636-11.450182 1.359127-3.853964 4.859345-6.935273 8.136146-11.3664-3.369891-1.098473-6.283636-2.280727-9.290473-2.978909-25.879273-6.032291-49.840873-16.421236-71.745164-31.650909-12.539345-8.713309-14.224291-8.015127-25.478982 2.988218-14.252218 13.945018-28.802327 27.648-44.013381 40.513163-7.130764 6.0416-15.816145 10.519273-24.352582 14.503564-12.213527 5.706473-22.946909 1.880436-30.0032-9.439418-5.641309-9.039127-3.695709-18.8416 6.3488-27.871418 6.144-5.5296 13.135127-10.072436 19.577018-15.285528 25.9072-20.964073 49.338182-44.218182 66.448291-73.392872 3.407127-5.808873 7.624145-11.208145 12.018036-16.328146 8.192-9.513891 20.2752-11.906327 31.697455-6.814254 10.277236 4.580073 13.479564 10.351709 10.556509 21.345745-2.541382 9.5232-0.670255 17.501091 7.223854 22.974836 12.520727 8.694691 25.209018 17.259055 38.483782 24.697019 8.257164 4.626618 12.241455 1.880436 14.187055-7.568291 3.658473-17.8176 7.177309-35.653818 10.705454-53.517964 1.982836-10.081745-0.2048-12.8-10.6496-12.809309-47.709091-0.065164-95.408873-0.027927-143.108654-0.037236-17.519709-0.009309-26.624-6.562909-27.145309-19.456-0.558545-13.889164 11.748073-25.981673 27.331491-26.800873 3.044073-0.158255 6.106764-0.121018 9.169454-0.121018h386.466909c-8.406109 16.151273-10.9568 31.287855-2.308654 46.852654 0.707491 1.266036-0.847127 4.5056-2.206255 6.088146-3.3792 3.965673-7.233164 7.531055-10.928873 11.226763-5.7344 5.725091-9.9328 11.040582-8.28509 20.824437 2.466909 14.6432-12.567273 27.973818-29.863564 28.029672-41.890909 0.148945-83.781818 0.046545-125.672727 0.065164-3.053382 0-6.153309-0.167564-9.150837 0.279273-7.344873 1.107782-10.305164 6.423273-10.491345 13.125818-0.214109 7.186618 5.352727 8.173382 10.798545 8.378182 21.690182 0.8192 43.380364 1.899055 65.079855 2.141091 31.492655 0.363055 62.994618 0.093091 94.487273 0.093091h8.936727c-15.071418 12.8-28.923345 25.544145-27.815564 47.616-1.954909 0.297891-3.416436 0.744727-4.859345 0.7168-47.364655-1.024-94.729309-1.908364-142.084655-3.267491-15.406545-0.437527-15.657891-0.7168-13.675054 16.700509 4.533527 0.297891 9.281164 0.875055 14.038109 0.884363 35.169745 0.074473 70.339491-0.242036 105.490618 0.288582 7.009745 0.111709 14.736291 2.010764 20.768582 5.492364 8.750545 5.064145 11.142982 14.317382 9.216 24.296727-3.053382 15.750982-5.883345 31.557818-9.653528 47.122618-1.321891 5.455127-4.5056 10.770618-7.922036 15.304146-7.586909 10.053818-7.763782 12.725527 0.847127 22.137018 3.323345 3.621236 6.600145 7.298327 9.858328 10.984727 1.005382 1.145018 1.908364 2.401745 3.500218 4.4032M698.693818 493.149091h-85.755345c-1.964218-15.332073-2.038691-30.766545-6.302255-44.925673-4.254255-14.140509-10.891636-28.3648-19.698036-40.103563-15.955782-21.252655-41.146182-26.251636-66.029382-15.806837-20.507927 8.620218-35.746909 23.691636-47.225018 42.402909-24.724945 40.289745-32.749382 83.530473-18.692655 129.424291 6.767709 22.146327 20.144873 39.693964 42.868364 47.383273 18.562327 6.292945 36.212364 2.364509 52.642909-7.689309 17.966545-10.994036 30.934109-26.791564 41.611636-44.804655 1.489455-2.513455 4.626618-5.706473 7.037673-5.7344 31.138909-0.381673 62.287127-0.251345 93.761164-0.251345 0.1024 1.768727 0.512 3.044073 0.195491 4.096-11.859782 38.679273-28.281018 74.984727-55.109819 105.658182-35.234909 40.271127-80.058182 58.274909-132.719709 57.604654-21.801891-0.279273-43.287273-2.932364-63.878981-10.537891-46.6944-17.240436-74.472727-51.497891-82.143419-100.370618-11.934255-76.073891-0.093091-148.498618 45.903128-211.2512 46.294109-63.134255 111.113309-84.805818 186.423854-70.935273 46.834036 8.620218 76.1856 40.680727 93.277091 84.526546 10.063127 25.814109 14.336 52.745309 13.833309 81.314909" p-id="13345"></path><path d="M230.372073 369.189236l-15.434473 118.690909c3.947055 0.186182 6.935273 0.465455 9.923491 0.446837 20.749964-0.130327 41.546473 0.474764 62.203345-0.958837 6.562909-0.456145 13.768145-5.268945 18.925382-10.0352 21.038545-19.437382 28.020364-62.901527 15.099346-88.576-5.306182-10.5472-13.330618-18.720582-25.060073-19.288436-21.578473-1.014691-43.2128-0.279273-65.657018-0.279273m-23.673018 181.806546l-9.197382 70.879418h29.789091l-13.125819 100.780218H65.163636l13.069964-100.780218c10.286545 0 19.456 0.372364 28.550982-0.251345 2.299345-0.148945 6.069527-3.183709 6.339491-5.278255 10.742691-80.467782 21.150255-160.982109 31.576436-241.487127 0.186182-1.517382 0.027927-3.072 0.027927-5.892655H111.243636l4.775564-37.469091c3.453673-0.158255 6.432582-0.4096 9.430109-0.4096 68.170473-0.018618 136.331636 0.111709 204.4928-0.074472 29.3888-0.093091 52.037818 11.282618 66.634473 37.6832 2.308655 4.189091 2.681018 7.121455-0.726109 11.347781-34.536727 42.868364-49.794327 93.435345-56.655128 147.241891-0.037236 0.3072-0.037236 0.623709-0.065163 0.930909-1.796655 20.135564-3.537455 22.258036-24.157091 22.555928-32.395636 0.465455-64.800582 0.186182-97.196218 0.223418h-11.077818M1214.166109 737.503418c0.726109 3.183709 0.446836 6.851491 2.085236 8.368873 57.474327 52.642909 135.251782 69.818182 204.585891 36.342691 24.026764-11.599127 44.460218-28.132073 61.886837-48.463127l7.763782-9.029819 9.690763 13.023419c-24.855273 29.677382-55.510109 55.370473-91.908654 73.374254-90.484364 44.767418-181.210764 43.920291-271.657891-0.297891-5.818182-2.839273-10.007273-2.8672-15.881309-0.121018-103.144727 48.2304-203.999418 46.973673-300.497455-17.259055-19.400145-12.9024-35.337309-31.138909-52.763927-47.029527-2.141091-1.954909-3.658473-4.608-6.423273-8.164073 23.021382-1.210182 44.553309-2.383127 66.094546-3.444363 26.568145-1.321891 53.126982-2.345891 79.676509-3.909818 6.907345-0.4096 11.701527 1.321891 16.700509 6.618763 38.781673 41.127564 85.625018 64.065164 142.736291 61.561018 45.530764-1.992145 84.694109-20.424145 117.713454-51.442036 9.644218-9.057745 19.465309-10.966109 30.198691-10.128291M1502.999273 308.708073l-11.729455 10.919563c-12.753455-11.990109-24.827345-25.1904-38.688582-36.0448-61.886836-48.491055-145.044945-49.580218-211.530472-3.369891-8.545745 5.9392-16.616727 12.585891-24.538764 19.344291-1.861818 1.582545-2.271418 4.933818-3.705018 8.331637-10.221382 1.796655-19.390836-1.089164-28.718546-9.849018-30.980655-29.118836-67.770182-47.197091-110.219636-50.939346-47.709091-4.189091-90.456436 9.774545-127.757964 40.066327-9.029818 7.316945-16.868073 16.086109-25.627927 23.766109-2.448291 2.1504-6.237091 4.114618-9.309091 3.965673-49.421964-2.234182-98.834618-4.8128-149.317818-7.363491 1.563927-2.345891 2.606545-4.375273 4.058764-6.050909 64.269964-73.253236 145.175273-104.987927 241.263709-98.145745 41.006545 2.932364 79.695127 14.587345 116.5312 33.019345 3.165091 1.582545 8.685382 0.521309 12.250763-1.154327 110.582691-52.037818 216.212945-44.385745 315.876073 27.601454 18.189964 13.144436 33.698909 30.068364 51.162764 45.893819" p-id="13346"></path></svg>