<svg xmlns="http://www.w3.org/2000/svg" viewBox="0 0 243.73 290.88"><defs><style>.cls-1{fill:#588929;}.cls-2{fill:#88b559;}.cls-3{fill:#6e933e;}.cls-4{fill:#47681f;}.cls-5{fill:#2d2723;}.cls-6{fill:#f9dab4;}.cls-7{fill:#c65044;}.cls-8{fill:#efc4a0;}.cls-9{fill:#3a332d;}.cls-10{fill:#e8dfd9;}</style></defs><title>资源 179</title><g id="图层_2" data-name="图层 2"><g id="Layer_1" data-name="Layer 1"><path class="cls-1" d="M63.69,203.65s-8.51,1.69-11.92,17.71-27.95,53.88-30.57,66c-.25,1.16-.48,2.33-.68,3.49H66.91C77,261.07,89.26,207.79,63.69,203.65Z"/><path class="cls-1" d="M175,287.39c-2.62-12.15-27.15-50-30.56-66s-11.93-17.71-11.93-17.71c-25.56,4.14-13.3,57.42-3.22,87.23h46.39C175.49,289.72,175.26,288.55,175,287.39Z"/><path class="cls-2" d="M98.48,197.09c-32.13,0-34.65,6.7-34.65,6.7a143.33,143.33,0,0,1-5.74,31.66c-5.48,18.82-8.16,38.93-9.45,55.43h99.68c-1.29-16.5-4-36.61-9.45-55.43a142.89,142.89,0,0,1-5.73-31.66S130.61,197.09,98.48,197.09Z"/><path class="cls-3" d="M123.26,186.23,98.48,191.9,73.7,186.23s-5.82,13.12-2.62,16.56,8.19,4.79,26.59,5.13v0l.81,0,.81,0v0c18.4-.34,23.49-1.79,26.59-5.13S123.26,186.23,123.26,186.23Z"/><rect class="cls-1" x="96.23" y="190.57" width="4.49" height="100.32"/><path class="cls-4" d="M100.72,191.39l-2.24.51-2.25-.51v16.5c.49,0,.94,0,1.44,0v0l.81,0,.81,0v0c.5,0,.95,0,1.43,0Z"/><path class="cls-5" d="M175,31.38V20.56S176.65-1.87,198.08.13,219.52,23.26,221,31.38,224,56.46,232,55s9.48-11.46,9.48-11.46,2,12.46-3,16l5-3.49S246.94,74.9,229,77.4,188.45,62.78,185.12,34Z"/><polygon class="cls-5" points="136.76 51.97 174.98 20.56 187.12 33.53 157.7 71.42 136.76 51.97"/><path class="cls-2" d="M174.45,37.57c-2.75-3.28-5.09-6.89-8.31-9.74l-3,2.43c4.47,5.53,9.2,10.85,13.91,16.19L179.76,43A61.77,61.77,0,0,1,174.45,37.57Z"/><path class="cls-2" d="M158.9,33.78l-5.33,4.38c5.67,5.56,11.59,10.88,17,16.62l3.12-4A211.78,211.78,0,0,1,158.9,33.78Z"/><path class="cls-2" d="M149.42,41.57,136.76,52,157.7,71.42,166.54,60C160.84,53.87,154.7,48.12,149.42,41.57Z"/><path class="cls-2" d="M184,37.55l3.12-4L175,20.56l-4.24,3.5A136,136,0,0,0,184,37.55Z"/><path class="cls-6" d="M28.68,115.79s1.62,80.3,68.73,80.74h2.14c67.11-.44,68.73-80.74,68.73-80.74Z"/><path class="cls-7" d="M81.86,175.54s4.08-6.34,8.8-6.06,7.28,5,7.28,5,4.24-4.87,9.21-4.77,7.12,6.35,7.12,6.35-4.93,11.9-16.69,11.9S81.86,175.54,81.86,175.54Z"/><path class="cls-8" d="M89.94,159.25s.81-7.5,7.81-7.53,8.44,7.53,8.44,7.53-3.83-4.63-8.31-4.63S89.94,159.25,89.94,159.25Z"/><path class="cls-9" d="M132.91,152.38a1.48,1.48,0,0,1-.14-2.95c.1,0,10.22-1,14.17-3.41a1.5,1.5,0,0,1,2,.5,1.48,1.48,0,0,1-.5,2c-4.53,2.74-15,3.78-15.42,3.83Z"/><path class="cls-9" d="M134.49,149.15h-.22a1.48,1.48,0,0,1,0-3h.19c7.45,0,11.88-6.08,11.92-6.14a1.48,1.48,0,0,1,2.41,1.71C148.59,142.06,143.5,149.15,134.49,149.15Z"/><path class="cls-9" d="M125.9,146.81a7.28,7.28,0,1,0,5.35-8.79A7.28,7.28,0,0,0,125.9,146.81Z"/><path class="cls-10" d="M129.7,141c0,1.06,1.56,1.86,3.39,1.79s3.28-1,3.24-2-1.56-1.86-3.39-1.8S129.66,139.91,129.7,141Z"/><path class="cls-9" d="M63.21,152.38a1.48,1.48,0,0,0,.14-2.95c-.09,0-10.21-1-14.16-3.41a1.5,1.5,0,0,0-2,.5,1.48,1.48,0,0,0,.5,2c4.53,2.74,15,3.78,15.42,3.83Z"/><path class="cls-9" d="M61.63,149.15h.22a1.48,1.48,0,0,0,0-3h-.19c-7.45,0-11.87-6.08-11.91-6.14a1.48,1.48,0,0,0-2.42,1.71C47.53,142.06,52.63,149.15,61.63,149.15Z"/><path class="cls-9" d="M70.22,146.81A7.27,7.27,0,1,1,64.88,138,7.27,7.27,0,0,1,70.22,146.81Z"/><path class="cls-10" d="M66.43,141c0,1.06-1.56,1.86-3.4,1.79s-3.28-1-3.23-2,1.56-1.86,3.39-1.8S66.47,139.91,66.43,141Z"/><path class="cls-5" d="M25.9,142.21s60.32-2.49,83.25-21.44l-10,13.46s33.91,7.48,50.86-18.44c0,0,1,18.44,17,21.93s20.94-102.2-61.82-106.19S11.44,104.32,25.9,142.21Z"/><path class="cls-2" d="M49.06,156.16s-8.23-49.72-30.66-43.74S-1,143.83,2.32,152.43s13.46,22.81,29.17,24.68S53.36,173.16,49.06,156.16Z"/><path class="cls-1" d="M49.06,156.16s-8.23-49.72-30.66-43.74a29,29,0,0,0-4.19,1.48c14.27,4,20.84,21.42,24,35.18,2.53,10.94,2.49,20.2-1,28.34C48.64,177.21,52.79,170.89,49.06,156.16Z"/><path class="cls-2" d="M147.9,156.16s8.23-49.72,30.66-43.74,19.44,31.41,16.08,40-13.46,22.81-29.17,24.68S143.61,173.16,147.9,156.16Z"/><path class="cls-1" d="M147.9,156.16s8.23-49.72,30.66-43.74a29,29,0,0,1,4.19,1.48c-14.27,4-20.84,21.42-24,35.18-2.53,10.94-2.49,20.2,1,28.34C148.33,177.21,144.18,170.89,147.9,156.16Z"/></g></g></svg>