<svg xmlns="http://www.w3.org/2000/svg" viewBox="0 0 168.15 266.16"><defs><style>.cls-1{fill:#f4efed;}.cls-2{fill:#3a332d;}.cls-3{fill:#e2dcd9;}.cls-4{fill:#d19865;}.cls-5{fill:#bf8556;}.cls-6{fill:#dda97f;}.cls-7{fill:#f4d3b0;}.cls-8{fill:#f9dab4;}.cls-9{fill:#492020;}.cls-10{fill:#c65044;}.cls-11{fill:#efc4a0;}.cls-12{fill:#e8dfd9;}.cls-13{fill:#d88121;}.cls-14{fill:#ea9628;}</style></defs><title>资源 61</title><g id="图层_2" data-name="图层 2"><g id="Layer_1" data-name="Layer 1"><rect class="cls-1" x="59.07" y="163.3" width="49.83" height="57.99"/><rect class="cls-2" x="78.7" y="169.62" width="9.84" height="11.51" rx="2.22"/><polygon class="cls-2" points="80.64 180.02 64.25 245.66 85.02 262.56 104.92 245.12 86.37 180.02 80.64 180.02"/><polygon class="cls-3" points="57.18 166.89 57.18 190.72 83.93 175.38 108.49 190.72 109.53 166.78 57.18 166.89"/><path class="cls-4" d="M118.36,163.3l-2.26,0-3.53,4-.76-2.59L106.33,170,83.67,220.16,61,170l-9.39-6.67-2.26,0S18.19,179.36,8.83,260.49a29,29,0,0,0-.31,5.67H159.21a29.85,29.85,0,0,0-.31-5.67C149.54,179.36,118.36,163.3,118.36,163.3Z"/><polygon class="cls-5" points="131.83 218.95 135.13 266.15 140.45 266.15 131.83 218.95"/><polygon class="cls-5" points="38.1 266.15 41.16 218.95 32.54 266.15 38.1 266.15"/><polygon class="cls-6" points="61.02 170.02 51.21 187.02 65.27 194.93 62.73 212.9 83.67 220.16 61.02 170.02"/><polygon class="cls-6" points="106.33 170.02 116.14 187.02 102.08 194.93 104.61 212.9 83.67 220.16 106.33 170.02"/><circle class="cls-5" cx="78.77" cy="234.5" r="4.58"/><circle class="cls-5" cx="78.77" cy="254.56" r="4.58"/><rect class="cls-5" x="97.67" y="256.05" width="24.57" height="5.72"/><polygon class="cls-5" points="68.42 266.15 68.93 266.15 70.08 223.92 83.67 220.16 68.49 222.23 68.42 266.15"/><path class="cls-7" d="M21.07,114.38S18,98.13,5.58,99.28s-3.45,49,20.65,49.54Z"/><path class="cls-7" d="M143.3,114.38s3.06-16.25,15.49-15.1,3.44,49-20.66,49.54Z"/><path class="cls-8" d="M146.93,72.37H17.27s-3.39,62.84,4.24,79.47,39.3,20,60.6,20,53-3.54,60.58-20S146.93,72.37,146.93,72.37Z"/><path class="cls-9" d="M76.05,155.94s18.56-4.25,29.79-10.88c9.3-5.49,11.24-5.58,12.49.35s1.8,10.61-3.14,11.58C109.47,158.1,89.87,159.78,76.05,155.94Z"/><path class="cls-10" d="M115.19,157a5,5,0,0,0,2.59-1.23c-8.7-7.3-17.48-4.86-22.18-.82a12.18,12.18,0,0,0-2.73,3.31A114.42,114.42,0,0,0,115.19,157Z"/><path class="cls-11" d="M70.72,140.8s1.69-11.91,10.63-11.53,11.07,11,11.07,11-3.88-7.73-11.19-7.64C74.2,132.75,70.72,140.8,70.72,140.8Z"/><circle class="cls-2" cx="46.25" cy="116.77" r="8.19"/><path class="cls-12" d="M43.77,111.39c-.24,1.17,1.21,2.45,3.23,2.86s3.86-.21,4.09-1.38-1.21-2.45-3.23-2.86S44,110.22,43.77,111.39Z"/><path class="cls-13" d="M29,99.43l.76,7s27.86-1.62,32.15-10L58,90.18S48.76,99.72,29,99.43Z"/><circle class="cls-2" cx="120.02" cy="116.77" r="8.19"/><path class="cls-12" d="M117.54,111.39c-.23,1.17,1.21,2.45,3.24,2.86s3.85-.21,4.08-1.38-1.21-2.45-3.23-2.86S117.78,110.22,117.54,111.39Z"/><path class="cls-13" d="M137.25,99.43l-.76,7s-27.85-1.62-32.15-10l3.91-6.2S117.52,99.72,137.25,99.43Z"/><path class="cls-14" d="M4.4,99.55s-3-20.92-2.46-34.7c0,0,4-.19,4.59,2.11,0,0-1.53-33.28,12-40.17,0,0-.19,5,1.53,6.51,0,0,20.5-28.12,50.61-30.6,0,0-3,3.06-3,6.31C67.74,9,99.48-8.4,127,5.18L123.2,7.86s26.78,8,32.52,23l-6.13.77s17.79,12.62,18.56,34.23c0,0-5.17-1.72-6.51-1.53,0,0,9,20,2,40.2a8.94,8.94,0,0,0-7.08-3.59c-4.52-.21-8.93,4.27-8.88,26.32,0,4.42-.28,6.47-3.78,6.31s-4,.36-4.06-8.56c-.07-10.19,1.91-43.47,1.91-43.47s-5.58,8.4-20.55,10.14a11,11,0,0,0,7,2.87S80.38,129.26,24.15,82.22c0,0,1.09,44.93,1.14,47s.26,4.39-3.78,4.37c-4.62,0-4.75-.66-4.82-7.38-.05-4.13.68-13.44-.64-19.38C14.93,101.86,11.06,98.17,4.4,99.55Z"/></g></g></svg>