<?xml version="1.0" standalone="no"?><!DOCTYPE svg PUBLIC "-//W3C//DTD SVG 1.1//EN" "http://www.w3.org/Graphics/SVG/1.1/DTD/svg11.dtd"><svg t="1548133841854" class="icon" style="" viewBox="0 0 1365 1024" version="1.1" xmlns="http://www.w3.org/2000/svg" p-id="23924" xmlns:xlink="http://www.w3.org/1999/xlink" width="266.6015625" height="200"><defs><style type="text/css"></style></defs><path d="M1124.933333 59.6c0-8-1.333333-14.666667-3.066666-20.666667-33.466667-8.8-76.933333 1.333333-113.733334 19.2-7.6 3.6-25.466667 14.533333-51.866666 30.666667-10.933333 6.666667-20.666667 12.533333-24.933334 14.933333-0.4 0.266667-0.666667 0.666667-1.066666 0.933334-72.266667-44-156.8-69.866667-247.466667-69.866667-263.466667 0-477.866667 214.4-477.866667 477.866667 0 88.4 24.533333 170.933333 66.4 241.866666-49.6 76.4-74.133333 131.6-67.733333 168.933334 1.333333 7.6 14.533333 8.933333 21.733333 8.933333 147.6 0 485.2-324 527.2-365.333333 185.466667-182.4 372.533333-405.333333 372.4-507.466667z m-664 558.266667c-47.066667 0-85.333333-38.266667-85.333333-85.333334s38.266667-85.333333 85.333333-85.333333 85.333333 38.266667 85.333334 85.333333-38.266667 85.333333-85.333334 85.333334z m150.133334-238.933334c-56.4 0-102.4-46-102.4-102.4s46-102.4 102.4-102.4 102.4 46 102.4 102.4c0 56.533333-45.866667 102.4-102.4 102.4z m0 0" fill="" p-id="23925"></path><path d="M1089.866667 263.6C1018.266667 369.866667 905.733333 497.6 793.466667 608c-30.533333 30.133333-215.733333 209.6-371.333334 305.2 0.133333-0.133333 0.266667-0.133333 0.4-0.266667 74.933333 48.933333 164.266667 77.6 260.266667 77.6 263.466667 0 477.866667-214.4 477.866667-477.866666 0-91.333333-26.133333-176.4-70.8-249.066667zM816.933333 819.866667c-37.6 0-68.266667-30.666667-68.266666-68.266667 0-37.6 30.666667-68.266667 68.266666-68.266667 37.6 0 68.266667 30.666667 68.266667 68.266667 0 37.6-30.666667 68.266667-68.266667 68.266667z m0 0" fill="" p-id="23926"></path></svg>