<svg xmlns="http://www.w3.org/2000/svg" viewBox="0 0 160.18 259.31"><defs><style>.cls-1{fill:#f9f5ed;}.cls-2{fill:#0b5668;}.cls-3{fill:#126e89;}.cls-4{fill:#e8e3d9;}.cls-5{fill:#efc4a0;}.cls-6{fill:#7f5732;}.cls-7{fill:#f4d3b0;}.cls-8{fill:#f9dab4;}.cls-9{fill:#3a332d;}.cls-10{fill:#e8dfd9;}</style></defs><title>资源 292</title><g id="图层_2" data-name="图层 2"><g id="Layer_1" data-name="Layer 1"><path class="cls-1" d="M28.81,166.41c-7.09,7.76-22.31,31.32-23.08,92.9h148c-1.29-50.37-7.53-92.81-34.91-98.21l-39-3.46S37,157.46,28.81,166.41Z"/><polygon class="cls-2" points="118.86 161.1 112.77 202.29 79.85 202.29 79.84 202.29 46.92 202.29 40.83 161.1 29.16 162.28 35.15 202.94 31.3 259.31 128.4 259.31 124.54 202.94 130.53 162.28 118.86 161.1"/><path class="cls-3" d="M44.77,241.55a34.46,34.46,0,0,0,4.91,17.76h60a34.37,34.37,0,0,0,4.91-17.76v-13H44.77Z"/><path class="cls-4" d="M79.43,187.09a32.32,32.32,0,0,1-32.28-32.28V138.67h65.08v16.14A32.32,32.32,0,0,1,80,187.09Z"/><path class="cls-5" d="M80,180.67h-.52a25.86,25.86,0,0,1-25.86-25.86v-9.72h52.24v9.72A25.86,25.86,0,0,1,80,180.67Z"/><path class="cls-6" d="M156.74,49.54A45.53,45.53,0,0,0,123.68,5.77,159.32,159.32,0,0,0,79.86,0,157.86,157.86,0,0,0,36.43,5.7a45.48,45.48,0,0,0-33,43.74v49.1h153.3Z"/><path class="cls-7" d="M20.87,93.62s-4-8.05-11.71-7.67c-11.7.57-16.31,38.37,11.71,46.05Z"/><path class="cls-7" d="M139.31,93.62s4-8.05,11.71-7.67c11.7.57,16.31,38.37-11.71,46.05Z"/><path class="cls-8" d="M143.51,128.37A34,34,0,0,1,119.17,161a139.66,139.66,0,0,1-39.32,5.4,139.85,139.85,0,0,1-39-5.31,34.1,34.1,0,0,1-24.64-32.73V72.31a10.48,10.48,0,0,1,11.74-10.4l51.92,6.27,51.92-6.27a10.49,10.49,0,0,1,11.74,10.4Z"/><path class="cls-5" d="M77.21,141.87c-17.54,0-27.22-2.57-27.82-2.74a1.28,1.28,0,1,1,.68-2.47c.26.07,22.18,5.84,59.8,0a1.28,1.28,0,1,1,.39,2.53A214.13,214.13,0,0,1,77.21,141.87Z"/><path class="cls-5" d="M79.83,117.56C74,117.42,69.05,123,69.05,123s6.38-2.63,10.78-2.69S90.6,123,90.6,123,85.7,117.71,79.83,117.56Z"/><circle class="cls-9" cx="45.41" cy="105.6" r="7.34"/><path class="cls-10" d="M46.63,100.49c.17.88-.92,1.85-2.45,2.16s-2.92-.16-3.1-1.05.92-1.85,2.45-2.16S46.45,99.6,46.63,100.49Z"/><rect class="cls-6" x="30.44" y="86.98" width="23.84" height="6.05" rx="2.57"/><circle class="cls-9" cx="115.39" cy="105.6" r="7.34"/><path class="cls-10" d="M114.17,100.49c-.17.88.92,1.85,2.45,2.16s2.92-.16,3.1-1.05-.92-1.85-2.45-2.16S114.35,99.6,114.17,100.49Z"/><rect class="cls-6" x="106.52" y="86.98" width="23.84" height="6.05" rx="2.57"/></g></g></svg>