<?xml version="1.0" standalone="no"?><!DOCTYPE svg PUBLIC "-//W3C//DTD SVG 1.1//EN" "http://www.w3.org/Graphics/SVG/1.1/DTD/svg11.dtd"><svg t="1548743854948" class="icon" style="" viewBox="0 0 1024 1024" version="1.1" xmlns="http://www.w3.org/2000/svg" p-id="6737" xmlns:xlink="http://www.w3.org/1999/xlink" width="200" height="200"><defs><style type="text/css"></style></defs><path d="M293.64 501.411c5.406 1.363 12.514 3.122 16.676-0.205 4.527-5.217 26.786-59.024 27.401-71.744-1.172-1.157-2.358-2.314-3.546-3.487l-7.576 0.22c-4.645 3.268-7.487 5.407-10.638 10.067-1.07 9.056-25.63 56.152-24.794 62.497 0.483 0.953 1.992 1.7 2.477 2.652z m484.388-5.451c-26.054 13.613-59.947 40.503-71.979 66.851-6.96 15.239-12.602 35.52 2.667 45.953 34.48 23.549 107.221-27.842 113.126-51.492 5.393-21.6-28.046-60.872-43.814-61.312z m-662.606-62.966c6.36-12.266 23.241-15.929 37.572-8.133 14.331 7.796 20.837 24.135 14.478 36.399-6.375 12.265-23.241 15.914-37.572 8.133s-20.837-24.134-14.478-36.399z m25.673 122.328c-6.609 11.737-10.844 22.229-20.544 30.816-10.375 9.202-24.911 20.632-44.254 21.424-1.187-1.407-2.374-2.799-3.575-4.221 1.113-9.759 11.605-25.966 16.998-34.289 18.375-28.369 41.426-57.633 55.508-89.387 16.441-0.851 49.397-11.694 17.702-57.34 7.971-19.65 19.343-38.217 27.299-57.867 3.063-4.748 1.979-4.543 8.235-6.506 12.104-0.675 32.663-3.4 40.049 1.025-15.196 48.239-24.398 39.14-20.75 59.465 0.117 0.674 0.762-1.29 0.938-0.616 2.359 9.291 19.841 16.441 11.488 27.549-7.356 9.76-27.343 6.066-34.348 16.485-6.14 10.478-15.767 28.354-21.907 38.847-1.7 5.305-4.968 8.675-7.752 13.599-7.84 13.174-17.393 27.359-25.087 41.016z m203.539 44.84c4.073-5.231 4.602-4.234 2.975-10.272-10.067-12.719-35.33-19.504-20.412-35.49 33.293-13.804 59.479 43.447 34.479 66.439-45.66 39.945-77.942-22.2-101.975-43.785-15.693 0.498-18.463 11.488-27.08 18.771-14.214 12.002-30.479 16.017-53.896 19.681-9.085 1.436-16.236-0.088-22.186-3.664a205.193 205.193 0 0 1-0.117-4.322c3.576-8.03 16.939-8.925 23.68-13.906 14.888-10.961 43.639-40.327 55.215-60.959 2.52-3.781 4.059-9.291 3.092-10.932-14.815-3.664-49.94 6.652-61.296-0.938-0.865-2.638-0.674-5.04 0.439-8 1.114-2.521 2.755-7.269 4.953-8.764 14.771-10.008 48.621 3.342 65.97-1.963 6.917-6.258 34.583-55.801 37.821-77.078-1.188-4.162-8.411-1.524-18.654-1.964-10.434 0.41-31.417 4.953-36.634-5.554-0.264-1.187-0.586-2.652 0.469-5.993 18.977-24.867 33.176-1.993 57.12-11.518 15.283-6.066 14.946-31.183 31.3-41.177 10.727-0.879 19.489-0.776 22.947 6.521 3.928 13.745-8.514 24.442-6.594 36.15 15.049 9.203 47.448-5.407 59.552 6.917 3.679 32.326-41.587 62.658-38.861 91.761 3.84 2.535 14.361 1.598 16.559 6.008 9.979 36.15-77.43 9.188-82.808 25.204-7.369 24.119 31.082 69.486 53.942 68.827z m271.121 28.912c-32.956 13.173-64.183-39.287-24.853-61.839 37.484-2.52 57.882 48.621 24.853 61.839zM489.938 518.557c33.616 17.115 33.088-33.836 48.27-52.812 9.729-4.807 38.656-5.656 48.547 3.077-3.81 11.239-16.222 32.325-17.394 45.558 11.225 7.342 62.732-2.74 75.642 5.422 4.221 5.173 4.602 14.844 2.374 26.553-20.925 8.367-66.557-9.833-86.427 3.268-11.313 7.444-13.569 27.417-20.207 39.608-16.866 31.036-48.519 71.305-96.992 42.1-6.639-10.477 15.444-6.33 23.46-12.118 7.913-5.7 12.119-23.769 9.364-35.521-1.173-0.688-2.345-1.362-3.503-2.066-32.047-8.06-48.459 52.914-88.273 27.036 1.129-10.037 13.95-13.95 20.179-19.299 14.126-12.162 25.014-41.426 58.424-32.648 10.858 1.876 19.27 8.265 24.691 12.852 5.935-2.755 3.663-4.353 6.447-10.141 0.645-2.843 2.521-9.144 1.539-11.752-16.955-5.554-62.527 3.473-72.492-8.484 1.246-16.324 46.672-79.012 57.384-95.189 4.938-7.444 21.219-21.395 17.672-35.037-4.234-16.266-41.498-37.601-59.127-41.44-13.027-2.843-63.523 11.313-66.073 2.506 10.009-11.356 34.319-23.725 52.284-27.285 33.791-1.758 53.266 11.547 74.484 23.739 28.179 16.163 58.922 32.149 94.911 38.231 37.689 10.477 59.348-31.447 86.397-42.862 2.491 26.113-60.05 90.926-89.563 77.488-12.367-1.406-43.286-10.053-51.933-6.403-13.628 5.759-21.95 31.754-29.834 44.034-6.667 10.342-23.416 25.436-20.251 41.585z m362.824-50.116c-3.81 3.077-15.869 9.319-21.951 4.952-5.158-3.429-6.652-8.045-15.342-6.037 0.015 0.968 0.044 1.92 0.073 2.887 26.42 25.938 52.299 39.169 61.047 85.445 4.616 24.501-12.412 39.403-22.054 50.994-35.271 42.379-131.78 61.868-182.247 22.567-53.383-41.587 18.493-107.924 44.767-127.369 7.898-5.848 28.531-15.182 31.037-25.366 3.209-13.026-31.608-34.26-37.807-44.209-28.912-46.54 0.688-76.771 36.048-93.739 10.492-3.415 20.822-7.02 31.725-8.514 13.892-1.891 27.871-2.989 41.836-1.539 20.486 2.125 36.18 15.255 50.409 25.863 7.897 5.906 20.734 21.834 11.313 34.803-5.773 7.957-20.633 5.305-28.252 1.539-18.2-8.969-30.964-29.557-61.224-17.629-25.98 10.243-41.484 30.816-21.13 58.878 5.202 5.129 10.404 10.243 15.605 15.372 4.426 5.656 5.085 17.232 11.621 20.515 4.088 2.169 8.382 0.41 12.382-1.069 1.437-7.635 1.157-12.954 7.151-16.031 8.543-4.997 14.902 3.737 24.178 0.732 12.339-4 10.609-20.998 18.508-29.307 10.697-0.19 17.569 7.356 26.992 2.799 9.041-4.367 6.784-17.673 20.954-15.709 0.689 0.469 1.393 0.924 2.096 1.378 0.044 1.201 0.073 2.403 0.117 3.59-1.303 3.912-51.316 48.9-57.852 54.204z m80.155-76.433c0-0.234-0.029-0.469-0.029-0.718 0.205-0.719 0.425-1.451 0.645-2.184 2.403-5.715 6.99-6.037 12.163-8.968 3.106 0.059 3.736 0.381 5.554 1.26 0.015 0.234 0.015 0.483 0.029 0.718-3.826 5.202-9.716 13.936-18.362 9.892z" fill="" p-id="6738"></path></svg>