<svg xmlns="http://www.w3.org/2000/svg" viewBox="0 0 175.38 260.01"><defs><style>.cls-1{fill:#f9f5ed;}.cls-2{fill:#423429;}.cls-3{fill:#382b23;}.cls-4{fill:#515151;}.cls-5{fill:#393c3d;}.cls-6{fill:#f9dab4;}.cls-7{fill:#f4e7d7;}.cls-8{fill:#efc4a0;}.cls-9{fill:#f4d3b0;}.cls-10{fill:#3a332d;}.cls-11{fill:#e8dfd9;}.cls-12{fill:#492020;}.cls-13{fill:#c65044;}</style></defs><title>资源 308</title><g id="图层_2" data-name="图层 2"><g id="Layer_1" data-name="Layer 1"><rect class="cls-1" x="66.19" y="156.28" width="58.32" height="53.54"/><polygon class="cls-2" points="93.37 170.5 82.08 217.16 96.4 235.52 109.88 218.68 98.42 170.5 93.37 170.5"/><rect class="cls-3" x="90.68" y="164.53" width="10.61" height="8.5" rx="2.95"/><path class="cls-4" d="M173.86,260c-13.3-64.38-40.25-105.85-40.25-105.85h-8.15c-6.76,18.5-15.87,34.78-29.48,46.78-13.61-12-22.72-28.28-29.49-46.78H58.35S29.3,181,23.93,218l25,7.56S46.8,242.63,45,260Z"/><path class="cls-5" d="M93.71,260H96V200.94C93.29,220.13,93.13,242.09,93.71,260Z"/><path class="cls-5" d="M69.38,161.54C65.13,166.73,58,177.1,64,181.62c3.43,2.59,11.51,4.69,11.51,4.69s-6.08,3.45-4,7.75c3.12,6.62,24.55,6.88,24.55,6.88C84.21,190.56,75.81,177,69.38,161.54Z"/><path class="cls-5" d="M122.56,161.54c4.25,5.19,11.43,15.56,5.42,20.08-3.43,2.59-11.51,4.69-11.51,4.69s6.08,3.45,4,7.75c-3.12,6.62-24.55,6.88-24.55,6.88C107.73,190.56,116.13,177,122.56,161.54Z"/><path class="cls-5" d="M138,197.69c3.5,17.29,6.91,45,8.87,62.32h4.53C147.26,233.12,138,197.69,138,197.69Z"/><path class="cls-5" d="M48.94,225.52s1.61-22.11,3.79-34c0,0-6.8,16.32-8.11,32.64Z"/><path class="cls-6" d="M33.9,192.61c-7.36.61-25.64,1.66-30.49,7.07s-4.72,29.8,1.66,35.2,14.28,0,14.28,0a34.14,34.14,0,0,0,10.11.42S18.17,242.89,28,248.87c7.84,4.8,11-4.3,17.53-4.72s26.12,4.42,20.72-18.71c0,0,11.36-8.91-3.05-21.05S46.75,191.55,33.9,192.61Z"/><path class="cls-7" d="M55.94,210.57c-4.14,0-10.16.34-10.16,5.11,0,1.49,6,.85,10.44.62s8.85,1.82,8.85-.79C65.07,211.25,60.08,210.57,55.94,210.57Z"/><path class="cls-8" d="M29.46,235.3a22.82,22.82,0,0,1-2.74.22c4-2,8.72-5.82,6.58-13.94-2.27-8.62-.91-12.26-.91-12.26s.42,3.94,1.25,7.78c1,4.39,3.12,8.3,3.65,11.06l7-2.18a10,10,0,0,1-3.59-2.11c-3.76-3.47-7.34-10.26,7.12-15.57,0,0-9.58,5-7.94,10.56s8.38,5.59,12.35,5.36a145.4,145.4,0,0,1,15.2,0,10.63,10.63,0,0,1-1.23,1.22S45.69,223.93,29.46,235.3Z"/><path class="cls-8" d="M17.47,233.46c-4.9-17.84-1.53-22-1.53-22-1,5.75,1.15,16.88,2.41,21.59a3,3,0,0,0,1,1.84s-.36.24-1,.57A8.49,8.49,0,0,1,17.47,233.46Z"/><path class="cls-4" d="M22.32,104.36s-5.55-29,0-45.12c0,0-32-11.92-17.08-37.18C17.81.83,69.1,0,90.18,0s86.16,1.73,85.19,39.45c-.48,18.7-5.31,25.34-5.31,25.34s5.31,20.34-3,39.57Z"/><path class="cls-5" d="M158.45,70.23c.37,0,7.45-.18,12.19-2.63-.14-.8-.27-1.44-.37-1.91-4.25,2.48-11.77,2.67-11.86,2.67Z"/><path class="cls-5" d="M157.31,76.69a58.3,58.3,0,0,0,14.19-2.34q-.08-1-.18-1.92a56.94,56.94,0,0,1-14.07,2.39Z"/><path class="cls-5" d="M156.58,83a104.16,104.16,0,0,0,15.15-1.63c0-.65,0-1.29,0-1.91a103.68,103.68,0,0,1-15.21,1.67Z"/><path class="cls-5" d="M155.89,86.86l-.09,1.87c.2,0,1.85.07,4.15.07A69.25,69.25,0,0,0,171.31,88c.07-.65.14-1.29.19-1.93C165.64,87.27,156,86.86,155.89,86.86Z"/><path class="cls-5" d="M155.91,92.47l-.13,1.87c.67,0,3.45.22,6.8.22a62.42,62.42,0,0,0,7.74-.42c.14-.65.27-1.3.38-1.94A81.57,81.57,0,0,1,155.91,92.47Z"/><path class="cls-5" d="M34.2,68.36c-.09,0-8.64-.31-13.3-3.6-.12.67-.23,1.34-.33,2,5.19,3.14,13.2,3.43,13.57,3.44Z"/><path class="cls-5" d="M35.35,74.82c-.11,0-8.9-.31-15.31-2.84,0,.65-.08,1.31-.11,2,6.62,2.45,14.92,2.74,15.36,2.75Z"/><path class="cls-5" d="M36.08,81.09c-.12,0-10.13-.34-16.22-1.91,0,.64,0,1.29,0,1.93C26.22,82.63,35.53,82.94,36,83Z"/><path class="cls-5" d="M36.8,88.73l-.09-1.87c-.12,0-10.92.46-16.61-1,0,.66.09,1.31.13,2a63.56,63.56,0,0,0,12.42,1C35,88.8,36.6,88.73,36.8,88.73Z"/><path class="cls-5" d="M36.82,94.34l-.13-1.87c-3.38.24-11.43.47-16.09-.5.07.67.14,1.31.21,1.94a54.14,54.14,0,0,0,9.21.65C33.36,94.56,36.15,94.38,36.82,94.34Z"/><path class="cls-5" d="M37.52,64.6V62.73h0a35.51,35.51,0,0,1-15.21-3.31c-.2.59-.39,1.2-.56,1.82A37.32,37.32,0,0,0,37.47,64.6Z"/><path class="cls-9" d="M35.65,103s-6.41-9.29-15.17-4.58c-8,4.28-2.88,37,15.17,42.26Z"/><path class="cls-9" d="M156.55,103s6.41-9.29,15.17-4.58c8,4.28,2.88,37-15.17,42.26Z"/><path class="cls-6" d="M159.86,148.06s-14,18.71-63.88,18.71-63.89-18.71-63.89-18.71v-79A10.9,10.9,0,0,1,43,58.15H149a10.9,10.9,0,0,1,10.89,10.9Z"/><circle class="cls-10" cx="58.76" cy="106.79" r="7.13"/><path class="cls-11" d="M60,101.83c.17.86-.9,1.8-2.38,2.1s-2.84-.15-3-1,.89-1.8,2.38-2.1S59.77,101,60,101.83Z"/><polygon class="cls-4" points="42.95 80.39 43.48 88.81 68.49 95.33 68.49 87.44 42.95 80.39"/><circle class="cls-10" cx="134.07" cy="106.79" r="7.13"/><path class="cls-11" d="M135.25,101.83c.18.86-.89,1.8-2.38,2.1s-2.83-.15-3-1,.9-1.8,2.38-2.1S135.08,101,135.25,101.83Z"/><polygon class="cls-4" points="149.88 80.39 149.35 88.81 124.35 95.33 124.35 87.44 149.88 80.39"/><path class="cls-12" d="M76.69,143.52s7.64,0,19.33-3.28,21-8.31,23.68-6,4,9.5,2.13,12.36c-2,3-10.24,8.31-19.51,10.44s-18.94,2.89-20.48,1.35S76.69,143.52,76.69,143.52Z"/><path class="cls-13" d="M85.88,159.21a78.28,78.28,0,0,0,16.44-2.16A45.34,45.34,0,0,0,119,149.41a21.05,21.05,0,0,0-13.92-5C95,144.39,86.76,150.9,85.88,159.21Z"/><path class="cls-8" d="M96,118.88c6.22,0,10,5.4,10,5.4a21.32,21.32,0,0,0-9.67-2.7,21.27,21.27,0,0,0-9.67,2.7S89.75,118.88,96,118.88Z"/></g></g></svg>