<svg xmlns="http://www.w3.org/2000/svg" viewBox="0 0 14 11.37"><defs><style>.cls-1{fill:#e5b77c;}</style></defs><title>gonggao</title><g id="图层_2" data-name="图层 2"><g id="图层_1-2" data-name="图层 1"><path class="cls-1" d="M13.45,5H10.74a.56.56,0,0,0-.39.17.57.57,0,0,0-.16.39v.18a.56.56,0,0,0,.56.55h2.7A.55.55,0,0,0,14,5.77V5.59a.57.57,0,0,0-.16-.39A.56.56,0,0,0,13.45,5ZM7.18.26c-.84.66-2.6,1.6-3.86,2.5h0s0,.06,0,.07-.21.31-1,.31H.66A.58.58,0,0,0,0,3.77V7.58a.58.58,0,0,0,.66.64H2.25a1.21,1.21,0,0,1,1,.32s0,.06,0,.07h0c1.22.9,3,1.91,3.86,2.55.26.19,1.13.53,1.13-.66V.87C8.31-.33,7.43.05,7.18.26ZM9.67,2.89a.42.42,0,0,0,.64.14l2.22-1.87a.63.63,0,0,0,.11-.78L12.56.24A.4.4,0,0,0,11.93.1L9.71,2a.63.63,0,0,0-.12.77l.08.15Zm.64,5.45a.41.41,0,0,0-.64.14l-.08.14a.63.63,0,0,0,.12.77l2.22,1.88a.41.41,0,0,0,.63-.14l.08-.15a.63.63,0,0,0-.11-.77L10.31,8.34Z"/></g></g></svg>