<svg xmlns="http://www.w3.org/2000/svg" xmlns:xlink="http://www.w3.org/1999/xlink" viewBox="0 0 30 30"><defs><style>.cls-1{fill:#f9db8f;}.cls-2{fill:url(#未命名的渐变_13);}</style><linearGradient id="未命名的渐变_13" x1="15" y1="6.74" x2="15" y2="23.26" gradientUnits="userSpaceOnUse"><stop offset="0" stop-color="#e26510"/><stop offset="1" stop-color="#d1470b"/></linearGradient></defs><title>head-kefu-hover</title><g id="图层_2" data-name="图层 2"><g id="图层_1-2" data-name="图层 1"><circle class="cls-1" cx="15" cy="15" r="15"/><path class="cls-2" d="M20.48,12.92a6,6,0,0,0-11.19,0,.93.93,0,0,0-.14-.14,5.81,5.81,0,0,1,11.46,0A2.39,2.39,0,0,0,20.48,12.92Zm1.19-.75h0a6.92,6.92,0,0,0-13.57.26A1.32,1.32,0,0,0,7,13.72v2.57a1.29,1.29,0,0,0,2.29.83,6,6,0,0,0,3.21,3.37l.06-.1s0-.06.08-.06l.06,0A5.83,5.83,0,0,1,10.86,17,1.57,1.57,0,0,1,12,15.25l3.37-.65a2,2,0,0,0,1.5-1.17,3,3,0,0,0,.21-.91.14.14,0,0,1,.14-.12.17.17,0,0,1,.11.06l0,0A8,8,0,0,1,18.85,16c.14,1.72.06,2.89-1.25,4.09h0a.15.15,0,0,0,0,.07.11.11,0,0,0,.05.09h.09l.05,0a6,6,0,0,0,2.82-3.42,1.34,1.34,0,0,0,.83.56c-.55,2.52-2.81,4.11-5.6,4.35a1.14,1.14,0,1,0-1.07,1.52,1.15,1.15,0,0,0,1.09-.78c3.23-.26,5.82-2.18,6.37-5.17A1.31,1.31,0,0,0,23,16.09v-2.6a1.32,1.32,0,0,0-1.33-1.32Z"/></g></g></svg>