<svg xmlns="http://www.w3.org/2000/svg" xmlns:xlink="http://www.w3.org/1999/xlink" viewBox="0 0 16 16.52"><defs><style>.cls-1{fill:url(#未命名的渐变_13);}</style><linearGradient id="未命名的渐变_13" x1="8" x2="8" y2="16.52" gradientUnits="userSpaceOnUse"><stop offset="0" stop-color="#e26510"/><stop offset="1" stop-color="#d1470b"/></linearGradient></defs><title>head-kefu</title><g id="图层_2" data-name="图层 2"><g id="图层_1-2" data-name="图层 1"><path class="cls-1" d="M13.48,6.18a6,6,0,0,0-11.19,0A.93.93,0,0,0,2.15,6,5.81,5.81,0,0,1,13.61,6,2.39,2.39,0,0,0,13.48,6.18Zm1.19-.75h0a6.92,6.92,0,0,0-13.57.26A1.32,1.32,0,0,0,0,7V9.55a1.29,1.29,0,0,0,2.29.83A6,6,0,0,0,5.5,13.75l.06-.1s.05-.06.08-.06l.06,0a5.83,5.83,0,0,1-1.84-3.38A1.57,1.57,0,0,1,5,8.51l3.37-.65a2,2,0,0,0,1.5-1.17,3,3,0,0,0,.21-.91.14.14,0,0,1,.14-.12.17.17,0,0,1,.11.06l0,0a8,8,0,0,1,1.45,3.57c.14,1.72.06,2.89-1.25,4.09h0a.15.15,0,0,0,0,.07.11.11,0,0,0,0,.09h.09l.05,0a6,6,0,0,0,2.82-3.42,1.3,1.3,0,0,0,.83.56c-.55,2.52-2.81,4.11-5.6,4.35a1.14,1.14,0,1,0-1.07,1.52,1.15,1.15,0,0,0,1.09-.78c3.23-.26,5.82-2.18,6.37-5.17A1.31,1.31,0,0,0,16,9.35V6.75a1.32,1.32,0,0,0-1.33-1.32Z"/></g></g></svg>