<svg xmlns="http://www.w3.org/2000/svg" xmlns:xlink="http://www.w3.org/1999/xlink" viewBox="0 0 16 16"><defs><style>.cls-1{fill:url(#未命名的渐变_16);}</style><linearGradient id="未命名的渐变_16" x1="8" x2="8" y2="16" gradientUnits="userSpaceOnUse"><stop offset="0" stop-color="#e26510"/><stop offset="1" stop-color="#d1470b"/></linearGradient></defs><title>head-xiaoxi</title><g id="图层_2" data-name="图层 2"><g id="图层_1-2" data-name="图层 1"><path class="cls-1" d="M8.05,15.87a6,6,0,0,1-1.69-.18A14.2,14.2,0,0,0,1,16L.84,16A.83.83,0,0,1,0,15.18,1.49,1.49,0,0,1,0,15,14,14,0,0,0,.27,9.6a8,8,0,1,1,9.44,6.09A7.74,7.74,0,0,1,8.05,15.87Zm-3.4-5.43H8.84a.63.63,0,1,0,0-1.25H4.65a.63.63,0,1,0,0,1.25Zm6.7-4.59H4.65a.63.63,0,1,0,0,1.25h6.7a.63.63,0,1,0,0-1.25Z"/></g></g></svg>