<svg xmlns="http://www.w3.org/2000/svg" viewBox="0 0 30 30"><defs><style>.cls-1{fill:#ddd;}.cls-2{fill:#aaa;}</style></defs><title>head-user</title><g id="图层_2" data-name="图层 2"><g id="图层_1-2" data-name="图层 1"><circle class="cls-1" cx="15" cy="15" r="15"/><path class="cls-2" d="M14.89,3.35a6.12,6.12,0,0,1,1.34.15,6.93,6.93,0,0,1,1.24.41,5.32,5.32,0,0,1,1,.58,3.26,3.26,0,0,1,.71.65,4.86,4.86,0,0,1,.89,1.64,10.92,10.92,0,0,1,.39,1.71,14.71,14.71,0,0,1,.12,1.88.94.94,0,0,1,.26.3,1.69,1.69,0,0,1,.15.42,2.15,2.15,0,0,1,0,.63,2.1,2.1,0,0,1-.2.78,1.36,1.36,0,0,1-.34.45,1.11,1.11,0,0,1-.44.26c-.08.26-.15.51-.23.74a6.46,6.46,0,0,1-.27.6,1.48,1.48,0,0,1-.34.45l-.72.59a1.4,1.4,0,0,0-.37.83,2.8,2.8,0,0,0-.05.71,2.16,2.16,0,0,0,.2.72,2.25,2.25,0,0,0,.54.68,3.17,3.17,0,0,0,1,.59,11.86,11.86,0,0,0,1.27.41c.45.13.9.27,1.33.43a5,5,0,0,1,1.15.61,1.9,1.9,0,0,1,.71,1,4.68,4.68,0,0,1,.18.92,10,10,0,0,1,.06,1.1,5.87,5.87,0,0,1-.09,1.05,1.94,1.94,0,0,1-.24.74,1.38,1.38,0,0,1-.66.33c-.37.11-.82.21-1.35.31s-1.13.19-1.79.27-1.32.14-2,.2l-1.92.12c-.61,0-1.14,0-1.59,0s-1,0-1.57,0l-1.85-.12-1.89-.19c-.63-.07-1.2-.14-1.71-.22s-1-.16-1.31-.23a1.82,1.82,0,0,1-.67-.24q-.24-.18-.36-1.14A8.92,8.92,0,0,1,5.63,22a1.94,1.94,0,0,1,.69-1.31A4.38,4.38,0,0,1,7.65,20c.5-.17,1-.33,1.57-.47a4.92,4.92,0,0,0,1.44-.61,3.46,3.46,0,0,0,.74-.58,1.7,1.7,0,0,0,.37-.56,1.43,1.43,0,0,0,.12-.58c0-.2,0-.42,0-.67a1.27,1.27,0,0,0-.38-.85,9.54,9.54,0,0,0-.72-.64,1.44,1.44,0,0,1-.32-.45,6.39,6.39,0,0,1-.26-.6c-.08-.23-.15-.48-.23-.74a1.25,1.25,0,0,1-.33-.16,2.57,2.57,0,0,1-.3-.33,1.87,1.87,0,0,1-.28-.6A1.6,1.6,0,0,1,9,11.4a1.71,1.71,0,0,1,.13-.56,1.41,1.41,0,0,1,.3-.49,10.5,10.5,0,0,1,.09-1.77A11,11,0,0,1,9.81,7a4.87,4.87,0,0,1,.73-1.54,4.59,4.59,0,0,1,1-1.06,4.83,4.83,0,0,1,1.12-.63,4.66,4.66,0,0,1,1.13-.32,8.53,8.53,0,0,1,1.11-.08Z"/></g></g></svg>