<svg xmlns="http://www.w3.org/2000/svg" viewBox="0 0 190 28.64"><defs><style>.cls-1{fill:#ddd;}.cls-2{fill:#898989;}</style></defs><title>head-sousuo</title><g id="图层_2" data-name="图层 2"><g id="图层_1-2" data-name="图层 1"><rect class="cls-1" width="190" height="28.64" rx="14.32"/><path class="cls-2" d="M42.32,14.57l1,.53a37.36,37.36,0,0,1-3.68,5.41c-.25-.22-.55-.46-.88-.73A22.62,22.62,0,0,0,42.32,14.57ZM38.8,12.25H50.18v.94H38.8Zm4.46-2.47.85-.48c.38.53.83,1.24,1.36,2.12l-1,.52A23.55,23.55,0,0,0,43.26,9.78Zm2.23,5.47.81-.6c1.28,1.61,2.53,3.27,3.73,5l-1,.72C47.7,18.27,46.52,16.56,45.49,15.25Z"/><path class="cls-2" d="M57.39,9.38l-.28.34a11.9,11.9,0,0,0,5.19,3.83c-.24.35-.45.66-.62.94a14.59,14.59,0,0,1-1.81-1v.67H53v-.59c-.57.38-1.18.74-1.83,1.1-.16-.26-.35-.56-.59-.88a14.7,14.7,0,0,0,5.48-4.38Zm-5,6.24h8.17v5.2H59.6V20H53.31v.81h-.94Zm7.23.85H53.31V19.2H59.6ZM56.49,10.4a14.43,14.43,0,0,1-3.13,2.89h6.27A14.38,14.38,0,0,1,56.49,10.4Z"/><path class="cls-2" d="M67,16.47l2.15,1.64-.59.75c-.63-.58-1.31-1.17-2-1.76v3.65H65.6v-4a14.05,14.05,0,0,1-2.29,2.82c-.15-.15-.39-.36-.71-.62a10.76,10.76,0,0,0,2.83-3.36H63v-.87H65.6v-.92h.87v.92h2.4v.87h-2.4v1.45ZM63.05,10.9c-.06-.26-.13-.55-.21-.85q3.43-.17,6.19-.38l.21.85Q67,10.69,63.05,10.9Zm0,1,.7-.38c.37.61.72,1.22,1.07,1.84l-.77.43C63.75,13.22,63.42,12.6,63,11.92Zm2.15-.43.72-.37c.37.67.72,1.31,1,1.92l-.79.41A18.64,18.64,0,0,0,65.18,11.49Zm2,2c.42-.7.86-1.53,1.31-2.47l.79.42c-.34.62-.79,1.42-1.37,2.41ZM68,20a12.26,12.26,0,0,0,5.52-4l.72.61a13.87,13.87,0,0,1-5.63,4.15A7.9,7.9,0,0,0,68,20Zm5.62-9.71a14.22,14.22,0,0,1-4.08,3.2c-.22-.3-.42-.55-.59-.76a10.4,10.4,0,0,0,3.88-2.95Zm.25,3.22a14.08,14.08,0,0,1-4.1,3.15c-.14-.22-.32-.49-.54-.78a10.85,10.85,0,0,0,3.91-2.94Z"/><path class="cls-2" d="M74.6,16.18l2.17-.74V12.69h-.92a14.39,14.39,0,0,1-.59,2c-.24-.17-.5-.34-.77-.51a12.92,12.92,0,0,0,.85-3.86l.85.14c0,.49-.12,1-.2,1.41h.78V9.28h.88V11.9h1.47v.79H77.65v2.44L79,14.67c0,.34.09.64.13.89l-1.44.52v4.67h-.88V16.41c-.63.23-1.29.49-2,.76Zm4.09-2.8h3.23V11.64H79.19v-.79h2.73V9.22h.91v1.63h2.85v.79H82.83v1.74h3.39v.79H78.69Zm.25,2.38h4.71V14.51h.92v1.25h1.71v.79H84.57v2.58a1.32,1.32,0,0,1-1.48,1.48c-.35,0-.88,0-1.6,0,0-.31-.1-.64-.17-1q.93.09,1.59.09c.49,0,.74-.27.74-.82V16.55H78.94Zm.66,1.6.68-.54c.56.62,1,1.18,1.45,1.69l-.75.57C80.53,18.48,80.07,17.91,79.6,17.36Z"/><path class="cls-2" d="M86.59,15.72a12.89,12.89,0,0,0,2.07-4.52H86.93v-.87h4.39v.87H89.56a17,17,0,0,1-.93,2.74h2.26v6.35h-.83v-.81H88.6v1h-.84V15.56c-.2.33-.42.65-.65,1A7,7,0,0,0,86.59,15.72Zm3.47-1H88.6v4h1.46Zm1.3,2.32h5v.84h-5Zm1.89-5.86-.31,3.43H95.7l.4-3.85H91.77V9.93h5.31l-.49,4.7h1.24c-.06,1.59-.12,3-.19,4.13S97,20.5,96,20.5l-1.76,0c0-.29-.1-.62-.16-1a15.71,15.71,0,0,0,1.71.11c.6,0,.92-.33,1-1,.06-.86.11-1.91.14-3.13H92l.37-4.27Z"/><path class="cls-2" d="M98.76,20A7.38,7.38,0,0,0,101,15.49l.88.21a12.91,12.91,0,0,1-.54,2,3.44,3.44,0,0,0,2.8,1.81V15h1v1.5H109v.82h-3.9v2.19c1.77,0,3.48,0,5.16-.07-.12.3-.23.61-.33.92-2.28,0-4.18,0-5.69,0a3.93,3.93,0,0,1-3.27-1.81,7.19,7.19,0,0,1-1.59,2.19C99.14,20.44,98.94,20.19,98.76,20Zm11.13-5.25H99V13.9h4.87v-2h-3.83v-.82h3.83V9.26h1v1.83h4v.82h-4v2h5Z"/><path class="cls-2" d="M111.45,16.44h3.73a5.64,5.64,0,0,0,0-.73h.92c0,.25,0,.5,0,.73h4.77c-.06.95-.12,1.79-.19,2.52q-.14,1.48-1.83,1.5c-.57,0-1.32,0-2.26,0a10.17,10.17,0,0,0-.2-1c.93.08,1.74.12,2.44.12s.89-.25,1-.75.09-.88.13-1.55h-4a3.57,3.57,0,0,1-1,1.91,7.78,7.78,0,0,1-3.62,1.65c-.16-.25-.34-.54-.56-.86a7.33,7.33,0,0,0,3.49-1.43,2.61,2.61,0,0,0,.76-1.27h-3.57Zm-.53-3.22c.46-.07,1.12-.19,2-.36V11.62H111v-.8h1.87V9.16h.85v1.66h1.4v.8h-1.4v1.07l1.43-.29c0,.43,0,.7,0,.84l-1.46.29v1.19a1,1,0,0,1-1.13,1.18c-.33,0-.75,0-1.24,0a6.55,6.55,0,0,0-.14-.85c.51,0,.91.06,1.22.06s.44-.16.44-.47v-.91l-1.78.41Zm4.52-.3.41-.66,1,.48a4.89,4.89,0,0,0,.21-1.23h-1.27v-.79H117V9.17h.84v1.55h2.49a27.4,27.4,0,0,0,.11,3.13c.09.63.26.94.52.94s.26-.18.33-.55a12.55,12.55,0,0,0,.13-1.27c.27.11.54.22.82.31a10,10,0,0,1-.16,1.21c-.15.87-.54,1.3-1.14,1.3s-1.13-.48-1.31-1.44a19.17,19.17,0,0,1-.15-2.84h-1.66a7.09,7.09,0,0,1-.27,1.66c.55.3,1,.6,1.5.89l-.51.78c-.42-.3-.87-.59-1.35-.89a6.4,6.4,0,0,1-2.38,1.92,8,8,0,0,0-.61-.75,5.56,5.56,0,0,0,2.2-1.64C116.12,13.29,115.79,13.11,115.44,12.92Z"/><path class="cls-2" d="M26.35,19.91l-3.2-3.2A6.07,6.07,0,1,0,21,18.83l3.2,3.2a1,1,0,0,0,1.42,0l.7-.71A1,1,0,0,0,26.35,19.91Zm-11.18-3.4a4,4,0,0,1,0-5.66,4,4,0,0,1,5.66,0,4,4,0,0,1-5.66,5.66Z"/></g></g></svg>