<svg xmlns="http://www.w3.org/2000/svg" xmlns:xlink="http://www.w3.org/1999/xlink" viewBox="0 0 30 30"><defs><style>.cls-1{fill:#ddd;}.cls-2{fill:url(#未命名的渐变_20);}</style><linearGradient id="未命名的渐变_20" x1="15.25" y1="6.64" x2="15.25" y2="21.89" gradientUnits="userSpaceOnUse"><stop offset="0" stop-color="#e26510"/><stop offset="1" stop-color="#d1470b"/></linearGradient></defs><title>head-huodong</title><g id="图层_2" data-name="图层 2"><g id="图层_1-2" data-name="图层 1"><path class="cls-1" d="M28.18,7.83a5,5,0,0,1-7.31-6.64A15,15,0,1,0,30,15,14.94,14.94,0,0,0,28.18,7.83Z"/><circle class="cls-1" cx="25" cy="4" r="3"/><path class="cls-2" d="M13.51,7.21s-1.14-1-2.14-.35A1.65,1.65,0,0,0,11,9.25a3.7,3.7,0,0,0,2.38,1.21,1.09,1.09,0,0,0,1.18-.53C14.83,9.42,14.82,8.56,13.51,7.21ZM17,8.09s.87-.76,1.63-.26a1.26,1.26,0,0,1,.28,1.81,2.84,2.84,0,0,1-1.81.93.85.85,0,0,1-.9-.41C16,9.78,16,9.12,17,8.09ZM7.5,11.36h7.37v3.23H7.5Zm8.13,0H23v3.23H15.63ZM9,15.4h5.88v6.49H9Zm6.64,0h5.88v6.49H15.63Z"/></g></g></svg>