<svg xmlns="http://www.w3.org/2000/svg" xmlns:xlink="http://www.w3.org/1999/xlink" viewBox="0 0 30 30"><defs><style>.cls-1{fill:#ddd;}.cls-2{fill:url(#未命名的渐变_16);}</style><linearGradient id="未命名的渐变_16" x1="15.02" y1="7" x2="15.02" y2="23" gradientUnits="userSpaceOnUse"><stop offset="0" stop-color="#e26510"/><stop offset="1" stop-color="#d1470b"/></linearGradient></defs><title>head-xiaoxi</title><g id="图层_2" data-name="图层 2"><g id="图层_1-2" data-name="图层 1"><path class="cls-1" d="M28.18,7.83a5,5,0,0,1-7.31-6.64A15,15,0,1,0,30,15,14.94,14.94,0,0,0,28.18,7.83Z"/><circle class="cls-1" cx="25" cy="4" r="3"/><path class="cls-2" d="M15.07,22.87a6,6,0,0,1-1.69-.18A14.2,14.2,0,0,0,8,23l-.17,0A.83.83,0,0,1,7,22.18a.76.76,0,0,1,0-.21,14.18,14.18,0,0,0,.24-5.37,8,8,0,1,1,9.44,6.09A7.74,7.74,0,0,1,15.07,22.87Zm-3.4-5.43h4.19a.63.63,0,1,0,0-1.25H11.67a.63.63,0,1,0,0,1.25Zm6.7-4.59h-6.7a.63.63,0,1,0,0,1.25h6.7a.63.63,0,1,0,0-1.25Z"/></g></g></svg>