<svg xmlns="http://www.w3.org/2000/svg" xmlns:xlink="http://www.w3.org/1999/xlink" viewBox="0 0 15.5 15.25"><defs><style>.cls-1{fill:url(#未命名的渐变_20);}</style><linearGradient id="未命名的渐变_20" x1="7.75" x2="7.75" y2="15.25" gradientUnits="userSpaceOnUse"><stop offset="0" stop-color="#e26510"/><stop offset="1" stop-color="#d1470b"/></linearGradient></defs><title>head-huodong</title><g id="图层_2" data-name="图层 2"><g id="图层_1-2" data-name="图层 1"><path class="cls-1" d="M6,.57S4.87-.44,3.87.22a1.66,1.66,0,0,0-.36,2.39A3.7,3.7,0,0,0,5.89,3.83a1.11,1.11,0,0,0,1.18-.54C7.33,2.79,7.32,1.93,6,.57Zm3.46.89s.87-.77,1.63-.27A1.27,1.27,0,0,1,11.38,3a2.84,2.84,0,0,1-1.81.92.83.83,0,0,1-.9-.41C8.47,3.14,8.48,2.49,9.47,1.46ZM0,4.73H7.37V8H0Zm8.13,0H15.5V8H8.13Zm-6.64,4H7.37v6.49H1.49Zm6.64,0H14v6.49H8.13Z"/></g></g></svg>