<svg xmlns="http://www.w3.org/2000/svg" viewBox="0 0 28.14 8.78"><defs><style>.cls-1{fill:#fff;}</style></defs><title>system-time</title><g id="图层_2" data-name="图层 2"><g id="图层_1-2" data-name="图层 1"><path class="cls-1" d="M3.16,8.63H2.11V1.9a5,5,0,0,1-1,.73A8.08,8.08,0,0,1,0,3.18v-1a6.58,6.58,0,0,0,1.55-1A4,4,0,0,0,2.48,0h.68Z"/><path class="cls-1" d="M5.87,6.36l1.06-.14a2.33,2.33,0,0,0,.61,1.29,1.55,1.55,0,0,0,1.07.39,1.71,1.71,0,0,0,1.25-.51,1.73,1.73,0,0,0,.52-1.28A1.62,1.62,0,0,0,8.7,4.44,3,3,0,0,0,8,4.56l.12-.93h.17a2.12,2.12,0,0,0,1.21-.35A1.19,1.19,0,0,0,10,2.21a1.27,1.27,0,0,0-.39-1,1.37,1.37,0,0,0-1-.38,1.45,1.45,0,0,0-1,.38A2,2,0,0,0,7,2.41L6,2.23A2.71,2.71,0,0,1,6.86.58,2.51,2.51,0,0,1,8.56,0a2.86,2.86,0,0,1,1.3.3,2.19,2.19,0,0,1,.9.83,2.06,2.06,0,0,1,.31,1.1,1.92,1.92,0,0,1-.29,1A2.09,2.09,0,0,1,9.89,4a2,2,0,0,1,1.18.73,2.18,2.18,0,0,1,.43,1.39A2.58,2.58,0,0,1,10.68,8a2.9,2.9,0,0,1-2.08.78A2.71,2.71,0,0,1,6.72,8.1,2.63,2.63,0,0,1,5.87,6.36Z"/><path class="cls-1" d="M13.13,2.6V1.4h1.2V2.6Zm0,5V6.42h1.2V7.63Z"/><path class="cls-1" d="M15.87,4.39a7.78,7.78,0,0,1,.32-2.45A3.11,3.11,0,0,1,17.12.5,2.4,2.4,0,0,1,18.67,0a2.53,2.53,0,0,1,1.22.28,2.34,2.34,0,0,1,.86.8,4.56,4.56,0,0,1,.53,1.28,8.45,8.45,0,0,1,.19,2,7.79,7.79,0,0,1-.31,2.44,2.94,2.94,0,0,1-.92,1.43,2.62,2.62,0,0,1-3.52-.38A5.69,5.69,0,0,1,15.87,4.39Zm1.09,0a5.36,5.36,0,0,0,.49,2.81,1.42,1.42,0,0,0,2.45,0,5.41,5.41,0,0,0,.49-2.81,5.4,5.4,0,0,0-.49-2.82,1.5,1.5,0,0,0-1.24-.7,1.36,1.36,0,0,0-1.16.62A5.48,5.48,0,0,0,17,4.39Z"/><path class="cls-1" d="M25.93,8.63V6.57H22.2v-1L26.12,0H27V5.6h1.16v1H27V8.63Zm0-3V1.73L23.24,5.6Z"/></g></g></svg>