<svg xmlns="http://www.w3.org/2000/svg" viewBox="0 0 27 11"><defs><style>.cls-1{fill:#fff;}</style></defs><title>system-dianchi</title><g id="图层_2" data-name="图层 2"><g id="图层_1-2" data-name="图层 1"><path class="cls-1" d="M25,3.67h.17A1.83,1.83,0,0,1,27,5.5v0a1.83,1.83,0,0,1-1.83,1.83H25a0,0,0,0,1,0,0V3.67a0,0,0,0,1,0,0Z"/><path class="cls-1" d="M4,1.83H20a0,0,0,0,1,0,0V9.17a0,0,0,0,1,0,0H4a2,2,0,0,1-2-2V3.83A2,2,0,0,1,4,1.83Z"/><path class="cls-1" d="M22,.92a1,1,0,0,1,1,.91V9.17a1,1,0,0,1-1,.91H2a1,1,0,0,1-1-.91V1.83A1,1,0,0,1,2,.92H22M22,0H2A1.92,1.92,0,0,0,0,1.83V9.17A1.92,1.92,0,0,0,2,11H22a1.92,1.92,0,0,0,2-1.83V1.83A1.92,1.92,0,0,0,22,0Z"/></g></g></svg>