<svg xmlns="http://www.w3.org/2000/svg" viewBox="0 0 197.46 260.26"><defs><style>.cls-1{fill:#393c3d;}.cls-2{fill:#f2d0af;}.cls-3{fill:#d3cec7;}.cls-4{fill:#e0dbd3;}.cls-5{fill:#f9f5ed;}.cls-6{fill:#ddb58e;}.cls-7{fill:#f4d3b0;}.cls-8{fill:#3a332d;}.cls-9{fill:#c65044;}.cls-10{fill:#6b4627;}</style></defs><title>资源 230</title><g id="图层_2" data-name="图层 2"><g id="Layer_1" data-name="Layer 1"><path class="cls-1" d="M197.46,186.72c-16.82,2-18.42-28.83-12.82-56.47s19.63-106.53-43.25-124C122.9,1.05,109.07-.4,98.73.09c-10.34-.49-24.16,1-42.66,6.12-62.88,17.51-48.86,96.41-43.25,124s4,58.47-12.82,56.47c0,0,1.6,10,9.61,11.8,0,0-4,6.53-9.21,3.78,0,0-3.2,10.85,10,13.26,0,0-11.81,28.32,10.48,44.7H176.57c22.29-16.38,10.48-44.7,10.48-44.7,13.21-2.41,10-13.26,10-13.26-5.21,2.75-9.21-3.78-9.21-3.78C195.86,196.71,197.46,186.72,197.46,186.72Z"/><path class="cls-2" d="M35.45,260.26h13c5.27-22.86,23.16-96.5,23.16-96.5l-8.35.14S37.84,214.15,35.45,260.26Z"/><path class="cls-2" d="M126.14,163.76s17.89,73.64,23.15,96.5h13c-2.39-46.11-27.83-96.36-27.83-96.36Z"/><path class="cls-3" d="M68.25,158.94S61.4,160,58.07,170.53s-10.24,18.92-15,21c0,0,1.5,14.12,19.52,12Z"/><path class="cls-3" d="M129.52,158.94s6.86,1.07,10.19,11.59,10.24,18.92,15,21c0,0-1.51,14.12-19.53,12Z"/><path class="cls-4" d="M115.41,156.68l-16.52.68-16.52-.68s-15.1-3-19.67,10.61c-3.5,10.46-11.87,67.2-15.57,93H150.64c-3.69-25.77-12.06-82.51-15.57-93C130.51,153.68,115.41,156.68,115.41,156.68Z"/><path class="cls-5" d="M98.69,181.74s8-5.24,13.39,2l18.24-26.43-20.64-3Z"/><path class="cls-5" d="M99.08,181.74s-8-5.24-13.38,2L67.46,157.28l20.64-3Z"/><rect class="cls-6" x="84.24" y="146.39" width="28.97" height="28.97" transform="translate(-84.84 116.93) rotate(-45)"/><path class="cls-7" d="M45,110.79s-7.5-5.42-13.58,0c-5.86,5.22-1.94,32.29,22.31,29.38Z"/><path class="cls-7" d="M152.5,110.79s7.5-5.42,13.59,0c5.85,5.22,1.94,32.29-22.32,29.38Z"/><path class="cls-2" d="M156.21,121.14c0,32.65-25.73,44.28-57.48,44.28s-57.48-11.63-57.48-44.28c0-1.65.07-20,.2-21.7,2.42-31.71,27.14-52.25,57.28-52.25S153.57,67.7,156,99.4C156.14,101.1,156.21,119.48,156.21,121.14Z"/><path class="cls-8" d="M134.82,118.71h0a1.19,1.19,0,0,1-1.19-1.2c0-.28-.06-6.88-5.46-7.07-5.6-.18-6.93,5.34-7,5.58a1.2,1.2,0,0,1-2.34-.54c.61-2.66,3.35-7.64,9.4-7.43s7.79,6.28,7.78,9.47A1.2,1.2,0,0,1,134.82,118.71Z"/><path class="cls-8" d="M136.87,118.65a9.14,9.14,0,0,1-2.38-.26,1.2,1.2,0,0,1,.65-2.31,11.22,11.22,0,0,0,6.09-.61,1.2,1.2,0,0,1,.78,2.27A15.66,15.66,0,0,1,136.87,118.65Z"/><path class="cls-8" d="M134.67,116.16h-.09a1.2,1.2,0,0,1-1.18-1.22,1.19,1.19,0,0,1,1.19-1.17h.08c2.19,0,5.21-2.08,6.19-2.89a1.2,1.2,0,0,1,1.69.16,1.19,1.19,0,0,1-.16,1.68C142.21,112.87,138.18,116.16,134.67,116.16Z"/><path class="cls-1" d="M117.18,99.14l.1-2.83a.67.67,0,0,1,.6-.63c1.7-.17,10.73-.23,17,1.43a19.18,19.18,0,0,1,8.61,4.71.66.66,0,0,1-.78.25c-2.17-.8-11.54-3.86-24.78-2.25A.65.65,0,0,1,117.18,99.14Z"/><path class="cls-8" d="M62,118.71h0a1.19,1.19,0,0,0,1.19-1.2c0-.28.06-6.88,5.46-7.07,5.59-.18,6.93,5.34,7,5.58a1.2,1.2,0,1,0,2.33-.54c-.6-2.66-3.34-7.64-9.39-7.43s-7.79,6.28-7.78,9.47A1.19,1.19,0,0,0,62,118.71Z"/><path class="cls-8" d="M59.93,118.65a9.14,9.14,0,0,0,2.38-.26,1.2,1.2,0,0,0-.65-2.31,11.26,11.26,0,0,1-6.1-.61,1.2,1.2,0,0,0-.78,2.27A15.75,15.75,0,0,0,59.93,118.65Z"/><path class="cls-8" d="M62.13,116.16h.09a1.2,1.2,0,0,0,1.18-1.22,1.19,1.19,0,0,0-1.2-1.17h-.07c-2.2,0-5.21-2.08-6.19-2.89a1.2,1.2,0,0,0-1.69.16,1.19,1.19,0,0,0,.16,1.68C54.58,112.87,58.62,116.16,62.13,116.16Z"/><path class="cls-9" d="M85.21,143.19s3.41-4.39,7.34-4.18a8.3,8.3,0,0,1,6.08,3.43s3.54-3.36,7.68-3.29,5.94,4.38,5.94,4.38a16,16,0,0,1-13.92,8.21A14.22,14.22,0,0,1,85.21,143.19Z"/><path class="cls-6" d="M92.39,127.52s.63-5.67,6.1-5.7,6.58,5.7,6.58,5.7-3-3.5-6.48-3.5S92.39,127.52,92.39,127.52Z"/><path class="cls-1" d="M31.92,102.05s29.39,5.55,47.41,0,42.66-20,46-33.18c0,0-3,27.64,40.25,29.14,0,0,2.15-61.58-66.81-62.78S31.92,102.05,31.92,102.05Z"/><path class="cls-10" d="M41.43,109.39s-10.3-25.8-5.5-28.4S53.47,96,55.64,99.56s3.72,9.6-4.29,12S41.43,109.39,41.43,109.39Z"/></g></g></svg>