<?xml version="1.0" standalone="no"?><!DOCTYPE svg PUBLIC "-//W3C//DTD SVG 1.1//EN" "http://www.w3.org/Graphics/SVG/1.1/DTD/svg11.dtd"><svg t="1549023384466" class="icon" style="" viewBox="0 0 1299 1024" version="1.1" xmlns="http://www.w3.org/2000/svg" p-id="14328" xmlns:xlink="http://www.w3.org/1999/xlink" width="253.7109375" height="200"><defs><style type="text/css"></style></defs><path d="M10.470348 29.316973v104.703477l355.99182 376.932515 20.940695-20.940695-376.932515-460.695297z" fill="#13227a" p-id="14329"></path><path d="M460.695297 469.071575l-125.644172 104.703476 41.88139 20.940695 104.703477-83.762781zM475.353783 636.597137l37.693252-37.693252-37.693252-56.539877-56.539877 37.693252zM774.805726 113.079755l-188.466258 230.347648 439.754602-62.822086-251.288344-167.525562zM502.576687 510.952965l62.822086 188.466258 272.229039-230.347648-146.584867 167.525562 272.229039 20.940695 20.940695-230.347648-83.762781-83.762781-397.873211 167.525562zM649.161554 699.419223l-125.644172 125.644172v167.525562h460.695297l-167.525562-209.406953 83.762781-83.762781H649.161554z" fill="#13227a" p-id="14330"></path><path d="M942.331288 699.419223l-83.762781 83.762781 188.466258 230.347648h219.8773l-261.758691-188.466257-20.940695-104.703477-41.881391-20.940695z" fill="#13227a" p-id="14331"></path></svg>