<svg xmlns="http://www.w3.org/2000/svg" viewBox="0 0 160.76 260"><defs><style>.cls-1{fill:#f4efed;}.cls-2{fill:#423429;}.cls-3{fill:#382b23;}.cls-4{fill:#e2dcd9;}.cls-5{fill:#563a28;}.cls-6{fill:#634631;}.cls-7{fill:#70523e;}.cls-8{fill:#4c453f;}.cls-9{fill:#f4d3b0;}.cls-10{fill:#f9dab4;}.cls-11{fill:#3a332d;}.cls-12{fill:#efc4a0;}</style></defs><title>资源 54</title><g id="图层_2" data-name="图层 2"><g id="Layer_1" data-name="Layer 1"><rect class="cls-1" x="52.91" y="160.55" width="56.19" height="99.45"/><polygon class="cls-2" points="76.86 172.76 61.43 236.55 77.99 260 80.6 260 99.43 238.62 83.77 172.76 76.86 172.76"/><rect class="cls-3" x="73.18" y="164.59" width="14.51" height="11.62" rx="4.03"/><polygon class="cls-4" points="58.43 161.01 61.43 184.62 80.45 162.64 100.12 183.81 102.2 159.86 58.43 161.01"/><path class="cls-5" d="M15.37,260c5.34-31.43,25.12-91.14,25.12-91.14h3.59V260Z"/><path class="cls-5" d="M147.69,260c-5.34-31.43-25.12-91.14-25.12-91.14H119V260Z"/><path class="cls-6" d="M59.73,161.7l-1.39-1.38s-14.05-.92-17.27,6.45c-3,6.92-1.4,49.19-2.12,93.23H82.23a144.51,144.51,0,0,0-.94-26.88Z"/><path class="cls-5" d="M81.29,233.12c-2.38,12.08-2.41,8.14-2.91,16.12A41.66,41.66,0,0,0,79.44,260h2Z"/><path class="cls-6" d="M121.92,166.77c-3.21-7.37-17.26-6.45-17.26-6.45l-1.4,1.38-22,71.42A144.87,144.87,0,0,0,80.63,260h43.42C123.32,216,125,173.69,121.92,166.77Z"/><path class="cls-7" d="M110.11,177.85c1.09-4.23-5.54-18.68-5.54-18.68l-2.45,3.76L81.29,233.12s10-17.77,18.14-33.42c.85-1.63-2.47-10.06-1.66-11.6C98.48,186.74,109.06,181.93,110.11,177.85Z"/><path class="cls-7" d="M52.5,177.85c-1.09-4.23,5.55-18.68,5.55-18.68l2.45,3.76,20.79,70.19s-9.94-17.77-18.11-33.42c-.85-1.63,2.47-10.06,1.66-11.6C64.14,186.74,53.55,181.93,52.5,177.85Z"/><path class="cls-5" d="M92.27,239.92a4.09,4.09,0,1,1-4.09-4.09A4.09,4.09,0,0,1,92.27,239.92Z"/><path class="cls-8" d="M1.91,98.25S-3.81,51.37,5.25,34,36.3,0,79.33,0,144,18.16,152.12,33.78,155.87,96,155.87,96l-8.35,9.38L7.89,103.57Z"/><path class="cls-9" d="M139.9,103.69S150.83,92.62,157.5,97s2.67,25.73-7.87,35.11C149.63,132.06,134.3,120.89,139.9,103.69Z"/><path class="cls-9" d="M20.86,103.69S9.93,92.62,3.26,97,.6,122.68,11.13,132.06C11.13,132.06,26.46,120.89,20.86,103.69Z"/><polygon class="cls-10" points="144.82 138.03 15.47 138.03 15.47 74.56 25.07 47.17 135.5 47.17 144.82 75.14 144.82 138.03"/><path class="cls-10" d="M82,119.51H79.28c-3-.46-74.19-11.17-73.2,17.32,1,29.11,73.3,28.8,73.3,28.8H82s72.28.31,73.3-28.8S82,119.51,82,119.51Z"/><path class="cls-11" d="M15.47,74.56s-3.27-39.74,33.19-41c11.67-.41,15.92,6.68,30.71,6.68,15.66,0,17.57-6.74,29.38-6.68,6.21,0,35.3-.51,36.07,41.6,0,0-27.19-36.21-65.45-5.39C79.37,69.75,40.13,36.3,15.47,74.56Z"/><path class="cls-12" d="M67,126.41s5.94-9,13-8.69,12.36,8.69,12.36,8.69-4.8-11.78-12.66-11.78S67,126.41,67,126.41Z"/><path class="cls-12" d="M81.6,150.26q-5.76,0-11.63-.48a154.22,154.22,0,0,1-31.8-6C29,141,24.55,137.48,24.36,137.33a1.13,1.13,0,0,1,1.42-1.76h0s4.31,3.4,13,6c14.42,4.33,43.23,10.43,74.11,2.56,6.43-1.63,19-8.62,19.17-8.69a1.13,1.13,0,0,1,1.1,2c-.53.29-13,7.2-19.71,8.91A128.91,128.91,0,0,1,81.6,150.26Z"/><path class="cls-12" d="M136.22,141a1.16,1.16,0,0,1-.59-.16,1.12,1.12,0,0,1-.37-1.55,4.69,4.69,0,0,0-.48-5.37c-2.18-2.45-5.77-.64-5.8-.63a1.13,1.13,0,1,1-1-2c1.78-.91,5.85-1.85,8.51,1.14a6.9,6.9,0,0,1,.73,8A1.14,1.14,0,0,1,136.22,141Z"/><path class="cls-11" d="M29.13,109.66a.76.76,0,0,1-.75-.65.75.75,0,0,1,.64-.85c.73-.11,18-2.62,28-.7a.75.75,0,0,1-.28,1.48c-9.74-1.87-27.28.68-27.45.71Z"/><path class="cls-11" d="M130.11,109.66H130c-.18,0-17.72-2.58-27.46-.71a.75.75,0,1,1-.28-1.48c10-1.92,27.23.59,28,.7a.75.75,0,0,1-.11,1.5Z"/><path class="cls-11" d="M50.93,84.89,32.3,92.46c-1.19.49-2.65-.34-3.27-1.84l-.71-1.76c-.61-1.51-.14-3.12,1.05-3.61L48,77.68c1.19-.49,2.65.34,3.27,1.84L52,81.28C52.59,82.79,52.12,84.4,50.93,84.89Z"/><path class="cls-11" d="M109.67,84.89l18.63,7.57c1.19.49,2.66-.34,3.27-1.84l.71-1.76a2.69,2.69,0,0,0-1.05-3.61l-18.62-7.57c-1.2-.49-2.66.34-3.27,1.84l-.72,1.76C108,82.79,108.48,84.4,109.67,84.89Z"/></g></g></svg>