<svg xmlns="http://www.w3.org/2000/svg" viewBox="0 0 185.09 279.06"><defs><style>.cls-1{fill:#79a348;}.cls-2{fill:#88b559;}.cls-3{fill:#f9dab4;}.cls-4{fill:#d68a1d;}.cls-5{fill:#3b3d3d;}.cls-6{fill:#fff;}.cls-7{fill:#f7cea6;}.cls-8{fill:#f9f7f2;}.cls-9{fill:#e5be9e;}.cls-10{fill:#f4c7a2;}.cls-11{fill:#e59a23;}</style></defs><title>资源 38</title><g id="图层_2" data-name="图层 2"><g id="Layer_1" data-name="Layer 1"><path class="cls-1" d="M136.15,177.39c-6.88-6.34-9.4-.75-9.4-.75,0,17.07,10.37,80.4,14.35,102.42h36C167.36,211.28,136.15,177.39,136.15,177.39Z"/><path class="cls-2" d="M136.15,194.57s8.14,55.47,9.7,66.57c.92,6.5,1.63,14,5.15,17.92h14.71c11.69-9.29-5.17-51.7-12.18-68.69C146.18,192.53,136.15,194.57,136.15,194.57Z"/><path class="cls-1" d="M54.2,178.19S21.27,211.07,8.88,279.06H45.13c5-22.22,17.6-84.31,18.3-101.23C63.43,177.83,61.33,172.14,54.2,178.19Z"/><path class="cls-2" d="M35.45,210.42c-7.85,17-27,59.94-14.35,68.64H35.21c3.61-3.77,4.62-11.19,5.8-17.6,2-11,12.47-66.11,12.47-66.11S43.54,192.9,35.45,210.42Z"/><path class="cls-2" d="M145.84,279.06c-3-25.59-10.18-78.84-19.41-100.63l-66.74.38S45.79,235.64,43,279.06Z"/><path class="cls-1" d="M133.88,279.06h12c-1.27-10.7-3.26-26.23-5.81-42.28a212.83,212.83,0,0,1,.34,33C140,274,137.58,277,133.88,279.06Z"/><path class="cls-1" d="M62.56,178.8H59.69S45.79,235.64,43,279.06h20c-4.06-2.87-7.29-7.64-9.69-15.58-6.09-20.12,5.41-67.2,5.41-67.2Z"/><path class="cls-3" d="M158.68,66.71s-45.51,8.13-62.54,7.59h0C87.25,74.24,30.51,72,30.51,72s-3.14,48.42-3.74,57.59c-2,30.72,30.53,56,68.64,56.2s69.16-24.52,69.36-55.31Z"/><path class="cls-4" d="M119.68,109.53s4.33-1.92,11.69-1.59c7.12.32,13.06,3.55,13.36,2,.55-2.73-3.24-7.45-9.12-9.59-5.54-2-10.48-.29-14.27,2.51S115.89,110.57,119.68,109.53Z"/><path class="cls-4" d="M72.5,109.53s-4.32-1.92-11.69-1.59c-7.12.32-13.05,3.55-13.36,2-.54-2.73,3.24-7.45,9.13-9.59,5.53-2,10.47-.29,14.26,2.51S76.3,110.57,72.5,109.53Z"/><path class="cls-5" d="M140.64,120.6a11.13,11.13,0,1,1-15.43-3.11A11.12,11.12,0,0,1,140.64,120.6Z"/><path class="cls-6" d="M133.09,118c1.1,1.66-.34,4.57-3.23,6.49s-6.13,2.13-7.24.47.35-4.57,3.24-6.49S132,116.33,133.09,118Z"/><path class="cls-5" d="M70.21,120.6a11.13,11.13,0,1,1-15.44-3.11A11.13,11.13,0,0,1,70.21,120.6Z"/><path class="cls-6" d="M62.66,118c1.1,1.66-.35,4.57-3.24,6.49s-6.13,2.13-7.23.47.34-4.57,3.23-6.49S61.55,116.33,62.66,118Z"/><path class="cls-7" d="M102.68,140.92v0a28.65,28.65,0,0,1-2,2.71,17.32,17.32,0,0,1-1.9,1.93,7.06,7.06,0,0,1-2,1.26A2,2,0,0,1,96,147a3.78,3.78,0,0,1-1.76-.55,11.18,11.18,0,0,1-2.89-2.54,16.38,16.38,0,0,1-2.14-3.23.95.95,0,0,0-1.7.83A18.53,18.53,0,0,0,91,146.23a11.48,11.48,0,0,0,2.35,1.83,5.64,5.64,0,0,0,2.68.8,4,4,0,0,0,1.42-.26A8.91,8.91,0,0,0,100,147a23.17,23.17,0,0,0,3-3.27c.76-1,1.23-1.72,1.24-1.74a.94.94,0,0,0-1.58-1Z"/><path class="cls-8" d="M53.09,148.44a1.25,1.25,0,0,1-1.29,1.19l-4.2-.15a1.25,1.25,0,0,1-1.2-1.3h0a1.24,1.24,0,0,1,1.29-1.2l4.2.16a1.24,1.24,0,0,1,1.2,1.3Z"/><path class="cls-8" d="M143.59,149a1.25,1.25,0,0,1-1.29,1.2l-4.21-.16a1.25,1.25,0,0,1-1.2-1.29h0a1.26,1.26,0,0,1,1.3-1.21l4.2.16a1.26,1.26,0,0,1,1.2,1.3Z"/><path class="cls-3" d="M156,150.32a22.86,22.86,0,0,0,19.25-.26c10.1-4.94,15.09-25.22,2-30.08s-17.13,10.2-17.13,10.2Z"/><path class="cls-7" d="M162,144.15s4.16-22.23,13.87-14.55c6,4.71,2.43,11.3-3.11,14C169.32,145.3,164.81,145.44,162,144.15Z"/><path class="cls-9" d="M162.16,143.89l1.44-5.6s18.48-5.27,13.3,2.15S162.16,143.89,162.16,143.89Z"/><path class="cls-3" d="M34.21,150.27a22.86,22.86,0,0,1-19.25-.5c-10-5.07-14.76-25.42-1.61-30.1s17,10.42,17,10.42Z"/><path class="cls-7" d="M28.2,144s-3.87-22.28-13.69-14.73c-6,4.64-2.57,11.27,2.93,14C20.9,145.08,25.41,145.29,28.2,144Z"/><path class="cls-9" d="M28.08,143l-1.37-5.62s-18.41-5.5-13.32,2S28.08,143,28.08,143Z"/><path class="cls-10" d="M95,173.34a59.16,59.16,0,0,1-6.7-.38A58.33,58.33,0,0,1,74,169.57a1.34,1.34,0,1,1,1-2.48h0c.23.09,22.62,9,42.21-1.83a1.34,1.34,0,1,1,1.3,2.34A48.07,48.07,0,0,1,95,173.34Z"/><path class="cls-11" d="M11.21,18.91C30.27-2.7,56.08-2.5,66.66,3.44A40.71,40.71,0,0,1,82.38,19.65s33.54-4.87,66.75,15.94c0,0,11.4-4.13,26.46,1.59,0,0-8.06,79.16-4.27,98l-8.25,18-7.83,5.68s-2.72-36.08,2.27-86.86c0,0-41.62,12-83.55,14.35,0,0-41.85,1.09-59.7-8.35S-4.78,37,11.21,18.91Z"/><path class="cls-11" d="M18.65,74.79c1.7,23.19,3,50.36,1,60.42l5.66,18,10.42,5.68S38.47,122.79,33.48,72Z"/><path class="cls-4" d="M82.18,55.39a43.25,43.25,0,0,1-8.12,8.28,30,30,0,0,0,10.83-6.73c4.48-4.45,6.89-12.4,6.87-22.37a84.23,84.23,0,0,0-1.57-15.41,66.75,66.75,0,0,0-7.81.49S92.11,42.36,82.18,55.39Z"/></g></g></svg>