<svg xmlns="http://www.w3.org/2000/svg" viewBox="0 0 263.64 260.02"><defs><style>.cls-1{fill:#f9dab4;}.cls-2{fill:#efc4a0;}.cls-3{fill:#f9f5ed;}.cls-4{fill:#c65044;}.cls-5{fill:#515151;}.cls-6{fill:#393c3d;}.cls-7{fill:#f4d3b0;}.cls-8{fill:#492020;}.cls-9{fill:#3a332d;}.cls-10{fill:#e8dfd9;}</style></defs><title>资源 305</title><g id="图层_2" data-name="图层 2"><g id="Layer_1" data-name="Layer 1"><path class="cls-1" d="M217.63,192.27s.47-7.71-1.51-13.47-6.56-11-2.42-13.92,11.44,2,11.7,9c0,0,3.66-22.82,11.3-21.42,5.77,1,2,16.76,2,16.76s6.35-16.12,12.53-13.4-.85,16.6-.85,16.6,7.13-9.46,11.19-7.39c5.06,2.58.41,14.53-8,26.34a74.85,74.85,0,0,1-14.26,15Z"/><path class="cls-2" d="M225.69,172.34a0,0,0,0,0,0,0c-.19,1-.28,1.54-.28,1.54a73.8,73.8,0,0,1,23.85,8.68S242.25,175.13,225.69,172.34Z"/><path class="cls-1" d="M24.14,209.16s-7.84-8.22-8.73-12.08c0,0-23.67-21.08-12.34-27.62,4-2.29,6,0,6,0s-1.93-4.88,2.18-7.32,6.38.77,6.38.77-7.33-24.32-.85-26.49c9.12-3,16.06,28.93,16.06,28.93s7.7-2.31,10.14.13,8.35,28.26,8.35,28.26Z"/><path class="cls-2" d="M36,179.59s-12.75,5.23-15.32-.3c-3.73-8,12.19-13.94,12.19-13.94s-20.28,5-14.7,15.2a6.62,6.62,0,0,0,6.6,3.51c.23,1.44.29,3.84-1.77,4.28-8.26,1.76-13.9-18.88-13.9-18.88a3.19,3.19,0,0,0-.94-.64c.64,3.48,3.7,18,10.7,21.18,0,1.43-.55,3.54-4,3.87a5.16,5.16,0,0,1-4-1.24c1.37,1.44,2.58,2.62,3.41,3.4,2.86-.11,6.29-1.15,6.42-5.48a7.18,7.18,0,0,0,3.36-.29c3.85-1.21,2.91-4.79,2.28-6.37C31.17,183.05,36,179.59,36,179.59Z"/><rect class="cls-3" x="110.62" y="157.59" width="43" height="41.62"/><rect class="cls-4" x="127.05" y="161.61" width="11.29" height="10.6"/><polygon class="cls-4" points="128.53 170.73 123.16 187.8 132.95 201.18 142.61 187.8 136.71 170.73 128.53 170.73"/><path class="cls-5" d="M105.19,157.59,65.68,212.15,50.94,187.8,17.67,207s35.14,40,49.77,40.05c8.78,0,29.66-31.38,29.66-31.38Z"/><path class="cls-6" d="M85.79,231.07c1.73-2.15,3.37-4.3,4.84-6.28h0L100.26,177S86.76,217.28,85.79,231.07Z"/><path class="cls-6" d="M50.94,187.8,17.67,207s1.54,1.76,4.12,4.54l32.57-18.09Z"/><path class="cls-5" d="M159.39,157.59l39.51,54.56,14.73-24.35L246.91,207s-35.14,40-49.78,40.05c-8.77,0-29.65-31.38-29.65-31.38Z"/><path class="cls-6" d="M178.78,231.07c-1.72-2.15-3.37-4.3-4.83-6.28h0L164.32,177S177.82,217.28,178.78,231.07Z"/><path class="cls-6" d="M213.63,187.8,246.91,207s-1.55,1.76-4.12,4.54l-32.57-18.09Z"/><path class="cls-5" d="M111.67,157.59h-6.48S88.55,217.56,86.84,260h90.9c-1.71-42.46-18.35-102.43-18.35-102.43h-6.48l-20.62,37Z"/><polygon class="cls-6" points="113.32 221.99 125.33 260.01 126.29 260.01 116.06 221.74 132.29 194.64 113.32 221.99"/><rect class="cls-6" x="93.03" y="249.72" width="26.65" height="5.61"/><rect class="cls-6" x="145.44" y="249.72" width="26.65" height="5.61"/><path class="cls-5" d="M60.39,104.59s-3.27-39.42-9.45-46.51a7.61,7.61,0,0,1,7.63-1.64S44.56-3,112.54.12c54.68,2.55,67.34,21.21,90.11,19.08,11.63-1.09,12.9-7.09,12.9-7.09s22.17,37.07-8.9,68.86l-3.09,23.62Z"/><path class="cls-6" d="M91.29,62.79S115.47,58,125.1,51.11c40-28.47,80.65-2,80.65-2a43.69,43.69,0,0,1-8,29C197.73,79.7,103,84.77,91.29,62.79Z"/><path class="cls-7" d="M74.43,103.57s-7-8.5-14.31-5.24c-7.61,3.38-4.77,42.21,26.71,41.49Z"/><path class="cls-7" d="M190.59,103.57s7-8.5,14.31-5.24c7.61,3.38,4.77,42.21-26.71,41.49Z"/><path class="cls-1" d="M197.77,84.26A103.64,103.64,0,0,1,195.9,104c-7,36.25-32.8,63.15-63.56,63.15-36.14,0-65.44-37.12-65.44-82.91a103.39,103.39,0,0,1,3.18-25.59s9,6,38,3.65C146.69,59.22,197.77,38.47,197.77,84.26Z"/><path class="cls-8" d="M116.67,138.79s20.9,1.59,36.34-2.37c0,0,5.77,17.41-18.17,17.07S116.67,138.79,116.67,138.79Z"/><path class="cls-4" d="M136.49,144c-6.75,0-12.51,2.9-14.77,7,2.83,1.44,7,2.44,13.12,2.53,7.89.11,12.55-1.7,15.26-4.19C147.35,146.12,142.28,144,136.49,144Z"/><path class="cls-2" d="M124.26,124.66s2.49-7.79,8.08-7.79,7.87,7.79,7.87,7.79-3.85-5.37-7.87-5.37S124.26,124.66,124.26,124.66Z"/><ellipse class="cls-9" cx="97.1" cy="109.9" rx="14.56" ry="11.46"/><ellipse class="cls-9" cx="167.57" cy="109.9" rx="14.56" ry="11.46"/><path class="cls-9" d="M196.81,98.46c.16-1.16.3-2.32.42-3.49l-21.09,10.42-21.33,3.84-12.59-.76a12.63,12.63,0,0,0-19.76,0l-12.59.76-21.34-3.84L67.44,95c.12,1.18.26,2.34.42,3.49l19.56,9.67.18.09,21.92,4,.17,0,13.66-.82.78-.06.4-.67a9.64,9.64,0,0,1,15.61,0l.39.69,14.28.86H155l22.08-4Z"/><path class="cls-9" d="M104.3,90.14a6.73,6.73,0,1,1-6.73-6.74A6.73,6.73,0,0,1,104.3,90.14Z"/><path class="cls-10" d="M98.69,85.45c.16.81-.85,1.7-2.25,2s-2.68-.15-2.84-1,.84-1.71,2.24-2S98.52,84.63,98.69,85.45Z"/><polygon class="cls-9" points="104.3 68.46 104.95 75.42 85.01 76.43 85.01 69.72 104.3 68.46"/><path class="cls-9" d="M176,90.14a6.74,6.74,0,1,1-6.74-6.74A6.73,6.73,0,0,1,176,90.14Z"/><path class="cls-10" d="M170.36,85.45c.16.81-.84,1.7-2.25,2s-2.67-.15-2.84-1,.84-1.71,2.25-2S170.19,84.63,170.36,85.45Z"/><polygon class="cls-9" points="162.51 68.46 161.87 75.42 181.8 76.43 181.8 69.72 162.51 68.46"/></g></g></svg>