<svg xmlns="http://www.w3.org/2000/svg" viewBox="0 0 164.72 275.79"><defs><style>.cls-1{fill:#f4efed;}.cls-2{fill:#3a332d;}.cls-3{fill:#383735;}.cls-4{fill:#e2dcd9;}.cls-5{fill:#3f3e3d;}.cls-6{fill:#4c453f;}.cls-7{fill:#f4d3b0;}.cls-8{fill:#f9dab4;}.cls-9{fill:#e8dfd9;}.cls-10{fill:#efc4a0;}.cls-11{fill:#492020;}.cls-12{fill:#c65044;}</style></defs><title>资源 58</title><g id="图层_2" data-name="图层 2"><g id="Layer_1" data-name="Layer 1"><rect class="cls-1" x="54.06" y="172.31" width="57.12" height="103.48"/><rect class="cls-2" x="76.32" y="174.87" width="10.95" height="12.81"/><polygon class="cls-2" points="98.77 275.79 84.85 186.44 78.48 186.44 66.97 275.79 98.77 275.79"/><path class="cls-3" d="M0,275.79H35c2.77-4.77,6.06-9,9.51-10.1l16.31-90.82-7.68-1S12.25,190.27,0,275.79Z"/><polygon class="cls-4" points="81.59 176.11 70.5 189.75 62.65 173.84 81.59 176.11"/><path class="cls-5" d="M33.59,275.79H56.9c1.83-27.92,5.47-73.92,11.29-107.29H56.61S34.72,194.68,33.59,275.79Z"/><path class="cls-3" d="M111.54,173.84l-7.68,1,16.32,90.82c3.44,1.12,6.74,5.33,9.5,10.1h35C152.48,190.27,111.54,173.84,111.54,173.84Z"/><polygon class="cls-4" points="83.14 176.11 94.22 189.75 102.08 173.84 83.14 176.11"/><path class="cls-5" d="M108.11,168.5H96.54c5.81,33.37,9.45,79.37,11.28,107.29h23.31C130,194.68,108.11,168.5,108.11,168.5Z"/><path class="cls-6" d="M11.25,100.83S6,80.64,9.6,63.93,14.32,50.52,14,43.24c0,0,3,1.82,3,4,0,0,9.1-27.63,31.6-33.26A14.3,14.3,0,0,0,47.4,21.4S67.92-4.58,111.82.71c0,0-5.24,6-3.76,8.94,0,0,20.19-3,27.64,3.14,0,0-5.46,4.47-5.13,7.28,0,0,16-.82,26.14,16.55,0,0-6,4.47-5.29,8,0,0,8.94,3.31,11.26,12.08,0,0-9.11,8.6-9.44,20.52s-3.8,23.66-4.46,24.49Z"/><path class="cls-2" d="M70.73,77.58S70.13,46,95.14,40.9c0,0-6,10.18-5.24,12.73,0,0,10.18-11.38,26.95-6.14,0,0-7.66,1.79-8.1,6,0,0,21.58-3.3,23.07,26.2C131.82,79.68,88.1,97.05,70.73,77.58Z"/><path class="cls-7" d="M23.75,101s-12.79-7.57-18,0,4.51,21.44,18,26.85Z"/><path class="cls-7" d="M137.25,101s12.8-7.57,18,0-4.5,21.44-18,26.85Z"/><path class="cls-8" d="M146.42,127.35c-3.47-7-6.36-8.65-6.36-27.18s-9-26.63-9-26.63C110,57.91,80.43,79.62,80.43,79.62S50.9,57.91,29.77,73.54c0,0-9,8.1-9,26.63s-2.9,20.2-6.37,27.18-6.95,50.7,66,50.7S149.9,134.33,146.42,127.35Z"/><path class="cls-2" d="M54.75,118.58a7.16,7.16,0,1,1-7.15-7.15A7.16,7.16,0,0,1,54.75,118.58Z"/><path class="cls-9" d="M49.76,113.89c.21,1-1,2.14-2.82,2.49s-3.37-.18-3.57-1.2,1.06-2.15,2.82-2.5S49.56,112.86,49.76,113.89Z"/><polygon class="cls-2" points="33.5 96.22 33.5 103.38 61.29 101.94 61.29 93.95 33.5 96.22"/><path class="cls-2" d="M118.1,118.58a7.16,7.16,0,1,1-7.16-7.15A7.17,7.17,0,0,1,118.1,118.58Z"/><path class="cls-9" d="M113.11,113.89c.21,1-1.06,2.14-2.82,2.49s-3.37-.18-3.58-1.2,1.06-2.15,2.83-2.5S112.9,112.86,113.11,113.89Z"/><polygon class="cls-2" points="125.04 96.22 125.04 103.38 97.25 101.94 97.25 93.95 125.04 96.22"/><path class="cls-10" d="M72.51,140.32s.52-9.32,7.88-10,11.08,8.92,11.08,8.92-5-6.58-10.68-6S72.51,140.32,72.51,140.32Z"/><path class="cls-11" d="M58.13,150.86s42.19,4.37,53.62-11.28c0,0,3.83,29.61-43.26,24.08C68.49,163.66,69.1,157.3,58.13,150.86Z"/><path class="cls-12" d="M102.16,159c-6.16-3-11.68-3.46-18.83-3.13-8.51.39-9.89,4.44-9.18,8.36C87.84,165,96.59,162.59,102.16,159Z"/></g></g></svg>