<svg xmlns="http://www.w3.org/2000/svg" viewBox="0 0 213.99 280.7"><defs><style>.cls-1{fill:#604133;}.cls-2{fill:#f4efed;}.cls-3{fill:#6d4c3a;}.cls-4{fill:#f9dab4;}.cls-5{fill:#515151;}.cls-6{fill:#606060;}.cls-7{fill:#4c3626;}.cls-8{fill:#f4d3b0;}.cls-9{fill:#c65044;}.cls-10{fill:#efc4a0;}.cls-11{fill:#3a332d;}.cls-12{fill:#e8dfd9;}</style></defs><title>资源 84</title><g id="图层_2" data-name="图层 2"><g id="Layer_1" data-name="Layer 1"><path class="cls-1" d="M49.29,66.85a12.66,12.66,0,0,1-9.15,7.05,36.63,36.63,0,0,1-28.72-7.51C.37,57.78-3.1,35.47,3,20.94c0,0,.43,6.15,4.29,7.15,0,0,3.72-20.31,19.17-23.17,0,0-1.72,5.57-1,8.15,0,0,9.16-16,32.47-12.59,0,0-10,7.15-6.86,13.73,0,0,16.44-3.14,22.17,4.58,0,0-9.73,1.57-10.3,10.73,0,0,13.3,1.57,13.73,11.58Z"/><path class="cls-2" d="M47.4,69.74s-4.57-7.6,1.91-17.7,11.71-11,21-9.51L54.14,69.74A12.18,12.18,0,0,1,47.4,69.74Z"/><path class="cls-3" d="M126.27,21.57C44.34,21.57,27,109.32,55.33,155c21.92,35.36,70.94,30.68,70.94,30.68s49,4.68,70.93-30.68C225.54,109.32,208.19,21.57,126.27,21.57Z"/><path class="cls-4" d="M64.57,280.7H83.38L85,229l-12.43-2.64S71.19,260.87,64.57,280.7Z"/><path class="cls-4" d="M189.07,280.7H170.26L168.67,229l12.43-2.64S182.45,260.87,189.07,280.7Z"/><rect class="cls-2" x="92.53" y="178.1" width="67.6" height="67.76"/><path class="cls-2" d="M84.42,184s-18.91,21.3-26.27,43.16c0,0,10.93,6.1,28.8,7.57Z"/><path class="cls-2" d="M167.78,184s18.92,21.3,26.27,43.16c0,0-10.93,6.1-28.79,7.57Z"/><path class="cls-5" d="M159.52,179.49l-33.19,28.4-33.65-28.4c-4,.81-7.05,2-7.92,3.68-4.31,8.43-4.1,71.76-3.84,97.53h90.36c.27-25.77.48-89.1-3.84-97.53C166.57,181.48,163.56,180.3,159.52,179.49Z"/><path class="cls-6" d="M93.6,180.26l-4.13,36.41c10.55-7.23,23-9.81,36.86-8.78Z"/><path class="cls-6" d="M158.39,180.46l4.35,36.21a67.49,67.49,0,0,0-36.41-8.78Z"/><path class="cls-7" d="M202.94,105.45,203,83.93a59.05,59.05,0,0,1,3.71,22.56S205,109.19,202.94,105.45Z"/><path class="cls-8" d="M64.17,108.71s-10.17-6.48-21-1.16-3.93,42.07,31.68,43Z"/><path class="cls-8" d="M188.25,108.71s10.17-6.48,21-1.16,3.93,42.07-31.67,43Z"/><path class="cls-4" d="M190.85,69l-64.58-1.26L61.68,69s-21.11,119.1,64.59,119.1S190.85,69,190.85,69Z"/><path class="cls-9" d="M114.72,164.66s3.07-4.62,6.61-4.4,5.47,3.61,5.47,3.61,3.19-3.54,6.91-3.47,5.35,4.61,5.35,4.61a14.45,14.45,0,0,1-12.53,7.05A12.76,12.76,0,0,1,114.72,164.66Z"/><path class="cls-10" d="M120.8,143.92s.6-5.45,5.86-5.47,6.33,5.47,6.33,5.47-2.87-3.36-6.23-3.36S120.8,143.92,120.8,143.92Z"/><path class="cls-11" d="M92,137.48h-.13c-.4,0-9.83-1-13.93-3.45a1.34,1.34,0,0,1,1.38-2.29c3.58,2.17,12.72,3.07,12.81,3.08a1.34,1.34,0,0,1-.13,2.67Z"/><path class="cls-11" d="M90.56,134.56c-8.14,0-12.74-6.41-12.94-6.68a1.34,1.34,0,0,1,2.19-1.54c0,.07,4,5.55,10.76,5.55h.16a1.34,1.34,0,0,1,0,2.68Z"/><path class="cls-11" d="M98.32,132.45a6.57,6.57,0,1,1-4.82-7.95A6.57,6.57,0,0,1,98.32,132.45Z"/><path class="cls-12" d="M94.9,127.17c0,1-1.42,1.68-3.07,1.61s-3-.89-2.93-1.85,1.41-1.69,3.07-1.62S94.93,126.21,94.9,127.17Z"/><path class="cls-7" d="M149.55,111v-3.15a.73.73,0,0,1,.63-.73c3.59-.5,21.49-2.7,30.17,2a.74.74,0,0,1,.27,1L179,112.83a.72.72,0,0,1-.85.32c-2.46-.81-13-3.81-27.73-1.45A.73.73,0,0,1,149.55,111Z"/><path class="cls-11" d="M163.74,137.48a1.34,1.34,0,0,1-.12-2.67c.09,0,9.23-.91,12.8-3.08a1.35,1.35,0,0,1,1.84.46,1.33,1.33,0,0,1-.46,1.83c-4.09,2.48-13.53,3.41-13.93,3.45Z"/><path class="cls-11" d="M165.17,134.56H165a1.34,1.34,0,0,1,0-2.68h.16c6.77,0,10.72-5.5,10.76-5.55a1.33,1.33,0,1,1,2.18,1.54C177.92,128.15,173.31,134.56,165.17,134.56Z"/><path class="cls-11" d="M157.41,132.45a6.58,6.58,0,1,0,4.83-7.95A6.58,6.58,0,0,0,157.41,132.45Z"/><path class="cls-12" d="M160.84,127.17c0,1,1.41,1.68,3.07,1.61s3-.89,2.92-1.85-1.41-1.69-3.06-1.62S160.8,126.21,160.84,127.17Z"/><path class="cls-7" d="M106.19,111v-3.15a.73.73,0,0,0-.63-.73c-3.59-.5-21.5-2.7-30.17,2a.72.72,0,0,0-.27,1l1.63,2.68a.74.74,0,0,0,.86.32c2.46-.81,13-3.81,27.72-1.45A.74.74,0,0,0,106.19,111Z"/><path class="cls-3" d="M202.13,77.32s7.79,41.34-13.63,61.72c0,0,5.69-42.25-26.67-55.43,0,0-25.77,18.12-61.57,21.27s-37.15,30.26-22,39.25a5.27,5.27,0,0,1-3.75,3.44c-7.81,1.51-23.1-3.22-19.92-46.58l3.89-36.56L195.8,62.64Z"/><path class="cls-7" d="M167.33,86.33c12.13-11.55,7.77-24.85,7.77-24.85.38,11.92-13.27,22.13-13.27,22.13a41.24,41.24,0,0,1,5.49,2.71Z"/></g></g></svg>