<svg xmlns="http://www.w3.org/2000/svg" viewBox="0 0 182.25 270.67"><defs><style>.cls-1{fill:#f9dab4;}.cls-2{fill:#f7cea6;}.cls-3{fill:#7f7f7f;}.cls-4{fill:#474747;}.cls-5{fill:#616363;}.cls-6{fill:#909393;}.cls-7{fill:#fff;}.cls-8{fill:#6dbdc6;}.cls-9{fill:#5c9ea0;}.cls-10{fill:#ea6868;}.cls-11{fill:#ce5252;}.cls-12{fill:#ea9696;}.cls-13{fill:#f9f7f2;}.cls-14{fill:#e5be9e;}.cls-15{fill:#44302c;}.cls-16{fill:#332423;}.cls-17{fill:#515151;}.cls-18{fill:#393c3d;}</style></defs><title>资源 212</title><g id="图层_2" data-name="图层 2"><g id="Layer_1" data-name="Layer 1"><path class="cls-1" d="M44.34,205S32,249.53,30,259.11a110.58,110.58,0,0,0-2.33,11.56H50.85c.17-3.91.23-8-2.52-10.8L63.12,211.8Z"/><path class="cls-2" d="M59,210.32c-2,8.84-7.18,31.56-8,33.34-1,2.21-5.28,16-5.28,16s5,2.83,4.11,10.81a1.94,1.94,0,0,1,0,.24h1c.17-3.91.23-8-2.52-10.8L63.12,211.8Z"/><path class="cls-3" d="M50.64,255.26a4.1,4.1,0,0,1,.86,4.58c-.58,1.66-2.34,1.61-3.83,1.5-4.9-.36-9.86-.92-14.75-1.44a42,42,0,0,0-4.33-.42c-.09-2.74,0-5.56-.29-8.28,4,.54,8.07,1.16,12.11,1.75,2.26.33,4.51.72,6.79.92A5.6,5.6,0,0,1,50.64,255.26Z"/><path class="cls-4" d="M36.45,252.37c-2.72-.41-5.43-.81-8.15-1.17.26,2.72.2,5.54.29,8.28a42,42,0,0,1,4.33.42l4.91.52A16.36,16.36,0,0,0,36.45,252.37Z"/><path class="cls-4" d="M47.2,253.87l-.27,0a14.63,14.63,0,0,1,1.59,7.54c1.26,0,2.51-.19,3-1.54a4.1,4.1,0,0,0-.86-4.58A5.6,5.6,0,0,0,47.2,253.87Z"/><path class="cls-5" d="M20.88,254.75c-.24,5.46,2.6,10.1,6.33,10.37s7-3.95,7.2-9.41-2.59-10.11-6.32-10.38S21.13,249.28,20.88,254.75Z"/><path class="cls-6" d="M21.56,254.8c-.21,4.88,2.1,9,5.17,9.26s5.72-3.54,5.93-8.43-2.11-9-5.17-9.27S21.77,249.91,21.56,254.8Z"/><path class="cls-7" d="M32.19,258.63a10.68,10.68,0,0,1-1.26,2.88l-5.65-14.6a3.86,3.86,0,0,1,1.87-.55Z"/><path class="cls-7" d="M30.07,262.6a5.89,5.89,0,0,1-.59.54L24,248a4.61,4.61,0,0,1,.59-.58Z"/><path class="cls-8" d="M62.7,168.06S41.51,180.41,28.06,196.8C34.51,206.38,58.83,215,62.51,216,67.12,183.35,71.17,172.3,62.7,168.06Z"/><path class="cls-9" d="M62.51,216c4.61-32.61,8.66-43.66.19-47.9A161.65,161.65,0,0,0,46.9,179c.08-.06,8.54-6,11.38-5.27s0,5-1.57,11.24-3.13,20.35-8,21.92-19.12-8.52-20.64-10C34.51,206.38,58.83,215,62.51,216Z"/><path class="cls-10" d="M43.91,189.3a3.83,3.83,0,0,1-1.47,1.38,3.77,3.77,0,0,1-1.18.41c.25,1.76-.71,5.23-1,6.17A6,6,0,0,0,46,199.43c3.33-.63,5.71-4.06,4-6.82C48.76,190.63,45.6,189.68,43.91,189.3Zm-6.73-.19L37.1,189a15,15,0,0,1-3,1.17c-1.39,1.39-2.74,2.83-4.05,4.3.05,3.93,4.65,7.29,7.24,5.9s3.47-7.21,3.68-9.2A3.85,3.85,0,0,1,37.18,189.11Zm-.43-1.51-1.27,1.21c.59,0,1.1-.1,1.49-.16A3.94,3.94,0,0,1,36.75,187.6Zm16.15-5.2a4.3,4.3,0,0,0-6.3-2.11c-1.18.63-2.53,2.73-3.33,4.13a4,4,0,0,1,.79,1,3.84,3.84,0,0,1,.1,3.4l3,.9c1.08.33,3,1.18,4.21.11A6.63,6.63,0,0,0,52.9,182.4Zm-7.07-2.54.07-.13c-1.49,1.18-3,2.43-4.56,3.75a3.87,3.87,0,0,1,1.5.61C43.76,182.85,45,181.18,45.83,179.86Z"/><path class="cls-11" d="M37.45,188.56a1,1,0,0,0,.07.15,1.42,1.42,0,0,0,.08.18,3.39,3.39,0,0,0,3.46,1.74h.09a3.25,3.25,0,0,0,1.06-.36,3.34,3.34,0,0,0,1.2-1.06,3.6,3.6,0,0,0,.29-.5,3.37,3.37,0,0,0-.06-3,3.16,3.16,0,0,0-.62-.82,3.32,3.32,0,0,0-.46-.38,3.38,3.38,0,0,0-1.7-.57q-1.83,1.56-3.64,3.26A3.41,3.41,0,0,0,37.45,188.56Z"/><path class="cls-12" d="M36.62,193.86A10.73,10.73,0,0,1,33.8,196a4.9,4.9,0,0,0,3.09-1.84A7.48,7.48,0,0,0,38.76,191C38.67,191,37.94,192.41,36.62,193.86Zm14.49-9.16A9,9,0,0,1,48,186c-1.83.36-3.38.26-3.39.37a7.24,7.24,0,0,0,3.47,0A4.4,4.4,0,0,0,51.11,184.7Zm-8,6c-.08.07.91,1.25,1.92,2.83a6,6,0,0,1,1.18,3.09c.24.08.3-1.7-.86-3.29A9.3,9.3,0,0,0,43.08,190.7Z"/><path class="cls-1" d="M161.81,259.11c-2-9.58-14.34-54.08-14.34-54.08l-18.78,6.77,14.79,48.07c-2.75,2.82-2.69,6.89-2.52,10.8h23.18A110.58,110.58,0,0,0,161.81,259.11Z"/><path class="cls-2" d="M141.94,270.43c-.86-8,4.12-10.81,4.12-10.81s-4.26-13.75-5.28-16c-.82-1.78-6-24.5-8-33.34l-4.09,1.48,14.79,48.07c-2.75,2.82-2.69,6.89-2.52,10.8h1Z"/><path class="cls-8" d="M129.11,168.06s21.19,12.35,34.63,28.74C157.3,206.38,133,215,129.29,216,124.69,183.35,120.64,172.3,129.11,168.06Z"/><path class="cls-9" d="M129.29,216c-4.6-32.61-8.65-43.66-.18-47.9A161.65,161.65,0,0,1,144.91,179c-.08-.06-8.54-6-11.38-5.27s0,5,1.57,11.24,3.13,20.35,8,21.92,19.11-8.52,20.63-10C157.3,206.38,133,215,129.29,216Z"/><path class="cls-2" d="M73.32,170.64v31.44h45.2V170.15S95.81,146.2,73.32,170.64Z"/><path class="cls-8" d="M120.36,166.83,94.84,189.55,71,167.45l-6.63,0S49.44,213.68,53.15,270.67h86.44c.67-20.28-1.93-82.4-11.85-103.73Z"/><path class="cls-9" d="M95.35,189.1l-.51.45.65-.3ZM73.94,171.19c4.42,9.4,8.47,24.14,8.47,24.14l12.43-5.78L74.81,171Z"/><path class="cls-9" d="M94.42,189.25l.18.08-.13-.12Zm21.15-18.15L94.92,189.48l13.3,6.57s4.29-16.32,7.76-24.86Z"/><path class="cls-9" d="M95.48,257.4c-.54.07-2.14-15.18-1.68-34,.29-18.8.78-34,1.12-34s.46,15.23.17,34C94.63,242.2,95.65,257.37,95.48,257.4Z"/><path class="cls-9" d="M113.73,195.7l15.35-2.21s2.34,13.66-.73,18.08-12.16,4-13.51-4.57A76.08,76.08,0,0,1,113.73,195.7Z"/><path class="cls-10" d="M68.92,238.43a4.57,4.57,0,0,1,3.76-.38c.72-2,3.67-5.07,4.49-5.9a7.07,7.07,0,0,0-4.78-5.47c-3.83-1.19-8.23,1.07-8,4.91C64.59,234.34,67.37,237.1,68.92,238.43Zm13-7.85c-3.53,0-7.66,5.61-9,7.57a4.57,4.57,0,0,1,2.89,4.23c0,.08,0,.15,0,.22,3.56,0,6.46,1.5,8.06.62C89.68,239.76,86.22,230.58,82,230.58ZM75.8,243a4.56,4.56,0,0,1-3.41,3.81,45.51,45.51,0,0,1-.25,6c-.38,3.65,6.29,3.84,8.43,2.58s5.43-4.75,1.94-8.24A17.91,17.91,0,0,0,75.8,243Zm-4.57,4a4.65,4.65,0,0,1-4.1-2.48c-1.65.78-3.86,1.86-5.49,2.76-3,1.63-1.07,6,1.45,8.49a5,5,0,0,0,7.61-.88c.86-1.5.9-5.7.86-7.91Zm-4.36-3.07a4.44,4.44,0,0,1-.26-1.51,4.51,4.51,0,0,1,1.79-3.6l-2.61-2.6c-.94-1-2.45-2.9-4.34-2.46a7.84,7.84,0,0,0-5.78,6.92c-.25,4.27,3,5.72,5.41,5.72C62.66,246.36,65.24,244.92,66.87,243.89Z"/><path class="cls-11" d="M72.64,238.63l-.1,0a4,4,0,0,0-1.31-.21,4.1,4.1,0,0,0-1.85.44,4.32,4.32,0,0,0-.58.36,4,4,0,0,0-1.63,3.2,4.3,4.3,0,0,0,.19,1.2,3.85,3.85,0,0,0,.28.66,4.05,4.05,0,0,0,3.59,2.15h.31a4.29,4.29,0,0,0,.81-.15,4,4,0,0,0,2.91-3.42,1.21,1.21,0,0,0,0-.19,1.93,1.93,0,0,0,0-.24A4,4,0,0,0,72.64,238.63Z"/><path class="cls-12" d="M69.69,233.44a11.24,11.24,0,0,0,.88,4c.12,0-.26-1.82-.44-4a7,7,0,0,1,.5-3.9C70.42,229.3,69.37,231.12,69.69,233.44Zm9.25,3.88a8.92,8.92,0,0,0-3.68,2.19c.07.11,1.64-1,3.83-1.78a12.62,12.62,0,0,1,4.11-.61A5.9,5.9,0,0,0,78.94,237.32Zm-4.08,8.33c-.08.1,1.42,1.22,2.76,3a9.64,9.64,0,0,1,1.61,3.69,5.12,5.12,0,0,0-1.25-4A8.24,8.24,0,0,0,74.86,245.65ZM66.78,250a11.29,11.29,0,0,1-2.63,2.73,5.07,5.07,0,0,0,3-2.48,8,8,0,0,0,1.46-3.63C68.48,246.58,67.93,248.24,66.78,250Zm-.24-8.9a8.79,8.79,0,0,0-3.63-1.92c-2.24-.76-4.17-.08-4.08,0a10.51,10.51,0,0,1,4,.37C64.91,240.25,66.47,241.22,66.54,241.1Z"/><path class="cls-10" d="M126.47,223c.18,2.75,3,5.51,4.51,6.84a4.64,4.64,0,0,1,2.31-.62,4.59,4.59,0,0,1,1.45.23,18.54,18.54,0,0,1,3.35-4.69c-.11-1.47-.23-2.95-.35-4.44a6.86,6.86,0,0,0-3.28-2.23C130.62,216.93,126.22,219.19,126.47,223Z"/><path class="cls-10" d="M123.14,237.8c1.58,0,4.17-1.44,5.79-2.47a4.69,4.69,0,0,1-.26-1.51,4.51,4.51,0,0,1,1.79-3.6l-2.61-2.6c-.94-1-2.45-2.9-4.33-2.46a7.84,7.84,0,0,0-5.79,6.92C117.48,236.35,120.69,237.8,123.14,237.8Z"/><path class="cls-10" d="M138.72,234.06c-.16-2.77-.35-5.59-.56-8.43a35.43,35.43,0,0,0-3.14,4,4.57,4.57,0,0,1,2.89,4.23c0,.08,0,.15,0,.22A7.42,7.42,0,0,1,138.72,234.06Z"/><path class="cls-10" d="M138.76,234.76l-.89-.33a4.59,4.59,0,0,1-3.42,3.81,45.51,45.51,0,0,1-.25,6c-.25,2.42,2.6,3.32,5.17,3.28C139.22,243.45,139,239.18,138.76,234.76Z"/><path class="cls-10" d="M129.19,235.92c-1.65.78-3.85,1.86-5.48,2.76-3,1.63-1.07,6,1.44,8.49a5,5,0,0,0,7.61-.88c.86-1.51.9-5.7.86-7.91l-.33,0A4.65,4.65,0,0,1,129.19,235.92Z"/><path class="cls-11" d="M134.7,230.07l-.1,0a4,4,0,0,0-1.31-.21,4.1,4.1,0,0,0-1.85.44,4.32,4.32,0,0,0-.58.36,4,4,0,0,0-1.44,4.4,4.84,4.84,0,0,0,.28.66,4.05,4.05,0,0,0,3.59,2.15l.32,0a3.63,3.63,0,0,0,.8-.14,4,4,0,0,0,2.91-3.42,1.21,1.21,0,0,0,0-.19,1.94,1.94,0,0,0,0-.24A4,4,0,0,0,134.7,230.07Z"/><path class="cls-12" d="M138.49,230.37c0-.12,0-.24,0-.36-.77.49-1.19.89-1.15.94A5.49,5.49,0,0,0,138.49,230.37Z"/><path class="cls-12" d="M131.75,224.88a11.24,11.24,0,0,0,.88,4c.12,0-.26-1.82-.44-4a7.07,7.07,0,0,1,.5-3.9C132.48,220.74,131.43,222.56,131.75,224.88Z"/><path class="cls-12" d="M124.85,231c2.12.65,3.69,1.61,3.75,1.5a8.79,8.79,0,0,0-3.63-1.92c-2.24-.76-4.17-.08-4.08,0A10.56,10.56,0,0,1,124.85,231Z"/><path class="cls-12" d="M128.84,241.44a11.58,11.58,0,0,1-2.62,2.73,5.1,5.1,0,0,0,3-2.48,8.09,8.09,0,0,0,1.45-3.63C130.54,238,130,239.68,128.84,241.44Z"/><path class="cls-12" d="M139,238.62a5.8,5.8,0,0,0-2.06-1.53c-.07.08,1,.87,2.09,2.18Z"/><ellipse class="cls-1" cx="92.27" cy="108.56" rx="70.1" ry="70.93"/><path class="cls-2" d="M161,122.62l-.59.12c-1.59,7-8.23,22.67-19.28,34.15s-33.9,20.75-47.65,20.75C61,176.17,47.16,160.69,39.3,151.11a140.16,140.16,0,0,1-14-21.54c8.85,28.91,35.48,49.91,67,49.91C126.22,179.48,154.54,155.05,161,122.62Z"/><path class="cls-2" d="M92.27,37.63a69.92,69.92,0,0,0-61,36h0c11.69,11.7,34.35,11.19,34.35,11.19-5.44-1.75-14.5-10-14.5-10C71.51,76.66,128,79.39,128,79.39a32.26,32.26,0,0,1-6.57-4c9.46,3,37.06,10.13,37.12,10.15A70.19,70.19,0,0,0,92.27,37.63Z"/><path class="cls-2" d="M103,104.65s9.59,21-.15,29-22.4,3.27-24.5-2.49c-3.71-10.19,5.23-13.32,7-27.25a10.75,10.75,0,0,1,8.3-3.72C99.15,100.1,103,104.65,103,104.65Z"/><path class="cls-1" d="M102.09,103.77s8.51,17.83-.16,25.12-20,3-21.82-2.3c-3.31-9.33,4.54-11.39,6.06-24.14a10.89,10.89,0,0,1,7.55-2.79C98.71,99.6,102.09,103.77,102.09,103.77Z"/><path class="cls-13" d="M86,125.34c0,.71,1.45,1.25,3.18,1.2s3.14-.67,3.11-1.38-1.46-1.25-3.19-1.19S86,124.63,86,125.34Z"/><path class="cls-10" d="M95,169.67c15.87,0,28.77-11.46,29-25.67H66C66.22,158.21,79.12,169.67,95,169.67Z"/><path class="cls-11" d="M76.55,163.72a31.56,31.56,0,0,0,36.89,0c-2.18-5.21-9.61-9.05-18.44-9.05S78.73,158.51,76.55,163.72Z"/><path class="cls-1" d="M31,136.4s-7.12,14.74-22.54-2c-8.11-8.78-10.64-30,5.27-30.81,14.11-.72,16,16.65,16,16.65Z"/><path class="cls-2" d="M19.67,116.46c.8,2.84.93,6.21,1.28,8.1a36.77,36.77,0,0,0,.95,4.38c1.1,3.5-4.84,1.27-6.19.53C10.34,126.5,4,114.34,13,111.78,17,110.64,18.76,113.2,19.67,116.46Z"/><path class="cls-14" d="M8.54,118.37c.46,4.32,4,9.33,7.17,11.1,1.35.74,7.29,3,6.19-.53a20.27,20.27,0,0,1-.58-2.39h0C18.42,119.94,11.87,118.61,8.54,118.37Z"/><path class="cls-2" d="M30,138l-1.31-1.76S23,140.64,16.74,138s-15-11.91-14.55-23.17c-.78,6.76,2,14.94,6.27,19.61C20.55,147.53,27.53,141.3,30,138Z"/><path class="cls-1" d="M153.31,136.4s7.12,14.74,22.54-2c8.11-8.78,10.64-30-5.27-30.81-14.11-.72-16,16.65-16,16.65Z"/><path class="cls-2" d="M164.64,116.46c-.8,2.84-.93,6.21-1.28,8.1a36.77,36.77,0,0,1-1,4.38c-1.1,3.5,4.84,1.27,6.19.53,5.37-3,11.67-15.13,2.73-17.69C167.33,110.64,165.55,113.2,164.64,116.46Z"/><path class="cls-14" d="M175.77,118.37c-.46,4.32-4,9.33-7.17,11.1-1.35.74-7.29,3-6.19-.53a20.27,20.27,0,0,0,.58-2.39h0C165.89,119.94,172.44,118.61,175.77,118.37Z"/><path class="cls-2" d="M154.32,138l1.31-1.76s5.65,4.4,11.94,1.77,15.05-11.91,14.55-23.17c.78,6.76-2,14.94-6.27,19.61C163.76,147.53,156.78,141.3,154.32,138Z"/><path class="cls-15" d="M155.73,78.51c-14.5,1.07-30.76-3.93-38.68-6.29a41.3,41.3,0,0,0-14.19-1.77c5.71,1.38,14,4.52,14,4.52s7.46,1.67,0,1.67c-7.3,0-31.65-1.63-50.66-2.26-18.41-.61-19.71-3.73-19.71-3.73s5,10,12.16,13c0,0-18.24-.59-26.72-12.37,0,0-2.08,13.18,3,55.78,0,2.62-6.72,1.82-6.72,1.82s-.53-25.38-19.47-24c0,0-7.52-11.9-8.69-31.61,0,0,1.25,3.48,6.26,6.69A53.06,53.06,0,0,1,13.51,42.3s-.25,9.16,4,13.75c0,0,5.41-32.22,39.31-46.1a50.15,50.15,0,0,0-4.43,13.1S68.9,3.41,102.8,0c0,0-8.35,6.81-8.35,12.57,0,0,25.54-16.76,53.3,5.5,0,0-12.77-1.83-16.21,3.93,0,0,28.49-3.14,45.44,27,0,0-7.86-5.77-15.72-3.67,0,0,14.74,8.64,18.42,32.74,0,0-4.17-7.07-12.28-8.38,0,0,9.86,15.22,4.88,34.15,0,0-14.24,2.28-15.35,25.3,0,0-6.79,1.75-5.74-5.76,1.39-9.94,3.36-22.15,4.07-30.5Z"/><path class="cls-16" d="M13.51,42.3l-.2.32c-.39,3.91-.79,14,4.76,18.08,0,0-.25-2.21-.52-4.67C13.27,51.44,13.51,42.3,13.51,42.3Z"/><path class="cls-16" d="M0,73.19H0a17.09,17.09,0,0,0,2,5c1.52,2.93,5.32,3.91,5.32,3.91L6.24,79.86C1.25,76.66,0,73.19,0,73.19Z"/><path class="cls-16" d="M48.51,29.15l4.06-6.25-.13.15A50,50,0,0,1,56.86,10C54.73,12.15,49.93,18.17,48.51,29.15Z"/><path class="cls-16" d="M94.45,12.57C94.45,6.81,102.8,0,102.8,0l-.63.07c-3,1.67-11,7.07-11.74,17.66l4.21-5.28Z"/><path class="cls-16" d="M123.77,22.43l7.77-.43c3.44-5.76,16.21-3.93,16.21-3.93l-.2-.15C129.19,9.73,123.77,22.43,123.77,22.43Z"/><path class="cls-16" d="M177,49c-.12-.23-.25-.44-.38-.66-2-2-6.16-5.22-13.59-7.19-6.08-1.66-13.63-.55-13.63-.55L161.3,45.3C169.15,43.23,177,49,177,49Z"/><path class="cls-17" d="M47.31,90.71c-18.63,4-18.63,20.77-18.63,20.77,0,9.45,1,14.73,5.39,21.66s22.59,11,36.26.12,18.19-26.12,13.86-33.68S65.94,86.74,47.31,90.71Zm90.44,0c-18.63-4-32.56,1.32-36.89,8.87s.19,22.86,13.87,33.68,31.86,6.8,36.26-.12,5.39-12.21,5.39-21.66C156.38,111.48,156.38,94.67,137.75,90.71Z"/><path class="cls-18" d="M162.11,111.3l1.49-2h-6.47a23.91,23.91,0,0,0-2.24-7.18c-2.41-4.9-7.35-10.35-16.95-12.38a60.47,60.47,0,0,0-12.49-1.37,41.29,41.29,0,0,0-15.23,2.67H74.84a41.33,41.33,0,0,0-15.23-2.67,60.57,60.57,0,0,0-12.5,1.37c-9.59,2-14.53,7.48-16.95,12.38a24.13,24.13,0,0,0-2.23,7.18H21.17a15.11,15.11,0,0,1,1.76,2.21c.5.74,1.27,2.2,1.27,2.2h3.56c.16,8.15,1.39,13.42,5.52,19.9,2.77,4.28,9.72,7.21,17.78,7.24h0A31.91,31.91,0,0,0,70.91,134c10.54-8.36,15.79-19.29,15.81-27.7a16.05,16.05,0,0,0-.68-4.8l.31-.11a42.26,42.26,0,0,1,5.81-1.61,5.21,5.21,0,0,1,.6,0,23.2,23.2,0,0,1,5.76,1.16l.63.2a16,16,0,0,0-.81,5.19c0,8.41,5.27,19.34,15.8,27.7A31.87,31.87,0,0,0,134,140.89c8.07,0,15-3,17.79-7.24,4.12-6.48,5.36-11.75,5.52-19.9h3.34S161.57,112,162.11,111.3ZM69.75,132.52A30,30,0,0,1,51.06,139c-7.6,0-14.08-2.95-16.19-6.37-4.29-6.8-5.24-11.75-5.25-21.15v-.15a21.79,21.79,0,0,1,2.67-9.18C34.66,97.9,39,93.45,47.5,91.63A58.25,58.25,0,0,1,59.61,90.3c12.13,0,20.75,4.42,23.77,9.75a12.63,12.63,0,0,1,1.46,6.26C84.85,113.94,79.9,124.5,69.75,132.52ZM99,99.3a24,24,0,0,0-6.25-1.24,5.89,5.89,0,0,0-.85,0,45.62,45.62,0,0,0-6.48,1.81q-.2-.42-.42-.81a17.72,17.72,0,0,0-6.46-6.2h28a17.77,17.77,0,0,0-6.45,6.2c-.08.14-.16.29-.23.44Zm51.18,33.33c-2.11,3.42-8.6,6.4-16.2,6.37a30,30,0,0,1-18.68-6.48c-10.16-8-15.11-18.58-15.09-26.21a12.52,12.52,0,0,1,1.46-6.26c3-5.32,11.6-9.75,23.7-9.75h.07a58.16,58.16,0,0,1,12.1,1.33c9,1.94,13.41,6.88,15.66,11.37a22.55,22.55,0,0,1,1.95,6,17.54,17.54,0,0,1,.24,1.86c0,.22,0,.39,0,.51v.15C155.42,120.88,154.48,125.83,150.19,132.63Z"/><path class="cls-7" d="M44.49,94.36c-8.79.63-12.8,9.32-12,14.41.3,1.87,1.45,4,3.59,4s2.76-2.2,3.51-3.8a21.08,21.08,0,0,1,4.55-6l.56-.52c1.56-1.39,3.4-2.62,4.49-4.4C51,95,46.65,94.2,44.49,94.36Zm96.08,0c-2.16-.16-6.55.63-4.71,3.63,1.09,1.78,2.93,3,4.49,4.4l.56.52a21.26,21.26,0,0,1,4.55,6c.74,1.6,1.4,3.74,3.51,3.8s3.28-2.09,3.58-4C153.37,103.68,149.35,95,140.57,94.36Z"/></g></g></svg>