<svg xmlns="http://www.w3.org/2000/svg" viewBox="0 0 153.29 260.01"><defs><style>.cls-1{fill:#f9dab4;}.cls-2{fill:#eae5dc;}.cls-3{fill:#f9f5ed;}.cls-4{fill:#82983d;}.cls-5{fill:#efc4a0;}.cls-6{fill:#6d4c3a;}.cls-7{fill:#f4d3b0;}.cls-8{fill:#2a546b;}.cls-9{fill:#6dbdc6;}</style></defs><title>资源 343</title><g id="图层_2" data-name="图层 2"><g id="Layer_1" data-name="Layer 1"><path class="cls-1" d="M11.67,260H34.48c6.82-20.2,12.62-58.5,12.62-58.5H26.62Z"/><path class="cls-2" d="M54.14,159s-18-7.34-34.84,44c0,0,20.11,7.71,34.84,3.73Z"/><path class="cls-1" d="M142.11,260H119.3c-6.82-20.2-12.62-58.5-12.62-58.5h20.49Z"/><path class="cls-2" d="M99.64,159s18-7.34,34.85,44c0,0-20.11,7.71-34.85,3.73Z"/><path class="cls-3" d="M76.65,154.67l-.61,0v.09l-32,2.44S37.26,219.72,34.17,260h85c-3.09-40.29-9.84-102.85-9.84-102.85l-32-2.44v-.09Z"/><path class="cls-4" d="M119.09,259.57c-.69-8.88-1.54-18.78-2.46-28.87h-80c-.93,10.09-1.78,20-2.46,28.87Z"/><path class="cls-5" d="M90.21,165.65c0,6.49-6.08,17.54-13.56,17.54s-13.56-11.05-13.56-17.54,6.07-11.75,13.56-11.75S90.21,159.16,90.21,165.65Z"/><path class="cls-6" d="M146.25,41.87C142.07,22.85,105.32,1.18,78.5,0H74.79C48,1.18,11.22,22.85,7.05,41.87c-4.34,19.77,3.85,72.45,3.85,72.45H142.39S150.59,61.64,146.25,41.87Z"/><path class="cls-7" d="M20.67,114.57s-8.32-10.21-17.58-5.46S6.66,144.91,25,147.44Z"/><path class="cls-7" d="M132.62,114.57s8.32-10.21,17.58-5.46-3.56,35.8-21.85,38.33Z"/><path class="cls-1" d="M124.82,154.24s-18.67,12.46-48.17,12.94-48.19-12.94-48.19-12.94a29.52,29.52,0,0,1-11.55-23.47V47.71s10.34-8.89,28.31-8.58,49.27-.31,64.89-.18a45.76,45.76,0,0,1,26.28,8.76v83.06A29.48,29.48,0,0,1,124.82,154.24Z"/><path class="cls-6" d="M9.53,68.69s19-8.43,29.41-20.24L29.06,63.87,72.2,42.66,51.71,57.36,79.19,46.52,65.45,61.22l44.84-14.7L92.69,57.36l34.92-3.42-7.92,5.35,23.86,4.34s3.38-16.39-16.87-26.27c-12.66-6.18-58.8-12.93-89-4.1C19.65,38.56,9.71,50.43,9.53,68.69Z"/><path class="cls-8" d="M62.61,105.91l-2.46-1.53a19,19,0,0,1,17.24-8.09c11.45.76,16,7.79,16.14,8.09l-2.46,1.52c-.16-.24-4-6.07-13.87-6.73A16.1,16.1,0,0,0,62.61,105.91Z"/><path class="cls-9" d="M66.63,101.34s-49.72-5.6-50.26,3.8,9,20.79,25.13,20.07S66.63,101.34,66.63,101.34Z"/><path class="cls-9" d="M86.67,101.34s49.71-5.6,50.26,3.8-9,20.79-25.13,20.07S86.67,101.34,86.67,101.34Z"/><path class="cls-3" d="M23.21,119.39a23.48,23.48,0,0,0,5.57,3.52L49,100c-2.74-.14-5.59-.23-8.44-.27Z"/><path class="cls-3" d="M105.81,123.83l20.78-23.57c-2.49-.29-5.28-.46-8.2-.54l-18.24,20.69A23,23,0,0,0,105.81,123.83Z"/><path class="cls-6" d="M52.19,75.51c2.76,1.09,3,7.2,3,7.2H25s.29-5.51,2.72-7.4S49.42,74.42,52.19,75.51Z"/><path class="cls-6" d="M101.11,75.51c-2.76,1.09-3,7.2-3,7.2h30.27s-.29-5.51-2.72-7.4S103.87,74.42,101.11,75.51Z"/><path class="cls-5" d="M88.2,131.8s-2.62-8.4-11.07-8.94-12,10.29-12,10.29,5.3-8,12-7.29S88.2,131.8,88.2,131.8Z"/><path class="cls-5" d="M41.26,146.44l3.06.52c1.94.35,4.73.69,8.06,1.11l5.38.55,6,.44,6.43.23,6.63-.07c2.13,0,4.45-.25,6.64-.37s4.29-.44,6.37-.64,4-.59,6-.84,3.66-.68,5.32-1c6.59-1.25,10.92-2.58,10.92-2.58s-1,.55-2.8,1.36c-.92.37-2,.87-3.32,1.34s-2.74,1.08-4.38,1.53-3.39,1.08-5.3,1.47-3.89,1-6,1.26-4.33.77-6.53.9-4.4.39-6.76.48l-6.79,0-6.56-.49a109.69,109.69,0,0,1-11.47-1.92A73.8,73.8,0,0,1,41.26,146.44Z"/></g></g></svg>