<svg xmlns="http://www.w3.org/2000/svg" viewBox="0 0 192.94 270.52"><defs><style>.cls-1{fill:#f2d0af;}.cls-2{fill:#3c7a62;}.cls-3{fill:#326b54;}.cls-4{fill:#438970;}.cls-5{fill:#e0dbd3;}.cls-6{fill:#c6c1ba;}.cls-7{fill:#6b4627;}.cls-8{fill:#f4d3b0;}.cls-9{fill:#4c3626;}.cls-10{fill:#ddb58e;}.cls-11{fill:#3a332d;}</style></defs><title>资源 249</title><g id="图层_2" data-name="图层 2"><g id="Layer_1" data-name="Layer 1"><path class="cls-1" d="M35.24,270.52H60.36l1.32-18.43-23.23-1.17S36.65,260.88,35.24,270.52Z"/><path class="cls-1" d="M154.49,250.92l-23.23,1.17,1.32,18.43H157.7C156.29,260.88,154.49,250.92,154.49,250.92Z"/><path class="cls-2" d="M50.42,198s-11.84,5.23-15.08,51.68l19,4.14V198Z"/><path class="cls-3" d="M35.76,244.45c-.15,1.69-.3,3.42-.42,5.24l19,4.14v-5.78C48.19,246.56,41.94,245.7,35.76,244.45Z"/><path class="cls-2" d="M53.25,250.57c-6.73-2.16-20.18-6.15-24.39-5,0,0-2.87,2.62-1.56,10.91,0,0,19.19,2.83,25.51,5.45l.44-1Z"/><path class="cls-2" d="M142.53,198s11.83,5.23,15.07,51.68l-19,4.14V198Z"/><path class="cls-3" d="M157.18,244.45c.15,1.69.3,3.42.42,5.24l-19,4.14v-5.78C144.75,246.56,151,245.7,157.18,244.45Z"/><path class="cls-2" d="M139.69,250.57c6.74-2.16,20.18-6.15,24.39-5,0,0,2.87,2.62,1.56,10.91,0,0-19.19,2.83-25.51,5.45l-.44-1Z"/><path class="cls-4" d="M135.91,193.65H57s-9,5.89-9,25.95v50.92h96.83V219.6C144.89,199.54,135.91,193.65,135.91,193.65Z"/><rect class="cls-2" x="94.73" y="192.59" width="3.49" height="77.93"/><path class="cls-2" d="M96.47,196.92s4.27,9.16,6.7,7.41S109.58,199.32,96.47,196.92Z"/><path class="cls-5" d="M163.11,188.15c0-3.13-5.59-9.16-10.06-13.41s-19.23-11.18-19.23-11.18l-37.35,1.1-37.34-1.1s-14.76,6.93-19.23,11.18S29.83,185,29.83,188.15s9.62,10.29,9.62,10.29-5.14,4.7-4.92,6.71,3.35,4.92,5.81,4,11.86-6.7,14.09-7.38,37.64-5.39,42-6c4.4.58,39.94,5.35,42,6s11.63,6.49,14.09,7.38,5.59-2,5.81-4-4.92-6.71-4.92-6.71S163.11,191.29,163.11,188.15Z"/><path class="cls-4" d="M68.81,172.13s22.43,18.51,27.66,18.56,27.66-18.56,27.66-18.56Z"/><path class="cls-5" d="M96.47,0C74.29,0,46.94,5.31,32.7,16.94-4.43,47.24.18,108.26.18,122.38c0,19.87.87,45.1,25.87,44.46s23.41-15.21,23.41-15.21l41.25,2.5v.7l5.76-.35,5.76.35v-.7l41.25-2.5s-1.58,14.56,23.41,15.21,25.87-24.59,25.87-44.46c0-14.33,4.75-77-34.21-106.78C144.4,4.77,118.66,0,96.47,0Z"/><path class="cls-6" d="M166.42,74.15c-1.65-4.9-19.76-31.6-37.86-39.19-12.5-5.24-32.09-4.41-32.09-4.41S76.89,29.72,64.39,35C46.28,42.55,28.17,69.25,26.52,74.15s0,50.94,0,50.94l65.12,4.27V130l4.83-.32,4.83.32v-.63l65.12-4.27S168.06,79.05,166.42,74.15Z"/><path class="cls-6" d="M126.54,180s-.42.29-1.18.77-1.84,1.16-3.15,1.94l-4.5,2.64c-1.64,1-3.42,1.94-5.12,3a19.61,19.61,0,0,0-2.4,1.6c-.17.13-.3.31-.3.28a.38.38,0,0,0,0-.15.25.25,0,0,0,0-.08l0-.2v0s0,.18,0,0,0-.07,0-.06a5.33,5.33,0,0,0,1.11.48c1.74.54,3.5.88,5,1.21l5,1.06a50.73,50.73,0,0,1-5.13-.07,30.34,30.34,0,0,1-5.27-.73,5.81,5.81,0,0,1-1.57-.59,1.55,1.55,0,0,1-.57-.56,1.18,1.18,0,0,1-.13-.3v0c-.06-.36,0-.13,0-.21V190l0-.16a1.59,1.59,0,0,1,.09-.33,2.68,2.68,0,0,1,.7-.83,20.21,20.21,0,0,1,2.6-1.83,82.72,82.72,0,0,1,10.08-5c1.41-.6,2.62-1,3.45-1.36S126.54,180,126.54,180Z"/><path class="cls-6" d="M66.4,180l1.18.77c.77.46,1.84,1.16,3.15,1.94l4.5,2.64c1.64,1,3.42,1.94,5.12,3a18.87,18.87,0,0,1,2.4,1.6c.17.13.3.31.3.28a.38.38,0,0,1,0-.15.25.25,0,0,1,0-.08l0-.2v0s-.05.18,0,0,0-.07,0-.06a5.11,5.11,0,0,1-1.11.48c-1.73.54-3.5.88-5,1.21l-5,1.06a50.73,50.73,0,0,0,5.13-.07,30.34,30.34,0,0,0,5.27-.73,5.69,5.69,0,0,0,1.57-.59,1.55,1.55,0,0,0,.57-.56,1.18,1.18,0,0,0,.13-.3v0c.06-.36,0-.13,0-.21V190l0-.16a1.59,1.59,0,0,0-.09-.33,2.82,2.82,0,0,0-.69-.83,20.3,20.3,0,0,0-2.61-1.83,82.72,82.72,0,0,0-10.08-5c-1.4-.6-2.62-1-3.45-1.36S66.4,180,66.4,180Z"/><path class="cls-2" d="M57.64,251.26,78.57,246s4.54,15.26,1.74,17.44-13.52,4.8-13.52,4.8S60.22,270.67,57.64,251.26Z"/><path class="cls-2" d="M135.3,251.26,114.37,246s-4.54,15.26-1.74,17.44,13.52,4.8,13.52,4.8S132.72,270.67,135.3,251.26Z"/><path class="cls-7" d="M161.33,77.21C159.8,72.85,143,49.08,126.22,42.32c-11.59-4.67-29.75-3.93-29.75-3.93s-18.16-.74-29.75,3.93C49.93,49.08,33.14,72.85,31.61,77.21s0,45.35,0,45.35L92,126.36v.56l4.48-.28,4.48.28v-.56l60.38-3.8S162.86,81.57,161.33,77.21Z"/><path class="cls-8" d="M44.4,122.9s-8.73-10.08-15.77-2.51c-7.76,8.34,2.18,29.2,18.06,29.33Z"/><path class="cls-8" d="M148.54,122.9s8.73-10.08,15.78-2.51c7.75,8.34-2.18,29.2-18.07,29.33Z"/><path class="cls-1" d="M39.75,82.29v52.23c0,23.42,18.16,42.41,40.57,42.41h32.31c22.4,0,40.56-19,40.56-42.41V82.29Z"/><path class="cls-7" d="M39.75,109c7.87-4.3,27.55-14.83,30.34-14.13,3.33.83,16.22,12.39,25.73,13.23h1.3c9.52-.84,22.4-12.4,25.73-13.23,2.79-.7,22.47,9.83,30.34,14.13l1.86-31.94H36.87Z"/><path class="cls-9" d="M122.85,87.89c-3.33.84-16.21,12.4-25.73,13.23h-1.3c-9.51-.83-22.4-12.39-25.73-13.23C67.3,87.2,47.62,97.72,39.75,102v7c7.87-4.3,27.55-14.83,30.34-14.13,3.33.83,16.22,12.39,25.73,13.23h1.3c9.52-.84,22.4-12.4,25.73-13.23,2.79-.7,22.47,9.83,30.34,14.13v-7C145.32,97.72,125.64,87.2,122.85,87.89Z"/><path class="cls-10" d="M107.22,138a12.32,12.32,0,0,1-10.7,6.19c-5.62.05-10.8-5.42-10.8-5.42s6,3.62,10.37,3.61A18.15,18.15,0,0,0,107.22,138Z"/><path class="cls-11" d="M61.49,135.24a1.27,1.27,0,0,1-1.25-1.15,6.77,6.77,0,0,1,5.1-7c4.41-1.3,7.67,2.12,8.77,4.11a1.26,1.26,0,1,1-2.2,1.23c-.09-.16-2.29-4-5.86-2.93a4.23,4.23,0,0,0-3.3,4.37,1.25,1.25,0,0,1-1.14,1.37Z"/><polygon class="cls-9" points="74.22 117.57 75.37 120.53 54.57 122.77 55.53 117.81 74.22 117.57"/><path class="cls-11" d="M131.45,135.24h-.12a1.26,1.26,0,0,1-1.14-1.36,4.24,4.24,0,0,0-3.3-4.38c-3.57-1.05-5.77,2.77-5.86,2.93a1.26,1.26,0,0,1-2.2-1.23c1.1-2,4.36-5.41,8.77-4.11a6.77,6.77,0,0,1,5.1,7A1.27,1.27,0,0,1,131.45,135.24Z"/><polygon class="cls-9" points="118.72 117.57 117.57 120.53 138.37 122.77 137.41 117.81 118.72 117.57"/><path class="cls-10" d="M72.59,155.49l2-.23c1.3-.1,3.17-.32,5.4-.46s4.85-.36,7.64-.49,5.78-.25,8.77-.35,6-.13,8.77-.13,5.41,0,7.65.06,4.11.14,5.42.18l2.06.11-2,.23c-1.3.1-3.16.33-5.4.47s-4.84.35-7.64.48-5.78.25-8.77.35-6,.13-8.77.13-5.41-.05-7.65-.07-4.11-.13-5.42-.17Z"/><path class="cls-10" d="M88.08,164.86a20.21,20.21,0,0,1,2.62-.49,44.58,44.58,0,0,1,11.54,0,21.58,21.58,0,0,1,2.63.5,20.29,20.29,0,0,1-2.63.51,44.58,44.58,0,0,1-11.54,0A19.06,19.06,0,0,1,88.08,164.86Z"/></g></g></svg>