<svg xmlns="http://www.w3.org/2000/svg" viewBox="0 0 155.63 259.62"><defs><style>.cls-1{fill:#2d2723;}.cls-2{fill:#ad3936;}.cls-3{fill:#f4d3b0;}.cls-4{fill:#f9dab4;}.cls-5{fill:#d15852;}.cls-6{fill:#c65044;}.cls-7{fill:#efc4a0;}.cls-8{fill:#3a332d;}.cls-9{fill:#e8dfd9;}</style></defs><title>资源 181</title><g id="图层_2" data-name="图层 2"><g id="Layer_1" data-name="Layer 1"><path class="cls-1" d="M141,33.06C118.94.06,89,0,77.81,0S36.69.06,14.64,33.06c-26.78,40.08-9.2,100.19-6.28,123.28s13.39,61.42,2.09,63.17c0,0-4.18,7.4,5.44,12.19H10s5.44,21.78,23.85,18.73c12.94-2.14,33.09-3,43.93-3.31,10.85.32,31,1.17,43.94,3.31,18.41,3,23.84-18.73,23.84-18.73h-5.86c9.63-4.79,5.44-12.19,5.44-12.19-11.29-1.75-.83-40.08,2.09-63.17S167.76,73.14,141,33.06Z"/><path class="cls-2" d="M54.42,170.1s-24.66,60-33.11,89.52H54.5C61.73,223.14,66.6,159,54.42,170.1Z"/><path class="cls-2" d="M101.2,170.1c-12.18-11.15-7.3,53-.07,89.52h33.19C125.86,230.12,101.2,170.1,101.2,170.1Z"/><path class="cls-2" d="M95.13,157.77l-17.32,4.3-17.31-4.3s-4.06,9.92-1.83,12.52,5.72,3.63,18.58,3.89v0h1.13v0c12.85-.26,16.41-1.36,18.57-3.89S95.13,157.77,95.13,157.77Z"/><path class="cls-3" d="M38.64,119.48s-12.83-16.92-22.24-4.75,11.12,34.06,27.65,29.5Z"/><path class="cls-3" d="M117,119.48s12.83-16.92,22.23-4.75-11.11,34.06-27.65,29.5Z"/><path class="cls-4" d="M114.84,72.7c-15.84-.43-19.64,10.36-37,9.59-17.39.77-21.2-10-37-9.59-4.34.12-8,2.75-11.16,6.49a64.6,64.6,0,0,0-5.37,26c0,32.84,24,59.46,53.56,59.46s53.54-26.62,53.54-59.46a64.65,64.65,0,0,0-5.37-26C122.89,75.44,119.18,72.82,114.84,72.7Z"/><path class="cls-5" d="M77.81,167.22S58.09,162.64,55,171.14c-3.11,8.65-19.79,73.15-17.22,88.48h80c2.57-15.33-14.1-79.83-17.22-88.48C97.54,162.64,77.81,167.22,77.81,167.22Z"/><path class="cls-1" d="M98.38,95.43s8.57-9.61,24.76-4.28l-1.51,4.51s-14.06-3-20.93,4Z"/><path class="cls-1" d="M57.26,94.93s-9-9.24-24.92-3.23L34,96.14S48,92.54,55.12,99.2Z"/><path class="cls-6" d="M65.46,142.75s3.11-5,6.71-4.81,5.56,3.95,5.56,3.95,3.23-3.86,7-3.79,5.43,5,5.43,5-3.76,9.44-12.72,9.44S65.46,142.75,65.46,142.75Z"/><path class="cls-7" d="M71.62,124.87s.62-6,6-6,6.43,6,6.43,6-2.92-3.68-6.33-3.68S71.62,124.87,71.62,124.87Z"/><path class="cls-8" d="M110,119.75a1.38,1.38,0,0,1-1.36-1.29,1.41,1.41,0,0,1,1.23-1.55c.09,0,9.44-1,13.1-3.28a1.36,1.36,0,0,1,1.88.48,1.47,1.47,0,0,1-.47,2c-4.19,2.63-13.84,3.63-14.25,3.68Z"/><path class="cls-8" d="M111.49,116.64h-.2a1.43,1.43,0,0,1,0-2.85h.17c6.89,0,11-5.85,11-5.9a1.32,1.32,0,0,1,1.9-.34,1.47,1.47,0,0,1,.33,2C124.53,109.82,119.81,116.64,111.49,116.64Z"/><path class="cls-8" d="M103.55,114.39a6.73,6.73,0,0,0,8.13,5.15,7,7,0,0,0,4.94-8.47,6.71,6.71,0,0,0-8.13-5.14A7,7,0,0,0,103.55,114.39Z"/><path class="cls-9" d="M107.06,108.77c0,1,1.45,1.79,3.14,1.72s3-.95,3-2-1.44-1.79-3.14-1.72S107,107.75,107.06,108.77Z"/><path class="cls-8" d="M45.6,119.75A1.38,1.38,0,0,0,47,118.46a1.4,1.4,0,0,0-1.23-1.55c-.09,0-9.43-1-13.1-3.28a1.35,1.35,0,0,0-1.87.48,1.46,1.46,0,0,0,.47,2c4.18,2.63,13.84,3.63,14.24,3.68Z"/><path class="cls-8" d="M44.14,116.64h.2a1.43,1.43,0,0,0,0-2.85h-.18c-6.89,0-11-5.85-11-5.9a1.33,1.33,0,0,0-1.91-.34,1.46,1.46,0,0,0-.32,2C31.1,109.82,35.82,116.64,44.14,116.64Z"/><path class="cls-8" d="M52.08,114.39A6.72,6.72,0,0,1,44,119.54,7,7,0,0,1,39,111.07a6.7,6.7,0,0,1,8.12-5.14A7,7,0,0,1,52.08,114.39Z"/><path class="cls-9" d="M48.57,108.77c0,1-1.44,1.79-3.13,1.72s-3-.95-3-2,1.44-1.79,3.13-1.72S48.61,107.75,48.57,108.77Z"/></g></g></svg>