<?xml version="1.0" standalone="no"?><!DOCTYPE svg PUBLIC "-//W3C//DTD SVG 1.1//EN" "http://www.w3.org/Graphics/SVG/1.1/DTD/svg11.dtd"><svg t="1548660087508" class="icon" style="" viewBox="0 0 1214 1024" version="1.1" xmlns="http://www.w3.org/2000/svg" p-id="7065" xmlns:xlink="http://www.w3.org/1999/xlink" width="237.109375" height="200"><defs><style type="text/css"></style></defs><path d="M87.300339 246.627797V117.326102C87.300339 81.590237 116.111186 52.640542 151.604068 52.640542h899.957152c35.510237 0 64.286373 28.949695 64.286373 64.650848v129.301695H87.317695z m0 64.650847v517.241492c0 35.701153 28.793492 64.650847 64.303729 64.650847H882.722712a166.391322 166.391322 0 0 1-68.642712-134.907661c0-91.847593 74.023051-166.304542 165.349966-166.304542 56.632407 0 106.58278 28.637288 136.382915 72.287457V311.278644H87.317695z m353.557695 452.590644H183.729898a32.229966 32.229966 0 0 1-32.143186-32.334102c0-17.87661 14.405424-32.334102 32.143186-32.334101h257.128136c17.755119 0 32.143186 14.474847 32.143186 32.334101s-14.388068 32.334102-32.143186 32.334102z m64.286373-129.301695H183.729898a32.229966 32.229966 0 0 1-32.143186-32.351457c0-17.841898 14.405424-32.316746 32.143186-32.316746h321.431865c17.737763 0 32.125831 14.474847 32.12583 32.316746 0 17.87661-14.388068 32.334102-32.143186 32.334101z m192.859118 0h-64.286372a32.229966 32.229966 0 0 1-32.143187-32.351457c0-17.841898 14.388068-32.316746 32.143187-32.316746h64.286372c17.737763 0 32.143186 14.474847 32.143187 32.316746 0 17.87661-14.405424 32.334102-32.143187 32.334101z m283.717424 267.506983c-77.928136 0-141.069017-63.522712-141.069017-141.902101 0-78.344678 63.158237-141.884746 141.069017-141.884746 77.91078 0 141.069017 63.522712 141.069017 141.884746 0 78.362034-63.175593 141.902102-141.069017 141.902101z m40.40461-139.975593v13.069017h-31.761356V793.166102h31.761356v13.242576h-31.761356v26.242169h-16.314576v-26.242169h-32.924203v-13.242576h32.924203v-18.015458h-32.924203v-13.069017h28.099254L934.964068 702.915254h18.414644c16.002169 29.400949 25.721492 48.04122 29.157966 55.903458h0.347119c1.162847-3.228203 4.356339-9.77139 9.580474-19.612204l19.577492-36.273898h17.408l-34.555661 59.166373h27.248813z m-40.40461-118.367458c-63.852475 0-115.781424 52.241356-115.781424 116.458306 0 64.199593 51.928949 116.458305 115.781424 116.458305 63.835119 0 115.764068-52.258712 115.764068-116.458305 0-64.216949-51.928949-116.458305-115.764068-116.458306z" p-id="7066"></path></svg>