<?xml version="1.0" standalone="no"?><!DOCTYPE svg PUBLIC "-//W3C//DTD SVG 1.1//EN" "http://www.w3.org/Graphics/SVG/1.1/DTD/svg11.dtd"><svg t="1548838419072" class="icon" style="" viewBox="0 0 1024 1024" version="1.1" xmlns="http://www.w3.org/2000/svg" p-id="8557" xmlns:xlink="http://www.w3.org/1999/xlink" width="200" height="200"><defs><style type="text/css"></style></defs><path d="M666.3168 835.3792h261.12c9.5232 32.0512 6.5536 36.1472-24.4736 36.1472H619.2128c-39.5264 0-48.0256-8.704-48.0256-48.0256V636.6208h212.6848v122.88h-143.36c0 21.4016-0.8192 40.96 0 59.4944 1.536 15.5648 13.6192 16.384 25.8048 16.384z m48.5376-112.64v-49.8688h-72.704v50.3808zM880.64 361.472a256 256 0 0 0 48.7424 113.7664c-24.2688 3.6864-43.1104 2.8672-59.4944-15.7696-27.0336-30.72-49.7664-62.976-58.88-106.9056h61.44a12.5952 12.5952 0 0 1 8.192 8.9088z" fill="#FFFFFF" p-id="8558"></path><path d="M835.072 592.7936v140.9024c0 14.6432-5.0176 29.5936-20.48 32.6656a17.8176 17.8176 0 0 0-13.1072 7.0656l-17.6128-13.6192v-122.88H571.1872l-2.2528-6.5536a193.024 193.024 0 0 0 50.2784-26.5216 57.4464 57.4464 0 0 1 30.72-10.24c54.5792-1.024 109.2608 0 163.84 0z" fill="#EA2328" p-id="8559"></path><path d="M714.8544 672.8704v50.3808h-72.704v-50.3808z" fill="#EA2328" p-id="8560"></path><path d="M673.1776 462.0288a37.2736 37.2736 0 0 0 20.48-25.7024c2.4576-33.6896 0.9216-67.584 0.9216-103.1168H538.2144L593.92 212.1728h-65.6384v-37.1712h68.608c5.5296 0 15.0528-1.2288 15.872-3.9936 7.2704-23.4496 25.9072-18.3296 42.5984-18.5344h23.04l-5.8368 23.1424h256c7.7824 34.816 6.4512 36.4544-25.7024 36.4544H671.0272A23.2448 23.2448 0 0 0 645.12 227.5328c-9.1136 22.016-19.7632 43.4176-30.72 67.1744h80.2816v-62.976h67.9936v64.6144H890.88c32.768 0 33.3824 0.8192 26.2144 36.352H763.6992v83.456c0 57.5488-14.0288 71.68-71.68 72.6016h-28.5696c-3.8912-12.288-6.7584-20.6848 9.728-26.7264z" fill="#FFFFFF" p-id="8561"></path><path d="M525.9264 478.208a251.6992 251.6992 0 0 0 51.2-117.0432c0-3.3792 7.0656-8.0896 10.9568-8.2944 18.5344-0.9216 37.0688 0 59.392 0a210.2272 210.2272 0 0 1-76.0832 120.5248c-9.216 6.5536-26.4192 2.9696-45.4656 4.8128zM672.8704 556.3392c69.2224 0 138.5472 0.7168 207.7696 0 18.944 0 23.7568 5.8368 23.3472 23.7568-1.1264 47.9232 0 95.9488 0 143.36s-16.9984 65.9456-65.4336 68.8128c-11.8784 0.7168-23.7568 0-36.864 0a27.0336 27.0336 0 0 1 0-19.0464 17.8176 17.8176 0 0 1 13.1072-7.0656c15.872-3.072 20.48-18.0224 20.48-32.6656 0.6144-45.8752 0-92.16 0-140.9024H649.4208a57.4464 57.4464 0 0 0-30.72 10.24 193.024 193.024 0 0 1-50.2784 26.5216 89.3952 89.3952 0 0 1-39.7312 5.0176 17.2032 17.2032 0 0 1 10.8544-24.4736c30.72-14.5408 46.4896-42.3936 56.7296-74.5472h64.3072v18.6368a85.4016 85.4016 0 0 0 12.288 2.3552zM483.9424 232.3456v99.84H329.728V440.32a39.1168 39.1168 0 0 1-30.72 40.96c-22.3232 4.9152-45.3632 6.5536-69.632 10.24v-24.064c31.6416-12.5952 31.6416-12.5952 31.744-49.3568v-84.1728h-153.6v-101.5808z m-63.3856 62.5664v-26.7264H170.1888v26.7264zM485.888 700.6208c-15.9744 44.4416-52.9408 66.4576-82.432 95.744a99.84 99.84 0 0 0 84.5824 51.2C493.7728 870.4 492.544 871.5264 471.04 870.4a159.3344 159.3344 0 0 1-102.4-46.3872l-95.6416 40.96c-0.7168-13.0048-1.024-19.7632-1.2288-22.016 23.1424-14.2336 43.1104-26.7264 63.2832-39.0144 10.24-5.8368 7.9872-12.0832 3.9936-21.4016-11.264-26.8288-21.8112-54.1696-30.72-81.92-3.4816-11.4688-6.656-16.5888-19.3536-16.5888-31.4368 0-31.4368-0.7168-26.5216-34.6112 5.3248 0 11.0592-1.1264 16.6912-1.4336s11.8784 0 18.8416 0c2.3552-31.4368-24.2688-13.2096-36.7616-24.576 0.6144-7.7824 1.3312-18.1248 2.2528-30.72l30.72-1.9456v-53.6576h68.5056v52.736h28.3648c0.8192-11.9808 1.6384-23.6544 2.4576-36.864h68.8128c0.8192 11.8784 1.536 23.6544 2.4576 37.2736l30.72 1.8432v35.1232H365.9776v20.48h129.3312v36.1472H367.5136c5.0176 24.1664 9.3184 45.6704 13.7216 67.1744l5.632 1.9456c8.9088-13.2096 17.6128-26.624 27.0336-39.5264 3.4816-4.7104 8.3968-11.3664 13.1072-11.6736 18.432-1.9456 36.9664-1.1264 58.88-1.1264z" fill="#FFFFFF" p-id="8562"></path><path d="M420.5568 268.1856v26.7264H170.1888v-26.7264z" fill="#EA2328" p-id="8563"></path><path d="M440.32 352.9728a17.2032 17.2032 0 0 1 12.1856 11.0592 250.9824 250.9824 0 0 0 43.008 110.592c-22.1184 3.1744-41.8816 7.68-55.5008-12.0832-19.456-28.0576-38.1952-56.832-56.4224-85.8112a98.816 98.816 0 0 1-6.5536-24.2688c23.8592 0 43.8272-0.7168 63.2832 0.512zM289.0752 152.064c12.4928 0.8192 24.9856 0 37.9904 0 1.3312 8.3968 2.3552 14.7456 3.584 22.6304h164.864v36.9664H122.88c-33.1776 0-33.1776 0-27.9552-35.6352h163.84c-2.1504-25.3952 13.312-25.1904 30.3104-23.9616zM233.6768 834.7648c-30.72 10.24-60.416 23.04-93.3888 35.9424V749.3632h-51.2c4.096-14.5408 3.9936-30.72 11.0592-34.9184 9.3184-5.4272 24.1664-1.3312 37.6832-1.3312V686.08l-32.256-2.56v-34.9184h133.12v33.4848l-30.72 2.9696v26.4192l43.52 2.2528V747.52h-43.008v63.8976l40.96-13.312c6.5536 18.6368 4.1984 29.9008-15.7696 36.6592z" fill="#FFFFFF" p-id="8564"></path><path d="M169.6768 616.448a599.8592 599.8592 0 0 1 81.92-0.8192v-36.6592h-62.7712l13.6192-43.7248h-53.76c-11.3664 0-14.5408 3.6864-18.1248 14.848a438.4768 438.4768 0 0 1-27.0336 58.5728c-3.9936 8.0896-9.0112 15.6672-13.6192 23.4496l5.8368 5.9392a518.9632 518.9632 0 0 1 73.9328-21.6064zM138.0352 686.08v27.0336c-13.5168 0-28.3648-4.096-37.6832 1.3312-7.0656 4.096-6.9632 20.48-11.0592 34.9184h51.2V870.4c32.9728-12.9024 62.7712-25.7024 93.3888-35.9424 19.968-6.7584 22.7328-18.0224 16.384-36.4544l-40.96 13.312V747.52h43.008v-33.792l-43.52-2.2528V685.056l30.72-2.9696v-33.4848h-133.12v34.9184z m10.24-330.4448c-7.8848 2.56-8.8064 26.7264-13.1072 40.96a80.896 80.896 0 0 1-4.9152 15.0528c-10.24 21.0944-21.7088 41.984-33.9968 65.6384 14.4384-0.9216 30.72 3.072 39.424-3.3792a203.4688 203.4688 0 0 0 77.2096-120.32c-23.3472 0.1024-45.6704-3.9936-64.7168 2.048z m377.7536 122.88c19.0464-1.8432 36.2496 1.7408 45.056-5.2224a210.2272 210.2272 0 0 0 76.0832-120.5248c-22.3232 0-40.96-0.512-59.392 0-3.8912 0-10.24 4.9152-10.9568 8.2944a251.6992 251.6992 0 0 1-50.8928 117.1456z m-54.1696-266.24h23.7568v-37.4784H330.6496c-1.2288-7.8848-2.2528-14.2336-3.584-22.6304-13.0048 0-25.4976 0.7168-37.9904 0-16.9984-1.2288-32.4608-1.4336-30.72 24.064h-163.84c-5.2224 35.6352-5.2224 35.6352 27.9552 35.6352z m-104.3456 471.04h127.7952V647.168H365.9776v-20.48h129.3312v-34.6112l-30.72-1.8432c-0.9216-13.6192-1.6384-25.3952-2.4576-37.2736h-68.608c-0.8192 13.2096-1.6384 24.8832-2.4576 36.864h-28.3648v-52.736h-68.5056v53.3504l-30.72 1.9456c-0.9216 12.1856-1.6384 22.528-2.2528 30.72 12.4928 11.3664 39.1168-6.8608 36.7616 24.576h-18.8416c-5.9392 0-11.3664 1.024-16.6912 1.4336-4.9152 33.8944-4.9152 34.5088 26.5216 34.6112 12.6976 0 15.872 5.12 19.3536 16.5888 8.4992 27.7504 19.0464 55.0912 30.72 81.92 3.9936 9.3184 5.7344 15.5648-3.9936 21.4016-20.48 12.288-40.1408 24.7808-63.2832 39.0144 0 2.2528 0 9.0112 1.2288 22.016l95.6416-40.96A159.3344 159.3344 0 0 0 471.04 870.4c21.504 1.6384 22.7328 0.6144 16.9984-21.8112a99.84 99.84 0 0 1-84.5824-51.2c29.4912-29.2864 66.4576-51.2 82.432-95.744-21.9136 0-40.96-0.8192-58.88 0.6144-4.7104 0-9.6256 6.9632-13.1072 11.6736-9.4208 12.9024-18.1248 26.3168-27.0336 39.5264l-5.632-1.9456c-4.4032-22.528-8.704-44.032-13.7216-68.1984zM329.728 332.1856h154.2144v-99.84H106.2912v101.5808h153.6v84.1728c0 36.7616 0 36.7616-31.744 49.3568V491.52c24.2688-3.2768 47.3088-4.9152 69.632-10.24a39.1168 39.1168 0 0 0 30.72-40.96v-53.9648zM440.32 462.5408c13.6192 19.7632 33.3824 15.2576 55.5008 12.0832a250.9824 250.9824 0 0 1-43.008-110.592A17.2032 17.2032 0 0 0 440.32 352.9728c-19.6608-1.2288-39.6288 0-63.2832 0a98.816 98.816 0 0 0 6.5536 24.2688c18.432 28.4672 37.1712 57.2416 56.7296 85.2992z m431.9232-109.568c-19.5584-0.7168-39.2192 0-61.44 0 9.1136 43.9296 31.8464 76.1856 58.88 106.9056 16.384 18.6368 35.2256 19.456 59.4944 15.7696A256 256 0 0 1 880.64 361.472a12.5952 12.5952 0 0 0-8.4992-8.4992z m-71.0656 439.5008c13.1072 0 24.9856 0.6144 36.864 0 48.4352-2.8672 65.1264-20.48 65.4336-68.8128s-0.6144-95.9488 0-143.36c0-17.92-4.4032-24.064-23.3472-23.7568-69.2224 1.1264-138.5472 0.512-207.7696 0a85.4016 85.4016 0 0 1-11.776-1.6384v-18.8416h-63.7952c-10.24 32.1536-25.9072 60.0064-56.7296 74.5472A17.2032 17.2032 0 0 0 529.2032 634.88a89.3952 89.3952 0 0 0 39.7312-5.0176l2.2528 6.5536v186.9824c0 39.3216 8.4992 47.9232 48.0256 48.0256h283.7504c30.72 0 33.9968-4.096 24.4736-36.1472h-261.12c-12.1856 0-24.2688-0.8192-25.088-16.0768-1.1264-18.944 0-38.0928 0-59.4944h143.36l16.9984 13.6192a27.0336 27.0336 0 0 0-0.4096 19.1488zM663.2448 488.7552h28.5696c57.856-1.024 71.68-15.0528 71.68-72.6016v-83.456h153.1904c7.168-35.5328 6.5536-36.352-26.2144-36.352H762.7776v-64.6144h-67.9936v62.976H614.4c11.0592-23.7568 21.7088-45.1584 30.72-67.1744a23.2448 23.2448 0 0 1 25.7024-15.9744c77.312 0.6144 154.624 0 231.8336 0 32.1536 0 33.4848-1.6384 25.7024-36.4544h-256l5.8368-23.1424H655.36c-16.6912 0-35.328-4.9152-42.5984 18.5344-0.8192 2.7648-10.24 3.8912-15.872 3.9936h-68.608v37.1712H593.92l-55.7056 121.5488h156.3648c0 35.5328 1.536 69.4272-0.9216 103.1168a37.2736 37.2736 0 0 1-20.48 25.7024c-16.4864 6.0416-13.6192 14.4384-9.9328 26.7264zM1024 208.0768v611.9424a56.5248 56.5248 0 0 0-3.9936 10.9568c-15.36 87.1424-64.8192 146.432-146.8416 178.3808a490.7008 490.7008 0 0 1-53.1456 14.6432H203.9808a74.1376 74.1376 0 0 0-10.9568-3.9936A225.28 225.28 0 0 1 6.144 844.6976c-1.8432-8.192-4.096-16.384-6.144-24.6784V208.0768a68.608 68.608 0 0 0 4.4032-12.9024A223.0272 223.0272 0 0 1 175.7184 8.192c10.8544-2.56 21.504-5.4272 32.256-8.192h607.9488a61.952 61.952 0 0 0 12.8 4.608 222.72 222.72 0 0 1 187.1872 171.2128c2.56 10.752 5.3248 21.504 8.0896 32.256z" fill="#EA2328" p-id="8565"></path><path d="M148.1728 355.6352c19.0464-6.0416 40.96-1.9456 64.6144-1.9456a203.4688 203.4688 0 0 1-77.2096 120.32c-8.4992 6.4512-24.9856 2.4576-39.424 3.3792 12.288-23.6544 23.3472-44.544 33.9968-65.6384a80.896 80.896 0 0 0 4.9152-15.0528c4.3008-14.336 5.2224-38.2976 13.1072-41.0624zM148.6848 535.04c16.4864 0.7168 32.9728 0 53.76 0l-13.6192 43.7248h62.3616v36.6592a599.8592 599.8592 0 0 0-81.92 0.8192 518.9632 518.9632 0 0 0-73.9328 21.4016l-5.8368-5.9392c4.608-7.7824 9.6256-15.36 13.6192-23.4496a438.4768 438.4768 0 0 0 27.0336-58.5728c3.9936-10.9568 7.168-15.1552 18.5344-14.6432z" fill="#FFFFFF" p-id="8566"></path></svg>