<svg xmlns="http://www.w3.org/2000/svg" viewBox="0 0 186.33 260.04"><defs><style>.cls-1{fill:#f9dab4;}.cls-2{fill:#f7cea6;}.cls-3{fill:#0c4666;}.cls-4{fill:#1f6e89;}.cls-5{fill:#3b3d3d;}.cls-6{fill:#2c3030;}.cls-7{fill:#616363;}.cls-8{fill:#f4c7a2;}.cls-9{fill:#f9f7f2;}.cls-10{fill:#6b4627;}.cls-11{fill:#f9f5ed;}</style></defs><title>资源 39</title><g id="图层_2" data-name="图层 2"><g id="Layer_1" data-name="Layer 1"><path class="cls-1" d="M166,260H146.41l-7.25-70.42,19.64,0S164.17,246.1,166,260Z"/><path class="cls-2" d="M160.45,206.75s-9.53-4-14.66-3.3-2.58,10.1-1.49,21.1c.77,7.68,1.85,25.44,2.44,35.49h-.33l-7.25-70.42,19.64,0S159.49,196.83,160.45,206.75Z"/><path class="cls-3" d="M128.58,144.3s34.42,15.08,38.94,58.42H124.93V144.3Z"/><path class="cls-4" d="M149.43,199.89s10.91-.29,12.26-8.44-14.52-32.64-20.93-36-9.21-3.19-7.81,5.66,5.17,34.85,5.17,38.24C141.71,201,149.43,199.89,149.43,199.89Z"/><path class="cls-1" d="M18.38,260H37.92l7.25-70.42-19.64,0S20.16,246.1,18.38,260Z"/><path class="cls-2" d="M23.88,206.75s9.53-4,14.66-3.3,2.58,10.1,1.49,21.1c-.77,7.68-1.85,25.44-2.44,35.49h.33l7.25-70.42-19.64,0S24.84,196.83,23.88,206.75Z"/><path class="cls-3" d="M55.76,144.3s-34.42,15.08-38.95,58.42H59.4V144.3Z"/><path class="cls-4" d="M34.9,199.89s-10.9-.29-12.26-8.44,14.52-32.64,20.93-36,9.22-3.19,7.81,5.66-5.17,34.85-5.17,38.24C42.63,201,34.9,199.89,34.9,199.89Z"/><path class="cls-4" d="M144.56,260c-2.23-20.09-10-84.37-20.37-108.88l-66.83.38S41.61,215.91,40.19,260Z"/><path class="cls-3" d="M60.24,151.53H57.36S41.61,215.91,40.19,260H144.56c-1.07-9.68-3.43-29.64-6.75-50.45a211.92,211.92,0,0,1,.34,33c-1.44,17-36,13.66-52.87,13.66s-28.29.2-34.4-19.95S56.3,169,56.3,169Z"/><path class="cls-3" d="M94.33,182.26c-10.19,0-15.94-4.25-19-7.81-7.33-8.62-5.63-20.6-5.41-21.93l1-6h46.79l1,6c.21,1.33,1.91,13.31-5.41,21.93C110.26,178,104.51,182.26,94.33,182.26Z"/><path class="cls-2" d="M77,153.66s-3.5,21.47,17.34,21.47,17.33-21.47,17.33-21.47Z"/><path class="cls-5" d="M166.28,118.37c8.91-17.17,14.51-59.42.66-62.51C168.1,2,109.11-3.43,66.56,1.38s-54.95,38-52.31,52.08C6,57.23,5,63.07,8.64,75.78S20.19,118.2,20.19,118.2Z"/><path class="cls-6" d="M143.24,69.13A23.69,23.69,0,0,1,132,74.06c-17.83,2.75-52.72,3.55-74.2-4.8C28,57.67,33.29,32.16,33.29,32.16c-.61,4.38,5.82,8.89,5.82,8.89-3.47-7.6,4.82-17.52,4.82-17.52-1.36,3.86,1.36,10.31,1.36,10.31,0-7.35,8.91-14.56,8.91-14.56-2.48,8.24,5.31,17.9,5.31,17.9-6.92-3.73-7.42-14-7.42-14-6.68,5.42-5.44,16.23-5.44,16.23a14.86,14.86,0,0,1-4.33-10.43c-4.45,5.8-.62,16.23-.62,16.23a21.86,21.86,0,0,1-6.29-4.52c0,1.68,2,12.67,9.33,17.11,13.55,8.59,60,12.78,80.94,11.24,0,0,18,.43,37.47-12C163.15,57,151.83,65.52,143.24,69.13Z"/><path class="cls-6" d="M14.25,53.46a21.89,21.89,0,0,0-2,1C20.3,58.13,32,57.23,32,57.23a82.29,82.29,0,0,1-17.84-4.45Z"/><path class="cls-7" d="M50.36,75.44V69.26C14.25,73.89,7.05,61.07,7.05,61.07h0a19.21,19.21,0,0,0,0,7.78C24.58,79.13,50.36,75.44,50.36,75.44Z"/><path class="cls-7" d="M174.49,66.93c-12,16.15-36.82,17.53-36.82,17.53l2.48,4.37a84.5,84.5,0,0,0,35-15.73A45.49,45.49,0,0,0,174.49,66.93Z"/><path class="cls-1" d="M144.29,68.55c0,8.76,2.85,11.35,2.85,11.35,9.21,18.85,48.3,79.76-53.08,84.46v0l-.34,0-.34,0v0C-8,159.66,31.09,98.75,40.3,79.9c4.62-9.44,4.54-15.45,3.3-19.1a114.93,114.93,0,0,0,28.16,7.56C93.15,71.32,130.6,75.85,144.29,68.55Z"/><path class="cls-8" d="M87.38,97.85c-2.59,4.27-3.65,8.86-5.51,13.28-1.93,4.57-7.05,9.46-4.67,14.38,2.14,4.43,8.5,6.07,14.49,6.31,16.22.65,23.59-4.15,19.07-15.83C108.8,110.9,97.41,81.28,87.38,97.85Z"/><path class="cls-1" d="M88.91,96.44c-2.19,3.83-3.12,8-4.71,11.93s-5.93,8.52-4,12.91c1.71,3.94,6.93,5.37,11.87,5.55,13.36.48,19.49-3.86,15.92-14.3C106.4,108,97.38,81.53,88.91,96.44Z"/><path class="cls-9" d="M91.19,125.73c.18.62,2,.88,4,.59s3.56-1,3.39-1.64-2-.87-4-.58S91,125.12,91.19,125.73Z"/><path class="cls-1" d="M26.6,112.79s-3.36-16.9-16.26-12.7S-1.42,120.77,3.19,128.3s20.32,18.34,24.34,3.55C27.38,122.51,26.6,112.79,26.6,112.79Z"/><path class="cls-8" d="M20.71,118.43a16.92,16.92,0,0,0-1.62-6.35,1.39,1.39,0,0,0-.11-.21,8.41,8.41,0,0,0-4-3.94,5.66,5.66,0,0,0-2.09-.53,1.15,1.15,0,0,0-1.07,1.13,1,1,0,0,0,.9,1.17h.07a4.27,4.27,0,0,1,1.35.38,6.19,6.19,0,0,1,2.26,1.76,14.08,14.08,0,0,0-2.11.85,12.26,12.26,0,0,0-6,6.67,7.41,7.41,0,0,0-.25.71,1.12,1.12,0,0,0,.51,1.4l.07,0a1,1,0,0,0,1.28-.78c.06-.18.13-.37.2-.55A9.82,9.82,0,0,1,15,114.8a10.49,10.49,0,0,1,2.29-.86l.31-.08a15.82,15.82,0,0,1,1.13,5,1,1,0,0,0,.58.88.88.88,0,0,0,.51.06A1.24,1.24,0,0,0,20.71,118.43Z"/><path class="cls-1" d="M159.73,112.79s3.36-16.9,16.26-12.7,11.76,20.68,7.15,28.21-20.32,18.34-24.34,3.55C159,122.51,159.73,112.79,159.73,112.79Z"/><path class="cls-8" d="M165.62,118.43a16.92,16.92,0,0,1,1.62-6.35,1.39,1.39,0,0,1,.11-.21,8.41,8.41,0,0,1,4-3.94,5.63,5.63,0,0,1,2.08-.53,1.15,1.15,0,0,1,1.08,1.13,1,1,0,0,1-.9,1.17h-.07a4.31,4.31,0,0,0-1.36.38,6.17,6.17,0,0,0-2.25,1.76,13.6,13.6,0,0,1,2.1.85,12.24,12.24,0,0,1,6,6.67c.09.23.17.46.25.71a1.12,1.12,0,0,1-.51,1.4l-.07,0a1,1,0,0,1-1.28-.78c-.06-.18-.13-.37-.2-.55a9.8,9.8,0,0,0-4.85-5.38,10.25,10.25,0,0,0-2.28-.86l-.32-.08a15.85,15.85,0,0,0-1.12,5,1,1,0,0,1-.58.88.88.88,0,0,1-.51.06A1.24,1.24,0,0,1,165.62,118.43Z"/><path class="cls-5" d="M113.89,82.65s6.82,2.2,24.06,9.22A54.45,54.45,0,0,0,141,83.58s-16-6.66-25.82-8.35A27.39,27.39,0,0,0,113.89,82.65Z"/><path class="cls-5" d="M74.41,82.51S59.35,84.25,50.9,93.06A55.62,55.62,0,0,1,47.37,85s14.34-9,25.31-9.79A27.74,27.74,0,0,1,74.41,82.51Z"/><path class="cls-10" d="M72.77,101.55a9.76,9.76,0,1,1-12.22-6.42A9.76,9.76,0,0,1,72.77,101.55Z"/><path class="cls-11" d="M69.05,99c-.28,1.25-2,1.91-3.89,1.49s-3.17-1.76-2.9-3,2-1.91,3.9-1.49S69.33,97.77,69.05,99Z"/><path class="cls-10" d="M134.77,101.55a9.76,9.76,0,1,1-12.22-6.42A9.76,9.76,0,0,1,134.77,101.55Z"/><path class="cls-11" d="M131.05,99c-.27,1.25-2,1.91-3.89,1.49s-3.17-1.76-2.9-3,2-1.91,3.9-1.49S131.33,97.77,131.05,99Z"/><path class="cls-8" d="M129.33,131.44a1,1,0,0,0-1.22.61c-2.39,7.06-6.33,11.19-12,13.92s-13,3.93-22,4.79a53.44,53.44,0,0,1-22.07-2.62,52.4,52.4,0,0,1-6.47-2.64c-.75-.38-1.33-.69-1.72-.91l-.57-.33a1,1,0,0,0-1.33.31,1,1,0,0,0,.31,1.32,55.34,55.34,0,0,0,32,6.8c9-.88,16.59-2.09,22.61-5s10.44-7.57,12.94-15A1,1,0,0,0,129.33,131.44Zm3.44-5.14a6.42,6.42,0,0,0-1.06-2,2.6,2.6,0,0,0-2.27-1,2.77,2.77,0,0,0-.69.16,11.17,11.17,0,0,0-4.85,3.81,1,1,0,0,0,1.6,1.1.3.3,0,0,1,0-.08,9.28,9.28,0,0,1,3.87-3,.87.87,0,0,1,.21-.06c.19,0,.31,0,.6.35a6.06,6.06,0,0,1,1,2.29,10.47,10.47,0,0,1,.22,1.09c.05.28.07.44.07.44a1,1,0,0,0,1.05.85h0a1,1,0,0,0,.86-1.07A15,15,0,0,0,132.77,126.3Z"/></g></g></svg>