<svg xmlns="http://www.w3.org/2000/svg" viewBox="0 0 190.31 259.53"><defs><style>.cls-1{fill:#9e6f4c;}.cls-2{fill:#e2963b;}.cls-3{fill:#f4a556;}.cls-4{fill:#6b4627;}.cls-5{fill:#f4d3b0;}.cls-6{fill:#c65044;}.cls-7{fill:#962929;}.cls-8{fill:#f9dab4;}.cls-9{fill:#efc4a0;}.cls-10{fill:#8e6042;}.cls-11{fill:#3a332d;}.cls-12{fill:#e8dfd9;}</style></defs><title>资源 192</title><g id="图层_2" data-name="图层 2"><g id="Layer_1" data-name="Layer 1"><path class="cls-1" d="M189.12,120.06C195,92.6,180.86,5.26,99,.13c0,0-2.55-.16-3.82-.12s-3.83.12-3.83.12C9.45,5.26-4.73,92.6,1.18,120.06c6.09,28.3,19.41,39.19,19.41,39.19s-7.23,6.53-2.66,17.85c8,19.76,20.92,21.78,20.92,21.78s-12.55,0-9.51,13.06,20.55,16.54,20.55,16.54h90.53S157.92,225,161,211.94s-9.52-13.06-9.52-13.06,13-2,20.93-21.78c4.57-11.32-2.66-17.85-2.66-17.85S183,148.36,189.12,120.06Z"/><path class="cls-2" d="M61.75,174.41s-27.88,63.31-33,85.12H59.48C67.14,229.47,73.81,164,61.75,174.41Z"/><path class="cls-2" d="M128.56,174.41c-12.06-10.37-5.39,55.06,2.27,85.12h30.75C156.44,237.72,128.56,174.41,128.56,174.41Z"/><path class="cls-3" d="M51.54,259.53h87.23C135.11,226,123,173.31,123,173.31l-27.89,1.48-27.88-1.48S55.2,226,51.54,259.53Z"/><rect class="cls-4" x="103.94" y="181.72" width="1.95" height="21.74" transform="translate(-10.65 6.19) rotate(-3.22)"/><path class="cls-4" d="M109.42,204.54a3.54,3.54,0,1,1-3.53-3.53A3.53,3.53,0,0,1,109.42,204.54Z"/><rect class="cls-4" x="74.53" y="191.62" width="21.74" height="1.95" transform="translate(-111.68 267.06) rotate(-86.79)"/><path class="cls-4" d="M80.88,204.54A3.54,3.54,0,1,0,84.42,201,3.54,3.54,0,0,0,80.88,204.54Z"/><path class="cls-5" d="M35.68,106.34S27.82,91,14.6,98.5s11.93,49.2,34.14,43.7l-7.36-32.1Z"/><path class="cls-5" d="M154.63,106.34S162.49,91,175.7,98.5s-11.92,49.2-34.13,43.7l7.35-32.1Z"/><path class="cls-6" d="M144.54,161.86C141.91,151.08,126,151.74,126,151.74l-16-2c-1-2-26.43-2-27.37,0l-16,2s-16-.66-18.59,10.12,2.26,17,10.75,11.1c0,0-4.57,6.54,3.26,10.13a12.13,12.13,0,0,0,13.4-2s3.26,7.18,10.77,6.86,10-4.43,10.11-4.55c.08.12,2.71,4.23,10.11,4.55s10.78-6.86,10.78-6.86a12.11,12.11,0,0,0,13.39,2c7.83-3.59,3.26-10.13,3.26-10.13C142.28,178.84,147.18,172.64,144.54,161.86Z"/><path class="cls-7" d="M51.91,164c-2.07.7-4.14,1.33-6.23,1.88a11.22,11.22,0,0,1-3.15.75,7.73,7.73,0,0,1-3.36-.67l0-.26a7.69,7.69,0,0,1,3-1.65,11.53,11.53,0,0,1,3.22-.23q3.24-.15,6.51-.08Z"/><path class="cls-7" d="M52,171c.38,1.47.68,2.94.91,4.41a5.25,5.25,0,0,1,.26,2.21,4.33,4.33,0,0,1-1.17,2.2h-.26a4.43,4.43,0,0,1-1.18-2.2,5.59,5.59,0,0,1,.26-2.21c.23-1.47.54-2.94.92-4.41Z"/><path class="cls-7" d="M60.81,168.05q1.92,1.45,3.69,3.06c.58.53,1.34.92,1.69,1.66a4.78,4.78,0,0,1,.58,2.56l-.2.17a4.85,4.85,0,0,1-2.4-1.08,6.21,6.21,0,0,1-1.29-2c-.81-1.36-1.57-2.76-2.28-4.22Z"/><path class="cls-7" d="M70.59,179.92c-.9,1.22-1.84,2.38-2.84,3.49-.49.55-.84,1.28-1.53,1.59a4.42,4.42,0,0,1-2.45.48l-.17-.21a4.42,4.42,0,0,1,1-2.3c.44-.61,1.23-.81,1.87-1.18q1.92-1.12,4-2.07Z"/><path class="cls-7" d="M79.28,170.91a25,25,0,0,1,2.9,1.55c.45.29,1.07.41,1.31.92a3,3,0,0,1,.31,1.94l-.19.19a3,3,0,0,1-2-.27c-.51-.22-.64-.84-.94-1.28a26.45,26.45,0,0,1-1.62-2.86Z"/><path class="cls-7" d="M85.2,181.69q1.68-2.17,3.49-4.19a8.11,8.11,0,0,1,1.88-1.95,5.86,5.86,0,0,1,2.8-.86l.17.2a5.88,5.88,0,0,1-1.27,2.64,8.12,8.12,0,0,1-2.22,1.55q-2.26,1.48-4.68,2.81Z"/><path class="cls-7" d="M101.74,173.13c1.51,1.18,3,2.41,4.39,3.69a9.14,9.14,0,0,1,2.05,2,6.35,6.35,0,0,1,1,2.92l-.2.17a6.39,6.39,0,0,1-2.74-1.38,9,9,0,0,1-1.65-2.32c-1.06-1.58-2.07-3.21-3-4.89Z"/><path class="cls-7" d="M114.34,168.24a27.84,27.84,0,0,1-2.09,2.57c-.37.39-.61,1-1.16,1.12a3.06,3.06,0,0,1-2-.05l-.15-.22a3,3,0,0,1,.64-1.87c.32-.46,1-.49,1.45-.7a26.34,26.34,0,0,1,3.14-1.07Z"/><path class="cls-7" d="M121.44,173.22q2.72,2.06,5.26,4.26a12.47,12.47,0,0,1,2.48,2.27,8.19,8.19,0,0,1,1.44,3.25l-.19.18a8.42,8.42,0,0,1-3.15-1.64,12.83,12.83,0,0,1-2.11-2.63c-1.36-1.79-2.66-3.63-3.92-5.51Z"/><path class="cls-7" d="M140.5,169.82c1.55-.2,3.1-.33,4.63-.38a5.88,5.88,0,0,1,2.29,0,4.65,4.65,0,0,1,2.13,1.43l0,.26a4.64,4.64,0,0,1-2.4.91,5.92,5.92,0,0,1-2.23-.53c-1.48-.4-2.95-.88-4.42-1.43Z"/><path class="cls-7" d="M130.42,163.75a20.76,20.76,0,0,1,.81-2.81c.16-.44.14-1,.56-1.29a2.74,2.74,0,0,1,1.76-.48l.21.15a2.75,2.75,0,0,1,.19,1.81c-.1.49-.64.68-1,1a19.76,19.76,0,0,1-2.32,1.78Z"/><path class="cls-7" d="M138.05,161.42q3-2.29,6-4.39a15.38,15.38,0,0,1,3.13-2,10,10,0,0,1,3.82-.77l.13.23a10,10,0,0,1-2.69,2.83,15,15,0,0,1-3.37,1.57q-3.42,1.48-7,2.79Z"/><path class="cls-8" d="M120,54.42,26.36,83.92s1.35,75.76,68.8,81.86C162.59,159.68,164,83.92,164,83.92Z"/><path class="cls-6" d="M78.61,147.27s3.76-5.85,8.11-5.59,6.72,4.59,6.72,4.59,3.9-4.49,8.47-4.4,6.57,5.85,6.57,5.85-4.54,11-15.38,11S78.61,147.27,78.61,147.27Z"/><path class="cls-9" d="M86.06,129.12s.75-6.91,7.2-6.94,7.76,6.94,7.76,6.94-3.52-4.26-7.64-4.26S86.06,129.12,86.06,129.12Z"/><path class="cls-10" d="M141.54,101.13s-12.53-2.42-23.12-.62l.38-2.15c.46-2.62,3.87-4.65,10.71-5.06S140.45,95,141,98Z"/><path class="cls-11" d="M125.8,121.17a1.36,1.36,0,0,1-.12-2.72c.08,0,9.4-.93,13-3.14a1.37,1.37,0,0,1,1.41,2.34c-4.17,2.52-13.8,3.47-14.21,3.51Z"/><path class="cls-11" d="M127.26,118.19h-.2a1.37,1.37,0,0,1,0-2.73h.17c6.87,0,10.94-5.6,11-5.65a1.36,1.36,0,1,1,2.22,1.57C140.25,111.66,135.56,118.19,127.26,118.19Z"/><path class="cls-11" d="M119.35,116a6.7,6.7,0,1,0,4.92-8.09A6.7,6.7,0,0,0,119.35,116Z"/><path class="cls-12" d="M122.84,110.66c0,1,1.45,1.71,3.13,1.64s3-.91,3-1.89-1.43-1.71-3.12-1.65S122.8,109.68,122.84,110.66Z"/><path class="cls-10" d="M53.69,101.13s12.54-2.42,23.13-.62l-.38-2.15c-.47-2.62-3.87-4.65-10.72-5.06S54.78,95,54.25,98Z"/><path class="cls-11" d="M69.43,121.17a1.36,1.36,0,0,0,.13-2.72c-.09,0-9.41-.93-13.06-3.14a1.36,1.36,0,1,0-1.4,2.34c4.17,2.52,13.79,3.47,14.2,3.51Z"/><path class="cls-11" d="M68,118.19h.2a1.37,1.37,0,0,0,0-2.73H68c-6.87,0-10.94-5.6-11-5.65a1.36,1.36,0,1,0-2.22,1.57C55,111.66,59.68,118.19,68,118.19Z"/><path class="cls-11" d="M75.88,116A6.7,6.7,0,1,1,71,107.94,6.68,6.68,0,0,1,75.88,116Z"/><path class="cls-12" d="M72.39,110.66c0,1-1.44,1.71-3.13,1.64s-3-.91-3-1.89,1.44-1.71,3.13-1.65S72.43,109.68,72.39,110.66Z"/><path class="cls-1" d="M13.51,92s38.54,14.37,71.85,0S125.2,67.81,125.2,67.81,130.09,99.92,164,99.92L176.8,79.56,116.71,38.42,18.08,65.19Z"/><path class="cls-1" d="M46,93s-4.25,32.66,3.59,36.25,7.18-6.2,7.18-6.2,5.46,15.5-9.68,15.42-24.28-47.1-24.28-47.1Z"/><path class="cls-1" d="M144.29,93s4.25,32.66-3.59,36.25-7.19-6.2-7.19-6.2-5.45,15.5,9.69,15.42,24.28-47.1,24.28-47.1Z"/></g></g></svg>