<svg xmlns="http://www.w3.org/2000/svg" viewBox="0 0 215.7 260"><defs><style>.cls-1{fill:#f9dab4;}.cls-2{fill:#efc4a0;}.cls-3{fill:#ce5d3e;}.cls-4{fill:#f4d3b0;}.cls-5{fill:#3f3e3d;}.cls-6{fill:#353434;}.cls-7{fill:#3a332d;}.cls-8{fill:#e8dfd9;}.cls-9{fill:#492020;}.cls-10{fill:#c65044;}</style></defs><title>资源 326</title><g id="图层_2" data-name="图层 2"><g id="Layer_1" data-name="Layer 1"><path class="cls-1" d="M116.76,156.14s13.28-.55,17.38,8.6c3.67,8.16,21.21,63.31,23.19,63.17s12.2-22.46,10.35-22.9-14.37-8.44-14.25-12.42,5-15.2,2.28-18.8-8.54-3.3-2.28-10.67,17.09,3.07,14.44,16l1.73.43s19.35-40.13,24.57-42.77c5.52-2.79,11.05,2.38,8.59,11s-15.35,38.69-15.35,38.69l24.8,8.37s-6.76,21.77-12.9,23.61-12-6.73-14.12-4.59-14.74,38.7-23.65,41.91-24.8-16.64-34-48.53C119,177.57,116.76,156.14,116.76,156.14Z"/><path class="cls-2" d="M187.41,186.41s3.63-8.46,7.4-17.69a43.56,43.56,0,0,0-10.69,12.67c-1.86,3.29-3.89,6.79-4.83,10.46-1.2,4.72-1,15.28,7.33,13.55A1.25,1.25,0,0,1,188,206c2.34,4.26,5.46,4.17,9.22,6.1,2.36,1.22,4.12,2.34,6.06,2.77,4.76-6.67,8.92-20.06,8.92-20.06Z"/><path class="cls-1" d="M204.1,193.11s2.71-6.78,7.32-5.15,5.46,4.51,2.73,11.34-6.73,16.32-12.22,14.11C191.9,209.38,204.1,193.11,204.1,193.11Z"/><path class="cls-2" d="M211.4,188c-4.59-1.61-7.3,5.15-7.3,5.15s-9.19,12.26-5,18.14C206.38,206.66,209.76,196.18,211.4,188Z"/><path class="cls-1" d="M196.62,186.77s3.07-7.68,8.29-5.84,6.19,5.11,3.1,12.84-7.63,18.49-13.84,16C182.8,205.19,196.62,186.77,196.62,186.77Z"/><path class="cls-2" d="M202.75,180.7c-3.89.51-6.13,6.07-6.13,6.07s-8.43,11.24-6.7,18.34C197.86,202.29,203.56,188.78,202.75,180.7Z"/><path class="cls-1" d="M188,180.64s3.07-7.68,8.29-5.84,6.18,5.12,3.09,12.85-7.63,18.49-13.84,16C174.21,199.06,188,180.64,188,180.64Z"/><path class="cls-1" d="M29.7,171.41C23.81,184.78,1.67,242.34,0,260H21.29c.61-1.21,1.22-2.52,1.84-3.95C32.7,233.85,54.87,161.6,49,156,49,156,36.29,156.46,29.7,171.41Z"/><polygon class="cls-3" points="47 155.59 33.21 260 135.92 260 122.13 155.59 85.39 155.59 83.75 155.59 47 155.59"/><path class="cls-4" d="M112.87,155.59H56.26s-5.95,38.25,27.07,38.87H85.8C118.82,193.84,112.87,155.59,112.87,155.59Z"/><path class="cls-5" d="M160.81,35.5C151.52,18.24,121.41,1.11,89.4,0c-.78,0-4.17,0-5,0C52.44,1.11,22.33,18.24,13,35.5s0,76.39,0,76.39l71.18,1.9v.14l2.71-.07,2.72.07v-.14l71.17-1.9S170.11,52.76,160.81,35.5Z"/><path class="cls-6" d="M13.84,74.72a6.55,6.55,0,0,1-1.75.34,10.58,10.58,0,0,1-3.5-.41,10.29,10.29,0,0,1-3.14-1.6A6.34,6.34,0,0,1,4.19,71.8a6.55,6.55,0,0,1,1.75-.34,10.24,10.24,0,0,1,3.49.41,10.39,10.39,0,0,1,3.14,1.6A6.24,6.24,0,0,1,13.84,74.72Z"/><path class="cls-6" d="M17.22,47.68a7.54,7.54,0,0,1-1.95.14A12.6,12.6,0,0,1,8,45,7.52,7.52,0,0,1,6.6,43.63a7.59,7.59,0,0,1,2-.14,12.83,12.83,0,0,1,3.87.81,13.15,13.15,0,0,1,3.43,2A7.52,7.52,0,0,1,17.22,47.68Z"/><path class="cls-6" d="M27.11,30.79a7.65,7.65,0,0,1-1.86-.8,13.57,13.57,0,0,1-3.19-2.56A13.8,13.8,0,0,1,19.78,24a8,8,0,0,1-.63-1.91A7.84,7.84,0,0,1,21,22.9a13.69,13.69,0,0,1,3.19,2.57,14.09,14.09,0,0,1,2.28,3.41A8,8,0,0,1,27.11,30.79Z"/><path class="cls-6" d="M101.21,17.76a7.68,7.68,0,0,1,.3-1.9,12.24,12.24,0,0,1,1.65-3.5,12,12,0,0,1,2.66-2.81,7.62,7.62,0,0,1,1.67-1,7.36,7.36,0,0,1-.29,1.9,12.24,12.24,0,0,1-1.65,3.5,12.41,12.41,0,0,1-2.67,2.8A7.21,7.21,0,0,1,101.21,17.76Z"/><path class="cls-6" d="M72.25,30.79A5.74,5.74,0,0,1,71,29.74,8.81,8.81,0,0,1,69.21,27a9,9,0,0,1-.59-3.21,5.88,5.88,0,0,1,.25-1.65,5.51,5.51,0,0,1,1.3,1.05,8.58,8.58,0,0,1,1.74,2.76,8.83,8.83,0,0,1,.58,3.22A5.77,5.77,0,0,1,72.25,30.79Z"/><path class="cls-6" d="M60.66,36.59a4.47,4.47,0,0,1-1.34-.41,5.56,5.56,0,0,1-2-1.62,5.44,5.44,0,0,1-1-2.36,4.34,4.34,0,0,1,0-1.41,4.39,4.39,0,0,1,1.34.41,5.32,5.32,0,0,1,3,4A4.5,4.5,0,0,1,60.66,36.59Z"/><path class="cls-6" d="M144.18,26.45a8.82,8.82,0,0,1,.95-2A16.47,16.47,0,0,1,148,21a16.19,16.19,0,0,1,3.73-2.53,9,9,0,0,1,2.06-.74,9.33,9.33,0,0,1-1,2,16.58,16.58,0,0,1-6.64,6A9.21,9.21,0,0,1,144.18,26.45Z"/><path class="cls-6" d="M149,33.69a10.22,10.22,0,0,1,1.37-1.83,18.88,18.88,0,0,1,3.66-3,18.62,18.62,0,0,1,4.31-2,10.15,10.15,0,0,1,2.25-.42,10.47,10.47,0,0,1-1.37,1.84,18.28,18.28,0,0,1-3.66,3,18.56,18.56,0,0,1-4.31,2A9.87,9.87,0,0,1,149,33.69Z"/><path class="cls-4" d="M26.9,110.57s-8.07-12.38-17.57-7.19,1.15,34.26,17.57,35.41Z"/><path class="cls-4" d="M142.24,110.57s8.06-12.38,17.56-7.19-1.15,34.26-17.56,35.41Z"/><path class="cls-2" d="M142.81,124.44a23.53,23.53,0,0,1,1.34-5.67,19.54,19.54,0,0,1,2.79-5.25,9.72,9.72,0,0,1,2.28-2.14,4.67,4.67,0,0,1,3.23-.75,5.09,5.09,0,0,1,2.79,1.51,9.28,9.28,0,0,1,1.68,2.43c-1.41-1.29-3-2.57-4.6-2.6s-2.94,1.2-4,2.61a32,32,0,0,0-2.91,4.73Z"/><path class="cls-2" d="M152.35,121.19a13.91,13.91,0,0,0-2.65-3.07,2.15,2.15,0,0,0-2.88,0,13.57,13.57,0,0,0-2.59,2.89c-.8,1.11-1.56,2.29-2.45,3.44a14.63,14.63,0,0,1,1.29-4.12,9.6,9.6,0,0,1,2.74-3.61,3.86,3.86,0,0,1,2.51-.78,3.65,3.65,0,0,1,2.29,1.2A7.37,7.37,0,0,1,152.35,121.19Z"/><path class="cls-2" d="M26.32,124.44A23.53,23.53,0,0,0,25,118.77a19.79,19.79,0,0,0-2.78-5.25,9.58,9.58,0,0,0-2.29-2.14,4.67,4.67,0,0,0-3.23-.75,5.07,5.07,0,0,0-2.78,1.51,9.08,9.08,0,0,0-1.69,2.43c1.41-1.29,3-2.57,4.6-2.6s3,1.2,4,2.61a32,32,0,0,1,2.91,4.73Z"/><path class="cls-2" d="M16.78,121.19a14.18,14.18,0,0,1,2.65-3.07,2.15,2.15,0,0,1,2.88,0A13.31,13.31,0,0,1,24.9,121c.8,1.11,1.57,2.29,2.45,3.44a15,15,0,0,0-1.29-4.12,9.6,9.6,0,0,0-2.74-3.61,3.84,3.84,0,0,0-2.51-.78,3.6,3.6,0,0,0-2.28,1.2A7.31,7.31,0,0,0,16.78,121.19Z"/><path class="cls-1" d="M78.11,90.51C46,91.83,30.43,87.06,23,82.76V138.9a83.94,83.94,0,0,0,60.89,27.21l.73,0,.72,0a83.94,83.94,0,0,0,60.89-27.21V70.85S133.84,88.21,78.11,90.51Z"/><path class="cls-5" d="M33.85,99.41s13.31-.26,23.88,3.47l1.13-6.59L36.12,92Z"/><path class="cls-5" d="M133,92l-5,1c.59,2.22,1.08,4.46,1.7,6.67,3.32-.21,5.55-.17,5.55-.17Z"/><path class="cls-5" d="M125.62,93.37l-15.35,2.92,1.13,6.59a66.74,66.74,0,0,1,15.83-3.12C126.65,97.64,126.19,95.49,125.62,93.37Z"/><path class="cls-7" d="M53.63,116.07a7.27,7.27,0,1,1-7.27-7.27A7.28,7.28,0,0,1,53.63,116.07Z"/><path class="cls-8" d="M47.56,111c.18.88-.91,1.84-2.42,2.14s-2.9-.16-3.07-1,.91-1.84,2.42-2.15S47.39,110.13,47.56,111Z"/><path class="cls-7" d="M130,116.07a7.27,7.27,0,1,1-7.27-7.27A7.27,7.27,0,0,1,130,116.07Z"/><path class="cls-8" d="M124,111c.17.88-.92,1.84-2.43,2.14s-2.89-.16-3.07-1,.91-1.84,2.43-2.15S123.8,110.13,124,111Z"/><path class="cls-2" d="M93.53,121.85s-2-6.68-8.57-7.1S75.59,123,75.59,123s4.15-6.41,9.35-5.83A14.31,14.31,0,0,1,93.53,121.85Z"/><path class="cls-9" d="M71.05,145l45-13.7s-2.8,21.48-15.3,24.42S71.05,145,71.05,145Z"/><path class="cls-10" d="M84.21,152.91c5.26,2.36,11.28,4,16.51,2.81,5-1.18,8.44-5.32,10.78-9.87C100.58,142,88.44,143.72,84.21,152.91Z"/></g></g></svg>