<svg xmlns="http://www.w3.org/2000/svg" viewBox="0 0 196.52 262.35"><defs><style>.cls-1{fill:#b5423c;}.cls-2{fill:#e06e6e;}.cls-3{fill:#393c3d;}.cls-4{fill:#f2d0af;}.cls-5{fill:#c65044;}.cls-6{fill:#eae5dc;}.cls-7{fill:#fc6;}.cls-8{fill:#e89f36;}.cls-9{fill:#f4d3b0;}.cls-10{fill:#ddb58e;}.cls-11{fill:#3f3e3d;}.cls-12{fill:#3a332d;}.cls-13{fill:#e8dfd9;}</style></defs><title>资源 245</title><g id="图层_2" data-name="图层 2"><g id="Layer_1" data-name="Layer 1"><path class="cls-1" d="M169.46,43.51s7.24-33.77,1.48-40.45S141.07.46,139.4,17.16s22.27,27.46,22.27,27.46Z"/><path class="cls-1" d="M175.58,56.93S198.22,83,196.41,91.64s-24.9,16.7-34.43,2.88,6.23-34.8,6.23-34.8Z"/><path class="cls-2" d="M177,47.81c3.56,9.44,1.36,19-4.92,21.38s-14.25-3.38-17.81-12.82S153,37.35,159.22,35,173.47,38.35,177,47.81Z"/><path class="cls-3" d="M158.83,44.63C137,8.05,109.71,3,91.54,3.09s-45.43,5-67.3,41.54C.48,84.34,20.9,122.19,12,151.88,4,178.62-28.09,255,63.35,262.35h56.38c91.43-7.38,59.37-83.73,51.35-110.47C162.17,122.19,182.59,84.34,158.83,44.63Z"/><polygon class="cls-4" points="38.39 262.35 60.64 262.35 60.64 244.67 40.86 244.67 38.39 262.35"/><polygon class="cls-4" points="143.84 262.35 141.37 244.67 121.58 244.67 121.58 262.35 143.84 262.35"/><polygon class="cls-1" points="53.14 255.52 53.17 262.35 129.9 262.35 129.93 255.52 91.53 257.99 53.14 255.52"/><path class="cls-5" d="M129.89,174.53c-9.88-8.48-34.19-4-38.36-3.11-4.17-.85-28.47-5.37-38.35,3.11-10.83,9.27-20.74,79.79-20.74,79.79,5.94,3.6,13.66,6.19,21.59,8h75.53c7.63-1.84,15.13-4.43,21.07-8C150.63,254.32,140.72,183.8,129.89,174.53Z"/><path class="cls-6" d="M67.28,242.74c-7,3.75-8.28,13.13-4.66,19.61H86.94l2.6-12.56S81.19,235.31,67.28,242.74Z"/><path class="cls-6" d="M90.29,252.94s-15-18.37-2.42-28.94,25.43,5.93,20.79,21.52Z"/><path class="cls-6" d="M120.91,232c-13.18-.65-12.25,16-12.25,16L115,262.35h5.44a110.2,110.2,0,0,0,10.1-9.41C135.19,247.75,135.94,232.72,120.91,232Z"/><path class="cls-7" d="M101.56,241.25a17.94,17.94,0,0,0-17.67,21.1h35.34a17.94,17.94,0,0,0-17.67-21.1Z"/><path class="cls-8" d="M91.71,262.35H114a11.28,11.28,0,0,0-22.24,0Z"/><path class="cls-7" d="M113.69,261.34l-1-.49.51-1a10.46,10.46,0,0,0-.64-1.19l-.87,1.68L109,259l1.54-3c-.28-.26-.58-.5-.88-.73L108,258.47l-3-1.5,1.72-3.31a9.65,9.65,0,0,0-1.08-.33L104,256.48l-3.53-1.77.83-1.61a11,11,0,0,0-1.41.29l-.42.82-.85-.43a12.75,12.75,0,0,0-1.22.63l1.56.79-1.82,3.5-3-1.52c-.24.3-.48.59-.69.9l3.21,1.61-1.38,2.66h1.25l1.12-2.16,3.53,1.77-.2.39h3.47l-1.76-.88,1.82-3.51,3,1.5-1.5,2.89h1.25l1.24-2.39,2.78,1.39-.52,1h1.25l.26-.5,1,.5h.69C113.84,262,113.77,261.67,113.69,261.34Zm-12-.37L98.1,259.2l1.82-3.51,3.53,1.77Z"/><path class="cls-7" d="M92,261.14a8.59,8.59,0,0,0-.28,1.11l.2.1h2.48Z"/><path class="cls-1" d="M110.43,169c0,4.14-8.46,7.49-18.9,7.49S72.64,173.12,72.64,169c0-.26,0-5,.1-5.22,1-3.77,9-6.72,18.79-6.72,9.47,0,17.31,2.76,18.68,6.36C110.36,163.77,110.43,168.6,110.43,169Z"/><path class="cls-9" d="M42.57,119.17s-4.82-8.29-11.24-5.73-10.8,26,17.4,29.3Z"/><path class="cls-9" d="M140.5,119.17s4.81-8.29,11.24-5.73,10.8,26-17.41,29.3Z"/><path class="cls-4" d="M116,76.18c-19.3.56-24.5,16.7-24.5,16.7S86.34,76.74,67,76.18c-14.79-.43-23.91,14.39-27.36,21.34v20.33A51.34,51.34,0,0,0,91,169.19h1a51.34,51.34,0,0,0,51.34-51.34V97.52C139.93,90.57,130.82,75.75,116,76.18Z"/><path class="cls-5" d="M78.25,146.88s3.34-5.2,7.21-5,6,4.08,6,4.08,3.47-4,7.54-3.92,5.84,5.21,5.84,5.21-4,9.75-13.68,9.75S78.25,146.88,78.25,146.88Z"/><path class="cls-10" d="M98.19,122.23s-.66,6.16-6.4,6.18-6.92-6.18-6.92-6.18S88,126,91.68,126,98.19,122.23,98.19,122.23Z"/><path class="cls-11" d="M134.11,100s-11.15-2.15-20.58-.55l.34-1.91c.42-2.33,3.45-4.14,9.54-4.51s9.74,1.48,10.21,4.17Z"/><path class="cls-12" d="M120.11,117.86a1.21,1.21,0,0,1-.11-2.41c.07,0,8.37-.83,11.61-2.8a1.22,1.22,0,0,1,1.26,2.08c-3.72,2.25-12.28,3.1-12.65,3.13Z"/><path class="cls-12" d="M121.41,115.22h-.18A1.23,1.23,0,0,1,120,114a1.21,1.21,0,0,1,1.21-1.2h.16c6.11,0,9.73-5,9.77-5a1.21,1.21,0,0,1,2,1.39C133,109.41,128.79,115.22,121.41,115.22Z"/><path class="cls-12" d="M114.36,113.3a6,6,0,1,0,4.38-7.21A6,6,0,0,0,114.36,113.3Z"/><path class="cls-13" d="M117.47,108.51c0,.87,1.29,1.53,2.79,1.47s2.69-.82,2.65-1.69-1.28-1.52-2.78-1.46S117.44,107.64,117.47,108.51Z"/><path class="cls-11" d="M49,100s11.15-2.15,20.57-.55l-.33-1.91c-.42-2.33-3.45-4.14-9.54-4.51s-9.74,1.48-10.21,4.17Z"/><path class="cls-12" d="M63,117.86a1.21,1.21,0,0,0,.11-2.41c-.08,0-8.37-.83-11.62-2.8a1.21,1.21,0,0,0-1.25,2.08c3.72,2.25,12.28,3.1,12.64,3.13Z"/><path class="cls-12" d="M61.66,115.22h.18A1.23,1.23,0,0,0,63,114a1.21,1.21,0,0,0-1.22-1.2h-.15c-6.11,0-9.74-5-9.77-5a1.21,1.21,0,0,0-2,1.39C50.1,109.41,54.28,115.22,61.66,115.22Z"/><path class="cls-12" d="M68.7,113.3a6,6,0,1,1-4.38-7.21A6,6,0,0,1,68.7,113.3Z"/><path class="cls-13" d="M65.59,108.51c0,.87-1.28,1.53-2.78,1.47s-2.69-.82-2.65-1.69,1.28-1.52,2.78-1.46S65.63,107.64,65.59,108.51Z"/></g></g></svg>