<svg xmlns="http://www.w3.org/2000/svg" viewBox="0 0 148.9 260"><defs><style>.cls-1{fill:#f4d3b0;}.cls-2{fill:#282726;}.cls-3{fill:#606060;}.cls-4{fill:#ba443e;}.cls-5{fill:#a53d25;}.cls-6{fill:#efc4a0;}.cls-7{fill:#2f3233;}.cls-8{fill:#f9dab4;}.cls-9{fill:#3a332d;}</style></defs><title>资源 341</title><g id="图层_2" data-name="图层 2"><g id="Layer_1" data-name="Layer 1"><path class="cls-1" d="M120.35,185.24C112,155.83,99.72,159.4,99.72,159.4s4.75,65.12,7.52,100.6h24.28C130,250.34,127.67,211.12,120.35,185.24Z"/><path class="cls-2" d="M125.52,209.88c-.22-1.44-.45-2.88-.7-4.31-7,2.09-14.14,3.13-21.55,2.06.1,1.27.19,2.55.29,3.84A73.19,73.19,0,0,0,125.52,209.88Z"/><path class="cls-3" d="M120.65,197.42c-1.35,2.25.42,17.77,4.39,22.06s13.68,0,10.29-4.09-3.62-16.39-4.75-18S122,195.16,120.65,197.42Z"/><path class="cls-1" d="M28.55,185.24c-7.5,26.52-9.83,66.48-11.3,74.76H41.66c2.77-35.48,7.52-100.6,7.52-100.6S36.87,155.83,28.55,185.24Z"/><path class="cls-2" d="M23.37,209.88c.23-1.44.46-2.88.71-4.31,7,2.09,14.14,3.13,21.54,2.06-.09,1.27-.19,2.55-.28,3.84A73.26,73.26,0,0,1,23.37,209.88Z"/><path class="cls-3" d="M28.24,197.42c1.36,2.25-.42,17.77-4.38,22.06s-13.68,0-10.29-4.09,3.61-16.39,4.74-18S26.89,195.16,28.24,197.42Z"/><path class="cls-4" d="M103,157.44h-57s-5.74,17.31-9.72,46.26A405.5,405.5,0,0,0,32.5,260h83.89a404,404,0,0,0-3.72-56.3C108.7,174.75,103,157.44,103,157.44Z"/><rect class="cls-5" x="73.09" y="179.3" width="2.71" height="80.7"/><rect class="cls-5" x="36.46" y="241.62" width="32.57" height="18.38"/><rect class="cls-5" x="79.67" y="241.62" width="32.57" height="18.38"/><path class="cls-6" d="M57.76,163.08c0,4.73,0,12,0,12.17,0,7.64,7.48,13.84,16.7,13.84s16.7-6.2,16.7-13.84c0-.25,0-7.36,0-12.17Z"/><path class="cls-3" d="M59.1,162.4c-.12,3,0,6,.59,7.43,1.45,3.17,26.26,3.28,29,0,1.21-1.48,1.33-4.66,1.1-7.71a42.88,42.88,0,0,0-15.3-2.52A48.59,48.59,0,0,0,59.1,162.4Z"/><path class="cls-7" d="M75.77,1.57H73.13C32.67,2.25,2.71,29.15,2.71,62.26a53.58,53.58,0,0,0,.92,9.86l4.23,45.43H44.33a84.86,84.86,0,0,0,28.8,5.39h0l1.09,0h.45l1.1,0h0a84.86,84.86,0,0,0,28.8-5.39H141l4.23-45.43a54.47,54.47,0,0,0,.92-9.86C146.19,29.15,116.22,2.25,75.77,1.57Z"/><path class="cls-1" d="M22,117.63s-7.78-9.57-16.46-5.12S8.91,146,26,148.4Z"/><path class="cls-1" d="M126.86,117.63s7.79-9.57,16.46-5.12S140,146,122.86,148.4Z"/><path class="cls-8" d="M18.51,76.28V132.8a27.67,27.67,0,0,0,10.82,22s17.49,12.56,45.12,12.11,45.11-12.11,45.11-12.11a27.65,27.65,0,0,0,10.83-22V76.28Z"/><path class="cls-7" d="M12.07,80s2.67,19,29.07,20.31l-5.24-7.9a43.86,43.86,0,0,0,35.84,5.19l-8.32-7.44s25.19,11.73,36.09,7.44L89.34,89.27s21.56,14.22,35.12,11.06l-15.74-9.92s17.36,7.64,28.11,4.51L127.68,80Z"/><path class="cls-4" d="M2.2,86.56H146.7l1.24-13.35a55.89,55.89,0,0,0,1-10.24C148.9,28.61,117.8.7,75.82,0H73.08C31.09.7,0,28.61,0,63A55.88,55.88,0,0,0,1,73.21Z"/><path class="cls-7" d="M74.45,72.8a5.22,5.22,0,0,1-5.42-5V21.7a5.44,5.44,0,0,1,10.84,0V67.81A5.22,5.22,0,0,1,74.45,72.8Z"/><path class="cls-7" d="M40.09,67.28a5.43,5.43,0,0,1-4.89-3.07L22.68,38.14a5.41,5.41,0,1,1,9.76-4.69L45,59.52a5.41,5.41,0,0,1-4.88,7.76Z"/><path class="cls-7" d="M108.81,67.28a5.41,5.41,0,0,0,4.88-3.07l12.53-26.07a5.41,5.41,0,1,0-9.76-4.69L103.93,59.52a5.42,5.42,0,0,0,2.53,7.23A5.47,5.47,0,0,0,108.81,67.28Z"/><path class="cls-6" d="M83.82,135.46s-2.14-6.8-9-7.24-9.75,8.34-9.75,8.34,4.31-6.52,9.74-5.91A15.28,15.28,0,0,1,83.82,135.46Z"/><path class="cls-6" d="M45.76,150l2.48.43c1.57.28,3.83.55,6.53.9l4.37.45,4.87.35,5.21.19,5.37-.06c1.73,0,3.62-.21,5.39-.3s3.48-.36,5.16-.52,3.29-.48,4.83-.68,3-.55,4.31-.77c5.34-1,8.86-2.09,8.86-2.09s-.8.45-2.28,1.1c-.74.3-1.63.7-2.68,1.09s-2.23.87-3.56,1.24-2.74.87-4.3,1.19-3.15.79-4.88,1-3.51.63-5.3.74-3.56.32-5.48.38H69.15c-1.81-.15-3.59-.28-5.31-.41a89,89,0,0,1-9.3-1.55A59.81,59.81,0,0,1,45.76,150Z"/><path class="cls-7" d="M53.61,106.12c2.36.92,2.58,6.13,2.58,6.13H30.41s.25-4.69,2.32-6.3S51.26,105.19,53.61,106.12Z"/><path class="cls-7" d="M95.28,106.12c-2.35.92-2.58,6.13-2.58,6.13h25.79s-.25-4.69-2.32-6.3S97.64,105.19,95.28,106.12Z"/><path class="cls-9" d="M38,127a1.49,1.49,0,0,1-1.48-1.35,8,8,0,0,1,6-8.28c5.2-1.53,9.05,2.51,10.35,4.86a1.47,1.47,0,0,1-.57,2,1.49,1.49,0,0,1-2-.57c-.11-.19-2.71-4.69-6.92-3.46a5,5,0,0,0-3.9,5.16A1.48,1.48,0,0,1,38.11,127Z"/><path class="cls-9" d="M110.94,127h-.15a1.48,1.48,0,0,1-1.34-1.61,5,5,0,0,0-3.9-5.16c-4.21-1.23-6.81,3.27-6.92,3.46A1.48,1.48,0,1,1,96,122.19c1.3-2.35,5.15-6.39,10.35-4.86a8,8,0,0,1,6,8.28A1.49,1.49,0,0,1,110.94,127Z"/></g></g></svg>