<svg xmlns="http://www.w3.org/2000/svg" viewBox="0 0 165.09 265.68"><defs><style>.cls-1{fill:#ad3936;}.cls-2{fill:#c65044;}.cls-3{fill:#6b4627;}.cls-4{fill:#ddb58e;}.cls-5{fill:#e2963b;}.cls-6{fill:#cc7d2e;}.cls-7{fill:#f4d3b0;}.cls-8{fill:#f2d0af;}.cls-9{fill:#3a332d;}.cls-10{fill:#e8dfd9;}.cls-11{fill:#492020;}</style></defs><title>资源 273</title><g id="图层_2" data-name="图层 2"><g id="Layer_1" data-name="Layer 1"><path class="cls-1" d="M39,163.93c-4.55,10-22.89,78.8-27.41,101.75H46.47l6.14-97.51S44.42,152,39,163.93Z"/><path class="cls-1" d="M126.06,163.93c-5.4-11.89-13.58,4.24-13.58,4.24l6.14,97.51h34.85C149,242.73,130.62,174,126.06,163.93Z"/><path class="cls-2" d="M120.19,160l-24.53-2.41H69.42L44.9,160s.67,47.71-1.48,71.79c-1.54,17.15-5.67,28.2-3.15,33.91h84.54c2.53-5.71-1.61-16.76-3.14-33.91C119.51,207.69,120.19,160,120.19,160Z"/><polygon class="cls-3" points="52.8 159.2 47.27 159.74 58.15 265.68 63.73 265.68 52.8 159.2"/><polygon class="cls-3" points="101.35 265.68 106.94 265.68 117.81 159.74 112.28 159.2 101.35 265.68"/><path class="cls-3" d="M125.6,261.63l-86.12-1a12,12,0,0,0,.79,5.08h84.54A10.93,10.93,0,0,0,125.6,261.63Z"/><path class="cls-4" d="M108.94,162.69c0,12.45-1.7,28.1-26.4,28.1-22.3,0-26.39-15.65-26.39-28.1S68,140.16,82.54,140.16,108.94,150.25,108.94,162.69Z"/><path class="cls-5" d="M10.19,108.36a40.76,40.76,0,0,1,0-23.62L1.85,90.53,8.34,70.85,0,76.64,10.19,61.82,1.39,60,15.64,51.4S5.09,44.22,6,31.26l5.79,5.55L13.2,23.62l2.44,4.16s2-7.64,14.46-14.35l-2.31,7.18S41.91,8.1,56.26,5.79l-1.15,5.09s9-8.1,17.36-9.72l-3.7,9.49,9.72-9.49,6.58,8.33L87.75,0,94,9s12.74-6,24.55-6.48l-10,7.41s20.14-7.18,36.12,8.33c0,0-9.26-.46-14.36,2.32,0,0,19.35,4.86,24.15,13.19l-16-3s18.75,10.42,24.31,23.39l-12.5-3.71s11.81,10.66,14.82,17.83l-14.36-6.25s10.65,11.12,13.2,18.76l-9.43-7a255.36,255.36,0,0,1,1.79,30L89.6,116.69Z"/><path class="cls-6" d="M70.67,73.28a19.73,19.73,0,0,0,3.81-1.34A25.29,25.29,0,0,0,83,65.81,21.77,21.77,0,0,0,86.8,60,23.09,23.09,0,0,0,89,52.66,12.07,12.07,0,0,0,87.57,45a6.44,6.44,0,0,0-2.78-2.6,4.88,4.88,0,0,0-3.62-.18c-2.42.86-4.2,3.24-5.33,5.73l-.42.95c-.07.14-.16.37-.2.43l-.16.51-.63,2c-.11.65-.22,1.29-.32,1.93s0,1.29,0,1.93a5.51,5.51,0,0,0,1.38,3.18,4.85,4.85,0,0,0,3,1.38,6,6,0,0,0,5.59-2.52,4.56,4.56,0,0,0,.51-1.32c.06-.52.15-1,.16-1.51a7.59,7.59,0,0,0-.26-2.69,3.59,3.59,0,0,0-1.24-1.92,2.75,2.75,0,0,0-1.87-.52,6.33,6.33,0,0,0-2.74,1l-.87.6.81-.68a6.24,6.24,0,0,1,2.77-1.24,3.26,3.26,0,0,1,2.19.45,4.27,4.27,0,0,1,1.6,2.12,8.31,8.31,0,0,1,.5,3,13.7,13.7,0,0,1-.08,1.58,8.7,8.7,0,0,1-.22.88,2.29,2.29,0,0,1-.34.84,7.15,7.15,0,0,1-6.61,3.37,6.32,6.32,0,0,1-4-1.65,6.79,6.79,0,0,1-1.91-4.09c0-.74-.07-1.5,0-2.25s.23-1.5.35-2.25l.6-2.06.15-.52.24-.57.45-1c1.2-2.7,3.09-5.56,6.32-6.76a6.7,6.7,0,0,1,5,.31A8.18,8.18,0,0,1,89,44.11a13.74,13.74,0,0,1,1.52,8.79A22.22,22.22,0,0,1,88,60.64a23.12,23.12,0,0,1-4.29,5.89,21.75,21.75,0,0,1-4.85,3.74,24.52,24.52,0,0,1-4.25,2,21.59,21.59,0,0,1-2.89.83C71,73.24,70.67,73.28,70.67,73.28Z"/><path class="cls-7" d="M23,104.59s-9.4-11.67-19-3.24c-9.86,8.69,6.32,36.3,21.27,37.27Z"/><path class="cls-7" d="M142.13,104.59s9.41-11.67,19-3.24c9.87,8.69-6.31,36.3-21.27,37.27Z"/><path class="cls-8" d="M148.07,103.9V100c-1.16-29.17-8.34-34.5-20.38-35.15s-16.21,4.59-24.54,4.59S82.57,66,82.57,66l0,.05c0,.08,0,.08,0,0s0,0,0-.05S70.23,69.46,61.9,69.46s-12.5-5.24-24.54-4.59S18.14,70.85,17,100v3.88l-.54-.52v12.85c0,26.85,22.6,48.71,50.82,49.56,3.34,3.23,2.79,7.61,6.74,8.44a40.19,40.19,0,0,0,8.39.49,40.19,40.19,0,0,0,8.39-.49c4-.82,3.4-5.2,6.74-8.43,28.36-.7,51.12-22.62,51.12-49.57V103.34Z"/><polygon class="cls-6" points="99.82 95.26 99.82 102.86 128.36 104.06 129.01 93.96 99.82 95.26"/><polygon class="cls-6" points="56.23 94.86 36.07 93.96 36.73 104.06 56.23 103.24 56.23 94.86"/><polygon class="cls-6" points="59 94.98 59 103.12 65.27 102.86 65.27 95.26 59 94.98"/><path class="cls-9" d="M132,114.79,106,117.26s.19,15.32,16.45,12.82C131.48,128.69,132,114.79,132,114.79Z"/><path class="cls-10" d="M122.76,122.79a3.09,3.09,0,1,1-3.09-3.09A3.09,3.09,0,0,1,122.76,122.79Z"/><path class="cls-9" d="M33.14,114.79l25.93,2.47s-.19,15.32-16.45,12.82C33.6,128.69,33.14,114.79,33.14,114.79Z"/><path class="cls-10" d="M42.33,122.79a3.09,3.09,0,1,0,3.09-3.09A3.09,3.09,0,0,0,42.33,122.79Z"/><path class="cls-4" d="M95.45,132.85s-6.5-7-13-7-12.82,7.72-12.82,7.72,9.57-5.49,12.92-5.49S95.45,132.85,95.45,132.85Z"/><path class="cls-11" d="M63.56,141.93s14.58,3.71,38,0L100,161.15s-18.82,3.47-32.48,0Z"/><path class="cls-2" d="M89.32,151.57c-9.07-1.76-16.16,2.37-20.37,9.92,13.5,2.89,31-.34,31-.34l.13-1.55C97.37,155.75,94.06,152.49,89.32,151.57Z"/></g></g></svg>