<svg xmlns="http://www.w3.org/2000/svg" viewBox="0 0 179.04 260.05"><defs><style>.cls-1{fill:#4b4c4c;}.cls-2{fill:#dd9828;}.cls-3{fill:#2b2d2d;}.cls-4{fill:#2f3233;}.cls-5{fill:#f2ac2f;}.cls-6{fill:#f9dab4;}.cls-7{fill:#efceab;}.cls-8{fill:#f9f5ed;}.cls-9{fill:#e0605c;}.cls-10{fill:#ad3936;}.cls-11{fill:#e5be9e;}.cls-12{fill:#f7cea6;}</style></defs><title>资源 142</title><g id="图层_2" data-name="图层 2"><g id="Layer_1" data-name="Layer 1"><path class="cls-1" d="M46.3,260.05h92.63v-59.9L46.3,201.59Z"/><rect class="cls-2" x="86.59" y="200.03" width="13.45" height="60.01"/><rect class="cls-2" x="46.3" y="239.99" width="12.48" height="20.06"/><rect class="cls-2" x="127.92" y="239.99" width="11.01" height="20.06"/><path class="cls-1" d="M46.3,169s-30.52,5.59-30.58,58.34c0,9.88.26,22.82.53,32.76H42.43c-.64-12-1.26-28-.6-36.26,1.31-16.39,6.34-18.36,6.34-18.36S68.86,175.19,46.3,169Z"/><path class="cls-1" d="M138.93,169s30.52,5.59,30.58,58.34c0,9.88-.26,22.82-.52,32.76H142.8c.64-12,1.27-28,.6-36.26-1.31-16.39-6.34-18.36-6.34-18.36S116.38,175.19,138.93,169Z"/><rect class="cls-3" x="46.3" y="168.95" width="92.63" height="36.48"/><path class="cls-4" d="M70.92,170.55V157.12s21.76-5.44,44.48,0v13.12A44.19,44.19,0,0,1,70.92,170.55Z"/><path class="cls-5" d="M21.1,112.33s-17.16-67-19.68-80S-7,6.28,54.3,1.67,147,2.92,166.77,8.38s10.07,23.92,8.81,40.29-12.35,60-12.35,60Z"/><path class="cls-2" d="M22.72,102.07,21.14,66.82s9.47-2.52,37.77-7.24A187.63,187.63,0,0,0,57,33.77c-.85-6.43,2.84-3.78,4.73,6.61a122.89,122.89,0,0,1,1.88,19.51L81.26,58s-3.15-27.07-3.15-31.16,4.58-1.3,4.93,10c.48,15.17,1.68,21.51,1.68,21.51s13.85.31,17.63.31c0-8.81-.95-31.78,1.57-31.78s1.89,3.77,1.89,13.53V58.63L125,59.89s.63-24.55.63-25.81,2.83-11,2.83,4.25V60.21s27.38,5.66,29.9,5.66.32,7.87.32,14.48-.63,26.13-.63,26.13Z"/><path class="cls-6" d="M24.3,70.92v47.36c0,19,15.78,48.55,65.87,48.55s65.19-22.41,65.19-42.58V68.84s-38.51-7.67-65.45-6.79S34.75,68.37,24.3,70.92Z"/><path class="cls-7" d="M97.2,120.91c-.17.08-.34.43-.51,1.18a5.11,5.11,0,0,1-1.39,2.8,8,8,0,0,1-5.64,2,8.21,8.21,0,0,1-5.43-1.85A3.92,3.92,0,0,1,83,122.63a5.84,5.84,0,0,0-.37-2.14,2.05,2.05,0,0,0-1,1.05,5.24,5.24,0,0,0-.41,2.07c0,3.34,3.78,6,8.43,6a10.37,10.37,0,0,0,6.59-2.22,5.46,5.46,0,0,0,1.77-3C98.07,124.17,97.9,120.57,97.2,120.91Z"/><path class="cls-4" d="M43.49,106.77l.26-.28a13.26,13.26,0,0,1,7.72-3.39c5.24-.77,12.88-.6,16.29,5,3.17,5.16-3.34,5.94-6.34,4.53-2.8-1.32-6.24-2.87-9.29-2-2.44.73-5.29,4.1-8,2.79C41.33,112.06,41.78,108.76,43.49,106.77Z"/><path class="cls-8" d="M62.49,110.92c-.36-.7.32-1.66,1.52-2.14s2.46-.32,2.83.38-.33,1.67-1.53,2.15S62.85,111.62,62.49,110.92Z"/><path class="cls-4" d="M113.52,106.77l.26-.28a13.21,13.21,0,0,1,7.72-3.39c5.24-.77,12.87-.6,16.29,5,3.16,5.16-3.35,5.94-6.34,4.53-2.81-1.32-6.24-2.87-9.29-2-2.44.73-5.29,4.1-8,2.79C111.35,112.06,111.8,108.76,113.52,106.77Z"/><path class="cls-8" d="M132.51,110.92c-.35-.7.33-1.66,1.53-2.14s2.46-.32,2.82.38-.33,1.67-1.52,2.15S132.87,111.62,132.51,110.92Z"/><path class="cls-9" d="M78.11,141.9,109.62,137s6.13,26-6.77,26.57-12.21-3.82-16.24-10.12A118.78,118.78,0,0,0,78.11,141.9Z"/><path class="cls-10" d="M111,147.05c-11.52-4.37-18.77,3.81-22.39,9.93,2.29,4.33,3.93,7.07,14.23,6.57C110.29,163.19,111.4,154.42,111,147.05Z"/><path class="cls-6" d="M27.23,103.31s-9.16-11.41-18.1-.52,1.81,32.14,17.43,20.83Z"/><path class="cls-11" d="M21.06,118.56s1.25-13-3.57-13.09S10.66,118.26,21.06,118.56Z"/><path class="cls-12" d="M17.49,105.47a3.63,3.63,0,0,0-3.19,2.44c2.15,2.57,5.41,6.82,6.78,10.41C21.22,116.58,21.92,105.6,17.49,105.47Z"/><path class="cls-6" d="M153.49,103.31s9.16-11.41,18.11-.52-1.81,32.14-17.43,20.83Z"/><path class="cls-11" d="M159.66,118.56s-1.24-13,3.57-13.09S170.06,118.26,159.66,118.56Z"/><path class="cls-12" d="M163.23,105.47c1.36,0,2.5,1,3.2,2.44-2.15,2.57-5.42,6.82-6.78,10.41C159.51,116.58,158.8,105.6,163.23,105.47Z"/><path class="cls-5" d="M65.66,91.71S62.91,82.83,55,82s-13.38,8.68-13.38,8.68a16.12,16.12,0,0,0-1.93,7.45S52.49,87.87,65.66,91.71Z"/><path class="cls-5" d="M114,91.71s2.75-8.88,10.64-9.68S138,90.71,138,90.71a16.12,16.12,0,0,1,1.94,7.45S127.15,87.87,114,91.71Z"/></g></g></svg>