<svg xmlns="http://www.w3.org/2000/svg" viewBox="0 0 242.09 260.42"><defs><style>.cls-1{fill:#2f3233;}.cls-2{fill:#39868e;}.cls-3{fill:#e5be9e;}.cls-4{fill:#a9dbd9;}.cls-5{fill:#f9dab4;}.cls-6{fill:#93ceca;}.cls-7{fill:#9dcece;}.cls-8{opacity:0.45;}.cls-9{fill:#efc4a0;}.cls-10{fill:#e0605c;}.cls-11{fill:#f7cea6;}.cls-12{fill:#f9f7f2;}</style></defs><title>资源 126</title><g id="图层_2" data-name="图层 2"><g id="Layer_1" data-name="Layer 1"><path class="cls-1" d="M209.72,229.23s-4.36-16.21-2.5-20.58a121.07,121.07,0,0,1,4.89,15.4s5.91-5,.44-17.87c11,10.19,16.21,10,16.21,10s-2.83-11.53-9.28-17.49c18.49,7.52,22.61,3.07,22.61,3.07a20,20,0,0,1-15.88-10.34c7.07,1.76,9.88,4.36,9.88,4.36s-9.72-23.35-31-12.8c-5,5.4-5.55,8.35-5.55,8.35S192.9,212.45,209.72,229.23Z"/><path class="cls-2" d="M201.88,176.09s7.5,6.94,4.82,13.6-12,3.86-17.42-.68C199.45,180.37,201.88,176.09,201.88,176.09Z"/><path class="cls-1" d="M169.45,165.53s-14,20.14,6.5,27.47,35-13.42,28.76-27.34S188.06,148.23,169.45,165.53Z"/><path class="cls-2" d="M154.21,167.73l27.07-27s10.14,8.71,4.1,15.75S165.06,180.58,154.21,167.73Z"/><path class="cls-1" d="M126.66,183.76s54.13-5.13,64.18-72-25-134-94.15-104.63c-43.11-19.42-80.27,6.86-93,47s7.6,110.44,60.61,128.77C112,186.32,126.66,183.76,126.66,183.76Z"/><path class="cls-3" d="M41.18,256.65a77.79,77.79,0,0,0,21.35.34l.11-.62C57.13,253.9,48.53,246.19,45.1,243Z"/><path class="cls-4" d="M74.63,165.35s-12.15-.5-19.13,14-9,16.74-9,16.74,15.61,7.46,23.69,7.46A196.41,196.41,0,0,0,74.63,165.35Z"/><polygon class="cls-5" points="56.52 203.34 71.66 207.81 61.84 260.42 40.16 260.42 56.52 203.34"/><path class="cls-6" d="M58.72,174.08c2.93,4.54,6.88,13.92,2.62,27.83a33.52,33.52,0,0,0,8.85,1.66c4.41-19.36.86-38.32.86-38.32S65.67,165,58.72,174.08Z"/><path class="cls-7" d="M67.38,202.65l-23.26-7.41s-1.9-.75-2.27,3.23-1.39,5.53,2.86,7.41,19.84,10.1,21.56,5.43S68.5,203.15,67.38,202.65Z"/><path class="cls-2" d="M41.85,198.47c.37-4,2.27-3.23,2.27-3.23l1.83.59a33.84,33.84,0,0,0-2,9.7C40.59,203.79,41.5,202.19,41.85,198.47Z"/><path class="cls-2" d="M53.26,198.15,51,208.8l-3.52-1.63,2.73-10Z"/><path class="cls-2" d="M58.67,211.81c-1.19-.37-2.44-.82-3.69-1.32l2.38-11,3.57,1.14Z"/><path class="cls-2" d="M64.21,201.65l3.17,1c1.12.5.61,4-1.11,8.66-.4,1.1-1.59,1.48-3.21,1.4C63.61,209.63,64,204.49,64.21,201.65Z"/><g class="cls-8"><path class="cls-2" d="M67.39,207.82c-.28,1.05-.65,2.22-1.12,3.49C64.55,216,49,207.77,44.71,205.88s-3.24-3.44-2.86-7.41C41.85,198.47,54.78,208.69,67.39,207.82Z"/></g><path class="cls-4" d="M124.59,165.35s12.16-.5,19.14,14,9,16.74,9,16.74-15.61,7.46-23.7,7.46A196.41,196.41,0,0,1,124.59,165.35Z"/><polygon class="cls-5" points="142.7 203.34 127.56 207.81 137.43 260.42 159.1 260.42 142.7 203.34"/><path class="cls-6" d="M140.5,174.08c-2.92,4.54-6.87,13.92-2.62,27.83a33.45,33.45,0,0,1-8.85,1.66c-4.41-19.36-.19-38.33-.19-38.33S133.55,165,140.5,174.08Z"/><path class="cls-7" d="M131.84,202.65l23.26-7.41s1.9-.75,2.28,3.23,1.38,5.53-2.87,7.41S134.67,216,133,211.31,130.73,203.15,131.84,202.65Z"/><path class="cls-2" d="M157.38,198.47c-.38-4-2.28-3.23-2.28-3.23l-1.83.59a33.84,33.84,0,0,1,2,9.7C158.63,203.79,157.73,202.19,157.38,198.47Z"/><path class="cls-2" d="M146,198.15l2.25,10.66,3.54-1.64-2.73-10Z"/><path class="cls-2" d="M140.55,211.81c1.19-.37,2.44-.82,3.69-1.32l-2.37-11-3.58,1.14Z"/><path class="cls-2" d="M135,201.65l-3.17,1c-1.11.5-.61,4,1.11,8.66.41,1.1,1.59,1.48,3.22,1.4C135.62,209.63,135.21,204.49,135,201.65Z"/><g class="cls-8"><path class="cls-2" d="M131.83,207.82c.28,1.05.65,2.22,1.12,3.49,1.72,4.67,17.31-3.54,21.56-5.43s3.24-3.44,2.87-7.41C157.38,198.47,144.45,208.69,131.83,207.82Z"/></g><polygon class="cls-4" points="139.91 260.42 128.84 165.24 71.05 165.25 56.2 260.42 139.91 260.42"/><path class="cls-6" d="M96.42,259.76v.66h1.31C98,231.31,99.24,166,99.24,166,97.08,161.75,96.41,249.12,96.42,259.76Z"/><path class="cls-6" d="M115,164.9c0,6.15-6.57,11.14-14.66,11.14s-14.66-5-14.66-11.14,6.56-11.15,14.66-11.15S115,158.74,115,164.9Z"/><path class="cls-9" d="M115,163.79c0,5.54-6.57,10-14.66,10s-14.66-4.49-14.66-10,6.56-10,14.66-10S115,158.24,115,163.79Z"/><path class="cls-5" d="M163.3,97.89c0,38.24-28.42,69.25-63.48,69.25s-63.49-31-63.49-69.25S64.75,28.64,99.82,28.64,163.3,59.64,163.3,97.89Z"/><path class="cls-10" d="M78.2,146.64a29.06,29.06,0,0,0,6,3.58,38.33,38.33,0,0,0,16.14,3.53c6.81,0,14.91-1.77,23.86-7a.85.85,0,0,0,.31-1.14.79.79,0,0,0-1.1-.31c-8.73,5.12-16.53,6.81-23.07,6.81a36.67,36.67,0,0,1-15.48-3.39,31.86,31.86,0,0,1-4.2-2.32c-.47-.31-.83-.57-1.07-.76l-.27-.2-.06,0,0,0a.8.8,0,0,0-1.14.12A.87.87,0,0,0,78.2,146.64Z"/><path class="cls-1" d="M125.94,120.31a1.19,1.19,0,0,1-.86-1.43h0a11.87,11.87,0,0,1,1.47-3.42h0a6.49,6.49,0,0,1,6-3.31h.18a8.14,8.14,0,0,1,5.78,3.16h0a8.84,8.84,0,0,1,1.45,2.79h0a1.21,1.21,0,0,1-.8,1.47h0a1.14,1.14,0,0,1-1.42-.83h0l0-.12h0a4.08,4.08,0,0,0-.17-.43h0a6.89,6.89,0,0,0-.83-1.39h0a5.74,5.74,0,0,0-4.2-2.27h-.1a4,4,0,0,0-3.58,1.77h0a9.16,9.16,0,0,0-1.43,2.92h0l0,.2h0a1.17,1.17,0,0,1-1.21.92h0l-.18,0Z"/><path class="cls-1" d="M59.21,120.31a1.2,1.2,0,0,1-.86-1.43h0a11.87,11.87,0,0,1,1.47-3.42h0a6.5,6.5,0,0,1,6-3.31H66a8.12,8.12,0,0,1,5.77,3.16h0a9,9,0,0,1,1.46,2.79h0a1.21,1.21,0,0,1-.81,1.47h0a1.14,1.14,0,0,1-1.42-.83h0a.5.5,0,0,0,0-.12h0a4.08,4.08,0,0,0-.17-.43h0a6.78,6.78,0,0,0-.82-1.39h0a5.79,5.79,0,0,0-4.21-2.27h-.1a4,4,0,0,0-3.58,1.77h0a9.39,9.39,0,0,0-1.43,2.92h0c0,.15,0,.2,0,.2h0a1.16,1.16,0,0,1-1.2.92h0a1.08,1.08,0,0,1-.19,0Z"/><path class="cls-1" d="M130.47,93.32s6,13.5,21.17,12.15c-4,6.41-9.85,4.42-15.59,2.07C128.89,104.6,126,97.11,126,97.11Z"/><path class="cls-1" d="M66.9,93.32s-6,13.5-21.17,12.15c4,6.41,9.85,4.42,15.59,2.07,7.16-2.94,10.09-10.43,10.09-10.43Z"/><path class="cls-1" d="M29.93,90.66l41.35-3.61,4.66-25.29,5.82,22.88H122l4.66-22.28,5.82,24.69H172s-4.36-47.87-39-62S39.24,16,29.93,90.66Z"/><path class="cls-11" d="M97.62,118.62c-1.14,2.39-1.61,4.95-2.43,7.43s-3.11,5.29-2.06,8c.94,2.47,3.75,3.39,6.39,3.53,7.16.36,10.41-2.32,8.42-8.86C107.07,125.92,102,109.36,97.62,118.62Z"/><path class="cls-5" d="M98.3,117.83a58.46,58.46,0,0,0-2.08,6.67c-.73,2.29-2.62,4.77-1.78,7.22.75,2.21,3.06,3,5.24,3.11,5.89.27,8.6-2.16,7-8C106,124.29,102,109.5,98.3,117.83Z"/><path class="cls-12" d="M99.31,134.21c.07.35.86.49,1.76.33s1.58-.57,1.5-.91-.87-.49-1.77-.33S99.23,133.87,99.31,134.21Z"/></g></g></svg>