<svg xmlns="http://www.w3.org/2000/svg" viewBox="0 0 204.89 277.45"><defs><style>.cls-1{fill:#c1c1c1;}.cls-2{fill:#b7b7b7;}.cls-3{fill:#d1d1d1;}.cls-4{fill:#717272;}.cls-5{fill:#ba443e;}.cls-6{fill:#e0605c;}.cls-7{fill:#383835;}.cls-8{fill:#f9dab4;}.cls-9{fill:#f7cea6;}.cls-10{fill:#e5be9e;}.cls-11{fill:#343435;}.cls-12{fill:#f4c7a2;}.cls-13{fill:#f9f7f2;}.cls-14{fill:#fff;}</style></defs><title>资源 354</title><g id="图层_2" data-name="图层 2"><g id="Layer_1" data-name="Layer 1"><path class="cls-1" d="M31.13,277.45,26.84,172.22S.28,174.45,0,277.45Z"/><path class="cls-1" d="M150.54,277.45c-.28-103-26.84-105.23-26.84-105.23l-4.28,105.23Z"/><rect class="cls-2" x="38.04" y="172.47" width="77.69" height="104.98"/><path class="cls-3" d="M61.29,207.16a124.39,124.39,0,0,1-13,1.71V196.31c0-5.53,1.28-18.19-3.19-18.19s-13.38-7.68-13.38-7.68c-8.08,0-15.58,14-9.62,29.3s2.69,65,1.74,77.71H66.18v-67.1C66.18,206.74,66.18,206.1,61.29,207.16Z"/><path class="cls-3" d="M115.12,168c-5.64,5.64-13.84,22.39-59.79,19v16.17c0,2.34,3.19.85,10.85-.85s4.68,2.55,4.68,7.66v67.52h52.76c-.42-11.27-1.66-45.87-1.35-55.18.37-11.17-.51-26.07,6.44-33.81C133.92,182.65,125.57,167.16,115.12,168Z"/><path class="cls-4" d="M66.82,194.88a3.57,3.57,0,1,1-3.56-3.57A3.56,3.56,0,0,1,66.82,194.88Z"/><path class="cls-2" d="M84.93,277.45h15.15v-98.9a72,72,0,0,1-15.15,3.2Z"/><path class="cls-5" d="M125.94,81s10-17.14,27-22.19,22,23.93,36.3,1.36c2.25-6.1,4.6-1.9,4.83,12.73s-6.15,24.28-16.25,23.49-18.21-7.55-23.69-15.57-20-3.42-22.55,3.63Z"/><path class="cls-6" d="M130.42,78.62S139.71,65.16,149,62.38s14.67-1.83,20,3.36,8.17,8,11.85,6.22,7.39-6,8.1-7.87,4-2.53,3.52,4-5,22.08-13.64,23.08S162.42,85,160.22,80.39s-9.7-8.93-13.91-6.91-4.39-.6-1.06-2.2,10.9-6.08,15.92-.13S167.68,79.73,172,79s2.5-1.31-.84-2.42-7.89-5.62-9.27-8.5-8.94-5.11-16.18,0-8.6,7.27-8.6,7.27S128.64,83.45,130.42,78.62Z"/><path class="cls-5" d="M120.79,79.29s17.76-37.16,22.33-47.23,6.94-8.91,22.66-7.74S197.32,7.46,201,2.48s6-2.93,1.13,10.62-1.27,17.27-13.92,26.52-37.48,26.43-46.43,34S114.84,89.76,120.79,79.29Z"/><path class="cls-6" d="M125.9,76.32s19.36-39.18,24.92-45S162.3,29.67,172.54,28s16.62-9.92,22-14.58,5.61-2.08,2.35,7S192,30.78,183.08,37.48,144.2,65.2,144.2,65.2s-6.25-.75,2.64-10.76,10.35-15.34,9.54-17-2.71,3.23-7.78,9.51-11.34,14.23-13.55,20.35S122.32,83.47,125.9,76.32Z"/><path class="cls-7" d="M18.65,126,13.48,68.46h5.95S16,37.83,38.58,15.28c0,0-.14,11.77,3.12,15,2.27-14.75,25-27.8,34.89-27.8,0,0-7.38,11.35-7.38,18.72C85,5.49,94.46,4.5,105.24,4.5c0,0-10.78,7.09-10.78,18.15,16.45-12.48,39.14.28,39.14.28s-14.75,6-16.17,16.17c13.9-7.66,23.12,1.56,23.12,1.56s-9.22,1.28-12.06,10.64C133,55.84,137,70.59,137,70.59l-5.39,53.32Z"/><path class="cls-8" d="M25.39,94v63c0,6.38,9.36,27.23,42.12,27.23s54-8.51,54-29.79V94Z"/><path class="cls-8" d="M27.69,126.68s-3-12.68-14.41-9.52-10.42,15.5-6.34,21.15S25,152.07,28.51,141C28.38,134,27.69,126.68,27.69,126.68Z"/><path class="cls-9" d="M13.28,117.16c11.42-3.16,14.41,9.52,14.41,9.52a2.18,2.18,0,0,0,0,.24s-5-10.58-15.34-8.08-5.61,19.1-.91,21.55S23.67,147,28.51,141C25,152.07,11,144,6.94,138.31S1.86,120.31,13.28,117.16Z"/><path class="cls-10" d="M22.46,130.91A11.07,11.07,0,0,0,21,126.15a.86.86,0,0,0-.1-.16,7.07,7.07,0,0,0-3.53-3,5.92,5.92,0,0,0-1.85-.4,1,1,0,0,0-1,.85.8.8,0,0,0,.8.88h.06a4.86,4.86,0,0,1,1.21.29,5.48,5.48,0,0,1,2,1.32,14.3,14.3,0,0,0-1.86.64,10,10,0,0,0-5.29,5c-.07.17-.15.35-.22.54a.8.8,0,0,0,.46,1l.06,0a1,1,0,0,0,1.13-.59c.05-.14.12-.27.18-.41a8,8,0,0,1,4.29-4,11.29,11.29,0,0,1,2-.64l.28-.06a10.47,10.47,0,0,1,1,3.72.77.77,0,0,0,.52.66.92.92,0,0,0,1.24-1Z"/><path class="cls-8" d="M117.15,126.68s3-12.68,14.41-9.52,10.42,15.5,6.33,21.15-18,13.76-21.57,2.66C116.46,134,117.15,126.68,117.15,126.68Z"/><path class="cls-9" d="M131.56,117.16c-11.43-3.16-14.41,9.52-14.41,9.52l0,.24s5-10.58,15.33-8.08,5.62,19.1.92,21.55-12.21,6.61-17.06.58c3.57,11.1,17.48,3,21.57-2.66S143,120.31,131.56,117.16Z"/><path class="cls-10" d="M122.37,130.91a11.21,11.21,0,0,1,1.43-4.76.86.86,0,0,1,.1-.16,7.12,7.12,0,0,1,3.54-3,5.94,5.94,0,0,1,1.84-.4,1,1,0,0,1,1,.85.79.79,0,0,1-.8.88h-.06a4.92,4.92,0,0,0-1.2.29,5.59,5.59,0,0,0-2,1.32,13.89,13.89,0,0,1,1.87.64,10,10,0,0,1,5.28,5,4.35,4.35,0,0,1,.22.54.79.79,0,0,1-.45,1l-.06,0a1,1,0,0,1-1.13-.59l-.18-.41a8.08,8.08,0,0,0-4.29-4,11.36,11.36,0,0,0-2-.64l-.28-.06a10.69,10.69,0,0,0-1,3.72.76.76,0,0,1-.51.66.93.93,0,0,1-1.25-1Z"/><path class="cls-10" d="M57.08,169.73a1.06,1.06,0,0,1-.77-1.29h0a1.06,1.06,0,0,1,1.29-.78h0s1.46.37,3.94.72h0a60.4,60.4,0,0,0,9.86.57h0a44.36,44.36,0,0,0,15.68-3.06h0c10.72-4.73,18.45-8.53,18.47-8.53h0a1.06,1.06,0,0,1,1.43.48h0a1.09,1.09,0,0,1-.49,1.43h0s-7.8,3.82-18.58,8.58h0a46.51,46.51,0,0,1-16.45,3.23h0a59.15,59.15,0,0,1-14.38-1.35Z"/><path class="cls-11" d="M59.32,115.38s-17.44-4.56-24-3.5c.87-7.82,12.32-7.79,19-6.17C57.57,108.06,59.32,115.38,59.32,115.38Z"/><path class="cls-11" d="M88.89,115.38s17.43-4.56,24-3.5c-.88-7.82-12.32-7.79-19-6.17C90.63,108.06,88.89,115.38,88.89,115.38Z"/><path class="cls-12" d="M66.76,125.52c-2.26,4-3.18,8.22-4.81,12.33s-6.16,8.78-4.08,13.35c1.86,4.11,7.42,5.63,12.66,5.86,14.17.61,20.6-3.85,16.66-14.7C85.47,137.63,75.52,110.13,66.76,125.52Z"/><path class="cls-8" d="M68.1,124.2c-1.91,3.57-2.73,7.39-4.12,11.08s-5.17,7.91-3.51,12c1.49,3.66,6,5,10.36,5.16,11.67.44,17-3.6,13.9-13.28C83.37,134.93,75.5,110.36,68.1,124.2Z"/><path class="cls-13" d="M70.09,151.41c.16.57,1.73.81,3.51.54s3.11-.95,3-1.52-1.72-.81-3.5-.54S70,150.84,70.09,151.41Z"/><path class="cls-11" d="M57.3,129.73A10.43,10.43,0,1,1,46.88,119.3,10.43,10.43,0,0,1,57.3,129.73Z"/><path class="cls-14" d="M49.74,123.7c.37,1.91-1.67,3.9-4.56,4.46s-5.52-.54-5.88-2.44,1.67-3.9,4.55-4.45S49.37,121.8,49.74,123.7Z"/><path class="cls-11" d="M112.61,129.73a10.43,10.43,0,1,1-10.43-10.43A10.43,10.43,0,0,1,112.61,129.73Z"/><path class="cls-14" d="M105.05,123.7c.37,1.91-1.67,3.9-4.56,4.46s-5.52-.54-5.88-2.44,1.67-3.9,4.55-4.45S104.68,121.8,105.05,123.7Z"/><path class="cls-5" d="M16.15,98.13S94.06,100.67,134.54,95c13.53-3.7,13-11.92,3.88-15,7.09-11.35,11.63-19.72-1.27-19.72H63.82c-10.21,0-47.51.29-54.46,7.24s.57,13.47,3.83,13.47S-5.15,98.13,16.15,98.13Z"/><path class="cls-6" d="M27.94,78.88S15.82,80.59,10.5,75.27,17.09,64.2,29.22,64.2h63c14.25,0,36.16-1.49,42.54-1.49s7.44.92,4.9,6.81S133.25,78,120.48,80.16,98,83,96,85.05s-1.92,5.32,10.21,2.34,27.43-5.43,33-2.34-8.29,7.66-18.5,9.15-47.45,1.49-60.85,1.49-43.18.85-47-1.07-1.31-4.43,2.27-8,9-4.11,15-4.11,21.49-3.19,30.63-5.11-1.91-4.46-10.63-1.91S27.94,78.88,27.94,78.88Z"/></g></g></svg>