<svg xmlns="http://www.w3.org/2000/svg" viewBox="0 0 171.53 268.22"><defs><style>.cls-1{fill:#f9dab4;}.cls-2{fill:#e2963b;}.cls-3{fill:#efc4a0;}.cls-4{fill:#6b4627;}.cls-5{fill:#f4d3b0;}.cls-6{fill:#f26d49;}.cls-7{fill:#3d868e;}.cls-8{fill:#3a332d;}.cls-9{fill:#e8dfd9;}.cls-10{fill:#492020;}.cls-11{fill:#c65044;}.cls-12{fill:#f9f5ed;}</style></defs><title>资源 334</title><g id="图层_2" data-name="图层 2"><g id="Layer_1" data-name="Layer 1"><path class="cls-1" d="M134.24,222.45c-6-25-10.33-43.36-19.11-47.7s-7.56,10.12-7.56,10.12,3.4,42.78,8.38,83.35h25C139.47,253.13,137.24,234.93,134.24,222.45Z"/><path class="cls-1" d="M56.4,174.75c-8.77,4.34-13.11,22.68-19.11,47.7-3,12.48-5.22,30.68-6.7,45.77h25c5-40.57,8.38-83.35,8.38-83.35S65.18,170.42,56.4,174.75Z"/><path class="cls-2" d="M85.77,164.07l-.87,0v.06a220.06,220.06,0,0,0-23.14,2.22s-12.32,63.77-15.91,101.9h79.84c-3.6-38.13-15.92-101.9-15.92-101.9a220.06,220.06,0,0,0-23.13-2.22V164Z"/><path class="cls-3" d="M105.34,174.2c0,4.36,0,29.23-19.57,29.23S66.19,178.56,66.19,174.2s8.77-7.88,19.58-7.88S105.34,169.85,105.34,174.2Z"/><path class="cls-4" d="M165.87,70.83a18.72,18.72,0,0,0-3.62-2.66c5-6.6,4.66-15.86-1.26-21.5a15.28,15.28,0,0,0-6.4-3.65,17.42,17.42,0,0,0,.5-2.19c1.36-9-4.6-17.44-13.3-18.75a15.22,15.22,0,0,0-7.25.67,16.07,16.07,0,0,0-13.43-14.9,15.78,15.78,0,0,0-14.48,5.68C105.07,5.83,97.75,0,88.94,0,81.2,0,74.62,4.5,72.07,10.8c-4.92-4-12.46-5.18-19.63-2.44-8.38,3.21-13.56,10.73-13.15,18.1A16.54,16.54,0,0,0,16.14,48.05,16.54,16.54,0,0,0,6.92,78a16.54,16.54,0,0,0,7.63,29.88,17.77,17.77,0,0,0-.1,1.8,16.56,16.56,0,0,0,33,2.22h79.09a16.57,16.57,0,1,0,30.06-9.58,18.58,18.58,0,0,0,9.3-31.53Z"/><path class="cls-5" d="M36.17,127.34s-7.37-9.42-15.58-5,3.16,33,19.37,35.35Z"/><path class="cls-5" d="M135.37,127.34s7.36-9.42,15.58-5-3.16,33-19.37,35.35Z"/><path class="cls-1" d="M33,93l-.18,0v49.35a27.67,27.67,0,0,0,10.24,21.65s16.55,15.13,42.7,14.69,42.69-14.69,42.69-14.69a27.64,27.64,0,0,0,10.24-21.65V93Z"/><path class="cls-4" d="M128,76a16.45,16.45,0,0,0-14.62,8.53,16.91,16.91,0,0,0-27.62.83,16.92,16.92,0,0,0-27.62-.84A16.47,16.47,0,0,0,43.52,76c-9,0-16.34,6.87-16.34,15.34s7.32,15.34,16.34,15.34A16.66,16.66,0,0,0,57.06,100a16.84,16.84,0,0,0,28.71.94,16.83,16.83,0,0,0,28.7-1A16.65,16.65,0,0,0,128,106.72c9,0,16.34-6.87,16.34-15.34S137,76,128,76Z"/><rect class="cls-6" x="30.35" y="70.04" width="110.83" height="23.12"/><rect class="cls-7" x="30.35" y="76.04" width="110.83" height="11.12"/><path class="cls-8" d="M59.46,123.81a6.23,6.23,0,1,1-6.23-6.24A6.22,6.22,0,0,1,59.46,123.81Z"/><path class="cls-9" d="M54.26,119.47c.15.75-.78,1.58-2.08,1.84s-2.47-.14-2.63-.89.78-1.58,2.09-1.84S54.11,118.71,54.26,119.47Z"/><path class="cls-8" d="M124.53,123.81a6.23,6.23,0,1,1-6.22-6.24A6.22,6.22,0,0,1,124.53,123.81Z"/><path class="cls-9" d="M119.33,119.47c.15.75-.78,1.58-2.08,1.84s-2.47-.14-2.63-.89.78-1.58,2.08-1.84S119.18,118.71,119.33,119.47Z"/><path class="cls-3" d="M93.6,140.65s-1.78-5.7-7.51-6.07-8.15,7-8.15,7,3.6-5.45,8.14-4.94A12.74,12.74,0,0,1,93.6,140.65Z"/><path class="cls-10" d="M66.19,153.9h39.15S106,169,85.77,169.23,66.19,153.9,66.19,153.9Z"/><path class="cls-11" d="M74.62,167.15a25.13,25.13,0,0,0,11.15,2.08A26,26,0,0,0,96.88,167a11.29,11.29,0,0,0-22.26.2Z"/><path class="cls-12" d="M70.89,264.52v-6.08L81.33,248c2-1.95,3.53-3.65,4.71-5.06a28.14,28.14,0,0,0,2.73-3.8A10.59,10.59,0,0,0,90,236.05a14.16,14.16,0,0,0,.3-2.94,7,7,0,0,0-.4-2.38,5.67,5.67,0,0,0-1.19-2,5.45,5.45,0,0,0-2-1.31,7,7,0,0,0-2.7-.5,10.42,10.42,0,0,0-4.83,1.14,17.56,17.56,0,0,0-4.22,3l-4.36-5.61a23.39,23.39,0,0,1,6.47-4.27,18.84,18.84,0,0,1,7.78-1.6,19.34,19.34,0,0,1,5.88.83,12.53,12.53,0,0,1,4.5,2.44A10.91,10.91,0,0,1,98.23,227a14.43,14.43,0,0,1,1,5.61,16.62,16.62,0,0,1-.71,4.92,19.26,19.26,0,0,1-2.06,4.43,29.37,29.37,0,0,1-3.33,4.33c-1.31,1.44-2.82,3-4.5,4.55l-6.42,6.12h18.6v7.6Z"/></g></g></svg>