<?xml version="1.0" standalone="no"?><!DOCTYPE svg PUBLIC "-//W3C//DTD SVG 1.1//EN" "http://www.w3.org/Graphics/SVG/1.1/DTD/svg11.dtd"><svg t="1548133740132" class="icon" style="" viewBox="0 0 1024 1024" version="1.1" xmlns="http://www.w3.org/2000/svg" p-id="21257" xmlns:xlink="http://www.w3.org/1999/xlink" width="200" height="200"><defs><style type="text/css"></style></defs><path d="M511.74 992.222c-268.016 0-485.293-217.276-485.293-485.293S243.723 21.636 511.74 21.636s485.293 217.276 485.293 485.293S779.757 992.222 511.74 992.222z m0-50.2c45.646 0 89.617-7.089 130.95-20.11L387.481 666.675c-1.294-1.263-1.914-2.857-2.857-4.31-45.125-37.029-73.683-92.799-73.683-155.236v-0.199c0-4.3 0.403-8.562 0.645-12.849L116.849 688.818C185.788 838.15 336.47 942.032 511.742 942.032z m0-585.691c-83.173 0-150.606 67.427-150.606 150.606s67.427 150.606 150.606 150.606c83.173 0 150.606-67.427 150.606-150.606 0-83.173-67.427-150.606-150.606-150.606zM76.618 506.93c0 45.646 7.116 89.617 20.17 130.95l255.184-255.209c1.294-1.263 2.889-1.914 4.369-2.857 37.007-45.125 92.763-73.683 155.187-73.683h0.226c4.3 0 8.562 0.377 12.847 0.645L329.864 112.068C180.532 180.978 76.625 331.663 76.625 506.93zM511.74 71.837c-45.646 0-89.617 7.089-130.95 20.139l255.209 255.209c1.294 1.263 1.914 2.889 2.857 4.31 45.125 37.029 73.683 92.799 73.683 155.236v0.199c0 4.3-0.403 8.562-0.645 12.849l194.708-194.708C837.692 175.709 687.007 71.832 511.74 71.832z m159.739 559.332c-1.263 1.294-2.857 1.914-4.31 2.857-37.029 45.125-92.799 73.683-155.236 73.683h-0.199c-4.3 0-8.562-0.403-12.849-0.645l194.737 194.708c149.332-68.91 253.214-219.595 253.214-394.862 0-45.646-7.089-89.617-20.11-130.95L671.489 631.169z" p-id="21258"></path></svg>