<svg xmlns="http://www.w3.org/2000/svg" viewBox="0 0 184.66 260"><defs><style>.cls-1{fill:#ba443e;}.cls-2{fill:#e0605c;}.cls-3{fill:#ad3936;}.cls-4{fill:#efc4a0;}.cls-5{fill:#c65044;}.cls-6{fill:#4c3626;}.cls-7{fill:#f4d3b0;}.cls-8{fill:#f9dab4;}.cls-9{fill:#3a332d;}.cls-10{fill:#e8dfd9;}</style></defs><title>资源 196</title><g id="图层_2" data-name="图层 2"><g id="Layer_1" data-name="Layer 1"><path class="cls-1" d="M58.05,151.25S22.58,231.8,20.94,249.39A15.58,15.58,0,0,0,23.39,260H49.72l.18-.21C59.61,248.5,74.29,137.28,58.05,151.25Z"/><path class="cls-1" d="M126.61,151.25c-16.24-14-1.56,97.25,8.15,108.54l.18.21h26.33a15.63,15.63,0,0,0,2.46-10.61C162.08,231.8,126.61,151.25,126.61,151.25Z"/><path class="cls-2" d="M43.3,260h98.06C140.63,227.15,123,150,123,150l-30.64,1.62L61.69,150S44,227.15,43.3,260Z"/><path class="cls-3" d="M94.92,180.32l-10,11.92a1.51,1.51,0,0,0-.36,1V260h3.08V193.79l9.64-11.5a1.54,1.54,0,0,0-2.36-2Z"/><polygon class="cls-4" points="70.57 158.6 117.26 158.6 92.71 183.16 70.57 158.6"/><path class="cls-5" d="M56.86,161.12c-1.79,5.31,16.61,29.66,32,25.89s-7.21-24.47-16.39-28.79S58.65,155.81,56.86,161.12Z"/><path class="cls-5" d="M127.8,161.12c1.78,5.31-16.61,29.66-32,25.89s7.21-24.47,16.4-28.79S126,155.81,127.8,161.12Z"/><path class="cls-3" d="M97.91,199.2a3.66,3.66,0,1,1-3.66-3.66A3.66,3.66,0,0,1,97.91,199.2Z"/><path class="cls-3" d="M97.91,218a3.66,3.66,0,1,1-3.66-3.65A3.66,3.66,0,0,1,97.91,218Z"/><path class="cls-3" d="M97.91,236.89a3.66,3.66,0,1,1-3.66-3.65A3.66,3.66,0,0,1,97.91,236.89Z"/><path class="cls-3" d="M97.91,255.74a3.66,3.66,0,1,1-3.66-3.65A3.66,3.66,0,0,1,97.91,255.74Z"/><path class="cls-6" d="M184.66,78.85c0,15.21-5.7,48.33-15.5,60.09-16.56,19.89-44.79,14-76.83,14-33.16,0-62.23,4.94-78.52-16.13C5.06,125.5,0,93.17,0,78.85,0,37.92,41.34,0,92.33,0S184.66,37.92,184.66,78.85Z"/><path class="cls-7" d="M40,107.41S23.39,91.2,13.11,98.71s2.94,37.16,29.13,37.55Z"/><path class="cls-7" d="M144.68,107.41s16.6-16.21,26.88-8.7-2.94,37.16-29.14,37.55Z"/><path class="cls-8" d="M158.86,82.11l-65-15.41L25.81,82.11s-7.52,84.19,66,84.19h1C166.36,166.3,158.86,82.11,158.86,82.11Z"/><path class="cls-9" d="M119.86,115.54a1.36,1.36,0,0,1-.12-2.72c.08,0,9.4-.93,13-3.13a1.38,1.38,0,0,1,1.88.46,1.36,1.36,0,0,1-.48,1.86c-4.17,2.53-13.79,3.49-14.19,3.52Z"/><path class="cls-9" d="M121.32,112.56h-.2a1.36,1.36,0,0,1,0-2.72h.17c6.87,0,10.94-5.6,11-5.66a1.36,1.36,0,0,1,2.22,1.57C134.31,106,129.62,112.56,121.32,112.56Z"/><path class="cls-9" d="M113.41,110.41a6.7,6.7,0,1,0,4.92-8.1A6.71,6.71,0,0,0,113.41,110.41Z"/><path class="cls-10" d="M116.9,105c0,1,1.44,1.71,3.13,1.64s3-.91,3-1.88-1.43-1.72-3.12-1.65S116.87,104.05,116.9,105Z"/><path class="cls-9" d="M64.8,115.54a1.36,1.36,0,0,0,.13-2.72c-.09,0-9.41-.93-13.06-3.13a1.35,1.35,0,1,0-1.4,2.32c4.17,2.53,13.79,3.49,14.2,3.52Z"/><path class="cls-9" d="M63.34,112.56h.2a1.36,1.36,0,1,0,0-2.72h-.17c-6.87,0-10.94-5.6-11-5.66a1.36,1.36,0,0,0-2.22,1.57C50.35,106,55,112.56,63.34,112.56Z"/><path class="cls-9" d="M71.25,110.41a6.7,6.7,0,1,1-4.92-8.1A6.7,6.7,0,0,1,71.25,110.41Z"/><path class="cls-10" d="M67.76,105c0,1-1.44,1.71-3.13,1.64s-3-.91-3-1.88,1.44-1.72,3.13-1.65S67.8,104.05,67.76,105Z"/><path class="cls-5" d="M81.2,142.56s2.81-4.36,6-4.16,5,3.42,5,3.42,2.91-3.35,6.32-3.28,4.89,4.36,4.89,4.36-3.39,8.17-11.46,8.17S81.2,142.56,81.2,142.56Z"/><path class="cls-4" d="M86.76,126.72s.55-5.15,5.36-5.18,5.78,5.18,5.78,5.18-2.62-3.17-5.69-3.17S86.76,126.72,86.76,126.72Z"/><path class="cls-6" d="M134,75.59s20.16,10.67,18.09,29.64-10.67,21-18.09,12.85c0,0,0,17.39,18.24,10.57s17-37.35,17-37.35l-2-16.37Z"/><path class="cls-6" d="M50.69,75.59S30.53,86.26,32.61,105.23s10.67,21,18.08,12.85c0,0,0,17.39-18.24,10.57s-17-37.35-17-37.35l2-16.37Z"/><path class="cls-6" d="M33,91.43s15.15,1.52,25.52,1S71.79,90.25,73.77,88s2-12.14,2-12.14S76.51,90.7,80,91.43c4.43.94,39,1.26,40.48,0S123.08,78,123.08,78s0,12.52,3,13.77,24-.41,24-.41l3-16.84s-15-16.64-57.43-15.92S31.55,76,31.55,76Z"/></g></g></svg>