<svg xmlns="http://www.w3.org/2000/svg" viewBox="0 0 158.16 259.95"><defs><style>.cls-1{fill:#f9dab4;}.cls-2{fill:#f7cea6;}.cls-3{fill:#ea9d49;}.cls-4{fill:#e2963b;}.cls-5{fill:#f26d49;}.cls-6{fill:#7f5732;}.cls-7{fill:#6b4627;}.cls-8{fill:#568599;}.cls-9{fill:#467484;}.cls-10{fill:#d88832;}.cls-11{fill:#47413e;}.cls-12{fill:#fff;}.cls-13{fill:#e5be9e;}.cls-14{fill:#601b1b;}.cls-15{fill:#e0605c;}</style></defs><title>资源 360</title><g id="图层_2" data-name="图层 2"><g id="Layer_1" data-name="Layer 1"><path class="cls-1" d="M118.32,203.1a101.43,101.43,0,0,1,17,56.85h10.27c3.95-41.32-5.22-65.92-5.22-65.92Z"/><path class="cls-2" d="M118.32,203.1a98.61,98.61,0,0,1,12.07,25,49.67,49.67,0,0,0-.66-8.52c-.51-2.53-2-7,.44-9s6.83-1.85,9.69-2a1.13,1.13,0,0,1,1,.92c1,8.08,3,16,3.29,24.16-.08,8.56,0,17.63-.89,26.32h2.31c3.95-41.32-5.22-65.92-5.22-65.92Z"/><path class="cls-1" d="M45.6,203.1a101.32,101.32,0,0,0-17,56.85H18.35c-4-41.32,5.21-65.92,5.21-65.92Z"/><path class="cls-2" d="M45.6,203.1a98.89,98.89,0,0,0-12.06,25,49.68,49.68,0,0,1,.65-8.52c.52-2.53,2-7-.43-9s-6.84-1.85-9.69-2a1.12,1.12,0,0,0-1,.92c-1,8.08-3,16-3.29,24.16.08,8.56,0,17.63.89,26.32H18.35c-4-41.32,5.21-65.92,5.21-65.92Z"/><path class="cls-3" d="M53.19,168.92S28.11,173,14.57,211.46c0,0,11.1,13.87,32.23,15.1l7.27-43.43Z"/><path class="cls-4" d="M53.19,168.92s-6.1,1-13.91,6.61c-2,4.1-4.13,8.12-5,12.74-1.17,6-2.42,11.94-3.47,17.93-.89,5.09-1.82,10.32-4.19,14.63a48,48,0,0,0,20.22,5.73l7.27-43.43Z"/><path class="cls-3" d="M99.13,165.23c-32.83-4.53-36.93,2.4-36.93,2.4s-11.27-3.93-22.11,14.53c-7.62,13-3.92,37.77-3.92,37.77l2.38,40h86.1c.57-4.6,1.8-18.43.54-44.94l19.06-15S132,169.76,99.13,165.23Z"/><path class="cls-4" d="M45.51,184c8.07-8,16.32-9.15,26.91-6.34,4.26,1.14,8.86,1.93,13.19.58,3.72-1.17,6.81-3.33,10.37-4.8,5.08-2.09,10.42-3.37,15.67-5a55,55,0,0,0-12.52-3.25c-32.83-4.53-36.93,2.4-36.93,2.4s-11.27-3.93-22.11,14.53c-3.2,5.45-4.4,13-4.72,19.9A39.69,39.69,0,0,1,45.51,184Z"/><path class="cls-4" d="M117.82,195.45c-1.15,5.72,2.64,13,3.67,18.42,1.2,6.34,2.51,13.18.87,19.56-2.56,9.93-9.74,16.69-19.64,20.3-10.8,4-24.2,5.65-35.31,3.47-10.18-2-20.75-5.52-26.52-14.79A46.28,46.28,0,0,1,37.06,235l1.49,25h86.1c.57-4.6,1.8-18.43.54-44.94l3.27-2.57C125.86,206.08,123.33,199.61,117.82,195.45Z"/><polygon class="cls-5" points="42.28 212.16 63.14 200.73 71.94 179.3 88.03 200.1 114.57 209.37 97.89 219.1 104.84 244.13 76.11 236.25 53.87 249.23 59.89 223.74 42.28 212.16"/><path class="cls-6" d="M147.64,86.27c0,33.83-36.13,59.17-74.2,59.17S4.51,118,4.51,84.2,35.37,23,73.44,23,147.64,52.46,147.64,86.27Z"/><path class="cls-7" d="M73.44,23C35.37,23,4.51,50.38,4.51,84.2s30.86,61.24,68.93,61.24,74.2-25.34,74.2-59.17S111.51,23,73.44,23Zm70.48,61.18c-4.55,2.06-9.63,3.5-13.45,6.85-2.55,2.24-4.94,4.63-8.35,5.45-4.11,1-8.45,1-12.64,1-6.39.16-12.78.25-19.17.35-23.41.38-47,2.43-70.25-1a.66.66,0,0,1-.74.16c-5.88-2.14-12-3.63-12.15-11.25-.1-7.43,4-12.88,10.58-16,6.9-3.28,14.42-4.7,21.85-6.26C50.18,61.29,61,60.7,71.74,60.69c15.47,0,31.93-1.06,47.2,2.11,11.43,2.37,23.06,7.85,25.35,20.43A.81.81,0,0,1,143.92,84.15Z"/><path class="cls-1" d="M147.43,92.31c-2.92,0-6.21,3.18-8.79,7.27-.46-1.19-.77-1.85-.77-1.85s-1.2-10.83-8.26-19.52c-11.87-14.6-83.78-8.66-99.93-1.45-13.43,6-13.62,20.91-13.3,25.79-1.95-1.86-4.09-3-6.26-3C2.75,99.53,0,103.79,0,113.12S6,130,13.34,130c1.07,0,2.06,0,3,.06,14.07,40.87,59.18,41.59,59.18,41.59s.37,4.21,7.51,3.08,6-5.64,6-5.64c16.91-.75,29.68-8.26,45.84-25.62,5.64-6.06,7.7-13.47,8-20.55a16.82,16.82,0,0,0,1.76.1c9,0,13.53-10.12,13.53-17.45S153.35,92.31,147.43,92.31Z"/><path class="cls-2" d="M144,120.22c-5.4-2.62-4.81-12.37-3.5-17.13,1.72-6.27,6.16-9.14,11.61-9.41a9,9,0,0,0-4.72-1.37c-2.92,0-6.21,3.18-8.79,7.27-.46-1.19-.77-1.85-.77-1.85s-1.2-10.83-8.26-19.52c-11.87-14.6-83.78-8.66-99.93-1.45-13.43,6-13.62,20.91-13.3,25.79-1.95-1.86-4.09-3-6.26-3-4.79,0-7.62,1.81-9,5.63,1.66-1.75,4.15-3.12,6.56-2.86,7.57.84,8.18,9.89,8.25,15.94,0,2.41.82,7.27-1.58,9-1.71,1.23-3.89.64-5.66-.22a24.61,24.61,0,0,1-6.37-4.39c2.4,4.47,6.45,7.4,11,7.4,1.07,0,2.06,0,3,.06,14.07,40.87,59.18,41.59,59.18,41.59s.37,4.21,7.51,3.08,6-5.64,6-5.64c16.91-.75,29.68-8.26,45.84-25.62,5.64-6.06,7.7-13.47,8-20.55a16.82,16.82,0,0,0,1.76.1c4.7,0,8.15-2.75,10.41-6.41C153.81,117.63,146.66,121.49,144,120.22Zm-6.72,9.93c-1.87,7.72-6.68,14.28-12.84,19.21a73.26,73.26,0,0,1-21.67,11.74c-4,1.38-8.37,1.9-12.26,3.39-3.71,1.42-6.32,4.95-10.26,5.77-3.77.78-6.89-4.21-10.47-4.82a93.1,93.1,0,0,1-15.67-3.93c-8.83-3.12-17.18-7.5-23-15a71.7,71.7,0,0,1-11.92-22A43.51,43.51,0,0,1,17,112a37.66,37.66,0,0,1,.44-5.91c.26-1.8,1.08-3.55,1.14-5.39a42,42,0,0,1,.19-4.91c.49-3.32,2.22-6.1,4.26-8.8A24,24,0,0,1,31,80a31.5,31.5,0,0,1,4.71-2.2c16.75-5.63,35.21-7.18,53-6.81a113.87,113.87,0,0,1,23.92,2.68c5.3,1.26,11,2.6,15.16,6.44,7.37,6.86,9.63,17.5,10.31,27.17C138.57,114.6,139.06,123,137.32,130.15Z"/><path class="cls-6" d="M23.29,102.23,40.57,88.71s-5.22-8.78-15.37-1.26S23.29,102.23,23.29,102.23Z"/><path class="cls-6" d="M101.81,85.43l19.91,7.89s3.75-8.36-4.89-12.87S101.81,85.43,101.81,85.43Z"/><path class="cls-8" d="M4.51,74.81S27.05,53.4,76.07,53.4s70.18,21.41,70.18,21.41,6.27-15.4-5.75-35.69C138.4,35.57,127.35,25.6,121,25.23c-25.53-1.51-94.26-.5-100.6,7.11C1.34,55.16,4.51,74.81,4.51,74.81Z"/><path class="cls-9" d="M138,56.82c-4.12-8.58-5.49-18.14-7.7-27.37-3.26-2.29-6.67-4.07-9.3-4.22-25.53-1.51-94.26-.5-100.6,7.11l-.34.41C18,37.1,16,41.48,14.27,46c-1.81,4.74-2.92,10.14-6,14.3A23.94,23.94,0,0,1,5,63.93a36.87,36.87,0,0,0-.46,10.88S27.05,53.4,76.07,53.4s70.18,21.41,70.18,21.41a23.64,23.64,0,0,0,1.17-4.7A53.56,53.56,0,0,1,138,56.82Z"/><path class="cls-3" d="M139.06,64.71a44.17,44.17,0,0,0-5.14-2.78l.66.2C125.29,21,109.79-6.34,63.58,1.27,17.68,8.83,13.21,63.08,13.15,63.8a70.24,70.24,0,0,0-8.82,6.33,27.71,27.71,0,0,0,.18,4.68S27.05,53.4,76.07,53.4s70.18,21.41,70.18,21.41a15.51,15.51,0,0,0,.55-1.75C144.64,69.79,142.25,66.72,139.06,64.71Z"/><path class="cls-10" d="M139.06,64.71c-1.67-1.06-4.48-2.58-4.48-2.58-4.74-21-11.12-38.38-22.36-49.37,4.09,5.37,8.12,12.93,8,19.78-.08,7.18-5,10.88-11.32,13.15-9.63,3.45-19.82,4.64-30,4.64a261.5,261.5,0,0,1-32.15-1.67c-5.73-.73-12.23-1.75-16.89-5.47-5-3.94-5.74-9.25-5-15C14.71,45,13.18,63.39,13.15,63.8a70.24,70.24,0,0,0-8.82,6.33,27.71,27.71,0,0,0,.18,4.68S27.05,53.4,76.07,53.4s70.18,21.41,70.18,21.41a15.51,15.51,0,0,0,.55-1.75C144.64,69.79,142.25,66.72,139.06,64.71Z"/><path class="cls-11" d="M49.21,106A8.27,8.27,0,1,1,41,97.73,8.26,8.26,0,0,1,49.21,106Z"/><path class="cls-12" d="M40.3,106c-1.29,1.48-3.22,1.89-4.31.94s-.94-2.93.35-4.4,3.22-1.89,4.31-.93S41.58,104.53,40.3,106Z"/><path class="cls-11" d="M115.71,106a8.27,8.27,0,1,1-8.27-8.26A8.26,8.26,0,0,1,115.71,106Z"/><path class="cls-2" d="M145,114.32s-5.5-13.83,2.61-13c5,.52,5.32,5.44,3.19,8.89A9,9,0,0,1,145,114.32Z"/><path class="cls-13" d="M145,114.14l-1.16-3.63s8.43-9.42,8.16-3.48S145,114.14,145,114.14Z"/><path class="cls-2" d="M13.41,122.06s1.54-14.81-6-11.79c-4.65,1.86-3.65,6.68-.67,9.42A9,9,0,0,0,13.41,122.06Z"/><path class="cls-13" d="M13.38,121.87l.14-3.8s-10.67-6.79-8.8-1.14S13.38,121.87,13.38,121.87Z"/><path class="cls-2" d="M64.59,98.85S63.11,115.94,62.74,120s-7.52,13.85,8.64,14.77,5.45-27.63,5.45-27.63S73.21,90.21,64.59,98.85Z"/><path class="cls-1" d="M68,96.6s-1.48,17.09-1.85,21.12-7.51,13.86,8.64,14.77,5.45-27.63,5.45-27.63S76.59,88,68,96.6Z"/><path class="cls-12" d="M107,104.7c-1,1.76-2.91,2.59-4.16,1.84s-1.41-2.77-.36-4.53,2.91-2.58,4.16-1.84S108.07,103,107,104.7Z"/><path class="cls-12" d="M32,117.5c0,.52-.35.91-.71.89l-2.17-.14c-.35,0-.61-.46-.58-1h0c0-.51.35-.91.71-.89l2.17.15c.36,0,.61.46.58,1Z"/><path class="cls-12" d="M122.53,117.5c0,.52-.35.91-.71.89l-2.17-.14c-.36,0-.62-.46-.58-1h0c0-.51.35-.91.7-.89l2.18.15c.35,0,.61.46.58,1Z"/><path class="cls-14" d="M52.38,144.58s6.91.84,21.13-.72a137.88,137.88,0,0,0,25.22-5.17S95,156.25,78.07,158.94C60.85,161.67,52.38,144.58,52.38,144.58Z"/><path class="cls-15" d="M74.83,151.67c-4,.92-6.63,4.07-8,6.19a21.74,21.74,0,0,0,11.25,1.08,23.37,23.37,0,0,0,10.31-4.25C86.86,152.58,81.93,150.06,74.83,151.67Z"/></g></g></svg>