<svg xmlns="http://www.w3.org/2000/svg" viewBox="0 0 160.7 259.98"><defs><style>.cls-1{fill:#f4efed;}.cls-2{fill:#e2dcd9;}.cls-3{fill:#c65044;}.cls-4{fill:#ad3e3b;}.cls-5{fill:#3f3e3d;}.cls-6{fill:#302f2d;}.cls-7{fill:#f4d3b0;}.cls-8{fill:#f9dab4;}.cls-9{fill:#3a332d;}.cls-10{fill:#e8dfd9;}.cls-11{fill:#efc4a0;}</style></defs><title>资源 98</title><g id="图层_2" data-name="图层 2"><g id="Layer_1" data-name="Layer 1"><rect class="cls-1" x="48.4" y="156.46" width="64.15" height="103.51"/><circle class="cls-2" cx="86.6" cy="187.96" r="3.98"/><path class="cls-3" d="M80.67,169.46v3.25l-18.73,5a3.34,3.34,0,0,1-4.21-3.23v-7.59a3.34,3.34,0,0,1,4.33-3.2Z"/><path class="cls-3" d="M80.67,169.46v3.25l18.73,5a3.34,3.34,0,0,0,4.21-3.23v-7.59a3.35,3.35,0,0,0-4.34-3.2Z"/><rect class="cls-4" x="74.74" y="165.86" width="11.86" height="10.63" rx="3.7"/><path class="cls-2" d="M80.67,176.49l-.19,83.41S73,209.3,80.67,176.49Z"/><path class="cls-2" d="M90.58,212.4a4,4,0,1,1-4-4A4,4,0,0,1,90.58,212.4Z"/><path class="cls-2" d="M90.58,236.84a4,4,0,1,1-4-4A4,4,0,0,1,90.58,236.84Z"/><path class="cls-5" d="M4.42,260h45V157.63C38.81,160.79,8.61,177.06,4.42,260Z"/><path class="cls-6" d="M30,260h.24V185S24.19,242.79,30,260Z"/><path class="cls-5" d="M157.42,260c-4.19-82.92-34.39-99.19-45-102.35V260Z"/><path class="cls-6" d="M131.65,260h.23c5.77-17.19-.23-75-.23-75Z"/><path class="cls-5" d="M5.56,114.06s-12.51-38.4,0-69.8C18.93,10.71,66.84-18.83,108,14.89c0,0,68.56-12,48.3,99.17l-77.58,22.3Z"/><path class="cls-5" d="M102.83,17.36s3.92-11.12.29-14c0,0,6,1.18,7,5.59,0,0,6.68-3.87,10.89.46,0,0-11.84.91-13.65,9.05Z"/><path class="cls-7" d="M25.91,114.46S14,103.71,4.38,111.79c-10.57,8.89,3,31.14,24.64,31.29Z"/><path class="cls-7" d="M135.51,114.46s11.91-10.75,21.52-2.67c10.57,8.89-3,31.14-24.64,31.29Z"/><path class="cls-8" d="M97.65,164.66H63.23c-23.86,0-43.2-20.26-43.2-45.25V96.17c34.62-4.82,67.65-14.26,86.51-43.61,10.62,18.71,16.84,25,34.32,31.33v35.52C140.86,144.4,121.51,164.66,97.65,164.66Z"/><ellipse class="cls-9" cx="47.09" cy="123.63" rx="8.24" ry="8.63"/><path class="cls-10" d="M49.58,118c.24,1.24-1.22,2.59-3.25,3s-3.88-.23-4.12-1.46,1.22-2.59,3.26-3S49.35,116.73,49.58,118Z"/><polygon class="cls-9" points="131.97 103.59 100.83 110.91 99.98 104.48 130.6 98.82 131.97 103.59"/><ellipse class="cls-9" cx="114.05" cy="123.63" rx="8.24" ry="8.63"/><path class="cls-10" d="M116.55,118c.23,1.24-1.22,2.59-3.26,3s-3.88-.23-4.11-1.46,1.22-2.59,3.25-3S116.31,116.73,116.55,118Z"/><polygon class="cls-9" points="29.16 103.59 60.3 110.91 61.15 104.48 30.54 98.82 29.16 103.59"/><path class="cls-11" d="M70.81,132.55s16.32,6.28,20.48-3.64C91.29,128.91,87.44,144.09,70.81,132.55Z"/><path class="cls-11" d="M73.61,151.18c-9.08,0-15.84-.53-16.54-.59a1.23,1.23,0,0,1,.19-2.46c.43,0,43.13,3.39,60.55-7a1.15,1.15,0,0,1,1.61.46,1.28,1.28,0,0,1-.44,1.69C107.94,149.86,87.91,151.18,73.61,151.18Z"/></g></g></svg>