<svg xmlns="http://www.w3.org/2000/svg" viewBox="0 0 177.47 272.6"><defs><style>.cls-1{fill:#f2d0af;}.cls-2{fill:#3f3e3d;}.cls-3{fill:#b83e26;}.cls-4{fill:#eb5f24;}.cls-5{fill:#f9f7f2;}.cls-6{fill:#edcbae;}.cls-7{fill:#ddb58e;}.cls-8{fill:#3f2412;}.cls-9{fill:#fff;}.cls-10{fill:#444;}</style></defs><title>资源 49</title><g id="图层_2" data-name="图层 2"><g id="Layer_1" data-name="Layer 1"><path class="cls-1" d="M150.13,269.55c-1.39-3.24-8.12-55.92-8.12-55.92l-13.92,2.56,3,56.41h20A30,30,0,0,0,150.13,269.55Z"/><path class="cls-2" d="M133.42,180.92,149,213.4a25.79,25.79,0,0,1-21,9.28l-5.85-40.06Z"/><path class="cls-1" d="M28.2,269.55c1.39-3.24,8.12-55.92,8.12-55.92l13.92,2.56-3,56.41h-20A30,30,0,0,1,28.2,269.55Z"/><path class="cls-2" d="M44.91,180.92,29.36,213.4a25.79,25.79,0,0,0,21,9.28l5.85-40.06Z"/><path class="cls-3" d="M45.43,182.08V272.6h87.12V182.08L89,183.87Z"/><path class="cls-4" d="M46.53,159.57s-5.56,9.74-5.75,11,4.95,4.8,4.95,4.8a4.94,4.94,0,0,0-4.12,4.33c-.51,3.87-1.29,5.1,7.33,8.82s13.71,4.17,29.84,3.09,16.8-2.32,36.15-3.25,20.87-2.63,21.72-5.72,1.69-5.37-5.6-6.78c0,0,4.92-2,5.09-4.66s-6.11-11-6.11-11Z"/><path class="cls-1" d="M157.42,59.3,23,59.14s.66,31.56-1.17,46.2c-1,8.41-.46,15.69-.68,19-2,30.33,30.14,55.23,67.76,55.47s68.27-24.2,68.46-54.59a82.24,82.24,0,0,0-.47-10.07c-.26-2.56-.26-5.35-.4-8.5C155.92,93,157.42,59.3,157.42,59.3Z"/><path class="cls-5" d="M47.18,139.14a1.24,1.24,0,0,1-1.28,1.18l-4.15-.16a1.22,1.22,0,0,1-1.18-1.27h0a1.23,1.23,0,0,1,1.27-1.19l4.15.15a1.25,1.25,0,0,1,1.19,1.29Z"/><path class="cls-5" d="M136.51,139.71a1.23,1.23,0,0,1-1.28,1.18l-4.15-.15a1.23,1.23,0,0,1-1.18-1.28h0a1.22,1.22,0,0,1,1.27-1.18l4.15.15a1.24,1.24,0,0,1,1.19,1.28Z"/><path class="cls-1" d="M148.71,144.78a22.58,22.58,0,0,0,19-.25c10-4.88,14.9-24.91,2-29.7s-16.9,10.07-16.9,10.07Z"/><path class="cls-6" d="M154.72,138.69s4.1-21.94,13.7-14.36c5.89,4.65,2.39,11.15-3.07,13.82C161.91,139.82,157.45,140,154.72,138.69Z"/><path class="cls-7" d="M154.84,138.44l1.42-5.53s18.24-5.21,13.13,2.11S154.84,138.44,154.84,138.44Z"/><path class="cls-1" d="M28.54,143.52a22.6,22.6,0,0,1-19-.5C-.38,138-5,117.93,8,113.31s16.77,10.28,16.77,10.28Z"/><path class="cls-6" d="M22.6,137.35s-3.82-22-13.51-14.54c-5.95,4.58-2.54,11.13,2.89,13.86C15.39,138.39,19.85,138.59,22.6,137.35Z"/><path class="cls-7" d="M22.49,137.1l-1.36-5.55S3,126.11,8,133.5,22.49,137.1,22.49,137.1Z"/><path class="cls-8" d="M134.15,113.38a11,11,0,1,1-15.24-3.07A11,11,0,0,1,134.15,113.38Z"/><path class="cls-9" d="M126.69,110.81c1.09,1.64-.34,4.51-3.19,6.4s-6,2.11-7.14.47.34-4.51,3.19-6.41S125.6,109.17,126.69,110.81Z"/><path class="cls-8" d="M64.62,110.86a11,11,0,1,1-15.24-3.06A11,11,0,0,1,64.62,110.86Z"/><path class="cls-9" d="M57.16,108.29c1.09,1.64-.33,4.51-3.19,6.41s-6,2.1-7.14.46.34-4.51,3.19-6.4S56.07,106.65,57.16,108.29Z"/><path class="cls-7" d="M89.26,162.3c-16.07,0-26.36-3.24-26.79-3.38a1.32,1.32,0,0,1,.81-2.52c.1,0,10.36,3.25,26,3.25s26.24-3.22,26.34-3.25a1.32,1.32,0,0,1,1.66.87,1.34,1.34,0,0,1-.87,1.66C115.94,159.06,105.33,162.3,89.26,162.3Z"/><path class="cls-10" d="M164.87,42.9C148.08,5.51,108.27,14.49,89.75.1V0l-.07.05-.07,0V.1C71.09,14.49,31.28,5.51,14.49,42.9c-3.61,8-3.82,29.91-3.82,48,0,9,.42,16.27.93,21.59,3.52-.23,6.75,1.07,9.62,4.26,3-24.52,4-44.61,4-44.61S56.49,82.55,89.75,82.55s64.43-10.43,64.43-10.43a407.47,407.47,0,0,0,2.95,45.12,12.9,12.9,0,0,1,10.44-3,216.45,216.45,0,0,0,1.11-23.32C168.68,72.81,168.48,50.93,164.87,42.9Z"/><path class="cls-10" d="M36.59,104.2s14.87-2.13,18.6-2.44c5.66-.47,12.78-.5,12.78-.5s-1.54-7.92-2.91-9.39-13.38,0-20.58,1.84S36.59,95.55,36.59,104.2Z"/><path class="cls-10" d="M142.77,104.2s-14.87-2.13-18.61-2.44c-5.65-.47-12.77-.5-12.77-.5s1.54-7.92,2.91-9.39,13.38,0,20.58,1.84S142.77,95.55,142.77,104.2Z"/><path class="cls-7" d="M95.92,132.49h0a26.9,26.9,0,0,1-2,2.68A18.83,18.83,0,0,1,92,137.09a7.07,7.07,0,0,1-1.93,1.24,2,2,0,0,1-.73.13,3.64,3.64,0,0,1-1.73-.55,11,11,0,0,1-2.85-2.5,16,16,0,0,1-2.12-3.19,1,1,0,0,0-1.25-.43A.93.93,0,0,0,81,133a18,18,0,0,0,3.4,4.69,11.28,11.28,0,0,0,2.32,1.81,5.58,5.58,0,0,0,2.64.78,4,4,0,0,0,1.4-.25,9.18,9.18,0,0,0,2.56-1.63,23.81,23.81,0,0,0,3-3.23c.75-1,1.21-1.7,1.22-1.72a.92.92,0,0,0-.28-1.28A.94.94,0,0,0,95.92,132.49Z"/></g></g></svg>