<svg xmlns="http://www.w3.org/2000/svg" viewBox="0 0 200.6 269.45"><defs><style>.cls-1{fill:#494949;}.cls-2{fill:#f9f5ed;}.cls-3{fill:#515151;}.cls-4{fill:#54a3b5;}.cls-5{fill:#4493a0;}.cls-6{fill:#f4efed;}.cls-7{fill:#e2dcd9;}.cls-8{fill:#f4d3b0;}.cls-9{fill:#f9dab4;}.cls-10{fill:#c65044;}.cls-11{fill:#efc4a0;}.cls-12{fill:#3a332d;}.cls-13{fill:#e8dfd9;}.cls-14{fill:#4c3626;}</style></defs><title>资源 79</title><g id="图层_2" data-name="图层 2"><g id="Layer_1" data-name="Layer 1"><path class="cls-1" d="M131.22,16.21S129.16-3.32,158.54.5s21.89,33.64,25.27,52S193.66,74,200.56,71.75c0,0,.73,6.61-4.11,8.08,0,0,.37.73,4.15,0,0,0-6.36,27.47-42.35,1.61Z"/><path class="cls-2" d="M118.14,17.68s8.23-6.75,16.75-1.47,16.75,21.31,12.05,28.06Z"/><path class="cls-3" d="M83.46,10.72c-90.78,0-95.95,90.62-63.25,140C38.32,178.09,83.46,178,83.46,178s45.15.05,63.26-27.3C179.42,101.34,174.25,10.72,83.46,10.72Z"/><rect class="cls-4" x="53.99" y="166" width="59.31" height="58.65"/><path class="cls-5" d="M87.56,189.92A3.88,3.88,0,1,1,83.68,186,3.88,3.88,0,0,1,87.56,189.92Z"/><path class="cls-5" d="M87.56,205.68a3.88,3.88,0,1,1-3.88-3.87A3.88,3.88,0,0,1,87.56,205.68Z"/><polygon class="cls-5" points="70.77 190.36 83.38 178.13 95.99 190.36 111.91 165.73 55.24 165.73 70.77 190.36"/><path class="cls-6" d="M83.81,219c-15.06-13-25.78-31.13-26.43-55.14l-7.88-.37S21.8,179.16,13.3,269.45h141c-8.5-90.29-36.2-105.94-36.2-105.94l-7.88.37C109.6,187.89,98.87,206.06,83.81,219Z"/><path class="cls-7" d="M31.18,269.45c.62-12.62,2.54-45,6.54-63.36a355.32,355.32,0,0,0-12,63.36Z"/><path class="cls-7" d="M129.9,206.09c4,18.32,5.92,50.74,6.54,63.36h5.45A355.32,355.32,0,0,0,129.9,206.09Z"/><path class="cls-8" d="M22.34,109.11s-6.4-11.18-17.22-6.26c-11.55,5.25-3.52,35,23.68,38.74Z"/><path class="cls-8" d="M144.74,109.11s6.4-11.18,17.22-6.26c11.55,5.25,3.52,35-23.68,38.74Z"/><path class="cls-9" d="M115.75,165.87,96.91,173.3a36.72,36.72,0,0,1-26.89,0l-18.84-7.43A53.56,53.56,0,0,1,17.25,116V56.25H149.68V116A53.56,53.56,0,0,1,115.75,165.87Z"/><path class="cls-10" d="M72.26,150.58s3-4.51,6.46-4.3,5.34,3.53,5.34,3.53,3.11-3.46,6.75-3.39S96,150.93,96,150.93s-3.61,8.43-12.24,8.43S72.26,150.58,72.26,150.58Z"/><path class="cls-11" d="M90.1,130.2s-.59,5.32-5.73,5.35-6.18-5.35-6.18-5.35,2.81,3.28,6.09,3.28S90.1,130.2,90.1,130.2Z"/><path class="cls-12" d="M52.67,118.81h-.12c-.4,0-9.61-1-13.61-3.37a1.3,1.3,0,0,1,1.35-2.23c3.49,2.11,12.42,3,12.51,3a1.3,1.3,0,0,1-.13,2.6Z"/><path class="cls-12" d="M51.28,116c-8,0-12.45-6.25-12.64-6.52a1.3,1.3,0,0,1,.31-1.82,1.32,1.32,0,0,1,1.82.31h0c0,.06,3.94,5.42,10.51,5.42h.15a1.31,1.31,0,0,1,0,2.61Z"/><path class="cls-12" d="M58.85,113.9a6.42,6.42,0,1,1-4.71-7.76A6.42,6.42,0,0,1,58.85,113.9Z"/><path class="cls-13" d="M55.51,108.75c0,.93-1.38,1.64-3,1.57s-2.89-.87-2.86-1.81,1.38-1.64,3-1.58S55.54,107.81,55.51,108.75Z"/><path class="cls-14" d="M66.54,98.15V95.06a.73.73,0,0,0-.62-.71c-3.51-.49-21-2.64-29.46,2a.72.72,0,0,0-.27,1l1.6,2.62a.7.7,0,0,0,.83.31c2.41-.78,12.73-3.72,27.08-1.41A.72.72,0,0,0,66.54,98.15Z"/><path class="cls-14" d="M105.75,98.15V95.06a.73.73,0,0,1,.62-.71c3.5-.49,21-2.64,29.46,2a.71.71,0,0,1,.26,1L134.5,100a.7.7,0,0,1-.83.31c-2.41-.78-12.73-3.72-27.08-1.41A.72.72,0,0,1,105.75,98.15Z"/><path class="cls-12" d="M119.62,118.81a1.3,1.3,0,0,1-.13-2.6c.09,0,9-.89,12.51-3a1.3,1.3,0,1,1,1.35,2.23c-4,2.42-13.22,3.33-13.61,3.37Z"/><path class="cls-12" d="M121,116h-.19a1.31,1.31,0,0,1,0-2.61H121c6.61,0,10.47-5.36,10.51-5.41a1.3,1.3,0,1,1,2.13,1.5C133.46,109.71,129,116,121,116Z"/><path class="cls-12" d="M113.43,113.9a6.42,6.42,0,1,0,4.72-7.76A6.43,6.43,0,0,0,113.43,113.9Z"/><path class="cls-13" d="M116.78,108.75c0,.93,1.38,1.64,3,1.57s2.89-.87,2.85-1.81-1.37-1.64-3-1.58S116.74,107.81,116.78,108.75Z"/><path class="cls-3" d="M17.25,97s2.52-41.23,67.24-39.32c0,0-1.44,9.65-13.35,13.14,0,0,31.83,9.65,48.66-8.83,0,0,32.55,7.53,29.88,39.55l5.85-1.16-1.65-44.55L95.37,34.06,11.81,52.74Z"/></g></g></svg>