<svg xmlns="http://www.w3.org/2000/svg" viewBox="0 0 155.14 260"><defs><style>.cls-1{fill:#f4efed;}.cls-2{fill:#3a332d;}.cls-3{fill:#e2dcd9;}.cls-4{fill:#ea9628;}.cls-5{fill:#4c453f;}.cls-6{fill:#f4d3b0;}.cls-7{fill:#f9dab4;}.cls-8{fill:#efc4a0;}</style></defs><title>资源 60</title><g id="图层_2" data-name="图层 2"><g id="Layer_1" data-name="Layer 1"><path class="cls-1" d="M21.87,260H44.93l8.84-92.61-4.87-5.5S20.9,212.38,21.87,260Z"/><path class="cls-1" d="M128.34,260H105.28l-8.83-92.61,4.86-5.5S129.32,212.38,128.34,260Z"/><rect class="cls-1" x="52.91" y="156.59" width="45.29" height="42.13"/><rect class="cls-2" x="71.29" y="163.6" width="9.02" height="10.55"/><polygon class="cls-2" points="73.06 173.13 58.04 233.27 77.07 248.75 95.31 232.77 78.31 173.13 73.06 173.13"/><polygon class="cls-3" points="51.57 161.09 51.57 182.93 76.07 168.87 98.58 182.93 99.53 161 51.57 161.09"/><path class="cls-4" d="M101.49,158.27H90.06a14.89,14.89,0,0,1,.52,3.92v10.17a15.06,15.06,0,0,1-15.06,15.06h-.31a15.06,15.06,0,0,1-15.06-15.06V162.19a14.89,14.89,0,0,1,.52-3.92H49.24L39.88,258.75a5.78,5.78,0,0,0,0,1.25h72.35a5.37,5.37,0,0,0,0-1.33Z"/><path class="cls-5" d="M3.63,97.56S-16.88,0,78.44,0s71.11,98.87,71.11,98.87Z"/><path class="cls-6" d="M19.22,97.59S10.29,91,3.29,95.42c-8.77,5.6,1.61,30.16,12.17,41.72Z"/><path class="cls-6" d="M135.91,97.59s8.94-6.63,15.93-2.17c8.78,5.6-1.61,30.16-12.17,41.72Z"/><path class="cls-7" d="M139.68,137.14s-18,29.38-62.11,29.38-62.11-29.38-62.11-29.38V71.23c1.32-18.75,25.94-22.85,59-18.75s57.37,15.46,65.21,31.67Z"/><path class="cls-2" d="M130,55.53c1.38-2,8.78-.86,8.78-.86-9.81-13.26-26.5-12.08-26.5-12.08.22-1.31,7.86-5.23,7.86-5.23C77.38,30.51,60.22,46.15,56,51.06a182,182,0,0,1,18.48,1.42c33,4.09,57.21,25.39,65.13,41.58,6.9-3.71,2.42-15.63,2.42-15.63,3.45-.61,5.86,5.33,5.86,5.33C151.24,67,130,55.53,130,55.53Z"/><path class="cls-8" d="M64.09,127.21s1.67-11.8,10.53-11.43,11,10.94,11,10.94-3.84-7.66-11.08-7.57C67.53,119.23,64.09,127.21,64.09,127.21Z"/><path class="cls-8" d="M75.07,143.9c-12.28,0-23.19-1.11-24.11-1.21a1.16,1.16,0,1,1,.24-2.31c.11,0,11.82,1.21,24.6,1.18,16.67-.05,27.55-2.13,31.48-6a4.8,4.8,0,0,0,1.55-4.05,1.17,1.17,0,0,1,2.32-.22,7.09,7.09,0,0,1-2.24,5.92C103.48,142.58,88.46,143.9,75.07,143.9Z"/><path class="cls-8" d="M114.67,128.63a1.16,1.16,0,0,1-1.11-.83c-.31-1-.89-2.34-1.85-2.55-1.37-.31-3.45,1.4-4.24,2.27a1.16,1.16,0,0,1-1.72-1.56c.34-.37,3.42-3.67,6.47-3,1.65.37,2.85,1.77,3.57,4.15a1.17,1.17,0,0,1-.78,1.45A1.4,1.4,0,0,1,114.67,128.63Z"/><path class="cls-2" d="M53,109.09h0a1.29,1.29,0,0,1-1.27-1.31,8.86,8.86,0,0,0-1-3.83c-1.3-2.41-3.67-3.66-7.06-3.7a7.81,7.81,0,0,0-5.86,2,8.51,8.51,0,0,0-2.19,5.53,1.3,1.3,0,0,1-2.59,0,11.15,11.15,0,0,1,3-7.39,10.27,10.27,0,0,1,7.72-2.77,10.62,10.62,0,0,1,7.77,3,11,11,0,0,1,2.84,7.19A1.3,1.3,0,0,1,53,109.09Z"/><path class="cls-2" d="M45.61,72.48l5.47,4.8S46.52,90.87,28.79,94.1V87S42.71,84.57,45.61,72.48Z"/><path class="cls-2" d="M101.11,109.09a1.3,1.3,0,0,1-1.3-1.27,11,11,0,0,1,2.84-7.19,10.62,10.62,0,0,1,7.77-3,10.27,10.27,0,0,1,7.72,2.77,11.15,11.15,0,0,1,3,7.39,1.3,1.3,0,0,1-2.59,0,8.61,8.61,0,0,0-2.21-5.55,7.81,7.81,0,0,0-5.84-2,8.1,8.1,0,0,0-5.95,2.18,8.29,8.29,0,0,0-2.11,5.35,1.29,1.29,0,0,1-1.27,1.31Z"/><path class="cls-2" d="M108.5,72.48,103,77.28s4.56,13.59,22.29,16.82V87S111.4,84.57,108.5,72.48Z"/></g></g></svg>