<?xml version="1.0" standalone="no"?><!DOCTYPE svg PUBLIC "-//W3C//DTD SVG 1.1//EN" "http://www.w3.org/Graphics/SVG/1.1/DTD/svg11.dtd"><svg t="1549089506064" class="icon" style="" viewBox="0 0 1270 1024" version="1.1" xmlns="http://www.w3.org/2000/svg" p-id="37232" xmlns:xlink="http://www.w3.org/1999/xlink" width="248.046875" height="200"><defs><style type="text/css"></style></defs><path d="M491.74872 101.494649h222.366993c23.348534 0 43.20273-22.7132 43.20273-50.826741S737.623081 0 712.845044 0H491.74872c-24.619203 0-44.314565 22.554366-44.314565 50.667908 0 27.954708 19.695362 50.826741 44.314565 50.826741z m482.218707 581.330851c-90.217465 0-163.280906 76.398945-163.280906 170.58725 0 94.188305 73.06344 170.58725 163.280906 170.58725s163.439739-76.240112 163.439739-170.58725c0-94.188305-73.222274-170.58725-163.439739-170.58725z m76.081278 193.141616c0.635334 3.176671 0.953001 6.988677 0.953001 11.11835 0 4.923841-0.317667 9.212347-0.953001 12.706685h-60.039088v54.162246c-2.382503 0.476501-5.082674 0.794168-7.782845 0.953002-2.700171 0.317667-5.400341 0.317667-8.100512 0.317667-2.700171 0-5.400341-0.158834-8.100512-0.317667-2.700171-0.158834-5.241508-0.635334-7.782844-0.953002v-54.162246H900.586319c-0.794168-2.700171-1.270669-6.67101-1.270668-11.753683 0-2.064836 0.158834-4.129673 0.317667-6.19451 0.158834-1.906003 0.476501-3.970839 0.953001-5.876842h57.497751v-30.337211H900.586319c-0.794168-2.859004-1.270669-6.67101-1.270668-11.753684 0-2.064836 0.158834-4.129673 0.317667-6.194509 0.317667-2.064836 0.476501-4.129673 0.953001-5.876842h44.949899l-38.437723-70.680936c2.700171-0.476501 5.718008-0.794168 8.89468-0.953002 3.017838-0.317667 6.194509-0.317667 9.212347-0.317667s5.876842 0.158834 9.053513 0.317667c3.176671 0.317667 5.876842 0.635334 8.418179 0.953002l32.243214 63.056925 31.449046-63.056925c2.700171-0.476501 5.559175-0.794168 8.259346-0.953002 2.859004-0.317667 5.718008-0.317667 8.577012-0.317667 2.859004 0 5.876842 0.158834 8.735846 0.317667 2.859004 0.317667 5.559175 0.635334 8.100512 0.953002l-37.643555 70.680936H1049.889871c0.635334 3.176671 0.953001 6.829843 0.953002 10.959517 0 5.082674-0.317667 9.37118-0.953002 12.865518h-60.039088v30.337211h60.197922z m-93.711804-218.396153c25.889871 0 50.509074 5.400341 72.745773 15.56569V170.746083c0-68.933768-35.896386-116.583837-111.183496-116.583837h-100.22398c0.953001 5.559175 1.588336 11.11835 1.588335 16.836358 0 42.726229-30.019544 84.658291-65.598262 84.658291H446.004653c-37.484722 0-67.504266-41.932061-67.504265-84.658291 0-5.559175 0.635334-11.277183 1.747169-16.836358h-101.494649c-81.481619 0-101.494649 47.65007-101.494648 116.583837v681.872499c0 74.016442 28.590042 115.313169 107.689157 115.313169h530.662944c-26.525206-32.878548-42.567396-75.28711-42.567395-121.348844 0-104.353653 81.95812-189.011944 183.293935-189.011944zM391.048239 313.219792h434.409804c16.04219 0 29.543043 15.406856 30.813711 33.196215 0 16.677524-16.836358 34.466884-32.878548 34.466884H387.871568c-16.201024 0-26.366372-17.789359-26.366372-34.466884 0-16.518691 13.659687-33.196215 29.543043-33.196215z m-7.465177 194.094618H817.992865c16.04219 0 29.543043 12.865519 30.813712 30.654878 0 16.677524-11.11835 37.008221-27.16054 37.008221H385.965565c-16.04219 0-32.08438-20.330696-32.08438-37.008221 0-16.518691 13.659687-30.654878 29.701877-30.654878z m203.148131 255.880875H387.871568c-16.201024 0-26.366372-17.789359-26.366372-34.466884s13.500853-33.196215 29.543043-33.196215h197.74779c16.04219 0 29.701877 15.406856 30.813712 33.196215 0 16.677524-16.836358 34.466884-32.878548 34.466884z m0 0" p-id="37233"></path></svg>