<svg xmlns="http://www.w3.org/2000/svg" viewBox="0 0 236.98 260"><defs><style>.cls-1{fill:#7f5732;}.cls-2{fill:#9e6f4c;}.cls-3{fill:#e0605c;}.cls-4{fill:#f9f5ed;}.cls-5{fill:#ce6a65;}.cls-6{fill:#231e1b;}.cls-7{fill:#f9dab4;}.cls-8{fill:#c65044;}.cls-9{fill:#efc4a0;}.cls-10{fill:#3a332d;}.cls-11{fill:#e8dfd9;}.cls-12{fill:#2d2723;}</style></defs><title>资源 171</title><g id="图层_2" data-name="图层 2"><g id="Layer_1" data-name="Layer 1"><path class="cls-1" d="M75.58,224s-4,22.39-10,34.38a13.16,13.16,0,0,0-.65,1.58H92.35c5.63-17.07,2.9-42.75,2.9-42.75Z"/><path class="cls-1" d="M171.39,258.42c-6-12-10-34.38-10-34.38l-19.67-6.79S139,242.93,144.63,260H172A11.7,11.7,0,0,0,171.39,258.42Z"/><path class="cls-2" d="M81.21,260h74.56c-.08-15.5-3.22-36.38-3.22-36.38l-34.06,1.45-34.07-1.45S81.28,244.5,81.21,260Z"/><path class="cls-3" d="M175.45,225.24c-10.52-15.19-12.4-32.38-19.55-46.77s-19.55-11.59-19.55-11.59l-17.3-.21h-1.13l-17.29.21s-12.41-2.8-19.55,11.59-9,31.58-19.56,46.77c0,0,12.32,9.12,57,8C163.14,234.36,175.45,225.24,175.45,225.24Z"/><path class="cls-4" d="M78.64,195.44S85,177,90,179s6.9,11.38-8.39,18.84Z"/><path class="cls-4" d="M80.89,196.73s18.75-5.29,20,0-5.4,12.16-20.26,3.86Z"/><path class="cls-4" d="M83.82,202.42S102.16,209,100.09,214s-11.47,6.75-18.73-8.64Z"/><path class="cls-4" d="M81.07,206.39s11.86,15.47,7.41,18.55-13.29-.52-11.08-17.39Z"/><path class="cls-4" d="M71.26,226.4c5.39.43,6-19.05,6-19.05l-3.57-1.43a35.32,35.32,0,0,0-4.73,5.4c-.89,2.14-1.86,4.27-2.95,6.38C65,222.87,68,226.14,71.26,226.4Z"/><path class="cls-4" d="M73.13,206.58l-1.3-2.87c-.7,2-1.44,4.06-2.25,6.08C71.67,208,73.13,206.58,73.13,206.58Z"/><path class="cls-4" d="M74.64,196.43l3.83-.3c2.55-6.84,2.55-11.74,1.34-15a151,151,0,0,0-5.39,14.77Z"/><path class="cls-3" d="M77.62,211.67a9.61,9.61,0,1,0-2.15-18.95c-1.68,5.06-3.28,10.25-5.24,15.42A9.54,9.54,0,0,0,77.62,211.67Z"/><path class="cls-5" d="M138.75,153.88l-20.26,4.64-20.27-4.64s-4.75,10.73-2.14,13.54,6.7,3.93,21.75,4.21v0h1.32v0c15-.28,19.21-1.47,21.74-4.21S138.75,153.88,138.75,153.88Z"/><path class="cls-6" d="M49.05,44.25S26.68,14.87,6,42.45C-14.55,69.84,23.08,93.12,38.67,77.23S49.05,44.25,49.05,44.25Z"/><polygon class="cls-5" points="29.45 88.52 29.45 127.5 36.07 127.5 36.07 95.92 29.45 88.52"/><path class="cls-3" d="M26.28,81.53s.4,11-2.4,17-6.59,24.38-5.8,32.38h6.86S24.37,116,32.76,92.22,26.28,81.53,26.28,81.53Z"/><path class="cls-5" d="M26.2,86.66c3,.84,4.3,5.42,5.12,9.84.45-1.39.93-2.82,1.44-4.28,8.4-23.78-6.48-10.69-6.48-10.69S26.36,83.71,26.2,86.66Z"/><path class="cls-3" d="M38.67,66.74s-15.23-2-16.39,6.59,7.17,3.4,7.17,3.4-11.16,5.1-5.37,8S34.7,80.21,34.7,80.21Z"/><path class="cls-6" d="M187.92,44.25S210.3,14.87,231,42.45c20.54,27.39-17.09,50.67-32.69,34.78S187.92,44.25,187.92,44.25Z"/><polygon class="cls-5" points="207.53 88.52 207.53 127.5 200.9 127.5 200.9 95.92 207.53 88.52"/><path class="cls-3" d="M210.7,81.53s-.4,11,2.4,17,6.59,24.38,5.79,32.38H212s.58-14.89-7.82-38.68S210.7,81.53,210.7,81.53Z"/><path class="cls-5" d="M210.78,86.66c-3,.84-4.3,5.42-5.12,9.84-.45-1.39-.93-2.82-1.45-4.28-8.39-23.78,6.49-10.69,6.49-10.69S210.62,83.71,210.78,86.66Z"/><path class="cls-3" d="M198.3,66.74s15.23-2,16.4,6.59-7.17,3.4-7.17,3.4,11.15,5.1,5.37,8-10.62-4.52-10.62-4.52Z"/><path class="cls-7" d="M154.92,54.74H82.06l-28.93,3.6v52.77s5.89,54,64.82,54l.54,0,.53,0c58.94,0,64.83-54,64.83-54V58.34Z"/><path class="cls-8" d="M105.55,151.7s3-4.63,6.41-4.42,5.31,3.63,5.31,3.63,3.09-3.55,6.7-3.48,5.19,4.62,5.19,4.62-3.59,8.67-12.16,8.67S105.55,151.7,105.55,151.7Z"/><path class="cls-9" d="M111.44,135.28s.59-5.46,5.69-5.49,6.14,5.49,6.14,5.49-2.79-3.37-6-3.37S111.44,135.28,111.44,135.28Z"/><path class="cls-10" d="M148.14,130.59A1.31,1.31,0,0,1,148,128c.09,0,9-.89,12.52-3a1.31,1.31,0,0,1,1.35,2.24c-4,2.42-13.23,3.33-13.62,3.37Z"/><path class="cls-10" d="M149.53,127.74h-.19a1.33,1.33,0,0,1-1.29-1.33,1.3,1.3,0,0,1,1.31-1.29h.16c6.59,0,10.49-5.37,10.53-5.42a1.3,1.3,0,0,1,2.13,1.5C162,121.48,157.49,127.74,149.53,127.74Z"/><path class="cls-10" d="M142,125.67a6.42,6.42,0,1,0,4.72-7.76A6.42,6.42,0,0,0,142,125.67Z"/><path class="cls-11" d="M145.3,120.51c0,.94,1.38,1.65,3,1.58s2.9-.88,2.85-1.81-1.37-1.65-3-1.59S145.26,119.57,145.3,120.51Z"/><path class="cls-10" d="M86.58,130.59A1.31,1.31,0,0,0,86.7,128c-.09,0-9-.89-12.52-3a1.32,1.32,0,0,0-1.79.45,1.3,1.3,0,0,0,.45,1.79c4,2.42,13.22,3.33,13.61,3.37Z"/><path class="cls-10" d="M85.18,127.74h.19a1.32,1.32,0,0,0,1.29-1.33,1.3,1.3,0,0,0-1.31-1.29h-.16c-6.58,0-10.49-5.37-10.53-5.42a1.3,1.3,0,0,0-2.13,1.5C72.72,121.48,77.23,127.74,85.18,127.74Z"/><path class="cls-10" d="M92.76,125.67a6.42,6.42,0,1,1-4.71-7.76A6.42,6.42,0,0,1,92.76,125.67Z"/><path class="cls-11" d="M89.41,120.51c0,.94-1.38,1.65-3,1.58s-2.9-.88-2.86-1.81,1.38-1.65,3-1.59S89.45,119.57,89.41,120.51Z"/><path class="cls-12" d="M128,.58a55.12,55.12,0,0,0-9.5-.58,55.12,55.12,0,0,0-9.5.58C66.61,7,24.64,28.16,30.63,89.32s40,98,40,98c-20-70.36-13.19-107.94-13.19-107.94a42.24,42.24,0,0,0,22,33.18,26.3,26.3,0,0,1-5.08-14.79c16.13,17.55,44.26,22,44.26,22s27.94-4.44,44.08-22a26.27,26.27,0,0,1-5.09,14.79,42.23,42.23,0,0,0,22-33.18s6.79,37.58-13.19,107.94c0,0,34-36.78,40-98S170.36,7,128,.58Z"/></g></g></svg>