<svg xmlns="http://www.w3.org/2000/svg" viewBox="0 0 191.5 260"><defs><style>.cls-1{fill:#f9dab4;}.cls-2{fill:#4c3626;}.cls-3{fill:#f2e5ce;}.cls-4{fill:#fff5e1;}.cls-5{fill:#f4d3b0;}.cls-6{fill:#f4a557;}.cls-7{fill:#e0934c;}.cls-8{fill:#3a332d;}.cls-9{fill:#e8dfd9;}.cls-10{fill:#c65044;}.cls-11{fill:#efc4a0;}</style></defs><title>资源 166</title><g id="图层_2" data-name="图层 2"><g id="Layer_1" data-name="Layer 1"><path class="cls-1" d="M50.46,199.92c-3.1,9-7.23,35.38-10.4,60.08H60.88L70,193.9S56.48,182.57,50.46,199.92Z"/><path class="cls-1" d="M155.64,200.81c-6-17.35-19.53-6-19.53-6l9,65.21h20.82C162.78,235.56,158.71,209.67,155.64,200.81Z"/><path class="cls-2" d="M189.08,73.27C178.63,9.79,123.32,1,99.94.08c-.63,0-1.41,0-2.28-.06H93.84c-.87,0-1.65,0-2.27.06C68.18,1,12.87,9.79,2.43,73.27-10.89,154.2,34.92,226.71,34.92,226.71l60.83-4.59,60.84,4.59S202.39,154.2,189.08,73.27Z"/><path class="cls-3" d="M64.42,179.6s-37.14,30.46-35.57,34.57S46.16,234.4,67,231.31C67,231.31,81.57,167.24,64.42,179.6Z"/><path class="cls-3" d="M141.68,179.6s37.14,30.46,35.57,34.57-17.3,20.23-38.1,17.14C139.15,231.31,124.54,167.24,141.68,179.6Z"/><path class="cls-4" d="M108.13,177.21H85.79S66,178.48,62.61,205.46c-2.26,18-10.71,39-14,54.54H157.44c-3.23-15.5-11.69-36.52-13.94-54.54-3.37-27-23.18-28.25-23.18-28.25Z"/><path class="cls-5" d="M30.84,108.5S20.69,93,7.79,102.88,18.19,140,45.73,138Z"/><path class="cls-5" d="M160.67,108.5s10.14-15.48,23-5.62S173.31,140,145.77,138Z"/><path class="cls-6" d="M138.07,172l-16.86,6.74s1.17,44.65,3.06,81.24H163C153.43,223.16,138.07,172,138.07,172Z"/><path class="cls-7" d="M142,185.29c-2.4-8.13-3.94-13.27-3.94-13.27l-16.86,6.74s.12,4.5.34,11.81C128.51,189.4,135.25,187.3,142,185.29Z"/><path class="cls-6" d="M66.55,152.34s-11.38,10.54-11.38,16.44,13.48,5.91,13.48,5.91-11.38-.43-11.38,6.74,64.92,8,84.31,0-1.26-15.6-1.26-15.6,10.11-12.64-10.12-13.49S66.55,152.34,66.55,152.34Z"/><path class="cls-1" d="M113.25,60.87h-35L10.39,82s18.55,83.46,83.47,83.88c.64,0,1.27,0,1.89-.06s1.25.07,1.9.06C162.56,165.41,181.11,82,181.11,82Z"/><path class="cls-2" d="M151.59,102s-16.66-3.21-30.74-.83l.51-2.84c.61-3.49,5.14-6.19,14.25-6.74s14.54,2.21,15.24,6.23Z"/><path class="cls-8" d="M130.67,125.3a1.81,1.81,0,0,1-.17-3.61c.12,0,12.51-1.24,17.36-4.17a1.81,1.81,0,1,1,1.87,3.09c-5.55,3.36-18.35,4.63-18.89,4.68Z"/><path class="cls-8" d="M132.61,121.34h-.27a1.81,1.81,0,0,1,0-3.62h.22c9.14,0,14.55-7.44,14.6-7.52a1.81,1.81,0,0,1,3,2.09C149.88,112.66,143.64,121.34,132.61,121.34Z"/><path class="cls-8" d="M122.09,118.48a8.91,8.91,0,1,0,6.54-10.77A8.92,8.92,0,0,0,122.09,118.48Z"/><path class="cls-9" d="M126.74,111.33c.05,1.3,1.91,2.27,4.15,2.18s4-1.21,4-2.51-1.91-2.28-4.16-2.19S126.68,110,126.74,111.33Z"/><path class="cls-2" d="M36.54,102s16.67-3.21,30.74-.83l-.5-2.84c-.62-3.49-5.15-6.19-14.25-6.74S38,93.83,37.28,97.85Z"/><path class="cls-8" d="M57.46,125.3a1.81,1.81,0,0,0,.17-3.61c-.12,0-12.51-1.24-17.36-4.17a1.8,1.8,0,1,0-1.86,3.09c5.54,3.36,18.34,4.63,18.88,4.68Z"/><path class="cls-8" d="M55.52,121.34h.27a1.81,1.81,0,0,0,0-3.62h-.23c-9.13,0-14.55-7.44-14.6-7.52A1.81,1.81,0,0,0,38,112.29C38.25,112.66,44.49,121.34,55.52,121.34Z"/><path class="cls-8" d="M66,118.48a8.91,8.91,0,1,1-6.54-10.77A8.91,8.91,0,0,1,66,118.48Z"/><path class="cls-9" d="M61.4,111.33c-.06,1.3-1.92,2.27-4.16,2.18s-4-1.21-4-2.51,1.91-2.28,4.15-2.19S61.45,110,61.4,111.33Z"/><path class="cls-10" d="M78.25,144.11s4-6.2,8.59-5.91S94,143.06,94,143.06s4.14-4.76,9-4.66,7,6.19,7,6.19-4.81,11.62-16.3,11.62S78.25,144.11,78.25,144.11Z"/><path class="cls-11" d="M86.14,125s.79-7.33,7.63-7.36S102,125,102,125s-3.73-4.52-8.1-4.52S86.14,125,86.14,125Z"/><path class="cls-2" d="M26.9,127.89S23.81,97.54,21,86.58c0,0,26,12.23,34.17,9.28s.68-14,.68-14a62.65,62.65,0,0,0,17,11.94c8.26,3.73,18.91,4.55,21.71,3.51,6.11-2.24,1.18-16.58,1.18-16.58s9.83,18.83,14.89,18.55,10.4-16.3,10.4-16.3,7.86,18.27,13.77,15.46S148,77.59,148,77.59s5.06,20,10.4,20S169.1,87.15,169.1,87.15l-3.93,40.74,21.36-41.31L169.1,58.2,88.73,41.9,36.46,43.59,5.83,73.94,1.61,88.55Z"/></g></g></svg>