<svg xmlns="http://www.w3.org/2000/svg" viewBox="0 0 199.54 260.09"><defs><style>.cls-1{fill:#754737;}.cls-2{fill:#e0605c;}.cls-3{fill:#d14e4e;}.cls-4{fill:#d8aa91;}.cls-5{fill:#f9dab4;}.cls-6{fill:#2f3233;}.cls-7{fill:#dd2626;}.cls-8{fill:#f7cea6;}.cls-9{fill:#593227;}.cls-10{fill:#bcc93d;}.cls-11{fill:#a7ad32;}</style></defs><title>资源 117</title><g id="图层_2" data-name="图层 2"><g id="Layer_1" data-name="Layer 1"><path class="cls-1" d="M158.2,30.76S150.64,9.33,111.56,1.14,4.42,29.5,10.1,95c3.78,44.75,9.45,100.21,9.45,128.57,0,10.24.08,23.27,0,36.48h168.6c-5.33-38.62-6.88-87.9,1.52-127.24C203.58,67.94,171.43,23.83,158.2,30.76Z"/><path class="cls-2" d="M41.55,184.1c-11.45,32-25.84,69.58-28.3,76H44.33C51,236.33,71.94,160.14,69.06,154.92,69.06,154.92,54.11,149,41.55,184.1Z"/><path class="cls-3" d="M51,164.91c2,2.37,5.89,9.19,1.6,24.09-4.5,15.6-16.56,55.78-21.16,71.09H44.33C51,236.33,71.94,160.14,69.06,154.92,69.06,154.92,60.58,151.58,51,164.91Z"/><path class="cls-2" d="M155.59,184.1C143,149,128.08,154.92,128.08,154.92c-2.88,5.22,18.08,81.41,24.73,105.17h30.86C181.09,253.27,167,215.84,155.59,184.1Z"/><path class="cls-3" d="M128.08,154.92c-2.88,5.22,18.08,81.41,24.73,105.17h12.86C161.07,244.78,149,204.6,144.52,189c-4.3-14.9-.45-21.72,1.59-24.09C136.56,151.58,128.08,154.92,128.08,154.92Z"/><path class="cls-2" d="M61.91,155.55s-10,68.35-15.57,104.54h103.4c-5.25-37.55-14.58-101.54-17.69-108l-17-2.53-37.5,1.58Z"/><path class="cls-4" d="M117.63,151.76c0,13.05-9.26,23.63-20.68,23.63s-20.68-10.58-20.68-23.63S85.53,128.13,97,128.13,117.63,138.71,117.63,151.76Z"/><path class="cls-5" d="M166.08,103.23c0,36.55-30.62,62.4-68.38,62.4-30.33,0-56-18.51-65-44.73,0,0,55.23-4.75,102.5-44.77,0,0,8.74,9.54,15.28,16.07A68.2,68.2,0,0,0,166.08,103.23Z"/><path class="cls-6" d="M142.67,108.83a.82.82,0,0,0-1,.34h0a10,10,0,0,1-1.27,1.8,7.46,7.46,0,0,1-1.34,1.22,4.53,4.53,0,0,1-.74.42,8,8,0,0,0-.4-1.87,4.66,4.66,0,0,0,1.17-.81,7.4,7.4,0,0,0,1.46-2,9,9,0,0,0,.45-1.06c.1-.32-.14-.63-.54-.7a.78.78,0,0,0-.9.44h0a7.38,7.38,0,0,1-.74,1.53,5.63,5.63,0,0,1-.88,1.08,3.41,3.41,0,0,1-.48.37,9.67,9.67,0,0,0-2.13-2.83,10,10,0,0,0-3.32-2,10.9,10.9,0,0,0-4.26-.61,12.69,12.69,0,0,0-2.73.43,11.41,11.41,0,0,0-4.36,2.18,9.17,9.17,0,0,0-2.85,4.1,7.67,7.67,0,0,0-.45,2.14,1,1,0,0,0,1.08.89,1.06,1.06,0,0,0,1.14-.89h0a7.49,7.49,0,0,1,2.7-5.07,8.77,8.77,0,0,1,3.41-1.68,9.44,9.44,0,0,1,2.14-.35,8.57,8.57,0,0,1,3.23.46,7.87,7.87,0,0,1,3.59,2.66,7.53,7.53,0,0,1,1.5,4.11,1,1,0,0,0,1.08.82.86.86,0,0,0,.55.07,6,6,0,0,0,2.3-1,9.63,9.63,0,0,0,2.18-2.22,10,10,0,0,0,.78-1.22A.55.55,0,0,0,142.67,108.83Z"/><path class="cls-7" d="M110.57,141.75a5.12,5.12,0,0,0-1.86-.83c-2.88-.91-3.62-3.53-5.65-2.9s-3.5,3.8-5.39,2.22-2.76-2.67-5.2-.68c-2,1.66-5.22,1-5.77,1.88a.69.69,0,0,0,0,.56c0,.06,0,.12,0,.19a44.62,44.62,0,0,0,23.77,0l.11-.06C110.68,142.07,110.76,141.94,110.57,141.75Z"/><path class="cls-2" d="M99,147.8a11.63,11.63,0,0,1,9.16,4,15.91,15.91,0,0,0,2.5-8.67c0-.32,0-.64,0-1l-.11.06a44.62,44.62,0,0,1-23.77,0c0-.07,0-.13,0-.19,0,.36,0,.72,0,1.09a15.93,15.93,0,0,0,2.82,9.17C91.19,149.62,94.8,147.8,99,147.8Z"/><path class="cls-7" d="M98.62,157.34a11.43,11.43,0,0,0,9.51-5.58,11.63,11.63,0,0,0-9.16-4c-4.17,0-7.78,1.82-9.54,4.46A11.36,11.36,0,0,0,98.62,157.34Z"/><path class="cls-8" d="M103.91,120.63a1.22,1.22,0,0,1,.91,1.47h0a12.41,12.41,0,0,1-1.56,3.51h0A6.93,6.93,0,0,1,96.9,129h-.19a8.66,8.66,0,0,1-6.13-3.24h0A8.77,8.77,0,0,1,89,122.89h0a1.23,1.23,0,0,1,.85-1.51h0a1.23,1.23,0,0,1,1.51.85h0a.5.5,0,0,0,0,.12h0a2.92,2.92,0,0,0,.18.44h0a6.68,6.68,0,0,0,.88,1.43h0A6.2,6.2,0,0,0,97,126.56h.11a4.24,4.24,0,0,0,3.8-1.82h0a9.5,9.5,0,0,0,1.52-3h0c0-.15.05-.21.05-.21h0a1.23,1.23,0,0,1,1.28-.94h0l.2,0Z"/><path class="cls-9" d="M17,120.88,26.3,123s-8-48.17,4.59-67.7C11,75.19,17,120.88,17,120.88Z"/><path class="cls-9" d="M174.8,114s3.58-49.94-16-69.36c0,0,25.91,12.47,23.89,59.17Z"/><path class="cls-8" d="M134.27,76.9c-47.06,39.31-101.57,44-101.57,44A58.62,58.62,0,0,0,35,126.54C104,112.06,127.19,87.54,134.27,76.9Z"/><path class="cls-8" d="M150.48,92.2c-5.78-5.78-13.28-13.89-14.94-15.7,5.55,9.3,16.4,24.33,30.49,28.76,0-.68.05-1.35.05-2A68.2,68.2,0,0,1,150.48,92.2Z"/><path class="cls-6" d="M115.4,100.14s15.73-15.87,27.68.18c0,0,.51-4.19-5.16-8.2-6.12-4.32-15-3-20.15,2.31C114.18,98.14,115.4,100.14,115.4,100.14Z"/><path class="cls-10" d="M22,99.36c1.48,2.88,1.75,6.46,2.1,9.64.71,6.42,2,12.81,3.17,19.16.45,2.41.89,4.83,1.48,7.22,1,3.87-2.33,6.69-5.77,7.43-6.39,1.36-13.16-4-17.08-8.41-9.27-10.44-6.67-24.77,1.51-35,1.59-2,4.78-4.68,7.52-4.81a6.46,6.46,0,0,1,3.93,1.23A9.1,9.1,0,0,1,22,99.36Z"/><path class="cls-11" d="M28.26,139.2a5.15,5.15,0,0,0,.47-3.82c-.59-2.39-1-4.81-1.48-7.22-1.17-6.35-2.46-12.74-3.17-19.16-.35-3.18-.62-6.76-2.1-9.64a9.1,9.1,0,0,0-3.14-3.58,6.46,6.46,0,0,0-3.93-1.23c-2.74.13-5.93,2.8-7.52,4.81A36.33,36.33,0,0,0,3.16,106s2.61,2.78,4.88-2.71,10.88-4.19,10.88,12.51C18.92,128.06,23.31,135.87,28.26,139.2Z"/><path class="cls-10" d="M177.56,99.36c-1.48,2.88-1.76,6.46-2.11,9.64-.71,6.42-2,12.81-3.16,19.16-.45,2.41-.89,4.83-1.49,7.22-1,3.87,2.34,6.69,5.78,7.43,6.39,1.36,13.16-4,17.08-8.41,9.27-10.44,6.67-24.77-1.51-35-1.6-2-4.79-4.68-7.52-4.81a6.51,6.51,0,0,0-3.94,1.23A9.16,9.16,0,0,0,177.56,99.36Z"/><path class="cls-11" d="M184.63,94.55a6.51,6.51,0,0,0-3.94,1.23,9.16,9.16,0,0,0-3.13,3.58c-1.48,2.88-1.76,6.46-2.11,9.64-.71,6.42-2,12.81-3.16,19.16-.45,2.41-.89,4.83-1.49,7.22a5.92,5.92,0,0,0-.17,1.42c2.46-2.16,4.85-6.23,6.16-11.82,2.52-10.72,4.57-17.49,8.51-21.43s6,0,6,12.29c0,8.66,4.22,10.9,6.72,11.47,3.56-9.24.59-19.86-5.86-27.95C190.55,97.35,187.36,94.68,184.63,94.55Z"/></g></g></svg>