<svg xmlns="http://www.w3.org/2000/svg" viewBox="0 0 218.45 260"><defs><style>.cls-1{fill:#2f3233;}.cls-2{fill:#ed7474;}.cls-3{fill:#e26969;}.cls-4{fill:#e0605c;}.cls-5{fill:#c64e4e;}.cls-6{fill:#f9dab4;}.cls-7{fill:#efc19c;}.cls-8{fill:#f4d0a8;}.cls-9{fill:#dbb48f;}.cls-10{fill:#47413e;}.cls-11{fill:#f9f5ed;}</style></defs><title>资源 135</title><g id="图层_2" data-name="图层 2"><g id="Layer_1" data-name="Layer 1"><path class="cls-1" d="M24.65,214.15S11,110.76,34.48,49.14C42.54,28,59-.11,109.41,0c52,.11,82.28,33,90,120,5.08,50.05-13.58,101.8-13.58,101.8S80.64,294.75,24.65,214.15Z"/><path class="cls-2" d="M55.67,188.24S69.92,173,74.25,172.18s6.23-.39,6.23-.39h.9v40.07Z"/><path class="cls-3" d="M78.57,196.81V171.68a25.92,25.92,0,0,0-4.32.5c-1.59.31-4.51,2.55-7.58,5.27,1.82,2,5,7.4,2,19.36Z"/><path class="cls-4" d="M33.2,195.73s2-12.1,16.71-12.1S74.1,193.65,74.1,203s1.44,14.29-8.35,18.32C60.06,223.7,34.9,202.41,33.2,195.73Z"/><path class="cls-5" d="M62.58,196.38c-5.4-10.27-20.12-9.17-24.86-8.52a15.34,15.34,0,0,0-2.95,3.76c-.25,3.07,1.09,7.28,4,11.85,6.16,6.49,16,14.32,22.24,17.06C66.64,217,68.23,207.12,62.58,196.38Z"/><path class="cls-6" d="M57,224.28c.82-1.21,1.59-2.46,2.32-3.73,2.43-4.27,5.24-11.08,4.18-16-.65-3.07-3.94-6.46-6.78-7.71-4.1-1.5-8.31-2.93-12.26-4.81-3.42-1.63-4.18-3.8-8.27-3.9-3.69-.08-7.88,1.93-9.5,5-3.74,7.2-13.13-1-17.42-.44-8.21,1-13.75,6.41-4.47,10.09s14.69.43,11.67,5C14.15,211.4,8.79,220.57,8.79,229s20,25.82,33.49,12.32C48.21,235.37,53.26,229.87,57,224.28Z"/><path class="cls-7" d="M40.58,225.32c-.54.47-6.49,12.34-11,16.89-2.21,2.21-5.95.28-5.84-1.17s7-12.55,8.64-17.09-.78-2.65-.78-2.65-7.82,14.56-9.89,17-7.57-1-6.51-3.56,9.39-15.17,10.6-17.85-2.64-1.75-2.7-.89a76.61,76.61,0,0,1-7.86,13.43c-3.58,5-5.49,1.66-6.39-1.3,0,.28,0,.56,0,.83,0,7.08,14.08,20.46,26.59,16.59-2.54,0-4.62-.37-3.93-1,1.16-1,7.38-9.65,9.24-14.17S41.12,224.86,40.58,225.32Z"/><path class="cls-7" d="M21.11,213.59S34.93,228,47.17,226.83c9.65,0,6-2,1.3-2s-11.59-1.37-18.72-6.77S18.8,209.12,21.11,213.59Z"/><path class="cls-7" d="M9.74,222.38c2.39-5.22,5.94-12.15,7.91-14.12,3.31-3.31,4.18-6.19-.57-6.19s-8.45-1.59-10.8-3.95,2.34-5.31,2.35-5.32c-7.83,1.21-12.83,6.41-3.8,10,9.29,3.67,14.69.43,11.67,5A53.05,53.05,0,0,0,9.74,222.38Z"/><path class="cls-7" d="M58.77,221.52c.19-.32.39-.64.58-1,2.43-4.27,5.24-11.08,4.18-16-.65-3.07-3.94-6.46-6.78-7.71-4.1-1.5-8.31-2.93-12.26-4.81-3.42-1.63-4.18-3.8-8.27-3.9a11,11,0,0,0-2.83.32,20.93,20.93,0,0,0,13.35,10.77C57,202,60.59,211.38,58.77,221.52Z"/><path class="cls-2" d="M162.78,189.1s-14.25-15.22-18.57-16-6.23-.4-6.23-.4h-.9v40.07Z"/><path class="cls-3" d="M139.89,197.67V172.54a27.57,27.57,0,0,1,4.32.51c1.58.3,4.51,2.54,7.57,5.26-1.81,2-5,7.41-2,19.36Z"/><path class="cls-4" d="M185.25,196.59s-2-12.09-16.71-12.09-24.19,10-24.19,19.41-1.44,14.28,8.35,18.32C158.39,224.57,183.56,203.28,185.25,196.59Z"/><path class="cls-5" d="M155.87,197.24c5.4-10.26,20.12-9.16,24.86-8.51a14.7,14.7,0,0,1,3,3.76c.26,3.07-1.09,7.28-4,11.84-6.16,6.49-16,14.32-22.24,17.06C151.81,217.89,150.22,208,155.87,197.24Z"/><path class="cls-6" d="M161.43,225.15c-.82-1.22-1.6-2.46-2.33-3.74-2.43-4.26-5.24-11.08-4.18-16,.66-3.07,4-6.45,6.78-7.71,4.1-1.49,8.32-2.92,12.26-4.8,3.42-1.63,4.19-3.81,8.27-3.9,3.7-.09,7.88,1.92,9.5,5,3.74,7.2,13.14-1,17.42-.43,8.21,1,13.76,6.41,4.47,10.08s-14.69.43-11.67,5c2.35,3.58,7.71,12.74,7.71,21.17s-20,25.81-33.48,12.31C170.24,236.24,165.19,230.74,161.43,225.15Z"/><path class="cls-7" d="M177.88,226.19c.54.47,6.48,12.33,11,16.88,2.22,2.21,6,.28,5.84-1.17s-7-12.54-8.64-17.08.79-2.66.79-2.66,7.81,14.57,9.88,17,7.58-1,6.52-3.56-9.39-15.17-10.61-17.85,2.64-1.75,2.71-.88a76.49,76.49,0,0,0,7.85,13.43c3.59,5,5.5,1.66,6.39-1.31,0,.28,0,.56,0,.84,0,7.07-14.08,20.46-26.59,16.59,2.54,0,4.62-.37,3.93-1-1.16-1-7.38-9.66-9.24-14.18S177.33,225.72,177.88,226.19Z"/><path class="cls-7" d="M197.34,214.45s-13.82,14.4-26.06,13.25c-9.65,0-6.05-2-1.3-2s11.6-1.36,18.72-6.77S199.65,210,197.34,214.45Z"/><path class="cls-7" d="M208.71,223.24c-2.39-5.22-5.93-12.14-7.91-14.12-3.31-3.31-4.18-6.19.58-6.19s8.44-1.58,10.8-3.94-2.34-5.32-2.36-5.33c7.83,1.21,12.83,6.42,3.8,10-9.29,3.67-14.69.43-11.67,5A53.2,53.2,0,0,1,208.71,223.24Z"/><path class="cls-7" d="M159.69,222.39c-.2-.33-.4-.65-.59-1-2.43-4.26-5.24-11.08-4.18-16,.66-3.07,4-6.45,6.78-7.71,4.1-1.49,8.32-2.92,12.26-4.8,3.42-1.63,4.19-3.81,8.27-3.9a11,11,0,0,1,2.83.31,20.9,20.9,0,0,1-13.35,10.77C161.48,202.84,157.87,212.24,159.69,222.39Z"/><path class="cls-2" d="M75.54,172.18,65.43,260h93.72c-5.8-32.16-14.76-86.91-14.76-86.91l-11.66-3.28H92.39C87,169.81,75.54,172.18,75.54,172.18Z"/><path class="cls-3" d="M132.73,169.81H105.47c-8.63.73-15.48,1.52-15.48,1.52s28.73,9.92,48.08,0Z"/><path class="cls-4" d="M88.36,149.36s21,11.52,44.07,0c5.9,5.9,6.62,9.79.14,12.24.32-.12,2.05,3,2.21,3.38a5.54,5.54,0,0,1,.4,3.26c-.88,4.07-6.21,3.62-9.3,3.61-5.11,0-10.21,0-15.32,0-4.14,0-8.28,0-12.43,0-3.1,0-7.64.92-9.88-1.84a5.83,5.83,0,0,1-1.42-3.14c0-.55,1.12-4.26,1.82-4C76.69,158.14,85.48,149.36,88.36,149.36Z"/><path class="cls-5" d="M109,162.89a104.47,104.47,0,0,1-20.53-3.24c-5-1.5-2.26-7.54-.76-10.19-3.31,1-10.27,9,.91,13.43-.7-.27-1.85,3.44-1.82,4A5.83,5.83,0,0,0,88.25,170,4.61,4.61,0,0,0,90,171.33c-6.66-6.67,2.19-8.43,8.45-7.36S111.83,162.89,109,162.89Z"/><path class="cls-5" d="M73.83,233.2H97s-.18,8.61-.45,14.5c-.55,11.86-20.66,14.06-22.83-.22C73.67,238.17,73.83,233.2,73.83,233.2Z"/><path class="cls-6" d="M54.75,99.58s-9.47-9.47-17.88-1S44,140.36,54.7,129.69Z"/><path class="cls-8" d="M47,118.16s2.68-12.9-3.11-15.76S34,113.27,47,118.16Z"/><path class="cls-9" d="M38.5,106.4c-.58,3.8,1.42,9.08,8.5,11.75C45.93,113.9,41.18,108.93,38.5,106.4Z"/><path class="cls-6" d="M163.51,99.58s9.47-9.47,17.89-1-7.17,41.83-17.84,31.16Z"/><path class="cls-8" d="M171.24,118.16s-2.67-12.9,3.12-15.76S184.27,113.27,171.24,118.16Z"/><path class="cls-9" d="M179.76,106.4c.58,3.8-1.41,9.08-8.5,11.75C172.33,113.9,177.08,108.93,179.76,106.4Z"/><path class="cls-6" d="M50.09,51.83v72.75c0,17.23,16.44,41.68,58.92,41.68s58.12-16.83,58.12-38.88V52Z"/><path class="cls-7" d="M117.89,124.35a1,1,0,0,1,.8,1.25h0a10,10,0,0,1-1.36,3h0a6.09,6.09,0,0,1-5.54,2.88h-.16a7.58,7.58,0,0,1-5.34-2.76h0a7.11,7.11,0,0,1-1.34-2.42h0a1,1,0,0,1,.74-1.28h0a1.08,1.08,0,0,1,1.31.72h0a.32.32,0,0,0,0,.1h0c0,.09.08.22.15.38h0a5.61,5.61,0,0,0,.77,1.21h0a5.42,5.42,0,0,0,3.88,2h.09a3.74,3.74,0,0,0,3.31-1.55h0a7.76,7.76,0,0,0,1.32-2.54h0l0-.17h0a1.05,1.05,0,0,1,1.11-.8h0l.17,0Z"/><path class="cls-7" d="M92.13,152.72a.94.94,0,0,1,.49-1.14h0s22.15-8.72,43.32-7.81h0a.84.84,0,0,1,.73.94h0a.84.84,0,0,1-.81.86h0c-15.58-.68-31.87,4-39,6.39h0c-2.39.79-3.74,1.33-3.74,1.33h0a.7.7,0,0,1-.28,0h0a.77.77,0,0,1-.7-.61Z"/><path class="cls-10" d="M158,87s0,0,0,0c-.71-1.72-4.65.27-5.79.3a26.72,26.72,0,0,1-9.66-1.2c-2.94-1-4.7-3.1-6.41-5.6s-2.9-4.16-3.67-.22a8.23,8.23,0,0,0,0,3.91c1.86,6.38,9.94,9.27,16.82,7.74a22.61,22.61,0,0,0,6-2.1C156.17,89.39,158.45,88.16,158,87Z"/><path class="cls-10" d="M62.19,87v0c.71-1.72,4.65.27,5.79.3a26.75,26.75,0,0,0,9.66-1.2c2.94-1,4.7-3.1,6.41-5.6s2.9-4.16,3.67-.22a8.36,8.36,0,0,1,0,3.91c-1.86,6.38-10,9.27-16.82,7.74a22.68,22.68,0,0,1-6-2.1C64.06,89.39,61.77,88.16,62.19,87Z"/><path class="cls-1" d="M45.38,81.15s23.27-3.88,33.19-24.62C94.5,80.88,145.18,84.74,178.85,84.76V45.45L47,35.15Z"/><path class="cls-10" d="M66.85,107.28A10.28,10.28,0,1,0,77.12,96.76,10.4,10.4,0,0,0,66.85,107.28Z"/><path class="cls-10" d="M67,102a5.86,5.86,0,0,1-2.74-5.46h0a.75.75,0,0,1,.75-.75h0a.76.76,0,0,1,.75.75h0c0,2.46,1,3.53,2,4.17h0a5.6,5.6,0,0,0,2.69.7h.12a.74.74,0,0,1,.79.71h0a.75.75,0,0,1-.71.79h-.2A6.94,6.94,0,0,1,67,102Z"/><path class="cls-10" d="M66.84,105.47a5.88,5.88,0,0,1-4.52-4.11h0a.75.75,0,0,1,.43-1h0a.77.77,0,0,1,1,.43h0c.9,2.29,2.16,3,3.37,3.17h0a5.54,5.54,0,0,0,2.76-.31h0l.11,0h0a.77.77,0,0,1,1,.38h0a.76.76,0,0,1-.38,1h0l-.19.07h0a7,7,0,0,1-3.56.39Z"/><path class="cls-11" d="M71.87,100.19c-1.63,1-2.36,2.74-1.63,4s2.64,1.46,4.27.5,2.36-2.75,1.63-4S73.5,99.23,71.87,100.19Z"/><path class="cls-10" d="M131.65,107.28a10.28,10.28,0,1,0,10.28-10.52A10.4,10.4,0,0,0,131.65,107.28Z"/><path class="cls-10" d="M131.76,102A5.86,5.86,0,0,1,129,96.49h0a.75.75,0,0,1,.75-.75h0a.76.76,0,0,1,.75.75h0c0,2.46,1,3.53,2,4.17h0a5.63,5.63,0,0,0,2.69.7h.13a.76.76,0,0,1,.79.71h0a.76.76,0,0,1-.72.79h-.2a6.94,6.94,0,0,1-3.46-.91Z"/><path class="cls-10" d="M131.65,105.47a5.87,5.87,0,0,1-4.52-4.11h0a.75.75,0,0,1,.43-1h0a.76.76,0,0,1,1,.43h0c.9,2.29,2.16,3,3.37,3.17h0a5.51,5.51,0,0,0,2.76-.31h0l.12,0h0a.76.76,0,0,1,1,.38h0a.76.76,0,0,1-.38,1h0l-.19.07h0a6.94,6.94,0,0,1-3.55.39Z"/><path class="cls-11" d="M136.67,100.19c-1.63,1-2.36,2.74-1.63,4s2.64,1.46,4.27.5,2.36-2.75,1.63-4S138.3,99.23,136.67,100.19Z"/></g></g></svg>