<svg xmlns="http://www.w3.org/2000/svg" viewBox="0 0 170.64 259.59"><defs><style>.cls-1{fill:#2f3233;}.cls-2{fill:#f9dab4;}.cls-3{fill:#939334;}.cls-4{fill:#a5aa33;}.cls-5{fill:#bcc93d;}.cls-6{fill:#8e932b;}.cls-7{fill:#efc19c;}.cls-8{fill:#f4d0a8;}.cls-9{fill:#dbb48f;}.cls-10{fill:#f9f5ed;}.cls-11{fill:#ad0b0b;}.cls-12{fill:#c62828;}</style></defs><title>资源 131</title><g id="图层_2" data-name="图层 2"><g id="Layer_1" data-name="Layer 1"><path class="cls-1" d="M2.67,206.12H17.06l3.33-24.35L27,203.91s19.37,4.42,25.46,4.42h91.33l3.32-26.56,5.53,24.35h10.52s7.19-84.69,7.19-102.4S176.6,30,127.78,9.17C82.52-10.09,38.93,1.6,14.3,38.41s-10,98.52-10,113.47S2.67,206.12,2.67,206.12Z"/><path class="cls-2" d="M54.9,202.74v56.85H29.51c-2.32-14.14-1.5-37.28-.9-56.85Z"/><path class="cls-3" d="M69.68,157.76s-23.67.46-34.26,19.1-7.9,31.31-7.9,31.31H66.63Z"/><path class="cls-2" d="M118.23,202.74v56.85h25.39c2.32-14.14,1.49-37.28.9-56.85Z"/><path class="cls-3" d="M103.45,157.76s23.66.46,34.25,19.1,7.91,31.31,7.91,31.31H106.49Z"/><path class="cls-4" d="M47.91,218.24c-1.47,5.5-2.35,21.19-2.85,41.35H127.9c-.55-22.3-1.4-41.35-1.4-41.35Z"/><path class="cls-5" d="M41.9,237.52s61.13,5.57,88.08,0c0-34.85,1.37-72-24.92-78.75H72.61s-26.95-1-28.69,33.1C42.81,211,42.76,213.12,41.9,237.52Z"/><path class="cls-6" d="M51.39,169c-3.9,4.9-6.92,12.15-7.47,22.85-1.11,19.16-1.16,21.25-2,45.65,0,0,3.62.33,9.49.75Z"/><path class="cls-6" d="M56.67,238.63c2.57.16,5.4.33,8.41.49V159.9A27.82,27.82,0,0,0,56.67,164Z"/><path class="cls-6" d="M72.32,239.47c2.9.12,5.91.23,9,.32v-81h-9Z"/><path class="cls-6" d="M88.54,239.94c2.9.05,5.81.06,8.7.05V158.77h-8.7Z"/><path class="cls-6" d="M113.75,239.47V162.7a26.38,26.38,0,0,0-8.69-3.93v81.09C108,239.78,111,239.65,113.75,239.47Z"/><path class="cls-6" d="M119.84,168.72V239A100,100,0,0,0,130,237.52V222.63C129.86,201.27,128.7,180.79,119.84,168.72Z"/><ellipse class="cls-4" cx="87.85" cy="159.57" rx="19.46" ry="16.94"/><path class="cls-7" d="M106.36,158.82c0,7.68-8.29,13.91-18.51,13.91s-18.52-6.23-18.52-13.91,8.29-13.9,18.52-13.9S106.36,151.14,106.36,158.82Z"/><path class="cls-2" d="M36.35,106.72s-8.72-8.72-16.47-1,6.6,38.52,16.42,28.69Z"/><path class="cls-8" d="M29.23,123.83s2.46-11.87-2.87-14.51S17.24,119.32,29.23,123.83Z"/><path class="cls-9" d="M21.39,113c-.54,3.5,1.3,8.36,7.82,10.82C28.23,119.91,23.85,115.33,21.39,113Z"/><path class="cls-2" d="M136.47,106.72s8.72-8.72,16.47-1-6.6,38.52-16.42,28.69Z"/><path class="cls-8" d="M143.59,123.83s-2.46-11.87,2.87-14.51S155.58,119.32,143.59,123.83Z"/><path class="cls-9" d="M151.43,113c.54,3.5-1.3,8.36-7.82,10.82C144.59,119.91,149,115.33,151.43,113Z"/><path class="cls-2" d="M32.06,61.1v67c0,15.87,15.13,38.37,54.24,38.37s53.51-15.49,53.51-35.79V61.29Z"/><path class="cls-1" d="M68.43,114.78l-.18.25a8.62,8.62,0,0,1-5.5,3c-3.73.7-9.17.54-11.6-4.44-2.26-4.61,2.38-5.3,4.52-4,2,1.18,4.44,2.56,6.61,1.74,1.74-.66,3.77-3.66,5.67-2.49S69.65,113,68.43,114.78Z"/><path class="cls-10" d="M54.9,111.07c.26.63-.23,1.49-1.08,1.92s-1.75.28-2-.35.23-1.48,1.08-1.92S54.65,110.45,54.9,111.07Z"/><path class="cls-1" d="M123.83,114.78c-.06.08-.12.17-.19.25a8.59,8.59,0,0,1-5.5,3c-3.72.7-9.16.54-11.6-4.44-2.25-4.61,2.39-5.3,4.52-4s4.44,2.56,6.61,1.74c1.75-.66,3.77-3.66,5.68-2.49S125.05,113,123.83,114.78Z"/><path class="cls-10" d="M110.3,111.07c.26.63-.23,1.49-1.08,1.92s-1.76.28-2-.35.23-1.48,1.08-1.92S110,110.45,110.3,111.07Z"/><path class="cls-7" d="M94.48,127.87a1,1,0,0,1,.73,1.15h0A9.27,9.27,0,0,1,94,131.76h0a5.59,5.59,0,0,1-5.1,2.65h-.15a7,7,0,0,1-4.92-2.53h0a6.75,6.75,0,0,1-1.23-2.24h0a1,1,0,0,1,.68-1.18h0a1,1,0,0,1,1.21.67h0a.31.31,0,0,0,0,.09h0l.14.35h0a5,5,0,0,0,.71,1.11h0a4.93,4.93,0,0,0,3.57,1.83H89a3.42,3.42,0,0,0,3-1.43h0a7.26,7.26,0,0,0,1.22-2.34h0a1.27,1.27,0,0,0,0-.16h0a1,1,0,0,1,1-.73h0l.16,0Z"/><path class="cls-11" d="M70.77,143.15s19-2.72,35.42,0c0,0-1.15,19.27-16.24,19.27C76.12,162.42,70.77,151.27,70.77,143.15Z"/><path class="cls-12" d="M89.5,148.23c-6.72,0-12.34,3.53-13.77,8.26,3.08,3.46,7.71,5.93,14.22,5.93s10.31-3.49,12.67-7.49C100.55,151,95.45,148.23,89.5,148.23Z"/><polygon class="cls-1" points="70.21 100.73 45.83 102.2 48.69 97.12 69.88 95.84 70.21 100.73"/><polygon class="cls-1" points="103.39 100.73 127.78 102.2 124.92 97.12 103.73 95.84 103.39 100.73"/><path class="cls-1" d="M28.69,90.07H61.9l1.11-24L65.59,89.7H98.06v-24l4.43,24h26.57V64.61l3.32,25.09h17s2.18-30.31-6.64-42.07c-12.73-17-69.37-28-106.09-3.5C20.57,59.44,28.69,90.07,28.69,90.07Z"/></g></g></svg>