<svg xmlns="http://www.w3.org/2000/svg" viewBox="0 0 200.96 278.49"><defs><style>.cls-1{fill:#515151;}.cls-2{fill:#f9dab4;}.cls-3{fill:#ea9628;}.cls-4{fill:#efc4a0;}.cls-5{fill:#ba8156;}.cls-6{fill:#393c3d;}.cls-7{fill:#f4d3b0;}.cls-8{fill:#c65044;}.cls-9{fill:#3a332d;}.cls-10{fill:#e8dfd9;}</style></defs><title>资源 284</title><g id="图层_2" data-name="图层 2"><g id="Layer_1" data-name="Layer 1"><path class="cls-1" d="M201,223.87s-32.76-11.67-24.88-87.13c3.45-33.06,30.06-118.59-75.6-118.59S21.43,103.68,24.89,136.74C32.77,212.2,0,223.87,0,223.87c2.49,12,19.91,14.94,19.91,14.94C14.1,255,0,258.3,0,258.3a73.36,73.36,0,0,0,13.47,20.19h174A73.36,73.36,0,0,0,201,258.3s-14.1-3.32-19.9-19.49C181.06,238.81,198.48,235.9,201,223.87Z"/><polygon class="cls-2" points="35.94 278.49 51.46 278.49 65.39 207.18 53.08 205.95 35.94 278.49"/><polygon class="cls-2" points="161.67 278.49 146.16 278.49 132.23 207.18 144.54 205.95 161.67 278.49"/><path class="cls-3" d="M70.62,178.82S57.28,185.24,47.36,208c0,0,7.6,6.4,20.3,6.86Z"/><path class="cls-3" d="M127.24,178.82s13.34,6.42,23.26,29.22c0,0-7.6,6.4-20.3,6.86Z"/><rect class="cls-4" x="76.89" y="175.8" width="44.18" height="29.26"/><path class="cls-5" d="M98.93,196.86A20.11,20.11,0,0,1,78.34,178c-3.63.38-6.61.7-7.72.84,0,0-15.22,63.23-19.43,99.67h95.47c-4.2-36.44-19.42-99.67-19.42-99.67-1.11-.14-4.09-.46-7.72-.84A20.11,20.11,0,0,1,98.93,196.86Z"/><path class="cls-1" d="M94,0h9.77a8,8,0,0,1,8,8v3a8,8,0,0,1-8,8H94a8,8,0,0,1-8-8V8A8,8,0,0,1,94,0Z"/><path class="cls-6" d="M98.93,16.47c-40.5,0-24.69,57.79-24.69,57.79h49.38S139.42,16.47,98.93,16.47Z"/><path class="cls-7" d="M38.28,118.26s-4.48-6.05-15-3.14-10.54,46.19,33.19,43.95Z"/><path class="cls-7" d="M160,118.26s4.48-6.05,15-3.14,10.54,46.19-33.18,43.95Z"/><path class="cls-3" d="M43.87,151.66a3.71,3.71,0,1,0-4.22,3.67c.23,2.53.25,7.06-1.95,9.71-4.29.28-5.49-4.3-5.49-4.3s-6.37,6.12-1.37,9.35c5.66,3.66,8.6-4.44,8.93-5.42,1.65-3,1.62-7,1.41-9.44A3.72,3.72,0,0,0,43.87,151.66Z"/><path class="cls-3" d="M154.18,151.66a3.71,3.71,0,1,1,4.22,3.67c-.22,2.53-.25,7.06,2,9.71,4.28.28,5.48-4.3,5.48-4.3s6.37,6.12,1.38,9.35c-5.67,3.66-8.61-4.44-8.94-5.42-1.64-3-1.61-7-1.4-9.44A3.72,3.72,0,0,1,154.18,151.66Z"/><path class="cls-2" d="M28.13,97.84c8,52.93,35,86.18,70.8,86.18s62.79-33.25,70.8-86.18c0,0-20.47-28.68-70.8-28.68S28.13,97.84,28.13,97.84Z"/><path class="cls-4" d="M91.9,139.8s2.68-8.24,7.6-8.24,7.6,8.24,7.6,8.24-3.21-5.24-7.6-5.24S91.9,139.8,91.9,139.8Z"/><path class="cls-8" d="M85.42,155.88s3.8-4.8,8.18-4.58a9.29,9.29,0,0,1,6.77,3.76s3.94-3.68,8.55-3.61,6.62,4.8,6.62,4.8-4.76,6-15.69,6S85.42,155.88,85.42,155.88Z"/><path class="cls-1" d="M46.62,107.71s19.93-3.12,27,0l-6-6.14S49.7,101.57,46.62,107.71Z"/><path class="cls-9" d="M55.45,126.77a22.37,22.37,0,0,1-6.17-.69,1.39,1.39,0,0,1,.83-2.66c3.45,1.09,11.06.34,13.7,0a1.38,1.38,0,0,1,.4,2.74A68.37,68.37,0,0,1,55.45,126.77Z"/><path class="cls-9" d="M58.45,124a17.94,17.94,0,0,1-11-4,1.39,1.39,0,1,1,1.82-2.09c.09.08,5.55,4.68,12.4,2.91a1.39,1.39,0,1,1,.69,2.69A15.78,15.78,0,0,1,58.45,124Z"/><circle class="cls-9" cx="62.66" cy="119.46" r="6.84"/><path class="cls-10" d="M64.73,115c.2,1-1,2-2.7,2.39s-3.22-.18-3.41-1.16,1-2,2.7-2.39S64.53,114,64.73,115Z"/><path class="cls-1" d="M151.38,107.71s-19.93-3.12-27,0l6-6.14S148.31,101.57,151.38,107.71Z"/><path class="cls-9" d="M142.55,126.77a68.13,68.13,0,0,1-8.75-.65,1.38,1.38,0,1,1,.39-2.74c.1,0,9.55,1.35,13.7,0a1.39,1.39,0,0,1,.83,2.66A22.37,22.37,0,0,1,142.55,126.77Z"/><path class="cls-9" d="M139.56,124a15.8,15.8,0,0,1-3.93-.5,1.39,1.39,0,0,1,.69-2.69c6.88,1.77,12.35-2.86,12.4-2.91a1.39,1.39,0,0,1,1.83,2.09A18,18,0,0,1,139.56,124Z"/><circle class="cls-9" cx="135.35" cy="119.46" r="6.84"/><path class="cls-10" d="M133.27,115c-.19,1,1,2,2.7,2.39s3.22-.18,3.42-1.16-1-2-2.7-2.39S133.47,114,133.27,115Z"/></g></g></svg>