<svg xmlns="http://www.w3.org/2000/svg" viewBox="0 0 183.18 260"><defs><style>.cls-1{fill:#cca281;}.cls-2{fill:#b78e72;}.cls-3{fill:#d3cec7;}.cls-4{fill:#f9f5ed;}.cls-5{fill:#c6c1ba;}.cls-6{fill:#f9f7f2;}.cls-7{fill:#c4987a;}.cls-8{fill:#393c3d;}.cls-9{fill:#3b3d3d;}.cls-10{fill:#fff;}.cls-11{fill:#292c2d;}</style></defs><title>资源 27</title><g id="图层_2" data-name="图层 2"><g id="Layer_1" data-name="Layer 1"><path class="cls-1" d="M167.76,260H147.53s-5-54.73-6.77-61.59c-1.15-4.35-7.19-11.45-7.19-11.45l-3.15-27.08s19.26,2.88,29.49,26.59C165.27,198.89,165.91,245.57,167.76,260Z"/><path class="cls-2" d="M148.24,260c-.61-10.4-2.38-32.73-3.17-40.68-1.13-11.39-3.78-21.13,1.54-21.84,5.81-.78,12.89,1.44,16.41,2.86-.82-6-1.83-10.9-3.11-13.87-10.23-23.71-29.49-26.59-29.49-26.59L133.57,187s6,7.1,7.19,11.45c1.79,6.86,6.77,61.59,6.77,61.59Z"/><path class="cls-1" d="M16.86,260H37.09s5-54.73,6.77-61.59C45,194.06,51.05,187,51.05,187l3.15-27.08s-19.26,2.88-29.49,26.59C19.35,198.89,18.71,245.57,16.86,260Z"/><path class="cls-2" d="M36.38,260c.6-10.4,2.38-32.73,3.17-40.68,1.13-11.39,3.78-21.13-1.54-21.84-5.81-.78-12.89,1.44-16.41,2.86.82-6,1.83-10.9,3.11-13.87,10.23-23.71,29.49-26.59,29.49-26.59L51.05,187s-6,7.1-7.19,11.45c-1.8,6.86-6.77,61.59-6.77,61.59Z"/><rect class="cls-2" x="64.33" y="141.48" width="64.28" height="97.22"/><path class="cls-3" d="M127.82,153.7h-5.68L105.07,193s-4.41,4.61-16,23.43c-12.7-22.88-22.77-62.15-22.77-62.15C49.48,152.69,25.2,167.4,25.2,167.4l22.92,31.36L49.65,260h88.88l-1.9-56.08s6.7-2.95,27.16-17.71C153.89,170.74,127.82,153.7,127.82,153.7Z"/><path class="cls-4" d="M70.69,178.83c-5.17-17.46-19.75-16-19.75-16s-17.63,1.72-17.63,5.9,12.93,20.66,12.93,20.66c2.35,5.17,6.11-5.16,6.11-3.2S50,191.13,50,195.81c0,4,1.57,49.45,2,64.19H88.64c.45-9.7,1-28.21-1.26-40.58C87.38,219.42,75.86,196.3,70.69,178.83Z"/><path class="cls-4" d="M142.63,167.77c-10.11-8.12-21.25-6.18-21.87-3.45s-10.1,23.86-12.93,29.52-17.16,25.58-17.16,25.58S92,250.21,92.08,260h44.38c1.17-9.3-3.24-57.12-3.24-63.7,0-7.14,1.89-2.22,3.3,2.95,0,0,11.52-6.64,18.1-10.33S152.74,175.88,142.63,167.77Z"/><path class="cls-3" d="M54.47,201.16c1.94-6.64,8.81-9.23,13-10.7s10.79,2,10.79,2c-7.2-19.21-12-38.11-12-38.11a42.29,42.29,0,0,0-14.38,1.59C52.69,163.64,54.47,182.56,54.47,201.16Z"/><path class="cls-3" d="M122.14,153.7,105.52,192c5.2-1.64,16-4.06,21.94,2,4.41,5,5.47,6.09,5.47,6.09s-1.85-18.36-3.53-28.41c-1-5.83-2.12-13-2.91-17.94Z"/><path class="cls-5" d="M28,165.82c5.33,7,10.6,14.17,15.55,21.51a81.84,81.84,0,0,1,5.9,10.09c.62,1.31,4.39,6.89.8,6.89-2.81,0,1.23,6.07-3.69,6.07s-10-7.1-14.63-12-14.28-15.13-15.52-18.63,1.94-6.46,4.76-3.51c.81.85,2.06,1.68,2.16,0,.08-1.31-.91-2.25-1.49-3.28-1.36-2.39-1.64-6.88.4-9C24,162.1,26.7,164.14,28,165.82Z"/><path class="cls-3" d="M23.2,170.84s-2.12-5.17.82-4.92,9.88,9.72,14.23,16.85S52.47,202.08,50,202.08s-2.47,1.48-2.47,4.55,0,3.2-4.46.61-15.81-15.55-19.52-19.43-6.87-10.14-6-11.07,2.7.5,5.52,2.34S26,178.34,23.2,170.84Z"/><path class="cls-5" d="M156.79,167.48c-5.33,7-10.61,14.17-15.55,21.52a81,81,0,0,0-5.9,10.08c-.63,1.31-4.39,6.89-.8,6.89,2.8,0-1.23,6.07,3.69,6.07s10-7.1,14.63-12,14.28-15.13,15.52-18.63-1.94-6.46-4.76-3.51c-.82.85-2.06,1.68-2.17,0-.07-1.31.92-2.25,1.5-3.28,1.36-2.39,1.64-6.88-.4-9C160.74,163.76,158.06,165.8,156.79,167.48Z"/><path class="cls-3" d="M161.56,172.5s2.11-5.16-.82-4.92-9.88,9.72-14.23,16.85-14.22,19.31-11.75,19.31,2.47,1.48,2.47,4.55,0,3.2,4.46.61,15.81-15.55,19.52-19.43,6.87-10.14,6-11.07-2.7.5-5.52,2.34S158.74,180,161.56,172.5Z"/><path class="cls-3" d="M104.07,226.06a4.47,4.47,0,1,1-4.46-4.67A4.57,4.57,0,0,1,104.07,226.06Z"/><path class="cls-3" d="M104.07,247.22a4.47,4.47,0,1,1-4.46-4.68A4.57,4.57,0,0,1,104.07,247.22Z"/><path class="cls-1" d="M162.48,49.86l-138.7-.17s.68,23.6-1.2,38.71c-1.08,8.68-.48,16.18-.71,19.59C19.82,139.3,53,165,91.81,165.25s70.46-25,70.66-56.35A85.46,85.46,0,0,0,162,98.51c-.27-2.64-.27-5.52-.41-8.78C160.93,75.62,162.48,49.86,162.48,49.86Z"/><path class="cls-6" d="M48.69,127.18a1.27,1.27,0,0,1-1.31,1.22l-4.29-.16a1.26,1.26,0,0,1-1.22-1.31h0a1.27,1.27,0,0,1,1.32-1.23l4.28.16a1.27,1.27,0,0,1,1.22,1.32Z"/><path class="cls-6" d="M140.89,127.78a1.26,1.26,0,0,1-1.31,1.22l-4.28-.16a1.28,1.28,0,0,1-1.23-1.32h0a1.28,1.28,0,0,1,1.32-1.23l4.28.16a1.28,1.28,0,0,1,1.22,1.33Z"/><path class="cls-1" d="M153.48,129.1a23.32,23.32,0,0,0,19.62-.26c10.3-5,15.37-25.7,2-30.65s-17.44,10.39-17.44,10.39Z"/><path class="cls-7" d="M159.69,122.81s4.24-22.64,14.14-14.82c6.08,4.8,2.47,11.52-3.17,14.27C167.11,124,162.51,124.13,159.69,122.81Z"/><path class="cls-2" d="M159.81,122.55l1.47-5.7s18.83-5.37,13.55,2.18S159.81,122.55,159.81,122.55Z"/><path class="cls-1" d="M29.45,127.8a23.3,23.3,0,0,1-19.61-.51c-10.23-5.17-15-25.9-1.64-30.67s17.32,10.61,17.32,10.61Z"/><path class="cls-7" d="M23.33,121.43s-3.95-22.69-13.95-15c-6.14,4.72-2.62,11.48,3,14.3C15.89,122.51,20.49,122.72,23.33,121.43Z"/><path class="cls-2" d="M23.21,121.17l-1.4-5.72s-18.75-5.62-13.57,2S23.21,121.17,23.21,121.17Z"/><path class="cls-8" d="M92.13,0C2.66,0,11.59,60.66,13.73,70.66c1.54,7.16,1.48,19.08,1.35,25.21a18.15,18.15,0,0,1,6.82,4.28c2.34-10.6.43-27.31,5.23-36.8.68-3.35,28.75-1.3,48.27,2.75a85.32,85.32,0,0,0,34.14.1c19.62-3.93,47.06-5.92,47.68-2.85,4.8,9.49,2.62,26.72,5,37.33a13,13,0,0,1,6.93-3.47c-.14-6.13,0-19.39,1.51-26.55C172.76,60.66,181.6,0,92.13,0Z"/><path class="cls-7" d="M92.59,121.6A21.32,21.32,0,0,1,80.82,118a1.37,1.37,0,0,1,1.66-2.18c.38.29,9.36,6.86,20.26-.06a1.36,1.36,0,0,1,1.46,2.3A21.35,21.35,0,0,1,92.59,121.6Z"/><path class="cls-9" d="M138.46,94.4a11.34,11.34,0,1,1-15.73-3.17A11.33,11.33,0,0,1,138.46,94.4Z"/><path class="cls-10" d="M130.76,91.74c1.13,1.7-.35,4.66-3.29,6.61s-6.25,2.18-7.37.48.35-4.65,3.29-6.61S129.64,90.05,130.76,91.74Z"/><path class="cls-9" d="M66.7,94.1A11.34,11.34,0,1,1,51,90.93,11.34,11.34,0,0,1,66.7,94.1Z"/><path class="cls-10" d="M59,91.44c1.13,1.69-.35,4.65-3.29,6.61s-6.25,2.17-7.37.48.34-4.65,3.29-6.61S57.87,89.75,59,91.44Z"/><path class="cls-8" d="M122.05,160.44c0-1.87-5.61-1.69-11.78-3.69C104.89,155,99.43,151,92.56,151c-6.49,0-11.55,3.79-16.78,5.46-6.66,2.13-12.71,2.39-12.71,4,0,6.06,6.05,11.57,12.7,15.66,0,0-1.65-3.35-.49-5,0,0,3.51,6.28,6.82,8.48a22.31,22.31,0,0,0,10.46,3.78c1.28,0,5.07-1,10.58-3.88C106.68,177.59,110,171,110,171c1.37,1.86-.79,5-.79,5C115.82,171.83,122.05,166.21,122.05,160.44Z"/><path class="cls-11" d="M112.8,164.34A26.21,26.21,0,0,1,110,171a2.76,2.76,0,0,1,.4,2.13A15.34,15.34,0,0,0,112.8,164.34Z"/><path class="cls-11" d="M72.47,164.34a15.31,15.31,0,0,0,2.43,8.82h0a3.1,3.1,0,0,1,.38-2.1A26.42,26.42,0,0,1,72.47,164.34Z"/><path class="cls-8" d="M147.36,71.58,128.15,74.1a83.73,83.73,0,0,1-13.18.52s1.59,8.17,3,9.69,13.81,0,21.24-1.9S147.36,80.51,147.36,71.58Z"/><path class="cls-8" d="M37.76,71.58S53.11,73.78,57,74.1c5.83.48,13.18.52,13.18.52s-1.59,8.17-3,9.69-13.8,0-21.23-1.9S37.76,80.51,37.76,71.58Z"/><path class="cls-7" d="M92.74,137.72c16.52,0,27.08,2.23,27.52,2.33a1.37,1.37,0,1,1-.58,2.67,143.42,143.42,0,0,0-26.94-2.26,150.16,150.16,0,0,0-27.31,2.26,1.36,1.36,0,1,1-.56-2.67A148.37,148.37,0,0,1,92.74,137.72Z"/></g></g></svg>