<svg xmlns="http://www.w3.org/2000/svg" viewBox="0 0 137.47 259.34"><defs><style>.cls-1{fill:#f9dab4;}.cls-2{fill:#4c3626;}.cls-3{fill:#b54331;}.cls-4{fill:#c15036;}.cls-5{fill:#efc4a0;}.cls-6{fill:#ea9628;}.cls-7{fill:#f4d3b0;}.cls-8{fill:#3a332d;}.cls-9{fill:#e8dfd9;}.cls-10{fill:#492020;}.cls-11{fill:#c65044;}</style></defs><title>资源 187</title><g id="图层_2" data-name="图层 2"><g id="Layer_1" data-name="Layer 1"><path class="cls-1" d="M103.26,248.61l1.57,10.73h21.83c.06-3-.52-10.34-1.54-20A137.33,137.33,0,0,1,103.26,248.61Z"/><path class="cls-1" d="M11.74,259.34H31.66L43.87,165.4H23.06C18,193,12.37,243.68,11.74,259.34Z"/><path class="cls-2" d="M36.22,226.19s-24.31-4.74-25.64,1.14-2.66,23.94,0,25.27,19.56,2.09,24.69-1.15Z"/><path class="cls-3" d="M43.1,146.71S34.74,143,21.68,163.53,7.46,187.21,7.46,187.21s18,9.66,27,8.41S43.1,146.71,43.1,146.71Z"/><path class="cls-3" d="M84.46,146.44s16.69-2.23,21.89,11.69c4.23,11.36,23.66,85.48,23.66,85.48s-14.11,10.59-29.58,7.79Z"/><path class="cls-4" d="M101.61,179.11c-3.45-33-14.14-35.69-14.14-35.69s-9.86-.79-20.32-1.27l-.52,0a1.82,1.82,0,0,0-.52,0c-10.46.44-20.32,1.23-20.32,1.23s-10.68,2.66-14.14,35.69c-1.49,14.36-3.14,28.71-4.81,43-1.15,9.86-2.49,21.3.51,30.94a24.47,24.47,0,0,0,3,6.24h81.25C110.08,232.72,102.86,191.11,101.61,179.11Z"/><path class="cls-2" d="M88.46,159c0,9-8.83,16.36-19.72,16.36S49,168.06,49,159s8.83-16.36,19.73-16.36S88.46,150,88.46,159Z"/><path class="cls-5" d="M84.19,156.63c0,7.72-6.92,14-15.45,14s-15.46-6.25-15.46-14,6.92-14,15.46-14S84.19,148.91,84.19,156.63Z"/><path class="cls-6" d="M11.76,108.07S-1.95,65.7.24,56s11.52-7.48,11.52-7.48S6.78,28,13.94,20.83,40.74-2.23,75.64.26s77.9,52.35,55.77,105.94L78.75,120.54Z"/><path class="cls-7" d="M115.13,104.54s10.8-7.89,17,0-15.79,50.68-28.67,35.73Z"/><path class="cls-7" d="M21.91,104.54s-10.8-7.89-17,0,15.79,50.68,28.67,35.73Z"/><path class="cls-1" d="M68.52,68.4H14.92s1.17,52.34,12,67.3,25.25,22,41.56,22.43c16.31-.41,30.68-7.47,41.55-22.43s12-67.3,12-67.3Z"/><path class="cls-6" d="M14.16,68.4S37.21,91.24,58.71,95.92L46.87,82.16s19.32,11.89,40.82,2.23l-13.4-5,20.88-1.24s21,4.36,27.79,10.28c0,0,11-18.33,0-28.17S-15.76,43.06,14.16,68.4Z"/><path class="cls-6" d="M107.89,99.71s-11.61-2.19-21.4-.5V93.28L107,92.86Z"/><path class="cls-6" d="M29.14,99.71s11.61-2.19,21.4-.5l0-5.93L30,92.86Z"/><path class="cls-8" d="M45.11,112.67a6.45,6.45,0,1,1-6.45-6.44A6.44,6.44,0,0,1,45.11,112.67Z"/><path class="cls-9" d="M39.73,108.18c.16.78-.8,1.64-2.15,1.91s-2.56-.15-2.72-.93.8-1.63,2.15-1.9S39.58,107.4,39.73,108.18Z"/><path class="cls-8" d="M104.82,112.67a6.45,6.45,0,1,1-6.45-6.44A6.45,6.45,0,0,1,104.82,112.67Z"/><path class="cls-9" d="M99.44,108.18c.15.78-.81,1.64-2.15,1.91s-2.57-.15-2.73-.93.81-1.63,2.16-1.9S99.28,107.4,99.44,108.18Z"/><path class="cls-5" d="M79.31,125.42s-5.43-8.18-10.87-8.18-10.72,9.06-10.72,9.06,8-6.44,10.8-6.44S79.31,125.42,79.31,125.42Z"/><polygon class="cls-10" points="68.64 134.56 68.39 134.56 48.45 134.56 53.9 150.76 68.39 150.76 68.64 150.76 83.13 150.76 88.58 134.56 68.64 134.56"/><path class="cls-11" d="M55,150.76H82.08a13.74,13.74,0,0,0-27.12,0Z"/></g></g></svg>