<svg xmlns="http://www.w3.org/2000/svg" viewBox="0 0 237.68 260"><defs><style>.cls-1{fill:#f9dab4;}.cls-2{fill:#61aa90;}.cls-3{fill:#f9f5ed;}.cls-4{fill:#c65044;}.cls-5{fill:#e2dcd9;}.cls-6{fill:#3a332d;}.cls-7{fill:#efc4a0;}.cls-8{fill:#494949;}.cls-9{fill:#515151;}</style></defs><title>资源 76</title><g id="图层_2" data-name="图层 2"><g id="Layer_1" data-name="Layer 1"><path class="cls-1" d="M180.77,260H159l-5.57-64.47,13.06-3.91S179.8,237.47,180.77,260Z"/><path class="cls-1" d="M57.7,260H79.46L85,195.53,72,191.62S58.68,237.47,57.7,260Z"/><path class="cls-2" d="M83.6,162.11s-13,9-17.22,31.87L85,201.37Z"/><path class="cls-2" d="M154.14,162.11s13,9,17.22,31.87l-18.65,7.39Z"/><path class="cls-3" d="M118.87,156.46s-26.64.9-35.27,5.65c0,0-7.52,64.35-6.39,97.89h83.32c1.13-33.54-6.39-97.89-6.39-97.89C145.51,157.36,118.87,156.46,118.87,156.46Z"/><rect class="cls-4" x="112.45" y="165.1" width="12.16" height="7.97" rx="2.14"/><polygon class="cls-4" points="115.9 169.08 121.37 169.08 124.62 231.8 118.54 238.96 112.45 231.5 115.9 169.08"/><polygon class="cls-5" points="109.25 176.06 118.57 164 127.9 176.06 141.85 158.65 95.85 158.65 109.25 176.06"/><ellipse class="cls-1" cx="118.84" cy="103.77" rx="60.11" ry="61.71"/><path class="cls-6" d="M76.67,113.7a1.51,1.51,0,0,1-1.52-1.51c0-4,2-11.78,9.89-12h.46c7.38,0,10.74,6.14,11.5,9.46a1.52,1.52,0,1,1-3,.68c-.07-.3-1.82-7.33-8.88-7.09-6.88.23-7,8.63-7,9a1.52,1.52,0,0,1-1.52,1.52Z"/><path class="cls-6" d="M74.06,113.63a20.24,20.24,0,0,1-6.55-1.16,1.52,1.52,0,0,1,1-2.88,14.36,14.36,0,0,0,7.75.78,1.52,1.52,0,0,1,.83,2.93A12,12,0,0,1,74.06,113.63Z"/><path class="cls-6" d="M76.87,110.46c-4.48,0-9.61-4.19-9.83-4.37A1.52,1.52,0,0,1,69,103.74h0c1.25,1,5.09,3.67,7.88,3.67H77a1.53,1.53,0,0,1,0,3Z"/><path class="cls-6" d="M160.91,113.71h0a1.53,1.53,0,0,1-1.52-1.53c0-.36-.07-8.76-6.95-9-7.12-.25-8.81,6.79-8.88,7.09a1.52,1.52,0,1,1-3-.68c.77-3.38,4.26-9.72,12-9.46,7.87.27,9.91,8,9.89,12A1.52,1.52,0,0,1,160.91,113.71Z"/><path class="cls-6" d="M163.52,113.63a12,12,0,0,1-3-.33,1.52,1.52,0,1,1,.83-2.93,14.38,14.38,0,0,0,7.75-.78,1.52,1.52,0,0,1,1,2.88A20.24,20.24,0,0,1,163.52,113.63Z"/><path class="cls-6" d="M160.71,110.46h-.11a1.53,1.53,0,0,1,0-3h.1c2.79,0,6.63-2.64,7.88-3.67a1.52,1.52,0,0,1,1.94,2.35C170.32,106.27,165.19,110.46,160.71,110.46Z"/><path class="cls-4" d="M105.31,145.11s3.5-5.27,7.54-5,6.24,4.12,6.24,4.12,3.63-4,7.88-4,6.1,5.26,6.1,5.26-4.22,6.37-14.29,6.37S105.31,145.11,105.31,145.11Z"/><path class="cls-7" d="M112.24,128.16s.69-6.22,6.69-6.25,7.22,6.25,7.22,6.25-3.28-3.83-7.11-3.83S112.24,128.16,112.24,128.16Z"/><path class="cls-8" d="M39.23,29.21s-2.73-9.83-12.09-9.36-11.62,9.6-11.26,21.8S14.69,66.18,5.21,58.48c0,0-2.48,6.52,2.49,9.13A6.75,6.75,0,0,1,0,68.2S-.12,75.31,5.1,76c0,0-1.9,3.08-4.15,2.84,0,0,6.22,12,18.13,5.57,5.07-2.75,12.09-8.76,18-21l8.18-20.38Z"/><path class="cls-3" d="M48,28.9s-5.29-6.28-11.8.23S36.31,46,43.76,42.34Z"/><path class="cls-8" d="M198.46,29.21s2.72-9.83,12.08-9.36,11.62,9.6,11.26,21.8S223,66.18,232.47,58.48c0,0,2.49,6.52-2.49,9.13a6.75,6.75,0,0,0,7.7.59s.12,7.11-5.09,7.82c0,0,1.89,3.08,4.14,2.84,0,0-6.22,12-18.13,5.57-5.07-2.75-12.09-8.76-18-21l-8.18-20.38Z"/><path class="cls-3" d="M189.65,28.9s5.29-6.28,11.8.23-.08,16.86-7.53,13.21Z"/><path class="cls-9" d="M209.9,157.31s-14.12-4.71-13.56-26.39C197.07,103,236.75,0,118.84,0S40.62,103,41.34,130.92c.56,21.68-13.56,26.39-13.56,26.39,2.73,7.22,12.51,6.58,12.51,6.58-.64,5.78-7.86,6.74-7.86,6.74,3.69,9.14,15.41,5.61,15.41,5.61,1,3.85-1.92,6.92-1.92,6.92,45.13,20.57,21-95.54,21-95.54,16.61-5.41,51.92-4.69,51.92-4.69s35.32-.72,51.92,4.69c0,0-24.12,116.11,21,95.54,0,0-2.88-3.07-1.91-6.92,0,0,11.71,3.53,15.4-5.61,0,0-7.22-1-7.86-6.74C197.39,163.89,207.17,164.53,209.9,157.31Z"/></g></g></svg>