<svg xmlns="http://www.w3.org/2000/svg" viewBox="0 0 161.4 260.01"><defs><style>.cls-1{fill:#f9dab4;}.cls-2{fill:#2f3233;}.cls-3{fill:#348789;}.cls-4{fill:#efc4a0;}.cls-5{fill:#6d4c3a;}.cls-6{fill:#605751;}.cls-7{fill:#3a332d;}.cls-8{fill:#e8dfd9;}.cls-9{opacity:0.8;}.cls-10{fill:#6dbdc6;}.cls-11{fill:#f9f5ed;}</style></defs><title>资源 352</title><g id="图层_2" data-name="图层 2"><g id="Layer_1" data-name="Layer 1"><path class="cls-1" d="M130.31,195.23c-7.64-19.77-22.77-6.15-22.77-6.15L119.87,260h24.2C139.53,232.88,134.07,205,130.31,195.23Z"/><path class="cls-1" d="M33,195.21c-3.8,9.73-9.36,37.66-14,64.8H43.24L55.8,189.13S40.69,175.43,33,195.21Z"/><path class="cls-2" d="M53.28,162.78s-18.05,2-33.28,33.14l27.23,12.55Z"/><path class="cls-2" d="M108.13,162.78s18.05,2,33.27,33.14l-27.22,12.55Z"/><path class="cls-3" d="M80.7,159.12l-21.75-1s-11.71,5.28-13.37,20.72c-1.06,9.86-7.21,52-11.51,81.16h93.26c-4.3-29.15-10.44-71.3-11.5-81.16-1.66-15.44-13.37-20.72-13.37-20.72Z"/><path class="cls-2" d="M122.5,227c-39.37,7.28-67.67,3.89-83.62.18-.81,5.6-1.64,11.26-2.45,16.78a188,188,0,0,0,41.13,4.25,262.85,262.85,0,0,0,47.37-4.56Z"/><rect class="cls-2" x="91.9" y="202.75" width="20.2" height="5.72" transform="translate(-9.69 5.1) rotate(-2.73)"/><polygon class="cls-2" points="59.27 154.16 54.47 188.03 80.7 193.3 59.27 154.16"/><polygon class="cls-2" points="102.14 154.16 106.94 188.03 80.7 193.3 102.14 154.16"/><polygon class="cls-4" points="56.39 159.72 80.7 193.3 105.02 159.72 56.39 159.72"/><path class="cls-5" d="M148.16,42.24C144.12,23.06,108.5,1.19,82.5,0H78.9c-26,1.18-61.61,23-65.66,42.23C9,62.18,17,115.32,17,115.32H144.43S152.37,62.18,148.16,42.24Z"/><path class="cls-6" d="M24,80.66c-.31,0-.59,0-.9,0C1,80.63,0,93,0,108.3S1,136,23.13,136c.31,0,.59,0,.9,0Z"/><path class="cls-7" d="M23.13,80.63a44.51,44.51,0,0,0-6.21.43v54.48a44.61,44.61,0,0,0,6.21.42c.31,0,.59,0,.9,0V80.66C23.72,80.66,23.44,80.63,23.13,80.63Z"/><path class="cls-6" d="M137.38,80.66c.3,0,.59,0,.89,0,22.14,0,23.13,12.38,23.13,27.67s-1,27.66-23.13,27.66c-.3,0-.59,0-.89,0Z"/><path class="cls-7" d="M138.27,80.63a44.78,44.78,0,0,1,6.22.43v54.48a44.87,44.87,0,0,1-6.22.42c-.3,0-.59,0-.89,0V80.66C137.68,80.66,138,80.63,138.27,80.63Z"/><path class="cls-1" d="M103.42,61.87l14.72-7s-14.49-3.5-22.43-.23-18.46,3-18.46,3c7.24-8.42,11.92-20.1,11.92-20.1C70.71,39.21,42.91,59.89,42.91,59.89A206.32,206.32,0,0,1,49.68,39c-4.5,3.64-19.44,16-26.88,22.15v67.51A31.61,31.61,0,0,0,34,153.08s18.11,14,46.71,13.49,46.69-13.49,46.69-13.49a31.59,31.59,0,0,0,11.21-24.45V69.36C127.13,61.06,103.42,61.87,103.42,61.87Z"/><path class="cls-7" d="M54.47,106.59A6.55,6.55,0,1,1,47.92,100,6.55,6.55,0,0,1,54.47,106.59Z"/><path class="cls-8" d="M49,102c.16.79-.82,1.66-2.18,1.93s-2.61-.14-2.77-.93.82-1.66,2.18-1.94S48.84,101.24,49,102Z"/><path class="cls-7" d="M120,106.59a6.55,6.55,0,1,1-6.55-6.55A6.55,6.55,0,0,1,120,106.59Z"/><path class="cls-8" d="M114.57,102c.16.79-.82,1.66-2.18,1.93s-2.61-.14-2.77-.93.82-1.66,2.19-1.94S114.41,101.24,114.57,102Z"/><path class="cls-5" d="M57,77.7c2.68,1.07,2.94,7,2.94,7H30.59s.29-5.34,2.64-7.17S54.31,76.65,57,77.7Z"/><path class="cls-5" d="M104.41,77.7c-2.68,1.07-2.93,7-2.93,7h29.33s-.28-5.34-2.63-7.17S107.09,76.65,104.41,77.7Z"/><path class="cls-4" d="M91.9,132.27s-2.54-8.15-10.73-8.67-11.66,10-11.66,10,5.14-7.79,11.64-7.06S91.9,132.27,91.9,132.27Z"/><path class="cls-4" d="M46.4,146.46l3,.51c1.88.33,4.58.66,7.81,1.07l5.21.54,5.83.42,6.23.23,6.43-.08c2.06,0,4.32-.24,6.43-.35s4.17-.43,6.18-.62,3.92-.58,5.76-.82,3.56-.65,5.16-.92C110.8,145.22,115,144,115,144s-1,.53-2.72,1.31c-.89.35-2,.84-3.21,1.3s-2.66,1-4.25,1.48-3.28,1.05-5.14,1.42-3.77,1-5.84,1.22-4.2.75-6.33.88-4.26.38-6.55.46-4.41,0-6.59,0L68,151.52a104.39,104.39,0,0,1-11.12-1.86A71.43,71.43,0,0,1,46.4,146.46Z"/><g class="cls-9"><path class="cls-10" d="M138.61,87.74H22.8v33.63a5.8,5.8,0,0,0,.49,1.63c2,3.6,34.7,13.91,52.07-4,.64-.66,2.8-3.78,5-3.73s4.22,2.29,4.8,2.9c17.29,18.11,50.87,8.39,52.9,4.78a6.26,6.26,0,0,0,.5-1.66Z"/><path class="cls-11" d="M27.65,125.62A50.68,50.68,0,0,0,37,128.2L77.43,87.74H65.53Z"/><path class="cls-11" d="M133.5,87.74H121.61L88.31,121a32.65,32.65,0,0,0,7.48,4.42Z"/></g></g></g></svg>