<svg xmlns="http://www.w3.org/2000/svg" viewBox="0 0 183.43 260"><defs><style>.cls-1{fill:#f9dab4;}.cls-2{fill:#f7cea6;}.cls-3{fill:#3f3e3d;}.cls-4{fill:#88b559;}.cls-5{fill:#79a348;}.cls-6{fill:#f9f7f2;}.cls-7{fill:#e5be9e;}.cls-8{fill:#2f3233;}.cls-9{fill:#f4c7a2;}.cls-10{fill:#6b4627;}</style></defs><title>资源 45</title><g id="图层_2" data-name="图层 2"><g id="Layer_1" data-name="Layer 1"><path class="cls-1" d="M23,252.92c-.64,2.25-1.2,4.63-1.69,7.08H38L53.7,197,37.42,194.7S25.83,242.86,23,252.92Z"/><path class="cls-2" d="M34,208.72s8.37-2.2,12.54-1,1,8.68-1.26,17.67c-2,8.26-6.59,31-7.32,34.61h0L53.7,197,37.42,194.7S36,200.62,34,208.72Z"/><path class="cls-1" d="M159.81,252.92c-2.84-10.06-14.43-58.22-14.43-58.22L129.1,197l15.68,63H161.5C161,257.55,160.45,255.17,159.81,252.92Z"/><path class="cls-2" d="M136.23,207.72c4.16-1.2,12.54,1,12.54,1-2-8.1-3.39-14-3.39-14L129.1,197l15.68,63h0c-.73-3.63-5.29-26.35-7.32-34.61C135.28,216.4,132.06,208.92,136.23,207.72Z"/><path class="cls-3" d="M135,167.1l16.44,32.72a25.82,25.82,0,0,1-21,9.3L124.59,169Z"/><path class="cls-3" d="M47.83,167l-16,32.82a25.84,25.84,0,0,0,21,9.3L58.71,169Z"/><path class="cls-4" d="M91.44,148.67C57.82,148.67,47.83,167,47.83,167v93H135V167.1S125.05,148.67,91.44,148.67Z"/><path class="cls-5" d="M91.4,180.43c-11.08,0-23.68-27.35-23.47-28.64l.94-5.76h45.06l.94,5.76C115.08,153.08,102.48,180.43,91.4,180.43Z"/><path class="cls-2" d="M74.71,152.89s11.86,20.68,16.69,20.68,16.69-20.68,16.69-20.68Z"/><path class="cls-1" d="M153.7,51.22H32.7S24.49,74.68,22.61,89.81c-1.08,8.69-.48,16.21-.71,19.62-2,31.35,31.15,57.08,70,57.33s70.56-25,70.76-56.42a96.65,96.65,0,0,0-1.78-19.27C158.27,77.35,153.7,51.22,153.7,51.22Z"/><path class="cls-6" d="M48.76,128.65a1.28,1.28,0,0,1-1.32,1.22l-4.29-.16a1.27,1.27,0,0,1-1.22-1.32h0a1.28,1.28,0,0,1,1.32-1.23l4.28.16a1.28,1.28,0,0,1,1.23,1.33Z"/><path class="cls-6" d="M141.09,129.24a1.27,1.27,0,0,1-1.32,1.22l-4.29-.16a1.26,1.26,0,0,1-1.22-1.31h0a1.26,1.26,0,0,1,1.32-1.23l4.28.16a1.28,1.28,0,0,1,1.23,1.32Z"/><path class="cls-1" d="M153.7,130.57a23.36,23.36,0,0,0,19.64-.26c10.31-5,15.39-25.74,2-30.69S157.9,110,157.9,110Z"/><path class="cls-2" d="M159.91,124.27s4.24-22.67,14.16-14.84c6.09,4.81,2.47,11.53-3.18,14.29C167.34,125.44,162.74,125.6,159.91,124.27Z"/><path class="cls-7" d="M160,124l1.48-5.71s18.85-5.38,13.56,2.19S160,124,160,124Z"/><path class="cls-1" d="M29.49,129.27a23.35,23.35,0,0,1-19.64-.52C-.39,123.58-5.21,102.82,8.22,98s17.33,10.63,17.33,10.63Z"/><path class="cls-2" d="M23.36,122.89s-3.95-22.73-14-15c-6.15,4.73-2.63,11.5,3,14.32C15.91,124,20.52,124.18,23.36,122.89Z"/><path class="cls-7" d="M23.24,122.63l-1.4-5.73s-18.78-5.62-13.59,2S23.24,122.63,23.24,122.63Z"/><path class="cls-8" d="M131.86,100.56A1.71,1.71,0,0,1,130,99c0-.69-.3-6.81-8.35-6.81-8.25,0-8.34,6.53-8.34,6.81a1.9,1.9,0,0,1-3.72,0c0-3.41,2.52-9.85,12.06-9.85s12.07,6.44,12.07,9.85A1.71,1.71,0,0,1,131.86,100.56Z"/><path class="cls-8" d="M76.53,100.56A1.71,1.71,0,0,1,74.67,99c0-.69-.3-6.81-8.34-6.81C58.08,92.23,58,98.76,58,99a1.9,1.9,0,0,1-3.72,0c0-3.41,2.52-9.85,12.07-9.85S78.39,95.63,78.39,99A1.71,1.71,0,0,1,76.53,100.56Z"/><path class="cls-9" d="M83.33,123.08a1.37,1.37,0,0,1-.74-2.52,21,21,0,0,1,23.41.06,1.37,1.37,0,0,1-1.65,2.18c-.39-.29-9.37-6.86-20.29.07A1.4,1.4,0,0,1,83.33,123.08Z"/><path class="cls-9" d="M92.91,147.9c-15.72,0-23.75-6.91-24.09-7.2a1.37,1.37,0,0,1,1.81-2.06h0c.07.07,7.66,6.53,22.28,6.53s22.81-6.49,22.89-6.56a1.37,1.37,0,0,1,1.73,2.12C117.17,141,108.59,147.9,92.91,147.9Z"/><path class="cls-10" d="M168.27,36c-3.05-5.74-7.91-4.76-7.91-4.76C156.14.8,104.48,0,92.06,0s-64,.8-68.21,31.2c0,0-3.77-1.64-7.9,4.76C11,43.57,11.46,62.27,13.61,74.47a110.58,110.58,0,0,1,1.56,22.84,17.28,17.28,0,0,1,6.76,4.27c2.35-12.94,5.19-24.45,10-36,.94-5.68,49.84-5.59,60.18,3,11.4-8.45,59.32-8.26,60.18-3,4.8,11.57,7.77,23.61,10.11,36.55a19.3,19.3,0,0,1,6.65-3.4,124.8,124.8,0,0,1,1.55-24.24C172.75,62.27,172.52,44,168.27,36Z"/><circle class="cls-10" cx="92.26" cy="60.13" r="15.26"/><circle class="cls-10" cx="74.34" cy="60.01" r="10.13" transform="translate(-17.31 33.02) rotate(-22.5)"/><path class="cls-10" d="M68.22,60A7.06,7.06,0,1,1,61.16,53,7.07,7.07,0,0,1,68.22,60Z"/><circle class="cls-10" cx="110.18" cy="60.01" r="10.13" transform="translate(-10.16 95.49) rotate(-45)"/><path class="cls-10" d="M116.29,60A7.07,7.07,0,1,0,123.36,53,7.08,7.08,0,0,0,116.29,60Z"/></g></g></svg>