<svg xmlns="http://www.w3.org/2000/svg" viewBox="0 0 170.42 260.05"><defs><style>.cls-1{fill:#f7cea6;}.cls-2{fill:#f9dab4;}.cls-3{fill:#eae5dc;}.cls-4{fill:#f9f5ed;}.cls-5{fill:#5daeb2;}.cls-6{fill:#459999;}.cls-7{fill:#6dbdc6;}.cls-8{fill:#6b4627;}.cls-9{fill:#51321a;}.cls-10{fill:#f4c7a2;}.cls-11{fill:#3f2412;}</style></defs><title>资源 209</title><g id="图层_2" data-name="图层 2"><g id="Layer_1" data-name="Layer 1"><path class="cls-1" d="M8.35,239.82a63.18,63.18,0,0,0,3.32,20.23H54.56V196.72l-40.38-2.33S10.29,222.73,8.35,239.82Z"/><path class="cls-2" d="M31.84,236.32c0-2.91,3.3-18,.2-23.88-1.54-2.88-5.46-3.17-8.33-3.12S17.15,209,15,211a5,5,0,0,0-1.24,1.92c-1.07,2.9-.42,6.28-.79,9.3-1,8-2.89,15.87-2.89,24,0,2.43,1.6,8.08,3.72,13.83H32.5a1.94,1.94,0,0,0,0-.24V245.15c0-3.2-3-3.2-7.28-1.26s-5,2-5,.58C20.19,240.3,31.84,239.23,31.84,236.32Z"/><path class="cls-3" d="M45.37,145.27S9.9,160.8,5.24,205.45H49.12V145.27Z"/><path class="cls-4" d="M23.88,202.54s-11.23-.29-12.63-8.7,15-33.62,21.56-37.11,9.5-3.29,8,5.83-5.33,35.9-5.33,39.4C31.84,203.71,23.88,202.54,23.88,202.54Z"/><path class="cls-1" d="M110.47,196.72v63.33h42.89a63.18,63.18,0,0,0,3.32-20.23c-1.94-17.09-5.83-45.43-5.83-45.43Z"/><path class="cls-2" d="M151.25,212.9A5,5,0,0,0,150,211c-2.12-2-5.79-1.61-8.69-1.66s-6.79.24-8.33,3.12c-3.1,5.83.2,21,.2,23.88s11.65,4,11.65,8.15c0,1.38-.78,1.36-5.05-.58s-7.28-1.94-7.28,1.26v14.66a1.94,1.94,0,0,0,0,.24h18.68c2.12-5.75,3.72-11.4,3.72-13.83,0-8.15-1.9-16-2.89-24C151.67,219.18,152.33,215.8,151.25,212.9Z"/><path class="cls-3" d="M119.66,145.27s35.47,15.53,40.13,60.18H115.91V145.27Z"/><path class="cls-4" d="M141.15,202.54s11.23-.29,12.63-8.7-15-33.62-21.56-37.11-9.5-3.29-8,5.83,5.33,35.9,5.33,39.4C133.19,203.71,141.15,202.54,141.15,202.54Z"/><path class="cls-3" d="M120,140.49c-54.28,0-72.12.38-72.12.38S33.42,213.68,35.46,260.05h96.3C131.62,241.7,130.37,176.74,120,140.49Z"/><path class="cls-4" d="M52.75,148.43A157.37,157.37,0,0,0,40.52,192.5c-2.58,20.36-8,54.8,1.65,67.55h84.24c2.91-7.38,2.91-21.25,2.91-29.11,0-11.07-4.69-74.7-13.28-83.29C83.13,128.72,52.75,148.43,52.75,148.43Z"/><polygon class="cls-3" points="77.06 165.96 76.8 167.43 63.68 242.42 75.36 260.05 96.18 260.05 108.79 241.6 91.16 165.96 77.06 165.96"/><polygon class="cls-3" points="75.06 163.17 62.6 175.12 59.91 170.78 75.67 159.7 76.88 161.94 75.06 163.17"/><polygon class="cls-3" points="93.02 163.79 106.23 176.48 108.17 171.4 92.41 160.31 91.2 162.56 93.02 163.79"/><path class="cls-4" d="M60.76,172.71l23.35-18.55-35.23-4.58Zm23.35-18.55,21.8,18.55L114,149.58Z"/><polygon class="cls-5" points="78.54 167.73 65.56 242.03 77.49 260.05 94.03 260.05 106.89 241.25 89.76 167.73 78.54 167.73"/><path class="cls-6" d="M74.77,158.87H94.16c.74,0,.32,9.85.08,10.85-1.26,5.25-6.89,5.14-11,5.09-2.85,0-6.45-.31-8.13-3.08C73,168.2,74.58,162.72,74.77,158.87Z"/><path class="cls-7" d="M91.84,185.51c-1.16-2.75-3-6.58-6-7.67l-.3-.1c-3.42-1-5.83,2.47-7,5.29a53.82,53.82,0,0,0-2.77,10.54C72,214,67.89,237.25,73.42,248c1.25,2.43,3.13,7.86,5.63,12H92.5c1.74-2.8,3.14-6,4.45-7.83,8.16-11.42,5.6-21.72,3-34.38C97.73,207.05,96.13,195.75,91.84,185.51Z"/><path class="cls-5" d="M74.49,227.93s12.86-12.86,18.25-16.11,5.92-1.26,2.72,1.94-15.24,13.69-18.64,17.86S70.51,231.91,74.49,227.93Z"/><path class="cls-5" d="M78.19,236.57s10.47-11.44,14.86-14.34,4.83-1.12,2.22,1.73-12.42,12.18-15.18,15.9S74.94,240.12,78.19,236.57Z"/><rect class="cls-3" x="104" y="187.16" width="20.38" height="4.08"/><path class="cls-8" d="M146.5,125.07s17-9.21,19.56-40.36-6.88-49-18.29-53c8.51,0,15.57-6.84-.82-9.78,8.06-8.45,4.44-15.29-7.33-3,0-17.47-7.25-20.51-7.25-1.14-9-9.42-25.65-16.31-37.83-17.3-23.24-1.89-43.81.4-62,17.3-4.73,4.4-11.36,10.12-15,15.58C7.42,48.71.68,70.86,5.82,89.76a66.05,66.05,0,0,0,7.66,16.91c1.79,2.93,3.72,5.77,5.71,8.57.84,1.18,5.12,8.6,6.33,8.6C117.88,123.84,146.5,125.07,146.5,125.07Z"/><path class="cls-9" d="M157,99a136.65,136.65,0,0,0-.91-14.82c-2.17-12.91-10.69-17.47-10.69-17.47,4.17,4.37,6.16,13.3,6.16,18.61-10.14-2.47-25.49-17.62-28.43-31.34,2.08-7.22.9-9.68.9-9.68-9,27.06-42.56,37.61-55.05,37.61A60.8,60.8,0,0,0,88.73,56.79a63.24,63.24,0,0,1-7.25,9.12C69.71,80.73,44.17,89,37.29,87.18c20.2-11.39,22.28-28.87,22.28-28.87-6.89,15-27.89,29.06-42.56,34C14.29,87,17,69.9,17,69.9c-4.53,8-2.72,23.17-1.82,32.1a10.2,10.2,0,0,0-5-1.1c1,2,2.1,3.89,3.25,5.77,1.79,2.93,3.72,5.77,5.71,8.57.84,1.18,5.12,8.6,6.33,8.6,92.36,0,121,1.23,121,1.23s11.13-6,16.73-24.8C159.35,98.19,157,99,157,99Z"/><path class="cls-2" d="M17,94.59c0,42.7,29.34,73.32,67.55,73.32s69.18-34.61,69.18-77.31c0,0-24.63-8-32.69-34.28-7.78,14.15-31.69,32.95-55.87,27.54C50,91.27,38,93,34.21,89,26.6,93.26,17,94.59,17,94.59Z"/><path class="cls-2" d="M147.9,113.57s6.48-11.87,16.54-5.26,5.57,18.73,0,23.19S143.26,140,143,127.72C145.15,120.7,147.9,113.57,147.9,113.57Z"/><path class="cls-1" d="M164.44,108.31c-10.06-6.61-16.54,5.26-16.54,5.26s0,.09-.09.23,7.83-9.14,17-3.52-.07,20.91-5.29,22-13.6,3-16.53-4.52c.25,12.23,15.92,8.24,21.46,3.78S174.49,114.91,164.44,108.31Z"/><path class="cls-10" d="M151.7,119.4a11.86,11.86,0,0,1,2.73-4.37l.14-.13a6.92,6.92,0,0,1,4.24-1.91,5.68,5.68,0,0,1,1.89.15,1,1,0,0,1,.67,1.14.79.79,0,0,1-1,.64h-.06a4.47,4.47,0,0,0-1.23-.07,5.51,5.51,0,0,0-2.3.73,14.46,14.46,0,0,1,1.61,1.2A10.6,10.6,0,0,1,162,123.4c0,.19.05.39.06.6a.83.83,0,0,1-.74.92h-.06a1,1,0,0,1-.92-.93c0-.16,0-.31,0-.47a8.56,8.56,0,0,0-3-5.35,10.34,10.34,0,0,0-1.75-1.25l-.26-.14a11,11,0,0,0-2,3.43.78.78,0,0,1-.68.52.85.85,0,0,1-.44-.09A1,1,0,0,1,151.7,119.4Z"/><path class="cls-2" d="M22.52,113.57S16,101.7,6,108.31.41,127,6,131.5s21.2,8.45,21.45-3.78C25.27,120.7,22.52,113.57,22.52,113.57Z"/><path class="cls-1" d="M6,108.31c10.05-6.61,16.54,5.26,16.54,5.26s0,.09.09.23-7.84-9.14-17-3.52.07,20.91,5.29,22,13.6,3,16.52-4.52C27.15,140,11.49,136,6,131.5S-4.08,114.91,6,108.31Z"/><path class="cls-10" d="M18.72,119.4A12,12,0,0,0,16,115l-.15-.13A6.92,6.92,0,0,0,11.6,113a5.59,5.59,0,0,0-1.88.15,1,1,0,0,0-.67,1.14.78.78,0,0,0,1,.64h.06a4.52,4.52,0,0,1,1.24-.07,5.51,5.51,0,0,1,2.3.73,13.59,13.59,0,0,0-1.61,1.2,10.55,10.55,0,0,0-3.64,6.63,5.54,5.54,0,0,0-.06.6.82.82,0,0,0,.74.92h.06a1,1,0,0,0,.92-.93c0-.16,0-.31,0-.47a8.55,8.55,0,0,1,3-5.35,10.35,10.35,0,0,1,1.76-1.25,2.26,2.26,0,0,1,.26-.14,11.22,11.22,0,0,1,2,3.43.78.78,0,0,0,.68.52.85.85,0,0,0,.44-.09A1,1,0,0,0,18.72,119.4Z"/><path class="cls-11" d="M128.06,112.35a10.6,10.6,0,1,1,1-15.32A10.85,10.85,0,0,1,128.06,112.35Z"/><path class="cls-4" d="M128.5,101.33c-.92,1.63-3.88,1.77-6.61.33s-4.19-3.94-3.27-5.56,3.89-1.78,6.61-.33S129.42,99.71,128.5,101.33Z"/><path class="cls-11" d="M59.69,112.28A10.61,10.61,0,1,1,45.17,96.85a10.61,10.61,0,1,1,14.52,15.43Z"/><path class="cls-4" d="M60,101.25c-.91,1.64-3.87,1.81-6.61.4s-4.23-3.89-3.33-5.53,3.86-1.81,6.61-.4S60.91,99.61,60,101.25Z"/><path class="cls-11" d="M110.9,87.38a1.39,1.39,0,0,1-.56-1.95h0A19.91,19.91,0,0,1,113,82.09h0A13.17,13.17,0,0,1,120.38,78h0a17.15,17.15,0,0,1,2.12-.14h0a12.52,12.52,0,0,1,11.25,6.31h0a1.38,1.38,0,0,1-.64,1.92h0a1.56,1.56,0,0,1-2-.61h0a9.46,9.46,0,0,0-8.57-4.77h0a12.29,12.29,0,0,0-1.69.11h0a9.7,9.7,0,0,0-5,2.63h0a18.08,18.08,0,0,0-2.7,3.16h0l-.14.21h0a1.55,1.55,0,0,1-1.32.71h0a1.69,1.69,0,0,1-.75-.18Z"/><path class="cls-10" d="M84.84,125.51a15.52,15.52,0,0,1-11.78-7.05h0a1,1,0,0,1,.31-1.38h0a.93.93,0,0,1,1.31.33h0a2.35,2.35,0,0,0,.13.21h0c.1.15.26.37.47.64h0a14.56,14.56,0,0,0,1.91,2h0A13.06,13.06,0,0,0,85,123.52h0c3.51.22,5.64-.9,7-2.31h0a7.12,7.12,0,0,0,2-4.24h0a1,1,0,0,1,1-.93h0a1,1,0,0,1,.89,1.06h0a9.17,9.17,0,0,1-2.53,5.53h0a10.24,10.24,0,0,1-8.41,2.88h0Z"/><path class="cls-10" d="M53.92,139.94a.85.85,0,0,0,.5-1.1h0a8.63,8.63,0,0,1-.31-1h0a2.57,2.57,0,0,1,.19-2.14h0a2.28,2.28,0,0,1,1.39-.78h0a6.48,6.48,0,0,1,1.83-.13h0a7.77,7.77,0,0,1,.86.09h0a.86.86,0,0,0,1-.69h0a.86.86,0,0,0-.68-1h0a9.44,9.44,0,0,0-3.39,0h0a3.93,3.93,0,0,0-2.39,1.45h0a4.2,4.2,0,0,0-.48,3.52h0a9.06,9.06,0,0,0,.38,1.24h0a.86.86,0,0,0,1,.53h0l.11,0Z"/><path class="cls-10" d="M109.11,142.74h0a1,1,0,0,0,.54-1.32h0a1,1,0,0,0-1.31-.53h0s-.76.32-2.17.79h0a62,62,0,0,1-6,1.68h0C90.8,145.51,75,147,61.07,138.3h0a1,1,0,0,0-1.38.32h0A1,1,0,0,0,60,140h0c14.62,9.14,31,7.52,40.63,5.31h0a58.14,58.14,0,0,0,8.48-2.57Z"/></g></g></svg>