<svg xmlns="http://www.w3.org/2000/svg" viewBox="0 0 194.26 269.77"><defs><style>.cls-1{fill:#f4efed;}.cls-2{fill:#c65044;}.cls-3{fill:#e2dcd9;}.cls-4{fill:#686868;}.cls-5{fill:#5b5b5b;}.cls-6{fill:#393c3d;}.cls-7{fill:#f4bb3b;}.cls-8{fill:#ea9628;}.cls-9{fill:#7f5732;}.cls-10{fill:#f4d3b0;}.cls-11{fill:#f9dab4;}.cls-12{fill:#492020;}.cls-13{fill:#efc4a0;}.cls-14{fill:#3a332d;}.cls-15{fill:#e8dfd9;}</style></defs><title>资源 307</title><g id="图层_2" data-name="图层 2"><g id="Layer_1" data-name="Layer 1"><rect class="cls-1" x="71.45" y="170.85" width="51.36" height="98.79"/><rect class="cls-2" x="93.18" y="174.7" width="8.97" height="10.49" rx="2.03"/><polygon class="cls-2" points="94.95 184.18 85.08 248.7 97.99 258.04 110.46 248.33 100.17 184.18 94.95 184.18"/><polygon class="cls-3" points="73.31 172.21 75.92 193.92 97.68 179.95 119.73 193.92 121.01 172.11 73.31 172.21"/><path class="cls-4" d="M58.49,269.77l2.76-102.25S36.34,198.8,31.36,269.77Z"/><path class="cls-4" d="M133,167.52l2.76,102.25h27.12C157.92,198.8,133,167.52,133,167.52Z"/><path class="cls-5" d="M67.45,167.17l-6.2.35S50.54,208.39,48.06,269.77h98.13C143.72,208.39,133,167.52,133,167.52l-6.2-.35L97.13,222.1Z"/><polygon class="cls-6" points="97.13 222.1 119.21 217.19 115.42 206.08 129.19 201.16 124.48 171.47 97.13 222.1"/><polygon class="cls-6" points="97.13 222.1 75.05 217.19 78.84 206.08 65.07 201.16 69.77 171.47 97.13 222.1"/><path class="cls-6" d="M101.22,232.49a4.09,4.09,0,1,1-4.09-4.09A4.09,4.09,0,0,1,101.22,232.49Z"/><path class="cls-6" d="M101.22,247.7a4.09,4.09,0,1,1-4.09-4.09A4.09,4.09,0,0,1,101.22,247.7Z"/><path class="cls-6" d="M101.22,262.92a4.09,4.09,0,1,1-4.09-4.09A4.09,4.09,0,0,1,101.22,262.92Z"/><path class="cls-7" d="M183.87,89.82S182.4,19.94,109.26,13c-3.84-.36.75-13-12.13-13S88.84,12.6,85,13c-73.14,7-74.61,76.86-74.61,76.86s-11.6,3-10.29,8.6c4.26,18.24,97,15.9,97,15.9s92.77,2.34,97-15.9C195.47,92.81,183.87,89.82,183.87,89.82Z"/><path class="cls-8" d="M16.39,99.9s18.93,13.71,80.87,13.71,80.6-13.71,80.6-13.71S159.59,74.52,97.13,74.52,16.39,99.9,16.39,99.9Z"/><path class="cls-9" d="M25.94,118.76S8.16,17.94,97.13,17.94s71.52,100.82,71.52,100.82Z"/><path class="cls-10" d="M42.57,121S39.78,109.25,28,113.89c-13.93,5.49-4.85,37.83,14.56,37.22Z"/><path class="cls-10" d="M151.86,121s2.8-11.76,14.57-7.12c13.92,5.49,4.85,37.83-14.57,37.22Z"/><path class="cls-11" d="M157.58,131.81A44.54,44.54,0,0,1,119.22,176,163.41,163.41,0,0,1,75,176a44.54,44.54,0,0,1-38.36-44.15V64.55h120.9Z"/><polygon class="cls-9" points="70.92 94.14 70.92 101.36 45.8 101.83 45.8 94.14 70.92 94.14"/><polygon class="cls-9" points="123.34 94.14 123.34 101.36 148.46 101.83 148.46 94.14 123.34 94.14"/><path class="cls-12" d="M78.86,150.22s23.53,1.4,36.83-1.86l1.17,15.4s-11.08,7.1-36.47,2.24Z"/><path class="cls-2" d="M82.28,166.35c17.67,3.05,28.05.22,32.3-1.5a18.31,18.31,0,0,0-32.3,1.5Z"/><path class="cls-13" d="M97,129.92c-5.85-.15-7.53,5.37-7.53,5.37A13.13,13.13,0,0,1,97,132.6a12.17,12.17,0,0,1,7.52,2.69A8.13,8.13,0,0,0,97,129.92Z"/><path class="cls-14" d="M69.94,118a7.33,7.33,0,1,1-7.32-7.32A7.33,7.33,0,0,1,69.94,118Z"/><path class="cls-15" d="M63.83,112.87c.18.89-.92,1.86-2.45,2.17s-2.91-.16-3.09-1.05.92-1.85,2.45-2.16S63.65,112,63.83,112.87Z"/><circle class="cls-14" cx="132.46" cy="117.97" r="7.32" transform="translate(-23.5 33.47) rotate(-13.24)"/><path class="cls-15" d="M131.25,112.87c-.18.89.91,1.86,2.44,2.17s2.91-.16,3.09-1.05-.91-1.85-2.44-2.16S131.42,112,131.25,112.87Z"/><path class="cls-7" d="M177.86,99.9C173,10.58,97.18,16.18,97.13,16.18S21.28,10.58,16.39,99.9c0,0,23.71-17.56,80.74-17.57S177.86,99.9,177.86,99.9Z"/><path class="cls-8" d="M85,13c-1,.1-2,.21-3,.34-5,20-4.24,55.05-4.24,55.05-12.1,1.61-22.86,8-22.86,8C65.87,72.72,81.2,72,81.2,72c0-43.16,4.87-59.65,4.87-59.65h0A1.42,1.42,0,0,1,85,13Z"/><path class="cls-8" d="M113.06,72s15.33.74,26.36,4.4c0,0-10.76-6.42-22.86-8,0,0,.71-35-4.25-55-1-.13-2-.24-3-.34a1.47,1.47,0,0,1-1.07-.62C108.31,12.73,113.06,29.33,113.06,72Z"/></g></g></svg>