<svg xmlns="http://www.w3.org/2000/svg" viewBox="0 0 232.11 260.36"><defs><style>.cls-1{fill:#307d89;}.cls-2{fill:#458f9b;}.cls-3{fill:#54a3b5;}.cls-4{fill:#f9f5ed;}.cls-5{fill:#e2d9d3;}.cls-6{fill:#edefef;}.cls-7{fill:#909393;}.cls-8{fill:#616363;}.cls-9{fill:#8c8c8c;}.cls-10{fill:#f9dab4;}.cls-11{fill:#515151;}.cls-12{fill:#f7cea6;}.cls-13{fill:#e5be9e;}.cls-14{fill:#e2807d;}.cls-15{fill:#d15852;}.cls-16{fill:#414344;}.cls-17{fill:#8a8d8e;}.cls-18{fill:#eabf9b;}</style></defs><title>资源 201</title><g id="图层_2" data-name="图层 2"><g id="Layer_1" data-name="Layer 1"><path class="cls-1" d="M81.05,259.94a14,14,0,0,0-.39-2.95c-.1-.37-.8-3-1.15-3-20.61-2-44.59-2.15-44.59-2.15-.43,0-1,4-1,4.33a15.65,15.65,0,0,0-.09,4.23H81.08Q81.07,260.14,81.05,259.94Z"/><path class="cls-2" d="M73.74,158.92s-40.58,41.69-40.3,96c0,0,18.91,7.79,47.79,2.43-5.09-32.23-15-66.43,9.5-88Z"/><path class="cls-3" d="M57.12,254.81c-1.9-.3-3.79-.64-5.65-.9-6.5-.91-13-4.21-12.87-11.71.22-13.23,7.11-49.85,27.46-69.31a7.07,7.07,0,0,1,11.5,7.56c-2.38,7.9-6.56,26.43-3.69,38.26s4.57,33.53-1.86,35.76C67.17,256.14,62.11,255.6,57.12,254.81Z"/><path class="cls-4" d="M80.55,165s31.32-25.93,56,0v76.38H81Z"/><polygon class="cls-5" points="102.2 169.86 91.93 179.44 89.71 175.96 102.7 167.08 103.7 168.88 102.2 169.86"/><polygon class="cls-5" points="117.01 169.86 127.28 179.44 129.5 175.96 116.5 167.08 115.51 168.88 117.01 169.86"/><path class="cls-4" d="M90.41,177.51l19.25-14.87-29-3.68Zm19.25-14.87,18,14.87L134.28,159Z"/><polygon class="cls-6" points="114.62 168.77 104.92 168.77 104.75 169.83 95.74 224.03 110.8 247.95 126.72 223.44 114.62 168.77"/><polygon class="cls-7" points="105.95 170.06 113.65 170.06 125.41 223.18 110.81 245.66 97.03 223.75 105.95 170.06"/><polygon class="cls-8" points="125.41 223.18 113.65 170.06 110.34 170.06 110.34 244.91 110.81 245.66 125.41 223.18"/><path class="cls-4" d="M115.55,178.63a31.75,31.75,0,0,1-2.7,3.07,33.12,33.12,0,0,1-10,6.88l-1.29,7.77a39.79,39.79,0,0,0,15.74-9.71Z"/><path class="cls-4" d="M121.41,205.12l-1.83-8.29a32.93,32.93,0,0,1-4.83,5.55,37.5,37.5,0,0,1-15.59,8.5L98,218.2a44.4,44.4,0,0,0,21.54-11.12C120.19,206.41,120.83,205.76,121.41,205.12Z"/><path class="cls-4" d="M123.92,216.46c-2.74,3.45-9.62,10.39-22.79,13.82l3.78,6a51.49,51.49,0,0,0,18.24-9.62l2.26-3.49Z"/><path class="cls-9" d="M103.36,163.65h13.31c.51,0,.22,7.12.06,7.84-.86,3.8-4.74,3.72-7.55,3.68-2,0-4.43-.22-5.59-2.22C102.11,170.39,103.22,166.43,103.36,163.65Z"/><path class="cls-3" d="M112.18,191.35C82.45,173.8,79.94,156.6,79.94,156.6H75.28L58.91,260.36H158a151.19,151.19,0,0,0-3.21-19.93c-5.73-22.93-13.25-78.1-13.25-78.1h-6.09C130.45,175.59,112.18,191.35,112.18,191.35Z"/><path class="cls-2" d="M118.18,216.56c0,2.75-1.82,5-4.06,5s-4.07-2.22-4.07-5,1.82-5,4.07-5S118.18,213.82,118.18,216.56Z"/><path class="cls-2" d="M120.2,240.61c0,2.74-1.82,5-4.07,5s-4.06-2.23-4.06-5,1.82-5,4.06-5S120.2,237.86,120.2,240.61Z"/><path class="cls-2" d="M73.58,202.32v-5.64s8.06-3.09,19.21.8l-1.48,6.45A23.23,23.23,0,0,0,73.58,202.32Z"/><path class="cls-2" d="M158,260.36a151.19,151.19,0,0,0-3.21-19.93c-5.73-22.93-13.25-78.1-13.25-78.1h-6.09c-5,13.26-23.29,29-23.29,29C82.45,173.8,79.94,156.6,79.94,156.6H75.28L58.91,260.36H67c-.52-.45-1-.86-1.32-1.21-4.12-4.12.09-35.74,1.7-42.37s6.65-41.26,7.46-46.16,6.45-2.36,8.73-1c1,1,8.29,8.84,12.09,12.63S109,192.45,109,192.45s-4,4-5.81,5.34-.84,5.38-.84,5.38c1.08,5.55,3.22,34.75,3.22,45,0,2.92.08,7.37.18,12.23h2.9c-.13-4.89-.31-9.43-.57-12.59-.89-11.1-2.68-38-4.12-47.47,3.5-3.49,22.21-18.62,26.87-25.07s5.37-5.38,8.06-5.38,2.69,9,2.69,9,.18,18.27,3,29.38c.72,2.75,1.51,5.25,2.31,7.44,6.57,20.2,6.72,35.54-1.22,44.73Z"/><ellipse class="cls-10" cx="107.1" cy="84.03" rx="82.11" ry="84.03"/><path class="cls-11" d="M52.79,109.3c-.49-2.17-1-4.33-1.48-6.47a67.27,67.27,0,0,1-2.06-17.41,35,35,0,0,1,1.83-10.73c5.12-14.32,11-23.79,11-30.44S56.71,32,46.73,28.14,28.06,26.35,21.28,41.31,7.34,83.39,14.5,99.25c16.63,0,24.3,17.4,27.88,26.35,1.7,4.25,5.74,8.33,9.31,11,2.35,1.77,7.92,5.45,7.86,0,0-4.45-2.27-8.74-3.4-13C54.89,118.9,53.85,114.1,52.79,109.3Z"/><path class="cls-10" d="M36,108.53S23.44,89.1,8.12,100.92s-6,31.85,3.76,38.92,36,12.62,34.37-7.93C41.62,120.29,36,108.53,36,108.53Z"/><path class="cls-12" d="M8.12,100.92C23.44,89.1,36,108.53,36,108.53l.18.39S21.87,94.15,7.81,104.25,11.37,139.34,20,140.72s22.68,4,26.21-8.81c1.61,20.55-24.6,15-34.37,7.93S-7.2,112.74,8.12,100.92Z"/><path class="cls-13" d="M30.73,118.59a21.56,21.56,0,0,0-5.18-7.12,1.64,1.64,0,0,0-.25-.21,11.73,11.73,0,0,0-7.23-2.9,8.72,8.72,0,0,0-3.05.4,1.6,1.6,0,0,0-.91,2,1.37,1.37,0,0,0,1.77,1l.09,0a6.57,6.57,0,0,1,2-.22,8.87,8.87,0,0,1,3.86,1.07,20.08,20.08,0,0,0-2.42,2.12,17,17,0,0,0-4.85,11.39c0,.32,0,.66,0,1a1.47,1.47,0,0,0,1.36,1.49H16a1.5,1.5,0,0,0,1.35-1.62c0-.26,0-.53,0-.8a13.64,13.64,0,0,1,4-9.19A16.86,16.86,0,0,1,24,114.71l.39-.25a20,20,0,0,1,3.86,5.62,1.4,1.4,0,0,0,1.2.82,1.43,1.43,0,0,0,.71-.19A1.67,1.67,0,0,0,30.73,118.59Z"/><path class="cls-11" d="M163.68,109.3c.49-2.17,1-4.33,1.48-6.47a67.27,67.27,0,0,0,2.06-17.41,35,35,0,0,0-1.83-10.73c-5.12-14.32-11-23.79-11-30.44S159.76,32,169.74,28.14s18.67-1.79,25.45,13.17S209.13,83.39,202,99.25c-16.63,0-24.3,17.4-27.88,26.35-1.7,4.25-5.74,8.33-9.31,11-2.35,1.77-7.92,5.45-7.86,0,.05-4.45,2.27-8.74,3.4-13C161.58,118.9,162.62,114.1,163.68,109.3Z"/><path class="cls-10" d="M180.51,108.53S193,89.1,208.35,100.92s6,31.85-3.76,38.92-36,12.62-34.37-7.93C174.85,120.29,180.51,108.53,180.51,108.53Z"/><path class="cls-12" d="M208.35,100.92c-15.32-11.82-27.84,7.61-27.84,7.61l-.19.39s14.28-14.77,28.34-4.67-3.55,35.09-12.23,36.47-22.68,4-26.21-8.81c-1.61,20.55,24.6,15,34.37,7.93S223.67,112.74,208.35,100.92Z"/><path class="cls-13" d="M185.74,118.59a21.56,21.56,0,0,1,5.18-7.12,1.33,1.33,0,0,1,.26-.21,11.69,11.69,0,0,1,7.23-2.9,8.69,8.69,0,0,1,3,.4,1.6,1.6,0,0,1,.91,2,1.37,1.37,0,0,1-1.77,1l-.09,0a6.57,6.57,0,0,0-2-.22,8.87,8.87,0,0,0-3.86,1.07,20.08,20.08,0,0,1,2.42,2.12,17,17,0,0,1,4.85,11.39c0,.32,0,.66,0,1a1.47,1.47,0,0,1-1.36,1.49h-.1a1.5,1.5,0,0,1-1.35-1.62c0-.26,0-.53,0-.8a13.64,13.64,0,0,0-4-9.19,16.86,16.86,0,0,0-2.66-2.24l-.39-.25a20.18,20.18,0,0,0-3.86,5.62,1.4,1.4,0,0,1-1.2.82,1.43,1.43,0,0,1-.71-.19A1.67,1.67,0,0,1,185.74,118.59Z"/><path class="cls-4" d="M103.65,4.22A68.23,68.23,0,0,0,69,13.45a53.38,53.38,0,0,0-12.13,9.32,1.53,1.53,0,0,0,2.29,2h0l0,0a52.47,52.47,0,0,1,12.15-9.13,65.17,65.17,0,0,1,32.33-8.35,1.54,1.54,0,0,0,0-3.07Zm7.48-.48c-1.73,0-3.13.87-3.13,2s1.4,1.95,3.13,1.95,3.14-.87,3.14-1.95S112.86,3.74,111.13,3.74Z"/><path class="cls-13" d="M98.71,117.32a1.15,1.15,0,0,1-.59-1.52h0a11.47,11.47,0,0,1,2.43-3.31h0a11.72,11.72,0,0,1,8.34-3.26h0a11.11,11.11,0,0,1,8.11,3.15h0a9.4,9.4,0,0,1,2.18,3.23h0a1.15,1.15,0,0,1-.69,1.48h0a1.15,1.15,0,0,1-1.47-.69h0v0h0a1.14,1.14,0,0,0-.06-.14h0a5.89,5.89,0,0,0-.28-.54h0a7.74,7.74,0,0,0-1.3-1.69h0a8.77,8.77,0,0,0-6.48-2.48h0a9.44,9.44,0,0,0-6.48,2.38h0a9.5,9.5,0,0,0-2.17,2.78h0v0h0a1.14,1.14,0,0,1-1.06.69h0a1.25,1.25,0,0,1-.46-.09Z"/><path class="cls-14" d="M71.29,118.44s33.25,20.72,74.69,0c-7.16,21-17.9,41.95-37.34,41.44S73.9,141.82,71.29,118.44Z"/><path class="cls-15" d="M108.45,143.25c-7.92,0-14.62,4.74-16.89,11.29a33,33,0,0,0,17.08,5.34,24.92,24.92,0,0,0,16.55-5.72C122.8,147.81,116.21,143.25,108.45,143.25Z"/><path class="cls-4" d="M71.4,119.37s3.34,9.17,6.16,13.65,3.32.77,9.78-6.72c4.16,5.82,7.29,11,9.27,13s5.21-3.45,8.94-10.17c4,8.12,9.87,14.64,11.66,10.17s6.48-13.16,6.48-13.16c3.49,7.78,7.08,19.93,13,7.53,3.84-7.68,7.23-14.21,7.23-14.21S113.21,138.2,71.4,119.37Z"/><path class="cls-13" d="M109.33,160.85h-.72c-10-.27-19-4.93-25.68-12.47h0c-6.73-7.54-11.27-18-12.59-29.83h0l1-.1-1,.1a1,1,0,0,1,.44-.91h0a1,1,0,0,1,1,0h0s.2.13.64.38h0c.43.24,1.08.59,1.93,1h0a67.71,67.71,0,0,0,7.4,3.12h0a79.21,79.21,0,0,0,26.43,4.55h0a82.8,82.8,0,0,0,37.36-9.11h0a1,1,0,0,1,1.06.14h0a1,1,0,0,1,.27,1h0c-3.55,10.41-8,20.85-14,28.76h0c-6,7.91-13.67,13.34-23.54,13.34h0Zm-25-13.75c6.43,7.2,14.86,11.57,24.29,11.82h.67c9.13,0,16.22-4.94,22-12.58h0c5.39-7.08,9.56-16.47,12.95-26h0a84.29,84.29,0,0,1-36.12,8.3h0a78.72,78.72,0,0,1-35.72-8.41h0c1.53,10.73,5.8,20.09,11.89,26.9Z"/><path class="cls-16" d="M92.27,71.11S98.92,57.81,93.55,55s-23.8-1.28-32.75,3.07C60.8,58.07,80,62.42,92.27,71.11Z"/><path class="cls-16" d="M124.93,71.11s-6.65-13.3-1.28-16.11,23.79-1.28,32.75,3.07C156.4,58.07,137.21,62.42,124.93,71.11Z"/><path class="cls-16" d="M127.61,87.37c.82-2.12,4-3.21,6-4.39,3.69-2.21,7.52-4.18,11.22-6.37,1.45-.85,2.92-1.68,4.35-2.55s3.46-1.41,4.67-.24c1.85,1.76,1.33,5.6,1.09,7.83-.49,4.56-1.18,9.91-5.34,12.64a16.75,16.75,0,0,1-11.83,2.32,16.18,16.18,0,0,1-6.29-2.74,11.06,11.06,0,0,1-3.57-3.6A3.55,3.55,0,0,1,127.61,87.37Z"/><path class="cls-17" d="M152.17,75c1,.53,1.05,2.65,1.16,3.58a25.79,25.79,0,0,1,0,5,29.33,29.33,0,0,1-.34,3,17.13,17.13,0,0,1-.75,3.29c0-4.67.34-8.36-1.51-12.38-.37-.82-.63-1.89.36-2.41a1.08,1.08,0,0,1,1-.07Z"/><path class="cls-16" d="M91.78,87.37c-.82-2.12-4-3.21-6-4.39-3.7-2.21-7.53-4.18-11.23-6.37-1.45-.85-2.91-1.68-4.35-2.55-1.28-.79-3.45-1.41-4.67-.24-1.85,1.76-1.32,5.6-1.09,7.83.49,4.56,1.18,9.91,5.34,12.64a16.75,16.75,0,0,0,11.83,2.32A16.29,16.29,0,0,0,88,93.87a11.13,11.13,0,0,0,3.56-3.6A3.55,3.55,0,0,0,91.78,87.37Z"/><path class="cls-17" d="M67.22,75c-1,.53-1,2.65-1.16,3.58a27.5,27.5,0,0,0,0,5,29.33,29.33,0,0,0,.34,3,17.13,17.13,0,0,0,.75,3.29c0-4.67-.34-8.36,1.51-12.38.37-.82.63-1.89-.36-2.41a1.07,1.07,0,0,0-1-.07Z"/><path class="cls-1" d="M150.73,176.15c-3.41-1-7.2,4.57-7.2,7.48a133.59,133.59,0,0,0,.79,18c.64,4.72,1.59,10.54,5.12,14.07,3,3,10.44,2.69,10.44.33s-5.07-5-7.22-13.41a79.21,79.21,0,0,1-2.2-14.53,60.56,60.56,0,0,1-.08-7A41.18,41.18,0,0,0,150.73,176.15Z"/><path class="cls-3" d="M156.9,215.17a2.27,2.27,0,1,1-2.27-2.27A2.27,2.27,0,0,1,156.9,215.17Z"/><path class="cls-10" d="M203.35,161.61s8.33-12.36,18.27-6.18,11.56,26.07,9.95,33-9.4,17.47-27.95,9.94S203.35,161.61,203.35,161.61Z"/><path class="cls-18" d="M231.57,188.48a19.88,19.88,0,0,0,.36-2.33c-6,12.56-13.35,4-13.35-5.55s-6.51-15.67-3.76-21.31,10.12-.91,10.25-.82a14.81,14.81,0,0,0-3.45-3c-9.94-6.18-18.27,6.18-18.27,6.18s-5.7,9.15-7.5,18.54l.93,12.2a12.45,12.45,0,0,0,6.84,6.07C222.17,206,230,195.47,231.57,188.48Z"/><path class="cls-10" d="M181.32,159.73s18.14-9.8,26.6-1.34,8.36,28.2-.92,37.48-29.17,4.7-29.17-7.39S181.32,159.73,181.32,159.73Z"/><path class="cls-18" d="M213.05,167.85Zm-5.13-9.46c-3.87-3.87-9.77-3.92-15-2.83l-.09,0-.54.12-.16,0-.45.1-.24.06L191,156l-.29.08-.3.08-.35.1-.23.07-.4.12-.17.05-.44.14-.08,0a49.12,49.12,0,0,0-7.46,3.08s-3.49,16.66-3.49,28.75,19.89,16.67,29.17,7.39l.09-.1c-1-2.15-3.48-6.21-7.23-6.21-5.1,0-9.13-1.35-10.48-11.56a26.87,26.87,0,0,1,.34-8.2c.7-3.92.92-6.94,4.69-9.11s8.36-4,11.84-.47c6.18,6.17,6.76,7.52,6.8,7.63l-1-2.92A19.31,19.31,0,0,0,207.92,158.39Z"/><path class="cls-10" d="M186.25,158.91a57.61,57.61,0,0,0-2.89-24.65c-1.32-3.65-3.55-7.27-6.87-9.45-11.83-7.8-14.78,1.07-15.32,17.19a89.42,89.42,0,0,1-6.45,29.56s-7.52,6.44-5.91,14.5.81,31.71,18.27,31.71,26.6,3.22,33,5.1,16.66-4,16.66-13.16-1.35-16.12-30.9-17.47c-6.24,0-4.72-7.88-3.69-11.73A122.31,122.31,0,0,0,186.25,158.91Z"/><path class="cls-18" d="M164,173.08s6.27,6.81,14,2.15c3-2.15,2.1-3.92-2.15-2.15C170,175.5,161.44,169.14,164,173.08Z"/><path class="cls-18" d="M199.45,208.1c-17.59,3.49-28.73,8.7-37.74,3.76s-12.41-24-12.41-32.26h0a12.41,12.41,0,0,0-.49,6.46c1.61,8.06.81,31.71,18.27,31.71s26.6,3.22,33,5.1c3.34,1,7.68-.14,11.09-2.71l2.44-2.27S217,204.6,199.45,208.1Z"/><path class="cls-18" d="M166.46,148.72c7.77,19.7,20,3.22,20,3.22h0a54.08,54.08,0,0,0-3.12-17.68c-1.32-3.65-3.55-7.27-6.87-9.45-11.83-7.8-14.78,1.07-15.32,17.19a89.42,89.42,0,0,1-6.45,29.56,21.11,21.11,0,0,0-3.5,4.14C158.37,175.18,164,160.18,166.46,148.72Z"/><path class="cls-18" d="M184.41,192.07s-8.82.17-13.12,2.14-.54-3.76,3.58-3.76,6.52-5.92,6.52-5.92S184.41,190.42,184.41,192.07Z"/></g></g></svg>