<svg xmlns="http://www.w3.org/2000/svg" viewBox="0 0 206.88 259.98"><defs><style>.cls-1{fill:#f9dab4;}.cls-2{fill:#393c3d;}.cls-3{fill:#515151;}.cls-4{fill:#efc4a0;}.cls-5{fill:#f9f5ed;}</style></defs><title>资源 325</title><g id="图层_2" data-name="图层 2"><g id="Layer_1" data-name="Layer 1"><polygon class="cls-1" points="141.54 204.18 126.75 206.05 129.01 259.98 144.31 259.98 141.54 204.18"/><path class="cls-2" d="M124.44,170.81s22.35,15.59,23.26,44l-29.41,4.72Z"/><polygon class="cls-1" points="22.89 204.18 37.67 206.05 35.42 259.98 20.12 259.98 22.89 204.18"/><path class="cls-2" d="M40,170.81s-22.35,15.59-23.26,44l29.4,4.72Z"/><path class="cls-3" d="M82.2,158.51S52,157.83,40,170.81V260h84.47V170.81C112.37,157.83,82.2,158.51,82.2,158.51Z"/><path class="cls-3" d="M147.93,29.28S171.74,58,177.53,94.34s4.58,57.36,7.33,58.88,10.67-6.41,13.42-4.27,11,34.17,7.93,38.14-11-18.61-14.34-18.92c0,0-29.9,17.09-43.32,14s-16.48-31.12-16.48-31.12Z"/><path class="cls-3" d="M82.2,0C-3.62,0-15.51,90.18,15.75,136.89c9.7,14.49,21.87,21.23,32.66,25.5,11.26,4.46,33.79,4.32,33.79,4.32s22.54.14,33.79-4.32c10.8-4.27,23-11,32.67-25.5C179.92,90.18,168,0,82.2,0Z"/><path class="cls-1" d="M120.08,47.64C98,40.37,82.2,73.7,82.2,73.7S66.45,40.37,44.32,47.64C34.2,51,22.51,101.58,27.05,123.7S82.2,164.91,82.2,164.91s50.61-19.09,55.15-41.21S130.21,51,120.08,47.64Z"/><path class="cls-4" d="M73.67,114.55s2.51-6.73,8.51-6.73,8.94,6.73,8.94,6.73a13,13,0,0,0-17.45,0Z"/><path class="cls-5" d="M75.35,135.06s6.37,10.24,8.1,9.81S87,134.32,87,134.32s9.82,8.37,11.41,7.65,2.44-9.93,2.44-9.93S80.57,135.67,75.35,135.06Z"/><path class="cls-5" d="M87.47,150.5s.25-8.08,1.24-8.42S95.2,147,95.2,147Z"/><path class="cls-4" d="M82.38,152.65l-.4-2.54a45.82,45.82,0,0,0,25.51-13.21,50,50,0,0,0,6-7.34c-15,5.7-31.18,6.88-42.47,6.82a145.91,145.91,0,0,1-22.87-1.83l.47-2.53c.37.07,37.62,6.72,67.45-6.29l3.22-1.4-1.55,3.15a47.84,47.84,0,0,1-8.38,11.16A48.44,48.44,0,0,1,82.38,152.65Z"/><rect class="cls-4" x="32.08" y="73.83" width="2.57" height="26.32"/><rect class="cls-4" x="38.51" y="55.97" width="2.57" height="44.17"/><rect class="cls-4" x="44.93" y="48.77" width="2.57" height="51.38"/><rect class="cls-4" x="51.36" y="48.77" width="2.57" height="51.38"/><rect class="cls-4" x="57.79" y="50.28" width="2.57" height="49.86"/><rect class="cls-4" x="64.21" y="54.27" width="2.57" height="45.88"/><rect class="cls-4" x="70.64" y="61.47" width="2.57" height="38.68"/><rect class="cls-4" x="77.06" y="70.38" width="2.57" height="29.77"/><rect class="cls-4" x="129.75" y="73.83" width="2.57" height="26.32"/><rect class="cls-4" x="123.32" y="55.97" width="2.57" height="44.17"/><rect class="cls-4" x="116.9" y="48.77" width="2.57" height="51.38"/><rect class="cls-4" x="110.47" y="48.77" width="2.57" height="51.38"/><rect class="cls-4" x="104.05" y="50.28" width="2.57" height="49.86"/><rect class="cls-4" x="97.62" y="54.27" width="2.57" height="45.88"/><rect class="cls-4" x="91.2" y="61.47" width="2.57" height="38.68"/><rect class="cls-4" x="84.77" y="70.38" width="2.57" height="29.77"/></g></g></svg>