<svg xmlns="http://www.w3.org/2000/svg" viewBox="0 0 167 260"><defs><style>.cls-1{fill:#4c3626;}.cls-2{fill:#f9f5ed;}.cls-3{fill:#54a3b5;}.cls-4{fill:#4493a0;}.cls-5{fill:#f4d3b0;}.cls-6{fill:#f9dab4;}.cls-7{fill:#3a332d;}.cls-8{fill:#c65044;}.cls-9{fill:#efc4a0;}</style></defs><title>资源 82</title><g id="图层_2" data-name="图层 2"><g id="Layer_1" data-name="Layer 1"><path class="cls-1" d="M165.44,65.17C159.62,29,128.79,0,83.44,0S7.26,29,1.43,65.17c-7.78,48.36,18.58,94.37,21.38,132,2.84,38.3-.07,56.71-1.77,62.8H150.11c-1.7-6.09-6.36-27-3.52-65.32C149.38,157,173.23,113.53,165.44,65.17Z"/><rect class="cls-2" x="56" y="155.35" width="57.84" height="55.81"/><path class="cls-3" d="M56.52,157.45c-29,38.14-35.11,86.13-36.1,102.55h133c-1.57-16.23-8.81-62.31-41.56-104.65-3.59,15.51-12.13,32.16-27.51,48.09-10.78-10.54-18.57-23.63-24.85-39Z"/><path class="cls-4" d="M38.55,260c.77-15.5,2.57-42.25,6.66-70,0,0-9.77,36.65-12.84,70Z"/><path class="cls-4" d="M123.05,187.3c4.74,18.95,9.56,55.62,11.67,72.7h5.6A395.16,395.16,0,0,0,123.05,187.3Z"/><path class="cls-4" d="M109,198.27c2.32-4-3.5-10.22-3.5-10.22s9.62,1.72,12.38-4.55-8.12-20.7-8.12-20.7h0c-4.38,13.31-12.48,27.23-25.42,40.63C84.33,203.44,106.68,202.23,109,198.27Z"/><path class="cls-4" d="M59.49,164.45h0S48,177.23,50.79,183.5s12.39,4.55,12.39,4.55-5.82,6.27-3.51,10.22,24.66,5.17,24.66,5.17C73.66,193,65.73,179.62,59.49,164.45Z"/><path class="cls-5" d="M22.33,104.71s-8.51-6.16-15.43,0c-6.66,5.93-2.21,36.69,25.36,33.38Z"/><path class="cls-5" d="M144.54,104.71s8.52-6.16,15.44,0c6.66,5.93,2.2,36.69-25.36,33.38Z"/><circle class="cls-6" cx="83.44" cy="99.61" r="67.18" transform="translate(-45.99 88.17) rotate(-45)"/><path class="cls-1" d="M12,99.56s74.88-8.94,100-46.29c0,0,18.94,43.18,41.91,46.34V49.06L83.44,15.57,12,55.55Z"/><path class="cls-7" d="M48.43,108.71a1.27,1.27,0,0,1-1.27-1.26c0-3.36,1.69-9.79,8.23-10s9.29,5,9.94,7.86a1.28,1.28,0,0,1-1,1.52,1.26,1.26,0,0,1-1.51-.95c-.06-.25-1.52-6.09-7.39-5.9-5.71.19-5.77,7.18-5.77,7.47a1.27,1.27,0,0,1-1.27,1.27Z"/><path class="cls-7" d="M47,108.81a19,19,0,0,1-6.21-1.13,1.27,1.27,0,1,1,.83-2.39,14.59,14.59,0,0,0,6.55.91,1.27,1.27,0,0,1,.46,2.49A9.08,9.08,0,0,1,47,108.81Z"/><path class="cls-7" d="M118.45,108.71h0a1.26,1.26,0,0,1-1.26-1.27c0-.29-.07-7.28-5.78-7.47-5.88-.2-7.32,5.65-7.38,5.9a1.27,1.27,0,0,1-2.47-.57c.64-2.81,3.54-8.08,9.94-7.86s8.24,6.65,8.22,10A1.26,1.26,0,0,1,118.45,108.71Z"/><path class="cls-7" d="M119.84,108.81a9.34,9.34,0,0,1-1.63-.12,1.27,1.27,0,0,1,.46-2.49,14.6,14.6,0,0,0,6.56-.91,1.27,1.27,0,1,1,.83,2.39A19,19,0,0,1,119.84,108.81Z"/><path class="cls-8" d="M72.23,139.88s2.91-4.38,6.27-4.17,5.19,3.42,5.19,3.42,3-3.35,6.55-3.28,5.07,4.37,5.07,4.37-3.51,8.19-11.88,8.19S72.23,139.88,72.23,139.88Z"/><path class="cls-9" d="M78,123.26s.58-5.17,5.56-5.19,6,5.19,6,5.19-2.72-3.19-5.91-3.19S78,123.26,78,123.26Z"/></g></g></svg>