<svg xmlns="http://www.w3.org/2000/svg" viewBox="0 0 168.04 260.02"><defs><style>.cls-1{fill:#b5b2b1;}.cls-2{fill:#515151;}.cls-3{fill:#c6c2c1;}.cls-4{fill:#afafaf;}.cls-5{fill:#f9dab4;}.cls-6{fill:#efc4a0;}.cls-7{fill:#c65044;}.cls-8{fill:#f4d3b0;}.cls-9{fill:#3a332d;}.cls-10{fill:#e8dfd9;}</style></defs><title>资源 280</title><g id="图层_2" data-name="图层 2"><g id="Layer_1" data-name="Layer 1"><path class="cls-1" d="M23.84,259.64H51.06l6.59-71.71L37.36,185S26.86,231.47,23.84,259.64Z"/><path class="cls-2" d="M59.32,161s-21.38,1.43-28.09,29.52L57.08,197Z"/><path class="cls-1" d="M147.25,259.64H120l-6.59-71.71L133.73,185S144.23,231.47,147.25,259.64Z"/><path class="cls-2" d="M111.77,161s21.38,1.43,28.09,29.52L114,197Z"/><path class="cls-3" d="M85.36,160.8l-26.95-1.58c-6.67,12.48-11.23,77.17-12.67,100.42H125c-1.44-23.25-6-87.94-12.67-100.42Z"/><path class="cls-4" d="M85.25,180l0,.5c0,.32.06.79.09,1.39s.08,1.33.12,2.17.08,1.78.12,2.81.08,2.15.11,3.33.07,2.42.08,3.71,0,2.61.06,4l0,4.09,0,4.1c0,1.35,0,2.68,0,4s-.06,2.53-.09,3.71c0,.59,0,1.17,0,1.72s0,1.09-.06,1.61c0,1-.08,2-.12,2.81s-.08,1.57-.12,2.17-.07,1.07-.09,1.39l0,.49,0-.49c0-.32-.06-.79-.09-1.39s-.08-1.33-.12-2.17-.08-1.78-.12-2.81c0-.52,0-1.05-.06-1.61s0-1.13,0-1.72c0-1.18-.07-2.42-.09-3.71s0-2.62-.05-4l0-4.1c0-1.37,0-2.74,0-4.09s0-2.69.06-4,0-2.53.09-3.71.06-2.3.1-3.33.08-2,.13-2.81.08-1.57.11-2.17.07-1.07.09-1.39Z"/><path class="cls-4" d="M107.35,189.46l-.17.1-.5.29c-.43.24-1.06.57-1.81.94s-1.65.78-2.61,1.2l-1.49.62-1.55.61-1.57.57-1.53.52c-1,.33-1.93.61-2.74.83l-1.11.29-.87.2-.56.12-.2,0,.17-.11c.12-.06.28-.17.5-.28l.78-.43,1-.52c.75-.37,1.64-.78,2.61-1.19.48-.21,1-.42,1.49-.62l1.55-.61,1.56-.57c.52-.19,1-.36,1.53-.52,1-.33,1.94-.61,2.75-.83s1.49-.39,2-.5l.56-.11Z"/><path class="cls-4" d="M63.37,189.46l.2,0,.56.11c.48.11,1.17.27,2,.5s1.75.5,2.74.83c.5.16,1,.33,1.53.52L72,192l1.55.61c.51.2,1,.41,1.49.62,1,.41,1.85.82,2.61,1.19l1,.52.78.43.5.28.17.11-.2,0-.56-.12-.87-.2-1.11-.29c-.81-.22-1.75-.5-2.75-.83l-1.52-.52-1.57-.57L70,192.61,68.46,192c-1-.42-1.86-.83-2.61-1.2s-1.38-.7-1.81-.94l-.5-.29Z"/><path class="cls-4" d="M107.35,228.68l-.2,0-.56-.12c-.49-.1-1.17-.26-2-.47s-1.75-.5-2.75-.82l-1.53-.51c-.52-.17-1-.37-1.57-.56l-1.56-.59c-.51-.2-1-.41-1.49-.62-1-.4-1.86-.81-2.62-1.17l-1-.52-.78-.41-.5-.28-.18-.11.2,0,.57.11c.24,0,.53.11.86.2s.71.17,1.12.28c.81.21,1.75.49,2.75.81l1.53.51,1.57.56,1.56.6,1.49.61c1,.41,1.86.81,2.62,1.18s1.38.69,1.81.93c.22.11.39.22.5.28Z"/><path class="cls-4" d="M63.37,229l.17-.1.5-.29c.43-.24,1-.58,1.8-1s1.64-.8,2.6-1.22l1.49-.63,1.54-.62c.53-.2,1-.4,1.57-.58s1-.37,1.52-.53c1-.34,1.93-.62,2.74-.85l1.11-.3c.33-.09.63-.15.87-.21l.56-.12.2,0-.18.11-.49.29-.78.43-1,.52c-.76.38-1.64.8-2.6,1.22l-1.49.63-1.55.62-1.56.58-1.53.53c-1,.33-1.93.62-2.74.85s-1.49.4-2,.5l-.56.13Z"/><path class="cls-5" d="M85.45,233.66h-.36a17.67,17.67,0,0,0-17.67,17.67v8.31h35.69v-8.31A17.67,17.67,0,0,0,85.45,233.66Z"/><path class="cls-6" d="M85.24,236.79l.05.26c0,.17.07.42.11.74.1.63.21,1.54.32,2.63s.19,2.36.25,3.72c0,.68.06,1.39.07,2.1s0,1.44,0,2.17,0,1.45,0,2.16,0,1.42-.07,2.1c-.06,1.36-.15,2.63-.25,3.72,0,.55-.11,1.05-.16,1.49s-.11.83-.16,1.14-.09.57-.11.74l-.05.26,0-.26c0-.17-.07-.42-.11-.74s-.11-.7-.16-1.14-.11-.94-.16-1.49c-.1-1.09-.19-2.36-.25-3.72,0-.68-.06-1.38-.07-2.1s0-1.44,0-2.16,0-1.46,0-2.17,0-1.42.07-2.1c.06-1.36.15-2.63.25-3.72s.22-2,.32-2.63c0-.32.09-.57.11-.74Z"/><path class="cls-6" d="M101.12,248.17s-.18.1-.51.24a13.75,13.75,0,0,1-1.36.51,19,19,0,0,1-2,.54l-1.11.23-1.15.19-1.16.15-1.13.09c-.74,0-1.43,0-2,0s-1.09-.06-1.45-.1l-.55-.09s.18-.1.51-.24a13.75,13.75,0,0,1,1.36-.51,19,19,0,0,1,2-.54l1.11-.23,1.15-.19c.39-.05.78-.11,1.16-.14l1.13-.1c.74,0,1.43,0,2,0s1.09.06,1.45.1Z"/><path class="cls-6" d="M69,247.88l.61-.08c.39,0,1-.07,1.6-.07s1.42,0,2.23.08l1.25.12,1.28.17,1.27.22,1.23.26c.79.18,1.53.38,2.15.58s1.15.4,1.51.55.56.25.56.25-.22,0-.61.08-.94.06-1.6.07-1.42,0-2.23-.08c-.41,0-.83-.07-1.25-.13s-.85-.1-1.28-.17-.85-.13-1.27-.22-.83-.16-1.23-.25c-.79-.18-1.52-.39-2.15-.59s-1.14-.39-1.5-.54Z"/><path class="cls-7" d="M9.86,114.78S2.58,66.87,0,62.65a8.66,8.66,0,0,1,7.05,0s-8.93-41.57,21.13-50c0,0-.23,6.34,1.18,8.21,0,0,19.24-29.89,78.33-18.08,0,0-6.34,1.45-6.92,4.62,0,0,82.88.86,63,99.16Z"/><path class="cls-8" d="M26.85,113s-8.79-9.52-18.18-4.76c-4.37,2.22-7.08,12.05-3.11,18.65,6.4,10.69,16,13.85,37.66,18.09Z"/><path class="cls-8" d="M144.82,113s8.8-9.52,18.18-4.76c4.37,2.22,7.08,12.05,3.12,18.65-6.41,10.69-16,13.85-37.67,18.09Z"/><circle class="cls-5" cx="85.36" cy="98.61" r="68.5" transform="translate(-25.66 167.07) rotate(-80.78)"/><path class="cls-7" d="M7.42,69.63S26,96.05,63,91c0,0,12.66,4.64,36.73-2.28,0,0,20.76,3.17,35.75-5.91,0,0,11.53,5.62,21,3.75l-6.92-56.39L28.71,25.54Z"/><circle class="cls-9" cx="57.43" cy="117.74" r="6.59"/><path class="cls-10" d="M58.52,113.15c.16.8-.82,1.67-2.2,1.94s-2.62-.14-2.78-.94.82-1.67,2.2-1.94S58.36,112.35,58.52,113.15Z"/><polygon class="cls-7" points="64.01 98.11 65.73 106.32 39.97 104.81 41.01 98.31 64.01 98.11"/><circle class="cls-9" cx="115.72" cy="117.74" r="6.59"/><path class="cls-10" d="M116.82,113.15c.16.8-.83,1.67-2.2,1.94s-2.62-.14-2.79-.94.83-1.67,2.2-1.94S116.65,112.35,116.82,113.15Z"/><polygon class="cls-7" points="109.15 98.11 107.42 106.32 133.19 104.81 132.15 98.31 109.15 98.11"/><path class="cls-6" d="M76.19,129.6s5.63,3.05,10,1.79a18.68,18.68,0,0,0,7.6-4.77s-2.31,5.77-7,6.71S76.19,129.6,76.19,129.6Z"/><path class="cls-6" d="M79.09,150c-8.29,0-14.58-.61-15.19-.67a1.16,1.16,0,0,1,.23-2.3c.36,0,35.84,3.47,51-6.17a1.15,1.15,0,1,1,1.23,1.94C107,148.74,91,150,79.09,150Z"/><path class="cls-6" d="M90.48,159.55a19.13,19.13,0,0,1-6.64-1.24,1.15,1.15,0,1,1,.86-2.13c.08,0,7.87,3.09,12.51-1.4a1.16,1.16,0,0,1,1.61,1.66A11.67,11.67,0,0,1,90.48,159.55Z"/><path class="cls-6" d="M84.27,130.61a1.15,1.15,0,0,1-1-.67c-2.86-6.28-3.14-26.7-3.15-27.57a1.15,1.15,0,0,1,1.14-1.17h0a1.15,1.15,0,0,1,1.15,1.14c0,.21.29,20.8,2.95,26.64a1.16,1.16,0,0,1-.57,1.53A1.18,1.18,0,0,1,84.27,130.61Z"/></g></g></svg>