<svg xmlns="http://www.w3.org/2000/svg" viewBox="0 0 178.71 260.02"><defs><style>.cls-1{fill:#684427;}.cls-2{fill:#7f5732;}.cls-3{fill:#f7cea6;}.cls-4{fill:#505151;}.cls-5{fill:#8e8e8e;}.cls-6{fill:#f9dab4;}.cls-7{fill:#444;}.cls-8{fill:#fff;}.cls-9{fill:#f4c7a2;}.cls-10{fill:#616363;}</style></defs><title>资源 6</title><g id="图层_2" data-name="图层 2"><g id="Layer_1" data-name="Layer 1"><path class="cls-1" d="M126.85,144.1l-10.31.87.26,115h47.72c1-6.5,2.06-13.46,2.8-19.94,1.71-15,2.55-38.81-9-56.15C148.83,169.77,126.85,144.1,126.85,144.1Z"/><path class="cls-2" d="M134.36,161.11c-2.35-.11-.6,9.74-.6,9.74s5.52,37.72,9.36,44.61a33.51,33.51,0,0,1,8.49-.14,22.54,22.54,0,0,1,6.81,1.91c1.54.73,4.66,2.09,4.31,4.21a1.16,1.16,0,0,1-.42.76,1.05,1.05,0,0,1-.9.1,3,3,0,0,1-.81-.44,18,18,0,0,0-4.21-2.45,18.23,18.23,0,0,0-7.18-.91c-.89.06-3.6.23-3.68,1.56,3.35.16,6.33-.33,9.19,2.55.9.91,2.51,3.23,1.49,4.57s-3.8-1.1-4.64-1.64c-1.75-1.12-4-1.93-5.48-.14-1.88,2.23-2.6,5.59-3.22,8.36a66.85,66.85,0,0,0-1.5,11.61c-.12,2.75-.31,6,.71,8.61a28,28,0,0,0,3.29,6h14a69.25,69.25,0,0,0,6.35-26c.51-13.91-2-30.94-4.55-38.15C154.5,177.1,136.71,161.22,134.36,161.11Z"/><path class="cls-1" d="M29.45,183.93c-11.58,17.34-10.74,41.19-9,56.15.75,6.48,1.76,13.44,2.8,19.94H70.94l.26-115-10.31-.87S38.91,169.77,29.45,183.93Z"/><path class="cls-2" d="M53.38,161.11c-2.35.11-20.14,16-26.84,34.75C24,203.07,21.48,220.1,22,234a69.25,69.25,0,0,0,6.35,26h14a28,28,0,0,0,3.29-6c1-2.62.83-5.86.72-8.61a66.87,66.87,0,0,0-1.51-11.61c-.62-2.77-1.33-6.13-3.22-8.36-1.5-1.79-3.72-1-5.47.14-.85.54-3.65,2.94-4.65,1.64s.6-3.66,1.49-4.57c2.86-2.88,5.84-2.39,9.2-2.55-.09-1.33-2.8-1.5-3.69-1.56a18.23,18.23,0,0,0-7.18.91,17.89,17.89,0,0,0-4.2,2.45,3.25,3.25,0,0,1-.82.44,1,1,0,0,1-.89-.1,1.12,1.12,0,0,1-.42-.76c-.36-2.12,2.76-3.48,4.3-4.21a22.52,22.52,0,0,1,6.82-1.91,33.52,33.52,0,0,1,8.49.14c3.83-6.89,9.35-44.61,9.35-44.61S55.73,161,53.38,161.11Z"/><path class="cls-2" d="M145.15,260c-3.67-45.8-16.37-101.52-16.37-101.52l-67.13-.41C53.06,179.84,46.26,230.67,42.88,260Z"/><path class="cls-1" d="M42.88,260h5.47a12.68,12.68,0,0,1-.72-3.37,244,244,0,0,1,.35-35.6C45.86,235.28,44.14,249.13,42.88,260Z"/><path class="cls-1" d="M131.21,260h13.94c-3.67-45.8-16.37-101.52-16.37-101.52l-2.88,0,3.94,18.87s11.57,50.81,5.44,72.52A44.27,44.27,0,0,1,131.21,260Z"/><path class="cls-1" d="M93.33,186.75c-9.83,0-15.37-4.1-18.29-7.53-7.07-8.32-5.43-19.88-5.22-21.17l.94-5.77H115.9l.94,5.77c.21,1.29,1.85,12.85-5.22,21.17C108.7,182.65,103.16,186.75,93.33,186.75Z"/><path class="cls-3" d="M76.6,159.16s-3.37,20.71,16.73,20.71,16.73-20.71,16.73-20.71Z"/><path class="cls-4" d="M8.44,125.23S1.66,79.93,1.66,68.61s13.27-9,13.27-9S5.85,20.4,35.52,9.69c52.11-18.81,84.93-5.18,104-.94,12.3,2.74,26.84,13,20.44,45.09,21,0,20.58,14,13.41,71.34C84,125.18,8.44,125.23,8.44,125.23Z"/><path class="cls-5" d="M1.78,71.81c.13,2.25.38,5,.7,8.15C13.07,88.3,30,90.92,30,90.92V82C13.4,82,5.27,75.76,1.78,71.81Z"/><path class="cls-5" d="M177.75,73.75C173.52,77.52,165.53,82,151.44,82v9s15.7-2.43,26.31-10Q177.89,77,177.75,73.75Z"/><path class="cls-6" d="M26.82,86.52V151.1c0,9,.46,16.5,41.63,16.5s85.09,3.77,85.09-13.67V83.7c0-13.67-6.71-21.69-17.69-25.14s-29.29,2.5-35.54,8.94c0,0,4.76,4.53.07,9.36,0,0,1.14-4.71-2.86-6.83,0,0,.23,6.71-5.72,8.13,0,0,2.86-4.13,1.14-7.66,0,0-2.74,5.89-8,5.3,0,0,4.92-4.12,3.31-7.54C78.68,58.39,26.82,46.3,26.82,86.52Z"/><path class="cls-7" d="M37.83,100.94s14.92-2.14,18.66-2.45C62.16,98,69.31,98,69.31,98S67.76,90,66.38,88.57s-13.41,0-20.64,1.84S37.83,92.26,37.83,100.94Z"/><path class="cls-7" d="M117,112.59a9.13,9.13,0,1,0,9.12-8.86A9,9,0,0,0,117,112.59Z"/><path class="cls-8" d="M120.26,108.24c.37,1.1,2.3,1.55,4.3,1s3.31-1.91,2.93-3-2.3-1.55-4.3-1S119.88,107.13,120.26,108.24Z"/><path class="cls-7" d="M50.86,112.59A9.13,9.13,0,1,0,60,103.73,9,9,0,0,0,50.86,112.59Z"/><path class="cls-8" d="M54.13,108.24c.38,1.1,2.3,1.55,4.3,1s3.32-1.91,2.94-3-2.31-1.55-4.31-1S53.75,107.13,54.13,108.24Z"/><path class="cls-7" d="M144.33,100.94s-14.92-2.14-18.66-2.45C120,98,112.85,98,112.85,98s1.55-7.94,2.93-9.41,13.41,0,20.64,1.84S144.33,92.26,144.33,100.94Z"/><path class="cls-6" d="M27.75,117.39s-3.51-18.17-17-13.64S-1.49,126,3.33,134.06s21.2,19.72,25.39,3.82C28.56,127.83,27.75,117.39,27.75,117.39Z"/><path class="cls-9" d="M21.6,123.46a18.53,18.53,0,0,0-1.69-6.83,1.63,1.63,0,0,0-.11-.23,8.93,8.93,0,0,0-4.17-4.24,5.77,5.77,0,0,0-2.17-.56,1.22,1.22,0,0,0-1.12,1.22,1.07,1.07,0,0,0,.94,1.25h.07a4.63,4.63,0,0,1,1.41.41,6.44,6.44,0,0,1,2.35,1.9,12.24,12.24,0,0,0-2.19.91,13,13,0,0,0-6.22,7.17c-.09.24-.18.49-.26.76A1.23,1.23,0,0,0,9,126.74l.07,0a1.08,1.08,0,0,0,1.34-.83q.09-.3.21-.6a10.46,10.46,0,0,1,5.05-5.78,10.76,10.76,0,0,1,2.38-.92l.34-.08a17.59,17.59,0,0,1,1.17,5.32,1.09,1.09,0,0,0,.6.95.8.8,0,0,0,.53.06A1.32,1.32,0,0,0,21.6,123.46Z"/><path class="cls-6" d="M151,117.39s3.51-18.17,17-13.64,12.27,22.21,7.46,30.31-21.2,19.72-25.4,3.82C150.14,127.83,151,117.39,151,117.39Z"/><path class="cls-9" d="M157.11,123.46a18.55,18.55,0,0,1,1.68-6.83,1,1,0,0,1,.12-.23,9,9,0,0,1,4.16-4.24,5.81,5.81,0,0,1,2.17-.56,1.22,1.22,0,0,1,1.13,1.22,1.07,1.07,0,0,1-.94,1.25h-.07a4.66,4.66,0,0,0-1.42.41,6.52,6.52,0,0,0-2.35,1.9,11.94,11.94,0,0,1,2.19.91,13,13,0,0,1,6.23,7.17c.09.24.18.49.26.76a1.24,1.24,0,0,1-.54,1.51l-.06,0a1.08,1.08,0,0,1-1.34-.83q-.09-.3-.21-.6a10.46,10.46,0,0,0-5.05-5.78,10.81,10.81,0,0,0-2.39-.92l-.33-.08a17.59,17.59,0,0,0-1.17,5.32,1.12,1.12,0,0,1-.61.95.8.8,0,0,1-.53.06A1.32,1.32,0,0,1,157.11,123.46Z"/><path class="cls-9" d="M101.3,123.33a19.13,19.13,0,0,0-4.48-5.89h0A5.88,5.88,0,0,0,93.07,116h0c-1.92,0-3.81,1.21-5.32,2.75h0a20.43,20.43,0,0,0-3,3.93h0l-.16.28h0a1.12,1.12,0,0,1-1.55.47h0a1.19,1.19,0,0,1-.46-1.59h0a22.88,22.88,0,0,1,2.85-4h0c1.78-2,4.36-4.14,7.63-4.17h0a8.17,8.17,0,0,1,5.16,2h0a21.28,21.28,0,0,1,5.07,6.6h0a1.2,1.2,0,0,1-.45,1.6h0a1.08,1.08,0,0,1-.55.15h0a1.14,1.14,0,0,1-1-.61Z"/><path class="cls-10" d="M91.88,132.25s-5,11.31-23.94,13.35c2-.91,4-1.94,6-3a46.93,46.93,0,0,0,10-6.88,18.83,18.83,0,0,0,2-2.2c1.25-1.63,1.9-2.84,3.91-3.46.5-.16,1.36-.53,1.83-.14S92.1,131.75,91.88,132.25Z"/><path class="cls-10" d="M94.71,132.25s5,11.31,23.94,13.35c-2-.91-4-1.94-6-3a46.93,46.93,0,0,1-10-6.88,18.83,18.83,0,0,1-2-2.2c-1.25-1.63-1.9-2.84-3.91-3.46-.5-.16-1.36-.53-1.83-.14S94.49,131.75,94.71,132.25Z"/><path class="cls-9" d="M73.84,154.62A119.26,119.26,0,0,0,93,156a125.81,125.81,0,0,0,19-1.41,1.19,1.19,0,0,0,1-1.35,1.16,1.16,0,0,0-1.3-1A122.39,122.39,0,0,1,93,153.68,134.25,134.25,0,0,1,79.45,153c-1.66-.18-3-.35-3.86-.48l-1-.15-.25-.05h-.09a1.15,1.15,0,0,0-1.32,1A1.17,1.17,0,0,0,73.84,154.62Z"/></g></g></svg>