<svg xmlns="http://www.w3.org/2000/svg" viewBox="0 0 196.93 260"><defs><style>.cls-1{fill:#f9dab4;}.cls-2{fill:#f7cea6;}.cls-3{fill:#eae5dc;}.cls-4{fill:#f9f5ed;}.cls-5{fill:#494949;}.cls-6{fill:#fff;}.cls-7{fill:#f9f7f2;}.cls-8{fill:#e5be9e;}.cls-9{fill:#f4c7a2;}.cls-10{fill:#565656;}</style></defs><title>资源 7</title><g id="图层_2" data-name="图层 2"><g id="Layer_1" data-name="Layer 1"><path class="cls-1" d="M172,260H152.51l-7.24-70.31h19.61S170.24,246.08,172,260Z"/><path class="cls-2" d="M166.53,206.8s-9.52-4-14.64-3.3-2.58,10.08-1.48,21.07c.76,7.66,1.84,25.4,2.43,35.43h-.33l-7.24-70.31h19.61S165.57,196.89,166.53,206.8Z"/><path class="cls-3" d="M134.71,144.45s34.36,15.05,38.88,58.32H131.07V144.45Z"/><path class="cls-4" d="M155.53,200s10.88-.29,12.24-8.43-14.5-32.58-20.9-36-9.2-3.18-7.8,5.65,5.17,34.8,5.17,38.18C147.81,201.08,155.53,200,155.53,200Z"/><path class="cls-1" d="M22.52,260H42l7.23-70.31H29.66S24.3,246.08,22.52,260Z"/><path class="cls-2" d="M28,206.8s9.51-4,14.63-3.3,2.58,10.08,1.49,21.07c-.76,7.66-1.85,25.4-2.43,35.43H42l7.23-70.31H29.66S29,196.89,28,206.8Z"/><path class="cls-3" d="M59.84,144.45S25.48,159.5,21,202.77H63.48V144.45Z"/><path class="cls-4" d="M39,200s-10.89-.29-12.24-8.43,14.5-32.58,20.89-36,9.21-3.18,7.8,5.65-5.16,34.8-5.16,38.18C46.73,201.08,39,200,39,200Z"/><path class="cls-3" d="M60.83,133.35S45.37,213.89,48.79,260H145.2s.22-84.35-12-127C78.74,133,60.83,133.35,60.83,133.35Z"/><path class="cls-4" d="M67.31,141.35a154.79,154.79,0,0,0-12,43.25c-3.14,24.87-10.57,71.14,11.43,71.15s59.75,0,67.74,0,8-22.56,8-33.42-4.61-73.31-13-81.74C97.13,122,67.31,141.35,67.31,141.35Z"/><path class="cls-3" d="M98,185.79c-10,0-15.68-4.18-18.65-7.68-7.21-8.48-5.54-20.26-5.32-21.58l1-5.88h46l1,5.88c.21,1.32,1.88,13.1-5.32,21.58C113.69,181.61,108,185.79,98,185.79Z"/><path class="cls-2" d="M81,157.66s-3.45,21.12,17,21.12,17-21.12,17-21.12Z"/><path class="cls-1" d="M142.09,55c-17.9-7.35-24.85-9-43.36-9.61h0a90.38,90.38,0,0,0-27.38,4C28.79,60.86,24,95.56,23.33,105.52c-2.18,33.39,33.19,60.81,74.6,61.08S173.1,140,173.31,106.49C173.31,106.49,172.12,69,142.09,55Z"/><path class="cls-5" d="M124.32,83.71S129,81.62,137,82c7.74.35,14.18,3.86,14.52,2.2.59-3-3.52-8.1-9.92-10.43-6-2.19-11.38-.31-15.5,2.73S120.19,84.84,124.32,83.71Z"/><path class="cls-5" d="M73,83.71s-4.7-2.09-12.7-1.73c-7.74.35-14.19,3.86-14.52,2.2-.59-3,3.52-8.1,9.92-10.43,6-2.19,11.38-.31,15.5,2.73S77.16,84.84,73,83.71Z"/><path class="cls-5" d="M147.1,98.51a12.1,12.1,0,1,1-16.78-3.38A12.1,12.1,0,0,1,147.1,98.51Z"/><path class="cls-6" d="M138.89,95.67c1.2,1.81-.38,5-3.52,7.06s-6.66,2.31-7.86.51.37-5,3.51-7.06S137.69,93.87,138.89,95.67Z"/><path class="cls-5" d="M70.55,95.74a12.1,12.1,0,1,1-16.78-3.38A12.11,12.11,0,0,1,70.55,95.74Z"/><path class="cls-6" d="M62.34,92.9c1.19,1.81-.38,5-3.52,7.06s-6.66,2.31-7.86.51.37-5,3.51-7.06S61.13,91.1,62.34,92.9Z"/><path class="cls-2" d="M91.12,125.63h0a30.35,30.35,0,0,1,2.22-3,19.55,19.55,0,0,1,2.07-2.1,7.74,7.74,0,0,1,2.13-1.37,2.09,2.09,0,0,1,.79-.14,4,4,0,0,1,1.92.6,12.3,12.3,0,0,1,3.13,2.75,17.89,17.89,0,0,1,2.34,3.52,1,1,0,0,0,1.37.47,1,1,0,0,0,.47-1.38,20.22,20.22,0,0,0-3.75-5.16,12.61,12.61,0,0,0-2.56-2,6.07,6.07,0,0,0-2.9-.86,4.2,4.2,0,0,0-1.55.28A10.06,10.06,0,0,0,94,119.08a25.2,25.2,0,0,0-3.25,3.55c-.83,1.08-1.34,1.88-1.35,1.9a1,1,0,1,0,1.72,1.1Z"/><path class="cls-7" d="M51.94,126a1.35,1.35,0,0,1-1.4,1.3L46,127.12a1.35,1.35,0,0,1-1.3-1.4h0a1.35,1.35,0,0,1,1.4-1.31l4.57.17a1.35,1.35,0,0,1,1.3,1.41Z"/><path class="cls-7" d="M150.29,126.63a1.35,1.35,0,0,1-1.4,1.3l-4.57-.17a1.35,1.35,0,0,1-1.3-1.41h0a1.36,1.36,0,0,1,1.4-1.31l4.57.17a1.36,1.36,0,0,1,1.3,1.42Z"/><path class="cls-1" d="M165.26,128.45a24.88,24.88,0,0,0,20.93-.27c11-5.37,16.39-27.42,2.16-32.7s-18.61,11.09-18.61,11.09Z"/><path class="cls-2" d="M171.88,121.75S176.4,97.59,187,105.94c6.49,5.12,2.64,12.28-3.38,15.22C179.8,123,174.89,123.16,171.88,121.75Z"/><path class="cls-8" d="M172,121.47l1.57-6.09s20.08-5.72,14.45,2.33S172,121.47,172,121.47Z"/><path class="cls-1" d="M31.42,126.65a24.88,24.88,0,0,1-20.92-.54c-10.91-5.52-16-27.63-1.75-32.72s18.47,11.32,18.47,11.32Z"/><path class="cls-2" d="M24.89,119.86s-4.21-24.21-14.88-16c-6.55,5-2.8,12.24,3.19,15.26C17,121,21.86,121.23,24.89,119.86Z"/><path class="cls-8" d="M24.76,119.58l-1.49-6.11s-20-6-14.48,2.15S24.76,119.58,24.76,119.58Z"/><path class="cls-9" d="M97.53,153.06A66.62,66.62,0,0,1,74.62,149a1.46,1.46,0,1,1,1.1-2.7h0c.25.1,24.59,9.83,45.87-2a1.46,1.46,0,1,1,1.41,2.55A52.29,52.29,0,0,1,97.53,153.06Z"/><path class="cls-10" d="M99.4,0C71.47,0,41.61,2.51,22,32.26,15,42.79,13.52,50.82,13.52,65.72c0,18.23,1.75,26.76,1.75,26.76l9,5.83C29.35,77.11,37.08,71,42,67c12-9.74,63.42-10.17,63.42-10.17L145.6,5.56C130.66.53,114.15,0,99.4,0Z"/><path class="cls-5" d="M172,100.43l10.31-6s1.21-5.95,1.21-26.37A58.75,58.75,0,0,0,175.15,37c-1.1-1.89-7.44-7.91-8.65-9.58L105.4,56.8s37.89-.88,50.64,11.07C162.13,73.57,168.82,80.21,172,100.43Z"/><path class="cls-10" d="M178.51,0H106.2c-40,0-72.47,25.12-72.47,56.1v.7h88.81c40.11,0,56-25.17,56-56.23Z"/></g></g></svg>