<svg xmlns="http://www.w3.org/2000/svg" viewBox="0 0 187.51 260.03"><defs><style>.cls-1{fill:#efc4a0;}.cls-2{fill:#f9dab4;}.cls-3{fill:#f9f5ed;}.cls-4{fill:#e8e3d9;}.cls-5{fill:#dcddd0;}.cls-6{fill:#d1d3be;}.cls-7{fill:#7f5732;}.cls-8{fill:#686868;}.cls-9{fill:#f4d3b0;}.cls-10{fill:#515151;}</style></defs><title>资源 293</title><g id="图层_2" data-name="图层 2"><g id="Layer_1" data-name="Layer 1"><polygon class="cls-1" points="138.51 195.1 154.51 229.57 150.3 239.57 138.51 237.14 121.25 198.51 138.51 195.1"/><path class="cls-2" d="M7.37,260H26.5l8.38-63L16,193.12C11.52,212.73,8.91,235.48,7.37,260Z"/><rect class="cls-1" x="53.01" y="158.87" width="48.16" height="34.26"/><path class="cls-3" d="M114.39,156.48h-9.75L77.08,181.3,49.53,156.48H39.78s-22,22.68-27.29,40.94c0,0,15.51,5.58,19.85,5.58,0,0-4.92,30.35-6.09,57H127.92c-1.17-26.68-6.09-57-6.09-57,4.34,0,19.85-5.58,19.85-5.58C136.41,179.36,114.39,156.48,114.39,156.48Z"/><polygon class="cls-4" points="77.08 181.3 56.84 190.28 53.01 159.62 77.08 181.3"/><polygon class="cls-4" points="77.08 181.3 97.33 190.28 101.16 159.62 77.08 181.3"/><path class="cls-4" d="M81.94,198a4.86,4.86,0,1,1-4.86-4.86A4.86,4.86,0,0,1,81.94,198Z"/><path class="cls-4" d="M81.94,219.36a4.86,4.86,0,1,1-4.86-4.86A4.86,4.86,0,0,1,81.94,219.36Z"/><path class="cls-4" d="M81.94,240.74a4.86,4.86,0,1,1-4.86-4.86A4.86,4.86,0,0,1,81.94,240.74Z"/><path class="cls-5" d="M106.16,209.69c0-12,5.34-14.92,12-14.92s9.33,4,9.33,4v7.38c-.51-.16-4.29-3.78-9.2-3.78-1.19,0-4.83.09-4.8,7.32a7.66,7.66,0,0,0,2.4,5.18c3.82,3.36,11.6,1.26,11.6,1.26l2.12,6.35C105.8,229.54,106.16,209.69,106.16,209.69Z"/><path class="cls-6" d="M136.73,234.53h40s10.77-7.69,10.77-27.68V189.33H126v17.52C126,226.84,136.73,234.53,136.73,234.53Z"/><path class="cls-5" d="M164.94,190.19h21.68V191h-16.5A29.05,29.05,0,0,0,164.94,190.19Z"/><rect class="cls-7" x="125.96" y="190.98" width="61.54" height="4.14"/><path class="cls-2" d="M157.34,243.52s-8,.48-13.32-.65-10.47-15.46-5.77-17.43c5.13-2.15,4.2,3.61,6.52,6.86,2.19,3.06,4.13,2.76,4.13,2.76s-4.88-14,2-14.08,5.23,13,6.66,13.62,0-14.71,6.42-13.38c5.47,1.13,1.55,12.73,2.2,13.46s3.09-12,8.19-10.07-.83,13.13-.83,13.13S172.08,242.53,157.34,243.52Z"/><path class="cls-8" d="M4.23,109.52S-20.67,0,77.08,0s73,109.52,73,109.52Z"/><path class="cls-9" d="M21.2,109.52s-4.45-9.21-12.95-8.36S-10,129.39,22.9,141.92Z"/><path class="cls-9" d="M133.34,109.52s4.46-9.21,12.95-8.36,18.26,28.23-14.65,40.76Z"/><path class="cls-2" d="M136.41,132.64A28.54,28.54,0,0,1,117,159.69a125.74,125.74,0,0,1-79.81,0,28.54,28.54,0,0,1-19.42-27.05V52.85H136.41Z"/><path class="cls-1" d="M73,146.32a128,128,0,0,1-21.09-1.59,1.22,1.22,0,0,1,.46-2.4,136.72,136.72,0,0,0,49.73-1.58,1.23,1.23,0,0,1,.54,2.39A135,135,0,0,1,73,146.32Z"/><path class="cls-1" d="M77,128.59a17.36,17.36,0,0,1,11.76,4.58s-7.06-2.29-11.83-2.29-12.15,2.29-12.15,2.29A19.29,19.29,0,0,1,77,128.59Z"/><polygon class="cls-10" points="52.15 91.27 52.15 96.87 23.58 100.46 23.58 95.15 52.15 91.27"/><path class="cls-10" d="M33.66,118.82a1.21,1.21,0,0,1-1.21-1.09c-.05-.43-1-10.44,6.33-12.33,5.89-1.51,9.83,4,11.09,7.15a1.22,1.22,0,0,1-2.27.91c-.11-.29-2.92-7-8.22-5.69s-4.51,9.62-4.5,9.7a1.22,1.22,0,0,1-1.09,1.34Z"/><polygon class="cls-10" points="102.38 91.27 102.38 96.87 130.95 100.46 130.95 95.15 102.38 91.27"/><path class="cls-10" d="M120.87,118.82h-.13a1.22,1.22,0,0,1-1.09-1.34c0-.14.79-8.34-4.5-9.7s-8.2,5.62-8.22,5.69a1.22,1.22,0,0,1-2.27-.91c1.26-3.13,5.2-8.66,11.09-7.15,7.36,1.89,6.38,11.9,6.33,12.33A1.21,1.21,0,0,1,120.87,118.82Z"/><path class="cls-8" d="M14.73,42.87V94.35S25.4,72.82,73.58,67.6c-.58,7.42-2.81,16.2-9.84,19,0,0,39.94,1.52,53.32-13,9.12,5.4,19.14,14,20.74,26.2v-57Z"/></g></g></svg>