<svg xmlns="http://www.w3.org/2000/svg" viewBox="0 0 186.34 260"><defs><style>.cls-1{fill:#f9dab4;}.cls-2{fill:#f7cea6;}.cls-3{fill:#eaeaea;}.cls-4{fill:#fff;}.cls-5{fill:#6b4627;}.cls-6{fill:#472b18;}.cls-7{fill:#f9f7f2;}.cls-8{fill:#e5be9e;}.cls-9{fill:#ad3936;}.cls-10{fill:#e0605c;}</style></defs><title>资源 13</title><g id="图层_2" data-name="图层 2"><g id="Layer_1" data-name="Layer 1"><path class="cls-1" d="M166.39,260H146.88l-7.23-70.3h19.61S164.61,246.08,166.39,260Z"/><path class="cls-2" d="M160.9,206.8s-9.51-4-14.63-3.29-2.58,10.08-1.49,21.07c.77,7.66,1.85,25.39,2.44,35.42h-.34l-7.23-70.3h19.61S159.94,196.9,160.9,206.8Z"/><path class="cls-3" d="M129.08,144.47s34.36,15.05,38.88,58.31H125.45V144.47Z"/><path class="cls-4" d="M149.9,200s10.89-.29,12.24-8.43-14.5-32.57-20.89-36-9.2-3.18-7.8,5.65,5.16,34.79,5.16,38.17C142.19,201.09,149.9,200,149.9,200Z"/><path class="cls-1" d="M21.69,260H41.2l7.23-70.3H28.83S23.47,246.08,21.69,260Z"/><path class="cls-2" d="M27.18,206.8s9.51-4,14.64-3.29,2.57,10.08,1.48,21.07c-.76,7.66-1.85,25.39-2.43,35.42h.33l7.23-70.3H28.83S28.14,196.9,27.18,206.8Z"/><path class="cls-3" d="M59,144.47s-34.36,15.05-38.87,58.31h42.5V144.47Z"/><path class="cls-4" d="M38.18,200s-10.88-.29-12.24-8.43,14.5-32.57,20.89-36,9.2-3.18,7.8,5.65S49.47,196,49.47,199.39C45.89,201.09,38.18,200,38.18,200Z"/><path class="cls-4" d="M144.55,260c-1.25-12.52-9-87.11-19.8-114l-63.49.38s-16,69.22-16.4,113.66Z"/><path class="cls-3" d="M64,146.33H61.26s-16,69.22-16.4,113.66h99.69c-.66-6.57-3.11-30.26-6.86-55.18a308.14,308.14,0,0,1,.33,33.27c-1.37,24.56-34.19,19.83-50.24,19.83s-36.39,1.53-36.39-24.67C51,212,60.26,164,60.26,164Z"/><path class="cls-3" d="M94.24,183.69c-9.89,0-15.47-4.12-18.41-7.58-7.12-8.37-5.47-20-5.26-21.31l1-5.81H117l.94,5.81c.22,1.3,1.87,12.94-5.25,21.31C109.72,179.57,104.14,183.69,94.24,183.69Z"/><path class="cls-2" d="M77.41,155.92S74,176.77,94.24,176.77s16.84-20.85,16.84-20.85Z"/><path class="cls-1" d="M139.86,39.21c-17.07-7-74-5.08-82.11-2.58C17.19,47.57,22.88,99,22.25,108.52c-2.08,31.84,31.65,58,71.14,58.24s71.68-25.41,71.89-57.32C165.28,109.44,168.5,52.56,139.86,39.21Z"/><path class="cls-5" d="M118.55,87.72s4.48-2,12.12-1.65c7.38.34,13.53,3.68,13.84,2.09.57-2.83-3.35-7.71-9.45-9.94-5.74-2.09-10.86-.3-14.79,2.61S114.62,88.8,118.55,87.72Z"/><path class="cls-5" d="M69.65,87.72s-4.48-2-12.12-1.65c-7.37.34-13.52,3.68-13.84,2.09-.57-2.83,3.35-7.71,9.46-9.94,5.73-2.09,10.85-.3,14.78,2.61S73.59,88.8,69.65,87.72Z"/><path class="cls-6" d="M140.28,101.83a11.54,11.54,0,1,1-16-3.22A11.55,11.55,0,0,1,140.28,101.83Z"/><path class="cls-4" d="M132.45,99.13c1.14,1.72-.36,4.73-3.35,6.72s-6.36,2.21-7.5.49.35-4.73,3.35-6.73S131.3,97.4,132.45,99.13Z"/><path class="cls-6" d="M67.28,99.19a11.54,11.54,0,1,1-16-3.22A11.54,11.54,0,0,1,67.28,99.19Z"/><path class="cls-4" d="M59.45,96.49c1.14,1.72-.36,4.73-3.36,6.72s-6.35,2.21-7.49.49S49,99,52,97,58.3,94.76,59.45,96.49Z"/><path class="cls-2" d="M86.9,127.7v0A31.39,31.39,0,0,1,89,124.87a19.47,19.47,0,0,1,2-2,7.4,7.4,0,0,1,2-1.31,2.13,2.13,0,0,1,.76-.13,3.84,3.84,0,0,1,1.82.57,11.58,11.58,0,0,1,3,2.63,16.79,16.79,0,0,1,2.23,3.35,1,1,0,1,0,1.75-.86A19.33,19.33,0,0,0,99,122.19a12,12,0,0,0-2.44-1.89,5.68,5.68,0,0,0-2.77-.82,3.78,3.78,0,0,0-1.47.26,9.24,9.24,0,0,0-2.68,1.71,23.67,23.67,0,0,0-3.11,3.39c-.79,1-1.28,1.78-1.29,1.8a1,1,0,0,0,1.65,1.06Z"/><path class="cls-7" d="M49.53,128a1.29,1.29,0,0,1-1.33,1.24l-4.36-.16a1.29,1.29,0,0,1-1.24-1.34h0a1.29,1.29,0,0,1,1.33-1.25l4.36.16A1.3,1.3,0,0,1,49.53,128Z"/><path class="cls-7" d="M143.33,128.65a1.3,1.3,0,0,1-1.34,1.24l-4.36-.17a1.28,1.28,0,0,1-1.24-1.33h0a1.29,1.29,0,0,1,1.34-1.25l4.35.16a1.3,1.3,0,0,1,1.25,1.35Z"/><path class="cls-1" d="M156.14,130a23.74,23.74,0,0,0,20-.26c10.47-5.12,15.63-26.15,2.06-31.18s-17.75,10.57-17.75,10.57Z"/><path class="cls-2" d="M162.45,123.6s4.31-23,14.38-15.08c6.19,4.88,2.52,11.71-3.22,14.51C170,124.79,165.32,124.94,162.45,123.6Z"/><path class="cls-8" d="M162.58,123.33l1.49-5.8s19.15-5.47,13.78,2.22S162.58,123.33,162.58,123.33Z"/><path class="cls-1" d="M30,128.67a23.71,23.71,0,0,1-20-.52C-.39,122.89-5.29,101.8,8.35,97S26,107.75,26,107.75Z"/><path class="cls-2" d="M23.73,122.19s-4-23.08-14.19-15.26c-6.24,4.81-2.66,11.68,3,14.55C16.16,123.29,20.84,123.5,23.73,122.19Z"/><path class="cls-8" d="M23.61,121.93l-1.42-5.83s-19.08-5.71-13.8,2.05S23.61,121.93,23.61,121.93Z"/><path class="cls-9" d="M75.66,145.48s15.27,4.32,35.15-1c0,0-2.64,12.57-17.08,12.57S75.66,145.48,75.66,145.48Z"/><path class="cls-10" d="M93.73,157.05a17.91,17.91,0,0,0,10.46-3,18.36,18.36,0,0,0-21.24.19A20.27,20.27,0,0,0,93.73,157.05Z"/><path class="cls-5" d="M167.24,32.17C153.89,12.3,135.9,0,93.75,0S35.58,10.28,21.29,30.47c-6.95,9.82-8.4,25.89-8.4,40.09,0,17.39,1.67,25.52,1.67,25.52l8.55,5.57c.5-24.34,8.82-58,29.14-60.24,0,0,6.69,17.12,41.64,17.12s40.58-17.12,40.58-17.12c20.14,2.87,28.11,25.68,29.87,60.37l8.82-4.23s1.44-9.6,1.44-27C174.6,56.36,174,42.16,167.24,32.17Z"/></g></g></svg>