<svg xmlns="http://www.w3.org/2000/svg" viewBox="0 0 163.81 260.08"><defs><style>.cls-1{fill:#86cad1;}.cls-2{fill:#4793a0;}.cls-3{fill:#5fbbc4;}.cls-4{fill:#3a8189;}.cls-5{fill:#efc19c;}.cls-6{fill:#296a6d;}.cls-7{fill:#484b4c;}.cls-8{fill:#2f3233;}.cls-9{fill:#f9dab4;}.cls-10{fill:#f7cea6;}.cls-11{fill:#efceab;}.cls-12{fill:#f9f5ed;}.cls-13{fill:#e0605c;}.cls-14{fill:#ad3936;}.cls-15{fill:#393c3d;}</style></defs><title>资源 114</title><g id="图层_2" data-name="图层 2"><g id="Layer_1" data-name="Layer 1"><path class="cls-1" d="M43.59,139.8,32,159.05s-2.17.53,11.05,7.63,71.09,15.85,98.09-8.65c0-6.42-10-15.46-10-15.46s10-1.46,17,10.21a171.11,171.11,0,0,1,12.21,25.66s-11.74,15.13-20.57,24.12-106,1.7-106,1.7L12.52,184.9s4.87-23.08,10.33-28S39.45,133.05,43.59,139.8Z"/><path class="cls-2" d="M42.63,135,25.75,164.73S55.64,184,77.34,181.36s68-11.38,70.89-21.88C131.19,138.05,115,124.05,42.63,135Z"/><path class="cls-3" d="M156.76,169.46c-8.44,11.68-28.46,28.67-28.46,28.67l4.65,7.05c3.41-.66,5.83-1.52,6.92-2.62,8.83-9,20.57-24.12,20.57-24.12S159.06,174.69,156.76,169.46Z"/><path class="cls-3" d="M18.87,190.66l1.57-30.46c-4.4,8.05-7.92,24.7-7.92,24.7Z"/><path class="cls-2" d="M142.16,196.28c-10.65-38.34-28.73-33.65-28.73-33.65-3.32,4.38,7.28,63.39,13.74,97.45H160.7C155.83,243.87,148.51,219.17,142.16,196.28Z"/><path class="cls-4" d="M133.29,175c-9.61-15.06-19.86-12.4-19.86-12.4-3.32,4.38,7.28,63.39,13.74,97.45h14.29c-4.34-20-10.2-47.22-12.76-59.75C125.39,184.14,130.65,177.34,133.29,175Z"/><path class="cls-2" d="M21.22,196.28c-6.36,22.89-13.68,47.59-18.55,63.8H36.2C42.67,226,53.26,167,49.94,162.63,49.94,162.63,31.86,157.94,21.22,196.28Z"/><path class="cls-4" d="M30.08,175c2.64,2.31,7.9,9.11,4.59,25.3-2.56,12.53-8.42,39.71-12.76,59.75H36.2C42.67,226,53.26,167,49.94,162.63,49.94,162.63,39.69,160,30.08,175Z"/><path class="cls-2" d="M46.48,164.08c-4.44,5.29-5.12,17.14-6.93,37.21-1.86,20.58-3.72,42.13-5.45,58.79h97.58c-4.09-31.17-12.25-79.3-14.34-86.21-3.45-11.41-6.24-14.45-6.24-14.45l-53.55,1S49.92,160,46.48,164.08Z"/><path class="cls-5" d="M58.57,151.24,83.32,190.9l35-40.83S84.92,135.49,58.57,151.24Z"/><path class="cls-4" d="M57.55,160.38l12.36-.22,13.7,24.41S95.18,172.9,99.68,165.9c1.77-2.74,3-5,4.48-6.36l6.94-.12a17.28,17.28,0,0,1,2.19,3.67c-8.78,4.41-22.17,22.17-27,26.58-5.54,5-5.6-1.84-15.71-15.23Z"/><path class="cls-6" d="M100.7,199.15c-3.11-4.06-4.14-10-4.48-15a57.81,57.81,0,0,1,.08-8.84.71.71,0,0,1,.79-.59.67.67,0,0,1,.65.71,58.13,58.13,0,0,0-.08,8.64c.3,4.8,1.4,10.52,4.16,14.21a5.32,5.32,0,0,1,2.24-.65,4.76,4.76,0,0,1,5.19,4.17,4.63,4.63,0,0,1-4.6,4.71,4.75,4.75,0,0,1-5.19-4.17A4.22,4.22,0,0,1,100.7,199.15Z"/><path class="cls-6" d="M67.36,195.89c-1.59-4.73-.57-10.68.77-15.48A59,59,0,0,1,71.19,172a.75.75,0,0,1,1-.35.63.63,0,0,1,.37.86,59.44,59.44,0,0,0-3,8.21c-1.33,4.65-2.21,10.4-.83,14.68a5.48,5.48,0,0,1,2.35,0,4.44,4.44,0,0,1,3.54,5.41,5,5,0,0,1-6,3.21,4.43,4.43,0,0,1-3.53-5.41A4.49,4.49,0,0,1,67.36,195.89Z"/><path class="cls-7" d="M3,83.25s9.32,26.58,9.32,31.68,9.54,16.8,9.54,16.8h15V90.54Z"/><path class="cls-8" d="M144.05,122.94h11.8s14-38.46,4.89-68.88S132.8,2.3,83.56.08,8.13,39.62,3.24,63.06.45,90.94.45,90.94l7-6.33A77.64,77.64,0,0,0,5,102.67s8.2-11.88,10.47-13.94c-3.31,7.44.7,14.25.7,14.25l7.19-9.69s-1.3,9,.58,12.07c5.63-5.11,6.42-4.4,6.42-4.4Z"/><path class="cls-9" d="M33.66,114.52s-6.65-7-14.21-8.61S9.77,115.6,14,124.22s12.1,22.61,19.66,15.88Z"/><path class="cls-10" d="M18.53,112.34c-3,.75-2.43,4.68-2.05,6.44A12.09,12.09,0,0,0,16.8,120c7.08-2.39,10,5,11,9.77.12-3.86,1.34-8.42-.83-12C25.56,115.49,21.93,111.48,18.53,112.34Z"/><path class="cls-9" d="M139.29,114.52s6.65-7,14.21-8.61,9.67,9.69,5.44,18.31-12.09,22.61-19.65,15.88Z"/><path class="cls-10" d="M154.42,112.34c3,.75,2.43,4.68,2.05,6.44-.09.4-.2.79-.32,1.18-7.08-2.39-10,5-11,9.77-.11-3.86-1.34-8.42.84-12C147.38,115.49,151,111.48,154.42,112.34Z"/><path class="cls-9" d="M28.52,96.07v36c0,7.53,13.91,35,58.07,35s57.46-16.16,57.46-30.7V88.21s-34,.83-57.7,1.47A390.23,390.23,0,0,0,28.52,96.07Z"/><polygon class="cls-8" points="66.39 97.75 67.46 102.86 38.16 107.53 39.92 100.7 66.39 97.75"/><polygon class="cls-8" points="103.35 97.75 102.28 102.86 131.58 107.53 129.83 100.7 103.35 97.75"/><path class="cls-11" d="M93.22,131.25a3,3,0,0,1,.93,2.08c0,2.45-3.59,4.45-8,4.45s-8-2-8-4.45a3,3,0,0,1,.93-2.08c-1.56.95-2.52,2.2-2.52,3.59,0,2.94,4.3,5.33,9.6,5.33s9.61-2.39,9.61-5.33C95.74,133.45,94.78,132.2,93.22,131.25Z"/><path class="cls-8" d="M45.44,114.09l.23-.24a11.61,11.61,0,0,1,6.8-3c4.62-.69,11.35-.53,14.36,4.39,2.79,4.55-2.95,5.23-5.59,4-2.47-1.16-5.5-2.53-8.18-1.71-2.16.65-4.67,3.62-7,2.46S43.93,115.85,45.44,114.09Z"/><path class="cls-12" d="M62.19,117.75c-.32-.61.28-1.46,1.34-1.89s2.17-.28,2.48.34-.28,1.47-1.34,1.9S62.5,118.37,62.19,117.75Z"/><path class="cls-8" d="M107.16,114.09l.23-.24a11.64,11.64,0,0,1,6.81-3c4.61-.69,11.34-.53,14.36,4.39,2.78,4.55-3,5.23-5.59,4-2.48-1.16-5.5-2.53-8.19-1.71-2.15.65-4.67,3.62-7,2.46S105.65,115.85,107.16,114.09Z"/><path class="cls-12" d="M123.91,117.75c-.32-.61.28-1.46,1.34-1.89s2.17-.28,2.49.34-.29,1.47-1.35,1.9S124.22,118.37,123.91,117.75Z"/><path class="cls-13" d="M72.05,147.15h28.56s1.56,16.79-13.5,18.23C75.19,166.2,72.21,153.7,72.05,147.15Z"/><path class="cls-14" d="M87.11,165.38c5-.48,8.17-2.66,10.17-5.34-2.58-4.27-6.57-7-11.06-7-4.3,0-8.16,2.53-10.74,6.51A12,12,0,0,0,87.11,165.38Z"/><path class="cls-15" d="M86.35,89.68c8.7-.24,18.76-.5,28-.73-2.64-4.25-7.29-11.68-10.39-16.22-4.54-6.66-3-9.51-24.62-8.08S46.19,64.33,39.91,70,22.1,95.38,22.1,95.38l6.42,2.37V96.07A390.23,390.23,0,0,1,86.35,89.68Z"/><path class="cls-8" d="M27.91,72a77.91,77.91,0,0,0-4.85,15.55,28.28,28.28,0,0,0,2,17.4c.14-.38.73-1.14,2.54-2.65,6.43-5.36,7.76-14,14-19.61,5-4.53,10-9,15-13.55l4.29-3.91c-12.31,11.17-10,29-5.06,17.75S82.52,58.75,75.89,64.77s-4.55,28.51,0,17.43S96.12,65.39,91.7,69.4a10.81,10.81,0,0,0-3.6,9.15c8.38-7.6,22.52-6.18,22.52-6.18-.8-.08-3.58-4.33-4.31-5A31.35,31.35,0,0,0,100,62.63c-6.06-3.45-13.09-5.38-20-6.64-13.37-2.42-32.38-4.53-43.4,4.53A31.84,31.84,0,0,0,27.91,72Zm-2.67,33.35-.19-.4C24.91,105.36,25.24,105.36,25.24,105.36Z"/></g></g></svg>