<svg xmlns="http://www.w3.org/2000/svg" viewBox="0 0 160.94 260.04"><defs><style>.cls-1{fill:#393c3d;}.cls-2{fill:#515151;}.cls-3{fill:#4c3626;}.cls-4{fill:#f4d3b0;}.cls-5{fill:#f9dab4;}.cls-6{fill:#efc4a0;}</style></defs><title>资源 158</title><g id="图层_2" data-name="图层 2"><g id="Layer_1" data-name="Layer 1"><path class="cls-1" d="M57.48,158.2s-16.14-8.72-34,31.82c-14.65,33.22-15.72,61-15.63,70h46C58.06,229.77,66.66,160.58,57.48,158.2Z"/><path class="cls-1" d="M103.47,158.2c-9.19,2.38-.58,71.57,3.64,101.84h46c.09-9-1-36.8-15.62-70C119.6,149.48,103.47,158.2,103.47,158.2Z"/><path class="cls-2" d="M80.36,155.61,53.1,153.82S31.88,250.08,30.53,257.1c-.17.89-.37,1.88-.55,2.94H131c-.18-1.06-.38-2.05-.55-2.94-1.36-7-22.58-103.28-22.58-103.28l-27.25,1.79Z"/><path class="cls-1" d="M131,260c-.18-1.06-.38-2.05-.55-2.94-1.36-7-22.58-103.28-22.58-103.28l-26,1.71c-.2,5-1.86,9.93-6.27,12.6s-8.94,4.75-10.07,10.55C64.69,183,64.41,189,70,190.49a31.33,31.33,0,0,0,5.59.91,1.3,1.3,0,0,1,2.07,1V260Z"/><path class="cls-2" d="M131,260c-.18-1.06-.38-2.05-.55-2.94-1.36-7-22.58-103.28-22.58-103.28l-24.28,1.6c.94,5.64,1,12.54-4,14.81-5.25,2.38-10.8,1-11.88,8.27-.67,4.45-.52,9.28,5.46,9.39,2,0,3.9,0,5.85,0a2.16,2.16,0,0,1,.27,0,1.24,1.24,0,0,1,1.36,1.26V260Z"/><path class="cls-1" d="M84.12,180.52a5.1,5.1,0,1,1-5.1-5.1A5.1,5.1,0,0,1,84.12,180.52Z"/><path class="cls-3" d="M8.73,103.81s-19.92-56.89,5.59-64.09c0,0-4.58-28.12,43.48-37.28s87,8.51,96.46,34.66,5.37,61.8-4.5,72.6l-66.12,5.23Z"/><path class="cls-4" d="M20.27,104.25S12.11,94.23,3,98.89,6.53,134,24.47,136.48Z"/><path class="cls-4" d="M140.68,104.25s8.15-10,17.24-5.36-3.5,35.11-21.44,37.59Z"/><path class="cls-5" d="M150.76,83.24,137.24,50.35,85.7,48.75H76.63l-51.54,1.6L10,83.24S8.31,117.07,26.69,139c16.15,19.31,34.44,25.81,50.57,27.48a22.94,22.94,0,0,0,3.9.24,23,23,0,0,0,3.91-.24c16.12-1.67,34.42-8.17,50.57-27.48C154,117.07,150.76,83.24,150.76,83.24Z"/><path class="cls-3" d="M11.08,101.9s5.24,26.56,9.81,25.25,6.46-54.4,6.46-54.4S42.72,66,50.89,53.66c0,0,50-7.45,65.73,1.08s22.56,7.87,25.18,28.8,10.33,14.11,10.33,14.11S157.49,41,130,37.1,20.58,34.16,20.58,34.16L3.81,66.86Z"/><path class="cls-1" d="M16.83,96.07H79.32s5.22,36.38-31.25,38S16.83,96.07,16.83,96.07Z"/><path class="cls-1" d="M144.11,96.07H81.63s-5.22,36.38,31.25,38S144.11,96.07,144.11,96.07Z"/><path class="cls-1" d="M150.55,97.92v-2H10.4v2.23a18.82,18.82,0,0,1,4.62,2.4H145.29A18.61,18.61,0,0,1,150.55,97.92Z"/><polygon class="cls-3" points="97.56 81.56 98.96 87.99 123.34 83.74 122.03 75.08 97.56 81.56"/><polygon class="cls-3" points="63.48 81.69 61.56 87.99 37.61 81.78 39.61 73.25 63.48 81.69"/><path class="cls-6" d="M70.28,135.3s2.31,7.42,9.77,7.89,10.62-9.07,10.62-9.07-4.69,7.08-10.6,6.43A16.52,16.52,0,0,1,70.28,135.3Z"/><path class="cls-6" d="M51.49,149.59A138.79,138.79,0,0,0,66,151c4.82.22,9.64.31,14.46.21,9.66-.12,19.28-.91,29-1.58a112.51,112.51,0,0,1-29,4.19A104.45,104.45,0,0,1,65.78,153,61.49,61.49,0,0,1,51.49,149.59Z"/></g></g></svg>