<svg xmlns="http://www.w3.org/2000/svg" viewBox="0 0 245.38 260"><defs><style>.cls-1{fill:#f2d0af;}.cls-2{fill:#ddb58e;}.cls-3{fill:#fc6;}.cls-4{fill:#d88832;}.cls-5{fill:#3a332d;}.cls-6{fill:#393c3d;}.cls-7{fill:#f4d3b0;}.cls-8{fill:#e8dfd9;}.cls-9{fill:#c65044;}</style></defs><title>资源 243</title><g id="图层_2" data-name="图层 2"><g id="Layer_1" data-name="Layer 1"><path class="cls-1" d="M170.38,174c-6.88-20.33-22.78-7.21-22.78-7.21L159.73,260h24.09C180.26,227.54,174.59,186.42,170.38,174Z"/><path class="cls-1" d="M45.76,215.24C41.38,226.05,62.51,254.23,67,260H85.18a29.29,29.29,0,0,0-4.94-11.23C64.77,226.85,60.9,218.14,60.9,218.14l30.3-32.55v-23S56.41,188.94,45.76,215.24Z"/><path class="cls-2" d="M80.24,248.77c-1.51-2.15-2.89-4.14-4.19-6C75,247.14,73.7,251.69,74,256a10.32,10.32,0,0,0,1.17,4h10A29.11,29.11,0,0,0,80.24,248.77Z"/><rect class="cls-1" x="81.07" y="248.67" width="85.6" height="11.33"/><path class="cls-3" d="M157.38,156.16l-32.09-3.5v-.15l-.68.07-.68-.07v.15l-32.09,3.5s-17,98-15.86,100.89,7.68,4.51,15.86,0,11.45-.83,17.18,2c5.46,2.7,10.79-3,15.59-3.84,4.8.82,10.13,6.54,15.59,3.84,5.73-2.83,9-6.52,17.18-2s14.73,2.9,15.86,0S157.38,156.16,157.38,156.16Z"/><path class="cls-4" d="M123.36,201h-.57A19,19,0,0,1,109,194.73c-11.15-12-10.11-37-10.06-38.09l.06-1.23h51.47l0,1.33C150.3,158.55,148.43,201,123.36,201Zm-21.92-43c-.06,5.16.33,25.22,9.41,35a16.42,16.42,0,0,0,12,5.4h.51c20.28,0,23.82-33.26,24.35-40.4Z"/><path class="cls-4" d="M129.62,207.88c0,4.41-3,8-6.62,8s-6.63-3.57-6.63-8,3-8,6.63-8S129.62,203.47,129.62,207.88Z"/><path class="cls-2" d="M147.17,162.58c0,9.1-10.1,16.47-22.56,16.47s-22.56-7.37-22.56-16.47,10.1-16.46,22.56-16.46S147.17,153.49,147.17,162.58Z"/><path class="cls-5" d="M220.14,82.67c0-3.56,11.57-21.36,11.57-21.36L205.6,53.9l9.5-17.21H193.36C179.49,15.53,153.9,1.06,124.34,0h-3.29C91.49,1.06,65.89,15.53,52,36.69H30.28l9.5,17.21L13.67,61.31s11.57,17.8,11.57,21.36S-.87,113.23,0,114.42s34.71,12.16,34.71,12.16S28.5,145,28.8,145.28s23.74-9.84,23.74-9.84S48.09,159.52,49,159.81s17.8-6.52,17.8-6.52L64.7,167.82l29.37-13.94-5.21-14.7a92.76,92.76,0,0,0,32.19,6.9v.08c.55,0,1.09,0,1.64,0s1.09,0,1.65,0v-.08a92.75,92.75,0,0,0,32.18-6.9l-5.21,14.7,29.37,13.94-2.07-14.53s16.91,6.82,17.8,6.52-3.56-24.37-3.56-24.37,23.44,10.13,23.73,9.84-5.93-18.7-5.93-18.7,33.82-11,34.71-12.16S220.14,86.23,220.14,82.67Z"/><path class="cls-6" d="M51.05,91.87,18.77,112.21s23.68,8.14,40.56,6.28c7.63-.85,15.36-1.61,22.87-3.29C72.35,105.35,51.05,91.87,51.05,91.87Z"/><path class="cls-7" d="M63.21,99.34s-9.14-6.61-16.57,0c-7.14,6.37-2.36,39.39,27.22,35.83Z"/><path class="cls-7" d="M186.75,97.86s9.13-6.61,16.56,0c7.15,6.37,2.36,39.38-27.21,35.83Z"/><path class="cls-1" d="M190.88,112c0,39.81-29.65,54-66.23,54S58.4,151.78,58.4,112c0-2,.08-24.41.23-26.47,2.79-38.67,31.28-63.73,66-63.73s63.2,25,66,63.69C190.81,87.53,190.88,109.94,190.88,112Z"/><path class="cls-5" d="M51.05,91.87l-25.51,19s33.52,6.23,52.51-8l-6.53,9.36s20.48-4,31.45-12c0,0,62.86-.43,86.64-22.25s.89-48.36-34.42-57.86S48.09,19.78,51.05,91.87Z"/><path class="cls-5" d="M178.19,103.74s-11.73-2.26-21.64-.58l.36-2c.43-2.46,3.62-4.36,10-4.75s10.23,1.56,10.73,4.39Z"/><path class="cls-5" d="M163.46,120.12a1.27,1.27,0,0,1-.11-2.54c.08,0,8.8-.87,12.21-2.94a1.27,1.27,0,0,1,1.32,2.18c-3.91,2.36-12.91,3.26-13.29,3.29Z"/><path class="cls-5" d="M164.83,117.33h-.19a1.29,1.29,0,0,1-1.26-1.29,1.27,1.27,0,0,1,1.28-1.25h.16c6.42,0,10.24-5.25,10.27-5.3a1.27,1.27,0,0,1,2.08,1.47C177,111.23,172.59,117.33,164.83,117.33Z"/><path class="cls-5" d="M157.43,115.32a6.27,6.27,0,1,0,4.6-7.58A6.26,6.26,0,0,0,157.43,115.32Z"/><path class="cls-8" d="M160.7,110.28c0,.92,1.34,1.61,2.92,1.54s2.83-.85,2.79-1.76-1.34-1.61-2.92-1.55S160.66,109.37,160.7,110.28Z"/><path class="cls-5" d="M71.11,103.74s11.72-2.26,21.63-.58l-.35-2c-.44-2.46-3.63-4.36-10-4.75S72.12,98,71.62,100.8Z"/><path class="cls-5" d="M85.83,120.12a1.27,1.27,0,0,0,.12-2.54c-.09,0-8.8-.87-12.22-2.94a1.27,1.27,0,1,0-1.31,2.18c3.9,2.36,12.91,3.26,13.29,3.29Z"/><path class="cls-5" d="M84.47,117.33h.18A1.28,1.28,0,0,0,85.91,116a1.27,1.27,0,0,0-1.27-1.25h-.16c-6.43,0-10.24-5.25-10.28-5.3A1.27,1.27,0,0,0,72.12,111C72.31,111.23,76.7,117.33,84.47,117.33Z"/><path class="cls-5" d="M91.87,115.32a6.27,6.27,0,1,1-4.61-7.58A6.27,6.27,0,0,1,91.87,115.32Z"/><path class="cls-8" d="M88.6,110.28c0,.92-1.35,1.61-2.93,1.54s-2.83-.85-2.79-1.76,1.35-1.61,2.93-1.55S88.64,109.37,88.6,110.28Z"/><path class="cls-9" d="M113.51,144.74s2.8-4.36,6-4.16,5,3.42,5,3.42,2.91-3.35,6.32-3.28,4.9,4.36,4.9,4.36-3.39,8.17-11.47,8.17S113.51,144.74,113.51,144.74Z"/><path class="cls-2" d="M119.07,125.3s.55-5.16,5.36-5.18,5.79,5.18,5.79,5.18-2.62-3.18-5.7-3.18S119.07,125.3,119.07,125.3Z"/></g></g></svg>