<svg xmlns="http://www.w3.org/2000/svg" viewBox="0 0 163.1 260.03"><defs><style>.cls-1{fill:#f7cea6;}.cls-2{fill:#f9dab4;}.cls-3{fill:#e55420;}.cls-4{fill:#ef6535;}.cls-5{fill:#2f3233;}.cls-6{fill:#7f5732;}.cls-7{fill:#efc4a0;}.cls-8{fill:#47413e;}.cls-9{fill:#f9f7f2;}.cls-10{fill:#4c3626;}.cls-11{fill:#393c3d;}.cls-12{fill:#54a3b5;}.cls-13{fill:#f9f5ed;}.cls-14{fill:#e5be9e;}.cls-15{fill:#dda880;}.cls-16{fill:#962727;}</style></defs><title>资源 40</title><g id="图层_2" data-name="图层 2"><g id="Layer_1" data-name="Layer 1"><path class="cls-1" d="M56,211.67l-39.39-2.62S12.85,240.84,11,260v0H56Z"/><path class="cls-2" d="M13,260H34.36c0-1.3,0-2.59,0-3.89a102.94,102.94,0,0,1,.86-12.55c.66-4.8.88-9.86-1.17-14.29-1.5-3.23-5.33-3.56-8.13-3.5s-6.4-.38-8.47,1.86a5.48,5.48,0,0,0-1.21,2.15c-1.05,3.25-.42,7-.78,10.43C14.78,246.88,13.58,253.4,13,260Z"/><path class="cls-3" d="M47.07,154S17.94,169.05,9.41,210.87c-1.11,5.46,1.43,7.84,10.4,9.87,11.49,2.59,30.92.72,30.92.72V154Z"/><path class="cls-4" d="M26.11,218.2s-11-.33-12.32-9.75,14.59-37.71,21-41.63,9.27-3.68,7.85,6.54-5.2,40.27-5.2,44.18C33.88,219.5,26.11,218.2,26.11,218.2Z"/><path class="cls-1" d="M155.66,260v0c-1.9-19.15-5.69-50.94-5.69-50.94l-39.39,2.62V260Z"/><path class="cls-2" d="M151.13,240.24c-.36-3.39.28-7.18-.77-10.43a5.61,5.61,0,0,0-1.21-2.15c-2.07-2.24-5.65-1.8-8.47-1.86s-6.63.27-8.13,3.5c-2.21,4.78-1.34,11.54-.86,16.67.29,3.09.51,9.18.59,14.06h21.33C153,253.4,151.84,246.88,151.13,240.24Z"/><path class="cls-3" d="M119.55,154s28.41,14.3,37.12,54.25c.39,1.79,0,7.89-8.76,10.39-11.45,3.29-32,2.84-32,2.84V154Z"/><path class="cls-4" d="M140.51,218.2s11-.33,12.32-9.75-14.6-37.71-21-41.63-9.26-3.68-7.85,6.54,5.2,40.27,5.2,44.18C132.74,219.5,140.51,218.2,140.51,218.2Z"/><rect class="cls-1" x="57.12" y="148.69" width="57.73" height="73.52"/><path class="cls-3" d="M129.87,260C127.8,221,119.48,159,119.48,159l-59.22-1.48L47.59,156.1S40.8,211.25,36,260Z"/><path class="cls-4" d="M125.57,235.79c-1-11.73-5.36-53.59-6.4-60.69s-5.21-5.87-8.93-4.64-50.15,1.08-56.69-.46-6.72,2.62-6.72,2.62-5.22,59.47-6.56,69A102.52,102.52,0,0,0,39.17,260h88.54C128,251.93,126.13,242.16,125.57,235.79Z"/><path class="cls-5" d="M59.66,156.22h0Zm51.64,0Z"/><path class="cls-6" d="M138.2,20.08c2.36-3.21,5.49-7.07,7.81-8.47,4.23-2.55-9.8-1.33-15.89,2.34C134.53,4.2,128.83-.53,129,2.26c.16,2.29-2.09,7.58-2.87,9.34a95.4,95.4,0,0,0-13.1-6.19C50.2-18.83-32.87,41.86,13.48,118.26H153.93S179.6,55.86,138.2,20.08Z"/><path class="cls-2" d="M23.74,76.77v43.1c0,16.2,16.31,45.94,53.05,46.86,41.05,1,62.58-6.94,69.34-60.75V75.9s.21-45.28-62.62-45.28S23.74,76.77,23.74,76.77Z"/><path class="cls-7" d="M90.58,123.88a3.36,3.36,0,0,1,1,2.24c0,2.64-3.65,4.78-8.15,4.78s-8.15-2.14-8.15-4.78a3.36,3.36,0,0,1,1-2.24,4.78,4.78,0,0,0-2.56,3.86c0,3.16,4.37,5.73,9.76,5.73s9.76-2.57,9.76-5.73A4.78,4.78,0,0,0,90.58,123.88Z"/><path class="cls-8" d="M54,107.22a8.8,8.8,0,0,1-9.47,8,8.65,8.65,0,0,1-8.48-8.9,8.81,8.81,0,0,1,9.47-8A8.67,8.67,0,0,1,54,107.22Z"/><path class="cls-9" d="M50.56,104.63c-.69,1.56-3.15,2.09-5.48,1.18s-3.68-2.92-3-4.49,3.15-2.09,5.49-1.18S51.25,103.06,50.56,104.63Z"/><path class="cls-8" d="M107.21,107.22a8.78,8.78,0,0,0,9.46,8,8.65,8.65,0,0,0,8.48-8.9,8.81,8.81,0,0,0-9.46-8A8.66,8.66,0,0,0,107.21,107.22Z"/><path class="cls-9" d="M110.67,104.63c.69,1.56,3.15,2.09,5.49,1.18s3.67-2.92,3-4.49-3.15-2.09-5.49-1.18S110,103.06,110.67,104.63Z"/><path class="cls-6" d="M152.59,46.71s-5.53,20.36-33.91,22.39c0,0-12.27,12.9-40.17,9.73,0,0-8.17,6.11-30.78,2,0,0-14.91,4.3-27.66-.68,0,0-4.81,3.45-14.19,2.4L46,13.25Z"/><path class="cls-10" d="M29.31,70.06a23.62,23.62,0,0,1-4.54,11.55,32.07,32.07,0,0,1-4.7-1.42A26,26,0,0,0,29.31,70.06Z"/><path class="cls-10" d="M59.23,67.88a14.63,14.63,0,0,1-5.72,13.85c-1.82-.21-3.74-.5-5.78-.86C47.73,80.87,58.32,77.61,59.23,67.88Z"/><path class="cls-10" d="M85.63,65.52s2.28,7.86-1.19,13.76q-2.84-.11-5.93-.45S85.43,73.64,85.63,65.52Z"/><path class="cls-10" d="M124.15,56.38s1.8,4.54-1.87,12.35c-1.16.16-2.36.28-3.6.37A30.26,30.26,0,0,0,124.15,56.38Z"/><path class="cls-11" d="M84.21,95.64H18.5v9.8s9.43,1.83,13.58,9c3.67,6.35,3.79,19.75,21.16,21.49,22.54,2.27,17.52-14.37,25.36-16.44,4.22-1.12,4.22-1.09,5.61-1.09s1.4,0,5.62,1.09c7.84,2.07,2.82,18.71,25.36,16.44,17.37-1.74,17.49-15.14,21.16-21.49,4.15-7.18,13.59-7.86,13.59-7.86v-11Z"/><path class="cls-12" d="M134.05,98.77H34.38a58.68,58.68,0,0,0,2.29,16.36c2.49,8.12,6.09,15.75,16,17.55,16.63,3,17-11.66,21-15,3.4-2.78,8.42-3.43,10.54-3.43s7.14.65,10.54,3.43c4,3.3,4.4,18,21,15,9.9-1.8,13.51-9.43,16-17.55A58.68,58.68,0,0,0,134.05,98.77Z"/><path class="cls-13" d="M95.05,98.77,82.16,114.43a17.53,17.53,0,0,1,2-.14c2.13,0,7.14.65,10.54,3.43a10.66,10.66,0,0,1,2.32,3.47l18.44-22.42Z"/><path class="cls-13" d="M123,98.77l-23,28a14.37,14.37,0,0,0,4,4.23l26.52-32.22Z"/><path class="cls-2" d="M27.13,109.9s-10.87-11.61-20.65,0,3.28,33.43,20.65,21.18Z"/><path class="cls-14" d="M20.67,126s.94-13.52-4.56-13.52S8.82,126,20.67,126Z"/><path class="cls-1" d="M16.11,112.45a4.08,4.08,0,0,0-3.55,2.63c2.56,2.62,6.43,6.94,8.13,10.64C20.78,123.9,21.17,112.45,16.11,112.45Z"/><path class="cls-2" d="M139.81,110.87S151.5,100,160.4,112.23s-5.75,33.13-22.17,19.77Z"/><path class="cls-14" d="M145.05,127.33s.07-13.55,5.56-13.19S156.88,128.11,145.05,127.33Z"/><path class="cls-1" d="M150.61,114.14A4,4,0,0,1,154,117c-2.74,2.44-6.92,6.5-8.89,10.08C145.1,125.26,145.56,113.8,150.61,114.14Z"/><polygon class="cls-6" points="67.82 91.37 40.84 92.99 44.01 87.37 67.45 85.96 67.82 91.37"/><polygon class="cls-6" points="102.31 89.29 129.28 90.92 126.12 85.3 102.68 83.88 102.31 89.29"/><path class="cls-15" d="M66.31,146.52l2.62,19.54a65.35,65.35,0,0,0,7.86.67c11,.28,20.68-.1,29-1.85l1.42-18.36A96.93,96.93,0,0,1,66.31,146.52Z"/><path class="cls-16" d="M105.79,164.85c-2.64-5.16-9.68-8.86-18-8.86-8.94,0-16.44,4.31-18.5,10.12a65.43,65.43,0,0,0,7.46.62c11,.28,20.68-.1,29-1.85Z"/></g></g></svg>