<svg xmlns="http://www.w3.org/2000/svg" viewBox="0 0 207.37 259.96"><defs><style>.cls-1{fill:#f9dab4;}.cls-2{fill:#ef9a9a;}.cls-3{fill:#e28181;}.cls-4{fill:#ef7f7f;}.cls-5{fill:#d34646;}.cls-6{opacity:0.36;}.cls-7{fill:#a53f3f;}.cls-8{fill:#d14e4e;}.cls-9{fill:#e0605c;}.cls-10{fill:#2f3233;}.cls-11{fill:#e5be9e;}.cls-12{fill:#f7cea6;}.cls-13{fill:#f9f7f2;}.cls-14{fill:#393c3d;}.cls-15{fill:#54a3b5;}.cls-16{fill:#f9f5ed;}.cls-17{fill:#ad3936;}</style></defs><title>资源 128</title><g id="图层_2" data-name="图层 2"><g id="Layer_1" data-name="Layer 1"><path class="cls-1" d="M64.74,256.49c-.38,1.19-.76,2.35-1.12,3.47H87.29l.48-1.47,2.08-9.71-20.54-2S67.08,249.09,64.74,256.49Z"/><path class="cls-2" d="M114.18,165.52s-12.44-4.84-23.38,22.72S66.52,247,66.52,247l23.92,6.88S117,170.45,114.18,165.52Z"/><path class="cls-3" d="M90.44,253.84s26.53-83.39,23.74-88.32c0,0-7.05-2.75-15.21,7.67,1.67,1.9,4.82,7.34,1,19.06-4.32,13.4-16.56,49.88-19.53,58.72Z"/><path class="cls-4" d="M92.46,250.35l-24.93-7.21s-2-.73-2.5,3-1.57,5.1,3,6.91,21.21,9.64,23.13,5.35S93.65,250.83,92.46,250.35Z"/><path class="cls-5" d="M65,246.09c.47-3.68,2.5-3,2.5-3l2,.56a27.65,27.65,0,0,0-2.27,9C63.6,251,64.6,249.53,65,246.09Z"/><path class="cls-5" d="M76.68,245.78l-2.56,9.77c-1.39-.57-2.67-1.11-3.76-1.57l3-9.14Z"/><path class="cls-5" d="M83,258.69c-1.28-.35-2.62-.79-4-1.27l2.72-10.18,3.84,1.11Z"/><path class="cls-5" d="M89.06,249.37l3.4,1c1.19.48.6,3.7-1.32,8-.45,1-1.74,1.34-3.48,1.24A102,102,0,0,0,89.06,249.37Z"/><g class="cls-6"><path class="cls-7" d="M92.4,255.13c-.32,1-.74,2.05-1.26,3.22C89.22,262.64,72.56,254.81,68,253s-3.44-3.24-3-6.91C65,246.09,78.8,255.75,92.4,255.13Z"/></g><path class="cls-1" d="M203,256.49c.38,1.19.76,2.35,1.12,3.47H180.44l-.48-1.47-2.08-9.71,20.54-2S200.65,249.09,203,256.49Z"/><path class="cls-2" d="M153.55,165.52s12.44-4.84,23.39,22.72S201.22,247,201.22,247l-23.93,6.88S150.77,170.45,153.55,165.52Z"/><path class="cls-3" d="M177.29,253.84s-26.52-83.39-23.74-88.32c0,0,7.06-2.75,15.21,7.67-1.67,1.9-4.81,7.34-1,19.06,4.32,13.4,16.56,49.88,19.52,58.72Z"/><path class="cls-4" d="M175.28,250.35l24.92-7.21s2-.73,2.5,3,1.57,5.1-3,6.91-21.21,9.64-23.13,5.35S174.08,250.83,175.28,250.35Z"/><path class="cls-5" d="M202.7,246.09c-.46-3.68-2.5-3-2.5-3l-1.95.56a27.91,27.91,0,0,1,2.27,9C204.13,251,203.13,249.53,202.7,246.09Z"/><path class="cls-5" d="M191.06,245.78l2.56,9.77c1.39-.57,2.66-1.11,3.75-1.57l-3.05-9.14Z"/><path class="cls-5" d="M184.78,258.69c1.28-.35,2.62-.79,4-1.27L186,247.24l-3.83,1.11Z"/><path class="cls-5" d="M178.67,249.37l-3.39,1c-1.2.48-.6,3.7,1.31,8,.46,1,1.74,1.34,3.48,1.24C179.44,256.75,178.93,252,178.67,249.37Z"/><g class="cls-6"><path class="cls-7" d="M175.34,255.13c.32,1,.73,2.05,1.25,3.22,1.92,4.29,18.58-3.54,23.13-5.35s3.44-3.24,3-6.91C202.7,246.09,188.93,255.75,175.34,255.13Z"/></g><path class="cls-2" d="M131,166.29c-5.86,0-12.51-.25-18.32.62-2,.29-5.29,13-5.27,14.37,0,0-10.73,57-12.36,78.68h79l-17.15-93.42C154.48,163.36,144.7,166.27,131,166.29Z"/><path class="cls-3" d="M111.14,166.8s18,8.69,45.72,0c.76-.23.81-4.68.82-5.24a12.19,12.19,0,0,0-.64-4.22c-.43-1.15-1.31-2.68-2.83-3-2.32-.43-5.52,1-7.83,1.34-5.64.75-11.28,1.22-17,1.46-3.09.13-6.22.09-9.31,0-2.06-.07-5.49-1.13-7.4-.27-1.49.68-1.43,2.69-1.69,3.92A14.7,14.7,0,0,0,111.14,166.8Z"/><path class="cls-8" d="M145.63,188.56c-2.43-3.17-3.24-7.81-3.51-11.65a45.42,45.42,0,0,1,.07-6.89.55.55,0,0,1,.62-.46.51.51,0,0,1,.5.55,44.22,44.22,0,0,0-.06,6.74c.24,3.73,1.1,8.19,3.26,11.07a4,4,0,0,1,1.75-.51,3.71,3.71,0,0,1,4.06,3.25,3.61,3.61,0,0,1-3.6,3.67,3.72,3.72,0,0,1-4.06-3.25A3.21,3.21,0,0,1,145.63,188.56Z"/><path class="cls-8" d="M116.67,188.13c-1.31-3.87-.47-8.74.63-12.66a49.69,49.69,0,0,1,2.51-6.87.63.63,0,0,1,.79-.28.51.51,0,0,1,.3.7,48.74,48.74,0,0,0-2.45,6.72c-1.09,3.8-1.82,8.5-.68,12a4.33,4.33,0,0,1,1.93,0,3.62,3.62,0,0,1,2.91,4.42,4.09,4.09,0,0,1-4.9,2.63,3.63,3.63,0,0,1-2.91-4.43A3.71,3.71,0,0,1,116.67,188.13Z"/><path class="cls-9" d="M104.69,258.19a.76.76,0,0,1,.69-.83h0c4.15-.4,6.43-2.05,7.81-4.14h0a12.93,12.93,0,0,0,1.76-7h0a22.48,22.48,0,0,0-.27-3.37h0c-.14-.85-.27-1.35-.27-1.35h0a.77.77,0,0,1,.55-.93h0a.77.77,0,0,1,.93.55h0a21.89,21.89,0,0,1,.59,5.1h0a14.26,14.26,0,0,1-2,7.79h0c-1.59,2.48-4.44,4.42-9,4.83h-.07a.76.76,0,0,1-.76-.69Z"/><path class="cls-9" d="M163.6,258.19a.76.76,0,0,0-.69-.83h0c-4.15-.4-6.44-2.05-7.81-4.14h0a12.85,12.85,0,0,1-1.77-7h0a22.48,22.48,0,0,1,.27-3.37h0c.14-.85.27-1.35.27-1.35h0a.77.77,0,0,0-.54-.93h0a.78.78,0,0,0-.94.55h0a21.89,21.89,0,0,0-.59,5.1h0a14.35,14.35,0,0,0,2,7.79h0c1.6,2.48,4.44,4.42,8.95,4.83h.07a.77.77,0,0,0,.77-.69Z"/><path class="cls-9" d="M113.55,234.18v-29.6H151v29.6Zm36.85-.57v0ZM114.7,233h35.12V205.73H114.7V233Z"/><polygon class="cls-9" points="114.13 205.16 118.47 216.97 126.52 205.16 132.26 216.72 138.26 205.16 142.99 216.33 150.39 205.16 114.13 205.16"/><polygon class="cls-9" points="150.39 233.35 146.05 221.54 138.01 233.35 132.26 221.8 126.26 233.35 121.54 222.18 114.13 233.35 150.39 233.35"/><path class="cls-10" d="M162.7,148.67s32.77-1.2,42.8-57.72S183.43,9.17,151.33,2,73.09,7.23,64.07,43.45c-6.6,0-5,6.61-4.36,24s4,75.76,46.81,84.18S162.7,148.67,162.7,148.67Z"/><path class="cls-1" d="M182.37,108.91s10.22-9.71,19.43,0-3.09,27.93-19.43,17.69Z"/><path class="cls-11" d="M188.45,122.34S187.57,111,192.73,111,199.6,122.34,188.45,122.34Z"/><path class="cls-12" d="M192.73,111a3.84,3.84,0,0,1,3.35,2.21c-2.41,2.18-6.05,5.8-7.65,8.89C188.34,120.61,188,111,192.73,111Z"/><path class="cls-1" d="M83,108.91s-10.22-9.71-19.43,0S66.61,136.84,83,126.6Z"/><path class="cls-11" d="M76.88,122.34S77.76,111,72.59,111,65.72,122.34,76.88,122.34Z"/><path class="cls-12" d="M72.59,111a3.83,3.83,0,0,0-3.34,2.21c2.4,2.18,6,5.8,7.64,8.89C77,120.61,77.35,111,72.59,111Z"/><path class="cls-1" d="M189.31,105.08c0,34-25.08,61.63-56,61.63s-56-27.59-56-61.63,25.09-61.63,56-61.63S189.31,71,189.31,105.08Z"/><path class="cls-9" d="M63.64,69.7a6,6,0,0,1-6.17,5.82h0a6,6,0,0,1-6.16-5.82V60.38a6,6,0,0,1,6.16-5.82h0a6,6,0,0,1,6.17,5.82Z"/><path class="cls-10" d="M57.2,64.7a26.33,26.33,0,0,0-.18-5S39.09,46.4,24.89,61.61s-9.42,39.56-7,57.6S14,135.44,10.46,128s-7.88-4.28-3.58,7c-9.79-5.19-9.32,7,2.62,18.26s50.58,8.35,52.3-21.42S39.35,70.5,56.07,70.5c.38,0,1.08-5.21,1.13-5.73Z"/><path class="cls-10" d="M75.41,74.94s3.74,14,15.52,18.86c0,0-1.59-21.79,7-26.9,0,0-.64,15.57,20.69,23.14,0,0-15.92-20.14-3.82-34.27,0,0-1.91,23.15,18.47,31.87,0,0-13.22-19.09,0-31.57,0,0-4.46,15.94,5.09,22.55,0,0-6.42-23.1,8-24.65,6.69,0,8.28,6.91,8.28,6.91s5.41-6,8-3.6,5.41,7.81-.64,22.54c0,0,10.83-8.71,10.83-12.62,0,0,5.73,15.33.79,24.8,0,0,12.9-7.36,15.45-18.79s-13.69-40.29-38.21-45.1S83,31.55,75.41,74.94Z"/><path class="cls-12" d="M128.5,108.89c-1.71,3.65-2.42,7.57-3.65,11.36s-4.66,8.09-3.09,12.29c1.41,3.78,5.63,5.19,9.6,5.39,10.73.56,15.6-3.54,12.62-13.53C142.68,120,135.14,94.72,128.5,108.89Z"/><path class="cls-1" d="M129.51,107.68c-1.44,3.28-2.06,6.8-3.12,10.2s-3.92,7.28-2.66,11c1.13,3.37,4.58,4.6,7.85,4.75,8.85.41,12.9-3.31,10.54-12.23C141.09,117.55,135.12,94.93,129.51,107.68Z"/><path class="cls-13" d="M131,132.73c.11.52,1.3.75,2.65.5s2.36-.88,2.24-1.4-1.3-.75-2.65-.5S130.91,132.2,131,132.73Z"/><path class="cls-14" d="M133.83,94.66H70.39v9.26s9.11,1.72,13.11,8.51c3.55,6,3.66,18.66,20.43,20.31,21.76,2.14,16.92-13.58,24.49-15.54,4.07-1.06,4.07-1,5.41-1s1.35,0,5.42,1c7.57,2,2.73,17.68,24.49,15.54,16.76-1.65,16.87-14.31,20.42-20.31,4-6.79,13.11-7.42,13.11-7.42V94.66Z"/><path class="cls-15" d="M181.94,97.62H85.73a54.44,54.44,0,0,0,2.21,15.45c2.4,7.67,5.88,14.89,15.44,16.58,16,2.84,16.39-11,20.28-14.12,3.28-2.63,8.12-3.25,10.17-3.25s6.89.62,10.17,3.25c3.9,3.11,4.24,17,20.29,14.12,9.56-1.69,13-8.91,15.44-16.58A54.44,54.44,0,0,0,181.94,97.62Z"/><path class="cls-16" d="M144.29,97.62l-12.44,14.8a16.24,16.24,0,0,1,2-.14c2,0,6.89.62,10.17,3.25a9.82,9.82,0,0,1,2.24,3.27L164,97.62Z"/><path class="cls-16" d="M171.28,97.62l-22.22,26.44a13.65,13.65,0,0,0,3.88,4l25.59-30.44Z"/><path class="cls-9" d="M120.41,141.86H148s1.52,17.22-13.05,18.69C123.45,161.39,120.56,148.58,120.41,141.86Z"/><path class="cls-17" d="M135,160.55a13,13,0,0,0,9.84-5.48c-2.5-4.38-6.36-7.19-10.7-7.19-4.17,0-7.89,2.59-10.39,6.68C125.94,158.24,129.47,161,135,160.55Z"/></g></g></svg>