<svg xmlns="http://www.w3.org/2000/svg" viewBox="0 0 204.61 260"><defs><style>.cls-1{fill:#6b4627;}.cls-2{fill:#d15852;}.cls-3{fill:#e0605c;}.cls-4{fill:#efc4a0;}.cls-5{fill:#ad3936;}.cls-6{fill:#ba443e;}.cls-7{fill:#f9dab4;}.cls-8{fill:#3a332d;}.cls-9{fill:#c65044;}</style></defs><title>资源 183</title><g id="图层_2" data-name="图层 2"><g id="Layer_1" data-name="Layer 1"><path class="cls-1" d="M178.43,68.56l-71.05-5.8v-.82l-5.07.41-5.07-.41v.82l-71.06,5.8s5.64,92.15,5.49,104S18.07,252,38.43,248.43c14.53-2.57,43.45-2.68,58.81-2.54v.16l5.07-.09,5.07.09v-.16c15.36-.14,44.28,0,58.81,2.54,20.35,3.6,6.91-64,6.76-75.85S178.43,68.56,178.43,68.56Z"/><path class="cls-2" d="M68.07,163.5c-6.13,9-31,71.51-36.78,78.83-4.63,5.84-5.16,12.68.55,17.67H62l23.65-99.68S74.2,154.48,68.07,163.5Z"/><path class="cls-2" d="M135.66,163.5c-6.13-9-17.59-3.18-17.59-3.18L141.72,260h30.17c5.71-5,5.18-11.83.55-17.67C166.63,235,141.79,172.51,135.66,163.5Z"/><path class="cls-3" d="M78,157.9S62.4,231.48,58.75,260h87.11c-3.64-28.52-19.2-102.1-19.2-102.1H78Z"/><path class="cls-2" d="M119.9,168.11c0,6.5-5.83,15.16-17.59,15.16-12.38,0-17.59-8.66-17.59-15.16s7.87-8.37,17.59-8.37S119.9,161.62,119.9,168.11Z"/><path class="cls-4" d="M115.13,168.46c0,5.83-5.74,10.56-12.82,10.56s-12.82-4.73-12.82-10.56,5.74-10.56,12.82-10.56S115.13,162.63,115.13,168.46Z"/><path class="cls-5" d="M46.92,141.64A6.85,6.85,0,0,0,41.07,145a6.78,6.78,0,0,0-10.22-1.69,6.84,6.84,0,0,0-9.33-6.4,6.6,6.6,0,0,0,.36-2.09A6.87,6.87,0,0,0,15,127.9a5.2,5.2,0,0,0-.69.07,6.86,6.86,0,0,0-3.7-11.51,6.84,6.84,0,0,0-.91-12A6.81,6.81,0,0,0,12.25,94a6.84,6.84,0,0,0,6.63-6.43,6.88,6.88,0,1,0-1.79-5.06,6.8,6.8,0,0,0-5-2.24,6.88,6.88,0,0,0-6.87,6.88,6.77,6.77,0,0,0,1.5,4.23A6.86,6.86,0,0,0,4,104.47a6.85,6.85,0,0,0,1.58,13,6.87,6.87,0,0,0,3.75,12.62,5.2,5.2,0,0,0,.69-.07A6.87,6.87,0,0,0,15,141.64a6.64,6.64,0,0,0,2.45-.47,7,7,0,0,0-.36,2.1A6.88,6.88,0,0,0,24,150.14a6.81,6.81,0,0,0,4.37-1.61,6.86,6.86,0,0,0,12.72,3.56,6.87,6.87,0,1,0,5.85-10.45Z"/><path class="cls-6" d="M37,87.3s-9.15-8.17-18.64-2.94-12.75,20.93-4.9,41.52S43,155.31,58.13,143.54Z"/><path class="cls-5" d="M54.11,146.06a24.9,24.9,0,0,0,4-2.52L37,87.3a20.58,20.58,0,0,0-10.84-4.63C17,89.4,36.81,148.81,54.11,146.06Z"/><path class="cls-5" d="M157.7,141.64a6.82,6.82,0,0,1,5.84,3.31,6.79,6.79,0,0,1,10.23-1.69,6.83,6.83,0,0,1,9.32-6.4,6.78,6.78,0,0,1,6.51-9,5.53,5.53,0,0,1,.7.07A6.85,6.85,0,0,1,194,116.46a6.85,6.85,0,0,1,.92-12,6.88,6.88,0,0,1-4-6.25,6.78,6.78,0,0,1,1.5-4.24,6.85,6.85,0,0,1-6.64-6.43,6.88,6.88,0,1,1,1.79-5.06,6.85,6.85,0,0,1,10.42,8.87,6.86,6.86,0,0,1,2.63,13.11,6.85,6.85,0,0,1-1.58,13,6.86,6.86,0,0,1-3.75,12.62,5.2,5.2,0,0,1-.69-.07,6.86,6.86,0,0,1-5,11.63,6.72,6.72,0,0,1-2.45-.47,7,7,0,0,1,.36,2.1,6.84,6.84,0,0,1-11.25,5.26,6.86,6.86,0,0,1-12.72,3.56,6.87,6.87,0,1,1-5.84-10.45Z"/><path class="cls-6" d="M167.65,87.3s9.15-8.17,18.63-2.94,12.75,20.93,4.91,41.52-29.57,29.43-44.7,17.66Z"/><path class="cls-5" d="M150.5,146.06a25.26,25.26,0,0,1-4-2.52L167.65,87.3a20.53,20.53,0,0,1,10.84-4.63C187.63,89.4,167.81,148.81,150.5,146.06Z"/><path class="cls-1" d="M179.15,66.7c0,36.84-37.29,66.71-76.84,66.71S25.47,103.54,25.47,66.7,62.76,0,102.31,0,179.15,29.86,179.15,66.7Z"/><path class="cls-7" d="M171.45,69.75,136.9,37,33.17,69.75S32.41,160,93.92,166.1a151.5,151.5,0,0,0,16.78,0C172.21,160,171.45,69.75,171.45,69.75Z"/><path class="cls-8" d="M140.61,121h0a1.29,1.29,0,0,1-1.29-1.31c0-.3-.07-7.49-5.95-7.69-6.09-.2-7.54,5.81-7.6,6.07a1.3,1.3,0,0,1-2.54-.58c.66-2.9,3.64-8.32,10.23-8.09s8.48,6.84,8.46,10.3A1.3,1.3,0,0,1,140.61,121Z"/><path class="cls-8" d="M142.84,121a9.37,9.37,0,0,1-2.59-.29,1.3,1.3,0,0,1,.71-2.51,12.21,12.21,0,0,0,6.63-.66,1.3,1.3,0,1,1,.85,2.46A17,17,0,0,1,142.84,121Z"/><path class="cls-8" d="M140.45,118.25h-.1a1.3,1.3,0,0,1,0-2.6h.09c2.39,0,5.67-2.27,6.74-3.14a1.3,1.3,0,0,1,1.66,2C148.66,114.67,144.27,118.25,140.45,118.25Z"/><path class="cls-1" d="M120.59,99.45l.11-3.07a.71.71,0,0,1,.65-.69c3.52-.36,21.06-1.83,29.34,3.11a.71.71,0,0,1,.22,1l-1.69,2.56a.72.72,0,0,1-.85.28c-2.36-.88-12.56-4.21-27-2.46A.71.71,0,0,1,120.59,99.45Z"/><path class="cls-8" d="M61.32,121h0a1.31,1.31,0,0,0,1.3-1.31c0-.3.07-7.49,5.95-7.69,6.09-.2,7.54,5.81,7.59,6.07a1.31,1.31,0,0,0,2.55-.58c-.66-2.9-3.64-8.32-10.23-8.09-6.74.23-8.49,6.84-8.47,10.3A1.31,1.31,0,0,0,61.32,121Z"/><path class="cls-8" d="M59.08,121a9.49,9.49,0,0,0,2.6-.29,1.3,1.3,0,0,0,.89-1.61,1.31,1.31,0,0,0-1.61-.9,12.21,12.21,0,0,1-6.63-.66,1.3,1.3,0,0,0-.85,2.46A17,17,0,0,0,59.08,121Z"/><path class="cls-8" d="M61.48,118.25h.1a1.3,1.3,0,0,0,0-2.6h-.08c-2.39,0-5.68-2.27-6.74-3.14a1.3,1.3,0,1,0-1.66,2C53.26,114.67,57.66,118.25,61.48,118.25Z"/><path class="cls-1" d="M81.34,99.45l-.12-3.07a.7.7,0,0,0-.64-.69c-3.52-.36-21.07-1.83-29.34,3.11a.71.71,0,0,0-.23,1l1.69,2.56a.73.73,0,0,0,.85.28c2.37-.88,12.57-4.21,27-2.46A.72.72,0,0,0,81.34,99.45Z"/><path class="cls-9" d="M86.24,147.68s3.71-4.78,8-4.56a9.11,9.11,0,0,1,6.62,3.74s3.85-3.65,8.35-3.58,6.47,4.77,6.47,4.77A17.44,17.44,0,0,1,100.53,157,15.5,15.5,0,0,1,86.24,147.68Z"/><path class="cls-4" d="M94.06,135.86s.69-6.18,6.64-6.21,7.17,6.21,7.17,6.21-3.25-3.8-7.06-3.8S94.06,135.86,94.06,135.86Z"/><path class="cls-1" d="M32.13,107.9S91.36,96,124.91,59.18c0,0,27.59,36.3,46.33,48.72,0,0,14.63-36,4.42-59.84s-100.45-19-100.45-19S3.36,18,32.13,107.9Z"/></g></g></svg>