<svg xmlns="http://www.w3.org/2000/svg" viewBox="0 0 195.9 259.98"><defs><style>.cls-1{fill:#4c3626;}.cls-2{fill:#3d868e;}.cls-3{fill:#4793a0;}.cls-4{fill:#54a3b5;}.cls-5{fill:#f4d3b0;}.cls-6{fill:#f9dab4;}.cls-7{fill:#393c3d;}.cls-8{fill:#c65044;}.cls-9{fill:#e0dbd3;}.cls-10{fill:#d3cec7;}</style></defs><title>资源 168</title><g id="图层_2" data-name="图层 2"><g id="Layer_1" data-name="Layer 1"><path class="cls-1" d="M151.64,11.35c-19.87-11.84-41.84-3-41.84-3s-29.59-20.71-65.63,3C24.84,24-27.26,91.23,18,168.16l4.65-6.34s10.15,25.78,41,38.46H132.2c30.85-12.68,41-38.46,41-38.46l4.64,6.34C223.07,91.23,171.5,23.18,151.64,11.35Z"/><path class="cls-2" d="M130.63,242s2.83,15.44,4.13,17.86a1,1,0,0,0,.13.17H154.5c2.43-3.69.72-14.29.72-14.29Z"/><path class="cls-3" d="M125.31,156.24S156.65,227.41,158.1,243s-17,19.17-25.59,9.19S111,143.9,125.31,156.24Z"/><path class="cls-2" d="M41.41,260H61a.88.88,0,0,0,.12-.17c1.31-2.42,4.14-17.86,4.14-17.86l-24.59,3.74S39,256.29,41.41,260Z"/><path class="cls-3" d="M70.6,156.24S39.26,227.41,37.81,243s17,19.17,25.59,9.19S85,143.9,70.6,156.24Z"/><path class="cls-4" d="M74.39,149.56S59.25,230.12,58.44,260h79c-.8-29.86-15.94-110.42-15.94-110.42H74.39Z"/><rect class="cls-3" x="96.69" y="172.59" width="2.54" height="87.39"/><path class="cls-2" d="M75.92,147.07l22,5.3,22-5.3s5.17,12.24,2.32,15.45-7.27,7-23.64,7.33v0H97.24v0c-16.37-.32-20.89-4.21-23.64-7.33S75.92,147.07,75.92,147.07Z"/><path class="cls-5" d="M46.21,100.14s-18.6-22.85-28.74-9.33,11,44.8,36.77,40.15Z"/><path class="cls-5" d="M149.7,100.14s18.6-22.85,28.74-9.33-11,44.8-36.77,40.15Z"/><path class="cls-6" d="M127.83,59.11C104.59,79,80.07,75.59,80.07,75.59L92.33,59.11c-16.16,16.82-48.53,24.63-62,27.25,3.85,23.32,17.73,74,65.78,77.57.43,0,.85,0,1.26,0v0l.43,0,.42,0v0c.42,0,.83,0,1.26,0,49.17-3.65,62.56-56.65,66-79.17C141.64,80.5,127.83,59.11,127.83,59.11Z"/><path class="cls-7" d="M33.12,84.47H96.77s5.32,37.05-31.82,38.7S33.12,84.47,33.12,84.47Z"/><path class="cls-7" d="M162.78,84.47H99.13s-5.32,37.05,31.83,38.7S162.78,84.47,162.78,84.47Z"/><path class="cls-7" d="M169.33,86.35v-2H26.57v2.27A19.55,19.55,0,0,1,31.28,89H164A19,19,0,0,1,169.33,86.35Z"/><path class="cls-8" d="M81.55,137.1s3.81-5.93,8.22-5.66,6.8,4.65,6.8,4.65,4-4.55,8.6-4.46,6.65,5.93,6.65,5.93-4.6,11.11-15.59,11.11S81.55,137.1,81.55,137.1Z"/><path class="cls-9" d="M66.35,196.41c-.8,5-1.59,10-2.35,15.08a251.13,251.13,0,0,0,31.58,2,196.72,196.72,0,0,0,36.33-3.21c-.76-5.06-1.56-10.11-2.36-15C105.5,199.89,80.91,198.21,66.35,196.41Z"/><path class="cls-10" d="M96.69,213.5c.83,0,1.69,0,2.53-.05V198.22l-2.53,0Z"/></g></g></svg>