<svg xmlns="http://www.w3.org/2000/svg" viewBox="0 0 177.35 260.15"><defs><style>.cls-1{fill:#6e933e;}.cls-2{fill:#88b559;}.cls-3{fill:#f9f5ed;}.cls-4{fill:#f9dab4;}.cls-5{fill:#f9f7f2;}.cls-6{fill:#f7cea6;}.cls-7{fill:#e5be9e;}.cls-8{fill:#515151;}.cls-9{fill:#fff;}.cls-10{fill:#d68a1d;}.cls-11{fill:#e59a23;}.cls-12{fill:#f4c7a2;}</style></defs><title>资源 35</title><g id="图层_2" data-name="图层 2"><g id="Layer_1" data-name="Layer 1"><path class="cls-1" d="M32.32,191.54C21.65,221,6.53,242.57,6.53,248.73a50.9,50.9,0,0,0,1.23,11.42H45.83c.25-.55.37-.86.37-.86l8.36-97.67S43,162.06,32.32,191.54Z"/><path class="cls-1" d="M113.26,161.62l8.36,97.67s.13.31.38.86h38.07a51.37,51.37,0,0,0,1.22-11.42c0-6.16-15.12-27.72-25.79-57.19S113.26,161.62,113.26,161.62Z"/><path class="cls-2" d="M133.43,260.15c-2.91-36.56-17.49-102.29-17.49-102.29H51.88S37.3,223.59,34.39,260.15Z"/><polygon class="cls-3" points="96.76 194.56 95.09 165.2 97.75 165.05 99.42 194.41 96.76 194.56"/><path class="cls-3" d="M103.42,196a4.84,4.84,0,1,1-4.83-4.78A4.81,4.81,0,0,1,103.42,196Z"/><polygon class="cls-3" points="71.07 194.56 72.74 165.2 70.07 165.05 68.4 194.41 71.07 194.56"/><path class="cls-3" d="M64.4,196a4.84,4.84,0,1,0,4.84-4.78A4.81,4.81,0,0,0,64.4,196Z"/><path class="cls-4" d="M149.31,52.62,21.85,52.47s.63,29.93-1.1,43.82c-1,8-.44,14.87-.65,18-1.88,28.77,28.59,52.39,64.27,52.62s64.75-23,64.93-51.78a78.26,78.26,0,0,0-.45-9.55c-.24-2.43-.24-5.07-.38-8.07C147.88,84.55,149.31,52.62,149.31,52.62Z"/><path class="cls-5" d="M44.75,128.34a1.18,1.18,0,0,1-1.21,1.12l-3.94-.15a1.15,1.15,0,0,1-1.12-1.2h0A1.16,1.16,0,0,1,39.69,127l3.93.14a1.18,1.18,0,0,1,1.13,1.22Z"/><path class="cls-5" d="M129.47,128.89a1.16,1.16,0,0,1-1.2,1.12l-3.94-.15a1.15,1.15,0,0,1-1.12-1.21h0a1.17,1.17,0,0,1,1.21-1.13l3.93.15a1.16,1.16,0,0,1,1.12,1.22Z"/><path class="cls-4" d="M141.05,133.69a21.41,21.41,0,0,0,18-.24c9.46-4.62,14.13-23.62,1.87-28.16s-16,9.55-16,9.55Z"/><path class="cls-6" d="M146.75,127.91s3.89-20.8,13-13.62c5.59,4.42,2.27,10.58-2.91,13.11C153.57,129,149.34,129.13,146.75,127.91Z"/><path class="cls-7" d="M146.86,127.68l1.35-5.25s17.3-4.93,12.45,2S146.86,127.68,146.86,127.68Z"/><path class="cls-4" d="M27.07,132.5A21.45,21.45,0,0,1,9,132c-9.4-4.75-13.82-23.8-1.5-28.19s15.91,9.75,15.91,9.75Z"/><path class="cls-6" d="M21.44,126.64s-3.63-20.85-12.82-13.78C3,117.2,6.21,123.41,11.37,126,14.6,127.63,18.83,127.83,21.44,126.64Z"/><path class="cls-7" d="M21.33,126.41l-1.28-5.27S2.81,116,7.58,123,21.33,126.41,21.33,126.41Z"/><path class="cls-8" d="M127.24,103.91A10.42,10.42,0,1,1,112.79,101,10.43,10.43,0,0,1,127.24,103.91Z"/><path class="cls-9" d="M120.17,101.47c1,1.56-.33,4.28-3,6.08s-5.74,2-6.78.43.33-4.27,3-6.07S119.13,99.91,120.17,101.47Z"/><path class="cls-8" d="M61.29,101.52a10.43,10.43,0,1,1-14.45-2.91A10.43,10.43,0,0,1,61.29,101.52Z"/><path class="cls-9" d="M54.22,99.08c1,1.56-.32,4.28-3,6.08s-5.74,2-6.77.44.32-4.28,3-6.08S53.18,97.53,54.22,99.08Z"/><path class="cls-10" d="M34.7,95.2l17.65-2.31a76.1,76.1,0,0,1,12.12-.48S63,84.9,61.7,83.51s-12.68,0-19.51,1.74S34.7,87,34.7,95.2Z"/><path class="cls-10" d="M135.41,95.2s-14.1-2-17.64-2.31c-5.37-.44-12.12-.48-12.12-.48s1.46-7.51,2.76-8.9,12.69,0,19.52,1.74S135.41,87,135.41,95.2Z"/><path class="cls-10" d="M144,56.81l14.37,1.79c-2,10.71-2.59,28.19-2.93,45.82-4.17.94-9.08,5.92-9.55,16.38l-4.78,1.38C141.05,90.38,144,56.81,144,56.81Z"/><path class="cls-11" d="M149.4,2.87c-16.31-1.26-21.85,6.74-21.85,6.74S117.58,0,81.93,0c-20.68,0-63,1.59-72.05,36.64-1.66,6.45,1.38,45.19,3.27,66.41,4.09.57,9.09,5.59,8.55,17.45l6,1.68c0-18.17-.67-30.24-1.44-49.83,0,0,22.44,10.45,58.1,9.68,37.6-.81,54.27-3.19,79.69-18.4,10.59-6.34,16.86-23.4,11-41.82C175.13,21.81,168.83,4.36,149.4,2.87Z"/><path class="cls-10" d="M139.73,134c-5.15,10.58-17.43,14.33-17.43,14.33s.81-15.74-37.51-15.74-37.52,15.74-37.52,15.74a27.91,27.91,0,0,1-17.7-15.88L22.1,134c2,12.86,13.27,32.94,62.53,32.94s60.6-18.64,62.56-31.5Z"/><path class="cls-4" d="M96.13,157.86H73.45c-8,0-14.55-4.67-14.55-10.44v-.21c0-5.76,6.51-10.44,14.55-10.44H96.13c8,0,14.55,4.68,14.55,10.44v.21C110.68,153.19,104.17,157.86,96.13,157.86Z"/><path class="cls-12" d="M85.19,148.74c-14.11,0-21.29-1.82-21.58-1.9a1.26,1.26,0,1,1,.63-2.43h0c.07,0,7.21,1.82,21,1.82s21.43-1.81,21.51-1.83a1.26,1.26,0,0,1,.59,2.44C107,146.92,99.29,148.74,85.19,148.74Z"/><path class="cls-12" d="M95.64,129.48a1.24,1.24,0,0,1-1.15-.77,10.83,10.83,0,0,0-9.84-6.17c-7.21,0-10.42,6.18-10.45,6.25A1.26,1.26,0,1,1,72,127.65c.16-.31,4-7.62,12.69-7.62a13.32,13.32,0,0,1,12.15,7.7,1.26,1.26,0,0,1-.67,1.65A1.38,1.38,0,0,1,95.64,129.48Z"/></g></g></svg>