<svg xmlns="http://www.w3.org/2000/svg" viewBox="0 0 183.61 260"><defs><style>.cls-1{fill:#f2d0af;}.cls-2{fill:#ddb58e;}.cls-3{fill:#ba443e;}.cls-4{fill:#e0605c;}.cls-5{fill:#393c3d;}.cls-6{fill:#2f3233;}.cls-7{fill:#f4d3b0;}.cls-8{fill:#494949;}.cls-9{fill:#6dbdc6;}.cls-10{fill:#eae5dc;}</style></defs><title>资源 252</title><g id="图层_2" data-name="图层 2"><g id="Layer_1" data-name="Layer 1"><path class="cls-1" d="M135.7,188.71s5.66,14.32,7.43,21.74c0,0-.43-6.72,7.83-9,0,0-.94-9.72,2.78-11.31a14.11,14.11,0,0,1,6-1.41s1.76-8.67,5.65-9.2,14,.71,15,5.84-6.72,3.71-6.72,3.71,8.31,6.89,9.73,14.5-6,5.83-9.9,1.59c0,0,3.53,11.49-4.07,9.9s-5.3-6.9-5.3-6.9a4.08,4.08,0,0,1-2.83,0s-7.11,20.61-18.22,25.56c-4,1.81-8.63,1.53-13.59-2.57l-8.22-39.6Z"/><path class="cls-2" d="M161,200.59l1.58.34c.51.07,1.12.21,1.83.25a12.07,12.07,0,0,0,2.33,0,4.24,4.24,0,0,0,2.36-.93,3.48,3.48,0,0,0,1.12-2.41,7.17,7.17,0,0,0-.05-1.53,13.54,13.54,0,0,0-.35-1.59,3.91,3.91,0,0,0-1.82-2.33,23.75,23.75,0,0,0-6.13-2.63c-1.22-.36-2.4-.68-3.51-1a7.55,7.55,0,0,1,1.42-.08s.05-.25.15-.64c.74.14,1.5.3,2.27.5a21.54,21.54,0,0,1,6.6,2.66,6.94,6.94,0,0,1,1.45,1.32,4.05,4.05,0,0,1,.56.87,4.42,4.42,0,0,1,.32,1,9.13,9.13,0,0,1,.33,3.61,4.38,4.38,0,0,1-1.72,3.08,5.11,5.11,0,0,1-2.94.91,9,9,0,0,1-2.48-.27c-.71-.14-1.31-.37-1.81-.51C161.51,200.82,161,200.59,161,200.59Z"/><path class="cls-2" d="M166.73,207.09a9,9,0,0,1-1.49.42,6.85,6.85,0,0,1-.7.11c-.25,0-.5.07-.77.06a7.48,7.48,0,0,1-.82,0l-.77-.06-.91-.18a4.06,4.06,0,0,0-.66-.25c-.21-.12-.43-.25-.64-.35s-.38-.29-.56-.41c-.32-.29-.6-.56-.79-.77s-.29-.34-.29-.34a3.24,3.24,0,0,0,.45,1.62,7.87,7.87,0,0,0,.48.68,7.61,7.61,0,0,0,.72.64,8.39,8.39,0,0,0,1,.51l.9.23a8.59,8.59,0,0,0,1.09,0,4.54,4.54,0,0,0,1-.13,3.93,3.93,0,0,0,.88-.27,4.16,4.16,0,0,0,.73-.38,3.66,3.66,0,0,0,.92-.8A2.23,2.23,0,0,0,166.73,207.09Z"/><path class="cls-2" d="M143.26,209c0,.2,0,.4,0,.6-.1,1.32-.1,2.65-.2,3.9s-.12,2.41-.17,3.41-.13,1.84-.17,2.43l-.08.93a31.42,31.42,0,0,1-.56-3.33,47.9,47.9,0,0,1-.23-7.41c.07-1,.13-2,.23-2.93.42,1.41.8,2.74,1.07,3.89A7.26,7.26,0,0,1,143.26,209Z"/><path class="cls-3" d="M118,163.55c8.25,1.19,25.33,25.33,25.16,26.39S123.24,200,123.24,200L114,169.08S112.15,162.71,118,163.55Z"/><path class="cls-1" d="M47.91,188.71S42.25,203,40.48,210.45c0,0,.43-6.72-7.83-9,0,0,.94-9.72-2.77-11.31a14.14,14.14,0,0,0-6-1.41s-1.77-8.67-5.66-9.2-14,.71-15,5.84,6.72,3.71,6.72,3.71S1.59,196,.18,203.56s6,5.83,9.9,1.59c0,0-3.54,11.49,4.06,9.9s5.31-6.9,5.31-6.9a4.06,4.06,0,0,0,2.82,0s7.11,20.61,18.22,25.56c4,1.81,8.63,1.53,13.59-2.57l8.22-39.6Z"/><path class="cls-2" d="M22.65,200.59l-1.59.34c-.51.07-1.12.21-1.82.25a12.07,12.07,0,0,1-2.33,0,4.24,4.24,0,0,1-2.37-.93,3.52,3.52,0,0,1-1.12-2.41,7.18,7.18,0,0,1,.06-1.53,11.78,11.78,0,0,1,.35-1.59,3.89,3.89,0,0,1,1.81-2.33,23.9,23.9,0,0,1,6.13-2.63c1.23-.36,2.4-.68,3.52-1a7.56,7.56,0,0,0-1.42-.08l-.15-.64c-.75.14-1.5.3-2.28.5a21.64,21.64,0,0,0-6.6,2.66,7.47,7.47,0,0,0-1.45,1.32,4.05,4.05,0,0,0-.56.87,4.42,4.42,0,0,0-.32,1,9.32,9.32,0,0,0-.33,3.61,4.38,4.38,0,0,0,1.72,3.08,5.14,5.14,0,0,0,3,.91,8.9,8.9,0,0,0,2.47-.27c.72-.14,1.31-.37,1.81-.51C22.1,200.82,22.65,200.59,22.65,200.59Z"/><path class="cls-2" d="M16.88,207.09a9,9,0,0,0,1.49.42c.23,0,.45.1.7.11s.5.07.77.06a7.48,7.48,0,0,0,.82,0l.77-.06.91-.18a4.91,4.91,0,0,1,.66-.25c.21-.12.43-.25.65-.35a6.52,6.52,0,0,1,.55-.41,9.93,9.93,0,0,0,.79-.77c.18-.2.29-.34.29-.34a3.11,3.11,0,0,1-.45,1.62,6.15,6.15,0,0,1-.48.68,6.54,6.54,0,0,1-.72.64,8.26,8.26,0,0,1-1,.51l-.91.23a8.53,8.53,0,0,1-1.09,0,4.62,4.62,0,0,1-1-.13,3.93,3.93,0,0,1-.88-.27,4.16,4.16,0,0,1-.73-.38,3.85,3.85,0,0,1-.92-.8A2.23,2.23,0,0,1,16.88,207.09Z"/><path class="cls-2" d="M40.35,209c0,.2,0,.4,0,.6.1,1.32.1,2.65.2,3.9s.12,2.41.17,3.41.13,1.84.17,2.43.08.93.08.93a28.53,28.53,0,0,0,.56-3.33,47.79,47.79,0,0,0,.24-7.41c-.08-1-.14-2-.24-2.93-.42,1.41-.79,2.74-1.07,3.89A7.26,7.26,0,0,0,40.35,209Z"/><path class="cls-3" d="M65.64,163.55c-8.25,1.19-25.33,25.33-25.16,26.39S60.37,200,60.37,200l9.28-30.94S71.46,162.71,65.64,163.55Z"/><path class="cls-4" d="M93.56,160.92H74.73s-8,1.22-10.17,5.65S48.07,252.09,48,260h87.87c-.07-7.91-14.74-89.14-16.84-93.43s-10.17-5.65-10.17-5.65Z"/><polygon class="cls-3" points="78.05 157.47 69.95 175.59 80.64 176.35 77.59 185.52 91.66 183.33 89.2 157.47 78.05 157.47"/><polygon class="cls-3" points="105.56 157.47 113.67 175.59 102.97 176.35 106.02 185.52 91.95 183.33 94.41 157.47 105.56 157.47"/><rect class="cls-2" x="77.48" y="149.9" width="28.65" height="27.29" transform="translate(-88.76 112.81) rotate(-45)"/><path class="cls-5" d="M15.2,112.55H168.41c.16-1.54.29-3.13.34-4.81,0-.69,0-32.55,0-33.24,0-41.15-34.45-74.5-77-74.5s-77,33.35-77,74.5c0,.61,0,32.4,0,33C14.9,109.27,15,110.93,15.2,112.55Z"/><path class="cls-6" d="M59.05,73.81l15.82-35.3c-19.8,11-37.11,34.34-43,42.67v3.08c9,.27,44.73,1.12,52.06-4.49,8.4-6.42,23-17,23-17C85,64.41,59.05,73.81,59.05,73.81Z"/><path class="cls-7" d="M35.42,106.59S24.55,96.17,17,102.6s.67,29.26,22.62,39.69Z"/><path class="cls-7" d="M148.2,106.59s10.86-10.42,18.4-4-.67,29.26-22.61,39.69Z"/><path class="cls-1" d="M140.89,83.21,144,97.65C138.38,86.42,123.24,85,123.24,85l10.08,14.22c-22.69-18.11-28.19-16.51-40.34-19-10.44-2.17-50.1.23-61.09,1v39.31s.55,46.08,59.92,46.08,59.92-46.08,59.92-46.08V87.71Z"/><polygon class="cls-6" points="70.73 94.96 71.2 102.49 44.56 102.61 47.15 93.75 70.73 94.96"/><polygon class="cls-6" points="112.88 94.96 112.41 102.49 139.05 102.61 136.46 93.75 112.88 94.96"/><path class="cls-8" d="M117.31,121.49c-.13-.08-12.75-8.22-25.71-8.66-12.79-.45-23.53,8.49-23.64,8.58l-1.42-1.68c.46-.39,11.44-9.57,25.14-9.1s26.3,8.67,26.83,9Z"/><polygon class="cls-8" points="31.89 103.71 45.72 114.43 47.06 112.69 31.89 100.93 31.89 103.71"/><polygon class="cls-8" points="151.73 100.93 136.55 112.69 137.9 114.43 151.73 103.71 151.73 100.93"/><polygon class="cls-9" points="112.41 128.23 139.05 126.4 139.05 108.98 112.41 108.98 112.41 128.23"/><path class="cls-10" d="M131.84,109c-5.53,5.57-14.08,14.23-19,19.23l7.54-.52c6.74-6.82,14.52-14.68,18.56-18.71Z"/><polygon class="cls-9" points="71.2 128.23 44.56 126.4 44.56 108.98 71.2 108.98 71.2 128.23"/><path class="cls-10" d="M65.51,109H58.37q-6.9,6.9-13.81,13.81v3.61l3.25.22Q56.61,117.77,65.51,109Z"/><path class="cls-2" d="M103.11,129.23a13,13,0,0,1-11.26,6.5C86,135.78,80.51,130,80.51,130s6.3,3.8,10.89,3.8C98.14,133.83,103.11,129.23,103.11,129.23Z"/><path class="cls-2" d="M69.61,147.61l1.9-.23c1.21-.12,2.94-.35,5-.5s4.5-.37,7.1-.51,5.38-.26,8.16-.36,5.55-.14,8.15-.15,5,.06,7.11.08,3.83.14,5,.18l1.92.12-1.91.23c-1.21.12-2.94.35-5,.5s-4.5.37-7.1.51-5.38.26-8.15.36-5.55.14-8.16.14-5,0-7.11-.07-3.83-.14-5-.18Z"/><path class="cls-2" d="M85.74,157.47a11.15,11.15,0,0,1,1.89-.53,22.54,22.54,0,0,1,8.35,0,10.79,10.79,0,0,1,1.89.53A10.79,10.79,0,0,1,96,158a22.22,22.22,0,0,1-4.17.38,21.39,21.39,0,0,1-4.18-.39A11.82,11.82,0,0,1,85.74,157.47Z"/></g></g></svg>