<svg xmlns="http://www.w3.org/2000/svg" viewBox="0 0 184.53 260"><defs><style>.cls-1{fill:#3b8d93;}.cls-2{fill:#5c9ea0;}.cls-3{fill:#f7cea6;}.cls-4{fill:#f9dab4;}.cls-5{fill:#f9f7f2;}.cls-6{fill:#e5be9e;}.cls-7{fill:#2f3233;}.cls-8{fill:#f4c7a2;}.cls-9{fill:#4c3626;}</style></defs><title>资源 36</title><g id="图层_2" data-name="图层 2"><g id="Layer_1" data-name="Layer 1"><path class="cls-1" d="M126.19,143.88l-10.33.87L116.12,260h47.81c1-6.51,2-13.48,2.8-20,1.71-15,2.55-38.87-9-56.24C148.2,169.59,126.19,143.88,126.19,143.88Z"/><path class="cls-2" d="M133.72,160.92c-2.36-.12-.61,9.75-.61,9.75s5.53,37.79,9.37,44.7a32.77,32.77,0,0,1,8.51-.14,22.5,22.5,0,0,1,6.82,1.9c1.55.73,4.68,2.1,4.32,4.22a1.16,1.16,0,0,1-.42.77,1.05,1.05,0,0,1-.9.09,3,3,0,0,1-.82-.44,18,18,0,0,0-4.21-2.45,18.28,18.28,0,0,0-7.19-.92c-.89.07-3.61.24-3.69,1.57,3.36.16,6.35-.33,9.21,2.56.89.91,2.51,3.23,1.49,4.58s-3.8-1.12-4.65-1.66c-1.76-1.11-4-1.92-5.49-.14-1.88,2.24-2.61,5.61-3.22,8.38a67.08,67.08,0,0,0-1.51,11.64c-.12,2.75-.31,6,.71,8.62a28.85,28.85,0,0,0,3.3,6.05H158.8a69.47,69.47,0,0,0,6.36-26.06c.51-13.93-2-31-4.56-38.22C153.89,176.94,136.07,161,133.72,160.92Z"/><path class="cls-1" d="M24.28,183.78c-11.6,17.37-10.76,41.26-9,56.24.74,6.5,1.76,13.47,2.8,20h47.8l.26-115.25-10.32-.87S33.76,169.59,24.28,183.78Z"/><path class="cls-2" d="M48.25,160.92c-2.36.11-20.18,16-26.88,34.8C18.79,203,16.3,220,16.81,233.94A69.47,69.47,0,0,0,23.17,260h14a28.4,28.4,0,0,0,3.3-6.05c1-2.63.83-5.87.71-8.62a67.06,67.06,0,0,0-1.5-11.64c-.62-2.77-1.34-6.14-3.23-8.38-1.5-1.78-3.73-1-5.48.14-.85.54-3.66,3-4.65,1.66s.59-3.67,1.49-4.58c2.86-2.89,5.84-2.4,9.21-2.56-.09-1.33-2.8-1.5-3.69-1.57a18.33,18.33,0,0,0-7.2.92A18.15,18.15,0,0,0,22,221.77a3,3,0,0,1-.82.44,1,1,0,0,1-.89-.09,1.12,1.12,0,0,1-.42-.77c-.36-2.12,2.77-3.49,4.31-4.22a22.48,22.48,0,0,1,6.83-1.9,32.69,32.69,0,0,1,8.5.14c3.84-6.91,9.37-44.7,9.37-44.7S50.6,160.8,48.25,160.92Z"/><path class="cls-1" d="M126.18,140.34c-53.17,0-70.65.37-70.65.37S40.81,214.75,43.48,260h94.23C137.66,246.59,136.89,177.81,126.18,140.34Z"/><path class="cls-2" d="M61.85,148.52a151,151,0,0,0-11.71,42.2c-3,23.47-9.85,66.47,9.13,69.28h69.18c6.74-1.93,6.74-22.37,6.74-32.46,0-10.6-4.5-71.54-12.73-79.77C91,129.65,61.85,148.52,61.85,148.52Z"/><polygon class="cls-1" points="93.16 191.06 68.78 173.2 79.27 157.71 107.05 157.71 117.53 173.2 93.16 191.06"/><polygon class="cls-3" points="75.82 164.84 93.16 191.06 110.5 164.84 75.82 164.84"/><path class="cls-4" d="M154.62,51.52H32.9S24.64,75.13,22.74,90.35c-1.09,8.75-.48,16.31-.7,19.74C20,141.62,53.37,167.51,92.48,167.77s71-25.17,71.19-56.77a97.4,97.4,0,0,0-1.79-19.38C159.22,77.81,154.62,51.52,154.62,51.52Z"/><path class="cls-5" d="M49.05,129.42a1.28,1.28,0,0,1-1.32,1.23l-4.32-.16a1.28,1.28,0,0,1-1.23-1.33h0a1.28,1.28,0,0,1,1.33-1.23l4.31.16a1.27,1.27,0,0,1,1.23,1.33Z"/><path class="cls-5" d="M141.93,130a1.27,1.27,0,0,1-1.32,1.23l-4.31-.16a1.28,1.28,0,0,1-1.23-1.33h0a1.26,1.26,0,0,1,1.32-1.23l4.31.16a1.27,1.27,0,0,1,1.23,1.33Z"/><path class="cls-4" d="M154.62,131.35a23.46,23.46,0,0,0,19.76-.26c10.37-5.07,15.49-25.89,2.05-30.87s-17.58,10.46-17.58,10.46Z"/><path class="cls-3" d="M160.87,125s4.27-22.81,14.24-14.93c6.13,4.84,2.5,11.6-3.19,14.37C168.35,126.2,163.71,126.35,160.87,125Z"/><path class="cls-6" d="M161,124.76l1.48-5.75s19-5.41,13.64,2.2S161,124.76,161,124.76Z"/><path class="cls-4" d="M29.67,130a23.51,23.51,0,0,1-19.76-.51c-10.3-5.21-15.15-26.09-1.65-30.9s17.45,10.69,17.45,10.69Z"/><path class="cls-3" d="M23.5,123.63s-4-22.86-14-15.11c-6.18,4.75-2.64,11.56,3,14.41C16,124.71,20.64,124.92,23.5,123.63Z"/><path class="cls-6" d="M23.38,123.37,22,117.6s-18.89-5.66-13.67,2S23.38,123.37,23.38,123.37Z"/><path class="cls-7" d="M132.65,101.16a1.72,1.72,0,0,1-1.87-1.53c0-.69-.3-6.84-8.4-6.84-8.3,0-8.39,6.56-8.39,6.84a1.91,1.91,0,0,1-3.75,0c0-3.42,2.54-9.9,12.14-9.9s12.14,6.48,12.14,9.9A1.72,1.72,0,0,1,132.65,101.16Z"/><path class="cls-7" d="M77,101.16a1.72,1.72,0,0,1-1.87-1.53c0-.69-.3-6.84-8.39-6.84-8.3,0-8.4,6.56-8.4,6.84a1.91,1.91,0,0,1-3.74,0c0-3.42,2.53-9.9,12.14-9.9s12.13,6.48,12.13,9.9A1.72,1.72,0,0,1,77,101.16Z"/><path class="cls-8" d="M83.83,123.82a1.35,1.35,0,0,1-1.16-.64,1.38,1.38,0,0,1,.42-1.9,21.17,21.17,0,0,1,23.55.07,1.37,1.37,0,0,1-1.66,2.19h0c-.38-.28-9.43-6.91-20.41.07A1.43,1.43,0,0,1,83.83,123.82Z"/><path class="cls-8" d="M93.47,148.79c-15.81,0-23.9-6.95-24.23-7.24a1.37,1.37,0,1,1,1.81-2.07h0c.08.06,7.72,6.56,22.42,6.56s22.94-6.53,23-6.59a1.38,1.38,0,1,1,1.75,2.13C117.88,141.87,109.25,148.79,93.47,148.79Z"/><path class="cls-9" d="M169.28,36.18c-3.07-5.78-7.95-4.79-7.95-4.79C157.08.81,105.11,0,92.61,0S28.25.81,24,31.39c0,0-3.79-1.66-8,4.79-4.94,7.65-4.51,26.47-2.35,38.74a111.19,111.19,0,0,1,1.57,23,17.67,17.67,0,0,1,6.81,4.3c1-5.34,2-10.43,3.26-15.39,8.08-3,12.08-13.17,12.08-13.17a8.62,8.62,0,0,1,0,8.88c19.78-2.87,25.48-15.94,25.48-15.94.86,6.8-1.82,9.84-1.82,9.84C84.39,75.27,93,61.69,93,61.69s8.6,13.58,31.92,14.72c0,0-2.68-3-1.83-9.84,0,0,5.71,13.07,25.49,15.94a8.62,8.62,0,0,1,0-8.88s3.76,9.62,11.36,12.88c1.33,5.27,2.45,10.66,3.46,16.21a19.54,19.54,0,0,1,6.69-3.42,124.72,124.72,0,0,1,1.56-24.38C173.79,62.65,173.55,44.22,169.28,36.18Z"/></g></g></svg>