<svg xmlns="http://www.w3.org/2000/svg" viewBox="0 0 168.21 260.12"><defs><style>.cls-1{fill:#c2da52;}.cls-2{fill:#b5c445;}.cls-3{fill:#e8e074;}.cls-4{fill:#89a560;}.cls-5{opacity:0.28;}.cls-6{fill:#949632;}.cls-7{fill:#468e8e;}.cls-8{fill:#266060;}.cls-9{fill:#44302c;}.cls-10{fill:#513936;}.cls-11{fill:#3a2725;}.cls-12{fill:#f9dab4;}.cls-13{fill:#efceab;}.cls-14{fill:#47413e;}.cls-15{fill:#f9f7f2;}.cls-16{fill:#e0605c;}.cls-17{fill:#ad3936;}.cls-18{fill:#e5be9e;}.cls-19{fill:#f7cea6;}</style></defs><title>资源 101</title><g id="图层_2" data-name="图层 2"><g id="Layer_1" data-name="Layer 1"><path class="cls-1" d="M52.76,170.25l5.73-.24h52.62l4.65.33C119,181.81,123.29,254,123.29,254H47.64S50.62,175.33,52.76,170.25Z"/><path class="cls-2" d="M64.64,171.85s30.8,14.14,41.86,0C106.5,161.73,64.64,171.85,64.64,171.85Z"/><path class="cls-3" d="M64.64,172.62c3.61.71,7.29,1.24,11,1.65a117.82,117.82,0,0,0,21.41.54,27.7,27.7,0,0,0,5.73-.76,11.76,11.76,0,0,0,2.83-1.26c1.36-.85,1.11-1.7,1.15-3.23.23-8.54,1.17-15.28-1.57-15.28-3,0-28.27,3.82-34.38,1.91s-6.12.38-6.12,5.35S62.73,172.25,64.64,172.62Z"/><path class="cls-4" d="M68.85,156.19a2.14,2.14,0,0,0-.34-.56c-3.85-.64-3.87,1.64-3.87,5.91,0,5-1.91,10.71,0,11.08,0,0,1.51.29,4,.68C69.1,167.06,68.85,156.19,68.85,156.19Z"/><path class="cls-4" d="M76.23,174.33c2,.22,4.23.43,6.49.58L83.11,158l-6.88-.51Z"/><path class="cls-4" d="M95.59,156.44l-5.35,1s-1.29,11.48-.88,17.7c2.43,0,4.84-.06,7.15-.27Z"/><path class="cls-4" d="M100.65,157.14a39.23,39.23,0,0,1,1,8.6,84.08,84.08,0,0,0,.48,8.48l.64-.17a11.76,11.76,0,0,0,2.83-1.26c1.36-.85,1.11-1.7,1.15-3.23.17-6.42.75-11.83-.14-14.11C104.49,154.9,101.77,154.74,100.65,157.14Z"/><g class="cls-5"><path class="cls-6" d="M64.27,166.12c-.44,3.38-1,6.24.37,6.5,3.61.71,7.29,1.24,11,1.65a117.82,117.82,0,0,0,21.41.54,27.7,27.7,0,0,0,5.73-.76,11.76,11.76,0,0,0,2.83-1.26c1.36-.85,1.11-1.7,1.15-3.23.09-3.21.27-6.16.33-8.6C98.69,170.37,71.57,167.17,64.27,166.12Z"/></g><rect class="cls-7" x="44.39" y="249.98" width="80.62" height="10.14"/><rect class="cls-8" x="53.82" y="249.98" width="5.86" height="10.14"/><rect class="cls-8" x="65.28" y="249.98" width="5.86" height="10.14"/><rect class="cls-8" x="76.74" y="249.98" width="5.86" height="10.14"/><rect class="cls-8" x="88.2" y="249.98" width="5.86" height="10.14"/><rect class="cls-8" x="99.67" y="249.98" width="5.86" height="10.14"/><rect class="cls-8" x="111.13" y="249.98" width="5.86" height="10.14"/><path class="cls-1" d="M32.52,182.55C19.72,195.35,14.38,221,16.45,244c.51,5.69,1,11.42,1.31,16.08H40.52c-1-10.46-1.77-26.21.4-40.49.94-6.22,5.23-14.78,8.54-17.93,10-8.08,9-31.69,9-31.69C53.52,170,46,169.08,32.52,182.55Z"/><path class="cls-2" d="M32.52,182.55C46,169.08,53.52,170,58.49,170c0,0,0,.41-.26.47-2.94.78-6.76,2.73-6.76,8,.51,5.19.72,12.61-1,19.46,0,0-.14-13.23-6.58-14-9.26-1.14-14.72,4.46-18.53,8.36A43.09,43.09,0,0,1,32.52,182.55Z"/><path class="cls-1" d="M111.11,170s-.94,23.61,9,31.69c3.31,3.15,7.6,11.71,8.54,17.93,2.17,14.28,1.39,30,.4,40.49h22.76c.35-4.66.8-10.39,1.31-16.08,2.07-23-3.27-48.69-16.07-61.49C123.61,169.08,116.08,170,111.11,170Z"/><path class="cls-2" d="M137.08,182.55c-13.47-13.47-21-12.54-26-12.54,0,0-.11.26.24.38,2.94.77,6.78,2.82,6.78,8.11-.51,5.19-.72,12.61,1,19.46,0,0,.14-13.23,6.58-14,9.26-1.14,14.72,4.46,18.53,8.36A43.09,43.09,0,0,0,137.08,182.55Z"/><path class="cls-9" d="M12.09,118.59H160V47.88c0-15,.32-25.35-11.36-31.73-8.47-4.63-18.6-.73-21.5-3.63S130.47.17,114.77.17,37.22-2.5,11.12,13.49c-16.67,11.86-9.66,30-9.66,38.26S-1,68.22,7.26,65.8C7.26,84.69,7.5,114,12.09,118.59Z"/><path class="cls-10" d="M124.91,12.52s-1.2-9.93-7.48-9.93-10.15-.73-21.75-.73H81.43s2.66,2.42,12.32,2.42S118.27,5.86,124.91,12.52Z"/><path class="cls-11" d="M9.35,66h10a31.1,31.1,0,0,1,7,1.05l-2.77,6.66A26.54,26.54,0,0,0,9.35,66Z"/><path class="cls-10" d="M114.53,43.27S112.1,67.22,91.21,66.65C91.21,66.65,108.24,58.05,114.53,43.27Z"/><path class="cls-11" d="M18.05,104.39v-9A14.85,14.85,0,0,1,7.62,90.78h0c.2,5.07.49,10,.94,14.19Z"/><path class="cls-11" d="M160,94.31a38.9,38.9,0,0,1-6.29.71v8.07l6.29,2.55Z"/><path class="cls-12" d="M150.44,65.64V99.22c-7.08,60.06-29.63,66.2-72.64,67.81-38.47,1.41-55.56-34.23-55.56-52.31V66.61s18.84-6.71,69.58,2.82c10.92,2,22.55-3.31,25-16.79S122,23.17,122,36.49s-.49,31.73,8,30Z"/><path class="cls-13" d="M87.42,119.2a3.85,3.85,0,0,1,1,2.49c0,3-3.82,5.34-8.54,5.34s-8.53-2.39-8.53-5.34a3.85,3.85,0,0,1,1-2.49,5.4,5.4,0,0,0-2.68,4.31c0,3.53,4.58,6.39,10.22,6.39S90.1,127,90.1,123.51A5.4,5.4,0,0,0,87.42,119.2Z"/><path class="cls-9" d="M51,80.33s-3.93-7.21-10.9-6.51-10.07,9.85-10.07,9.85a14.14,14.14,0,0,0-.37,6.79S39,79.31,51,80.33Z"/><path class="cls-14" d="M54,100.6a9.41,9.41,0,1,1-8.88-9.95A9.41,9.41,0,0,1,54,100.6Z"/><path class="cls-15" d="M50.33,97.7C49.6,99.45,47,100,44.58,99s-3.85-3.27-3.12-5,3.3-2.35,5.74-1.33S51.05,96,50.33,97.7Z"/><path class="cls-9" d="M112.6,80.33s3.94-7.21,10.91-6.51,10.06,9.85,10.06,9.85a14.26,14.26,0,0,1,.38,6.79S124.67,79.31,112.6,80.33Z"/><path class="cls-14" d="M109.66,100.6a9.42,9.42,0,1,0,8.89-9.95A9.43,9.43,0,0,0,109.66,100.6Z"/><path class="cls-15" d="M113.3,97.7C114,99.45,116.59,100,119,99s3.85-3.27,3.13-5-3.3-2.35-5.75-1.33S112.57,96,113.3,97.7Z"/><path class="cls-16" d="M77.34,137.22l31.74-5s6.18,26.14-6.81,26.77S90,155.18,85.9,148.84A119.87,119.87,0,0,0,77.34,137.22Z"/><path class="cls-17" d="M110.48,142.41c-11.6-4.4-18.91,3.84-22.55,10,2.31,4.37,4,7.12,14.34,6.62C109.76,158.67,110.88,149.83,110.48,142.41Z"/><path class="cls-12" d="M25.79,106.83s-11.38-13-21.63,0,3.43,37.31,21.63,23.64Z"/><path class="cls-18" d="M19,124.77s1-15.1-4.77-15.1S6.6,124.77,19,124.77Z"/><path class="cls-19" d="M14.25,109.67c-1.63,0-2.95,1.21-3.72,2.94,2.67,2.92,6.73,7.75,8.51,11.88C19.14,122.46,19.54,109.67,14.25,109.67Z"/><path class="cls-19" d="M91.82,72.58c19.81,4.84,23-3.88,25.12-10.9,1.37-4.43,3.61-13.57,5.07-19.72,0-1.87,0-3.71,0-5.47,0-13.32-2.66,2.67-5.16,16.15s-14.12,18.84-25,16.79c-50.74-9.53-69.58-2.82-69.58-2.82V71.3C35.5,66.66,73,68,91.82,72.58Z"/><path class="cls-19" d="M122.05,46c0,.28-2.14,23.94,8.9,22.73s16.67-.48,16.67,6.06v29.06l2.29-.51c.19-1.34.37-2.69.53-4.09V65.64L130,66.52C123.43,67.84,122.25,57.08,122.05,46Z"/><path class="cls-12" d="M143.81,105s12.26-12.13,21.58,1.52-6,37-23.22,22.07Z"/><path class="cls-18" d="M149.31,123.38s.08-15.13,5.82-14.73S161.7,124.25,149.31,123.38Z"/><path class="cls-19" d="M155.13,108.65c1.62.11,2.85,1.41,3.5,3.19-2.87,2.73-7.25,7.26-9.31,11.26C149.36,121.06,149.84,108.28,155.13,108.65Z"/></g></g></svg>