<svg xmlns="http://www.w3.org/2000/svg" viewBox="0 0 228.67 260.37"><defs><style>.cls-1{fill:#f2d0af;}.cls-2{fill:#ddb58e;}.cls-3{fill:#d88832;}.cls-4{fill:#438970;}.cls-5{fill:#eae5dc;}.cls-6{fill:#4c3626;}.cls-7{fill:#f4d3b0;}.cls-8{fill:#3a332d;}.cls-9{fill:#e8dfd9;}</style></defs><title>资源 267</title><g id="图层_2" data-name="图层 2"><g id="Layer_1" data-name="Layer 1"><path class="cls-1" d="M38.84,173.12C30.35,188.67,6.44,220,4.63,225.85c-1.45,4.71,12.25,26.23,17.7,34.52H44.81c-6.3-15.43-16.84-26.65-17.39-31-.58-4.69,29.87-48.61,29.87-48.61L63.73,160S47.33,157.56,38.84,173.12Z"/><path class="cls-1" d="M113.21,166.84s4.42-9.27,9.92-6.61,22.29,46,22.29,46,20.67-30.65,19.41-32.41-6.72-6.76-11.6-7-8.4-2.63-7.42-7.09,10.93-10.71,25,3.35a36.79,36.79,0,0,1,10.35-2.73s8.35-18.49,20.3-18.55c6.44,0,2.93,12.69,2.93,12.69s13-8.75,20.89,0c3.5,3.9-9.18,9.76-9.18,9.76s13.86,2.57,12.5,8.2c-2,8.19-17.18,6.05-17.18,6.05s-2.36,9.95-31.05,8.2c0,0-22.44,48-31.81,47.82s-30.84-39.62-30.84-39.62Z"/><path class="cls-2" d="M195.71,161.35a75.17,75.17,0,0,0-7.93-.91c-2-.17-4.23-.42-6.44-.48l-.2.41a36.79,36.79,0,0,0-10.35,2.73l-.23-.23.14.29c.32.3,7.78-1.53,12.2-1.58,8.5-.08,14.57.51,19.12,6.51C200.68,165.18,198.74,161.94,195.71,161.35Z"/><path class="cls-3" d="M157.73,214.07c-1.93-5.29-3.35-11-8.07-14.21-2.47,3.75-4.24,6.38-4.24,6.38s-.62-1.59-1.64-4.16c-6.07,3.55-8.24,8.56-8.32,16.26,0,1.53,0,3.14.1,4.76,4.85,6.4,9.67,11.37,13,11.44,3.08.06,7.56-5.07,12.19-12C159.73,219.73,158.76,216.89,157.73,214.07Z"/><path class="cls-4" d="M38.25,260.37h97.46c-3.27-28-20.63-104.73-20.63-104.73l-28.44,1.27-28.11-1.42S42.25,232.31,38.25,260.37Z"/><path class="cls-2" d="M111.1,175.46c0,16-10.88,24.33-24.3,24.33s-24.3-8.3-24.3-24.33V143.58L111.1,145Z"/><path class="cls-5" d="M75.93,167.85A3.83,3.83,0,1,1,72.1,164,3.84,3.84,0,0,1,75.93,167.85Z"/><path class="cls-5" d="M77.81,174.36A3.84,3.84,0,1,1,74,170.53,3.83,3.83,0,0,1,77.81,174.36Z"/><path class="cls-5" d="M79.14,180.57a3.84,3.84,0,1,1-3.83-3.83A3.83,3.83,0,0,1,79.14,180.57Z"/><path class="cls-5" d="M80.64,187.36a3.83,3.83,0,1,1-3.83-3.84A3.84,3.84,0,0,1,80.64,187.36Z"/><path class="cls-5" d="M81.64,193.73a3.83,3.83,0,1,1-3.83-3.84A3.84,3.84,0,0,1,81.64,193.73Z"/><path class="cls-5" d="M84.47,199.19a3.83,3.83,0,1,1-3.83-3.83A3.82,3.82,0,0,1,84.47,199.19Z"/><path class="cls-5" d="M87.42,204.39a3.83,3.83,0,1,1-3.83-3.83A3.82,3.82,0,0,1,87.42,204.39Z"/><path class="cls-5" d="M98.5,167.85a3.84,3.84,0,1,0,3.83-3.83A3.84,3.84,0,0,0,98.5,167.85Z"/><path class="cls-5" d="M96.62,174.36a3.84,3.84,0,1,0,3.84-3.83A3.83,3.83,0,0,0,96.62,174.36Z"/><path class="cls-5" d="M95.3,180.57a3.83,3.83,0,1,0,3.83-3.83A3.82,3.82,0,0,0,95.3,180.57Z"/><path class="cls-5" d="M93.79,187.36a3.84,3.84,0,1,0,3.83-3.84A3.84,3.84,0,0,0,93.79,187.36Z"/><path class="cls-5" d="M92.79,193.73a3.84,3.84,0,1,0,3.83-3.84A3.84,3.84,0,0,0,92.79,193.73Z"/><path class="cls-5" d="M90,199.19a3.83,3.83,0,1,0,3.83-3.83A3.83,3.83,0,0,0,90,199.19Z"/><path class="cls-5" d="M87,204.39a3.83,3.83,0,1,0,3.83-3.83A3.82,3.82,0,0,0,87,204.39Z"/><path class="cls-5" d="M91.26,209.29a3.84,3.84,0,1,1-3.84-3.83A3.84,3.84,0,0,1,91.26,209.29Z"/><path class="cls-5" d="M105.16,247.08c-3.07,2.64-30.63,2.49-33.69,0s-2.5-32.35,0-36.31,31.79-3.22,33.69,0S108.23,244.45,105.16,247.08Z"/><path d="M83.72,220.61v7l8-8.34a7.69,7.69,0,0,1,1-.89,1.77,1.77,0,0,1,1.08-.29,2,2,0,0,1,1.42.51,1.68,1.68,0,0,1,.54,1.26,2.49,2.49,0,0,1-.92,1.77l-4.95,4.69,5.71,8.18a12,12,0,0,1,.91,1.49,2.93,2.93,0,0,1,.3,1.24,1.56,1.56,0,0,1-.53,1.17,2,2,0,0,1-1.44.5,2.44,2.44,0,0,1-1.38-.37,3,3,0,0,1-.91-1l-.66-1.09-4.81-7.42-3.34,3.2v4.16a2.6,2.6,0,0,1-.58,1.87,1.92,1.92,0,0,1-1.48.62,2,2,0,0,1-1-.28,1.88,1.88,0,0,1-.74-.74,2.25,2.25,0,0,1-.23-.89c0-.34,0-.83,0-1.47v-15a2.74,2.74,0,0,1,.55-1.85,1.83,1.83,0,0,1,1.47-.62,1.92,1.92,0,0,1,1.49.61A2.65,2.65,0,0,1,83.72,220.61Z"/><path class="cls-6" d="M166.24,45.13C162.73,17.78,125.13,0,86.8,0,43.43,0,10.13,23.56,7.36,45.13L5,119.51H168.6Z"/><path class="cls-7" d="M22.57,105.07s-7.71-14.35-18-7c-13.49,9.51,6.08,41.18,21.3,35.7Z"/><path class="cls-7" d="M151,105.07s7.71-14.35,18.06-7c13.48,9.51-6.09,41.18-21.31,35.7Z"/><path class="cls-1" d="M134.37,58.13c-8.82.1-37.37,16.43-44.95,16.25S54.21,60.3,48.26,59.75c-4.48-.41-23.71,9.88-33,15,0,16.65-.07,42.26-.07,42.26a43.23,43.23,0,0,0,31,41.45l15.61,4.61a91.28,91.28,0,0,0,51.74,0l15.6-4.61a43.23,43.23,0,0,0,31-41.45V73.63C153.26,67.9,140.62,58.07,134.37,58.13Z"/><path class="cls-2" d="M99.21,135.57s-5.83-8.16-11.67-8.16-11.49,9-11.49,9S84.63,130,87.63,130,99.21,135.57,99.21,135.57Z"/><path class="cls-2" d="M59.59,148.58a20.17,20.17,0,0,0,2.51.35c.79.12,1.78.11,2.89.18l3.74,0c1.37-.1,2.85-.07,4.41-.29s3.2-.32,4.89-.62,3.4-.48,5.19-.87,3.62-.66,5.38-1.1,3.57-.76,5.32-1.21l5.17-1.25c3.35-.82,6.51-1.52,9.24-2.09a37,37,0,0,1,3.74-.63c1.14-.12,2.1-.31,2.92-.31,1.64,0,2.55,0,2.55,0l-2.49.46c-.8.1-1.74.42-2.82.68s-2.29.66-3.61,1c-2.66.74-5.71,1.79-9,2.75-1.66.48-3.39,1-5.15,1.43s-3.59.87-5.4,1.3-3.63.69-5.42,1-3.65.48-5.35.71a49.23,49.23,0,0,1-5,.3c-1.6.09-3.12,0-4.52-.06s-2.67-.24-3.79-.38-2.1-.34-2.89-.57A13.06,13.06,0,0,1,59.59,148.58Z"/><path class="cls-2" d="M120.43,133.05a2.84,2.84,0,0,1,1.72-.16,3.28,3.28,0,0,1,1.72.84,3.58,3.58,0,0,1,1.12,2,4.33,4.33,0,0,1-.12,2.14,5.34,5.34,0,0,1-.74,1.57,5.19,5.19,0,0,1-.81.91,4.43,4.43,0,0,1-.36.3,9.5,9.5,0,0,1,0-1.61c0-.46.06-1,0-1.46a4.51,4.51,0,0,0,0-.74,2.56,2.56,0,0,0-.09-.69,3.12,3.12,0,0,0-.15-.62c-.11-.16-.14-.38-.27-.54a4,4,0,0,0-.81-1A10.65,10.65,0,0,0,120.43,133.05Z"/><path class="cls-2" d="M89.72,156.55a9.65,9.65,0,0,1,1.74-1,19.49,19.49,0,0,1,4-1.4,20.15,20.15,0,0,1,4.24-.49,10.47,10.47,0,0,1,2,.18,10,10,0,0,1-1.74,1,19.89,19.89,0,0,1-4,1.39,19.3,19.3,0,0,1-4.23.48A10.11,10.11,0,0,1,89.72,156.55Z"/><path class="cls-6" d="M33.6,81.91,27,81.61l.77,11.81,5.5-.23C33.31,89.42,33.4,85.66,33.6,81.91Z"/><polygon class="cls-6" points="37.3 82.07 37.3 93.02 61.16 92.02 61.16 83.13 37.3 82.07"/><polygon class="cls-6" points="114.1 83.13 114.1 92.02 147.48 93.42 148.24 81.61 114.1 83.13"/><path class="cls-8" d="M28.92,103.81l30.32,2.89S59,124.61,40,121.68C29.46,120.05,28.92,103.81,28.92,103.81Z"/><path class="cls-9" d="M47.13,109.69c-.11,1.71-2.59,3-5.54,2.78s-5.27-1.71-5.17-3.42,2.58-3,5.54-2.78S47.23,108,47.13,109.69Z"/><path class="cls-8" d="M143.73,103.81,113.4,106.7s.22,17.91,19.24,15C143.19,120.05,143.73,103.81,143.73,103.81Z"/><path class="cls-9" d="M125.52,109.69c.1,1.71,2.58,3,5.54,2.78s5.26-1.71,5.16-3.42-2.58-3-5.54-2.78S125.41,108,125.52,109.69Z"/><rect class="cls-5" x="10.21" y="124.78" width="4.63" height="30.61"/><rect class="cls-5" x="2.35" y="133.7" width="20.34" height="4.63"/></g></g></svg>