<svg xmlns="http://www.w3.org/2000/svg" viewBox="0 0 225.61 278.14"><defs><style>.cls-1{fill:#6dbdc6;}.cls-2{fill:#56abaf;}.cls-3{fill:#2f3233;}.cls-4{fill:#393c3d;}.cls-5{fill:#6fbc9f;}.cls-6{fill:#088b99;}.cls-7{fill:#59aaaa;}.cls-8{fill:#57b8bc;}.cls-9{fill:#f9dab4;}.cls-10{fill:#f7cea6;}.cls-11{fill:#f9f7f2;}.cls-12{fill:#e2b79a;}.cls-13{fill:#029db7;}.cls-14{fill:#f9f5ed;}.cls-15{fill:#292c2d;}</style></defs><title>资源 130</title><g id="图层_2" data-name="图层 2"><g id="Layer_1" data-name="Layer 1"><path class="cls-1" d="M153.31,212c-6.29-33.13-20.49-30-20.49-30-3.25,4.17,4.38,72.39,7.14,96.06h26.79C164.39,267.08,158.27,238.17,153.31,212Z"/><path class="cls-2" d="M147.54,193.55c-6.67-13.26-14.72-11.47-14.72-11.47-3.25,4.17,4.38,72.39,7.14,96.06h11.22c-2.2-16.13-6.76-49.69-8.46-63.27C141,200.94,145.38,195.39,147.54,193.55Z"/><path class="cls-1" d="M49.55,212c6.3-33.13,20.5-30,20.5-30,3.24,4.17-4.38,72.39-7.14,96.06H36.12C38.48,267.08,44.59,238.17,49.55,212Z"/><path class="cls-2" d="M55.33,193.55c6.66-13.26,14.72-11.47,14.72-11.47,3.24,4.17-4.38,72.39-7.14,96.06H51.69c2.2-16.13,6.76-49.69,8.46-63.27C61.89,200.94,57.49,195.39,55.33,193.55Z"/><path class="cls-3" d="M166.32,43.26S150.7,17.63,190.36,0c24.23,27,32.25,41.26,35.25,50.07-12.22,17.23-25.84,28.85-42.86,13.22C171.13,47.27,166.32,43.26,166.32,43.26Z"/><path class="cls-4" d="M197.83,67a55.37,55.37,0,0,1-13.58-2.34c16.33,13.61,29.51,2.18,41.36-14.54-3-8.81-11-23-35.25-50.07-1.35.6-2.63,1.21-3.85,1.82a30.94,30.94,0,0,1,13.56,14L188.35,27.54l2.11,2.71L201.72,19l7.82,9s-10.22,8.86-12.32,11a18.16,18.16,0,0,1-3.46,2.85l1.81,1.8L211.19,30.7s4.35,5.4,5,8.11a120.46,120.46,0,0,1-12.77,11.41l1.2,2.71,12.17-12.17s6.31,8,4.8,10.82S207.16,67.3,197.83,67Z"/><path class="cls-5" d="M155.31,42.46l10.81-5.4c10.42,6.61,20.23,16,20.23,29.84-7.21,7.21-7.81,6.61-7.81,6.61S159.51,59.49,155.31,42.46Z"/><path class="cls-3" d="M103.11,168.92s25.89,11.4,40,11.4c9.2.16,40.75-15.17,47.2-52.13S178,48.27,139,26.94s-96,1.8-117.35,27.34-32.32,75.86-6.92,103.06S57.06,194,103.11,168.92Z"/><path class="cls-1" d="M62.08,278.14h76.83l-2.24-95.65a86,86,0,0,0-30.3-5.35c-30.59,1.48-40.2,5.34-40.2,5.34Z"/><path class="cls-6" d="M99,183.81l-1.49.11s.05,76.29,2.08,94.22h1.12Z"/><polygon class="cls-7" points="98.8 184.81 105.85 190.3 103.21 192.94 97.98 185.47 98.8 184.81"/><path class="cls-6" d="M102.2,191.5l1,1.44,2.64-2.64-3.76-2.93A11.33,11.33,0,0,1,102.2,191.5Z"/><rect class="cls-6" x="102.06" y="205.88" width="32.52" height="12.03"/><rect class="cls-6" x="63.75" y="258.45" width="32.52" height="12.03"/><path class="cls-8" d="M72.77,182.35c0-3.24-.34-6,0-9.07.24-2.25,3.06-2.63,5.58-2.78,5.89-.33,11.71-.83,17.58-1.23,6.25-.43,12.53-.38,18.8-.46,2.56,0,5.12,0,7.66.2q1.61.13,3.21.33c3.45.4,2.14,3.8,2.17,5.7,0,1.62,0,4,0,5.66C127.76,180.7,98.91,186.69,72.77,182.35Z"/><path class="cls-9" d="M149.71,88.82s.2,17.6.51,43.37-10.86,47.27-48.72,47.72-53.78-25.14-53.95-39.6-.58-49-.58-49,7.25-48.45,56.14-46.76C148.4,46.09,149.71,88.82,149.71,88.82Z"/><path class="cls-10" d="M95.28,111.38c-1.85,4.07-2.58,8.43-3.9,12.64s-5.06,9-3.26,13.68c1.61,4.17,6.3,5.68,10.71,5.85,11.91.48,17.26-4.13,13.82-15.17C111.15,123.57,102.46,95.58,95.28,111.38Z"/><path class="cls-9" d="M96.39,110c-1.56,3.66-2.2,7.57-3.33,11.36s-4.25,8.13-2.81,12.27c1.3,3.73,5.15,5,8.78,5.17,9.81.34,14.26-3.83,11.52-13.7C109.35,120.82,102.44,95.82,96.39,110Z"/><path class="cls-11" d="M98.39,137.78c.14.59,1.46.82,3,.52s2.61-1,2.47-1.58-1.45-.81-2.94-.52S98.26,137.2,98.39,137.78Z"/><path class="cls-12" d="M101.3,165.65c-11.41.22-20.18-8.05-20.23-8.09h0a1.27,1.27,0,0,1-.21-1.24h0c.16-.43.51-.56.78-.31h0s.52.49,1.49,1.24h0A34,34,0,0,0,87.29,160h0a27.66,27.66,0,0,0,14,3.85h0c5.53-.11,11.65-2.29,17.66-8.59h0c.26-.27.61-.15.79.27h0a1.23,1.23,0,0,1-.15,1.24h0c-6.2,6.5-12.56,8.77-18.26,8.88Z"/><path class="cls-12" d="M123.28,157.81c0-2.61-1-3.82-2.12-4.5h0a5.75,5.75,0,0,0-2.94-.76H118a.59.59,0,0,1-.66-.53h0a.59.59,0,0,1,.53-.66h0a3.47,3.47,0,0,1,.36,0h0a7,7,0,0,1,3.59.93h0c1.42.86,2.68,2.59,2.69,5.52h0a.59.59,0,0,1-.59.6h0a.6.6,0,0,1-.61-.59Z"/><path class="cls-12" d="M98.4,169.21c1.85,1.77,3.42,1.86,4.71,1.51h0a6.44,6.44,0,0,0,2.72-1.69h0a1.85,1.85,0,0,0,.18-.2h0a.62.62,0,0,1,.87-.12h0a.6.6,0,0,1,.05.86h0l-.25.28h0a7.77,7.77,0,0,1-3.32,2.05h0a5.8,5.8,0,0,1-5.84-1.77h0a.61.61,0,0,1,0-.87h0a.61.61,0,0,1,.86,0Z"/><path class="cls-10" d="M101.5,179.91a79.68,79.68,0,0,0,14.77-1.46,113.18,113.18,0,0,1-24.4-.08c-50.63-12.77-40-53.16-40-53.16l-1-6.9-3.61,0,.26,22C47.72,154.77,63.65,180.35,101.5,179.91Z"/><path class="cls-10" d="M149.8,96.81,47.05,98l.35,29.69c7.49,7,22.68,14,46-7.4,6-6.09,5.82-10.18,18.69,2.39,11.4,11.14,28.35,11.82,38.1,3.8Z"/><path class="cls-10" d="M127.34,50.8c-4.53,1.38-8.29,3.72-10.14,7.53,0,0,11.21,24.58,32.55,34.56,0-2.64,0-4.07,0-4.07S148.91,63,127.34,50.8Z"/><path class="cls-13" d="M49.5,84.37s71.82,9,103,2.19c.22,18.23.36,29.85.36,29.85s-4.88,11.27-17.1,11.42-16.34-1.51-25.36-10.32-10.63-10-19-1.38S63,141.5,43.48,117.49C43.21,95.06,43.07,83,43.07,83Z"/><path class="cls-14" d="M52.39,125.8a23.57,23.57,0,0,0,11.46,4l-.51-44c-5.1-.5-9.08-.95-11.44-1.22Z"/><path class="cls-14" d="M66.86,129.83a24.82,24.82,0,0,0,4.8-.81l-.5-42.41c-1.68-.14-3.29-.29-4.81-.44Z"/><path class="cls-6" d="M114.86,90.26s36.39,1.78,36.67,26.09l1.31,0-.36-29.77c-9.74,2.12-23.45,2.7-37.71,2.5Z"/><path class="cls-15" d="M42.55,118.25l-.27-.32v-.42c-.27-22.44-.41-34.45-.41-34.45h0l0-1.5,7.83,1.62c.34,0,2.81.35,6.85.79h0c4.34.47,10.47,1.09,17.66,1.7h0c14.36,1.23,32.89,2.4,49.55,2.2h0c10.88-.13,21-.84,28.49-2.48h0l1.44-.31,0,1.47c.21,18.22.35,29.84.35,29.84h0v.26l-.1.23a22.47,22.47,0,0,1-4.21,6h0a19.43,19.43,0,0,1-14,6.13h0c-6.16.07-10.43-.3-14.35-1.89h0c-3.92-1.6-7.33-4.34-11.87-8.77h0A67.72,67.72,0,0,0,103.7,113h0a6.27,6.27,0,0,0-3.67-1.59h0a5.61,5.61,0,0,0-3.11,1.25h0A36.42,36.42,0,0,0,92.2,117h0C87,122.3,77.32,130.91,65.63,131.09h0c-7.36.08-15.36-3.37-23-12.84Zm23,10.43c10.45-.08,19.8-8.16,24.88-13.39h0a37.88,37.88,0,0,1,5.06-4.56h0a8,8,0,0,1,4.46-1.68h0a8.5,8.5,0,0,1,5.14,2.07h0a67.67,67.67,0,0,1,6.08,5.53h0c4.48,4.37,7.64,6.86,11.1,8.26h0c3.44,1.4,7.34,1.78,13.41,1.71h0a16.75,16.75,0,0,0,11.24-4.4h0a20.93,20.93,0,0,0,4.56-5.87h0c0-.08.07-.15.1-.2h0c0-1.8-.15-12.33-.33-28.12h0c-7.61,1.49-17.23,2.12-27.53,2.24h0c-33.57.4-74.39-4.7-74.42-4.71h0l.15-1.19.24-1.18-.24,1.18-.15,1.19H49.3l-5-1c.05,3.82.18,14.91.39,32.54h0C52,125.89,59.1,128.74,65.6,128.68Z"/><path class="cls-3" d="M42.11,103.79S68.11,83,76.54,67.32l-12.09,28s36.12-12,58.24-38.35c11.05,20,19.11,27,31.08,36.76,13.62-.16,15-1.35,15-1.35S157.63,30,112.36,30.52,30.08,51.71,42.11,103.79Z"/></g></g></svg>