<svg xmlns="http://www.w3.org/2000/svg" viewBox="0 0 149.97 260"><defs><style>.cls-1{fill:#515151;}.cls-2{fill:#fff;}.cls-3{fill:#606060;}.cls-4{fill:#393c3d;}.cls-5{fill:#eaeaea;}.cls-6{fill:#6d4c3a;}.cls-7{fill:#f4d3b0;}.cls-8{fill:#f9dab4;}.cls-9{fill:#efc4a0;}.cls-10{fill:#3a332d;}.cls-11{fill:#5b3d2f;}</style></defs><title>资源 336</title><g id="图层_2" data-name="图层 2"><g id="Layer_1" data-name="Layer 1"><path class="cls-1" d="M42.63,160.88c-6.13-.25-24.23,12-35.37,99.12H39.72l10-89S49.22,161.16,42.63,160.88Z"/><path class="cls-1" d="M106.06,160.88c6.12-.25,24.22,12,35.36,99.12H109L99,171S99.46,161.16,106.06,160.88Z"/><polygon class="cls-2" points="105.14 160.86 102.64 155.45 76.6 155.45 73.99 155.45 47.96 155.45 45.09 161.77 40.51 208.59 110.24 208.59 105.14 160.86"/><rect class="cls-3" x="70.15" y="166.77" width="10.49" height="10.57"/><rect class="cls-4" x="70.15" y="175.81" width="10.49" height="1.52"/><polygon class="cls-3" points="87.96 219.98 76.13 242.32 64.29 219.98 70.15 176.83 80.64 176.83 87.96 219.98"/><polygon class="cls-5" points="45.95 159.67 59.15 181.33 79.64 163.09 45.95 159.67"/><polygon class="cls-5" points="104.64 159.67 91.44 181.33 70.96 163.09 104.64 159.67"/><path class="cls-3" d="M34.39,208.59c-2.37,18.57-4.79,37-6.31,51.41h94.43c-.53-5-1.17-10.54-1.88-16.39-12-11.48-70.45-76-75.18-82.75C42.52,168.1,37.63,183.09,34.39,208.59Z"/><path class="cls-4" d="M45.47,160.88c.19,4.13.59,18.1-2.35,25.13-2.4,5.73,12.71,1.22,12.71,1.22S52.91,195,54,197.82c.88,2.34,18.44.62,24,0C62.17,180.42,47.76,164.13,45.47,160.88Z"/><path class="cls-4" d="M57.51,211v49h65c-.53-5-1.17-10.54-1.88-16.39-6.81-6.5-28.5-30-46.9-50.42Z"/><path class="cls-3" d="M116.21,208.59c-3.44-27-8.71-42.2-11.56-48.92-7.54,9.08-44.23,52.39-44.23,52.39s0,24.48,0,47.94h62.05C121,245.64,118.57,227.16,116.21,208.59Z"/><path class="cls-4" d="M103.07,161.56C97,168.82,82.69,185.75,72.31,198c6.75.7,21.5,2,22.3-.19,1-2.78-1.87-10.59-1.87-10.59s15.11,4.51,12.71-1.22C102.65,179.32,102.88,166.36,103.07,161.56Z"/><path class="cls-6" d="M145,43.14s-3.05-18.06-16.83-29.41C115.78,3.57,93.68,0,76.16,0H73.81c-17.52,0-39.63,3.57-52,13.73C8.06,25.08,5,43.14,5,43.14s-5.16,8.44-.07,71.74l70,1.5h.13l70-1.5C150.13,51.58,145,43.14,145,43.14Z"/><path class="cls-7" d="M20.22,114.41s-8.13-10-17.2-5.35,3.49,35,21.39,37.5Z"/><path class="cls-7" d="M129.75,114.41s8.13-10,17.19-5.35-3.48,35-21.38,37.5Z"/><path class="cls-8" d="M122.12,153.22S103.85,165.41,75,165.87s-47.14-12.65-47.14-12.65a28.89,28.89,0,0,1-11.31-23V65.87L75,65.41S89.92,48,105.2,48.15s28.23,12.17,28.23,12.17v69.94A28.89,28.89,0,0,1,122.12,153.22Z"/><path class="cls-9" d="M85.81,130.85s-2.46-7.88-10.38-8.38-11.27,9.64-11.27,9.64,5-7.53,11.25-6.83A17.55,17.55,0,0,1,85.81,130.85Z"/><path class="cls-9" d="M41.81,144.57l2.87.49c1.81.33,4.43.64,7.55,1l5,.52,5.64.41,6,.22,6.21-.07c2-.05,4.18-.24,6.23-.35s4-.41,6-.6,3.8-.56,5.58-.79,3.43-.63,5-.89c6.17-1.18,10.23-2.41,10.23-2.41s-.92.51-2.62,1.27c-.86.34-1.89.81-3.11,1.26s-2.57,1-4.11,1.43-3.18,1-5,1.38-3.64.92-5.65,1.17-4.06.73-6.12.86-4.12.36-6.34.44l-6.37,0-6.15-.47A99.16,99.16,0,0,1,52,147.66,69.07,69.07,0,0,1,41.81,144.57Z"/><path class="cls-10" d="M32.8,116.17a1.72,1.72,0,0,1-1.71-1.56,9.23,9.23,0,0,1,7-9.58c6-1.77,10.47,2.9,12,5.62a1.72,1.72,0,0,1-3,1.67c-.12-.22-3.13-5.42-8-4a5.78,5.78,0,0,0-4.51,6A1.72,1.72,0,0,1,33,116.16Z"/><polygon class="cls-11" points="50.17 92.06 51.74 96.1 23.34 99.16 24.66 92.39 50.17 92.06"/><path class="cls-10" d="M117.17,116.17H117a1.71,1.71,0,0,1-1.54-1.86,5.79,5.79,0,0,0-4.51-6c-4.87-1.43-7.88,3.77-8,4a1.72,1.72,0,0,1-3-1.68c1.51-2.72,6-7.39,12-5.62a9.24,9.24,0,0,1,7,9.58A1.73,1.73,0,0,1,117.17,116.17Z"/><polygon class="cls-11" points="99.8 92.06 98.22 96.1 126.62 99.16 125.31 92.39 99.8 92.06"/><path class="cls-6" d="M74.09,65.41S88,65.51,89,75.76,87.64,93,84.51,97.29c0,0,12.16-5,15.11-13.72,0,0,2.78,7,0,10.77a23.59,23.59,0,0,0,10.94-15.8s-.87,10.59-5.9,18.58c0,0,12.15-6.78,14.41-15.8,0,0,4.28,4.33,1,23.61,0,0,19.68-10.94,22.74-42.72C144.57,44.49,85,37.39,85,37.39Z"/></g></g></svg>