<?xml version="1.0" standalone="no"?><!DOCTYPE svg PUBLIC "-//W3C//DTD SVG 1.1//EN" "http://www.w3.org/Graphics/SVG/1.1/DTD/svg11.dtd"><svg t="1548743914896" class="icon" style="" viewBox="0 0 1024 1024" version="1.1" xmlns="http://www.w3.org/2000/svg" p-id="6905" xmlns:xlink="http://www.w3.org/1999/xlink" width="200" height="200"><defs><style type="text/css"></style></defs><path d="M247.466667 571.733333c-3.413333 0-5.688889 2.275556-5.688889 5.688889v74.524445h44.373333l-10.24-82.488889-28.444444 2.275555zM607.573333 617.813333h-45.511111c-3.982222 0-6.257778 2.275556-6.257778 6.257778v113.208889l5.688889-11.946667v-95.573333h47.217778v95.573333h5.12v-101.262222c0-3.982222-2.275556-6.257778-6.257778-6.257778z" p-id="6906"></path><path d="M512 0C229.262222 0 0 229.262222 0 512s229.262222 512 512 512 512-229.262222 512-512S794.737778 0 512 0z m337.351111 361.244444c-55.182222 148.48-234.951111-150.755556-367.502222 130.844445 47.786667-344.177778 395.946667-288.995556 367.502222-130.844445z m-19.911111 200.248889l-161.564444 7.964445v-10.808889c0-5.688889 2.844444-8.533333 8.533333-9.102222l161.564444-7.964445v10.808889c0 5.688889-2.844444 9.102222-8.533333 9.102222z m7.395556 18.773334l-9.102223 52.906666c-1.137778 6.826667-5.12 10.24-11.946666 10.24h-32.995556l9.102222-52.906666c1.137778-6.826667 5.12-10.24 11.946667-10.24h32.995556z m-114.915556 0h33.564444c6.826667 0 10.808889 3.413333 11.946667 10.24l9.102222 52.906666h-32.995555c-6.826667 0-10.808889-3.413333-11.946667-10.24l-9.671111-52.906666z m3.413333 62.577777h-32.995555c-6.826667 0-10.808889-3.413333-11.946667-10.24L671.288889 580.266667h33.564444c6.826667 0 10.808889 3.413333 11.946667 10.24l8.533333 52.337777zM493.795556 492.088889c157.013333-77.368889 273.066667-34.702222 330.524444 35.271111L674.133333 534.755556c-30.151111-35.84-81.92-58.026667-180.337777-42.666667z m98.986666-371.484445c85.902222 132.551111-261.12 98.986667-114.346666 373.191112C230.4 250.311111 482.986667 3.413333 592.782222 120.604444z m-337.351111 50.631112C412.444444 190.008889 164.977778 435.2 469.902222 497.777778c-345.315556 35.271111-374.328889-316.871111-214.471111-326.542222zM171.235556 812.942222H109.795556v-167.253333H91.022222L125.155556 551.822222c2.844444-7.964444 8.533333-11.946667 17.066666-11.946666h45.511111l-34.133333 91.022222h18.204444v182.044444h-0.568888z m106.951111 0.568889c-6.826667 0-10.808889-3.413333-11.946667-10.24l-8.533333-59.733333h23.324444c6.826667 0 10.808889 3.413333 11.946667 10.24L301.511111 813.511111h-23.324444z m79.644444 0h-41.528889c-6.826667 0-10.808889-3.413333-11.946666-10.808889l-15.928889-131.982222h-46.648889v113.777778l15.36-2.275556v19.911111l-76.8 10.808889-4.551111-19.342222 12.515555-1.706667V563.2c0-5.688889 2.844444-8.533333 8.533334-9.102222l151.893333-11.946667v19.342222l-21.617778 2.275556 10.808889 87.04h24.462222l-11.377778 19.342222h-10.24l17.066667 143.36z m158.151111-19.342222c0 4.551111-1.706667 9.102222-5.12 12.515555-3.413333 3.413333-7.395556 5.12-12.515555 5.12H401.066667l-11.377778-26.737777h88.746667c3.982222 0 6.257778-2.275556 6.257777-6.257778v-98.986667h31.288889v114.346667z m-129.706666-38.115556l6.257777-69.973333c0.568889-7.395556 4.551111-10.808889 11.946667-10.808889h17.635556l-5.688889 69.973333c-0.568889 7.395556-4.551111 10.808889-11.946667 10.808889h-18.204444z m40.96 21.048889v-108.657778H477.866667v108.657778h-50.631111z m88.746666-180.906666H494.933333v44.373333h21.048889l-11.377778 19.342222H381.724444v-19.342222h8.533334V559.786667h32.995555v80.782222h9.671111V541.013333h62.577778v35.84h21.048889v19.342223h-0.568889z m101.262222 217.315555c-11.377778 0-18.773333-5.12-22.186666-15.928889l-6.826667-19.342222-9.102222 21.048889c-3.982222 9.671111-11.377778 14.222222-21.617778 14.222222h-39.253333l30.151111-61.44h-26.737778v-135.964444c0-5.12 1.706667-9.102222 5.688889-13.084445 3.413333-3.413333 7.395556-5.12 12.515556-5.12h12.515555l6.826667-34.702222h-37.546667v-19.911111h126.293333V563.2h-25.031111l-6.826666 34.702222h14.222222c5.12 0 9.102222 1.706667 12.515555 5.12 3.413333 3.413333 5.12 7.964444 5.12 13.084445v135.964444h-20.48l24.462223 61.44h-34.702223z m92.728889-12.515555c-0.568889 7.395556-4.551111 10.808889-11.946666 10.808888h-25.031111l10.24-101.831111c0.568889-7.395556 4.551111-10.808889 11.946666-10.808889h24.462222l-9.671111 101.831112z m98.417778 10.808888c-7.395556 0-11.377778-3.413333-11.946667-10.808888l-10.24-101.831112h24.462223c6.826667 0 10.808889 3.413333 11.946666 10.808889l10.24 101.831111h-24.462222z m21.617778-120.604444h-46.648889V813.511111H722.488889v-122.311111h-55.182222v-19.342222h55.182222v-21.617778h60.871111v21.617778h58.026667l-11.377778 19.342222z m81.92 112.071111c-1.137778 6.257778-5.12 9.671111-11.946667 9.671111h-54.613333l18.773333-99.555555h-18.204444l18.204444-70.542223h-31.288889l25.031111-85.333333c1.706667-5.688889 5.12-8.533333 11.377778-8.533333h55.182222l-21.048888 69.973333h28.444444l-19.911111 75.093333h19.342222l-19.342222 109.226667z" p-id="6907"></path></svg>