<svg xmlns="http://www.w3.org/2000/svg" viewBox="0 0 174.21 274.42"><defs><style>.cls-1{fill:#393c3d;}.cls-2{fill:#6b4627;}.cls-3{fill:#3f2d20;}.cls-4{fill:#efc4a0;}.cls-5{fill:#2a6d7f;}.cls-6{fill:#39788e;}.cls-7{fill:#ea9628;}.cls-8{fill:#f4d3b0;}.cls-9{fill:#f9dab4;}.cls-10{fill:#3a332d;}.cls-11{fill:#492020;}.cls-12{fill:#c65044;}</style></defs><title>资源 165</title><g id="图层_2" data-name="图层 2"><g id="Layer_1" data-name="Layer 1"><path class="cls-1" d="M58,155.86s-34.93,26.43-38.88,33.25,4.67,35.16,13.64,38.75,50.35,9.33,50.35,9.33Z"/><path class="cls-1" d="M121.5,150.55s48.34,20.25,51.94,32.1-6.54,30.86-6.54,30.86L108,222.84Z"/><path class="cls-2" d="M67.79,168.46s-8.72,56.89-15.19,106h85.47c-6.48-49.07-15.19-106-15.19-106H67.79Z"/><path class="cls-3" d="M116,172.29c0,5.34-2.47,25.36-20.69,25.36-16.42,0-20.66-20-20.66-25.36s9.25-9.68,20.66-9.68S116,166.94,116,172.29Z"/><path class="cls-4" d="M111.92,172.86c0,3.91-2,18.56-16.6,18.56-13.17,0-16.57-14.65-16.57-18.56s7.42-7.09,16.57-7.09S111.92,168.94,111.92,172.86Z"/><path class="cls-5" d="M34.56,210.91c-7.79,23.59-10.08,47.9-10.66,63.51H57.56L74,169.24l-10.43-6.69S42.76,186.1,34.56,210.91Z"/><path class="cls-5" d="M163.47,210.91c7.79,23.59,10.08,47.9,10.66,63.51H140.47L124.08,169.24l10.43-6.69S155.27,186.1,163.47,210.91Z"/><path class="cls-6" d="M57.1,201c-4.85,17.29-8.42,47-10,73.38H85.68c.87-21.61,1.3-41,1.3-41L75.89,169Z"/><path class="cls-1" d="M57.1,201C61.85,214.89,87,233.38,87,233.38L75.89,169S72,164.75,57.1,201Z"/><circle class="cls-5" cx="70.54" cy="253.4" r="5.09"/><path class="cls-6" d="M116.49,162.55S104.55,222,104.55,235c0,5.22.47,21.51,1.32,39.44h48.59C145.2,229.52,130.54,168.37,116.49,162.55Z"/><path class="cls-1" d="M131.94,187.86c-5-13.54-10.28-23.17-15.45-25.31,0,0-10.06,50.08-11.71,68.33C114.8,217.12,131.6,193.27,131.94,187.86Z"/><path class="cls-7" d="M29.56,128.82s0-39.47-3.23-46.65S-14.58,15.06,6.24,3.22,150.14,14,164.85,41.62s9.45,67.82-7.66,84.33S29.56,128.82,29.56,128.82Z"/><path class="cls-8" d="M47.41,121.88s-7.78-9.55-16.45-5.11,3.34,33.49,20.45,35.86Z"/><path class="cls-8" d="M147.57,121.88s7.78-9.55,16.44-5.11-3.32,33.49-20.44,35.86Z"/><path class="cls-9" d="M88.76,79.09C68.11,81.19,72.87,76.57,55.92,74c-9.81-1.49-13.61,4.39-15.08,9.61.81,13.2,3.89,57.78,8.86,69,5.75,13,30.35,26.22,48,26.88h0c17.61-.66,42.21-13.91,48-26.88,4.42-9.93,7.34-46.22,8.51-63.46C142.48,68.87,107,77.24,88.76,79.09Z"/><path class="cls-10" d="M59.41,121.76a1.36,1.36,0,0,1-1.36-1.24,7.35,7.35,0,0,1,5.55-7.64c4.79-1.41,8.34,2.32,9.55,4.48a1.37,1.37,0,0,1-2.4,1.34c-.1-.18-2.49-4.33-6.38-3.19a4.6,4.6,0,0,0-3.59,4.75,1.37,1.37,0,0,1-1.24,1.5Z"/><path class="cls-10" d="M135.57,121.76h-.13a1.38,1.38,0,0,1-1.25-1.49,4.59,4.59,0,0,0-3.59-4.76c-3.88-1.14-6.28,3-6.38,3.19a1.37,1.37,0,0,1-2.39-1.34c1.2-2.16,4.75-5.89,9.55-4.48a7.37,7.37,0,0,1,5.55,7.64A1.37,1.37,0,0,1,135.57,121.76Z"/><polygon class="cls-7" points="121.42 103.7 120.55 107.05 143.33 106.89 141.67 101.64 121.42 103.7"/><polygon class="cls-7" points="73.55 103.7 74.43 107.05 51.65 106.89 53.31 101.64 73.55 103.7"/><path class="cls-4" d="M108,138.53a12,12,0,0,1-10.46,6.05c-5.5,0-10.56-5.29-10.56-5.29s5.86,3.53,10.13,3.53A17.73,17.73,0,0,0,108,138.53Z"/><path class="cls-11" d="M98.53,150.55h-25s5.86,16.51,8.92,17.4c1.42.42,7.58,1,14,1.22v.07l1,0,1,0v-.07c6.47-.25,12.62-.8,14-1.22,3.07-.89,8.93-17.4,8.93-17.4Z"/><path class="cls-12" d="M97.49,155.86a14.56,14.56,0,0,0-14.36,12.25,128.39,128.39,0,0,0,13.31,1.06v.07l1,0,1,0v-.07a128.65,128.65,0,0,0,13.32-1.06A14.56,14.56,0,0,0,97.49,155.86Z"/></g></g></svg>