<?xml version="1.0" standalone="no"?><!DOCTYPE svg PUBLIC "-//W3C//DTD SVG 1.1//EN" "http://www.w3.org/Graphics/SVG/1.1/DTD/svg11.dtd"><svg t="1548838646745" class="icon" style="" viewBox="0 0 1024 1024" version="1.1" xmlns="http://www.w3.org/2000/svg" p-id="9030" xmlns:xlink="http://www.w3.org/1999/xlink" width="200" height="200"><defs><style type="text/css"></style></defs><path d="M619.473848 920.938696c-39.866944 0-74.955894 1.034999-103.787853 3.742995-28.807959-2.707996-63.82891-3.742995-103.582854-3.742995-114.596838 0-216.564693 43.713938-216.564693 76.014892 0 30.947956 84.70788 27.476961 199.019718 26.316963 45.943935-0.466999 88.371875-5.244993 122.754826-12.867982 33.826952 7.18999 75.093894 11.684983 119.694831 12.139983 114.243838 1.159998 198.882718 4.595993 198.882718-26.134963 0-32.062955-101.887856-75.468893-216.416693-75.468893z" fill="#F0AB1B" p-id="9031"></path><path d="M904.657444 608.721138a2783.444059 2783.444059 0 0 0-70.9289-172.895755 488.771308 488.771308 0 0 0 1.797998-41.869941C835.526542 176.37775 724.1607 0 512.500999 0S189.486457 176.37775 189.486457 393.955442c0 13.254981 0.556999 26.339963 1.614997 39.252945a2797.109039 2797.109039 0 0 0-71.895898 175.93375C74.650619 729.951966 72.670622 839.166812 88.1666 847.2908c11.013984 5.767992 51.268927-36.465948 89.634873-104.811851C203.139437 903.541721 310.215286 1023.99855 512.499999 1023.99855c201.738714 0 308.769563-119.79683 334.494527-280.222603 38.160946 67.025905 77.85789 108.292847 88.802874 102.592855 15.542978-8.111989 13.562981-117.099834-31.139956-237.647664z" fill="#040000" p-id="9032"></path><path d="M430.194116 127.817819c-31.117956 0.602999-55.648921 37.273947-54.772923 81.896884 0.864999 44.634937 26.794962 80.326886 57.901918 79.723887 31.117956-0.602999 55.647921-37.272947 54.783923-81.907884-0.875999-44.623937-26.805962-80.315886-57.912918-79.712887z m171.985756 0.829999c-31.481955-0.601999-57.684918 34.907951-58.572917 79.314888-0.863999 44.395937 23.939966 80.884885 55.409922 81.487884 31.470955 0.602999 57.685918-34.906951 58.561917-79.314888s-23.939966-80.895885-55.398922-81.486884z m118.226833 357.944493c-60.836914 10.581985-131.367814 16.622976-206.563708 16.622976-73.749896 0-142.995798-5.824992-203.047712-16.029977-41.550941 51.449927-44.827937 127.14582-44.827937 211.556701 0 155.010781 87.676876 280.678603 249.878647 280.678602s249.877646-125.667822 249.877646-280.678602c0.012-84.74088-3.299995-160.699772-45.316936-212.1497z" fill="#FFFFFF" p-id="9033"></path><path d="M515.856995 315.744553c-108.953846 0-197.279721 21.935969-197.279721 39.479944 0 17.544975 115.439837 65.775907 197.268721 65.775907s197.278721-49.41393 197.27872-65.774907c0.011-16.372977-88.325875-39.480944-197.26772-39.480944z" fill="#F0AB1B" p-id="9034"></path><path d="M830.713549 431.786389l0.08-1.183999c-80.110887 26.521962-193.103727 43.030939-318.31555 43.030939-125.553822 0-238.819662-16.610976-318.964548-43.246938a2758.356094 2758.356094 0 0 0-48.525931 115.142837c49.37993 16.349977 104.743852 29.445958 164.362767 38.639945v146.726792s42.21194 7.849989 82.079884 9.511987c28.22796 1.182998 58.207918-3.663995 58.207917-3.663995V597.890153c20.673971 0.920999 41.608941 1.455998 62.839911 1.455998 137.727805 0 264.714625-19.933972 366.523481-53.497924a2772.078075 2772.078075 0 0 0-48.287931-114.061838z" fill="#DB2921" p-id="9035"></path><path d="M448.61409 184.228739c-13.709981 0-24.825965 14.39298-24.825965 32.141955 0 17.749975 11.115984 32.130955 24.825965 32.130954s24.826965-14.39298 24.826965-32.129954c-0.012-17.749975-11.127984-32.142954-24.826965-32.142955z m182.669741 20.422971s-9.943986-11.934983-35.05395-8.771987c-24.746965 3.116996-34.406951 17.464975-36.249949 18.989973 0 0-5.927992 8.156988-1.751997 13.174981 4.175994 5.005993 11.684983-2.923996 11.684983-2.923996s11.445984-14.13098 26.304963-14.619979c14.870979-0.489999 23.381967 5.846992 23.381967 5.846992s7.31599 5.359992 11.684983 0c4.402994-5.357992 0-11.695983 0-11.695984z" fill="#040000" p-id="9036"></path></svg>