<svg xmlns="http://www.w3.org/2000/svg" viewBox="0 0 257.07 279.33"><defs><style>.cls-1{fill:#684427;}.cls-2{fill:#75bac6;}.cls-3{fill:#5ba3aa;}.cls-4{fill:#f9dab4;}.cls-5{fill:#7a7c7c;}.cls-6{fill:#656868;}.cls-7{fill:#a5a29d;}.cls-8{fill:#f7cea6;}.cls-9{fill:#929393;}.cls-10{fill:#838484;}.cls-11{fill:#717272;}.cls-12{fill:#c6c1ba;}.cls-13{fill:#393c3d;}.cls-14{fill:#e5be9e;}.cls-15{fill:#515151;}.cls-16{fill:#56351f;}.cls-17{fill:#f9f5ed;}.cls-18{fill:#e0605c;}.cls-19{fill:#ad3936;}.cls-20{fill:#484b4c;}.cls-21{fill:#656666;}.cls-22{fill:#7a7a7a;}</style></defs><title>资源 220</title><g id="图层_2" data-name="图层 2"><g id="Layer_1" data-name="Layer 1"><path class="cls-1" d="M170.16,279.33c-1.63-10.43-2.89-18-2.89-18H86.36s-1.52,10.16-2.56,18Z"/><rect class="cls-2" x="95.74" y="177.33" width="63.83" height="83.99"/><path class="cls-3" d="M140.94,181.92c0,6.82-6.14,12.35-13.71,12.35s-13.71-5.53-13.71-12.35,6.14-12.34,13.71-12.34S140.94,175.11,140.94,181.92Z"/><path class="cls-4" d="M138.85,179.83a11.62,11.62,0,1,1-11.62-11.51A11.56,11.56,0,0,1,138.85,179.83Z"/><rect class="cls-5" x="86.4" y="259.67" width="81.61" height="9.83"/><path class="cls-6" d="M137.27,266.57a5.34,5.34,0,0,1-5.6,5h-9.33a5.35,5.35,0,0,1-5.6-5v-3.78a5.35,5.35,0,0,1,5.6-5h9.33a5.34,5.34,0,0,1,5.6,5Z"/><path class="cls-7" d="M131.52,258.52s4.2.42,5,4.48A12.55,12.55,0,0,0,131.52,258.52Z"/><path class="cls-4" d="M227.93,240.87c-9.63.45-37-2.48-23.59-23.48,0,0,5.54-6.45,10.08-8.86s4-8.58,4-12.78,9.94-3.25,10,9.93c7.9-5.16,20.52-8.14,24.17-4s-1.34,8.41-12.43,12.79c13.85-3.57,15.52.67,15.54,4.66,0,2.59-5.13,6.2-12.61,7.67,0,0,10.8-2,13.06.59s.63,7.27-6.61,8.11C242.52,236.3,234.9,240.55,227.93,240.87Z"/><path class="cls-8" d="M230.6,224.15a16.42,16.42,0,0,0-.5-4.7,14.14,14.14,0,0,0-2.49-5.14c-1.75-2-4.29-1-1.66-4.5s-.85-11.31-2.51-13.79-5,.66-5,.66c0-.32,0-.63,0-.93,0-4,9.18-3.31,9.94,8.47-.21,3.74-1.05,6.88-.62,7.27,1.18,1,3.63,5.53,4.46,9.24,0,0,1.56,8.69-.31,11.19s-1.77,1.21-1.46-1.16a43,43,0,0,0,.2-5.9C230.61,224.63,230.61,224.39,230.6,224.15Z"/><path class="cls-8" d="M249.17,202.31c3,2.66,1.44,5.17-1.35,7s-9.14,4-11.36,5-2.59,2.14,2.77,1.44,12.48-1.58,14-.23.82,4.9-2.81,7.13A33,33,0,0,1,240,226.82c-2.09.28-2.32,2.11.49,1.74s10.78-1.81,13.17-.52,2.07,3-2,5-7.39,2.59-8.35,3.87h0a36.46,36.46,0,0,1,6.24-1.41c7.24-.84,8.86-5.56,6.61-8.11s-13.06-.59-13.06-.59c7.48-1.47,12.62-5.08,12.61-7.67,0-4-1.69-8.23-15.54-4.66,11.09-4.38,16.07-8.66,12.43-12.79-3.16-3.58-13.1-1.8-20.83,2.1C231.83,203.74,246.19,199.65,249.17,202.31Z"/><path class="cls-9" d="M137.26,178.68l2.29,89.64s17.36,4.2,29.12,0V248.44s32.76-2.24,41.16-10.64c-1.4-17.35-3.92-23.23-3.92-23.23s-17.64,1.68-23.24,3.64-5.88-10.92-8.12-18.2-8.68-19-17.92-23S137.26,178.68,137.26,178.68Z"/><path class="cls-10" d="M208.53,226.24c-2.13,7.74-7.8,14.64-15.64,16.18s-21.62,5.8-23.38-.7-5-26.31-7.14-32.61-2.66-3.78-2.66-.14,3.82,16,5,30.51a90.4,90.4,0,0,1-2.42,27.8s.3,1,.74,2.41a30.86,30.86,0,0,0,5.61-1.37V248.44s32.76-2.24,41.16-10.64C209.45,233.16,209,229.34,208.53,226.24Z"/><path class="cls-11" d="M150.43,193.08a99.27,99.27,0,0,0-12.17-14.88c-.64.29-1,.48-1,.48l1.2,46.78a52.73,52.73,0,0,0,8.4-1c4.83-1.05,5.35-2.1,3-5.09s-5.72-7.09-5.72-7.09,4.09-2,9.76-4.83S157.57,204,150.43,193.08Z"/><path class="cls-5" d="M137.27,179l1.16,45.33a49.4,49.4,0,0,0,6.61-.86c4.83-1,5.35-2.06,3-5s-5.72-6.94-5.72-6.94,4.09-2,9.76-4.72,3.68-3.4-3.46-14.08A96.29,96.29,0,0,0,137.27,179Z"/><path class="cls-12" d="M170.48,271.16c-1.83,4.7-19.57,5.59-25.36,3.58s-6.81-4.12-5.54-8.41c1.87,1.41,4.61,1.66,6.85,1.72a79.45,79.45,0,0,0,13.16-1c3-.42,6-2.28,9.1-1.34C168.69,265.75,171.67,268.09,170.48,271.16Z"/><path class="cls-7" d="M140.64,272.47a11.44,11.44,0,0,1,.68-5.21,6.62,6.62,0,0,1-1.74-.93C138.76,269.09,138.89,271,140.64,272.47Zm3.88-4.53a25,25,0,0,0-1.05,6.17q.75.33,1.65.63a14.1,14.1,0,0,0,2.47.58,31.83,31.83,0,0,1,1.13-7.27c-.77,0-1.53,0-2.29,0S145.17,268,144.52,267.94Zm7.88-.05a28.85,28.85,0,0,1-.74,7.82c1.63.06,3.38.05,5.13,0a19.93,19.93,0,0,0-.31-8.16C155.12,267.66,153.77,267.79,152.4,267.89Zm7.91,7.46a38.15,38.15,0,0,0,4.41-.81c.52-3-.51-6.58-1.19-8.47a36.19,36.19,0,0,1-3.63,1A34.26,34.26,0,0,1,160.31,275.35Zm5.89-9.83a20.9,20.9,0,0,1,1.7,7.91,4.8,4.8,0,0,0,2.58-2.27c1.19-3.07-1.79-5.41-1.79-5.41A6.64,6.64,0,0,0,166.2,265.52Z"/><path class="cls-10" d="M156.63,177.05a19.24,19.24,0,0,0-9.49-1.28l-4.58,1.56s11.55,3.15,20.27,11.87c6.13,6.13,11,12.23,13.28,17.71a69.75,69.75,0,0,0-1.56-6.9C172.31,192.73,165.87,181,156.63,177.05Zm49.28,37.52s-17.64,1.68-23.24,3.64c-2.56.89-4-1.32-5-4.67,0,6.84,2.1,8.11,1.05,12.51s-3.36,15.11-1.05,10.91,1.89-15.74,6.3-17,19.68-5.58,23.59.57A36.49,36.49,0,0,0,205.91,214.57Z"/><path class="cls-12" d="M210.67,241.37a10.1,10.1,0,0,0,2.27-2.71,13.19,13.19,0,0,0,1.14-9c-1.62-7.66-4-16-7.1-16.56s-4.59,1.12-3,3.92,5.25,12.32,3.54,18.76c-.38,1.42-1.72,4.85-.39,6C208.23,242.76,209.55,242.28,210.67,241.37Z"/><path class="cls-7" d="M206.61,239.43a2.68,2.68,0,0,0,.52,2.39c1.1.94,2.42.46,3.54-.45a10.1,10.1,0,0,0,2.27-2.71c.21-.4.39-.8.56-1.21A8.29,8.29,0,0,1,206.61,239.43Zm1.06-11a21.06,21.06,0,0,1,5.56-2.46c-.27-1.11-.56-2.21-.86-3.26-1.46.2-4,.75-5.43,2.2A33.24,33.24,0,0,1,207.67,228.41Zm-.15,7.41c-.08.28-.19.63-.31,1a14.18,14.18,0,0,0,7.06-2.34,14.14,14.14,0,0,0-.19-4.81c-.07-.33-.15-.67-.22-1L208,231.25A15.82,15.82,0,0,1,207.52,235.82Zm4-15.88a30.31,30.31,0,0,0-1.38-3.4,40.7,40.7,0,0,0-4.78,3.49c.35.86.7,1.84,1,2.89A11,11,0,0,1,211.51,219.94ZM204,217.06c.07.11.13.24.2.37a12.37,12.37,0,0,1,4.5-3.18,3,3,0,0,0-1.7-1.11C203.89,212.6,202.39,214.26,204,217.06Z"/><path class="cls-9" d="M74.32,183.63a180.94,180.94,0,0,1,36.54-10.5l5.88-.42c1.05,6.72-.84,71.18-3.36,97-9.24,7.35-29.19,3.36-29.19,3.36s2.52-32.34,3.57-43.46.74-22.37-1.47-20.16-21.42,11.13-30.23,14.07S43,229,34.85,230s-12-3.57-18-12.71S-2.53,195.81,8,175.23A47.69,47.69,0,0,0,33.9,195.49s3.05,4.52,11.73.74S74.32,183.63,74.32,183.63Z"/><path class="cls-10" d="M117,179.55a64.15,64.15,0,0,0-.28-6.84l-5.88.42a180.94,180.94,0,0,0-36.54,10.5s-20,8.82-28.69,12.6-11.73-.74-11.73-.74A47.69,47.69,0,0,1,8,175.23c-3.7,7.26-4.42,13.49-3.55,18.93h0s24,3.05,28.19,11.17c2.52,5.6,1,7.14-1.26,9.38s2.38,4.9,3.5-.7,1.68-11.76,9.94-14.42,31.21-16.66,42.13-15,20.72.56,26-2A15.3,15.3,0,0,0,117,179.55Z"/><path class="cls-11" d="M103.72,193.08c-7.14,10.92-9.13,11.55-3.47,14.38s9.77,4.83,9.77,4.83-3.36,4.1-5.72,7.09-1.84,4,3,5.09a55,55,0,0,0,8.7,1c.77-19.81,1.19-39.47,1-48.38A100.48,100.48,0,0,0,103.72,193.08Z"/><path class="cls-5" d="M117,178.87a95.78,95.78,0,0,0-11.47,13.88c-7.14,10.68-9.13,11.3-3.47,14.08s9.77,4.72,9.77,4.72-3.36,4-5.72,6.94-1.84,4,3,5a50.51,50.51,0,0,0,6.92.89C116.73,206.16,117.13,188.25,117,178.87Z"/><path class="cls-10" d="M87.13,195.39c-2.31-4.41-2.1,0-2.1,0s2.73,6.09.42,11.13c-3.25,7.1-35.09,19-35.09,19h0c1.71-.64,3.57-1.32,5.7-2,8.81-2.94,28.13-12,30.23-14.07s2.5,8.48,1.55,19.33c.06-.2,2.28-7.26,2.28-20.43C90.12,201.66,89.44,199.8,87.13,195.39Z"/><path class="cls-12" d="M83.7,276.16c2.47,4.41,20.16,2.8,25.62,0s6.16-5,4.3-9.1c-1.65,1.65-4.33,2.28-6.54,2.65a79.45,79.45,0,0,1-13.17.9c-3,0-6.26-1.41-9.19-.05C84.72,270.56,82.1,273.3,83.7,276.16Z"/><path class="cls-7" d="M113.62,267.06a6.69,6.69,0,0,1-1.6,1.16,11.32,11.32,0,0,1,1.42,5.06C115,271.53,114.82,269.67,113.62,267.06Zm-6.54,2.65c-.75.13-1.51.23-2.26.33a31.85,31.85,0,0,1,2.13,7,14.52,14.52,0,0,0,2.37-.92c.56-.29,1.07-.57,1.54-.85a25.43,25.43,0,0,0-1.9-6C108.32,269.49,107.68,269.61,107.08,269.71Zm-10,.87a20.12,20.12,0,0,0,.84,8.13c1.75-.15,3.48-.38,5.09-.68a28.9,28.9,0,0,1-1.84-7.64C99.78,270.49,98.42,270.55,97.05,270.58Zm-3.45,0a32.67,32.67,0,0,1-3.73-.45c-.41,2-.94,5.62,0,8.55a37.58,37.58,0,0,0,4.48.19A34.78,34.78,0,0,1,93.6,270.6Zm-8.88,0s-2.62,2.74-1,5.6a4.77,4.77,0,0,0,2.87,1.89,21,21,0,0,1,.58-8.07A6.55,6.55,0,0,0,84.72,270.56Z"/><path class="cls-13" d="M194.87,60.08s0,4.17-1.76,6c0,0-.49-9.64-4.69-14.89s-4.3-8.35-4.3-8.35a18.58,18.58,0,0,0-.39,5.67s-6.25-9.38-10.31-13.76-4.54-7.16-4.54-7.16-.88,4.64,0,6.8c0,0-9.77-8-15.93-9.89s-8.06-3.87-9.91-5.83a24,24,0,0,0,1.22,5.62s-4.6-3.4-7.92-11.64A14.69,14.69,0,0,0,133.71,17c0-4.28-4.69-8.82-4.69-8.82,1.73,4.54-1.16,11-1.16,11C129.42,7.42,119.06,0,119.06,0c1,8.86-7,18.76-7,18.76a33.22,33.22,0,0,0-1.17-7.63,34.53,34.53,0,0,1-9.77,13.19,26.9,26.9,0,0,0,1.22-6.23c-1.86,1.95-3.76,4.27-9.92,6.13s-15.93,10.2-15.93,10.2c.88-2.16,0-6.8,0-6.8S76,30.4,71.92,34.78,61.61,48.54,61.61,48.54a18.58,18.58,0,0,0-.39-5.67s-.09,3.09-4.3,8.35-4.69,14.89-4.69,14.89c-1.75-1.86-1.75-6-1.75-6-13.49,48.85,9.67,90.16,9.67,90.16h125S208.35,108.93,194.87,60.08Z"/><path class="cls-4" d="M185,152.83c-2.78-17.31,0-38.64,0-38.64l-10.72.61s-1-9.48-3.71-27.82c-17.37,8.58-39.37,7.2-58.2,6.43a106.81,106.81,0,0,1-17.46-2.06c-1.23-.26-13.46-3.13-13.28-4.37-2.68,18.34-3.71,27.82-3.71,27.82l-10.71-.61s2.78,21.33,0,38.64c-.47,2.89.48,6.93,1.4,9.66a23.38,23.38,0,0,0,6,9.17,41.31,41.31,0,0,0,11.82,7.78,69.23,69.23,0,0,0,17.28,5,192.46,192.46,0,0,0,21.58,2,92.85,92.85,0,0,0,11-.62c3.49-.25,7-.59,10.44-1.09a72.31,72.31,0,0,0,17.55-4.6,44.31,44.31,0,0,0,12.29-7.51,24.43,24.43,0,0,0,6.62-9,29,29,0,0,0,1.72-9.59A5.73,5.73,0,0,0,185,152.83Z"/><path class="cls-4" d="M181,134.8s2.06-16.49,15.66-13.61,13.81,18.76,9.69,26.38-19.37,19.38-24.73,5.57C181,144.17,181,134.8,181,134.8Z"/><path class="cls-8" d="M196.62,121.19C183,118.31,181,134.8,181,134.8v.3s4.65-14,16.9-11.85,8.63,23.84,3.44,27.43-13.44,9.67-19.72,2.46c5.36,13.81,20.61,2.06,24.73-5.57S210.23,124.08,196.62,121.19Z"/><path class="cls-14" d="M187.49,139.68a15.36,15.36,0,0,1,1.13-6.22,1.47,1.47,0,0,1,.1-.22,8.44,8.44,0,0,1,3.78-4.13,6.45,6.45,0,0,1,2.09-.69,1.16,1.16,0,0,1,1.21,1,1,1,0,0,1-.83,1.2h-.07a5,5,0,0,0-1.37.48,6.51,6.51,0,0,0-2.17,1.9,13.2,13.2,0,0,1,2.23.62,12.17,12.17,0,0,1,6.69,5.86c.11.21.22.42.32.66a1.06,1.06,0,0,1-.42,1.39l-.06,0a1.09,1.09,0,0,1-1.38-.63c-.08-.17-.16-.35-.25-.52a9.81,9.81,0,0,0-5.43-4.72,11.94,11.94,0,0,0-2.42-.62l-.33,0a14.4,14.4,0,0,0-.75,4.84,1,1,0,0,1-.52.9.92.92,0,0,1-.52.1A1.18,1.18,0,0,1,187.49,139.68Z"/><path class="cls-4" d="M71.8,134.8s-2.06-16.49-15.67-13.61S42.32,140,46.45,147.57,65.82,167,71.18,153.14C71.8,144.17,71.8,134.8,71.8,134.8Z"/><path class="cls-8" d="M56.13,121.19C69.74,118.31,71.8,134.8,71.8,134.8v.3s-4.65-14-16.9-11.85-8.63,23.84-3.44,27.43,13.43,9.67,19.72,2.46c-5.36,13.81-20.61,2.06-24.73-5.57S42.53,124.08,56.13,121.19Z"/><path class="cls-14" d="M65.27,139.68a15.36,15.36,0,0,0-1.13-6.22,1.47,1.47,0,0,0-.1-.22,8.44,8.44,0,0,0-3.78-4.13,6.46,6.46,0,0,0-2.1-.69,1.16,1.16,0,0,0-1.2,1,1,1,0,0,0,.83,1.2h.07a5,5,0,0,1,1.37.48A6.51,6.51,0,0,1,61.4,133a13.2,13.2,0,0,0-2.23.62,12.17,12.17,0,0,0-6.69,5.86c-.11.21-.22.42-.32.66a1.07,1.07,0,0,0,.41,1.39l.07,0a1.09,1.09,0,0,0,1.38-.63c.08-.17.16-.35.25-.52a9.81,9.81,0,0,1,5.43-4.72,11.94,11.94,0,0,1,2.42-.62l.33,0a14.4,14.4,0,0,1,.75,4.84,1,1,0,0,0,.52.9.9.9,0,0,0,.52.1A1.18,1.18,0,0,0,65.27,139.68Z"/><path class="cls-15" d="M83.73,101.66l-1.09,8s10.67-4.48,28-4.48c0-6.8-.61-7.42-.61-7.42S93.47,98.42,83.73,101.66Z"/><path class="cls-15" d="M165.19,101.66l1.08,8s-10.66-4.48-28-4.48c0-6.8.62-7.42.62-7.42S155.45,98.42,165.19,101.66Z"/><circle class="cls-16" cx="97.18" cy="121.14" r="9.51"/><path class="cls-17" d="M103.62,117c-.33,1.12-2,1.63-3.63,1.14s-2.78-1.79-2.46-2.91,2-1.63,3.64-1.15S103.94,115.85,103.62,117Z"/><path class="cls-16" d="M162.33,121.14a9.51,9.51,0,1,1-9.5-9.51A9.5,9.5,0,0,1,162.33,121.14Z"/><path class="cls-17" d="M159.27,117c-.33,1.12-2,1.63-3.63,1.14s-2.78-1.79-2.46-2.91,1.95-1.63,3.63-1.15S159.59,115.85,159.27,117Z"/><path class="cls-8" d="M134.84,129.39s.09-.06.17,0c.32,0,.55.56.72.78a15.27,15.27,0,0,1,.93,1.48,33.18,33.18,0,0,1,1.49,3.13c.46,1.06.93,2.14,1.31,3.23a28.11,28.11,0,0,1,1.26,5,9.24,9.24,0,0,1-1,6.08c-2.19,3.95-7.1,6.64-12.41,6.59a14.55,14.55,0,0,1-7.35-1.85,10.58,10.58,0,0,1-4.42-5.35,16.53,16.53,0,0,1-.3-11.13,18.92,18.92,0,0,1,4.89-8c.14-.12.48-.4.57-.16s-.49.77-.61,1c-.31.48-.63,1-.93,1.44a20.35,20.35,0,0,0-1.65,3,27.1,27.1,0,0,0-1.1,3,15.93,15.93,0,0,0,.6,10.28c1.34,3.76,5.49,6.24,10.34,6.1,4.62.08,9.1-2.35,11-5.66s.67-7.17,0-10.07a32.68,32.68,0,0,0-1.7-4.64c-.25-.6-.51-1.19-.75-1.79a9.1,9.1,0,0,0-.67-1.41C135,130.2,134.69,129.67,134.84,129.39Z"/><path class="cls-17" d="M132.31,151.24c.07.81-1.27,1.57-3,1.7s-3.18-.41-3.25-1.21,1.27-1.57,3-1.71S132.24,150.43,132.31,151.24Z"/><path class="cls-2" d="M108.61,132.66c0,4.82-5.15,8.73-11.51,8.73s-11.52-3.91-11.52-8.73,5.16-8.74,11.52-8.74S108.61,127.83,108.61,132.66Z"/><path class="cls-17" d="M97.3,123.93l-4.53,16.82a14.23,14.23,0,0,0,2.89.57l4.59-17.06A14.89,14.89,0,0,0,97.3,123.93Zm4.91.9-4.45,16.55c.53,0,1.06-.08,1.56-.15l4.25-15.8A14,14,0,0,0,102.21,124.83Z"/><path class="cls-2" d="M168.47,132.66c0,4.82-5.16,8.73-11.52,8.73s-11.52-3.91-11.52-8.73,5.16-8.74,11.52-8.74S168.47,127.83,168.47,132.66Z"/><path class="cls-17" d="M157.15,123.93l-4.52,16.82a14.13,14.13,0,0,0,2.88.57l4.59-17.06A14.89,14.89,0,0,0,157.15,123.93Zm4.91.9-4.44,16.55q.8,0,1.56-.15l4.24-15.8A14,14,0,0,0,162.06,124.83Z"/><path class="cls-3" d="M106.58,131.7a17.77,17.77,0,0,1,5.4-1.83,33.31,33.31,0,0,1,5.81-.46h19a17.71,17.71,0,0,1,6.38.83c.77.27,1.37.49,1.94.74a15.32,15.32,0,0,1,1.81.91.69.69,0,0,0,.7-1.2,16.41,16.41,0,0,0-2-1c-.62-.27-1.25-.5-2-.77a19.08,19.08,0,0,0-6.86-.91h-19a34.69,34.69,0,0,0-6.06.48,19.19,19.19,0,0,0-5.82,2,.69.69,0,0,0-.28.94A.71.71,0,0,0,106.58,131.7Z"/><path class="cls-2" d="M117.17,128.72a8.23,8.23,0,0,0-3,4.27c-.29.88-.32,2.09.61,2.57,2.51,1.28,3.88-4.76,3.45-6.31A.71.71,0,0,0,117.17,128.72Z"/><path class="cls-2" d="M137.62,128.72a8.23,8.23,0,0,1,3,4.27c.29.88.32,2.09-.62,2.57-2.5,1.28-3.88-4.76-3.44-6.31A.7.7,0,0,1,137.62,128.72Z"/><path class="cls-18" d="M112.22,164.27s27.41-3.09,38.13-9.07c1.34,13.3-2.88,22.36-2.88,22.36s-20.41,5.05-34.73,1.86C112.74,169.53,112.22,164.27,112.22,164.27Z"/><path class="cls-19" d="M116.85,180.11c10,1.16,21.51-.68,27.15-1.8-1.59-5.35-7-9.3-13.38-9.3C123.51,169,117.66,173.86,116.85,180.11Z"/><path class="cls-8" d="M112.64,180a.62.62,0,0,1-.52-.6h0c-.09-4.67-.22-8.45-.32-11.07h0c-.09-2.1-.16-3.44-.19-3.89h0c-1.57.09-2.46.11-2.47.11h0a.63.63,0,0,1-.63-.61h0a.63.63,0,0,1,.61-.63h0s1.37,0,3.74-.18h0c2.38-.17,5.74-.47,9.69-1h0a107.62,107.62,0,0,0,27.55-7.48h0a.62.62,0,0,1,.56,0h0a.6.6,0,0,1,.31.47h0c.19,2,.28,3.89.28,5.62h0a46,46,0,0,1-3.2,17h0a.62.62,0,0,1-.46.4h0c-5.88,1.2-13,2.85-22.26,2.85h0a85,85,0,0,1-12.69-1Zm12.69-.25c9,0,15.84-1.55,21.67-2.75h0a44.14,44.14,0,0,0,3-16.27h0c0-1.45-.06-3-.2-4.65h0c-14.18,6.1-29.95,7.81-37,8.29h0c.05,1,.34,6.32.5,14.48h0a82.47,82.47,0,0,0,12,.9Z"/><path class="cls-8" d="M156.86,150.87a17.76,17.76,0,0,0-2.9-5.2h0l-3.84,3.93h0a.53.53,0,0,1-.76,0h0a.53.53,0,0,1,0-.76h0l4.22-4.33a.54.54,0,0,1,.73,0h0c.08.06,1.78,1.48,3.56,6h0a.53.53,0,0,1-.3.7h0a.48.48,0,0,1-.2,0h0a.53.53,0,0,1-.5-.34Z"/><path class="cls-20" d="M86.34,83.29c.71-2,2.7-3.3,4.23-4.7,1.76-1.6,3.44-3.33,5-5.09a54.27,54.27,0,0,0,8.94-13,24.51,24.51,0,0,0,1.95-5.5c.23-1.13,1-4.3.27-5.35,0,0,4.64,7.12,2.78,19.07,7.63-11.23,12.58-20.51,12.58-22.78,0,0,.82,6.39-.21,10.51,0,0,7.83-12.36,9.07-20.09,0,0,1.85,13.7,1,20.09,0,0,4-7.42,3.09-12,0,0,5,8.86,5,12.36,0,0,1.23-3.29,0-8.65,0,0,3.81,1.34,9.48,20.61a19.71,19.71,0,0,0,0-11.75s3.4,2.47,5.46,9.48a35.82,35.82,0,0,0,5.83,10.85c2.15,2.94,7.4,7.13,4.29,11.11-2.74,3.5-8.65,4.9-12.75,5.67a69.91,69.91,0,0,1-12.25,1.25c-8.81.06-17.7.28-26.49-.39a127.76,127.76,0,0,1-13-1.7c-3.42-.61-7.18-1.19-10.23-2.93-2.18-1.25-5-4-4.19-6.76A1.52,1.52,0,0,1,86.34,83.29Z"/><path class="cls-21" d="M113.79,81.57c.26,0,.2,3.26,1.65,6.93s3.59,6.09,3.45,6.21-2.68-2.11-4.13-6A13.43,13.43,0,0,1,113.79,81.57Z"/><path class="cls-21" d="M118.51,82.34c.24,0,.23,2.92,1.4,6.25s2.84,5.69,2.69,5.81-2.22-2.08-3.37-5.58S118.35,82.31,118.51,82.34Z"/><path class="cls-21" d="M123.61,82.8c.25,0-.34,2.7.22,5.89a25.23,25.23,0,0,0,1.87,5.55c-.16.18-2-2-2.59-5.43A10.33,10.33,0,0,1,123.61,82.8Z"/><path class="cls-21" d="M131,83.58c.23.13-1.26,2.15-1.57,5.09s.52,5.25.33,5.31-1.44-2.24-1-5.4S131,83.45,131,83.58Z"/><path class="cls-21" d="M135.74,86.75c.16-.07.74,1.83-.07,4s-2.28,3.39-2.4,3.23,1-1.48,1.72-3.47S135.52,86.78,135.74,86.75Z"/><path class="cls-21" d="M138.22,82.57c.12-.1,1.35,2.62.56,6S136,94.11,135.89,94s1.49-2.3,2.18-5.49S138,82.63,138.22,82.57Z"/><path class="cls-21" d="M141.62,82.26c.16-.13,1.44,2.63.6,6.06s-2.47,5.63-2.62,5.51,1.19-2.46,1.92-5.67S141.42,82.33,141.62,82.26Z"/><path class="cls-22" d="M66.88,86.05c.1-.15,2.78,1.18,6.41,2s6.59,1.33,6.57,1.53-3.08.08-6.75-.84S66.75,86.23,66.88,86.05Z"/><path class="cls-22" d="M66.57,90.64c.1-.15,2.78,1.19,6.41,2S79.57,94,79.55,94.2s-3.08.08-6.75-.83S66.44,90.82,66.57,90.64Z"/><path class="cls-22" d="M66.16,95.24c.09-.16,2.85,1,6.52,1.62s6.67.91,6.66,1.11-3.07.27-6.79-.41S66,95.43,66.16,95.24Z"/><path class="cls-22" d="M65.48,99.29c.08-.16,2.9.86,6.6,1.28s6.7.57,6.71.77-3.06.43-6.81-.06S65.37,99.48,65.48,99.29Z"/><path class="cls-22" d="M185.45,85.89c-.11-.15-2.75,1.26-6.36,2.2s-6.55,1.52-6.53,1.72,3.09,0,6.73-1S185.58,86.07,185.45,85.89Z"/><path class="cls-22" d="M185.88,90.48c-.1-.15-2.75,1.26-6.35,2.2S173,94.19,173,94.39s3.08,0,6.73-1S186,90.65,185.88,90.48Z"/><path class="cls-22" d="M186.42,95.06c-.1-.16-2.83,1.08-6.48,1.79s-6.64,1.1-6.63,1.3,3.08.19,6.78-.59S186.54,95.24,186.42,95.06Z"/><path class="cls-22" d="M187.21,99.09c-.09-.16-2.88.94-6.56,1.46s-6.69.75-6.69,1,3.07.35,6.8-.24S187.32,99.28,187.21,99.09Z"/><path class="cls-11" d="M.82,120.11S18.74,96.48,22.38,92.84s12.6-6.44,18.76,9,16.47,44.39,20.65,56.9S53.26,183.91,43,194.13s-18.7-.23-27.52-22.91S-2.9,125,.82,120.11Z"/><path class="cls-15" d="M28.3,194.58c4.64,4.59,9.46,4.83,14.74-.45C53.26,183.91,66,171.2,61.79,158.69s-14.5-41.5-20.65-56.9S26,89.2,22.38,92.84c-1.27,1.26-4.25,4.93-7.6,9.19,4.75-4.75,8.42-10.16,14.29-10.16S45.21,125.54,50,138.42s9,21.27,7,27.2C51.73,178.17,32.89,191.48,28.3,194.58Z"/><path class="cls-4" d="M10.77,156.9s1.72,12.88-2.46,23.78c9.22,13.42,24.3,16.9,24.3,16.9s6-6.67,8.82-11.57a16.65,16.65,0,0,1,7-6.72s4.48-1.4,7.14,2.38c2,2-3.64,7.56-3.64,7.56s7.56,4.62,13.16-8.54c2.23-5,0-18.2,0-18.2s-3.78-8.53-7-9.51c1.54-6.44,1.54-9.24.49-10.29-4.27-4.27-9.59-7.35-14.63-7.35s-14.28,10.92-14.28,10.92a58.26,58.26,0,0,1-3.5-11.76c-1.4-7.14-5-22.4-11.76-26s-12.27-2-9.38,4.48C9.79,123.58,10.77,156.9,10.77,156.9Z"/><path class="cls-8" d="M58.09,153c1.54-6.44,1.54-9.24.49-10.29-4.27-4.27-9.59-7.35-14.63-7.35s-14.28,10.92-14.28,10.92a58.26,58.26,0,0,1-3.5-11.76c-1.4-7.14-5-22.4-11.76-26s-12.27-2-9.38,4.48a43,43,0,0,1,2.51,9.11h0s1.55-4.77-.27-9,7.42-1.4,10.36,2.8,4.8,12.42,6.44,17.78c1.31,4.29,3.29,10.57,3.29,10.57s.35,2.87-1.61,3.92-4.48,2.52-4.76,3.5.91,2.31,3.36.63A117.66,117.66,0,0,0,34.85,143c2.24-2.24,7.35-7.07,12-5.53s10,5.32,10.36,7.56-.11,4.65-1,5.6c-5.18.7-11,2.13-13.65,4.76s.35,1.32,2.8,0,9.8-4.06,12.11-1.75,5.81,6.5,6.37,11.19.41,4.55-2.32,3.5-6.78-5.39-11-3.71-2.66,2.38.56,1.68,4.76.28,8.26,2.38,5,3.22,5,8-5.45,13.44-9.37,11.9c-1,0-.26-2.73-.26-2.73a26.43,26.43,0,0,1-2.82,3.43s7.56,4.62,13.16-8.54c2.23-5,0-18.2,0-18.2S61.31,154,58.09,153Z"/><path class="cls-8" d="M28.41,189.93c-16.29-7.11-17.34-29.12-17.34-29.12h0c.19,4.66,0,12.69-2.76,19.87,9.22,13.42,24.3,16.9,24.3,16.9s6-6.67,8.82-11.57a17.72,17.72,0,0,1,1-1.54C40.26,187.1,34.16,191.24,28.41,189.93Z"/><path class="cls-12" d="M5.4,177.09a11.6,11.6,0,0,0,.2,4.42,16.44,16.44,0,0,0,6.85,9.26c8.4,5.74,18.2,11.48,21.7,9.38s3.5-4.9-.56-6.16-16.1-7-20.16-14.42c-.89-1.62-2.63-5.93-5-5.87C6.56,173.74,5.7,175.3,5.4,177.09Z"/><path class="cls-7" d="M11.11,175.46a3.54,3.54,0,0,0-2.64-1.76c-1.91,0-2.77,1.6-3.07,3.39a11.6,11.6,0,0,0,.2,4.42,14.76,14.76,0,0,0,.52,1.59A10.36,10.36,0,0,1,11.11,175.46Zm8.77,11.12a26,26,0,0,1-3.25,7c1.25.8,2.5,1.57,3.73,2.29,1.26-1.42,3.2-4,3.36-6.61A46,46,0,0,1,19.88,186.58Zm-6.45-7c-.17-.31-.38-.73-.61-1.2A17.65,17.65,0,0,0,8,186.48a18.06,18.06,0,0,0,4.47,4.29l1.11.75,3.52-7.35A19.44,19.44,0,0,1,13.43,179.57Zm10.22,18.09a40.27,40.27,0,0,0,4.38,2,48.39,48.39,0,0,0,1.58-7.25c-1.11-.51-2.32-1.12-3.57-1.81A13.26,13.26,0,0,1,23.65,197.66ZM33.59,194l-.52-.17c-.09,2.19-.46,4.94-1.58,6.73a4.34,4.34,0,0,0,2.66-.4C37.65,198.05,37.65,195.25,33.59,194Z"/></g></g></svg>