<svg xmlns="http://www.w3.org/2000/svg" viewBox="0 0 169.77 273.31"><defs><style>.cls-1{fill:#f9dab4;}.cls-2{fill:#f7cea6;}.cls-3{fill:#0c4666;}.cls-4{fill:#1f6e89;}.cls-5{fill:#f9f7f2;}.cls-6{fill:#e5be9e;}.cls-7{fill:#3a332d;}.cls-8{fill:#e8dfd9;}.cls-9{fill:#472b18;}.cls-10{fill:#fff;}.cls-11{fill:#f4c7a2;}.cls-12{fill:#ad3936;}.cls-13{fill:#e0605c;}.cls-14{fill:#a37454;}.cls-15{fill:#8e633f;}.cls-16{fill:#4c3626;}</style></defs><title>资源 9</title><g id="图层_2" data-name="图层 2"><g id="Layer_1" data-name="Layer 1"><path class="cls-1" d="M10.27,273.31H31.41s4.91-53.07,6.79-60.24c1.19-4.55,7.51-12,7.51-12L49,172.79s-20.13,3-30.82,27.8C12.58,213.57,12.2,258.23,10.27,273.31Z"/><path class="cls-2" d="M32.08,212.09c-7.29-1-14.91,2.53-17.3,3.71.87-6.46,2-11.88,3.4-15.21C28.87,175.8,49,172.79,49,172.79l-3.29,28.3s-6.32,7.43-7.51,12c-1.88,7.17-6.79,60.24-6.79,60.24h-.36c.64-10.86,1.81-30.08,2.64-38.38C34.87,223,37.64,212.84,32.08,212.09Z"/><path class="cls-1" d="M158,273.31H136.83s-4.91-53.07-6.78-60.24c-1.2-4.55-7.52-12-7.52-12l-3.29-28.3s20.13,3,30.83,27.8C155.67,213.57,156.05,258.23,158,273.31Z"/><path class="cls-2" d="M136.16,212.09c7.29-1,14.91,2.53,17.3,3.71-.87-6.46-2-11.88-3.39-15.21-10.7-24.79-30.83-27.8-30.83-27.8l3.29,28.3s6.32,7.43,7.52,12c1.87,7.17,6.78,60.24,6.78,60.24h.36c-.63-10.86-1.81-30.08-2.64-38.38C133.37,223,130.61,212.84,136.16,212.09Z"/><rect class="cls-2" x="56.81" y="166.69" width="61.11" height="67.69"/><path class="cls-3" d="M84.82,205.93c-23.6,0-24.68-31.15-24.68-31.15L47.2,171.54S37.3,227.48,32,273.31H134c-1.54-31.92-11.45-101.24-11.45-101.24l-14.39,3.46S108.43,205.93,84.82,205.93Z"/><path class="cls-4" d="M122.49,191c-1.11-6.54-5.52-5.41-9.45-4.27S110.2,188,106,197.12s-19.53,12.52-28.66,10.81-14-11.52-15.44-15.78S60,187.74,53,186.31s-6.82,2.6-6.82,2.6-8.55,56.31-10,65.13a170.5,170.5,0,0,0-2.32,19.27h97.13c1.6-8-1.09-19.43-1.8-26.41C128.16,236.09,123.59,197.55,122.49,191Z"/><path class="cls-1" d="M150.59,66.11,22,66s.63,30.19-1.11,44.2c-1,8-.45,15-.66,18.16-1.9,29,28.83,52.83,64.82,53.06s65.3-23.15,65.49-52.22a79.58,79.58,0,0,0-.45-9.63c-.25-2.45-.25-5.12-.39-8.14C149.15,98.31,150.59,66.11,150.59,66.11Z"/><path class="cls-5" d="M45.13,142.48a1.18,1.18,0,0,1-1.22,1.13l-4-.15a1.17,1.17,0,0,1-1.13-1.22h0A1.16,1.16,0,0,1,40,141.11l4,.14a1.19,1.19,0,0,1,1.14,1.23Z"/><path class="cls-5" d="M130.58,143a1.17,1.17,0,0,1-1.22,1.13l-4-.15a1.17,1.17,0,0,1-1.13-1.22h0a1.17,1.17,0,0,1,1.22-1.13l4,.14a1.18,1.18,0,0,1,1.13,1.23Z"/><path class="cls-1" d="M142.25,147.88a21.6,21.6,0,0,0,18.18-.24c9.54-4.67,14.25-23.82,1.89-28.41s-16.17,9.63-16.17,9.63Z"/><path class="cls-2" d="M148,142.05s3.93-21,13.11-13.74c5.63,4.45,2.29,10.68-2.94,13.23C154.88,143.13,150.62,143.28,148,142.05Z"/><path class="cls-6" d="M148.12,141.81l1.36-5.29s17.45-5,12.55,2S148.12,141.81,148.12,141.81Z"/><path class="cls-1" d="M27.3,146.67a21.61,21.61,0,0,1-18.18-.47c-9.48-4.79-13.94-24-1.52-28.43s16,9.84,16,9.84Z"/><path class="cls-2" d="M21.62,140.77s-3.65-21-12.92-13.9c-5.7,4.37-2.43,10.64,2.76,13.25C14.73,141.77,19,142,21.62,140.77Z"/><path class="cls-6" d="M21.51,140.53l-1.29-5.31S2.83,130,7.64,137.09,21.51,140.53,21.51,140.53Z"/><path class="cls-7" d="M58.31,124.5A7.33,7.33,0,1,1,51,117.18,7.32,7.32,0,0,1,58.31,124.5Z"/><path class="cls-8" d="M52.2,119.4c.18.88-.91,1.85-2.44,2.16s-2.92-.16-3.09-1,.91-1.85,2.44-2.15S52,118.51,52.2,119.4Z"/><path class="cls-7" d="M126.1,124.5a7.33,7.33,0,1,1-7.32-7.32A7.32,7.32,0,0,1,126.1,124.5Z"/><path class="cls-8" d="M120,119.4c.17.88-.92,1.85-2.45,2.16s-2.91-.16-3.09-1,.92-1.85,2.45-2.15S119.81,118.51,120,119.4Z"/><path class="cls-9" d="M127.46,121.21a10.51,10.51,0,1,1-14.57-2.94A10.51,10.51,0,0,1,127.46,121.21Z"/><path class="cls-10" d="M120.33,118.75c1,1.57-.33,4.31-3,6.13s-5.79,2-6.84.44.33-4.31,3.06-6.13S119.29,117.18,120.33,118.75Z"/><path class="cls-9" d="M61,118.8a10.51,10.51,0,1,1-14.57-2.93A10.52,10.52,0,0,1,61,118.8Z"/><path class="cls-10" d="M53.82,116.34c1,1.57-.33,4.31-3.06,6.13s-5.78,2-6.83.44.33-4.31,3.06-6.12S52.77,114.77,53.82,116.34Z"/><path class="cls-11" d="M75.51,145.48a1.25,1.25,0,0,1-1.07-.58,1.27,1.27,0,0,1,.39-1.75,19.45,19.45,0,0,1,21.67.06,1.27,1.27,0,0,1-1.53,2c-.36-.27-8.68-6.36-18.78.06A1.27,1.27,0,0,1,75.51,145.48Z"/><path class="cls-12" d="M115.39,159.43c-5.19,6.84-14.35,14.22-29.7,14.22C70,173.65,60.74,166,55.58,159,51.32,153.27,119.88,153.51,115.39,159.43Z"/><path class="cls-13" d="M85.69,173.65c9.28,0,16.29-2.7,21.53-6.35-6.08-4-14.79-7.57-21.58-7.57a34.12,34.12,0,0,0-21.33,7.72h0A37.08,37.08,0,0,0,85.69,173.65Z"/><path class="cls-14" d="M85.73,14.59C-2.75,14.59,6.08,77.85,8.2,91.11a145.07,145.07,0,0,1,1.54,26.06,16.22,16.22,0,0,1,10.56,3.88c2.32-14.06,0-27,4.77-39.63,2.23-5.63,26.15,10.85,60.7,10.85s58.9-16.57,60.71-10.85c4.74,12.58,1.51,26.06,3.83,40.12,0,0,3.91-4,11.5-2.49a166,166,0,0,1,1.53-27.94C165.47,77.85,174.2,14.59,85.73,14.59Z"/><path class="cls-15" d="M34.82,81.33c12.27,15.86,96,16.31,107.08-2.57,4.57-7.76,5.88-19.85,4.77-31.17C144.73,27.81,133.12,15,91.28,13.53S37.68,14.22,29.79,0C29.79,0,12.05,51.88,34.82,81.33Z"/><path class="cls-16" d="M33.7,107.54s14.35.73,17.91,1.13c5.4.59,12.09,1.87,12.09,1.87s0-7.72-1-9.35-12.56-2.46-19.66-2S35.28,99.42,33.7,107.54Z"/><path class="cls-16" d="M137.12,107.34s-14.34.91-17.9,1.35c-5.38.66-12.06,2-12.06,2s-.1-7.72.9-9.36,12.53-2.61,19.63-2.29S135.44,99.24,137.12,107.34Z"/></g></g></svg>