<svg xmlns="http://www.w3.org/2000/svg" viewBox="0 0 152.14 260.02"><defs><style>.cls-1{fill:#f9dab4;}.cls-2{fill:#f7cea6;}.cls-3{fill:#69b790;}.cls-4{fill:#5aad82;}.cls-5{fill:#9dcece;}.cls-6{fill:#39868e;}.cls-7{opacity:0.45;}.cls-8{fill:#418c6a;}.cls-9{fill:#218756;}.cls-10{fill:#7f5732;}.cls-11{fill:#e5be9e;}.cls-12{fill:#dd2626;}.cls-13{fill:#e0605c;}.cls-14{fill:#ddac8c;}.cls-15{fill:#2f3233;}.cls-16{fill:#f9f5ed;}</style></defs><title>资源 133</title><g id="图层_2" data-name="图层 2"><g id="Layer_1" data-name="Layer 1"><polygon class="cls-1" points="7.51 260.02 21.37 260.02 39.67 198.22 23.09 193.85 7.51 260.02"/><path class="cls-2" d="M20.71,203.94c3.85,2.37,11.43,8.54,9.22,19.35-2,9.83-7.21,27-10.28,36.73h1.72l16.26-54.91L21.41,201Z"/><path class="cls-3" d="M46.08,163.77s-11.21-.46-17.64,12.93-8.3,15.43-8.3,15.43S34.53,199,42,199A181,181,0,0,0,46.08,163.77Z"/><path class="cls-4" d="M31.17,172.12a31.66,31.66,0,0,1,2.66,25.36l.07,0,1,.27.18,0,.89.24.17.05,1,.24h0c.35.08.69.16,1,.22l.1,0,.84.15.27,0,.65.09.3,0,.61.05.26,0,.81,0a181,181,0,0,0,4.1-35.24S37.62,163.43,31.17,172.12Z"/><path class="cls-5" d="M42.53,198.67l-23.43-9.2s-1.9-.91-2.56,3.16-1.8,5.59,2.44,7.82,19.73,11.74,21.82,7.06S43.64,199.26,42.53,198.67Z"/><path class="cls-6" d="M16.54,192.63c.66-4.07,2.56-3.16,2.56-3.16l1.84.72a35.18,35.18,0,0,0-2.7,9.85C14.88,198,15.92,196.44,16.54,192.63Z"/><path class="cls-6" d="M28.36,192.89l-3,10.73c-1.3-.69-2.49-1.35-3.5-1.92l3.45-10Z"/><path class="cls-6" d="M32.94,207.5c-1.2-.46-2.45-1-3.71-1.6l3.2-11.19,3.6,1.41Z"/><path class="cls-6" d="M39.33,197.42l3.2,1.25c1.11.59.36,4.15-1.73,8.84-.49,1.1-1.74,1.41-3.41,1.22C38.17,205.59,38.94,200.33,39.33,197.42Z"/><g class="cls-7"><path class="cls-6" d="M42.19,204c-.36,1.06-.83,2.25-1.39,3.52-2.09,4.68-17.57-4.83-21.82-7.06s-3.1-3.76-2.44-7.82C16.54,192.63,29.15,204,42.19,204Z"/></g><polygon class="cls-1" points="126.19 193.85 109.61 198.22 127.91 260.02 141.77 260.02 126.19 193.85"/><path class="cls-2" d="M128.57,203.94l-.69-2.94-16.23,4.11L127.91,260h1.72c-3.06-9.77-8.27-26.9-10.28-36.73C117.14,212.48,124.73,206.31,128.57,203.94Z"/><path class="cls-3" d="M103.2,163.77s11.21-.46,17.65,12.93,8.3,15.43,8.3,15.43S114.75,199,107.3,199A182,182,0,0,1,103.2,163.77Z"/><path class="cls-4" d="M118.11,172.12a31.63,31.63,0,0,0-2.65,25.36l-.07,0-1,.27-.17,0q-.45.13-.9.24l-.16.05-1,.24h0c-.35.08-.69.16-1,.22l-.1,0-.84.15-.27,0-.64.09-.3,0-.61.05-.27,0c-.27,0-.55,0-.81,0a190.56,190.56,0,0,1-4.2-35.81S111.67,163.43,118.11,172.12Z"/><path class="cls-5" d="M106.76,198.67l23.42-9.2s1.91-.91,2.56,3.16,1.81,5.59-2.44,7.82-19.73,11.74-21.81,7.06S105.64,199.26,106.76,198.67Z"/><path class="cls-6" d="M132.74,192.63c-.65-4.07-2.56-3.16-2.56-3.16l-1.84.72A34.84,34.84,0,0,1,131,200C134.4,198,133.36,196.44,132.74,192.63Z"/><path class="cls-6" d="M120.93,192.89l3,10.73c1.29-.69,2.48-1.35,3.5-1.92l-3.46-10Z"/><path class="cls-6" d="M116.34,207.5c1.2-.46,2.46-1,3.71-1.6l-3.2-11.19-3.59,1.41Z"/><path class="cls-6" d="M110,197.42l-3.19,1.25c-1.12.59-.36,4.15,1.73,8.84.49,1.1,1.74,1.41,3.4,1.22C111.11,205.59,110.35,200.33,110,197.42Z"/><g class="cls-7"><path class="cls-6" d="M107.1,204c.36,1.06.82,2.25,1.39,3.52,2.08,4.68,17.57-4.83,21.81-7.06s3.1-3.76,2.44-7.82C132.74,192.63,120.14,204,107.1,204Z"/></g><path class="cls-3" d="M119.46,260c-6.92-42.76-16.36-96.82-16.36-96.82l-57,.57S36.52,222,32.44,260Z"/><path class="cls-8" d="M75.09,183.9a.74.74,0,0,0-.76.73V260h1.52V184.63A.74.74,0,0,0,75.09,183.9Z"/><path class="cls-8" d="M105.74,178.45c-1.61-9.39-2.64-15.25-2.64-15.25l-57,.57s-1.18,5.7-2.57,14.68Z"/><path class="cls-8" d="M109.93,202.88H82.62v22.05h31C112.38,217.29,111.12,209.82,109.93,202.88Z"/><path class="cls-8" d="M35.57,233.68H61.7V219.61H37.47C36.82,224.27,36.19,229,35.57,233.68Z"/><path class="cls-8" d="M119.46,260c-.65-4-1.32-8.11-2-12.27H89.85V260Z"/><path class="cls-9" d="M98.63,169.66c0,10.74-11,19.46-24.54,19.46s-24.54-8.72-24.54-19.46,11-19.47,24.54-19.47S98.63,158.91,98.63,169.66Z"/><path class="cls-2" d="M91.19,165.88c0,7.84-7.66,14.19-17.1,14.19S57,173.72,57,165.88s7.65-14.18,17.09-14.18S91.19,158.05,91.19,165.88Z"/><ellipse class="cls-10" cx="76.07" cy="82.54" rx="76.07" ry="82.54"/><path class="cls-1" d="M131.68,102.27s8.44-8.57,14.86,1.07-4.15,26.15-16,15.6Z"/><path class="cls-11" d="M135.47,115.26s.05-10.7,4-10.41S144,115.87,135.47,115.26Z"/><path class="cls-2" d="M139.47,104.85a3,3,0,0,1,2.41,2.26c-2,1.92-5,5.13-6.41,8C135.5,113.63,135.83,104.59,139.47,104.85Z"/><path class="cls-1" d="M20,102.27s-8.44-8.57-14.86,1.07,4.15,26.15,16,15.6Z"/><path class="cls-11" d="M16.16,115.26s-.05-10.7-4-10.41S7.63,115.87,16.16,115.26Z"/><path class="cls-2" d="M12.16,104.85a3,3,0,0,0-2.41,2.26c2,1.92,5,5.13,6.41,8C16.13,113.63,15.8,104.59,12.16,104.85Z"/><path class="cls-1" d="M133.2,64.49v61.77c0,17.17-19.76,38.16-57.53,40.7S18.72,142.79,18.72,128.8V69.72S35.39,46,71.24,46C120,46,133.2,64.49,133.2,64.49Z"/><path class="cls-10" d="M91.81,99.66s15.44-17.06,27.17.18c0,0,.51-4.49-5.07-8.8-6-4.65-14.75-3.2-19.77,2.48C90.61,97.51,91.81,99.66,91.81,99.66Z"/><path class="cls-10" d="M55.81,99.66s-15.45-17.06-27.18.18c0,0-.5-4.49,5.07-8.8,6-4.65,14.75-3.2,19.78,2.48C57,97.51,55.81,99.66,55.81,99.66Z"/><path class="cls-12" d="M84.78,142a4.9,4.9,0,0,0-1.83-.9c-2.82-1-3.55-3.79-5.54-3.11S74,142,72.12,140.32s-2.72-2.87-5.11-.73c-2,1.79-5.12,1.08-5.66,2a.74.74,0,0,0,0,.6,1,1,0,0,0,0,.2,40.16,40.16,0,0,0,23.33,0,.4.4,0,0,0,.11-.06C84.89,142.29,85,142.16,84.78,142Z"/><path class="cls-13" d="M73.39,148.45a11,11,0,0,1,9,4.26,18.36,18.36,0,0,0,2.45-9.32c0-.35,0-.69,0-1a.4.4,0,0,1-.11.06,40.16,40.16,0,0,1-23.33,0,1,1,0,0,1,0-.2c0,.39-.05.77-.05,1.17A18.22,18.22,0,0,0,64,153.24,10.87,10.87,0,0,1,73.39,148.45Z"/><path class="cls-12" d="M73.05,158.7c3.81,0,7.19-2.35,9.34-6a11,11,0,0,0-9-4.26A10.87,10.87,0,0,0,64,153.24C66.19,156.58,69.43,158.7,73.05,158.7Z"/><path class="cls-14" d="M80.52,118.05a1.32,1.32,0,0,1,.9,1.58h0a14.08,14.08,0,0,1-1.53,3.77h0a6.73,6.73,0,0,1-6.24,3.65h0l-.19,0h0a8.35,8.35,0,0,1-6-3.48h0a9.75,9.75,0,0,1-1.51-3.08h0a1.34,1.34,0,0,1,.83-1.62h0a1.2,1.2,0,0,1,1.48.92h0a.62.62,0,0,0,0,.13h0l.18.48h0a7.74,7.74,0,0,0,.86,1.52h0a6,6,0,0,0,4.38,2.52h.1a4,4,0,0,0,3.73-2h0A10.36,10.36,0,0,0,79,119.25h0c0-.16.06-.22.06-.22h0a1.2,1.2,0,0,1,1.25-1h0a.63.63,0,0,1,.19,0Z"/><path class="cls-10" d="M133.2,101s-3.68-28.47-17.29-37.33c0,0-9.65,11.77-21.55,15.55,0,0,5-8.71,5-17.16C84.29,82.19,50.07,87,50.07,87S65.54,74.55,65.54,62.88C50.84,79,18.72,101.23,18.72,101.23L15.54,61.67,70.32,34.31l39.34,1.61L135,60.06l1.11,8Z"/><path class="cls-15" d="M44.54,106.25A8.72,8.72,0,0,0,35.9,115a9.4,9.4,0,0,0,.16,1.69,5.27,5.27,0,0,1-.78-.34,4.33,4.33,0,0,1-2.11-3.17.49.49,0,0,0-.59-.4.5.5,0,0,0-.39.6,5.29,5.29,0,0,0,2.61,3.86,5.75,5.75,0,0,0,1.57.6,9,9,0,0,0,.34.86,6.83,6.83,0,0,1-2.31.45,4.64,4.64,0,0,1-2.13-.5,5.78,5.78,0,0,1-2.1-1.87.49.49,0,0,0-.7-.11.5.5,0,0,0-.11.71,6.73,6.73,0,0,0,2.46,2.19,5.67,5.67,0,0,0,2.58.6,7.85,7.85,0,0,0,2.79-.56,8.59,8.59,0,0,0,7.35,4.19,8.8,8.8,0,0,0,0-17.59Z"/><path class="cls-16" d="M49,110.69a2.29,2.29,0,0,1,.36,3.14,2.19,2.19,0,0,1-3.09-.28,2.3,2.3,0,0,1-.37-3.14A2.2,2.2,0,0,1,49,110.69Z"/><path class="cls-15" d="M105.5,106.25a8.72,8.72,0,0,1,8.63,8.79,9.4,9.4,0,0,1-.16,1.69,5.27,5.27,0,0,0,.78-.34,4.33,4.33,0,0,0,2.11-3.17.49.49,0,0,1,.59-.4.5.5,0,0,1,.39.6,5.27,5.27,0,0,1-2.61,3.86,5.75,5.75,0,0,1-1.57.6,9,9,0,0,1-.34.86,6.83,6.83,0,0,0,2.31.45,4.71,4.71,0,0,0,2.14-.5,5.84,5.84,0,0,0,2.09-1.87.49.49,0,0,1,.7-.11.51.51,0,0,1,.12.71,6.75,6.75,0,0,1-2.47,2.19,5.62,5.62,0,0,1-2.58.6,7.94,7.94,0,0,1-2.79-.56,8.59,8.59,0,0,1-7.34,4.19,8.8,8.8,0,0,1,0-17.59Z"/><path class="cls-16" d="M110.4,110.69a2.3,2.3,0,0,1,.36,3.14,2.19,2.19,0,0,1-3.09-.28,2.29,2.29,0,0,1-.37-3.14A2.2,2.2,0,0,1,110.4,110.69Z"/></g></g></svg>