<svg xmlns="http://www.w3.org/2000/svg" viewBox="0 0 186.34 260"><defs><style>.cls-1{fill:#393c3d;}.cls-2{fill:#f28f8f;}.cls-3{fill:#ed7474;}.cls-4{fill:#f9dab4;}.cls-5{fill:#f9f7f2;}.cls-6{fill:#f7cea6;}.cls-7{fill:#e5be9e;}.cls-8{fill:#f4c7a2;}.cls-9{fill:#3b3d3d;}.cls-10{fill:#fff;}.cls-11{fill:#ad3936;}.cls-12{fill:#e0605c;}</style></defs><title>资源 46</title><g id="图层_2" data-name="图层 2"><g id="Layer_1" data-name="Layer 1"><path class="cls-1" d="M168.11,149.73s-33.08,12-77.43,12-75.15-12-75.15-12c10.77-14.24,9.34-22.15,8.49-40.5h135.6C158.89,126.69,158.74,139.81,168.11,149.73Z"/><path class="cls-2" d="M142,197.43c-4.69-32.14-18.49-29.67-18.49-29.67-3.27,3.85,1.18,68.9,2.89,92.24h25.56C149.94,248.26,145.51,221.6,142,197.43Z"/><path class="cls-3" d="M137.18,179.39c-5.87-13-13.7-11.63-13.7-11.63-3.27,3.85,1.18,68.9,2.89,92.24h10.75c-1.49-15.95-4.4-47.41-5.46-60.28C130.56,186.24,135,181.08,137.18,179.39Z"/><path class="cls-2" d="M45.14,197.43c4.7-32.14,18.5-29.67,18.5-29.67,3.27,3.85-1.19,68.9-2.9,92.24H35.19C37.17,248.26,41.61,221.6,45.14,197.43Z"/><path class="cls-3" d="M49.94,179.39c5.87-13,13.7-11.63,13.7-11.63,3.27,3.85-1.19,68.9-2.9,92.24H50c1.48-15.95,4.4-47.41,5.46-60.28C56.56,186.24,52.1,181.08,49.94,179.39Z"/><path class="cls-3" d="M72.23,149.91v12.7l-7.94-.05c-2.92,11.32-8,87.67-8.67,97.44h78.72c-1.08-10.15-9.8-92.08-11.72-97.11l-12.84-.07V149.91Z"/><path class="cls-2" d="M119.42,172.81c-4-8.75-25-7.57-27.27-7.41v0s-20.26-.19-23.55,9-5.78,38.89-7.76,60.38,5.23,22.76,19.39,22.76,13,.09,13,.09h23.71c11.62,0,11.12-9.51,11.12-20.34S123.62,182.06,119.42,172.81Z"/><path class="cls-4" d="M144.56,38.69c-17.06-7-83.85-4.83-91.95-2.32C12,47.3,22.88,99,22.25,108.52c-2.09,31.84,31.65,58,71.14,58.24s71.68-25.41,71.89-57.32C165.28,109.44,173.2,52,144.56,38.69Z"/><path class="cls-1" d="M118.55,87.72s4.48-2,12.12-1.65c7.37.33,13.52,3.68,13.84,2.09.57-2.83-3.35-7.71-9.46-9.94-5.73-2.09-10.85-.3-14.78,2.61S114.61,88.79,118.55,87.72Z"/><path class="cls-1" d="M69.65,87.72s-4.48-2-12.12-1.65c-7.37.33-13.53,3.68-13.84,2.09-.57-2.83,3.35-7.71,9.46-9.94,5.73-2.09,10.85-.3,14.78,2.61S73.58,88.79,69.65,87.72Z"/><path class="cls-5" d="M49.53,128a1.29,1.29,0,0,1-1.33,1.24l-4.36-.16a1.3,1.3,0,0,1-1.25-1.34h0a1.3,1.3,0,0,1,1.34-1.25l4.36.16A1.3,1.3,0,0,1,49.53,128Z"/><path class="cls-5" d="M143.33,128.64a1.29,1.29,0,0,1-1.34,1.24l-4.36-.16a1.28,1.28,0,0,1-1.24-1.34h0a1.29,1.29,0,0,1,1.34-1.24l4.35.16a1.3,1.3,0,0,1,1.25,1.34Z"/><path class="cls-4" d="M156.14,130a23.72,23.72,0,0,0,20-.26c10.47-5.12,15.64-26.15,2.07-31.18s-17.75,10.57-17.75,10.57Z"/><path class="cls-6" d="M162.45,123.59s4.31-23,14.38-15.07c6.19,4.88,2.52,11.71-3.22,14.51C170,124.78,165.32,124.94,162.45,123.59Z"/><path class="cls-7" d="M162.57,123.33l1.5-5.8s19.15-5.47,13.78,2.22S162.57,123.33,162.57,123.33Z"/><path class="cls-4" d="M30,128.67a23.75,23.75,0,0,1-20-.52C-.39,122.89-5.29,101.8,8.35,97S26,107.74,26,107.74Z"/><path class="cls-6" d="M23.73,122.19s-4-23.09-14.19-15.26c-6.24,4.8-2.66,11.68,3,14.55C16.16,123.28,20.84,123.5,23.73,122.19Z"/><path class="cls-7" d="M23.61,121.93l-1.42-5.83s-19.08-5.71-13.8,2.05S23.61,121.93,23.61,121.93Z"/><path class="cls-1" d="M167.24,32.17C153.89,12.3,135.9,0,93.74,0S35.58,10.28,21.29,30.47c-6.95,9.82-8.4,25.89-8.4,40.09,0,13,5.71,26.81,5.71,26.81a21.23,21.23,0,0,1,4.51,4.28c2.27-13.06,4.3-25.35,25-34.4C71.47,57,96.8,76.14,130.44,50.89c0,0,4.55,33.1,33.89,50.89a17.61,17.61,0,0,1,4.94-3.57S174.6,84,174.6,70.56C174.6,56.36,174,42.16,167.24,32.17Z"/><path class="cls-8" d="M93.6,123.44a21.64,21.64,0,0,1-12-3.67,1.39,1.39,0,1,1,1.68-2.22h0c.38.29,9.52,7,20.61-.06a1.39,1.39,0,1,1,1.49,2.35A21.74,21.74,0,0,1,93.6,123.44Z"/><path class="cls-9" d="M140.26,95.93a11.54,11.54,0,1,1-16-3.23A11.54,11.54,0,0,1,140.26,95.93Z"/><path class="cls-10" d="M132.43,93.22c1.14,1.73-.36,4.74-3.35,6.73s-6.36,2.21-7.5.49.35-4.74,3.35-6.73S131.28,91.5,132.43,93.22Z"/><path class="cls-9" d="M67.26,95.46a11.54,11.54,0,1,1-16-3.22A11.55,11.55,0,0,1,67.26,95.46Z"/><path class="cls-10" d="M59.43,92.76c1.14,1.73-.36,4.74-3.35,6.73s-6.36,2.21-7.5.49.35-4.74,3.35-6.73S58.28,91,59.43,92.76Z"/><path class="cls-11" d="M118.15,144.49c-4.33,5.71-12,11.86-24.77,11.86-13.09,0-20.81-6.41-25.11-12.21C64.71,139.35,121.89,139.55,118.15,144.49Z"/><path class="cls-12" d="M93.38,156.35a30.7,30.7,0,0,0,18-5.29c-5.08-3.36-12.34-6.32-18-6.32a28.41,28.41,0,0,0-17.79,6.44h0A31,31,0,0,0,93.38,156.35Z"/></g></g></svg>