<svg xmlns="http://www.w3.org/2000/svg" viewBox="0 0 177.36 260"><defs><style>.cls-1{fill:#51989e;}.cls-2{fill:#478c8e;}.cls-3{fill:#97cec6;}.cls-4{fill:#348789;}.cls-5{fill:#1b6d6d;}.cls-6{opacity:0.4;}.cls-7{fill:#2c6b6b;}.cls-8{fill:#2f3233;}.cls-9{fill:#f9dab4;}.cls-10{fill:#f7cea6;}.cls-11{fill:#f9f7f2;}.cls-12{fill:#e5be9e;}.cls-13{fill:#44302c;}.cls-14{fill:#f9f5ed;}.cls-15{fill:#e0605c;}.cls-16{fill:#ad3936;}</style></defs><title>资源 109</title><g id="图层_2" data-name="图层 2"><g id="Layer_1" data-name="Layer 1"><path class="cls-1" d="M48.24,162.44s9.83,22.85.78,38.76L37,237.91,42.6,260H18.68c-1.84-12.1-4.09-28.82-3.48-34.65C16.32,214.46,36.77,163.34,48.24,162.44Z"/><path class="cls-2" d="M48.24,162.44s9.83,22.85.78,38.76L37,237.91S37,222.75,41.5,212.77c1.76-3.88,2.31-24.63-3.12-27.06-4.72-2.12-11.77,9.4-13.48,12.42-.78,1.37-1.62,2.91-2.51,4.57C29.66,184.58,40.82,163,48.24,162.44Z"/><path class="cls-1" d="M144.22,162.44s-9.84,22.85-.78,38.76l12,36.71L149.86,260h23.92c1.84-12.1,4.08-28.82,3.48-34.65C176.14,214.46,155.69,163.34,144.22,162.44Z"/><path class="cls-2" d="M144.22,162.44s-9.84,22.85-.78,38.76l12,36.71s.07-15.16-4.47-25.14c-1.77-3.88-2.31-24.63,3.12-27.06,4.72-2.12,11.77,9.4,13.48,12.42.78,1.37,1.62,2.91,2.51,4.57C162.8,184.58,151.64,163,144.22,162.44Z"/><path class="cls-1" d="M133.27,162.41c-14.71.47-29.43,0-44.14,0h-22c-5.64,0-12.84-1.54-18.27-.29-5,1.15-3.4,6.78-3.37,11,0,6.21.48,12.41.48,18.61V260H147.07V186.46a100.13,100.13,0,0,1,.38-10.68c.37-3.48,1.42-7.42-.17-10.74C144.77,159.81,137.57,162.28,133.27,162.41Z"/><rect class="cls-3" x="45.93" y="198.62" width="101.14" height="15.84"/><rect class="cls-4" x="49.12" y="198.62" width="6.02" height="15.84"/><rect class="cls-4" x="59.59" y="198.62" width="6.02" height="15.84"/><rect class="cls-4" x="70.06" y="198.62" width="6.02" height="15.84"/><rect class="cls-4" x="80.53" y="198.62" width="6.02" height="15.84"/><rect class="cls-4" x="90.99" y="198.62" width="6.02" height="15.84"/><rect class="cls-4" x="101.46" y="198.62" width="6.02" height="15.84"/><rect class="cls-4" x="111.93" y="198.62" width="6.02" height="15.84"/><rect class="cls-4" x="122.4" y="198.62" width="6.02" height="15.84"/><rect class="cls-4" x="132.87" y="198.62" width="6.02" height="15.84"/><rect class="cls-4" x="143.75" y="198.62" width="3.32" height="15.84"/><rect class="cls-3" x="45.93" y="240.28" width="101.14" height="19.12"/><rect class="cls-4" x="49.12" y="240.28" width="6.02" height="19.12"/><rect class="cls-4" x="59.59" y="240.28" width="6.02" height="19.12"/><rect class="cls-4" x="70.06" y="240.28" width="6.02" height="19.12"/><rect class="cls-4" x="80.53" y="240.28" width="6.02" height="19.12"/><rect class="cls-4" x="90.99" y="240.28" width="6.02" height="19.12"/><rect class="cls-4" x="101.46" y="240.28" width="6.02" height="19.12"/><rect class="cls-4" x="111.93" y="240.28" width="6.02" height="19.12"/><rect class="cls-4" x="122.4" y="240.28" width="6.02" height="19.12"/><rect class="cls-4" x="132.87" y="240.28" width="6.02" height="19.12"/><rect class="cls-4" x="143.75" y="240.28" width="3.32" height="19.12"/><path class="cls-5" d="M68.82,167s42.39,15.93,57.6,0C126.42,155.53,68.82,167,68.82,167Z"/><path class="cls-3" d="M68.82,167.81c5,.81,10,1.4,15.06,1.86a198.47,198.47,0,0,0,29.46.61,44.11,44.11,0,0,0,7.89-.86,17.58,17.58,0,0,0,3.9-1.41c1.86-1,1.53-1.93,1.58-3.65.32-9.63,1.61-17.22-2.16-17.22-4.2,0-38.91,4.3-47.32,2.15s-8.41.43-8.41,6S66.18,167.4,68.82,167.81Z"/><path class="cls-4" d="M74.6,149.29a2.39,2.39,0,0,0-.46-.63c-5.31-.72-5.32,1.86-5.32,6.66,0,5.6-2.64,12.08,0,12.49,0,0,2.06.33,5.45.77C75,161.54,74.6,149.29,74.6,149.29Z"/><path class="cls-4" d="M84.76,169.74c2.8.25,5.82.48,8.94.65l.53-19.09-9.47-.58Z"/><path class="cls-4" d="M111.41,149.58,104,150.72s-1.77,12.95-1.21,20c3.34,0,6.67-.07,9.85-.31Z"/><path class="cls-4" d="M118.37,150.37a36.66,36.66,0,0,1,1.32,9.69,77.48,77.48,0,0,0,.66,9.55l.88-.19a17.58,17.58,0,0,0,3.9-1.41c1.86-1,1.53-1.93,1.58-3.65.24-7.24,1-13.33-.2-15.9C123.66,147.84,119.91,147.66,118.37,150.37Z"/><g class="cls-6"><path class="cls-7" d="M68.31,160.48c-.61,3.82-1.33,7,.51,7.33,5,.81,10,1.4,15.06,1.86a198.47,198.47,0,0,0,29.46.61,44.11,44.11,0,0,0,7.89-.86,17.58,17.58,0,0,0,3.9-1.41c1.86-1,1.53-1.93,1.58-3.65.12-3.62.38-7,.45-9.69C115.67,165.28,78.35,161.67,68.31,160.48Z"/></g><path class="cls-8" d="M172.78,55c-1.68,20.87-4.13,50.81-4.13,50.81H30c-8.15,0-9.27-24.75-9.52-30.45-.11-2.7-1.21-23.17-.08-22.58L1.57,43.15S11.51,39,20.93,39L0,25.45s19.36-4.13,27.73,0c0,0-16.16-15.31-16.64-16.08A44,44,0,0,1,27,9.85a45.76,45.76,0,0,1,8.86,3.26s5.94-3.93,9-5.52C74-7.38,177.55-4.35,172.78,55Z"/><path class="cls-9" d="M155,160a1.45,1.45,0,0,1-.22.21c-1.87,1.54-7.41.33-9.61.33H56.43c-7.15,0-14.68.78-21.79-.07-.92-.11-1.34-39.49-1.46-43.22Q32.4,92.56,31.6,67.87c-.06-1.88-.1-3.75-.16-5.62-.14-4.74,3.41-4.91,6.47-5,3.62-.07,6.52,0,9.76-.17,10.44-.46,21,.49,31.42.34,11.64-.17,23.29-.29,34.92-.16,9.83.11,19.68.19,29.51.09,2.9,0,5.8-.11,8.71-.12,1.52,0,3.46-.06,4.74,1.3,1.67,1.78.95,5.69.83,7.9-.4,7.68-.31,15.45-.52,23.15-.49,18-.38,36.08-1.35,54-.21,3.89.36,7.74-.06,11.63C155.72,156.72,155.91,158.93,155,160Z"/><path class="cls-10" d="M91.39,92.4c-1.74,4-2.46,8.25-3.71,12.37s-4.74,8.8-3.14,13.38c1.43,4.11,5.72,5.64,9.75,5.87,10.92.6,15.87-3.86,12.84-14.74C105.8,104.55,98.14,77,91.39,92.4Z"/><path class="cls-9" d="M92.42,91.09c-1.47,3.57-2.1,7.4-3.17,11.1s-4,7.93-2.71,12c1.15,3.67,4.66,5,8,5.17,9,.45,13.12-3.59,10.72-13.3C104.19,101.84,98.12,77.22,92.42,91.09Z"/><path class="cls-11" d="M94,118.35c.11.57,1.32.82,2.7.54s2.4-1,2.28-1.52-1.33-.81-2.7-.54S93.84,117.78,94,118.35Z"/><path class="cls-9" d="M36.36,94.42s-10.44-10.61-19.84,0S19.67,125,36.36,113.76Z"/><path class="cls-12" d="M30.16,109.1s.89-12.36-4.38-12.36S18.76,109.1,30.16,109.1Z"/><path class="cls-10" d="M25.78,96.74a3.91,3.91,0,0,0-3.42,2.41c2.46,2.39,6.18,6.34,7.81,9.72C30.26,107.21,30.63,96.74,25.78,96.74Z"/><path class="cls-9" d="M153.64,94.42s10.44-10.61,19.84,0-3.15,30.53-19.84,19.34Z"/><path class="cls-12" d="M159.84,109.1s-.89-12.36,4.39-12.36S171.24,109.1,159.84,109.1Z"/><path class="cls-10" d="M164.23,96.74a3.91,3.91,0,0,1,3.41,2.41c-2.46,2.39-6.18,6.34-7.81,9.72C159.74,107.21,159.37,96.74,164.23,96.74Z"/><path class="cls-10" d="M155.93,143.64c.51-9.34.72-18.72.88-28.1-4.23,4.78-.89,32.15-5.94,37.85S74,155.72,53.77,156.6c-17.75.77-20.29-32.85-20.64-41,0,.57,0,1.14,0,1.7.12,3.73.54,43.11,1.46,43.22,7.11.85,14.64.07,21.79.07h88.73c2.2,0,7.74,1.21,9.61-.33A1.45,1.45,0,0,0,155,160c.92-1.07.73-3.28.88-4.73C156.29,151.38,155.72,147.53,155.93,143.64Z"/><path class="cls-13" d="M70.26,84.86S68.53,75,61.1,73.29s-13.6,7.77-13.6,7.77a18.8,18.8,0,0,0-2.58,7.76S58.11,79.25,70.26,84.86Z"/><path class="cls-13" d="M118.18,86s1.74-9.83,9.17-11.57,13.59,7.77,13.59,7.77A18.71,18.71,0,0,1,143.53,90S130.33,80.43,118.18,86Z"/><path class="cls-8" d="M67.94,104.55l-.21.3a9.93,9.93,0,0,1-6.38,3.54c-4.32.82-10.63.64-13.45-5.21-2.61-5.39,2.77-6.2,5.24-4.73,2.31,1.38,5.15,3,7.67,2,2-.77,4.37-4.29,6.58-2.92S69.36,102.47,67.94,104.55Z"/><path class="cls-14" d="M52.26,100.21A2,2,0,0,1,51,102.46c-1,.51-2,.33-2.33-.41a2,2,0,0,1,1.26-2.24C50.92,99.3,52,99.48,52.26,100.21Z"/><path class="cls-8" d="M139.88,104.55l-.22.3a9.91,9.91,0,0,1-6.37,3.54c-4.33.82-10.63.64-13.45-5.21-2.61-5.39,2.76-6.2,5.24-4.73,2.31,1.38,5.15,3,7.66,2,2-.77,4.37-4.29,6.58-2.92S141.29,102.47,139.88,104.55Z"/><path class="cls-14" d="M124.19,100.21c.3.74-.27,1.74-1.25,2.25s-2,.33-2.33-.41a2,2,0,0,1,1.25-2.24C122.85,99.3,123.9,99.48,124.19,100.21Z"/><path class="cls-15" d="M82,132.49h28.2s1.55,18.83-13.33,20.43C85.13,153.84,82.18,139.83,82,132.49Z"/><path class="cls-16" d="M96.9,152.92a13.08,13.08,0,0,0,10-6c-2.55-4.78-6.49-7.86-10.92-7.86-4.26,0-8.06,2.84-10.62,7.3C87.67,150.39,91.28,153.36,96.9,152.92Z"/></g></g></svg>