<svg xmlns="http://www.w3.org/2000/svg" viewBox="0 0 157.27 260.2"><defs><style>.cls-1{fill:#f4efed;}.cls-2{fill:#c65044;}.cls-3{fill:#e2dcd9;}.cls-4{fill:#3f3e3d;}.cls-5{fill:#302f2d;}.cls-6{fill:#ba8156;}.cls-7{fill:#f4d3b0;}.cls-8{fill:#f9dab4;}.cls-9{fill:#efc4a0;}.cls-10{fill:#515151;}</style></defs><title>资源 278</title><g id="图层_2" data-name="图层 2"><g id="Layer_1" data-name="Layer 1"><rect class="cls-1" x="47.49" y="157.91" width="64.35" height="102.3"/><rect class="cls-2" x="74.72" y="162.73" width="11.24" height="13.14" rx="2.54"/><polygon class="cls-2" points="76.93 174.61 64.58 255.45 71.15 260.2 89.66 260.2 96.37 254.98 83.47 174.61 76.93 174.61"/><polygon class="cls-3" points="49.83 159.61 53.09 186.82 80.36 169.31 107.99 186.82 109.58 159.49 49.83 159.61"/><path class="cls-4" d="M80.13,225c-13.76-18.46-25.51-46.35-31.69-62.24H45.38c-14,0-22.76,11.88-29.32,30-5.35,14.81-9.47,53.72-10.8,67.44H155c-3.59-17-11.68-54.82-15.36-66.81-8.41-27.38-22.4-31.3-28.08-31.59C104.16,194.19,80.13,225,80.13,225Z"/><polygon class="cls-5" points="123.67 209.04 126.69 260.2 130.78 260.2 123.67 209.04"/><polygon class="cls-5" points="32.63 260.2 32.63 207.62 29.77 260.2 32.63 260.2"/><path class="cls-5" d="M75.09,243.88a5.06,5.06,0,1,0,5.06-5A5.06,5.06,0,0,0,75.09,243.88Z"/><path class="cls-5" d="M87.83,214h0c7.33-11.25,18-29.8,23-49.26h0l12.86,24.18Z"/><path class="cls-5" d="M49.5,165.38c5.4,13.41,13.9,32.91,23.33,48.59L37,188.89Z"/><path class="cls-6" d="M5.91,111.34S-28.34,0,78.39,0s73.43,111.34,73.43,111.34Z"/><path class="cls-7" d="M19.4,111.25S13.05,102.88,5,106.58C-2.57,110-4.62,138.5,21.63,140.5Z"/><path class="cls-7" d="M137.87,111.25s6.35-8.37,14.46-4.67c7.51,3.42,9.56,31.92-16.69,33.92Z"/><path class="cls-8" d="M141.23,123.2a41.54,41.54,0,0,1-32.31,40.52,139.53,139.53,0,0,1-61,0A41.54,41.54,0,0,1,15.55,123.2V74.67H141.23Z"/><path class="cls-9" d="M74,151.45a131.54,131.54,0,0,1-21.94-1.66,1.27,1.27,0,0,1,.48-2.5,142.31,142.31,0,0,0,51.73-1.63,1.27,1.27,0,1,1,.56,2.47A139.85,139.85,0,0,1,74,151.45Z"/><path class="cls-9" d="M77.48,159.94a23.43,23.43,0,0,1-7.93-1.37,1.27,1.27,0,1,1,.93-2.36c.1,0,7.48,2.82,14.11-.33a1.27,1.27,0,0,1,1.09,2.3A19,19,0,0,1,77.48,159.94Z"/><path class="cls-9" d="M77.65,141a18,18,0,0,1-12.23-4.77s7.34,2.38,12.31,2.38,12.63-2.38,12.63-2.38A20,20,0,0,1,77.65,141Z"/><polygon class="cls-6" points="104.58 106.92 104.58 101.1 134.29 97.37 134.29 102.89 104.58 106.92"/><path class="cls-10" d="M33.1,126a1.27,1.27,0,0,1-1.26-1.14c-.05-.44-1.07-10.85,6.58-12.82,6.14-1.57,10.23,4.18,11.54,7.44a1.27,1.27,0,0,1-.7,1.65,1.28,1.28,0,0,1-1.66-.7c-.12-.3-3-7.34-8.55-5.92s-4.69,10-4.68,10.08a1.27,1.27,0,0,1-1.13,1.4Z"/><polygon class="cls-6" points="52.33 106.92 52.33 101.1 22.62 97.37 22.62 102.89 52.33 106.92"/><path class="cls-10" d="M123.81,126h-.14a1.27,1.27,0,0,1-1.13-1.39c0-.15.82-8.68-4.69-10.09s-8.43,5.62-8.55,5.92a1.27,1.27,0,0,1-2.36-1c1.31-3.26,5.41-9,11.55-7.44,7.65,2,6.62,12.38,6.58,12.82A1.27,1.27,0,0,1,123.81,126Z"/><path class="cls-6" d="M7.92,81.07s21.28,24.31,36.21,10c0,0,10.8,9.69,20.17,2.86,0,0,12.39,8.26,18.59-.48,0,0,17,7.31,21.28-1.43,0,0,13,6.67,18.11-.79,0,0,14,8.42,20.8-.95V66.94H7.92Z"/></g></g></svg>