<?xml version="1.0" standalone="no"?><!DOCTYPE svg PUBLIC "-//W3C//DTD SVG 1.1//EN" "http://www.w3.org/Graphics/SVG/1.1/DTD/svg11.dtd"><svg t="1548738900906" class="icon" style="" viewBox="0 0 1024 1024" version="1.1" xmlns="http://www.w3.org/2000/svg" p-id="7861" xmlns:xlink="http://www.w3.org/1999/xlink" width="200" height="200"><defs><style type="text/css"></style></defs><path d="M273.097 877.288c-45.646-0.133-82.896-37.383-83.029-83.035v-45.822h-41.374c-20.996-0.004-41.554-8.206-56.81-22.583l-1.776-1.797c-15.512-15.406-24.422-36.777-24.447-58.634V229.745c0-21.815 8.435-42.391 23.772-58.039l0.684-0.618c15.397-15.474 36.748-24.359 58.578-24.376h602.206c22.005 0 42.799 8.657 58.557 24.378l0.078 0.079c15.462 15.396 24.348 36.74 24.376 58.559v45.825h41.39c21.857 0.033 43.235 8.942 58.649 24.443l2.246 2.258c14.103 15.204 22.134 35.549 22.138 56.326v435.68c-0.02 21.824-8.905 43.176-24.376 58.577l-0.645 0.642v0.066c-15.365 15.094-36.456 23.738-58.011 23.743H273.097z m-47.565-83.012c0.08 26.15 21.415 47.485 47.558 47.565h602.214c11.002-0.011 21.422-3.738 29.832-10.587v0.343l3.738-3.658c9.005-8.982 13.97-20.93 13.979-33.645V497.158l-2.191 2.191 0.021-4.382H225.532v299.309z m-109.759-94.642c8.875 8.588 20.528 13.316 32.919 13.335h41.393v-354.37c0-21.812 8.435-42.387 23.77-58.034l0.686-0.62c15.397-15.479 36.747-24.364 58.573-24.375h525.354v-45.825c0-12.687-4.946-24.611-13.926-33.573-8.893-8.919-21.128-13.996-33.639-13.996H148.695c-12.681 0-24.63 4.965-33.645 13.98l-3.741 3.74h0.427c-6.846 8.411-10.575 18.828-10.589 29.825v435.698c0 12.659 4.937 24.582 13.901 33.571l0.642 0.644h0.083z m120.37-370.881c-6.849 8.411-10.579 18.829-10.595 29.824v83.194l-0.019 14.242h697.346v-97.414c-0.017-12.394-4.747-24.045-13.339-32.918v-0.007l-0.64-0.714c-8.958-8.981-20.879-13.927-33.57-13.927H273.097c-12.677 0-24.625 4.965-33.64 13.979l-3.741 3.741h0.427z" p-id="7862"></path></svg>