<svg xmlns="http://www.w3.org/2000/svg" viewBox="0 0 262.4 285.47"><defs><style>.cls-1{fill:#f9dab4;}.cls-2{fill:#efc4a0;}.cls-3{fill:#c65044;}.cls-4{fill:#ea9628;}.cls-5{fill:#dd8924;}.cls-6{fill:#515151;}.cls-7{fill:#e8e3d9;}.cls-8{fill:#54a3b5;}.cls-9{fill:#ad3e3b;}</style></defs><title>资源 302</title><g id="图层_2" data-name="图层 2"><g id="Layer_1" data-name="Layer 1"><path class="cls-1" d="M167.06,184.28v26.85c.54,1.33,11.15,55.74,14.77,74.34h34.91C203.59,181.21,167.06,184.28,167.06,184.28Z"/><path class="cls-1" d="M116,184.28v26.85c-.54,1.33-11.15,55.74-14.77,74.34H66.35C79.51,181.21,116,184.28,116,184.28Z"/><rect class="cls-2" x="116.77" y="174.53" width="48.39" height="30.94"/><path class="cls-3" d="M141.13,200.8c-12.34-.2-21.84-8.35-22.85-19.68h-3.76L97.28,285.47H185L167.74,181.12H164C163,192.45,153.47,200.6,141.13,200.8Z"/><path class="cls-4" d="M66.1,120.93S41.26,80.48,80.69,41.81,169,0,169,0s3.84,3.15,4.35,5.45l3.84-2.3s5.89,6.4,8.71,11.52c0,0,1.79-5.38,2.56-6.14,0,0,42.25,26.88,25.86,112.4Z"/><path class="cls-1" d="M141.78,189.42h-1.3A64.44,64.44,0,0,1,76,125V105.64s4.63-45.17,66.77-45.17S206.23,105,206.23,105v20A64.44,64.44,0,0,1,141.78,189.42Z"/><path class="cls-5" d="M76,105.64s10.27-34,66.77-34,63.43,34,63.43,34c2-26.29-6-49.61-34.84-66.66C101.58,44.06,80.07,71.09,76,105.64Z"/><path class="cls-6" d="M76.23,106.75a31.12,31.12,0,0,0,15.39,60.31Z"/><path class="cls-7" d="M81.66,168a31.11,31.11,0,0,0,10-.9L76.23,106.75a31.11,31.11,0,0,0-9.17,4Z"/><path class="cls-6" d="M206,106.75a31.12,31.12,0,1,1-15.4,60.31Z"/><path class="cls-7" d="M200.53,168a31.2,31.2,0,0,1-10-.9L206,106.75a31.11,31.11,0,0,1,9.17,4Z"/><path class="cls-2" d="M136.59,166.9a128.59,128.59,0,0,1-21.44-1.62,1.24,1.24,0,1,1,.46-2.44,139.3,139.3,0,0,0,50.58-1.6,1.24,1.24,0,1,1,.55,2.42A136.84,136.84,0,0,1,136.59,166.9Z"/><path class="cls-2" d="M140.6,141.19c7.46,0,6.85,6.45,6.85,6.45a8,8,0,0,0-6.92-4.12,9.32,9.32,0,0,0-7.42,4.12S133.14,141.19,140.6,141.19Z"/><polygon class="cls-5" points="166.47 114.05 166.47 108.35 195.52 104.7 195.52 110.1 166.47 114.05"/><path class="cls-6" d="M96.57,138.93a1.24,1.24,0,0,1-1.23-1.11c0-.43-1-10.61,6.44-12.53,6-1.55,10,4.08,11.28,7.27a1.24,1.24,0,1,1-2.3.92c-.12-.29-3-7.17-8.36-5.79s-4.6,9.78-4.59,9.87a1.25,1.25,0,0,1-1.1,1.37Z"/><polygon class="cls-5" points="115.38 114.05 115.38 108.35 86.32 104.7 86.32 110.1 115.38 114.05"/><path class="cls-6" d="M185.27,138.93h-.13a1.26,1.26,0,0,1-1.11-1.37h0c0-.08.82-8.48-4.58-9.87s-8.24,5.5-8.36,5.79a1.24,1.24,0,0,1-2.31-.92c1.28-3.19,5.29-8.82,11.29-7.27,7.48,1.92,6.48,12.1,6.43,12.53A1.23,1.23,0,0,1,185.27,138.93Z"/><path class="cls-8" d="M241.71,113.23s-10.14-3.65-10.09,7.29c0,8.22,7,9.35,10.8,7.15s4.28-9.22,4.39-11.07.82-11.07.82-11.07,7.82,2.5,14.77-1.17l-.29-13.68s-11.25,3.95-18.92-.17Z"/><path class="cls-9" d="M13.16,100.21s-7.83.07-7.33,8.32,11.49,7.34,13,1.85-.29-6.83-5.48-16.86c0,0,11.67-6,14.51-13.58l6,7.61s-6.55.56-6.62,6.68,7,11.17,11.59,4.91-1.49-12.09-1.49-12.09L23.43,68.21S18.07,80.5,0,86.55l1,1.64a29.75,29.75,0,0,0,5.38-1.76Z"/></g></g></svg>