<svg xmlns="http://www.w3.org/2000/svg" viewBox="0 0 140.07 259.39"><defs><style>.cls-1{fill:#f9f5ed;}.cls-2{fill:#7f5732;}.cls-3{fill:#4c3626;}.cls-4{fill:#515151;}.cls-5{fill:#f4d3b0;}.cls-6{fill:#393c3d;}.cls-7{fill:#f9dab4;}.cls-8{fill:#efc4a0;}</style></defs><title>资源 323</title><g id="图层_2" data-name="图层 2"><g id="Layer_1" data-name="Layer 1"><rect class="cls-1" x="49.1" y="144.13" width="42.31" height="87.02"/><path class="cls-2" d="M8.42,259.39H30.3l10.37-97.28S13.27,177.35,8.42,259.39Z"/><polygon class="cls-3" points="28.62 259.39 35.01 195.25 23.87 259.39 28.62 259.39"/><path class="cls-2" d="M132.32,259.39H110.44l-10.37-97.28S127.47,177.35,132.32,259.39Z"/><polygon class="cls-3" points="112.13 259.39 105.73 195.25 116.87 259.39 112.13 259.39"/><path class="cls-2" d="M46.26,156.8H41.7S30.85,210.5,27.64,259.39h85.63C110.06,210.5,99.21,156.8,99.21,156.8H94.65l-24.2,58Z"/><polygon class="cls-3" points="70.45 214.76 91.69 200.07 88.8 187.02 103.7 181.57 92.84 158.63 70.45 214.76"/><polygon class="cls-3" points="70.45 214.76 49.22 200.07 52.11 187.02 37.21 181.57 48.06 158.63 70.45 214.76"/><path class="cls-3" d="M66.75,223a3.71,3.71,0,1,0,3.7-3.7A3.71,3.71,0,0,0,66.75,223Z"/><path class="cls-3" d="M66.75,241.18a3.71,3.71,0,1,0,3.7-3.71A3.7,3.7,0,0,0,66.75,241.18Z"/><path class="cls-4" d="M4,101.82S-24.06,0,68.31,0s64.54,101.82,64.54,101.82Z"/><path class="cls-5" d="M16.89,101.32s-3.64-7.12-10-4.74c-7.79,2.92-12.7,31.15,10,37.56Z"/><path class="cls-5" d="M120.14,101.32s3.64-7.12,10-4.74c7.79,2.92,12.69,31.15-10,37.56Z"/><path class="cls-6" d="M14.28,62.65s11.93-22,35.77-31.15l-3.58,9.69S59.56,27.2,78,23.61L70.5,34.55s18.11-9,34.25-6.27L88.07,38.68s21.7-6.1,35.68-.54l-18.64,5s16.49-3,26,5.59l-15.42,2.87s15.06.26,21.69,9.36H125s9.86.86,15.06,7.67H128.4a15.79,15.79,0,0,1,11.67,9L127.34,76l-59,4.12Z"/><path class="cls-7" d="M122.34,133.06a28.81,28.81,0,0,1-17.68,26.65C96.34,163.16,84.57,166,68.31,166s-28-2.82-36.36-6.27a28.8,28.8,0,0,1-17.67-26.65V62.65c19.12-4,37.06.77,54,12.75,14-13.57,32.19-17,54-12.75Z"/><path class="cls-8" d="M64.45,144.59a121,121,0,0,1-19.91-1.5,1.21,1.21,0,0,1,.46-2.38,129.06,129.06,0,0,0,46.9-1.48,1.21,1.21,0,0,1,.53,2.36A127.54,127.54,0,0,1,64.45,144.59Z"/><path class="cls-8" d="M68.17,120.68c6.92,0,6.35,6,6.35,6a7.42,7.42,0,0,0-6.42-3.83,8.63,8.63,0,0,0-6.88,3.83S61.25,120.68,68.17,120.68Z"/><polygon class="cls-6" points="89.14 95.5 89.14 90.22 116.09 86.83 116.09 91.85 89.14 95.5"/><path class="cls-4" d="M30.35,118.65a1.21,1.21,0,0,1-1.2-1.08c0-.41-1-9.9,6-11.69,5.6-1.44,9.34,3.8,10.53,6.77a1.21,1.21,0,1,1-2.24.9c-.11-.26-2.74-6.6-7.69-5.33s-4.22,9-4.21,9.09a1.21,1.21,0,0,1-1.08,1.33Z"/><polygon class="cls-6" points="47.8 95.5 47.8 90.22 20.84 86.83 20.84 91.85 47.8 95.5"/><path class="cls-4" d="M106.58,118.65h-.13a1.21,1.21,0,0,1-1.07-1.33c0-.12.74-7.82-4.21-9.09s-7.58,5.07-7.69,5.34a1.21,1.21,0,0,1-2.25-.91c1.2-3,4.94-8.21,10.54-6.77,7,1.79,6.06,11.28,6,11.69A1.2,1.2,0,0,1,106.58,118.65Z"/></g></g></svg>