<svg xmlns="http://www.w3.org/2000/svg" viewBox="0 0 173.37 260.8"><defs><style>.cls-1{fill:#79a348;}.cls-2{fill:#88b559;}.cls-3{fill:#f7cea6;}.cls-4{fill:#f9dab4;}.cls-5{fill:#f9f7f2;}.cls-6{fill:#e5be9e;}.cls-7{fill:#f4c7a2;}.cls-8{fill:#2c3030;}.cls-9{fill:#3b3d3d;}.cls-10{fill:#fff;}</style></defs><title>资源 16</title><g id="图层_2" data-name="图层 2"><g id="Layer_1" data-name="Layer 1"><path class="cls-1" d="M119.17,144.52l-10.34.87.26,115.41H157c1-6.52,2.06-13.5,2.8-20,1.72-15,2.56-38.92-9-56.32C141.22,170.26,119.17,144.52,119.17,144.52Z"/><path class="cls-2" d="M126.71,161.58c-2.36-.12-.61,9.77-.61,9.77s5.54,37.83,9.39,44.75A32.77,32.77,0,0,1,144,216a22.64,22.64,0,0,1,6.84,1.91c1.54.73,4.68,2.1,4.32,4.23a1.16,1.16,0,0,1-.42.76,1.05,1.05,0,0,1-.9.1,3.25,3.25,0,0,1-.82-.44,17.71,17.71,0,0,0-4.22-2.46,18.31,18.31,0,0,0-7.2-.92c-.89.07-3.61.24-3.7,1.57,3.37.16,6.36-.33,9.23,2.56.89.91,2.51,3.24,1.49,4.59s-3.81-1.11-4.66-1.66c-1.75-1.12-4-1.92-5.49-.14-1.89,2.25-2.61,5.61-3.23,8.4a67.08,67.08,0,0,0-1.51,11.64c-.12,2.76-.31,6,.71,8.64a28.51,28.51,0,0,0,3.31,6.06h14.07a69.49,69.49,0,0,0,6.37-26.1c.51-13.95-2-31-4.56-38.27C146.91,177.62,129.06,161.69,126.71,161.58Z"/><path class="cls-1" d="M24.08,184.47C12.46,201.87,13.3,225.79,15,240.79c.75,6.51,1.76,13.49,2.81,20H65.7L66,145.39l-10.34-.87S33.57,170.26,24.08,184.47Z"/><path class="cls-2" d="M48.08,161.58c-2.36.11-20.2,16-26.92,34.85-2.58,7.24-5.07,24.32-4.56,38.27A69.68,69.68,0,0,0,23,260.8H37a28.46,28.46,0,0,0,3.3-6.06c1-2.63.83-5.88.72-8.64a68.06,68.06,0,0,0-1.51-11.64c-.62-2.79-1.34-6.15-3.23-8.4-1.5-1.78-3.74-1-5.5.14-.84.55-3.66,3-4.65,1.66s.59-3.68,1.49-4.59c2.87-2.89,5.86-2.4,9.22-2.56-.08-1.33-2.8-1.5-3.69-1.57a18.38,18.38,0,0,0-7.21.92,17.64,17.64,0,0,0-4.21,2.46A3.25,3.25,0,0,1,21,223a1.05,1.05,0,0,1-.9-.1,1.16,1.16,0,0,1-.42-.76c-.36-2.13,2.77-3.5,4.32-4.23A22.58,22.58,0,0,1,30.78,216a32.84,32.84,0,0,1,8.52.14c3.85-6.92,9.38-44.75,9.38-44.75S50.44,161.46,48.08,161.58Z"/><path class="cls-2" d="M136.31,260.8c-3.31-28.42-9.4-80.53-17.58-101.18L54,160S41.55,217,37.9,260.8Z"/><path class="cls-1" d="M37.9,260.8H50.59a45.79,45.79,0,0,1-3.28-8.58c-5.91-20.9,5.26-69.8,5.26-69.8L57.16,160H54S41.55,217,37.9,260.8Z"/><path class="cls-1" d="M131.53,260.8h4.78c-1.2-10.3-2.56-23.45-4.53-36.63a260.28,260.28,0,0,1,.09,34.57A13.42,13.42,0,0,1,131.53,260.8Z"/><path class="cls-1" d="M88.75,192.59c-11.32,0-24.18-27.93-24-29.24l1-5.89h46l.95,5.89C112.93,164.66,100.06,192.59,88.75,192.59Z"/><path class="cls-3" d="M71.7,164.47s12.12,21.11,17,21.11,17-21.11,17-21.11Z"/><path class="cls-4" d="M153.78,58,22.5,57.88s.65,22.33-1.13,36.63c-1,8.22-.46,15.32-.67,18.55C18.76,142.68,50.15,167,86.89,167.24s66.69-23.64,66.88-53.33a81.86,81.86,0,0,0-.46-9.83c-.25-2.5-.25-5.22-.39-8.31C152.31,82.42,153.78,58,153.78,58Z"/><path class="cls-5" d="M46.08,131.22a1.2,1.2,0,0,1-1.24,1.15l-4.05-.15A1.2,1.2,0,0,1,39.63,131h0a1.21,1.21,0,0,1,1.25-1.17l4,.15a1.21,1.21,0,0,1,1.15,1.26Z"/><path class="cls-5" d="M133.35,131.78a1.2,1.2,0,0,1-1.24,1.15l-4.06-.15a1.19,1.19,0,0,1-1.15-1.24h0a1.19,1.19,0,0,1,1.24-1.16l4.05.15a1.19,1.19,0,0,1,1.16,1.25Z"/><path class="cls-4" d="M145.27,133a22.09,22.09,0,0,0,18.57-.24c9.74-4.77,14.54-24.33,1.92-29s-16.51,9.83-16.51,9.83Z"/><path class="cls-3" d="M151.14,127.08s4-21.43,13.38-14c5.76,4.55,2.34,10.9-3,13.51C158.17,128.19,153.81,128.33,151.14,127.08Z"/><path class="cls-6" d="M151.26,126.84l1.39-5.4s17.82-5.09,12.82,2.06S151.26,126.84,151.26,126.84Z"/><path class="cls-4" d="M27.88,131.8a22.09,22.09,0,0,1-18.57-.48c-9.68-4.89-14.23-24.52-1.55-29s16.39,10,16.39,10Z"/><path class="cls-3" d="M22.08,125.78s-3.73-21.48-13.2-14.2c-5.81,4.47-2.48,10.86,2.83,13.54C15,126.79,19.39,127,22.08,125.78Z"/><path class="cls-6" d="M22,125.53l-1.32-5.42S2.89,114.8,7.8,122,22,125.53,22,125.53Z"/><path class="cls-7" d="M87.64,125.93a20.08,20.08,0,0,1-11.14-3.41,1.3,1.3,0,0,1-.25-1.82,1.29,1.29,0,0,1,1.81-.24h0c.36.26,8.86,6.49,19.18-.06a1.29,1.29,0,1,1,1.38,2.18A20.23,20.23,0,0,1,87.64,125.93Z"/><path class="cls-7" d="M87.81,149.87c-14.64,0-22.12-3.22-22.43-3.35a1.29,1.29,0,0,1,1-2.37h0c.07,0,7.36,3.13,21.39,3.13s21.89-3.11,22-3.14a1.29,1.29,0,1,1,1,2.39C110.42,146.67,102.43,149.87,87.81,149.87Z"/><path class="cls-8" d="M110.84,89.23s4.16-1.85,11.27-1.53c6.86.31,12.58,3.42,12.88,2,.52-2.64-3.12-7.18-8.8-9.25-5.34-2-10.1-.28-13.75,2.42S107.17,90.24,110.84,89.23Z"/><path class="cls-8" d="M65.33,89.23s-4.16-1.85-11.27-1.53c-6.86.31-12.58,3.42-12.88,2C40.66,87,44.3,82.47,50,80.4c5.34-2,10.1-.28,13.75,2.42S69,90.24,65.33,89.23Z"/><path class="cls-9" d="M131.05,102.36a10.74,10.74,0,1,1-14.89-3A10.73,10.73,0,0,1,131.05,102.36Z"/><path class="cls-10" d="M123.76,99.85c1.07,1.6-.33,4.4-3.11,6.25s-5.92,2.06-7,.46.33-4.41,3.12-6.26S122.7,98.24,123.76,99.85Z"/><path class="cls-9" d="M63.13,99.9a10.74,10.74,0,1,1-14.89-3A10.74,10.74,0,0,1,63.13,99.9Z"/><path class="cls-10" d="M55.84,97.39c1.07,1.6-.33,4.4-3.12,6.26s-5.91,2-7,.45.33-4.4,3.12-6.26S54.78,95.79,55.84,97.39Z"/><path class="cls-8" d="M161.81,78.21l-4.39,25.28a18.11,18.11,0,0,0-3.92,2.64L148.22,84Z"/><path class="cls-9" d="M80.07.32C54.83-2.1,20.67,9.05,22.49,38.79c0,0-8.26-5.2-16.2,1.49-6.46,5.45-7.57,22.08,1.56,39,3.94,7.29,7.42,15.53,7.3,22.52a14.5,14.5,0,0,1,5.64,3.91A164.84,164.84,0,0,1,31,71.62S49.21,90.24,102,90.41s65.5-6.46,67.78-35.17C171.33,35.71,155,7.52,80.07.32Z"/></g></g></svg>