<svg xmlns="http://www.w3.org/2000/svg" viewBox="0 0 187.38 265.83"><defs><style>.cls-1{fill:#ddb58e;}.cls-2{fill:#f2d0af;}.cls-3{fill:#d15852;}.cls-4{fill:#e0605c;}.cls-5{fill:#4c3626;}.cls-6{fill:#3d2b1f;}.cls-7{fill:#f4d3b0;}.cls-8{fill:#c65044;}.cls-9{fill:#3a332d;}.cls-10{fill:#e8dfd9;}</style></defs><title>资源 233</title><g id="图层_2" data-name="图层 2"><g id="Layer_1" data-name="Layer 1"><path class="cls-1" d="M159.45,190.85s17.81-12.34,21.78-9.66,2.18,7-9.26,13.24Z"/><path class="cls-2" d="M114.37,160.24s9.44-5.34,13.31,4.68,6.15,51.91,6.15,51.91,8.8-18.28,12-24c0,0-14-10.84-8.19-15,8.84-6.37,14.63,11.81,16.42,11.81s32.55-5,33.27,2.51-9.66,6.38-20.75,9.27-20.68,41.88-28.94,42.6-15.3.43-18.4-17.14S114.37,160.24,114.37,160.24Z"/><path class="cls-3" d="M142.63,196.22s-.81,5.88,6.39,9.64,12.39,1.62,12.39,1.62a10.2,10.2,0,0,1-7,10.78c-8.05,2.86-18.67-6.15-18.73-12.4S142.63,196.22,142.63,196.22Z"/><path class="cls-2" d="M68.61,167.07s1.27-12.75-10.65-6.55-32.45,59.85-32.45,59.85-8.73,12.52,21.64,26.83L54.3,235s-11.51-6-11.49-9.62S68.61,167.07,68.61,167.07Z"/><path class="cls-1" d="M45.75,229.72c-4.69,1.73-9.44,8-6.85,13.09a88.8,88.8,0,0,0,8.25,4.39L54.3,235a57.29,57.29,0,0,1-8.39-5.42A.44.44,0,0,1,45.75,229.72Z"/><path class="cls-2" d="M62.63,152.55S60,224.63,58.54,260h66.53c-1.49-35.41-4.1-107.49-4.1-107.49H62.63Z"/><path class="cls-4" d="M123.1,210C122,180.41,121,152.55,121,152.55H62.63s-1,27.86-2.13,57.45Z"/><path class="cls-3" d="M108.37,178.52A17.53,17.53,0,0,0,91.8,190.35a17.5,17.5,0,0,0-30.37-5.07c-.24,6.41-.5,13.36-.77,20.5-.72,19.27-1.52,39.82-2.12,54.26h66.53c-.61-14.44-1.4-35-2.13-54.26-.27-7.14-.53-14.09-.76-20.5A17.49,17.49,0,0,0,108.37,178.52Z"/><path class="cls-1" d="M125.07,260c-.16-3.68-.32-7.76-.5-12.12H59c-.18,4.36-.35,8.44-.5,12.12Z"/><path class="cls-4" d="M99,229.11l-1.42-3.75H85.41L84,229.19a13.64,13.64,0,0,1-1.42,3,2.29,2.29,0,0,1-1.94.78,2.88,2.88,0,0,1-2-.83,2.58,2.58,0,0,1-.87-1.9,4.35,4.35,0,0,1,.2-1.26c.14-.44.36-1,.67-1.82l7.65-19.4c.21-.56.48-1.23.78-2a10,10,0,0,1,1-1.94,4,4,0,0,1,1.36-1.26,4.83,4.83,0,0,1,4.2,0,4,4,0,0,1,1.37,1.24,8.43,8.43,0,0,1,.88,1.62c.23.57.54,1.35.9,2.31L104.53,227a9.66,9.66,0,0,1,.91,3.2,2.61,2.61,0,0,1-.86,1.9,2.84,2.84,0,0,1-2.09.87,2.68,2.68,0,0,1-1.22-.25,2.53,2.53,0,0,1-.86-.69,6.6,6.6,0,0,1-.74-1.35C99.4,230.1,99.18,229.57,99,229.11Zm-12-8.3h8.93l-4.51-12.33Z"/><path class="cls-2" d="M56.63,236.6s15.13,4.56,17.94-.67-5.09-11.41-19.18-12.61S48.68,233,48.68,233s-3.75-.53-6.7,4.16,1.6,8.3,1.6,8.3a6.45,6.45,0,0,0-5.49,5.25c-1.21,5,4.15,9.39,10.06,12.34s16.63,4.16,18.11.67-.58-7.11-4.05-8.72c0,0,11.29,2.15,9.82-5.23S56.63,236.6,56.63,236.6Z"/><path class="cls-1" d="M62.21,255s.76.14,1.86.23c-.42-.4-.84-.81-1.32-1.21A11.72,11.72,0,0,0,61,252.74l-1.84-1.21a42.84,42.84,0,0,0-3.9-1.85,27,27,0,0,0-3.57-1.15,17.3,17.3,0,0,0-3.62-.61s1.29.73,3.18,1.75c1,.49,2,1.12,3.22,1.72.6.27,1.16.68,1.78,1l1.84,1,1.79,1.09a19.37,19.37,0,0,1,1.73,1.05c.53.38,1.06.73,1.57,1.06s1,.61,1.42,1c.56.47,1.05.85,1.49,1.18A8.05,8.05,0,0,0,62.21,255Z"/><path class="cls-5" d="M92.29.1H90.87C38.82-2.58-10.82,49.47,2.06,92.66s39.71,67.88,39.71,67.88l-2.68-8.19c1.07,3.61,10.19,8.73,10.19,8.73v-7c2.42,6.71,9.12,8.56,9.12,8.56L51.16,142l39.71,10.46h1.42L132,142l-7.24,20.63s6.71-1.85,9.12-8.56v7s9.12-5.12,10.2-8.73l-2.69,8.19s26.83-24.68,39.71-67.88S144.34-2.58,92.29.1Z"/><path class="cls-6" d="M128.72,62.44a45.49,45.49,0,0,1-3.39,6.18,59.75,59.75,0,0,1-4.26,5.85,64.22,64.22,0,0,1-5.68,6.09c-1.09.92-2.1,1.92-3.23,2.75a40.68,40.68,0,0,1-3.32,2.43,31.35,31.35,0,0,1-3.28,2,29.29,29.29,0,0,1-3.08,1.53c-1,.42-1.89.78-2.69,1.09s-1.56.45-2.15.63c-1.19.33-1.87.49-1.87.49s.62-.34,1.72-.88c.55-.28,1.23-.58,2-1s1.55-.93,2.45-1.44,1.81-1.19,2.81-1.81,2-1.41,3-2.17,2.05-1.65,3.11-2.49,2-1.82,3.07-2.73,2-1.9,3-2.85,1.9-1.92,2.76-2.89c1.76-1.91,3.35-3.75,4.69-5.35s2.47-2.94,3.2-3.92Z"/><path class="cls-7" d="M34.76,112.43s-6.89-5-12.49,0c-5.38,4.79-1.78,29.69,20.52,27Z"/><path class="cls-7" d="M147.62,112.43s6.89-5,12.48,0c5.39,4.79,1.79,29.69-20.51,27Z"/><path class="cls-2" d="M139.59,110.21c-1.36-2.13,4.58.52,0-15.76S109.29,83,109.29,83c-22.36,18.78-65.11,9-65.11,9-3.71,6-9,14.93-11.48,19.19,0,4.87-.06,10-.06,10.81,0,30,26.22,40.71,58.55,40.71S149.73,152,149.73,122c0-1.15,0-11-.11-16.46C145.1,109.27,140.35,111.41,139.59,110.21Z"/><path class="cls-8" d="M80.89,144.85s2.54-3.94,5.47-3.76,4.53,3.09,4.53,3.09,2.63-3,5.72-3,4.42,3.94,4.42,3.94-3.06,7.39-10.37,7.39S80.89,144.85,80.89,144.85Z"/><path class="cls-1" d="M85.92,127.27s.5-4.66,4.85-4.68S96,127.27,96,127.27s-2.38-2.87-5.16-2.87S85.92,127.27,85.92,127.27Z"/><path class="cls-9" d="M58.79,127.76h-.11c-.33,0-8.14-.83-11.53-3a1.16,1.16,0,0,1-.37-1.57,1.07,1.07,0,0,1,1.51-.38c3,1.85,10.53,2.62,10.6,2.63a1.14,1.14,0,0,1,1,1.25A1.12,1.12,0,0,1,58.79,127.76Z"/><path class="cls-9" d="M57.6,125.26c-6.73,0-10.54-5.48-10.7-5.71a1.15,1.15,0,0,1,.26-1.59,1.07,1.07,0,0,1,1.54.27c0,.06,3.4,4.82,9,4.74h0a1.15,1.15,0,0,1,0,2.29Z"/><path class="cls-9" d="M64,123.46a5.44,5.44,0,0,1-6.58,4.13,5.64,5.64,0,0,1-4-6.8A5.44,5.44,0,0,1,60,116.66,5.64,5.64,0,0,1,64,123.46Z"/><path class="cls-10" d="M61.19,118.94c0,.82-1.17,1.44-2.54,1.38s-2.45-.77-2.42-1.59,1.17-1.44,2.54-1.38S61.22,118.12,61.19,118.94Z"/><path class="cls-5" d="M70.54,109.66V107a.63.63,0,0,0-.53-.62c-3-.43-17.79-2.31-25,1.74a.65.65,0,0,0-.23.88l1.36,2.3a.58.58,0,0,0,.7.27c2-.69,10.79-3.26,22.95-1.24A.62.62,0,0,0,70.54,109.66Z"/><path class="cls-5" d="M111.84,109.66V107a.63.63,0,0,1,.53-.62c3-.43,17.79-2.31,25,1.74a.65.65,0,0,1,.22.88l-1.35,2.3a.59.59,0,0,1-.7.27c-2-.69-10.79-3.26-23-1.24A.62.62,0,0,1,111.84,109.66Z"/><path class="cls-9" d="M123.59,127.76a1.12,1.12,0,0,1-1.1-1,1.14,1.14,0,0,1,1-1.25c.07,0,7.64-.78,10.59-2.63a1.08,1.08,0,0,1,1.52.38,1.16,1.16,0,0,1-.37,1.57c-3.39,2.12-11.2,2.92-11.53,3Z"/><path class="cls-9" d="M124.77,125.26h-.16a1.15,1.15,0,0,1,0-2.29h.13c5.57,0,8.87-4.7,8.91-4.75a1.08,1.08,0,0,1,1.54-.27,1.16,1.16,0,0,1,.26,1.59C135.32,119.78,131.51,125.26,124.77,125.26Z"/><path class="cls-9" d="M118.35,123.46a5.44,5.44,0,0,0,6.58,4.13,5.63,5.63,0,0,0,4-6.8,5.42,5.42,0,0,0-6.57-4.13A5.64,5.64,0,0,0,118.35,123.46Z"/><path class="cls-10" d="M121.19,118.94c0,.82,1.17,1.44,2.54,1.38s2.45-.77,2.42-1.59-1.17-1.44-2.54-1.38S121.16,118.12,121.19,118.94Z"/></g></g></svg>