<svg xmlns="http://www.w3.org/2000/svg" viewBox="0 0 195.72 258.99"><defs><style>.cls-1{fill:#49312a;}.cls-2{fill:#5b423c;}.cls-3{fill:#f9dab4;}.cls-4{fill:#2f3233;}.cls-5{fill:#f9f5ed;}.cls-6{fill:#efc19c;}.cls-7{fill:#dd2626;}.cls-8{fill:#e0605c;}.cls-9{fill:#eac9a4;}.cls-10{fill:#c2da52;}.cls-11{fill:#b5c445;}</style></defs><title>资源 123</title><g id="图层_2" data-name="图层 2"><g id="Layer_1" data-name="Layer 1"><path class="cls-1" d="M133.68,201.35c40.44,11.33,55.81-19.68,44.22-31.27,9.29-3,23.19-18.34,7-34.52,7.55-2.69,21-25.88-2.16-40.44,16.18-16.18,4.32-42.07-15.64-42.07,10.79-10.78,0-37.21-24.26-30.2,2.69-14.56-20-32.35-36.68-15.63C71.12-14.89,43.62,19.62,49,33.1,30.67,22.85,14.5,42.81,24.74,59,3.17,67.08-11.39,88.65,11.8,111.84c-12.67,12.67-11,29.93,3.78,44.76-18.88,18.87,1.07,34,25.28,21.61C43.49,202,73.28,203,73.28,203Z"/><path class="cls-2" d="M49,32.92l.06.18c-8.6-4.81-16.72-3-21.87,2,4.6-2.62,15.72-6.94,26.45,4.26Z"/><path class="cls-2" d="M106.21,7.18h0l0,0-.63-.39h0C95,.36,85.13-1,76.68.64c9.35.78,25.57,3.61,31.65,13.72,0,0,1-10.45,11.16-12.1,6.2-1,12.76,1.41,16.41,4C128.36-.41,116.23-2.8,106.21,7.18Z"/><path class="cls-2" d="M185.56,66.59c3.75,7.91,3.23,17.73.94,23.87,10.16-16-1.2-37.29-19.25-37.4l-5.4,2.12S180.81,56.58,185.56,66.59Z"/><path class="cls-3" d="M50.31,88.54v48.37c0,14.68,28.5,29.37,52.69,29.37s46.5-9.36,46.5-29.52v-57S133.38,73.13,136,58.45C126.75,78,120.42,76,105.73,69.67c-13.24,21-34.83,13-39.44,8.36C61.68,89,50.31,88.54,50.31,88.54Z"/><path class="cls-4" d="M119.1,95.78s13.21-12.79,23.25.14c0,0,.43-3.37-4.33-6.6-5.15-3.49-12.63-2.4-16.93,1.86C118.07,94.17,119.1,95.78,119.1,95.78Z"/><path class="cls-4" d="M61.88,95.78S75.09,83,85.13,95.92c0,0,.43-3.37-4.34-6.6-5.14-3.49-12.62-2.4-16.92,1.86C60.85,94.17,61.88,95.78,61.88,95.78Z"/><path class="cls-4" d="M73.88,102.38a7.51,7.51,0,0,0-7.65,7.34,7.15,7.15,0,0,0,.14,1.4,3.7,3.7,0,0,1-.69-.28,3.59,3.59,0,0,1-1.87-2.64.45.45,0,0,0-.53-.34.42.42,0,0,0-.35.5,4.49,4.49,0,0,0,2.32,3.23,5.65,5.65,0,0,0,1.39.49,7.76,7.76,0,0,0,.3.72,5.84,5.84,0,0,1-2,.37,4.41,4.41,0,0,1-1.9-.41,5,5,0,0,1-1.85-1.56.47.47,0,0,0-.63-.09.4.4,0,0,0-.09.59,5.82,5.82,0,0,0,2.18,1.83,5.39,5.39,0,0,0,2.29.5,7.19,7.19,0,0,0,2.47-.47,7.71,7.71,0,0,0,6.51,3.5,7.35,7.35,0,1,0,0-14.68Z"/><path class="cls-5" d="M77.8,106.08a1.83,1.83,0,0,1,.33,2.62,2,2,0,0,1-2.75-.23,1.84,1.84,0,0,1-.32-2.62A2,2,0,0,1,77.8,106.08Z"/><path class="cls-4" d="M130.87,102.38a7.51,7.51,0,0,1,7.65,7.34,6.46,6.46,0,0,1-.15,1.4,3.79,3.79,0,0,0,.7-.28,3.62,3.62,0,0,0,1.87-2.64.44.44,0,0,1,.52-.34.42.42,0,0,1,.35.5,4.45,4.45,0,0,1-2.31,3.23,5.79,5.79,0,0,1-1.39.49,7.8,7.8,0,0,1-.31.72,5.94,5.94,0,0,0,2,.37,4.33,4.33,0,0,0,1.89-.41,5,5,0,0,0,1.86-1.56.45.45,0,0,1,.62-.09.41.41,0,0,1,.1.59,5.82,5.82,0,0,1-2.18,1.83,5.39,5.39,0,0,1-2.29.5,7.25,7.25,0,0,1-2.48-.47,7.68,7.68,0,0,1-6.5,3.5,7.35,7.35,0,1,1,0-14.68Z"/><path class="cls-5" d="M135.21,106.08a1.84,1.84,0,0,1,.32,2.62,2,2,0,0,1-2.74-.23,1.84,1.84,0,0,1-.33-2.62A2,2,0,0,1,135.21,106.08Z"/><path class="cls-6" d="M106.29,122.08a1,1,0,0,1,.77,1.19h0a9.57,9.57,0,0,1-1.31,2.82h0a5.9,5.9,0,0,1-5.34,2.74h0l-.16,0h0a7.3,7.3,0,0,1-5.15-2.61h0a7.12,7.12,0,0,1-1.3-2.3h0a1,1,0,0,1,.72-1.22h0a1,1,0,0,1,1.26.69h0l0,.1h0c0,.08.08.2.15.35h0a5.69,5.69,0,0,0,.74,1.15h0a5.22,5.22,0,0,0,3.74,1.88h.1a3.64,3.64,0,0,0,3.18-1.47h0A7.27,7.27,0,0,0,105,123h0a.63.63,0,0,0,0-.17h0a1,1,0,0,1,1.07-.75h0l.17,0Z"/><path class="cls-7" d="M111.32,140.48a4.64,4.64,0,0,0-1.69-.76c-2.62-.83-3.29-3.21-5.13-2.64s-3.19,3.46-4.9,2-2.51-2.43-4.73-.62c-1.84,1.51-4.74.91-5.24,1.71a.62.62,0,0,0,0,.51c0,.05,0,.1,0,.17a40.53,40.53,0,0,0,21.6,0l.09-.05C111.42,140.76,111.49,140.65,111.32,140.48Z"/><path class="cls-8" d="M100.77,146a10.59,10.59,0,0,1,8.33,3.6,14.47,14.47,0,0,0,2.27-7.88c0-.29,0-.58,0-.87l-.09.05a40.53,40.53,0,0,1-21.6,0c0-.07,0-.12,0-.17,0,.33,0,.66,0,1A14.46,14.46,0,0,0,92.11,150C93.71,147.62,97,146,100.77,146Z"/><path class="cls-7" d="M100.46,154.64a10.38,10.38,0,0,0,8.64-5.07,10.59,10.59,0,0,0-8.33-3.6c-3.78,0-7.06,1.65-8.66,4.05A10.32,10.32,0,0,0,100.46,154.64Z"/><path class="cls-9" d="M136,58.45C126.75,78,120.42,76,105.73,69.67c-13.24,21-34.83,13-39.44,8.36-4.61,10.94-16,10.51-16,10.51v.55c4.21.71,12.9.85,16.52-8.87,9.18,4.86,26.45,11.55,39.84-8.53,17.71,8.42,23.11,3,28.07-8,1.13,8,5,14.67,14.76,17.85v-1.8S133.38,73.13,136,58.45Z"/><path class="cls-10" d="M160.5,184.47c-7.59-11.93-14.32-13.93-19.42-15,0,0-6.1,22.73,3.5,30.51,3.19,3,7.09,15.18,7.55,30,.19,6.17-.81,20.86-1.42,29h20c.63-9,1.92-29.74,1.09-36.38C170.47,211.9,169.87,199.18,160.5,184.47Z"/><path class="cls-11" d="M149.71,177.84c2.36.09,5.47,1.54,8.66,3.5-6.73-9.17-12.67-10.9-17.29-11.88,0,0-6,22.18,3.16,30.22a13.78,13.78,0,0,1-.64-3.31C143.52,193.29,141.67,177.54,149.71,177.84Z"/><path class="cls-10" d="M42.7,184.47c7.6-11.93,14.33-13.93,19.43-15,0,0,6.1,22.73-3.5,30.51-3.19,3-7.09,15.18-7.55,30-.2,6.17.81,20.86,1.42,29h-20c-.63-9-1.93-29.74-1.09-36.38C32.74,211.9,33.34,199.18,42.7,184.47Z"/><path class="cls-11" d="M53.49,177.84c-2.35.09-5.46,1.54-8.65,3.5,6.72-9.17,12.67-10.9,17.29-11.88,0,0,5.95,22.18-3.16,30.22a14.58,14.58,0,0,0,.63-3.31C59.68,193.29,61.54,177.54,53.49,177.84Z"/><path class="cls-10" d="M53.86,259h93.73l-6.51-89.53s-5.6-1.25-16.8-1.25c3.39-.75,5.94-4.49,3.3-7.45-3.31-3.72-7.51-.39-11,.77a41.81,41.81,0,0,1-7.09,1.69c-6.94,1.05-14.36,1.17-21.21-.66a44.69,44.69,0,0,1-8.67-2.85,15.5,15.5,0,0,0-4.89-1.94,3.57,3.57,0,0,0-2.84.83c-1.41,1.21-1.44,3.38-.85,5a26.2,26.2,0,0,0,3.3,5.39c.59.7.55.48-12.22.48C61.07,173.47,54.74,247.69,53.86,259Z"/><path class="cls-11" d="M91.47,173.35a52.2,52.2,0,0,0,30.52-4.8c-15.28,7.64-40,2.56-47.45.71-.08.2-1.3.22-1.3.22C76.07,171.05,82.62,172.08,91.47,173.35Z"/><path class="cls-11" d="M71.47,164.48c0-1.85.45-5.39,3.41-4.72,4,.9,10.93,6.73,25,5.62,12.44-1,21.18-4.12,24.52-6.31-2.59-.22-5.37,1.65-7.79,2.46a41.81,41.81,0,0,1-7.09,1.69c-6.94,1.05-14.36,1.17-21.21-.66a44.69,44.69,0,0,1-8.67-2.85,15.5,15.5,0,0,0-4.89-1.94,3.57,3.57,0,0,0-2.84.83c-1.41,1.21-1.44,3.38-.85,5A8.59,8.59,0,0,0,71.47,164.48Z"/></g></g></svg>