<svg xmlns="http://www.w3.org/2000/svg" viewBox="0 0 152.86 260"><defs><style>.cls-1{fill:#d19865;}.cls-2{fill:#c65044;}.cls-3{fill:#c18757;}.cls-4{fill:#6d4c3a;}.cls-5{fill:#563a28;}.cls-6{fill:#3f3e3d;}.cls-7{fill:#f4d3b0;}.cls-8{fill:#f9dab4;}.cls-9{fill:#302f2d;}.cls-10{fill:#3a332d;}.cls-11{fill:#e8dfd9;}.cls-12{fill:#efc4a0;}</style></defs><title>资源 68</title><g id="图层_2" data-name="图层 2"><g id="Layer_1" data-name="Layer 1"><rect class="cls-1" x="42.59" y="153.7" width="66.84" height="106.31"/><rect class="cls-2" x="70.85" y="165.53" width="9.95" height="11.64" rx="2.25"/><polygon class="cls-2" points="72.81 176.05 61.86 247.68 76.19 258.04 90.03 247.26 78.6 176.05 72.81 176.05"/><polygon class="cls-3" points="48.8 162.76 51.69 186.87 75.85 171.35 100.33 186.87 101.74 162.66 48.8 162.76"/><path class="cls-4" d="M.93,232.31C1.6,239.1,18.64,252.44,29.06,260H56.53l1.8-102.41s-29.15.27-33.7,5.06S0,222.49.93,232.31Z"/><polygon class="cls-5" points="33.38 177.73 29.86 260 36.77 260 33.38 177.73"/><path class="cls-4" d="M94.19,157.59,96,260h27.46c10.42-7.56,27.47-20.9,28.13-27.69,1-9.82-19.15-64.87-23.7-69.66S94.19,157.59,94.19,157.59Z"/><polygon class="cls-5" points="119.14 177.73 115.75 260 122.67 260 119.14 177.73"/><polygon class="cls-5" points="58.3 159.61 38.89 176.05 50.72 186.87 44.08 201.43 57.1 227.32 58.3 159.61"/><polygon class="cls-5" points="94.23 159.51 113.66 176.05 101.83 186.87 108.47 201.43 95.42 227.32 94.23 159.51"/><path class="cls-6" d="M2.33,98.09S-11.58,0,75.48,0s75,98.09,75,98.09Z"/><path class="cls-7" d="M17.72,96.71A10.22,10.22,0,0,0,5.4,91.79c-8.76,2.46-8.76,35,14.51,39.42Z"/><path class="cls-7" d="M135.14,96.71a10.22,10.22,0,0,1,12.32-4.92c8.76,2.46,8.76,35-14.51,39.42Z"/><path class="cls-8" d="M101.39,162.52,80.2,166.24a27,27,0,0,1-9.44,0l-20-3.6a45.16,45.16,0,0,1-37.17-44.44l5.56-63.64h114L138.73,118A45.17,45.17,0,0,1,101.39,162.52Z"/><path class="cls-9" d="M18.11,19.27S1.52,18.37,1.7,42.36,16.12,68.34,24.06,71a81.91,81.91,0,0,1,18.05,8.25s-2.25-6-4.6-8.7c0,0,43.55,7.66,52.93,15.24,0,0-3.61-8.3-8.66-13.17,0,0,17.85,4.69,23.63,9.92,0,0-.91-6.13-3.25-9.74,0,0,24.71,8.12,28.86,13,0,0,.9-8.84-2.71-12.63,0,0,15.09,10.82,17.37,16.23,0,0,18.08-76.67-69.48-88.24C35.77-4.15,18.11,19.27,18.11,19.27Z"/><circle class="cls-10" cx="40.39" cy="110.97" r="7.73"/><path class="cls-11" d="M42.73,105.9c.22,1.1-1.14,2.31-3,2.7s-3.63-.2-3.86-1.31,1.15-2.31,3-2.7S42.51,104.79,42.73,105.9Z"/><polygon class="cls-10" points="57.09 93.64 25.27 91.51 29.89 83.51 55.85 87.42 57.09 93.64"/><circle class="cls-10" cx="113.17" cy="110.97" r="7.73"/><path class="cls-11" d="M115.52,105.9c.22,1.1-1.15,2.31-3.06,2.7s-3.63-.2-3.85-1.31,1.14-2.31,3-2.7S115.29,104.79,115.52,105.9Z"/><polygon class="cls-10" points="96.47 93.64 128.29 91.51 123.67 83.51 97.72 87.42 96.47 93.64"/><path class="cls-12" d="M61,130.27s11.71,6.58,14.94,6.58,17.15-6.58,17.15-6.58-13.39,3.29-17.33,3.29S61,130.27,61,130.27Z"/><path class="cls-12" d="M73.1,152A51.15,51.15,0,0,1,63,151.21a1.26,1.26,0,0,1,.55-2.45h0c.11,0,11.09,2.36,35.48-1.83a1.24,1.24,0,0,1,1.44,1,1.26,1.26,0,0,1-1,1.45A157.52,157.52,0,0,1,73.1,152Z"/><path class="cls-12" d="M106.09,150.68a1.22,1.22,0,0,1-.41-.07,1.26,1.26,0,0,1-.77-1.6,4.3,4.3,0,0,0-1.68-5.25,1.25,1.25,0,0,1,1.29-2.14,6.83,6.83,0,0,1,2.76,8.22A1.26,1.26,0,0,1,106.09,150.68Z"/></g></g></svg>