<svg xmlns="http://www.w3.org/2000/svg" viewBox="0 0 160.41 260"><defs><style>.cls-1{fill:#ffbc36;}.cls-2{fill:#e59d29;}.cls-3{fill:#c2da52;}.cls-4{fill:#b5c445;}.cls-5{fill:#e8e074;}.cls-6{fill:#89a560;}.cls-7{opacity:0.28;}.cls-8{fill:#949632;}.cls-9{fill:#abba3e;}.cls-10{fill:#6b4627;}.cls-11{fill:#f9dab4;}.cls-12{fill:#efceab;}.cls-13{fill:#47413e;}.cls-14{fill:#f9f7f2;}.cls-15{fill:#e5be9e;}.cls-16{fill:#f7cea6;}.cls-17{fill:#e2b79a;}</style></defs><title>资源 136</title><g id="图层_2" data-name="图层 2"><g id="Layer_1" data-name="Layer 1"><path class="cls-1" d="M136.39,184.73c-5.16-17.79-20.78-16.39-20.78-16.39s2.53,50.51,3.16,91.66h33.36C147.46,235.55,139.84,196.63,136.39,184.73Z"/><path class="cls-2" d="M115.61,168.34s-5.41,50.52-6.55,91.66h22.28c-.34-13.3-.69-31.14-1.44-45.44-1-19.09,3.42-28.6,5.7-32.17C129.81,167.08,115.61,168.34,115.61,168.34Z"/><path class="cls-1" d="M22.24,184.73C18.55,197.45,10.59,238,6.34,260H40.12c.59-41.17,2.89-91.66,2.89-91.66S27.39,166.94,22.24,184.73Z"/><path class="cls-2" d="M26.79,260h22.7C48.22,218.85,43,168.34,43,168.34s-14.2-1.26-20,14c2.28,3.57,6.69,13.08,5.7,32.17C28,228.57,27.33,246.47,26.79,260Z"/><path class="cls-3" d="M33.43,260h92.41c-1.62-24.94-5.5-80.71-8.61-91.66-24.78-1.36-70.73-.94-77.7.18C37.46,173.43,34.59,233.75,33.43,260Z"/><path class="cls-4" d="M54,170.34s38.15,17.51,51.85,0C105.81,157.8,54,170.34,54,170.34Z"/><path class="cls-5" d="M54,171.29c4.48.88,9,1.54,13.56,2A146,146,0,0,0,94,174a33.22,33.22,0,0,0,7.09-.94,14.35,14.35,0,0,0,3.51-1.56c1.68-1.06,1.38-2.11,1.43-4,.28-10.58,1.44-18.93-1.95-18.93-3.78,0-35,4.74-42.58,2.37s-7.58.47-7.58,6.63S51.6,170.83,54,171.29Z"/><path class="cls-6" d="M59.17,150.94a3,3,0,0,0-.41-.69c-4.78-.79-4.8,2-4.8,7.32,0,6.15-2.36,13.26,0,13.72,0,0,1.87.36,4.91.84C59.49,164.4,59.17,150.94,59.17,150.94Z"/><path class="cls-6" d="M68.32,173.41c2.51.27,5.23.53,8,.71l.48-21-8.52-.63Z"/><path class="cls-6" d="M92.29,151.26l-6.62,1.26s-1.6,14.22-1.09,21.92c3,0,6-.08,8.86-.34Z"/><path class="cls-6" d="M98.56,152.12a48.92,48.92,0,0,1,1.18,10.65,102.81,102.81,0,0,0,.6,10.5c.27-.07.53-.13.79-.21a14.35,14.35,0,0,0,3.51-1.56c1.68-1.06,1.38-2.11,1.43-4,.21-8,.92-14.64-.18-17.48C103.32,149.35,100,149.15,98.56,152.12Z"/><g class="cls-7"><path class="cls-8" d="M53.51,163.24c-.55,4.19-1.19,7.73.45,8,4.48.88,9,1.54,13.56,2A146,146,0,0,0,94,174a33.22,33.22,0,0,0,7.09-.94,14.35,14.35,0,0,0,3.51-1.56c1.68-1.06,1.38-2.11,1.43-4,.1-4,.33-7.63.4-10.65C96.13,168.51,62.54,164.55,53.51,163.24Z"/></g><polygon class="cls-9" points="50.59 224.76 47.16 230.69 40.3 230.69 36.88 224.75 40.31 218.81 47.17 218.82 50.59 224.76"/><polygon class="cls-9" points="68.14 224.76 64.7 230.69 57.85 230.69 54.43 224.75 57.86 218.81 64.72 218.82 68.14 224.76"/><polygon class="cls-9" points="85.69 224.76 82.25 230.69 75.4 230.69 71.97 224.75 75.41 218.81 82.27 218.82 85.69 224.76"/><polygon class="cls-9" points="103.24 224.76 99.8 230.69 92.95 230.69 89.53 224.75 92.96 218.81 99.82 218.82 103.24 224.76"/><polygon class="cls-9" points="120.27 224.76 116.83 230.69 109.97 230.69 106.55 224.75 109.99 218.81 116.84 218.82 120.27 224.76"/><ellipse class="cls-10" cx="80.2" cy="79.63" rx="80.2" ry="79.63"/><path class="cls-11" d="M139.21,76.19v30.09c-6.35,53.82-26.56,59.32-65.09,60.77-34.47,1.26-49.79-30.67-49.79-46.88V77.06s37.54-4.47,57.51-13.39C81.84,63.67,118,76.19,139.21,76.19Z"/><path class="cls-12" d="M84.8,122.13a3.44,3.44,0,0,1,.89,2.23c0,2.64-3.43,4.78-7.65,4.78s-7.65-2.14-7.65-4.78a3.39,3.39,0,0,1,.89-2.23A4.83,4.83,0,0,0,68.87,126c0,3.17,4.11,5.73,9.17,5.73s9.16-2.56,9.16-5.73A4.82,4.82,0,0,0,84.8,122.13Z"/><path class="cls-10" d="M56.92,89.36s-3.53-6.46-9.77-5.84-9,8.83-9,8.83a12.73,12.73,0,0,0-.34,6.08S46.1,88.44,56.92,89.36Z"/><path class="cls-13" d="M59.55,107.52a8.44,8.44,0,1,1-8-8.91A8.43,8.43,0,0,1,59.55,107.52Z"/><path class="cls-14" d="M56.3,104.92c-.65,1.57-3,2.1-5.15,1.19s-3.45-2.92-2.8-4.49,2.95-2.1,5.15-1.19S56.94,103.35,56.3,104.92Z"/><path class="cls-10" d="M103.18,89.36s3.53-6.46,9.77-5.84,9,8.83,9,8.83a12.73,12.73,0,0,1,.34,6.08S114,88.44,103.18,89.36Z"/><path class="cls-13" d="M100.54,107.52a8.44,8.44,0,1,0,8-8.91A8.44,8.44,0,0,0,100.54,107.52Z"/><path class="cls-14" d="M103.8,104.92c.65,1.57,3,2.1,5.15,1.19s3.45-2.92,2.8-4.49-3-2.1-5.15-1.19S103.15,103.35,103.8,104.92Z"/><path class="cls-11" d="M28.36,113.1s-10.2-11.61-19.38,0,3.07,33.44,19.38,21.18Z"/><path class="cls-15" d="M22.3,129.18s.88-13.53-4.28-13.53S11.17,129.18,22.3,129.18Z"/><path class="cls-16" d="M18,115.65a3.85,3.85,0,0,0-3.33,2.63c2.39,2.62,6,6.94,7.62,10.65C22.4,127.11,22.77,115.65,18,115.65Z"/><path class="cls-11" d="M133.27,111.47s11-10.87,19.33,1.35S147.21,146,131.79,132.6Z"/><path class="cls-15" d="M138.19,127.93s.07-13.56,5.22-13.2S149.3,128.71,138.19,127.93Z"/><path class="cls-16" d="M143.41,114.73c1.45.1,2.55,1.27,3.14,2.86-2.58,2.45-6.5,6.51-8.35,10.09C138.24,125.86,138.67,114.4,143.41,114.73Z"/><path class="cls-17" d="M81.15,155.86c-13.05.22-23.09-8.06-23.15-8.1h0a1.13,1.13,0,0,1-.24-1.24h0c.18-.43.58-.57.89-.31h0s.59.49,1.71,1.24h0a40.72,40.72,0,0,0,4.76,2.75h0a35.11,35.11,0,0,0,16,3.85h0c6.32-.12,13.33-2.29,20.21-8.59h0c.3-.27.7-.15.9.27h0A1.11,1.11,0,0,1,102,147h0c-7.09,6.5-14.37,8.76-20.89,8.88Z"/><path class="cls-16" d="M24.33,77.06v4.75c9.23-.57,42.92-3.31,57.51-13.89,31.75,11.82,50.87,14,57.37,14.36V76.19c-21.2,0-57.37-12.52-57.37-12.52C61.87,72.59,24.33,77.06,24.33,77.06Z"/></g></g></svg>