<?xml version="1.0" standalone="no"?><!DOCTYPE svg PUBLIC "-//W3C//DTD SVG 1.1//EN" "http://www.w3.org/Graphics/SVG/1.1/DTD/svg11.dtd"><svg t="1548749000874" class="icon" style="" viewBox="0 0 1024 1024" version="1.1" xmlns="http://www.w3.org/2000/svg" p-id="7636" xmlns:xlink="http://www.w3.org/1999/xlink" width="200" height="200"><defs><style type="text/css"></style></defs><path d="M807.062 602.113h82.166v-77.938h-82.166v77.938zM279.073 360.507H153.136v288.639h57.584V544.888h66.041c32.501 0 56.438-12.058 71.811-36.156 10.75-16.859 16.125-35.475 16.125-55.828 0-28.649-7.633-51.206-22.844-67.689-15.247-16.467-36.173-24.708-62.78-24.708z m22.664 116.835c-6.665 11.753-19.206 17.611-37.643 17.611H210.72v-84.53h45.688c17.917 0 30.853 3.081 38.79 9.227 7.937 6.146 11.914 16.305 11.914 30.44 0 11.754-1.809 20.838-5.375 27.252z m111.73-116.835v288.639h57.584V551.32l26.875-28.989 85.248 126.815h74.104l-119.04-170.443 112.518-118.196h-56.873C549.801 249.126 445.156 170.75 322.987 170.75c-161.986 0-293.279 137.637-293.279 307.451 0 169.779 131.293 307.451 293.279 307.451 97.592 0 184.005-50.059 237.325-126.939-50.974 69.212-130.847 113.86-220.699 113.86-153.922 0-278.712-130.828-278.712-292.204 0-161.358 124.79-292.168 278.712-292.168 113.158 0 210.51 70.74 254.165 172.306h-17.521L471.051 477.664V360.507h-57.584z m365.179-80.483c-59.806 0-113.86 25.603-152.919 66.848h57.871L565.006 475.801c-0.627 4.819-1.146 9.657-1.469 14.548l123.536 176.193-61.007-0.788c39.041 40.993 92.952 66.417 152.579 66.417 119.11 0 215.646-101.211 215.646-226.073 0-124.862-96.535-226.074-215.645-226.074z m-51.153 333.019c-2.598 16.412-12.613 28.255-30.011 35.564 1.738-10.051-10.857-20.049-37.804-30.082v-6.844c19.099 3.637 31.945 5.482 38.467 5.482s9.782-5.913 9.782-17.792V500.92c-25.227 19.153-39.13 31.014-41.728 35.564l-18.275-21.876c11.288-4.551 31.318-15.48 60.003-32.823v-69.732h-36.532l-11.717 2.724-10.445-10.93h58.694c0-27.341-0.447-52.854-1.308-76.576l29.993 15.051-9.12 9.567v51.958h14.352l14.333-15.05 22.182 23.256h-50.866v60.164l39.13-24.617 2.599 5.465-41.729 32.823v127.155z m181.3 19.153l-19.565 6.826v-28.703h-82.166v23.238l-19.565 9.585c0.86-16.411 1.29-38.288 1.29-65.646 0-27.341-0.43-51.959-1.29-73.835l19.565 12.309h79.551l9.137-12.309 20.855 16.412-9.138 8.205v64.268c0 14.584 0.429 27.807 1.326 39.65zM790.095 464.012h86.09l13.043-13.671 20.855 21.876h-76.935c-11.323 0-21.751 1.362-31.318 4.104l-11.735-12.309z m139.552 12.308c-33.898-25.514-60.862-66.095-80.857-121.709-29.581 66.579-62.619 113.055-99.134 139.482l-2.598-4.104c19.995-20.03 37.607-44.881 52.818-74.516 15.211-29.616 26.75-59.483 34.562-89.565l29.992 19.135-10.428 5.482c16.52 35.547 33.684 61.078 51.529 76.559 17.809 15.516 34.562 24.617 50.202 27.359v5.464c-15.639 2.742-24.347 8.207-26.086 16.413z" fill="" p-id="7637"></path></svg>