<svg xmlns="http://www.w3.org/2000/svg" viewBox="0 0 167.07 260.01"><defs><style>.cls-1{fill:#4793a0;}.cls-2{fill:#3a8189;}.cls-3{fill:#f9dab4;}.cls-4{fill:#2f3233;}.cls-5{fill:#f7cea6;}.cls-6{fill:#f9f7f2;}.cls-7{fill:#e5be9e;}.cls-8{fill:#44302c;}.cls-9{fill:#f9f5ed;}.cls-10{fill:#e0605c;}.cls-11{fill:#ad3936;}</style></defs><title>资源 113</title><g id="图层_2" data-name="图层 2"><g id="Layer_1" data-name="Layer 1"><path class="cls-1" d="M10.26,194.54c6.34-43.3,24.92-40,24.92-40,3.7,4.37.06,66.91-2.56,105.45H0C3,242,6.92,217.42,10.26,194.54Z"/><path class="cls-2" d="M35.18,154.56c3.7,4.37.06,66.91-2.56,105.45H18.56c2-21.88,4.52-49.28,5.6-62.38,1.49-18.16-4.53-25.12-7.43-27.39C24.64,152.68,35.18,154.56,35.18,154.56Z"/><path class="cls-1" d="M153.3,194.54c-6.34-43.3-24.92-40-24.92-40-3.7,4.37-.06,66.91,2.56,105.45h32.62C160.58,242,156.64,217.42,153.3,194.54Z"/><path class="cls-2" d="M128.38,154.56c-3.7,4.37-.06,66.91,2.56,105.45H145c-2-21.88-4.52-49.28-5.6-62.38-1.49-18.16,4.53-25.12,7.43-27.39C138.92,152.68,128.38,154.56,128.38,154.56Z"/><path class="cls-1" d="M35.18,154.56,26,260H137.39c-1.47-22.33-5.95-89.11-8.13-105.5Z"/><rect class="cls-3" x="70.74" y="143.23" width="24.01" height="14.31"/><path class="cls-3" d="M100.13,154.51H66.3c2.61,5.08,9.27,9,16.91,9S97.56,159.66,100.13,154.51Z"/><path class="cls-4" d="M162.05,44.82c-.1,6.45-.31,12.91-.86,19.4Q159.87,79.85,159,95.51H19.17c-8.22,0-9.35-24.68-9.6-30.36,0,0-5.76-41.48-5.76-47.49s0-12,18-15.23S86.44.12,104.91.12c15,0,27.73.22,42.77.27,11,0,15.54,4.86,15,14.57C162.15,24.94,162.22,34.88,162.05,44.82Z"/><path class="cls-3" d="M145.18,149.53a1,1,0,0,1-.21.21c-1.89,1.54-7.47.33-9.69.33H45.86c-7.21,0-14.8.78-22-.07-.92-.11-1.34-39.38-1.47-43.1L20.83,57.65c-.06-1.87-.11-3.73-.16-5.6-.14-4.73,3.45-4.67,6.52-5,3.35-.31,65-.11,76.69,0,9.91.11,19.84.18,29.75.09,2.92,0,5.85-.11,8.77-.13,1.54,0,3.22-.4,4.5,1,1.68,1.78,1.24,6,1.12,8.22-.41,7.66-.31,15.4-.52,23.08-.5,17.94-.38,36-1.37,53.89-.21,3.87.37,7.72,0,11.59C145.92,146.26,146.12,148.46,145.18,149.53Z"/><path class="cls-5" d="M81.09,82.12c-1.76,4-2.48,8.22-3.74,12.33s-4.78,8.78-3.17,13.34c1.45,4.1,5.77,5.63,9.83,5.85C95,114.25,100,109.8,97,99,95.61,94.23,87.89,66.75,81.09,82.12Z"/><path class="cls-3" d="M82.13,80.81c-1.49,3.56-2.12,7.38-3.2,11.07s-4,7.91-2.73,12c1.16,3.66,4.7,5,8,5.15,9.06.45,13.22-3.58,10.79-13.26C94,91.53,87.87,67,82.13,80.81Z"/><path class="cls-6" d="M83.68,108c.11.57,1.33.81,2.72.54s2.42-1,2.3-1.52-1.34-.81-2.72-.54S83.56,107.43,83.68,108Z"/><path class="cls-3" d="M25.63,84.13s-10.52-10.58-20,0,3.17,30.45,20,19.29Z"/><path class="cls-7" d="M19.38,98.77s.9-12.32-4.42-12.32S7.89,98.77,19.38,98.77Z"/><path class="cls-5" d="M15,86.45a4,4,0,0,0-3.44,2.4c2.47,2.38,6.23,6.32,7.87,9.69C19.48,96.88,19.86,86.45,15,86.45Z"/><path class="cls-3" d="M143.83,84.13s10.52-10.58,20,0-3.18,30.45-20,19.29Z"/><path class="cls-7" d="M150.08,98.77s-.9-12.32,4.42-12.32S161.56,98.77,150.08,98.77Z"/><path class="cls-5" d="M154.5,86.45a3.93,3.93,0,0,1,3.43,2.4c-2.47,2.38-6.22,6.32-7.86,9.69C150,96.88,149.6,86.45,154.5,86.45Z"/><path class="cls-5" d="M146.13,133.22c.52-9.32.73-18.67.89-28-4.26,4.76-.89,32.06-6,37.74s-77.49,2.32-97.86,3.2c-17.88.77-20.44-32.76-20.8-40.94,0,.57,0,1.13.05,1.7.13,3.72.55,43,1.47,43.1,7.17.85,14.76.07,22,.07h89.42c2.22,0,7.8,1.21,9.69-.33a1,1,0,0,0,.21-.21c.94-1.07.74-3.27.9-4.72C146.5,140.94,145.92,137.09,146.13,133.22Z"/><path class="cls-8" d="M59.8,74.6s-1.75-9.8-9.24-11.54-13.7,7.75-13.7,7.75a18.64,18.64,0,0,0-2.61,7.74S47.55,69,59.8,74.6Z"/><path class="cls-8" d="M108.09,75.78s1.75-9.81,9.24-11.55S131,72,131,72a18.44,18.44,0,0,1,2.6,7.74S120.33,70.18,108.09,75.78Z"/><path class="cls-4" d="M57.46,94.24l-.22.29a10.07,10.07,0,0,1-6.43,3.53c-4.35.82-10.71.64-13.55-5.19-2.63-5.38,2.79-6.19,5.28-4.71,2.33,1.37,5.19,3,7.73,2,2-.77,4.4-4.29,6.63-2.92S58.88,92.16,57.46,94.24Z"/><path class="cls-9" d="M41.65,89.91a2,2,0,0,1-1.27,2.24c-1,.51-2.05.33-2.34-.41S38.3,90,39.3,89.5,41.35,89.18,41.65,89.91Z"/><path class="cls-4" d="M130,94.24l-.22.29a10,10,0,0,1-6.43,3.53c-4.35.82-10.71.64-13.55-5.19-2.63-5.38,2.79-6.19,5.28-4.71,2.33,1.37,5.19,3,7.73,2,2-.77,4.4-4.29,6.63-2.92S131.38,92.16,130,94.24Z"/><path class="cls-9" d="M114.15,89.91c.3.73-.27,1.73-1.27,2.24s-2,.33-2.35-.41a2,2,0,0,1,1.27-2.24C112.8,89,113.85,89.18,114.15,89.91Z"/><path class="cls-10" d="M71.65,122.09h28.43s1.56,18.78-13.43,20.38C74.77,143.39,71.81,129.42,71.65,122.09Z"/><path class="cls-11" d="M86.65,142.47a13.2,13.2,0,0,0,10.12-6c-2.57-4.77-6.54-7.84-11-7.84-4.29,0-8.12,2.83-10.69,7.28C77.34,140,81,142.91,86.65,142.47Z"/></g></g></svg>