<svg xmlns="http://www.w3.org/2000/svg" viewBox="0 0 183.19 260.03"><defs><style>.cls-1{fill:#c65044;}.cls-2{fill:#cc7d2e;}.cls-3{fill:#4c3626;}.cls-4{fill:#f9dab4;}.cls-5{fill:#efc4a0;}.cls-6{fill:#2d2723;}.cls-7{fill:#3a332d;}.cls-8{fill:#492020;}</style></defs><title>资源 155</title><g id="图层_2" data-name="图层 2"><g id="Layer_1" data-name="Layer 1"><rect class="cls-1" x="88.06" y="165.42" width="24.2" height="94.61"/><polygon class="cls-2" points="144.77 154.5 129.08 152.35 100.47 152.35 96.78 152.35 68.16 152.35 52.47 154.5 75.85 173.27 96.78 174.84 96.78 175.11 98.62 174.98 100.47 175.11 100.47 174.84 121.39 173.27 144.77 154.5"/><path class="cls-3" d="M81.06,165.42c-9.23-.46-13.23.77-17.85,5.39s-10.15,31.07-16.3,52.61c-4.53,15.84-7.06,27.19-13.84,36.61H94.52c7.46-28.42,2.84-89.22,2.84-89.22A34.5,34.5,0,0,0,81.06,165.42Z"/><path class="cls-3" d="M152.67,223.42c-6.15-21.54-11.69-48-16.31-52.61s-8.61-5.85-17.84-5.39a34.56,34.56,0,0,0-16.31,5.39s-4.61,60.8,2.85,89.22h61.45C159.73,250.61,157.2,239.26,152.67,223.42Z"/><path class="cls-4" d="M162.45,61.59H35.69s-.41,50,10.67,73c9.77,20.28,27.23,29,48.4,30.82h8.62c21.17-1.78,38.62-10.54,48.4-30.82C162.85,111.63,162.45,61.59,162.45,61.59Z"/><path class="cls-5" d="M89.22,123s2.17,7,9.17,7.4,10-8.52,10-8.52-4.4,6.66-10,6A15.51,15.51,0,0,1,89.22,123Z"/><path class="cls-6" d="M76.9,96.24c2.54.49,3.75,5.68,3.75,5.68l-25.89,4.86S54.12,102,55.9,100,74.36,95.75,76.9,96.24Z"/><path class="cls-6" d="M121,95.92c-2.55.41-3.93,5.55-3.93,5.55l25.72,5.71s.79-4.73-.92-6.8S123.51,95.51,121,95.92Z"/><path class="cls-7" d="M61.57,119.45a1.53,1.53,0,0,1-1.51-1.38,8.18,8.18,0,0,1,6.16-8.47c5.31-1.56,9.24,2.57,10.58,5a1.52,1.52,0,0,1-2.66,1.48c-.1-.19-2.76-4.79-7.07-3.53a5.11,5.11,0,0,0-4,5.26,1.52,1.52,0,0,1-1.37,1.66Z"/><path class="cls-7" d="M136.13,119.45H136a1.51,1.51,0,0,1-1.37-1.65,5.1,5.1,0,0,0-4-5.27c-4.3-1.26-7,3.34-7.07,3.53a1.52,1.52,0,0,1-2.65-1.48c1.33-2.4,5.26-6.53,10.58-5a8.18,8.18,0,0,1,6.15,8.47A1.52,1.52,0,0,1,136.13,119.45Z"/><path class="cls-3" d="M35.69,116.88s5.77-15.33,4-24.53c0,0,29.84-3.69,50.46-18.15,0,0-6.77,10.15-16.62,12.92,0,0,32.62-1.23,54.46-21.23a47.23,47.23,0,0,1-14.15,16.92,47.93,47.93,0,0,0,24.92-12L128.3,84.66s13.23-.31,24.3-7.69L139.68,89s11.92.69,20-6c0,0-1.81,14,5.27,23.49,0,0,13.23-49.84-19.69-60.3S31.69,31.42,26.15,68.34,35.69,116.88,35.69,116.88Z"/><path class="cls-3" d="M13.13,82.34c0,2.47-2.94,4.48-6.56,4.48S0,84.81,0,82.34s2.94-4.48,6.57-4.48S13.13,79.87,13.13,82.34Z"/><path class="cls-2" d="M27.86,99.74S19.37,51.13,95.25,51.13h3.13c75.89,0,67.4,48.61,67.4,48.61S199,14.55,111.37,1.28C16.61-13.07-13.54,97.89,19.08,86.2,19.08,86.2,22,101.58,27.86,99.74Z"/><path class="cls-3" d="M52.6,147.49,35.71,90.87s-28.55,5.81-19.37,36.6C24.78,155.78,52.6,147.49,52.6,147.49Z"/><path class="cls-2" d="M28.61,97.3c.28,2.47,2.7,4.21,5.87,4.55a5.63,5.63,0,0,0-2.2,4.7c.24,2.15,2.11,3.73,4.68,4.34a5.59,5.59,0,0,0-2.22,4.71c.23,2.08,2,3.63,4.42,4.29-1.8,1.37-2.88,3.22-2.67,5.08.24,2.21,2.24,3.83,4.93,4.39A5.63,5.63,0,0,0,39.25,134c.29,2.57,2.91,4.34,6.27,4.58-2,1.4-3.2,3.36-3,5.32.26,2.29,2.36,3.94,5.18,4.45a30.93,30.93,0,0,0,4.88-.9L35.71,90.87a28.16,28.16,0,0,0-4.66,1.53A5.75,5.75,0,0,0,28.61,97.3Z"/><path class="cls-3" d="M145.11,144.63,162,88s28.56,5.81,19.38,36.6C172.93,152.92,145.11,144.63,145.11,144.63Z"/><path class="cls-2" d="M169.09,94.43c-.27,2.47-2.69,4.21-5.87,4.56a5.58,5.58,0,0,1,2.2,4.7c-.24,2.15-2.11,3.73-4.67,4.34a5.6,5.6,0,0,1,2.21,4.71c-.23,2.08-2,3.63-4.42,4.29,1.81,1.37,2.88,3.22,2.68,5.07-.25,2.22-2.24,3.84-4.94,4.4a5.58,5.58,0,0,1,2.17,4.68c-.28,2.57-2.9,4.34-6.26,4.58,2,1.4,3.19,3.35,3,5.32-.25,2.28-2.36,3.93-5.18,4.45a32.08,32.08,0,0,1-4.87-.9L162,88a28.16,28.16,0,0,1,4.66,1.53A5.72,5.72,0,0,1,169.09,94.43Z"/><path class="cls-8" d="M77.93,140.22h41.71s.71,16.06-20.86,16.33S77.93,140.22,77.93,140.22Z"/><path class="cls-1" d="M86.91,154.34a26.7,26.7,0,0,0,11.87,2.21,27.84,27.84,0,0,0,11.85-2.42,12,12,0,0,0-23.72.21Z"/></g></g></svg>