<?xml version="1.0" standalone="no"?><!DOCTYPE svg PUBLIC "-//W3C//DTD SVG 1.1//EN" "http://www.w3.org/Graphics/SVG/1.1/DTD/svg11.dtd"><svg t="1549023737908" class="icon" style="" viewBox="0 0 1024 1024" version="1.1" xmlns="http://www.w3.org/2000/svg" p-id="24967" xmlns:xlink="http://www.w3.org/1999/xlink" width="200" height="200"><defs><style type="text/css"></style></defs><path d="M211.2 204.8C233.6 195.2 262.4 192 288 192h384c105.6 0 195.2 70.4 220.8 169.6 3.2 12.8 16 22.4 28.8 22.4 19.2 0 35.2-19.2 32-38.4C921.6 220.8 806.4 128 672 128H288c-48 0-92.8 12.8-134.4 32l3.2 3.2-57.6-44.8L64 364.8l230.4-92.8-83.2-67.2zM960 659.2l-230.4 92.8 83.2 64c-22.4 12.8-51.2 16-76.8 16H352c-105.6 0-195.2-70.4-220.8-169.6-3.2-12.8-16-22.4-28.8-22.4-19.2 0-35.2 19.2-32 38.4 32 124.8 147.2 217.6 281.6 217.6h384c48 0 92.8-12.8 134.4-32l-3.2-3.2 57.6 44.8 35.2-246.4z" fill="#585EE2" p-id="24968"></path><path d="M640 480c19.2 0 32-12.8 32-32s-12.8-32-32-32h-67.2l57.6-57.6c12.8-12.8 12.8-32 0-44.8s-32-12.8-44.8 0l-64 64c-6.4 6.4-9.6 12.8-9.6 22.4 0 6.4 3.2 9.6 6.4 16h-9.6c3.2-6.4 6.4-9.6 6.4-16 0-9.6-3.2-16-9.6-22.4l-64-64c-12.8-12.8-32-12.8-44.8 0s-12.8 32 0 44.8l57.6 57.6H384c-19.2 0-32 12.8-32 32s12.8 32 32 32h96v64h-96c-19.2 0-32 12.8-32 32s12.8 32 32 32h96v64c0 19.2 12.8 32 32 32s32-12.8 32-32v-64h96c19.2 0 32-12.8 32-32s-12.8-32-32-32h-96v-64h96z" fill="#585EE2" p-id="24969"></path></svg>