<svg xmlns="http://www.w3.org/2000/svg" viewBox="0 0 215.51 259.27"><defs><style>.cls-1{fill:#ed7474;}.cls-2{fill:#e26969;}.cls-3{fill:#e0605c;}.cls-4{fill:#c64e4e;}.cls-5{fill:#f9dab4;}.cls-6{fill:#efc19c;}.cls-7{fill:#f7cea6;}.cls-8{fill:#56361d;}.cls-9{fill:#efceab;}.cls-10{fill:#2f3233;}.cls-11{fill:#f9f5ed;}.cls-12{fill:#ad0b0b;}.cls-13{fill:#c62828;}</style></defs><title>资源 139</title><g id="图层_2" data-name="图层 2"><g id="Layer_1" data-name="Layer 1"><path class="cls-1" d="M70.07,182.85S88,163.68,93.45,162.64s7.84-.5,7.84-.5h1.13v50.43Z"/><path class="cls-2" d="M98.89,193.63V162a32.85,32.85,0,0,0-5.44.64c-2,.38-5.68,3.2-9.53,6.62,2.28,2.49,6.33,9.33,2.46,24.37Z"/><path class="cls-3" d="M41.79,192.27s2.54-15.22,21-15.22,30.45,12.61,30.45,24.43,1.81,18-10.51,23.06C75.6,227.48,43.92,200.69,41.79,192.27Z"/><path class="cls-4" d="M78.77,193.09c-6.8-12.92-25.32-11.54-31.29-10.72a18.93,18.93,0,0,0-3.71,4.74c-.33,3.86,1.37,9.16,5,14.9,7.75,8.17,20.11,18,28,21.48C83.88,219.07,85.88,206.61,78.77,193.09Z"/><path class="cls-5" d="M71.78,228.21c1-1.53,2-3.1,2.92-4.7,3.06-5.37,6.6-13.95,5.27-20.18-.83-3.86-5-8.12-8.54-9.7C66.27,191.75,61,190,56,187.58c-4.31-2.05-5.27-4.79-10.41-4.91-4.65-.11-9.92,2.43-12,6.34-4.72,9.06-16.54-1.21-21.94-.54-10.33,1.26-17.31,8.06-5.61,12.68s18.48.55,14.68,6.35c-3,4.5-9.7,16-9.7,26.64s25.15,32.49,42.14,15.5C60.68,242.17,67,235.25,71.78,228.21Z"/><path class="cls-6" d="M51.07,229.52c-.68.59-8.16,15.53-13.89,21.25-2.78,2.79-7.49.35-7.35-1.47s8.8-15.79,10.88-21.5-1-3.34-1-3.34-9.84,18.33-12.44,21.43-9.54-1.28-8.2-4.48,11.82-19.1,13.35-22.47-3.33-2.21-3.41-1.11a96.34,96.34,0,0,1-9.88,16.9c-4.52,6.36-6.92,2.09-8-1.64,0,.35,0,.7,0,1,0,8.9,17.72,25.75,33.46,20.88-3.19,0-5.82-.47-5-1.22,1.46-1.26,9.3-12.15,11.64-17.84S51.75,228.93,51.07,229.52Z"/><path class="cls-6" d="M26.57,214.75S44,232.87,59.38,231.42c12.14,0,7.61-2.53,1.63-2.53s-14.59-1.72-23.57-8.52S23.67,209.13,26.57,214.75Z"/><path class="cls-6" d="M12.26,225.81c3-6.56,7.47-15.28,10-17.77,4.17-4.17,5.25-7.79-.73-7.79s-10.62-2-13.59-5,2.95-6.69,3-6.71C1,190.11-5.29,196.66,6.09,201.15c11.69,4.63,18.48.55,14.68,6.35A67.07,67.07,0,0,0,12.26,225.81Z"/><path class="cls-6" d="M74,224.74c.24-.41.49-.81.73-1.23,3.06-5.37,6.6-13.95,5.27-20.18-.83-3.86-5-8.12-8.54-9.7C66.27,191.75,61,190,56,187.58c-4.31-2.05-5.27-4.79-10.41-4.91a14.46,14.46,0,0,0-3.56.4,26.29,26.29,0,0,0,16.8,13.55C71.7,200.13,76.26,212,74,224.74Z"/><path class="cls-1" d="M164.41,155.88s4.68,45.66,10.26,103.39H208.6q1.67-1.74,3.2-3.29c11.21-11.21-5.31-40.31-19.07-71S164.41,155.88,164.41,155.88Z"/><path class="cls-3" d="M182.3,195.41c-6.78-13.69.5-17.47,6.42-18.44-12.44-22.37-24.31-21.09-24.31-21.09s4.24,41.39,9.46,95.17a17.15,17.15,0,0,0,7.45-2.74C200.59,236.91,192.73,216.45,182.3,195.41Z"/><path class="cls-1" d="M95.45,162.18C90.56,168,89.82,181,87.83,203.1c-1.74,19.28-3.48,39.33-5.14,56.17H188c-4.73-33.91-12.5-79.32-14.62-86.31-3.79-12.56-6.87-15.9-6.87-15.9l-58.88,1.05S99.23,157.68,95.45,162.18Z"/><path class="cls-4" d="M151.52,166.14c0,7.94-7.93,14.37-17.71,14.37s-17.71-6.43-17.71-14.37,7.93-14.37,17.71-14.37S151.52,158.2,151.52,166.14Z"/><path class="cls-7" d="M148.79,164.26c0,5.83-6.71,10.56-15,10.56s-15-4.73-15-10.56,6.7-10.56,15-10.56S148.79,158.43,148.79,164.26Z"/><path class="cls-8" d="M201.13,53.9c-9-30.33-27.85-51.61-76.94-53.82S49,39.49,44.12,62.86s-2.78,27.8-2.78,27.8l4-3.61c.44,1.28.95,2.8,1.5,4.45a68.79,68.79,0,0,0-1,10.85s1.33-1.92,3.06-4.35c2.19,6.93,4.28,14.16,4.29,16.57,0,5.08,9.51,16.75,9.51,16.75h15V101.91l106.8,20.65h11.77S210.19,84.22,201.13,53.9Z"/><path class="cls-5" d="M73.94,114.17s-6.64-7-14.18-8.59-9.64,9.66-5.42,18.25,12.06,22.55,19.6,15.84Z"/><path class="cls-7" d="M58.85,112c-3,.75-2.42,4.66-2,6.42a12,12,0,0,0,.31,1.18c7.06-2.38,10,5,10.94,9.74.12-3.86,1.34-8.4-.83-12C65.86,115.13,62.24,111.13,58.85,112Z"/><path class="cls-5" d="M179.23,114.17s6.64-7,14.17-8.59,9.65,9.66,5.43,18.25-12.06,22.55-19.6,15.84Z"/><path class="cls-7" d="M194.32,112c3,.75,2.42,4.66,2,6.42a9.8,9.8,0,0,1-.32,1.18c-7-2.38-10,5-10.94,9.74-.11-3.86-1.34-8.4.84-12C187.31,115.13,190.93,111.13,194.32,112Z"/><path class="cls-5" d="M68.81,80v43.83c0,9.18,13.87,42.66,57.89,42.66S184,146.82,184,129.1V70.45s-33.84,1-57.52,1.78A321.82,321.82,0,0,0,68.81,80Z"/><polygon class="cls-8" points="106.57 97.44 107.63 102.54 78.42 107.19 80.17 100.39 106.57 97.44"/><polygon class="cls-8" points="143.41 97.44 142.34 102.54 171.55 107.19 169.8 100.39 143.41 97.44"/><path class="cls-9" d="M131.71,128.27a3.47,3.47,0,0,1,.72,2.08c0,2.44-2.77,4.43-6.18,4.43s-6.19-2-6.19-4.43a3.54,3.54,0,0,1,.72-2.08,4.62,4.62,0,0,0-1.94,3.58c0,2.94,3.32,5.32,7.41,5.32s7.4-2.38,7.4-5.32A4.62,4.62,0,0,0,131.71,128.27Z"/><path class="cls-10" d="M85.68,113.74a2.73,2.73,0,0,1,.23-.25,11.53,11.53,0,0,1,6.78-3c4.6-.69,11.31-.54,14.32,4.37,2.78,4.53-3,5.22-5.58,4-2.46-1.15-5.48-2.52-8.16-1.71-2.15.65-4.65,3.61-7,2.46S84.17,115.49,85.68,113.74Z"/><path class="cls-11" d="M102.37,117.39c-.31-.62.29-1.47,1.34-1.89s2.16-.28,2.48.34-.29,1.46-1.34,1.89S102.69,118,102.37,117.39Z"/><path class="cls-10" d="M147.21,113.74a2.73,2.73,0,0,1,.23-.25,11.53,11.53,0,0,1,6.79-3c4.59-.69,11.31-.54,14.31,4.37,2.78,4.53-2.94,5.22-5.58,4-2.46-1.15-5.48-2.52-8.16-1.71-2.14.65-4.65,3.61-7,2.46S145.7,115.49,147.21,113.74Z"/><path class="cls-11" d="M163.9,117.39c-.31-.62.29-1.47,1.34-1.89s2.17-.28,2.48.34-.28,1.46-1.34,1.89S164.22,118,163.9,117.39Z"/><path class="cls-12" d="M112,142.36s18.84-2.7,35.21,0c0,0-1.15,19.15-16.15,19.15C117.33,161.51,112,150.43,112,142.36Z"/><path class="cls-13" d="M130.62,147.41c-6.68,0-12.27,3.51-13.68,8.21,3.06,3.44,7.66,5.89,14.13,5.89s10.25-3.46,12.59-7.44C141.6,150.17,136.54,147.41,130.62,147.41Z"/></g></g></svg>