<svg xmlns="http://www.w3.org/2000/svg" viewBox="0 0 162.67 260.77"><defs><style>.cls-1{fill:#f9dab4;}.cls-2{fill:#f4c7a2;}.cls-3{fill:#f9f5ed;}.cls-4{fill:#d3cec7;}.cls-5{fill:#5c9ea0;}.cls-6{fill:#348789;}.cls-7{fill:#9e6f4c;}.cls-8{fill:#282828;}</style></defs><title>资源 222</title><g id="图层_2" data-name="图层 2"><g id="Layer_1" data-name="Layer 1"><path class="cls-1" d="M26.77,190.36s-10.45,37.52-8.34,70.41H36.9c-1.46-15.27-.27-37.94,8.48-70.41Z"/><path class="cls-2" d="M37.64,202.68c2.49,1.36,3,4,3.21,6.73,1.21-5.94,2.7-12.28,4.53-19H26.77s-1.17,4.18-2.63,11C28.76,200.92,33.62,200.47,37.64,202.68Z"/><path class="cls-1" d="M117.3,190.36c8.74,32.47,9.93,55.14,8.47,70.41h18.47c2.11-32.89-8.34-70.41-8.34-70.41Z"/><path class="cls-2" d="M125,202.68c-2.49,1.36-3,4-3.21,6.73-1.21-5.94-2.7-12.28-4.52-19h18.6s1.17,4.18,2.64,11C133.91,200.92,129.05,200.47,125,202.68Z"/><path class="cls-3" d="M52.28,158.22s-30.89-1.46-34.55,39.07H49.9Z"/><path class="cls-3" d="M110.39,158.22s30.89-1.46,34.54,39.07H112.76Z"/><path class="cls-4" d="M40.28,160.61v36.68h9.51l2.36-39.07A31.23,31.23,0,0,0,40.28,160.61Z"/><path class="cls-4" d="M122.39,160.71a31.28,31.28,0,0,0-12.12-2.49l2.37,39.07h9.75Z"/><path class="cls-3" d="M81.33,154.57c-37.37,0-39.13,5.6-39.13,5.6v100.6h78.27V160.17S118.71,154.57,81.33,154.57Z"/><polygon class="cls-5" points="73.7 170.64 68.16 250.01 75.1 260.77 87.57 260.77 94.5 250.01 88.97 170.64 73.7 170.64"/><polygon class="cls-6" points="89.44 177.48 88.97 170.64 73.7 170.64 73.23 177.48 89.44 177.48"/><polygon class="cls-5" points="89.4 175.5 73.27 175.5 70.65 163.33 92.02 163.33 89.4 175.5"/><path class="cls-7" d="M162.67,82.67a15.4,15.4,0,0,0-3.73-10,15.53,15.53,0,0,0,.93-5.17,15.23,15.23,0,0,0-8-13.48,17.16,17.16,0,0,0,3.51-10.44,16.73,16.73,0,0,0-12.08-16.26c0-.2,0-.39,0-.58,0-9.31-7.28-16.85-16.25-16.85a13.9,13.9,0,0,0-1.44.08A16.22,16.22,0,0,0,110.83,0,15.92,15.92,0,0,0,99.27,5,18.1,18.1,0,0,0,86.82,0,18.45,18.45,0,0,0,70.34,10.47,18.2,18.2,0,0,0,56.51,4a18.41,18.41,0,0,0-16.1,9.73,19.2,19.2,0,0,0-7-1.33c-11,0-19.94,9.26-19.94,20.68a21.36,21.36,0,0,0,.79,5.69,15.2,15.2,0,0,0-11.7,15A15.42,15.42,0,0,0,8.08,65.64,14.15,14.15,0,0,0,8,91.19a17.69,17.69,0,0,0,21.13,28.09l10.27,7.78h90.08l9.81-9.16a14.11,14.11,0,0,0,5.87,1.29A14.94,14.94,0,0,0,159.87,104a15.45,15.45,0,0,0-3.07-9.22A15.31,15.31,0,0,0,162.67,82.67Z"/><path class="cls-1" d="M148.25,120.69a11.5,11.5,0,1,1-11.5-11.5A11.5,11.5,0,0,1,148.25,120.69Z"/><path class="cls-1" d="M37.42,120.69a11.51,11.51,0,1,1-11.5-11.5A11.5,11.5,0,0,1,37.42,120.69Z"/><path class="cls-2" d="M25.17,116.13a11.41,11.41,0,0,1,3.13.2,12.68,12.68,0,0,1,3.11,1,8.08,8.08,0,0,1,1.71,1,3.71,3.71,0,0,1,1.44,2.45,3.51,3.51,0,0,1-.13,1l-.07.23-.08.17v0l0,0-.11.2a5.69,5.69,0,0,1-.82,1,6.11,6.11,0,0,1-1.78,1.12,10.12,10.12,0,0,1-3.21.82,9.88,9.88,0,0,1-3.15-.1s1.11-.67,2.66-1.5c.77-.43,1.66-.92,2.47-1.47a6.65,6.65,0,0,0,1-.88c.1-.18.09,0,.27-.37l.1-.2,0,0,0,0h0c.06-.13-.09.18-.07.15h0s0,0,0,.06a1.64,1.64,0,0,0-.4-.52,9.84,9.84,0,0,0-1.12-.92c-.83-.6-1.7-1.14-2.44-1.64C26.19,116.92,25.17,116.13,25.17,116.13Z"/><path class="cls-2" d="M137.5,116.13s-1,.79-2.52,1.75c-.74.5-1.61,1-2.44,1.64a9.84,9.84,0,0,0-1.12.92c-.29.27-.48.64-.39.52s0,0,0-.06h0s-.13-.28-.06-.15h0v0l0,0,.11.2c.17.37.16.19.26.37a6.75,6.75,0,0,0,1,.88c.8.55,1.69,1,2.46,1.47,1.55.83,2.66,1.5,2.66,1.5a9.88,9.88,0,0,1-3.15.1,10.18,10.18,0,0,1-3.21-.82,6.25,6.25,0,0,1-1.78-1.12,5.16,5.16,0,0,1-.81-1l-.12-.2,0,0,0,0-.08-.17-.07-.23a3.51,3.51,0,0,1-.13-1,3.75,3.75,0,0,1,1.44-2.45,8.08,8.08,0,0,1,1.71-1,12.68,12.68,0,0,1,3.11-1A11.41,11.41,0,0,1,137.5,116.13Z"/><path class="cls-1" d="M117.13,74a16.89,16.89,0,0,1-16.24-12.9c-2.88,6.41-10,11-18.34,11a20.36,20.36,0,0,1-17-8.51C64.42,72,56.66,78.61,47.25,78.61A19,19,0,0,1,33.62,73v58c0,5.85,3.4,36,47.71,36s47.72-30.19,47.72-36V68.87A16.53,16.53,0,0,1,117.13,74Z"/><path class="cls-2" d="M113.22,145.51l-2.61-1.31a6.5,6.5,0,0,0,.45-4.34,3.87,3.87,0,0,0-2.22-2.2,5.4,5.4,0,0,0-6.71,1.28l-2.31-1.8A8.4,8.4,0,0,1,110.05,135a6.74,6.74,0,0,1,3.77,3.9A9.4,9.4,0,0,1,113.22,145.51Z"/><path class="cls-3" d="M61.86,109.65A9.62,9.62,0,1,1,52.24,100,9.62,9.62,0,0,1,61.86,109.65Z"/><path class="cls-8" d="M58.14,106.18a5.3,5.3,0,1,1-5.3-5.29A5.3,5.3,0,0,1,58.14,106.18Z"/><path class="cls-3" d="M120.05,109.65a9.62,9.62,0,1,1-9.62-9.62A9.62,9.62,0,0,1,120.05,109.65Z"/><path class="cls-8" d="M116.33,106.18a5.3,5.3,0,1,1-5.3-5.29A5.3,5.3,0,0,1,116.33,106.18Z"/><path class="cls-7" d="M61.31,91.76a2.19,2.19,0,0,1-2.06-1.47,7.56,7.56,0,0,0-14.13,0,2.21,2.21,0,0,1-2.8,1.32A2.18,2.18,0,0,1,41,88.85c.11-.32,2.8-7.81,11.2-7.81s11.09,7.49,11.2,7.81A2.18,2.18,0,0,1,62,91.63,2,2,0,0,1,61.31,91.76Z"/><path class="cls-7" d="M119.61,91.76a2.19,2.19,0,0,1-2.06-1.47,7.56,7.56,0,0,0-14.13,0,2.2,2.2,0,0,1-2.79,1.32,2.17,2.17,0,0,1-1.34-2.77c.11-.32,2.79-7.81,11.2-7.81s11.08,7.49,11.19,7.81a2.18,2.18,0,0,1-1.35,2.78A2,2,0,0,1,119.61,91.76Z"/><path class="cls-2" d="M73.06,124.87a8.56,8.56,0,0,1,.72-4,8.7,8.7,0,0,1,2.57-3.55,7.92,7.92,0,0,1,2.3-1.29l1.33-.33a13.57,13.57,0,0,1,1.46-.1l1.15.11c.47.09,1,.21,1.43.34a8.58,8.58,0,0,1,2.27,1.31,9.66,9.66,0,0,1,3.32,7.48,21.66,21.66,0,0,0-2.16-3.12,10.27,10.27,0,0,0-2.62-2.3,7.32,7.32,0,0,0-1.66-.7l-.8-.17-1.15-.06a3.45,3.45,0,0,1-.82.07l-.89.18a8.93,8.93,0,0,0-1.65.71,11.39,11.39,0,0,0-2.61,2.29A23.64,23.64,0,0,0,73.06,124.87Z"/><path class="cls-2" d="M81,153.11c-19.55,0-26.49-10-26.78-10.38l2.42-1.64-1.21.82,1.21-.82c.06.09,6.48,9.1,24.36,9.1s24.29-9,24.35-9.1l2.42,1.64C107.44,143.15,100.5,153.11,81,153.11Z"/></g></g></svg>