<svg xmlns="http://www.w3.org/2000/svg" viewBox="0 0 146.59 270.55"><defs><style>.cls-1{fill:#f9dab4;}.cls-2{fill:#e8e3d9;}.cls-3{fill:#4d9980;}.cls-4{fill:#efc4a0;}.cls-5{fill:#ea9628;}.cls-6{fill:#f4d3b0;}.cls-7{fill:#515151;}.cls-8{fill:#492020;}.cls-9{fill:#c65044;}.cls-10{fill:#41876e;}</style></defs><title>资源 313</title><g id="图层_2" data-name="图层 2"><g id="Layer_1" data-name="Layer 1"><path class="cls-1" d="M118.57,188.43l-13.51,6.69,17.75,75.43h16.45C133.34,242.34,124.75,208.76,118.57,188.43Z"/><path class="cls-1" d="M8.58,270.55H25l17.75-75.43-13.51-6.69C23.1,208.76,14.5,242.34,8.58,270.55Z"/><path class="cls-2" d="M117.79,192.58c-6.61-21.83-17.53-22.41-17.53-22.41H47.58s-10.91.58-17.52,22.41c0,0,8.33,5.31,10.32,13.13,0,0-8.79,35.7-11,64.84h89c-2.19-29.14-11-64.84-11-64.84C109.45,197.89,117.79,192.58,117.79,192.58Z"/><path class="cls-3" d="M107.47,205.71l-2.92-12.17s8.69-21.26,19-13.8c3.58,2.58-2.57,5.32-2.57,5.32s6.3,1.41,3.69,4.07S117.36,188.84,107.47,205.71Z"/><path class="cls-3" d="M40.38,205.71l2.91-12.17s-8.68-21.26-19-13.8c-3.57,2.58,2.58,5.32,2.58,5.32s-6.31,1.41-3.7,4.07S30.49,188.84,40.38,205.71Z"/><circle class="cls-3" cx="73.92" cy="168.31" r="24.05"/><circle class="cls-4" cx="73.92" cy="168.31" r="18.09"/><path class="cls-5" d="M6.53,118.61S-13.74,36,36.31,20.27,90.42,0,90.42,0L89.36,10.75,106.46,1V12.87l12-5.47L122,19.56l10.09-6.69,2.6,9.34,11.94-2.93C143,45.59,141.85,80,142.06,118.61Z"/><path class="cls-6" d="M18.18,119.32s-.92-8.64-10.17-6.16c-8.43,2.26-12,24.36,10.17,39Z"/><path class="cls-6" d="M129.88,119.32s.91-8.64,10.17-6.16c8.43,2.26,12,24.36-10.17,39Z"/><path class="cls-1" d="M132.05,148.5a24.62,24.62,0,0,1-18.36,23.83c-12,3.14-27.54,6.47-39.77,6.47s-27.81-3.33-39.77-6.47A24.62,24.62,0,0,1,15.8,148.5V82.41H132.05Z"/><polygon class="cls-5" points="49.63 99 49.63 105.64 26.52 106.08 26.52 99 49.63 99"/><polygon class="cls-5" points="97.86 99 97.86 105.64 120.96 106.08 120.96 99 97.86 99"/><path class="cls-7" d="M31.63,127a1.2,1.2,0,0,1-1.18-1.07c0-.41-1-10.15,6.16-12,5.74-1.48,9.58,3.9,10.8,7a1.19,1.19,0,0,1-2.21.88c-.11-.28-2.84-6.86-8-5.54s-4.39,9.36-4.38,9.44A1.19,1.19,0,0,1,31.76,127Z"/><path class="cls-7" d="M116.5,127h-.12a1.18,1.18,0,0,1-1.06-1.31c0-.13.77-8.11-4.39-9.44s-8,5.47-8,5.54a1.18,1.18,0,1,1-2.2-.88c1.22-3.06,5-8.44,10.8-7,7.16,1.84,6.2,11.58,6.16,12A1.21,1.21,0,0,1,116.5,127Z"/><polygon class="cls-4" points="64.89 118.1 64.89 144.08 75.89 149.66 85.59 144.94 76.11 146.22 67.29 141.29 64.89 118.1"/><path class="cls-8" d="M59.61,157.6s21.65,1.29,33.88-1.72l1.08,14.17s-10.2,6.53-33.56,2.07Z"/><path class="cls-9" d="M62.75,172.43c16.26,2.81,25.81.21,29.72-1.37a16.85,16.85,0,0,0-29.72,1.37Z"/><path class="cls-3" d="M7.4,75.74s-3-2.47-5.33-1.75-2.31,7-1.8,9.46,1.2,11.06,7.08,12.29C9.41,96.17,15.25,98,21.48,84c0,0,.9-2.21,2.56,1s3.81,10.2,8.16,10.17,15.29-7.33,15.29-7.33,3.32,8.68,9.08,8.88,13.21-7.85,13.21-7.85,1.78,7,10.1,7A13.78,13.78,0,0,0,91.8,89.22s5.88,5.11,10.47,4.75,9.44-7,9.44-7,1.76,7.16,11.52,7.27,9-8.7,9-8.7,3,8.44,10.61,3.87,1.86-18.48-6.23-16.57c-3.2.76-3.73,4.66-6.41,3.84s-5.57-4.59-8.67-4.62c-6.65-.07-7.24,3.37-9.37,5.38,0,0-5.11-7.71-14.21-6.25-3.48.56-7.13,6.1-7.13,6.1s-6.71-5.59-9.89-5.56-13.64,4.34-13.64,4.34-5.7-4-10.11-4.69S46.89,76.8,46.89,76.8s-8-6.53-12.69-6.73-10.28,6.14-10.28,6.14-3.66-3.85-7.55-4.47S7.4,75.74,7.4,75.74Z"/><path class="cls-10" d="M19,79.32a14.67,14.67,0,0,0-7-.81c-1,.17-2.74.49-2,2.17.09.21,2.16-.24,2.39-.25a13.7,13.7,0,0,1,4.08.44,9,9,0,0,1,5,3.15.08.08,0,0,1,0,0s.64-1.56,1.83-.17C22.26,81.75,20.86,80,19,79.32Z"/><path class="cls-10" d="M30.71,82.64a15.22,15.22,0,0,0,5.65,1.88c3.09.26-.49-1.48-1.36-1.8a28.81,28.81,0,0,1-8.77-5.82A5.45,5.45,0,0,1,25,75.14c-.34.34-1,1.07-.79.8A14.75,14.75,0,0,0,30.71,82.64Z"/><path class="cls-10" d="M43.65,80.41c-1.85-1.7-3.95-3.54-6.69-2.9l-1.27.31a25.19,25.19,0,0,1,7.55,4.9,16,16,0,0,1,4.07,5.16l.18-.12.12.29a3.27,3.27,0,0,0-.31-3.87A28.9,28.9,0,0,0,43.65,80.41Z"/><path class="cls-10" d="M57.6,83.48a8.12,8.12,0,0,0,2,.78c.16-.94-8.39-5.76-11.68-8.46l-1,1a32.18,32.18,0,0,0,5.24,3.53A45,45,0,0,0,57.6,83.48Z"/><path class="cls-10" d="M66.61,82.7a14,14,0,0,0-6.54-4.52,34.61,34.61,0,0,1,6.56,7.57A31.77,31.77,0,0,1,69,89.62l.68-.69a4.89,4.89,0,0,0-.84-3.71C68.12,84.33,67.35,83.54,66.61,82.7Z"/><path class="cls-10" d="M79.06,84.58c2.44.51-.28-1.82-1-2.34-1.55-1.17-3.16-2.25-4.78-3.32a52.47,52.47,0,0,1-5-3.28l-1.06.43a31.78,31.78,0,0,0,2.42,2.27C72.28,80.53,75.64,83.86,79.06,84.58Z"/><path class="cls-10" d="M79,77.22c2.35,2.29,4.66,4.59,6.9,7,1.79,1.92,3.81,3.57,5.59,5.47.18-.28.28-.46.28-.46l.35.3C91.6,84.17,84.43,77.56,79,77.22Z"/><path class="cls-10" d="M101,83.38c1.1.5,1.93-.21.77-1.2a19.7,19.7,0,0,0-1.6-1.26,37.56,37.56,0,0,0-3.25-2,48.85,48.85,0,0,1-5.11-3c-.34.43-.6.79-.78,1a14.39,14.39,0,0,0,2.47,1.8C96.06,80.14,98.41,82.18,101,83.38Z"/><path class="cls-10" d="M110.17,82.19a11.75,11.75,0,0,0-4.88-2.79c1.63,1.72,3.22,3.51,4.74,5.31a11,11,0,0,1,1.6,2.37l.07-.09A4.58,4.58,0,0,0,110.17,82.19Z"/><path class="cls-10" d="M112.31,79.36a44.22,44.22,0,0,0,4.91,3c1.21.74,2.39,1.53,3.64,2.21a15.31,15.31,0,0,0,1.82.89c1.8.67.68-.86,0-1.39-3.12-2.4-8.09-4-9.81-7.42a8.87,8.87,0,0,1-.72.78,16.12,16.12,0,0,0-3.05-3.18A11.24,11.24,0,0,0,112.31,79.36Z"/><path class="cls-10" d="M130.64,83A20.72,20.72,0,0,0,125,80.3c2.56,1.79,5.66,3.43,7.27,6,0-.29,0-.52,0-.64A3.77,3.77,0,0,0,130.64,83Z"/><path class="cls-10" d="M131.06,78.37a42.34,42.34,0,0,0,5.64,3.29c.7.37,1.41.7,2.14,1q3.43,1.78.9-1.52c-2.54-1-6.68-2-8.77-4.36a2.49,2.49,0,0,1-.78-.1,8.46,8.46,0,0,1-2.27-1.2A20.07,20.07,0,0,0,131.06,78.37Z"/></g></g></svg>