<svg xmlns="http://www.w3.org/2000/svg" viewBox="0 0 213.75 260.01"><defs><style>.cls-1{fill:#3f3e3d;}.cls-2{fill:#f2d0af;}.cls-3{fill:#2b373d;}.cls-4{fill:#c65044;}.cls-5{fill:#2f3233;}.cls-6{fill:#f4d3b0;}.cls-7{fill:#ddb58e;}.cls-8{fill:#3a332d;}.cls-9{fill:#e8dfd9;}</style></defs><title>资源 235</title><g id="图层_2" data-name="图层 2"><g id="Layer_1" data-name="Layer 1"><path class="cls-1" d="M169,39s20.44-1.16,30,14.67c24.49,40.51,18.28,94.22-16.75,129.25a106.74,106.74,0,0,1-151-150.95C63.09.11,110.68-8.92,149,9.34,168.18,18.51,169,39,169,39Z"/><path class="cls-2" d="M43.42,205.81C39,216.64,59,240.52,59,240.52S48.1,247.13,50.76,260H77.18c3.14-7.09,3-15.84-2.81-24.12C60.48,216.22,57,208.41,57,208.41L84.2,179.19V158.54S53,182.2,43.42,205.81Z"/><path class="cls-2" d="M177.12,205.81c-9.56-23.61-40.79-47.27-40.79-47.27v20.65l27.2,29.22s-3.47,7.81-17.36,27.48c-5.85,8.28-5.95,17-2.81,24.12H170c3-13.17-8.43-19.49-8.43-19.49S181.51,216.64,177.12,205.81Z"/><path class="cls-2" d="M111.5,247.17a239.05,239.05,0,0,0,37.66-2.61s-2.93-19.48-4.4-31.44S141,157,141,157l-29.5-.88v0l-.63,0-.62,0v0l-29.5.88s-2.3,44.17-3.77,56.13-4.39,31.44-4.39,31.44a238.9,238.9,0,0,0,37.66,2.61h1.25Z"/><polygon class="cls-3" points="77.97 188.43 80.4 154.87 88.31 154.87 89.27 190.36 77.97 188.43"/><polygon class="cls-3" points="143.81 188.43 141.37 154.87 133.47 154.87 132.5 190.36 143.81 188.43"/><path class="cls-4" d="M143.78,188.43a18.12,18.12,0,0,0-11.13-9.64c-13.06-3.68-19.67,3.24-21.78,6.13-2.11-2.89-8.72-9.81-21.77-6.13A18.12,18.12,0,0,0,78,188.43s-6.16,37.44-4.42,39.93,37.32,1.73,37.32,1.73,35.61.7,37.33-1.73S143.78,188.43,143.78,188.43Z"/><path class="cls-3" d="M73.65,219.49c-.45,4.66-.59,8.16-.1,8.87,1.71,2.43,37.32,1.73,37.32,1.73s35.61.7,37.33-1.73c.49-.71.35-4.21-.1-8.87Z"/><path class="cls-3" d="M73.53,220.84c-.35,4-.42,6.88,0,7.52,1.71,2.43,37.32,1.73,37.32,1.73s35.61.7,37.33-1.73c.44-.64.37-3.55,0-7.52Z"/><path class="cls-4" d="M116.85,220.84v9.33c2.52,0,5.61,0,8.88,0v-9.33Z"/><path class="cls-4" d="M79.82,220.84H73.53c-.35,4-.42,6.88,0,7.52s2.85,1,6.27,1.27Z"/><path class="cls-4" d="M82.13,220.84v8.95c2.74.16,5.89.26,9.07.32v-9.27Z"/><path class="cls-4" d="M93.52,220.84v9.31c3.19,0,6.34,0,9.06,0v-9.34Z"/><path class="cls-4" d="M104.89,220.84v9.33c3.58,0,6-.08,6-.08l3.67.06v-9.31Z"/><path class="cls-4" d="M128,220.84v9.31c3.5-.05,7.07-.13,10.22-.29v-9Z"/><path class="cls-4" d="M148.22,220.84h-7.64v8.89c4.12-.27,7.15-.71,7.62-1.37S148.57,224.81,148.22,220.84Z"/><path class="cls-5" d="M69.44,260h82.87c-.72-12.52-2.25-18.14-2.25-18.14-7.16,5-71.21,5-78.37,0C71.69,241.87,70.16,247.49,69.44,260Z"/><path class="cls-6" d="M58.16,118.41s-6.44-4.77-11.66,0c-5,4.6-1.67,28.42,19.16,25.86Z"/><path class="cls-6" d="M163.58,118.41s6.44-4.77,11.67,0c5,4.6,1.66,28.42-19.16,25.86Z"/><path class="cls-2" d="M138.6,75.29s-3.3,25.1-52.45,37.1l3.28-13S69.61,113.16,56.2,116.23c0,6.44,0,11.07,0,11.29,0,28.74,24.48,39,54.68,39s54.69-10.23,54.69-39c0-.3,0-5,0-11.65C160.57,113.73,139.13,102.91,138.6,75.29Z"/><path class="cls-7" d="M137.38,140.31a1.26,1.26,0,1,1-1.25-1.25A1.26,1.26,0,0,1,137.38,140.31Z"/><path class="cls-7" d="M143.37,131.63a1.26,1.26,0,1,1-1.25-1.25A1.25,1.25,0,0,1,143.37,131.63Z"/><path class="cls-7" d="M149.36,140.31a1.26,1.26,0,1,1-1.25-1.25A1.26,1.26,0,0,1,149.36,140.31Z"/><path class="cls-7" d="M74.89,140.31a1.26,1.26,0,1,1-1.25-1.25A1.26,1.26,0,0,1,74.89,140.31Z"/><path class="cls-7" d="M80.88,131.63a1.26,1.26,0,1,1-1.25-1.25A1.25,1.25,0,0,1,80.88,131.63Z"/><path class="cls-7" d="M86.87,140.31a1.26,1.26,0,1,1-1.25-1.25A1.26,1.26,0,0,1,86.87,140.31Z"/><path class="cls-4" d="M98.32,149.33s2.74-4.26,5.9-4.06,4.88,3.33,4.88,3.33,2.84-3.26,6.17-3.2,4.77,4.26,4.77,4.26-3.3,8-11.18,8S98.32,149.33,98.32,149.33Z"/><path class="cls-7" d="M103.74,128.05s.54-5,5.23-5.05,5.65,5.05,5.65,5.05-2.56-3.1-5.56-3.1S103.74,128.05,103.74,128.05Z"/><path class="cls-1" d="M143.9,104.86s-9.11-1.75-16.81-.45l.27-1.56c.34-1.9,2.82-3.38,7.8-3.68s8,1.21,8.34,3.41Z"/><path class="cls-8" d="M132.46,119.43a1,1,0,0,1-.1-2c.07,0,6.84-.68,9.5-2.28a1,1,0,1,1,1,1.69c-3,1.84-10,2.53-10.33,2.56Z"/><path class="cls-8" d="M133.52,117.27h-.15a1,1,0,0,1-1-1,1,1,0,0,1,1-1h.13a10.64,10.64,0,0,0,8-4.11,1,1,0,1,1,1.62,1.14A12.45,12.45,0,0,1,133.52,117.27Z"/><path class="cls-8" d="M127.77,115.71a4.87,4.87,0,1,0,3.57-5.89A4.87,4.87,0,0,0,127.77,115.71Z"/><path class="cls-9" d="M130.31,111.79c0,.71,1,1.25,2.27,1.2s2.2-.67,2.17-1.38-1.05-1.24-2.27-1.2S130.28,111.08,130.31,111.79Z"/><path class="cls-8" d="M85.37,119.43a1,1,0,0,0,.09-2c-.07,0-6.84-.68-9.49-2.28a1,1,0,1,0-1,1.69c3,1.84,10,2.53,10.33,2.56Z"/><path class="cls-8" d="M84.31,117.27h.14a1,1,0,0,0,0-2h-.13a10.64,10.64,0,0,1-8-4.11,1,1,0,0,0-1.38-.24,1,1,0,0,0-.24,1.38A12.48,12.48,0,0,0,84.31,117.27Z"/><path class="cls-8" d="M90.06,115.71a4.87,4.87,0,1,1-3.58-5.89A4.89,4.89,0,0,1,90.06,115.71Z"/><path class="cls-9" d="M87.52,111.79c0,.71-1,1.25-2.28,1.2s-2.19-.67-2.17-1.38,1.05-1.24,2.28-1.2S87.55,111.08,87.52,111.79Z"/></g></g></svg>