<svg xmlns="http://www.w3.org/2000/svg" viewBox="0 0 168.21 260"><defs><style>.cls-1{fill:#f9dab4;}.cls-2{fill:#56beb7;}.cls-3{fill:#eae5dc;}.cls-4{fill:#5c9ea0;}.cls-5{fill:#d3cec7;}.cls-6{fill:#c65044;}.cls-7{fill:#efc4a0;}.cls-8{fill:#3a332d;}.cls-9{fill:#e8dfd9;}.cls-10{fill:#4c3626;}</style></defs><title>资源 190</title><g id="图层_2" data-name="图层 2"><g id="Layer_1" data-name="Layer 1"><path class="cls-1" d="M151.48,147.12s1.88-15.37-3.62-18.24S120.41,131.08,137,150Z"/><path class="cls-2" d="M136.74,159.39s-5-10.23-2-11.59,13-6.47,17.73-3.89,5.42,13.85,5.42,13.85Z"/><path class="cls-3" d="M105.7,156.75l32.77,32.77s-5.18-24.64-4.05-32.77c.65-4.7,4.17-5.4,13.44-7.71,4.72-1.18,8.4-2.45,12,5,8.45,17.57,15.47,69-4.79,72.68S112.12,206,112.12,206Z"/><path class="cls-3" d="M52.16,152.7S16.64,233.35,15,251a16.36,16.36,0,0,0,1.5,9H44.94C54.63,243.08,67.9,139.16,52.16,152.7Z"/><path class="cls-4" d="M80.5,152.88l-28.85-1.53S33,233,34.39,260h92.22c1.43-27-17.26-108.65-17.26-108.65Z"/><rect class="cls-2" x="91.22" y="160.05" width="2.02" height="22.49" transform="translate(-9.47 5.45) rotate(-3.22)"/><path class="cls-2" d="M96.89,183.66A3.66,3.66,0,1,1,93.23,180,3.66,3.66,0,0,1,96.89,183.66Z"/><rect class="cls-2" x="60.79" y="170.29" width="22.49" height="2.02" transform="translate(-103.03 233.62) rotate(-86.79)"/><path class="cls-2" d="M67.37,183.66A3.66,3.66,0,1,0,71,180,3.66,3.66,0,0,0,67.37,183.66Z"/><path class="cls-5" d="M166.89,83.44A83.45,83.45,0,1,1,83.44,0,83.45,83.45,0,0,1,166.89,83.44Z"/><path class="cls-1" d="M147.86,106c0,32.15-28.84,58.21-64.42,58.21S19,138.12,19,106,47.87,47.74,83.44,47.74,147.86,73.81,147.86,106Z"/><path class="cls-6" d="M70.14,146.32s3.35-5.21,7.23-5,6,4.09,6,4.09,3.48-4,7.55-3.92,5.84,5.21,5.84,5.21-4,9.77-13.69,9.77S70.14,146.32,70.14,146.32Z"/><path class="cls-7" d="M76.78,127.83s.66-6.16,6.41-6.19,6.92,6.19,6.92,6.19S87,124,83.3,124,76.78,127.83,76.78,127.83Z"/><path class="cls-8" d="M118.13,122.54a1.47,1.47,0,0,1-.14-2.94c.09,0,10.16-1,14.1-3.39a1.49,1.49,0,0,1,2,.5,1.47,1.47,0,0,1-.5,2c-4.51,2.73-14.9,3.76-15.35,3.8Z"/><path class="cls-8" d="M119.7,119.32h-.22a1.49,1.49,0,0,1-1.45-1.49,1.47,1.47,0,0,1,1.47-1.45h.19c7.41,0,11.82-6,11.86-6.11A1.47,1.47,0,0,1,134,112C133.73,112.27,128.66,119.32,119.7,119.32Z"/><path class="cls-8" d="M111.15,117a7.24,7.24,0,1,0,5.32-8.75A7.25,7.25,0,0,0,111.15,117Z"/><path class="cls-9" d="M114.93,111.18c0,1.06,1.56,1.86,3.38,1.78s3.26-1,3.22-2-1.56-1.85-3.38-1.78S114.88,110.13,114.93,111.18Z"/><path class="cls-8" d="M48.76,122.54a1.47,1.47,0,0,0,.14-2.94c-.1,0-10.16-1-14.1-3.39a1.49,1.49,0,0,0-2,.5,1.47,1.47,0,0,0,.5,2c4.51,2.73,14.9,3.76,15.34,3.8Z"/><path class="cls-8" d="M47.19,119.32h.21a1.49,1.49,0,0,0,1.46-1.49,1.47,1.47,0,0,0-1.47-1.45H47.2c-7.42,0-11.82-6-11.86-6.11a1.47,1.47,0,0,0-2.4,1.7C33.15,112.27,38.23,119.32,47.19,119.32Z"/><path class="cls-8" d="M55.73,117a7.24,7.24,0,1,1-5.31-8.75A7.23,7.23,0,0,1,55.73,117Z"/><path class="cls-9" d="M52,111.18c0,1.06-1.56,1.86-3.38,1.78s-3.26-1-3.22-2,1.55-1.85,3.38-1.78S52,110.13,52,111.18Z"/><path class="cls-10" d="M83.44,47.74c-38.8,0-63.57,21.82-63.57,48.89,9.23-1,26.3-4.85,48.71-18.25,0,0-16.89,20.26-14.19,21.62s28.72-4.73,38.85-16.56c0,0-4.39,7.43-2.7,8.79s20.6-4.4,30.06-20.61c0,0-8.44,18.92-7.09,19.93s15.17,0,24.07-8.11c0,0-5.15,8.79.25,8.79,1.75,0,4.14-2.17,6.56-5.09C141.34,63.29,122.24,47.74,83.44,47.74Z"/></g></g></svg>