<svg xmlns="http://www.w3.org/2000/svg" viewBox="0 0 152.64 260.08"><defs><style>.cls-1{fill:#7f8418;}.cls-2{fill:#d5e063;}.cls-3{fill:#a5b22d;}.cls-4{fill:#f9dab4;}.cls-5{fill:#367756;}.cls-6{fill:#285e40;}.cls-7{fill:#efc09a;}.cls-8{fill:#3f3633;}.cls-9{fill:#f7cea6;}.cls-10{fill:#2f3233;}.cls-11{fill:#efceab;}.cls-12{fill:#f9f5ed;}.cls-13{fill:#eac2a0;}.cls-14{fill:#e0605c;}.cls-15{fill:#ad3936;}</style></defs><title>资源 112</title><g id="图层_2" data-name="图层 2"><g id="Layer_1" data-name="Layer 1"><polygon class="cls-1" points="55.38 159.67 55.38 214.79 103.6 214.79 103.6 158.99 55.38 159.67"/><polygon class="cls-2" points="55.71 161.35 47.66 162.1 47.42 260.08 112.35 260.08 107.05 161.98 98.11 161.98 79.87 191.79 55.71 161.35"/><polygon class="cls-3" points="60.43 194.25 56.47 162.3 77.11 188.32 60.43 194.25"/><polygon class="cls-3" points="97.99 194.25 101.95 162.3 97.91 162.3 81.97 188.36 97.99 194.25"/><polygon class="cls-3" points="78.61 190.22 79.08 260.08 80.88 260.08 80.88 190.15 79.87 191.79 78.61 190.22"/><polygon class="cls-3" points="80.18 196.07 81.19 194.56 82.57 195.95 90.25 199.97 88.17 203.31 83.2 198.34 80.18 196.07"/><path class="cls-4" d="M15.51,260.08H39.74l1.45-11.81,1.2-12.06-22.29-.84S16.25,250.21,15.51,260.08Z"/><path class="cls-5" d="M47,162l-17.74,7.75S27,173.82,27,183.62s-7.92,46.55-7.92,46.55H38.73Z"/><path class="cls-6" d="M30.74,230.17h8L47,162l-17.74,7.75a20.37,20.37,0,0,0-1.68,6c3.31-.15,8,1.16,7,10.09C33.31,197.17,31.35,222.25,30.74,230.17Z"/><path class="cls-5" d="M32.92,260.08H51.81c.31-6.82.63-13.31.63-13.31l-.25-19.05s2.77-46,2.77-54.45,2-12.43,2-12.43l-13.09,1.54C41.46,169.31,34.57,237.4,32.92,260.08Z"/><path class="cls-5" d="M37,227.85l-23.43-2s-1.95-.37-1.29,5.17.12,8,4.54,9.08,21,6.85,21.36-.09S38.21,228.14,37,227.85Z"/><path class="cls-6" d="M38.29,232.31a64.93,64.93,0,0,1-.07,7.69c-.41,6.94-16.94,1.19-21.36.09-4-1-3.94-3.14-4.39-7.74C27.64,239.45,35,235.82,38.29,232.31Z"/><path class="cls-4" d="M142.86,260.08H118.63l-1.44-11.81L116,236.21l22.29-.84S142.13,250.21,142.86,260.08Z"/><path class="cls-5" d="M111.35,162l17.74,7.75s2.26,4.09,2.26,13.89,7.93,46.55,7.93,46.55H119.65Z"/><path class="cls-6" d="M127.64,230.17h-8L111.35,162l17.74,7.75a20.37,20.37,0,0,1,1.68,6c-3.31-.15-8,1.16-7,10.09C125.07,197.17,127,222.25,127.64,230.17Z"/><path class="cls-5" d="M125.46,260.08H106.57c-.32-6.82-.63-13.31-.63-13.31l.25-19.05s-2.77-46-2.77-54.45-2-12.43-2-12.43l13.08,1.54C116.92,169.31,123.8,237.4,125.46,260.08Z"/><path class="cls-5" d="M121.33,227.85l23.44-2s1.95-.37,1.29,5.17-.13,8-4.54,9.08-21,6.85-21.36-.09S120.17,228.14,121.33,227.85Z"/><path class="cls-6" d="M120.09,232.31a64.93,64.93,0,0,0,.07,7.69c.41,6.94,16.94,1.19,21.36.09,4-1,3.93-3.14,4.39-7.74C130.73,239.45,123.4,235.82,120.09,232.31Z"/><path class="cls-7" d="M94.81,159.58c0,8.24-7.72,14.93-17.25,14.93s-17.25-6.69-17.25-14.93S68,144.65,77.56,144.65,94.81,151.33,94.81,159.58Z"/><path class="cls-8" d="M1.25,65c-6.91,36.33,17,60.36,17,60.36l1.59,2.55H134.68c2.55,0,9.5-11.89,10.89-14.21a48,48,0,0,0,6-15.36S161.71,35.69,120,11,13,3.07,1.25,65Z"/><path class="cls-4" d="M30.23,110.08s-5.85-7.37-12.5-9.07-8.5,10.2-4.78,19.27S23.58,144.08,30.23,137Z"/><path class="cls-9" d="M16.92,107.78c-2.62.79-2.13,4.92-1.8,6.79.08.41.18.82.29,1.23,6.22-2.51,8.81,5.28,9.64,10.29.1-4.07,1.18-8.87-.74-12.63C23.11,111.1,19.91,106.88,16.92,107.78Z"/><path class="cls-4" d="M123.05,110.08s5.85-7.37,12.49-9.07,8.51,10.2,4.79,19.27S129.7,144.08,123.05,137Z"/><path class="cls-9" d="M136.36,107.78c2.61.79,2.13,4.92,1.79,6.79-.07.41-.17.82-.28,1.23-6.22-2.51-8.81,5.28-9.64,10.29-.11-4.07-1.18-8.87.73-12.63C130.17,111.1,133.36,106.88,136.36,107.78Z"/><path class="cls-4" d="M25.71,91.66V128.5c0,7.93,12.22,36.84,51,36.84s50.5-17,50.5-32.31V89.39s-32.76-3-42.33-13.24c0,0-2.46,4.73-.11,13.27,1.77,6.41,3.06,8.43,3.06,8.43S78.33,94.21,71.56,73C71.56,73,50,96.34,25.71,91.66Z"/><polygon class="cls-10" points="58.99 92.42 59.94 97.8 34.18 102.72 35.72 95.53 58.99 92.42"/><polygon class="cls-10" points="91.47 92.42 90.53 97.8 116.28 102.72 114.74 95.53 91.47 92.42"/><path class="cls-11" d="M82.57,127.68a3.51,3.51,0,0,1,.81,2.19c0,2.59-3.15,4.68-7,4.68s-7-2.09-7-4.68a3.52,3.52,0,0,1,.82-2.19,4.76,4.76,0,0,0-2.22,3.78c0,3.1,3.78,5.61,8.44,5.61s8.44-2.51,8.44-5.61A4.77,4.77,0,0,0,82.57,127.68Z"/><path class="cls-10" d="M40.58,109.63a2.56,2.56,0,0,1,.2-.26,9.49,9.49,0,0,1,6-3.15c4.06-.72,10-.56,12.62,4.62,2.45,4.79-2.59,5.51-4.92,4.2-2.17-1.23-4.83-2.66-7.19-1.81-1.89.69-4.1,3.81-6.17,2.59S39.25,111.47,40.58,109.63Z"/><path class="cls-12" d="M55.29,113.48c-.27-.65.25-1.54,1.18-2s1.91-.29,2.19.36-.25,1.54-1.18,2S55.57,114.13,55.29,113.48Z"/><path class="cls-10" d="M94.82,109.63c.07-.09.13-.18.2-.26a9.51,9.51,0,0,1,6-3.15c4-.72,10-.56,12.62,4.62,2.45,4.79-2.6,5.51-4.92,4.2-2.17-1.23-4.83-2.66-7.19-1.81-1.9.69-4.1,3.81-6.18,2.59S93.49,111.47,94.82,109.63Z"/><path class="cls-12" d="M109.54,113.48c-.28-.65.25-1.54,1.18-2s1.9-.29,2.18.36-.25,1.54-1.18,2S109.82,114.13,109.54,113.48Z"/><path class="cls-13" d="M84.8,89.42c1.77,6.41,3.06,8.43,3.06,8.43s-3.22-11.93.6-15.33c11.71,4.09,28.28,9,38.78,9V89.39s-32.76-3-42.33-13.24C84.91,76.15,82.45,80.88,84.8,89.42Z"/><path class="cls-13" d="M71.56,73S54.66,91.29,33.89,92.23C43,92.63,57.4,90.43,73,77,72.49,75.74,72,74.39,71.56,73Z"/><path class="cls-14" d="M66.87,145.43h19.6s1.07,12.94-9.27,14C69,160.11,67,150.48,66.87,145.43Z"/><path class="cls-15" d="M77.2,159.48a9.12,9.12,0,0,0,7-4.12c-1.77-3.29-4.51-5.4-7.59-5.4s-5.6,1.95-7.37,5C70.79,157.74,73.29,159.78,77.2,159.48Z"/></g></g></svg>