<svg xmlns="http://www.w3.org/2000/svg" viewBox="0 0 215.67 260.07"><defs><style>.cls-1{fill:#eaeaea;}.cls-2{fill:#fff;}.cls-3{fill:#dddad4;}.cls-4{fill:#309ab2;}.cls-5{fill:#207499;}.cls-6{fill:#1f6c87;}.cls-7{fill:#f9dab4;}.cls-8{fill:#845635;}.cls-9{fill:none;}.cls-10{fill:#6b4627;}.cls-11{fill:#55371f;}.cls-12{fill:#472b18;}.cls-13{fill:#f7cea6;}.cls-14{fill:#f9f7f2;}.cls-15{fill:#e0605c;}.cls-16{fill:#bc4333;}.cls-17{fill:#e5be9e;}.cls-18{fill:#2f3233;}.cls-19{fill:#ffc55f;}.cls-20{fill:#bababa;}</style></defs><title>资源 218</title><g id="图层_2" data-name="图层 2"><g id="Layer_1" data-name="Layer 1"><path class="cls-1" d="M82.18,150.06s-19.92,10.71-25.44,16.23S41,184.39,41,184.39s.1,18.61,10.71,26.31,20.49-.11,29.65-20.07c9.07-20.14,13.52-33.08,13.52-33.08Z"/><path class="cls-2" d="M67.2,162.7A7.9,7.9,0,0,1,71.88,159c3.59-1.24,9.05,2.5,9.05,8s-.78,29.33-10.14,37.29-16.07,7.8-19.66,4.21-9.52-14-5.62-11.7,5.77,4.68,11.23,1.25,9.52-8.11,10.46-11.39c2.34.62,2.34,3.59,2.34,5.93s1.87,2.34,1.87-1.25,0-8.26-1.56-10.92C71.41,175.18,69.62,165.12,67.2,162.7Z"/><path class="cls-1" d="M145.7,147l-9.72.81.25,112.31H179c4.52-9,9.7-19.12,13.77-26.73,9.26-17.3-.48-27.22-9.39-40.59S145.7,147,145.7,147Z"/><path class="cls-2" d="M152.78,163c-2.21-.1-.56,9.19-.56,9.19s5.2,35.57,8.82,42.07c14.51-2,21.25,5.43,22.61,10.87s-2,5.28-1.92,3.56-.36-4.43-4.34-8.46-13.95-3.74-14.08-1.63c3.17.15,9.08,2.06,11.77,4.78s1.69,6-.25,4-4.48-4.53-9.23-4.76-7.7,22.4-5.54,27.95a25.84,25.84,0,0,0,6.49,9.5h8.25c4.87-4.74,11.92-16.2,15.54-26.85,4.74-13.94,1.31-21.16-8.49-37.18S155,163.09,152.78,163Z"/><path class="cls-2" d="M160.93,260.07c-.93-9.49-8.21-80.64-18.36-106l-58.68.35S69,219,68.73,260.07Z"/><path class="cls-1" d="M86.41,154.4H83.89S69,219,68.73,260.07h92.2c-.5-5.07-2.81-27.72-6.4-51.6a283.26,283.26,0,0,1,.3,30.75c-1.26,22.7-31.59,18.33-46.43,18.33S74.77,259,74.77,234.74c-.35-19.63,8.19-64,8.19-64Z"/><polygon class="cls-3" points="107.36 168.38 95.69 179.56 93.17 175.5 107.93 165.13 109.06 167.23 107.36 168.38"/><polygon class="cls-3" points="124.17 168.38 135.84 179.56 138.36 175.5 123.6 165.13 122.47 167.23 124.17 168.38"/><path class="cls-2" d="M94,177.3l21.86-17.36-33-4.29Zm21.86-17.36,20.41,17.36,7.55-21.65Z"/><polygon class="cls-3" points="121.46 167.11 110.45 167.11 110.25 168.34 100.02 231.6 117.12 259.51 135.2 230.91 121.46 167.11"/><polygon class="cls-4" points="111.61 168.6 120.36 168.6 133.72 230.61 117.14 256.84 101.48 231.27 111.61 168.6"/><polygon class="cls-5" points="133.72 230.61 120.36 168.6 116.6 168.6 116.6 255.96 117.14 256.84 133.72 230.61"/><path class="cls-2" d="M122.52,178.61a38.07,38.07,0,0,1-14.4,11.61l-1.47,9.07A45.14,45.14,0,0,0,124.53,188Z"/><path class="cls-2" d="M129.18,209.52l-2.09-9.67a37.23,37.23,0,0,1-5.48,6.48,42.24,42.24,0,0,1-17.7,9.92l-1.38,8.54a50,50,0,0,0,24.46-13C127.79,211,128.51,210.27,129.18,209.52Z"/><path class="cls-2" d="M132,222.76c-3.11,4-10.93,12.12-25.89,16.12l4.3,7a58.09,58.09,0,0,0,20.71-11.22l2.57-4.07Z"/><path class="cls-6" d="M108.67,161.13h15.12c.58,0,.25,8.3.06,9.15-1,4.43-5.37,4.34-8.57,4.29-2.22,0-5-.25-6.34-2.59C107.26,169,108.52,164.38,108.67,161.13Z"/><path class="cls-7" d="M156.24,58.63c-18.05-7.41-38.91-8.81-38.91-8.81a36.24,36.24,0,0,0-.69-5.83h0A91.54,91.54,0,0,0,89,48c2.17,18.65,4.54,36.85-.55,38.23-5.33,1.44-7.57-1.43-11.2-11.34C74.87,88,66.76,92.09,62.13,79.28c-1.85,13.17-7.81,21.79-14,5.22-.08,11.41-1.66,17.87-7.49,18.63,0,.49,0,1,0,1.47-.22,33.75,33.46,61.32,75.22,61.59s75.8-26.87,76-60.61C191.85,105.58,186.52,72.75,156.24,58.63Z"/><path class="cls-8" d="M117.33,49.82S97.25,50,85.41,55.37C83.18,34.69,83,21.85,96.26,20.31s23.89,11.4,24.56,29.84C118.94,50,117.33,49.82,117.33,49.82Z"/><path class="cls-9" d="M116.64,44c-1.09-5.64-3.92-14-11.26-18.45-11.76-7.16-18.89.46-16.66,20,.1.84.19,1.67.29,2.51a91.54,91.54,0,0,1,27.61-4Z"/><path class="cls-10" d="M195,40.87C181.88,18.06,144.55-5.8,94.61,1.26,2.42,16,24.2,102.06,24.2,102.06s8.65,2.4,10.43.66a19.17,19.17,0,0,0,1.29-7.21c2,7,4.72,7.62,4.72,7.62h0c5.83-.76,7.41-7.22,7.49-18.63,6.19,16.57,12.15,8,14-5.22C66.76,92.09,74.87,88,77.26,74.9c3.63,9.91,5.87,12.78,11.2,11.34C93.55,84.86,91.18,66.66,89,48c-.1-.84-.19-1.67-.29-2.51-2.23-19.5,4.9-27.12,16.66-20C112.72,30,115.55,38.35,116.64,44a36.24,36.24,0,0,1,.69,5.83s20.86,1.4,38.91,8.81c30.28,14.12,35.61,46.95,35.61,46.95l8,.32C204,96,208.16,63.69,195,40.87Z"/><path class="cls-11" d="M203.31,90.08c-3.7-.41-9.19-.1-12.18,4.49-6.68-17.16-16.92-30.51-35.47-38.6S123,47.79,123,47.79s-2.26-15.66-15.79-24.31-20.86.65-20.92,10.1,5.36,45.58,1.32,50.14S79,74.07,77.33,65a141.12,141.12,0,0,1-2.22-14.72c0-2.22-2.34-2.82-1.21,4.71S76.55,77.25,73,82.15s-6.95,1.73-8.4-2.26S61,65,61.19,58.17s-2.34-4.74-2.36-.46S60.51,72,60.47,77.64,57.58,91.5,54.92,91.48s-6.73-8.75-6.7-14.65.76-14.09-.63-15.5-1.46,8-1.48,11.79S46.37,89.66,45,92.75C40.13,90.4,28.1,83.59,22.57,92a79.66,79.66,0,0,0,1.63,10s8.65,2.4,10.43.66a19.17,19.17,0,0,0,1.29-7.21c2,7,4.72,7.62,4.72,7.62h0c5.83-.76,7.41-7.22,7.49-18.63,6.19,16.57,12.15,8,14-5.22C66.76,92.09,74.87,88,77.26,74.9c3.63,9.91,5.87,12.78,11.2,11.34C93.55,84.86,91.18,66.66,89,48c-.1-.84-.19-1.67-.29-2.51-2.23-19.5,4.9-27.12,16.66-20C112.72,30,115.55,38.35,116.64,44a36.24,36.24,0,0,1,.69,5.83s20.86,1.4,38.91,8.81c30.28,14.12,35.61,46.95,35.61,46.95l8,.32C201.22,102.66,202.56,97,203.31,90.08Z"/><path class="cls-11" d="M97.7,26.67c0-.36,6.2,2.12,9.83,9,3.65,6.68,3.67,13,3.31,13s-1-6-4.51-12.29S97.45,27,97.7,26.67Z"/><path class="cls-11" d="M93.54,30.87c0-.48,5.54,1,8.85,6.57,3.39,5.3,4.17,10.39,3.83,10.44s-1.76-4.67-5-9.68C98.13,33,93.42,31.2,93.54,30.87Z"/><path class="cls-11" d="M93.1,38c.09-.35,3.07.81,4.69,4.11s1.32,6.19.95,6.16-.72-2.68-2.18-5.53S92.89,38.32,93.1,38Z"/><path class="cls-12" d="M142.44,82.6S147,80.27,155,81.65s14.89,2.61,14.9,1.43-4.38-8-10.34-10.48-10.11-.14-14.26,2.94S138.28,83.75,142.44,82.6Z"/><path class="cls-12" d="M165.41,97.53a12.2,12.2,0,1,1-16.91-3.41A12.2,12.2,0,0,1,165.41,97.53Z"/><path class="cls-2" d="M157.13,94.67c1.21,1.82-.37,5-3.54,7.11s-6.72,2.34-7.93.52.38-5,3.54-7.12S155.92,92.85,157.13,94.67Z"/><path class="cls-12" d="M88.22,94.73a12.2,12.2,0,1,1-16.92-3.4A12.21,12.21,0,0,1,88.22,94.73Z"/><path class="cls-2" d="M79.94,91.88c1.21,1.82-.38,5-3.54,7.11s-6.72,2.34-7.93.51.37-5,3.54-7.11S78.73,90.06,79.94,91.88Z"/><path class="cls-13" d="M109,124.88h0a30.73,30.73,0,0,1,2.25-3,19.73,19.73,0,0,1,2.08-2.11,7.55,7.55,0,0,1,2.15-1.39,2.4,2.4,0,0,1,.8-.14,4.09,4.09,0,0,1,1.93.61,12.17,12.17,0,0,1,3.16,2.78,17.85,17.85,0,0,1,2.36,3.54,1,1,0,1,0,1.85-.91,20.19,20.19,0,0,0-3.77-5.21,12.7,12.7,0,0,0-2.58-2,6.12,6.12,0,0,0-2.94-.87,4.19,4.19,0,0,0-1.55.27,10,10,0,0,0-2.84,1.82,24.58,24.58,0,0,0-3.28,3.58c-.84,1.08-1.35,1.89-1.36,1.9a1,1,0,0,0,1.74,1.12Z"/><path class="cls-13" d="M123.34,161.85c-.06,1.57-4.12,2.69-9.07,2.51s-8.91-1.6-8.85-3.18,4.12-2.69,9.06-2.51S123.4,160.28,123.34,161.85Z"/><path class="cls-14" d="M69.46,125.24A1.37,1.37,0,0,1,68,126.56l-4.6-.18A1.36,1.36,0,0,1,62.12,125h0a1.37,1.37,0,0,1,1.42-1.32l4.6.17a1.37,1.37,0,0,1,1.32,1.42Z"/><path class="cls-14" d="M168.64,125.88a1.37,1.37,0,0,1-1.42,1.32l-4.6-.18a1.36,1.36,0,0,1-1.32-1.41h0a1.37,1.37,0,0,1,1.42-1.32l4.6.17a1.37,1.37,0,0,1,1.32,1.42Z"/><path class="cls-15" d="M87.11,143.19s30.79,5,58.88-8.53c-5,15.19-10.82,24.13-10.82,24.13s-23.61-9.57-30.37-11.23a112.78,112.78,0,0,0-18-2.29Z"/><path class="cls-16" d="M135.17,158.79a81.89,81.89,0,0,0,4.7-8.75c-2.33-2.54-6.63-4.25-11.57-4.25-5.69,0-10.54,2.27-12.49,5.47C124.78,154.58,135.17,158.79,135.17,158.79Z"/><path class="cls-17" d="M87.11,143.19l-.1.62a99.52,99.52,0,0,0,14.2.9c11.63,0,28.77-1.65,45.05-9.49l-.27-.56-.6-.19a130.09,130.09,0,0,1-7.24,17.67c-1,2.06-1.92,3.64-2.54,4.7-.3.54-.55.94-.71,1.21l-.19.3-.07.1.53.34.23-.58s-5.9-2.39-12.66-5c-3.38-1.3-7-2.66-10.14-3.79s-5.92-2.05-7.66-2.48a83.68,83.68,0,0,0-10.2-1.66c-1.78-.2-3.47-.36-4.86-.47s-2.47-.17-3.08-.17v.62l.62.09.31-2.08-.62-.09-.1.62.1-.62-.61-.09-.32,2.08a.65.65,0,0,0,.15.5.61.61,0,0,0,.47.21c.54,0,1.61.06,3,.17a108.28,108.28,0,0,1,14.86,2.1c1.65.41,4.39,1.32,7.54,2.44,4.74,1.7,10.43,3.89,14.93,5.66,2.25.88,4.21,1.66,5.6,2.22l2.22.89a.63.63,0,0,0,.76-.24s5.87-9,10.89-24.27a.63.63,0,0,0-.87-.76c-16,7.72-33,9.37-44.5,9.37-4.25,0-7.75-.23-10.19-.45-1.22-.11-2.18-.22-2.83-.31l-.73-.1-.25,0a.67.67,0,0,0-.47.12.58.58,0,0,0-.24.41Z"/><path class="cls-18" d="M200.66,93.89s-11.94-3.16-17.93-3.76h0c-3.13-.6-9.53-.87-22.59-.87-32.71,0-39,6.87-39,6.87H111.2s-6.32-6.87-39-6.87c-14,0-20.4.31-23.25,1h0s-17.17,2.57-19.25,3.09l1.19,7.88s13.27-3.51,17.38-.66a14.08,14.08,0,0,1,4.74,8c1.53,6.65.88,25.27,26,25.94,14.82,0,23.11-3.77,27.58-13a104.92,104.92,0,0,0,5.89-14,3.89,3.89,0,0,1,7.51,0,104.92,104.92,0,0,0,5.89,14c4.47,9.2,12.76,13,27.58,13,25.08-.67,24.43-19.29,26-25.94a13.59,13.59,0,0,1,5.79-8.72s10.44.1,15.53,1.45Z"/><path class="cls-2" d="M175.63,96.46a1.2,1.2,0,0,0,1.2,1.22h4.47a1.21,1.21,0,0,0,1.2-1.22h0a1.21,1.21,0,0,0-1.2-1.22h-4.47a1.21,1.21,0,0,0-1.2,1.22Z"/><path class="cls-2" d="M56.68,96.46a1.21,1.21,0,0,1-1.2,1.22H51a1.21,1.21,0,0,1-1.2-1.22h0A1.21,1.21,0,0,1,51,95.24h4.47a1.21,1.21,0,0,1,1.2,1.22Z"/><path class="cls-19" d="M67.8,94.8s14.61-2,28.79,2c8.39,2.66,11.12,6.87,7.63,16.62s-9,17.31-25.18,17S58.53,122.18,58,111.54C57.44,102.23,56.68,95.91,67.8,94.8Z"/><path class="cls-2" d="M96.59,96.8l-.24-.07L76.4,130.25c.68.06,1.39.09,2.13.12L99,97.67C98.24,97.36,97.45,97.07,96.59,96.8Zm-8.16-1.7L68.49,128.6a23.65,23.65,0,0,0,4.28,1.18L94.23,96.19C92.28,95.73,90.33,95.37,88.43,95.1Z"/><path class="cls-19" d="M164.51,94.8s-14.62-2-28.79,2c-8.4,2.66-11.12,6.87-7.63,16.62s9,17.31,25.18,17,20.5-8.21,21-18.85C174.87,102.23,175.63,95.91,164.51,94.8Z"/><path class="cls-2" d="M170.47,96.39l-19.46,34c.73,0,1.48,0,2.26,0h0l19.38-32.25A7.27,7.27,0,0,0,170.47,96.39Zm-6-1.59s-.74-.1-2-.21l-19.79,34.57a28.63,28.63,0,0,0,4.56.94l21.19-34.55A20.2,20.2,0,0,0,164.51,94.8Z"/><path class="cls-7" d="M183.73,127.73a25.08,25.08,0,0,0,21.1-.28c11.07-5.42,16.53-27.65,2.19-33s-18.77,11.18-18.77,11.18Z"/><path class="cls-13" d="M190.4,121S195,96.61,205.61,105c6.54,5.17,2.66,12.39-3.41,15.35C198.39,122.22,193.44,122.39,190.4,121Z"/><path class="cls-17" d="M190.54,120.69l1.58-6.14s20.25-5.78,14.57,2.35S190.54,120.69,190.54,120.69Z"/><path class="cls-7" d="M48.76,125.91a25.07,25.07,0,0,1-21.09-.55c-11-5.56-16.18-27.86-1.76-33s18.62,11.42,18.62,11.42Z"/><path class="cls-13" d="M42.17,119.06s-4.24-24.41-15-16.14c-6.6,5.08-2.82,12.35,3.22,15.39C34.17,120.21,39.12,120.44,42.17,119.06Z"/><path class="cls-17" d="M42.05,118.78l-1.51-6.16s-20.17-6-14.59,2.16S42.05,118.78,42.05,118.78Z"/><path class="cls-20" d="M60.8,157.76s7.7,4.37,7.7,16.85-7.7,20.59-16,22c0,0-19.14-2-17.89-21.64S51.65,152.56,60.8,157.76Z"/><path class="cls-13" d="M60.7,161.91s8.94,9.59.86,17.68c-4.21,4.2-1.73,11.86-9.06,13.15s-10.35-.86-10.35-.86.49,4-11.15,5.66S14.66,180.4,17.74,177.33c-6.47-9.87-4-17.14,2.91-19.25-12-9.86-26.2-24.9-18.44-40.1,4.37-7.28,12.29-1,19.89,8.25S35.52,143.53,43,148.7C52.34,145.47,57,140.3,58.81,135s11.48,1.45,12.29,10.83S65.33,160.24,60.7,161.91Z"/><path class="cls-7" d="M41.94,149.62s-10-7.65-15-13.8S16.07,120.4,10.89,118.25s-12.72,6.68-7.44,18,20,21.89,30.19,26.52c5.17,2.37,3.12,4.1-2.16,1.73s-9.59-4.75-9.59-4.75c-3.56,1-8.09,5.07-5.39,11.32s6.79,8.3,12.5,10.35,14.23,3.34,15.09-2.91c.87-5.07-.1-8.41-2.58-9.7s-1.62-3.77,1.94-1.94,6.9,11.21-.33,18.43a7.1,7.1,0,0,1,.08,5.37s6.31,1.94,9.38,0,4.21-4.13,3.24-6.8-.49-4.12,1-3.63,4.61-1.38,5.9-5-1-11.56-3-12.2c-1.17,1.17-2.26,3-3.07,2.18s-2.35-2.67,1.41-3.92,8.69-3.84,9.82-8.37,1.46-11.32-1.94-14.72-5.25-3.55-7,.21S46.49,153.29,41.94,149.62Z"/><path class="cls-7" d="M19.35,180.64s7.44,5.5,20.38,4.77c2.29,1,2,6.79-2,8.65s-11.81,3.24-15-1.37S17.49,181.77,19.35,180.64Z"/><path class="cls-13" d="M49,152.1s-4.13,7.36-4.13,9.7c0,1-4,1.3-2.75-1.78S49,150,49,152.1Z"/><path class="cls-19" d="M166.58,138.52s16.85,6.55,16.85,24.33c0-10.92,8.12-23.09,15.6-23.09-12.68-6.24-14.66-18.41-14.66-24.65C180.62,126.66,178.44,138.52,166.58,138.52Z"/></g></g></svg>