<?xml version="1.0" standalone="no"?><!DOCTYPE svg PUBLIC "-//W3C//DTD SVG 1.1//EN" "http://www.w3.org/Graphics/SVG/1.1/DTD/svg11.dtd"><svg t="1548309842143" class="icon" style="" viewBox="0 0 1024 1024" version="1.1" xmlns="http://www.w3.org/2000/svg" p-id="1165" xmlns:xlink="http://www.w3.org/1999/xlink" width="200" height="200"><defs><style type="text/css"></style></defs><path d="M137.728 124.110933c-7.4912 0-13.604267 6.1248-13.604267 13.6416v279.319467c0 7.515733 6.113067 13.640533 13.604267 13.640533h279.306667c7.528533 0 13.629867-6.1248 13.629866-13.640533V137.752533c0-7.515733-6.101333-13.6416-13.629866-13.6416H137.728z m476.654933 0c-7.492267 0-13.642667 6.1248-13.642666 13.6416v279.319467c0 7.515733 6.1504 13.640533 13.642666 13.640533h279.344c7.490133 0 13.640533-6.1248 13.640534-13.640533V137.752533c0-7.515733-6.1504-13.6416-13.640534-13.6416H614.382933z m0-33.188266h279.344c25.745067 0 46.8288 21.0848 46.8288 46.8288v279.319466c0 25.745067-21.0848 46.8288-46.8288 46.8288H614.382933c-25.720533 0-46.8064-21.0848-46.8064-46.8288V137.752533c0.001067-25.745067 21.061333-46.829867 46.8064-46.829866zM137.728 600.802133c-7.4912 0-13.604267 6.1024-13.604267 13.618134v279.319466c0 7.466667 6.113067 13.617067 13.604267 13.617067h279.306667c7.528533 0 13.629867-6.1504 13.629866-13.617067V614.420267c0-7.515733-6.101333-13.618133-13.629866-13.618134H137.728z m0-33.236266h279.306667c25.7824 0 46.8544 21.0848 46.8544 46.8544v279.319466c0 25.745067-21.072 46.804267-46.8544 46.804267H137.728c-25.7568 0-46.818133-21.0592-46.818133-46.804267V614.420267c0-25.770667 21.060267-46.8544 46.818133-46.8544z m476.654933 0h279.344c25.745067 0 46.8288 21.0848 46.8288 46.8544v279.319466c0 25.745067-21.0848 46.804267-46.8288 46.804267H614.382933c-25.720533 0-46.8064-21.0592-46.8064-46.804267V614.420267c0.001067-25.770667 21.061333-46.8544 46.8064-46.8544zM137.728 90.922667h279.306667c25.7824 0 46.8544 21.0848 46.8544 46.8288v279.319466c0 25.745067-21.072 46.8288-46.8544 46.8288H137.728c-25.7568 0-46.818133-21.0848-46.818133-46.8288V137.752533c0-25.745067 21.060267-46.829867 46.818133-46.829866z m0 0" fill="" p-id="1166"></path></svg>