<svg xmlns="http://www.w3.org/2000/svg" viewBox="0 0 244.52 260"><defs><style>.cls-1{fill:#f9dab4;}.cls-2{fill:#f7cea6;}.cls-3{fill:#b6d887;}.cls-4{fill:#97bf67;}.cls-5{fill:#e8be9c;}.cls-6{fill:#e59a23;}.cls-7{fill:#515151;}.cls-8{fill:#2f3233;}.cls-9{fill:#3f4142;}.cls-10{fill:#939393;}.cls-11{fill:#fff;}.cls-12{fill:#e5be9e;}.cls-13{fill:#6b4627;}.cls-14{fill:#ea6868;}.cls-15{fill:#d35757;}.cls-16{fill:#f9f7f2;}</style></defs><title>资源 216</title><g id="图层_2" data-name="图层 2"><g id="Layer_1" data-name="Layer 1"><path class="cls-1" d="M216.88,179.42l-39.24,14.74S184.33,213,191.11,229c3.89,9.2,8.51,20.29,13.08,31h40.33c-.68-27.72-8.28-34.92-14-52.86C224.1,186.83,216.88,179.42,216.88,179.42Z"/><path class="cls-2" d="M216.88,179.42l-13.51,5.07c25.12,12.26,33.66,54.9,36.37,75.51h4.78c-.68-27.72-8.28-34.92-14-52.86C224.1,186.83,216.88,179.42,216.88,179.42Z"/><path class="cls-2" d="M197.51,244.22c2.18,5.17,4.44,10.52,6.68,15.78h.88C201.36,252.2,197.51,244.22,197.51,244.22Z"/><path class="cls-2" d="M206.14,224.51c-7-2.34-20.69-23-20.69-23-1.56.27-2.56,2.23-3.16,5.31,2.46,6.52,5.63,14.67,8.82,22.21,3.89,9.21,8.51,20.29,13.08,31h3.29c-.59-5.21-1.51-12.5-2.61-17.82-1.9-9.22-2.78-14.35,1.14-14S213.17,226.86,206.14,224.51Z"/><path class="cls-3" d="M168.15,140.34s34.67-.75,51.9,42.93c-15.37,4.83-26.4,8.44-39.68,21.72a586.74,586.74,0,0,0-32.8-54.66Z"/><path class="cls-4" d="M168.15,140.34s34.67-.75,51.9,42.93c-15.37,4.83-26.4,8.44-39.68,21.72-1.37-2.63-2.76-5.24-4.16-7.81,9.93-5,24.94-12.53,29-14.45,6.15-2.92,10.54-6.15,1.17-16.39s-29.88-22.83-40.71-5.86l-6.93,6.93c-6.5-10.37-11.13-17.08-11.13-17.08Z"/><path class="cls-1" d="M14,207.14C8.28,225.08.68,232.28,0,260H40.33c4.57-10.71,9.19-21.8,13.08-31,6.78-16,13.47-34.84,13.47-34.84L27.64,179.42S20.41,186.83,14,207.14Z"/><path class="cls-2" d="M40.33,260c2.24-5.26,4.5-10.61,6.67-15.78,0,0-3.84,8-7.55,15.78Z"/><path class="cls-2" d="M27.64,179.42S20.41,186.83,14,207.14C8.28,225.08.68,232.28,0,260H4.78c2.7-20.61,11.25-63.25,36.37-75.51Z"/><path class="cls-2" d="M59.07,201.48s-13.67,20.69-20.69,23-3.79,4,.13,3.66,3,4.79,1.13,14c-1.09,5.32-2,12.61-2.6,17.82h3.29c4.57-10.71,9.19-21.79,13.08-31,3.19-7.54,6.35-15.69,8.82-22.21C61.63,203.71,60.62,201.75,59.07,201.48Z"/><path class="cls-3" d="M76.37,140.34s-34.68-.75-51.9,42.93c15.37,4.83,26.4,8.44,39.67,21.72a589.26,589.26,0,0,1,32.8-54.66Z"/><path class="cls-4" d="M76.37,140.34s-34.68-.75-51.9,42.93c15.37,4.83,26.4,8.44,39.67,21.72,1.37-2.63,2.77-5.24,4.17-7.81-9.93-5-24.94-12.53-29-14.45-6.15-2.92-10.54-6.15-1.17-16.39s29.88-22.83,40.7-5.86l6.94,6.93c6.5-10.37,11.12-17.08,11.12-17.08Z"/><rect class="cls-5" x="93.53" y="144.37" width="60.1" height="48.84"/><path class="cls-4" d="M88.35,137.83S45.3,189.11,38.2,260H206.36c-4-48.8-14.49-82.53-45.66-123.23l-14.17,3c1.56,22.65-8.59,37.88-30.45,32.8s-18-34.75-18-34.75Z"/><path class="cls-3" d="M172.75,157.42c-4.94-10.36-10-9.63-15.29-8.07s-9.17,4.3-10.6,10.2c-6.32,18.39-20.24,17.91-31.93,15.91s-21.3-17.13-21.3-17.13c-3.78-4.65-6.45-5.27-11.13-5.27C66.93,165.47,44.69,234.69,41.12,260H203.63c.45-11.15-2-28.22-6.84-46.87C190,187,179.3,171.14,172.75,157.42Z"/><path class="cls-4" d="M120.18,260h2.34V173.51c-.77,0-1.54-.1-2.34-.2Z"/><path class="cls-6" d="M72.55,180.2a.48.48,0,1,0-.07,1,1.47,1.47,0,0,0,1.08-.36,1.43,1.43,0,0,0,.5-1,1.7,1.7,0,0,0-.43-1.25,1.73,1.73,0,0,0-1.18-.59,2.08,2.08,0,0,0-1.48.5,2,2,0,0,0-.7,1.41,2.43,2.43,0,0,0,.6,1.76,2.4,2.4,0,0,0,1.67.82,2.91,2.91,0,0,0,3.11-2.72A3.52,3.52,0,0,0,72.36,176a4.29,4.29,0,0,0-4.57,4,5.28,5.28,0,0,0,1.29,3.8,5.22,5.22,0,0,0,3.6,1.77,6.41,6.41,0,0,0,6.84-6,7.88,7.88,0,0,0-1.94-5.74h0a7.87,7.87,0,0,0-5.43-2.68.48.48,0,0,0-.52.45.5.5,0,0,0,.46.51h0a7,7,0,0,1,6.48,7.39,5.47,5.47,0,0,1-5.81,5.1,4.28,4.28,0,0,1-4-4.55,3.34,3.34,0,0,1,3.54-3.1,2.57,2.57,0,0,1,1.75.87,2.52,2.52,0,0,1,.63,1.86A1.9,1.9,0,0,1,74,181a2,2,0,0,1-1.41.48,1.47,1.47,0,0,1-1.37-1.56,1.06,1.06,0,0,1,1.15-1,.73.73,0,0,1,.52.26.71.71,0,0,1,.18.55.47.47,0,0,1-.17.35A.5.5,0,0,1,72.55,180.2Z"/><path class="cls-6" d="M45.63,260h3A11.9,11.9,0,0,0,50,258.06a13.43,13.43,0,0,0-5.23-18.24,16.64,16.64,0,0,0-3.28-1.37c-.13.66-.27,1.32-.4,2a14.46,14.46,0,0,1,2.7,1.16,11.39,11.39,0,0,1,4.44,15.49A8.9,8.9,0,0,1,45.63,260Z"/><path class="cls-6" d="M40.23,254.94a1,1,0,0,0,1.37-.4,3,3,0,0,0,.27-2.35,3.09,3.09,0,0,0-1.47-1.85,3.94,3.94,0,0,0-.95-.36c-.1.67-.2,1.35-.29,2a1.45,1.45,0,0,1,.26.11,1.08,1.08,0,0,1,.51.64,1,1,0,0,1-.1.81A1,1,0,0,0,40.23,254.94Z"/><path class="cls-6" d="M38.4,258A5.12,5.12,0,0,0,41,258a5,5,0,0,0,3-2.42,6.08,6.08,0,0,0-2.37-8.27,7.21,7.21,0,0,0-1.69-.68c-.11.67-.21,1.34-.32,2a5.8,5.8,0,0,1,1,.44,4.08,4.08,0,0,1,1.59,5.54A3.06,3.06,0,0,1,40.45,256a3,3,0,0,1-1.81-.05Z"/><path class="cls-6" d="M184.09,257a3.52,3.52,0,0,0-2.61-.7,3.56,3.56,0,0,0-2.34,1.36,4.28,4.28,0,0,0-.87,2.33h1.18a3.12,3.12,0,0,1,.62-1.62,2.36,2.36,0,0,1,1.57-.9,2.32,2.32,0,0,1,1.74.46,1.76,1.76,0,0,1,.68,1.17,1.71,1.71,0,0,1-.12.89h1.23a2.81,2.81,0,0,0,.05-1A3,3,0,0,0,184.09,257Z"/><path class="cls-6" d="M188.4,260a6.11,6.11,0,0,0,.06-2,6.29,6.29,0,0,0-2.43-4.2,7.76,7.76,0,0,0-10.9,1.45,9.53,9.53,0,0,0-1.91,4.75h1.18a8.31,8.31,0,0,1,1.66-4,6.61,6.61,0,0,1,9.26-1.23,5.15,5.15,0,0,1,2,3.42,5.23,5.23,0,0,1-.09,1.85Z"/><path class="cls-6" d="M181.72,259.37a.61.61,0,0,1,.41-.23.56.56,0,0,1,.46.12.59.59,0,1,0,.71-.93,1.78,1.78,0,0,0-2.51.33,2,2,0,0,0-.42,1.34h1.16A.92.92,0,0,1,181.72,259.37Z"/><path class="cls-6" d="M200.52,236.09a11.35,11.35,0,0,1-8.71-.13,8.93,8.93,0,0,1-4.64-11.72,6.94,6.94,0,0,1,9.11-3.61,5.35,5.35,0,0,1,2.78,7,4.1,4.1,0,0,1-2.24,2.17,4,4,0,0,1-3.11,0,3.05,3.05,0,0,1-1.59-4,2.27,2.27,0,0,1,1.23-1.19,2.23,2.23,0,0,1,1.72,0,1.59,1.59,0,0,1,.84.87,1.57,1.57,0,0,1,0,1.22,1.07,1.07,0,0,1-1.4.56,1,1,0,0,0-.81,1.85,3.09,3.09,0,0,0,4.07-1.61,3.62,3.62,0,0,0-1.88-4.75,4.29,4.29,0,0,0-5.61,2.22,5.09,5.09,0,0,0,0,3.89,5,5,0,0,0,2.7,2.78,6.06,6.06,0,0,0,8-3.17,7.35,7.35,0,0,0-3.83-9.67,8.93,8.93,0,0,0-11.76,4.66A10.93,10.93,0,0,0,191,237.81a13.38,13.38,0,0,0,10.26.16,13.74,13.74,0,0,0,2.46-1.29c-.11-.75-.22-1.5-.34-2.24A11.39,11.39,0,0,1,200.52,236.09Z"/><path class="cls-6" d="M89.37,260h0l0,0h.89l0,0A.59.59,0,0,0,89.37,260Z"/><path class="cls-6" d="M66.58,207.15a6.43,6.43,0,0,0-9,1.2A8,8,0,0,0,56,214.2h0a7.89,7.89,0,0,0,3,5.24.47.47,0,0,0,.68-.09.48.48,0,0,0-.09-.67h0a6.94,6.94,0,0,1-1.3-9.74A5.44,5.44,0,0,1,62,206.85a5.38,5.38,0,0,1,4,1.07,4.29,4.29,0,0,1,.8,6,3.32,3.32,0,0,1-4.66.61,2.56,2.56,0,0,1-1-1.69,2.51,2.51,0,0,1,.51-1.9,1.92,1.92,0,0,1,1.29-.75,2,2,0,0,1,1.44.39,1.47,1.47,0,0,1,.27,2.06,1.08,1.08,0,0,1-.71.41,1.1,1.1,0,0,1-.79-.22.73.73,0,0,1-.29-.5.74.74,0,0,1,.15-.57.46.46,0,0,1,.34-.19.46.46,0,0,1,.37.1.49.49,0,0,0,.68-.09.47.47,0,0,0-.09-.68,1.46,1.46,0,0,0-1.09-.29,1.43,1.43,0,0,0-1,.57,1.73,1.73,0,0,0,.32,2.42,2,2,0,0,0,1.51.4,2,2,0,0,0,1.35-.78,2.38,2.38,0,0,0,.48-1.8,2.44,2.44,0,0,0-.93-1.61,2.91,2.91,0,0,0-4.09.54,3.53,3.53,0,0,0,.65,5,4.29,4.29,0,0,0,6-.8,5.25,5.25,0,0,0-1-7.35Z"/><path class="cls-6" d="M173.87,182a.59.59,0,0,1-.47,0,.59.59,0,0,0-.77.3.58.58,0,0,0,.3.77,1.79,1.79,0,0,0,2.35-.93,2.08,2.08,0,0,0-1.09-2.75A2.49,2.49,0,0,0,171,180.7a2.94,2.94,0,0,0,1.53,3.86,3.52,3.52,0,0,0,4.63-1.84,4.24,4.24,0,0,0,.06-3.26,4.33,4.33,0,0,0-2.27-2.34,5.25,5.25,0,0,0-4-.06,5.18,5.18,0,0,0-2.84,2.76,6.32,6.32,0,0,0,3.29,8.32,7.77,7.77,0,0,0,10.21-4,9.53,9.53,0,0,0,.11-7.3h0a9.55,9.55,0,0,0-5.09-5.25.58.58,0,0,0-.77.31.57.57,0,0,0,.31.76h0a8.4,8.4,0,0,1,4.37,11,6.6,6.6,0,0,1-3.63,3.51,6.53,6.53,0,0,1-5-.07,5.16,5.16,0,0,1-2.75-2.84,5.11,5.11,0,0,1,.06-3.95,4,4,0,0,1,5.27-2.08,3.08,3.08,0,0,1,1.61,4.06,2.37,2.37,0,0,1-1.29,1.26,2.34,2.34,0,0,1-1.8,0,1.75,1.75,0,0,1-.92-2.33,1.28,1.28,0,0,1,1.7-.67.92.92,0,0,1,.48,1.21A.61.61,0,0,1,173.87,182Z"/><path class="cls-6" d="M77.48,260a6.62,6.62,0,0,1-1.93-4.68,6.55,6.55,0,0,1,1.94-4.67,5.17,5.17,0,0,1,7.3,0,4,4,0,0,1,0,5.68,3,3,0,0,1-2.19.91,3.08,3.08,0,0,1-2.19-.91,2.35,2.35,0,0,1,0-3.33,1.77,1.77,0,0,1,2.51,0,1.29,1.29,0,0,1,.38.91,1.33,1.33,0,0,1-.38.93.94.94,0,0,1-.65.26.93.93,0,0,1-.66-.27.6.6,0,0,1-.18-.44.6.6,0,0,1,.18-.43.59.59,0,0,0,0-.83.59.59,0,0,0-.83,0,1.77,1.77,0,0,0,0,2.53,2.06,2.06,0,0,0,1.48.61,2.09,2.09,0,0,0,1.48-.61,2.47,2.47,0,0,0,0-3.49,2.95,2.95,0,0,0-4.16,0,3.51,3.51,0,0,0,0,5,4.26,4.26,0,0,0,6,0,5.19,5.19,0,0,0,0-7.34,6.35,6.35,0,0,0-9,0A7.77,7.77,0,0,0,76,260h1.55Z"/><path class="cls-6" d="M139.66,179.19a.64.64,0,0,1,.46.12.59.59,0,0,0,.82-.1.58.58,0,0,0-.11-.82,1.74,1.74,0,0,0-1.32-.36,1.79,1.79,0,0,0-1.19.69,2.09,2.09,0,0,0-.41,1.55,2.06,2.06,0,0,0,.8,1.38,2.46,2.46,0,0,0,3.46-.46,2.94,2.94,0,0,0-.55-4.12,3.47,3.47,0,0,0-2.61-.7,3.54,3.54,0,0,0-2.34,1.36,4.26,4.26,0,0,0,.8,6,5.19,5.19,0,0,0,7.27-1,6.26,6.26,0,0,0,1.25-4.68,6.34,6.34,0,0,0-2.43-4.21,7.78,7.78,0,0,0-10.9,1.45,9.54,9.54,0,0,0-1.89,7.08h0a9.55,9.55,0,0,0,3.67,6.34.59.59,0,0,0,.71-.93h0A8.4,8.4,0,0,1,133.59,176a6.59,6.59,0,0,1,9.26-1.23,5.16,5.16,0,0,1,1,7.24,4,4,0,0,1-5.63.75,3.09,3.09,0,0,1-.58-4.34,2.37,2.37,0,0,1,1.57-.91,2.33,2.33,0,0,1,1.74.47,1.77,1.77,0,0,1,.33,2.48,1.27,1.27,0,0,1-.86.5,1.31,1.31,0,0,1-1-.26.93.93,0,0,1-.17-1.29A.61.61,0,0,1,139.66,179.19Z"/><rect class="cls-7" x="55.52" y="168.87" width="60.03" height="8.49" transform="translate(-89.08 255.55) rotate(-88.98)"/><rect class="cls-7" x="133.01" y="170.32" width="60.03" height="8.49" transform="translate(-14.42 334.45) rotate(-88.98)"/><path class="cls-8" d="M172.35,191.41,151.46,191a2.15,2.15,0,0,0-.08,4.29l.69,0-.12,6.34,19,.34.11-6.34,1.17,0a2.15,2.15,0,0,0,.08-4.3Z"/><path class="cls-9" d="M82.78,199s16.24-1.86,18.71-8.65,10-13.29,23.27-13.06,20,8.37,19.88,13.05,5.51,8.5,15.86,8.68,17.4-1.64,17.14,12.8,2.21,29.53-8.33,29.34-41.28,0-54.09,0c-14.25,0-45.19,4.85-46.11-9S66.94,200.66,82.78,199Z"/><path class="cls-10" d="M132.77,188.25a4.69,4.69,0,0,1-4.72,4.65l-11.13-.08a4.68,4.68,0,0,1-4.65-4.72h0a4.69,4.69,0,0,1,4.72-4.65l11.12.08a4.7,4.7,0,0,1,4.66,4.72Z"/><path class="cls-8" d="M139.63,219.43a18.06,18.06,0,1,1-17.73-18.38A18.07,18.07,0,0,1,139.63,219.43Z"/><path class="cls-10" d="M135.14,219.35a13.57,13.57,0,1,1-13.33-13.81A13.58,13.58,0,0,1,135.14,219.35Z"/><path class="cls-11" d="M128.26,207.3l-7.81,25.33.88.05c.37,0,.74,0,1.1,0l7.48-24.24A13.22,13.22,0,0,0,128.26,207.3Zm-6.45-1.76h0l-7.68,24.9a13.65,13.65,0,0,0,3.47,1.64l8-25.93A13.77,13.77,0,0,0,121.81,205.54Z"/><circle class="cls-1" cx="122.81" cy="83.46" r="83.46" transform="translate(-8.37 13.9) rotate(-6.26)"/><path class="cls-1" d="M194.9,116.91s7.86,16.65,24.87-2.2c8.94-9.91,11.74-33.86-5.81-34.78-15.56-.82-17.69,18.79-17.69,18.79Z"/><path class="cls-2" d="M207.4,94.39c-.88,3.21-1,7-1.41,9.15a44,44,0,0,1-1,4.95c-1.22,4,5.33,1.44,6.82.6,5.92-3.36,12.88-17.08,3-20C210.37,87.83,208.4,90.72,207.4,94.39Z"/><path class="cls-12" d="M219.68,96.56c-.5,4.87-4.39,10.53-7.91,12.53-1.49.84-8,3.35-6.82-.6a25.16,25.16,0,0,0,.63-2.7h0C208.78,98.33,216,96.83,219.68,96.56Z"/><path class="cls-2" d="M196,118.72l1.44-2s6.23,5,13.18,2,16.59-13.46,16.05-26.18c.85,7.64-2.17,16.88-6.92,22.15C206.44,129.48,198.73,122.45,196,118.72Z"/><path class="cls-1" d="M50.83,116.91S43,133.56,26,114.71C17,104.8,14.23,80.85,31.78,79.93c15.56-.82,17.69,18.79,17.69,18.79Z"/><path class="cls-2" d="M38.33,94.39c.88,3.21,1,7,1.41,9.15a41.89,41.89,0,0,0,1,4.95c1.22,4-5.34,1.44-6.83.6C28,105.73,21.09,92,31,89.12,35.36,87.83,37.33,90.72,38.33,94.39Z"/><path class="cls-12" d="M26.06,96.56c.49,4.87,4.38,10.53,7.9,12.53,1.49.84,8,3.35,6.83-.6a23,23,0,0,1-.64-2.7h0C37,98.33,29.73,96.83,26.06,96.56Z"/><path class="cls-2" d="M49.71,118.72l-1.44-2s-6.23,5-13.18,2-16.59-13.46-16-26.18c-.86,7.64,2.16,16.88,6.92,22.15C39.29,129.48,47,122.45,49.71,118.72Z"/><path class="cls-11" d="M187.22,38.29c-8-13.25-20.61-21.2-31.11-25.87A87,87,0,0,0,137,6.36a1.46,1.46,0,1,0-.48,2.89s.49.08,1.41.28c6.5,1.34,33.55,8.35,46.78,30.28a1.45,1.45,0,0,0,1.25.7,1.5,1.5,0,0,0,.76-.21A1.46,1.46,0,0,0,187.22,38.29ZM127.59,3.9c-2.91,0-5.27,1.23-5.27,2.74s2.36,2.73,5.27,2.73,5.28-1.22,5.28-2.73S130.51,3.9,127.59,3.9Z"/><path class="cls-13" d="M92.81,86.51A10.64,10.64,0,1,1,82.17,75.69,10.73,10.73,0,0,1,92.81,86.51Z"/><path class="cls-11" d="M89.75,83.14C89,84.89,86,85.29,83.15,84s-4.57-3.7-3.8-5.45,3.72-2.15,6.59-.89S90.52,81.39,89.75,83.14Z"/><path class="cls-13" d="M171.58,86.51A10.64,10.64,0,1,1,161,75.69,10.72,10.72,0,0,1,171.58,86.51Z"/><path class="cls-11" d="M168.52,83.14c-.77,1.75-3.72,2.15-6.59.88s-4.57-3.7-3.8-5.45,3.72-2.15,6.59-.89S169.29,81.39,168.52,83.14Z"/><path class="cls-13" d="M63.66,74.58S80,64.82,92.36,62.28l-1-12.3S68.05,59.54,63.66,74.58Z"/><path class="cls-13" d="M181.21,72.82s-16.93-9.76-29.67-12.3l3.14-12.3S176.68,60.13,181.21,72.82Z"/><path class="cls-14" d="M98.51,131.39s27.47-1.64,39.82-4.3c0,0-2.93,18-14.25,22.85S100.41,138.42,98.51,131.39Z"/><path class="cls-15" d="M124.08,149.94c3.94-1.7,6.86-5,9-8.55a20.3,20.3,0,0,0-9.87-2.46c-6.37,0-11.92,2.73-14.81,6.76C113,149.74,118.67,152.27,124.08,149.94Z"/><path class="cls-2" d="M68.52,130.76a21.54,21.54,0,0,1-5-8.48h0A44.91,44.91,0,0,1,61.41,109h0v-.13h0a1.17,1.17,0,0,1,1.21-1.13h0A1.16,1.16,0,0,1,63.75,109h0v0h0a44.85,44.85,0,0,0,.88,8.25h0c.84,4.14,2.51,8.85,5.53,11.81h0a11.14,11.14,0,0,0,8.17,3.26h0a20.67,20.67,0,0,0,7-1.38h0a1.18,1.18,0,0,1,1.5.7h0a1.18,1.18,0,0,1-.7,1.5h0a22.89,22.89,0,0,1-7.79,1.52h0a13.49,13.49,0,0,1-9.76-3.93Z"/><path class="cls-2" d="M152.86,139a1.17,1.17,0,0,1-.82-1.44h0a1.17,1.17,0,0,1,1.44-.82h0l.38.09h0c.26.06.65.14,1.14.22h0a25.18,25.18,0,0,0,4,.31h0a17.87,17.87,0,0,0,10.7-3.16h0c3.39-2.51,6.28-6.88,7.12-14.8h0a1.18,1.18,0,0,1,1.29-1h0a1.18,1.18,0,0,1,1,1.29h0c-.86,8.39-4.08,13.53-8.06,16.45h0A20.25,20.25,0,0,1,159,139.67h0a25.15,25.15,0,0,1-6.12-.71Z"/><path class="cls-2" d="M131.66,81.1s11,24.13-.17,33.28-25.73,3.76-28.15-2.86c-4.26-11.71,6-15.3,8-31.31a12.39,12.39,0,0,1,9.55-4.27C127.31,75.86,131.66,81.1,131.66,81.1Z"/><path class="cls-1" d="M130.68,80.08s9.78,20.49-.18,28.86-22.92,3.42-25.07-2.64c-3.8-10.72,5.22-13.09,7-27.73a12.5,12.5,0,0,1,8.67-3.21C126.79,75.29,130.68,80.08,130.68,80.08Z"/><path class="cls-16" d="M112.21,104.86c0,.82,1.67,1.44,3.67,1.38s3.59-.77,3.57-1.59-1.68-1.43-3.67-1.37S112.19,104.05,112.21,104.86Z"/></g></g></svg>