<svg xmlns="http://www.w3.org/2000/svg" viewBox="0 0 176.16 307.06"><defs><style>.cls-1{fill:#7b979b;}.cls-2{fill:#698284;}.cls-3{fill:#84a1a7;}.cls-4{fill:#494949;}.cls-5{fill:#3d3d3d;}.cls-6{fill:#2d2d2d;}.cls-7{fill:#f4d3b0;}.cls-8{fill:#f9dab4;}.cls-9{fill:#3a332d;}.cls-10{fill:#c65044;}.cls-11{fill:#efc4a0;}</style></defs><title>资源 185</title><g id="图层_2" data-name="图层 2"><g id="Layer_1" data-name="Layer 1"><path class="cls-1" d="M109.63,187.2s32.49,6.15,33,26.69-41,13.19-41,13.19L88.4,198.34Z"/><path class="cls-1" d="M59.87,187.2s-32.49,6.15-32.95,26.69,41,13.19,41,13.19L81.1,198.34Z"/><path class="cls-2" d="M126.92,201.77c0,3.89-18.89,7-42.17,7s-42.17-3.15-42.17-7,18.88-7.05,42.17-7.05S126.92,197.88,126.92,201.77Z"/><path class="cls-3" d="M84.75,206.32l-14.09,0v.08h-.37s-26.66-2.67-28.92,21.84c-1.29,13.91-5.73,47.52-11.28,78.86H139.41c-5.55-31.34-10-64.95-11.27-78.86-2.27-24.51-28.93-21.84-28.93-21.84h-.37v-.08Z"/><path class="cls-4" d="M124.74,46.74s-13.87-10.42-8.11-28.13S139.81-5.15,155.29,4.73s9.39,29.45,8.91,34.19,0,18.78,12,10.47c0,0-.82,7.33-9.27,10.49l6,.08S166.5,71.34,152,67.64,124.74,46.74,124.74,46.74Z"/><path class="cls-5" d="M157.47,66.8a35.24,35.24,0,0,1-13-8.79c-4.88-4-8-9.59-13.19-13.56-3.69-2.83-7.59-3.26-11.59-3.28a25.61,25.61,0,0,0,5,5.57s12.7,17.2,27.23,20.9a20.64,20.64,0,0,0,9.48.34A38.45,38.45,0,0,1,157.47,66.8Z"/><path class="cls-6" d="M113.65,53.76l5.69-14.93s9.23,1.16,13.32,7.29l-5.94,14.79Z"/><path class="cls-4" d="M169.29,106c-2.44-24.62-30.19-57.48-83.61-58.24v0l-.92,0-.93,0v0C30.41,48.52,2.65,81.38.21,106c-2.46,24.89,17.26,57.14,17.26,57.14l67.29-16.7L152,163.14S171.76,130.89,169.29,106Z"/><path class="cls-7" d="M34.45,152.87s-20.05-11.12-28.52-3.1,6.25,37,39.67,37.43Z"/><path class="cls-7" d="M135,152.87s20.05-11.12,28.52-3.1-6.24,37-39.66,37.43Z"/><path class="cls-8" d="M127.13,109c-26-5.13-42.38,15.38-42.38,15.38S68.4,103.9,42.37,109c-15,2.94-22.53,17.64-26.28,29.61,5.37,24.18,20.25,66,59.65,74.41a35.71,35.71,0,0,0,9,.81,35.75,35.75,0,0,0,9-.81c39.4-8.45,54.27-50.24,59.65-74.42C149.66,126.67,142.09,112,127.13,109Z"/><path class="cls-9" d="M125.28,159.92h0a1.34,1.34,0,0,1-1.33-1.34c0-.31-.06-7.65-6.07-7.86-6.23-.21-7.71,5.94-7.77,6.2a1.33,1.33,0,1,1-2.6-.59c.68-3,3.72-8.5,10.46-8.27s8.67,7,8.65,10.53A1.33,1.33,0,0,1,125.28,159.92Z"/><path class="cls-9" d="M127.56,159.85a9.84,9.84,0,0,1-2.65-.29,1.33,1.33,0,0,1,.73-2.56,12.51,12.51,0,0,0,6.77-.68,1.33,1.33,0,1,1,.87,2.52A17.46,17.46,0,0,1,127.56,159.85Z"/><path class="cls-9" d="M125.11,157.08H125a1.33,1.33,0,1,1,0-2.66h.08c2.44,0,5.8-2.32,6.89-3.21a1.33,1.33,0,1,1,1.7,2C133.51,153.42,129,157.08,125.11,157.08Z"/><path class="cls-4" d="M105.25,133.7l1-3a.73.73,0,0,1,.83-.49c3.56.64,21.2,4.14,27.94,11.33a.73.73,0,0,1-.06,1.06l-2.38,2a.75.75,0,0,1-.92,0c-2.07-1.54-11.15-7.68-25.81-10A.74.74,0,0,1,105.25,133.7Z"/><path class="cls-9" d="M44.23,159.92h0a1.32,1.32,0,0,0,1.32-1.34c0-.31.07-7.65,6.08-7.86,6.23-.21,7.71,5.94,7.77,6.2a1.33,1.33,0,1,0,2.6-.59c-.67-3-3.73-8.5-10.46-8.27s-8.67,7-8.65,10.53A1.33,1.33,0,0,0,44.23,159.92Z"/><path class="cls-9" d="M42,159.85a9.84,9.84,0,0,0,2.65-.29,1.33,1.33,0,0,0-.73-2.56,12.51,12.51,0,0,1-6.77-.68,1.33,1.33,0,0,0-.88,2.52A17.55,17.55,0,0,0,42,159.85Z"/><path class="cls-9" d="M44.4,157.08h.1a1.33,1.33,0,0,0,0-2.66H44.4c-2.44,0-5.8-2.32-6.89-3.21a1.33,1.33,0,1,0-1.69,2C36,153.42,40.49,157.08,44.4,157.08Z"/><path class="cls-4" d="M64.58,135.35l-.64-3.08a.75.75,0,0,0-.77-.59c-3.61.25-21.54,1.75-29,8.15a.71.71,0,0,0-.05,1l2.14,2.29a.72.72,0,0,0,.89.13c2.24-1.29,12-6.38,26.78-7.07A.74.74,0,0,0,64.58,135.35Z"/><path class="cls-10" d="M69.7,181.81s3.8-4.88,8.18-4.66A9.29,9.29,0,0,1,84.65,181s3.93-3.74,8.53-3.67,6.62,4.88,6.62,4.88a17.83,17.83,0,0,1-15.49,9.13A15.84,15.84,0,0,1,69.7,181.81Z"/><path class="cls-11" d="M77.7,169.73s.7-6.31,6.79-6.34,7.32,6.34,7.32,6.34-3.32-3.89-7.21-3.89S77.7,169.73,77.7,169.73Z"/></g></g></svg>