<?xml version="1.0" standalone="no"?><!DOCTYPE svg PUBLIC "-//W3C//DTD SVG 1.1//EN" "http://www.w3.org/Graphics/SVG/1.1/DTD/svg11.dtd"><svg t="1548421869428" class="icon" style="" viewBox="0 0 1024 1024" version="1.1" xmlns="http://www.w3.org/2000/svg" p-id="19509" xmlns:xlink="http://www.w3.org/1999/xlink" width="200" height="200"><defs><style type="text/css"></style></defs><path d="M957 72H842V22c0-5.5-4.5-10-10-10H192c-5.5 0-10 4.5-10 10v50H67c-30.4 0-55 24.6-55 55v185c0 102.1 75 187 172.8 202.5C204 659.8 320.8 774.3 467 790.1v131.5H222c-22.1 0-40 17.9-40 40v40.4c0 5.5 4.5 10 10 10h640c5.5 0 10-4.5 10-10v-40.4c0-22.1-17.9-40-40-40H557V790.1c146.2-15.9 263-130.4 282.2-275.6C937 499 1012 414.1 1012 312V127c0-30.4-24.6-55-55-55zM182 421.5c-46.4-14.9-80-58.4-80-109.5V162h80v259.5zM922 312c0 51.2-33.6 94.8-80 109.5V162h80v150z" fill="#FFC03F" p-id="19510"></path><path d="M512 398.4m-250 0a250 250 0 1 0 500 0 250 250 0 1 0-500 0Z" fill="#F0B52D" p-id="19511"></path><path d="M557.5 239.3v323.4h-80.7V389.3c0-25-0.6-40.1-1.8-45.1-1.2-5.1-4.5-8.9-9.9-11.5-5.4-2.6-17.4-3.9-36.1-3.9h-8V291c39-8.4 68.6-25.6 88.9-51.7h47.6z" fill="#FFFFFF" p-id="19512"></path></svg>