<svg xmlns="http://www.w3.org/2000/svg" viewBox="0 0 158.77 260"><defs><style>.cls-1{fill:#d19865;}.cls-2{fill:#f9f5ed;}.cls-3{fill:#e2dcd9;}.cls-4{fill:#c65044;}.cls-5{fill:#ad3e3b;}.cls-6{fill:#f4d3b0;}.cls-7{fill:#f9dab4;}.cls-8{fill:#3a332d;}</style></defs><title>资源 81</title><g id="图层_2" data-name="图层 2"><g id="Layer_1" data-name="Layer 1"><path class="cls-1" d="M79.35,0C1.89,0-2.68,49,2,97.94S2,183,2,183c4.65,5.72,12.55,0,12.55,0a21.72,21.72,0,0,1-10.4,11.09c16.09,63.65,75.23,58.29,75.23,58.29s59.14,5.36,75.24-58.29A21.72,21.72,0,0,1,144.18,183s7.9,5.72,12.55,0c0,0-4.65-36.11,0-85.1S156.81,0,79.35,0Z"/><rect class="cls-2" x="58.16" y="154.13" width="42.71" height="105.87"/><path class="cls-3" d="M83.39,176a4.18,4.18,0,1,1-4.17-4.18A4.18,4.18,0,0,1,83.39,176Z"/><path class="cls-3" d="M83.39,194.62a4.18,4.18,0,1,1-4.17-4.18A4.18,4.18,0,0,1,83.39,194.62Z"/><path class="cls-3" d="M83.39,213.2A4.18,4.18,0,1,1,79.22,209,4.18,4.18,0,0,1,83.39,213.2Z"/><path class="cls-3" d="M83.39,231.78a4.18,4.18,0,1,1-4.17-4.18A4.18,4.18,0,0,1,83.39,231.78Z"/><path class="cls-3" d="M83.39,250.36a4.18,4.18,0,1,1-4.17-4.18A4.18,4.18,0,0,1,83.39,250.36Z"/><polygon class="cls-3" points="68.28 175.25 79.19 161.13 90.1 175.25 105.91 155.98 52.91 155.98 68.28 175.25"/><path class="cls-4" d="M24,195.9c-5.26,36.47-5.18,56.44-4.82,64.1H60c-.29-46.52-.29-102-.29-102l-.24-3.85C47.24,155.94,28.58,164,24,195.9Z"/><polygon class="cls-5" points="40.46 260 45 194.19 35.31 260 40.46 260"/><path class="cls-4" d="M135.08,195.9c5.27,36.47,5.18,56.44,4.82,64.1H99.05c.3-46.52.3-102,.3-102l.23-3.85C111.82,155.94,130.48,164,135.08,195.9Z"/><polygon class="cls-5" points="118.6 260 114.06 194.19 123.75 260 118.6 260"/><path class="cls-6" d="M18.66,109.26a12.48,12.48,0,0,0-12.32-3.67C-.46,107.36-9.34,127,24.83,136.17Z"/><path class="cls-6" d="M140.11,109.26a12.48,12.48,0,0,1,12.32-3.67c6.8,1.77,15.68,21.41-18.49,30.58Z"/><path class="cls-7" d="M119.33,150.67l-23.72,9.18a45,45,0,0,1-32.52,0l-23.72-9.18a38.88,38.88,0,0,1-24.85-36.26V60.75H144.18v53.66A38.88,38.88,0,0,1,119.33,150.67Z"/><path class="cls-4" d="M66,142.11s3.6-5.42,7.76-5.17,6.42,4.25,6.42,4.25,3.74-4.16,8.12-4.07,6.28,5.41,6.28,5.41-4.34,7-14.72,7S66,142.11,66,142.11Z"/><path class="cls-8" d="M36.55,107.55A1.56,1.56,0,0,1,35,106c0-4.17,2.08-12.13,10.18-12.4,7.92-.27,11.52,6.25,12.31,9.73a1.57,1.57,0,1,1-3.06.7c-.08-.32-1.88-7.54-9.14-7.3-7.07.24-7.16,8.89-7.16,9.26a1.57,1.57,0,0,1-1.56,1.57Z"/><path class="cls-8" d="M33.86,107.47a20.71,20.71,0,0,1-6.74-1.19,1.57,1.57,0,0,1,1-3,14.7,14.7,0,0,0,8,.8,1.57,1.57,0,0,1,.86,3A12.46,12.46,0,0,1,33.86,107.47Z"/><path class="cls-8" d="M36.75,104.21c-4.61,0-9.89-4.31-10.11-4.5a1.57,1.57,0,1,1,2-2.42h0c1.29,1.06,5.23,3.78,8.11,3.78h.1a1.57,1.57,0,0,1,0,3.14Z"/><path class="cls-8" d="M120.12,107.55h0a1.56,1.56,0,0,1-1.56-1.58c0-.36-.08-9-7.16-9.25-7.34-.26-9.07,7-9.14,7.3a1.57,1.57,0,1,1-3.06-.7c.8-3.48,4.38-10,12.31-9.73,8.1.27,10.2,8.23,10.18,12.4A1.56,1.56,0,0,1,120.12,107.55Z"/><path class="cls-8" d="M122.8,107.47a12.46,12.46,0,0,1-3.12-.34,1.57,1.57,0,0,1,.86-3,14.75,14.75,0,0,0,8-.8,1.57,1.57,0,0,1,1,3A20.67,20.67,0,0,1,122.8,107.47Z"/><path class="cls-8" d="M119.92,104.21h-.12a1.57,1.57,0,0,1,0-3.14h.1c2.88,0,6.82-2.72,8.11-3.78a1.57,1.57,0,0,1,2,2.42C129.8,99.9,124.52,104.21,119.92,104.21Z"/><path class="cls-1" d="M14.52,106.26S42.73,96,52.67,66.76c0,0,26.93,31.91,92.52,26.56V36.79h-131l-2.37,64Z"/></g></g></svg>