<svg xmlns="http://www.w3.org/2000/svg" viewBox="0 0 161.95 260.02"><defs><style>.cls-1{fill:#6dbdc6;}.cls-2{fill:#4ea8ad;}.cls-3{fill:#3a8d91;}.cls-4{opacity:0.62;}.cls-5{fill:#2a7c7c;}.cls-6{fill:#60b2bf;}.cls-7{fill:#3b938a;}.cls-8{fill:#479993;}.cls-9{fill:#2f3233;}.cls-10{fill:#f9dab4;}.cls-11{fill:#e5be9e;}.cls-12{fill:#f7cea6;}.cls-13{fill:#f9f5ed;}.cls-14{fill:#efc4a0;}</style></defs><title>资源 118</title><g id="图层_2" data-name="图层 2"><g id="Layer_1" data-name="Layer 1"><path class="cls-1" d="M21.41,155.66s-6.7,26.23.8,36.78,13.93,7.2,21.3,13.5,56.12,8.88,69.52,1.93,18.48-16.72,20.89-26.49,7.17-21,2.14-25.85C78.8,155.53,21.41,155.66,21.41,155.66Z"/><path class="cls-2" d="M117.28,200.41v5c10.26-6.69,14.5-15.35,16.64-24,2.28-9.26,6.66-19.84,2.86-25L116.3,169.26s9.06,5.56,10.78,7.23-1.59,5.66-2.91,12.09S117.28,200.41,117.28,200.41Z"/><path class="cls-2" d="M28.76,172.61c5.07,1.81,13.58,4.47,19.88,4.47,2.13-6.62,2.13-8.44,2.13-8.44L34,164.4l-.13.09-9.75-8.84H21.41s-6.7,26.23.8,36.78c3.5,4.92,6.77,6.81,10,8.08C30.57,191.72,26,181,27.6,175.2A10.08,10.08,0,0,1,28.76,172.61Z"/><path class="cls-3" d="M77.13,140.87a244.11,244.11,0,0,1-27.1,2c-12.21,0-29.15,5.72-29.15,14.6s12.73,14.66,32.85,14.66,84.16,1.54,84.16-14.66S107.51,133.92,77.13,140.87Z"/><g class="cls-4"><path class="cls-5" d="M121.52,159.26c-1.19-1.16-.8-1.55,2.12-7.21,1.19-2.32,2.61-5.47,3.87-8.37-11.48-5.85-30.92-7.26-50.38-2.81a244.11,244.11,0,0,1-27.1,2,50,50,0,0,0-19.64,4.2c2.32,2.82,6.27,7.16,10.33,9.62,4.85,2.95-1.41,3.51-4.64,13.56a74.63,74.63,0,0,0,17.65,1.88c14.08,0,49.67.75,69.77-4.35C122.86,163.8,122.09,159.82,121.52,159.26Z"/></g><path class="cls-1" d="M115.29,172.89c-2.38-11.32-3.44-9.65-3.44-9.65l-13.51,1.93s1.08,43.9,2.17,94.85h26.83C127.24,231.8,117.66,184.15,115.29,172.89Z"/><path class="cls-6" d="M115.29,172.89c-2.38-11.32-3.44-9.65-3.44-9.65l-13.51,1.93s1.08,43.9,2.17,94.85H117.7c-.13-9.35-.19-18.69-.21-26.94A259.26,259.26,0,0,1,119.94,197C118,185.91,116.15,177,115.29,172.89Z"/><path class="cls-1" d="M45.75,162.6c-2.14,18.92-6.7,57.57-11.38,97.42H111.8c-.29-30.15,1-97.42,1-97.42S68.53,155.91,45.75,162.6Z"/><path class="cls-7" d="M105.63,168.43a4.44,4.44,0,0,1,.84,2.58,4.58,4.58,0,0,1-4.64,4.5,4.69,4.69,0,0,1-2.65-.81,4.65,4.65,0,0,0,3.79,1.92,4.58,4.58,0,0,0,4.64-4.5A4.44,4.44,0,0,0,105.63,168.43Z"/><path class="cls-8" d="M106.47,171a4.44,4.44,0,0,0-.84-2.58,4.72,4.72,0,0,0-2.66-.81,4.56,4.56,0,0,0-4.63,4.5,4.4,4.4,0,0,0,.84,2.58,4.69,4.69,0,0,0,2.65.81A4.58,4.58,0,0,0,106.47,171Z"/><path class="cls-6" d="M58,160.34a70.09,70.09,0,0,0-12.27,2.26c0,.05,0,.11,0,.16,2,2.93,10.93,5.1,15.05,5.79,5.77,1,30.4-.68,34.38-2.32s8-2.21,14.2-2.21c1.48,0,2.58,0,3.39.1,0-1,0-1.52,0-1.52s-2-.3-5.33-.71a44.73,44.73,0,0,0-12.68,2.7c-9,3.13-25.93,1.45-35.57.39C53.16,164.32,55.46,162,58,160.34Z"/><path class="cls-6" d="M45.75,162.6c-2.14,18.92-6.7,57.57-11.38,97.42h.89c.87-13.57,6.88-43.83,8.1-55.75,1.33-12.86,5.55-24.19,5.55-30.37s11.87-5.35,11.87-5.35L49.29,161.7Q47.45,162.11,45.75,162.6Z"/><path class="cls-6" d="M56.14,160.56c6.56,2.39,23.41,7,41.31.27C85.77,159.76,69.48,158.9,56.14,160.56Z"/><ellipse class="cls-9" cx="81.84" cy="79.61" rx="80.11" ry="79.61"/><path class="cls-10" d="M21.41,103.57s-9.69-10-18.42,0,2.93,29,18.42,18.34Z"/><path class="cls-11" d="M15.65,117.49s.83-11.71-4.07-11.71S5.08,117.49,15.65,117.49Z"/><path class="cls-12" d="M11.58,105.78a3.62,3.62,0,0,0-3.16,2.28c2.27,2.27,5.73,6,7.24,9.21C15.75,115.7,16.09,105.78,11.58,105.78Z"/><path class="cls-10" d="M136.81,103.57s9.69-10,18.42,0-2.92,29-18.42,18.34Z"/><path class="cls-11" d="M142.57,117.49s-.83-11.71,4.07-11.71S153.15,117.49,142.57,117.49Z"/><path class="cls-12" d="M146.64,105.78a3.62,3.62,0,0,1,3.16,2.28c-2.27,2.27-5.73,6-7.24,9.21C142.48,115.7,142.13,105.78,146.64,105.78Z"/><path class="cls-10" d="M19.54,135.16c0,11.85,32.86,30.53,58,30.53,18,0,60.59-5.47,60.59-30.07V66.81H19.54Z"/><path class="cls-9" d="M99.5,87.29s15.71-14.76,27.65.16c0,0,.51-3.89-5.16-7.62-6.11-4-15-2.76-20.12,2.15C98.28,85.43,99.5,87.29,99.5,87.29Z"/><path class="cls-9" d="M31.46,87.29s15.71-14.76,27.65.16c0,0,.51-3.89-5.16-7.62-6.11-4-15-2.76-20.12,2.15C30.24,85.43,31.46,87.29,31.46,87.29Z"/><path class="cls-9" d="M45.74,94.91c-5,0-9.1,3.8-9.1,8.47a7.81,7.81,0,0,0,.17,1.62,4.81,4.81,0,0,1-.82-.32,4.18,4.18,0,0,1-2.23-3.05.52.52,0,0,0-.62-.39.49.49,0,0,0-.42.58,5.19,5.19,0,0,0,2.75,3.72,6.68,6.68,0,0,0,1.66.57c.11.29.23.56.36.83a7.26,7.26,0,0,1-2.43.43,5.46,5.46,0,0,1-2.26-.47,6,6,0,0,1-2.2-1.81.56.56,0,0,0-.74-.1.46.46,0,0,0-.12.68,7,7,0,0,0,2.6,2.11,6.47,6.47,0,0,0,2.72.58,9,9,0,0,0,2.94-.54,9.23,9.23,0,0,0,7.74,4c5,0,9.1-3.8,9.1-8.48S50.77,94.91,45.74,94.91Z"/><path class="cls-13" d="M50.4,99.19a2.07,2.07,0,0,1,.39,3,2.46,2.46,0,0,1-3.26-.27,2.06,2.06,0,0,1-.39-3A2.46,2.46,0,0,1,50.4,99.19Z"/><path class="cls-9" d="M113.49,94.91c5,0,9.1,3.8,9.1,8.47a7.81,7.81,0,0,1-.17,1.62,5.15,5.15,0,0,0,.82-.32,4.18,4.18,0,0,0,2.23-3.05.52.52,0,0,1,.62-.39.49.49,0,0,1,.41.58,5.14,5.14,0,0,1-2.75,3.72,6.48,6.48,0,0,1-1.65.57c-.11.29-.23.56-.36.83a7.26,7.26,0,0,0,2.43.43,5.38,5.38,0,0,0,2.25-.47,5.92,5.92,0,0,0,2.21-1.81.55.55,0,0,1,.74-.1.46.46,0,0,1,.12.68,7,7,0,0,1-2.6,2.11,6.47,6.47,0,0,1-2.72.58,9,9,0,0,1-2.94-.54,9.25,9.25,0,0,1-7.74,4c-5,0-9.11-3.8-9.11-8.48S108.46,94.91,113.49,94.91Z"/><path class="cls-13" d="M118.65,99.19a2.07,2.07,0,0,1,.39,3,2.46,2.46,0,0,1-3.26-.27,2.07,2.07,0,0,1-.39-3A2.46,2.46,0,0,1,118.65,99.19Z"/><path class="cls-14" d="M84.62,114.65a5.49,5.49,0,0,1,1,3.06c0,3.63-3.7,6.56-8.27,6.56S69,121.34,69,117.71a5.5,5.5,0,0,1,1-3.06,7,7,0,0,0-2.6,5.29c0,4.34,4.43,7.86,9.91,7.86s9.91-3.52,9.91-7.86A7,7,0,0,0,84.62,114.65Z"/><path class="cls-14" d="M80.93,150.31c-16.94,0-28.8-11.38-28.87-11.43h0a.83.83,0,0,1,0-1.2h0a.89.89,0,0,1,1.23,0h0s.7.67,2,1.69h0A46.53,46.53,0,0,0,61,143.13h0a41,41,0,0,0,19.89,5.48h0c7.58,0,16.19-2.39,25.23-9.57h0a.89.89,0,0,1,1.23.12h0a.83.83,0,0,1-.13,1.19h0c-9.29,7.4-18.34,10-26.3,10h0Z"/><path class="cls-14" d="M74.66,157.75h0a.83.83,0,0,1-.47-1.11h0a.88.88,0,0,1,1.15-.45h0s.48.19,1.28.4h0a12.34,12.34,0,0,0,3.06.42h0a6.92,6.92,0,0,0,3.36-.78h0a.89.89,0,0,1,1.19.32h0a.83.83,0,0,1-.33,1.15h0a8.66,8.66,0,0,1-4.22,1h0a14.77,14.77,0,0,1-5-.95Z"/></g></g></svg>