<svg xmlns="http://www.w3.org/2000/svg" viewBox="0 0 153.1 259.56"><defs><style>.cls-1{fill:#f2d0af;}.cls-2{fill:#438970;}.cls-3{fill:#6dbdc6;}.cls-4{fill:#393c3d;}.cls-5{fill:#eae5dc;}.cls-6{fill:#ddb58e;}.cls-7{fill:#ad3936;}.cls-8{fill:#d15852;}.cls-9{fill:#2f3233;}.cls-10{fill:#3a332d;}.cls-11{fill:#e8dfd9;}</style></defs><title>资源 258</title><g id="图层_2" data-name="图层 2"><g id="Layer_1" data-name="Layer 1"><polygon class="cls-1" points="31.27 259.56 43.42 259.56 53.15 199.42 40.37 196.22 31.27 259.56"/><polygon class="cls-1" points="112.73 196.22 99.95 199.42 109.68 259.56 121.83 259.56 112.73 196.22"/><path class="cls-2" d="M120.28,248.76c-3.29.28-6.43,1.29-9.67,2-.76.17-1.52.31-2.28.44l1.35,8.37h12.15Z"/><path class="cls-3" d="M89,165.68s14-.69,21.12,13.78a236.55,236.55,0,0,1,11.77,29.16l-16.45,8Z"/><path class="cls-4" d="M103.33,210l2.15,6.67,16.45-8s-.69-2.17-1.93-5.64C114.46,205.36,109,207.89,103.33,210Z"/><path class="cls-3" d="M64.07,165.68s-14-.69-21.13,13.78a237.4,237.4,0,0,0-11.76,29.16l16.44,8Z"/><path class="cls-4" d="M49.78,210l-2.16,6.67-16.44-8s.68-2.17,1.92-5.64C38.64,205.36,44.12,207.89,49.78,210Z"/><path class="cls-5" d="M61.63,166.06c-6.24,2.75-10.18,9.43-11.57,25.57L40,259.56h73.16L103,191.63c-1.38-16.14-5.33-22.82-11.57-25.57Z"/><path class="cls-4" d="M89,165.68h-25a23,23,0,0,0-11,2.9c2.79,8.56,12.23,14.86,23.47,14.86s20.69-6.3,23.48-14.86A23,23,0,0,0,89,165.68Z"/><path class="cls-6" d="M91.71,165.57c0,6.91-6.79,12.51-15.16,12.51s-15.15-5.6-15.15-12.51S91.71,158.66,91.71,165.57Z"/><path class="cls-7" d="M75.28,258.45s-17,1.07-20.81-11.33a37.54,37.54,0,0,1,0-22.5S55.69,232,59.36,234c0,0-1.43-9,1.51-13.17s11.2-12.95,10.43-19.1c0,0,4.9,6.4,4,11.45,0,0,4-4.59,4.14-12.71,0,0,10.56,13.47,8.41,24.34,0,0,3-4,3.35-8.26,0,0,16.78,10.5,4.92,35.66C92.67,259.45,75.28,258.45,75.28,258.45Z"/><path class="cls-8" d="M80.88,243.29s4.84-6.43,9.16-9.64a19.29,19.29,0,0,0,.48,4.82C91.13,241.3,88.22,247,80.88,243.29Z"/><path class="cls-8" d="M72.23,243.29s-4.85-6.43-9.16-9.64a19.29,19.29,0,0,1-.48,4.82C62,241.3,64.88,247,72.23,243.29Z"/><path class="cls-9" d="M146.25,50.88s2.3-13.32-6.19-21.58-11-3.22-11-3.22.46-2.06-2.52-5-16.07-9.18-16.07-9.18,2.64.59,2-1.86S100.34,2.83,85.41.39a100.57,100.57,0,0,0-17.72,0c-13.12,1.83-27,7.55-27.17,9.85s2.15,1.61,2.15,1.61S29.58,18.05,26.6,21s-2.53,5-2.53,5-2.53-5-11,3.22-6.2,21.58-6.2,21.58C-.5,52.49-.27,61.67.19,77.06a73.93,73.93,0,0,0,6.66,27.78l51.93,1.91v1.3l17.77-.65,17.78.65v-1.3l51.92-1.91a73.93,73.93,0,0,0,6.66-27.78C153.37,61.67,153.6,52.49,146.25,50.88Z"/><path class="cls-6" d="M134.33,111.4s4.82-14.14,12.39-12.07,5.06,25.94-8.72,38.11S134.33,111.4,134.33,111.4Z"/><path class="cls-6" d="M18.78,111.4S14,97.26,6.38,99.33s-5,25.94,8.73,38.11S18.78,111.4,18.78,111.4Z"/><path class="cls-1" d="M105.48,55.24c-16.61-.9-25.08,5.15-28.93,9.39-3.85-4.24-12.31-10.29-28.93-9.39C22.37,56.62,15,72.69,15,72.69v64.75S29.46,164.57,73.8,167.5c0,0,1.84.18,2.75.14a27.61,27.61,0,0,0,2.76-.14c44.34-2.93,58.78-30.06,58.78-30.06V72.69S130.74,56.62,105.48,55.24Z"/><path class="cls-6" d="M89.84,128.64s-3.12-8.85-12.85-9.52-13.73,10.65-13.73,10.65,6-8.36,13.74-7.5A22.61,22.61,0,0,1,89.84,128.64Z"/><circle class="cls-10" cx="40.34" cy="106.68" r="9.05" transform="matrix(0.99, -0.16, 0.16, 0.99, -16.57, 7.84)"/><path class="cls-11" d="M37.6,100.74c-.26,1.29,1.34,2.71,3.57,3.16s4.25-.23,4.52-1.53-1.34-2.71-3.58-3.16S37.86,99.45,37.6,100.74Z"/><path class="cls-9" d="M55.8,94.62l-1.69-7.49s-17.8-3.37-30.35-1.41l-1.31,7S31.26,90.5,55.8,94.62Z"/><path class="cls-10" d="M103.72,106.68a9,9,0,1,0,9-9A9,9,0,0,0,103.72,106.68Z"/><path class="cls-11" d="M110,100.74c-.26,1.29,1.34,2.71,3.57,3.16s4.26-.23,4.52-1.53-1.34-2.71-3.57-3.16S110.28,99.45,110,100.74Z"/><path class="cls-9" d="M97.3,94.62,99,87.13s17.8-3.37,30.35-1.41l1.31,7S121.85,90.5,97.3,94.62Z"/><path class="cls-6" d="M38,139.83a4.33,4.33,0,0,0,.66.5,12.6,12.6,0,0,0,2,1.16A19.73,19.73,0,0,0,44,142.87a40.87,40.87,0,0,0,4.49,1.26l1.26.33,1.35.2,2.83.42a58.27,58.27,0,0,0,6.14.53l3.25.21,3.35,0c2.24,0,4.57,0,6.8-.12l6.87-.48c2.28-.1,4.44-.47,6.57-.71l3.13-.38,3-.55a48.6,48.6,0,0,0,5.41-1.17c1.66-.44,3.2-.81,4.5-1.3l1.86-.62,1.52-.66a19.75,19.75,0,0,0,2.11-1,4.59,4.59,0,0,0,.71-.42,5.91,5.91,0,0,1-.66.51,15.73,15.73,0,0,1-2,1.24c-.44.25-.94.51-1.48.8l-1.81.8a31.57,31.57,0,0,1-4.46,1.65,49.08,49.08,0,0,1-5.42,1.49l-3,.72-3.18.5c-2.15.3-4.39.78-6.65.88l-6.86.54c-2.37.1-4.66,0-7,.06-1.15,0-2.28,0-3.4,0l-3.31-.3a44.44,44.44,0,0,1-6.23-.82l-2.86-.58-1.36-.29-1.28-.4a29.65,29.65,0,0,1-4.48-1.62,21.35,21.35,0,0,1-3.25-1.71,11.58,11.58,0,0,1-1.9-1.39A4.61,4.61,0,0,1,38,139.83Z"/><path class="cls-6" d="M111.22,133.08a2.4,2.4,0,0,1,1.12-.07,3.4,3.4,0,0,1,1.11.36,3.6,3.6,0,0,1,1,.93l.36.63a1.93,1.93,0,0,1,.16.66c0,.22,0,.44.07.63a1.53,1.53,0,0,1-.11.54,4.46,4.46,0,0,1-.43,1,8.22,8.22,0,0,1-.36-1,2.54,2.54,0,0,0-.12-.43,2.44,2.44,0,0,1-.21-.43,3.09,3.09,0,0,0-.48-.82,1.11,1.11,0,0,0-.29-.39,4,4,0,0,1-.33-.37c-.25-.19-.47-.45-.7-.61s-.42-.37-.57-.47Z"/></g></g></svg>