<svg xmlns="http://www.w3.org/2000/svg" viewBox="0 0 177.14 260"><defs><style>.cls-1{fill:#393c3d;}.cls-2{fill:#515151;}.cls-3{fill:#7f5732;}.cls-4{fill:#efc4a0;}.cls-5{fill:#3f3e3d;}.cls-6{fill:#353434;}.cls-7{fill:#f4d3b0;}.cls-8{fill:#f9dab4;}.cls-9{fill:#3a332d;}</style></defs><title>资源 349</title><g id="图层_2" data-name="图层 2"><g id="Layer_1" data-name="Layer 1"><path class="cls-1" d="M0,260H36.06c9.56-48,19.75-105.76,19.75-105.76S19.79,173.67,0,260Z"/><path class="cls-1" d="M177.14,260H141.08c-9.56-48-19.75-105.76-19.75-105.76S157.35,173.67,177.14,260Z"/><path class="cls-2" d="M28.7,260H149.25a1136.64,1136.64,0,0,0-26.62-111.92L89,151.63l-33.66-3.55A1136.64,1136.64,0,0,0,28.7,260Z"/><path class="cls-3" d="M31.44,260H49.83c24-22.54,57.7-57.13,78.7-91-2-7.43-3.64-13.16-4.67-16.72C102.36,192.35,56.71,237,31.44,260Z"/><path class="cls-3" d="M92.7,206.55c-15-17.1-29.27-35.58-38.91-53.24-1.09,3.77-2.69,9.42-4.63,16.64,9.9,15.8,22.52,31.73,35.57,46.49C87.25,213,89.87,209.7,92.7,206.55Z"/><polygon class="cls-4" points="57.44 161.38 88.98 204.94 120.51 161.38 57.44 161.38"/><path class="cls-5" d="M170.17,36.06c-9.89-17.53-42-34.94-76-36-.84,0-1.68,0-2.51,0h-.27c-.83,0-1.66,0-2.5,0-34.08,1.1-66.15,18.51-76,36s0,77.59,0,77.59l75.79,1.93v.14l2.89-.07,2.89.07v-.14l75.79-1.93S180.06,53.58,170.17,36.06Z"/><path class="cls-6" d="M13.67,75.89a7.25,7.25,0,0,1-1.87.35,11.65,11.65,0,0,1-3.72-.42A11.12,11.12,0,0,1,4.73,74.2a6.62,6.62,0,0,1-1.34-1.27,7.11,7.11,0,0,1,1.86-.35A11.31,11.31,0,0,1,9,73a11.42,11.42,0,0,1,3.34,1.62A7.11,7.11,0,0,1,13.67,75.89Z"/><path class="cls-6" d="M17.27,48.43a8.65,8.65,0,0,1-2.09.14,14.44,14.44,0,0,1-4.12-.82,13.51,13.51,0,0,1-3.65-2A7.7,7.7,0,0,1,6,44.32,8.2,8.2,0,0,1,8,44.17a14.15,14.15,0,0,1,4.12.83,13.79,13.79,0,0,1,3.65,2A8,8,0,0,1,17.27,48.43Z"/><path class="cls-6" d="M27.79,31.28a8.74,8.74,0,0,1-2-.81,15,15,0,0,1-3.4-2.61A14.06,14.06,0,0,1,20,24.4a7.91,7.91,0,0,1-.67-1.95,8.9,8.9,0,0,1,2,.81,14.12,14.12,0,0,1,5.82,6.07A7.91,7.91,0,0,1,27.79,31.28Z"/><path class="cls-6" d="M106.7,18a7,7,0,0,1,.32-1.93,12.32,12.32,0,0,1,1.75-3.56,12.78,12.78,0,0,1,2.84-2.85,8.23,8.23,0,0,1,1.78-1,7.57,7.57,0,0,1-.32,1.94,12,12,0,0,1-1.75,3.55,12.81,12.81,0,0,1-2.85,2.85A8,8,0,0,1,106.7,18Z"/><path class="cls-6" d="M75.86,31.28a6.45,6.45,0,0,1-1.38-1.08,9,9,0,0,1-1.85-2.8A8.54,8.54,0,0,1,72,24.14a5.37,5.37,0,0,1,.27-1.69,6.08,6.08,0,0,1,1.38,1.08,8.76,8.76,0,0,1,1.85,2.8,8.52,8.52,0,0,1,.62,3.26A5.56,5.56,0,0,1,75.86,31.28Z"/><path class="cls-6" d="M63.53,37.16a4.73,4.73,0,0,1-1.43-.42A5.74,5.74,0,0,1,60,35.1a5.46,5.46,0,0,1-1.07-2.4,4.22,4.22,0,0,1,0-1.42,4.88,4.88,0,0,1,1.43.41,5.77,5.77,0,0,1,2.11,1.65,5.35,5.35,0,0,1,1.07,2.4A4.39,4.39,0,0,1,63.53,37.16Z"/><path class="cls-6" d="M152.45,26.86a9.37,9.37,0,0,1,1-2,16.73,16.73,0,0,1,3.09-3.5,17.62,17.62,0,0,1,4-2.57,9.9,9.9,0,0,1,2.2-.75,8.78,8.78,0,0,1-1,2,16.8,16.8,0,0,1-3.1,3.5,17.62,17.62,0,0,1-4,2.57A9.9,9.9,0,0,1,152.45,26.86Z"/><path class="cls-6" d="M157.59,34.22a10.14,10.14,0,0,1,1.46-1.86,19.4,19.4,0,0,1,3.89-3.07,19.88,19.88,0,0,1,4.59-2,10.82,10.82,0,0,1,2.4-.44,10.37,10.37,0,0,1-1.46,1.87,19.1,19.1,0,0,1-3.89,3.06,19.88,19.88,0,0,1-4.59,2A11.58,11.58,0,0,1,157.59,34.22Z"/><path class="cls-7" d="M31.8,113.57S22.93,103.18,13.06,108s3.8,36.42,23.3,39Z"/><path class="cls-7" d="M151.17,113.57S160,103.18,169.92,108s-3.8,36.42-23.31,39Z"/><path class="cls-8" d="M142.86,153.92S123,166.59,91.5,167.08s-51.38-13.16-51.38-13.16a29.57,29.57,0,0,1-12.33-23.87V57.34s11-9,30.18-8.73a78.84,78.84,0,0,1,33.52,8.25s19-8.56,35.68-8.43a50.19,50.19,0,0,1,28,8.91v72.71A29.57,29.57,0,0,1,142.86,153.92Z"/><polygon class="cls-9" points="111.75 86.73 110.97 96.5 143.02 95.18 139.59 85.13 111.75 86.73"/><polygon class="cls-9" points="66.2 86.73 66.98 96.5 34.93 95.18 38.36 85.13 66.2 86.73"/><path class="cls-9" d="M65.8,112.28h0L41.36,112c-.66,0-1.18-.7-1.18-1.56s.63-1.6,1.19-1.54l24.44.26A1.42,1.42,0,0,1,67,110.75,1.39,1.39,0,0,1,65.8,112.28Z"/><path class="cls-9" d="M112.15,112.28h0L136.6,112c.65,0,1.17-.7,1.17-1.56s-.63-1.6-1.19-1.54l-24.44.26a1.42,1.42,0,0,0-1.17,1.57A1.39,1.39,0,0,0,112.15,112.28Z"/><path class="cls-4" d="M101.08,123.23s-2.75-8.8-11.6-9.36-12.6,10.78-12.6,10.78,5.56-8.42,12.58-7.64S101.08,123.23,101.08,123.23Z"/><path class="cls-4" d="M60.06,143.84s.86-.31,2.38-.79,3.74-1,6.43-1.55l4.36-.87c1.55-.3,3.19-.43,4.89-.61,3.4-.37,7-.64,10.68-.93,1.82-.12,3.64-.25,5.43-.19s3.56.09,5.27.12c3.41.1,6.6.26,9.32.46s5,.44,6.58.57,2.49.3,2.49.3-.91.14-2.5.31-3.86.42-6.57.6-5.89.38-9.27.49c-1.69.05-3.44.14-5.22.15s-3.58.14-5.38.29c-3.59.21-7.19.44-10.58.54-1.68.11-3.34,0-4.88.19l-4.34.33c-2.69.23-5,.17-6.58.39S60.06,143.84,60.06,143.84Z"/><path class="cls-4" d="M80.29,152.25a14.47,14.47,0,0,1,2.71-.88,26.94,26.94,0,0,1,6-.67,27.49,27.49,0,0,1,6,.66,14,14,0,0,1,2.71.89,14.39,14.39,0,0,1-2.71.9,26.93,26.93,0,0,1-6,.65,27.59,27.59,0,0,1-6-.66A14,14,0,0,1,80.29,152.25Z"/></g></g></svg>