<svg xmlns="http://www.w3.org/2000/svg" viewBox="0 0 169.92 260"><defs><style>.cls-1{fill:#515151;}.cls-2{fill:#ba443e;}.cls-3{fill:#6d6d6d;}.cls-4{fill:#4c3626;}.cls-5{fill:#f4d3b0;}.cls-6{fill:#f9dab4;}.cls-7{fill:#393c3d;}.cls-8{fill:#efc4a0;}</style></defs><title>资源 351</title><g id="图层_2" data-name="图层 2"><g id="Layer_1" data-name="Layer 1"><path class="cls-1" d="M17,260H43.78l14.15-85.8-5.08-.53S26,220,17,260Z"/><path class="cls-2" d="M36.07,208.7a6.42,6.42,0,0,0-.86-.23c-3.08,6.8-6.22,14.21-9.11,21.86a7.78,7.78,0,0,0,.89.5c4.93,2,11-1.29,13.47-7.4S41,210.72,36.07,208.7Z"/><path class="cls-1" d="M155.76,260H128.93l-14.15-85.8,5.08-.53S146.76,220,155.76,260Z"/><path class="cls-2" d="M136.64,208.7a6.42,6.42,0,0,1,.86-.23c3.08,6.8,6.22,14.21,9.1,21.86a6.89,6.89,0,0,1-.88.5c-4.93,2-11-1.29-13.47-7.4S131.7,210.72,136.64,208.7Z"/><path class="cls-3" d="M86.42,167.15c-31.32,0-33.79,6.52-33.79,6.52A139.27,139.27,0,0,1,47,204.54c-5.5,18.89-8.1,39.12-9.32,55.46h97.4c-1.21-16.34-3.82-36.57-9.32-55.46a140,140,0,0,1-5.59-30.87S117.75,167.15,86.42,167.15Z"/><path class="cls-1" d="M86,173.55c0,.62-4.26,47.65-2.63,86.45h2.85c-1.63-38.54,2.57-85.57,2.63-86.19Z"/><path class="cls-2" d="M110.58,156.56l-24.16,5.53-24.16-5.53s-5.67,12.79-2.56,16.14,8,4.68,25.93,5v0h1.58v0c17.94-.33,22.9-1.74,25.93-5S110.58,156.56,110.58,156.56Z"/><path class="cls-4" d="M13.58,79.6S.48,92.46,0,98.18l11.2-3.09S1.91,105.22,1,112.43c0,0,6.34-4.47,8.77-5.19l3.86,16.44H41.23L36.46,70.3Z"/><path class="cls-4" d="M156.34,79.6s13.1,12.86,13.58,18.58l-11.2-3.09S168,105.22,169,112.43c0,0-6.34-4.47-8.77-5.19l-3.86,16.44H128.69l4.77-53.38Z"/><path class="cls-5" d="M29.62,118.07S21.4,108,12.24,112.67s3.52,35.4,21.61,37.9Z"/><path class="cls-5" d="M140.3,118.07s8.22-10.09,17.38-5.4-3.51,35.4-21.61,37.9Z"/><path class="cls-6" d="M132.59,157.3S114.13,169.62,85,170.09,37.32,157.3,37.32,157.3A29.23,29.23,0,0,1,25.9,134.09V63.41s10.23-8.79,28-8.48a70.42,70.42,0,0,1,31.08,8S102.6,54.62,118,54.75a45.27,45.27,0,0,1,26,8.66v70.68A29.19,29.19,0,0,1,132.59,157.3Z"/><path class="cls-3" d="M132.59,148.72S114.13,161,85,161.51s-47.65-12.79-47.65-12.79A29.23,29.23,0,0,1,25.9,125.51v8.58A29.23,29.23,0,0,0,37.32,157.3S55.79,170.56,85,170.09s47.62-12.79,47.62-12.79A29.19,29.19,0,0,0,144,134.09v-8.58A29.19,29.19,0,0,1,132.59,148.72Z"/><path class="cls-1" d="M85.12,0H84.8C6.87-.24,3.2,84.41,6.82,87s8.63-2.17,8.63-2.17S35.45,67.93,85,67.92s69.51,16.92,69.51,16.92,5,4.76,8.63,2.17S163.05-.24,85.12,0Z"/><path class="cls-3" d="M85,56.71a4.29,4.29,0,0,1-4.29-4.29v-41a4.29,4.29,0,0,1,8.58,0v41A4.29,4.29,0,0,1,85,56.71Z"/><path class="cls-3" d="M122.68,59a4.28,4.28,0,0,1-3.88-6.1l9.53-20.44a4.29,4.29,0,1,1,7.78,3.63l-9.54,20.43A4.29,4.29,0,0,1,122.68,59Z"/><path class="cls-3" d="M47.68,59a4.36,4.36,0,0,0,1.81-.4,4.3,4.3,0,0,0,2.07-5.7L42,32.5a4.29,4.29,0,1,0-7.78,3.63l9.54,20.43A4.28,4.28,0,0,0,47.68,59Z"/><path class="cls-7" d="M75.05,96S25.9,90.49,25.36,99.79s8.94,20.55,24.85,19.84S75.05,96,75.05,96Z"/><path class="cls-7" d="M94.87,96s49.15-5.54,49.69,3.76-8.94,20.55-24.85,19.84S94.87,96,94.87,96Z"/><path class="cls-7" d="M71.08,100.55,68.65,99a18.85,18.85,0,0,1,17-8c11.33.76,15.77,7.71,16,8l-2.43,1.51c-.15-.24-3.93-6-13.72-6.65A15.9,15.9,0,0,0,71.08,100.55Z"/><path class="cls-3" d="M113.4,165.66c.21-4.71.06-9.52-1.11-11.72-2.68-5-48.62-5.18-53.62,0-2.25,2.34-2.47,7.36-2,12.17a91.47,91.47,0,0,0,28.34,4A103.56,103.56,0,0,0,113.4,165.66Z"/><path class="cls-8" d="M93.87,125.16s-2.53-8.11-10.69-8.62-11.6,9.92-11.6,9.92,5.12-7.75,11.59-7S93.87,125.16,93.87,125.16Z"/><path class="cls-8" d="M51.43,139.29l3,.51c1.87.33,4.57.66,7.78,1.06l5.19.54,5.8.42,6.2.23,6.4-.08c2.06,0,4.3-.24,6.41-.35s4.15-.43,6.15-.62,3.91-.57,5.74-.81,3.54-.66,5.14-.92c6.36-1.21,10.53-2.48,10.53-2.48s-1,.53-2.7,1.3c-.88.36-2,.84-3.2,1.3s-2.65,1-4.23,1.47-3.27,1-5.11,1.42-3.76.95-5.82,1.21-4.18.75-6.31.88-4.24.38-6.51.46l-6.57,0L73,144.33a103.75,103.75,0,0,1-11.07-1.86A70.53,70.53,0,0,1,51.43,139.29Z"/><path class="cls-1" d="M86,180.63s1.68,9.77,5,11.44,5.71-1.91,5.71-4.53S84.23,174,86,180.63Z"/><path class="cls-2" d="M37.72,260H55.06V231.85H41C39.38,241.8,38.36,251.43,37.72,260Z"/><path class="cls-2" d="M135.12,260c-.64-8.57-1.65-18.2-3.27-28.15H117.78V260Z"/></g></g></svg>