<svg xmlns="http://www.w3.org/2000/svg" viewBox="0 0 189.73 262.76"><defs><style>.cls-1{fill:#f9dab4;}.cls-2{fill:#f7cea6;}.cls-3{fill:#ffc639;}.cls-4{fill:#eab02f;}.cls-5{fill:#f9f5ed;}.cls-6{fill:#e53535;}.cls-7{fill:#ffc55f;}.cls-8{fill:#edb14f;}.cls-9{fill:#f2b42a;}.cls-10{fill:#7f5732;}.cls-11{fill:#e5be9e;}.cls-12{fill:#2f3233;}.cls-13{fill:#dd2626;}.cls-14{fill:#e0605c;}.cls-15{fill:#ddac8c;}</style></defs><title>资源 132</title><g id="图层_2" data-name="图层 2"><g id="Layer_1" data-name="Layer 1"><polygon class="cls-1" points="4.91 262.76 22.02 262.76 40.77 203.93 22.03 198.42 4.91 262.76"/><path class="cls-2" d="M19.08,209.52,4.91,262.76H6c4.46-14.84,9.3-31,11.34-37.83,1.8,3.77,5.71,3.91,10,2.44.66,2.09,3.1,3.66,4.61,4.46l5.66-17.75-9.38-1.3Z"/><path class="cls-3" d="M50.16,160S14,162.89,9.56,187.34s16.15,38.89,36.69,30.58c6.11-44.52,8.07-58,8.07-58Z"/><path class="cls-4" d="M13.83,177.2c15.34-5.47,30,6.46,28.8,27.47,2-.31,3.86-.54,5.54-.73,4.61-33.41,6.15-44,6.15-44H50.16S24.6,162,13.83,177.2Z"/><path class="cls-4" d="M9,196.06c1.28,19,19.25,29.13,37.21,21.86.21-1.53.42-3,.62-4.48C30.25,221.49,17.88,210.82,9,196.06Z"/><path class="cls-4" d="M39.16,223.43a5.62,5.62,0,0,1-5.38,5.82,5.84,5.84,0,0,1,0-11.64A5.61,5.61,0,0,1,39.16,223.43Z"/><path class="cls-5" d="M38.05,221.71c-.31.61-1.55.59-2.77,0s-2-1.61-1.66-2.22,1.55-.59,2.77,0S38.35,221.1,38.05,221.71Z"/><path class="cls-4" d="M28.72,220.82a5.62,5.62,0,0,1-5.38,5.82,5.84,5.84,0,0,1,0-11.64A5.61,5.61,0,0,1,28.72,220.82Z"/><path class="cls-5" d="M27.61,219.1c-.31.61-1.55.6-2.77,0s-2-1.62-1.66-2.22,1.55-.6,2.77,0S27.92,218.5,27.61,219.1Z"/><path class="cls-4" d="M19,215.69a5.61,5.61,0,0,1-5.38,5.82,5.84,5.84,0,0,1,0-11.64A5.62,5.62,0,0,1,19,215.69Z"/><path class="cls-5" d="M17.92,214c-.3.6-1.54.59-2.77,0s-2-1.61-1.65-2.22,1.54-.59,2.77,0S18.23,213.37,17.92,214Z"/><polygon class="cls-1" points="129.7 198.42 110.96 203.93 129.71 262.76 146.82 262.76 129.7 198.42"/><path class="cls-2" d="M132.65,209.52l-9.07,3.26-9.38,1.3,5.66,17.75c1.51-.8,4-2.37,4.62-4.46,4.23,1.47,8.14,1.33,9.94-2.44,2.05,6.87,6.88,23,11.35,37.83h1Z"/><path class="cls-3" d="M101.57,160s36.19,2.94,40.6,27.39S126,226.23,105.48,217.92c-6.11-44.52-8.07-58-8.07-58Z"/><path class="cls-4" d="M137.9,177.2c-15.34-5.47-30,6.46-28.79,27.47-2-.31-3.87-.54-5.55-.73-4.61-33.41-6.15-44-6.15-44h4.16S127.13,162,137.9,177.2Z"/><path class="cls-4" d="M142.69,196.06c-1.28,19-19.25,29.13-37.21,21.86-.21-1.53-.41-3-.61-4.48C121.49,221.49,133.85,210.82,142.69,196.06Z"/><path class="cls-4" d="M112.57,223.43a5.4,5.4,0,1,0,5.38-5.82A5.62,5.62,0,0,0,112.57,223.43Z"/><path class="cls-5" d="M113.68,221.71c.31.61,1.55.59,2.77,0s2-1.61,1.66-2.22-1.55-.59-2.77,0S113.38,221.1,113.68,221.71Z"/><path class="cls-4" d="M123,220.82a5.4,5.4,0,1,0,5.38-5.82A5.62,5.62,0,0,0,123,220.82Z"/><path class="cls-5" d="M124.12,219.1c.31.61,1.55.6,2.77,0s2-1.62,1.66-2.22-1.55-.6-2.77,0S123.81,218.5,124.12,219.1Z"/><path class="cls-4" d="M132.7,215.69a5.4,5.4,0,1,0,5.38-5.82A5.61,5.61,0,0,0,132.7,215.69Z"/><path class="cls-5" d="M133.81,214c.3.6,1.55.59,2.77,0s2-1.61,1.66-2.22-1.55-.59-2.78,0S133.5,213.37,133.81,214Z"/><path class="cls-3" d="M116.73,262.76c-6.4-46.68-14.41-101.32-14.41-101.32l-54.13.65s-7.88,58.19-12,100.67Z"/><path class="cls-6" d="M76.1,207.15c-13.19,0-23.88,14.6-23.88,32.61,0,9,2.66,17.11,7,23H93c4.3-5.89,7-14,7-23C100,221.75,89.28,207.15,76.1,207.15Z"/><path class="cls-7" d="M36.53,257.29h79.92c-1.47-10.45-3-21.2-4.52-31.55H40C38.76,236.36,37.54,247.2,36.53,257.29Z"/><rect class="cls-8" x="41.14" y="225.74" width="6.31" height="31.55"/><rect class="cls-8" x="51.2" y="225.74" width="6.31" height="31.55"/><rect class="cls-8" x="61.99" y="225.74" width="6.31" height="31.55"/><rect class="cls-8" x="72.04" y="225.74" width="6.31" height="31.55"/><rect class="cls-8" x="83.17" y="225.74" width="6.31" height="31.55"/><rect class="cls-8" x="93.96" y="225.74" width="6.31" height="31.55"/><rect class="cls-8" x="104.11" y="225.74" width="6.31" height="31.55"/><ellipse class="cls-9" cx="75.41" cy="173.28" rx="26.09" ry="20.52"/><path class="cls-2" d="M93.58,169.3c0,8.26-8.14,14.95-18.17,14.95s-18.18-6.69-18.18-14.95,8.14-15,18.18-15S93.58,161,93.58,169.3Z"/><ellipse class="cls-10" cx="77.51" cy="85.9" rx="75.96" ry="82.56"/><path class="cls-1" d="M136.62,102.24s9-9,15.79,1.13-4.41,27.56-17,16.44Z"/><path class="cls-11" d="M140.64,115.93s.06-11.27,4.26-11S149.71,116.58,140.64,115.93Z"/><path class="cls-2" d="M144.9,105a3.16,3.16,0,0,1,2.56,2.38c-2.1,2-5.31,5.41-6.81,8.38C140.68,114.21,141,104.68,144.9,105Z"/><path class="cls-1" d="M17.85,102.24s-9-9-15.79,1.13,4.41,27.56,17,16.44Z"/><path class="cls-11" d="M13.83,115.93s-.05-11.27-4.26-11S4.76,116.58,13.83,115.93Z"/><path class="cls-2" d="M9.57,105A3.17,3.17,0,0,0,7,107.34c2.1,2,5.31,5.41,6.82,8.38C13.79,114.21,13.44,104.68,9.57,105Z"/><path class="cls-1" d="M138.24,62.41v65.12c0,18.1-21,40.22-61.15,42.9S16.55,145,16.55,130.21V67.92s17.72-25,55.83-25C124.16,42.9,138.24,62.41,138.24,62.41Z"/><path class="cls-12" d="M94.24,99.49s16.41-18,28.88.19c0,0,.54-4.74-5.39-9.28-6.38-4.9-15.68-3.37-21,2.62C93,97.22,94.24,99.49,94.24,99.49Z"/><path class="cls-12" d="M122.7,107.42a.82.82,0,0,0-1,.38h0a11.63,11.63,0,0,1-1.32,2,8,8,0,0,1-1.4,1.38,4.12,4.12,0,0,1-.77.48,10.88,10.88,0,0,0-.41-2.12,5.43,5.43,0,0,0,1.21-.92,8.16,8.16,0,0,0,1.53-2.27,7.87,7.87,0,0,0,.46-1.21.64.64,0,0,0-.56-.79.79.79,0,0,0-.93.5h0a8.92,8.92,0,0,1-.78,1.74,6.29,6.29,0,0,1-.91,1.21,4.71,4.71,0,0,1-.51.42,10.85,10.85,0,0,0-2.23-3.2,10.23,10.23,0,0,0-3.46-2.24,10.58,10.58,0,0,0-4.45-.7,12.73,12.73,0,0,0-2.84.49,11.64,11.64,0,0,0-4.55,2.47,10.53,10.53,0,0,0-3,4.65,9.45,9.45,0,0,0-.46,2.42,1,1,0,0,0,1.12,1,1.12,1.12,0,0,0,1.19-1h0a8.87,8.87,0,0,1,.91-3.25,8.6,8.6,0,0,1,1.91-2.5,9.09,9.09,0,0,1,3.55-1.9,10,10,0,0,1,2.24-.39,8,8,0,0,1,3.37.53,8.18,8.18,0,0,1,3.75,3,8.92,8.92,0,0,1,1.56,4.65,1.08,1.08,0,0,0,1.13.93.87.87,0,0,0,.58.07,5.78,5.78,0,0,0,2.39-1.14,10.39,10.39,0,0,0,2.28-2.51,11.65,11.65,0,0,0,.81-1.38A.63.63,0,0,0,122.7,107.42Z"/><path class="cls-12" d="M56,99.49s-16.42-18-28.89.19c0,0-.53-4.74,5.39-9.28C38.86,85.5,48.15,87,53.5,93,57.25,97.22,56,99.49,56,99.49Z"/><path class="cls-12" d="M27.5,107.42a.82.82,0,0,1,1,.38h0a12.78,12.78,0,0,0,1.33,2,7.9,7.9,0,0,0,1.39,1.38,4.89,4.89,0,0,0,.77.48,10.9,10.9,0,0,1,.42-2.12,5.5,5.5,0,0,1-1.22-.92,8.33,8.33,0,0,1-1.52-2.27,8.69,8.69,0,0,1-.47-1.21.65.65,0,0,1,.56-.79.8.8,0,0,1,.94.5h0a8.57,8.57,0,0,0,.77,1.74,6.34,6.34,0,0,0,.92,1.21,3.35,3.35,0,0,0,.51.42,10.64,10.64,0,0,1,2.22-3.2,10.33,10.33,0,0,1,3.46-2.24,10.63,10.63,0,0,1,4.45-.7,12.73,12.73,0,0,1,2.84.49,11.62,11.62,0,0,1,4.56,2.47,10.5,10.5,0,0,1,3,4.65,9.24,9.24,0,0,1,.47,2.42,1.05,1.05,0,0,1-1.13,1,1.1,1.1,0,0,1-1.18-1h0a8.78,8.78,0,0,0-.92-3.25,8.38,8.38,0,0,0-1.9-2.5,9.21,9.21,0,0,0-3.56-1.9,10,10,0,0,0-2.24-.39,8,8,0,0,0-7.11,3.54,9,9,0,0,0-1.57,4.65,1.06,1.06,0,0,1-1.13.93.85.85,0,0,1-.57.07,5.82,5.82,0,0,1-2.4-1.14,10.6,10.6,0,0,1-2.28-2.51,13.62,13.62,0,0,1-.81-1.38A.63.63,0,0,1,27.5,107.42Z"/><path class="cls-13" d="M87,142.8a5.1,5.1,0,0,0-1.94-1c-3-1-3.78-4-5.9-3.28s-3.65,4.31-5.62,2.51-2.88-3-5.43-.77c-2.11,1.88-5.44,1.14-6,2.13a.84.84,0,0,0,0,.64c0,.07,0,.13.06.21a43,43,0,0,0,24.8,0l.11-.06C87.14,143.15,87.23,143,87,142.8Z"/><path class="cls-14" d="M74.92,149.65a11.76,11.76,0,0,1,9.57,4.49,19.3,19.3,0,0,0,2.6-9.82c0-.37,0-.73,0-1.09l-.11.06a43,43,0,0,1-24.8,0c0-.08,0-.14-.06-.21,0,.41,0,.82,0,1.24a19,19,0,0,0,3,10.38A11.56,11.56,0,0,1,74.92,149.65Z"/><path class="cls-13" d="M74.56,160.46c4,0,7.64-2.49,9.93-6.32a11.76,11.76,0,0,0-9.57-4.49,11.56,11.56,0,0,0-9.94,5C67.27,158.22,70.71,160.46,74.56,160.46Z"/><path class="cls-15" d="M82.24,118.87a1.4,1.4,0,0,1,1,1.67h0a14,14,0,0,1-1.63,4h0a7.14,7.14,0,0,1-6.63,3.85h0l-.2,0h0a8.87,8.87,0,0,1-6.4-3.67h0a10.57,10.57,0,0,1-1.61-3.24h0a1.42,1.42,0,0,1,.89-1.71h0a1.28,1.28,0,0,1,1.58,1h0a.55.55,0,0,0,0,.14h0c0,.12.1.29.19.51h0a8.74,8.74,0,0,0,.91,1.61h0A6.33,6.33,0,0,0,75,125.58h.12a4.31,4.31,0,0,0,4-2.06h0a11.26,11.26,0,0,0,1.59-3.39h0c0-.17,0-.24,0-.24h0A1.29,1.29,0,0,1,82,118.84h0a.76.76,0,0,1,.21,0Z"/><path class="cls-10" d="M138.24,100.91s-3.92-30-18.38-39.35c0,0-10.26,12.41-22.91,16.38,0,0,5.32-9.17,5.32-18.08-16,21.21-52.39,26.3-52.39,26.3S66.32,73,66.32,60.71c-15.63,17-49.77,40.43-49.77,40.43l-3.38-41.7L71.4,30.6l41.82,1.69,27,25.45,1.17,8.49Z"/><path class="cls-10" d="M163.63,15.33s.59-13,4.4-15,6.15,3.82,5,9.55c5.79-3.9,18.1-3.74,4.62,9.94,14.58-4.53,14.72,2.15,7.1,6.76-6.42,3.89-12.16,7.32-12.16,7.32Z"/><path class="cls-13" d="M156.6,18.83s3.07-9.39,8.79-3.19,14.07,22.27,3.52,22.27C164.66,28.85,156.6,18.83,156.6,18.83Z"/><ellipse class="cls-10" cx="148.83" cy="37.91" rx="21.54" ry="22.91"/></g></g></svg>