<svg xmlns="http://www.w3.org/2000/svg" viewBox="0 0 193.31 260.09"><defs><style>.cls-1{fill:#754737;}.cls-2{fill:#593227;}.cls-3{fill:#8bc3c6;}.cls-4{fill:#f9dab4;}.cls-5{fill:#74baba;}.cls-6{fill:#9dcece;}.cls-7{fill:#39868e;}.cls-8{opacity:0.45;}.cls-9{fill:#5dacb5;}.cls-10{fill:#e5be9e;}.cls-11{fill:#f7cea6;}.cls-12{fill:#2f3233;}.cls-13{fill:#dd2626;}.cls-14{fill:#e0605c;}</style></defs><title>资源 116</title><g id="图层_2" data-name="图层 2"><g id="Layer_1" data-name="Layer 1"><path class="cls-1" d="M110.43,1.23C88.83-1.73,67.74,0,50.07,13.67,34,26.1,23.11,38.46,13.78,61-33.3,197.28,55.36,258.41,55.36,258.41s1.3.66,3.63,1.68h90.36c28.58-19.59,44-63.89,44-139.63C193.31,34.55,152.56,7,110.43,1.23Z"/><path class="cls-2" d="M163,25.74c-14.84-14.85-33.58-21.9-52.6-24.51C88.83-1.73,67.74,0,50.07,13.67a102.87,102.87,0,0,0-8.69,7.21C45,24,52.16,26,65.55,19.13c24.78-12.67,18.17,16,24.78,1.65s12.12-9.36,16.8.83-3-15.15,6.88-8.54S144.68,39.25,138.79,23C133.64,8.76,152.65,26.56,163,25.74Z"/><path class="cls-3" d="M64.07,170.12s-13.67-.51-21.51,14.36-10.12,17.14-10.12,17.14,17.55,7.64,26.64,7.64A184.47,184.47,0,0,0,64.07,170.12Z"/><polygon class="cls-4" points="27.57 260.09 51.25 260.09 60.73 213.6 43.71 209.02 27.57 260.09"/><path class="cls-5" d="M46.18,179.06c3.29,4.65,7.73,14.25,3,28.49a40.62,40.62,0,0,0,9.95,1.71,184.47,184.47,0,0,0,5-39.14A24,24,0,0,0,46.18,179.06Z"/><path class="cls-6" d="M55.92,208.32l-26.15-7.59s-2.14-.77-2.56,3.3-1.56,5.66,3.22,7.6S52.74,222,54.67,217.18,57.17,208.83,55.92,208.32Z"/><path class="cls-7" d="M27.21,204c.42-4.07,2.56-3.3,2.56-3.3l2.05.6a32.14,32.14,0,0,0-2.22,9.93C25.8,209.48,26.82,207.85,27.21,204Z"/><path class="cls-7" d="M40,203.71,37.45,214.6C36,214,34.7,213.45,33.56,213l3-10.25Z"/><path class="cls-7" d="M46.12,217.69c-1.34-.37-2.74-.84-4.14-1.34l2.67-11.3,4,1.17Z"/><path class="cls-7" d="M52.35,207.29l3.57,1c1.25.51.68,4.08-1.25,8.86-.45,1.13-1.79,1.52-3.61,1.44C51.67,215.46,52.13,210.2,52.35,207.29Z"/><g class="cls-8"><path class="cls-7" d="M55.93,213.6a36.39,36.39,0,0,1-1.26,3.58c-1.93,4.78-19.46-3.62-24.24-5.55s-3.64-3.53-3.22-7.6C27.21,204,41.75,214.5,55.93,213.6Z"/></g><path class="cls-3" d="M125.22,170.12s13.67-.51,21.51,14.36,10.12,17.14,10.12,17.14-17.55,7.64-26.64,7.64A184.47,184.47,0,0,1,125.22,170.12Z"/><polygon class="cls-4" points="145.58 209.02 128.56 213.6 138.04 260.09 161.72 260.09 145.58 209.02"/><path class="cls-5" d="M143.11,179.06c-3.29,4.65-7.73,14.25-3,28.49a40.62,40.62,0,0,1-9.95,1.71,184.47,184.47,0,0,1-5-39.14A24,24,0,0,1,143.11,179.06Z"/><path class="cls-6" d="M133.38,208.32l26.14-7.59s2.14-.77,2.56,3.3,1.56,5.66-3.22,7.6-22.31,10.33-24.24,5.55S132.12,208.83,133.38,208.32Z"/><path class="cls-7" d="M162.08,204c-.42-4.07-2.56-3.3-2.56-3.3l-2.05.6a32.14,32.14,0,0,1,2.22,9.93C163.49,209.48,162.47,207.85,162.08,204Z"/><path class="cls-7" d="M149.25,203.71l2.52,10.92,3.95-1.67-3-10.25Z"/><path class="cls-7" d="M143.17,217.69c1.34-.37,2.74-.84,4.15-1.34l-2.67-11.3-4,1.17Z"/><path class="cls-7" d="M136.94,207.29l-3.56,1c-1.26.51-.69,4.08,1.24,8.86.46,1.13,1.79,1.52,3.61,1.44C137.62,215.46,137.16,210.2,136.94,207.29Z"/><g class="cls-8"><path class="cls-7" d="M133.36,213.6a36.39,36.39,0,0,0,1.26,3.58c1.93,4.78,19.46-3.62,24.24-5.55s3.64-3.53,3.22-7.6C162.08,204,147.54,214.5,133.36,213.6Z"/></g><polygon class="cls-3" points="136.71 260.09 126.67 171.67 60.04 170.02 44.61 260.09 136.71 260.09"/><path class="cls-7" d="M91,182.1s1.27,50.63,1.62,78h2.44C95.11,241.18,94.56,178.67,91,182.1Z"/><path class="cls-9" d="M115.11,175.23s-5.26,51.74-6.9,84.86h36.88c-2.16-10.47-4.37-29.64-4.37-37.75,0-9.92-4-47.45-4-47.45C132.67,174.55,115.11,175.23,115.11,175.23Z"/><path class="cls-7" d="M120.7,173.57S119.9,204.85,122,212s5.3.27,5.3.27l.79-5.3s-5.3,8.74-5.3-5.31A216.82,216.82,0,0,0,120.7,173.57Z"/><path class="cls-7" d="M136.69,174.89c-1.39-.11-4.38-.11-7.72,0,.95,9.5,3.49,36.87,3.49,58.79A76.76,76.76,0,0,0,137,260.09h8.1c-2.16-10.47-4.37-29.64-4.37-37.75C140.72,212.42,136.69,174.89,136.69,174.89Z"/><path class="cls-9" d="M57.2,152.51h83.43s4.87,1.15,4,4.2-1.95,5-1.95,7.29.77,4.57-.56,5.83l-1.33,1.26,2.87.86a2.83,2.83,0,0,1-.63,3.65c-1.88,1.79-5,2.71-8.86,1.79s-23.72.92-30.56,1.85-49.73,2.87-52.77-1.75-1.64-6.86-1.64-8.45,3.07-2.65,3.07-2.65l-1.67-2.92v-5.7C50.63,156.05,53.31,152.51,57.2,152.51Z"/><path class="cls-7" d="M72.81,166.12a83,83,0,0,1-22.18-7.92v5.27l1.67,2.92s-3.07,1.06-3.07,2.65a9.15,9.15,0,0,1-.15,1.25c32.78,6.1,75.47,5.17,94.72,4.33a2.78,2.78,0,0,0-.11-2.67l-2.87-.86,1.33-1.26C113.27,174.6,88.72,169.3,72.81,166.12Z"/><path class="cls-7" d="M140.63,152.51H124c-13.26,2.37-26.5,7.6-21.51,12.33,26.19,2.12,38-6.33,41.89-10C143.4,153.17,140.63,152.51,140.63,152.51Z"/><path class="cls-4" d="M157.23,115.77s9.87-8.17,15.87,2.54-6.9,27-18.65,14.8Z"/><path class="cls-10" d="M160.08,129.73s1.06-11.2,5.28-10.52S169.2,131.19,160.08,129.73Z"/><path class="cls-11" d="M165.36,119.21a3.22,3.22,0,0,1,2.39,2.6c-2.31,1.83-5.85,4.89-7.64,7.71C160.27,128,161.48,118.59,165.36,119.21Z"/><path class="cls-4" d="M37.2,115.77s-9.87-8.17-15.87,2.54,6.91,27,18.65,14.8Z"/><path class="cls-10" d="M34.35,129.73s-1.06-11.2-5.28-10.52S25.23,131.19,34.35,129.73Z"/><path class="cls-11" d="M29.07,119.21a3.21,3.21,0,0,0-2.38,2.6c2.3,1.83,5.85,4.89,7.64,7.71C34.16,128,33,118.59,29.07,119.21Z"/><path class="cls-4" d="M30.58,108.07s5,53.69,62,59.47,70.22-43.78,70.22-61.95c0-12.45-5.64-22.84-14.05-32.22l-7.43,18.18L126.4,65.94l-14,28.91L101.62,68.42,85.1,96.5,70.23,74.2,50.82,93.61,46.27,77.5C37.22,85.39,31.06,95,30.58,108.07Z"/><path class="cls-12" d="M138.24,115.59a.73.73,0,0,0-.85.29h0a9,9,0,0,1-1.11,1.57,6.2,6.2,0,0,1-1.16,1.06,3.86,3.86,0,0,1-.65.37,7.74,7.74,0,0,0-.35-1.64,4,4,0,0,0,1-.71,5.88,5.88,0,0,0,1.27-1.75,7.83,7.83,0,0,0,.4-.92.51.51,0,0,0-.47-.62.67.67,0,0,0-.78.39h0a6.26,6.26,0,0,1-.65,1.34,4.49,4.49,0,0,1-.76.93,2.6,2.6,0,0,1-.43.33,8.33,8.33,0,0,0-1.86-2.47A8.58,8.58,0,0,0,129,112a9.73,9.73,0,0,0-3.72-.54,11.9,11.9,0,0,0-2.38.38,10,10,0,0,0-3.82,1.9,8,8,0,0,0-2.48,3.59,6.79,6.79,0,0,0-.4,1.87.86.86,0,0,0,.95.77.92.92,0,0,0,1-.77h0a6.36,6.36,0,0,1,.77-2.5,6.45,6.45,0,0,1,1.59-1.93,7.75,7.75,0,0,1,3-1.46,8.79,8.79,0,0,1,1.87-.31,7.3,7.3,0,0,1,2.82.41,6.8,6.8,0,0,1,3.14,2.32,6.53,6.53,0,0,1,1.31,3.59.88.88,0,0,0,1,.72.84.84,0,0,0,.48.06,5.28,5.28,0,0,0,2-.88,8.26,8.26,0,0,0,1.91-1.94,8.48,8.48,0,0,0,.68-1.07A.48.48,0,0,0,138.24,115.59Z"/><path class="cls-12" d="M114.4,108s13.75-13.88,24.19.15c0,0,.45-3.66-4.51-7.16-5.35-3.78-13.13-2.61-17.6,2C113.33,106.25,114.4,108,114.4,108Z"/><path class="cls-12" d="M52.61,115.59a.72.72,0,0,1,.84.29h0a9.71,9.71,0,0,0,1.11,1.57,6.26,6.26,0,0,0,1.17,1.06,3.43,3.43,0,0,0,.64.37,8.41,8.41,0,0,1,.35-1.64,4.21,4.21,0,0,1-1-.71,6.06,6.06,0,0,1-1.27-1.75,5.48,5.48,0,0,1-.39-.92.5.5,0,0,1,.46-.62.69.69,0,0,1,.79.39h0a6.87,6.87,0,0,0,.65,1.34,4.54,4.54,0,0,0,.77.93,2.18,2.18,0,0,0,.42.33A8.5,8.5,0,0,1,59,113.77a8.67,8.67,0,0,1,2.9-1.73,9.78,9.78,0,0,1,3.73-.54,11.91,11.91,0,0,1,2.37.38,10,10,0,0,1,3.82,1.9,8.13,8.13,0,0,1,2.49,3.59,7,7,0,0,1,.39,1.87.86.86,0,0,1-1,.77.92.92,0,0,1-1-.77h0a6.44,6.44,0,0,0-.76-2.5,6.65,6.65,0,0,0-1.6-1.93,7.77,7.77,0,0,0-3-1.46,8.87,8.87,0,0,0-1.88-.31,7.33,7.33,0,0,0-2.82.41,6.82,6.82,0,0,0-3.13,2.32,6.62,6.62,0,0,0-1.32,3.59.88.88,0,0,1-.94.72.86.86,0,0,1-.48.06,5.26,5.26,0,0,1-2-.88,8.67,8.67,0,0,1-1.91-1.94,10.15,10.15,0,0,1-.68-1.07A.48.48,0,0,1,52.61,115.59Z"/><path class="cls-12" d="M76.44,108s-13.74-13.88-24.19.15c0,0-.44-3.66,4.52-7.16,5.34-3.78,13.12-2.61,17.6,2C77.51,106.25,76.44,108,76.44,108Z"/><path class="cls-11" d="M102.13,130.22a1.07,1.07,0,0,1,.79,1.29h0a10.45,10.45,0,0,1-1.36,3.06h0a6.06,6.06,0,0,1-5.55,3h-.17a7.6,7.6,0,0,1-5.36-2.84h0a7.48,7.48,0,0,1-1.34-2.5h0a1.07,1.07,0,0,1,.74-1.32h0a1.08,1.08,0,0,1,1.32.75h0a.51.51,0,0,0,0,.11h0l.16.38h0a6,6,0,0,0,.77,1.25h0a5.38,5.38,0,0,0,3.89,2h.1a3.75,3.75,0,0,0,3.32-1.59h0a8.25,8.25,0,0,0,1.32-2.62h0c0-.13,0-.18,0-.18h0a1.08,1.08,0,0,1,1.11-.83h0l.18,0Z"/><path class="cls-13" d="M105.17,147.63a4.59,4.59,0,0,0-1.62-.73c-2.52-.79-3.16-3.09-4.94-2.53s-3.06,3.32-4.7,1.94-2.42-2.34-4.55-.6c-1.77,1.45-4.56.88-5,1.65a.61.61,0,0,0,0,.49c0,.05,0,.1,0,.16a39,39,0,0,0,20.77,0l.09,0C105.27,147.9,105.34,147.8,105.17,147.63Z"/><path class="cls-14" d="M95,152.92a10.2,10.2,0,0,1,8,3.46,14,14,0,0,0,2.17-7.58c0-.28,0-.56,0-.84l-.09,0a39,39,0,0,1-20.77,0c0-.06,0-.11,0-.16,0,.31,0,.63,0,1a13.82,13.82,0,0,0,2.47,8C88.24,154.5,91.39,152.92,95,152.92Z"/><path class="cls-13" d="M94.73,161.25a10,10,0,0,0,8.32-4.87,10.2,10.2,0,0,0-8-3.46c-3.64,0-6.79,1.58-8.32,3.89A9.9,9.9,0,0,0,94.73,161.25Z"/><path class="cls-11" d="M148.7,73.37l-2.34,5.72c8.46,7.37,13.48,18.81,15.88,33.36a51.85,51.85,0,0,0,.51-6.86C162.6,92.74,157,82.44,148.7,73.37Z"/><polygon class="cls-11" points="148.7 73.37 141.27 91.55 126.4 65.94 112.36 94.85 101.62 68.42 85.1 96.5 70.23 74.2 50.82 93.61 46.27 77.5 44.23 81.48 49.85 99.81 68.3 78.88 84 101.46 101.07 72.55 112.91 102.01 126.4 72 140.44 95.4 150.59 77.7 148.7 73.37"/></g></g></svg>