<svg xmlns="http://www.w3.org/2000/svg" viewBox="0 0 157.43 260.01"><defs><style>.cls-1{fill:#4793a0;}.cls-2{fill:#39868e;}.cls-3{fill:#7f5732;}.cls-4{fill:#f9dab4;}.cls-5{fill:#efc4a0;}.cls-6{fill:#47413e;}.cls-7{fill:#f9f7f2;}.cls-8{fill:#44302c;}.cls-9{fill:#4c3626;}.cls-10{fill:#393c3d;}.cls-11{fill:#54a3b5;}.cls-12{fill:#f9f5ed;}.cls-13{fill:#e5be9e;}.cls-14{fill:#f7cea6;}.cls-15{fill:#2d1f1d;}</style></defs><title>资源 108</title><g id="图层_2" data-name="图层 2"><g id="Layer_1" data-name="Layer 1"><path class="cls-1" d="M125.6,260c-1.55-23.7-5.53-80.93-8.64-91.93H40.47c-2.07,4.93-4.79,67-5.81,91.93Z"/><polygon class="cls-2" points="74.94 260.01 87.49 260.01 87.49 168.23 74.94 168.29 74.94 260.01"/><path class="cls-2" d="M119.75,155.87c0,15.14-17.82,27.41-39.8,27.41S40.15,171,40.15,155.87,58,128.46,80,128.46,119.75,140.73,119.75,155.87Z"/><path class="cls-1" d="M12.1,188.09c12.59-19.44,22.36-18.71,28.37-20,0,0,7.28,28.79-4.84,38.62-4,3.84-7.48,15.73-8.27,23.34-.91,8.84.16,20.06,1.66,30H.37a234.22,234.22,0,0,1-.08-25C.65,226.27,6.51,196.73,12.1,188.09Z"/><path class="cls-2" d="M38.07,178.49c.63,6.32.88,15.33-1.21,23.67,0,0,.47-20.07-7.84-21.42-4.55-.75-10.56,2.29-16,6,12.15-18,21.61-17.38,27.47-18.65C40.47,168.08,37.75,170.93,38.07,178.49Z"/><path class="cls-1" d="M145.33,188.09c-12.59-19.44-22.36-18.71-28.37-20,0,0-7.28,28.79,4.84,38.62,4,3.84,7.48,15.73,8.27,23.34.91,8.84-.16,20.06-1.67,30h28.66a234.22,234.22,0,0,0,.08-25C156.78,226.27,150.92,196.73,145.33,188.09Z"/><path class="cls-2" d="M119.36,178.49c-.63,6.32-.88,15.33,1.21,23.67,0,0-.47-20.07,7.84-21.42,4.55-.75,10.56,2.29,16,6-12.15-18-21.61-17.38-27.47-18.65C117,168.08,119.68,170.93,119.36,178.49Z"/><path class="cls-3" d="M20.21,125.81H139.93s31.81-78.47-31.46-106.94C36.32-13.6-19.29,56.58,20.21,125.81Z"/><path class="cls-4" d="M29,88.21v39.06c0,14.67,18.47,42.49,49.8,42.49,24.69,0,48.75-6.32,54.52-55.08V87.43s.17-41-53.38-41S29,88.21,29,88.21Z"/><path class="cls-5" d="M85.93,130.9a3.17,3.17,0,0,1,.81,2c0,2.39-3.11,4.33-6.95,4.33s-7-1.94-7-4.33a3.17,3.17,0,0,1,.81-2,4.38,4.38,0,0,0-2.18,3.5c0,2.86,3.72,5.19,8.32,5.19s8.32-2.33,8.32-5.19A4.38,4.38,0,0,0,85.93,130.9Z"/><path class="cls-6" d="M54.78,115.8a7.67,7.67,0,1,1-7.24-8.07A7.67,7.67,0,0,1,54.78,115.8Z"/><path class="cls-7" d="M51.82,113.45c-.59,1.42-2.69,1.9-4.68,1.08s-3.13-2.65-2.54-4.07,2.68-1.9,4.67-1.07S52.41,112,51.82,113.45Z"/><path class="cls-8" d="M60.85,102.83S59.54,96.28,54,95.12s-10.2,5.18-10.2,5.18a11.45,11.45,0,0,0-1.94,5.17S51.72,99.09,60.85,102.83Z"/><path class="cls-8" d="M100.36,103.61s1.31-6.54,6.89-7.7,10.21,5.17,10.21,5.17a11.73,11.73,0,0,1,1.94,5.17S109.49,99.88,100.36,103.61Z"/><path class="cls-6" d="M100.1,115.8a7.66,7.66,0,1,0,7.23-8.07A7.66,7.66,0,0,0,100.1,115.8Z"/><path class="cls-7" d="M103.05,113.45c.59,1.42,2.69,1.9,4.68,1.08s3.13-2.65,2.54-4.07-2.68-1.9-4.68-1.07S102.46,112,103.05,113.45Z"/><path class="cls-3" d="M13.73,58.89s4.72,18.45,28.91,20.29c0,0,10.45,11.69,34.23,8.82,0,0,7,5.54,26.24,1.85,0,0,12.71,3.89,23.58-.62,0,0,4.1,3.13,12.09,2.18L117.87,27.12Z"/><path class="cls-9" d="M118.81,80.05a22.19,22.19,0,0,0,3.87,10.47,26.32,26.32,0,0,0,4-1.29A22.93,22.93,0,0,1,118.81,80.05Z"/><path class="cls-9" d="M93.31,78.08a13.75,13.75,0,0,0,4.87,12.55c1.55-.19,3.19-.45,4.93-.78C103.11,89.85,94.08,86.89,93.31,78.08Z"/><path class="cls-9" d="M70.81,75.94s-2,7.12,1,12.47c1.61-.07,3.3-.2,5.05-.41C76.87,88,71,83.3,70.81,75.94Z"/><path class="cls-9" d="M38,67.66s-1.54,4.11,1.59,11.19c1,.14,2,.25,3.07.33A28.11,28.11,0,0,1,38,67.66Z"/><path class="cls-5" d="M106.28,151.66a1,1,0,0,1-1-1,2.94,2.94,0,0,0-1-2.53c-1-.63-2.74-.11-3.27.12a1,1,0,0,1-.82-1.87c.32-.14,3.12-1.3,5.19,0,1.23.78,1.86,2.2,1.9,4.21a1,1,0,0,1-1,1Z"/><path class="cls-5" d="M55,150.49a33.8,33.8,0,0,0,6.64,4.87,34.65,34.65,0,0,0,17.29,4.85c6.77,0,14.56-2.22,22.69-8.6a1.18,1.18,0,0,0-1.46-1.86c-7.77,6.09-15,8.09-21.23,8.1a32.47,32.47,0,0,1-16.11-4.53,35.72,35.72,0,0,1-4.57-3.12c-.53-.42-.93-.77-1.2-1l-.3-.28-.07-.07h0A1.17,1.17,0,0,0,55,150.49Z"/><path class="cls-10" d="M80.5,105.31h-56v8.88s8,1.66,11.57,8.16c3.14,5.76,3.23,17.9,18,19.48,19.21,2,14.94-13,21.62-14.9,3.59-1,3.59-1,4.78-1s1.19,0,4.79,1c6.68,1.88,2.4,16.95,21.62,14.9,14.8-1.58,14.9-13.72,18-19.48,3.54-6.5,11.58-8.16,11.58-8.16v-8.88Z"/><path class="cls-11" d="M123,108.15H38A56.47,56.47,0,0,0,40,123c2.12,7.36,5.19,14.28,13.63,15.9,14.17,2.72,14.48-10.56,17.91-13.55,2.9-2.52,7.17-3.11,9-3.11s6.09.59,9,3.11c3.43,3,3.74,16.27,17.91,13.55,8.44-1.62,11.51-8.54,13.63-15.9A56.47,56.47,0,0,0,123,108.15Z"/><path class="cls-12" d="M89.74,108.15l-11,14.19a14,14,0,0,1,1.74-.13c1.81,0,6.09.59,9,3.11a9.82,9.82,0,0,1,2,3.14l15.72-20.31Z"/><path class="cls-12" d="M113.57,108.15,94,133.51a12.58,12.58,0,0,0,3.42,3.83L120,108.15Z"/><path class="cls-4" d="M31.85,117.71s-9.26-10.51-17.6,0S17,148,31.85,136.9Z"/><path class="cls-13" d="M26.35,132.28S27.14,120,22.46,120,16.24,132.28,26.35,132.28Z"/><path class="cls-14" d="M22.46,120a3.5,3.5,0,0,0-3,2.39c2.18,2.37,5.48,6.29,6.93,9.64C26.44,130.4,26.77,120,22.46,120Z"/><path class="cls-4" d="M127.88,118.59s10-9.84,17.56,1.23-4.9,30-18.9,17.92Z"/><path class="cls-13" d="M132.36,133.51s.06-12.28,4.73-12S142.44,134.21,132.36,133.51Z"/><path class="cls-14" d="M137.09,121.55a3.52,3.52,0,0,1,2.85,2.6c-2.34,2.21-5.9,5.89-7.58,9.13C132.4,131.63,132.79,121.25,137.09,121.55Z"/><path class="cls-8" d="M8.45,64.8s67.18-70.51,137.69,0C146.14,35.38,127.87,0,80.69,0S8.45,23.46,8.45,64.8Z"/><path class="cls-15" d="M146.14,64.8a73.12,73.12,0,0,0-1.35-13.91C136.18,44,122,34.33,105.07,29.62c-26.4-7.33-49.6-12.38-95.95,23.93A90.47,90.47,0,0,0,8.45,64.8S75.63-5.71,146.14,64.8Z"/></g></g></svg>