<svg xmlns="http://www.w3.org/2000/svg" viewBox="0 0 212.42 260.02"><defs><style>.cls-1{fill:#c65044;}.cls-2{fill:#ad3936;}.cls-3{fill:#f4d3b0;}.cls-4{fill:#3a332d;}.cls-5{fill:#e0605c;}.cls-6{fill:#f9dab4;}.cls-7{fill:#efc4a0;}.cls-8{fill:#492020;}.cls-9{fill:#6dbdc6;}.cls-10{fill:#f9f5ed;}</style></defs><title>资源 193</title><g id="图层_2" data-name="图层 2"><g id="Layer_1" data-name="Layer 1"><path class="cls-1" d="M63.89,158.2c-7.28,12.63-12.25,20.67-12.25,22.2v5.75a16.58,16.58,0,0,0-7.08,5C41.3,195,13.74,236.3,12.2,239.74s0,10.34,0,10.34a3.92,3.92,0,0,0-3.82,0C6.85,251,2,256.74,0,260H58.07c11.18-17.95,27.25-45.93,27.25-45.93l-1.91-67.76S71.16,145.57,63.89,158.2Z"/><path class="cls-2" d="M47.46,196.22a12.76,12.76,0,0,0-4.81-2.54c-4.54,6.33-15.07,22-22.49,33.37a8.17,8.17,0,0,0,.63.69c6.8,5.76,18.29,3.37,25.65-5.33S54.26,202,47.46,196.22Z"/><path class="cls-1" d="M145,146.32c-16.91-2-1.44,70.18,10.44,113.7h49.16c3.2-13.11,7.34-29.95,7.78-36.36C213.18,212.56,145,146.32,145,146.32Z"/><path class="cls-2" d="M189.74,218.32c0,13.89,8.3,25.2,18.72,25.83,2-8.59,3.69-16.53,4-20.49.25-3.61-6.83-13.09-16.47-24.21A30.19,30.19,0,0,0,189.74,218.32Z"/><path class="cls-3" d="M53.2,114.89s-8.15-17-21.34-15.22S27.52,128,40.43,135.4s30.79,7.87,30.79,7.87Z"/><path class="cls-3" d="M170.19,114.89s8.15-17,21.35-15.22S195.87,128,183,135.4s-30.78,7.87-30.78,7.87Z"/><path class="cls-4" d="M186.13,70.73c0,.5,0,22.4,0,22.9-.85,38.37-33.83,47.82-74.42,47.82S38.12,132,37.28,93.63c0-.5,0-22.4,0-22.9C37.26,31.67,70.59,0,111.7,0S186.13,31.67,186.13,70.73Z"/><path class="cls-5" d="M76.43,149.78S53.34,216.2,49.25,260H173.5c-4.08-43.82-27.18-110.24-27.18-110.24H76.43Z"/><path class="cls-2" d="M120.54,159.73a23,23,0,0,1-2.44,7.48,24,24,0,0,1-4.75,6.45A28.21,28.21,0,0,1,99.08,181l1.11-1.32q.24,12.44.14,24.88L98.84,203c4.18,0,8.36.1,12.54.17l1.23,0,.09,1.17c.39,4.92.69,9.86,1,14.79.19,2.46.27,4.93.39,7.4s.24,4.94.29,7.42c-.46-2.43-.85-4.88-1.24-7.32s-.81-4.88-1.12-7.33c-.66-4.9-1.37-9.79-2-14.69l1.32,1.19c-4.18.07-8.36.16-12.54.16H97.36v-1.49q-.1-12.44.14-24.88l0-1.15,1.08-.18a27.6,27.6,0,0,0,13.59-5.93A27,27,0,0,0,120.54,159.73Z"/><path class="cls-2" d="M172.81,253.87c-1.2-9.54-3.12-19.85-5.42-30.19-10.93,2.59-28.51,5.16-55.28,5.16-27,0-45.22-2.62-56.72-5.29-2.3,10.35-4.23,20.69-5.44,30.24,14,3.1,34.12,5.67,62.16,5.67C139.58,259.46,159.12,257,172.81,253.87Z"/><path class="cls-6" d="M180.1,114.56c-4.6-.51-5.62-51.56-13.27-56.15s-16.33-11.74-26.55-3.06c-8.18,7-14.44,12.54-23.68,14.76a37,37,0,0,1-4.9.82,37.09,37.09,0,0,1-4.89-.82c-9.24-2.22-15.52-7.8-23.69-14.76-10.21-8.68-18.89-1.53-26.55,3.06S47.9,114.05,43.3,114.56a3.55,3.55,0,0,1-2.13-.71c1.22,5.51,2.85,10.29,5.07,13,7.58,9.16,39.61,36.07,62.63,39a18.27,18.27,0,0,0,2.83.13,18.36,18.36,0,0,0,2.83-.13c23-2.94,55-29.85,62.63-39,2.21-2.67,3.85-7.45,5.06-13A3.5,3.5,0,0,1,180.1,114.56Z"/><polygon class="cls-4" points="91.81 91.04 88.39 97.51 63.56 85.68 67.55 76.79 91.81 91.04"/><polygon class="cls-4" points="130.94 91.04 134.37 97.51 159.19 85.68 155.2 76.79 130.94 91.04"/><path class="cls-7" d="M120.5,137.88s-2.06-6.6-8.69-7-9.44,8.08-9.44,8.08,4.17-6.31,9.42-5.72A14.7,14.7,0,0,1,120.5,137.88Z"/><path class="cls-8" d="M96.75,148.09h29.9s.5,11.51-15,11.7S96.75,148.09,96.75,148.09Z"/><path class="cls-1" d="M103.19,158.21a19,19,0,0,0,8.51,1.58,19.81,19.81,0,0,0,8.49-1.73,8.62,8.62,0,0,0-17,.15Z"/><path class="cls-9" d="M112,105v0l-.34,0-.35,0v0c-38.29,2-74.77-2.92-74.77-2.92s24.7,28.09,32.08,35.43,27.46,5.78,29.77,4.86c2-.81,3.46-18.81,13.27-18.81s11.23,18,13.27,18.81c2.3.92,22.38,2.49,29.76-4.86s32.08-35.43,32.08-35.43S150.33,107,112,105Z"/><path class="cls-10" d="M77.94,105.22,63.12,131.68c2.25,2.43,4.19,4.47,5.54,5.81a14.53,14.53,0,0,0,4.5,2.9l19.56-34.94C87.62,105.46,82.66,105.37,77.94,105.22Z"/><path class="cls-10" d="M140,105.36,122.6,136.49c1,3.08,1.64,5.57,2.37,5.86a35.91,35.91,0,0,0,8.82.8l21.47-38.36C150.51,105.05,145.39,105.25,140,105.36Z"/></g></g></svg>