<svg xmlns="http://www.w3.org/2000/svg" viewBox="0 0 265.74 260.49"><defs><style>.cls-1{fill:#0b5668;}.cls-2{fill:#126e89;}.cls-3{fill:#fff;}.cls-4{fill:#d8d9d9;}.cls-5{fill:#e1e3e2;}.cls-6{fill:#b7b7b7;}.cls-7{fill:#6b6d6c;}.cls-8{fill:#8e8e8e;}.cls-9{fill:#44302c;}.cls-10{fill:#f7cea6;}.cls-11{fill:#f9dab4;}.cls-12{fill:#513d3a;}.cls-13{fill:#e5be9e;}.cls-14{fill:#f9f7f2;}.cls-15{fill:#3a2622;}.cls-16{fill:#47413e;}</style></defs><title>资源 224</title><g id="图层_2" data-name="图层 2"><g id="Layer_1" data-name="Layer 1"><path class="cls-1" d="M227.25,154.55l.54,105.94H265A155.15,155.15,0,0,0,260.34,205C251,171,227.25,154.55,227.25,154.55Z"/><path class="cls-2" d="M236.06,244.2s-2.5-57.16-2.5-68,4.46-10,11.33,1c9.2,14.73,15.33,35.85,16.8,53.1,1.28,15,3.28,24.81-8.58,26.24S236.43,252,236.06,244.2Z"/><path class="cls-1" d="M106.45,155.17S76.64,171.48,65,201.56s-8,41.8-8,41.8h47Z"/><path class="cls-2" d="M94.77,235s4.86-50.68,4.86-60.37-4.83-9-14.39-.55-19.67,28.8-22.74,42.06-5.23,22.17,7.68,22.17S94.77,238,94.77,235Z"/><path class="cls-3" d="M134.13,157.55s34.39-26.15,70.18.47v74.81l-69.75-.47Z"/><polygon class="cls-4" points="161.27 169.47 150.36 177.96 148.01 174.88 161.8 167.01 162.86 168.6 161.27 169.47"/><polygon class="cls-4" points="177 169.47 187.9 177.96 190.25 174.88 176.46 167.01 175.4 168.6 177 169.47"/><path class="cls-3" d="M148.75,176.25l20.44-13.18-30.84-3.25Zm20.44-13.18,19.09,13.18,7.05-16.43Z"/><polygon class="cls-5" points="174.45 168.51 164.16 168.51 163.97 169.45 154.41 217.47 170.4 238.67 187.31 216.95 174.45 168.51"/><polygon class="cls-6" points="165.25 169.64 173.43 169.64 185.92 216.72 170.42 236.63 155.78 217.23 165.25 169.64"/><polygon class="cls-7" points="185.92 216.72 173.43 169.64 169.91 169.64 169.91 235.97 170.42 236.63 185.92 216.72"/><path class="cls-3" d="M175.44,177.24a30.69,30.69,0,0,1-2.86,2.72,36.06,36.06,0,0,1-10.6,6.1l-1.37,6.88a44.18,44.18,0,0,0,16.72-8.6Z"/><path class="cls-3" d="M181.67,200.71l-1.95-7.34a31.11,31.11,0,0,1-5.12,4.91A42.49,42.49,0,0,1,158,205.82l-1.29,6.48c10.63-1.9,18.09-6,22.88-9.85Q180.74,201.57,181.67,200.71Z"/><path class="cls-3" d="M184.34,210.77c-2.91,3-10.22,9.2-24.21,12.24l4,5.32a58.6,58.6,0,0,0,19.36-8.52l2.41-3.09Z"/><path class="cls-8" d="M162.5,164h14.14c.53,0,.23,6.31.05,6.95-.91,3.36-5,3.29-8,3.26-2.08,0-4.7-.2-5.93-2C161.18,169.94,162.35,166.44,162.5,164Z"/><path class="cls-2" d="M207.15,157.92,171.4,203.08l-44.29-45.51H103.59s-3.77,60.94-4.79,102.92H231.35c.48-28.07.71-81-3.71-102.68Z"/><path class="cls-1" d="M171.4,203.08l-44.29-45.51h-3.45l7.34,7.51c.3,7.12.59,17.41.16,24.83-.72,12.45,2.46,12.59,13.61,10.27a175.39,175.39,0,0,1,17.95-2.6l6.22,6.37c-3.55,3.54-6.51,6.51-6.51,6.51,0,5.07-1.45,26.2-2.46,36.62-.35,3.53-.62,8.45-.84,13.41H163V249c0-12.45,2.46-36.92,2.46-37.64,2.42-2.42,9.57-8.22,13.76-13.34,8.75,1.28,23,2.5,23-3V167l7.15-9.07h-2.23Z"/><path class="cls-1" d="M182.5,241.5c0,3.67-2.39,6.65-5.35,6.65s-5.35-3-5.35-6.65,2.4-6.65,5.35-6.65S182.5,237.83,182.5,241.5Z"/><path class="cls-9" d="M81.94,141.81H248s-1.91-56.76,1.9-72.76c0,0,8.57-1.52,12-6.85s-1.71-8.57-11.24-2.86c6.38-10.76-2.28-19.43-7.81-1.52,0,0-3-30.57-38.19-46.86s-58.85-13.43-88.85,2-30,44.29-30,54.86c-15.43-3.43-10,7.71-6.85,24.28S85.46,128.1,81.94,141.81Z"/><path class="cls-10" d="M99.56,93s1.71,34,1.71,47.42-4.57,29,8.86,27,73.71-3.24,99.13-1,24-2.57,24-18.57V96.1c0-10.57-10.28-24.57-25.14-28.28S178,74.24,169.84,82.39,141.84,108.39,99.56,93Z"/><path class="cls-11" d="M231.46,96.67s-16.77-11.23-67.81-6.09c-11.24,8.19-31.81,15.81-62.09,5,1.33,21.52,1.71,53.39,1,60.64s8.16,8.67,20.35,7.63,50.09-1.61,71-.27,36.48,4.28,37.91-5.72S231.46,96.67,231.46,96.67Z"/><path class="cls-12" d="M163.65,88c13.31-1.21,49.27-3.3,69.55,6.76-.84-10.38-10.86-23.34-25.08-26.89C193.27,64.1,178,74.24,169.84,82.39A68.24,68.24,0,0,1,163.65,88Z"/><path class="cls-11" d="M104.06,156s-8.57,2.91-16.73-1.86-9.87-21.2,2.15-23.9,13.59,9.52,13.59,9.52Z"/><path class="cls-10" d="M99.55,150.65S98.8,132.76,89.35,138c-5.8,3.2-3.57,8.7.91,11.31A12.91,12.91,0,0,0,99.55,150.65Z"/><path class="cls-13" d="M99.48,150.43,99,145.89s-15.4-5.75-11.85.55S99.48,150.43,99.48,150.43Z"/><path class="cls-11" d="M230.83,156s8.57,2.91,16.73-1.86,9.87-21.2-2.15-23.9-13.59,9.52-13.59,9.52Z"/><path class="cls-10" d="M235.34,150.65s.75-17.89,10.2-12.67c5.8,3.2,3.57,8.7-.9,11.31A12.94,12.94,0,0,1,235.34,150.65Z"/><path class="cls-13" d="M236,145.53a35.07,35.07,0,0,0-.68,5.12,12.94,12.94,0,0,0,9.3-1.36,9.22,9.22,0,0,0,4-4.4C248.52,141.89,239.26,144.52,236,145.53Z"/><path class="cls-10" d="M176.5,121.29s7.2,13.79,0,19-16.66,2.08-18.24-1.7c-2.79-6.69,3.86-8.72,5.09-17.84a8.36,8.36,0,0,1,6.18-2.41A10.43,10.43,0,0,1,176.5,121.29Z"/><path class="cls-11" d="M175.86,120.71s6.38,11.71-.05,16.46-14.84,1.9-16.24-1.57c-2.49-6.12,3.35-7.45,4.44-15.8a8.62,8.62,0,0,1,5.61-1.81A9.22,9.22,0,0,1,175.86,120.71Z"/><path class="cls-14" d="M164,134.8c0,.47,1.08.82,2.37.8s2.33-.43,2.31-.9-1.09-.82-2.38-.79S163.94,134.34,164,134.8Z"/><path class="cls-9" d="M125.55,106.88s-3-6.72-8.4-6-7.9,9.3-7.9,9.3a16.17,16.17,0,0,0-.35,6.36S116.2,106,125.55,106.88Z"/><path class="cls-9" d="M210,101.8s-2.1,5.32-.21,8.62c0,0,5.76-3.66,12,1.47,0,0,2.67-2.87.81-5S215,99.53,210,101.8Z"/><path class="cls-8" d="M182.06,127.58c-4.73-5.23-9.39-6.86-13.55-6.88h0c-7.08,0-12.92,5-14.22,6.19h0l-.27.26h0a.85.85,0,0,1-1.21,0h0a.86.86,0,0,1,0-1.22h0c.07,0,6.69-6.92,15.71-7h0c4.64,0,9.85,1.91,14.83,7.44h0a.86.86,0,0,1-.07,1.21h0a.82.82,0,0,1-.57.22h0a.86.86,0,0,1-.64-.28Z"/><path class="cls-6" d="M155.46,129.94a10.1,10.1,0,1,1-10.1-10.1A10.1,10.1,0,0,1,155.46,129.94Z"/><path class="cls-3" d="M151.18,121.7,145.25,140h.11a10.16,10.16,0,0,0,1.84-.18L152.67,123A10.71,10.71,0,0,0,151.18,121.7Zm-4.82-1.81-6.08,18.76a10.13,10.13,0,0,0,3.39,1.23l6.16-19A9.94,9.94,0,0,0,146.36,119.89Z"/><path class="cls-6" d="M202.46,129.94a10.1,10.1,0,1,1-10.1-10.1A10.1,10.1,0,0,1,202.46,129.94Z"/><path class="cls-3" d="M198.18,121.7,192.24,140h.12a10.16,10.16,0,0,0,1.84-.18L199.67,123A10.16,10.16,0,0,0,198.18,121.7Zm-4.82-1.81-6.08,18.76a10.13,10.13,0,0,0,3.39,1.23l6.16-19A10,10,0,0,0,193.36,119.89Z"/><path class="cls-15" d="M174.05,82c0,.36,1.61.39,2.89,1.51s1.53,2.76,1.83,2.7.51-1.89-1.16-3.44S174,81.79,174.05,82Zm8.14-7.5c-.1.21,2.35,1.74,3.2,5.18s1,6.18,1.3,6.18.7-2.94-.35-6.47C185.43,75.6,182.23,74.08,182.19,74.46Zm8.58-4.36c-.18.2,3,2.58,3.54,7.25.7,4.51-.06,8.28.24,8.32s1.47-3.69.74-8.48C194.69,72.16,190.81,69.74,190.77,70.1ZM201.84,69c-.21.13,1.85,3.59,1.68,8.51s-1.11,8.7-.83,8.77,1.79-3.72,1.83-8.77S202.05,68.77,201.84,69Zm8.43,1.29c-.24.11,1.34,3.6.87,8.26s-1.64,8.21-1.37,8.31,2-3.43,2.37-8.24S210.49,70.1,210.27,70.32Zm7.07,4.14c-.23.13,1.25,3,.65,7s-1.78,6.86-1.51,7,2-2.76,2.5-6.86S217.55,74.21,217.34,74.46ZM225,80.17c-.26.14.71,2.28.28,5.09s-1.39,4.92-1.14,5.06,1.71-1.89,2.13-4.94S225.18,80,225,80.17Z"/><path class="cls-10" d="M245.88,153.76c-3.85,2.39-13.76,1.48-13.76,1.48a2.86,2.86,0,0,0-.17,1.1,21.79,21.79,0,0,0,15.61-2.16,13.94,13.94,0,0,0,6.09-9.05C252.8,148.89,249.72,151.39,245.88,153.76Z"/><path class="cls-14" d="M225.41,137.89c0,.43-1.12.78-2.5.78s-2.5-.35-2.5-.78,1.12-.79,2.5-.79S225.41,137.45,225.41,137.89Z"/><path class="cls-14" d="M114,137.89c0,.43-1.12.78-2.5.78s-2.5-.35-2.5-.78,1.12-.79,2.5-.79S114,137.45,114,137.89Z"/><path class="cls-14" d="M175.46,161.25c0,.58-1.64,1-3.65,1s-3.65-.46-3.65-1,1.63-1.05,3.65-1.05S175.46,160.67,175.46,161.25Z"/><path class="cls-13" d="M147.74,159.22h0a1.15,1.15,0,0,1-1.17-1.15h0a1.16,1.16,0,0,1,1.14-1.18h0s3.7,0,9.22-.41h0A187.39,187.39,0,0,0,177,154.13h0a77.82,77.82,0,0,0,16.82-4.66h0c4.77-2.05,8.18-4.68,9.34-7.68h0a1.17,1.17,0,0,1,1.51-.65h0a1.16,1.16,0,0,1,.65,1.51h0c-1.59,4-5.58,6.77-10.57,8.95h0a80.63,80.63,0,0,1-17.34,4.82h0a205.86,205.86,0,0,1-29.69,2.8Z"/><path class="cls-16" d="M115.69,124a1.24,1.24,0,0,1-1.18-1.29h0a9.64,9.64,0,0,1,.68-3h0a7.3,7.3,0,0,1,4.24-4.33h0a4.79,4.79,0,0,1,1.68-.31h0a6.25,6.25,0,0,1,4.73,2.76h0a12.68,12.68,0,0,1,1.53,2.54h0a1.24,1.24,0,0,1-.65,1.63h0a1.22,1.22,0,0,1-1.61-.65h0l-.08-.15h0c0-.11-.13-.27-.23-.46h0a10.8,10.8,0,0,0-.91-1.4h0a3.89,3.89,0,0,0-2.78-1.8h0a2.37,2.37,0,0,0-.82.16h0a4.71,4.71,0,0,0-2.62,2.48h0a7.73,7.73,0,0,0-.68,2.45h0c0,.11,0,.14,0,.14h0a1.24,1.24,0,0,1-1.24,1.18h0Z"/><path class="cls-16" d="M221.18,124a1.24,1.24,0,0,0,1.18-1.29h0a10,10,0,0,0-.68-3h0a7.32,7.32,0,0,0-4.25-4.33h0a4.78,4.78,0,0,0-1.67-.31h0a6.23,6.23,0,0,0-4.73,2.76h0a13,13,0,0,0-1.54,2.54h0a1.24,1.24,0,0,0,.65,1.63h0a1.23,1.23,0,0,0,1.62-.65h0l.07-.15h0c0-.11.13-.27.23-.46h0a12,12,0,0,1,.91-1.4h0a3.91,3.91,0,0,1,2.79-1.8h0a2.42,2.42,0,0,1,.82.16h0a4.66,4.66,0,0,1,2.61,2.48h0a7.83,7.83,0,0,1,.69,2.45h0c0,.11,0,.14,0,.14h0a1.23,1.23,0,0,0,1.23,1.18h.06Z"/><path class="cls-10" d="M46.77,245.06s2.68,13.39,9.66,15.19,32.86-6.85,41.2-8.63,18.18-8.24,16.77-14.07c-1.31-5.39-3.11-11.75-7.91-15.18,4.16-5.93,9.62-33.86-12.44-34.08,6-7,3.39-32.63-19.87-30.75-10.08,0-24.62,5.47-24.62,5.47s-2.39-22.95-20.46-27.62-36.8-1.62-25.84,17,32.27,56.5,36.08,68.87S46.77,245.06,46.77,245.06Z"/><path class="cls-11" d="M45.26,163.24s-5.1-21.93-20.49-25.9S-.62,139,7.6,152.94s22.32,37,28,51.9,14.6,47.78,18.51,50.43,23.31-1.21,26.41-3,24-3.54,29.73-10.66c2.64-3.41.8-7.73-.52-10s-1.73-8.25-6.86-7.44S90.51,226.49,89.64,227s-2.37-2.25-.09-2.49,13.07-2.24,15.5-6.07,4.15-17.59.14-22.4-10.36-6.95-27.77.71c-2.33,1.37-4-1.54.64-3.12S91.31,189,93.74,179.56s-7.93-20.64-18.85-19.68-24.3,4.65-26.43,5.91-8.19,2.48-8.88,1.32S45.26,163.24,45.26,163.24Z"/></g></g></svg>