<svg xmlns="http://www.w3.org/2000/svg" viewBox="0 0 171.05 260.03"><defs><style>.cls-1{fill:#4c3626;}.cls-2{fill:#f4efed;}.cls-3{fill:#e2dcd9;}.cls-4{fill:#7f5732;}.cls-5{fill:#f9dab4;}.cls-6{fill:#3a332d;}.cls-7{fill:#c65044;}.cls-8{fill:#efc4a0;}.cls-9{fill:#6d4c3a;}</style></defs><title>资源 86</title><g id="图层_2" data-name="图层 2"><g id="Layer_1" data-name="Layer 1"><path class="cls-1" d="M165.86,201.21s-15.74-5.85-14.39-75.53l-68.33,4.5-68.32-4.5C16.16,195.36.43,201.21.43,201.21c9,0,11.69-1.35,11.69-1.35C6.87,208,7,214.34,10.4,219.35s15.46,14.91,65.17,14.91c64.66,0,69.05-9.59,83-18.52,0,0-12.74-3.89-4.41-15.88C154.17,199.86,156.87,201.21,165.86,201.21Z"/><path class="cls-2" d="M110.58,157.64H58.17S29.94,196.47,23.26,260H145.49C138.82,196.47,110.58,157.64,110.58,157.64Z"/><path class="cls-3" d="M115,190.65c2.3,11.66,7.13,52.3,9.11,69.38h5.41C125.29,231.1,115,190.65,115,190.65Z"/><path class="cls-3" d="M44.69,260c2-17.08,6.82-57.72,9.12-69.38,0,0-10.35,40.45-14.52,69.38Z"/><rect class="cls-4" x="77.76" y="165.65" width="12.91" height="8.46" rx="2.27"/><polygon class="cls-4" points="81.42 169.88 87.22 169.88 91.98 222.72 84.21 234.26 76.44 222.41 81.42 169.88"/><polygon class="cls-3" points="71.06 177.28 84.25 164.49 97.44 177.28 114.1 156.03 54.8 156.03 71.06 177.28"/><circle class="cls-5" cx="83.14" cy="106.79" r="59.79" transform="translate(-34.54 39.95) rotate(-22.5)"/><path class="cls-6" d="M59.07,123.4h-.33c-5.67-.19-7.14-5.76-7.13-8.68a1.11,1.11,0,0,1,1.1-1.09h0a1.1,1.1,0,0,1,1.09,1.1c0,.26,0,6.31,5,6.47,5.14.19,6.35-4.89,6.4-5.1a1.1,1.1,0,1,1,2.14.49C66.81,119,64.38,123.4,59.07,123.4Z"/><path class="cls-6" d="M110.32,123.4c-5.32,0-7.74-4.42-8.28-6.81a1.1,1.1,0,0,1,.82-1.32,1.11,1.11,0,0,1,1.32.83c0,.21,1.29,5.27,6.39,5.1s5-6.21,5-6.47a1.09,1.09,0,0,1,1.09-1.1h0a1.09,1.09,0,0,1,1.09,1.09c0,2.92-1.46,8.49-7.12,8.68Z"/><path class="cls-7" d="M74.56,150.25s2.52-3.79,5.43-3.62a6.16,6.16,0,0,1,4.49,3s2.62-2.9,5.68-2.84,4.39,3.78,4.39,3.78-3,7.1-10.29,7.1S74.56,150.25,74.56,150.25Z"/><path class="cls-8" d="M79.55,138s.5-4.48,4.81-4.5,5.2,4.5,5.2,4.5-2.36-2.76-5.12-2.76S79.55,138,79.55,138Z"/><path class="cls-6" d="M62.86,139.7c-7,0-15.71-3.77-17.38-14.42l-.21-1.37,32.25,2.46.17.8c.94,4.42-3.18,9.55-9.38,11.68A16.93,16.93,0,0,1,62.86,139.7ZM47.92,126.32c2,8.22,9.15,11.19,14.94,11.19a15.1,15.1,0,0,0,4.74-.73c4.6-1.58,8-5.25,8-8.35Z"/><path class="cls-6" d="M106.53,139.7h0a16.88,16.88,0,0,1-5.45-.85c-6.21-2.13-10.33-7.26-9.38-11.68l.17-.8,32.25-2.46-.22,1.37C122.23,135.93,113.5,139.7,106.53,139.7ZM93.76,128.43c0,3.1,3.43,6.77,8,8.35a15.06,15.06,0,0,0,4.74.73c5.79,0,13-3,14.94-11.19Z"/><path class="cls-6" d="M46.57,126.21a1,1,0,0,1-.45-.1L31,119.3a1.1,1.1,0,1,1,.91-2L47,124.11a1.1,1.1,0,0,1-.45,2.1Z"/><path class="cls-6" d="M122.82,126.21a1.1,1.1,0,0,1-.5-2.08l19.38-9.88a1.1,1.1,0,0,1,1,2l-19.38,9.88A1.11,1.11,0,0,1,122.82,126.21Z"/><path class="cls-6" d="M92.77,128.5a1.09,1.09,0,0,1-.91-.49,8.89,8.89,0,0,0-14.34,0,1.1,1.1,0,0,1-1.82-1.23,11.08,11.08,0,0,1,18,0,1.1,1.1,0,0,1-.92,1.71Z"/><path class="cls-9" d="M132.16,164.11C198.29,93.37,168,37.55,130,12.65,113.7,2,94.25,0,83.14,0c-37.09,0-44.4,21.2-44.4,21.2a42,42,0,0,0-15.38,6.16C-9.23,49.36,1.8,114.91,1.8,114.91c0-5,3.81-13.78,3.81-13.78,0,44.87,34.31,65.45,34.31,65.45-4.22-16.35-6.41-36.05-4.91-44.86C37.53,107,54.39,105,63,101.66A82.44,82.44,0,0,0,83.14,90.41c5.2,4.06,11.64,7,19,9.16-2-2.64-3.69-5.22-3.44-7.45,10.76,2.19,24.41,7.15,31.72,18.46C149.13,139.51,132.16,164.11,132.16,164.11Z"/></g></g></svg>