<svg xmlns="http://www.w3.org/2000/svg" viewBox="0 0 258.44 260.15"><defs><style>.cls-1{fill:#f9dab4;}.cls-2{fill:#f7cea6;}.cls-3{fill:#61aa90;}.cls-4{fill:#519b7e;}.cls-5{fill:#6fbc9f;}.cls-6{fill:#549b7e;}.cls-7{fill:#4c3626;}.cls-8{fill:#e5be9e;}.cls-9{fill:#2f3233;}.cls-10{fill:#f9f5ed;}.cls-11{fill:#8e633f;}</style></defs><title>资源 217</title><g id="图层_2" data-name="图层 2"><g id="Layer_1" data-name="Layer 1"><path class="cls-1" d="M46.41,175.43s-2.83-11.56-11.86-16.5-14.74-.77-18.94,1-8.46,1.21-11-.64S-3.62,168,9.83,171.79c-6,9-10.3,16.25-9.79,21s5.15,5.91,5.15,5.91-5.58,8.75,3.48,11.72c-.48,6.12,5.85,8.27,9.66,3.17s7.26-19.67,14.58-21.74C40.77,189.5,48.07,183.7,46.41,175.43Z"/><path class="cls-2" d="M22.26,203.5c-.76,2.25-4.76,11.07-7.68,11.53s-4.58-1.52-4.34-4.64,4.54-13.67,6-16.53,1.8-5.05-.14-3.39-5.43,11.29-7,17.11c-2,.42-3.23-.83-4-3.12S10.48,190.6,12,188s3.18-5.78,1.11-4.7-5,8.36-7.15,13.31c-5.59.71-4.77-6.57-4.06-9.32s8.2-13,9.89-15.56,4.91-5.73,3-5.87-3.14,2.68-4.81,3.5c-3,.91-6.44-3.23-6.85-6.32S7,160.48,7,160.48H7a8.42,8.42,0,0,1-2.38-1.19c-2.5-1.84-8.27,8.71,5.18,12.51-6,9-10.3,16.25-9.79,21s5.15,5.91,5.15,5.91-5.58,8.75,3.48,11.72c-.48,6.12,5.85,8.27,9.66,3.17s7.26-19.67,14.58-21.74c.56-.17,1.12-.36,1.67-.56C27.91,191.61,23,201.29,22.26,203.5Z"/><path class="cls-2" d="M16.13,169.32a8.32,8.32,0,0,1,.65,1.91A17.21,17.21,0,0,0,17.87,174a13.6,13.6,0,0,0,5.47,5.94A15,15,0,0,0,29,181.87c4.85.49,1.19,1.69-5.23,0s-7.77-7-8.43-9.34c-.22-.81-.67-2.46-.17-3.25C15.56,168.68,15.88,168.88,16.13,169.32Z"/><path class="cls-2" d="M46.41,175.43S43.9,165.2,36.09,159.87c0,0-2.06.38.32,3.95s3.17,9.52,1.53,15.11c-1.37,4.67-5.83,10-5.42,13.07l.39-.13C40.77,189.5,48.07,183.7,46.41,175.43Z"/><path class="cls-3" d="M110.48,157.13s-15.36,2.42-29.62,37.74c0,0-.87-4.06-3-6.14-7.68-2.42-11.3-4.83-15.8-7.46s-8.33-4.83-10.42-4.83c-7.46,8.45-12.83,15.91-9.54,26.66,8.88,6.25,17,12.61,21.39,15.36s12.73,5,14.92,6,5,0,7.9-1.21,14.7-8.33,20.29-20.73S123.54,166.35,110.48,157.13Z"/><path class="cls-4" d="M110.48,157.13s-15.36,2.42-29.62,37.74c0,0-.87-4.06-3-6.14-7.68-2.42-11.3-4.83-15.8-7.46s-8.33-4.83-10.42-4.83c-6,6.74-10.57,12.85-10.52,20.5.2-.42,7.87-16.06,18.75-12.66,11,3.46,13.66,4.61,15.88,6.09,1.35,1.3,4.69,7.74,4.69,11.69s.49,5.43-1,9.54.91,5.6,2.26,4.24,2.76-12,1-18.23c0-3.53,3-8.8,5.52-11.35s6.5-14.54,13.3-14.54.33,17-1.43,26.66-3.53,18.25-9.31,22.28c4.82-3.28,11.85-9.39,15.78-18.11C112.24,190.15,123.54,166.35,110.48,157.13Z"/><path class="cls-5" d="M53.3,176.74s-2,17.26-12.08,21.75c-7.17-2.49-8.52-6.25-8.52-6.25a22.8,22.8,0,0,0,7.68-8.89,73.15,73.15,0,0,0,4.5-12.72S51.57,172.71,53.3,176.74Z"/><path class="cls-6" d="M35.31,190.17a18.22,18.22,0,0,1-2.61,2.07s1.35,3.76,8.52,6.25a12.29,12.29,0,0,0,2.26-1.3C39.41,196.51,36.57,192.41,35.31,190.17Zm9.57-19.54s-.26,1.09-.76,2.77a10.67,10.67,0,0,1,8.77,5.8c.3-1.51.41-2.46.41-2.46C51.57,172.71,44.88,170.63,44.88,170.63Zm-4.5,12.72c-.13.29-.28.56-.42.84a89.39,89.39,0,0,0,9.3,5.85c.49-.95.92-1.91,1.3-2.87-3.45-1.29-7.35-4.25-9.27-5.82C41,182,40.7,182.69,40.38,183.35Zm3-7.48c-.36,1.07-.77,2.24-1.23,3.45,2.29,2.29,7.08,4.79,9.19,5.84.45-1.34.81-2.62,1.09-3.76C49.82,177.85,45.64,176.41,43.35,175.87ZM37,188.44a22.65,22.65,0,0,0,8.81,6.67,21.26,21.26,0,0,0,2.12-2.76c-3.43-.56-7.41-4.19-9.26-6A26.6,26.6,0,0,1,37,188.44Z"/><path class="cls-1" d="M226.61,178.3s-1.72-9.08.31-15.56c1.17-3.71-1.51-5.59-3.81-9.05-2.48-3.73-2-6.26,3.79-4.29s7.09,9,7.09,9S236,148,237.28,144s7.9-2.8,6.92,9.87c0,0,2.13-7.24,4.93-6.41s4.94,3.45,3.29,12c3-5.1,7.41-3,5.6,7.24s-9.65,24.89-22.63,24C224.75,185.39,226.61,178.3,226.61,178.3Z"/><path class="cls-2" d="M252.42,159.51c1.65-8.56-.49-11.19-3.29-12s-4.93,6.41-4.93,6.41c1-12.67-5.6-13.82-6.92-9.87S234,158.36,234,158.36s-1.33-7-7.09-9-6.27.56-3.79,4.29l.29.43h0s-1.1-3.5.87-3.5a9.49,9.49,0,0,1,8.89,7.9c.58,2.06,1.56,2.47,2.22-1.07S237.45,144,239.67,144s4.11,4.85,3.54,11.44.16,8,.82,5.18S245.92,149,248.56,149s4.44,4.27,3,10.12-2.31,6.91-1.89,7.32,1.81-1.07,2.88-3.78,2.38-5.43,3.94-4.45,1.22,10.66,0,14.43a37.08,37.08,0,0,0,1.58-5.87C259.83,156.55,255.39,154.41,252.42,159.51Zm3.83,13.65v0Z"/><path class="cls-2" d="M235.56,160.41s8.64,3.46,11.31,11.32c1.11,3.58-1.19,2.09-2.35-.79s-2.79-4.85-5.75-7.32S233.75,160.41,235.56,160.41Z"/><path class="cls-2" d="M240.82,185.31c-7.95,0-14.7-18.54-14.7-18.54h0a44.94,44.94,0,0,0,.49,11.53s-1.86,7.09,8.78,12.49c7.48.49,13.25-4.18,17.14-10.18A16,16,0,0,1,240.82,185.31Z"/><path class="cls-3" d="M197.49,187.8c6.58-3.18,10.91-4.77,14.62-7.84a17.65,17.65,0,0,1,9.06-4.18c7.63,7.62,11.61,11.6,9.9,22.62-7.22,7.13-13.74,14.28-17.34,17.46s-10.79,6.32-12.64,7.53-4.5.52-7.19-.39-14.08-6.77-20.5-18.51-19.23-34.22-8.63-44.72c0,0,8.67-5,17.88,8.79s9.9,19,9.9,19S196,180.37,197.49,187.8Z"/><path class="cls-4" d="M212.11,180c-3.71,3.07-8,4.66-14.62,7.84-1.54-7.43-4.94-.25-4.94-.25s-.69-5.23-9.9-19-17.88-8.79-17.88-8.79c-10.6,10.5,2.21,33,8.63,44.72A43,43,0,0,0,185.35,218h0a53,53,0,0,1-10.23-28.17l-1.1-6.3s-1.07-12.24,2.87-12.51,12.62,10.77,13,16.46.4,5.7,2.74,3,5.24,4.15,3.23,10-2.15,13.34-.22,9.47,5.94-9.43,2.39-19.3c11.06-5.39,20.3-10.11,23.23-1.18s3.72,15,1.36,17.46h0c2.59-2.68,5.46-5.63,8.44-8.57,1.71-11-2.27-15-9.9-22.62A17.65,17.65,0,0,0,212.11,180Z"/><path class="cls-5" d="M219.78,175.8s2.59-3.85,6.19-3.39c3.54,7.29,7.5,17.24,13.93,18-2.24,5.66-4.84,7.71-8.83,8C223.38,191.71,218.39,181.54,219.78,175.8Z"/><path class="cls-6" d="M232.82,185.28h0a35,35,0,0,1-2.09-3.29h0s-6.85,1.29-8.35,5.46a36.83,36.83,0,0,0,2.39,3.9S232.14,189.25,232.82,185.28Zm-5.9-10.89h0c-.32-.68-.64-1.34-.95-2-3.6-.46-6.19,3.39-6.19,3.39a10.35,10.35,0,0,0-.11,3.8S220.46,174.84,226.92,174.39Zm2.62,5.39c-.45-.86-.88-1.74-1.3-2.62-4.88-.73-7.87,5.51-7.87,5.51a25.65,25.65,0,0,0,1,2.58c.83-2.43,8.2-5.47,8.2-5.47Zm9.1,10.36h0s-2.41,6.12-7.88,8l.31.28c4-.28,6.59-2.33,8.83-8A6.73,6.73,0,0,1,238.64,190.14Zm-1.94-.93h0a12,12,0,0,1-2.22-1.88s-2.81,6.67-7.8,6.56c.76.92,1.57,1.82,2.43,2.69C229.13,196.56,236,192.89,236.7,189.21Z"/><path class="cls-3" d="M115.2,151.42S101.38,178.7,97.43,254.48h80s-.18-81.18-14.16-103.37C125.5,149,115.2,151.42,115.2,151.42Z"/><path class="cls-5" d="M97.69,249.85s-5.2,5.25-.37,10.08c.31.08.66.15,1,.22h77.92c2.28-1.13,4-6.48,1.07-9.44C154.49,249.17,97.69,249.85,97.69,249.85Z"/><path class="cls-6" d="M101.93,249.8l-4.24,0s-5.2,5.25-.37,10.08c.31.08.66.15,1,.22h3.37C99.88,255.28,101.93,249.8,101.93,249.8Z"/><path class="cls-6" d="M116.3,249.71l-8.56,0s-1.14,6.09.19,10.39h7.56A20.2,20.2,0,0,1,116.3,249.71Z"/><path class="cls-6" d="M176,250.62s1.83,6.76-1.19,9.53h1.48c2.28-1.13,4-6.48,1.07-9.44Z"/><path class="cls-6" d="M160.2,260.15c.61-2,1.61-6.82-.9-10.14-2.8-.07-5.71-.12-8.66-.16,0,0,2.58,5.54.63,10.3Z"/><path class="cls-6" d="M171.17,260.15a12.37,12.37,0,0,0,.2-9.76c-1.92-.09-4-.16-6.14-.23,0,0,3.44,6,.67,10Z"/><path class="cls-6" d="M144.23,260.15c.46-2.53,1.2-7.87-.28-10.37l-9.11-.06h0s1.59,5.86.48,10.43Z"/><path class="cls-6" d="M128.58,249.71h-8.49l-.06.06s-1.14,6.09.18,10.39h7.56A20.32,20.32,0,0,1,128.58,249.71Z"/><path class="cls-4" d="M103.41,236.41c4.46-1.32,8.12-5.11,10.33-9.1a19.26,19.26,0,0,0,2.12-6.16c.82-5.27,4-4.78,3.13.49s-7.41,14.15-13,15.47c-.68.16-1.37.3-2.06.4a4.25,4.25,0,0,1-1.74,0C101.06,237,102.84,236.58,103.41,236.41Z"/><path class="cls-4" d="M170.88,236.41c-4.46-1.32-8.12-5.11-10.33-9.1a19.26,19.26,0,0,1-2.12-6.16c-.82-5.27-4-4.78-3.13.49s7.41,14.15,13,15.47c.68.16,1.37.3,2.06.4a4.25,4.25,0,0,0,1.74,0C173.23,237,171.45,236.58,170.88,236.41Z"/><path class="cls-4" d="M129,163.64a.66.66,0,0,0-.9.24,62.2,62.2,0,0,0-3,6.48,70.55,70.55,0,0,0-3.24,9.92h0a4.88,4.88,0,1,0,1.31.18,70.43,70.43,0,0,1,3.15-9.61c.8-1.94,1.54-3.53,2.08-4.62.28-.55.5-1,.65-1.26l.18-.33,0-.08,0,0A.65.65,0,0,0,129,163.64Z"/><path class="cls-4" d="M158.81,181.27h0a70.72,70.72,0,0,0-3.24-9.93,62.56,62.56,0,0,0-3-6.47.66.66,0,1,0-1.14.65v0l.05.08.17.32c.16.29.38.72.65,1.26.55,1.1,1.29,2.69,2.08,4.63a70,70,0,0,1,3.15,9.61,4.89,4.89,0,1,0,1.32-.18Z"/><path class="cls-7" d="M69.51,123.86S54,74,65.51,43.61c-3.08,3.08-13.56-.68,1.23-6C60.53,31.42,61,25.85,69.3,34.16c1.46-13,6.21-17.72,6.21-13.15v6.57S93.23,0,136.34,0,210.6,28.22,210.6,62.75a288.92,288.92,0,0,1-6.31,60.83Z"/><path class="cls-1" d="M74.14,109s-1.64,14.9-1.64,23,18.9,37.81,64.93,35.75c40.28,0,67.82-23,63.71-37.81s-4-22.5-4-22.5-2.92.18-2.37-11.14,2.83-15.44-.92-19.18c-8.4,0-11-6.58-12.42-12.79a31,31,0,0,1-29.41-12.06c-13.33,2.2-21,1.46-27.22,0-13.15,7.49-19,11.15-32,11.15-2,10.41-8,15-13.7,14.06C79.71,84.94,81.36,106.66,74.14,109Z"/><path class="cls-1" d="M76,114.13s-3.83-17.92-18.5-13.45-13.38,21.91-8.13,29.89S72.49,150,77.06,134.34C76.89,124.43,76,114.13,76,114.13Z"/><path class="cls-2" d="M57.5,100.68C72.17,96.21,76,114.13,76,114.13l0,.34s-6.43-15-19.69-11.41-7.21,27-1.17,30.45,15.67,9.35,21.89.83c-4.57,15.68-22.44,4.22-27.69-3.77S42.84,105.14,57.5,100.68Z"/><path class="cls-8" d="M69.3,120.12a16.92,16.92,0,0,0-1.84-6.73,1.26,1.26,0,0,0-.13-.23A9.33,9.33,0,0,0,62.79,109a7.05,7.05,0,0,0-2.37-.56,1.29,1.29,0,0,0-1.23,1.2,1.09,1.09,0,0,0,1,1.24h.07a5.42,5.42,0,0,1,1.55.41,7.07,7.07,0,0,1,2.56,1.87A15.59,15.59,0,0,0,62,114a13.44,13.44,0,0,0-6.79,7.07c-.1.24-.19.49-.28.75a1.17,1.17,0,0,0,.58,1.49l.08,0a1.21,1.21,0,0,0,1.46-.83c.06-.19.14-.39.22-.59a10.84,10.84,0,0,1,5.51-5.7,13,13,0,0,1,2.6-.91l.37-.08A16.09,16.09,0,0,1,67,120.52a1.09,1.09,0,0,0,.65.94,1,1,0,0,0,.58.06A1.32,1.32,0,0,0,69.3,120.12Z"/><path class="cls-1" d="M194.17,114.13s3.83-17.92,18.5-13.45,13.38,21.91,8.13,29.89-23.12,19.45-27.69,3.77C193.28,124.43,194.17,114.13,194.17,114.13Z"/><path class="cls-2" d="M212.67,100.68c-14.67-4.47-18.5,13.45-18.5,13.45l0,.34s6.43-15,19.69-11.41,7.21,27,1.17,30.45-15.67,9.35-21.89.83c4.57,15.68,22.44,4.22,27.69-3.77S227.33,105.14,212.67,100.68Z"/><path class="cls-8" d="M200.87,120.12a17.09,17.09,0,0,1,1.84-6.73,1.26,1.26,0,0,1,.13-.23,9.33,9.33,0,0,1,4.54-4.18,7.05,7.05,0,0,1,2.37-.56,1.29,1.29,0,0,1,1.23,1.2,1.09,1.09,0,0,1-1,1.24h-.07a5.42,5.42,0,0,0-1.55.41,7.07,7.07,0,0,0-2.56,1.87,15.59,15.59,0,0,1,2.39.9,13.44,13.44,0,0,1,6.79,7.07c.1.24.19.49.28.75a1.17,1.17,0,0,1-.58,1.49l-.08,0a1.21,1.21,0,0,1-1.46-.83c-.06-.19-.14-.39-.22-.59a10.84,10.84,0,0,0-5.51-5.7,13,13,0,0,0-2.6-.91l-.37-.08a16.09,16.09,0,0,0-1.28,5.25,1.09,1.09,0,0,1-.65.94,1,1,0,0,1-.58.06A1.32,1.32,0,0,1,200.87,120.12Z"/><path class="cls-9" d="M119.63,95.77a10.55,10.55,0,1,1-10.55-10.55A10.55,10.55,0,0,1,119.63,95.77Z"/><path class="cls-10" d="M115.42,90.46c-.38,1.68-2.79,2.55-5.37,2s-4.36-2.43-4-4.1,2.79-2.54,5.37-2S115.81,88.79,115.42,90.46Z"/><path class="cls-9" d="M181.37,95.77a10.55,10.55,0,1,1-10.55-10.55A10.54,10.54,0,0,1,181.37,95.77Z"/><path class="cls-10" d="M177.17,90.46c-.39,1.68-2.79,2.55-5.37,2s-4.36-2.43-4-4.1,2.79-2.54,5.37-2S177.55,88.79,177.17,90.46Z"/><path class="cls-7" d="M94.94,84.39c0-.11,21.71-6.1,23.68-6.64,1.71-.47,4.39-.37,4.89-2.47.27-1.12-.05-5.3-1.19-6-1.63-1-4.89.53-6.47,1-3.07,1-6.16,1.81-9.3,2.56s-6.5,1.71-9.76,2.51S94.41,82,94.94,84.39Z"/><path class="cls-7" d="M184.15,84.39c0-.11-21.71-6.1-23.69-6.64-1.71-.47-4.39-.37-4.88-2.47-.27-1.12,0-5.3,1.18-6,1.63-1,4.89.53,6.47,1,3.08,1,6.17,1.81,9.3,2.56s6.5,1.71,9.77,2.51S184.68,82,184.15,84.39Z"/><path class="cls-8" d="M118.82,147.54a61.21,61.21,0,0,0,17.68,2.56,51.68,51.68,0,0,0,16.44-2.56,1.09,1.09,0,0,0,.7-1.38,1.11,1.11,0,0,0-1.39-.7,49.44,49.44,0,0,1-15.75,2.44,62.55,62.55,0,0,1-12.16-1.22c-1.52-.31-2.74-.62-3.57-.84l-.94-.28-.24-.07-.06,0h0a1.1,1.1,0,0,0-1.39.7A1.09,1.09,0,0,0,118.82,147.54Z"/><path class="cls-8" d="M154,142.49l-.12-.28.12.28h0l-.12-.28.12.28a5.46,5.46,0,0,1,.56-.19,4.7,4.7,0,0,1,1.16-.18,2.33,2.33,0,0,1,.62.08,1.14,1.14,0,0,1,.35.17,1.13,1.13,0,0,1,.39.51,3,3,0,0,1,.2,1.18,8.4,8.4,0,0,1-.19,1.62.83.83,0,0,0,1.62.32,10.38,10.38,0,0,0,.21-1.94,4.84,4.84,0,0,0-.26-1.65,3,3,0,0,0-.53-.93,2.73,2.73,0,0,0-1.17-.8,3.65,3.65,0,0,0-1.24-.2,6.15,6.15,0,0,0-1.64.25,5.74,5.74,0,0,0-.73.25.82.82,0,1,0,.65,1.51Z"/><path class="cls-11" d="M201.14,129.91c-.11-.37-.21-.74-.3-1.1l-.12-.45h0c-10.34,11.19-21.28,9.54-32.86-.4-32.33-25.21-51.24-1.92-68.23,5.21-10.09,4.23-20.91-4.12-26.77-9.65-.21,3-.35,6-.35,8.45,0,7.54,16,33.29,54.59,35.68a98.58,98.58,0,0,0,10.34.07C177.71,167.72,205.25,144.71,201.14,129.91Zm-44.32,24.56c-9.52,2.81-29,4.18-38.29-.34s-7.73-10.28-5.89-11.78c0,0,10.69-9.46,21.37-11s21,2.87,27.13,7.94S166.34,151.66,156.82,154.47Z"/><path class="cls-8" d="M155.16,110.13c0,6.22-7,11.25-15.53,11.25s-15.53-5-15.53-11.25,7-11.25,15.53-11.25S155.16,103.91,155.16,110.13Z"/><path class="cls-1" d="M154.33,107.7c0,6-6.46,10.88-14.43,10.88s-14.43-4.87-14.43-10.88,6.46-10.88,14.43-10.88S154.33,101.69,154.33,107.7Z"/><path class="cls-10" d="M147.16,113.71c0,1.21-1.53,2.19-3.42,2.19s-3.43-1-3.43-2.19,1.54-2.19,3.43-2.19S147.16,112.5,147.16,113.71Z"/><path class="cls-11" d="M119.5,44.54c-2.16-3.94-2.84-7.63-3.16-7.55s.06,3.87,2.32,8,5.94,6.06,6,5.69A22,22,0,0,1,119.5,44.54Zm3.69-8c-.2-.11-1.32,3.59.19,7.87s4.22,6.77,4.37,6.57-2.11-2.85-3.46-6.87S123.51,36.57,123.19,36.53Zm7.67-1.09c-.21-.19-2.12,3.38-1.38,8s2.63,7.82,2.84,7.68-1.28-3.44-1.89-7.8S131.11,35.54,130.86,35.44ZM160.61,37c-.32-.08-1,3.61-3.16,7.55a22.11,22.11,0,0,1-5.19,6.15c.09.37,3.81-1.45,6-5.69S160.81,37,160.61,37Zm-6.85-.46c-.31,0,.33,3.56-1.1,7.57S149,50.8,149.2,51s2.93-2.3,4.37-6.56S154,36.42,153.76,36.53Zm-7.67-1.09c-.25.1,1.13,3.51.43,7.91s-2.14,7.69-1.89,7.8,2.2-3.1,2.84-7.68S146.3,35.25,146.09,35.44Zm-9.34.46c-.16-.18-2.31,2.82-2.34,7.16s1.43,7.48,1.66,7.36-.79-3.29-.7-7.34S137,36,136.75,35.9Zm3.56.54c-.32.14,1.4,3.08,1.34,7.06s-1.58,6.94-1.34,7,2.31-2.76,2.3-7S140.43,36.29,140.31,36.44Z"/></g></g></svg>