<svg xmlns="http://www.w3.org/2000/svg" viewBox="0 0 233.03 245.79"><defs><style>.cls-1{fill:#f7cea6;}.cls-2{fill:#f9dab4;}.cls-3{fill:#e5bb98;}.cls-4{fill:#686868;}.cls-5{fill:#18487c;}.cls-6{fill:#e5be9e;}.cls-7{fill:#777;}.cls-8{fill:#a7a7a8;}.cls-9{fill:#fff;}.cls-10{fill:#4f5051;}.cls-11{fill:#a2a2a3;}.cls-12{fill:#f4c7a2;}.cls-13{fill:#f9f7f2;}</style></defs><title>资源 355</title><g id="图层_2" data-name="图层 2"><g id="Layer_1" data-name="Layer 1"><path class="cls-1" d="M22.05,167C18.7,187.76,7.42,227.48,0,245.79H28.52a89.19,89.19,0,0,0,3.66-10.95C41.69,199.39,48.42,174,60.08,163a93,93,0,0,0,3.59-33.21S28.82,125.12,22.05,167Z"/><path class="cls-2" d="M28.4,157c-5,18.83-9.68,48-14.48,59.94s-8,18.13-8.14,23c0,1.82-.11,4-.27,5.87H24.62a43.82,43.82,0,0,0,2.86-9.07c3.78-18.86,10.64-50.46,18-61.75s22.34-22.6,13-32.51S33.39,138.18,28.4,157Z"/><path class="cls-1" d="M211,167c3.36,20.74,14.63,60.46,22.05,78.77H204.51a87.59,87.59,0,0,1-3.65-10.95C191.34,199.39,184.61,174,173,163a93,93,0,0,1-3.59-33.21S204.21,125.12,211,167Z"/><path class="cls-2" d="M204.63,157c5,18.83,9.68,48,14.48,59.94s8,18.13,8.14,23c.05,1.82.11,4,.27,5.87H208.41a43.82,43.82,0,0,1-2.86-9.07c-3.78-18.86-10.64-50.46-18-61.75s-22.34-22.6-13-32.51S199.64,138.18,204.63,157Z"/><path class="cls-1" d="M68.66,124.89s-15.41,7.7-20.12,36-2.14,45.37-2.14,45.37-7.57,14-.79,39.57H185.52v-2.32s5.14-22.69,5.14-39a90.88,90.88,0,0,0-24.83-80C102.48,124.46,68.66,124.89,68.66,124.89Z"/><path class="cls-2" d="M157.06,209c2.46,2.46,14.34,6.42,20.54,3.42s12-12.41,12-23.12-5.78-33.6-12.63-44.73-6.2-1.28-8.35.86l-4.92,4.92s-2.17,12-7.67,17.51-3.67-1.24-3.67-1.24-9.85,27.39-18,31S132,190.81,127.52,179c-2.14,6.21-6,12.63-6,16.05s-5.78-3.63-9.85-10.27-8.13-17.55-8.13-17.55-3.21,6.85-3.21,10.06-5.35.21-9-5.78-3.64-19.05-3.64-19.05-3.85,10.27-7.92-6c0,0-11.15-7.3-15-11.13S55,151.43,53,161.28s-8.14,40.23,3.42,47.3,24,2.35,28.68-2.36,7.81-.1.32,3.53-14.23,8-27.72,3.11c-8.13-3-9.2-4.5-10.48,3.42a67.45,67.45,0,0,0,3.68,29.51h124c9-21.79,8.19-30.72,8.19-30.72s-20.83,7.14-28.82-4.85C152.88,204.83,154.59,206.54,157.06,209Z"/><path class="cls-1" d="M69.73,205.47c0,1.95-2.35,3.54-5.24,3.54s-5.25-1.59-5.25-3.54,2.35-3.53,5.25-3.53S69.73,203.52,69.73,205.47Z"/><path class="cls-3" d="M67.16,205.47a2.72,2.72,0,1,1-2.67-2.21A2.48,2.48,0,0,1,67.16,205.47Z"/><path class="cls-1" d="M178.66,205.47c0,1.95-2.35,3.54-5.25,3.54s-5.24-1.59-5.24-3.54,2.35-3.53,5.24-3.53S178.66,203.52,178.66,205.47Z"/><path class="cls-3" d="M176.09,205.47a2.72,2.72,0,1,1-2.68-2.21A2.48,2.48,0,0,1,176.09,205.47Z"/><path class="cls-4" d="M104.21,192.9c-3.16-4.65-10.3-1.22-9.14,3,.75,4.38,6.12,3.49,6.41,1.27.55-2.13-1-2.77-.88-2.65-.21.09.8.93.16,2.35s-4,1.79-4.29-1.19c-.63-2.67,4.19-4.88,6.25-1.66,2.43,3-.7,8-5,7.46-4.25-.22-6.72-5.14-5.83-8.63.75-3.67,4.12-5.94,6.86-6.6,6-1.25,9.11,2.4,9.26,1.88.25.22-2.59-4.22-9.55-3.26a10.51,10.51,0,0,0-8.37,7.58c-1.18,4.3,1.66,10.6,7.5,11C103.31,204.23,107.76,197.06,104.21,192.9Zm11.46,7.65c4.29.56,7.65-5,4.91-8-2.36-3.71-7.86-.79-6.88,2.34.56,3.39,4.76,2.61,4.88.89.36-1.62-.79-2.07-.73-2-.16.1.47.73,0,1.66a1.49,1.49,0,0,1-2.76-.8c-.41-1.71,2.78-3.28,4-1.06,1.67,1.86-.5,5.3-3.31,5s-4.55-3.42-3.9-5.89a6.51,6.51,0,0,1,4.66-4.72c4.18-1,6.44,1.56,6.61,1.14.24.13-1.76-3.25-6.93-2.51a7.86,7.86,0,0,0-6.14,5.7,6.85,6.85,0,0,0,2.93,7.4,14.78,14.78,0,0,0-3.13-.3c-2.82.11-7.15,1.17-8.71,5.56-1.3,4.43,2.52,9.26,7.35,9.89a7.71,7.71,0,0,0,6.71-2c2-1.93,1.33-5.13-.21-6.62-2.76-3.4-9.58-2.2-8.84,2.28,1.21,3.63,5.5,3.26,6.29,1.44.68-2.07-1.07-2.47-.88-2.37-.24.08.9.88.21,2s-3.74,1-4.24-1.36,4.13-3.32,6.1-.74c2.72,2.61-.87,6.29-4.85,5.44-3.82-.48-6.78-4.34-5.87-7.41s4.5-4.45,7-4.65c5.51-.41,8.42,2.31,8.59,1.89A6.65,6.65,0,0,0,115.67,200.55ZM89,186.49c-2.15-3.12-7.53-1.29-6.74,2,.78,3,4.44,2.52,4.82,1s-.83-1.94-.73-1.83c-.17.09.51.71,0,1.49a1.59,1.59,0,0,1-2.74-.89c-.41-1.45,2.73-2.58,3.93-.62,1.74,1.67-.48,4.6-3.23,4.05-2.63-.27-4.56-3.09-3.93-5.33s2.88-3.57,4.73-3.84c4-.62,6.14,1.53,6.32,1.15.2,0-1.71-2.82-6.51-2.55a7,7,0,0,0-6.32,4.8c-1,3.29,1.55,7.31,5.49,7.75C88,194.82,92.1,189.4,89,186.49Zm65.12-11.82a6,6,0,0,0-5.42,4.13,5.44,5.44,0,0,0,4.7,6.62c3.32,1,6.79-3.61,4.16-6.08-1.82-2.65-6.38-1.09-5.72,1.7.65,2.56,3.75,2.15,4.09.84s-.69-1.67-.6-1.59c-.14.07.48.6.07,1.33a1.45,1.45,0,0,1-2.52-.78c-.38-1.38,2.5-2.42,3.6-.63,1.61,1.53-.44,4.24-2.91,3.72a4.07,4.07,0,0,1-3.53-4.79c.48-2,2.59-3.19,4.22-3.42,3.53-.52,5.41,1.4,5.53,1.09C159.94,176.86,158.25,174.41,154.11,174.67Zm-7.45,17a9.08,9.08,0,0,0-7.49,5.25,14.87,14.87,0,0,0-9.11-2.17c-3.65.27-8.88,2.27-10.5,7.7s2.73,11.81,9,12.48a9.19,9.19,0,0,0,8.23-3,6.37,6.37,0,0,0-.27-8.18c-3.49-4.65-11.89-2.25-10.79,2.94,1.22,4.67,6.87,4.07,7.63,1.72s-1.23-3.14-1-3c-.27.08,1.15,1.05.33,2.67s-4.93,1.7-5.56-1.63,5.4-5.1,8-1.49c3.43,3.52-1.07,9.07-6.32,8-5.08-.52-8.63-5.9-7.46-10s5.55-6.38,8.86-6.74a15.54,15.54,0,0,1,8.72,1.43l-.09.27a8,8,0,0,0,6.81,9.71c4.89,1.19,9.71-5.35,6-9-2.64-3.94-9.24-1.51-8.26,2.45.88,3.76,5.44,3.13,5.89,1.22s-1-2.43-.84-2.32c-.2.09.73.85.13,2s-3.45,1.26-3.79-1.13c-.57-2.16,3.76-3.79,5.42-1.06,2.37,2.36-.67,6.47-4.37,5.84a6.18,6.18,0,0,1-5.27-7.1c.37.21.58.31.62.2a2.54,2.54,0,0,0-.52-.59c.79-3,3.8-4.67,6.18-5,5.23-.81,8,2.11,8.16,1.66C155.24,194.81,152.74,191.16,146.66,191.64Z"/><path class="cls-2" d="M193.37,73.63A73.63,73.63,0,1,1,119.74,0,73.63,73.63,0,0,1,193.37,73.63Z"/><path class="cls-4" d="M46.11,73.63c0,1.1,0,2.19.09,3.27,8.92-1.19,13.9-9.48,13.9-9.48,0,4.28-3,9.21-3,9.21C73.37,74.48,78.29,62.5,78.29,62.5s-1.28,9-3.42,13.91c26.54-7.92,28-34.46,28-34.46L86.85,15.2,71.61,17.94A73.42,73.42,0,0,0,46.11,73.63Z"/><path class="cls-5" d="M191.37,56.59a73.63,73.63,0,0,0-143.18-.32C68.51,50.26,120.22,39.43,191.37,56.59Z"/><path class="cls-2" d="M51.33,88.93S44,77,32.88,84.1s-6,19.43.21,23.82,23.67,8,23.81-4.63C54.46,96.16,51.33,88.93,51.33,88.93Z"/><path class="cls-1" d="M32.88,84.1C44,77,51.33,88.93,51.33,88.93a2.52,2.52,0,0,0,.1.24s-8.81-9.12-19-3,.3,21.48,6.1,22.37,15.16,2.61,18.33-5.22c-.14,12.58-17.6,9-23.81,4.63S21.76,91.23,32.88,84.1Z"/><path class="cls-6" d="M47.16,95.05a11.68,11.68,0,0,0-3.08-4.39l-.16-.13a7.89,7.89,0,0,0-4.74-1.82,6.47,6.47,0,0,0-2.09.23,1.06,1.06,0,0,0-.74,1.2.87.87,0,0,0,1.14.62l.06,0a5.78,5.78,0,0,1,1.38-.12,6.28,6.28,0,0,1,2.56.68,14.21,14.21,0,0,0-1.77,1.28,11,11,0,0,0-4,6.93,6.2,6.2,0,0,0-.06.62.85.85,0,0,0,.83.93h.06a1.07,1.07,0,0,0,1-1c0-.16,0-.32,0-.49A8.86,8.86,0,0,1,40.88,94a12.91,12.91,0,0,1,1.94-1.35l.29-.16A11.25,11.25,0,0,1,45.39,96a.83.83,0,0,0,.76.5,1.08,1.08,0,0,0,.49-.1A1,1,0,0,0,47.16,95.05Z"/><path class="cls-2" d="M186.62,88.93S194,77,205.07,84.1s6,19.43-.21,23.82-23.68,8-23.82-4.63C183.48,96.16,186.62,88.93,186.62,88.93Z"/><path class="cls-1" d="M205.07,84.1C194,77,186.62,88.93,186.62,88.93l-.1.24s8.8-9.12,19-3-.31,21.48-6.11,22.37-15.16,2.61-18.33-5.22c.14,12.58,17.61,9,23.82,4.63S216.18,91.23,205.07,84.1Z"/><path class="cls-6" d="M190.78,95.05a11.69,11.69,0,0,1,3.09-4.39l.16-.13a7.89,7.89,0,0,1,4.73-1.82,6.47,6.47,0,0,1,2.09.23,1.06,1.06,0,0,1,.74,1.2.87.87,0,0,1-1.14.62l-.06,0a5.72,5.72,0,0,0-1.38-.12,6.28,6.28,0,0,0-2.56.68,15,15,0,0,1,1.78,1.28,11.11,11.11,0,0,1,4,6.93c0,.2,0,.41.06.62a.86.86,0,0,1-.83.93h-.07a1.08,1.08,0,0,1-1-1c0-.16,0-.32,0-.49A8.86,8.86,0,0,0,197.06,94a12.42,12.42,0,0,0-1.94-1.35l-.28-.16A11.08,11.08,0,0,0,192.55,96a.83.83,0,0,1-.76.5,1.08,1.08,0,0,1-.49-.1A1,1,0,0,1,190.78,95.05Z"/><path class="cls-7" d="M121,22.35a36.24,36.24,0,0,0-18.49,4.73h0l-.28.18h0l-1.71-2.47c.15-.09,7.9-5.43,20.48-5.44h0a50.38,50.38,0,0,1,22,5.33h0l-1.3,2.7a47.27,47.27,0,0,0-20.71-5ZM102.2,27.26Z"/><path class="cls-7" d="M104.62,28c0,9.14-10.67,16.55-23.83,16.55S57,37.11,57,28,67.63,11.41,80.79,11.41,104.62,18.83,104.62,28Z"/><path class="cls-8" d="M101.54,28c0,8-9.29,14.41-20.75,14.41S60,35.93,60,28s9.29-14.41,20.75-14.41S101.54,20,101.54,28Z"/><path class="cls-9" d="M93.32,16.48,89.58,41a24.37,24.37,0,0,0,2.52-1L95.5,17.8A22.12,22.12,0,0,0,93.32,16.48Zm-6.57-2.32-4.3,28.17a27.92,27.92,0,0,0,4.85-.68l4-26.11A26.66,26.66,0,0,0,86.75,14.16Z"/><path class="cls-7" d="M186.81,28c0,9.14-10.67,16.55-23.83,16.55S139.15,37.11,139.15,28,149.82,11.41,163,11.41,186.81,18.83,186.81,28Z"/><path class="cls-8" d="M183.73,28c0,8-9.29,14.41-20.75,14.41S142.23,35.93,142.23,28,151.52,13.56,163,13.56,183.73,20,183.73,28Z"/><path class="cls-9" d="M175.51,16.48,171.77,41a24.37,24.37,0,0,0,2.52-1l3.4-22.25A22.12,22.12,0,0,0,175.51,16.48Zm-6.57-2.32-4.3,28.17a28.06,28.06,0,0,0,4.85-.68l4-26.11A26.66,26.66,0,0,0,168.94,14.16Z"/><path class="cls-10" d="M173.33,72.76s-14.11-3.18-26.27-2.62l-1.27-5.64s18-3.85,29.25,1.29C175,70.41,173.33,72.76,173.33,72.76Z"/><path class="cls-10" d="M61.75,92.92a1.28,1.28,0,0,1-.25-1.8h0a1.28,1.28,0,0,1,1.8-.25h0a11.91,11.91,0,0,0,7.23,2.22h0c5.53,0,11.45-3.11,13.6-7.68h0a1.29,1.29,0,0,1,1.71-.6h0a1.29,1.29,0,0,1,.6,1.72h0c-2.78,5.7-9.49,9.11-15.91,9.13h0a14.48,14.48,0,0,1-8.78-2.74Z"/><path class="cls-10" d="M150,86.53a1.29,1.29,0,0,1,.6-1.72h0a1.29,1.29,0,0,1,1.71.6h0c2.14,4.57,8.06,7.71,13.59,7.68h0a11.92,11.92,0,0,0,7.24-2.22h0a1.28,1.28,0,0,1,1.8.25h0a1.29,1.29,0,0,1-.26,1.8h0a14.46,14.46,0,0,1-8.78,2.74h0c-6.42,0-13.13-3.43-15.9-9.13Z"/><path class="cls-11" d="M111.75,99.6s-22-7.55-27.68,13.69c0,0,4.71-2.85,8.85-1.42,0,0-17.41,9.85-8.28,32,0,0,3.14-7.13,7.14-9.13,0,0-6.85,22.26,7,32.39,0,0-.29-9.7,4.71-14.7.57,7,9.27,25,16.26,30,2.43-8,5.57-15.56,8.14-16.55,2.42,3.85,5.56,15,5,21.54,9.21-9.2,18.55-31,18.55-40.09,3.21,3.21,3,10.56,3,10.56s10.7-15.13,6.7-33c4.28,4.28,5,11.7,5,11.7s3.71-14.69-2.14-26.25-9.56-7.56-13-6c-3.56-7.57-9.64-9.25-21.51-1.49C123.25,103,115.36,100.46,111.75,99.6Z"/><path class="cls-2" d="M101.5,120a7.16,7.16,0,0,1,1.52-2.83c3.62-3.92,10.71-3.93,15.51-3.93,17.55,0,25.68,1.29,29.32,9.85s-2.14,19.05-7.81,20-9.1-5.88-7.38-12.52c-1.5-1.5-12.42.22-12.42.22s1.39,13.27-8.56,13.27c-5.78,0-9.11-9.26-9.86-10.69C100,129.85,100.12,124.74,101.5,120Z"/><path class="cls-6" d="M108,125.29a1.29,1.29,0,0,1,1.21-1.36h0s4.46-.27,9.77-.9h0c5.29-.63,11.49-1.68,14.62-3.06h0a1.28,1.28,0,0,1,1.69.66h0a1.28,1.28,0,0,1-.66,1.69h0c-3.72,1.61-9.94,2.6-15.35,3.26h0c-5.39.64-9.9.91-9.92.91h-.07a1.29,1.29,0,0,1-1.29-1.21Z"/><path class="cls-12" d="M111.53,79.23c-2.41,4.06-3.4,8.42-5.14,12.63s-6.57,9-4.36,13.67c2,4.2,7.93,5.76,13.53,6,15.13.62,22-3.94,17.79-15C131.52,91.64,120.89,63.49,111.53,79.23Z"/><path class="cls-2" d="M113,77.89c-2,3.65-2.91,7.56-4.4,11.34s-5.53,8.1-3.75,12.27c1.59,3.75,6.46,5.11,11.07,5.28,12.47.46,18.19-3.67,14.85-13.59C129.28,88.87,120.86,63.72,113,77.89Z"/><path class="cls-13" d="M115.09,105.74c.17.58,1.84.83,3.75.55s3.32-1,3.16-1.55-1.84-.83-3.74-.56S114.94,105.15,115.09,105.74Z"/></g></g></svg>