<?xml version="1.0" standalone="no"?><!DOCTYPE svg PUBLIC "-//W3C//DTD SVG 1.1//EN" "http://www.w3.org/Graphics/SVG/1.1/DTD/svg11.dtd"><svg t="1549025277569" class="icon" style="" viewBox="0 0 1024 1024" version="1.1" xmlns="http://www.w3.org/2000/svg" p-id="26732" xmlns:xlink="http://www.w3.org/1999/xlink" width="200" height="200"><defs><style type="text/css"></style></defs><path d="M511.699566 1023.639479C234.418808 1023.639479 8.772679 794.107734 8.772679 512.020029 8.772679 229.932324 234.378751 0.440637 511.699566 0.440637 789.020381 0.440637 1014.626452 229.932324 1014.626452 512.020029 1014.626452 794.107734 789.020381 1023.639479 511.699566 1023.639479ZM511.699566 54.318507C263.621015 54.318507 61.809334 259.615225 61.809334 511.979971 61.809334 764.384775 263.621015 969.681493 511.699566 969.681493 759.818175 969.681493 961.629856 764.384775 961.589798 511.979971 961.589798 259.615225 759.778117 54.318507 511.699566 54.318507ZM580.438916 529.685561C579.757931 530.767124 578.996831 531.848688 578.0755 532.770019L511.859797 600.107343C505.250244 606.877127 492.151312 612.365059 482.737707 612.365059L432.865626 612.365059C423.45202 612.365059 415.800962 620.176349 415.760904 629.750186L415.680789 680.623714C415.680789 690.157493 407.989673 697.968783 398.576067 697.968783L348.703986 697.968783C339.330439 697.968783 331.639322 705.780073 331.639322 715.35391L331.639322 766.067207C331.639322 775.641044 323.948206 783.452333 314.574659 783.452333L262.699683 783.572507C253.286078 783.572507 245.635019 775.761217 245.635019 766.227438L245.635019 713.511247C245.635019 703.977467 251.042835 690.638188 257.692446 683.868404L492.151312 445.36369C493.072644 444.442358 494.114149 443.6412 495.195713 442.960216 472.96358 386.638814 484.259907 319.862301 529.124751 274.236357 589.091421 213.228181 686.351993 213.228181 746.318664 274.236357 806.285334 335.244533 806.285334 434.147479 746.318664 495.195713 701.45382 540.821656 635.798928 552.278215 580.438916 529.685561ZM728.212495 292.622932C704.898799 268.908657 667.084145 268.908657 643.730392 292.622932 620.416696 316.377264 620.416696 354.832844 643.730392 378.547119 667.084145 402.301451 704.898799 402.301451 728.212495 378.547119 751.52619 354.832844 751.52619 316.377264 728.212495 292.622932Z" p-id="26733"></path></svg>