<svg xmlns="http://www.w3.org/2000/svg" viewBox="0 0 205.61 273.02"><defs><style>.cls-1{fill:#f9dab4;}.cls-2{fill:#efc4a0;}.cls-3{fill:#e8e3d9;}.cls-4{fill:#d3ccc1;}.cls-5{fill:#ea9628;}.cls-6{fill:#515151;}.cls-7{fill:#f4d3b0;}.cls-8{fill:#7f5732;}</style></defs><title>资源 277</title><g id="图层_2" data-name="图层 2"><g id="Layer_1" data-name="Layer 1"><path class="cls-1" d="M15.62,273H34.49l8-60.26L24,209C19.68,227.77,17.14,249.54,15.62,273Z"/><path class="cls-1" d="M150.19,273H131.32l-8-60.26,18.53-3.8C146.13,227.77,148.67,249.54,150.19,273Z"/><rect class="cls-2" x="52.84" y="163.66" width="60.53" height="43.57"/><path class="cls-3" d="M119.56,172.66l-6.16-.54L82.89,196.18,52.37,172.12l-6.15.54s-22.07,24.63-26,37.53c0,0,13.08,7,20.12,8.5,0,0-4,31.56-4.84,54.33h94.75c-.81-22.77-4.84-54.33-4.84-54.33,7-1.46,20.12-8.5,20.12-8.5C141.62,197.29,119.56,172.66,119.56,172.66Z"/><path class="cls-4" d="M111.17,228.68l-5.73,3.83-5.74-3.83A12.83,12.83,0,0,1,94,218v-5.47h22.89V218A12.83,12.83,0,0,1,111.17,228.68Z"/><path class="cls-4" d="M82,273h.87V196.18C78.12,226.72,80.54,259,82,273Z"/><path class="cls-5" d="M82.89,196.18s-13.35,1-17.87,8.31L53.68,173.15Z"/><path class="cls-4" d="M40.35,218.69l4-26.21-8.15,25A33.41,33.41,0,0,0,40.35,218.69Z"/><path class="cls-5" d="M82.89,196.18s13.34,1,17.86,8.31l11.34-31.34Z"/><path class="cls-4" d="M125.42,218.69l-4-26.21,8.15,25A33.41,33.41,0,0,1,125.42,218.69Z"/><path class="cls-6" d="M5.74,115.16s-24-100.09,77.15-100.09S160.4,115.16,160.4,115.16Z"/><path class="cls-7" d="M25.48,116s-5.87-7.47-13.67-7.47c-12.48,0-18.57,35.22,13.67,44.4Z"/><path class="cls-7" d="M140.48,116s5.87-7.47,13.66-7.47c12.49,0,18.57,35.22-13.66,44.4Z"/><path class="cls-1" d="M145.54,142.73a32.76,32.76,0,0,1-26,32.05,183.26,183.26,0,0,1-36.61,3.83A171.82,171.82,0,0,1,46.24,175a32.78,32.78,0,0,1-26-32.05v-69H145.54Z"/><path class="cls-2" d="M78.55,154.59A123.43,123.43,0,0,1,57.87,153a1.2,1.2,0,1,1,.45-2.35,134.26,134.26,0,0,0,48.78-1.55,1.2,1.2,0,0,1,.54,2.34A132.19,132.19,0,0,1,78.55,154.59Z"/><path class="cls-2" d="M81.81,162.59a22.44,22.44,0,0,1-7.48-1.28,1.2,1.2,0,0,1,.88-2.24h0c.07,0,7,2.68,13.31-.3a1.2,1.2,0,1,1,1,2.16A17.92,17.92,0,0,1,81.81,162.59Z"/><path class="cls-2" d="M82,144.68a17,17,0,0,1-11.54-4.49s6.92,2.24,11.61,2.24S94,140.19,94,140.19A18.9,18.9,0,0,1,82,144.68Z"/><polygon class="cls-6" points="58.09 103.58 58.09 109.07 30.07 112.59 30.07 107.38 58.09 103.58"/><path class="cls-6" d="M40,130.6a1.19,1.19,0,0,1-1.19-1.07c-.05-.42-1-10.24,6.2-12.09,5.79-1.49,9.65,3.94,10.89,7a1.2,1.2,0,0,1-2.23.9c-.11-.29-2.86-6.92-8.06-5.59s-4.43,9.44-4.42,9.52a1.2,1.2,0,0,1-1.07,1.32Z"/><polygon class="cls-6" points="107.37 103.58 107.37 109.07 135.39 112.59 135.39 107.38 107.37 103.58"/><path class="cls-6" d="M125.51,130.6h-.13a1.2,1.2,0,0,1-1.07-1.32c0-.14.78-8.18-4.42-9.52s-8,5.3-8.06,5.59a1.2,1.2,0,0,1-2.23-.9c1.24-3.07,5.1-8.5,10.89-7,7.22,1.85,6.25,11.68,6.21,12.09A1.2,1.2,0,0,1,125.51,130.6Z"/><path class="cls-5" d="M.36,90.08S-10.16,12.82,83,12.82s82.41,77.26,82.41,77.26-9,7-82.41,7S.36,90.08.36,90.08Z"/><path class="cls-8" d="M90.22,7.19A7.2,7.2,0,1,1,83,0,7.2,7.2,0,0,1,90.22,7.19Z"/><path class="cls-8" d="M165.81,84.58s44.33,4,39.42,17c-3.77,10-66.25,5.83-101.9,1.56A268.77,268.77,0,0,1,71.16,97S165.17,96.52,165.81,84.58Z"/></g></g></svg>