<svg xmlns="http://www.w3.org/2000/svg" viewBox="0 0 166.26 260"><defs><style>.cls-1{fill:#f4efed;}.cls-2{fill:#423429;}.cls-3{fill:#382b23;}.cls-4{fill:#e2dcd9;}.cls-5{fill:#383735;}.cls-6{fill:#3f3e3d;}.cls-7{fill:#515151;}.cls-8{fill:#563a20;}.cls-9{fill:#f4d3b0;}.cls-10{fill:#f9dab4;}.cls-11{fill:#422a17;}.cls-12{fill:#a87a54;}.cls-13{fill:#3a332d;}.cls-14{fill:#e8dfd9;}.cls-15{fill:#efc4a0;}.cls-16{fill:#492020;}.cls-17{fill:#c65044;}</style></defs><title>资源 51</title><g id="图层_2" data-name="图层 2"><g id="Layer_1" data-name="Layer 1"><rect class="cls-1" x="55.89" y="160.48" width="56.12" height="99.52"/><polygon class="cls-2" points="79.81 172.67 64.4 236.39 82.82 260 85.12 260 102.36 238.46 86.72 172.67 79.81 172.67"/><rect class="cls-3" x="76.13" y="164.52" width="14.49" height="11.6" rx="4.03"/><polygon class="cls-4" points="61.4 160.94 64.4 184.52 83.4 162.57 103.05 183.71 105.12 159.79 61.4 160.94"/><path class="cls-5" d="M150.66,260c-5.17-31.19-25.19-91.22-25.19-91.22h-3.59V260Z"/><path class="cls-6" d="M124.87,166.69c-3.21-7.36-17.24-6.44-17.24-6.44l-1.4,1.38-7.59,23s-8.51,22.08-8.28,43.25c.12,11,3.91,22.34,9,32.12H127C126.26,216,127.89,173.62,124.87,166.69Z"/><path class="cls-7" d="M102.92,220.59c3-5.09-2-25.53-2-25.53s5.55-1.75,7.5-5.65-2.54-26.84-2.54-26.84h0l-7.29,22.06s-8.51,22.08-8.28,43.25A61.28,61.28,0,0,0,92.89,244C92.59,229.79,99.92,225.69,102.92,220.59Z"/><path class="cls-5" d="M18.37,260H47.15V168.78H43.56S23.53,228.81,18.37,260Z"/><path class="cls-6" d="M62.7,161.63l-1.39-1.38s-14-.92-17.25,6.44C41,173.62,42.67,216,41.94,260H69.55c5.12-9.78,8.9-21.13,9-32.12.23-21.17-8.28-43.25-8.28-43.25Z"/><path class="cls-7" d="M66,220.59c-3-5.09,2-25.53,2-25.53s-5.55-1.75-7.5-5.65S63,162.57,63,162.57h0l7.28,22.06s8.51,22.08,8.28,43.25A60.87,60.87,0,0,1,76,244C76.34,229.79,69,225.69,66,220.59Z"/><path class="cls-8" d="M3.65,85.8S-2.48,51.11,6.6,33.72,40,0,83.1,0s68.63,18.46,76.74,34.11S161,84.74,161,84.74L152.89,99H8.34Z"/><path class="cls-9" d="M21.29,90.53S10.08,77.68,2,87.49s10.83,41.69,22.23,44.59Z"/><path class="cls-9" d="M145,90.53s11.2-12.85,19.32-3-10.82,41.69-22.22,44.59Z"/><path class="cls-10" d="M147,125s2.25,41-64.2,41-64.2-41-64.2-41V67.54S45.25,47.83,91.82,49.48C133.11,50.94,147,70.82,147,70.82Z"/><path class="cls-11" d="M18.61,67.54s5.07-25.12,63.3-29.37,55.52-7.35,55.52-7.35a52,52,0,0,0,5.6,18c5,9.86,4.95,15,4,21.95,0,0-8.26-8.28-27.77-12.67C98,53.28,60.34,53.73,18.61,67.54Z"/><path class="cls-12" d="M33.33,87.49s16.82-3.24,31-.84l-.5-2.87c-.62-3.52-5.2-6.25-14.39-6.8s-14.67,2.23-15.39,6.29Z"/><circle class="cls-13" cx="48.63" cy="102.58" r="9.35"/><path class="cls-14" d="M50.18,96.07c.23,1.13-1.17,2.37-3.12,2.76s-3.72-.2-3.94-1.33,1.16-2.37,3.12-2.76S50,94.94,50.18,96.07Z"/><path class="cls-12" d="M134.76,87.49s-16.81-3.24-31-.84l.51-2.87c.62-3.52,5.19-6.25,14.38-6.8s14.68,2.23,15.39,6.29Z"/><circle class="cls-13" cx="119.46" cy="102.58" r="9.35"/><path class="cls-14" d="M121,96.07c.23,1.13-1.17,2.37-3.12,2.76s-3.72-.2-4-1.33,1.17-2.37,3.12-2.76S120.78,94.94,121,96.07Z"/><path class="cls-15" d="M64.35,125.08s6,5.15,17.36,4.73,14.07-.32,17.75-6.41c0,0-5.56,7-26.68,4.2A38,38,0,0,1,64.35,125.08Z"/><path class="cls-16" d="M115.35,136.77s-45.62,2.08-60.75-4.56c0,0-3.32,20.64,6.58,21.26s27.41,2.16,49.54-2.59c0,0,3.84-.62,3.34-5.48A17.74,17.74,0,0,1,115.35,136.77Z"/><path class="cls-17" d="M104.4,152.1a156,156,0,0,1-32.07,2c2.3-4.31,7-10.06,16-10.43C98.66,143.23,102.85,148.82,104.4,152.1Z"/></g></g></svg>