<svg xmlns="http://www.w3.org/2000/svg" viewBox="0 0 183.78 265.19"><defs><style>.cls-1{fill:#f4efed;}.cls-2{fill:#c65044;}.cls-3{fill:#e2dcd9;}.cls-4{fill:#3f3e3d;}.cls-5{fill:#302f2d;}.cls-6{fill:#f4d3b0;}.cls-7{fill:#f9dab4;}.cls-8{fill:#efc4a0;}.cls-9{fill:#492020;}.cls-10{fill:#3a332d;}.cls-11{fill:#e8dfd9;}</style></defs><title>资源 92</title><g id="图层_2" data-name="图层 2"><g id="Layer_1" data-name="Layer 1"><rect class="cls-1" x="63.8" y="158.33" width="55.55" height="106.85"/><rect class="cls-2" x="87.31" y="162.5" width="9.7" height="11.35" rx="2.19"/><polygon class="cls-2" points="89.22 172.75 78.55 242.54 92.51 252.64 106 242.14 94.86 172.75 89.22 172.75"/><polygon class="cls-3" points="65.82 159.8 68.64 183.29 92.18 168.18 116.03 183.29 117.41 159.7 65.82 159.8"/><path class="cls-4" d="M122.78,159.75l-1.48.05c-1.8.39-2.17,1.3-2.22,1.89-6.35,28-27.1,54.54-27.1,54.54C80.11,200.3,68.89,173.51,63.56,159.8l-1.48-.05c-12,0-19,17.72-27.58,34.28-7.65,14.77-13.11,28.16-12.88,35.8.3,9.93,6.64,25.07,11.51,35.32h118.6c4.87-10.25,11.21-25.39,11.51-35.32.23-7.64-5.22-21-12.88-35.8C141.78,177.47,134.83,159.75,122.78,159.75Z"/><polygon class="cls-5" points="50.98 265.15 50.98 201.25 47.5 265.15 50.98 265.15"/><polygon class="cls-5" points="133.88 201.25 133.88 265.15 137.37 265.15 133.88 201.25"/><path class="cls-5" d="M87.63,232.56A4.37,4.37,0,1,0,92,228.2,4.37,4.37,0,0,0,87.63,232.56Z"/><path class="cls-5" d="M87.63,252.64A4.37,4.37,0,1,0,92,248.28,4.37,4.37,0,0,0,87.63,252.64Z"/><path class="cls-5" d="M98.63,206.73h0C105,197,114.14,181,118.47,164.21h0l11.1,20.87Z"/><path class="cls-5" d="M65.53,164.79c4.67,11.57,12,28.41,20.14,41.94L54.74,185.08Z"/><path class="cls-4" d="M41.34,154S12,150.77,3,113.16a114.17,114.17,0,0,1,.58-54C6,49.88,14.17,41.88,19.78,39.28l-9,1.38C23.81,16.35,50-.44,95.59,7.75c0,0,.86-3.71-4-7.75,0,0,47,.76,68.77,38.27A25.65,25.65,0,0,0,161.74,31s13.87,10.83,19.2,33.48c7.15,30.36,2.68,76-35.5,88.7Z"/><path class="cls-6" d="M34.05,100.18s-9-5.79-15,0-7.08,30.45,15,36.67Z"/><path class="cls-6" d="M149.22,100.18s9-5.79,15,0,7.08,30.45-15,36.67Z"/><path class="cls-7" d="M31.05,82v50.72A34.12,34.12,0,0,0,53.84,165c8.86,3.08,21,5.33,37.79,5.33s28.93-2.25,37.79-5.33a34.14,34.14,0,0,0,22.79-32.27V69.4L123.09,57l-52.34.64C46,59.42,32.36,67.32,31.05,82Z"/><path class="cls-5" d="M152.21,83.11s11.37-47.38-43.78-63.56c0,0,5.75,5,4.6,12.07,0,0-17.82-15.32-46.75-10.53,0,0,10.73,4.79,10.54,10,0,0-26.25-10-46.94,2.87,0,0,10.73-.69,15.71,5.31,0,0-29.69,2.35-40.61,16.72,0,0,15.13-3.45,23-2.49,0,0-19.35,8.82-20.89,24.33,0,0,15.33-13.6,28.36-13,0,0-23.37,10.92-22.42,36.4,0,0,23.57-37.8,54-37.75,13.52,0,9,2.69,24.9,2.88s10.54-3.47,28.94-3.55C147.1,62.62,152.21,83.11,152.21,83.11Z"/><path class="cls-8" d="M77.86,117.44s5.62,7,11.78,6.75,10.84-6.75,10.84-6.75-5.62,3.89-11,3.89S77.86,117.44,77.86,117.44Z"/><path class="cls-9" d="M69.5,139.67s25.4-1.5,37.24-9.43,11.72,7.93,9.77,15.86-17.82,9.43-39.31,9.31C77.2,155.41,77,144.84,69.5,139.67Z"/><path class="cls-2" d="M112.35,151c-3.41-4.31-8.67-8.14-16.24-6.73C87.23,146,84.33,151.2,83.47,155.4,96.49,155.23,106.84,154.21,112.35,151Z"/><circle class="cls-10" cx="53.68" cy="102.53" r="8.41"/><path class="cls-11" d="M51.13,97c-.24,1.21,1.25,2.52,3.32,2.94s4-.21,4.21-1.42S57.41,96,55.33,95.58,51.37,95.8,51.13,97Z"/><polygon class="cls-10" points="41.71 84.65 49.14 77.84 66.06 89.81 63.79 94.11 41.71 84.65"/><circle class="cls-10" cx="131.75" cy="102.53" r="8.41"/><path class="cls-11" d="M129.2,97c-.24,1.21,1.25,2.52,3.32,2.94s4-.21,4.21-1.42-1.25-2.52-3.33-2.94S129.44,95.8,129.2,97Z"/><polygon class="cls-10" points="143.73 84.65 136.3 77.84 119.37 89.81 121.64 94.11 143.73 84.65"/></g></g></svg>