<svg xmlns="http://www.w3.org/2000/svg" viewBox="0 0 201.48 267.5"><defs><style>.cls-1{fill:#f9dab4;}.cls-2{fill:#393c3d;}.cls-3{fill:#515151;}.cls-4{fill:#4c3626;}.cls-5{fill:#f4d3b0;}.cls-6{fill:#606060;}.cls-7{fill:#e0605c;}.cls-8{fill:#efc4a0;}.cls-9{fill:#3a332d;}.cls-10{fill:#e8dfd9;}</style></defs><title>资源 161</title><g id="图层_2" data-name="图层 2"><g id="Layer_1" data-name="Layer 1"><path class="cls-1" d="M154.22,110.83s5.38-10.19,6.37-16.39,2.14-12.34,3.87-14c2.88-2.73,8.43-3,6.62,7.52,0,0,6.41-10.6,8.88-11.32s6.55.36,6.31,3.79-8.17,11.41-8.17,11.41,10-9.85,12.79-9.1,5.49,3.59,3.07,6.07-9.51,9.63-9.51,9.63,10.66-10,15.34-6.64-.93,7.57-9.4,13.65-23.23,12-23.23,12Z"/><path class="cls-2" d="M163.7,126.33s10.09-8.83,8.1-12.8-8.36-11.37-15.12-10.27c-2.76.45-10,6-10,6Z"/><path class="cls-3" d="M98.24,193.85s59.83-51.84,67.93-65.52-7.3-25-19.54-19.6c-6,2.68-39.4,36.75-52.2,57.7C81.22,188,88.8,196.44,98.24,193.85Z"/><path class="cls-2" d="M23.33,267.5H43.89a2,2,0,0,0,.76-.75c1.3-2.64,3.74-19.33,3.74-19.33l-26.25,5S20.76,263.45,23.33,267.5Z"/><path class="cls-3" d="M45.7,164.7s-25.81,68.14-26.76,84.88,19,19.91,27.83,8.86S65.64,137.41,45.7,164.7Z"/><path class="cls-4" d="M12.6,128S3,96.77.4,78.61,8.34,58.18,12.6,58.75c0,0-.57-17.88,4.26-23.27S51.48,5.11,85.25,0L80.14,8.23s19.3-6,32.36-3.41l-8.23,7.1s24.4,2,32.63,11.92l-9.65.85s27,8.23,30.94,51.94l-8.61-4.26s9.84,18.45,0,42.28L147.4,109s-1.42,15.61-6,23H13.73Z"/><path class="cls-5" d="M23.5,126.58s-8.33-8-15.52-2.27S19.91,158.61,36,150Z"/><path class="cls-5" d="M134.69,126.58s8.33-8,15.52-2.27-11.94,34.3-28,25.73Z"/><path class="cls-3" d="M43.92,267.5h70.47c1.41-3.74,2.51-10.95,2.73-15.67H41.07A71.93,71.93,0,0,0,43.92,267.5Z"/><path class="cls-6" d="M113.2,180.69c-1.42-15.14-9.59-18.92-9.59-18.92h-49s-8.16,3.78-9.58,18.92-11,70.38-2.49,76.43c6.73,4.79,26.73,5.55,34.85,5.67h3.49c8.11-.12,28.12-.88,34.84-5.67C124.2,251.07,114.62,195.82,113.2,180.69Z"/><path class="cls-7" d="M41.57,207.92h75c-1.08-8.94-2.24-17.23-2.94-23H44.52C43.82,190.69,42.65,199,41.57,207.92Z"/><path class="cls-7" d="M39.14,245.38h79.91a169.48,169.48,0,0,0-.88-23H40A171,171,0,0,0,39.14,245.38Z"/><path class="cls-1" d="M135.24,113l-1.13-26.91c.38,4.53-2.64,17.79-2.64,17.79.75-6.43-6.34-21.19-6.34-21.19l-.08,11.87a6.91,6.91,0,0,1,0,2.13l0-2.13c-.76-5.93-8-12.25-8-12.25v11c0-4.92-8.33-12.87-8.33-12.87v8C106.49,71,80,59.6,74.33,58.84S33.08,79.65,30.06,81.55s-7.57,31.78-7.57,31.78S29.9,149.87,36.68,155c8.53,6.4,26.42,15.48,40.49,17.18a8,8,0,0,0,2.64,0c14.06-1.7,32-10.78,40.49-17.18C127.61,149.48,135.24,113,135.24,113Z"/><path class="cls-8" d="M64.89,154.2c4.59.22,9,.51,13.46.54s8.82-.18,13.41-.54A29.35,29.35,0,0,1,78.32,157a38.47,38.47,0,0,1-6.86-.71A26.64,26.64,0,0,1,64.89,154.2Z"/><path class="cls-8" d="M68.67,122.67a11.91,11.91,0,0,1,10.54-5.59c5.42.15,10.22,5.6,10.22,5.6s-5.66-3.7-9.87-3.84A17.58,17.58,0,0,0,68.67,122.67Z"/><polygon class="cls-4" points="61.17 82.35 62.92 89.12 34.02 92.91 35.36 84.51 61.17 82.35"/><polygon class="cls-4" points="96.94 82.35 95.18 89.12 124.08 92.91 122.74 84.51 96.94 82.35"/><path class="cls-9" d="M55.62,105.24a7.15,7.15,0,1,1-7.15-7.15A7.15,7.15,0,0,1,55.62,105.24Z"/><path class="cls-10" d="M49.66,100.27c.17.86-.9,1.8-2.39,2.11s-2.84-.16-3-1,.9-1.81,2.39-2.11S49.48,99.4,49.66,100.27Z"/><path class="cls-9" d="M116.79,107a7.15,7.15,0,1,1-7.15-7.14A7.15,7.15,0,0,1,116.79,107Z"/><path class="cls-10" d="M110.82,102c.18.86-.89,1.81-2.39,2.11s-2.84-.16-3-1,.89-1.82,2.38-2.11S110.65,101.16,110.82,102Z"/><path class="cls-4" d="M135.24,113c-3.22,10.24-9.12,28.5-10.75,29.86-2.27,1.89-13.62,3.78-13.62,3.78s-8.7-12.86-11.35-12.86c-1.78,0-11.52-.17-17.77-.28v-.1l-2.66.05-2.65-.05v.1c-6.25.11-16,.28-17.77.28-2.65,0-11.35,12.86-11.35,12.86S36,144.74,33.7,142.85c-1.68-1.4-11.21-29.52-11.21-29.52H12.19c5.68,12.1,17.71,36.54,24.49,41.62a104.45,104.45,0,0,0,20.75,11.48v-9.21c0-1.89,7.38-12.86,9.46-12.86H91.3c3.21,0,9.46,8.89,9.46,12.86v8.68a103,103,0,0,0,19.54-11c7.31-5.47,20.72-33.46,25.7-44.21Z"/></g></g></svg>