<svg xmlns="http://www.w3.org/2000/svg" viewBox="0 0 188.47 260.02"><defs><style>.cls-1{fill:#eae5dc;}.cls-2{fill:#f9f5ed;}.cls-3{fill:#edefef;}.cls-4{fill:#717272;}.cls-5{fill:#515151;}.cls-6{fill:#595958;}.cls-7{fill:#3b3d3d;}.cls-8{fill:#2c3030;}.cls-9{fill:#616363;}.cls-10{fill:#f9dab4;}.cls-11{fill:#f7cea6;}.cls-12{fill:#444;}.cls-13{fill:#f4c7a2;}.cls-14{fill:#f9f7f2;}.cls-15{fill:#7f5732;}.cls-16{fill:#684427;}</style></defs><title>资源 203</title><g id="图层_2" data-name="图层 2"><g id="Layer_1" data-name="Layer 1"><path class="cls-1" d="M150.79,190.48c-10.54-22.6-25.56-33.9-25.56-33.9-12-5.53-6.83,60.86-.49,103.44h39.51C163.12,246.42,159.34,208.8,150.79,190.48Z"/><path class="cls-2" d="M158.23,233.31c-2.41-29-15.63-52.14-21.47-60.78s-5.61-.29-2.27,14.81S140,248.4,140,248.4s7.59-.24,11.73,2.3C155.65,253.13,159.68,250.64,158.23,233.31Z"/><path class="cls-1" d="M37.93,190.48c10.55-22.6,25.56-33.9,25.56-33.9,12-5.53,6.83,60.86.49,103.44H24.48C25.61,246.42,29.39,208.8,37.93,190.48Z"/><path class="cls-2" d="M30.49,233.31c2.41-29,15.63-52.14,21.47-60.78s5.62-.29,2.27,14.81-5.47,61.06-5.47,61.06-7.58-.24-11.72,2.3C33.08,253.13,29.05,250.64,30.49,233.31Z"/><path class="cls-2" d="M63,155.32S48.07,216.5,48.07,254.65h90.85s-7.46-74.33-18.17-99.66Z"/><path class="cls-1" d="M132.82,234.26c-1.25,14.74-31.1,11.84-45.7,11.84s-24.45.17-29.72-17.29,4.68-58.32,4.68-58.32l3.4-15.18H63S48.07,216.5,48.07,254.65h90.85s-2.39-23.78-6.4-49A183.7,183.7,0,0,1,132.82,234.26Z"/><polygon class="cls-1" points="86.94 169.04 77.59 178.03 75.58 174.76 87.4 166.43 88.3 168.12 86.94 169.04"/><polygon class="cls-1" points="100.41 169.04 109.75 178.03 111.77 174.76 99.95 166.43 99.04 168.12 100.41 169.04"/><path class="cls-2" d="M76.22,176.22l17.51-13.95L67.3,158.82Zm17.51-13.95,16.34,13.95,6.05-17.4Z"/><polygon class="cls-3" points="98.23 168.02 89.42 168.02 89.25 169.02 81.06 219.83 94.76 242.25 109.24 219.27 98.23 168.02"/><polygon class="cls-4" points="90.35 169.22 97.36 169.22 108.05 219.03 94.77 240.1 82.23 219.57 90.35 169.22"/><polygon class="cls-5" points="108.05 219.03 97.36 169.22 94.34 169.22 94.34 239.4 94.77 240.1 108.05 219.03"/><path class="cls-2" d="M99.08,177.26a29.06,29.06,0,0,1-2.45,2.88,30.24,30.24,0,0,1-9.08,6.45l-1.18,7.28a35.89,35.89,0,0,0,14.32-9.1Z"/><path class="cls-2" d="M104.41,202.1l-1.67-7.77a29.8,29.8,0,0,1-4.39,5.2,33.88,33.88,0,0,1-14.18,8l-1.1,6.86a39.9,39.9,0,0,0,19.59-10.43C103.3,203.31,103.88,202.69,104.41,202.1Z"/><path class="cls-2" d="M106.7,212.73c-2.49,3.23-8.76,9.74-20.74,13l3.45,5.64a46.3,46.3,0,0,0,16.58-9l2.06-3.27Z"/><path class="cls-6" d="M88,163.23H100.1c.46,0,.2,6.67.05,7.34-.78,3.56-4.3,3.49-6.87,3.45-1.78,0-4-.21-5.08-2.08C86.86,169.54,87.87,165.83,88,163.23Z"/><path class="cls-7" d="M168.19,119.73c9-17.37,14.68-60.1.67-63.23C170,2,110.36-3.47,67.33,1.39S11.74,39.83,14.41,54.07C6.07,57.89,5.07,63.8,8.74,76.65s11.68,42.91,11.68,42.91Z"/><path class="cls-8" d="M144.88,69.92a23.87,23.87,0,0,1-11.39,5c-18,2.78-53.32,3.59-75.05-4.86C28.3,58.32,33.68,32.53,33.68,32.53c-.63,4.43,5.88,9,5.88,9-3.51-7.69,4.87-17.72,4.87-17.72-1.37,3.91,1.38,10.42,1.38,10.42,0-7.42,9-14.72,9-14.72-2.5,8.34,5.38,18.11,5.38,18.11-7-3.78-7.51-14.2-7.51-14.2-6.75,5.47-5.5,16.42-5.5,16.42a15,15,0,0,1-4.38-10.56c-4.5,5.87-.63,16.42-.63,16.42a22.37,22.37,0,0,1-6.36-4.57c0,1.69,2.06,12.81,9.43,17.3C59,67.11,106,71.35,127.12,69.79c0,0,18.22.43,37.9-12.12C165,57.67,153.58,66.27,144.88,69.92Z"/><path class="cls-8" d="M14.41,54.07a20,20,0,0,0-2,1.06c8.14,3.67,20,2.76,20,2.76a83.14,83.14,0,0,1-18-4.5C14.33,53.62,14.37,53.85,14.41,54.07Z"/><path class="cls-8" d="M20.42,119.56l147.77.17c3.5-6.75,6.5-17.34,8-27.94-8.48,7.16-25-.9-25-.9H43.93c-24.33,6.6-33.43-8-33.44-8C14.48,97.28,20.42,119.56,20.42,119.56Z"/><path class="cls-9" d="M50.94,76.3V70.05C14.41,74.74,7.13,61.78,7.13,61.78h0a19.42,19.42,0,0,0,0,7.86C24.86,80,50.94,76.3,50.94,76.3Z"/><path class="cls-9" d="M176.49,67.7C164.4,84,139.25,85.42,139.25,85.42l2.51,4.43a85.48,85.48,0,0,0,35.45-15.92A46.37,46.37,0,0,0,176.49,67.7Z"/><path class="cls-10" d="M146,69.33c0,8.86,2.88,11.49,2.88,11.49,9.32,19.06,48.85,80.67-53.69,85.43v0h-.69v0c-102.54-4.76-63-66.37-53.68-85.43,4.67-9.55,4.58-15.63,3.33-19.33a115.74,115.74,0,0,0,28.48,7.65C94.22,72.13,132.1,76.71,146,69.33Z"/><path class="cls-11" d="M27.73,137.66c5.76,14.63,23.79,26.6,66.72,28.59v0h.69v0c43.58-2,61.49-14.31,67-29.24-16.09,25.27-59.3,25.45-85.32,23.71s-49.06-23.06-49.06-23.06Z"/><path class="cls-11" d="M142.48,70.78c-15.92,5.26-49.87,1.13-69.9-1.64A115.74,115.74,0,0,1,44.1,61.49a14.55,14.55,0,0,1,.71,4,101.25,101.25,0,0,0,28.65,7.45C92,74.85,123.3,78.69,142.48,70.78Z"/><path class="cls-12" d="M73.29,99.91c0,5.64-4.27,10.21-9.52,10.21s-9.52-4.57-9.52-10.21,4.26-10.22,9.52-10.22S73.29,94.26,73.29,99.91Z"/><path class="cls-2" d="M69.45,94.89c-.37,1.27-2.24,1.79-4.18,1.14s-3.21-2.2-2.84-3.47,2.24-1.79,4.17-1.15S69.82,93.61,69.45,94.89Z"/><ellipse class="cls-12" cx="126.49" cy="99.91" rx="9.52" ry="10.22"/><path class="cls-2" d="M132.17,94.89c-.37,1.27-2.24,1.79-4.17,1.14s-3.22-2.2-2.85-3.47,2.24-1.79,4.18-1.15S132.54,93.61,132.17,94.89Z"/><path class="cls-13" d="M87.86,95c-2.61,4.32-3.69,9-5.58,13.45s-7.13,9.58-4.72,14.56c2.16,4.48,8.6,6.14,14.68,6.39,16.42.66,23.88-4.2,19.3-16C109.55,108.24,98,78.25,87.86,95Z"/><path class="cls-10" d="M89.41,93.59c-2.21,3.89-3.16,8.06-4.77,12.09s-6,8.62-4.08,13.07c1.73,4,7,5.45,12,5.62,13.54.49,19.74-3.91,16.12-14.48C107.12,105.29,98,78.5,89.41,93.59Z"/><path class="cls-14" d="M91.73,123.26c.18.62,2,.89,4.06.59s3.61-1,3.43-1.65-2-.89-4-.59S91.56,122.64,91.73,123.26Z"/><path class="cls-13" d="M91.19,158.05h0Zm11.49.39h0a9.43,9.43,0,0,0-1.65-4.16,5,5,0,0,0-1.75-1.44,5.8,5.8,0,0,0-2.51-.53h0a4.25,4.25,0,0,0-2.64.95,8.46,8.46,0,0,0-2.26,3,11.07,11.07,0,0,0-.68,1.77h0a.57.57,0,0,0,0,.18.65.65,0,0,0,.45.63l.17,0a.64.64,0,0,0,.6-.47h0l0-.06a11,11,0,0,1,1.11-2.45,6.12,6.12,0,0,1,1.39-1.6,3,3,0,0,1,1.87-.67,4.48,4.48,0,0,1,2,.41,4,4,0,0,1,1.79,1.82,9.69,9.69,0,0,1,.91,2.83.64.64,0,0,0,.61.53h.12a.65.65,0,0,0,.5-.65A.49.49,0,0,0,102.68,158.44Z"/><path class="cls-13" d="M119.62,137.5a1.12,1.12,0,0,0-.26-.08,1,1,0,0,0-1,.6,16.14,16.14,0,0,1-1.22,2.55,6,6,0,0,1-1.07,1.3,8.37,8.37,0,0,1-2.62,1.53,35.7,35.7,0,0,1-4.83,1.38,45.22,45.22,0,0,1-7.6.77A157.65,157.65,0,0,1,79,144.3h0l-1.26-.16-.34,0-.11,0h0a.94.94,0,0,0-1,.84v0A1,1,0,0,0,77,146h0l1.74.23c2.62.32,7.88.9,13.63,1.17,2.88.13,5.87.19,8.73.1a49.77,49.77,0,0,0,7.9-.81h0a41.48,41.48,0,0,0,4.64-1.3,12.91,12.91,0,0,0,2.41-1.13,7.84,7.84,0,0,0,2.44-2.31,17.46,17.46,0,0,0,1.59-3.18,1.31,1.31,0,0,0,.06-.27A1,1,0,0,0,119.62,137.5Zm4.1-.91a8.06,8.06,0,0,0-1.86-2.48,4.05,4.05,0,0,0-2.1-1h0a4,4,0,0,0-2,.31,6.93,6.93,0,0,0-2.11,1.47c-.25.25-.45.47-.59.64s-.22.28-.23.29h0a.94.94,0,0,0-.18.48,1,1,0,0,0,.35.89.93.93,0,0,0,.46.19.91.91,0,0,0,.65-.18l.05,0,.14-.24.17-.21h0a7,7,0,0,1,.91-.9,4.42,4.42,0,0,1,1.07-.66,2.12,2.12,0,0,1,1.12-.18,2.28,2.28,0,0,1,1.17.55,6.38,6.38,0,0,1,1.4,1.91.92.92,0,0,0,.7.49.86.86,0,0,0,.56-.11,1,1,0,0,0,.47-.74A1,1,0,0,0,123.72,136.59Z"/><path class="cls-7" d="M46.1,87.06s14.47-2,18.1-2.3c5.5-.44,12.43-.48,12.43-.48s-1.51-7.47-2.84-8.86-13,0-20,1.74S46.1,78.9,46.1,87.06Z"/><path class="cls-7" d="M144.42,87.06s-14.46-2-18.09-2.3c-5.5-.44-12.43-.48-12.43-.48s1.5-7.47,2.84-8.86,13,0,20,1.74S144.42,78.9,144.42,87.06Z"/><path class="cls-10" d="M26.91,114.08S23.5,97,10.46,101.24s-11.9,20.91-7.23,28.53,20.55,18.55,24.62,3.59C27.7,123.91,26.91,114.08,26.91,114.08Z"/><path class="cls-11" d="M10.46,101.24c13-4.25,16.45,12.84,16.45,12.84l0,.32s-5.72-14.26-17.5-10.89-6.42,25.77-1,29.06,13.94,8.92,19.47.79c-4.07,15-20,4-24.62-3.59S-2.58,105.5,10.46,101.24Z"/><path class="cls-13" d="M21,119.79a17.24,17.24,0,0,0-1.64-6.42,1.51,1.51,0,0,0-.11-.22,8.58,8.58,0,0,0-4-4,6,6,0,0,0-2.11-.53A1.18,1.18,0,0,0,12,109.78a1,1,0,0,0,.92,1.18h.06a4.83,4.83,0,0,1,1.38.39,6.45,6.45,0,0,1,2.28,1.79,12.87,12.87,0,0,0-2.13.85,12.42,12.42,0,0,0-6,6.75c-.08.23-.17.46-.25.72a1.15,1.15,0,0,0,.52,1.42l.07,0a1,1,0,0,0,1.29-.78c.06-.19.13-.38.2-.57a10,10,0,0,1,4.91-5.44,11.05,11.05,0,0,1,2.31-.87l.32-.07a16.37,16.37,0,0,1,1.14,5,1,1,0,0,0,.58.9.81.81,0,0,0,.51,0A1.25,1.25,0,0,0,21,119.79Z"/><path class="cls-10" d="M161.56,114.08S165,97,178,101.24s11.9,20.91,7.23,28.53-20.55,18.55-24.62,3.59C160.77,123.91,161.56,114.08,161.56,114.08Z"/><path class="cls-11" d="M178,101.24c-13-4.25-16.45,12.84-16.45,12.84s0,.12,0,.32c0,0,5.72-14.26,17.5-10.89s6.41,25.77,1,29.06-13.93,8.92-19.46.79c4.07,15,19.95,4,24.62-3.59S191.05,105.5,178,101.24Z"/><path class="cls-13" d="M167.52,119.79a17.24,17.24,0,0,1,1.64-6.42.91.91,0,0,1,.11-.22,8.54,8.54,0,0,1,4-4,6,6,0,0,1,2.1-.53,1.18,1.18,0,0,1,1.1,1.15,1,1,0,0,1-.92,1.18h-.06a4.83,4.83,0,0,0-1.38.39,6.36,6.36,0,0,0-2.28,1.79A13.22,13.22,0,0,1,174,114a12.41,12.41,0,0,1,6,6.75c.09.23.18.46.26.72a1.15,1.15,0,0,1-.52,1.42l-.07,0a1.06,1.06,0,0,1-1.3-.78c-.06-.19-.12-.38-.2-.57a10,10,0,0,0-4.9-5.44,11.26,11.26,0,0,0-2.31-.87l-.32-.07a16.37,16.37,0,0,0-1.14,5,1.06,1.06,0,0,1-.58.9.83.83,0,0,1-.52,0A1.24,1.24,0,0,1,167.52,119.79Z"/><rect class="cls-15" x="46.7" y="250.7" width="93.26" height="9.32"/><rect class="cls-16" x="83.64" y="248.4" width="20.93" height="11.62"/></g></g></svg>