<svg xmlns="http://www.w3.org/2000/svg" viewBox="0 0 184.84 260.02"><defs><style>.cls-1{fill:#e0dbd3;}.cls-2{fill:#f9f5ed;}.cls-3{fill:#f7cea6;}.cls-4{fill:#f9dab4;}.cls-5{fill:#f9f7f2;}.cls-6{fill:#e5be9e;}.cls-7{fill:#515151;}.cls-8{fill:#f4c7a2;}.cls-9{fill:#3b3d3d;}.cls-10{fill:#fff;}</style></defs><title>资源 10</title><g id="图层_2" data-name="图层 2"><g id="Layer_1" data-name="Layer 1"><path class="cls-1" d="M131.82,158c-6.9-6.36-9.43,3.59-9.43,3.59,0,17.11,10.4,76.3,14.4,98.39h36.09C163.12,192,131.82,158,131.82,158Z"/><path class="cls-2" d="M131.82,175.27S140,230.91,141.56,242c.92,6.52,1.63,14.08,5.16,18h14.75c11.73-9.32-5.19-51.86-12.21-68.9C141.88,173.23,131.82,175.27,131.82,175.27Z"/><path class="cls-1" d="M52.66,158.84s-33,33-45.46,101.18H43.56c5-22.29,17.66-80.23,18.36-97.2C61.92,162.82,59.81,152.78,52.66,158.84Z"/><path class="cls-2" d="M33.85,191.17C26,208.22,6.74,251.3,19.46,260H33.61c3.62-3.78,4.64-11.23,5.82-17.66,2-11.05,12.51-66.31,12.51-66.31S42,173.6,33.85,191.17Z"/><path class="cls-2" d="M141,260c-3.21-29.31-10.06-83.68-18.81-106.52L56,153.91S43,212.93,39.7,260Z"/><path class="cls-1" d="M58.88,153.9H56S43,212.93,39.7,260H55.45c-2.3-3.13-4.24-7.38-5.82-13.16-6-22.09,5.36-73.77,5.36-73.77Z"/><path class="cls-1" d="M133.82,260H141c-1.25-11.46-3.07-26.74-5.33-42.48a256.53,256.53,0,0,1,.34,36.21A12.35,12.35,0,0,1,133.82,260Z"/><polygon class="cls-1" points="91.75 186.96 67.79 169.4 78.09 154.17 105.41 154.17 115.71 169.4 91.75 186.96"/><polygon class="cls-3" points="74.71 161.18 91.75 186.96 108.8 161.18 74.71 161.18"/><path class="cls-4" d="M164,50.31,24,50.15S24.68,74,22.78,89.2C21.69,98,22.3,105.54,22.07,109,20,140.56,53.46,166.5,92.64,166.75s71.1-25.2,71.31-56.86a87,87,0,0,0-.49-10.48c-.27-2.67-.27-5.57-.42-8.86C162.39,76.31,164,50.31,164,50.31Z"/><path class="cls-5" d="M49.13,128.34a1.27,1.27,0,0,1-1.32,1.23l-4.32-.16a1.29,1.29,0,0,1-1.24-1.33h0a1.29,1.29,0,0,1,1.33-1.24l4.32.16a1.29,1.29,0,0,1,1.23,1.34Z"/><path class="cls-5" d="M142.17,128.94a1.27,1.27,0,0,1-1.32,1.23l-4.32-.16a1.29,1.29,0,0,1-1.24-1.33h0a1.29,1.29,0,0,1,1.33-1.24l4.32.16a1.29,1.29,0,0,1,1.23,1.34Z"/><path class="cls-4" d="M154.88,130.27a23.51,23.51,0,0,0,19.8-.26c10.39-5.07,15.51-25.93,2-30.92s-17.61,10.48-17.61,10.48Z"/><path class="cls-3" d="M161.14,123.93s4.28-22.85,14.27-15c6.14,4.85,2.5,11.62-3.2,14.4C168.63,125.11,164,125.27,161.14,123.93Z"/><path class="cls-6" d="M161.27,123.67l1.48-5.76s19-5.42,13.67,2.2S161.27,123.67,161.27,123.67Z"/><path class="cls-4" d="M29.72,129a23.54,23.54,0,0,1-19.79-.51C-.39,123.23-5.25,102.31,8.28,97.5s17.47,10.71,17.47,10.71Z"/><path class="cls-3" d="M23.54,122.54s-4-22.9-14.07-15.14c-6.2,4.77-2.65,11.59,3,14.43C16,123.62,20.68,123.83,23.54,122.54Z"/><path class="cls-6" d="M23.42,122.28,22,116.5s-18.93-5.67-13.69,2S23.42,122.28,23.42,122.28Z"/><path class="cls-7" d="M153.51,130.58c-5.66,11.62-19.13,15.74-19.13,15.74S135.26,129,93.18,129,52,146.32,52,146.32A30.13,30.13,0,0,1,32.6,129l-8.22,1.52c2.15,14.13,14.53,36.2,68.62,36.2s66.55-20.46,68.71-34.59Z"/><path class="cls-4" d="M105.64,156.83H80.72c-8.82,0-16-5.13-16-11.46v-.23c0-6.34,7.15-11.47,16-11.47h24.92c8.82,0,16,5.13,16,11.47v.23C121.61,151.7,114.46,156.83,105.64,156.83Z"/><path class="cls-7" d="M93,0C2.68,0,11.69,61.21,13.86,71.3c1.55,7.23,1.49,19.26,1.36,25.45a18.37,18.37,0,0,1,6.88,4.31c2.36-10.7.43-27.56,5.28-37.13C28.32,59.23,82.59,65,93,72.18c11.5-7,64.77-12.57,65.64-8.25,4.84,9.57,2.64,27,5,37.66a13.14,13.14,0,0,1,7-3.5c-.13-6.18,0-19.56,1.53-26.79C174.34,61.21,183.25,0,93,0Z"/><path class="cls-8" d="M93.44,122.7a21.38,21.38,0,0,1-11.88-3.64,1.38,1.38,0,0,1,1.67-2.19h0c.38.28,9.44,6.92,20.44-.07a1.38,1.38,0,0,1,1.48,2.33A21.55,21.55,0,0,1,93.44,122.7Z"/><path class="cls-8" d="M93.62,148.23c-15.6,0-23.58-3.43-23.91-3.58a1.38,1.38,0,1,1,1.11-2.52h0c.08,0,7.84,3.34,22.8,3.34S117,142.15,117,142.11a1.38,1.38,0,0,1,1,2.56C117.73,144.81,109.21,148.23,93.62,148.23Z"/><path class="cls-9" d="M118.17,83.57s4.44-2,12-1.63c7.32.33,13.42,3.65,13.73,2.08.56-2.81-3.33-7.66-9.38-9.86-5.69-2.08-10.77-.3-14.66,2.58S114.26,84.65,118.17,83.57Z"/><path class="cls-9" d="M69.66,83.57s-4.45-2-12-1.63c-7.32.33-13.42,3.65-13.73,2.08-.56-2.81,3.32-7.66,9.38-9.86C59,72.08,64.06,73.86,68,76.74S73.56,84.65,69.66,83.57Z"/><path class="cls-9" d="M139.72,97.57a11.45,11.45,0,1,1-15.87-3.19A11.44,11.44,0,0,1,139.72,97.57Z"/><path class="cls-10" d="M132,94.89c1.14,1.71-.35,4.7-3.32,6.67s-6.3,2.2-7.44.49.35-4.7,3.33-6.67S130.82,93.18,132,94.89Z"/><path class="cls-9" d="M67.3,95a11.45,11.45,0,1,1-15.86-3.19A11.45,11.45,0,0,1,67.3,95Z"/><path class="cls-10" d="M59.54,92.27c1.13,1.71-.35,4.7-3.33,6.67s-6.3,2.2-7.43.49.35-4.7,3.32-6.67S58.4,90.56,59.54,92.27Z"/></g></g></svg>