<svg xmlns="http://www.w3.org/2000/svg" viewBox="0 0 232.7 266.89"><defs><style>.cls-1{fill:#f9dab4;}.cls-2{fill:#efc4a0;}.cls-3{fill:#c65044;}.cls-4{fill:#ad3e3b;}.cls-5{fill:#ea9628;}.cls-6{fill:#f4d3b0;}.cls-7{fill:#515151;}</style></defs><title>资源 318</title><g id="图层_2" data-name="图层 2"><g id="Layer_1" data-name="Layer 1"><path class="cls-1" d="M25.54,147.68S17.25,139,16.3,134.91c0,0-25-22.3-13-29.22,4.21-2.43,6.39,0,6.39,0s-2-5.16,2.31-7.75,6.74.82,6.74.82-7.76-25.74-.9-28c9.65-3.23,17,30.61,17,30.61s8.15-2.44,10.74.14,8.83,29.9,8.83,29.9Z"/><path class="cls-2" d="M38.1,116.4s-13.49,5.53-16.21-.31c-3.94-8.44,12.89-14.75,12.89-14.75s-21.45,5.29-15.54,16.07a7,7,0,0,0,7,3.73c.25,1.52.32,4-1.87,4.52-8.74,1.87-14.7-20-14.7-20a3.43,3.43,0,0,0-1-.68c.68,3.68,3.92,19,11.33,22.4,0,1.52-.59,3.75-4.28,4.1a5.45,5.45,0,0,1-4.2-1.31c1.45,1.52,2.73,2.77,3.6,3.59,3-.12,6.67-1.22,6.8-5.79a7.64,7.64,0,0,0,3.56-.3c4.06-1.29,3.07-5.08,2.4-6.75C33,120.06,38.1,116.4,38.1,116.4Z"/><path class="cls-3" d="M115.15,167.9l-39.71-7.81-21.55-35L18.69,145.4s26.5,40.53,38.72,44.72c8.78,3,58.27,9.14,58.27,9.14Z"/><path class="cls-3" d="M186.18,167.9l3.23,99h39C222.11,198,186.18,167.9,186.18,167.9Z"/><path class="cls-4" d="M192.19,192l1.14,74.86h12.18C202.3,215.38,192.19,192,192.19,192Z"/><path class="cls-3" d="M98.71,266.89h101c-1.76-34.54-5.57-78-13.84-103.85H112.55C104.28,188.92,100.47,232.35,98.71,266.89Z"/><path class="cls-5" d="M74.47,102.45S62.55,71.37,71.54,49.87A5.51,5.51,0,0,0,75.64,53S84.83,5.62,144.24.09v5.8s9-6.72,24.24-5.8l-2.34,6.78s8.59-2.54,21.1-.58l-5.47,7s13.68-2,26.58,3.91l-5.47,4.69S217.54,28,222.23,36.39l-7.11,1.75S229,42.84,232.7,57.71l-7.34-2.56s5.47,17.78-.39,47.3Z"/><path class="cls-6" d="M86.45,97.28S80.72,88,73.16,93.12C64,99.35,71.54,134.84,91,140.74Z"/><path class="cls-6" d="M211.81,97.28s5.74-9.29,13.29-4.16c9.19,6.23,1.62,41.72-17.79,47.62Z"/><path class="cls-1" d="M215.12,117a52.71,52.71,0,0,1-33.86,49.38,89.87,89.87,0,0,1-32.07,5.51,89.87,89.87,0,0,1-32.07-5.51A52.71,52.71,0,0,1,83.26,117V58H215.12Z"/><path class="cls-2" d="M144.39,145.35a143.49,143.49,0,0,1-23.83-1.8,1.38,1.38,0,0,1-1.1-1.61,1.39,1.39,0,0,1,1.62-1.1,154.59,154.59,0,0,0,56.19-1.78,1.38,1.38,0,0,1,.61,2.7A152.44,152.44,0,0,1,144.39,145.35Z"/><path class="cls-2" d="M148.14,154.58a25.25,25.25,0,0,1-8.61-1.49,1.38,1.38,0,0,1,1-2.57h0c.08,0,8.11,3.08,15.33-.35a1.38,1.38,0,0,1,1.19,2.5A20.81,20.81,0,0,1,148.14,154.58Z"/><path class="cls-2" d="M148.33,134A19.59,19.59,0,0,1,135,128.77s8,2.59,13.37,2.59,13.72-2.59,13.72-2.59A21.76,21.76,0,0,1,148.33,134Z"/><polygon class="cls-5" points="177.57 96.99 177.57 90.66 209.85 86.61 209.85 92.61 177.57 96.99"/><path class="cls-7" d="M99.93,117.73a1.38,1.38,0,0,1-1.37-1.23c0-.48-1.16-11.79,7.15-13.92,6.67-1.72,11.12,4.53,12.54,8.07a1.38,1.38,0,0,1-2.56,1c-.13-.33-3.31-8-9.29-6.43s-5.1,10.87-5.09,11a1.38,1.38,0,0,1-1.23,1.52Z"/><polygon class="cls-5" points="120.82 96.99 120.82 90.66 88.55 86.61 88.55 92.61 120.82 96.99"/><path class="cls-7" d="M198.46,117.73h-.15a1.38,1.38,0,0,1-1.22-1.52c0-.15.89-9.42-5.09-11s-9.26,6.35-9.29,6.43a1.38,1.38,0,0,1-2.56-1c1.42-3.54,5.87-9.79,12.53-8.07,8.32,2.13,7.2,13.44,7.15,13.92A1.37,1.37,0,0,1,198.46,117.73Z"/><path class="cls-5" d="M77.65,59.3V73.17A76.78,76.78,0,0,0,117,61.84l-2.33,7.52S134.9,63.23,140,57.68l-3,9.25s13.87-3.7,23.58-9.25l-.92,8.56s7.4.23,23.35-8.56l-1.65,11.1s23.62-9.25,36.72,6.47V43.58H91Z"/></g></g></svg>