<svg xmlns="http://www.w3.org/2000/svg" viewBox="0 0 175.83 260.01"><defs><style>.cls-1{fill:#724826;}.cls-2{fill:#e0605c;}.cls-3{fill:#d14e4e;}.cls-4{fill:#efc4a0;}.cls-5{fill:#2f3233;}.cls-6{fill:#dd2626;}.cls-7{fill:#ddac8c;}</style></defs><title>资源 111</title><g id="图层_2" data-name="图层 2"><g id="Layer_1" data-name="Layer 1"><path class="cls-1" d="M138.12,20.79S120.15-11,57.25,4,3.94,87.88,9.93,112.44s9.28,47,6,50.31-8.39,6-13.78.6-.45,17.07,13,21.12c0,0-9.88-.45-13.48-4.05S6,198.17,17.42,202.89c0,0-2.25,2.24-8.54,2.24s-4.94,7.19,6.52,18.65,56.83,26.28,132.3,11.45c18-5.39,25.66-20.44,27.86-31,2.24-10.78-9.89,4.05-18.87-1.34a46.94,46.94,0,0,0,12.74-11.5c1.08-1.48,4.26-6,3.91-7.84-.8-4.08-7.49-.19-10.81-.43,5.23.38,8.61-10.2,8.86-14,.58-8.87-6.77-.59-11.53-3.69-3.49-2.27-2.24-7.13-1.15-10.41,3.78-11.33,14-38.11,15.95-57.28C175.92,85.24,178.4,10.3,138.12,20.79Z"/><path class="cls-2" d="M38.88,199.45C35.17,223.12,30.53,249.26,28.6,260H53.13C55,238.2,60,175,56.86,171.26,56.86,171.26,43.7,168.76,38.88,199.45Z"/><path class="cls-3" d="M43.65,182.25c2,1.63,6.26,6.62,5.07,19.49C47.57,214.22,44.39,245,42.84,260H53.13C55,238.2,60,175,56.86,171.26,56.86,171.26,49.4,169.84,43.65,182.25Z"/><path class="cls-2" d="M144.19,198.77C139.7,168,126.5,170.39,126.5,170.39c-3.19,3.77,1.32,68.62,2.87,89.62h24.57C152.19,249.63,147.72,222.91,144.19,198.77Z"/><path class="cls-3" d="M139.6,181.52c-5.61-12.47-13.1-11.13-13.1-11.13-3.19,3.77,1.32,68.62,2.87,89.62h10.31c-1.38-14.74-4.31-46.35-5.35-59C133.27,188.07,137.54,183.13,139.6,181.52Z"/><path class="cls-2" d="M130.34,260l-2.19-89.83a176.3,176.3,0,0,0-39.66-4c-5.52,0-11.08-.24-16.57.58-1.86.28-18.37,3.66-18.35,5,0,0,.78,72,.78,87.69a6.37,6.37,0,0,0-.5.57Z"/><path class="cls-3" d="M69.79,168.71s17,8.25,43.18,0c.71-.22.76-4.44.76-5a11.2,11.2,0,0,0-.6-4c-.4-1.1-1.23-2.55-2.67-2.82-2.19-.41-5.21,1-7.39,1.27-5.33.71-10.65,1.16-16,1.39-2.93.12-5.88.09-8.8,0-1.95-.06-5.18-1.07-7-.25-1.42.64-1.36,2.54-1.6,3.71A14.12,14.12,0,0,0,69.79,168.71Z"/><path class="cls-4" d="M32.09,110.94v18.87c0,13.17,19.77,38.33,58.71,35.94s59.3-22.17,59.3-38.34V98.06s-18-13.78-18-32.35C112.36,90.87,92.44,117.08,32.09,110.94Z"/><path class="cls-5" d="M107.43,98.94s15.92-16.07,28,.18c0,0,.52-4.24-5.22-8.3-6.19-4.38-15.21-3-20.39,2.34C106.19,96.92,107.43,98.94,107.43,98.94Z"/><path class="cls-5" d="M135,107.73a.84.84,0,0,0-1,.35h0a9.9,9.9,0,0,1-1.28,1.82,7.24,7.24,0,0,1-1.35,1.23,4.68,4.68,0,0,1-.75.43,8.8,8.8,0,0,0-.4-1.9,4.67,4.67,0,0,0,1.18-.82,7.11,7.11,0,0,0,1.47-2,8,8,0,0,0,.46-1.07.58.58,0,0,0-.54-.71.78.78,0,0,0-.91.44h0a7.61,7.61,0,0,1-.76,1.55,5.34,5.34,0,0,1-.88,1.08,3.47,3.47,0,0,1-.5.38,9.69,9.69,0,0,0-2.15-2.86,10.16,10.16,0,0,0-3.36-2A11.37,11.37,0,0,0,120,103a13.67,13.67,0,0,0-2.75.44,11.58,11.58,0,0,0-4.42,2.21,9.29,9.29,0,0,0-2.88,4.15,7.77,7.77,0,0,0-.45,2.17,1,1,0,0,0,1.09.89,1.06,1.06,0,0,0,1.15-.89h0a7.39,7.39,0,0,1,.89-2.9,7.58,7.58,0,0,1,1.84-2.23,9,9,0,0,1,3.45-1.7,9.78,9.78,0,0,1,2.17-.35,8.24,8.24,0,0,1,3.27.47A7.85,7.85,0,0,1,127,108a7.57,7.57,0,0,1,1.52,4.15,1,1,0,0,0,1.1.83.88.88,0,0,0,.56.07,6,6,0,0,0,2.32-1,10.08,10.08,0,0,0,2.21-2.24,11.61,11.61,0,0,0,.78-1.23A.56.56,0,0,0,135,107.73Z"/><path class="cls-6" d="M102.54,141.06a5.08,5.08,0,0,0-1.88-.85c-2.92-.92-3.66-3.58-5.72-2.93s-3.55,3.85-5.45,2.24-2.8-2.7-5.27-.69c-2,1.68-5.28,1-5.84,1.91a.72.72,0,0,0,0,.57,1.89,1.89,0,0,0,.06.18,45,45,0,0,0,24,0l.11-.05C102.65,141.37,102.73,141.25,102.54,141.06Z"/><path class="cls-2" d="M90.8,147.18a11.8,11.8,0,0,1,9.28,4,16.24,16.24,0,0,0,2.52-8.78c0-.33,0-.65,0-1l-.11.05a45,45,0,0,1-24,0,1.89,1.89,0,0,1-.06-.18c0,.36,0,.73,0,1.1a16.06,16.06,0,0,0,2.85,9.28C82.93,149,86.58,147.18,90.8,147.18Z"/><path class="cls-6" d="M90.45,156.83a11.62,11.62,0,0,0,9.63-5.64,11.8,11.8,0,0,0-9.28-4c-4.22,0-7.87,1.83-9.65,4.51A11.47,11.47,0,0,0,90.45,156.83Z"/><path class="cls-7" d="M95.8,119.68a1.24,1.24,0,0,1,.92,1.49h0a12.49,12.49,0,0,1-1.58,3.54h0a7,7,0,0,1-6.43,3.44h-.2a8.78,8.78,0,0,1-6.2-3.29h0A8.92,8.92,0,0,1,80.75,122h0a1.25,1.25,0,0,1,.86-1.53h0a1.26,1.26,0,0,1,1.53.86h0a.46.46,0,0,0,0,.13h0a3.42,3.42,0,0,0,.18.45h0a7.55,7.55,0,0,0,.89,1.44h0a6.24,6.24,0,0,0,4.51,2.36h.11a4.32,4.32,0,0,0,3.85-1.84h0a9.48,9.48,0,0,0,1.53-3h0l.06-.2h0a1.25,1.25,0,0,1,1.29-1h0l.2,0Z"/></g></g></svg>