<svg xmlns="http://www.w3.org/2000/svg" viewBox="0 0 261.36 260"><defs><style>.cls-1{fill:#f2d0af;}.cls-2{fill:#ddb58e;}.cls-3{fill:#515151;}.cls-4{fill:#3c7a62;}.cls-5{fill:#4c3626;}.cls-6{fill:#f4d3b0;}.cls-7{fill:#3a332d;}.cls-8{fill:#e8dfd9;}</style></defs><title>资源 271</title><g id="图层_2" data-name="图层 2"><g id="Layer_1" data-name="Layer 1"><path class="cls-1" d="M68,186.53s-8,20.32-10.53,30.85c0,0,.61-9.53-11.11-12.79,0,0,1.33-13.79-3.94-16.05s-8.53-2-8.53-2-2.51-12.29-8-13-19.81,1-21.32,8.28S14.05,187,14.05,187,2.26,196.81.25,207.6s8.53,8.28,14.05,2.26c0,0-5,16.3,5.77,14s7.52-9.78,7.52-9.78a5.8,5.8,0,0,0,4,0s10.09,29.24,25.85,36.26c5.75,2.56,12.24,2.18,19.28-3.65L88.4,190.54Z"/><path class="cls-2" d="M32.14,203.39l-2.25.48c-.73.1-1.59.3-2.59.36a15.93,15.93,0,0,1-3.31,0,6,6,0,0,1-3.36-1.31,4.93,4.93,0,0,1-1.58-3.42,10,10,0,0,1,.08-2.18,18,18,0,0,1,.49-2.25,5.51,5.51,0,0,1,2.58-3.3A33.33,33.33,0,0,1,30.9,188c1.73-.52,3.4-1,5-1.37a12.12,12.12,0,0,0-2-.13s-.07-.35-.21-.9c-1,.2-2.12.42-3.23.7a30.76,30.76,0,0,0-9.36,3.78A10,10,0,0,0,19,192a6,6,0,0,0-.8,1.23,7.2,7.2,0,0,0-.46,1.35,13.4,13.4,0,0,0-.46,5.13,6.19,6.19,0,0,0,2.44,4.37,7.26,7.26,0,0,0,4.17,1.29,12.93,12.93,0,0,0,3.51-.38c1-.21,1.87-.53,2.58-.72C31.37,203.71,32.14,203.39,32.14,203.39Z"/><path class="cls-2" d="M24,212.61a13.62,13.62,0,0,0,2.12.6c.32,0,.63.14,1,.16s.71.1,1.09.09.77,0,1.16,0l1.09-.09,1.31-.26c.32-.14.61-.24.93-.35l.91-.5c.26-.21.53-.4.79-.58a15.21,15.21,0,0,0,1.12-1.08l.41-.48a4.44,4.44,0,0,1-.63,2.28,10.47,10.47,0,0,1-.69,1,10.26,10.26,0,0,1-1,.91,11.35,11.35,0,0,1-1.39.71l-1.29.33a14.66,14.66,0,0,1-1.54.06,6.47,6.47,0,0,1-1.4-.18,6.86,6.86,0,0,1-2.28-.93,5.59,5.59,0,0,1-1.31-1.13A3.59,3.59,0,0,1,24,212.61Z"/><path class="cls-2" d="M57.25,215.26c0,.29,0,.57,0,.85.13,1.88.13,3.77.27,5.54s.17,3.42.25,4.84.18,2.62.24,3.45l.11,1.31a43.28,43.28,0,0,0,.8-4.72A69.29,69.29,0,0,0,59.29,216c-.11-1.41-.19-2.8-.33-4.15-.61,2-1.13,3.87-1.52,5.51A9.58,9.58,0,0,0,57.25,215.26Z"/><path class="cls-3" d="M80.36,149.16s-23.17,37.62-22.92,39.13,28.22,14.29,28.22,14.29l13.17-43.89Z"/><path class="cls-1" d="M193.39,186.53s8,20.32,10.53,30.85c0,0-.61-9.53,11.11-12.79,0,0-1.33-13.79,3.94-16.05s8.53-2,8.53-2,2.51-12.29,8-13,19.81,1,21.32,8.28-9.54,5.26-9.54,5.26,11.79,9.78,13.8,20.57-8.53,8.28-14.05,2.26c0,0,5,16.3-5.77,14s-7.52-9.78-7.52-9.78a5.8,5.8,0,0,1-4,0s-10.09,29.24-25.85,36.26c-5.74,2.56-12.24,2.18-19.28-3.65L173,190.54Z"/><path class="cls-2" d="M229.23,203.39l2.25.48c.72.1,1.58.3,2.58.36a15.93,15.93,0,0,0,3.31,0,6,6,0,0,0,3.36-1.31,5,5,0,0,0,1.59-3.42,10.73,10.73,0,0,0-.09-2.18,18,18,0,0,0-.49-2.25,5.51,5.51,0,0,0-2.58-3.3,33.41,33.41,0,0,0-8.69-3.73c-1.74-.52-3.4-1-5-1.37a12.12,12.12,0,0,1,2-.13s.07-.35.21-.9c1,.2,2.12.42,3.23.7a30.76,30.76,0,0,1,9.36,3.78,10.35,10.35,0,0,1,2.06,1.87,7,7,0,0,1,.8,1.23,6.46,6.46,0,0,1,.45,1.35,13.2,13.2,0,0,1,.46,5.13,6.19,6.19,0,0,1-2.44,4.37,7.24,7.24,0,0,1-4.17,1.29A12.93,12.93,0,0,1,234,205c-1-.21-1.87-.53-2.58-.72C230,203.71,229.23,203.39,229.23,203.39Z"/><path class="cls-2" d="M237.41,212.61a13.62,13.62,0,0,1-2.12.6c-.32,0-.64.14-1,.16s-.71.1-1.1.09-.76,0-1.15,0l-1.09-.09-1.3-.26c-.32-.14-.62-.24-.93-.35l-.92-.5c-.26-.21-.53-.4-.79-.58-.46-.41-.85-.79-1.12-1.08l-.41-.48a4.44,4.44,0,0,0,.63,2.28,8.88,8.88,0,0,0,.69,1,10.26,10.26,0,0,0,1,.91,10.8,10.8,0,0,0,1.4.71l1.28.33a14.84,14.84,0,0,0,1.55.06,6.46,6.46,0,0,0,1.39-.18,5.52,5.52,0,0,0,1.25-.39,5.64,5.64,0,0,0,1-.54,5.31,5.31,0,0,0,1.3-1.13A3.59,3.59,0,0,0,237.41,212.61Z"/><path class="cls-2" d="M204.11,215.26c0,.29,0,.57,0,.85-.13,1.88-.13,3.77-.27,5.54s-.17,3.42-.25,4.84-.18,2.62-.24,3.45l-.11,1.31a42.07,42.07,0,0,1-.79-4.72,67.91,67.91,0,0,1-.34-10.51c.11-1.41.19-2.8.33-4.15.61,2,1.13,3.87,1.52,5.51A10.41,10.41,0,0,1,204.11,215.26Z"/><path class="cls-3" d="M181,149.16s23.16,37.62,22.91,39.13-28.22,14.29-28.22,14.29l-13.17-43.89Z"/><path class="cls-4" d="M88.86,154S73.14,210.59,72.09,260H189.27c-1.05-49.41-16.77-106-16.77-106s-16.63-3.94-34.2-6.65H123.06C105.5,150.1,88.86,154,88.86,154Z"/><ellipse class="cls-3" cx="130.68" cy="163.49" rx="27.02" ry="20.71"/><ellipse class="cls-2" cx="130.68" cy="163.49" rx="21" ry="16.1"/><path class="cls-5" d="M206.33,115.38s6.41-52.09,6.41-53.91C212.74,24.2,172.68,0,130.68,0S48.62,24.2,48.62,61.47c0,1.82,6.41,53.91,6.41,53.91Z"/><path class="cls-6" d="M72.43,111.14s-9.39-10.86-18.94-3c-9.85,8.1,6.31,33.79,21.25,34.7Z"/><path class="cls-6" d="M188.93,111.14s9.39-10.86,18.94-3c9.86,8.1-6.31,33.79-21.25,34.7Z"/><path class="cls-1" d="M192.46,85.05c-8.45.63-9.6-7.25-9.76-9.76h-.1c-.28,2.47-1.67,10.1-8.2,9.25s-6.85-7.05-6.81-9.25h-.2c-.85,2.59-4.17,10.93-11.8,10.51-6.91-.39-8.09-4.94-8.27-7.07-.17,2.09-1.6,6.61-10.55,8.32-11.34,2.18-16.86-8.51-17.26-9.32.35.73,2.68,6.49-8.82,9.07-12.29,2.76-18.06-9.15-18.06-9.15s3.26,9.65-6.52,11.62S73.57,77.65,73.57,77.65s2,9.32-4.51,11.57c-1.94.68-3.53-.38-4.8-2.16v32.81c0,25.51,23.63,46.18,52.77,46.18h27.3c29.15,0,52.77-20.67,52.77-46.18V83A6.92,6.92,0,0,1,192.46,85.05Z"/><path class="cls-2" d="M113.48,135.11a15.11,15.11,0,0,1,.07-4.55,7.57,7.57,0,0,1,.72-2.25,3.22,3.22,0,0,1,.72-1,2.92,2.92,0,0,1,1.07-.75,3.5,3.5,0,0,1,1.28-.32,4.52,4.52,0,0,1,1.27.11,4.23,4.23,0,0,1,1.18.34,7.9,7.9,0,0,1,1.11.48c.67.4,1.39.76,2,1.22l1.85,1.41-1.4.39a18.8,18.8,0,0,1,2.23-4.71,8.31,8.31,0,0,1,1.93-2,4.28,4.28,0,0,1,3-.78,4.8,4.8,0,0,1,1.48.51,6.46,6.46,0,0,1,1.18.85,11.48,11.48,0,0,1,1.75,2,26.52,26.52,0,0,1,2.44,4.49l-1.58-.2a28.43,28.43,0,0,1,4-3.86,14,14,0,0,1,2.45-1.49,4.6,4.6,0,0,1,3.09-.41,2.83,2.83,0,0,1,1.39.94,4,4,0,0,1,.74,1.34,6.35,6.35,0,0,1,.34,1.4,13.26,13.26,0,0,1,.12,1.39,28.07,28.07,0,0,1-.41,5.44,39.47,39.47,0,0,0-.32-5.36c-.06-.45-.18-.87-.27-1.29a8.81,8.81,0,0,0-.43-1.19,3.17,3.17,0,0,0-.62-1,1.69,1.69,0,0,0-.86-.5,3.36,3.36,0,0,0-2.13.51,12,12,0,0,0-2.06,1.47,29.91,29.91,0,0,0-3.62,3.76l-.92,1.14-.66-1.34a30.66,30.66,0,0,0-2.34-4.13c-.88-1.23-2-2.39-3.12-2.58s-2.24.72-3.1,2a17.08,17.08,0,0,0-2.14,4.11l-.44,1.21-1-.82L122,129.66c-.54-.48-1.16-.83-1.74-1.26a8.1,8.1,0,0,0-.93-.47,3.3,3.3,0,0,0-.94-.36,3.71,3.71,0,0,0-1-.16c-.29.07-.65,0-.9.15a2,2,0,0,0-.78.47,2.76,2.76,0,0,0-.66.74,7,7,0,0,0-.89,1.94A19.41,19.41,0,0,0,113.48,135.11Z"/><path class="cls-7" d="M96.88,116A8.93,8.93,0,1,1,88,107.06,8.93,8.93,0,0,1,96.88,116Z"/><path class="cls-8" d="M90.66,110.12c.26,1.28-1.32,2.68-3.53,3.12s-4.2-.23-4.46-1.51,1.32-2.67,3.53-3.12S90.4,108.84,90.66,110.12Z"/><polygon class="cls-7" points="73.69 93.03 73.69 100.38 102.21 98.91 102.21 90.71 73.69 93.03"/><path class="cls-7" d="M182.34,116a8.93,8.93,0,1,1-8.93-8.93A8.93,8.93,0,0,1,182.34,116Z"/><path class="cls-8" d="M176.12,110.12c.26,1.28-1.32,2.68-3.52,3.12s-4.21-.23-4.47-1.51,1.32-2.67,3.53-3.12S175.86,108.84,176.12,110.12Z"/><polygon class="cls-7" points="187.67 93.03 187.67 100.38 159.15 98.91 159.15 90.71 187.67 93.03"/><path class="cls-2" d="M93.75,153.84l.67-.4a14.31,14.31,0,0,1,1.94-1,16.38,16.38,0,0,1,3.29-1,12.4,12.4,0,0,1,4.53-.07c1.68.22,3.39,1,5,1.33a4.47,4.47,0,0,0,1.26.1h.63l.61-.15a4.94,4.94,0,0,0,1.22-.45c.39-.16.85-.43,1.3-.65a21.65,21.65,0,0,1,3-1.19,11.08,11.08,0,0,1,3.37-.57c.43,0,.58,0,.88.05a9.44,9.44,0,0,1,.93.18,10.42,10.42,0,0,1,1.68.62c1,.48,2,1,2.86,1.4a19.53,19.53,0,0,0,5.85,1.61,9,9,0,0,0,5.45-1.16,22.5,22.5,0,0,1,5.5-2.38,11.13,11.13,0,0,1,5.43.22,13.61,13.61,0,0,0,4.23.39,16.8,16.8,0,0,0,3.28-.57c1.79-.52,2.81-.9,2.81-.9l-.69.35c-.45.23-1.12.56-2,.92a17.28,17.28,0,0,1-3.32.94,12.27,12.27,0,0,1-4.52,0,9.73,9.73,0,0,0-4.85.09,24.43,24.43,0,0,0-5,2.51,10.58,10.58,0,0,1-6.46,1.54,21.36,21.36,0,0,1-6.48-1.69c-2.16-1-3.75-2.2-5.57-2.16a10.45,10.45,0,0,0-2.82.41c-.45.11-.94.29-1.43.46s-.88.37-1.32.54-.88.43-1.41.64a6.4,6.4,0,0,1-1.56.48l-.8.13-.8,0a6.27,6.27,0,0,1-1.52-.23,17.52,17.52,0,0,1-2.63-.92,14.88,14.88,0,0,0-2.31-.72,13.84,13.84,0,0,0-7.47.38,19.11,19.11,0,0,0-2,.76Z"/><path class="cls-2" d="M163.15,144.14a1.71,1.71,0,0,1,.39-.13,3,3,0,0,1,1.13,0,2.23,2.23,0,0,1,.73.24,2,2,0,0,1,.75.45,8.74,8.74,0,0,1,.7.67c.16.27.3.57.45.87a2.68,2.68,0,0,1,.27.92c0,.3,0,.6,0,.89a2.74,2.74,0,0,1-.06.82,6,6,0,0,1-.25.68,4.85,4.85,0,0,1-.71,1.29,7,7,0,0,1-.44-1.37,5.55,5.55,0,0,1-.1-.61c0-.21-.16-.41-.2-.62a4.61,4.61,0,0,1-.16-.64,1.49,1.49,0,0,0-.24-.58l-.22-.58a3.45,3.45,0,0,1-.32-.49,2.4,2.4,0,0,0-.35-.47c-.14-.13-.23-.33-.38-.43-.27-.25-.51-.49-.7-.64S163.15,144.14,163.15,144.14Z"/></g></g></svg>