<svg xmlns="http://www.w3.org/2000/svg" viewBox="0 0 183.97 259.55"><defs><style>.cls-1{fill:#f9dab4;}.cls-2{fill:#f7cea6;}.cls-3{fill:#eae5dc;}.cls-4{fill:#f9f5ed;}.cls-5{fill:#f9f7f2;}.cls-6{fill:#e5be9e;}.cls-7{fill:#c6c1ba;}.cls-8{fill:#393c3d;}.cls-9{fill:#f4c7a2;}.cls-10{fill:#3b3d3d;}.cls-11{fill:#fff;}.cls-12{fill:#2f3233;}.cls-13{fill:#474949;}</style></defs><title>资源 18</title><g id="图层_2" data-name="图层 2"><g id="Layer_1" data-name="Layer 1"><path class="cls-1" d="M156.64,201.07l-19.56,0,6,58.46h19.35C160.16,238.17,156.64,201.07,156.64,201.07Z"/><path class="cls-2" d="M137.08,201.09l6,58.46h.83c-.55-8.84-1.21-18.52-1.72-23.66-1.09-11-3.63-20.31,1.48-21s14.6,3.29,14.6,3.29c-1-9.88-1.64-17.08-1.64-17.08Z"/><path class="cls-3" d="M126.54,156s34.28,15,38.78,58.18H122.91V156Z"/><path class="cls-4" d="M147.3,211.32s10.87-.28,12.21-8.41-14.46-32.5-20.84-35.88-9.18-3.17-7.78,5.64S136,207.38,136,210.76C139.61,212.45,147.3,211.32,147.3,211.32Z"/><path class="cls-1" d="M19.84,259.55H39.18l6-58.46-19.56,0S22.11,238.17,19.84,259.55Z"/><path class="cls-2" d="M24,218.15s9.5-4,14.61-3.29,2.57,10.06,1.48,21c-.52,5.14-1.17,14.82-1.73,23.66h.83l6-58.46-19.56,0S25,208.27,24,218.15Z"/><path class="cls-3" d="M55.74,156S21.46,171,17,214.14H59.37V156Z"/><path class="cls-4" d="M35,211.32s-10.86-.28-12.21-8.41S37.22,170.41,43.6,167s9.18-3.17,7.78,5.64-5.15,34.71-5.15,38.09C42.66,212.45,35,211.32,35,211.32Z"/><path class="cls-3" d="M40.5,259.55H141.29c-.75-34.05-11.45-103.47-11.45-103.47l-62.78-1.36-13.43-1.26S45.58,212.52,40.5,259.55Z"/><path class="cls-4" d="M129.5,171c-1.1-6.55-5.52-5.42-9.46-4.28s-53.16,1-60.1-.42-8,2.42-8,2.42-4.12,52.62-5.3,63.46c-1,8.89-3.47,22.22-1.57,25.63a7.76,7.76,0,0,0,2,1.76h88.19c6.27-6.71,2-23.46,1-32.6C135.18,216.13,130.61,177.53,129.5,171Z"/><path class="cls-1" d="M163.18,50.07l-139.3-.16s.69,23.7-1.21,38.87c-1.08,8.72-.48,16.26-.7,19.68C19.91,139.9,53.21,165.71,92.2,166s70.77-25.09,71-56.59a86.15,86.15,0,0,0-.49-10.43c-.27-2.66-.27-5.55-.42-8.82C161.62,76,163.18,50.07,163.18,50.07Z"/><path class="cls-5" d="M48.9,127.73A1.29,1.29,0,0,1,47.58,129l-4.3-.16a1.28,1.28,0,0,1-1.23-1.33h0a1.29,1.29,0,0,1,1.32-1.23l4.3.16a1.28,1.28,0,0,1,1.23,1.33Z"/><path class="cls-5" d="M141.5,128.33a1.27,1.27,0,0,1-1.32,1.22l-4.3-.16a1.26,1.26,0,0,1-1.23-1.32h0a1.27,1.27,0,0,1,1.32-1.23l4.3.16a1.28,1.28,0,0,1,1.23,1.33Z"/><path class="cls-1" d="M154.15,129.66a23.41,23.41,0,0,0,19.7-.26c10.34-5.06,15.44-25.82,2-30.78s-17.52,10.43-17.52,10.43Z"/><path class="cls-2" d="M160.38,123.34s4.26-22.74,14.2-14.88c6.11,4.82,2.48,11.56-3.18,14.33C167.84,124.52,163.21,124.67,160.38,123.34Z"/><path class="cls-6" d="M160.5,123.08l1.48-5.73s18.91-5.39,13.6,2.2S160.5,123.08,160.5,123.08Z"/><path class="cls-1" d="M29.58,128.35a23.42,23.42,0,0,1-19.7-.51c-10.27-5.19-15.1-26-1.64-30.81s17.39,10.66,17.39,10.66Z"/><path class="cls-2" d="M23.43,122s-4-22.8-14-15.07c-6.16,4.74-2.63,11.53,3,14.37C16,123,20.58,123.25,23.43,122Z"/><path class="cls-6" d="M23.31,121.7l-1.4-5.76s-18.84-5.63-13.63,2S23.31,121.7,23.31,121.7Z"/><path class="cls-7" d="M152.78,130c-5.63,11.56-18.16-1.54-60-1.54s-54.16,14.26-60.29,0l-8.18,1.51c2.14,14.06,14.46,36,68.29,36s66.23-20.36,68.38-34.42Z"/><path class="cls-8" d="M92.52,0C2.67,0,11.64,60.92,13.79,71c1.55,7.19,1.49,19.17,1.35,25.33A18.24,18.24,0,0,1,22,100.58c2.35-10.65.43-27.43,5.25-37,.68-3.36,28.87-1.3,48.48,2.76a85.65,85.65,0,0,0,34.28.11c19.7-3.95,47.27-5.95,47.89-2.87,4.82,9.53,2.63,26.84,5,37.49a13,13,0,0,1,7-3.48c-.14-6.16,0-19.48,1.51-26.67C173.51,60.92,182.38,0,92.52,0Z"/><path class="cls-9" d="M93,122.12a21.39,21.39,0,0,1-11.82-3.62,1.37,1.37,0,0,1,1.66-2.19h0c.38.29,9.4,6.89,20.35-.06a1.37,1.37,0,0,1,1.47,2.31A21.44,21.44,0,0,1,93,122.12Z"/><path class="cls-10" d="M139.06,97.11a11.39,11.39,0,1,1-15.8-3.18A11.39,11.39,0,0,1,139.06,97.11Z"/><path class="cls-11" d="M131.33,94.44c1.13,1.7-.35,4.68-3.31,6.64s-6.27,2.19-7.4.48.35-4.67,3.31-6.64S130.2,92.74,131.33,94.44Z"/><path class="cls-10" d="M67,94.5a11.39,11.39,0,1,1-15.79-3.18A11.39,11.39,0,0,1,67,94.5Z"/><path class="cls-11" d="M59.26,91.84c1.12,1.7-.36,4.67-3.31,6.64s-6.28,2.18-7.41.48.35-4.68,3.31-6.64S58.12,90.14,59.26,91.84Z"/><path class="cls-8" d="M103.14,124.06c-5.09,0-10.18,4.85-10.18,4.85s-5.09-4.85-10.19-4.85c-8.24,0-14.54,21.82-34.91,21.58,0,0,10.42,7.76,22.55,7.76S93,143.46,93,143.46s10.43,9.94,22.55,9.94,22.55-7.76,22.55-7.76C117.69,145.88,111.39,124.05,103.14,124.06Z"/><path class="cls-12" d="M170.28,79.26c-2.66-.69-11.24-2.84-15.93-3.3-2.92-.57-8.9-.82-21.09-.82-30.54,0-36.44,6.41-36.44,6.41H87.56s-5.9-6.41-36.44-6.41c-13.12,0-19.06.29-21.71,1h0s-9.34,1.4-14.63,2.28c.2,2.41.31,4.92.37,7.36,3.85-.8,10.9-1.91,13.62,0a13.14,13.14,0,0,1,4.43,7.43c1.43,6.21.82,23.59,24.23,24.21,13.85,0,21.58-3.51,25.76-12.1a97.55,97.55,0,0,0,5.49-13,3.64,3.64,0,0,1,7,0,97.55,97.55,0,0,0,5.49,13c4.18,8.59,11.92,12.1,25.76,12.1,23.41-.62,22.8-18,24.23-24.21A12.69,12.69,0,0,1,156.59,85a92.28,92.28,0,0,1,13.32,1.08C170,83.82,170.11,81.49,170.28,79.26Z"/><path class="cls-11" d="M147.72,81.86A1.13,1.13,0,0,0,148.84,83H153a1.13,1.13,0,0,0,1.12-1.14h0A1.13,1.13,0,0,0,153,80.73h-4.17a1.13,1.13,0,0,0-1.12,1.13Z"/><path class="cls-11" d="M36.66,81.86A1.13,1.13,0,0,1,35.54,83H31.37a1.13,1.13,0,0,1-1.12-1.14h0a1.13,1.13,0,0,1,1.12-1.13h4.17a1.13,1.13,0,0,1,1.12,1.13Z"/><path class="cls-13" d="M47.05,80.31s13.64-1.86,26.87,1.87c7.84,2.48,10.39,6.41,7.13,15.52s-8.37,16.16-23.51,15.84-19.15-7.66-19.66-17.6C37.38,87.25,36.66,81.35,47.05,80.31Z"/><path class="cls-11" d="M73.92,82.18a1.41,1.41,0,0,0-.22-.06L55.07,113.41c.64,0,1.31.09,2,.11L76.16,83C75.47,82.7,74.72,82.43,73.92,82.18ZM66.3,80.59,47.68,111.87a22.3,22.3,0,0,0,4,1.1l20-31.36C69.9,81.18,68.08,80.84,66.3,80.59Z"/><path class="cls-13" d="M137.33,80.31s-13.64-1.86-26.87,1.87c-7.84,2.48-10.39,6.41-7.13,15.52s8.37,16.16,23.51,15.84,19.15-7.66,19.66-17.6C147,87.25,147.72,81.35,137.33,80.31Z"/><path class="cls-11" d="M142.9,81.79l-18.17,31.74c.69,0,1.38,0,2.11,0h0l18.09-30.11A6.78,6.78,0,0,0,142.9,81.79Zm-5.57-1.48s-.68-.09-1.88-.19L117,112.39a26.66,26.66,0,0,0,4.26.88L141,81A19.45,19.45,0,0,0,137.33,80.31Z"/></g></g></svg>