<svg xmlns="http://www.w3.org/2000/svg" viewBox="0 0 210.9 259.9"><defs><style>.cls-1{fill:#f9f5ed;}.cls-2{fill:#e8e3d9;}.cls-3{fill:#223a47;}.cls-4{fill:#192f38;}.cls-5{fill:#274451;}.cls-6{fill:#515151;}.cls-7{fill:#f4d3b0;}.cls-8{fill:#f9dab4;}.cls-9{fill:#efc4a0;}.cls-10{fill:#3a332d;}.cls-11{fill:#e8dfd9;}</style></defs><title>资源 319</title><g id="图层_2" data-name="图层 2"><g id="Layer_1" data-name="Layer 1"><polygon class="cls-1" points="184.53 161.66 181.66 259.9 200.07 259.9 184.53 161.66"/><polygon class="cls-2" points="184.81 205.72 184.61 259.9 187.14 259.9 184.81 205.72"/><polygon class="cls-1" points="184.53 161.66 159.9 158 141.24 147.82 129.23 143.26 129.23 143.26 116.03 147.66 98.56 158 73.15 161.66 73.58 259.9 184.63 259.9 184.53 161.66"/><path class="cls-3" d="M126.36,207.64s-11.13,3.08-9.53,16.35a8.87,8.87,0,0,0,.53,2.07A18.88,18.88,0,0,0,125,224s5.92-2.82,3.84-14Z"/><path class="cls-4" d="M121.33,210.54c3.13,1.57,7.75,1.19,7.75,1.19l-6.77-2C122,210,121.66,210.25,121.33,210.54Z"/><path class="cls-4" d="M124.9,210s-4.5,3.66-3.06,4.37S124.9,210,124.9,210Z"/><path class="cls-4" d="M127.11,210.8s-2.48,5.24-.87,5.26S127.11,210.8,127.11,210.8Z"/><path class="cls-3" d="M108.66,187.94a36.69,36.69,0,0,0,5.13,14.42c3,4.89,8.82,8.19,15,9.85v-8.33l-7.12-3.57-3-4.12Z"/><path class="cls-4" d="M128.84,218.34a10.81,10.81,0,0,1-1-6.59l2.2-.36Z"/><path class="cls-3" d="M131.32,207.64s11.13,3.08,9.53,16.35a9.11,9.11,0,0,1-.49,2.07,17.26,17.26,0,0,1-7.68-2.07s-5.92-2.82-3.84-14Z"/><path class="cls-4" d="M136.35,210.54c-3.13,1.57-7.75,1.19-7.75,1.19l6.77-2A11.85,11.85,0,0,1,136.35,210.54Z"/><path class="cls-4" d="M132.78,210s4.5,3.66,3.06,4.37S132.78,210,132.78,210Z"/><path class="cls-4" d="M130.58,210.8s2.47,5.24.86,5.26S130.58,210.8,130.58,210.8Z"/><path class="cls-3" d="M149,187.94a36.69,36.69,0,0,1-5.13,14.42c-3,4.89-8.81,8.19-15,9.85v-8.33l7.12-3.57,3-4.12Z"/><rect class="cls-5" x="124.04" y="202.12" width="9.61" height="9.61" rx="3.6"/><path class="cls-2" d="M109.86,147.2h0c-1.34,1.23-2.35,2.08-2.35,2.08a47.93,47.93,0,0,1-12,8.34c-.62.3-2.22.9-2.22.9a20.77,20.77,0,0,1-7.13,1.39,61,61,0,0,0-13,1.75h0l48.57,38.65Z"/><path class="cls-3" d="M76.21,161l44.7,35.69-1.33-6L81.41,160.22C79.92,160.38,78.15,160.63,76.21,161Z"/><path class="cls-3" d="M117.28,180.41,90.82,159.28a18.58,18.58,0,0,1-4.68.63h-.68l33.16,26.48Z"/><path class="cls-2" d="M147.82,147.2h0c1.34,1.23,2.36,2.08,2.36,2.08a47.7,47.7,0,0,0,12,8.34c.61.3,2.21.9,2.21.9a20.77,20.77,0,0,0,7.13,1.39,61,61,0,0,1,13,1.75h0L136,200.31Z"/><path class="cls-3" d="M181.47,161l-44.7,35.69,1.33-6,38.18-30.48C177.76,160.38,179.53,160.63,181.47,161Z"/><path class="cls-3" d="M140.4,180.41l26.46-21.13a18.58,18.58,0,0,0,4.68.63h.68L139.06,186.4Z"/><path class="cls-6" d="M52.82,99.67S19.9,0,127.24,0s80.05,99.67,80.05,99.67Z"/><path class="cls-7" d="M63.72,96.36s-4.32-5.65-10.45-2.82C45.9,97,44.64,125.74,76,131.88Z"/><path class="cls-7" d="M196.09,96.36s4.33-5.65,10.46-2.82c7.37,3.41,8.63,32.2-22.74,38.34Z"/><path class="cls-8" d="M200.67,79.57V67.26H59.41V79.57S57.59,160.23,130,160.23,200.67,79.57,200.67,79.57Z"/><path class="cls-6" d="M55.32,68.84S70.89,83.39,99.77,82.33l-6.51-4.76S114.62,83.87,132,84l-3.52-6.2s10.25,4.38,31.93,4.49l-3-6.51s14,7.26,29.59,8.86l-1-6s8.14,5.23,17.69,6V61.12H55.32Z"/><path class="cls-9" d="M127,139.24c-17.37,0-26.95-2.55-27.55-2.71a1.27,1.27,0,1,1,.68-2.45c.25.07,22,5.78,59.19,0a1.27,1.27,0,1,1,.39,2.51A213.14,213.14,0,0,1,127,139.24Z"/><path class="cls-9" d="M130,150.35a30.4,30.4,0,0,1-10.28-1.68,1.27,1.27,0,0,1,.93-2.37,30,30,0,0,0,18.74,0,1.27,1.27,0,1,1,.82,2.41A32,32,0,0,1,130,150.35Z"/><path class="cls-9" d="M129.62,115.18c-5.81-.15-10.67,5.33-10.67,5.33s6.31-2.6,10.66-2.67,10.67,2.67,10.67,2.67S135.42,115.32,129.62,115.18Z"/><circle class="cls-10" cx="95.54" cy="103.33" r="7.26"/><path class="cls-11" d="M96.75,98.27c.17.88-.91,1.84-2.43,2.15s-2.89-.16-3.06-1,.91-1.84,2.42-2.15S96.57,97.39,96.75,98.27Z"/><rect class="cls-6" x="80.73" y="84.9" width="23.6" height="5.99" rx="2.54"/><circle class="cls-10" cx="164.81" cy="103.33" r="7.26"/><path class="cls-11" d="M163.61,98.27c-.18.88.91,1.84,2.42,2.15s2.89-.16,3.07-1-.91-1.84-2.42-2.15S163.79,97.39,163.61,98.27Z"/><rect class="cls-6" x="156.03" y="84.9" width="23.6" height="5.99" rx="2.54"/><path class="cls-8" d="M3.39,118.76l-1.91-7.83S32.11,53.51,42.53,55.76c5.15,1.11,4.66,4.38,4.66,4.38S51.83,54,57.41,55.69c3.58,1.1,3.1,3.1,3.1,3.1a5.21,5.21,0,0,1,5.66-.16c7.72,5-9.73,29.2-9.73,29.2s3.57,2.73,1.4,8.62a36.26,36.26,0,0,1-15.09,17.61l-5.88,5.73Z"/><path class="cls-9" d="M47.19,60.14C47,62.82,45.14,71,31.67,89.65l1.3.93c17.66-24.5,16-31.35,15.72-32.06A15.23,15.23,0,0,0,47.28,60Z"/><path class="cls-9" d="M52.64,83.51a6.34,6.34,0,0,0-3.06.12C52.72,78.68,59.47,68,60.79,65.51A15.31,15.31,0,0,0,62.16,58a5.62,5.62,0,0,0-1.65.75,12.87,12.87,0,0,1-1.14,6c-1.59,3-11.73,19-12.66,20.42-3.4,2.7-2.86,6.17-1.94,8.84C38,90.5,28.13,90.63,27.6,90.64l0,1.6c.16,0,15.87-.21,20.57,6.64L49.52,98A11.15,11.15,0,0,0,47,95.42l-.1-.24c-1.07-2.63-2.53-6.23.87-8.84a5.44,5.44,0,0,1,4.51-1.26,8.09,8.09,0,0,1,4.15,2.71c.1-.13.43-.61.94-1.35A9.47,9.47,0,0,0,52.64,83.51Z"/><polygon class="cls-1" points="73.15 161.66 38 157.49 42.75 114.06 1.48 110.93 0 180.55 76.01 191.77 73.15 161.66"/></g></g></svg>