<svg xmlns="http://www.w3.org/2000/svg" viewBox="0 0 167.69 260"><defs><style>.cls-1{fill:#d13b13;}.cls-2{fill:#5c9ea0;}.cls-3{fill:#1f6e89;}.cls-4{fill:#efc4a0;}.cls-5{fill:#dd491b;}.cls-6{fill:#eb5f24;}.cls-7{fill:#6d4c3a;}.cls-8{fill:#f9dab4;}.cls-9{fill:#f9f7f2;}.cls-10{fill:#604031;}.cls-11{fill:#f7cea6;}.cls-12{fill:#e5be9e;}.cls-13{fill:#3a332d;}.cls-14{fill:#e8dfd9;}.cls-15{fill:#472b18;}.cls-16{fill:#fff;}.cls-17{fill:#f4c7a2;}.cls-18{fill:#ad3936;}.cls-19{fill:#e0605c;}</style></defs><title>资源 32</title><g id="图层_2" data-name="图层 2"><g id="Layer_1" data-name="Layer 1"><path class="cls-1" d="M114.05,194s28.74-8.23,27.61-21.81-10.18-32.76-10.18-32.76l-31.4,3V194Z"/><path class="cls-1" d="M53.65,194s-28.73-8.23-27.6-21.81S36.22,139.4,36.22,139.4l31.4,3V194Z"/><rect class="cls-2" x="58.28" y="152.51" width="51.15" height="107.49"/><path class="cls-3" d="M101.84,169.69c0,7.16-4.11,13-18,13s-18-5.8-18-13,8-13,18-13S101.84,162.53,101.84,169.69Z"/><path class="cls-4" d="M98.54,167.22c0,6.36-3.36,11.53-14.69,11.53s-14.68-5.17-14.68-11.53,6.58-11.52,14.68-11.52S98.54,160.86,98.54,167.22Z"/><path class="cls-5" d="M110.28,155.7s-3.67,31.87,5.82,49.79C124,220.35,131,251.67,132.82,260H160C139.9,169.58,110.28,155.7,110.28,155.7Z"/><path class="cls-5" d="M57.38,155.7s3.67,31.87-5.82,49.79C43.69,220.35,36.64,251.67,34.85,260H7.7C27.76,169.58,57.38,155.7,57.38,155.7Z"/><path class="cls-6" d="M51.23,155.7s.68,37.24-2,46.5c-2.26,7.67-7.08,38.62-8.1,57.8H71.66c-.87-10.51-2.23-26.85-2.35-43.6-.22-29.72,2.94-60.7,2.94-60.7Z"/><path class="cls-5" d="M55.2,182.76l10.49,4.32L55.2,205.28l14.11,4v-.18c.21-21.48,1.9-42.22,2.62-50.09Z"/><path class="cls-6" d="M96.05,260h30.56c-1-19.18-5.84-50.13-8.09-57.8-2.73-9.26-2-46.5-2-46.5h-21s3.15,31,2.94,60.7C98.28,233.15,96.92,249.49,96.05,260Z"/><path class="cls-5" d="M112.5,182.76,102,187.08l10.49,18.2-14.1,4,0-.18c-.21-21.48-1.9-42.22-2.61-50.09Z"/><path class="cls-7" d="M163.91,47.92C159.14,26.18,125.79,0,84.34,0S9.55,26.18,4.78,47.92c-5,22.59,4.41,82.82,4.41,82.82H159.51S168.87,70.51,163.91,47.92Z"/><path class="cls-8" d="M148.75,52.91l-127-.15s.62,29.82-1.1,43.65c-1,8-.44,14.82-.64,17.94-1.88,28.66,28.47,52.18,64,52.41s64.5-22.86,64.69-51.58a80.19,80.19,0,0,0-.45-9.51c-.25-2.42-.25-5-.38-8C147.32,84.72,148.75,52.91,148.75,52.91Z"/><path class="cls-9" d="M44.58,128.34a1.18,1.18,0,0,1-1.21,1.12l-3.92-.15a1.16,1.16,0,0,1-1.12-1.2h0A1.16,1.16,0,0,1,39.54,127l3.92.14a1.17,1.17,0,0,1,1.12,1.21Z"/><path class="cls-9" d="M129,128.89a1.15,1.15,0,0,1-1.2,1.11l-3.92-.14a1.17,1.17,0,0,1-1.12-1.21h0a1.17,1.17,0,0,1,1.21-1.12l3.91.14a1.17,1.17,0,0,1,1.12,1.22Z"/><path class="cls-10" d="M148.75,52.91s-1.43,31.81-.84,44.72c.09,2,.12,3.91.21,5.66l6.91,6.24L151,96.33l7.22,10.37.69-5.56C159.06,99.75,162,66,152,50.07Z"/><path class="cls-8" d="M140.51,133.67a21.34,21.34,0,0,0,18-.23c9.42-4.61,14.07-23.53,1.86-28.06s-16,9.51-16,9.51Z"/><path class="cls-11" d="M146.19,127.92s3.88-20.73,12.95-13.57c5.56,4.39,2.26,10.54-2.91,13.06C153,129,148.78,129.13,146.19,127.92Z"/><path class="cls-12" d="M146.3,127.68l1.35-5.22s17.24-4.92,12.4,2S146.3,127.68,146.3,127.68Z"/><path class="cls-8" d="M27,132.48A21.33,21.33,0,0,1,9,132c-9.36-4.74-13.77-23.72-1.5-28.08s15.85,9.71,15.85,9.71Z"/><path class="cls-11" d="M21.36,126.65s-3.61-20.77-12.77-13.73C3,117.24,6.19,123.43,11.32,126,14.55,127.64,18.76,127.83,21.36,126.65Z"/><path class="cls-12" d="M21.25,126.42,20,121.17S2.8,116,7.55,123,21.25,126.42,21.25,126.42Z"/><path class="cls-13" d="M57.59,110.58a7.23,7.23,0,1,1-7.23-7.23A7.22,7.22,0,0,1,57.59,110.58Z"/><path class="cls-14" d="M51.56,105.54c.18.88-.9,1.83-2.41,2.14s-2.88-.16-3.06-1,.91-1.83,2.42-2.14S51.39,104.67,51.56,105.54Z"/><path class="cls-13" d="M124.55,110.58a7.23,7.23,0,1,1-7.23-7.23A7.23,7.23,0,0,1,124.55,110.58Z"/><path class="cls-14" d="M118.52,105.54c.17.88-.91,1.83-2.41,2.14s-2.88-.16-3.06-1,.91-1.83,2.42-2.14S118.34,104.67,118.52,105.54Z"/><path class="cls-15" d="M125.9,107.33a10.38,10.38,0,1,1-14.4-2.9A10.38,10.38,0,0,1,125.9,107.33Z"/><path class="cls-16" d="M118.86,104.9c1,1.55-.32,4.26-3,6s-5.72,2-6.75.44.32-4.26,3-6S117.83,103.35,118.86,104.9Z"/><path class="cls-15" d="M60.2,105a10.38,10.38,0,1,1-14.39-2.9A10.37,10.37,0,0,1,60.2,105Z"/><path class="cls-16" d="M53.16,102.52c1,1.55-.32,4.26-3,6.06s-5.71,2-6.75.43.32-4.25,3-6.05S52.13,101,53.16,102.52Z"/><path class="cls-17" d="M74.59,131.31a1.27,1.27,0,0,1-1.06-.58,1.25,1.25,0,0,1,.39-1.73,19.24,19.24,0,0,1,21.4.06,1.25,1.25,0,0,1-1.51,2c-.36-.27-8.57-6.28-18.55.05A1.19,1.19,0,0,1,74.59,131.31Z"/><path class="cls-7" d="M14,65.37s51.82,0,112,41.14L115.81,93.14l25.88,13.37-5.82-17.15,14.83,13.37-5.8-18.9,11.86,17s4.15-33.53-6-53.28c-8.26-16.14-49.53-23.38-49.53-23.38L23.6,30.91Z"/><path class="cls-18" d="M49.24,133.83q34.62,9.87,70.67-.05s-7,25.35-35.27,25.35S49.24,133.83,49.24,133.83Z"/><path class="cls-19" d="M84.64,159.13c9.17,0,16.09-2.67,21.27-6.27-6-4-14.61-7.47-21.32-7.47A33.66,33.66,0,0,0,63.53,153h0A36.53,36.53,0,0,0,84.64,159.13Z"/></g></g></svg>