<svg xmlns="http://www.w3.org/2000/svg" viewBox="0 0 198.4 260.13"><defs><style>.cls-1{fill:#44302c;}.cls-2{fill:#ffbc36;}.cls-3{fill:#e59d29;}.cls-4{fill:#31777a;}.cls-5{fill:#f9dab4;}.cls-6{fill:#efc4a0;}.cls-7{fill:#e5be9e;}.cls-8{fill:#f7cea6;}.cls-9{fill:#ad0b0b;}.cls-10{fill:#c62828;}.cls-11{fill:#393c3d;}.cls-12{fill:#54a3b5;}.cls-13{fill:#f9f5ed;}</style></defs><title>资源 134</title><g id="图层_2" data-name="图层 2"><g id="Layer_1" data-name="Layer 1"><path class="cls-1" d="M178.36,47.38C172.53,31,158,21.83,158,21.83s7.17-1.08,10.2-4.1c0,0-5.83-5.06-13.6-3.13C152.13,7.13,147,1.35,143.63,1.35c0,0,.12,9.51,2.19,11.56C134.89,5.68,105-5.4,69.56,3S-9.38,64.26,9.39,148.12c0,0,9.25,22.68-8.16,19.44,0,0-7.21,15,13.33,24.3-18.23,0-20.1,38.33,14.14,35.9,77.26,0,117.53-8.91,130-8.91s53.87-24.83,25.85-40.49c16.59-13.23,13.6-21.87,13.6-21.87s-16.87,5.67-13.33-6.75S191.64,75,178.36,47.38Z"/><path class="cls-2" d="M153.49,180.16c-4.72-16.28-19-15-19-15s2.81,56,3,95H170C166.42,241.14,157.25,193.13,153.49,180.16Z"/><path class="cls-3" d="M134.47,165.16s-6,56.05-6.17,95h20.92c-.48-11.24-.74-34.93-1.66-52.67-.91-17.48,3.12-26.18,5.21-29.44C147.47,164,134.47,165.16,134.47,165.16Z"/><path class="cls-2" d="M41.11,180.16c-4.19,14.46-14.43,68.15-16.66,80h32.9c.22-39,2.77-95,2.77-95S45.82,163.88,41.11,180.16Z"/><path class="cls-3" d="M44.81,260.13H66.28c-.39-38.93-6.16-95-6.16-95S47.12,164,41.83,178c2.08,3.26,6.12,12,5.21,29.44C46.14,224.71,45.35,248.41,44.81,260.13Z"/><polygon class="cls-2" points="53.55 166.19 53.55 260.13 142.78 260.13 142.05 166.49 125.09 161.9 69.66 161.72 53.55 166.19"/><path class="cls-3" d="M128,169.19s-3.8-1.61-11.4-1.61-35.68.65-43-3.46c0,0,9.44,5.69,27.79,5.69s20.9-.31,25.35,1.91c0,17.3,1,68.68-.5,88.41h2.26a30.89,30.89,0,0,0,1.45-9.28V176C130,171,128,169.19,128,169.19Z"/><path class="cls-3" d="M71,161.65a48.23,48.23,0,0,0,22.81,6.92H97s-17.17-3.7-19.72-6.11S71,161.65,71,161.65Z"/><path class="cls-4" d="M92.26,189.33H81.78s-1.87,46.33-2.6,70.8h21.69C101.24,239,102,197.51,102,194,102,189.33,99.34,189.33,92.26,189.33Z"/><path class="cls-4" d="M71.56,161.72v74.55h-18V166.12c2.84-.94,9.65-2.71,16.12-4.4Z"/><path class="cls-3" d="M108,191.73a7.28,7.28,0,1,0,7.27-6.85A7.07,7.07,0,0,0,108,191.73Z"/><path class="cls-3" d="M108,229.17a7.28,7.28,0,1,0,7.27-6.86A7.07,7.07,0,0,0,108,229.17Z"/><path class="cls-5" d="M160.17,88.71a58,58,0,0,1,.72,20.26c-7,50.92-28.75,59-72.06,57.5-25.66-.92-50.41-15.73-54.57-39.09-1.4-7.84-.76-15.8-1.19-23.7-.55-9.79.29-17.59,2.49-24.08,4.78-14.12,22.71-25,38.65-23.57,6.39.56,11.69,3.4,16.79,7,.69.49,9.24,8.43,8.92,8.82,10.9-13.22,35.74-20.5,48.62-6.55C154.1,71.3,158.52,81.07,160.17,88.71Z"/><path class="cls-6" d="M103.82,123.76a3.48,3.48,0,0,1,.93,2.3c0,2.72-3.58,4.93-8,4.93s-8-2.21-8-4.93a3.53,3.53,0,0,1,.93-2.3,5,5,0,0,0-2.52,4c0,3.26,4.3,5.9,9.6,5.9s9.59-2.64,9.59-5.9A5,5,0,0,0,103.82,123.76Z"/><path class="cls-5" d="M155.51,108.16s10.21-9.28,18,1.16-5,28.3-19.35,16.88Z"/><path class="cls-7" d="M160.09,122.22s.06-11.58,4.85-11.27S170.41,122.88,160.09,122.22Z"/><path class="cls-8" d="M164.94,111a3.49,3.49,0,0,1,2.91,2.45c-2.39,2.08-6,5.55-7.76,8.6C160.13,120.45,160.53,110.67,164.94,111Z"/><path class="cls-5" d="M36.37,107.46s-10.54-9.57-18.55,1.2,5.18,29.18,20,17.41Z"/><path class="cls-7" d="M31.64,122s-.06-11.94-5-11.62S21,122.64,31.64,122Z"/><path class="cls-8" d="M26.64,110.34a3.61,3.61,0,0,0-3,2.52c2.47,2.15,6.24,5.73,8,8.88C31.6,120.13,31.18,110.05,26.64,110.34Z"/><path class="cls-9" d="M79.83,142.39s19.61-2.75,36.64,0c0,0-1.2,19.49-16.8,19.49C85.37,161.88,79.83,150.6,79.83,142.39Z"/><path class="cls-10" d="M99.2,147.52c-7,0-12.76,3.58-14.23,8.36,3.18,3.5,8,6,14.7,6a14.59,14.59,0,0,0,13.1-7.58C110.63,150.33,105.36,147.52,99.2,147.52Z"/><path class="cls-1" d="M119.48,91.91s15.89-13.74,28,.15c0,0,.52-3.62-5.21-7.09-6.18-3.75-15.18-2.58-20.35,2C118.25,90.18,119.48,91.91,119.48,91.91Z"/><path class="cls-1" d="M75.58,91.91s-15.89-13.74-27.95.15c0,0-.52-3.62,5.21-7.09C59,81.22,68,82.39,73.19,87,76.82,90.18,75.58,91.91,75.58,91.91Z"/><path class="cls-11" d="M96.47,92.06H26.22v10.25s10.08,1.91,14.52,9.42c3.93,6.64,4,20.65,22.62,22.48,24.1,2.36,18.73-15,27.11-17.2,4.51-1.17,4.51-1.14,6-1.14s1.49,0,6,1.14c8.38,2.17,3,19.56,27.12,17.2,18.56-1.83,18.69-15.84,22.62-22.48,4.43-7.51,14.52-8.22,14.52-8.22V92.06Z"/><path class="cls-12" d="M149.74,95.33H43.2a60.17,60.17,0,0,0,2.45,17.11c2.65,8.49,6.51,16.47,17.1,18.35,17.76,3.14,18.15-12.19,22.45-15.64,3.64-2.9,9-3.59,11.27-3.59s7.63.69,11.27,3.59c4.3,3.45,4.69,18.78,22.46,15.64,10.58-1.88,14.44-9.86,17.1-18.35A60.37,60.37,0,0,0,149.74,95.33Z"/><path class="cls-13" d="M108.06,95.33,94.28,111.71a17.94,17.94,0,0,1,2.19-.15c2.27,0,7.63.69,11.27,3.59a11.18,11.18,0,0,1,2.47,3.62l19.72-23.44Z"/><path class="cls-13" d="M138,95.33,113.33,124.6a15.14,15.14,0,0,0,4.29,4.42L146,95.33Z"/></g></g></svg>