<?xml version="1.0" standalone="no"?><!DOCTYPE svg PUBLIC "-//W3C//DTD SVG 1.1//EN" "http://www.w3.org/Graphics/SVG/1.1/DTD/svg11.dtd"><svg t="1548740909874" class="icon" style="" viewBox="0 0 1675 1024" version="1.1" xmlns="http://www.w3.org/2000/svg" p-id="12515" xmlns:xlink="http://www.w3.org/1999/xlink" width="327.1484375" height="200"><defs><style type="text/css"></style></defs><path d="M229.599418 704.400291l22.016-286.440727 142.522182-12.1856-16.942545 238.163781c0 37.329455-11.012655 45.819345-42.40291 51.255855l-105.192727 9.206691z m178.082909-258.122473l-0.009309-42.421527 96.507346-7.009746 6.739781-47.91389h40.001164l-5.827491 41.239272 42.207418-5.669236v48.612073h-42.207418l-19.241891 194.895127c-4.803491 31.613673-9.1136 46.228945-41.257891 52.438109l-76.911709 8.005818 4.105309-43.343127 44.171637-5.538909c15.965091 0 28.634764-4.654545 28.634763-22.928291l13.982255-176.407273-90.903273 6.050909z m-134.050909 215.440291h34.0992c11.385018 0.400291 17.435927-7.624145 17.435927-27.108073l6.711855-60.378763h-49.0496l-9.206691 87.486836z m131.714327-48.612073c9.234618-21.559855 28.327564-100.603345 16.262982-136.145454h49.328873c-5.697164 38.437236-17.296291 103.814982-17.296291 136.145454h-48.295564zM297.527855 450.448291l-9.458037 82.506473h48.826182l11.310545-85.448146-50.67869 2.941673zM594.478545 667.927273l22.016-286.422109 142.522182-12.194909-16.942545 238.163781c0 37.329455-11.012655 45.819345-42.402909 51.255855l-105.192728 9.206691z m178.08291-258.113164v-42.412218l96.498036-7.019055 6.739782-47.913891h40.001163l-5.827491 41.239273 42.207419-5.669236v48.612073h-42.198109l-19.241891 194.895127c-4.8128 31.613673-9.122909 46.228945-41.2672 52.447418l-76.911709 8.005818 4.114618-43.352436 44.162327-5.5296c15.965091 0 28.634764-4.654545 28.634764-22.9376l13.982254-176.407273-90.903273 6.050909z m-134.05091 215.440291h34.0992c11.385018 0.400291 17.435927-7.624145 17.435928-27.108073l6.711854-60.378763h-49.0496l-9.206691 87.486836z m131.723637-48.612073c9.225309-21.559855 28.318255-100.603345 16.262982-136.136145h49.319563c-5.697164 38.427927-17.286982 103.814982-17.286982 136.136145h-48.304872zM662.406982 413.975273l-9.467346 82.506472h48.826182l11.310546-85.448145-50.669382 2.941673z" p-id="12516"></path><path d="M1342.594327 158.775855c-45.419055 39.330909-77.433018 79.173818-96.0512 119.538036-27.927273 60.546327-31.1296 117.322473-31.1296 156.16-5.725091 54.960873 34.369164 110.685091-12.325236 165.236364-46.703709 54.532655-79.434473 89.385891-79.434473 144.197818 0 54.802618 91.759709 42.468073 91.759709 75.180218 0 31.464727-52.354327 72.778473-91.759709 72.778473-39.396073 0-384.046545-5.604073-476.727854 19.642181-92.690618 25.246255-285.723927 92.858182-281.758255 107.073164h281.758255c36.212364-40.010473 76.967564-64.2048 122.237672-72.582982 67.919127-12.567273 319.320436 10.779927 420.240291-11.859782 100.919855-22.6304 139.385018-79.294836 84.861673-135.428654-54.532655-56.133818-87.877818-89.246255-27.722473-169.658182 60.136727-80.402618 55.221527-174.1824 43.780655-233.416145-16.058182-78.633891 129.619782-236.860509 171.082473-236.860509h-118.811928z" p-id="12517"></path><path d="M955.922618 463.108655l5.678546-28.513746 92.197236-6.786327v-17.696582h45.800727v17.696582l79.043491-4.8128v31.529891h-31.790545c3.425745 48.993745 18.106182 113.980509 42.049163 141.330618l-26.903272 28.709236c-32.954182-28.709236-51.2-93.090909-56.897164-161.456872h-11.9808l-16.365382 161.456872-54.923636 7.177309 21.690182-168.634181h-13.684364c-3.416436 69.510982-32.488727 137.867636-87.226182 168.634181l-23.915054-35.886545c42.914909-34.853236 65.536-82.608873 70.097454-132.747636h-32.8704z m16.905309-130.67171v-39.656727l142.708364-15.527563c30.999273-6.656 55.956945-15.853382 74.509964-37.776291v53.313163c-16.356073 13.218909-24.110545 22.667636-55.314619 28.625455l-161.903709 11.021963z m132.272873 64.958837c14.820073-30.766545 18.255127-42.8032 22.816582-71.289018h46.191709c-6.842182 34.182982-15.453091 52.717382-34.499491 71.289018h-34.5088z m-91.694545 4.561454c-2.290036-27.350109-21.690182-47.383273-35.672437-61.598254l43.082473-8.015127c15.294836 16.467782 23.682327 32.795927 28.243782 63.562472l-35.653818 6.050909z m49.75709-5.241018c-1.135709-19.372218-3.723636-36.1472-12.846545-64.633018l37.981091-5.343418c11.403636 22.788655 10.4448 44.907055 12.725527 69.976436h-37.860073zM590.652509 245.871709l4.263564-18.394764c-17.212509-6.302255-23.179636-23.216873-17.947928-50.706618l24.091928-2.113163c-3.2768 16.495709-2.085236 29.025745 3.537454 37.552872 3.193018-6.292945 6.376727-16.197818 9.513891-29.696l32.470109-139.831854 48.202473-4.217018a121.781527 121.781527 0 0 0 43.473455-10.091055l-5.557528 23.924364a149.234036 149.234036 0 0 1-38.790982 8.797091l-23.216872 2.029381-6.628073 28.513746 62.519855-5.464436-5.343419 22.993454-16.970472 1.489455-28.634764 123.252363-29.453964 2.578618 28.625455-123.252363-16.058182 1.405673-13.470254 57.939781c-5.473745 33.549964-23.663709 57.967709-54.625746 73.290473z m-60.983854-166.818909l5.129309-22.071855 33.922327-2.978909 3.211636-13.786763 33.028655-2.885818-3.211637 13.796072 33.940946-2.978909-5.12 22.081164-100.910546 8.834327z m-17.966546 54.765382l5.138618-22.081164 18.748509-1.647709c-1.861818-7.046982-1.992145-15.453091-0.269963-25.218327l26.782254-2.345891c-0.363055 9.048436-0.260655 17.463855 0.269964 25.227636l20.526545-1.796654c4.971055-8.862255 8.750545-17.594182 11.338473-26.242328l27.675927-2.420363a276.805818 276.805818 0 0 1-12.213527 26.3168l17.854836-1.563927-5.138618 22.081163-38.4 3.351273-4.263563 18.394764 34.816-3.044073-5.110691 22.081163-34.816 3.044073-10.696146 46.005527c-4.4032 21.4016-16.663273 32.674909-36.733672 33.866473l-17.845528 1.554618 4.701091-20.247272 8.033746-0.707491c7.140073-0.623709 11.319855-4.896582 12.585891-12.809309l10.491345-45.083928-38.4 3.351273 5.110691-22.062545 38.4-3.369891 4.263564-18.385455-42.859055 3.751564zM484.016873 241.664l4.282182-18.376145c12.381091-10.714764 21.075782-24.389818 26.139927-41.053091l23.226182-2.029382c-7.298327 28.886109-25.181091 49.366109-53.648291 61.458618zM925.277091 51.665455l-19.642182 1.722181-2.141091 9.197382 19.642182-1.712873 2.141091-9.20669z m-16.1792 32.060509c5.920582-0.512 9.6256-3.853964 11.068509-9.979346l-19.642182 1.712873-2.1504 9.216 10.724073-0.949527z m-4.971055 59.010327l-19.642181 1.712873-2.131782 9.206691 19.642182-1.722182 2.131781-9.197382z m-17.091491 32.134982c7.019055 0 10.975418-3.351273 11.962182-10.053818l-19.642182 1.712872-2.131781 9.206691 9.811781-0.865745zM860.094836 57.371927l-2.141091 9.197382 19.642182-1.712873 2.141091-9.206691-19.642182 1.722182z m-7.242472 31.278546l19.642181-1.722182 2.122473-9.197382-19.642182 1.712873-2.122472 9.206691z m-18.199273-49.803637l3.853964-16.542254 126.789818-11.096437-3.863273 16.551564L834.653091 38.846836z m4.310109 109.586619l-2.1504 9.20669 19.642182-1.722181 2.141091-9.206691-19.632873 1.722182z m-7.279709 31.278545l19.642182-1.712873 2.141091-9.206691-19.651491 1.722182-2.141091 9.206691z m-7.949964-75.012655l13.684364-58.88 116.968727-10.24-7.698618 33.140364c-3.574691 17.743127-15.0528 27.154618-34.555345 28.243782l-88.399128 7.726545z m-10.891636 24.389819l3.816727-16.570182 129.470837-11.319855-3.844655 16.570182-129.442909 11.319855z m-10.249309 66.690327l13.675054-58.861382 117.853091-10.305164-7.894109 34.00611c-3.416436 17.147345-14.848 26.242327-34.350545 27.350109l-89.283491 7.819636z m-12.6976 24.529454l3.630545-15.620654 132.151855-11.561891-3.649164 15.620655-132.133236 11.56189z m-55.323927 8.452655l4.49629-19.307055 16.970473-1.489454c6.534982-0.567855 10.258618-4.1984 11.254691-10.891636l17.752436-76.362473-17.873454 1.563927c-17.547636 2.746182-24.017455-4.514909-19.437382-21.736727l7.903418-34.034037 30.356946-2.65309c6.395345 0.037236 10.081745-3.286109 11.068509-9.988655l2.141091-9.178764-41.071709 3.593309 4.691781-20.256581 68.747637-6.013673-7.894109 34.024727c-2.960291 17.705891-13.2096 26.689164-30.775855 27.042909l-13.395782 1.163637-1.712872 7.363491c-2.308655 7.410036 0.186182 10.500655 7.465891 9.253236l30.366254-2.6624-22.639709 97.522036c-3.984291 19.577018-16.290909 29.975273-36.985018 31.176146l-21.429527 1.871127z m-3.872582-69.957818l4.282182-18.385455 8.918109-0.781963 2.3552-10.128291 24.110545-2.103855-2.3552 10.118982 8.936727-0.772655-4.282181 18.385455-8.936728 0.781964-3.826036 16.570181c3.853964-1.554618 7.316945-2.746182 10.463418-3.630545l-4.282182 18.404073c-15.844073 8.005818-32.144291 12.734836-48.788945 14.196363l5.147927-22.081163 12.4928-1.098473 4.701091-20.247273-8.936727 0.772655z" p-id="12518"></path><path d="M415.986036 781.730909l-30.654836 100.724364 69.576145-7.307637 3.565382-11.720145-51.162763 5.380654 27.070836-89.013527zM514.904436 859.322182c19.055709-2.606545 32.795927-16.905309 41.295128-42.896291 6.898036-25.506909 1.396364-37.934545-16.458473-37.264291-19.0464 3.518836-32.842473 17.966545-41.444073 43.352436-6.795636 25.199709-1.256727 37.4784 16.607418 36.808146m-3.556072 11.701527c-29.668073 1.303273-40.289745-14.196364-31.902255-46.526836 11.757382-33.885091 33.093818-53.061818 64-57.511564 29.044364-1.247418 39.591564 14.578036 31.613673 47.457746-11.487418 32.954182-32.712145 51.8144-63.711418 56.580654M597.662255 774.423273l3.705018-12.176291 83.502545-8.778473-3.714327 12.1856-32.768 3.444364-26.940509 88.538763-18.404073 1.936291 26.940509-88.538763zM691.479273 764.564945l3.705018-12.17629 83.502545-8.778473-3.714327 12.1856-32.768 3.444363-26.940509 88.538764-18.404073 1.936291 26.940509-88.548073zM761.492945 842.928873l30.645528-100.724364 74.528582-7.838254-3.723637 12.1856-56.105891 5.892654-9.402182 30.915491 52.512582-5.520291-3.705018 12.1856-52.521891 5.520291-10.258618 33.726836 56.105891-5.892654-3.565382 11.710836zM894.370909 743.237818l-10.835782 35.607273 23.794037-2.504146c13.367855-1.089164 21.504-7.391418 24.436363-18.888145 4.179782-12.827927-0.344436-18.404073-13.609891-16.709818l-23.784727 2.504145z m19.288436 83.688727l-16.458472-37.26429-17.519709 1.83389-12.250764 40.289746-18.404073 1.936291 30.794473-101.189818 46.228945-4.868655c23.049309-2.420364 31.427491 6.674618 25.153164 27.294255-5.12 17.771055-16.495709 28.485818-34.117818 32.1536l18.1248 37.552872-21.550546 2.262109zM976.058182 820.372945l12.260073-40.299054-20.666182-56.32 21.550545-2.271418 13.246837 42.151563 41.0624-47.848727 21.103709-2.224873-57.902546 64.577164-12.250763 40.308364z" p-id="12519"></path></svg>