<svg xmlns="http://www.w3.org/2000/svg" viewBox="0 0 184.94 260"><defs><style>.cls-1{fill:#f9dab4;}.cls-2{fill:#f7cea6;}.cls-3{fill:#79a348;}.cls-4{fill:#88b559;}.cls-5{fill:#f9f7f2;}.cls-6{fill:#e5be9e;}.cls-7{fill:#ad3936;}.cls-8{fill:#e0605c;}.cls-9{fill:#545454;}.cls-10{fill:#3a332d;}</style></defs><title>资源 5</title><g id="图层_2" data-name="图层 2"><g id="Layer_1" data-name="Layer 1"><path class="cls-1" d="M166,260h-19.5l-7.24-70.28,19.61,0S164.18,246.08,166,260Z"/><path class="cls-2" d="M160.47,206.82s-9.51-4-14.63-3.3-2.58,10.08-1.48,21.07c.76,7.66,1.84,25.38,2.43,35.41h-.33l-7.24-70.28,19.61,0S159.51,196.92,160.47,206.82Z"/><path class="cls-3" d="M128.66,144.5s34.35,15,38.87,58.29H125V144.5Z"/><path class="cls-4" d="M149.47,200s10.89-.28,12.24-8.42-14.49-32.57-20.89-36-9.2-3.18-7.79,5.65,5.16,34.78,5.16,38.17C141.76,201.1,149.47,200,149.47,200Z"/><path class="cls-1" d="M16.52,260H36l7.23-70.28-19.6,0S18.3,246.08,16.52,260Z"/><path class="cls-2" d="M22,206.82s9.51-4,14.63-3.3,2.58,10.08,1.49,21.07C37.36,232.25,36.28,250,35.7,260H36l7.23-70.28-19.6,0S23,196.92,22,206.82Z"/><path class="cls-3" d="M53.82,144.5s-34.35,15-38.86,58.29h42.5V144.5Z"/><path class="cls-4" d="M33,200s-10.88-.28-12.23-8.42,14.49-32.57,20.88-36,9.2-3.18,7.8,5.65S44.29,196,44.29,199.41C40.72,201.1,33,200,33,200Z"/><path class="cls-3" d="M55.2,137.16S39.83,214.47,43.16,260h95.16c0-3.82.08-82.12-11.66-123.21C72.88,136.79,55.2,137.16,55.2,137.16Z"/><path class="cls-4" d="M61.59,145.06a152.68,152.68,0,0,0-11.84,42.69C46.65,212.29,39.31,258,61,258h66.85c7.89,0,7.89-22.27,7.89-33s-4.55-72.35-12.87-80.67C91,126,61.59,145.06,61.59,145.06Z"/><path class="cls-3" d="M93,182.73c-9.74,0-15.24-4.06-18.14-7.47-7-8.25-5.38-19.71-5.17-21l.93-5.72h44.77l.93,5.72c.21,1.28,1.84,12.74-5.17,21C108.21,178.67,102.71,182.73,93,182.73Z"/><path class="cls-2" d="M76.38,155.37S73,175.91,93,175.91s16.59-20.54,16.59-20.54Z"/><path class="cls-1" d="M137.09,50.51c-16.94-6.95-26.13.86-43.64.31h0a86.06,86.06,0,0,0-25.92,3.78C27.25,65.43,22.7,98.27,22.09,107.71c-2.08,31.6,31.4,57.55,70.6,57.8s71.14-25.22,71.35-56.89C164,108.62,165.51,63.76,137.09,50.51Z"/><path class="cls-2" d="M86.24,122.79h0A29.44,29.44,0,0,1,88.36,120a18.23,18.23,0,0,1,2-2,7,7,0,0,1,2-1.3,1.72,1.72,0,0,1,.75-.13,3.86,3.86,0,0,1,1.81.56,11.61,11.61,0,0,1,3,2.61,16.82,16.82,0,0,1,2.21,3.33,1,1,0,1,0,1.74-.86,18.84,18.84,0,0,0-3.54-4.89,11.65,11.65,0,0,0-2.43-1.88,5.67,5.67,0,0,0-2.75-.81,3.76,3.76,0,0,0-1.46.26A9.25,9.25,0,0,0,89,116.6,23.28,23.28,0,0,0,85.89,120c-.78,1-1.27,1.77-1.28,1.79a1,1,0,1,0,1.63,1Z"/><path class="cls-5" d="M49.16,127.08a1.28,1.28,0,0,1-1.33,1.23l-4.32-.16a1.29,1.29,0,0,1-1.24-1.33h0a1.29,1.29,0,0,1,1.33-1.24l4.33.16a1.29,1.29,0,0,1,1.23,1.34Z"/><path class="cls-5" d="M142.25,127.68a1.28,1.28,0,0,1-1.33,1.23l-4.32-.16a1.28,1.28,0,0,1-1.23-1.33h0a1.28,1.28,0,0,1,1.33-1.24l4.32.16a1.29,1.29,0,0,1,1.23,1.34Z"/><path class="cls-1" d="M155,129a23.55,23.55,0,0,0,19.81-.27c10.39-5.08,15.52-25.95,2-30.94s-17.61,10.49-17.61,10.49Z"/><path class="cls-2" d="M161.23,122.67s4.28-22.86,14.27-15c6.15,4.85,2.5,11.63-3.2,14.41C168.73,123.85,164.08,124,161.23,122.67Z"/><path class="cls-6" d="M161.35,122.41l1.49-5.77s19-5.42,13.67,2.21S161.35,122.41,161.35,122.41Z"/><path class="cls-1" d="M29.74,127.7a23.57,23.57,0,0,1-19.8-.51C-.39,122-5.25,101,8.28,96.22s17.48,10.72,17.48,10.72Z"/><path class="cls-2" d="M23.55,121.27s-4-22.91-14.08-15.14c-6.2,4.77-2.64,11.59,3,14.44C16,122.36,20.69,122.57,23.55,121.27Z"/><path class="cls-6" d="M23.43,121,22,115.23s-18.93-5.67-13.7,2S23.43,121,23.43,121Z"/><path class="cls-7" d="M49.5,131.12l87-.05s-8.59,28-43.41,28S49.5,131.12,49.5,131.12Z"/><path class="cls-8" d="M93.07,159c11.28,0,19.8-2.94,26.18-6.91-7.4-4.38-18-8.24-26.24-8.24a44.45,44.45,0,0,0-25.93,8.4h0C73.45,156.16,81.92,159,93.07,159Z"/><path class="cls-9" d="M166,31.93C149.93,7.33,128.9,11.71,128.9,11.71S119.25,0,93,0C51.21,0,35.31,10.2,21.13,30.24,14.24,40,12.8,55.93,12.8,70c0,17.26,1.65,25.33,1.65,25.33l8.48,5.52c3.24-12.74,8.61-18.94,13.25-22.73,8.71-7.09,17.26-7,34.34-5,40.55,4.91,52.61-22.69,52.61-22.69,6.34,21.63,21.91,41.1,40,50.51l8.76-4.2s1.43-9.53,1.43-26.79C173.29,55.93,172.51,41.93,166,31.93Z"/><path class="cls-10" d="M49.31,102.29a1.89,1.89,0,0,1-1.88-1.71A10.16,10.16,0,0,1,55.09,90c6.61-2,11.51,3.2,13.17,6.19A1.89,1.89,0,1,1,65,98.06c-.13-.24-3.44-6-8.8-4.39a6.37,6.37,0,0,0-5,6.55,1.87,1.87,0,0,1-1.7,2.06Z"/><path class="cls-10" d="M136.45,102.29h-.18a1.88,1.88,0,0,1-1.71-2,6.35,6.35,0,0,0-5-6.57c-5.35-1.58-8.66,4.15-8.8,4.4a1.89,1.89,0,0,1-3.3-1.84c1.66-3,6.55-8.14,13.17-6.19a10.14,10.14,0,0,1,7.65,10.54A1.88,1.88,0,0,1,136.45,102.29Z"/></g></g></svg>