<svg xmlns="http://www.w3.org/2000/svg" viewBox="0 0 196.12 293.86"><defs><style>.cls-1{fill:#ba443e;}.cls-2{fill:#cc7d2e;}.cls-3{fill:#6b4627;}.cls-4{fill:#f2d0af;}.cls-5{fill:#ddb58e;}.cls-6{fill:#ad3936;}.cls-7{fill:#f4d3b0;}.cls-8{fill:#3a332d;}.cls-9{fill:#e8dfd9;}.cls-10{fill:#492020;}.cls-11{fill:#c65044;}.cls-12{fill:#f99;}</style></defs><title>资源 231</title><g id="图层_2" data-name="图层 2"><g id="Layer_1" data-name="Layer 1"><path class="cls-1" d="M106.35,4.84c0,2.67-1.86,4.84-4.16,4.84S98,7.51,98,4.84,99.89,0,102.19,0,106.35,2.17,106.35,4.84Z"/><path class="cls-2" d="M104.14,8.35C67,8.33,20.23,32.46,28.47,54.23,37,76.73,55.94,72.68,55.94,72.68l48.48-1.4,48.47,1.4s19,4,27.48-18.45C188.6,32.46,151.76,8.37,104.14,8.35Z"/><path class="cls-3" d="M191.51,110.26c-15.54-76.49-87-75.92-87-75.92s-71.45-.57-87,75.92C.12,196,37.63,223,37.63,223v-8.33s12.44,15.18,22.29,22.55V225s13.91,18.23,33.64,17.55c3.24-.11,5.76-.18,7.74-.23-.61.1.82.25.82.25v-.26c.94,0,1.73,0,2.4,0s1.46,0,2.4,0v.26s1.43-.15.82-.25c2,0,4.5.12,7.74.23,19.73.68,33.64-17.55,33.64-17.55v12.2c9.85-7.37,22.29-22.55,22.29-22.55V223S208.92,196,191.51,110.26Z"/><path class="cls-4" d="M134.67,203.8c-8-19.09-20-4.19-20-4.19L136,293.86h20.86C150.34,261.62,140,216.42,134.67,203.8Z"/><path class="cls-2" d="M159.39,287.07c-2-6.35-24.62,2.4-24.62,2.4l.64,4.39h25.65C160.49,291.08,159.89,288.65,159.39,287.07Z"/><path class="cls-4" d="M88.06,194.12s-18.57-5.45-36,43.1c0,0-8.42-20.63-11.9-23.67s-15.09,7.18-7.26,23.67,15.09,31,20,30.67,25.24-37,25.24-37Z"/><path class="cls-5" d="M36.66,229.35c.25-.72.61-2.27,1.34-2.62a10.91,10.91,0,0,1,4.86-.81,9.72,9.72,0,0,0,3.82-1c-2.35-5-4.93-10-6.5-11.36-3.24-2.83-13.46,5.8-8.62,20.26A6.74,6.74,0,0,0,36.66,229.35Z"/><path class="cls-1" d="M117.57,190.37l-14.71.9-14.7-.9s-14.32-.9-20.12,50.86c-1.39,12.41-3.36,31.19-5.52,52.63h80.69c-2.17-21.44-4.13-40.22-5.52-52.63C131.88,189.47,117.57,190.37,117.57,190.37Z"/><path class="cls-4" d="M114.32,277.64c-7-.3-13.95,0-20.91-.28-8-.34-21.2-.39-28.48-7.09-.76,7.31-1.57,15.25-2.41,23.59H143.2c-.62-6.14-1.22-12.06-1.8-17.68a94.19,94.19,0,0,1-9.44,1.53A134.85,134.85,0,0,1,114.32,277.64Z"/><path class="cls-4" d="M103.92,221.34c10.31,5.3,21.06,6.3,31.94,6.78-6.52-38.49-18.29-37.75-18.29-37.75l-14.71.9-14.7-.9s-3-.17-6.76,4.52C84.22,207.18,93.83,216.15,103.92,221.34Z"/><path class="cls-5" d="M125.38,196.3c-4.27-6.14-7.81-5.93-7.81-5.93l-14.71.9-14.7-.9s-2.4-.11-5.62,3.25C94.7,201.79,111.34,199.61,125.38,196.3Z"/><path class="cls-4" d="M36,222.62s9.11,5.32,11.75-3.07c1.33-4.19-.43-7.05,3.61-11.25s10.46-2.35,8.88-8.9-16-6.26-21.13,1.68c0,0-5.57-23.16-11.31-22.83s-7.9,3.86-3.72,20.82c0,0-9.23-17.12-14.72-13.43S14.89,206,14.89,206s-8.95-11.25-14-2.18S14,219.21,14,219.21,12,229,24.41,230.8,36,222.62,36,222.62Z"/><path class="cls-5" d="M26.42,205.3a7.81,7.81,0,0,1,1-1.39A8.75,8.75,0,0,1,29,202.54a8.15,8.15,0,0,1,2-1,8,8,0,0,1,2.28-.52,11.06,11.06,0,0,1,2.37.06,18.51,18.51,0,0,1,2.28.56l.51.17.17.07a1.75,1.75,0,0,0,.11-.24c.14-.34.24-.7.36-1,.08.34.13.53.13.53a12.64,12.64,0,0,1,1.55-1.86c0,.24-.05.45-.09.7a19,19,0,0,1-.54,2.38,6.69,6.69,0,0,1-.28.69,2.49,2.49,0,0,1-.29.43,1.18,1.18,0,0,1-.37.28.92.92,0,0,1-.5.06,5.58,5.58,0,0,1-.63-.12l-.55-.16a16.73,16.73,0,0,0-2.08-.44,10.22,10.22,0,0,0-2.06-.12,8.43,8.43,0,0,0-2,.29,8.69,8.69,0,0,0-3.26,1.61,9.4,9.4,0,0,0-1.19,1,7.91,7.91,0,0,0-.87.89l-.75.83s.18-.39.48-1.08A7.25,7.25,0,0,1,26.42,205.3Z"/><path class="cls-6" d="M140.4,266.51q-.45-4.31-.87-8.27c-2.77.73-5.48,1.78-8.28,2.27A117.45,117.45,0,0,1,110.41,262a175.92,175.92,0,0,1-23.94-1.52c-6.79-.95-13.31-3.44-20-5.13-.19,1.84-.4,3.74-.6,5.71A111.76,111.76,0,0,0,140.4,266.51Z"/><path class="cls-6" d="M64.93,270.27c7.28,6.7,20.51,6.75,28.48,7.09,7,.3,13.94,0,20.91.28a134.85,134.85,0,0,0,17.64.07,94.19,94.19,0,0,0,9.44-1.53c.13,1.25.26,2.52.39,3.8h0c-.72-7.07-1.41-13.71-2-19.76-12.87,4.27-26.82,4.09-40.07,3.28-9.29-.56-18.24-2.83-27.24-5.44-2-.58-4-1.17-6-1.85-.57,5.29-1.18,11.14-1.82,17.37C64.7,272.47,64.82,271.35,64.93,270.27Z"/><path class="cls-1" d="M139.74,260.22a62.16,62.16,0,0,1-6.12,1.66v15.6c2.61-.33,5.2-.8,7.78-1.3.13,1.25.26,2.52.39,3.8C141.07,272.91,140.38,266.27,139.74,260.22Z"/><path class="cls-1" d="M73.55,258.37l-1.12-.31c-2-.58-4-1.17-6-1.85-.47,4.34-1,9.07-1.48,14.06a22.46,22.46,0,0,0,8.62,4.67Z"/><path class="cls-1" d="M75.87,259v16.55a57.57,57.57,0,0,0,7.84,1.25V261C81.09,260.43,78.48,259.74,75.87,259Z"/><path class="cls-1" d="M86,261.53V277c2.69.18,5.23.26,7.38.35h.17V262.88C91,262.54,88.53,262.06,86,261.53Z"/><path class="cls-1" d="M99.67,263.5c-1.27-.07-2.52-.19-3.77-.32v14.25q3.18.07,6.38.08V263.63Z"/><path class="cls-1" d="M104.6,263.74v13.78c2.62,0,5.23,0,7.84.07V263.91C109.82,263.91,107.2,263.84,104.6,263.74Z"/><path class="cls-1" d="M114.76,263.89v13.76c2.42.1,4.84.21,7.26.27V263.57C119.6,263.77,117.18,263.85,114.76,263.89Z"/><path class="cls-1" d="M124.34,263.36V278c2.32,0,4.64,0,7-.21V262.36C129,262.8,126.67,263.12,124.34,263.36Z"/><path class="cls-6" d="M73.62,237s.27.56.8,1.49a26.25,26.25,0,0,0,2.39,3.57,14.49,14.49,0,0,0,4.16,3.7,8.64,8.64,0,0,0,2.7,1,6.3,6.3,0,0,0,1.44.17l.37,0,.34,0,.83-.06a17.92,17.92,0,0,0,3.06-.37c.49-.15,1-.28,1.46-.4s.91-.37,1.37-.54a12.35,12.35,0,0,0,4.32-3.31A13.75,13.75,0,0,0,99,238.63a12.54,12.54,0,0,0,.56-1.62,8.44,8.44,0,0,1-.13,1.78,16.43,16.43,0,0,1-.49,2,12.28,12.28,0,0,1-1.07,2.44,12.12,12.12,0,0,1-4.53,4.52,14.89,14.89,0,0,1-3.19,1.32,20.42,20.42,0,0,1-3.42.52,11.58,11.58,0,0,1-3.53-.27,6.31,6.31,0,0,1-1.69-.6,8.08,8.08,0,0,1-1.54-.88A13.76,13.76,0,0,1,75.76,243,21.71,21.71,0,0,1,74,238.73,12.63,12.63,0,0,1,73.62,237Z"/><path class="cls-6" d="M132.11,237s-.28.56-.8,1.49a25.54,25.54,0,0,1-2.4,3.57,14.36,14.36,0,0,1-4.16,3.7,8.58,8.58,0,0,1-2.69,1,6.37,6.37,0,0,1-1.44.17l-.37,0-.35,0-.82-.06a18,18,0,0,1-3.07-.37c-.48-.15-1-.28-1.45-.4s-.92-.37-1.37-.54a12.35,12.35,0,0,1-4.32-3.31,14.1,14.1,0,0,1-2.18-3.65,14.86,14.86,0,0,1-.56-1.62,8.44,8.44,0,0,0,.13,1.78,18.51,18.51,0,0,0,.49,2,12.89,12.89,0,0,0,1.07,2.44,12.15,12.15,0,0,0,4.54,4.52,14.61,14.61,0,0,0,3.18,1.32,20.69,20.69,0,0,0,3.43.52,11.51,11.51,0,0,0,3.52-.27,6.5,6.5,0,0,0,1.7-.6,8.39,8.39,0,0,0,1.54-.88A13.82,13.82,0,0,0,130,243a21.85,21.85,0,0,0,1.76-4.29A12.63,12.63,0,0,0,132.11,237Z"/><path class="cls-7" d="M58.25,135.06s-6.44-6.09-11.68,0c-5,5.87-1.67,36.29,19.2,33Z"/><path class="cls-7" d="M150.79,135.06s6.44-6.09,11.68,0c5,5.87,1.67,36.29-19.2,33Z"/><path class="cls-4" d="M151.17,105.55c-4.31-6.08-10-11.43-16.68-11.71-16.66-.71-28.63,12.6-28.63,12.6s-12-13.31-28.63-12.6c-9.12.38-16.31,10.13-20.78,18.35a86.82,86.82,0,0,0-1.21,10.11c-.12,1.9-.17,22.54-.17,24.4,0,36.68,22.13,49.75,49.45,49.75S154,183.38,154,146.7c0-1.87-.05-22.52-.17-24.44A86.51,86.51,0,0,0,151.17,105.55Z"/><path class="cls-5" d="M98.28,150.47s2.37,4.75,6.24,4.75,6.24-4.75,6.24-4.75-1.78,6.43-6.24,6.43S98.28,150.47,98.28,150.47Z"/><path class="cls-3" d="M83.28,111S79.08,121.89,65,122v-4.39s11.81-1.49,15.36-9.6Z"/><path class="cls-3" d="M125.76,111S130,121.89,144,122v-4.39s-11.81-1.49-15.37-9.6Z"/><path class="cls-8" d="M77.65,148.37h-.11c-.34,0-8.45-1-12-3.44a1.46,1.46,0,0,1-.39-1.83,1.06,1.06,0,0,1,1.58-.45c3.06,2.16,10.91,3.06,11,3.07a1.29,1.29,0,0,1,1,1.45A1.23,1.23,0,0,1,77.65,148.37Z"/><path class="cls-8" d="M76.42,145.46c-7,0-10.94-6.4-11.11-6.67a1.48,1.48,0,0,1,.28-1.86,1.05,1.05,0,0,1,1.6.31c0,.08,3.47,5.55,9.24,5.55h.13a1.35,1.35,0,0,1,0,2.67Z"/><path class="cls-8" d="M83.09,143.35c-.74,3.52-3.8,5.68-6.83,4.82s-4.88-4.41-4.14-7.93,3.79-5.69,6.82-4.82S83.83,139.83,83.09,143.35Z"/><path class="cls-9" d="M80.14,138.08c0,.95-1.21,1.68-2.63,1.61s-2.55-.9-2.51-1.85,1.21-1.68,2.63-1.62S80.18,137.12,80.14,138.08Z"/><path class="cls-8" d="M131.39,147.64a1.21,1.21,0,0,1-1.14-1.2,1.3,1.3,0,0,1,1-1.46c.08,0,7.92-.91,11-3.07a1.06,1.06,0,0,1,1.58.45,1.46,1.46,0,0,1-.39,1.83c-3.52,2.47-11.62,3.41-12,3.45Z"/><path class="cls-8" d="M132.61,144.73h-.16a1.34,1.34,0,0,1,0-2.66h.13c5.81,0,9.21-5.49,9.24-5.54a1,1,0,0,1,1.6-.32,1.48,1.48,0,0,1,.27,1.86C143.56,138.33,139.6,144.73,132.61,144.73Z"/><path class="cls-8" d="M126,142.62c.74,3.52,3.8,5.68,6.82,4.82s4.89-4.41,4.15-7.93-3.79-5.68-6.82-4.82S125.21,139.1,126,142.62Z"/><path class="cls-9" d="M128.89,137.35c0,1,1.21,1.68,2.64,1.61s2.54-.9,2.51-1.85-1.21-1.68-2.64-1.62S128.86,136.39,128.89,137.35Z"/><path class="cls-10" d="M89.15,172.34H118.7s-2.38,14.87-5.07,14.74c-1.9-.09-16.87.28-18.22,0S89.15,172.34,89.15,172.34Z"/><path class="cls-11" d="M108.6,180.71c-5-4.94-10.53-.74-15,3.37.76,1.71,1.43,2.93,1.81,3,1.16.24,12.47,0,16.77,0A17,17,0,0,0,108.6,180.71Z"/><path class="cls-12" d="M86.14,172a6.58,6.58,0,0,0,4-.92c1.74-1.2,4.59-4.79,6.26-4.05s5.62,5,7.48,4.33,5.43-4.62,7.18-4.43,5.54,4.66,7.91,5.1a9.38,9.38,0,0,0,3.89,0,73.44,73.44,0,0,1-19,2.64A77.59,77.59,0,0,1,86.14,172Z"/><path class="cls-12" d="M94.15,186.27s21.18-3.15,22.66-.81S99.81,191.76,94.15,186.27Z"/></g></g></svg>