<svg xmlns="http://www.w3.org/2000/svg" viewBox="0 0 176.19 266.99"><defs><style>.cls-1{fill:#ffbc36;}.cls-2{fill:#f9ae28;}.cls-3{fill:#2f3233;}.cls-4{fill:#f9dab4;}.cls-5{fill:#efc19c;}.cls-6{fill:#eaba94;}.cls-7{fill:#707272;}.cls-8{fill:#e5be9e;}.cls-9{fill:#f7cea6;}.cls-10{fill:#3a2210;}.cls-11{fill:#6b4627;}.cls-12{fill:#f9f5ed;}</style></defs><title>资源 140</title><g id="图层_2" data-name="图层 2"><g id="Layer_1" data-name="Layer 1"><path class="cls-1" d="M136.41,192.41c-2.64-8.92-7.18-14.15-11.27-15.61a57,57,0,0,0-7.82-2.15L123.76,267h31.41C149.94,234.94,138.25,198.62,136.41,192.41Z"/><path class="cls-2" d="M138,197.63c-.74-2.42-1.29-4.22-1.59-5.22-2.64-8.92-7.18-14.15-11.27-15.61a57,57,0,0,0-7.82-2.15L123.76,267h9.93c-1.56-24.81-3.28-53.85-3.28-62.14C130.41,190.1,135,194.8,138,197.63Z"/><path class="cls-1" d="M29.27,192.41c-1.84,6.21-13.53,42.53-18.76,74.58H41.92l6.44-92.34a57,57,0,0,0-7.82,2.15C36.45,178.26,31.9,183.49,29.27,192.41Z"/><path class="cls-2" d="M29.27,192.41c-.3,1-.85,2.8-1.59,5.22,3-2.83,9.77-7.53,9.77,7.22,0,8.29-1.72,37.33-3.28,62.14h7.75l6.44-92.34a57,57,0,0,0-7.82,2.15C36.45,178.26,31.9,183.49,29.27,192.41Z"/><path class="cls-1" d="M48.36,174.65s-7,7.69-8.86,22.57L36.84,267h93.31c-1.73-25.36-3.74-57.06-3.74-67.34,0-18-9.09-25-9.09-25C100.86,170.06,48.36,174.65,48.36,174.65Z"/><path class="cls-2" d="M52.54,176.35s-5.77-11.39-.32-16.54c2-1.9,4.91,3.47,18.28,4.12a133.3,133.3,0,0,0,37.09-3.35c6.27-1.28,7.64,2.58,7.64,6.18v9S88.23,191.21,52.54,176.35Z"/><path class="cls-3" d="M20.41,131.12s-9-9-16.73-37.07c-8.31-30.14-2.1-60.88,14.16-72.49,0,0-4.86,13.87,0,18.78,0,0,9-27.23,42.37-32.59,0,0-6.64,10.94-3.85,13.84,0,0,26.53-27.22,56.92-20.53,0,0-13.7,9.82-13.7,17,0,0,24-19.64,63.34-2.68,0,0-17.12,2.23-20.11,10.27,22.68,11.6,33.38,29.46,33.38,29.46s-17.55-10.27-21.82-5.81a53.33,53.33,0,0,1,12,28.12c2.67,23.65-15.84,51.33-15.84,51.33Z"/><path class="cls-3" d="M152.88,134.57l-.27.35A3.66,3.66,0,0,0,152.88,134.57Z"/><path class="cls-4" d="M28.26,101.71v43.86c0,8.44,17.5,25.75,45.65,28.07s66.22-6,66.22-31.85v-66s-19.93,11.17-32,18L110,73,52.68,97.9l9.68-21.32Z"/><path class="cls-5" d="M76.91,138.32a1.11,1.11,0,0,1-.82-1.34h0a10.8,10.8,0,0,1,1.4-3.2h0a6.24,6.24,0,0,1,5.72-3.1h.18a7.81,7.81,0,0,1,5.51,3h0a8.3,8.3,0,0,1,1.39,2.61h0a1.13,1.13,0,0,1-.77,1.38h0a1.11,1.11,0,0,1-1.36-.78h0a.51.51,0,0,0,0-.11h0c0-.09-.09-.23-.17-.41h0a6.21,6.21,0,0,0-.78-1.29h0a5.54,5.54,0,0,0-4-2.13h-.11a3.82,3.82,0,0,0-3.42,1.66h0a8.83,8.83,0,0,0-1.36,2.73h0c0,.14,0,.19,0,.19h0a1.11,1.11,0,0,1-1.14.86h0l-.18,0Z"/><polygon class="cls-6" points="109.99 73.02 52.68 97.9 109.45 78.93 109.99 73.02"/><path class="cls-6" d="M140.13,81.07V75.81s-19.93,11.17-32,18Z"/><polygon class="cls-6" points="57.83 86.55 62.37 76.58 28.59 101.47 57.83 86.55"/><polygon class="cls-3" points="67 104.62 40.43 102.88 44.31 97.76 67.4 99.28 67 104.62"/><polygon class="cls-3" points="104.28 104.62 130.85 102.88 126.98 97.76 103.89 99.28 104.28 104.62"/><path class="cls-5" d="M67,155.43a1,1,0,0,1-.81-1.13h0a1,1,0,0,1,1.19-.76h0s1.08.2,3,.4h0a73.65,73.65,0,0,0,7.69.4h0c7.31,0,17.12-1.11,25.27-5.8h0a1.06,1.06,0,0,1,1.4.32h0a.93.93,0,0,1-.34,1.32h0c-8.66,5-18.81,6.08-26.33,6.08h0a67.6,67.6,0,0,1-11-.83Z"/><path class="cls-5" d="M108.69,151.69a.94.94,0,0,1-.56-1.25h0a3.16,3.16,0,0,0,.29-1.29h0c0-1.69-1.71-3.14-2.15-3.42h0l-.07,0h0a.93.93,0,0,1-.29-1.33h0a1.06,1.06,0,0,1,1.41-.27h0c.06.07,3.06,1.8,3.13,5.07h0a5,5,0,0,1-.43,2h0a1,1,0,0,1-.94.6h0a1.07,1.07,0,0,1-.39-.07Z"/><path class="cls-7" d="M105.4,162.38c0-6.83-14.24-.9-29.45-3-12.19-1.47-11.25,8.23-10.92,13a73.52,73.52,0,0,0,8.88,1.28,112.82,112.82,0,0,0,31.65-1.86C105.47,168.51,105.4,165,105.4,162.38Z"/><path class="cls-4" d="M138.81,119.1S150.15,109.53,158,121s-6.6,30.18-21.48,17.38Z"/><path class="cls-8" d="M143.11,134.36s.57-12.42,5.69-11.91S154.16,135.46,143.11,134.36Z"/><path class="cls-9" d="M148.8,122.45a3.73,3.73,0,0,1,3,2.73c-2.65,2.15-6.72,5.73-8.69,8.95C143.24,132.46,144.09,122,148.8,122.45Z"/><path class="cls-4" d="M31.5,117.55s-11.8-10-20,2S18.36,151,33.84,137.64Z"/><path class="cls-8" d="M27,133.42s-.58-12.91-5.9-12.38S15.54,134.57,27,133.42Z"/><path class="cls-9" d="M21.12,121A3.89,3.89,0,0,0,18,123.88c2.76,2.24,7,6,9,9.3C26.9,131.45,26,120.55,21.12,121Z"/><path class="cls-10" d="M85.77,101.79H19.3v9.71s9.54,1.81,13.73,8.92c3.72,6.29,3.84,19.57,21.41,21.29,22.8,2.24,17.72-14.23,25.65-16.29,4.27-1.11,4.27-1.08,5.68-1.08s1.41,0,5.67,1.08c7.94,2.06,2.86,18.53,25.66,16.29,17.56-1.72,17.68-15,21.4-21.29,4.2-7.11,13.74-7.78,13.74-7.78V101.79Z"/><path class="cls-11" d="M136.17,104.89H35.37a57.13,57.13,0,0,0,2.31,16.2c2.51,8,6.16,15.61,16.18,17.38,16.81,3,17.17-11.54,21.25-14.8,3.44-2.76,8.51-3.41,10.66-3.41s7.22.65,10.66,3.41c4.07,3.26,4.44,17.78,21.25,14.8,10-1.77,13.66-9.33,16.18-17.38A57.13,57.13,0,0,0,136.17,104.89Z"/><path class="cls-12" d="M96.73,104.89l-13,15.52a16.15,16.15,0,0,1,2.08-.15c2.15,0,7.22.65,10.66,3.41a10.5,10.5,0,0,1,2.33,3.42l18.66-22.2Z"/><path class="cls-12" d="M125,104.89l-23.29,27.72a14.3,14.3,0,0,0,4.06,4.19l26.82-31.91Z"/></g></g></svg>