<svg xmlns="http://www.w3.org/2000/svg" viewBox="0 0 215.75 260.02"><defs><style>.cls-1{fill:#f7cea6;}.cls-2{fill:#f9dab4;}.cls-3{fill:#4c3626;}.cls-4{fill:#5e4331;}.cls-5{fill:#424241;}.cls-6{fill:#2d2d2d;}.cls-7{fill:#e5be9e;}.cls-8{fill:#fff;}.cls-9{fill:#565655;}.cls-10{fill:#f4c7a2;}.cls-11{fill:#f9f7f2;}</style></defs><title>资源 359</title><g id="图层_2" data-name="图层 2"><g id="Layer_1" data-name="Layer 1"><path class="cls-1" d="M162.5,183.92c14.71,18,22,61.56,24.11,76.1h29.14c-.46-50.56-26.87-91.25-26.87-91.25S170.1,172.59,162.5,183.92Z"/><path class="cls-2" d="M211.77,234.74s-8.28-38.5-16.31-47.5-23.44,4.83-20.12,13.88c5.64,15.4,11.62,45.61,14.1,58.9h23.4Z"/><path class="cls-1" d="M53.25,183.92c-14.71,18-22,61.56-24.11,76.1H0c.46-50.56,26.87-91.25,26.87-91.25S45.66,172.59,53.25,183.92Z"/><path class="cls-2" d="M4,234.74s8.28-38.5,16.31-47.5,23.44,4.83,20.12,13.88c-5.64,15.4-11.61,45.61-14.1,58.9H2.91Z"/><path class="cls-3" d="M137,130.13,87.75,131.2c-49.23,1.08-71.21,46-71.21,46a100.25,100.25,0,0,0,29.93,28.22l3.66-10.09L51.54,260H162l2.13-64.56,5,7s12-3.63,28.16-27.47C183.58,142,137,130.13,137,130.13Z"/><path class="cls-4" d="M158.46,143.82c-7.09-1.11,1.4,16-3.61,18.12s-27.64,6.67-50.88,6.17S54.67,165.9,56.45,155s-1.32-13.86-1.32-13.86-24,19.45-26.93,24.35c-7.51,12.46-1.8,12.75,3.62,17.93s9.64,14.17,15.07,8.5,6.11-15.5,9.2-18.72,3.31,1.19.28,12.87-1.46,25.8-1.27,34.38c.16,7.08,1.89,31.28,2.49,39.57h98.52c.92-15.35,3.4-57.15,3.25-63.74-.18-8.1-11.14-25.6-6.34-25.71s3.63,12.7,11.37,20.1,8,6.78,16.34-2.48c8.15-9,14.73-8.4,9.47-18.14C183.58,157.76,165.56,144.93,158.46,143.82Z"/><path class="cls-5" d="M49,117.57S31.45,86.22,36.69,48.22,82.9-3.94,120.52.92s54.78,27.6,58.71,51.76-9.81,58.93-18.67,64.43Z"/><path class="cls-6" d="M37.19,81c20.61-3,33.75.6,33.75.6l-.21-10C59.52,69.69,45,71,36.12,72.19Q36.51,76.74,37.19,81Z"/><path class="cls-6" d="M178.84,74.84c-8.87-1.39-23.07-3-34.13-1.49-.43,9.08-.48,10-.48,10s12.86-3.18,32.85.14C177.78,80.66,178.38,77.75,178.84,74.84Z"/><path class="cls-2" d="M66.68,51s-6.88,83.88-6.39,106.6c15,9.15,77.91,11.18,92.48,1.77C151.9,119.58,157.59,67.93,152,54,128.12,71.6,87,70.42,66.68,51Z"/><path class="cls-2" d="M64.36,111.08s-3.18-11.85-14.27-8.64-9.86,14.8-5.75,20S62.21,135,65.46,124.51C65.18,117.92,64.36,111.08,64.36,111.08Z"/><path class="cls-1" d="M50.09,102.44c11.09-3.21,14.27,8.64,14.27,8.64s0,.08,0,.23c0,0-5.11-9.84-15.14-7.27s-5.09,18.08-.45,20.28,12.06,6,16.67.19c-3.25,10.5-17,3.18-21.12-2.05S39,105.65,50.09,102.44Z"/><path class="cls-7" d="M59.34,115.18a10.16,10.16,0,0,0-1.49-4.45,1.3,1.3,0,0,0-.1-.15,6.92,6.92,0,0,0-3.52-2.71,6.06,6.06,0,0,0-1.81-.33.92.92,0,0,0-.91.82.76.76,0,0,0,.8.81h0a4.67,4.67,0,0,1,1.18.24,5.39,5.39,0,0,1,2,1.21,12.67,12.67,0,0,0-1.8.63,9.6,9.6,0,0,0-5.06,4.82,3.89,3.89,0,0,0-.21.51.75.75,0,0,0,.47,1h0a.94.94,0,0,0,1.1-.57l.16-.4a7.75,7.75,0,0,1,4.11-3.88,11.07,11.07,0,0,1,2-.65l.28-.06a9.5,9.5,0,0,1,1.05,3.47.74.74,0,0,0,.52.62.91.91,0,0,0,1.19-.92Z"/><path class="cls-2" d="M152.22,109.16s2.65-12,13.87-9.25,10.5,14.35,6.62,19.75-17.3,13.31-21,3C151.69,116,152.22,109.16,152.22,109.16Z"/><path class="cls-1" d="M166.09,99.91c-11.22-2.73-13.87,9.25-13.87,9.25s0,.08,0,.23c0,0,4.68-10,14.81-7.92s5.88,17.84,1.34,20.24-11.79,6.48-16.65.91c3.71,10.35,17.13,2.44,21-3S177.31,102.63,166.09,99.91Z"/><path class="cls-7" d="M157.4,113a10.26,10.26,0,0,1,1.3-4.51,1.3,1.3,0,0,1,.1-.15,6.86,6.86,0,0,1,3.39-2.86,6.49,6.49,0,0,1,1.8-.41.93.93,0,0,1,.95.78.76.76,0,0,1-.77.84h0A4.42,4.42,0,0,0,163,107a5.37,5.37,0,0,0-1.93,1.29,13.61,13.61,0,0,1,1.84.56,9.6,9.6,0,0,1,5.26,4.59c.08.15.16.32.23.49a.74.74,0,0,1-.42,1l-.06,0a.94.94,0,0,1-1.12-.52l-.18-.39a7.74,7.74,0,0,0-4.28-3.7,10.64,10.64,0,0,0-2-.56l-.28,0a9.41,9.41,0,0,0-.9,3.51.74.74,0,0,1-.49.64.88.88,0,0,1-.43,0A.91.91,0,0,1,157.4,113Z"/><path class="cls-5" d="M118.2,83.75s20.13,2.4,27.93,3.94c.72-6.84.7-8,.7-8a94.91,94.91,0,0,0-26.32-2.84Z"/><path class="cls-5" d="M97.89,84.2s-20,3.28-27.73,5.15c-1-6.8-1-7.93-1-7.93a94.68,94.68,0,0,1,26.17-4Z"/><path class="cls-5" d="M92.88,104.2a10,10,0,1,1-10.25-9.82A10,10,0,0,1,92.88,104.2Z"/><path class="cls-8" d="M86.49,98.42c.54,2.19-1.45,4.55-4.44,5.29s-5.84-.44-6.38-2.62,1.45-4.55,4.44-5.29S86,96.24,86.49,98.42Z"/><path class="cls-5" d="M143.11,103.1a10,10,0,1,1-10.25-9.82A10,10,0,0,1,143.11,103.1Z"/><path class="cls-8" d="M136.72,97.33c.54,2.18-1.45,4.54-4.44,5.28s-5.85-.44-6.38-2.62,1.45-4.55,4.43-5.29S136.18,95.14,136.72,97.33Z"/><path class="cls-9" d="M152.77,159.34c-.41-18.77.64-40.18,1.28-59-4.77,6.27-9.42,18.18-11.36,22.49-2.53,5.63-7.12,19.64-14.09,13s-13.13-12.56-27.38-12.25-22.44,13.18-28,12.16-6.56-14.44-6.78-24.29A30.79,30.79,0,0,0,63.14,98c-1.6,23.22-3.09,48.57-2.85,59.57C75.27,166.72,138.2,168.75,152.77,159.34Z"/><path class="cls-10" d="M100.39,109.1c-2,3.41-2.77,7.05-4.2,10.58s-5.5,7.58-3.51,11.42c1.8,3.45,6.94,4.63,11.77,4.71,13.06.23,18.9-3.68,15.06-12.81C117.85,119,108.17,95.86,100.39,109.1Z"/><path class="cls-2" d="M101.6,108c-1.69,3.07-2.37,6.33-3.58,9.49s-4.62,6.82-3,10.25c1.44,3.08,5.67,4.12,9.64,4.17,10.76.15,15.61-3.39,12.56-11.55C115.87,116.76,108.16,96.06,101.6,108Z"/><path class="cls-11" d="M104,131c.15.48,1.6.66,3.23.39s2.85-.87,2.7-1.35-1.6-.65-3.23-.39S103.8,130.54,104,131Z"/><path class="cls-5" d="M84.67,155.14A1.14,1.14,0,0,1,83.51,154h0a1.14,1.14,0,0,1,1.11-1.16h0c.69,0,2.88.08,6.08,0h0c8-.15,21.77-1.4,29.86-7.41h0a1.14,1.14,0,0,1,1.59.25h0a1.13,1.13,0,0,1-.24,1.58h0c-9,6.55-23,7.65-31.16,7.85h0c-3.23.07-5.57,0-6.08,0Z"/></g></g></svg>