<?xml version="1.0" standalone="no"?><!DOCTYPE svg PUBLIC "-//W3C//DTD SVG 1.1//EN" "http://www.w3.org/Graphics/SVG/1.1/DTD/svg11.dtd"><svg t="1549081839358" class="icon" style="" viewBox="0 0 1024 1024" version="1.1" xmlns="http://www.w3.org/2000/svg" p-id="34548" xmlns:xlink="http://www.w3.org/1999/xlink" width="200" height="200"><defs><style type="text/css"></style></defs><path d="M994.718 577.961 560.261 773.517c-41.57 18.16-58.12 18.16-96.52 0L29.285 577.961C6.245 565.701 0 520.301 0 495.536c29.035 16.575 69.765 35.085 68.28 34.14l443.721 204.836 443.721-204.836c0.79-0.195 40.335-20.145 68.28-34.14C1024.003 520.891 1016.123 567.931 994.718 577.961L994.718 577.961zM994.718 373.071 560.261 568.681c-41.57 18.11-58.12 18.11-96.52 0L29.285 373.071c-34.093-18.11-33.05-75.225 0-96.563L463.741 46.81c38.4-19.203 62.38-20.245 96.52 0l434.456 229.698C1027.768 294.671 1026.678 358.186 994.718 373.071L994.718 373.071zM512.001 85.815C514.379 86.558 515.221 89.535 512.001 85.815L512.001 85.815zM512.001 939.402l443.721-204.891c0.79-0.15 40.335-20.145 68.28-34.14 0 25.36-7.88 72.45-29.285 82.42L560.261 978.402c-41.57 18.11-58.12 18.11-96.52 0L29.285 782.792C6.245 770.542 0 725.182 0 700.372c29.035 16.625 69.765 35.085 68.28 34.14L512.001 939.402 512.001 939.402z" p-id="34549"></path></svg>