<svg xmlns="http://www.w3.org/2000/svg" viewBox="0 0 40 40"><defs><style>.cls-1{fill:none;}.cls-2{fill:#f15a4a;}</style></defs><title>cai-8tian</title><g id="图层_2" data-name="图层 2"><g id="图层_1-2" data-name="图层 1"><rect class="cls-1" width="40" height="40"/><path class="cls-2" d="M20,4.5A15.5,15.5,0,1,0,35.5,20,15.5,15.5,0,0,0,20,4.5Zm0,22.12a10,10,0,1,1,10-10A10,10,0,0,1,20,26.62Z"/><path class="cls-2" d="M24.57,16.54a.8.8,0,0,0,.8-.8.79.79,0,0,0-.8-.79h-3.7v-2h3.44a.8.8,0,1,0,0-1.6H15.66a.8.8,0,0,0,0,1.6h3.47v2h-3.7a.79.79,0,0,0-.8.79.8.8,0,0,0,.8.8h3.7v.35l-4,2.38a.94.94,0,0,0-.46.8.92.92,0,0,0,1.41.78L20,18.44l3.9,2.39a.94.94,0,1,0,.95-1.62l-4-2.23v-.44Z"/></g></g></svg>