<svg xmlns="http://www.w3.org/2000/svg" viewBox="0 0 40 40"><defs><style>.cls-1{fill:none;}.cls-2{fill:#118eea;}</style></defs><title>cai-9zu</title><g id="图层_2" data-name="图层 2"><g id="图层_1-2" data-name="图层 1"><rect class="cls-1" width="40" height="40"/><path class="cls-2" d="M20,4.5A15.5,15.5,0,1,0,35.5,20,15.51,15.51,0,0,0,20,4.5Zm-.33,3.82,3-1.62a11.62,11.62,0,0,1,3.44.74,11.37,11.37,0,0,1,2.42,2.15L29,12.91l-3,1h0l-5.18-2.73L19.66,8.32Zm5.58,6.36-.58,4.12L24.28,15l-3.13-2.55ZM18.77,8.32,20,11.39l-4.35,3.26,0,0-3.94-.1L10,12.09l4.36-4Zm0,11.91-2.33,4.68L10.89,25l-2-4.71,2.92-5,4,.11ZM9.09,10.49a13.2,13.2,0,0,1,4.39-3.37l.09.22.12.28.12.29-4.35,4,0,0-1.63.34A12.09,12.09,0,0,1,9.09,10.49ZM9.44,13l1.39,1.86-1.51-.93L7.8,13.38Zm.48,16-.26.28A12.54,12.54,0,0,1,6.9,25.18a12.4,12.4,0,0,1-1-4.5l2.4.41,1.76,4.13h0Zm.19,1.13.25-.26,6.2,3.27.15.56A14.48,14.48,0,0,1,10.11,30.14ZM24.7,32.83a11.37,11.37,0,0,1-6.74.62l-.15-.58,3.39-2.21,3.37-.46,2.21,1.5A11.56,11.56,0,0,1,24.7,32.83Zm.12-3.62L21,29.75l-3.8-4.39,2.26-4.55,5.37-.37,2.82,3.93ZM25.46,20l.74-5.26,3.24-1.09,3,4L31.65,23l-3.3,1Zm5.07,4.26L31.65,24l.94,2.11Zm1.5-.85.84-5.78.76-.18a14.41,14.41,0,0,1-.93,8.18Z"/></g></g></svg>