<svg xmlns="http://www.w3.org/2000/svg" viewBox="0 0 40 40"><defs><style>.cls-1{fill:none;}.cls-2{fill:#f39927;}</style></defs><title>cai-2fei</title><g id="图层_2" data-name="图层 2"><g id="图层_1-2" data-name="图层 1"><rect class="cls-1" width="40" height="40"/><path class="cls-2" d="M20,35.5A18.22,18.22,0,0,1,2.61,22.7H6A15.5,15.5,0,0,0,34,22.65l3.41,0A18.23,18.23,0,0,1,20,35.5Zm8.6-8.37L26,22.52a13.88,13.88,0,0,1,3.15-1.88c1.36,2.39,2.31,4.08,2.31,4.08a10.32,10.32,0,0,1-2.85,2.41ZM11.49,27a9.11,9.11,0,0,1-2.75-2.6c.37-.64,1.18-2.09,2.22-3.92a20.33,20.33,0,0,1,3,2.06L11.49,27Zm-5-11a4,4,0,0,1,2.69,0c1.07.35,2.32.79,3.58,1.25L20,4.5l7.28,12.86c1.23-.43,2.45-.84,3.5-1.18a4.16,4.16,0,0,1,2.69,0S22.8,22.67,20,24.72C17.2,22.61,6.52,16,6.52,16ZM20,11.91l-3.74,6.62C18.38,19.35,20,20,20,20s1.63-.62,3.78-1.39Z"/></g></g></svg>