<svg xmlns="http://www.w3.org/2000/svg" viewBox="0 0 40 40"><defs><style>.cls-1{fill:none;}.cls-2{fill:#f15a4a;}</style></defs><title>cai-4chong</title><g id="图层_2" data-name="图层 2"><g id="图层_1-2" data-name="图层 1"><rect class="cls-1" width="40" height="40"/><path class="cls-2" d="M20,4.5A15.5,15.5,0,1,0,35.5,20,15.5,15.5,0,0,0,20,4.5Zm0,22.12a10,10,0,1,1,10-10A10,10,0,0,1,20,26.62Zm.11-4.81a5.15,5.15,0,0,1-3.78-1.53,5.41,5.41,0,0,1,0-7.37A5,5,0,0,1,20,11.38a6.82,6.82,0,0,1,3,.67,3.33,3.33,0,0,1,1.84,2.28.94.94,0,0,1-.38.92,1.38,1.38,0,0,1-.84.35,1.18,1.18,0,0,1-1-.47A3.16,3.16,0,0,0,20,13.61a2.65,2.65,0,0,0-2,.9,2.91,2.91,0,0,0-.78,2A3.24,3.24,0,0,0,18,18.53a2.55,2.55,0,0,0,1.93.93,2.74,2.74,0,0,0,2.56-1.24A6.35,6.35,0,0,1,23,17.4a1,1,0,0,1,.82-.4,1.64,1.64,0,0,1,.8.27.94.94,0,0,1,.49.84,3.47,3.47,0,0,1-1.54,2.78A6.21,6.21,0,0,1,20.11,21.81Z"/></g></g></svg>