<svg xmlns="http://www.w3.org/2000/svg" viewBox="0 0 40 40"><defs><style>.cls-1{fill:none;}.cls-2{fill:#1d8fe0;}</style></defs><title>cai-7teng</title><g id="图层_2" data-name="图层 2"><g id="图层_1-2" data-name="图层 1"><rect class="cls-1" width="40" height="40"/><path class="cls-2" d="M11.44,22s-.08,3.48-3,3.33c-1.23,0-3.7.38-3.94-4.61.08-3,1.31-17.47,18.7-16.08l-.46.26S10.28,5.45,11.44,22Z"/><path class="cls-2" d="M22.83,11.71s-2.9-1.88-1.25-4.33c.64-1.06,1.6-3.4,5.94-1C30,8,41.58,16.6,31.36,30.9v-.53s6-11.09-8.54-18.66Z"/><path class="cls-2" d="M26,26.56S29,25,30.31,27.61c.59,1.1,2.11,3.1-2.1,5.72-2.6,1.35-15.75,7.25-22.93-8.84l.45.28S12.25,35.53,26,26.56Z"/><path class="cls-2" d="M15.65,18.58l0-.06v-.08l0-.05v-.21l0-.06,0-.08,0-.1.09-.19.06-.09v-.13l0-.1,0-.09,0-.11,0-.05.05-.1,0,0v-.37l0-.14,0-.17,0-.18,0-.11,0-.1,0-.11.05-.09,0-.13.05-.11.06-.12.08-.12,0-.07,0-.05.09-.12.08-.13.09-.13.22-.25.13-.11.14-.15.1-.08.11-.09.12-.08.11-.08.13-.07.13-.05.15-.08.43-.14.32-.06.17,0,.31,0h.86l.17,0h.17l.16,0,.17,0,.16,0,.17,0,.32.13.17.06.29.16.14.1.12.08.07.06.06,0,.11.1.19.19.1.11.07.1.1.11.12.22.08.11.05.12.11.22.05.11.06.22.05.12v.08l0,.11,0,.19.05.17,0,.18v.13l0,.21,0,.06.06.09,0,.08,0,.08.09.16,0,.12,0,.09,0,.11,0,.05v.26l0,.08,0,.12,0,.07,0,.08h0v0l0,.05.16.23.11.17.06.11.08.11.07.15.08.14.17.35.09.23,0,.11.05.11,0,.1,0,.11,0,.19,0,.21v.19l0,.25,0,.1v.14l0,.15-.05.12V22l-.06.09,0,.07-.06.06,0,.05,0,0-.05,0-.06,0h-.05l0,0-.05,0-.06,0-.11-.11-.06-.08-.1-.16,0-.07-.08-.14L24,21.57h0l0,0,0,0,0,.05,0,.13-.08.19-.1.24-.06.11-.16.25-.09.15-.05.06-.19.19,0,0,.06,0,.29.13.12.06.34.24,0,0,0,.05.05.05,0,.06.05.14V24l0,.06v0l0,0,0,.08-.05.05,0,0,0,0-.08.05-.08.06-.09.05-.1,0-.11,0-.06,0h0l-.14,0-.25.06-.16,0h-.14l-.16,0H22.1l-.18,0h-.15l-.35,0-.17,0-.18-.05-.17,0-.17,0-.18-.06-.17,0-.09,0-.08,0-.1,0H20l-.17,0h-.08l-.11,0-.07.07-.09.06-.13.07-.14.08-.08,0-.09,0-.19.08-.22.06-.16,0h-.09l-.1,0-.11,0h-.93l-.27,0H16.8l-.14,0-.13,0-.14,0-.25-.06-.11,0-.1,0-.11-.05-.08-.07-.09-.06-.09-.1,0,0,0,0,0-.05,0-.08v0l0-.05v0l0-.05,0-.05,0-.05v-.14l0-.05,0-.06.05-.1,0,0,0-.07,0,0,0,0h0l.05,0h0l.13-.07H16l.16,0h.08l.1,0h0v0h0v0l-.05,0-.13-.1L16,22.79,16,22.7l-.11-.13-.11-.14-.05-.07-.06-.08-.1-.19L15.46,22l0-.1-.14-.33,0-.15h-.07v0l0,.06-.05.12,0,.06-.05.05,0,.06-.06.08-.05.07-.08.06-.12.09-.08.05-.08,0-.08,0-.09,0h0l0,0v0l0,0,0-.08,0,0,0-.05,0-.08v-.07l0-.14,0-.08v-.29l0-.2.05-.34,0-.11.06-.26.1-.25.12-.26.08-.12.08-.15.1-.11.07-.14.08-.1.1-.11.22-.22.08-.07.08-.08.14-.13.11-.07,0,0Z"/></g></g></svg>