<svg xmlns="http://www.w3.org/2000/svg" viewBox="0 0 40 40"><defs><style>.cls-1{fill:none;}.cls-2{fill:#29ab91;}</style></defs><title>cai-6pc</title><g id="图层_2" data-name="图层 2"><g id="图层_1-2" data-name="图层 1"><rect class="cls-1" width="40" height="40"/><path class="cls-2" d="M32.72,15.67c-1.9-3-4.33-4.78-6.87-4.95l0,0c-2.47-4-5.64-6.18-8.92-6.18S10.45,6.69,8,10.68a23.8,23.8,0,0,0-3.48,12A12.5,12.5,0,0,0,16.9,35.5a12.42,12.42,0,0,0,4.49-.89,10.2,10.2,0,0,0,4,.89A10.35,10.35,0,0,0,32.07,33a9.88,9.88,0,0,0,3.43-7.79A18.77,18.77,0,0,0,32.72,15.67ZM16.9,32.74A10,10,0,0,1,7,22.48c0-7,4.6-15.22,9.91-15.22s9.91,8.18,9.91,15.22A10,10,0,0,1,16.9,32.74Zm8.67.64a8.14,8.14,0,0,1-2.95-.58,10.74,10.74,0,0,0,2.14-1.45,11,11,0,0,0,3.74-8.62A21.83,21.83,0,0,0,26,12.84c4.15.38,7.67,6.75,7.67,12.26h0A8.07,8.07,0,0,1,25.57,33.38Z"/><path class="cls-2" d="M18.45,18.84a.39.39,0,0,0-.39.38,1.16,1.16,0,1,1-2.32,0,.39.39,0,0,0-.78,0,1.94,1.94,0,0,0,3.88,0A.39.39,0,0,0,18.45,18.84Z"/><path class="cls-2" d="M13,15a1.17,1.17,0,1,0,1.16,1.17h0A1.16,1.16,0,0,0,13,15Z"/><path class="cls-2" d="M21.94,16.13a1.17,1.17,0,1,0-2.33,0h0a1.17,1.17,0,0,0,2.33,0Z"/><path class="cls-2" d="M11.48,18.06H9.93a.78.78,0,0,0-.78.78.77.77,0,0,0,.78.77h1.55a.77.77,0,0,0,.77-.77A.78.78,0,0,0,11.48,18.06Z"/><path class="cls-2" d="M23.88,18.06H22.33a.78.78,0,0,0-.78.78.77.77,0,0,0,.78.77h1.55a.77.77,0,0,0,.77-.77A.78.78,0,0,0,23.88,18.06Z"/></g></g></svg>