<svg xmlns="http://www.w3.org/2000/svg" viewBox="0 0 40 40"><defs><style>.cls-1{fill:#1d8fe0;}.cls-2{fill:none;}</style></defs><title>cai-1liu</title><g id="图层_2" data-name="图层 2"><g id="图层_1-2" data-name="图层 1"><path class="cls-1" d="M18.48,13.11a2,2,0,1,0-2-2A2,2,0,0,0,18.48,13.11Z"/><path class="cls-1" d="M13.83,21.3a1.58,1.58,0,0,1-.2,1,.7.7,0,0,1-.61.24l-1.32,0v1.88h2.63q1.37,0,1.53-.87A8.82,8.82,0,0,0,16,21.87V17.22H13.83Z"/><path class="cls-1" d="M23.56,22.29a1.82,1.82,0,0,1-.19-1V17.23H21.19v4.6a8.75,8.75,0,0,0,.15,1.68c.1.59.61.89,1.53.89h2.69V22.53H24.18A.76.76,0,0,1,23.56,22.29Z"/><rect class="cls-1" x="11.79" y="14.26" width="13.84" height="1.88"/><path class="cls-1" d="M20,4.5A15.5,15.5,0,1,0,35.5,20,15.51,15.51,0,0,0,20,4.5Zm12.11,7.22a14.74,14.74,0,0,1,2.4,6.1,3.79,3.79,0,0,1-2.4-6.1Zm-19.48,21a14.62,14.62,0,0,1-5.58-5.8,5.72,5.72,0,0,1,5.58,5.72Zm6-3.94a10.9,10.9,0,1,1,10.9-10.9A10.9,10.9,0,0,1,18.66,28.74Zm7.73,4.47c0-.2,0-.41,0-.61a6.29,6.29,0,0,1,6.29-6.29,5.85,5.85,0,0,1,.59,0A14.82,14.82,0,0,1,26.39,33.21Z"/><rect class="cls-2" width="40" height="40"/></g></g></svg>