<svg xmlns="http://www.w3.org/2000/svg" viewBox="0 0 40 40"><defs><style>.cls-1{fill:none;}.cls-2{fill:#f39927;}</style></defs><title>cai-3pk10</title><g id="图层_2" data-name="图层 2"><g id="图层_1-2" data-name="图层 1"><rect class="cls-1" width="40" height="40"/><path class="cls-2" d="M19.57,15.23a5.18,5.18,0,1,0,5.15,5.18,5.23,5.23,0,0,0-.26-1.62c2.22-2.72,6.05-7.43,6.32-7.82a1.3,1.3,0,0,0,0-1.83c-.75-.7-1.82,0-1.82,0l-8.13,6.25A5.18,5.18,0,0,0,19.57,15.23Zm2,5.18a2,2,0,1,1-2-2A2,2,0,0,1,21.55,20.41Z"/><path class="cls-2" d="M33.31,12l-4.68,5.21A2.44,2.44,0,0,0,28,19.16v0a4.81,4.81,0,0,0,3.35,4.11h0a11.1,11.1,0,0,1-3,5,11.79,11.79,0,0,1-14.3,1.86,4.46,4.46,0,0,0-5.21.59,15.5,15.5,0,0,0,22,.31,18.61,18.61,0,0,0,4-6.65A15.57,15.57,0,0,0,33.31,12Z"/><path class="cls-2" d="M22,11.52l5.95-4.85A15.5,15.5,0,0,0,4.5,20a10.63,10.63,0,0,0,.62,3.1A12.4,12.4,0,0,1,22,11.52Z"/></g></g></svg>