<svg xmlns="http://www.w3.org/2000/svg" viewBox="0 0 54.95 22"><defs><style>.cls-1{fill:#1b82d1;}</style></defs><title>gonggao</title><g id="图层_2" data-name="图层 2"><g id="图层_1-2" data-name="图层 1"><path class="cls-1" d="M51,.5A3.5,3.5,0,0,1,54.45,4V18A3.5,3.5,0,0,1,51,21.5H4A3.5,3.5,0,0,1,.5,18V4A3.5,3.5,0,0,1,4,.5H51M51,0H4A4,4,0,0,0,0,4V18a4,4,0,0,0,4,4H51a4,4,0,0,0,4-4V4a4,4,0,0,0-4-4Z"/><path class="cls-1" d="M23.63,10.76a14,14,0,0,0,4.2-5.2l1,.4a16.56,16.56,0,0,1-4.39,5.58A5,5,0,0,0,23.63,10.76Zm8.22,1.51c1.21,1.51,2.23,2.89,3.06,4.12L34,17c-.23-.37-.48-.76-.75-1.16q-4.16.2-6.77.4a10.13,10.13,0,0,0-1.16.2l-.55-1a3.29,3.29,0,0,0,1.05-.67A25.34,25.34,0,0,0,29,9.9l1.09.48a46.68,46.68,0,0,1-3.35,4.82q2.61-.07,5.9-.22c-.48-.7-1-1.44-1.58-2.21ZM30.76,5.74l.94-.35a9.69,9.69,0,0,0,4.55,5,7.35,7.35,0,0,0-.78.95A11.62,11.62,0,0,1,30.76,5.74Z"/><path class="cls-1" d="M36.76,9.8h6v-2H39.33a13.75,13.75,0,0,1-1.12,1.77c-.28-.18-.59-.37-.94-.57a12,12,0,0,0,2.06-3.78l1.05.29c-.19.48-.39,1-.6,1.39h3V5h1V6.9h4.37v.9H43.77v2h5.31v.9H36.76ZM38.45,12h9v4.87h-1v-.63H39.46v.63h-1Zm8,.87H39.46v2.5h6.95Z"/><path class="cls-1" d="M14.62,18a.44.44,0,0,1-.29-.11l-4.25-3.83H7.62a1.7,1.7,0,0,1-1.75-1.75V9.69A1.7,1.7,0,0,1,7.62,7.94h2.46l4.25-3.83A.44.44,0,0,1,14.8,4a.44.44,0,0,1,.26.4V17.56a.44.44,0,0,1-.26.4.39.39,0,0,1-.18,0Zm-7-9.19a.83.83,0,0,0-.88.88v2.62a.83.83,0,0,0,.88.88h2.62a.46.46,0,0,1,.3.11l3.64,3.28V5.42L10.54,8.7a.46.46,0,0,1-.3.11Zm9.19-.43a.46.46,0,0,1-.31-.13.44.44,0,0,1,0-.62l1.75-1.75a.44.44,0,1,1,.62.62L17.12,8.25A.48.48,0,0,1,16.81,8.38Zm2.62,3.06H16.81a.44.44,0,1,1,0-.88h2.62a.44.44,0,1,1,0,.88Zm-.87,4.81a.42.42,0,0,1-.31-.13L16.5,14.37a.44.44,0,0,1,.62-.62l1.75,1.75a.44.44,0,0,1,0,.62A.43.43,0,0,1,18.56,16.25Z"/></g></g></svg>