<svg xmlns="http://www.w3.org/2000/svg" viewBox="0 0 21.33 20"><defs><style>.cls-1{fill:#fff;}</style></defs><title>head-gonggao</title><g id="图层_2" data-name="图层 2"><g id="图层_1-2" data-name="图层 1"><path class="cls-1" d="M19.34,0H2A2,2,0,0,0,0,2V15.33a2,2,0,0,0,2,2H8L10.67,20l2.67-2.67h6a2,2,0,0,0,2-2V2a2,2,0,0,0-2-2ZM20,14.66A1.33,1.33,0,0,1,18.67,16h-6l-2,2-2-2h-6a1.34,1.34,0,0,1-1.34-1.34v-12A1.34,1.34,0,0,1,2.67,1.33h16A1.33,1.33,0,0,1,20,2.66v12Z"/><path class="cls-1" d="M16.67,7h-12a.66.66,0,1,1,0-1.32h12a.66.66,0,0,1,0,1.32ZM7.33,9.65H14A.67.67,0,0,1,14,11H7.33a.67.67,0,1,1,0-1.33Z"/></g></g></svg>