<svg xmlns="http://www.w3.org/2000/svg" viewBox="0 0 40 40"><defs><style>.cls-1{fill:none;}.cls-2{fill:#fff;}</style></defs><title>headLine-touzhu</title><g id="图层_2" data-name="图层 2"><g id="图层_1-2" data-name="图层 1"><rect class="cls-1" width="40" height="40"/><path class="cls-2" d="M31.75,13.35a12.19,12.19,0,0,0-.8-1.22L19.74,23.33l-5.47-5.46a.71.71,0,0,0-1,1l6,6a.71.71,0,0,0,1,0L30.69,14.4h0a12.18,12.18,0,0,1,1.25,7.44,12.07,12.07,0,0,1-19.56,7.52,1.46,1.46,0,0,0-1.82,0l-2.64,2v-11A12.29,12.29,0,0,1,19.19,8a12.07,12.07,0,0,1,7.69,2.15l1-1a13.45,13.45,0,0,0-8.8-2.54A13.72,13.72,0,0,0,6.5,20.37V31.83a1.18,1.18,0,0,0,1.91.93l3.08-2.3a13.35,13.35,0,0,0,8.5,3,14.91,14.91,0,0,0,2-.14,13.5,13.5,0,0,0,9.77-20Z"/></g></g></svg>