<svg xmlns="http://www.w3.org/2000/svg" viewBox="0 0 21.33 20"><defs><style>.cls-1{fill:#fff;}</style></defs><title>head-kefu</title><g id="图层_2" data-name="图层 2"><g id="图层_1-2" data-name="图层 1"><path class="cls-1" d="M18.21,8.29A1.79,1.79,0,0,1,20,10.08v2.81a1.79,1.79,0,0,1-1.79,1.79H16.67V8.29h1.54m0-1.33H16.34a1,1,0,0,0-1,1V15a1,1,0,0,0,1,1h1.87a3.12,3.12,0,0,0,3.12-3.12V10.08A3.11,3.11,0,0,0,18.21,7Z"/><path class="cls-1" d="M4.66,8.29v6.39H3.12a1.79,1.79,0,0,1-1.79-1.79V10.08A1.79,1.79,0,0,1,3.12,8.29H4.66M5,7H3.12A3.12,3.12,0,0,0,0,10.08v2.81A3.12,3.12,0,0,0,3.12,16H5a1,1,0,0,0,1-1V8A1,1,0,0,0,5,7Z"/><path class="cls-1" d="M2.82,7.58a8.16,8.16,0,0,1,7.85-6.25,8.14,8.14,0,0,1,7.84,6.25h1.37A9.48,9.48,0,0,0,10.67,0,9.49,9.49,0,0,0,1.45,7.58Z"/><path class="cls-1" d="M10.51,20a.67.67,0,0,1,0-1.33c3.94,0,5.08-.75,7.23-3.52a.67.67,0,0,1,.93-.12.66.66,0,0,1,.11.93C16.44,19,14.91,20,10.51,20Z"/></g></g></svg>