<svg xmlns="http://www.w3.org/2000/svg" viewBox="0 0 40 40"><defs><style>.cls-1{fill:none;}.cls-2{fill:#fff;}</style></defs><title>headLine-4mianfei</title><g id="图层_2" data-name="图层 2"><g id="图层_1-2" data-name="图层 1"><rect class="cls-1" width="40" height="40"/><path class="cls-2" d="M33.46,19.25H25.79a1.6,1.6,0,0,0-.34-.49l-4.21-4.21A1.77,1.77,0,0,0,20,14a1.75,1.75,0,0,0-1.24.52l-4.21,4.21a1.6,1.6,0,0,0-.34.49H8A12,12,0,0,1,31,15.19H32.6A13.47,13.47,0,1,0,33.5,20C33.5,19.75,33.48,19.5,33.46,19.25Zm-17.85.57,4.21-4.21a.25.25,0,0,1,.18-.08.28.28,0,0,1,.18.08l4.21,4.21a.25.25,0,0,1,0,.36l-4.21,4.21c-.07.07-.19.07-.18.08a.25.25,0,0,1-.18-.08l-4.21-4.21A.25.25,0,0,1,15.61,19.82ZM20,32A12,12,0,0,1,8,20.75h6.17a1.6,1.6,0,0,0,.34.49l4.21,4.21A1.75,1.75,0,0,0,20,26h0a1.79,1.79,0,0,0,1.24-.52l4.21-4.21a1.6,1.6,0,0,0,.34-.49H32A12,12,0,0,1,20,32Z"/></g></g></svg>