<svg xmlns="http://www.w3.org/2000/svg" viewBox="0 0 40 40"><defs><style>.cls-1{fill:none;}.cls-2{fill:#fff;}</style></defs><title>headLine-1kaijiang</title><g id="图层_2" data-name="图层 2"><g id="图层_1-2" data-name="图层 1"><rect class="cls-1" width="40" height="40"/><path class="cls-2" d="M18.9,21.48V15a.73.73,0,0,0-1.46,0v6.49a2,2,0,0,0,2,2H26A.73.73,0,0,0,26,22H19.46A.56.56,0,0,1,18.9,21.48Z"/><path class="cls-2" d="M30.1,17.31a3.4,3.4,0,1,0-3.4-3.4A3.4,3.4,0,0,0,30.1,17.31Zm0-5.8a2.4,2.4,0,1,1-2.4,2.4A2.41,2.41,0,0,1,30.1,11.51Z"/><path class="cls-2" d="M32.72,20a.75.75,0,0,0-.74.72A12,12,0,1,1,20,8a11.83,11.83,0,0,1,4.54.91.76.76,0,0,0,1-.36.75.75,0,0,0-.37-1A13.38,13.38,0,0,0,18.3,6.6,13.5,13.5,0,1,0,33.48,20.78.75.75,0,0,0,32.72,20Z"/></g></g></svg>