<svg xmlns="http://www.w3.org/2000/svg" viewBox="0 0 40 40"><defs><style>.cls-1{fill:none;}.cls-2{fill:#fff;}</style></defs><title>headLine-3zhanghu</title><g id="图层_2" data-name="图层 2"><g id="图层_1-2" data-name="图层 1"><rect class="cls-1" width="40" height="40"/><path class="cls-2" d="M16.47,13.31a.77.77,0,0,0-1.07,0,.75.75,0,0,0,0,1.06L19,17.92h-3a.75.75,0,0,0,0,1.5h3.34v3H15.93a.75.75,0,0,0,0,1.5h3.34v2.19a.75.75,0,0,0,1.5,0V24H24.1a.75.75,0,0,0,0-1.5H20.77v-3H24.1a.75.75,0,0,0,0-1.5h-3l3.55-3.55a.74.74,0,0,0,0-1.06.75.75,0,0,0-1.06,0L20,16.86Z"/><path class="cls-2" d="M32,20.75A12,12,0,1,1,20,8a11.76,11.76,0,0,1,1.2.06V6.56c-.39,0-.79-.06-1.2-.06A13.5,13.5,0,1,0,33.5,20.75Z"/><path class="cls-2" d="M31.61,16.89h1.55A13.49,13.49,0,0,0,25,7.45V9.08A12.05,12.05,0,0,1,31.61,16.89Z"/></g></g></svg>