<svg xmlns="http://www.w3.org/2000/svg" viewBox="0 0 54.2 16"><defs><style>.cls-1{fill:#fff;}.cls-2{fill:#f39927;}</style></defs><title>logo</title><g id="图层_2" data-name="图层 2"><g id="图层_1-2" data-name="图层 1"><path class="cls-1" d="M11.06,13.74V16H3.94a4.29,4.29,0,0,1-3-1,2.9,2.9,0,0,1-.67-.92A5.64,5.64,0,0,1,0,12.15V0H2.6V11.81c0,1.29.44,1.93,1.34,1.93Z"/><path class="cls-1" d="M12.06,12.57v-9A3.77,3.77,0,0,1,12.9,1a3.53,3.53,0,0,1,2.6-1h5.95A3.5,3.5,0,0,1,24,1a3.77,3.77,0,0,1,.84,2.51v9.05A3.44,3.44,0,0,1,24,15a3.5,3.5,0,0,1-2.59,1H15.5a3.53,3.53,0,0,1-2.6-1A3.44,3.44,0,0,1,12.06,12.57Zm4.28,1.17h4.27c1.11,0,1.67-.48,1.67-1.43V3.69c0-.9-.56-1.34-1.67-1.34H16.34c-1.12,0-1.68.44-1.68,1.34v8.62C14.66,13.26,15.22,13.74,16.34,13.74Z"/><path class="cls-2" d="M39.79,0V2.26H30.41a1.71,1.71,0,0,0-1.26.42,1.38,1.38,0,0,0-.42,1V12.4a1.21,1.21,0,0,0,.34.92,1.14,1.14,0,0,0,.84.33h6.7a1.17,1.17,0,0,0,.84-.33,1.25,1.25,0,0,0,.33-.92V10.05a1.48,1.48,0,0,0-.25-.92,1.14,1.14,0,0,0-.84-.33h-5V6.45h5.11a4,4,0,0,1,2.69.92,3.36,3.36,0,0,1,.58.84,2.38,2.38,0,0,1,.34,1.17v3a3.71,3.71,0,0,1-1.09,2.85,2.92,2.92,0,0,1-2,.75H29.57a3.4,3.4,0,0,1-2.51-.92,3.5,3.5,0,0,1-.92-2.6v-9a3.7,3.7,0,0,1,1-2.6A3.66,3.66,0,0,1,29.82,0Z"/><path class="cls-1" d="M41.38,12.57v-9A3.77,3.77,0,0,1,42.22,1a3.53,3.53,0,0,1,2.6-1h5.94a3.53,3.53,0,0,1,2.6,1,3.77,3.77,0,0,1,.84,2.51v9.05A3.44,3.44,0,0,1,53.36,15a3.53,3.53,0,0,1-2.6,1H44.82a3.53,3.53,0,0,1-2.6-1A3.44,3.44,0,0,1,41.38,12.57Zm4.27,1.17h4.28c1.11,0,1.67-.48,1.67-1.43V3.69c0-.9-.56-1.34-1.67-1.34H45.65c-1.11,0-1.67.44-1.67,1.34v8.62C44,13.26,44.54,13.74,45.65,13.74Z"/></g></g></svg>