<svg xmlns="http://www.w3.org/2000/svg" viewBox="0 0 25 25"><defs><style>.cls-1{fill:#1b82d1;}.cls-2{fill:none;}</style></defs><title>nav1-hover</title><g id="图层_2" data-name="图层 2"><g id="图层_1-2" data-name="图层 1"><path class="cls-1" d="M23.51,11.47,13,2.67a.68.68,0,0,0-.88,0L1.52,11.44a.7.7,0,0,0-.27.54.69.69,0,0,0,.68.68H4.32v6.93a2.9,2.9,0,0,0,.85,2.06,2.94,2.94,0,0,0,2.06.85H9.5V17.74a1,1,0,0,1,1-1h4a1,1,0,0,1,1,1V22.5h3.39A1.76,1.76,0,0,0,20.16,22a1.79,1.79,0,0,0,.53-1.26v-8h2.38a.66.66,0,0,0,.52-.24A.67.67,0,0,0,23.51,11.47Z"/><rect class="cls-2" width="25" height="25"/></g></g></svg>