<svg xmlns="http://www.w3.org/2000/svg" viewBox="0 0 25 25"><defs><style>.cls-1{fill:#565656;}.cls-2{fill:none;}</style></defs><title>nav1</title><g id="图层_2" data-name="图层 2"><g id="图层_1-2" data-name="图层 1"><path class="cls-1" d="M9.81,17.94a.68.68,0,0,1-1.35,0V14.35a2.15,2.15,0,0,1,2.13-2.13h3.83a2.13,2.13,0,0,1,2.13,2.13V20a2.46,2.46,0,0,1-2.46,2.46H7.23a2.94,2.94,0,0,1-2.06-.85,2.9,2.9,0,0,1-.85-2.06V12.66H1.93A.69.69,0,0,1,1.25,12a.7.7,0,0,1,.27-.54L12.13,2.65a.68.68,0,0,1,.88,0l10.5,8.8a.67.67,0,0,1,.08.94.66.66,0,0,1-.52.24H20.69v8.05A1.79,1.79,0,0,1,20.16,22a1.76,1.76,0,0,1-1.27.53h-.17a.67.67,0,0,1,0-1.34h.17a.42.42,0,0,0,.32-.14.44.44,0,0,0,.13-.31V12a.67.67,0,0,1,.67-.67h1.22L12.56,4,3.79,11.31H5a.67.67,0,0,1,.67.67v7.61a1.6,1.6,0,0,0,.46,1.11,1.58,1.58,0,0,0,1.11.46h6.86a1.12,1.12,0,0,0,.79-.33,1.16,1.16,0,0,0,.33-.79V14.35a.79.79,0,0,0-.79-.78H10.59a.79.79,0,0,0-.78.78v3.59Z"/><rect class="cls-2" width="25" height="25"/></g></g></svg>