<svg xmlns="http://www.w3.org/2000/svg" viewBox="0 0 25 25"><defs><style>.cls-1{fill:none;}.cls-2{fill:#1b82d1;}</style></defs><title>nav3-hover</title><g id="图层_2" data-name="图层 2"><g id="图层_1-2" data-name="图层 1"><rect class="cls-1" width="25" height="25"/><path class="cls-2" d="M21.45,3.35a1.77,1.77,0,0,0-.06-.42,3.64,3.64,0,0,0-2.3.39c-.15.07-.51.3-1,.62l-.51.3s0,0,0,0A9.63,9.63,0,0,0,4.21,17.38c-1,1.55-1.49,2.66-1.36,3.42,0,.15.29.18.44.18,3,0,9.79-6.55,10.64-7.38C17.68,9.92,21.45,5.41,21.45,3.35ZM8,14.62A1.72,1.72,0,1,1,9.77,12.9,1.72,1.72,0,0,1,8,14.62Zm3-4.82a2.07,2.07,0,1,1,2.06-2.07A2.07,2.07,0,0,1,11.08,9.8Z"/><path class="cls-2" d="M20.74,7.47a48.6,48.6,0,0,1-6,7,52.49,52.49,0,0,1-7.5,6.16h0a9.56,9.56,0,0,0,5.25,1.57,9.66,9.66,0,0,0,9.65-9.65,9.52,9.52,0,0,0-1.43-5ZM15.23,18.7a1.38,1.38,0,1,1,1.38-1.38A1.38,1.38,0,0,1,15.23,18.7Z"/></g></g></svg>