<svg xmlns="http://www.w3.org/2000/svg" viewBox="0 0 25 25"><defs><style>.cls-1{fill:none;}.cls-2{fill:#bbb;}</style></defs><title>nav3</title><g id="图层_2" data-name="图层 2"><g id="图层_1-2" data-name="图层 1"><rect class="cls-1" width="25" height="25"/><path class="cls-2" d="M12.5,2.91A9.59,9.59,0,1,1,2.91,12.5,9.6,9.6,0,0,1,12.5,2.91m0-1.34A10.93,10.93,0,1,0,23.43,12.5,10.93,10.93,0,0,0,12.5,1.57Z"/><rect class="cls-2" x="7.5" y="3.21" width="1.34" height="9.29"/><rect class="cls-2" x="3.16" y="16.16" width="9.29" height="1.34"/><rect class="cls-2" x="16.16" y="12.5" width="1.34" height="9.29"/><rect class="cls-2" x="12.5" y="7.5" width="9.29" height="1.34"/><path class="cls-2" d="M12.5,8.84A3.66,3.66,0,1,1,8.84,12.5,3.66,3.66,0,0,1,12.5,8.84m0-1.34a5,5,0,1,0,5,5,5,5,0,0,0-5-5Z"/></g></g></svg>