<svg xmlns="http://www.w3.org/2000/svg" viewBox="0 0 25 25"><defs><style>.cls-1{fill:none;}.cls-2{fill:#1b82d1;}</style></defs><title>nav4-hover</title><g id="图层_2" data-name="图层 2"><g id="图层_1-2" data-name="图层 1"><rect class="cls-1" width="25" height="25"/><path class="cls-2" d="M20.82,22.41a5.21,5.21,0,0,1-2.93-1l-.19-.14-.23.06A8.23,8.23,0,0,1,12,21a7.77,7.77,0,0,1-1.21-.64,9.34,9.34,0,0,0,9.35-9.19,8.87,8.87,0,0,0-.74-3.56,7.68,7.68,0,0,1,2.28,2.08A7.28,7.28,0,0,1,23.08,14a7.19,7.19,0,0,1-.75,3.23,7.66,7.66,0,0,1-2.13,2.62l-.4.32.29.43A4.26,4.26,0,0,0,21.37,22c.17.11.25.21.24.26s-.23.2-.79.2Z"/><path class="cls-2" d="M10.38,2.59a8.3,8.3,0,0,0-8.46,8.1,7.76,7.76,0,0,0,.8,3.45A8.11,8.11,0,0,0,5,16.93l.4.32-.28.43a4.75,4.75,0,0,1-1.36,1.39c-.17.11-.28.24-.26.31s.27.24.86.24a5.56,5.56,0,0,0,3.13-1.11l.2-.14.22.07a9.18,9.18,0,0,0,2.48.36,8.31,8.31,0,0,0,8.47-8.11A8.3,8.3,0,0,0,10.38,2.59ZM5.75,12.34a1.58,1.58,0,0,1,0-3.16,1.52,1.52,0,0,1,1.46,1.58A1.53,1.53,0,0,1,5.75,12.34Zm4.69,0a1.58,1.58,0,0,1,0-3.16,1.52,1.52,0,0,1,1.46,1.58A1.52,1.52,0,0,1,10.44,12.34Zm4.61,0a1.52,1.52,0,0,1-1.46-1.58,1.47,1.47,0,1,1,2.93,0A1.53,1.53,0,0,1,15.05,12.34Z"/></g></g></svg>