<svg xmlns="http://www.w3.org/2000/svg" viewBox="0 0 25 25"><defs><style>.cls-1{fill:none;}.cls-2{fill:#565656;}</style></defs><title>nav4</title><g id="图层_2" data-name="图层 2"><g id="图层_1-2" data-name="图层 1"><rect class="cls-1" width="25" height="25"/><path class="cls-2" d="M22.7,13.68a5.82,5.82,0,0,0-.43-1.16.54.54,0,0,0-1,.47,5.12,5.12,0,0,1,.35.94A5.11,5.11,0,0,1,21.78,15a5.13,5.13,0,0,1-2.4,4.2.52.52,0,0,0-.24.44v1.37a.34.34,0,0,1-.16.28.42.42,0,0,1-.37,0l-.77-.5-.06,0-.67-.45a.58.58,0,0,0-.39-.08,6.74,6.74,0,0,1-4.26-.67.5.5,0,0,0-.41,0,.51.51,0,0,0-.32.25.52.52,0,0,0,.22.73,7.81,7.81,0,0,0,4.73.82l.43.29.15.1.75.49a1.42,1.42,0,0,0,.78.23,1.92,1.92,0,0,0,.61-.11l.08,0A1.43,1.43,0,0,0,20.22,21V20A6.16,6.16,0,0,0,22.86,15a6.17,6.17,0,0,0-.16-1.36Z"/><path class="cls-2" d="M11.51,3.91c4.42,0,8,3.07,8,6.84s-3.6,6.84-8,6.84a8.89,8.89,0,0,1-1.36-.1l-.51-.08-.43.29-.83.54-.08.06,0,0L7.21,19H7.13l0,0h0V16.5l-.59-.4a6.59,6.59,0,0,1-3-5.35c0-3.77,3.6-6.84,8-6.84m0-1.34c-5.17,0-9.37,3.67-9.37,8.18a7.9,7.9,0,0,0,3.61,6.46V19a1.4,1.4,0,0,0,.74,1.23,1.49,1.49,0,0,0,.68.17,1.34,1.34,0,0,0,.76-.22L9,19.44l.1-.08.84-.54a11.69,11.69,0,0,0,1.56.11h0c5.17,0,9.36-3.67,9.36-8.18s-4.2-8.18-9.36-8.18Z"/><ellipse class="cls-2" cx="6.74" cy="10.76" rx="1.38" ry="1.49"/><ellipse class="cls-2" cx="11.51" cy="10.76" rx="1.38" ry="1.49"/><ellipse class="cls-2" cx="16.27" cy="10.76" rx="1.38" ry="1.49"/></g></g></svg>