<svg xmlns="http://www.w3.org/2000/svg" viewBox="0 0 25 25"><defs><style>.cls-1{fill:none;}.cls-2{fill:#bbb;}</style></defs><title>nav5</title><g id="图层_2" data-name="图层 2"><g id="图层_1-2" data-name="图层 1"><rect class="cls-1" width="25" height="25"/><path class="cls-2" d="M16.74,12.86a.68.68,0,0,0-.94.51.86.86,0,0,0,.35.67,3.17,3.17,0,0,0,.7.38A6.84,6.84,0,0,1,20.69,20a.33.33,0,0,1-.4.42H4.77c-.16,0-.35,0-.44-.15a.47.47,0,0,1,0-.35,8.72,8.72,0,0,1,2.34-4.49,8.91,8.91,0,0,1,2.89-2,11.25,11.25,0,0,1,3.09-.63,5.38,5.38,0,0,0,2.79-1,5,5,0,0,0,1.78-2.7,4.69,4.69,0,0,0,.14-1.11,4.86,4.86,0,1,0-7.66,4A10.15,10.15,0,0,0,3,19.88a1.64,1.64,0,0,0,.38,1.32,1.67,1.67,0,0,0,1.28.59H20.39a1.67,1.67,0,0,0,1.24-.55A1.64,1.64,0,0,0,22.05,20,8.29,8.29,0,0,0,16.74,12.86ZM9,8.07a3.52,3.52,0,1,1,3.52,3.52A3.53,3.53,0,0,1,9,8.07Z"/></g></g></svg>