<svg xmlns="http://www.w3.org/2000/svg" viewBox="0 0 25 25"><defs><style>.cls-1{fill:none;}.cls-2{fill:#1b82d1;}</style></defs><title>nav5-hover</title><g id="图层_2" data-name="图层 2"><g id="图层_1-2" data-name="图层 1"><rect class="cls-1" width="25" height="25"/><path class="cls-2" d="M22,20.57a9.87,9.87,0,0,0-4.78-6.77,9.18,9.18,0,0,0-.86-.44A10.61,10.61,0,0,0,14,12.71a5,5,0,1,0-3.07-.05A9.87,9.87,0,0,0,3,20.57,1.15,1.15,0,0,0,4.15,22H20.81a1.21,1.21,0,0,0,.9-.43A1.11,1.11,0,0,0,22,20.57Z"/></g></g></svg>