<svg xmlns="http://www.w3.org/2000/svg" viewBox="0 0 17 17"><defs><style>.cls-1{fill:none;}.cls-2{fill:#bbb;}</style></defs><title>news-eye</title><g id="图层_2" data-name="图层 2"><g id="图层_1-2" data-name="图层 1"><rect class="cls-1" width="17" height="17"/><path class="cls-2" d="M16.51,8a.76.76,0,0,1,0,1c-1.09,1.28-4.26,4.58-8,4.58S1.58,10.27.49,9a.76.76,0,0,1,0-1c1.09-1.28,4.26-4.58,8-4.58S15.42,6.73,16.51,8Zm-8,1.85A1.36,1.36,0,1,1,9.86,8.5,1.36,1.36,0,0,1,8.5,9.86ZM8.5,6A2.53,2.53,0,1,0,11,8.5,2.53,2.53,0,0,0,8.5,6"/></g></g></svg>