<svg xmlns="http://www.w3.org/2000/svg" viewBox="0 0 17 17"><defs><style>.cls-1{fill:none;}.cls-2{fill:#bbb;}</style></defs><title>news-huifu</title><g id="图层_2" data-name="图层 2"><g id="图层_1-2" data-name="图层 1"><rect class="cls-1" width="17" height="17"/><path class="cls-2" d="M8.5,2.46c-4,0-7.26,2.52-7.26,5.74a5,5,0,0,0,1.33,3.42C3,12,1.72,14,2.06,14.45s2.63-1.27,3.29-1A9.63,9.63,0,0,0,8.5,14c4,0,7.16-2.53,7.26-5.75C15.85,5.24,12.59,2.46,8.5,2.46ZM5.29,9.16a1,1,0,1,1,1-1A1,1,0,0,1,5.29,9.16Zm3.08,0a1,1,0,1,1,1-1A1,1,0,0,1,8.37,9.16Zm3.08,0a1,1,0,1,1,1-1A1,1,0,0,1,11.45,9.16Z"/></g></g></svg>