<svg xmlns="http://www.w3.org/2000/svg" viewBox="0 0 43.85 15"><defs><style>.cls-1{fill:#fff;}.cls-2{fill:#1b82d1;}</style></defs><title>news-jinghua</title><g id="图层_2" data-name="图层 2"><g id="图层_1-2" data-name="图层 1"><path class="cls-1" d="M15.94,14.48H2.19A1.65,1.65,0,0,1,.52,12.81V2.29A1.65,1.65,0,0,1,2.19.62H15.94V14.48Z"/><path class="cls-2" d="M14.17,7.19l-2.5-4.9h-7l-2.5,4.9,5.93,5.93ZM5.31,3.33H11L12.81,7,8.12,11.67,3.54,7Z"/><path class="cls-2" d="M9.9,5.52,8.23,7.4,6.46,5.62l-.73.73,2.5,2.5,2.5-2.6Z"/><path class="cls-2" d="M41.67,0H2.19A2.22,2.22,0,0,0,0,2.29V12.81A2.14,2.14,0,0,0,2.19,15H41.67a2.13,2.13,0,0,0,2.18-2.19V2.29A2.29,2.29,0,0,0,41.67,0ZM15.94,14.48H2.19A1.65,1.65,0,0,1,.52,12.81V2.29A1.64,1.64,0,0,1,2.19.63H15.94Z"/><path class="cls-1" d="M18.56,10.42a15.15,15.15,0,0,0,1.8-3.6H18.7v-.7h1.75v-4h.76v4h1.47v.7H21.21V8.18l.42-.33c.64.6,1.15,1.11,1.54,1.54l-.59.53c-.48-.57-.94-1.07-1.37-1.51v4.52h-.76V8.3a16.66,16.66,0,0,1-1.54,3C18.79,11,18.67,10.69,18.56,10.42Zm.17-7.26.67-.23c.28.74.53,1.48.78,2.23l-.72.29C19.2,4.55,19,3.79,18.73,3.16Zm2.69,2a13.61,13.61,0,0,0,.84-2.24l.73.25c-.28.82-.58,1.57-.89,2.28ZM23,6h3V5.19H23.48V4.5H26V3.77H23.18v-.7H26v-1h.82v1h3v.7h-3V4.5h2.66v.69H26.78V6H30v.69H23Zm1.35,6.93h-.82V7.31h5.74V11.6c0,.8-.42,1.2-1.28,1.2H26.13c0-.24-.09-.52-.17-.85.71,0,1.29.07,1.75.07s.74-.2.74-.6v-.5h-4.1ZM28.45,8h-4.1v.77h4.1Zm-4.1,2.22h4.1V9.47h-4.1Z"/><path class="cls-1" d="M30.4,5.4A10.58,10.58,0,0,0,33.64,2l.81.4a14.72,14.72,0,0,1-1.09,1.47V8.2h-.89V4.87a12.41,12.41,0,0,1-1.62,1.36C30.71,6,30.56,5.67,30.4,5.4Zm.08,4h5.05V7.91h.92V9.37h5.06v.79H36.45V13h-.92v-2.8H30.48ZM33.72,5.9A20.61,20.61,0,0,0,36.47,5V2.24h.89V4.61a13.77,13.77,0,0,0,3-1.87l.61.66a19.62,19.62,0,0,1-3.58,2.09v.9c0,.49.32.74,1,.74h1.21c.58,0,.91-.24,1-.72a8.65,8.65,0,0,0,.15-1.27q.57.23.9.33c-.07.47-.14.88-.22,1.23a1.44,1.44,0,0,1-1.63,1.21H38c-1,0-1.52-.46-1.52-1.37V5.88q-1.06.45-2.25.84A6.68,6.68,0,0,0,33.72,5.9Z"/></g></g></svg>