<svg xmlns="http://www.w3.org/2000/svg" viewBox="0 0 14 14"><defs><style>.cls-1{fill:#aeaeae;}</style></defs><title>search-1sousuo</title><g id="图层_2" data-name="图层 2"><g id="图层_1-2" data-name="图层 1"><path class="cls-1" d="M13.7,12.41,11.22,10a6,6,0,0,0,1.47-3.92A6.24,6.24,0,0,0,6.36,0,6.26,6.26,0,0,0,0,6.11a6.24,6.24,0,0,0,6.33,6.12,6.5,6.5,0,0,0,3.43-1l2.57,2.47a1,1,0,0,0,1.37,0,.86.86,0,0,0,.08-1.23l-.08-.08M6.33,10.52A4.48,4.48,0,0,1,1.77,6.11,4.48,4.48,0,0,1,6.33,1.74a4.48,4.48,0,0,1,4.56,4.4,4.48,4.48,0,0,1-4.56,4.38"/></g></g></svg>