<svg xmlns="http://www.w3.org/2000/svg" viewBox="0 0 16 16"><defs><style>.cls-1{fill:#aeaeae;}</style></defs><title>search-2qiu</title><g id="图层_2" data-name="图层 2"><g id="图层_1-2" data-name="图层 1"><path class="cls-1" d="M8,0a8,8,0,1,0,8,8A8,8,0,0,0,8,0ZM8,11.42a5.18,5.18,0,1,1,5.18-5.18A5.18,5.18,0,0,1,8,11.42Z"/><path class="cls-1" d="M8.23,4.92a1.93,1.93,0,0,0-1.63.89,4.37,4.37,0,0,1,.24-1.55,1.9,1.9,0,0,1,.61-.83,1.18,1.18,0,0,1,.69-.22A1.09,1.09,0,0,1,9,3.56a1.62,1.62,0,0,1,.32.71l.81-.06A1.86,1.86,0,0,0,9.49,3a1.88,1.88,0,0,0-1.3-.44A2.07,2.07,0,0,0,6.5,3.3a4.54,4.54,0,0,0-.71,2.83,3.8,3.8,0,0,0,.65,2.5,2.1,2.1,0,0,0,1.67.75,1.94,1.94,0,0,0,1.08-.29,1.9,1.9,0,0,0,.75-.83,2.58,2.58,0,0,0,.27-1.17,2.21,2.21,0,0,0-.57-1.57A1.9,1.9,0,0,0,8.23,4.92ZM9,8.28a1.14,1.14,0,0,1-.9.43,1.23,1.23,0,0,1-.68-.21,1.29,1.29,0,0,1-.51-.59,1.91,1.91,0,0,1-.18-.81,1.42,1.42,0,0,1,.39-1,1.27,1.27,0,0,1,1-.4,1.21,1.21,0,0,1,.93.4,1.52,1.52,0,0,1,.37,1.09A1.65,1.65,0,0,1,9,8.28Z"/></g></g></svg>