<svg xmlns="http://www.w3.org/2000/svg" viewBox="0 0 24.55 10"><defs><style>.cls-1{fill:#fff;}</style></defs><title>system-2dianchi</title><g id="图层_2" data-name="图层 2"><g id="图层_1-2" data-name="图层 1"><path class="cls-1" d="M22.73,3.33h.15A1.67,1.67,0,0,1,24.55,5V5a1.67,1.67,0,0,1-1.67,1.67h-.15a0,0,0,0,1,0,0V3.33a0,0,0,0,1,0,0Z"/><path class="cls-1" d="M3.82,1.67H18.18a0,0,0,0,1,0,0V8.33a0,0,0,0,1,0,0H3.82a2,2,0,0,1-2-2V3.67A2,2,0,0,1,3.82,1.67Z"/><path class="cls-1" d="M20,.83a.88.88,0,0,1,.91.84V8.33a.88.88,0,0,1-.91.84H1.82a.88.88,0,0,1-.91-.84V1.67A.88.88,0,0,1,1.82.83H20M20,0H1.82A1.75,1.75,0,0,0,0,1.67V8.33A1.75,1.75,0,0,0,1.82,10H20a1.75,1.75,0,0,0,1.82-1.67V1.67A1.75,1.75,0,0,0,20,0Z"/></g></g></svg>