<svg xmlns="http://www.w3.org/2000/svg" viewBox="0 0 177.43 260.11"><defs><style>.cls-1{fill:#f7cea6;}.cls-2{fill:#f9dab4;}.cls-3{fill:#79a348;}.cls-4{fill:#88b559;}.cls-5{fill:#f9f7f2;}.cls-6{fill:#e5be9e;}.cls-7{fill:#3f2412;}.cls-8{fill:#fff;}.cls-9{fill:#f4c7a2;}.cls-10{fill:#393c3d;}.cls-11{fill:#2c3030;}</style></defs><title>资源 2</title><g id="图层_2" data-name="图层 2"><g id="Layer_1" data-name="Layer 1"><path class="cls-1" d="M9.24,247.07a62.06,62.06,0,0,0,1.39,13H54.32V205l-39.4-2.27S11.13,230.4,9.24,247.07Z"/><path class="cls-2" d="M32.16,243.66c0-2.84,3.22-17.61.19-23.3-1.5-2.81-5.33-3.1-8.13-3s-6.4-.33-8.47,1.61a4.78,4.78,0,0,0-1.21,1.88c-1,2.83-.42,6.13-.78,9.07-1,7.84-2.81,15.49-2.82,23.45a29.3,29.3,0,0,0,1.4,6.78H32.82v-7.83c0-3.12-2.93-3.12-7.1-1.23s-4.93,1.91-4.93.57C20.79,247.55,32.16,246.51,32.16,243.66Z"/><path class="cls-3" d="M45.36,154.82S16.22,167.93,7.69,204.33c-1.12,4.75,1.43,6.82,10.4,8.58,11.5,2.26,30.93.63,30.93.63V154.82Z"/><path class="cls-4" d="M24.39,210.7s-11-.28-12.32-8.48,14.6-32.81,21-36.22,9.26-3.21,7.85,5.69-5.2,35-5.2,38.44C32.16,211.84,24.39,210.7,24.39,210.7Z"/><path class="cls-1" d="M108.89,205v55.09h43.69a62.06,62.06,0,0,0,1.39-13c-1.89-16.67-5.68-44.32-5.68-44.32Z"/><path class="cls-2" d="M148.67,220.81a4.78,4.78,0,0,0-1.21-1.88c-2.07-1.94-5.64-1.56-8.47-1.61s-6.63.23-8.13,3c-3,5.69.19,20.46.19,23.3s11.37,3.89,11.37,8c0,1.34-.76,1.33-4.93-.57s-7.1-1.89-7.1,1.23v7.83h20.48a29.3,29.3,0,0,0,1.4-6.78c0-8-1.86-15.61-2.82-23.45C149.09,226.94,149.72,223.64,148.67,220.81Z"/><path class="cls-3" d="M117.85,154.82S146.27,167.27,155,202c.39,1.55,0,6.86-8.77,9-11.45,2.87-32,2.47-32,2.47V154.82Z"/><path class="cls-4" d="M138.82,210.7s11-.28,12.32-8.48-14.59-32.81-21-36.22-9.26-3.21-7.85,5.69,5.2,35,5.2,38.44C131.05,211.84,138.82,210.7,138.82,210.7Z"/><path class="cls-3" d="M118.19,150.16c-53,0-70.37.37-70.37.37S35,214.89,35.51,260.11h94.07C129.19,236.45,127.28,182,118.19,150.16Z"/><path class="cls-4" d="M52.56,157.9a153.58,153.58,0,0,0-11.93,43c-2.15,17-6.3,43.94-1.63,59.21h87.13c1.15-7.15,1.15-16,1.15-21.7,0-10.8-4.58-72.88-13-81.27C82.21,138.67,52.56,157.9,52.56,157.9Z"/><polygon class="cls-3" points="84.59 198.99 50.51 174.01 65.16 152.35 104.02 152.35 118.67 174.01 84.59 198.99"/><polygon class="cls-1" points="60.35 162.32 84.59 198.99 108.83 162.32 60.35 162.32"/><path class="cls-2" d="M149.38,52.64,21.86,52.49s.63,29.95-1.1,43.84c-1,8-.44,14.88-.65,18-1.89,28.77,28.6,52.4,64.29,52.63s64.78-23,65-51.8a78.26,78.26,0,0,0-.45-9.55c-.25-2.43-.24-5.08-.38-8.07C148,84.58,149.38,52.64,149.38,52.64Z"/><path class="cls-5" d="M44.77,128.4a1.18,1.18,0,0,1-1.21,1.12l-3.94-.15a1.15,1.15,0,0,1-1.12-1.21h0A1.15,1.15,0,0,1,39.71,127l3.93.14a1.17,1.17,0,0,1,1.13,1.22Z"/><path class="cls-5" d="M129.53,128.94a1.17,1.17,0,0,1-1.21,1.13l-3.93-.15a1.18,1.18,0,0,1-1.13-1.21h0a1.17,1.17,0,0,1,1.21-1.13l3.94.15a1.16,1.16,0,0,1,1.12,1.21Z"/><path class="cls-2" d="M141.11,133.75a21.45,21.45,0,0,0,18-.24c9.46-4.62,14.13-23.63,1.86-28.17s-16,9.55-16,9.55Z"/><path class="cls-1" d="M146.82,128s3.89-20.82,13-13.63c5.59,4.42,2.28,10.59-2.91,13.12C153.64,129.05,149.41,129.19,146.82,128Z"/><path class="cls-6" d="M146.93,127.73l1.35-5.24s17.31-4.94,12.45,2S146.93,127.73,146.93,127.73Z"/><path class="cls-2" d="M27.08,132.56a21.45,21.45,0,0,1-18-.47c-9.41-4.75-13.83-23.82-1.51-28.2s15.92,9.76,15.92,9.76Z"/><path class="cls-1" d="M21.45,126.7s-3.63-20.86-12.82-13.79c-5.65,4.34-2.41,10.56,2.74,13.15C14.61,127.69,18.84,127.88,21.45,126.7Z"/><path class="cls-6" d="M21.34,126.46l-1.29-5.26S2.81,116,7.58,123.05,21.34,126.46,21.34,126.46Z"/><path class="cls-7" d="M127.29,104a10.42,10.42,0,1,1-14.45-2.91A10.41,10.41,0,0,1,127.29,104Z"/><path class="cls-8" d="M120.22,101.51c1,1.56-.32,4.28-3,6.08s-5.74,2-6.78.44.33-4.27,3-6.07S119.19,100,120.22,101.51Z"/><path class="cls-7" d="M61.32,101.57a10.43,10.43,0,1,1-14.46-2.91A10.43,10.43,0,0,1,61.32,101.57Z"/><path class="cls-8" d="M54.24,99.13c1,1.56-.32,4.28-3,6.08s-5.74,2-6.77.44.32-4.28,3-6.08S53.21,97.57,54.24,99.13Z"/><path class="cls-9" d="M84.7,150.38c-15.25,0-25-3.08-25.42-3.21a1.26,1.26,0,0,1,.77-2.39c.09,0,9.83,3.08,24.65,3.08a94,94,0,0,0,25-3.08,1.25,1.25,0,0,1,1.57.83,1.27,1.27,0,0,1-.83,1.57C110,147.31,100,150.38,84.7,150.38Z"/><path class="cls-10" d="M34.72,95.25l17.65-2.32a77.54,77.54,0,0,1,12.13-.48s-1.47-7.51-2.77-8.9S49,83.55,42.2,85.29,34.72,87,34.72,95.25Z"/><path class="cls-10" d="M135.47,95.25s-14.11-2-17.65-2.32c-5.37-.44-12.12-.48-12.12-.48s1.46-7.51,2.76-8.9,12.7,0,19.53,1.74S135.47,87,135.47,95.25Z"/><path class="cls-1" d="M91,122.09h0a27.33,27.33,0,0,1-1.92,2.54,16.9,16.9,0,0,1-1.78,1.81,6.5,6.5,0,0,1-1.84,1.18,1.58,1.58,0,0,1-.68.12,3.46,3.46,0,0,1-1.65-.51,10.5,10.5,0,0,1-2.7-2.38,15.34,15.34,0,0,1-2-3,.89.89,0,0,0-1.18-.4.88.88,0,0,0-.4,1.18,17.08,17.08,0,0,0,3.23,4.45,10.75,10.75,0,0,0,2.2,1.72,5.29,5.29,0,0,0,2.51.74,3.67,3.67,0,0,0,1.33-.24,8.51,8.51,0,0,0,2.42-1.55,22.1,22.1,0,0,0,2.81-3.06c.71-.92,1.15-1.61,1.16-1.63a.88.88,0,0,0-1.49-1Z"/><path class="cls-11" d="M144.11,56.83l14.37,1.8c-2,10.71-2.59,28.2-2.93,45.84-4.17.94-9.09,5.92-9.55,16.39l-4.78,1.37C141.11,90.43,144.11,56.83,144.11,56.83Z"/><path class="cls-10" d="M149.47,2.87c-16.32-1.25-21.86,6.74-21.86,6.74S117.63,0,82,0C61.28,0,18.9,1.59,9.88,36.66c-1.66,6.45,1.38,45.21,3.27,66.44,4.1.57,9.1,5.59,8.56,17.45l6,1.68c0-18.17-.67-30.25-1.44-49.84,0,0,22.45,10.45,58.13,9.68,37.61-.82,54.3-3.2,79.72-18.41,10.6-6.35,16.87-23.41,11.05-41.84C175.21,21.82,168.91,4.36,149.47,2.87Z"/></g></g></svg>