<svg xmlns="http://www.w3.org/2000/svg" viewBox="0 0 188.92 260.28"><defs><style>.cls-1{fill:#f4efed;}.cls-2{fill:#c65044;}.cls-3{fill:#e2dcd9;}.cls-4{fill:#3f3e3d;}.cls-5{fill:#302f2d;}.cls-6{fill:#ea9628;}.cls-7{fill:#e08a22;}.cls-8{fill:#f4d3b0;}.cls-9{fill:#f9dab4;}.cls-10{fill:#efc4a0;}</style></defs><title>资源 70</title><g id="图层_2" data-name="图层 2"><g id="Layer_1" data-name="Layer 1"><rect class="cls-1" x="59.89" y="158.75" width="52.78" height="101.53"/><rect class="cls-2" x="82.22" y="162.71" width="9.22" height="10.78" rx="2.08"/><polygon class="cls-2" points="84.04 172.45 73.9 238.76 87.17 248.36 99.98 238.38 89.4 172.45 84.04 172.45"/><polygon class="cls-3" points="61.8 160.15 64.48 182.47 86.85 168.1 109.51 182.47 110.82 160.05 61.8 160.15"/><path class="cls-4" d="M115.93,160.09l-1.41,0c-1.71.38-2.06,1.24-2.11,1.8-6,26.58-25.75,51.82-25.75,51.82-11.28-15.14-21.94-40.59-27-53.62l-1.41,0c-11.45,0-18,16.84-26.21,32.58-7.27,14-12.45,26.75-12.23,34,.28,9.44,6.31,23.83,10.93,33.56h112.7c4.62-9.73,10.65-24.12,10.93-33.56.22-7.26-5-20-12.23-34C134,176.93,127.38,160.09,115.93,160.09Z"/><polygon class="cls-5" points="47.7 260.25 47.7 199.53 44.39 260.25 47.7 260.25"/><polygon class="cls-5" points="126.48 199.53 126.48 260.25 129.78 260.25 126.48 199.53"/><circle class="cls-5" cx="86.68" cy="229.28" r="4.15"/><path class="cls-5" d="M82.53,248.36a4.15,4.15,0,1,0,4.15-4.15A4.14,4.14,0,0,0,82.53,248.36Z"/><path class="cls-5" d="M93,204.74h0c6-9.23,14.74-24.44,18.85-40.4h0l10.55,19.84Z"/><path class="cls-5" d="M61.53,164.88c4.43,11,11.4,27,19.14,39.86L51.28,184.17Z"/><path class="cls-6" d="M153,124.51S193.69,86.59,188.45,73C164,9.62,115.18-1.49,80.92.15,62.72,1,52.56,3.59,44.32,7.62,30.14,14.53,2.59,40,.22,53.67s15.14,59,15.14,59Z"/><path class="cls-7" d="M24.17,87.54S13,69.07,19.07,51.06c5.11-15.14,29.53-35.17,81.69-21.27,84.41,22.49,71.44,52.1,68.61,56.92-6.6,11.25-25.93,20.91-25.93,20.91Z"/><path class="cls-8" d="M25.46,110.76s-7.08-7.07-14.39,0,2.68,28.3,28.54,30.5Z"/><path class="cls-8" d="M150.91,110.76s7.07-7.07,14.39,0-2.68,28.3-28.54,30.5Z"/><path class="cls-9" d="M88.71,167.3h-1.3A64.32,64.32,0,0,1,23.09,103V89.53a7.82,7.82,0,0,1,7.81-7.82H64a34.15,34.15,0,0,1,17.79,5l2,1.19a8.39,8.39,0,0,0,8.62.07L95,86.45a34.11,34.11,0,0,1,17.34-4.74h32.91A7.82,7.82,0,0,1,153,89.53V103A64.33,64.33,0,0,1,88.71,167.3Z"/><path class="cls-10" d="M80.41,135.6s2.58-7.45,10.89-1.72C91.3,133.88,84.52,131.4,80.41,135.6Z"/><path class="cls-10" d="M88,154.35q-3,0-6.3-.24a105.76,105.76,0,0,1-21.32-3.84,1.32,1.32,0,0,1-.87-1.65,1.33,1.33,0,0,1,1.65-.88c.37.12,37.05,11.25,54.28-4.42a1.32,1.32,0,0,1,1.78,2C110.67,151.26,100.65,154.35,88,154.35Z"/><path class="cls-10" d="M121.37,144.5a1.32,1.32,0,0,1-1.29-1.05c-.28-1.32-.76-2.12-1.44-2.39-1.16-.45-3,.55-3.36.84a1.32,1.32,0,0,1-1.52-2.16c.32-.22,3.21-2.17,5.84-1.14,1.56.61,2.59,2.06,3.07,4.3a1.33,1.33,0,0,1-1.3,1.6Z"/><path class="cls-4" d="M77.49,106.16c0,8.7-8.89,15.76-19.86,15.76s-19.85-7.06-19.85-15.76S77.49,97.46,77.49,106.16Z"/><rect class="cls-4" x="23.09" y="104.2" width="129.95" height="4.11"/><path class="cls-4" d="M138.27,106.16c0,8.7-8.89,15.76-19.86,15.76s-19.85-7.06-19.85-15.76S138.27,97.46,138.27,106.16Z"/></g></g></svg>