<?xml version="1.0" standalone="no"?><!DOCTYPE svg PUBLIC "-//W3C//DTD SVG 1.1//EN" "http://www.w3.org/Graphics/SVG/1.1/DTD/svg11.dtd"><svg t="1548742628312" class="icon" style="" viewBox="0 0 1025 1024" version="1.1" xmlns="http://www.w3.org/2000/svg" p-id="4474" xmlns:xlink="http://www.w3.org/1999/xlink" width="200.1953125" height="200"><defs><style type="text/css"></style></defs><path d="M113.088 493.653l35.136-0.192v121.856c0 8.256-0.832 17.088-2.56 26.368-1.728 9.28-9.984 14.016-24.64 14.016h-42.304v-30.208l21.312 0.32c4.48 0 7.808-1.216 9.856-3.84 2.112-2.56 3.2-7.808 3.2-15.808v-112.512zM302.656 447.893v30.144h-222.464v-30.144h222.464zM266.432 493.653v112.512c0 8 1.024 13.248 3.008 15.872 1.984 2.496 5.312 3.84 9.92 3.84h22.208v29.888h-43.2c-14.72 0-22.976-4.736-24.576-14.208-1.583-8.111-2.492-17.442-2.498-26.983l0.002-121.113 35.136 0.192zM514.816 432.405l16.768 35.2c1.206 2.957 3.347 5.326 6.049 6.791 0.058-0.228 2.125 0.279 4.31 0.279 0.318 0 0.634-0.011 0.947-0.032l7.702 0.002v26.368h-18.496c-0.452 0.022-0.981 0.035-1.514 0.035-4.73 0-9.226-1.002-13.287-2.806-4.763-3.020-8.46-7.768-10.149-13.386l-14.539-25.7h-99.968l-23.040 32.064c-4.284 5.691-10.248 9.913-17.15 11.944 2.249-1.055-1.724-0.348-5.863-0.348-0.82 0-1.634-0.028-2.44-0.083l-13.843 0.006v-28.16h4.416c3.456 0 6.464-0.704 8.96-2.176s5.824-5.568 9.984-12.352l16.768-27.712h144.384zM550.080 514.645v25.984h-218.56v-25.984h218.56zM545.536 558.229v63.808c0.033 0.669 0.051 1.454 0.051 2.243 0 7.928-1.887 15.415-5.236 22.037-2.368 5.417-10.752 8.169-25.024 8.169h-179.776v-96.256h209.984zM370.432 584.213v39.936h131.776c5.376 0 8-2.752 8-8.32v-31.616h-139.776zM625.216 516.181h-26.24c-0.172 0.008-0.374 0.012-0.577 0.012-3.424 0-6.558-1.239-8.979-3.293-2.54-2.095-4.204-5.743-5.164-10.927-0.851-4.39-1.342-9.442-1.349-14.608l0.005-12.848h26.624v9.92c0 3.648 0.32 5.888 1.216 6.848 0.832 0.896 2.496 1.344 4.992 1.344h9.408v23.552zM583.040 465.493v-27.008h100.16c0.221 0.016 0.478 0.026 0.737 0.026 1.866 0 3.619-0.484 5.14-1.333 1.162-0.741 1.61-2.597 1.61-5.413v-2.88h28.544v11.776c0.005 0.217 0.008 0.472 0.008 0.728 0 5.086-1.087 9.918-3.040 14.277-1.811 3.92-5.144 7.131-9.262 8.826-0.634 0.361-7.162 1.001-17.274 1.001h-106.624zM583.040 531.221h54.208v-10.496h29.504v10.496h53.696v28.096h-53.696v96.896h-29.504v-96.896h-54.208v-28.096zM583.040 658.005v-25.216h3.776c0.32 0.021 0.693 0.033 1.069 0.033 1.787 0 3.511-0.269 5.134-0.77 0.901-0.351 1.861-1.503 2.949-3.423 1.858-4.665 3.014-10.064 3.191-15.711l6.857-44.321h26.944l-8.384 55.552c-2.56 16.64-5.888 26.432-10.112 29.376-4.16 2.944-10.752 4.48-19.904 4.48h-11.52zM672.768 516.181h-24.448c-8.128 0-12.864-3.52-14.272-10.496-1.31-6.065-2.076-13.043-2.11-20.195l0.062-10.973h24.96v11.264c0 3.52 0.384 5.76 1.152 6.656 0.96 0.96 2.624 1.472 5.12 1.472h9.536v22.272zM720.448 656.213h-16.704c-0.037 0-0.081 0-0.124 0-5.618 0-10.845-1.672-15.212-4.545-4.568-2.879-7.768-11.327-9.176-25.023l-6.528-59.904h27.136l6.080 48.96c1.024 7.424 2.112 11.904 3.84 13.248s3.904 1.984 6.784 1.984h3.904v25.28zM680.448 515.221v-22.528h8.448c2.368 0 3.968-0.512 4.864-1.344 1.024-0.96 1.344-3.904 1.344-9.024v-7.808h25.024v18.176c0 15.104-5.248 22.592-15.936 22.592h-23.744z" fill="#000000" p-id="4475"></path><path d="M155.584 400.085c0 17.814 14.442 32.256 32.256 32.256s32.256-14.442 32.256-32.256c0-17.814-14.442-32.256-32.256-32.256-17.814 0-32.256 14.442-32.256 32.256z" fill="#000000" p-id="4476"></path><path d="M224 296.405c0 0 0 0 0 0 0 23.753 19.255 43.008 43.008 43.008 23.753 0 43.008-19.255 43.008-43.008 0-0 0-0 0-0 0-23.753-19.255-43.008-43.008-43.008-23.753 0-43.008 19.255-43.008 43.008z" fill="#000000" p-id="4477"></path><path d="M360.704 207.893c0 25.202 20.43 45.632 45.632 45.632s45.632-20.43 45.632-45.632c0-0 0-0 0-0 0-25.202-20.43-45.632-45.632-45.632-25.202 0-45.632 20.43-45.632 45.632 0 0 0 0 0 0z" fill="#000000" p-id="4478"></path><path d="M520.384 179.733c0 29.090 23.582 52.672 52.672 52.672s52.672-23.582 52.672-52.672c0-0 0-0 0-0 0-29.090-23.582-52.672-52.672-52.672-29.090 0-52.672 23.582-52.672 52.672 0 0 0 0 0 0z" fill="#000000" p-id="4479"></path><path d="M694.080 211.285c-0 0-0 0-0 0 0 30.999 25.129 56.128 56.128 56.128 30.999 0 56.128-25.129 56.128-56.128 0-0 0-0 0-0 0-0 0-0 0-0 0-30.999-25.129-56.128-56.128-56.128-30.999 0-56.128 25.129-56.128 56.128 0 0 0 0 0 0z" fill="#000000" p-id="4480"></path><path d="M841.408 326.293c-0 0-0 0-0 0 0 32.483 26.333 58.816 58.816 58.816 32.483 0 58.816-26.333 58.816-58.816 0-0 0-0 0-0 0-32.483-26.333-58.816-58.816-58.816-32.483 0-58.816 26.333-58.816 58.816z" fill="#000000" p-id="4481"></path><path d="M857.344 385.045l-127.68 135.552 52.992 45.184-52.224 81.792 110.912-95.744-51.776-41.92zM879.296 551.829l-167.68 133.248 62.272 49.792-122.24 204.8 189.696-210.624-56.896-47.552zM1.024 671.125h693.056v13.952h-693.056z" fill="#000000" p-id="4482"></path><path d="M816.96 649.792h208.832v13.952h-208.832z" fill="#000000" p-id="4483"></path><path d="M59.904 712.341h40.768l31.488 65.344 30.784-65.536h40.32v98.432h-23.808v-72.192h-1.856l-36.032 72.192h-20.672l-35.328-72.192h-1.92v72.256h-23.744v-98.304zM268.544 710.677h35.84l48 99.648h-26.752l-9.536-19.712h-58.56l-9.152 19.776h-27.072l47.232-99.712zM266.496 771.861h40.64l-20.16-42.176-20.48 42.176zM369.6 713.365h75.328c0.601-0.031 1.305-0.049 2.012-0.049 5.642 0 11.022 1.123 15.927 3.158 4.326 2.127 7.852 5.972 9.614 10.679 1.218 1.966 2.686 7.015 3.010 12.373-0.060-1.265 0.255 2.795 0.255 6.928 0 4.429-0.362 8.773-1.057 13.005-0.424 2.826-1.759 5.737-3.71 8.124-0.879 1.16-3.456 2.964-6.439 3.798l-3.74 2.466c2.56 1.472 4.672 2.88 6.336 3.968 3.716 2.635 6.387 6.533 7.394 11.057-0.034-0.433 0.286 1.167 0.286 2.255v19.584h-24.576v-11.136c0.006-0.16 0.009-0.348 0.009-0.537 0-2.33-0.498-4.544-1.394-6.541-1.288-2.41-3.399-4.358-5.964-5.447-0.010-0.302-2.229-1.044-4.622-1.044l-45.182 0v24.832h-23.488v-97.472zM393.088 735.957v27.584h42.88c4.288 0 7.168-0.384 8.704-1.088s2.688-1.6 3.584-2.816 1.408-3.84 1.6-7.936-0.384-7.36-1.728-9.728c-1.451-2.397-3.64-4.222-6.248-5.179-0.171-0.176-2.616-0.802-5.207-0.802-0.338 0-0.674 0.011-1.006 0.032l-42.579-0.002zM497.024 712.405h23.68v36.736h15.424l37.504-36.736h32.192l-46.656 47.424 52.352 50.88h-34.24l-41.6-39.104h-14.976v39.104h-23.68v-98.304z" fill="#000000" p-id="4484"></path><path d="M853.888 712.085h23.68v97.92h-23.68v-97.92zM898.624 810.581l38.912-49.024-39.36-49.28h30.144l29.44 36.48 29.632-36.608h30.080l-39.744 49.728 39.936 49.344h-30.272l-29.632-36.864-29.184 36.096h-29.952z" fill="#000000" p-id="4485"></path></svg>