<svg xmlns="http://www.w3.org/2000/svg" viewBox="0 0 169.61 260.08"><defs><style>.cls-1{fill:#754737;}.cls-2{fill:#593227;}.cls-3{fill:#e58683;}.cls-4{fill:#dd7878;}.cls-5{fill:#d36363;}.cls-6{fill:#f7cea6;}.cls-7{fill:#f9dab4;}.cls-8{fill:#472d1c;}.cls-9{fill:#4c2f1b;}.cls-10{fill:#fff;}.cls-11{fill:#dd2626;}.cls-12{fill:#e0605c;}.cls-13{fill:#2f3233;}.cls-14{fill:#ffc55f;}</style></defs><title>资源 213</title><g id="图层_2" data-name="图层 2"><g id="Layer_1" data-name="Layer 1"><path class="cls-1" d="M4.57,202.32H158.18s9.47-60.37,8.35-93.95-.86-92.65-31.29-84.29c-11.11-28.81-95.17-42-125.6,20.29C-3.4,72.62-1.23,181.31,4.57,202.32Z"/><path class="cls-2" d="M148.76,76.46s3.71-7.76,3.39-20.89c0,0,3.82,18.58-1.63,29.74Z"/><path class="cls-2" d="M14.87,101.49s-3.29-21.32,4-33.88c0,0-3.74,24.51-.6,30.91Z"/><path class="cls-2" d="M135.24,24.08C131.34,14,118.45,5.77,102,2.1c0,0,6.82,3,10.25,6.46l-9.78.12,15.1,3.86-7.31,7.31,11.41-3.2-4.1,12.92,14.73-4.47,8.45,17.15,1.9-13.37a76.6,76.6,0,0,1,16.86,13C155.19,28.74,147.85,20.61,135.24,24.08Z"/><path class="cls-2" d="M34.25,202.32H38.5c-3.15-8.2-6.09-31.22-6.09-31.22C31.54,178.89,33.53,196.45,34.25,202.32Zm-18.61,0h6C17.22,193.05,13,165.07,13,165.07,11.8,174.44,14.71,195.86,15.64,202.32Zm135.11-37.85s-2.94,28.62-7,37.85h6.06C150.39,196.54,152.45,174.05,150.75,164.47ZM127.2,202.32h4.1c.46-6.22,1.57-23.33.37-30.91C131.67,171.41,129.88,193.56,127.2,202.32Z"/><path class="cls-3" d="M39,184.71c-5.8,23.19-14.41,62.09-13.84,72.55a8.58,8.58,0,0,0,.65,2.82H49.51a23.41,23.41,0,0,0,1.64-6.17l22.9-103.34-20.61-1.93S44.75,161.52,39,184.71Z"/><path class="cls-4" d="M53.44,148.64S48.77,155.57,44,168.4h0c1.39-2,9.2-7.17,6.92,6.93s-4.88,56.34-5.7,64.29c-.7,6.73-5.16,18.9-11,18.9-9.72,0-7.7-6.29-7.62-16.46-1.09,6.74-1.7,12.17-1.53,15.2a8.58,8.58,0,0,0,.65,2.82H49.51a23.41,23.41,0,0,0,1.64-6.17l17.38-78.44L67,149.91Z"/><path class="cls-3" d="M129,184.71c5.79,23.19,14.41,62.09,13.84,72.55a8.86,8.86,0,0,1-.66,2.82H118.46a23.43,23.43,0,0,1-1.63-6.17L93.92,150.57l20.61-1.93S123.23,161.52,129,184.71Z"/><path class="cls-4" d="M114.53,148.64s4.68,6.93,9.45,19.76h0c-1.38-2-9.19-7.17-6.91,6.93s4.87,56.34,5.7,64.29c.69,6.73,5.15,18.9,11,18.9,9.72,0,7.69-6.29,7.62-16.46,1.08,6.74,1.69,12.17,1.53,15.2a8.86,8.86,0,0,1-.66,2.82H118.46a23.43,23.43,0,0,1-1.63-6.17L99.44,175.47,101,149.91Z"/><path class="cls-5" d="M59.88,149.61v67.95H107.7V149.13S84,130.61,59.88,149.61Z"/><path class="cls-3" d="M82.91,205.48C65.36,192.76,62.46,159.27,62.46,148l-4.83.32s-9,78.92-9.63,111.76h70.69c-.79-15.76-5.13-99.32-9.21-112.73H105S106.9,187.61,82.91,205.48Z"/><path class="cls-6" d="M97.56,160.72c0,7.2-6.13,13-13.69,13s-13.68-5.84-13.68-13,6.12-13,13.68-13S97.56,153.52,97.56,160.72Z"/><path class="cls-7" d="M134.22,57.66c3.48,3.27,18.25,21.09,18.25,21.09a86.1,86.1,0,0,1,.64,10.48c0,42.42-31.14,76.8-69.56,76.8-35.75,0-65.21-29.78-69.12-68.1,0,0,55.23-8.46,72.87-31.77,0,0,.72,5-6.41,14.13,0,0,31.28-14.13,36.84-34.3C117.73,46,130.75,54.38,134.22,57.66Z"/><path class="cls-6" d="M153.11,89.23a86.1,86.1,0,0,0-.64-10.48l-1.91-2.29c-.3,6.4-1.13,21.31-2.44,27.74,0,0-1.93,12.88-6,20.45s-18.67,30.27-44.44,37.2S54.09,157.5,44.1,149.61c-9.74-7.7-25.93-34-24.6-52.59-3.18.62-5.07.91-5.07.91C18.34,136.25,47.8,166,83.55,166,122,166,153.11,131.65,153.11,89.23Z"/><path class="cls-7" d="M148.12,104.2c7.25,11.11,17.55,6.76,20.61-5s-2.25-21.9-10-22.87-12.88,12.73-12.88,12.73A26.41,26.41,0,0,0,148.12,104.2Z"/><path class="cls-6" d="M159.51,99.42c-.06,0-4.84-1.37-6.43-5.43h0a.72.72,0,0,1,0-.61h0c2.38-4.3,4.94-5.61,7-5.6h0A5.21,5.21,0,0,1,163.43,89h0a.72.72,0,0,1,0,1h0a.74.74,0,0,1-1,0h0l0,0h0L162.3,90h0a3.81,3.81,0,0,0-.48-.3h0a3.51,3.51,0,0,0-1.72-.44h0c-1.35,0-3.32.75-5.54,4.56h0c1,2.19,3.46,3.5,4.69,4h0a6,6,0,0,0,.67.25h0a.74.74,0,0,1,.49.9h0a.73.73,0,0,1-.7.52h0a.69.69,0,0,1-.2,0Z"/><path class="cls-6" d="M160.46,107c-6,2.19-12.34-2.81-12.34-2.81l1.71,2.27c7.07,8.12,16.08,3.6,18.9-7.26,3.06-11.76-2.25-21.9-10-22.87-3.27-.4-6.08,1.81-8.23,4.5h0c5.94-3.88,13.55-2.11,15.8,4.52S166.42,104.81,160.46,107Z"/><path class="cls-6" d="M75.49,119.3a.94.94,0,0,1-.55-1.27h0a14.15,14.15,0,0,1,2.29-3.38h0a9.72,9.72,0,0,1,7.18-3.49h0a9,9,0,0,1,7,3.52h0a13.5,13.5,0,0,1,2,3.41h0a1,1,0,0,1-.64,1.23h0a1.06,1.06,0,0,1-1.32-.59h0a2.13,2.13,0,0,0-.09-.23h0c-.07-.15-.17-.38-.31-.65h0a11.74,11.74,0,0,0-1.31-2h0a6.81,6.81,0,0,0-5.32-2.76h0a7.21,7.21,0,0,0-5.08,2.26h0a13,13,0,0,0-2.38,3.2h0l-.11.23h0a1,1,0,0,1-1,.59h0a1.1,1.1,0,0,1-.4-.08Z"/><path class="cls-8" d="M112.23,74.75s11.34-1.48,20.59,2.87c0,0-6.46-11-16.44-13.45C116.38,64.17,113,65.73,112.23,74.75Z"/><path class="cls-9" d="M135.35,86.79A9.87,9.87,0,0,1,130.82,93a13.62,13.62,0,0,0-.33-2.33C135.94,86,132.67,79,132.67,79c.37,5.55-1.52,8.06-3,9.17a11.23,11.23,0,0,0-10.08-6.75c-6.23,0-11.29,5.48-11.29,12.24s5.06,12.24,11.29,12.24c5.66,0,10.33-4.51,11.15-10.4C135.49,93,135.35,86.79,135.35,86.79Z"/><path class="cls-10" d="M127,88.13c-.38,1.83-3.14,2.73-6.17,2s-5.18-2.81-4.8-4.64,3.13-2.73,6.16-2S127.38,86.3,127,88.13Z"/><path class="cls-9" d="M53.85,105.92c5.11,0,9.34-4.51,10.08-10.4,4.32-2.49,4.19-8.73,4.19-8.73A9.84,9.84,0,0,1,64,93a14.69,14.69,0,0,0-.31-2.33A9.62,9.62,0,0,0,66.46,82l-.83.41C65.25,85.66,64,87.34,63,88.19a11.92,11.92,0,0,0-2.22-3.51,166.32,166.32,0,0,1-16.83,6.21,14.19,14.19,0,0,0-.27,2.79C43.64,100.44,48.21,105.92,53.85,105.92Z"/><path class="cls-10" d="M55,90.12c2.74.74,5.23-.16,5.57-2a3.32,3.32,0,0,0-1.16-2.88c-2.54,1.08-5.12,2.09-7.69,3A7.05,7.05,0,0,0,55,90.12Z"/><path class="cls-6" d="M41.77,113.26c0,1-1.73,1.81-3.87,1.81S34,114.26,34,113.26s1.73-1.81,3.86-1.81S41.77,112.26,41.77,113.26Z"/><path class="cls-6" d="M136.84,113.26c0,1-1.73,1.81-3.86,1.81s-3.87-.81-3.87-1.81,1.73-1.81,3.87-1.81S136.84,112.26,136.84,113.26Z"/><path class="cls-11" d="M101.86,134.49a7.08,7.08,0,0,0-2.59-1.16c-4-1.26-5-4.9-7.83-4s-4.86,5.28-7.47,3.08-3.84-3.71-7.22-.94c-2.81,2.3-7.23,1.38-8,2.6a1,1,0,0,0,0,.78,1.45,1.45,0,0,0,.07.26,61.74,61.74,0,0,0,33,0,.74.74,0,0,0,.15-.08C102,134.92,102.12,134.75,101.86,134.49Z"/><path class="cls-12" d="M85.76,142.88c5.42,0,10.14,2.21,12.72,5.49a22.09,22.09,0,0,0,3.46-12c0-.46,0-.9-.06-1.34a.74.74,0,0,1-.15.08,61.74,61.74,0,0,1-33,0,1.45,1.45,0,0,1-.07-.26c0,.5-.07,1-.07,1.52a22,22,0,0,0,3.91,12.71C75,145.4,80,142.88,85.76,142.88Z"/><path class="cls-11" d="M85.28,156.11c5.39,0,10.16-3,13.2-7.74-2.58-3.28-7.3-5.49-12.72-5.49-5.78,0-10.78,2.52-13.22,6.18A15.73,15.73,0,0,0,85.28,156.11Z"/><path class="cls-13" d="M128.46,23c-32.56,0-38.85,6.73-38.85,6.73H79.74S73.45,23,40.88,23c-23.66,0-25.4.86-25.4,3,0,3.69.16,7.11.16,7.11s4.62,2.22,6.14,8.73.87,24.75,25.83,25.4c14.76,0,23-3.69,27.46-12.7a103,103,0,0,0,5.87-13.67,3.89,3.89,0,0,1,7.47,0,101.74,101.74,0,0,0,5.86,13.67c4.45,9,12.7,12.7,27.46,12.7,25-.65,24.32-18.88,25.84-25.4s6.13-8.73,6.13-8.73.17-3.42.17-7.11C153.87,23.87,152.13,23,128.46,23Z"/><path class="cls-14" d="M132.81,28.43s-14.55-1.95-28.66,2c-8.36,2.6-11.07,6.73-7.6,16.28s8.93,16.95,25.07,16.61,20.41-8,21-18.46C143.12,35.71,143.88,29.52,132.81,28.43Z"/><path class="cls-10" d="M143.88,30.06a1.19,1.19,0,0,0,1.19,1.2h4.45a1.2,1.2,0,0,0,1.2-1.2h0a1.19,1.19,0,0,0-1.2-1.19h-4.45a1.19,1.19,0,0,0-1.19,1.19Z"/><path class="cls-14" d="M36.54,28.43s14.54-1.95,28.66,2c8.35,2.6,11.07,6.73,7.59,16.28S63.87,63.62,47.72,63.28s-20.41-8-20.95-18.46C26.23,35.71,25.47,29.52,36.54,28.43Z"/><path class="cls-10" d="M25.47,30.06a1.2,1.2,0,0,1-1.2,1.2H19.82a1.19,1.19,0,0,1-1.19-1.2h0a1.19,1.19,0,0,1,1.19-1.19h4.45a1.19,1.19,0,0,1,1.2,1.19Z"/><path class="cls-10" d="M65.2,30.39,65,30.33,45.1,63.15c.68.05,1.39.09,2.12.11l20.36-32C66.84,30.94,66.05,30.65,65.2,30.39Zm-8.13-1.67L37.22,61.53a24.8,24.8,0,0,0,4.26,1.16l21.37-32.9C60.9,29.34,59,29,57.07,28.72Z"/><path class="cls-10" d="M138.75,30,119.37,63.27c.73,0,1.47,0,2.25,0h0l19.3-31.57A7.28,7.28,0,0,0,138.75,30Zm-5.94-1.56s-.73-.09-2-.2L111.09,62.08a29.69,29.69,0,0,0,4.53.92l21.11-33.83A20.14,20.14,0,0,0,132.81,28.43Z"/></g></g></svg>