<svg xmlns="http://www.w3.org/2000/svg" viewBox="0 0 142.12 260.01"><defs><style>.cls-1{fill:#f9dab4;}.cls-2{fill:#ad281e;}.cls-3{fill:#f9f5ed;}.cls-4{fill:#bf4c43;}.cls-5{fill:#f4d3b0;}.cls-6{fill:#3a2b1b;}.cls-7{fill:#3a332d;}.cls-8{fill:#e8dfd9;}.cls-9{fill:#efc4a0;}.cls-10{fill:#492020;}.cls-11{fill:#c65044;}.cls-12{fill:#2d2d2d;}</style></defs><title>资源 329</title><g id="图层_2" data-name="图层 2"><g id="Layer_1" data-name="Layer 1"><path class="cls-1" d="M4.47,259.44h23l.39-2.68a139.5,139.5,0,0,1-22.21-9.4C5.13,252,4.74,256.08,4.47,259.44Z"/><path class="cls-2" d="M43.1,149.41l-5.05-.52S4.5,206.72,0,248.64c0,0,7.1,10.89,24.87,11.37Z"/><path class="cls-3" d="M21.38,183.69a8.19,8.19,0,0,0-.85-.23c-3.07,6.76-6.18,14.13-9,21.74a8.29,8.29,0,0,0,.88.49c4.9,2,10.89-1.28,13.39-7.36S26.28,185.71,21.38,183.69Z"/><path class="cls-1" d="M137.65,259.44h-23l-.39-2.68a139.11,139.11,0,0,0,22.21-9.4C137,252,137.38,256.08,137.65,259.44Z"/><path class="cls-2" d="M99,149.41l5-.52s33.55,57.83,38.05,99.75c0,0-7.1,10.89-24.87,11.37Z"/><path class="cls-3" d="M120.74,183.69a8.19,8.19,0,0,1,.85-.23c3.07,6.76,6.18,14.13,9,21.74a8.29,8.29,0,0,1-.88.49c-4.9,2-10.89-1.28-13.39-7.36S115.84,185.71,120.74,183.69Z"/><path class="cls-4" d="M71,142.41c-31.13,0-33.58,6.48-33.58,6.48a138.44,138.44,0,0,1-5.56,30.67C23,210.14,21.71,244.24,21.62,259.44h98.79c-.08-15.2-1.36-49.3-10.25-79.88a138.44,138.44,0,0,1-5.56-30.67S102.15,142.41,71,142.41Z"/><path class="cls-3" d="M78.85,229.35c13.72-1,26.43-4.59,39.2-9.08-.83-7-1.93-14.49-3.39-22-12.55,3.8-25,7.37-38.12,7.55-16.89.22-33.53-1.52-49.11-7.83-1.78,9-3,18-3.89,26.31C41.81,226.84,60.37,230.65,78.85,229.35Z"/><path class="cls-4" d="M72.32,0h0L71.24,0H70.8L69.72,0h0C29.88.74.37,29.08.37,64a60.46,60.46,0,0,0,.91,10.39l4.17,47.86h35.9a78.62,78.62,0,0,0,28.37,5.67v0l1.08,0h.44l1.08,0v0a78.52,78.52,0,0,0,28.36-5.67h35.91l4.17-47.86A60.46,60.46,0,0,0,141.67,64C141.67,29.08,112.16.74,72.32,0Z"/><path class="cls-5" d="M22,115S14.7,106,6.59,110.2s3.12,31.36,19.14,33.58Z"/><path class="cls-5" d="M120.05,115s7.28-8.95,15.4-4.79-3.12,31.36-19.14,33.58Z"/><path class="cls-1" d="M88,60,71,59.93,54.08,60c-16.53.15-27.89,5.19-35.39,10.64v58.5a25.86,25.86,0,0,0,10.13,20.56S45.17,161.5,71,161.07s42.2-11.33,42.2-11.33a25.86,25.86,0,0,0,10.13-20.56V70.68C115.85,65.23,104.49,60.19,88,60Z"/><path class="cls-6" d="M25.26,95.13s12.38-.26,22.21,3.19V96.21c0-2.58-2.94-5.09-9.42-6.6s-10.73-.2-11.74,2.6Z"/><path class="cls-7" d="M43.56,108a6.76,6.76,0,1,1-6.75-6.76A6.75,6.75,0,0,1,43.56,108Z"/><path class="cls-8" d="M37.93,103.28c.16.82-.85,1.71-2.26,2s-2.69-.14-2.85-1,.84-1.71,2.25-2S37.76,102.46,37.93,103.28Z"/><path class="cls-6" d="M116.78,95s-12.38-.12-22.17,3.43v-2.1c0-2.59,2.88-5.12,9.34-6.71s10.73-.32,11.76,2.48Z"/><path class="cls-7" d="M112,108a6.76,6.76,0,1,1-6.76-6.76A6.75,6.75,0,0,1,112,108Z"/><path class="cls-8" d="M106.33,103.28c.16.82-.84,1.71-2.26,2s-2.68-.14-2.85-1,.85-1.71,2.26-2S106.17,102.46,106.33,103.28Z"/><path class="cls-9" d="M82,121.13s-2.5-8-10.54-8.51S60,122.41,60,122.41s5-7.64,11.43-6.93S82,121.13,82,121.13Z"/><path class="cls-10" d="M49.8,131.16H92.24s.72,20-21.22,20.29S49.8,131.16,49.8,131.16Z"/><path class="cls-11" d="M58.93,148.7A22.92,22.92,0,0,0,71,151.45a24,24,0,0,0,12-3c-1-7-6-12.29-12-12.29S59.88,141.59,58.93,148.7Z"/><path class="cls-6" d="M18.73,71.26S27,84.69,49.47,89.06s-4-7.61-4-7.61S63.71,90.16,75.68,90,71.8,84.2,71.8,84.2s14.56,5.18,18.28,2.59S89,82.58,89,82.58s10.51,6.8,18.28,6.15-3.88-6-3.88-6,18.11,10.19,23.29,5.33S123.73,58.8,102.7,55.24,16.79,44.89,18.73,71.26Z"/><path class="cls-12" d="M72.37,165.75h-2.7c-47.23,0-54.54-11.86-55.14-52.68a1.89,1.89,0,0,1,.63-1.44,2,2,0,0,1,1.49-.48c.35,0,35,4.16,54.39,4.37h1.34c19.57,0,52.65-4.33,53-4.37a1.84,1.84,0,0,1,1.51.46,1.88,1.88,0,0,1,.64,1.45C126.91,153.89,119.6,165.75,72.37,165.75ZM71,162h1.36c43.82,0,50.52-9.47,51.3-46.74-7.76,1-34.42,4.12-51.29,4.12H71c-16.77-.18-44.69-3.23-52.63-4.14.77,37.3,7.47,46.77,51.3,46.77Z"/><path class="cls-12" d="M51.38,162.56V116.45c-1.26-.12-2.53-.2-3.8-.25v46A37,37,0,0,1,51.38,162.56Z"/><path class="cls-12" d="M94.46,162.58V116.34c-1.27.1-2.54.11-3.81.22v46.15C91.92,162.6,93.19,162.57,94.46,162.58Z"/><path class="cls-3" d="M83.57,1A84,84,0,0,0,72.32,0h0L71.24,0H70.8L69.72,0h0A83.9,83.9,0,0,0,58.47,1V41.62h25.1Z"/><path class="cls-3" d="M13.41,26.48,22.72,47.4l16.41-7.3L27.24,13.4A65.7,65.7,0,0,0,13.41,26.48Z"/><path class="cls-3" d="M114.79,13.4,102.91,40.1l16.4,7.3,9.32-20.92A65.76,65.76,0,0,0,114.79,13.4Z"/><path class="cls-3" d="M11.38,78.58a15.11,15.11,0,0,0-11-14.53,60.53,60.53,0,0,0,.9,10.31L2.83,92.17A15.09,15.09,0,0,0,11.38,78.58Z"/><path class="cls-3" d="M130.65,78.58a15.08,15.08,0,0,0,8.56,13.59l1.55-17.81a60.53,60.53,0,0,0,.9-10.31A15.1,15.1,0,0,0,130.65,78.58Z"/><rect class="cls-2" x="68.49" y="166.91" width="5.07" height="92.53"/></g></g></svg>