<svg xmlns="http://www.w3.org/2000/svg" viewBox="0 0 183.75 270.74"><defs><style>.cls-1{fill:#dd491b;}.cls-2{fill:#eb5f24;}.cls-3{fill:#f7cea6;}.cls-4{fill:#ffbe2e;}.cls-5{fill:#2b2b2b;}.cls-6{fill:#f9dab4;}.cls-7{fill:#3b3d3d;}.cls-8{fill:#472b18;}.cls-9{fill:#fff;}.cls-10{fill:#f9f7f2;}.cls-11{fill:#e5be9e;}.cls-12{fill:#f4c7a2;}</style></defs><title>资源 3</title><g id="图层_2" data-name="图层 2"><g id="Layer_1" data-name="Layer 1"><path class="cls-1" d="M122.54,154.89l-10.3.87.26,115h47.7c1-6.49,2.05-13.45,2.79-19.93,1.71-14.95,2.55-38.78-9-56.11C144.51,180.54,122.54,154.89,122.54,154.89Z"/><path class="cls-2" d="M130.05,171.88c-2.35-.11-.6,9.74-.6,9.74s5.52,37.7,9.35,44.59a33.06,33.06,0,0,1,8.49-.14,22.39,22.39,0,0,1,6.8,1.91c1.55.72,4.67,2.09,4.31,4.2a1.12,1.12,0,0,1-.42.77,1.06,1.06,0,0,1-.89.09,3,3,0,0,1-.82-.44,18.05,18.05,0,0,0-4.2-2.44,18.24,18.24,0,0,0-7.18-.92c-.89.07-3.6.23-3.68,1.56,3.35.16,6.33-.33,9.19,2.56.89.9,2.51,3.22,1.48,4.56s-3.79-1.1-4.63-1.64c-1.75-1.12-4-1.93-5.48-.14-1.88,2.23-2.6,5.59-3.21,8.36a66.63,66.63,0,0,0-1.51,11.6c-.12,2.75-.31,6,.71,8.61a28,28,0,0,0,3.3,6h14a69.34,69.34,0,0,0,6.34-26c.51-13.89-2-30.92-4.55-38.13C150.18,187.87,132.4,172,130.05,171.88Z"/><path class="cls-1" d="M27.8,194.7c-11.57,17.33-10.74,41.16-9,56.11.74,6.48,1.75,13.44,2.79,19.93H69.26l.26-115-10.3-.87S37.26,180.54,27.8,194.7Z"/><path class="cls-2" d="M51.71,171.88c-2.35.12-20.13,16-26.82,34.73-2.57,7.21-5.06,24.24-4.55,38.13a69.34,69.34,0,0,0,6.35,26h14a28,28,0,0,0,3.29-6c1-2.62.83-5.86.71-8.61a66.61,66.61,0,0,0-1.5-11.6c-.62-2.77-1.33-6.13-3.21-8.36-1.5-1.79-3.73-1-5.48.14-.85.54-3.65,2.94-4.64,1.64s.59-3.66,1.49-4.56c2.85-2.89,5.83-2.4,9.19-2.56-.09-1.33-2.8-1.49-3.69-1.56a18.16,18.16,0,0,0-7.17.92,17.65,17.65,0,0,0-4.2,2.44,3,3,0,0,1-.82.44,1.06,1.06,0,0,1-.89-.09,1.12,1.12,0,0,1-.42-.77c-.36-2.11,2.76-3.48,4.3-4.2a22.45,22.45,0,0,1,6.81-1.91,33,33,0,0,1,8.48.14c3.84-6.89,9.35-44.59,9.35-44.59S54.06,171.77,51.71,171.88Z"/><path class="cls-2" d="M138.28,270.74c-1.95-18.78-9.23-83.76-19-108.31L57,162.8S42.19,227.17,41,270.74Z"/><path class="cls-1" d="M59.71,162.79H57S42.19,227.17,41,270.74H62.65c-8.64-2.22-15.28-8-15.28-22.81-.37-20.8,8.69-67.86,8.69-67.86Z"/><path class="cls-1" d="M116.07,270.74h22.21c-1-9.19-3.19-29.47-6.37-50.65a305.79,305.79,0,0,1,.32,32.59C131.62,263.48,124.82,268.49,116.07,270.74Z"/><path class="cls-1" d="M90.53,192c-10.15,0-15.87-4.23-18.89-7.78-7.3-8.58-5.6-20.51-5.38-21.84l1-6h46.6l1,6c.22,1.33,1.91,13.26-5.39,21.84C106.4,187.8,100.67,192,90.53,192Z"/><path class="cls-3" d="M73.26,163.55s-3.48,21.38,17.27,21.38,17.26-21.38,17.26-21.38Z"/><path class="cls-4" d="M113.78,225.87a23.26,23.26,0,1,1-23.25-23.26A23.25,23.25,0,0,1,113.78,225.87Z"/><path class="cls-5" d="M83.41,220.19c0,2.9-1.08,5.25-2.43,5.25s-2.43-2.35-2.43-5.25,1.09-5.25,2.43-5.25S83.41,217.29,83.41,220.19Z"/><ellipse class="cls-5" cx="99.4" cy="220.19" rx="2.43" ry="5.25"/><path class="cls-5" d="M91.25,243.33H90.9c-12.25-.21-15.38-10.2-15.56-10.63a1.17,1.17,0,0,1,2.15-.92c.16.37,2.74,9,13.45,9.22,10.51.26,13.24-8.56,13.3-8.93a1.16,1.16,0,1,1,2.3.35A15.67,15.67,0,0,1,91.25,243.33Z"/><path class="cls-6" d="M136.2,61c-16.83-6.91-25.95.86-43.36.31h0a85.25,85.25,0,0,0-25.75,3.74c-40,10.78-44.52,43.41-45.14,52.78-2.06,31.4,31.21,57.18,70.15,57.43s70.68-25,70.89-56.52C163,118.74,164.44,74.17,136.2,61Z"/><path class="cls-7" d="M116.9,97.31s4.42-2,11.95-1.62c7.27.33,13.34,3.63,13.65,2.06.56-2.79-3.31-7.6-9.32-9.8-5.66-2.06-10.71-.3-14.58,2.57S113,98.38,116.9,97.31Z"/><path class="cls-7" d="M68.68,97.31s-4.42-2-12-1.62c-7.27.33-13.34,3.63-13.65,2.06-.56-2.79,3.31-7.6,9.33-9.8,5.65-2.06,10.7-.3,14.57,2.57S72.56,98.38,68.68,97.31Z"/><path class="cls-8" d="M138.32,111.23a11.38,11.38,0,1,1-15.77-3.18A11.37,11.37,0,0,1,138.32,111.23Z"/><path class="cls-9" d="M130.61,108.56c1.12,1.7-.35,4.67-3.31,6.64s-6.27,2.18-7.39.48.35-4.67,3.3-6.63S129.48,106.87,130.61,108.56Z"/><path class="cls-8" d="M66.34,108.63a11.38,11.38,0,1,1-15.78-3.18A11.38,11.38,0,0,1,66.34,108.63Z"/><path class="cls-9" d="M58.62,106c1.13,1.7-.35,4.67-3.31,6.63s-6.26,2.18-7.39.48.35-4.66,3.3-6.63S57.49,104.26,58.62,106Z"/><path class="cls-3" d="M85.69,136.74h0a31,31,0,0,1,2.1-2.78,18,18,0,0,1,1.94-2,7.14,7.14,0,0,1,2-1.29,2.11,2.11,0,0,1,.75-.13,3.82,3.82,0,0,1,1.8.56,11.63,11.63,0,0,1,3,2.59A17,17,0,0,1,99.42,137a1,1,0,0,0,1.29.44,1,1,0,0,0,.44-1.29,18.86,18.86,0,0,0-3.52-4.86,12.06,12.06,0,0,0-2.4-1.87,5.77,5.77,0,0,0-2.74-.81,4.08,4.08,0,0,0-1.45.26,9.33,9.33,0,0,0-2.64,1.69,23.63,23.63,0,0,0-3.07,3.34c-.77,1-1.25,1.76-1.27,1.78a1,1,0,0,0,1.63,1Z"/><path class="cls-10" d="M48.84,137.08a1.27,1.27,0,0,1-1.32,1.22l-4.29-.16A1.28,1.28,0,0,1,42,136.82h0a1.27,1.27,0,0,1,1.32-1.23l4.3.16a1.28,1.28,0,0,1,1.22,1.33Z"/><path class="cls-10" d="M141.33,137.67A1.27,1.27,0,0,1,140,138.9l-4.29-.16a1.27,1.27,0,0,1-1.23-1.32h0a1.27,1.27,0,0,1,1.32-1.23l4.3.15a1.28,1.28,0,0,1,1.22,1.33Z"/><path class="cls-6" d="M154,139a23.41,23.41,0,0,0,19.68-.26c10.33-5.05,15.42-25.78,2-30.74s-17.5,10.42-17.5,10.42Z"/><path class="cls-3" d="M160.19,132.69s4.25-22.71,14.18-14.86c6.1,4.81,2.48,11.55-3.18,14.31C167.64,133.87,163,134,160.19,132.69Z"/><path class="cls-11" d="M160.31,132.44l1.48-5.73s18.88-5.39,13.58,2.19S160.31,132.44,160.31,132.44Z"/><path class="cls-6" d="M29.55,137.7a23.4,23.4,0,0,1-19.68-.52C-.39,132-5.21,111.2,8.23,106.42S25.6,117.06,25.6,117.06Z"/><path class="cls-3" d="M23.4,131.31s-3.95-22.77-14-15c-6.16,4.74-2.63,11.52,3,14.35C15.94,132.39,20.55,132.6,23.4,131.31Z"/><path class="cls-11" d="M23.28,131.05l-1.4-5.75s-18.81-5.62-13.61,2S23.28,131.05,23.28,131.05Z"/><path class="cls-12" d="M91.72,162.53a59.22,59.22,0,0,1-6.85-.39,59.85,59.85,0,0,1-14.7-3.46,1.37,1.37,0,1,1,1-2.54h0c.23.09,23.12,9.24,43.13-1.87a1.37,1.37,0,0,1,1.33,2.4A49.18,49.18,0,0,1,91.72,162.53Z"/><path class="cls-7" d="M164.91,42.55C151.75,23,134,10.82,92.44,10.82S35.08,21,21,40.86c-6.85,9.68-8.29,25.53-8.29,39.54,0,17.15,1.65,25.16,1.65,25.16l8.43,5.49C27.6,91.11,34.87,85.33,39.48,81.57c8.65-7,28.82-11.48,42.82-12.17C120.71,67.5,131,61.3,131,61.3c10.06,4.13,27.33,18.45,31.07,49.88l8.7-4.17s1.42-9.46,1.42-26.61C172.17,66.39,171.53,52.39,164.91,42.55Z"/><path class="cls-7" d="M31.6,60.05s-26.9-18.42-16-42.64c0,0,3.46,7.81,10.12,9.42,0,0-8.29-11.78,4.11-26.83,0,0,1.82,26.11,50.89,27.16Z"/></g></g></svg>