<svg xmlns="http://www.w3.org/2000/svg" viewBox="0 0 177.31 260.01"><defs><style>.cls-1{fill:#297c7c;}.cls-2{fill:#17605c;}.cls-3{fill:#348789;}.cls-4{fill:#51989e;}.cls-5{fill:#eae5dc;}.cls-6{fill:#393c3d;}.cls-7{fill:#f4d3b0;}.cls-8{fill:#f9dab4;}.cls-9{fill:#efc4a0;}.cls-10{fill:#3a332d;}</style></defs><title>资源 150</title><g id="图层_2" data-name="图层 2"><g id="Layer_1" data-name="Layer 1"><path class="cls-1" d="M151.36,140.78S185,191.11,175.67,208.7s-32.31,23.58-32.31,23.58l-31.81-73.94Z"/><path class="cls-2" d="M149.12,144.27s18,32.15-19.76,37.3-11.42-28.83-11.42-28.83Z"/><path class="cls-3" d="M48,158.47a298,298,0,0,0-19.72,42.64A509.42,509.42,0,0,0,10.87,260H43.69C51.49,221.11,62.72,155,48,158.47Z"/><path class="cls-3" d="M146.83,201.11a298,298,0,0,0-19.72-42.64c-14.75-3.52-3.53,62.64,4.27,101.54H164.2A509.42,509.42,0,0,0,146.83,201.11Z"/><path class="cls-4" d="M78.54,158.34H55s-10.79,14-16,59.15C37.08,234,34.44,248.28,32.63,260H142.45c-1.82-11.73-4.46-26-6.36-42.52-5.19-45.16-16-59.15-16-59.15H78.54Z"/><rect class="cls-5" x="102.15" y="177.1" width="3.2" height="35.63" transform="translate(-10.77 6.13) rotate(-3.22)"/><path class="cls-5" d="M111.15,214.5a5.8,5.8,0,1,1-5.8-5.8A5.8,5.8,0,0,1,111.15,214.5Z"/><rect class="cls-5" x="53.96" y="193.31" width="35.63" height="3.2" transform="translate(-126.86 255.64) rotate(-86.78)"/><path class="cls-5" d="M64.38,214.5a5.8,5.8,0,1,0,5.8-5.8A5.8,5.8,0,0,0,64.38,214.5Z"/><path class="cls-2" d="M87.72,161.33v0h-.36v0l-28,2.29s16.79,38.69,26.78,38.29c.43,0,2.4,0,2.84,0,10,.4,26.78-38.29,26.78-38.29Z"/><path class="cls-6" d="M21.87,42.54s-3.38-6.09,0-16.83c0,0-7.38,7.56-6.12,16.83,0,0-2.66-10-4.81-10s-2.15,8.31,0,12.17c0,0-4.57-2.51-8.37,0s.83,4.94,5.86,3.94c0,0-9.51,19.62-1.71,50.08S21.87,42.54,21.87,42.54Z"/><path class="cls-6" d="M100.8.3c-3.59-.29-16.47-.49-20,0C-13.41,13.18,8.44,111.23,8.44,111.23L90.08,113l0,0,.67,0,.67,0,0,0,81.64-1.81S186.72,7.1,100.8.3Z"/><path class="cls-7" d="M23.61,106.39s-9.5-11.66-20.08-6.24,4.07,40.89,25,43.78Z"/><path class="cls-7" d="M151.47,106.39s9.5-11.66,20.08-6.24-4.07,40.89-25,43.78Z"/><path class="cls-8" d="M19.31,56v69a33.71,33.71,0,0,0,13.2,26.8s21.33,15.33,55,14.78,55-14.78,55-14.78a33.69,33.69,0,0,0,13.21-26.8V56Z"/><path class="cls-6" d="M16.93,93.74s3.43,39,10.23,39l.72-51.15s7.52,6.09,10,6.45-4.66-15.75-4.66-15.75,16.83-4.66,50.48-5,47.44,2.51,44.93,24.35c0,0,5.73-2.87,7.52-15,0,0,1.08,16.11,2.51,15.75s8.95-9,8.95-14.32c0,0,.72,11.46,2.86,11.82s7.74-10.44,9.17-22.58-12.21-27.9-12.21-27.9L77.29,35l-48,5L12.85,56Z"/><path class="cls-9" d="M82.27,131.37s2-7.88,9.15-6.92c5.24.7,6.72,6.92,6.72,6.92s-2-3.83-6.07-4.42C86.09,126.09,82.27,131.37,82.27,131.37Z"/><path class="cls-10" d="M43.76,123.35A1.77,1.77,0,0,1,42,121.76,9.44,9.44,0,0,1,49.13,112c6.14-1.81,10.69,3,12.23,5.75a1.75,1.75,0,1,1-3.07,1.7c-.12-.22-3.19-5.54-8.17-4.08a5.91,5.91,0,0,0-4.61,6.09,1.75,1.75,0,0,1-1.58,1.92Z"/><polygon class="cls-6" points="61.91 100.68 62.88 105.01 33.72 103.76 36.09 97.12 61.91 100.68"/><path class="cls-10" d="M140.52,123.35h-.17a1.77,1.77,0,0,1-1.59-1.91,5.89,5.89,0,0,0-4.6-6.1c-5-1.46-8,3.86-8.18,4.09a1.76,1.76,0,0,1-3.07-1.71c1.54-2.78,6.09-7.56,12.24-5.75a9.43,9.43,0,0,1,7.11,9.79A1.75,1.75,0,0,1,140.52,123.35Z"/><polygon class="cls-6" points="122.3 101.39 121.56 105.77 150.61 102.97 147.9 96.46 122.3 101.39"/><path class="cls-9" d="M59,147.8a29.07,29.07,0,0,0,7.9,3.44,53.38,53.38,0,0,0,8.39,1.82,100.56,100.56,0,0,0,17.17.82,87.88,87.88,0,0,0,17.05-2,48.53,48.53,0,0,0,8.17-2.6,27.22,27.22,0,0,0,7.45-4.31c-3.95,4.38-9.62,6.8-15.2,8.51A69.34,69.34,0,0,1,92.54,156,76.41,76.41,0,0,1,75,154.68C69.32,153.46,63.46,151.65,59,147.8Z"/></g></g></svg>