<?xml version="1.0" standalone="no"?><!DOCTYPE svg PUBLIC "-//W3C//DTD SVG 1.1//EN" "http://www.w3.org/Graphics/SVG/1.1/DTD/svg11.dtd"><svg t="1548838019162" class="icon" style="" viewBox="0 0 1024 1024" version="1.1" xmlns="http://www.w3.org/2000/svg" p-id="8116" xmlns:xlink="http://www.w3.org/1999/xlink" width="200" height="200"><defs><style type="text/css"></style></defs><path d="M960 230.4c0-25.9-20.6-46.9-46-46.9H110c-25.4 0-46 21-46 46.9v124.5h896V230.4zM64 440.6v353c0 25.9 20.7 46.9 46 46.9h804c25.4 0 46-21 46-46.9v-353H64z m112 128.3c0 8-6.4 14.5-14.3 14.5h-27.4c-7.9 0-14.3-6.5-14.3-14.5v-42.4c0-8 6.4-14.5 14.3-14.5h27.4c7.9 0 14.3 6.5 14.3 14.5v42.4z m98.2 0c0 8-6.4 14.5-14.3 14.5h-27.4c-7.9 0-14.3-6.5-14.3-14.5v-42.4c0-8 6.4-14.5 14.3-14.5h27.4c7.9 0 14.3 6.5 14.3 14.5v42.4z m97.6 0c0 8-6.4 14.5-14.3 14.5h-27.4c-7.9 0-14.3-6.5-14.3-14.5v-42.4c0-8 6.4-14.5 14.3-14.5h27.4c7.9 0 14.3 6.5 14.3 14.5v42.4zM876 612l-26.2 114.7c-1.6 7.2-8.1 13.2-15.1 14.3H778l-2.5 0.2h-55.4c-0.5 0-1.1 0.1-1.6 0.1h-56.2c-7.9-0.1-12.7-6.7-10.9-14.7L677.5 612c1.8-8 9.7-14.6 17.6-14.6h53.1c0.5-0.1 1.1-0.1 1.6-0.1h64.6c0.8 0 1.5 0 2 0.2h48.7c7.8-0.1 12.7 6.5 10.9 14.5z m0 0" p-id="8117"></path></svg>