<svg xmlns="http://www.w3.org/2000/svg" viewBox="0 0 153.78 260"><defs><style>.cls-1{fill:#f2d0af;}.cls-2{fill:#393c3d;}.cls-3{fill:#6d6d6d;}.cls-4{fill:#3f3e3d;}.cls-5{fill:#302f2d;}.cls-6{fill:#f4d3b0;}.cls-7{fill:#492020;}.cls-8{fill:#c65044;}.cls-9{fill:#3a332d;}.cls-10{fill:#ddb58e;}</style></defs><title>资源 259</title><g id="图层_2" data-name="图层 2"><g id="Layer_1" data-name="Layer 1"><path class="cls-1" d="M109,253.18a34.43,34.43,0,0,0-.63,6.82h13.25c1.29-7.64,5.8-15.34,5.8-15.34S111.64,238.73,109,253.18Z"/><path class="cls-2" d="M98,176.4l2-2.45s29.18,21.83,34.78,26.76c6.17,5.43,8.89,6.91,3.95,23.7s-7,33.9-25.26,21.73c-11.1-7.41,5.91-27.41,5.91-27.41L98,197.5Z"/><path class="cls-2" d="M13.78,259.37a4.27,4.27,0,0,0-.27.63H43.05l.09-.21c5.25-12.46,23.77-74.68,23.77-74.68l-16.24-8Z"/><path class="cls-3" d="M103.11,177.29c-3.22-7-20.08-7.39-26.22-7.31-6.14-.08-23,.34-26.22,7.31-4,8.56-16.43,78.81-15.48,82.71h83.39C119.54,256.1,107.06,185.85,103.11,177.29Z"/><path class="cls-2" d="M96.31,168c0,5.77-8.69,7.56-19.42,7.56S57.46,173.75,57.46,168s8.7-10.44,19.43-10.44S96.31,162.21,96.31,168Z"/><path class="cls-4" d="M145.52,28.16C133,5.08,100.33-10.67,76.89,8.76,53.44-10.67,20.78,5.08,8.26,28.16c-16.79,31-2.78,70.11-2.78,70.11s.84,2.76,5.4,13.12,12,6.34,12,6.34-3.15-49.41-3.15-55S34.4,39,49.55,35.4C51.07,35,57.12,42,66,42.8c4.08.38,12-3.47,20.25-3.78A60.93,60.93,0,0,1,107,42.31c17.12,8.23,27,14.82,27,20.42s-3.14,55-3.14,55,7.49,4,12.05-6.34,5.4-13.12,5.4-13.12S162.31,59.11,145.52,28.16Z"/><path class="cls-5" d="M145.52,28.16C133,5.08,100.33-10.67,76.89,8.76c-.81-.67-1.63-1.29-2.46-1.88-5.61,6.41-7.55,16.05-8.79,24.23a69.74,69.74,0,0,0-.75,11.54c.37.06.74.12,1.12.15,4.08.38,12-3.47,20.25-3.78A60.93,60.93,0,0,1,107,42.31c17.12,8.23,27,14.82,27,20.42s-3.14,55-3.14,55,7.49,4,12.05-6.34,5.4-13.12,5.4-13.12S162.31,59.11,145.52,28.16Z"/><path class="cls-4" d="M145.52,28.16C133.17,5.39,101.23-10.21,77.86,8,71.33,18.57,66.61,30.47,66.25,42.8c4.14.22,11.89-3.48,20-3.78A60.93,60.93,0,0,1,107,42.31c17.12,8.23,27,14.82,27,20.42s-3.14,55-3.14,55,7.49,4,12.05-6.34,5.4-13.12,5.4-13.12S162.31,59.11,145.52,28.16Z"/><path class="cls-5" d="M133.61,60.8a53.48,53.48,0,0,1,5.21,1.81c5.09,2.08,9.78,5,14.78,7.26q.18-3.18.17-6.53c-2.19-6.7-6.1-13.66-8.86-18.39-6-10.39-14.69-19.06-26.6-22.34C106.82,19.44,95,18.93,84,23.85c-13.38,6-19.18,18.84-18,18.95,4.08.38,12-3.47,20.25-3.78A60.93,60.93,0,0,1,107,42.31C122.2,49.62,131.67,55.63,133.61,60.8Z"/><path class="cls-6" d="M18.57,118.44s-2-33.74-12.64-28S1.2,134.54,26.38,138.76Z"/><path class="cls-6" d="M134.47,118.49s2.27-33.79,12.88-28,4.72,44.09-20.45,48.31Z"/><path class="cls-1" d="M130.85,117.73s3.14-49.41,3.14-55-9.87-12.19-27-20.42A60.93,60.93,0,0,0,86.26,39C78,39.33,70.09,43.18,66,42.8,57.12,42,51.07,35,49.55,35.4,34.4,39,19.78,57.13,19.78,62.73s3.15,55,3.15,55a8.05,8.05,0,0,1-4.36.71v6c2.2,36.5,34.23,41.31,58,41.31s55.75-4.81,58-41.31v-6A8,8,0,0,1,130.85,117.73Z"/><path class="cls-7" d="M49.14,134.77c.77,12.68,12.88,22.77,27.75,22.77s27-10.09,27.74-22.77Z"/><path class="cls-8" d="M62.46,154a31.4,31.4,0,0,0,28.85,0,15.21,15.21,0,0,0-28.85,0Z"/><path class="cls-9" d="M51.79,103.9h0a1.35,1.35,0,0,1-1.33-1.37,9.22,9.22,0,0,0-1-4C48,96,45.56,94.72,42,94.67a8.17,8.17,0,0,0-6.12,2.09,9,9,0,0,0-2.29,5.78,1.35,1.35,0,1,1-2.69,0A11.59,11.59,0,0,1,34,94.86,10.68,10.68,0,0,1,42.07,92a11,11,0,0,1,8.1,3.09,11.36,11.36,0,0,1,3,7.5A1.34,1.34,0,0,1,51.79,103.9Z"/><path class="cls-9" d="M44.07,65.69l5.71,5S45,84.88,26.52,88.25V80.82S41,78.31,44.07,65.69Z"/><path class="cls-9" d="M102,103.9a1.35,1.35,0,0,1-1.35-1.33,11.42,11.42,0,0,1,3-7.5A11,11,0,0,1,111.71,92a10.7,10.7,0,0,1,8.06,2.88,11.65,11.65,0,0,1,3.08,7.71,1.35,1.35,0,1,1-2.69,0,9,9,0,0,0-2.31-5.79,8.18,8.18,0,0,0-6.1-2.08A8.46,8.46,0,0,0,105.54,97a8.58,8.58,0,0,0-2.2,5.58A1.36,1.36,0,0,1,102,103.9Z"/><path class="cls-9" d="M109.7,65.69l-5.7,5s4.75,14.18,23.26,17.55V80.82S112.73,78.31,109.7,65.69Z"/><path class="cls-10" d="M91.18,123s-3.36-9.52-13.83-10.24-14.76,11.46-14.76,11.46,6.48-9,14.78-8.07A24.37,24.37,0,0,1,91.18,123Z"/></g></g></svg>