<svg xmlns="http://www.w3.org/2000/svg" viewBox="0 0 161.37 260.05"><defs><style>.cls-1{fill:#3f3e3d;}.cls-2{fill:#e2dcd9;}.cls-3{fill:#c65044;}.cls-4{fill:#ad3e3b;}.cls-5{fill:#302f2d;}.cls-6{fill:#ea9628;}.cls-7{fill:#e08a22;}.cls-8{fill:#f4d3b0;}.cls-9{fill:#f9dab4;}.cls-10{fill:#3a332d;}.cls-11{fill:#efc4a0;}</style></defs><title>资源 93</title><g id="图层_2" data-name="图层 2"><g id="Layer_1" data-name="Layer 1"><path class="cls-1" d="M97.14,160.07,112.93,167s19.71,20.44,23.94,52.74c1.73,13.23.95,30.56.26,40.35H116.75l-2.33-54Z"/><path class="cls-1" d="M63.17,160l-15.8,7s-19.7,20.35-23.93,52.66c-1.73,13.22-1,30.55-.26,40.34H43.56l2.33-54,34.26,22.61,24.45-36.61-3.38-31Z"/><polygon class="cls-2" points="56.88 160.97 47.37 166.96 40.39 259.96 119.92 259.96 112.93 166.96 103.42 160.97 80.15 212.55 56.88 160.97"/><path class="cls-3" d="M80.32,171.83V175L61.86,180a3.29,3.29,0,0,1-4.14-3.18V169.3A3.3,3.3,0,0,1,62,166.15Z"/><path class="cls-3" d="M80.32,171.83V175L98.77,180a3.29,3.29,0,0,0,4.15-3.18V169.3a3.3,3.3,0,0,0-4.27-3.15Z"/><rect class="cls-4" x="74.47" y="168.29" width="11.69" height="10.47" rx="3.65"/><circle class="cls-5" cx="80.32" cy="186.01" r="3.21"/><circle class="cls-5" cx="80.32" cy="201.14" r="3.21"/><path class="cls-6" d="M6.43,94.3A251.16,251.16,0,0,1,4.2,59.71C4.2,35.94,14.83,17.06,26,20.27c0,0,24.47-34.65,92.91-13.35,37.32,11.62,44.59,50.87,37.81,86.18l-75.1,38.46Z"/><path class="cls-7" d="M9.75,105.07V78a33.44,33.44,0,0,1,14.86-27.8L29,47.23A22.94,22.94,0,0,1,52,45.8L75.19,57.43a11.58,11.58,0,0,0,10.52,0l22.39-11.5A23,23,0,0,1,131,47l4.88,3.16a33.45,33.45,0,0,1,15.27,28.07v26.81Z"/><path class="cls-8" d="M21.5,97.37S12.85,86.74,3.21,91.69,6.92,128.92,26,131.56Z"/><path class="cls-8" d="M139.87,97.37s8.65-10.63,18.29-5.68-3.71,37.23-22.74,39.87Z"/><path class="cls-9" d="M131.16,145.14l-11.66,8.79a64.83,64.83,0,0,1-78.08,0l-11.66-8.79a30.6,30.6,0,0,1-12.17-24.42v-40L34.68,69.31A20.38,20.38,0,0,1,55.13,68L75.77,78.38a10.34,10.34,0,0,0,9.35,0L105,68.11a20.36,20.36,0,0,1,20.38,1l17.92,11.6v40A30.6,30.6,0,0,1,131.16,145.14Z"/><path class="cls-10" d="M44.12,110.32a1.37,1.37,0,0,1-.55-.12,1.31,1.31,0,0,1-.62-1.73c.09-.18,2.15-4.41,8.58-4.54s8.55,4.38,8.64,4.57a1.29,1.29,0,0,1-2.37,1c0-.11-1.51-3.13-6.22-3s-6.23,2.95-6.29,3.07A1.28,1.28,0,0,1,44.12,110.32Z"/><path class="cls-10" d="M104,110.32a1.22,1.22,0,0,1-.52-.11,1.3,1.3,0,0,1-.66-1.71c.09-.19,2.15-4.71,8.64-4.57s8.49,4.36,8.57,4.54a1.29,1.29,0,0,1-2.33,1.11c-.07-.15-1.56-3-6.29-3.07s-6.17,2.92-6.23,3A1.28,1.28,0,0,1,104,110.32Z"/><path class="cls-11" d="M90.49,132.86s-1.77-9-11.17-8.72a11.49,11.49,0,0,0-11.18,8.72s5.63-5.69,11.18-5.69S90.49,132.86,90.49,132.86Z"/><path class="cls-11" d="M80.13,152.72l-1.81,0C68,152.37,58,149.3,50.88,144.28a1.16,1.16,0,0,1,1.34-1.9c13,9.16,37.51,11.93,54.5.45a1.16,1.16,0,0,1,1.3,1.93C100.39,149.92,90.54,152.72,80.13,152.72Z"/><path class="cls-7" d="M40.07,97.31l0,0-3.42-3.87c.4-.36,4.19-3.5,12-3.54s11.65,3.2,12,3.57l-3.48,3.82,0,0C57.16,97.19,54.55,95,48.7,95S40.18,97.22,40.07,97.31Z"/><path class="cls-7" d="M123.28,97.31c-.11-.09-2.77-2.25-8.62-2.27s-8.47,2.15-8.58,2.24l0,0-3.48-3.82c.4-.37,4.14-3.57,11.92-3.57h.13c7.81,0,11.59,3.18,12,3.54l-3.42,3.87Z"/></g></g></svg>