<svg xmlns="http://www.w3.org/2000/svg" viewBox="0 0 156.66 287.39"><defs><style>.cls-1{fill:#61aa90;}.cls-2{fill:#4d9980;}.cls-3{fill:#74b79d;}.cls-4{fill:#c6c2c1;}.cls-5{fill:#b5b2b1;}.cls-6{fill:#d3d1d1;}.cls-7{fill:#ea9628;}.cls-8{fill:#f4d3b0;}.cls-9{fill:#f9dab4;}.cls-10{fill:#3a332d;}.cls-11{fill:#efc4a0;}</style></defs><title>资源 66</title><g id="图层_2" data-name="图层 2"><g id="Layer_1" data-name="Layer 1"><rect class="cls-1" x="54.19" y="190.91" width="45.22" height="46.78"/><path class="cls-2" d="M76.8,200.56v33S73.75,215.74,76.8,200.56Z"/><path class="cls-2" d="M83.28,210a2.46,2.46,0,1,1-2.46-2.46A2.46,2.46,0,0,1,83.28,210Z"/><circle class="cls-2" cx="80.82" cy="222.13" r="2.46"/><polygon class="cls-3" points="76.8 200.56 67.92 210.53 56.58 195.18 96.77 195.18 86.23 210.53 76.8 200.56"/><path class="cls-4" d="M115,197.14c-5.31-4.58-16.86-6.23-16.86-6.23-4.11,15.72-11.64,29.82-21.5,42.83-9.86-13-17.38-27.11-21.5-42.83,0,0-11.54,1.65-16.85,6.23s-31,52.23-31.16,57.72c-.14,4.46,10.67,24.95,14.77,32.53H131.42c4.09-7.58,14.91-28.07,14.76-32.53C146,249.37,120.34,201.72,115,197.14Z"/><polygon class="cls-5" points="34.72 287.39 39.28 222.35 30.32 287.39 34.72 287.39"/><rect class="cls-5" x="90.68" y="230.52" width="21.14" height="4.41"/><path class="cls-6" d="M55.66,192.68h0s-3.94,19.84-4.12,26.91,25.14,14.15,25.14,14.15C67.19,221.23,59.86,207.69,55.66,192.68Z"/><polygon class="cls-5" points="114.06 222.35 118.63 287.39 123.02 287.39 114.06 222.35"/><path class="cls-6" d="M97.69,192.68h0s4,19.84,4.12,26.91-25.14,14.15-25.14,14.15C86.16,221.23,93.49,207.69,97.69,192.68Z"/><path class="cls-7" d="M5.89,123.36S-16.52,40.61,26.1,22.67c0,0-1.43,13.46,0,17.54C26.1,40.21,42,5.1,81.68,0c0,0-6.39,15.5-5.37,22.84,0,0,21.61-14.17,56.9-12.24,0,0-9.25,16.32-5.54,25.7,0,0,15.32-8.11,29-5.25,0,0-4.34,11.14-10.66,92.31C146,123.36,46.27,145.18,5.89,123.36Z"/><path class="cls-8" d="M22.16,124.56s-10.7-11.26-16.52-3.75-.57,35.11,21,39.43Z"/><path class="cls-8" d="M132.75,124.56s10.7-11.26,16.52-3.75.57,35.11-21,39.43Z"/><path class="cls-9" d="M112.54,189.54,94,197.09a44.38,44.38,0,0,1-33.44,0l-18.59-7.55a31.18,31.18,0,0,1-19.28-25.76L15.86,96.36a3.44,3.44,0,0,1,4.42-3.64L59.1,104.45a62.72,62.72,0,0,0,36.26,0l38.82-11.73a3.44,3.44,0,0,1,4.42,3.64l-6.78,67.42A31.15,31.15,0,0,1,112.54,189.54Z"/><path class="cls-10" d="M48.82,143.2a1.53,1.53,0,0,1-1.53-1.4c0-.24-.62-5.93-6.35-6.28s-6.15,5.33-6.17,5.57a1.53,1.53,0,1,1-3.05-.25c.26-3.09,2.56-8.8,9.41-8.38s9,6.12,9.21,9.08A1.53,1.53,0,0,1,49,143.19Z"/><path class="cls-7" d="M54.87,127.11l-25.09-9.63a2.17,2.17,0,0,1-1.28-2.69l.67-2a2.15,2.15,0,0,1,3.22-1.15L55.3,126.26A.48.48,0,0,1,54.87,127.11Z"/><path class="cls-10" d="M99.34,143.2h-.13a1.52,1.52,0,0,1-1.39-1.65c.25-3,2.5-8.66,9.21-9.08s9.15,5.29,9.4,8.38a1.53,1.53,0,1,1-3,.26c-.06-.62-.71-5.93-6.17-5.58-5.79.36-6.34,6-6.36,6.28A1.52,1.52,0,0,1,99.34,143.2Z"/><path class="cls-7" d="M93.29,127.11l25.09-9.63a2.17,2.17,0,0,0,1.28-2.69l-.67-2a2.15,2.15,0,0,0-3.22-1.15L92.86,126.26A.48.48,0,0,0,93.29,127.11Z"/><path class="cls-11" d="M61.27,158.06s6,12.26,12.12,12.85,12.12-8.55,12.12-8.55-7.67,6-11.8,5.69S61.27,158.06,61.27,158.06Z"/><path class="cls-11" d="M70.32,183c-9.91,0-18.52-.83-18.62-.84a1.38,1.38,0,0,1,.27-2.74,205.93,205.93,0,0,0,22.63.77c19.39-.52,23.61-4.42,24.4-6.69a1.38,1.38,0,1,1,2.6.9c-1.85,5.31-10.66,8.11-26.95,8.55C73.19,182.93,71.74,183,70.32,183Z"/><path class="cls-11" d="M107.13,174.35H107a1.39,1.39,0,0,1-1.25-1.5c.13-1.38.07-3.19-.94-4-1.19-.94-3.33-.31-3.35-.3a1.37,1.37,0,0,1-1.73-.88,1.38,1.38,0,0,1,.88-1.74c.14,0,3.54-1.12,5.91.77,1.58,1.26,2.25,3.42,2,6.4A1.38,1.38,0,0,1,107.13,174.35Z"/></g></g></svg>