<svg xmlns="http://www.w3.org/2000/svg" viewBox="0 0 171.44 273.16"><defs><style>.cls-1{fill:#f2d0af;}.cls-2{fill:#3d868e;}.cls-3{fill:#6dbdc6;}.cls-4{fill:#ddb58e;}.cls-5{fill:#492020;}.cls-6{fill:#c65044;}.cls-7{fill:#eae5dc;}.cls-8{fill:#3a332d;}.cls-9{fill:#594f47;}.cls-10{fill:#f4d3b0;}.cls-11{fill:#563a28;}</style></defs><title>资源 265</title><g id="图层_2" data-name="图层 2"><g id="Layer_1" data-name="Layer 1"><path class="cls-1" d="M132.12,191.55,120,195.79s10.84,51.34,15.63,77.37h19.94C149.58,241.3,132.12,191.55,132.12,191.55Z"/><path class="cls-2" d="M115.17,159.49s20.45,9.38,31.14,27.08c0,0-14.37,13.83-26.72,10.7l-11.43-34.46Z"/><path class="cls-1" d="M18.92,273.16H38.87c4.79-26,15.63-77.37,15.63-77.37l-12.16-4.24S24.88,241.3,18.92,273.16Z"/><path class="cls-2" d="M59.29,159.49s-20.45,9.38-31.14,27.08c0,0,14.37,13.83,26.72,10.7l11.42-34.46Z"/><path class="cls-3" d="M87.07,164.62l-32.24-3.47s-23.2,103.18-22,112H141.47c2.88-8.87-21-111.88-21-111.88Z"/><path class="cls-4" d="M115.61,167c0,10.78-14,19.53-29.21,19.53S58.85,177.82,58.85,167,71.19,147.5,86.4,147.5,115.61,156.25,115.61,167Z"/><rect class="cls-5" x="59.04" y="213.99" width="56.38" height="54.08"/><path class="cls-6" d="M96.16,237.19c-3.65,0-6.88,2.4-8.93,6.11-2-3.71-5.28-6.11-8.93-6.11-6.2,0-11.23,6.91-11.23,15.44s5,15.44,11.23,15.44H96.16c6.2,0,11.22-6.91,11.22-15.44S102.36,237.19,96.16,237.19Z"/><path class="cls-7" d="M115.42,214H59v8.14c1.86,3.28,4.31,6.88,6,6.75,3.1-.25,4.59-10.92,6.45-9.8s5.7,11.42,9.92,9.8,6.16-11.67,7-10.67,3,10.62,8.4,10.84c4.34.18,4.47-12.21,5.58-11.46s3.1,10.79,8.44,10.67c1.76,0,3.3-2.07,4.59-4.75Z"/><path class="cls-7" d="M115.42,260.09c-1.41-3.44-3.2-6.3-5.31-6.35-5.33-.13-7.31,9.92-8.43,10.67s-1.24-11.64-5.58-11.47c-5.37.22-7.57,9.85-8.4,10.85s-2.77-9.06-7-10.68-8.07,8.69-9.93,9.81-3.35-9.55-6.45-9.8c-1.49-.12-3.56,2.64-5.3,5.53v9.42h56.38Z"/><path class="cls-8" d="M159.48,34.92c-3.3.07-10.28.11-19.49.13l.13-.13S113.55,0,85.19,0,30.28,34.92,30.28,34.92c-9.47,0-16.46,0-19.38,0-14.59.09-6.63,92.51-6.63,92.51H166.12S176.69,34.55,159.48,34.92Z"/><path class="cls-9" d="M168.7,95.36c.16-3,.3-6.09.41-9.21H2.18c0,3.12.14,6.21.24,9.21Z"/><path class="cls-10" d="M27,115.94s-12.76-11-23.06-2.73c-11.33,9.1,3.19,31.86,26.4,32Z"/><path class="cls-10" d="M144.44,115.94s12.77-11,23.06-2.73c11.34,9.1-3.18,31.86-26.39,32Z"/><path class="cls-1" d="M21,64.76V121a46.27,46.27,0,0,0,44,46.18c1.13,2.45,2.75,5.54,4.13,6.49,2.39,1.66,12.53,1.66,13.27,1.11A18.76,18.76,0,0,0,86,171.44a18.76,18.76,0,0,0,3.63,3.35c.74.55,10.88.55,13.27-1.11,1.39-1,3-4.06,4.14-6.52A46.26,46.26,0,0,0,150.46,121V64.76C131.73,58.33,58.08,59.83,21,64.76Z"/><path class="cls-8" d="M155.68,66.48c0,9.84-31.32,17.83-70,17.83s-70-8-70-17.83,31.32-17.83,70-17.83S155.68,56.63,155.68,66.48Z"/><path class="cls-4" d="M56.35,124.11a21.32,21.32,0,0,0-1.67,5,11,11,0,0,0-.16,2.55,5.39,5.39,0,0,0,.63,2.33l.28.52.39.44a3.08,3.08,0,0,0,.88.76,3.44,3.44,0,0,0,1.06.55,4.42,4.42,0,0,0,1.15.37l1.21.25,1.29.09,2.64.17,5.27.37c1.76.16,3.5.1,5.25.16l10.49.29h1.32l10.52-.29c1.75-.06,3.51,0,5.25-.16s3.48-.26,5.23-.37l2.62-.17,1.25-.08,1.3-.27a4.2,4.2,0,0,0,1.15-.38,3.36,3.36,0,0,0,1-.53,3.26,3.26,0,0,0,.89-.76l.39-.44.27-.52a5.54,5.54,0,0,0,.64-2.33,11.56,11.56,0,0,0-.17-2.55,21.76,21.76,0,0,0-1.66-5,17.82,17.82,0,0,1,2.22,4.83,12.08,12.08,0,0,1,.43,2.69,6.57,6.57,0,0,1-.49,2.78l-.3.66-.45.59a4,4,0,0,1-1,1,4.43,4.43,0,0,1-1.26.75,6.05,6.05,0,0,1-1.32.51l-1.28.34-1.37.17-2.64.33c-1.76.21-3.52.43-5.29.62s-3.53.2-5.3.32l-7.47.41H85l-10.63-.42c-1.77-.11-3.55-.11-5.3-.32l-5.24-.62-2.63-.32-1.34-.16-1.36-.36a5.49,5.49,0,0,1-1.32-.52,4.39,4.39,0,0,1-1.24-.74,4,4,0,0,1-1-1l-.44-.58a5.06,5.06,0,0,1-.3-.67,6.5,6.5,0,0,1-.49-2.77,12.07,12.07,0,0,1,.42-2.69A18.16,18.16,0,0,1,56.35,124.11Z"/><path class="cls-4" d="M58.12,151.94l2.4.08c1.51.1,3.7.07,6.27.18s5.6.14,8.82.14c1.61,0,3.28,0,5,0s3.4,0,5.12,0h5.12l5-.12,4.66-.06c1.49,0,2.87-.1,4.17-.12,2.59-.1,4.77-.09,6.29-.12s2.41,0,2.41,0-.83.17-2.31.42-3.6.6-6.17.95c-1.29.16-2.67.42-4.17.51l-4.69.35c-1.63.1-3.32.25-5,.31l-5.22.08c-1.75,0-3.5,0-5.22-.05s-3.41-.16-5-.23c-3.27-.16-6.3-.53-8.88-.82s-4.69-.73-6.16-1S58.12,151.94,58.12,151.94Z"/><path class="cls-4" d="M74.11,158.94s1.59-.15,3.77-.24c1.1-.06,2.35-.09,3.68-.12s2.74,0,4.14-.06l4.15,0c1.33,0,2.6.1,3.69.11,2.19.07,3.79.29,3.79.29a25.2,25.2,0,0,1-3.42,1,28.06,28.06,0,0,1-3.75.58c-.7,0-1.43.17-2.17.18l-2.27.06c-1.52,0-3-.08-4.44-.21a34.55,34.55,0,0,1-3.77-.57A16.79,16.79,0,0,1,74.11,158.94Z"/><path class="cls-8" d="M36.84,118.22a1.62,1.62,0,0,1-.08-3.23l27.84-1.32a1.62,1.62,0,1,1,.15,3.23l-27.83,1.32Z"/><polygon class="cls-11" points="68.87 100.53 29.54 100.02 30.9 92.02 65.72 91.59 68.87 100.53"/><path class="cls-8" d="M134.6,118.22h-.08l-27.84-1.32a1.62,1.62,0,1,1,.15-3.23L134.67,115a1.62,1.62,0,0,1-.07,3.23Z"/><polygon class="cls-11" points="102.57 100.53 141.9 100.02 140.53 92.02 105.72 91.59 102.57 100.53"/></g></g></svg>