<svg xmlns="http://www.w3.org/2000/svg" viewBox="0 0 168.16 260.01"><defs><style>.cls-1{fill:#f9dab4;}.cls-2{fill:#f7cea6;}.cls-3{fill:#79a348;}.cls-4{fill:#88b559;}.cls-5{fill:#ea9628;}.cls-6{fill:#f9f7f2;}.cls-7{fill:#e5be9e;}.cls-8{fill:#3a332d;}.cls-9{fill:#e8dfd9;}.cls-10{fill:#492020;}.cls-11{fill:#c65044;}</style></defs><title>资源 30</title><g id="图层_2" data-name="图层 2"><g id="Layer_1" data-name="Layer 1"><path class="cls-1" d="M155.76,260H136.32l-6.09-59.15,19.65,0S153.47,238.6,155.76,260Z"/><path class="cls-2" d="M151.53,218h0s-9.54-4-14.67-3.3-2.58,10.11-1.48,21.12c.52,5.25,1.19,15.21,1.76,24.2h-.82l-6.09-59.15,19.65,0S150.57,208.07,151.53,218Z"/><path class="cls-3" d="M119.66,155.53s34.44,15.08,39,58.43H116V155.53Z"/><path class="cls-4" d="M140.52,211.13s10.91-.28,12.27-8.44-14.53-32.65-20.94-36-9.22-3.19-7.81,5.66,5.17,34.87,5.17,38.26C132.8,212.26,140.52,211.13,140.52,211.13Z"/><path class="cls-1" d="M9.77,260H29.21l6.09-59.15-19.65,0S12.06,238.6,9.77,260Z"/><path class="cls-2" d="M14,218h0s9.53-4,14.67-3.3,2.58,10.11,1.48,21.12C29.63,241.06,29,251,28.39,260h.82l6.09-59.15-19.65,0S15,208.07,14,218Z"/><path class="cls-3" d="M45.87,155.53S11.43,170.61,6.91,214h42.6V155.53Z"/><path class="cls-4" d="M25,211.13s-10.9-.28-12.26-8.44,14.53-32.65,20.94-36,9.22-3.19,7.81,5.66-5.18,34.87-5.18,38.26C32.73,212.26,25,211.13,25,211.13Z"/><path class="cls-4" d="M133.43,260c-3-28.13-6.83-82.2-15.88-103.54l-69.58.4S35.37,215.53,32.09,260Z"/><path class="cls-3" d="M130.56,255.47a11.21,11.21,0,0,1-1.35,4.54h4.22c-.66-6.25-1.21-13.69-2.13-21.58C131.38,243.72,131,249.74,130.56,255.47Z"/><path class="cls-3" d="M45.33,178.86l5.62-22H48S35.37,215.53,32.09,260H44.75a38.78,38.78,0,0,1-5.06-11.08C33.34,228,45.33,178.86,45.33,178.86Z"/><path class="cls-5" d="M16.62,110.43S3.4,63.34,5.85,52.48s13-8.41,13-8.41-6.68-17.71,1.18-26C30.62,7,55.54-2.3,94.78.51s83.47,48.11,58.59,108.38L94.15,125Z"/><path class="cls-1" d="M149.16,52.6,21.83,52.45s.62,29.91-1.1,43.78c-1,8-.44,14.86-.65,18C18.2,143,48.64,166.54,84.28,166.77s64.68-22.93,64.87-51.72a78.12,78.12,0,0,0-.45-9.54c-.24-2.43-.24-5.07-.38-8.06C147.73,84.5,149.16,52.6,149.16,52.6Z"/><path class="cls-6" d="M44.7,128.25a1.18,1.18,0,0,1-1.21,1.12l-3.93-.15A1.16,1.16,0,0,1,38.44,128h0a1.15,1.15,0,0,1,1.21-1.12l3.93.14a1.17,1.17,0,0,1,1.12,1.22Z"/><path class="cls-6" d="M129.34,128.79a1.16,1.16,0,0,1-1.21,1.12l-3.93-.15a1.16,1.16,0,0,1-1.12-1.2h0a1.17,1.17,0,0,1,1.21-1.13l3.93.15a1.16,1.16,0,0,1,1.12,1.21Z"/><path class="cls-1" d="M140.9,133.59a21.39,21.39,0,0,0,18-.24c9.45-4.62,14.11-23.59,1.87-28.13s-16,9.54-16,9.54Z"/><path class="cls-2" d="M146.6,127.82s3.89-20.79,13-13.61c5.58,4.41,2.27,10.57-2.91,13.1C153.41,128.89,149.19,129,146.6,127.82Z"/><path class="cls-7" d="M146.71,127.58l1.35-5.24s17.28-4.93,12.43,2S146.71,127.58,146.71,127.58Z"/><path class="cls-1" d="M27,132.4a21.45,21.45,0,0,1-18-.47c-9.39-4.75-13.8-23.78-1.5-28.16s15.9,9.75,15.9,9.75Z"/><path class="cls-2" d="M21.42,126.55S17.8,105.72,8.61,112.78c-5.63,4.34-2.4,10.54,2.75,13.13C14.59,127.54,18.81,127.73,21.42,126.55Z"/><path class="cls-7" d="M21.31,126.31,20,121.06S2.81,115.9,7.57,122.9,21.31,126.31,21.31,126.31Z"/><path class="cls-2" d="M90.89,119.8h0A24.53,24.53,0,0,1,89,122.35a17.79,17.79,0,0,1-1.78,1.8,6.46,6.46,0,0,1-1.83,1.18,1.76,1.76,0,0,1-.69.12,3.46,3.46,0,0,1-1.64-.51,10.5,10.5,0,0,1-2.7-2.38,14.93,14.93,0,0,1-2-3,.88.88,0,1,0-1.58.78A17,17,0,0,0,80,124.76a10.36,10.36,0,0,0,2.2,1.71,5.24,5.24,0,0,0,2.5.75A3.85,3.85,0,0,0,86,127a8.73,8.73,0,0,0,2.42-1.55,21.89,21.89,0,0,0,2.8-3.05c.71-.93,1.15-1.62,1.16-1.63a.88.88,0,0,0-.26-1.22A.89.89,0,0,0,90.89,119.8Z"/><path class="cls-5" d="M21.51,66.38S27,85.31,73.31,91.29L60.41,77.42s22,14.93,46.23,4.07l-15.88-6s12.9-.12,21.85,1.84c4.45,1,23.62,4.91,31.26,11.57,0,0,19.21-25.4,6.87-36.47S-12.13,37.88,21.51,66.38Z"/><path class="cls-5" d="M126.92,98s-13-2.47-24.07-.57V90.77l23.09-.47Z"/><path class="cls-5" d="M38.36,98s13-2.47,24.07-.57l0-6.67-23.1-.47Z"/><path class="cls-8" d="M57.75,110.43a7.25,7.25,0,1,1-7.25-7.25A7.25,7.25,0,0,1,57.75,110.43Z"/><path class="cls-9" d="M51.7,105.38c.18.88-.9,1.84-2.41,2.14s-2.89-.16-3.07-1,.91-1.83,2.42-2.14S51.53,104.51,51.7,105.38Z"/><path class="cls-8" d="M124.9,110.43a7.26,7.26,0,1,1-7.25-7.25A7.26,7.26,0,0,1,124.9,110.43Z"/><path class="cls-9" d="M118.85,105.38c.17.88-.91,1.84-2.42,2.14s-2.89-.16-3.06-1,.91-1.83,2.42-2.14S118.67,104.51,118.85,105.38Z"/><polygon class="cls-10" points="84.21 135.04 83.94 135.04 61.51 135.04 67.64 153.26 83.94 153.26 84.21 153.26 100.51 153.26 106.64 135.04 84.21 135.04"/><path class="cls-11" d="M68.83,153.26h30.5a15.45,15.45,0,0,0-30.5,0Z"/></g></g></svg>