<svg xmlns="http://www.w3.org/2000/svg" viewBox="0 0 155.98 260"><defs><style>.cls-1{fill:#e8e3d9;}.cls-2{fill:#f9f5ed;}.cls-3{fill:#7f5732;}.cls-4{fill:#f4d3b0;}.cls-5{fill:#f9dab4;}.cls-6{fill:#efc4a0;}.cls-7{fill:#3a332d;}.cls-8{fill:#e8dfd9;}.cls-9{fill:#afaba3;}.cls-10{fill:#515151;}.cls-11{fill:#c4bfb7;}</style></defs><title>资源 304</title><g id="图层_2" data-name="图层 2"><g id="Layer_1" data-name="Layer 1"><path class="cls-1" d="M22.16,260l9.14-84.46S10.83,196,.14,260Z"/><path class="cls-1" d="M124.55,175.54,133.69,260h22C145,196,124.55,175.54,124.55,175.54Z"/><path class="cls-2" d="M41.8,162.94v8.75l-10.5,3.85s-6,36.17-11.44,84.46H136c-5.46-48.29-11.44-84.46-11.44-84.46l-10.5-3.85v-8.75H77.93v0Z"/><path class="cls-1" d="M41.8,171.69s9.47,2.91,17.72,3.11c0,0-15.18-2.73-17.72-5.52Z"/><path class="cls-1" d="M114.05,171.69s-9.47,2.91-17.72,3.11c0,0,15.18-2.73,17.72-5.52Z"/><path class="cls-1" d="M77.93,260V167.27C76.12,199.68,75.28,231.19,75,260Z"/><rect class="cls-1" x="88.91" y="198.33" width="28.74" height="11.99"/><rect class="cls-3" x="5.22" y="60.59" width="145.39" height="44.65"/><path class="cls-4" d="M24.3,109.83s-5-14.76-17.83-10.62C-5.59,103.1-1.42,143,24.3,146.35Z"/><path class="cls-4" d="M131.68,109.83s5-14.76,17.82-10.62c12.07,3.89,7.89,43.83-17.82,47.14Z"/><path class="cls-5" d="M137.92,140.79a21.3,21.3,0,0,1-15.2,20.43c-10.13,3-25.19,6.05-44.79,6.05s-34.67-3-44.8-6.05a21.3,21.3,0,0,1-15.2-20.43V61.38h120Z"/><path class="cls-6" d="M77.81,111.1c-5.79-.14-7.63,5.31-7.63,5.31a13.87,13.87,0,0,1,7.62-2.65,12.84,12.84,0,0,1,7.63,2.65A8.43,8.43,0,0,0,77.81,111.1Z"/><circle class="cls-7" cx="43.86" cy="102.15" r="7.24"/><path class="cls-8" d="M45.06,97.1c.17.88-.91,1.84-2.42,2.14s-2.88-.16-3-1,.9-1.83,2.41-2.14S44.88,96.23,45.06,97.1Z"/><rect class="cls-3" x="29.1" y="83.78" width="23.51" height="5.97" rx="2.53"/><circle class="cls-7" cx="112.88" cy="102.15" r="7.24"/><path class="cls-8" d="M111.68,97.1c-.17.88.91,1.84,2.42,2.14s2.88-.16,3.05-1-.9-1.83-2.41-2.14S111.86,96.23,111.68,97.1Z"/><rect class="cls-3" x="104.13" y="83.78" width="23.51" height="5.97" rx="2.53"/><polygon class="cls-9" points="39.61 122.87 17.93 97.25 17.93 100.97 37.78 124.42 39.61 122.87"/><polygon class="cls-9" points="118.1 124.42 137.92 101 137.92 97.29 116.27 122.87 118.1 124.42"/><path class="cls-2" d="M34,161.46s24.89,3.37,44,3.37,43.95-3.36,43.95-3.36V117.83H34Z"/><path class="cls-2" d="M77.92,0h0C-18.75,0,5.22,60.59,5.22,60.59c26.74,3.35,72.7,3.17,72.7,3.17s46,.18,72.7-3.17C150.62,60.59,174.6,0,77.92,0Z"/><rect class="cls-10" x="5.22" y="60.59" width="145.34" height="15.5"/><circle class="cls-11" cx="77.99" cy="66.47" r="28.08"/><circle class="cls-1" cx="77.99" cy="66.47" r="17.31" transform="translate(-4.62 127.1) rotate(-76.72)"/></g></g></svg>