<svg xmlns="http://www.w3.org/2000/svg" viewBox="0 0 179.48 260.05"><defs><style>.cls-1{fill:#ed7474;}.cls-2{fill:#e26969;}.cls-3{fill:#2f3233;}.cls-4{fill:#f9dab4;}.cls-5{fill:#f7cea6;}.cls-6{fill:#f9f7f2;}.cls-7{fill:#47413e;}.cls-8{fill:#f9f5ed;}.cls-9{fill:#e0605c;}.cls-10{fill:#ad3936;}</style></defs><title>资源 106</title><g id="图层_2" data-name="图层 2"><g id="Layer_1" data-name="Layer 1"><path class="cls-1" d="M55,167.76s-22.58,5.38-34.14,67c-2,10.51-3.56,19.36-4.34,25.33H41.43l2.24-15.53L56.4,204S68.1,173.18,55,167.76Z"/><path class="cls-2" d="M55,167.76s-11.94,2.85-22.89,28.07c6.18,4.37,14.2,16.6,9.66,32a182,182,0,0,0-6.6,32.2h6.27l2.24-15.53L56.4,204S68.1,173.18,55,167.76Z"/><path class="cls-1" d="M121.6,167.76s22.57,5.38,34.13,67c2,10.51,3.56,19.36,4.34,25.33H135.16l-2.25-15.53L120.18,204S108.48,173.18,121.6,167.76Z"/><path class="cls-2" d="M121.6,167.76s11.93,2.85,22.88,28.07c-6.18,4.37-14.2,16.6-9.66,32a181.08,181.08,0,0,1,6.6,32.2h-6.26l-2.25-15.53L120.18,204S108.48,173.18,121.6,167.76Z"/><path class="cls-1" d="M65.13,151.61v16.21L55,167.76c-2.54,9.87-9.78,58.49-14.68,92.29h97.75c-3.9-35.59-14.76-87.83-16.46-92.29h-8.54V151.61Z"/><path class="cls-2" d="M121.6,167.76h-8.54V151.61H90.27a5,5,0,0,0-.54,1.46s17-1.13,19,6-3,8.1-5.89,8.1-13.14.56-13.14.56v.08l-1.83-.08s-10.2-.56-13.14-.56-7.89-1-5.89-8.1,19-6,19-6a5.34,5.34,0,0,0-.54-1.46H65.13v16.21L55,167.76c-2.54,9.87-9.78,58.49-14.68,92.29h5c0-.44,0-.69,0-.72,2.53-27.44,10.94-64.77,15.14-76.46s30.07-11.44,30.07-11.44v-.06c2.52-.21,22.75-1.59,27.77,9.47s10.33,61.51,11,79.21h8.76C134.16,224.46,123.3,172.22,121.6,167.76Z"/><path class="cls-3" d="M59,152.09s-28.62,6-45.69-3S-2.25,97.37,5.79,62.74,38.91,5,83.09.49s56.72,23.59,56.72,23.59l2.51-8s5,7,5,11.05c11-6,15.56-1.51,15.56-1.51s-9.79,4-9.79,8.53c0,0,23.85,10.8,25.85,84.84,2,30.11,1.51,44.67-66.25,35.64C85.6,149.07,59,152.09,59,152.09Z"/><path class="cls-4" d="M38.41,88.34V124c0,9,4.52,42.16,47.69,42.16s55.72-24.59,55.72-42.16V90.85S123,82.44,119.73,58.72C96.64,81.81,67,94.86,38.41,88.34Z"/><path class="cls-5" d="M85.73,115c-1.19,2.42-1.69,5-2.55,7.53s-3.25,5.36-2.16,8.14c1,2.51,3.93,3.44,6.7,3.58,7.5.37,10.91-2.35,8.82-9C95.63,122.36,90.36,105.58,85.73,115Z"/><path class="cls-4" d="M86.44,114.17a57.23,57.23,0,0,0-2.18,6.76c-.76,2.32-2.74,4.82-1.86,7.31.79,2.24,3.2,3,5.49,3.15,6.17.27,9-2.19,7.35-8.1C94.52,120.71,90.35,105.72,86.44,114.17Z"/><path class="cls-6" d="M87.49,130.77c.09.35.91.5,1.86.33s1.65-.58,1.57-.93-.91-.49-1.86-.33S87.42,130.42,87.49,130.77Z"/><path class="cls-7" d="M72.53,107s-14.61-10.77-26-3.3a19.47,19.47,0,0,1,1.38-2.93A5.66,5.66,0,0,1,50,98.86c4.83-2.48,12.66-1.23,17.23,1.77A15.57,15.57,0,0,1,72.53,107Z"/><path class="cls-7" d="M103.2,107s14.61-10.77,26-3.3a19.47,19.47,0,0,0-1.38-2.93,5.66,5.66,0,0,0-2.08-1.89c-4.82-2.48-12.66-1.23-17.23,1.77A15.65,15.65,0,0,0,103.2,107Z"/><path class="cls-3" d="M66.69,120.67a2.5,2.5,0,0,1-.18.24,8.22,8.22,0,0,1-5.27,2.9c-3.57.67-8.78.52-11.11-4.26-2.16-4.41,2.29-5.07,4.33-3.86s4.25,2.45,6.33,1.66c1.67-.63,3.61-3.51,5.44-2.39S67.86,119,66.69,120.67Z"/><path class="cls-8" d="M53.73,117.13c.24.59-.22,1.42-1,1.83s-1.68.27-1.92-.33.22-1.42,1-1.84S53.48,116.53,53.73,117.13Z"/><path class="cls-3" d="M126.12,120.67a1.46,1.46,0,0,1-.17.24,8.22,8.22,0,0,1-5.27,2.9c-3.57.67-8.78.52-11.12-4.26-2.15-4.41,2.29-5.07,4.34-3.86s4.25,2.45,6.33,1.66c1.67-.63,3.61-3.51,5.44-2.39S127.29,119,126.12,120.67Z"/><path class="cls-8" d="M113.16,117.13c.25.59-.22,1.42-1,1.83s-1.68.27-1.93-.33.22-1.42,1-1.84S112.92,116.53,113.16,117.13Z"/><path class="cls-9" d="M78,141.92H99.75s1.2,14.39-10.29,15.61C80.37,158.24,78.1,147.54,78,141.92Z"/><path class="cls-10" d="M89.46,157.53A10.11,10.11,0,0,0,97.21,153c-2-3.66-5-6-8.43-6s-6.22,2.17-8.19,5.58C82.33,155.6,85.12,157.87,89.46,157.53Z"/><path class="cls-5" d="M141.82,93.81v-3S123,82.44,119.73,58.72C96.64,81.81,67,94.86,38.41,88.34v2.55c9.22,2.26,48.43,9.2,79.82-26.15C118.23,64.74,125.33,90.7,141.82,93.81Z"/><polygon class="cls-10" points="59.01 77.41 65.88 74.84 75.32 94.58 63.75 97.37 59.01 77.41"/></g></g></svg>