<svg xmlns="http://www.w3.org/2000/svg" viewBox="0 0 286.12 259.32"><defs><style>.cls-1{fill:#f9dab4;}.cls-2{fill:#54a3b5;}.cls-3{fill:#428e9b;}.cls-4{fill:#c65044;}.cls-5{fill:#936a4c;}.cls-6{fill:#efc4a0;}.cls-7{fill:#515151;}.cls-8{fill:#e8e3d9;}.cls-9{fill:#f4d3b0;}.cls-10{fill:#393c3d;}.cls-11{fill:#492020;}</style></defs><title>资源 306</title><g id="图层_2" data-name="图层 2"><g id="Layer_1" data-name="Layer 1"><path class="cls-1" d="M54.67,190.79,33.5,186.55S-.29,235.16,0,243.06c.08,2.1,1.75,8.53,4.08,16.26H23.42c-2.39-7.82-4.23-14.21-4-14.86C20.66,240.14,54.67,190.79,54.67,190.79Z"/><path class="cls-2" d="M57.85,156.52s-28.71,29.8-36.53,42.34c0,0,11.81,14.72,27.26,16.9Z"/><path class="cls-3" d="M48.58,215.76c-15.45-2.18-27.26-16.9-27.26-16.9a108.25,108.25,0,0,1,7.59-10.19,54.35,54.35,0,0,0,21.57,15Z"/><path class="cls-1" d="M204.08,204.14s13.78-3.66,17.91-5.33l-12-29.33-21.2,11Z"/><polygon class="cls-4" points="204.67 84.79 286.12 103.87 210.4 155.49 204.67 84.79"/><polygon class="cls-5" points="197.49 85.56 213.4 233.25 220.58 232.49 204.67 84.79 197.49 85.56"/><polygon class="cls-6" points="199.98 179.08 207.34 177.55 206.85 173.12 199.98 179.08"/><path class="cls-1" d="M186,179.91a24.6,24.6,0,0,1,2.9-7.3c4-6.67,12.63-13.68,18.31-7.61,6.58,7-10.3,15.91-10.3,15.91l10.86,22.23s-5.25,2.42-7.8,3.36l-19.53,38a11.63,11.63,0,0,1-19.72,1.58l-39.9-54.28,14.87-13.5,34.14,49.89,16-33.18A52.56,52.56,0,0,1,186,179.91Z"/><path class="cls-1" d="M227.65,186.54c.78,1.21,7.49,9.46-3.55,12.55-8.55,2.38-12.14-.92-12.22-3.85-.12-5.1,4.07-5.93,4.07-5.93Z"/><path class="cls-6" d="M214.24,190.09l13.5-3.41a22.61,22.61,0,0,1,1.52,2.42l-.46.3c-11.19,8.24-16,2.33-16,2.33l.19-.43A5.27,5.27,0,0,1,214.24,190.09Z"/><path class="cls-1" d="M227,177.26s6.69,7.44-2,12.89-14.15,1.42-14.59-1.48c-.76-5,5.29-7.2,5.29-7.2Z"/><path class="cls-6" d="M213.37,182.77h0s5.19,4.87,15.29-2.91h0a11.81,11.81,0,0,0-.86-1.55Z"/><path class="cls-1" d="M217.84,169.7c-2.07.87-9.57,4.11-8,9.32s7.63,4.6,11.63,3,10.05-5,7.87-9.83S219.9,168.82,217.84,169.7Z"/><path class="cls-2" d="M117,156.52s28.71,29.8,36.53,42.34c0,0-11.81,14.72-27.26,16.9Z"/><path class="cls-3" d="M126.24,215.76c15.45-2.18,27.26-16.9,27.26-16.9a108.25,108.25,0,0,0-7.59-10.19,54.35,54.35,0,0,1-21.57,15Z"/><path class="cls-2" d="M56.55,152.5A609.61,609.61,0,0,0,34.06,259.32H140.77a609.06,609.06,0,0,0-22.5-106.82H56.55Z"/><circle class="cls-3" cx="87.41" cy="160.24" r="24.03"/><circle class="cls-6" cx="87.41" cy="160.24" r="16.06" transform="translate(-88.55 208.78) rotate(-76.81)"/><path class="cls-7" d="M87.43,244.21,51.26,151.5h71ZM54.19,153.5l33.2,85.11,32-85.11Z"/><rect class="cls-8" x="58.23" y="214.27" width="60.54" height="33.3" transform="translate(-23.35 10.36) rotate(-5.92)"/><path d="M71.32,237.26a1,1,0,0,1,1.22,1,12.44,12.44,0,0,0,.61,2.37,12.18,12.18,0,0,1,.6,2.36c0,.28-.11.43-.42.47-.57.05-.87-.11-.91-.51a.21.21,0,0,1,0-.06.35.35,0,0,1,0-.07,3.28,3.28,0,0,0-.86.47,4.38,4.38,0,0,1-.8.46,5.51,5.51,0,0,1-.83.18,2.05,2.05,0,0,0-.81.24h.07a8.45,8.45,0,0,1-3.62-.87A3.75,3.75,0,0,1,64,241.16a40.12,40.12,0,0,1-1.54-8.48,21.43,21.43,0,0,1-.17-3.31c0-.66.11-1.24.2-1.75a5.8,5.8,0,0,1,.35-1.34,7.81,7.81,0,0,1,.6-1.19,4.15,4.15,0,0,1,.88-1,5.27,5.27,0,0,1,2.84-1.1c.71-.07,1.07,0,1.11.35s-.14.35-.49.38l-1,0c-1.81.19-2.86,1.57-3.13,4.14a25.87,25.87,0,0,0,.11,5.41c.08,1.42.14,2.41.2,3s.11,1,.15,1.27.11.68.2,1.13a7.29,7.29,0,0,0,.33,1.21q.21.53.48,1.14a3.62,3.62,0,0,0,.68,1,4.92,4.92,0,0,0,.91.78,4.11,4.11,0,0,0,2.8.53,3.67,3.67,0,0,0,2.76-1.64,7.63,7.63,0,0,0-.61-2.7c-.26-.47-.49-.69-.67-.67l-1.41.25c-.54.06-.83-.07-.86-.38,0-.16.31-.34,1-.52A10.78,10.78,0,0,1,71.32,237.26Z"/><path d="M85.75,236.25,86,238a5.82,5.82,0,0,1-.43,3.43,2.57,2.57,0,0,1-.88.85,3.64,3.64,0,0,1-1.58.48,4.26,4.26,0,0,1-1.86-.21,3.53,3.53,0,0,1-1.39-.88,6.72,6.72,0,0,1-.93-1.32,7.75,7.75,0,0,1-.63-1.46,8,8,0,0,0-1-2.33q-.23-2.14-1-6.37t-1-6.37l-.3-.54a.52.52,0,0,1,.14-.38.62.62,0,0,1,.41-.22c.59-.06,1,.57,1.09,1.88l1.25,9.06a1.12,1.12,0,0,1,.24.63,17.26,17.26,0,0,0,.58,2.36,2.65,2.65,0,0,0,0,.69,4.21,4.21,0,0,0,.47,1.2,9.3,9.3,0,0,0,1.06,1.61,5.43,5.43,0,0,0,1.51,1.31,2.49,2.49,0,0,0,1.52.45,3.19,3.19,0,0,0,.94-.2,2.05,2.05,0,0,0,.46-.28.84.84,0,0,0,.24-.45,2.54,2.54,0,0,0,.1-.45,3.73,3.73,0,0,0,0-.55,2.82,2.82,0,0,0,0-.47c0-.06,0-.14,0-.25v-.9l-.32-3.06-.41-1.59-.71-4.8,0-.35-.17-.14a7.3,7.3,0,0,0,0-1.55l-.8-4.54a.36.36,0,0,1,.22-.35,1.17,1.17,0,0,1,.52-.16l.65.37-.09.22.13.2-.08,1.64.85,4.81.66,4.66.13,0a2.88,2.88,0,0,0,0,.56l.3,1.89.11.06Z"/><path d="M94.56,240.89H93.42a1.34,1.34,0,0,0-.78.4,1.53,1.53,0,0,1-1-.11h-.09c-1.09.11-1.73,0-1.94-.26,0-.21.24-.34.79-.39l.78-.06c.47,0,.69-.33.65-.85a16.55,16.55,0,0,0-.3-1.88c-.15-.74-.27-1.47-.36-2.21s-.31-2.16-.65-4.27-.57-3.64-.7-4.57l-.29-3.15a6.28,6.28,0,0,0-.27-1.56l-1.19.33c-.26,0-.4-.09-.42-.34s.47-.51,1.49-.78a17.37,17.37,0,0,1,2.09-.46c.63-.06,1,.05,1,.34a.39.39,0,0,1-.38.49l-.86.06c-.4,0-.63.21-.68.51a10.43,10.43,0,0,0,.1,2.1c.12,1.16.5,3.43,1.15,6.83s1.07,5.95,1.25,7.68l.11,1.4,1.27-.22c.61-.06.94.13,1,.58Z"/><path d="M98.9,236.58l-.08-1.08a34,34,0,0,0-.62-3.65c-.31-1.37-.5-2.23-.57-2.57a16.79,16.79,0,0,1-.52-3.35c-.23-2.08-.37-3.23-.44-3.45a2.94,2.94,0,0,0-.38-.79A2,2,0,0,1,96,221c0-.43.83-.74,2.6-.92l.18,0a5,5,0,0,1,3,.83,6.7,6.7,0,0,1,2.25,1.82,6.35,6.35,0,0,1,.86,2.11c.19.84.34,1.6.46,2.3a3.33,3.33,0,0,0,.37,1.3v.73l.12.12-.08.24.12.12a1.12,1.12,0,0,0-.13.77,5.77,5.77,0,0,1,0,.92,4.77,4.77,0,0,1-.07.68c0,.16-.08.4-.16.72s-.19.84-.34,1.55a7.61,7.61,0,0,1-2.78,4.6,10.3,10.3,0,0,1-2.51,1.66,2.75,2.75,0,0,1-.85-.06c-.29-.06-.46-.17-.52-.35A1.68,1.68,0,0,0,99,239Zm-1.47-15.14.78,4.44c.12,1.15.38,2.86.8,5.11s.66,3.79.75,4.59.15,1.68.2,2.65l.08.1.08.76.17,0a7,7,0,0,0,2.2-1.78,8.38,8.38,0,0,0,1.37-2.27,13.25,13.25,0,0,0,.68-2.5,16,16,0,0,0,.14-4.18q-.81-7.87-6.53-7.28C97.67,221.11,97.43,221.24,97.43,221.44Z"/><path d="M112.13,238.37l2.12-.32c1.11-.11,1.68,0,1.71.26a1.53,1.53,0,0,1-1,.62,9.75,9.75,0,0,1-1.46.26l-.83.09a4.56,4.56,0,0,1-1.85,0,.54.54,0,0,1-.29-.38l.23-1v-.05a5,5,0,0,1-.26-1.17l-.11-2.76-.81-5.74-.38-5.36a6.93,6.93,0,0,0-.37-1.42,7.69,7.69,0,0,1-.39-1.38l.56-.81,2.46-.49.13.06c.55-.06.88,0,1,.07a.53.53,0,0,1,.17.33c0,.34-.37.56-1.23.65l-1,0c-.52.06-.77.19-.74.4l.75,4.54.17,3.39-.06.06.22.07,1.93-.48a.69.69,0,0,1,.43.11.43.43,0,0,1,.26.28.49.49,0,0,1-.49.6l-.81.05c-.9.1-1.34.31-1.3.66l.49,2.23-.1.17.57,5.47a1.08,1.08,0,0,1,.26.73Z"/><path class="cls-7" d="M13.09,99.17S-10.13,0,87.41,0c17.93,0,45.74,5.53,54.69,25.63,0,0,10.39.51,16.65,15.34,11.43,27.05,3.84,58.2,3.84,58.2Z"/><path class="cls-9" d="M30.58,102.55S27.8,88.77,16,90.77c-10.85,1.84-18,34,14.57,46.81Z"/><path class="cls-9" d="M144.33,102.55s2.78-13.78,14.57-11.78c10.85,1.84,18,34-14.57,46.81Z"/><path class="cls-1" d="M148.55,121.12a41.63,41.63,0,0,1-30.62,40.17,116.44,116.44,0,0,1-30.52,4.36,116.44,116.44,0,0,1-30.52-4.36,41.63,41.63,0,0,1-30.62-40.17V56.61H148.55Z"/><polygon class="cls-10" points="61.06 74.79 61.06 81.9 36.35 82.37 36.35 74.79 61.06 74.79"/><polygon class="cls-10" points="112.62 74.79 112.62 81.9 137.32 82.37 137.32 74.79 112.62 74.79"/><path class="cls-7" d="M41.82,104.71a1.25,1.25,0,0,1-1.24-1.11c0-.44-1.06-10.84,6.57-12.8,6.12-1.57,10.21,4.17,11.51,7.42a1.25,1.25,0,0,1-2.31.93c-.12-.3-3.05-7.36-8.58-5.94s-4.72,10-4.71,10.12A1.24,1.24,0,0,1,42,104.7Z"/><path class="cls-7" d="M132.56,104.71h-.14a1.23,1.23,0,0,1-1.1-1.37c0-.1.83-8.69-4.71-10.12s-8.46,5.64-8.59,5.94a1.24,1.24,0,0,1-1.62.69,1.26,1.26,0,0,1-.69-1.62c1.31-3.25,5.4-9,11.52-7.42,7.63,2,6.61,12.36,6.56,12.8A1.23,1.23,0,0,1,132.56,104.71Z"/><polygon class="cls-6" points="77.37 95.22 77.37 122.99 89.14 128.95 99.51 123.9 89.37 125.28 79.94 120 77.37 95.22"/><path class="cls-11" d="M84,137.74c3.94,0,8.41-.14,12.76-.49a11.18,11.18,0,0,1,12.08,10.28l.13,1.76a2.22,2.22,0,0,1-1.29,2.19c-3.56,1.6-14,5.08-32.81,1.79a2.22,2.22,0,0,1-1.82-2L72.94,150A11.16,11.16,0,0,1,84,137.74Z"/><path class="cls-4" d="M75.09,153.3c17.39,3,27.59.22,31.77-1.47a18,18,0,0,0-31.77,1.47Z"/><path class="cls-7" d="M26.27,89.24S25.32,65.45,74,60.72C73.61,69,70.59,74,65.09,75.62c0,0,34.63,6.52,51.76-13.79,0,0,.55,15.58-14.61,19.34,0,0,26.57,13.49,50.25-7.42V49.59H21.3V89.24Z"/></g></g></svg>