<svg xmlns="http://www.w3.org/2000/svg" viewBox="0 0 182.13 260.01"><defs><style>.cls-1{fill:#d88832;}.cls-2{fill:#e2963b;}.cls-3{fill:#f4a556;}.cls-4{fill:#f7cea6;}.cls-5{fill:#f9dab4;}.cls-6{fill:#6b4627;}.cls-7{fill:#472b18;}.cls-8{fill:#fff;}.cls-9{fill:#f9f7f2;}.cls-10{fill:#e5be9e;}.cls-11{fill:#f4c7a2;}.cls-12{fill:#2e3233;}</style></defs><title>资源 47</title><g id="图层_2" data-name="图层 2"><g id="Layer_1" data-name="Layer 1"><path class="cls-1" d="M11.14,260h31c.37-2.95.54-4.35.54-4.35A294.21,294.21,0,0,1,12,253.54Z"/><path class="cls-2" d="M52.64,158.12s-33,32.29-42,96.89l35.47,3.42s16.06-77.8,16.06-97.05C62.15,161.38,59.6,152.34,52.64,158.12Z"/><path class="cls-3" d="M54.76,166.75s-9.21-.27-19.69,21.43c-7.78,16.1-25.87,58.07-10.33,63.65s16.51-7.26,18.09-17.38S54.76,166.75,54.76,166.75Z"/><path class="cls-1" d="M168.06,253.54a294,294,0,0,1-30.64,2.12s.18,1.4.54,4.35h31Z"/><path class="cls-2" d="M127.45,158.12s33,32.29,42,96.89L134,258.43S118,180.63,118,161.38C118,161.38,120.5,152.34,127.45,158.12Z"/><path class="cls-3" d="M125.52,164.8S134.19,166,145,188.18c7.86,16.06,25.87,58.07,10.32,63.65s-16.5-7.26-18.08-17.38S125.52,164.8,125.52,164.8Z"/><path class="cls-3" d="M137.26,260C135,238.93,128,178.89,118.74,155.65L57.45,156s-14.1,61.14-15.69,104Z"/><path class="cls-2" d="M60.09,156H57.45s-14.1,61.14-15.69,104h15.3c-5.44-3.21-9.14-9.14-9.14-20.11C47.56,219.4,56.48,173,56.48,173Z"/><path class="cls-2" d="M122,260h15.3c-1-9.89-3.14-28.34-6-47.55a295.56,295.56,0,0,1,.31,32.12C131.11,252.42,127.35,257.16,122,260Z"/><path class="cls-1" d="M91.53,187.84c-10.24,0-16-4.27-19.06-7.85-7.37-8.67-5.66-20.71-5.44-22.06l1-6h47.05l1,6c.22,1.35,1.93,13.39-5.44,22.06C107.56,183.57,101.78,187.84,91.53,187.84Z"/><path class="cls-4" d="M74.1,159.08s-3.52,21.59,17.43,21.59S109,159.08,109,159.08Z"/><path class="cls-5" d="M135,53.52c-16.69-6.85-25.73.85-43,.3h0c-9-.06-31.29-2.45-39.21,0-37.13,10.29-30.44,46.73-31,56-2,31.13,30.93,56.68,69.53,56.93s70.06-24.83,70.26-56C161.54,110.74,163,66.57,135,53.52Z"/><path class="cls-6" d="M115.88,89.51s4.37-2,11.84-1.61c7.21.33,13.22,3.6,13.53,2,.55-2.77-3.28-7.55-9.25-9.72-5.6-2-10.61-.3-14.44,2.54S112,90.56,115.88,89.51Z"/><path class="cls-6" d="M68.07,89.51s-4.38-2-11.84-1.61C49,88.23,43,91.5,42.7,90,42.15,87.18,46,82.4,52,80.23c5.6-2,10.6-.3,14.44,2.54S71.92,90.56,68.07,89.51Z"/><path class="cls-7" d="M137.11,100.72a11.28,11.28,0,1,1-15.64-3.15A11.28,11.28,0,0,1,137.11,100.72Z"/><path class="cls-8" d="M129.46,98.08c1.11,1.68-.35,4.63-3.28,6.57s-6.21,2.16-7.33.48.35-4.63,3.28-6.57S128.34,96.4,129.46,98.08Z"/><path class="cls-7" d="M65.76,100.72a11.28,11.28,0,1,1-15.64-3.15A11.3,11.3,0,0,1,65.76,100.72Z"/><path class="cls-8" d="M58.1,98.08c1.12,1.68-.34,4.63-3.27,6.57s-6.21,2.16-7.33.48.35-4.63,3.27-6.57S57,96.4,58.1,98.08Z"/><path class="cls-4" d="M84.93,128.59v0A28.51,28.51,0,0,1,87,125.82a18.6,18.6,0,0,1,1.92-1.95,7.28,7.28,0,0,1,2-1.28,2,2,0,0,1,.74-.13,3.76,3.76,0,0,1,1.78.56,11.43,11.43,0,0,1,2.92,2.57,16.73,16.73,0,0,1,2.18,3.27,1,1,0,1,0,1.71-.84,18.67,18.67,0,0,0-3.49-4.81,11.54,11.54,0,0,0-2.38-1.86,5.76,5.76,0,0,0-2.71-.8,4,4,0,0,0-1.44.26,9.17,9.17,0,0,0-2.62,1.67,23.78,23.78,0,0,0-3,3.31c-.77,1-1.24,1.75-1.25,1.76a1,1,0,0,0,1.6,1Z"/><path class="cls-9" d="M48.41,128.92a1.26,1.26,0,0,1-1.3,1.22L42.85,130a1.27,1.27,0,0,1-1.22-1.31h0a1.26,1.26,0,0,1,1.31-1.22l4.26.16a1.25,1.25,0,0,1,1.21,1.31Z"/><path class="cls-9" d="M140.09,129.51a1.27,1.27,0,0,1-1.31,1.22l-4.25-.16a1.26,1.26,0,0,1-1.22-1.31h0a1.26,1.26,0,0,1,1.31-1.22l4.25.16a1.26,1.26,0,0,1,1.22,1.31Z"/><path class="cls-5" d="M152.61,130.83a23.19,23.19,0,0,0,19.51-.26c10.23-5,15.28-25.55,2-30.47s-17.35,10.33-17.35,10.33Z"/><path class="cls-4" d="M158.78,124.58s4.21-22.52,14.06-14.74c6,4.78,2.46,11.45-3.15,14.19C166.16,125.74,161.59,125.89,158.78,124.58Z"/><path class="cls-10" d="M158.9,124.32l1.46-5.67s18.72-5.34,13.47,2.17S158.9,124.32,158.9,124.32Z"/><path class="cls-5" d="M29.29,130.79a23.19,23.19,0,0,1-19.5-.51c-10.18-5.14-15-25.75-1.63-30.5s17.21,10.56,17.21,10.56Z"/><path class="cls-4" d="M23.2,124.46s-3.93-22.57-13.87-14.92c-6.11,4.69-2.61,11.42,3,14.22C15.8,125.52,20.37,125.73,23.2,124.46Z"/><path class="cls-10" d="M23.08,123.42l-1.39-5.69S3,112.15,8.2,119.73,23.08,123.42,23.08,123.42Z"/><path class="cls-11" d="M90.91,154.16a60.56,60.56,0,0,1-6.79-.39,59.55,59.55,0,0,1-14.57-3.44,1.36,1.36,0,1,1,1-2.51c.28.11,22.94,9.15,42.75-1.85a1.36,1.36,0,1,1,1.32,2.37A48.65,48.65,0,0,1,90.91,154.16Z"/><path class="cls-6" d="M167.85,70.4h0s1.69-69-68.46-70.31C81.85-.24,60.79-.59,46.72,15.8c-.53-2.74-.67-6.92.75-12.91a21.39,21.39,0,0,0-4,11.12c-2.7-2.6-7.07-5.11-13.95-5.34a14.47,14.47,0,0,1,10.32,7.78A22.82,22.82,0,0,0,26,23.8C21.32,29,15.17,46.33,15.15,80.33c0,6.25,0,12.68.45,18.84a15.84,15.84,0,0,1,6.08,4c.18-14,10.23-29.08,10.23-29.08S53.82,79,95.92,79c1.54,0,3.06,0,4.57,0,.06-.07,3.32-3.81,1.82-14.53a18.44,18.44,0,0,1,5.52,14.34c3.68-.14,7.28-.33,10.75-.58,1.76-6.88-2.09-19.8-2.09-19.8,9.28,5.8,10.33,19.12,10.33,19.13,10.34-1,18.88-2.28,25.45-3.52a71,71,0,0,1,9,28.52,13,13,0,0,1,6.12-3.31c.51-6.79.71-12,.7-18.93C168.07,76.94,168,73.62,167.85,70.4Z"/><path class="cls-12" d="M167.37,99.23c.14-1.81.25-3.51.34-5.16L149,101.64a21.43,21.43,0,0,0-41.39-.93C104.7,98.87,99.7,96.79,92,96.79c-7.47,0-12.27,2-15.11,3.78a21.42,21.42,0,0,0-41.46,1.58L15.33,94c.07,1.73.15,3.44.27,5.13h0L34.94,107a21.43,21.43,0,0,0,42.85-.26c0-.34,0-.67,0-1,1.33-1.27,5.42-4.26,14.23-4.26,9,0,13.41,3.16,14.78,4.4,0,.28,0,.57,0,.86a21.43,21.43,0,0,0,42.86,0c0-.1,0-.19,0-.29l17.76-7.19Zm-111,24.25a16.77,16.77,0,1,1,16.77-16.77A16.8,16.8,0,0,1,56.36,123.48Zm71.83,0A16.77,16.77,0,1,1,145,106.71,16.79,16.79,0,0,1,128.19,123.48Z"/></g></g></svg>