<svg xmlns="http://www.w3.org/2000/svg" viewBox="0 0 219.19 307.48"><defs><style>.cls-1{fill:#e89f36;}.cls-2{fill:#f4ba53;}.cls-3{fill:#f2d0af;}.cls-4{fill:#ddb58e;}.cls-5{fill:#6b4627;}.cls-6{fill:#393c3d;}.cls-7{fill:#f4d3b0;}.cls-8{fill:#3a332d;}.cls-9{fill:#c65044;}</style></defs><title>资源 238</title><g id="图层_2" data-name="图层 2"><g id="Layer_1" data-name="Layer 1"><path class="cls-1" d="M115.9,224.34c-2.89-6.54-8.34-7.71-8.34-7.71-10.39-3.06-.19,58.52,5.84,90.85h19.06C128,282.67,118.11,229.35,115.9,224.34Z"/><path class="cls-1" d="M50,219s-36.68,45.83-37.36,55.56c-.53,7.52,7,25.28,10.51,33H43c-2-5.76-11.11-32.08-10.86-34.15.28-2.32,22.22-28.06,22.22-28.06S59.87,214.64,50,219Z"/><path class="cls-2" d="M120.93,306.61c-3.32-34.35-7.56-75-9.82-83.27-3.34-12.15-21.55-12.26-21.55-12.26l-7.75,1.17-5-.41L69,210.9s-18.2.54-21.15,12.79c-2,8.28-4.93,48.6-7.17,82.92Z"/><path class="cls-3" d="M121,307.48c-.44-4.56-.89-9.23-1.36-13.94H41.52c-.32,4.7-.63,9.37-.92,13.94Z"/><path class="cls-1" d="M98.08,214.42c0,4.9-4.76,8.88-16.4,8.88s-16.39-4-16.39-8.88,4.75-8.88,16.39-8.88S98.08,209.52,98.08,214.42Z"/><path class="cls-4" d="M81,303.17c0,2-.47,3.6-1.06,3.6s-1.06-1.61-1.06-3.6.47-3.61,1.06-3.61S81,301.17,81,303.17Z"/><path class="cls-5" d="M124.21,37.74s30.05,69.85,63.61,72.2,35.51-23,27.32-42.93l-5.86,6.91-3.51-9.64s-3.9,22.24-10.15,22.24-13.26-4.68-17.17-20.29S173.77-4.4,140.21.28,124.21,37.74,124.21,37.74Z"/><path class="cls-5" d="M99,53.35l21.1-27.67s12.46-2.37,21,10.11c0,0-16.39,18.54-22.44,29.27Z"/><path class="cls-6" d="M136.57,41.17c2.72-3.23,4.62-5.38,4.62-5.38-8.59-12.48-21-10.11-21-10.11l-3.5,4.58C124.74,31.37,132.06,34.73,136.57,41.17Z"/><path class="cls-6" d="M125.32,43.43a27,27,0,0,1,5,5.4C132,46.75,133.57,44.77,135,43c-4.34-6.64-11.86-9.77-20-10.59l-4.29,5.63C116,38.6,121.17,40,125.32,43.43Z"/><path class="cls-6" d="M124.11,56.93c1.5-2.08,3.12-4.21,4.74-6.28a21,21,0,0,0-5.91-6.09A29,29,0,0,0,109,40.26l-4.16,5.45C112.39,47.27,118.76,51.43,124.11,56.93Z"/><path class="cls-6" d="M103.28,47.79,99,53.35l19.71,11.71c1.06-1.88,2.44-4,4-6.22C117.41,53.27,111,49.06,103.28,47.79Z"/><path class="cls-5" d="M151.87,160.67a87.09,87.09,0,0,0,5.49-30.53c0-45.53-34.57-82.44-77.22-82.44S2.92,84.61,2.92,130.14a87.09,87.09,0,0,0,5.49,30.53Z"/><path class="cls-7" d="M23.22,151s-9.34-11.47-19.75-6.14S7.48,185.12,28,188Z"/><path class="cls-7" d="M137.06,151s9.34-11.47,19.75-6.14-4,40.22-24.55,43.07Z"/><path class="cls-3" d="M129,195.61s-18.92,16.43-48.83,17-48.83-17-48.83-17c-7.38-6.24-11.72-16-11.72-26.37v-51.6l16.46-12.33a17.82,17.82,0,0,1,19.69-1.38l19.89,11.18a9,9,0,0,0,9,0l19.18-11a17.82,17.82,0,0,1,19.62,1.11l17.26,12.52v51.6C140.69,179.61,136.35,189.37,129,195.61Z"/><path class="cls-8" d="M123.58,154.42h0a1.39,1.39,0,0,1-1.37-1.4c0-.32-.07-7.94-6.31-8.15-6.46-.22-8,6.16-8.06,6.44a1.38,1.38,0,1,1-2.69-.62c.69-3.08,3.86-8.82,10.84-8.59,7.15.25,9,7.26,9,10.93A1.38,1.38,0,0,1,123.58,154.42Z"/><path class="cls-8" d="M126,154.34a10.19,10.19,0,0,1-2.75-.3,1.38,1.38,0,0,1,.75-2.66,13,13,0,0,0,7-.7,1.38,1.38,0,0,1,.91,2.61A18.18,18.18,0,0,1,126,154.34Z"/><path class="cls-8" d="M123.4,151.47h-.1a1.39,1.39,0,0,1,0-2.77h.08c2.54,0,6-2.4,7.16-3.33a1.38,1.38,0,1,1,1.76,2.13C132.12,147.67,127.46,151.47,123.4,151.47Z"/><path class="cls-5" d="M102.34,131.53l.13-3.26a.76.76,0,0,1,.68-.74c3.73-.37,22.34-1.94,31.12,3.31a.75.75,0,0,1,.24,1.06l-1.79,2.72a.76.76,0,0,1-.9.29c-2.52-.93-13.33-4.46-28.62-2.6A.76.76,0,0,1,102.34,131.53Z"/><path class="cls-8" d="M36.7,154.42h0a1.39,1.39,0,0,0,1.37-1.4c0-.32.07-7.94,6.31-8.15,6.46-.22,8,6.16,8.06,6.44a1.39,1.39,0,0,0,2.7-.62c-.7-3.08-3.87-8.82-10.85-8.59-7.14.25-9,7.26-9,10.93A1.38,1.38,0,0,0,36.7,154.42Z"/><path class="cls-8" d="M34.33,154.34a10.4,10.4,0,0,0,2.76-.3,1.38,1.38,0,0,0-.76-2.66,13,13,0,0,1-7-.7,1.38,1.38,0,1,0-.91,2.61A18.27,18.27,0,0,0,34.33,154.34Z"/><path class="cls-8" d="M36.88,151.47H37a1.39,1.39,0,0,0,0-2.77h-.08c-2.54,0-6-2.4-7.16-3.33A1.38,1.38,0,1,0,28,147.5C28.16,147.67,32.82,151.47,36.88,151.47Z"/><path class="cls-5" d="M57.94,131.53l-.13-3.26a.76.76,0,0,0-.68-.74c-3.73-.37-22.34-1.94-31.12,3.31a.75.75,0,0,0-.24,1.06l1.8,2.72a.74.74,0,0,0,.89.29c2.51-.93,13.34-4.46,28.63-2.6A.75.75,0,0,0,57.94,131.53Z"/><path class="cls-9" d="M67,194.19s3.32-4.27,7.15-4.07A8.11,8.11,0,0,1,80,193.47s3.45-3.28,7.49-3.22,5.79,4.27,5.79,4.27a15.62,15.62,0,0,1-13.57,8A13.85,13.85,0,0,1,67,194.19Z"/><path class="cls-4" d="M70.05,172.78s1-9,9.71-9.07,10.47,9.07,10.47,9.07-4.75-5.56-10.31-5.56S70.05,172.78,70.05,172.78Z"/></g></g></svg>