<svg xmlns="http://www.w3.org/2000/svg" viewBox="0 0 156.38 289.13"><defs><style>.cls-1{fill:#f4bb3b;}.cls-2{fill:#f9dab4;}.cls-3{fill:#efc4a0;}.cls-4{fill:#c65044;}.cls-5{fill:#f9f5ed;}.cls-6{fill:#515151;}.cls-7{fill:#f4d3b0;}.cls-8{fill:#3a332d;}.cls-9{fill:#e8e3d9;}</style></defs><title>资源 288</title><g id="图层_2" data-name="图层 2"><g id="Layer_1" data-name="Layer 1"><path class="cls-1" d="M15.7,142.06c-1.32-20.93-30.76-91,10.9-87.16,0,0,2.56-28.2,50.84-25.43S158.84,54.9,144.1,131.6s6.09,73.27,6.09,73.27-3.43,7-9.94,8.12c0,0-.93,10.9,11.55,8.12,0,0,1.17,15.81-9.3,18.16,0,0,2.87,8.33,9.34,8.12,0,0-6.4,37.17-71.64,37.17S11.12,260.42,8.55,252.94c0,0,7.26-3,9-7.26,0,0-13-.21-17.52-12,0,0,12.18-3.85,15-12.82,0,0-9,1.07-10.89-5.34C4.06,215.56,20.62,220,15.7,142.06Z"/><path class="cls-2" d="M91.22,212.34s46.06,39.48,46.22,42.51-24.69,29.31-24.69,29.31.35,1.87.87,5h17.73c7.17-8.58,25.15-30.08,25-35-.15-6.07-47.68-61.88-47.68-61.88Z"/><path class="cls-3" d="M120.12,276.21l.8,12.92h2.92a114.64,114.64,0,0,0-1.81-15h0Z"/><path class="cls-2" d="M40,206.35c-7.7,21.7-18.14,60-21.83,82.78H46c3.31-40.14,4.41-93.39,3.31-96.88C49.35,192.25,44,195,40,206.35Z"/><path class="cls-3" d="M39.1,289.13l7.55-79.55a687.75,687.75,0,0,0-13.21,79.55Z"/><path class="cls-2" d="M79,187.12h0c-.39,0-25.22,3.22-29.67,5.13,0,0-8.8,53.92-12.71,96.88H121.4c-3.9-43-12.7-96.88-12.7-96.88-4.45-1.91-29.28-5.08-29.67-5.13h0Z"/><path class="cls-4" d="M44.56,223.85c-1.11,2.87-5,34.7-7.87,65.28h85c-5-48-13-96.88-13-96.88l-11.6-5.86C89.86,216.5,44.56,223.85,44.56,223.85Z"/><path class="cls-5" d="M98.92,187.31c-7.72,35.62-56.48,58.33-56.48,58.33s-.47.47-1.27,1.34c-1.44,12-3.09,27.23-4.48,42.15H52.88c37.24-18.5,53.41-71.68,57.39-87-1-6.23-1.57-9.85-1.57-9.85Z"/><circle class="cls-6" cx="85.15" cy="237.01" r="1.59"/><path class="cls-6" d="M91.12,230.46a1.59,1.59,0,1,1-1.59-1.59A1.59,1.59,0,0,1,91.12,230.46Z"/><path class="cls-6" d="M95.67,223.71a1.59,1.59,0,1,1-1.59-1.59A1.59,1.59,0,0,1,95.67,223.71Z"/><path class="cls-6" d="M47.66,277.12a1,1,0,0,1-.95-.81,88,88,0,0,1-1-14.1l.17-3.75,1.66,3.37A11.06,11.06,0,0,0,51.5,266c.17-2.17.49-6.23.72-7.75l.5-3.24,1.33,3c1.6,3.58,4.67,9.68,6.13,10.76a1,1,0,0,1,.2,1.34,1,1,0,0,1-1.35.2c-1.54-1.14-3.79-5.36-5.27-8.39-.23,2.61-.44,5.56-.44,5.6l-.09,1.27-1.2-.43a11,11,0,0,1-4.39-3.1,101.68,101.68,0,0,0,1,10.76,1,1,0,0,1-.8,1.09Z"/><path class="cls-6" d="M63.93,263.61a1,1,0,0,1-.86-.53l-5.26-10.34a1,1,0,0,1,.42-1.3,1,1,0,0,1,1.29.43l5.27,10.34a1,1,0,0,1-.43,1.29A1,1,0,0,1,63.93,263.61Z"/><path class="cls-6" d="M60.65,265.67a1,1,0,0,1-.49-1.79l5.37-3.2a1,1,0,0,1,1.32.33,1,1,0,0,1-.34,1.32l-5.37,3.2A.87.87,0,0,1,60.65,265.67Z"/><path class="cls-6" d="M57.08,254.52a1,1,0,0,1-.55-1.75l3.85-2.68a1,1,0,0,1,1.34.25,1,1,0,0,1-.24,1.33l-3.85,2.68A1,1,0,0,1,57.08,254.52Z"/><path class="cls-6" d="M67.77,259a1,1,0,0,1,0-1.93c1,0,4.2-2.5,4.24-5a12.8,12.8,0,0,0-3.33-.55c-1.95-.16-3.79-.32-4.72-1.12a2.32,2.32,0,0,1-.84-1.86c0-1.88,2-4,3.14-5a1.71,1.71,0,0,1,1.86-.39c1.12.51,1.29,2.28,1.31,3a1,1,0,0,1-1.92.05h0a4.91,4.91,0,0,0-.16-1.08c-1.13,1-2.31,2.52-2.31,3.41a.47.47,0,0,0,.17.39c.46.4,2.37.56,3.63.67,2.59.22,5,.43,5.09,2.26.11,3.55-4,7-6.06,7.08Z"/><path class="cls-6" d="M75.93,251.49a1,1,0,0,1-.05-1.92c1,0,4.2-2.51,4.24-5a12.44,12.44,0,0,0-3.33-.54c-2-.17-3.79-.33-4.72-1.12a2.34,2.34,0,0,1-.84-1.87c0-1.88,2-4,3.14-5a1.67,1.67,0,0,1,1.86-.39c1.13.5,1.29,2.27,1.31,3a1,1,0,1,1-1.92.05,4.91,4.91,0,0,0-.16-1.08c-1.13,1-2.31,2.53-2.31,3.41a.47.47,0,0,0,.17.4c.46.39,2.37.55,3.63.66,2.59.22,5,.43,5.09,2.26.11,3.55-4,7-6.05,7.09Z"/><path class="cls-7" d="M28.27,131.68s-5.89-6.29-14.11-3.89c-9.95,2.9-11.74,32.32,20.77,39.68Z"/><path class="cls-7" d="M129.17,131.68s5.89-6.29,14.11-3.89c10,2.9,11.74,32.32-20.77,39.68Z"/><path class="cls-2" d="M99.86,188.3l-5.72,2.62a37.69,37.69,0,0,1-31.44,0L57,188.3a59.07,59.07,0,0,1-34.44-53.69V83.32H134.29v51.29A59.07,59.07,0,0,1,99.86,188.3Z"/><path class="cls-8" d="M38.89,142.73a1.26,1.26,0,0,1-1.26-1.26c0-3.37,1.68-9.79,8.21-10s9.29,5,9.93,7.86a1.26,1.26,0,0,1-2.46.56c-.06-.26-1.46-5.89-7.09-5.89h-.29c-5.71.2-5.77,7.17-5.77,7.47a1.28,1.28,0,0,1-1.27,1.27Z"/><path class="cls-8" d="M36.72,142.66a16.58,16.58,0,0,1-5.43-1,1.26,1.26,0,1,1,.82-2.39,12.13,12.13,0,0,0,6.43.65,1.27,1.27,0,0,1,1.57.86,1.28,1.28,0,0,1-.87,1.57A9.92,9.92,0,0,1,36.72,142.66Z"/><path class="cls-8" d="M39.05,140c-3.71,0-8-3.48-8.16-3.63a1.26,1.26,0,0,1,1.61-2c1,.86,4.28,3.08,6.61,3.05h0a1.27,1.27,0,0,1,0,2.53Z"/><path class="cls-8" d="M117.71,142.73h0a1.28,1.28,0,0,1-1.26-1.27c0-.3-.06-7.27-5.77-7.47-5.92-.2-7.32,5.64-7.37,5.89a1.27,1.27,0,0,1-1.52,1,1.25,1.25,0,0,1-1-1.51c.64-2.81,3.54-8.08,9.93-7.86s8.23,6.64,8.22,10A1.28,1.28,0,0,1,117.71,142.73Z"/><path class="cls-8" d="M119.88,142.66a9.92,9.92,0,0,1-2.52-.27,1.27,1.27,0,0,1,.69-2.44,11.86,11.86,0,0,0,6.44-.64,1.27,1.27,0,1,1,.83,2.39A16.67,16.67,0,0,1,119.88,142.66Z"/><path class="cls-8" d="M117.55,140h-.1a1.27,1.27,0,0,1,0-2.53h0c2.32,0,5.51-2.2,6.55-3.05a1.26,1.26,0,0,1,1.61,2C125.53,136.55,121.26,140,117.55,140Z"/><path class="cls-4" d="M66.47,168.8s2.91-4.37,6.27-4.16,5.18,3.42,5.18,3.42,3-3.35,6.54-3.28,5.07,4.36,5.07,4.36-3.5,8.19-11.87,8.19S66.47,168.8,66.47,168.8Z"/><path class="cls-3" d="M72.23,154.73s.57-5.17,5.55-5.19,6,5.19,6,5.19-2.72-3.18-5.91-3.18S72.23,154.73,72.23,154.73Z"/><path class="cls-1" d="M78,99.12s52.28-9.06,56.35,29.07l6.25-8.89-2.12-43.43-125,5,2.75,46.61s3.34,56.68,25.85,32.31c0,0-19.54,14.81-18.23-32.58C23.85,127.24,66.47,129.89,78,99.12Z"/><path class="cls-9" d="M133.82,65c-32.41,6-57.91-2.79-76.19-26.93L71.09,0l4.14,18.6L90.14,6.73l4.14,18.61,14.91-11.88,4.14,18.61,14.9-11.87,4.14,18.6,14.91-11.87Z"/></g></g></svg>