<svg xmlns="http://www.w3.org/2000/svg" viewBox="0 0 207.67 259.4"><defs><style>.cls-1{fill:#49312a;}.cls-2{fill:#c2da52;}.cls-3{fill:#b5c445;}.cls-4{fill:#b5bc2a;}.cls-5{fill:#aaaa1d;}.cls-6{fill:#357c5a;}.cls-7{fill:#f7cea6;}.cls-8{fill:#e2af86;}.cls-9{fill:#2f3233;}.cls-10{fill:#efc19c;}.cls-11{fill:#dd2626;}.cls-12{fill:#e0605c;}</style></defs><title>资源 121</title><g id="图层_2" data-name="图层 2"><g id="Layer_1" data-name="Layer 1"><path class="cls-1" d="M100.49,229.86s-34,13.17-43.9-16.46c-16.72,3.84-22,2.2-27.7-8.23s-3.66-23.59,7.32-29.62C-3,162.38-.9,128.92.67,105.88S18.44,0,103.1,0c85,0,108.71,62.54,104,113.56s-14.11,51.57-29.27,59.8c18.29,8.77,21.43,35.11-17.77,50.47S100.49,229.86,100.49,229.86Z"/><path class="cls-2" d="M163,196c-11.14-30.62-24.19-25.4-24.19-25.4-2.38,4.37,14.51,65.2,21.2,88.77h27C184,251.81,172.6,222.43,163,196Z"/><path class="cls-3" d="M138.81,170.63c-2.38,4.37,14.51,65.2,21.2,88.77H171.2c-4.59-15-14.15-46.35-17.87-59-3.82-13-.48-19,1.29-21.08C146.21,167.67,138.81,170.63,138.81,170.63Z"/><path class="cls-2" d="M45.19,196c11.14-30.62,24.19-25.4,24.19-25.4,2.38,4.37-14.52,65.2-21.2,88.77h-27C24.16,251.81,35.59,222.43,45.19,196Z"/><path class="cls-3" d="M69.38,170.63c2.38,4.37-14.52,65.2-21.2,88.77H37c4.59-15,14.15-46.35,17.87-59,3.82-13,.48-19-1.3-21.08C62,167.67,69.38,170.63,69.38,170.63Z"/><path class="cls-2" d="M80.68,167s-8.76-2.43-14.14,3c-5,5.05-11.29,47.74-17.88,89.34h111c-3.15-22.74-10-61.24-12.76-73.43C143.25,169.86,129.1,167,129.1,167Z"/><path class="cls-4" d="M72.77,149.66s-8.65-.48-10.88,4.39,5,8.78,5,8.78-11.7-1.46-9.47,6.34,13.09,16.34,42.33,13.17,56.59-.47,41.22-10.49c9.19,0,12-7.07,10.58-11s-4.18-11.28-16.71-7.14S93.65,157.41,72.77,149.66Z"/><path class="cls-5" d="M126.31,164.25c13.24-1.92,18.93-6.3,21.38-9.71-2.42-2-6.3-3-12.84-.8-12.53,4.15-41.2,3.67-62.08-4.08a19.69,19.69,0,0,0-3,.12C73.45,156.53,86.23,171.47,126.31,164.25Z"/><path class="cls-5" d="M141,171.85h.34c-7.92-2.17-17.22-1.9-23.24-1.72,11.63.16,22.59,4.83,27.13,7C145.91,176,144.7,174.28,141,171.85ZM82.55,168a52.51,52.51,0,0,1-16.08-5.25c-1.55-.13-6.95-.36-8.74,2.43,17.91,9.25,41.53,6,57,5h-.27C108.48,170.2,100.11,171,82.55,168Zm35.53,2.08c-1.12,0-2.23,0-3.35.08C115.67,170.19,116.8,170.16,118.08,170.12Z"/><path class="cls-6" d="M87.91,197.29c0-.18,0-.35,0-.53a55.87,55.87,0,0,1,1.67-12.46c.83-3.51,1.66-5.9,1.66-5.9a.68.68,0,0,0-.42-.88.69.69,0,0,0-.88.42h0s-3.4,9.79-3.41,18.82c0,.22,0,.44,0,.65a5.89,5.89,0,0,0-4.47,5.82,5.65,5.65,0,1,0,5.84-5.94Z"/><path class="cls-6" d="M128.24,194.14c0-.17,0-.34-.07-.51A54.59,54.59,0,0,0,124.48,182c-1.39-3.22-2.59-5.37-2.59-5.37a.67.67,0,0,1,1.17-.65h0s4.9,8.79,6.42,17.43c0,.21.06.42.1.63a5.71,5.71,0,0,1,5.24,4.81,5.48,5.48,0,1,1-6.58-4.69Z"/><ellipse class="cls-7" cx="107.4" cy="101.31" rx="62.95" ry="60.52"/><path class="cls-7" d="M165.66,113.83s3.21-6.47,9.79-5.72,7.39,14.74,3.54,20-16.06,13.39-24.09,10.53C160.84,128.72,165.66,113.83,165.66,113.83Z"/><path class="cls-8" d="M175.48,120.59v0a9.47,9.47,0,0,0-1-1.84,4.56,4.56,0,0,0-1-1,1.87,1.87,0,0,0-1.09-.41,2.07,2.07,0,0,0-1.21.48,6.84,6.84,0,0,0-1.6,1.86l-.42-.23.43.21a2.08,2.08,0,0,0-.11.21c-.1.18-.26.48-.38.75s-.11.27-.15.38l0,.13v0h-.32l.26-.16a.52.52,0,0,1,.06.16h-.32l.26-.16-.35.21.19-.34a.43.43,0,0,1,.16.13l-.35.21.19-.34-.19.33v-.38a.36.36,0,0,1,.19,0l-.19.33V121l-.11-.24a.21.21,0,0,1,.11,0V121l-.11-.24h0a2.19,2.19,0,0,0,.35-.29,2.13,2.13,0,0,1,1.44-.55,3.18,3.18,0,0,1,2.25,1,3.71,3.71,0,0,1,1,2.57,4.31,4.31,0,0,1-.32,1.56.5.5,0,0,1-.63.26.45.45,0,0,1-.28-.58,3.29,3.29,0,0,0,.26-1.24,2.87,2.87,0,0,0-.79-2,2.27,2.27,0,0,0-1.53-.74,1.08,1.08,0,0,0-.76.29,3.9,3.9,0,0,1-.43.36,1,1,0,0,1-.2.11.7.7,0,0,1-.29.06.54.54,0,0,1-.26-.06.57.57,0,0,1-.26-.28.69.69,0,0,1,0-.22.9.9,0,0,1,.05-.3,5.78,5.78,0,0,1,.44-1c.16-.33.3-.58.3-.59h0a7.63,7.63,0,0,1,1.83-2.11,3,3,0,0,1,1.81-.67,2.91,2.91,0,0,1,1.78.67,6.82,6.82,0,0,1,1.63,2,8.72,8.72,0,0,1,.56,1.2.44.44,0,0,1-.3.57.49.49,0,0,1-.61-.28Z"/><path class="cls-7" d="M49.44,113.83s-3.21-6.47-9.8-5.72-7.39,14.74-3.53,20,16.06,13.39,24.09,10.53C54.25,128.72,49.44,113.83,49.44,113.83Z"/><path class="cls-8" d="M39.61,120.59l0,0a8.91,8.91,0,0,1,1-1.84,4.35,4.35,0,0,1,1-1,1.82,1.82,0,0,1,1.08-.41,2.07,2.07,0,0,1,1.22.48,7,7,0,0,1,1.6,1.86l.41-.23-.42.21.11.21c.1.18.25.48.37.75a3.52,3.52,0,0,1,.16.38l0,.13v0h.32l-.27-.16a.25.25,0,0,0-.05.16h.32l-.27-.16.36.21-.2-.34a.43.43,0,0,0-.16.13l.36.21-.2-.34.19.33v-.38a.38.38,0,0,0-.19,0l.19.33V121l.12-.24a.35.35,0,0,0-.12,0V121l.12-.24h0a1.8,1.8,0,0,1-.35-.29,2.14,2.14,0,0,0-1.45-.55,3.16,3.16,0,0,0-2.24,1,3.71,3.71,0,0,0-1,2.57,4.11,4.11,0,0,0,.32,1.56.49.49,0,0,0,.62.26.44.44,0,0,0,.28-.58,3.26,3.26,0,0,1-.25-1.24,2.82,2.82,0,0,1,.79-2,2.27,2.27,0,0,1,1.52-.74,1.06,1.06,0,0,1,.76.29,5.12,5.12,0,0,0,.43.36l.2.11a.7.7,0,0,0,.29.06.55.55,0,0,0,.27-.06.55.55,0,0,0,.25-.28.49.49,0,0,0,0-.22,1.28,1.28,0,0,0,0-.3,6.6,6.6,0,0,0-.44-1c-.16-.33-.31-.58-.31-.59h0a7.8,7.8,0,0,0-1.83-2.11,3,3,0,0,0-1.82-.67,2.86,2.86,0,0,0-1.77.67,6.67,6.67,0,0,0-1.63,2,9.65,9.65,0,0,0-.57,1.2.45.45,0,0,0,.3.57.48.48,0,0,0,.61-.28Z"/><path class="cls-8" d="M51.07,103.2s46.61-.81,76.19-34.45c6.89,17.83,28,32.83,39.31,32.83V91.85s-34-28.37-34-41.33c0,0-23.1,21.88-33.23,28S47.83,88.2,47.83,88.2Z"/><path class="cls-1" d="M162.52,97.25S125.77,82.4,129.83,60.78C111.18,82.94,79.58,98,52.83,101c0,0-.74,5.2,2.9,17.56,1.83,6.2,6.23,11.19,12.88,11.76-.65,2-2.93,3.09-5,3.61a9.62,9.62,0,0,1-7.9-2.12,31.32,31.32,0,0,1-5.91-7.72c-3.78-6.55-5.89-14.57-6.9-22-2-14.86,6.64-69.71,65.53-69.71S176.66,74,173.59,99.14c0,0-6.82,45.59-26,32.36C147.59,131.5,166,128.59,162.52,97.25Z"/><path class="cls-9" d="M64.46,106.74s13.47-12.74,23.7.14c0,0,.44-3.36-4.43-6.58-5.23-3.47-12.86-2.39-17.25,1.86C63.41,105.13,64.46,106.74,64.46,106.74Z"/><path class="cls-9" d="M125.25,105.93s13.47-12.74,23.7.13c0,0,.44-3.35-4.42-6.57-5.24-3.47-12.87-2.39-17.25,1.86C124.2,104.32,125.25,105.93,125.25,105.93Z"/><path class="cls-10" d="M112,127a1,1,0,0,1,.78,1.18h0a9.52,9.52,0,0,1-1.34,2.81h0a6,6,0,0,1-5.44,2.72h-.17a7.5,7.5,0,0,1-5.24-2.6h0a6.66,6.66,0,0,1-1.32-2.29h0a1,1,0,0,1,.72-1.21h0a1.07,1.07,0,0,1,1.3.68h0a.4.4,0,0,0,0,.1h0a2.94,2.94,0,0,0,.16.35h0a5.25,5.25,0,0,0,.74,1.14h0A5.42,5.42,0,0,0,106,131.7h.1a3.77,3.77,0,0,0,3.25-1.46h0a7.42,7.42,0,0,0,1.3-2.41h0l0-.16h0a1,1,0,0,1,1.09-.76h0l.17,0Z"/><path class="cls-11" d="M117.32,144.82a4.43,4.43,0,0,0-1.59-.67c-2.46-.73-3.1-2.84-4.83-2.33s-3,3.05-4.62,1.78-2.37-2.14-4.45-.54c-1.74,1.33-4.47.8-5,1.5a.59.59,0,0,0,0,.46,1.21,1.21,0,0,0,.05.14,40.57,40.57,0,0,0,20.35,0l.09,0C117.42,145.07,117.49,145,117.32,144.82Z"/><path class="cls-12" d="M107.39,149.67a10.3,10.3,0,0,1,7.85,3.18,12.25,12.25,0,0,0,2.13-7c0-.26,0-.51,0-.77l-.09,0a40.57,40.57,0,0,1-20.35,0,1.21,1.21,0,0,1-.05-.14c0,.29,0,.57,0,.87a12.11,12.11,0,0,0,2.42,7.35C100.73,151.12,103.82,149.67,107.39,149.67Z"/><path class="cls-11" d="M107.09,157.32a10,10,0,0,0,8.15-4.47,10.3,10.3,0,0,0-7.85-3.18c-3.57,0-6.66,1.45-8.16,3.57A9.83,9.83,0,0,0,107.09,157.32Z"/><path class="cls-9" d="M63.6,114.33a.68.68,0,0,1,.83.29h0a9.38,9.38,0,0,0,1.1,1.55,6.09,6.09,0,0,0,1.15,1,3.78,3.78,0,0,0,.64.37,8.19,8.19,0,0,1,.34-1.62,3.88,3.88,0,0,1-1-.7,6.08,6.08,0,0,1-1.26-1.73,8.18,8.18,0,0,1-.39-.91.5.5,0,0,1,.46-.61.69.69,0,0,1,.78.38h0a6.43,6.43,0,0,0,.64,1.32,4.83,4.83,0,0,0,.76.93,2.59,2.59,0,0,0,.42.32,8.14,8.14,0,0,1,1.84-2.44,8.51,8.51,0,0,1,2.86-1.71,9.52,9.52,0,0,1,3.68-.53,11.05,11.05,0,0,1,2.35.38,9.6,9.6,0,0,1,3.76,1.88A7.82,7.82,0,0,1,85,116.09a6.75,6.75,0,0,1,.39,1.84.85.85,0,0,1-.93.77.92.92,0,0,1-1-.76h0a6.49,6.49,0,0,0-2.34-4.38,7.76,7.76,0,0,0-2.94-1.45,8.43,8.43,0,0,0-1.85-.29,7.13,7.13,0,0,0-2.78.39,6.76,6.76,0,0,0-3.1,2.3,6.46,6.46,0,0,0-1.29,3.54.87.87,0,0,1-.94.71.74.74,0,0,1-.47.06,5.11,5.11,0,0,1-2-.87A8.26,8.26,0,0,1,63.92,116a8.54,8.54,0,0,1-.67-1.06A.47.47,0,0,1,63.6,114.33Z"/><path class="cls-9" d="M149.12,114.33a.68.68,0,0,0-.83.29h0a8.39,8.39,0,0,1-1.09,1.55,6.09,6.09,0,0,1-1.15,1,3.78,3.78,0,0,1-.64.37,8.19,8.19,0,0,0-.34-1.62,3.88,3.88,0,0,0,1-.7,6.08,6.08,0,0,0,1.26-1.73,8.18,8.18,0,0,0,.39-.91.5.5,0,0,0-.46-.61.69.69,0,0,0-.78.38h0a6.43,6.43,0,0,1-.64,1.32,4.83,4.83,0,0,1-.76.93,2.59,2.59,0,0,1-.42.32,8.14,8.14,0,0,0-1.84-2.44,8.51,8.51,0,0,0-2.86-1.71,9.52,9.52,0,0,0-3.68-.53,11.05,11.05,0,0,0-2.35.38,9.6,9.6,0,0,0-3.76,1.88,7.82,7.82,0,0,0-2.46,3.54,6.75,6.75,0,0,0-.39,1.84.85.85,0,0,0,.93.77.92.92,0,0,0,1-.76h0a6.49,6.49,0,0,1,2.34-4.38,7.76,7.76,0,0,1,2.94-1.45,8.43,8.43,0,0,1,1.85-.29,7.13,7.13,0,0,1,2.78.39,6.76,6.76,0,0,1,3.1,2.3,6.46,6.46,0,0,1,1.29,3.54.87.87,0,0,0,.94.71.74.74,0,0,0,.47.06,5.11,5.11,0,0,0,2-.87A8.26,8.26,0,0,0,148.8,116a8.54,8.54,0,0,0,.67-1.06A.47.47,0,0,0,149.12,114.33Z"/></g></g></svg>