<svg xmlns="http://www.w3.org/2000/svg" viewBox="0 0 231.03 260.73"><defs><style>.cls-1{fill:#f9dab4;}.cls-2{fill:#efc4a0;}.cls-3{fill:#ea9628;}.cls-4{fill:#f4d3b0;}.cls-5{fill:#e08a22;}.cls-6{fill:#515151;}</style></defs><title>资源 285</title><g id="图层_2" data-name="图层 2"><g id="Layer_1" data-name="Layer 1"><path class="cls-1" d="M187.76,191.78q-.67-.9-1.41-1.83c-2.68-3.47-4.42-5.67-4.42-5.67l-.25.16A281.16,281.16,0,0,0,159.49,163c-7.44-6.57-26.52-6.71-26.52-6.71s-19.08.14-26.52,6.71S62,202.15,62,202.15L47.91,179.22s12.71-4.2,12.71-7.39-3-18.2-5.9-19.48-10.06-.95-10.06-.95-.48-30.81-9.57-31.12-9.1,27-9.1,27S8.27,130.17,1.57,135.44,11.79,158.9,11.79,158.9s-6.87,2.39-7.67,4.47,1.6,6.86,1.6,6.86-7.34,5-1.76,12.45A14.63,14.63,0,0,0,18,188.42s3,4.47,5.11,5,9.41-3.51,9.41-3.51,18.2,42.29,26,44.37,37.66-26.81,37.66-26.81-5.4,29.23-9.13,53.31H199c7.91-12.06,15.82-25,15.74-28.4-.12-4.94-17.58-28.31-27-40.55Zm4.91,41.13c.09,1.79-7.25,14.55-14.17,26.15-3.8-23.73-9.12-52.1-9.59-54.6C177.82,214.16,192.55,230.55,192.67,232.91Z"/><path class="cls-2" d="M180.65,255.44l-2.15,3.62.16,1.67H181C180.92,258.68,180.8,256.86,180.65,255.44Z"/><path class="cls-2" d="M45,166.48s-14.74.79-14.72-8.43c0-8.12,14.36-6.65,14.36-6.65s0-1-.09-2.69c0,0-16.46-2.18-16.42,9.53S45,166.48,45,166.48Z"/><path class="cls-2" d="M22.59,182.56c14-8.54-7.73-21.38-10.8-23.66,0,0-.67.23-1.62.62C14.51,162.32,31.38,174,22,180.47c-8.36,5.79-15.57-8.55-16.27-10.24A10,10,0,0,0,3.86,172C5.5,175.12,13.14,188.32,22.59,182.56Z"/><path class="cls-2" d="M20.11,183c2.31,3.33-2.1,5.4-2.1,5.4s.39.58,1,1.34a5.1,5.1,0,0,0,2.47-7.26Z"/><path class="cls-2" d="M163.78,166.8c-1.81-1.63-3.3-2.94-4.29-3.81-7.44-6.57-26.52-6.71-26.52-6.71s-19.08.14-26.52,6.71l-4.31,3.8,11.52,3.45a67.56,67.56,0,0,0,38.63,0Z"/><path class="cls-3" d="M63,92.63s-3.66-48.69,0-52.78S70.83,39,70.83,39s-2.71-20.9,1.6-26.71S100.43,0,126.93,0,212,19.82,230.11,37.91c6.46,6.46-22.83,38.78-28.65,40.5l-1.32,19Z"/><path class="cls-4" d="M79.54,94.06S72.47,83.9,59.89,86.55c-9.63,2-16.34,34.45,16.34,52.55Z"/><path class="cls-4" d="M186.36,94.06S193.43,83.9,206,86.55c9.63,2,16.34,34.45-16.34,52.55Z"/><path class="cls-1" d="M177.6,157.58l-26.14,7.81a64.49,64.49,0,0,1-37,0l-26.14-7.81A24.53,24.53,0,0,1,71,131.6L78.5,56.86h109L195,131.6A24.54,24.54,0,0,1,177.6,157.58Z"/><path class="cls-3" d="M71.61,125.08,70,87.11l.79-40.89H194.92L193.56,88.1l.71,36.34-10.21-52.7s-15.83-10.89-50.87-11C93,60.54,79.54,73.55,79.54,73.55Z"/><path class="cls-5" d="M208.59,50.34c-126.93-20.42-129,23.21-129,23.21s13.48-13,53.65-12.84c35,.14,50.87,11,50.87,11C204.48,68.12,208.59,50.34,208.59,50.34Z"/><path class="cls-2" d="M126.51,125.08a5.41,5.41,0,0,1,5-5.54c5.27-.77,7.07,4.24,7.07,4.24s-4-1.86-6.39-1.51S126.51,125.08,126.51,125.08Z"/><path class="cls-2" d="M107.22,149.67a1.28,1.28,0,1,1,0-2.55c.14,0,14.36,0,29-1.69,18.65-2.13,29.93-6.06,31.76-11.06a1.28,1.28,0,0,1,2.4.88c-2.25,6.13-13.65,10.4-33.89,12.72C121.7,149.65,107.36,149.67,107.22,149.67Z"/><path class="cls-6" d="M133,89.51c-37.79,0-71-12.05-71-12.05l.5,8.64h0l13.34,4.22s11.91,23,27.34,24.27,19-13.83,29.78-13.83,14.38,15.11,29.78,13.83,27.34-24.27,27.34-24.27l10.78-3.4.59-8.52a5.1,5.1,0,0,0,.94-.42C195.47,80.31,166,89.51,133,89.51Z"/></g></g></svg>