<svg xmlns="http://www.w3.org/2000/svg" viewBox="0 0 166.5 260"><defs><style>.cls-1{fill:#f4efed;}.cls-2{fill:#423429;}.cls-3{fill:#382b23;}.cls-4{fill:#e2dcd9;}.cls-5{fill:#563a28;}.cls-6{fill:#634631;}.cls-7{fill:#70523e;}.cls-8{fill:#4c453f;}.cls-9{fill:#f4d3b0;}.cls-10{fill:#f9dab4;}.cls-11{fill:#3a332d;}.cls-12{fill:#e8dfd9;}.cls-13{fill:#efc4a0;}</style></defs><title>资源 53</title><g id="图层_2" data-name="图层 2"><g id="Layer_1" data-name="Layer 1"><rect class="cls-1" x="55.08" y="161.35" width="55.75" height="98.65"/><polygon class="cls-2" points="78.84 173.46 63.53 236.75 79.95 260 82.56 260 101.23 238.8 85.7 173.46 78.84 173.46"/><rect class="cls-3" x="75.19" y="165.36" width="14.39" height="11.52" rx="4"/><polygon class="cls-4" points="60.55 161.81 63.53 185.22 82.41 163.42 101.92 184.43 103.98 160.66 60.55 161.81"/><path class="cls-5" d="M17.83,260c5.3-31.18,24.92-90.41,24.92-90.41h3.56V260Z"/><path class="cls-5" d="M149.1,260c-5.29-31.18-24.91-90.41-24.91-90.41h-3.57V260Z"/><path class="cls-6" d="M83.37,222.87c.23-21,0-34.19,0-34.19L61.85,162.49l-1.39-1.37s-13.94-.91-17.13,6.4c-3,6.86-1.38,48.79-2.1,92.48H84.3C84.9,248.65,83.24,235,83.37,222.87Z"/><path class="cls-7" d="M55.05,178.51c-1.93-3.87,5.5-18.53,5.5-18.53L63,163.7l20.39,25S57,182.38,55.05,178.51Z"/><path class="cls-5" d="M83.37,188.68c-2.36,12-1.58,41.78-1.88,54.82a139.38,139.38,0,0,0,.43,16.5h1.53Z"/><path class="cls-6" d="M123.55,167.52c-3.19-7.31-17.13-6.4-17.13-6.4L105,162.49,83.24,188.68s0,13.17.27,34.19C83.64,235,82,248.65,82.58,260h43.07C124.93,216.31,126.55,174.38,123.55,167.52Z"/><path class="cls-7" d="M111.83,178.51c1.93-3.87-5.5-18.53-5.5-18.53l-2.43,3.72-20.66,25S109.89,182.38,111.83,178.51Z"/><path class="cls-5" d="M94.13,204.24a4.06,4.06,0,1,1-4.06-4.05A4.06,4.06,0,0,1,94.13,204.24Z"/><path class="cls-5" d="M94.13,234.58a4.06,4.06,0,1,1-4.06-4.06A4.05,4.05,0,0,1,94.13,234.58Z"/><path class="cls-8" d="M3.66,85.92S-.22,51.55,8.88,34.13,40,0,83.21,0s64.92,18.23,73,33.9,5,50.95,5,50.95L153.1,99.09H8.35Z"/><path class="cls-9" d="M21.32,90.66S10.09,77.79,2,87.61s10.83,41.75,22.25,44.66Z"/><path class="cls-9" d="M145.18,90.66s11.22-12.87,19.35-3-10.84,41.75-22.25,44.66Z"/><path class="cls-10" d="M147.21,125.15s2.26,41-64.29,41-64.29-41-64.29-41V67.63S45.31,47.9,92,49.55C133.3,51,147.21,68.92,147.21,68.92Z"/><circle class="cls-11" cx="48.7" cy="102.73" r="9.36" transform="translate(-60.5 134.34) rotate(-80.78)"/><path class="cls-12" d="M50.25,96.21c.23,1.13-1.17,2.37-3.12,2.76s-3.73-.2-4-1.34,1.17-2.37,3.12-2.76S50,95.07,50.25,96.21Z"/><circle class="cls-11" cx="119.63" cy="102.73" r="9.36" transform="translate(-0.93 204.36) rotate(-80.78)"/><path class="cls-12" d="M121.18,96.21c.23,1.13-1.17,2.37-3.13,2.76s-3.72-.2-4-1.34,1.17-2.37,3.13-2.76S121,95.07,121.18,96.21Z"/><path class="cls-11" d="M57.94,90.54l-20-2.6c-1.29-.17-2.15-1.62-1.94-3.23l.24-1.89c.21-1.62,1.42-2.8,2.71-2.63L59,82.8c1.29.16,2.15,1.61,1.94,3.23l-.24,1.89C60.44,89.53,59.23,90.71,57.94,90.54Z"/><path class="cls-11" d="M110.87,90.73l19.95-3c1.28-.19,2.12-1.65,1.88-3.27l-.28-1.88c-.24-1.61-1.48-2.77-2.76-2.57l-20,3c-1.28.19-2.12,1.66-1.88,3.27l.29,1.89A2.7,2.7,0,0,0,110.87,90.73Z"/><path class="cls-13" d="M64.44,125.26s6,5.15,17.38,4.73,14.1-.31,17.78-6.42c0,0-5.57,7.05-26.72,4.21A38.63,38.63,0,0,1,64.44,125.26Z"/><path class="cls-13" d="M74.43,150.1c-10.43,0-14.44-2-14.66-2.08a.76.76,0,0,1,.69-1.35c.08,0,7,3.35,26.17,1.17,18.79-2.15,25.7-3.42,27.08-6.34a.76.76,0,0,1,1.37.65c-1.71,3.61-8.23,4.9-28.27,7.19A110.92,110.92,0,0,1,74.43,150.1Z"/><path class="cls-13" d="M118.74,140.72A.75.75,0,0,1,118,140a2.57,2.57,0,0,0-2.07-2c-1.79-.42-2.33.76-2.35.81a.76.76,0,1,1-1.39-.61,3.41,3.41,0,0,1,4.08-1.67,4,4,0,0,1,3.23,3.36.75.75,0,0,1-.67.83Z"/><path class="cls-11" d="M18.63,67.63c43.41-20.59,65-1.44,65-1.44,25.52-14.86,63.57,2.73,63.57,2.73-3.47-6.46,4.64-17.59,4.64-17.59-5.29-1.93-14,.58-14,.58-2.7-7.14,11-17.75,11-17.75C130.72,30.5,124.16,33,124.16,33c-1-4.82,4.63-15,4.63-15-16.21-2.71-36.85,10-36.85,10,0-4.25,4.44-10,4.44-10C67.44,20.85,44.86,43,44.86,43c-.77-4.25,3.48-13.32,3.48-13.32C20.94,40.34,18.63,67.63,18.63,67.63Z"/></g></g></svg>