<svg xmlns="http://www.w3.org/2000/svg" viewBox="0 0 160.03 260"><defs><style>.cls-1{fill:#f4efed;}.cls-2{fill:#3a332d;}.cls-3{fill:#e2dcd9;}.cls-4{fill:#3f3e3d;}.cls-5{fill:#302f2d;}.cls-6{fill:#ea9628;}.cls-7{fill:#f4d3b0;}.cls-8{fill:#f9dab4;}.cls-9{fill:#e08a22;}.cls-10{fill:#efc4a0;}</style></defs><title>资源 72</title><g id="图层_2" data-name="图层 2"><g id="Layer_1" data-name="Layer 1"><rect class="cls-1" x="50.28" y="159.04" width="55.83" height="100.96"/><rect class="cls-2" x="72.28" y="166.12" width="11.03" height="12.9" rx="2.49"/><polygon class="cls-2" points="74.45 177.77 68.74 257.12 71.12 260 84.61 260 87.11 256.66 80.87 177.77 74.45 177.77"/><polygon class="cls-3" points="48.17 163.06 48.17 189.76 78.14 172.57 105.65 189.76 106.82 162.94 48.17 163.06"/><path class="cls-4" d="M119.53,177.24C109.33,150.31,99.4,155,99.4,155l16.73,91.25L122.19,260h28.92C148,252,128.89,202,119.53,177.24Z"/><path class="cls-5" d="M106.79,166l17.31,94h5.31C127.1,230.53,106.79,166,106.79,166Z"/><path class="cls-4" d="M104.91,160.32l-13.63.89L94.36,260H125.3C123.43,224.23,104.91,160.32,104.91,160.32Z"/><rect class="cls-5" x="97.58" y="248.45" width="22.76" height="4.04"/><path class="cls-4" d="M36.17,177.24C26.81,202,7.67,252,4.59,260H33.51l6.06-13.74L56.31,155S46.37,150.31,36.17,177.24Z"/><path class="cls-5" d="M31.6,260l17.31-94S28.6,230.53,26.29,260Z"/><path class="cls-4" d="M30.4,260H61.34l3.08-98.79-13.62-.89S32.27,224.23,30.4,260Z"/><rect class="cls-5" x="35.36" y="248.45" width="22.76" height="4.04"/><path class="cls-6" d="M8.18,92.86S-18.13,0,79.89,0s71.55,92.86,71.55,92.86L83.86,116.68Z"/><path class="cls-7" d="M25.49,94.69s-8.15-10.23-20.1-2.78S1.92,124.66,25.49,130Z"/><path class="cls-7" d="M134.55,94.69s8.14-10.23,20.1-2.78,3.46,32.75-20.1,38.12Z"/><path class="cls-8" d="M134.67,56H25.1l-4.16,67.18A24.91,24.91,0,0,0,26,139.85C34.1,150.4,51.33,167,79.89,167s45.78-16.55,53.87-27.1a24.86,24.86,0,0,0,5.07-16.67Z"/><path class="cls-9" d="M24.8,60.94S22.13,31,37.77,25.3c0,0-4.09,11.73-2.13,17.06,0,0,14.57-30.92,44.24-31.27,0,0-4.8,11-10.13,14.92,0,0,30-12.79,48.52-3.55,0,0-2.85,4.62-12.8,7.46,0,0,27.54-2.1,34.83,15.14,0,0-6,3-12.26,1.92,0,0,13.45,3.56,13.33,22.21,0,0-20.26-27.18-61.54-1.06C79.83,68.13,62.11,47.43,24.8,60.94Z"/><path class="cls-2" d="M38.05,102.74a1.37,1.37,0,0,1-.59-.13,1.39,1.39,0,0,1-.66-1.83c.1-.2,2.36-4.86,9.46-5s9.42,4.83,9.52,5a1.37,1.37,0,0,1-2.51,1.1c-.06-.13-1.69-3.5-7-3.4s-7,3.31-7,3.44A1.35,1.35,0,0,1,38.05,102.74Z"/><path class="cls-9" d="M33.85,84.23v.06A3.14,3.14,0,0,0,37,87.43h21.5a3.14,3.14,0,0,0,3.11-3.59v-.06a3.14,3.14,0,0,0-3.11-2.7H37A3.14,3.14,0,0,0,33.85,84.23Z"/><path class="cls-2" d="M104.46,102.73a1.33,1.33,0,0,1-.55-.12,1.35,1.35,0,0,1-.7-1.8c.09-.21,2.36-5.17,9.52-5s9.35,4.81,9.45,5A1.37,1.37,0,0,1,119.7,102c-.08-.16-1.73-3.33-7-3.44s-6.94,3.37-7,3.4A1.36,1.36,0,0,1,104.46,102.73Z"/><path class="cls-9" d="M125.14,84.23v.06A3.15,3.15,0,0,1,122,87.43H100.5a3.13,3.13,0,0,1-3.11-3.59v-.06a3.15,3.15,0,0,1,3.11-2.7H122A3.15,3.15,0,0,1,125.14,84.23Z"/><path class="cls-10" d="M64.68,118.11s2,10,12.39,9.67a12.75,12.75,0,0,0,12.4-9.67s-6.25,6.31-12.4,6.31S64.68,118.11,64.68,118.11Z"/><path class="cls-10" d="M101.1,142h0l-47.55-.42a1.23,1.23,0,1,1,0-2.46l47.55.41a1.24,1.24,0,0,1,0,2.47Z"/><path class="cls-10" d="M108.22,142.79a1.25,1.25,0,0,1-.32,0,1.22,1.22,0,0,1-.87-1.51,3.72,3.72,0,0,0-.2-2.92,4.07,4.07,0,0,0-2.24-1.69,1.24,1.24,0,0,1,.64-2.39,6.68,6.68,0,0,1,3.74,2.85,6.08,6.08,0,0,1,.44,4.8A1.23,1.23,0,0,1,108.22,142.79Z"/></g></g></svg>