<svg xmlns="http://www.w3.org/2000/svg" viewBox="0 0 166.75 288.58"><defs><style>.cls-1{fill:#515151;}.cls-2{fill:#ea9628;}.cls-3{fill:#e08a22;}.cls-4{fill:#f4d3b0;}.cls-5{fill:#393c3d;}.cls-6{fill:#494949;}.cls-7{fill:#f9f5ed;}.cls-8{fill:#f9dab4;}.cls-9{fill:#3a332d;}.cls-10{fill:#c65044;}.cls-11{fill:#efc4a0;}</style></defs><title>资源 78</title><g id="图层_2" data-name="图层 2"><g id="Layer_1" data-name="Layer 1"><path class="cls-1" d="M83.28,29.54c-118.66,0-67.93,164.31-67.93,164.31H151.21S201.94,29.54,83.28,29.54Z"/><rect class="cls-2" x="66.29" y="190.25" width="37.13" height="98.34"/><path class="cls-3" d="M84.86,208.56a18.21,18.21,0,0,1-18.19-18.2v-8.27h36.66v8.27a18.21,18.21,0,0,1-18.2,18.2Z"/><path class="cls-4" d="M85.13,203.69h-.27a13.33,13.33,0,0,1-13.32-13.33V187H98.46v3.4A13.33,13.33,0,0,1,85.13,203.69Z"/><path class="cls-1" d="M102.79,191.47a220,220,0,0,1-2.9,30.73c-2.65,16.39-8.08,36.42-8.08,52.68a45.85,45.85,0,0,0,2,13.7h44.66c9.13-21.57-4.06-57.29-17.19-78.92C113,196,102.79,191.47,102.79,191.47Z"/><path class="cls-5" d="M122.14,234.76c1.24,18.54,6,41.59,8.74,53.82h2.89C127.81,270.6,122.14,234.76,122.14,234.76Z"/><rect class="cls-5" x="103.43" y="281.79" width="19.88" height="4.83"/><path class="cls-5" d="M95.16,247c1.63-8.54,3.49-17,4.73-24.75a233.58,233.58,0,0,0,2.74-26s5.28,14.66,11.26,21.63l-9.8,3.73s6.28,15.64,6.39,19.6A50.61,50.61,0,0,1,95.16,247Z"/><path class="cls-1" d="M66.93,191.47S56.7,196,48.43,209.66C35.3,231.29,22.11,267,31.24,288.58H75.9a45.85,45.85,0,0,0,2-13.7c0-16.26-5.43-36.29-8.09-52.68A220.82,220.82,0,0,1,66.93,191.47Z"/><path class="cls-5" d="M38.84,288.58c2.75-12.23,7.49-35.28,8.74-53.82,0,0-5.67,35.84-11.63,53.82Z"/><rect class="cls-5" x="46.41" y="281.79" width="19.88" height="4.83"/><path class="cls-5" d="M74.55,247c-1.62-8.54-3.48-17-4.73-24.75a238.6,238.6,0,0,1-2.74-26s-5.27,14.66-11.25,21.63l9.79,3.73s-6.27,15.64-6.38,19.6A50.61,50.61,0,0,0,74.55,247Z"/><path class="cls-6" d="M83.28,0s-13.4.13-20,3.37c0,0,0,23.13,20,34.85,20-11.72,20-34.85,20-34.85C96.68.13,83.28,0,83.28,0Z"/><path class="cls-7" d="M83.28,23.87c-13.91,0-12.52,6.33-12.52,6.33h25S97.19,23.87,83.28,23.87Z"/><path class="cls-4" d="M20.54,131s-6.17-10.63-14.42-7.35S-7.73,157,28.46,161.26Z"/><path class="cls-4" d="M146.21,131s6.17-10.63,14.42-7.35,13.85,33.36-22.34,37.6Z"/><path class="cls-8" d="M83.94,195.2H82.61a65.87,65.87,0,0,1-65.87-65.87V85.59H149.82v43.74A65.87,65.87,0,0,1,83.94,195.2Z"/><path class="cls-9" d="M43,143.25a1.31,1.31,0,0,1-1.31-1.31c0-3.49,1.75-10.16,8.53-10.39s9.65,5.24,10.32,8.16a1.31,1.31,0,0,1-2.56.59c-.07-.27-1.52-6.13-7.36-6.13h-.31c-5.93.2-6,7.45-6,7.75A1.32,1.32,0,0,1,43,143.25Z"/><path class="cls-9" d="M40.79,143.18a17.35,17.35,0,0,1-5.65-1A1.31,1.31,0,0,1,36,139.7a12.33,12.33,0,0,0,6.68.67,1.32,1.32,0,0,1,.73,2.53A10.54,10.54,0,0,1,40.79,143.18Z"/><path class="cls-9" d="M130.18,143.25h0a1.31,1.31,0,0,1-1.31-1.32c0-.3-.07-7.55-6-7.75-6.14-.21-7.6,5.86-7.66,6.11a1.31,1.31,0,1,1-2.56-.58c.66-2.92,3.67-8.39,10.31-8.16,6.79.23,8.56,6.9,8.54,10.39A1.31,1.31,0,0,1,130.18,143.25Z"/><path class="cls-9" d="M132.43,143.18a10.36,10.36,0,0,1-2.62-.28,1.32,1.32,0,0,1,.72-2.53,12.38,12.38,0,0,0,6.69-.67,1.31,1.31,0,0,1,.86,2.48A17.35,17.35,0,0,1,132.43,143.18Z"/><path class="cls-10" d="M73.8,170.6s3-4.54,6.5-4.33,5.38,3.56,5.38,3.56,3.14-3.48,6.8-3.41S97.75,171,97.75,171a14.24,14.24,0,0,1-12.33,6.8A12.52,12.52,0,0,1,73.8,170.6Z"/><path class="cls-11" d="M79.77,156s.6-5.36,5.77-5.39S91.77,156,91.77,156s-2.82-3.3-6.13-3.3S79.77,156,79.77,156Z"/><path class="cls-5" d="M108.75,112.44l-1.11,2.91a.72.72,0,0,0,.33.89c3.12,1.72,18.81,10,28.45,8.71a.73.73,0,0,0,.61-.85l-.56-3a.73.73,0,0,0-.68-.59c-2.54-.12-13.32-1.07-26-8.39A.72.72,0,0,0,108.75,112.44Z"/><path class="cls-5" d="M63.84,112.44,65,115.35a.72.72,0,0,1-.33.89c-3.12,1.72-18.81,10-28.45,8.71a.71.71,0,0,1-.6-.85l.56-3a.71.71,0,0,1,.67-.59c2.54-.12,13.32-1.07,26-8.39A.72.72,0,0,1,63.84,112.44Z"/><path class="cls-6" d="M83.28,33.79c-73,8.6-69,70.08-69,70.08a657.39,657.39,0,0,1,69.05-3.49,657.39,657.39,0,0,1,69.05,3.49S155.78,41,83.28,33.79Z"/></g></g></svg>