<svg xmlns="http://www.w3.org/2000/svg" viewBox="0 0 202.44 275.27"><defs><style>.cls-1{fill:#ea9628;}.cls-2{fill:#ad3e3b;}.cls-3{fill:#515151;}.cls-4{fill:#f9dab4;}.cls-5{fill:#efc4a0;}.cls-6{fill:#c65044;}.cls-7{fill:#f9f5ed;}.cls-8{fill:#ba8156;}.cls-9{fill:#e8e3d9;}.cls-10{fill:#f4d3b0;}.cls-11{fill:#3a332d;}</style></defs><title>资源 322</title><g id="图层_2" data-name="图层 2"><g id="Layer_1" data-name="Layer 1"><polygon class="cls-1" points="43.74 0 51.96 5.44 45.89 67.89 40.96 67.13 43.74 0"/><polygon class="cls-1" points="26.55 6.07 18.46 11 38.14 67.39 41.03 65.6 26.55 6.07"/><polygon class="cls-1" points="3.29 44.88 0 48.8 23.77 73.45 1.64 67.89 0 73.45 21.49 77.12 3.29 82.05 6.07 87.36 33.25 79.4 34.13 75.12 3.29 44.88"/><path class="cls-2" d="M50,77.21C44.94,87.39,37.1,93.78,32.48,91.48s-4.27-12.4.79-22.58S46.16,52.33,50.78,54.63,55.05,67,50,77.21Z"/><path class="cls-3" d="M119.54,15.88C32.91,15.88,36.67,119,36.67,119c3.49,75.36,3.45,124.37,2,156.23H200.42c-1.46-31.86-1.51-80.87,2-156.23C202.41,119,206.17,15.88,119.54,15.88Z"/><path class="cls-4" d="M64.22,208S42.5,247.4,42.34,253.81c-.08,3,3.93,12.34,8.26,21.46H69.25c-4.29-9.07-8.75-19-8.67-20.65.16-3.2,17.68-34.22,17.68-34.22Z"/><rect class="cls-5" x="88.53" y="165.19" width="61.74" height="78.94"/><path class="cls-6" d="M158.88,172.06s15.78,12.34,24.35,37.81c0,0-1.5,14-21.06,21.3Z"/><path class="cls-6" d="M80.87,171.11S64.68,184.4,56.11,209.87a39.17,39.17,0,0,0,21.06,21.3Z"/><path class="cls-6" d="M119.4,199.9,90.1,166.82c-4.71,1-8.22,2.32-9.23,4.29-3.53,6.9-6.41,59.25-8.26,104.16h94.12c-1.85-44.91-4.73-97.26-8.26-104.16-1-2-4.53-3.34-9.23-4.29Z"/><path class="cls-2" d="M119.4,199.9s-26.61,34.76-45,36.32c0,0,29.76-16.29,41.94-39.73Z"/><path class="cls-7" d="M90.94,228.19s28.83-53.87,90.77-59.48l6.59,85.18-21.42,11.69Z"/><rect class="cls-8" x="182.53" y="163.28" width="5.42" height="87.31" transform="translate(-17.62 17.25) rotate(-5.09)"/><rect class="cls-8" x="123.07" y="201.99" width="5.42" height="87.31" transform="translate(-150.16 250.48) rotate(-63.89)"/><path class="cls-9" d="M158.79,182.19l.28.75c.17.5.44,1.22.75,2.14s.72,2,1.15,3.33.93,2.74,1.44,4.33,1.09,3.31,1.66,5.14,1.2,3.75,1.8,5.75,1.26,4.05,1.87,6.16,1.26,4.24,1.89,6.38,1.22,4.28,1.83,6.39,1.15,4.19,1.71,6.21,1.07,4,1.56,5.82.94,3.6,1.35,5.22.78,3.11,1.1,4.43.59,2.48.82,3.43.38,1.7.5,2.21l.17.78s-.09-.26-.27-.75-.44-1.22-.76-2.14-.72-2-1.15-3.33-.93-2.74-1.44-4.33S174,236.8,173.39,235s-1.2-3.75-1.8-5.75-1.26-4.06-1.88-6.16l-1.88-6.38-1.82-6.4c-.61-2.11-1.16-4.19-1.72-6.21s-1.07-4-1.56-5.81-.94-3.61-1.35-5.23-.78-3.11-1.1-4.43-.59-2.48-.81-3.43-.39-1.7-.51-2.21Z"/><path class="cls-9" d="M135.68,196.51l.45.58c.29.38.72.93,1.25,1.64s1.18,1.58,1.91,2.58,1.56,2.12,2.44,3.36,1.86,2.58,2.85,4,2.07,2.93,3.14,4.51,2.2,3.18,3.3,4.85l3.38,5,3.32,5.06c1.1,1.67,2.14,3.34,3.17,4.94s2,3.17,2.93,4.65,1.78,2.88,2.58,4.18,1.51,2.5,2.14,3.57,1.18,2,1.63,2.76.79,1.38,1,1.79l.36.64-.45-.58-1.24-1.64c-.54-.71-1.19-1.58-1.92-2.58s-1.56-2.12-2.44-3.36-1.85-2.58-2.85-4-2.07-2.93-3.13-4.51-2.2-3.18-3.32-4.84l-3.36-5q-1.68-2.55-3.32-5.07c-1.1-1.66-2.14-3.33-3.17-4.93s-2-3.17-2.93-4.65-1.79-2.88-2.58-4.18-1.51-2.5-2.15-3.57-1.17-2-1.62-2.76-.79-1.38-1-1.79Z"/><path class="cls-9" d="M116.39,216.43s.22.13.61.39l1.71,1.13c.74.5,1.63,1.09,2.64,1.79s2.16,1.48,3.4,2.35,2.58,1.81,4,2.83,2.9,2.07,4.42,3.19,3.1,2.27,4.69,3.46l4.81,3.61,4.77,3.66c1.58,1.21,3.1,2.43,4.59,3.59s2.91,2.31,4.26,3.4,2.63,2.12,3.79,3.08,2.24,1.85,3.18,2.64,1.76,1.48,2.43,2.06,1.19,1,1.55,1.34l.55.48s-.22-.13-.61-.39-1-.64-1.71-1.14-1.63-1.08-2.64-1.78-2.16-1.48-3.4-2.35-2.58-1.81-4-2.83-2.9-2.07-4.42-3.19-3.1-2.27-4.69-3.46l-4.81-3.62L136.74,233c-1.57-1.2-3.1-2.42-4.59-3.59s-2.91-2.31-4.26-3.39-2.62-2.12-3.79-3.08-2.24-1.85-3.18-2.64-1.76-1.49-2.43-2.06l-1.55-1.34Z"/><path class="cls-4" d="M188.68,270.41c-6.36,4.62-13.61,5.31-18.27,3.9-6.3-1.91-23.73-19.85-17.24-25.12s13.88,5.18,13.88,5.18-5.41-11.54,1.62-14.24,10.81,4.69,10.81,4.69-2.18-8.26,3.05-9.74C190.84,232.74,206.85,257.21,188.68,270.41Z"/><path class="cls-10" d="M62.8,113.16s-6.4-11.5-14.34-5.06c-5.7,4.63-.42,30.58,18.14,37.54Z"/><path class="cls-10" d="M176.17,113.16s6.4-11.5,14.34-5.06c5.7,4.63.42,30.58-18.14,37.54Z"/><path class="cls-4" d="M180.7,120.66c0,33.2-26.62,60.46-59.82,60.83H118.2c-33.21-.37-59.83-27.63-59.83-60.83V97.75A29.21,29.21,0,0,1,70,74.4l.3-.23a31.75,31.75,0,0,1,36.71-1l12.5,8.36L132,73.16a31.73,31.73,0,0,1,36.7,1l.3.23A29.18,29.18,0,0,1,180.7,97.75Z"/><path class="cls-6" d="M109.65,153.73s2.76-4.15,5.95-4,4.93,3.26,4.93,3.26,2.87-3.19,6.22-3.13,4.82,4.16,4.82,4.16-3.33,7.78-11.29,7.78S109.65,153.73,109.65,153.73Z"/><path class="cls-11" d="M80.25,124.82a1.21,1.21,0,0,1-1.21-1.2c0-3.2,1.6-9.3,7.82-9.51s8.83,4.79,9.44,7.46a1.21,1.21,0,0,1-2.35.54c-.06-.25-1.43-5.78-7-5.6s-5.49,6.82-5.49,7.1a1.21,1.21,0,0,1-1.2,1.21Z"/><path class="cls-3" d="M74.91,109.15s17.26-2.7,23.36,0L93,103.84S77.57,103.84,74.91,109.15Z"/><path class="cls-3" d="M166.85,109.15s-17.26-2.7-23.36,0l5.23-5.31S164.18,103.84,166.85,109.15Z"/><path class="cls-11" d="M78.19,124.75a15.86,15.86,0,0,1-5.17-.91,1.2,1.2,0,1,1,.78-2.28,11.23,11.23,0,0,0,6.11.62,1.21,1.21,0,0,1,1.49.82,1.19,1.19,0,0,1-.82,1.49A9.36,9.36,0,0,1,78.19,124.75Z"/><path class="cls-11" d="M80.4,122.25c-3.53,0-7.58-3.3-7.76-3.45A1.2,1.2,0,1,1,74.17,117h0c1,.81,4,2.9,6.22,2.9h.08a1.2,1.2,0,0,1,0,2.4Z"/><path class="cls-11" d="M160,124.82h0a1.21,1.21,0,0,1-1.2-1.21c0-.28-.06-6.91-5.49-7.1-5.63-.19-7,5.36-7,5.6a1.21,1.21,0,0,1-2.35-.54c.61-2.67,3.37-7.68,9.44-7.46s7.83,6.31,7.81,9.51A1.2,1.2,0,0,1,160,124.82Z"/><path class="cls-11" d="M162.05,124.75a9.18,9.18,0,0,1-2.39-.26,1.2,1.2,0,0,1,.66-2.31,11.4,11.4,0,0,0,6.12-.62,1.2,1.2,0,0,1,.78,2.28A15.86,15.86,0,0,1,162.05,124.75Z"/><path class="cls-11" d="M159.84,122.25h-.09a1.2,1.2,0,1,1,0-2.4h.07c2.22,0,5.24-2.09,6.22-2.9a1.2,1.2,0,1,1,1.53,1.85C167.42,119,163.37,122.25,159.84,122.25Z"/></g></g></svg>