<?xml version="1.0" standalone="no"?><!DOCTYPE svg PUBLIC "-//W3C//DTD SVG 1.1//EN" "http://www.w3.org/Graphics/SVG/1.1/DTD/svg11.dtd"><svg t="1549025092591" class="icon" style="" viewBox="0 0 1024 1024" version="1.1" xmlns="http://www.w3.org/2000/svg" p-id="26623" xmlns:xlink="http://www.w3.org/1999/xlink" width="200" height="200"><defs><style type="text/css"></style></defs><path d="M764.988235 427.670588H339.968c7.228235-60.476235-45.778824-305.754353 150.106353-311.536941 186.247529-6.987294 157.093647 223.834353 157.093647 223.834353l91.286588 0.481882S764.988235 31.563294 490.044235 30.117647c-300.182588 14.938353-229.586824 349.605647-238.742588 397.552941H259.011765c-59.994353 0-108.423529 47.465412-108.42353 106.014118v353.942588C150.588235 946.416941 199.258353 993.882353 259.011765 993.882353h505.97647c59.994353 0 108.423529-47.465412 108.42353-106.255059V533.684706c0-58.548706-48.670118-106.014118-108.42353-106.014118z m-180.705882 84.329412h72.282353v48.188235h-48.188235v48.188236h-48.188236v48.188235h96.376471v48.188235h-120.470588V752.941176h120.470588v48.188236h-120.470588v48.188235h-48.188236v-48.188235h-120.470588V752.941176h120.470588v-48.188235h-120.470588v-48.188235h96.376471v-48.188235h-48.188236v-48.188236h-48.188235V512h72.282353v48.188235h48.188235v48.188236h48.188236v-48.188236h48.188235V512z" fill="#63678B" p-id="26624"></path></svg>