<svg xmlns="http://www.w3.org/2000/svg" viewBox="0 0 198.8 260.01"><defs><style>.cls-1{fill:#4c3626;}.cls-2{fill:#202b3a;}.cls-3{fill:#5086a3;}.cls-4{fill:#f4d3b0;}.cls-5{fill:#f9dab4;}.cls-6{fill:#c65044;}.cls-7{fill:#efc4a0;}.cls-8{fill:#3a332d;}</style></defs><title>资源 194</title><g id="图层_2" data-name="图层 2"><g id="Layer_1" data-name="Layer 1"><path class="cls-1" d="M100.17,0H98.64C-38.59-1.15,6,178.34,10.37,184.44c4.19,5.78,80.77,1.74,89,1.28,8.26.46,84.84,4.5,89-1.28C192.84,178.34,237.38-1.15,100.17,0Z"/><path class="cls-2" d="M134.83,170c-19-10.37-2.79,48.81,10.35,90h47.17a48,48,0,0,0,.29-4.9C193,220.65,134.83,170,134.83,170Z"/><path class="cls-2" d="M64,170S5.77,220.65,6.16,255.11a48,48,0,0,0,.29,4.9H53.62C66.76,218.81,83,159.63,64,170Z"/><path class="cls-3" d="M99.44,165.22c-37,0-39.94,7.71-39.94,7.71s-.54,15.62-6.61,36.49a387.56,387.56,0,0,0-11,50.59H157a386.05,386.05,0,0,0-11-50.59c-6.08-20.87-6.62-36.49-6.62-36.49S136.47,165.22,99.44,165.22Z"/><path class="cls-2" d="M96.6,173.09c.06.65,4,45,3.51,86.92h3.37c.52-42.16-3.45-86.57-3.51-87.23Z"/><path class="cls-2" d="M99,182s2,11.55,5.93,13.52,6.75-2.25,6.75-5.35S96.87,174.2,99,182Z"/><path class="cls-2" d="M70.88,152.7l28.56,6.54L128,152.7s6.7,15.12,3,19.08-9.43,5.53-30.64,5.93v0H98.51v0c-21.21-.4-27.08-2.07-30.65-5.93S70.88,152.7,70.88,152.7Z"/><path class="cls-4" d="M34.94,111.08s-10.54-11.59-20.23-6,.84,37.34,33.72,37.27Z"/><path class="cls-4" d="M163.86,111.08s10.54-11.59,20.23-6-.84,37.34-33.72,37.27Z"/><path class="cls-5" d="M24.78,85.37S29.21,167,100.67,167,174,85.37,174,85.37L99.4,38.58Z"/><path class="cls-6" d="M86.44,140.77s3.14-4.88,6.76-4.66,5.6,3.82,5.6,3.82,3.26-3.74,7.07-3.66,5.47,4.87,5.47,4.87-3.79,9.14-12.82,9.14S86.44,140.77,86.44,140.77Z"/><path class="cls-7" d="M105.13,117.67s-.62,5.76-6,5.78-6.48-5.78-6.48-5.78,2.94,3.55,6.38,3.55S105.13,117.67,105.13,117.67Z"/><path class="cls-8" d="M137.23,117.67h0A1.27,1.27,0,0,1,136,116.4c0-.29-.07-7.24-5.75-7.44-5.89-.19-7.3,5.62-7.35,5.87a1.26,1.26,0,0,1-2.46-.56c.64-2.8,3.52-8,9.89-7.83s8.2,6.62,8.19,10A1.27,1.27,0,0,1,137.23,117.67Z"/><path class="cls-8" d="M139.38,117.6a9.75,9.75,0,0,1-2.5-.27,1.26,1.26,0,0,1,.69-2.43,11.84,11.84,0,0,0,6.4-.64,1.26,1.26,0,1,1,.83,2.38A16.49,16.49,0,0,1,139.38,117.6Z"/><path class="cls-8" d="M137.07,115H137a1.26,1.26,0,0,1,0-2.52h.08c2.31,0,5.48-2.19,6.52-3a1.26,1.26,0,0,1,1.77.17,1.25,1.25,0,0,1-.17,1.77C145,111.52,140.76,115,137.07,115Z"/><path class="cls-8" d="M60.55,117.67h0a1.26,1.26,0,0,0,1.25-1.27c0-.29.07-7.24,5.75-7.44,5.89-.19,7.3,5.62,7.35,5.87a1.26,1.26,0,0,0,2.46-.56c-.64-2.8-3.52-8-9.89-7.83s-8.2,6.62-8.18,10A1.26,1.26,0,0,0,60.55,117.67Z"/><path class="cls-8" d="M58.4,117.6a10,10,0,0,0,2.51-.27,1.28,1.28,0,0,0,.86-1.56,1.26,1.26,0,0,0-1.55-.87,11.91,11.91,0,0,1-6.42-.64,1.26,1.26,0,1,0-.82,2.38A16.53,16.53,0,0,0,58.4,117.6Z"/><path class="cls-8" d="M60.71,115h.1a1.26,1.26,0,0,0,0-2.52h-.08c-2.31,0-5.48-2.19-6.52-3a1.26,1.26,0,0,0-1.6,1.94C52.77,111.52,57,115,60.71,115Z"/><path class="cls-1" d="M102.88,14.55,99.4,16.88l-3.47-2.33L9.36,74.62l12,28.45C69.09,104.15,93.23,69.4,99.4,59c6.17,10.45,30.31,45.2,78.09,44.12l11.95-28.45Z"/></g></g></svg>