<svg xmlns="http://www.w3.org/2000/svg" viewBox="0 0 161.82 260"><defs><style>.cls-1{fill:#f9dab4;}.cls-2{fill:#f7cea6;}.cls-3{fill:#f2ac2f;}.cls-4{fill:#ffc55f;}.cls-5{fill:#79a348;}.cls-6{fill:#88b559;}.cls-7{fill:#efc6a3;}.cls-8{fill:#2f3233;}.cls-9{fill:#e2af86;}</style></defs><title>资源 50</title><g id="图层_2" data-name="图层 2"><g id="Layer_1" data-name="Layer 1"><path class="cls-1" d="M11,260H29l5.54-58.78-18.24,0S13.09,239.73,11,260Z"/><path class="cls-2" d="M14.75,217.12h0s8.86-3.73,13.62-3.06,2.4,9.38,1.38,19.59c-.46,4.63-1.05,17.88-1.56,26.35H29l5.54-58.78-18.24,0S15.65,207.91,14.75,217.12Z"/><path class="cls-3" d="M44.33,157.58s-32,14-36.16,54.23H47.71V157.58Z"/><path class="cls-4" d="M25,209.19s-10.13-.27-11.38-7.84S27.07,171.05,33,167.9s8.56-3,7.25,5.26-4.8,32.36-4.8,35.5C32.14,210.24,25,209.19,25,209.19Z"/><path class="cls-1" d="M147.48,260h-18l-5.53-58.78,18.23,0S145.36,239.73,147.48,260Z"/><path class="cls-2" d="M143.7,217.12h0s-8.85-3.73-13.62-3.06-2.4,9.38-1.38,19.59c.47,4.63,1.05,17.88,1.56,26.35h-.8l-5.53-58.78,18.23,0S142.8,207.91,143.7,217.12Z"/><path class="cls-3" d="M114.12,157.58s32,14,36.16,54.23H110.74V157.58Z"/><path class="cls-4" d="M133.48,209.19s10.13-.27,11.38-7.84-13.48-30.3-19.43-33.45-8.56-3-7.25,5.26,4.8,32.36,4.8,35.5C126.31,210.24,133.48,209.19,133.48,209.19Z"/><path class="cls-5" d="M46.36,146.66S32.16,218.06,35.27,260H123s.35-74.87-10.75-113.69C62.65,146.31,46.36,146.66,46.36,146.66Z"/><path class="cls-6" d="M52.25,153.93a140.7,140.7,0,0,0-10.92,39.34C38.47,215.89,31.71,258,51.73,258s54.34,0,61.61,0,7.27-20.52,7.27-30.4-4.19-66.68-11.86-74.35C79.37,136.35,52.25,153.93,52.25,153.93Z"/><path class="cls-5" d="M80.45,192C69.38,192,56.78,164.66,57,163.38l.94-5.76H103l.94,5.76C104.13,164.66,91.53,192,80.45,192Z"/><path class="cls-7" d="M63.77,164.48s11.86,20.67,16.68,20.67,16.69-20.67,16.69-20.67Z"/><path class="cls-8" d="M153.82,116.67c4.09-10,8-21.09,8-32.69,0-46.38-36.23-84-80.91-84S0,37.6,0,84a86.32,86.32,0,0,0,6.36,32.69Z"/><path class="cls-8" d="M151.23,122.68l-.28.39S151.06,122.93,151.23,122.68Z"/><path class="cls-2" d="M133.5,108.93s5.26-8.72,11-10.78,12.81.41,12.43,9.45-13.38,34.49-23.52,29C133.41,122,133.5,108.93,133.5,108.93Z"/><path class="cls-9" d="M148.07,106.77s-6.88,4.38-7.14,11,4.59,6.3,5.1,3a5.15,5.15,0,0,0-1.78-4.93A13.3,13.3,0,0,1,148.07,106.77Z"/><path class="cls-2" d="M25.54,108.93s-5.26-8.72-11-10.78-12.81.41-12.43,9.45,13.39,34.49,23.52,29C25.63,122,25.54,108.93,25.54,108.93Z"/><path class="cls-9" d="M11,106.77s6.89,4.38,7.14,11-4.59,6.3-5.1,3a5.14,5.14,0,0,1,1.79-4.93A13.34,13.34,0,0,0,11,106.77Z"/><path class="cls-2" d="M21.43,86.41v48.41c0,9.32,18.23,28.42,47.55,31s69-6.58,69-35.16V57.83S117.2,70.16,104.59,77.72l2-23L46.86,82.2,57,58.67Z"/><path class="cls-9" d="M73.06,128.74a1.25,1.25,0,0,1-.86-1.48h0a12.68,12.68,0,0,1,1.47-3.53h0a6.39,6.39,0,0,1,6-3.42h.19a8,8,0,0,1,5.74,3.27h0A9,9,0,0,1,87,126.46h0A1.23,1.23,0,0,1,86.2,128h0a1.15,1.15,0,0,1-1.42-.85h0a.5.5,0,0,0,0-.12h0a2.71,2.71,0,0,0-.17-.45h0a6.57,6.57,0,0,0-.81-1.43h0a5.75,5.75,0,0,0-4.18-2.36h-.11a3.93,3.93,0,0,0-3.56,1.83h0a9.88,9.88,0,0,0-1.42,3h0c0,.15,0,.21,0,.21h0a1.18,1.18,0,0,1-1.2,1h0l-.18,0Z"/><path class="cls-8" d="M119.67,115.94s0-.08,0-.27h0c0-.2-.09-.48-.19-.83h0a9.8,9.8,0,0,0-1.08-2.54h0c-1.16-1.81-3-3.56-7-3.59h0c-3.54,0-5.41,1.25-6.6,2.58h0a7.67,7.67,0,0,0-1.69,3.49h0l0,.21h0a1.19,1.19,0,0,1-1.31,1.07h0a1.2,1.2,0,0,1-1.07-1.32h0a9.83,9.83,0,0,1,1.69-4.24h0c1.44-2.11,4.3-4.21,9-4.18h0A10,10,0,0,1,120.4,111h0a11.65,11.65,0,0,1,1.65,4.67h0A1.2,1.2,0,0,1,121,117h-.11a1.19,1.19,0,0,1-1.19-1.09Z"/><path class="cls-8" d="M57.43,115.94s0-.08,0-.27h0c0-.2-.09-.48-.19-.83h0a9.46,9.46,0,0,0-1.08-2.54h0c-1.16-1.81-3-3.56-7-3.59h0c-3.53,0-5.41,1.25-6.6,2.58h0a7.78,7.78,0,0,0-1.69,3.49h0l0,.21h0a1.2,1.2,0,0,1-1.32,1.07h0a1.2,1.2,0,0,1-1.07-1.32h0a9.83,9.83,0,0,1,1.69-4.24h0c1.45-2.11,4.31-4.21,9-4.18h0A10,10,0,0,1,58.16,111h0a12,12,0,0,1,1.66,4.67h0A1.2,1.2,0,0,1,58.73,117h-.11a1.2,1.2,0,0,1-1.19-1.09Z"/><path class="cls-9" d="M99,140.25a16.8,16.8,0,0,0-3.87-2.13,1.2,1.2,0,1,0-.83,2.25s.39.14,1,.44a14.39,14.39,0,0,1,3,1.94,1.2,1.2,0,0,0-.78.29c-7.24,6.45-16.81,7.54-24.13,7.11a51.82,51.82,0,0,1-7.62-1c-1.89-.39-3-.73-3-.73a1.2,1.2,0,1,0-.72,2.29,51,51,0,0,0,11.17,1.85c7.63.44,17.88-.63,25.86-7.71a1.2,1.2,0,0,0,.39-.81,4.38,4.38,0,0,1,1,2.92,1.2,1.2,0,1,0,2.39.14C103,143.89,100.93,141.64,99,140.25Z"/><path class="cls-8" d="M56.44,94.84s-4.45-6-11.6-5.06S35,98.6,35,98.6a10.21,10.21,0,0,0,0,5.8S43.93,94.51,56.44,94.84Z"/><path class="cls-8" d="M103.62,94.84s4.46-6,11.61-5.06,9.85,8.82,9.85,8.82a10.13,10.13,0,0,1,0,5.8S116.13,94.51,103.62,94.84Z"/></g></g></svg>