<svg xmlns="http://www.w3.org/2000/svg" viewBox="0 0 162.3 260"><defs><style>.cls-1{fill:#5dacb5;}.cls-2{fill:#4c979b;}.cls-3{fill:#4e979b;}.cls-4{fill:#2f3233;}.cls-5{fill:#f7cea6;}.cls-6{fill:#e2af86;}.cls-7{fill:#e0605c;}.cls-8{fill:#ad3936;}</style></defs><title>资源 103</title><g id="图层_2" data-name="图层 2"><g id="Layer_1" data-name="Layer 1"><path class="cls-1" d="M110.87,169.92C84.7,190.38,121.53,216.55,124,231.66c1,6.23.31,21.85,0,28.34h20.94c1.95-19.67-1.49-36.41-3.61-45.12C136.71,196.18,110.87,169.92,110.87,169.92Z"/><path class="cls-2" d="M119.48,221.91a30.39,30.39,0,0,0-1.32-8c-4.06-14.12,4.66-20.45,10.57-22.76a209.41,209.41,0,0,0-17.86-21.24C89.69,186.47,109.76,206.77,119.48,221.91Z"/><path class="cls-1" d="M51.92,169.92c26.17,20.46-10.66,46.63-13.08,61.74-1,6.23-.32,21.85,0,28.34H17.93c-2-19.67,1.49-36.41,3.6-45.12C26.07,196.18,51.92,169.92,51.92,169.92Z"/><path class="cls-2" d="M43.31,221.91a30.74,30.74,0,0,1,1.31-8c4.06-14.12-4.65-20.45-10.56-22.76a209.41,209.41,0,0,1,17.86-21.24C73.09,186.47,53,206.77,43.31,221.91Z"/><polygon class="cls-1" points="51.92 169.92 43.22 260 120.15 260 110.87 169.92 101.66 163.61 61.86 163.61 51.92 169.92"/><path class="cls-3" d="M52.58,158.34S50,172.27,66.51,172.27s43.93,3.38,43.93-11.82S49,147.45,52.58,158.34Z"/><path class="cls-4" d="M154.27,117c4.11-10.07,8-21.15,8-32.78C162.3,37.71,126,0,81.15,0S0,37.71,0,84.23A86.6,86.6,0,0,0,6.38,117Z"/><path class="cls-4" d="M151.67,123c-.17.25-.28.38-.28.38S151.5,123.29,151.67,123Z"/><path class="cls-5" d="M133.89,109.25s5.28-8.75,11-10.81,12.85.41,12.47,9.47S144,142.51,133.8,137C133.8,122.33,133.89,109.25,133.89,109.25Z"/><path class="cls-6" d="M148.5,107.09s-6.9,4.39-7.16,11,4.61,6.32,5.12,3a5.15,5.15,0,0,0-1.79-4.94A13.33,13.33,0,0,1,148.5,107.09Z"/><path class="cls-5" d="M25.61,109.25s-5.27-8.75-11-10.81-12.85.41-12.46,9.47,13.42,34.6,23.59,29C25.71,122.33,25.61,109.25,25.61,109.25Z"/><path class="cls-6" d="M11,107.09s6.91,4.39,7.16,11-4.6,6.32-5.11,3a5.15,5.15,0,0,1,1.79-4.94A13.32,13.32,0,0,0,11,107.09Z"/><path class="cls-5" d="M21.49,86.66v48.56c0,9.34,18.29,28.5,47.69,31.07s69.17-6.6,69.17-35.26V58s-20.81,12.37-33.46,20l2-23.05L47,82.45,57.12,58.84Z"/><path class="cls-6" d="M73.27,129.11a1.23,1.23,0,0,1-.85-1.49h0a12.37,12.37,0,0,1,1.46-3.53h0a6.42,6.42,0,0,1,6-3.43H80A8,8,0,0,1,85.8,124h0a9.22,9.22,0,0,1,1.45,2.88h0a1.26,1.26,0,0,1-.8,1.53h0A1.15,1.15,0,0,1,85,127.5h0a.38.38,0,0,0,0-.12h0a4.09,4.09,0,0,0-.17-.45h0a7,7,0,0,0-.82-1.44h0a5.7,5.7,0,0,0-4.19-2.36H79.7A3.94,3.94,0,0,0,76.13,125h0a10.13,10.13,0,0,0-1.42,3h0l0,.21h0a1.17,1.17,0,0,1-1.2.95h0a.63.63,0,0,1-.19,0Z"/><polygon class="cls-6" points="106.87 54.9 47 82.45 106.31 61.45 106.87 54.9"/><path class="cls-6" d="M138.35,63.81V58s-20.81,12.37-33.46,20Z"/><polygon class="cls-6" points="52.39 69.88 57.12 58.84 21.83 86.39 52.39 69.88"/><path class="cls-4" d="M120,116.28a2.21,2.21,0,0,0,0-.28h0c0-.19-.09-.48-.19-.83h0a9.66,9.66,0,0,0-1.09-2.54h0c-1.16-1.82-3-3.57-7-3.6h0c-3.55,0-5.44,1.25-6.62,2.59h0a7.72,7.72,0,0,0-1.7,3.49h0l0,.22h0A1.21,1.21,0,0,1,102,116.4h0a1.2,1.2,0,0,1-1.08-1.32h0a9.9,9.9,0,0,1,1.7-4.25h0c1.45-2.13,4.32-4.23,9-4.2h0a10,10,0,0,1,9.08,4.73h0a12,12,0,0,1,1.66,4.69h0a1.2,1.2,0,0,1-1.09,1.31h-.11a1.21,1.21,0,0,1-1.2-1.09Z"/><path class="cls-4" d="M57.59,116.28a2.21,2.21,0,0,0,0-.28h0c0-.19-.09-.48-.19-.83h0a9.66,9.66,0,0,0-1.09-2.54h0c-1.16-1.82-3.05-3.57-7-3.6h0c-3.55,0-5.43,1.25-6.62,2.59h0a7.72,7.72,0,0,0-1.7,3.49h0l0,.22h0a1.21,1.21,0,0,1-1.32,1.07h0a1.2,1.2,0,0,1-1.08-1.32h0a9.9,9.9,0,0,1,1.7-4.25h0c1.45-2.13,4.32-4.23,9-4.2h0a10,10,0,0,1,9.08,4.73h0A11.85,11.85,0,0,1,60,116.05h0a1.2,1.2,0,0,1-1.09,1.31h-.11a1.21,1.21,0,0,1-1.2-1.09Z"/><path class="cls-4" d="M56.61,95.12S52.14,89.14,45,90s-9.88,8.85-9.88,8.85a10.19,10.19,0,0,0,0,5.82S44.06,94.78,56.61,95.12Z"/><path class="cls-4" d="M103.93,95.12s4.47-6,11.64-5.08,9.87,8.85,9.87,8.85a10.1,10.1,0,0,1,0,5.82S116.47,94.78,103.93,95.12Z"/><polygon class="cls-4" points="116.93 16.2 122.52 0.22 122.52 15.4 140.9 12.21 128.91 28.19 116.93 16.2"/><path class="cls-7" d="M67.77,140.09l28-4.36s5.44,23.05-6,23.6-10.84-3.4-14.42-9A105.93,105.93,0,0,0,67.77,140.09Z"/><path class="cls-8" d="M97,144.67c-10.23-3.88-16.68,3.39-19.89,8.83,2,3.84,3.5,6.27,12.64,5.83C96.35,159,97.34,151.22,97,144.67Z"/></g></g></svg>