<svg xmlns="http://www.w3.org/2000/svg" viewBox="0 0 214.02 260.01"><defs><style>.cls-1{fill:#393c3d;}.cls-2{fill:#515151;}.cls-3{fill:#686868;}.cls-4{fill:#f4d3b0;}.cls-5{fill:#f9dab4;}.cls-6{fill:#efc4a0;}.cls-7{fill:#3a332d;}.cls-8{fill:#e8dfd9;}.cls-9{fill:#e8e3d9;}.cls-10{fill:#c9c3b9;}</style></defs><title>资源 283</title><g id="图层_2" data-name="图层 2"><g id="Layer_1" data-name="Layer 1"><rect class="cls-1" x="70.29" y="206.93" width="72.9" height="53.07"/><path class="cls-1" d="M136.94,162.09,149.49,260h20.6C162.78,202.09,136.94,162.09,136.94,162.09Z"/><path class="cls-1" d="M77.13,162.09,64.58,260H44C51.3,202.09,77.13,162.09,77.13,162.09Z"/><path class="cls-2" d="M135.64,158.41H78.37S65.55,190.82,58.66,260h44.77L107,219l3.58,41h44.77C148.46,190.82,135.64,158.41,135.64,158.41Z"/><path class="cls-3" d="M82.68,158.7s-1.65,5.2,0,9.67c2.6,7.06,10.55,13.6,24.33,4.87V159.72Z"/><path class="cls-3" d="M131.33,158.7s1.65,5.2,0,9.67c-2.6,7.06-10.55,13.6-24.33,4.87V159.72Z"/><path class="cls-4" d="M50.86,100.81s-3.26-6.46-11.52-4c-10.9,3.22-7.51,34,13.26,40.14Z"/><path class="cls-4" d="M163.37,100.81s3.25-6.46,11.51-4c10.9,3.22,7.51,34-13.26,40.14Z"/><path class="cls-5" d="M143.27,161.14l-28.05,4.2a55.71,55.71,0,0,1-16.41,0l-28-4.2A26.67,26.67,0,0,1,48,134.77V69.44H166v65.33A26.67,26.67,0,0,1,143.27,161.14Z"/><path class="cls-6" d="M104.1,143.49c-16.09,0-25-2.36-25.52-2.51a1.18,1.18,0,0,1,.63-2.27c.24.06,20.34,5.36,54.84,0a1.18,1.18,0,0,1,.36,2.33A196.58,196.58,0,0,1,104.1,143.49Z"/><path class="cls-6" d="M106.9,153.79a28.21,28.21,0,0,1-9.53-1.56,1.18,1.18,0,0,1,.87-2.19,27.91,27.91,0,0,0,17.36,0,1.18,1.18,0,1,1,.75,2.23A29.55,29.55,0,0,1,106.9,153.79Z"/><path class="cls-6" d="M106.5,121.2c-5.38-.13-9.88,4.94-9.88,4.94s5.84-2.41,9.88-2.47,9.88,2.47,9.88,2.47S111.88,121.33,106.5,121.2Z"/><circle class="cls-7" cx="74.93" cy="110.22" r="6.73"/><path class="cls-8" d="M76.05,105.54c.16.81-.84,1.7-2.25,2s-2.67-.14-2.84-1,.84-1.7,2.25-2S75.88,104.72,76.05,105.54Z"/><rect class="cls-7" x="61.21" y="93.15" width="21.86" height="5.55" rx="2.35"/><circle class="cls-7" cx="139.11" cy="110.22" r="6.73"/><path class="cls-8" d="M138,105.54c-.17.81.84,1.7,2.24,2s2.68-.14,2.84-1-.84-1.7-2.24-2S138.16,104.72,138,105.54Z"/><rect class="cls-7" x="130.98" y="93.15" width="21.86" height="5.55" rx="2.35"/><path class="cls-9" d="M133.5,5.85c-8.19-3.72-23.14-8.58-44.69-4C72.67,5.32,50,15.43,44.13,38.93c0,0-8.84,38.4,6.21,54.93,0,0-.74-15,.77-26.94,0,0,25.14,19.71,54.57,4.62,0,0,28,13.77,57.18-4.63,0,0,1-1.71,1,25.15a44.69,44.69,0,0,0,6.37-15.79c4.36-21.36-2.88-52.89-19.49-51.87C150.72,24.4,145.85,11.46,133.5,5.85Z"/><path class="cls-9" d="M56.71,67.17s3,59.94-7.8,85.3c-6.31,14.84-20.23,27.09-35.15,29.41l1-14.51s28.65-28,26.58-56.87l.19-48.21Z"/><path class="cls-10" d="M34.27,143.41a11.38,11.38,0,0,0-1.66.12,114.06,114.06,0,0,1-9.94,14.84,12,12,0,0,0,18.44,6.85,53,53,0,0,0,4.73-6.71,12,12,0,0,0-11.57-15.1Z"/><path class="cls-10" d="M53.9,132.5a12,12,0,0,0-12-12c-.34,0-.67,0-1,0a68,68,0,0,1-7.12,20.74,12,12,0,0,0,20.1-8.81Z"/><path class="cls-10" d="M45.6,98.38a11.17,11.17,0,0,0-4.19.82l0,11.3a44.08,44.08,0,0,1-.3,9,11,11,0,0,0,4.54,1,11.08,11.08,0,0,0,10.65-8.07c.11-1.58.2-3.15.29-4.72A11.08,11.08,0,0,0,45.6,98.38Z"/><path class="cls-10" d="M56.83,87.77A10.07,10.07,0,0,0,41.49,79.2l-.07,17.09a10.06,10.06,0,0,0,15.41-8.52Z"/><path class="cls-10" d="M48.19,60.78a8.28,8.28,0,0,0-5.32,1.93L56.23,67A8.31,8.31,0,0,0,48.19,60.78Z"/><path class="cls-10" d="M48.19,77.42a8.33,8.33,0,0,0,8.32-8.32A8.5,8.5,0,0,0,56.23,67l-13.36-4.3a8.31,8.31,0,0,0-1.32,1.4l0,9.92A8.29,8.29,0,0,0,48.19,77.42Z"/><path class="cls-10" d="M26.75,170a12,12,0,0,0-5.41-10,97.53,97.53,0,0,1-6.56,7.35l-1,14.51A37.45,37.45,0,0,0,22,179.57,12,12,0,0,0,26.75,170Z"/><circle class="cls-9" cx="31.48" cy="155.39" r="11.98" transform="translate(-126.99 150.32) rotate(-76.72)"/><circle class="cls-9" cx="39.13" cy="132.5" r="11.98"/><circle class="cls-9" cx="43.01" cy="109.45" r="11.07" transform="translate(-64.8 62.47) rotate(-45)"/><circle class="cls-9" cx="44.42" cy="87.77" r="10.06"/><circle class="cls-9" cx="46.25" cy="69.1" r="8.32"/><circle class="cls-9" cx="11.98" cy="170.03" r="11.98"/><path class="cls-9" d="M157.31,67.17s-3,59.94,7.8,85.3c6.31,14.84,20.24,27.09,35.15,29.41l-1-14.51s-28.65-28-26.58-56.87l-.19-48.21Z"/><path class="cls-10" d="M179.75,143.41a11.52,11.52,0,0,1,1.67.12,112.07,112.07,0,0,0,9.94,14.84,12,12,0,0,1-18.45,6.85,54.06,54.06,0,0,1-4.73-6.71,12.36,12.36,0,0,1-.41-3.12A12,12,0,0,1,179.75,143.41Z"/><path class="cls-10" d="M160.12,132.5a12,12,0,0,1,12-12c.34,0,.68,0,1,0a67.78,67.78,0,0,0,7.12,20.74,12,12,0,0,1-20.11-8.81Z"/><path class="cls-10" d="M168.43,98.38a11.25,11.25,0,0,1,4.19.82l0,11.3a44.8,44.8,0,0,0,.3,9,10.9,10.9,0,0,1-4.53,1,11.09,11.09,0,0,1-10.66-8.07c-.1-1.58-.2-3.15-.28-4.72A11.08,11.08,0,0,1,168.43,98.38Z"/><path class="cls-10" d="M157.19,87.77a10.08,10.08,0,0,1,15.35-8.57l.06,17.09a10.06,10.06,0,0,1-15.41-8.52Z"/><path class="cls-10" d="M165.83,60.78a8.33,8.33,0,0,1,5.33,1.93L157.79,67A8.31,8.31,0,0,1,165.83,60.78Z"/><path class="cls-10" d="M165.83,77.42a8.32,8.32,0,0,1-8.31-8.32,8.49,8.49,0,0,1,.27-2.09l13.37-4.3a9.2,9.2,0,0,1,1.32,1.4l0,9.92A8.31,8.31,0,0,1,165.83,77.42Z"/><path class="cls-10" d="M187.27,170a12,12,0,0,1,5.41-10,97.53,97.53,0,0,0,6.56,7.35l1,14.51a37.76,37.76,0,0,1-8.27-2.31A12,12,0,0,1,187.27,170Z"/><circle class="cls-9" cx="182.55" cy="155.39" r="11.98" transform="translate(-22.53 31.25) rotate(-9.22)"/><circle class="cls-9" cx="174.9" cy="132.5" r="11.98"/><circle class="cls-9" cx="171.01" cy="109.45" r="11.07" transform="translate(-27.31 152.98) rotate(-45)"/><circle class="cls-9" cx="169.6" cy="87.77" r="10.06"/><circle class="cls-9" cx="167.77" cy="69.1" r="8.32"/><circle class="cls-9" cx="202.04" cy="170.03" r="11.98"/></g></g></svg>