<svg xmlns="http://www.w3.org/2000/svg" viewBox="0 0 180.23 274.52"><defs><style>.cls-1{fill:#393c3d;}.cls-2{fill:#1c1917;}.cls-3{fill:#9e6f4c;}.cls-4{fill:#2d2926;}.cls-5{fill:#f4d3b0;}.cls-6{fill:#f2d0af;}.cls-7{fill:#1c1c1c;}.cls-8{fill:#ddb58e;}</style></defs><title>资源 272</title><g id="图层_2" data-name="图层 2"><g id="Layer_1" data-name="Layer 1"><path class="cls-1" d="M67.93,215.79S31.54,213.91,31,188.65c-.29-12.75,41.77-33.45,41.77-33.45Z"/><path class="cls-2" d="M41.34,178.62c-.94,5.37,2.17,6.75,6.7,6.77,3,0,6,0,9,0q6.64-.06,13.31-.16l2.38-30s-16.41,8.08-28.67,17.25A15.47,15.47,0,0,0,41.34,178.62Z"/><path class="cls-1" d="M112.29,215.79s36.4-1.88,37-27.14c.29-12.75-41.77-33.45-41.77-33.45Z"/><path class="cls-2" d="M138.88,178.62c1,5.37-2.16,6.75-6.69,6.77-3,0-6,0-9,0q-6.65-.06-13.31-.16l-2.38-30s16.41,8.08,28.67,17.25A15.31,15.31,0,0,1,138.88,178.62Z"/><path class="cls-3" d="M13.86,260.78c.44,1.93,5.11,9.24,14,13.74H51.17l17.13-95H58.24S13.12,257.59,13.86,260.78Z"/><path class="cls-1" d="M18,251.58c-2.65,5.14-4.23,8.58-4.09,9.2.44,1.93,5.11,9.24,14,13.74H51.17l.66-3.65C38.87,268.13,26.5,261.53,18,251.58Z"/><path class="cls-3" d="M111.93,179.49l17.13,95h23.33c8.87-4.5,13.54-11.81,14-13.74.74-3.19-44.38-81.29-44.38-81.29Z"/><path class="cls-1" d="M128.4,270.87l.66,3.65h23.33c8.87-4.5,13.54-11.81,14-13.74.14-.62-1.44-4.06-4.09-9.2C153.73,261.53,141.36,268.13,128.4,270.87Z"/><path class="cls-1" d="M46.87,274.52h86.49c-1.38-49.09-11.37-95-11.37-95H58.24S48.24,225.43,46.87,274.52Z"/><path class="cls-3" d="M89.13,165.37l-2,.07c0,.86.37,73.62.77,109.08h2C89.51,239.07,89.16,166.23,89.13,165.37Z"/><path class="cls-3" d="M122.36,182.52c0,7.64-14.44,6-32.25,6s-32.24,1.66-32.24-6c0-.39,0-8.63.11-9,1.39-7.09,15.25-4.81,32.13-4.81,16.46,0,30-2.56,32,4.26C122.28,173.52,122.36,181.94,122.36,182.52Z"/><path class="cls-1" d="M87.31,188.51h2c0-8.85-.09-15.9-.11-19.8l-2,0C87.22,172.55,87.26,179.62,87.31,188.51Z"/><path class="cls-3" d="M127.85,270.49c-1.82,2.31-21.09,4.34-22.89,2.69s-5.31-25.17-3.21-27.27,21.06-4.58,22.89-2.7S129.68,268.17,127.85,270.49Z"/><path class="cls-4" d="M116.81,254.6a78.81,78.81,0,0,0,10-3.14c-.71-4.18-1.55-7.57-2.2-8.25-1.83-1.88-20.79.6-22.89,2.7-.68.68-.77,3.66-.51,7.4C106.41,254.41,111.5,255.84,116.81,254.6Z"/><path class="cls-3" d="M115.85,253.66c3.66-.9,7.23-2.1,10.8-3.3-.67-3.66-1.41-6.53-2-7.15-1.83-1.88-20.79.6-22.89,2.7-.64.64-.76,3.3-.56,6.72C106,253.5,111,254.84,115.85,253.66Z"/><path class="cls-4" d="M114.75,251.34a1.48,1.48,0,1,1-1.48-1.47A1.48,1.48,0,0,1,114.75,251.34Z"/><path class="cls-1" d="M8.26,126.5S0,77.15,0,74.05c-.07-6.86,12.14-7.11,12.14-7.11S7.28,50.35,7.93,45.12s5.56-15,5.56-15l3.93,8.83s18-26.49,32-31.72V23.54S70.38,5.56,99.8,0L89.34,12.1s40.87-6.87,59.83.65L134.46,18S171.07,32.69,177.29,49l-19.62-3.59s21.58,21.25,22.56,36.29l-17-6.22,13.08,23.11-11.12-2.51s1.31,20.87-2,30.38Z"/><path class="cls-5" d="M25.79,120.9s-9.63-11.12-19.4-3.09c-10.1,8.3,6.46,34.62,21.76,35.55Z"/><path class="cls-5" d="M145.13,120.9s9.63-11.12,19.41-3.09c10.1,8.3-6.47,34.62-21.77,35.55Z"/><path class="cls-6" d="M17.42,65.53v64.32c0,26.13,24.2,47.31,54.06,47.31h28c29.85,0,54.06-21.18,54.06-47.31V65.53Z"/><path class="cls-1" d="M155.83,60.44l-73-7.11L15.72,57.87,12.14,85.33V111.2l7.84,28h6v-46l7.77,4.61V68.33s10.75,15.53,33.8,16l-5-4S77.24,89.87,89,85.45l-4.9-4.29a41.94,41.94,0,0,0,21.7,2.58L95.14,76.38s16.06.61,25.14,4.17L116.6,75.4s14,5.52,18.27,9.44L136,95.51l8.34-9.57-.05,53.18H152l5.69-27.92Z"/><path class="cls-7" d="M96.77,110c-2.26,6.2-9.62,6.2-11.61,6.09v0l-.26,0-.25,0v0c-2,.11-9.35.11-11.61-6.09H19.91v8.33s6.05-2.78,9.65-1.3,7.68,14.06,19.12,13.73S74,119.9,74,119.9a22.64,22.64,0,0,0,10.69,3.16v0h.51v0a22.64,22.64,0,0,0,10.69-3.16s13.83,10.55,25.27,10.88,15.53-12.26,19.13-13.73,9.64,1.3,9.64,1.3V110Z"/><path class="cls-8" d="M72.21,136.5a10.34,10.34,0,0,0,2.31,1.62,12,12,0,0,0,1.75.8,12.89,12.89,0,0,0,2.15.72,17.75,17.75,0,0,0,2.46.55c.87.11,1.75.32,2.68.37l2.8.16c.81.07,1.89,0,2.81-.05l1.42,0,1.28-.2a12.35,12.35,0,0,0,2.42-.47,11,11,0,0,0,2.12-.71,9.49,9.49,0,0,0,1.69-.87,5.75,5.75,0,0,0,1.18-.9,5.53,5.53,0,0,0,.89-1,2.45,2.45,0,0,1-.12.33,3.81,3.81,0,0,1-.48.89,5.8,5.8,0,0,1-1,1.22c-.22.21-.44.47-.71.69l-.9.61a9.18,9.18,0,0,1-2.19,1.11,11.14,11.14,0,0,1-2.64.79l-1.43.31c-.48.06-1,.08-1.42.11-1,0-1.84.16-3,.12l-3-.24a21.15,21.15,0,0,1-2.83-.57,12.41,12.41,0,0,1-2.58-.86,10,10,0,0,1-2.17-1.09,8.45,8.45,0,0,1-1.66-1.2,9.81,9.81,0,0,1-1.12-1.1,5.58,5.58,0,0,1-.6-.82A2.82,2.82,0,0,1,72.21,136.5Z"/><path class="cls-8" d="M57.5,151.37s.89.25,2.44.58c.78.15,1.71.39,2.81.54s2.32.39,3.67.54,2.8.41,4.36.51l4.87.39,5.22.25c1.78.09,3.59.06,5.4.09l2.71.06,2.68-.06c1.79-.06,3.57,0,5.26-.1s3.32-.18,4.87-.24l4.35-.43,3.65-.56c1.07-.24,2-.43,2.77-.66a13.84,13.84,0,0,0,1.73-.61,2.89,2.89,0,0,0,.59-.3,9,9,0,0,1-2.18,1.27c-.74.32-1.67.63-2.73,1s-2.29.67-3.65.94l-4.38.76c-1.57.18-3.23.39-5,.54s-3.47.21-5.27.28l-2.72.09-2.75,0c-1.83,0-3.66,0-5.47-.16l-5.28-.43c-1.71-.16-3.35-.46-4.91-.69s-3-.58-4.36-.83a36.84,36.84,0,0,1-3.64-.93c-1.08-.28-2-.63-2.76-.87s-1.33-.53-1.73-.68Z"/><path class="cls-8" d="M73.62,163.31l4,.1,4,.05c.73,0,1.49,0,2.25,0s1.55,0,2.33,0H88.5c.77,0,1.52,0,2.26-.08s1.44,0,2.12,0,1.31,0,1.9-.06c2.35-.09,4,0,4,0s-1.51.54-3.85,1.1a15.66,15.66,0,0,1-1.89.4c-.68.1-1.4.21-2.14.29s-1.52.19-2.3.24l-2.39.06a39.75,39.75,0,0,1-4.69-.22,35.19,35.19,0,0,1-4.06-.66,27.06,27.06,0,0,1-2.79-.8C74,163.48,73.62,163.31,73.62,163.31Z"/></g></g></svg>