<?xml version="1.0" standalone="no"?><!DOCTYPE svg PUBLIC "-//W3C//DTD SVG 1.1//EN" "http://www.w3.org/Graphics/SVG/1.1/DTD/svg11.dtd"><svg t="1548410993169" class="icon" style="" viewBox="0 0 1024 1024" version="1.1" xmlns="http://www.w3.org/2000/svg" p-id="2463" xmlns:xlink="http://www.w3.org/1999/xlink" width="200" height="200"><defs><style type="text/css"></style></defs><path d="M405.16736 328.7488H197.05984c-9.3376 0-16.92288-7.40096-16.92288-16.52224s7.58528-16.52224 16.92288-16.52224h208.10752c9.3504 0 16.91136 7.40096 16.91136 16.52224s-7.56096 16.52224-16.91136 16.52224z m368.16256 175.67104c131.03104 0 237.63328 104.03584 237.63328 231.92832 0 127.91552-106.60224 231.95136-237.63328 231.95136s-237.63456-104.03584-237.63456-231.95136c0-127.89248 106.60352-231.92832 237.63456-231.92832z m0 430.85952c112.51456-0.13696 203.6736-89.11872 203.81184-198.92992 0-109.83552-91.24992-198.88512-203.81184-198.88512-112.53888 0-203.76576 89.0496-203.76576 198.90688s91.20384 198.90816 203.76576 198.90816zM425.01248 652.40832c9.25824 0.09088 16.70528 7.47008 16.61312 16.4992a17.13536 17.13536 0 0 1-0.38912 3.41504v0.32c-1.696 7.47136-8.47872 12.81024-16.36224 12.81024H197.11744c-9.34912 0.02432-16.9344-7.35488-16.95744-16.47616 0-0.38912 0.01152-0.75648 0.03456-1.1456 0.81408-8.8 8.4224-15.5136 17.47328-15.42272h227.34464z m85.888-153.55648c9.21216-0.02304 16.72832 7.28704 16.72832 16.31616 0 4.33152-1.76512 8.47872-4.90368 11.54816l-0.34432 0.34432a16.84224 16.84224 0 0 1-11.84768 4.78976H197.11744c-9.34912 0.02304-16.9344-7.33312-16.95744-16.45312 0-0.3904 0.01152-0.75648 0.03456-1.14688 0.81408-8.79872 8.4224-15.5136 17.47328-15.3984h313.23264z m-5.91232 436.38016a16.86656 16.86656 0 0 1 12.09984 5.01888l0.36608 0.34432a16.0896 16.0896 0 0 1-0.45696 23.09888 17.05088 17.05088 0 0 1-11.6416 4.56064H116.55808c-37.376 0-67.66976-29.5616-67.68128-66.04288V189.60512c0-36.48128 30.30528-66.06592 67.68128-66.06592h606.01344c37.37472 0 67.66976 29.58336 67.66976 66.06592v199.52512c-0.04608 8.98304-7.49312 16.224-16.68224 16.20224h-0.3904c-9.18912 0.04608-16.70528-7.15008-16.75136-16.13312V189.60512c0-18.24-15.14752-33.04448-33.82272-33.04448H116.55808c-18.688 0-33.84576 14.78016-33.84576 32.9984V902.21056c0 18.24128 15.14624 33.02144 33.83552 33.02144h388.44032z m363.76192-269.50912c11.34336 12.41984 17.5296 28.52992 17.3696 45.16608 0.04608 11.22816-2.74944 22.2976-8.11264 32.24192-0.5952 1.37472-7.3792 14.02496-22.59456 33.34272-22.3424 27.91168-48.12288 53.00352-76.76672 74.74944a5.7536 5.7536 0 0 1-3.52896 1.19296h-0.16128a5.8624 5.8624 0 0 1-3.50592-1.16864c-28.64384-21.7472-54.42432-46.86208-76.76672-74.77376-15.21664-19.27296-21.9072-31.968-22.64064-33.36448-5.36192-9.92256-8.15744-21.01376-8.11264-32.22016-0.18304-16.6592 6.00448-32.81536 17.3696-45.25696 10.7712-11.98464 26.2848-18.90688 42.624-18.97472 12.74112 0.02432 25.11488 4.2624 35.03744 12.05376a62.15808 62.15808 0 0 1 16.064 18.4256 62.11328 62.11328 0 0 1 16.04096-18.4256c9.9456-7.79136 22.32064-12.02944 35.06176-12.05376 16.3392 0.09088 31.8528 7.05792 42.62272 19.0656z" fill="#231815" p-id="2464"></path></svg>