<svg xmlns="http://www.w3.org/2000/svg" viewBox="0 0 206.16 260"><defs><style>.cls-1{fill:#e0605c;}.cls-2{fill:#d14e4e;}.cls-3{fill:#231e1b;}.cls-4{fill:#ce6a65;}.cls-5{fill:#f9dab4;}.cls-6{fill:#f9f7f2;}.cls-7{fill:#f7cea6;}.cls-8{fill:#e5be9e;}.cls-9{fill:#3a332d;}.cls-10{fill:#e8dfd9;}.cls-11{fill:#472b18;}.cls-12{fill:#fff;}.cls-13{fill:#2d2723;}.cls-14{fill:#f4c7a2;}</style></defs><title>资源 42</title><g id="图层_2" data-name="图层 2"><g id="Layer_1" data-name="Layer 1"><path class="cls-1" d="M49.74,200.77c-3.56,22.72-8,47.73-10.05,59.23H64.12c1.92-23,6.68-83.79,3.62-87.46C67.74,172.54,54.56,170,49.74,200.77Z"/><path class="cls-2" d="M54.51,183.54c2.05,1.63,6.27,6.63,5.08,19.52-1.12,12.12-4.15,41.47-5.75,56.94H64.12c1.92-23,6.68-83.79,3.62-87.46C67.74,172.54,60.26,171.12,54.51,183.54Z"/><path class="cls-1" d="M155.17,200.08c-4.5-30.78-17.71-28.41-17.71-28.41-3.13,3.69,1.14,66,2.77,88.33H164.7C162.8,248.76,158.56,223.23,155.17,200.08Z"/><path class="cls-2" d="M150.58,182.81c-5.62-12.48-13.12-11.14-13.12-11.14-3.13,3.69,1.14,66,2.77,88.33h10.29c-1.42-15.27-4.21-45.4-5.22-57.73C144.24,189.37,148.52,184.42,150.58,182.81Z"/><path class="cls-1" d="M139.11,171.46a176.09,176.09,0,0,0-39.7-4c-5.53,0-11.1-.24-16.59.58-1.87.28-18.4,3.67-18.38,5,0,0,.76,69.71.78,87h76.05Z"/><path class="cls-2" d="M80.68,170s17,8.26,43.23,0c.72-.23.76-4.45.77-5a11.49,11.49,0,0,0-.61-4c-.4-1.09-1.23-2.55-2.67-2.82-2.19-.41-5.22,1-7.4,1.28-5.33.7-10.66,1.15-16,1.38-2.93.13-5.88.09-8.81,0-2-.06-5.18-1.07-7-.25-1.41.65-1.36,2.55-1.6,3.72A14.17,14.17,0,0,0,80.68,170Z"/><path class="cls-3" d="M42.67,38.5S23.21,12.93,5.21,36.93C-12.66,60.76,20.08,81,33.64,67.19S42.67,38.5,42.67,38.5Z"/><polygon class="cls-4" points="25.62 77.01 25.62 110.92 31.38 110.92 31.38 83.45 25.62 77.01"/><path class="cls-1" d="M22.86,70.93s.35,9.56-2.08,14.78S15,106.92,15.73,113.88h6s-.5-13,6.8-33.65S22.86,70.93,22.86,70.93Z"/><path class="cls-4" d="M22.79,75.39c2.62.73,3.74,4.72,4.45,8.56.4-1.21.81-2.45,1.26-3.72,7.3-20.69-5.64-9.3-5.64-9.3S22.93,72.83,22.79,75.39Z"/><path class="cls-1" d="M33.64,58.06S20.4,56.31,19.38,63.8s6.24,3,6.24,3-9.71,4.44-4.67,7,9.23-3.93,9.23-3.93Z"/><path class="cls-3" d="M163.49,38.5S183,12.93,201,36.93C218.82,60.76,186.08,81,172.52,67.19S163.49,38.5,163.49,38.5Z"/><polygon class="cls-4" points="180.54 77.01 180.54 110.92 174.78 110.92 174.78 83.45 180.54 77.01"/><path class="cls-1" d="M183.3,70.93s-.35,9.56,2.09,14.78,5.73,21.21,5,28.17h-6s.5-13-6.8-33.65S183.3,70.93,183.3,70.93Z"/><path class="cls-4" d="M183.37,75.39c-2.62.73-3.74,4.72-4.45,8.56-.4-1.21-.81-2.45-1.26-3.72-7.31-20.69,5.64-9.3,5.64-9.3S183.23,72.83,183.37,75.39Z"/><path class="cls-1" d="M172.52,58.06s13.24-1.75,14.26,5.74-6.24,3-6.24,3,9.71,4.44,4.67,7S176,69.78,176,69.78Z"/><path class="cls-5" d="M166.6,54.47,41.36,54.32S42,83.73,40.28,97.38c-1,7.83-.44,14.61-.64,17.69-1.85,28.26,28.09,51.47,63.14,51.69s63.63-22.55,63.81-50.87a79.06,79.06,0,0,0-.44-9.38c-.24-2.39-.24-5-.38-7.93C165.2,85.84,166.6,54.47,166.6,54.47Z"/><path class="cls-6" d="M63.86,128.87a1.16,1.16,0,0,1-1.19,1.1l-3.87-.14a1.15,1.15,0,0,1-1.1-1.19h0a1.14,1.14,0,0,1,1.19-1.11l3.86.14a1.16,1.16,0,0,1,1.11,1.2Z"/><path class="cls-6" d="M147.11,129.41a1.16,1.16,0,0,1-1.19,1.1l-3.87-.15a1.14,1.14,0,0,1-1.1-1.19h0a1.14,1.14,0,0,1,1.19-1.1l3.86.14a1.15,1.15,0,0,1,1.11,1.2Z"/><path class="cls-5" d="M158.48,134.13a21,21,0,0,0,17.71-.24c9.29-4.54,13.88-23.2,1.83-27.67s-15.75,9.38-15.75,9.38Z"/><path class="cls-7" d="M164.08,128.45s3.83-20.45,12.77-13.38c5.49,4.33,2.23,10.39-2.87,12.88C170.78,129.51,166.63,129.64,164.08,128.45Z"/><path class="cls-8" d="M164.19,128.22l1.33-5.16s17-4.85,12.23,2S164.19,128.22,164.19,128.22Z"/><path class="cls-5" d="M46.48,133a21,21,0,0,1-17.7-.46c-9.24-4.66-13.58-23.38-1.48-27.69s15.63,9.58,15.63,9.58Z"/><path class="cls-7" d="M41,127.2s-3.56-20.49-12.59-13.54c-5.54,4.26-2.36,10.37,2.7,12.91C34.24,128.17,38.39,128.36,41,127.2Z"/><path class="cls-8" d="M40.85,127l-1.26-5.17s-16.94-5.07-12.26,1.81S40.85,127,40.85,127Z"/><path class="cls-9" d="M76.7,111.35a7.14,7.14,0,1,1-7.14-7.13A7.14,7.14,0,0,1,76.7,111.35Z"/><path class="cls-10" d="M70.74,106.38c.18.86-.89,1.81-2.37,2.11s-2.84-.16-3-1,.89-1.8,2.38-2.1S70.57,105.52,70.74,106.38Z"/><path class="cls-9" d="M142.74,111.35a7.14,7.14,0,1,1-7.13-7.13A7.13,7.13,0,0,1,142.74,111.35Z"/><path class="cls-10" d="M136.78,106.38c.18.86-.89,1.81-2.37,2.11s-2.84-.16-3-1,.9-1.8,2.39-2.1S136.61,105.52,136.78,106.38Z"/><path class="cls-11" d="M144.07,108.15a10.24,10.24,0,1,1-14.2-2.86A10.23,10.23,0,0,1,144.07,108.15Z"/><path class="cls-12" d="M137.12,105.75c1,1.53-.32,4.2-3,6s-5.64,2-6.65.43.31-4.2,3-6S136.1,104.22,137.12,105.75Z"/><path class="cls-11" d="M79.27,105.8a10.24,10.24,0,1,1-14.2-2.86A10.24,10.24,0,0,1,79.27,105.8Z"/><path class="cls-12" d="M72.32,103.4c1,1.53-.31,4.2-3,6s-5.64,2-6.66.44.32-4.21,3-6S71.3,101.87,72.32,103.4Z"/><path class="cls-13" d="M111.34.5a48.33,48.33,0,0,0-8.26-.5,48.54,48.54,0,0,0-8.27.5C58,6.07,21.43,24.5,26.65,77.71s34.78,85.2,34.78,85.2C44,101.7,50,69,50,69A36.76,36.76,0,0,0,69.08,97.88,22.84,22.84,0,0,1,64.66,85c14,15.27,38.5,19.13,38.5,19.13S127.47,100.28,141.5,85a22.84,22.84,0,0,1-4.42,12.87A36.76,36.76,0,0,0,156.21,69s5.91,32.69-11.48,93.9c0,0,29.56-32,34.78-85.2S148.21,6.07,111.34.5Z"/><path class="cls-14" d="M93.46,131.8a1.24,1.24,0,0,1-.67-2.28,19,19,0,0,1,21.11.06,1.23,1.23,0,1,1-1.49,2c-.35-.26-8.45-6.19-18.29.06A1.27,1.27,0,0,1,93.46,131.8Z"/><path class="cls-14" d="M102.92,151.35c-15,0-24.57-3-25-3.15a1.23,1.23,0,1,1,.75-2.35c.1,0,9.66,3,24.22,3a92.22,92.22,0,0,0,24.55-3,1.23,1.23,0,0,1,1.54.81,1.24,1.24,0,0,1-.81,1.55C127.78,148.33,117.9,151.35,102.92,151.35Z"/></g></g></svg>