<svg xmlns="http://www.w3.org/2000/svg" viewBox="0 0 182 260"><defs><style>.cls-1{fill:#f4efed;}.cls-2{fill:#d19865;}.cls-3{fill:#e2dcd9;}.cls-4{fill:#4d9980;}.cls-5{fill:#61aa90;}.cls-6{fill:#42896f;}.cls-7{fill:#c6c2c1;}.cls-8{fill:#f4d3b0;}.cls-9{fill:#f9dab4;}.cls-10{fill:#492020;}.cls-11{fill:#c65044;}.cls-12{fill:#efc4a0;}.cls-13{fill:#3a332d;}.cls-14{fill:#e8dfd9;}</style></defs><title>资源 64</title><g id="图层_2" data-name="图层 2"><g id="Layer_1" data-name="Layer 1"><rect class="cls-1" x="63.53" y="155.92" width="58.17" height="104.08"/><rect class="cls-2" x="87.5" y="160.17" width="9.89" height="11.57" rx="2.23"/><polygon class="cls-2" points="89.44 170.62 78.57 241.75 92.8 252.05 106.55 241.34 95.19 170.62 89.44 170.62"/><polygon class="cls-3" points="65.59 157.42 68.47 181.36 92.46 165.95 116.77 181.36 118.17 157.32 65.59 157.42"/><path class="cls-4" d="M111.29,153.15,108.49,243a64.48,64.48,0,0,0,2.22,17h48.35c4.32-8.3,7.78-16.38,7.78-20.19,0-9,.66.33-17.47-46.39S111.29,153.15,111.29,153.15Z"/><path class="cls-5" d="M127,158.12c-9.08-7.11-15.69-5-15.69-5l-1.63,52.41C129.41,199.69,127,158.12,127,158.12Z"/><path class="cls-6" d="M134.92,210.07c.32,12.73,2.7,33.49,4.82,49.93h4.62Z"/><path class="cls-4" d="M73.24,153.15,76.05,243a64.89,64.89,0,0,1-2.23,17H25.47c-4.32-8.3-7.78-16.38-7.78-20.19,0-9-.66.33,17.48-46.39S73.24,153.15,73.24,153.15Z"/><path class="cls-5" d="M57.56,158.12c9.07-7.11,15.68-5,15.68-5l1.64,52.41C55.12,199.69,57.56,158.12,57.56,158.12Z"/><path class="cls-6" d="M49.62,210.07c-.33,12.73-2.7,33.49-4.82,49.93H40.17Z"/><path class="cls-7" d="M8.57,86.83S-7.61,0,90.77,0s82.34,86.83,82.34,86.83L90.83,107.24Z"/><path class="cls-8" d="M27,93.08S17.8,75.89,5.41,84.64C-10.74,96,12.7,134,30.93,127.42Z"/><path class="cls-8" d="M155,93.08s9.24-17.19,21.63-8.44C192.75,96,169.3,134,151.07,127.42Z"/><path class="cls-9" d="M129.8,156.15l-14.68,4.34a86,86,0,0,1-48.7,0l-14.69-4.34a40.69,40.69,0,0,1-29.16-39V57.88L75.35,71.94a59.9,59.9,0,0,0,30.83,0L159,57.88v59.25A40.69,40.69,0,0,1,129.8,156.15Z"/><path class="cls-10" d="M79.79,147.11s20.47,1.26,34.4-5.22c9.7-4.51,8.94,8.76,2.3,13S94.36,160.59,89,159.54C88.7,155.25,86.92,150.38,79.79,147.11Z"/><path class="cls-11" d="M117.53,154.09c-2.38-2.6-6.45-4.31-11.08-4.31-7.35,0-13.3,4.32-13.3,9.66,0,.14,0,.28,0,.42,6.9,0,17.94-1.56,23.33-5A7.84,7.84,0,0,0,117.53,154.09Z"/><path class="cls-12" d="M84.08,131.76s3-8.46,11.31-8.46,12.06,9.55,12.06,9.55-5.8-5.76-12.06-5.76S84.08,131.76,84.08,131.76Z"/><circle class="cls-13" cx="55.42" cy="106.07" r="7.99" transform="translate(-16.27 10.25) rotate(-9.22)"/><path class="cls-14" d="M53,100.82c-.23,1.14,1.18,2.39,3.16,2.79s3.76-.21,4-1.35S59,99.87,57,99.47,53.22,99.67,53,100.82Z"/><polygon class="cls-7" points="35.99 86.52 35.38 94.13 72.97 89.46 70.02 81.11 35.99 86.52"/><circle class="cls-13" cx="127.75" cy="106.07" r="7.99" transform="translate(-20.95 32.19) rotate(-13.28)"/><path class="cls-14" d="M125.33,100.82c-.23,1.14,1.18,2.39,3.15,2.79s3.77-.21,4-1.35-1.19-2.39-3.16-2.79S125.56,99.67,125.33,100.82Z"/><polygon class="cls-7" points="147.17 86.52 147.79 94.13 110.2 89.46 113.14 81.11 147.17 86.52"/></g></g></svg>