<?xml version="1.0" standalone="no"?><!DOCTYPE svg PUBLIC "-//W3C//DTD SVG 1.1//EN" "http://www.w3.org/Graphics/SVG/1.1/DTD/svg11.dtd"><svg t="1549023479413" class="icon" style="" viewBox="0 0 1024 1024" version="1.1" xmlns="http://www.w3.org/2000/svg" p-id="22084" xmlns:xlink="http://www.w3.org/1999/xlink" width="200" height="200"><defs><style type="text/css"></style></defs><path d="M335.130428 12.439056l590.881088 136.412719-198.953085 861.761678-590.875104-136.414714L335.130428 12.439056z m0 0" fill="#FCE0D2" p-id="22085"></path><path d="M227.95328 69.237628h606.41794v884.428646H227.95328z" fill="#FFFFFF" p-id="22086"></path><path d="M227.888452 359.326347h606.418937v594.339927H227.888452z" fill="#FCE0D2" p-id="22087"></path><path d="M449.482573 218.192132l-44.723552 44.72455-44.155058-44.72455c-20.120712 20.213466-24.181956 51.404857-9.911749 76.095466 14.271204 24.690608 43.325256 36.742689 70.886262 29.40213 27.558014-7.341556 46.762153-32.253578 46.854907-60.774044a63.678352 63.678352 0 0 0-18.95081-44.723552z m0 0" fill="#FDD68E" p-id="22088"></path><path d="M893.117634 121.732599l-39.795604-8.337918v-6.062942a56.857417 56.857417 0 0 0-16.649904-40.201529 56.87138 56.87138 0 0 0-40.203523-16.651899h-212.626871L376.712301 2.34479a56.844451 56.844451 0 0 0-68.602311 42.825579l-1.133997 5.118444h-41.124085c-31.397845 0-56.853427 25.450596-56.853427 56.853427v367.452825L126.375303 833.52147a56.856419 56.856419 0 0 0 42.827574 68.410819l39.794606 9.281418v5.119442a56.843454 56.843454 0 0 0 16.655888 40.197539 56.840462 56.840462 0 0 0 40.197539 16.656886h214.519858l2.087472 0.940509 203.150967 47.003514a56.874372 56.874372 0 0 0 43.243472-7.092217 56.872377 56.872377 0 0 0 25.357842-35.741341l1.133996-5.110465h41.123088a56.863401 56.863401 0 0 0 40.203524-16.656886 56.85243 56.85243 0 0 0 16.649904-40.197539V548.121335l82.623177-357.976921a56.854425 56.854425 0 0 0-42.826576-68.411815zM208.997483 871.418104l-31.267191-7.38943a18.941834 18.941834 0 0 1-14.399862-22.928276l45.667053-197.088025v227.405731zM368.181893 39.298919l47.192015 10.989894h-68.792806a18.948815 18.948815 0 0 1 21.600791-10.989894z m325.955727 944.118561l-46.996533-10.991888h68.59533a18.945823 18.945823 0 0 1-21.598797 10.991888z m121.279798-68.034814c0 5.027684-1.995714 9.846921-5.547308 13.403502a18.971754 18.971754 0 0 1-13.402505 5.546311H265.85091a18.952805 18.952805 0 0 1-13.397517-5.546311 18.953802 18.953802 0 0 1-5.551298-13.403502v-808.04993c0-10.47027 8.484529-18.954799 18.948815-18.954799h530.616695c10.469273 0 18.949813 8.485527 18.949813 18.954799v808.04993z m83.571666-733.765667l-45.668051 198.032523V151.297299l31.268188 7.200928a18.953802 18.953802 0 0 1 12.101948 8.506471 18.932858 18.932858 0 0 1 2.297915 14.612301z m0 0" fill="#F57324" p-id="22089"></path><path d="M556.362509 451.471306h81.301677c10.463289 0 18.943828-8.486524 18.943829-18.949812 0-10.464286-8.48054-18.949813-18.943829-18.949813h-81.301677c-10.463289 0-18.942831 8.484529-18.942831 18.949813 0 10.464286 8.479542 18.949813 18.942831 18.949812zM556.362509 527.464044h155.963939c10.464286 0 18.949813-8.486524 18.949813-18.95081s-8.485527-18.949813-18.949813-18.949812H556.362509c-10.463289 0-18.942831 8.484529-18.942831 18.949812s8.479542 18.95081 18.942831 18.95081zM550.04125 697.145653h81.299683c10.464286 0 18.943828-8.487521 18.943828-18.95081 0-10.464286-8.479542-18.948815-18.943828-18.948815h-81.299683c-10.464286 0-18.943828 8.484529-18.943828 18.948815 0 10.463289 8.479542 18.95081 18.943828 18.95081zM550.04125 773.138391h155.963939c10.464286 0 18.948815-8.486524 18.948816-18.95081 0-10.463289-8.484529-18.949813-18.948816-18.949812H550.04125c-10.464286 0-18.943828 8.486524-18.943828 18.949812 0 10.464286 8.479542 18.95081 18.943828 18.95081zM556.362509 243.961882h81.301677c10.463289 0 18.943828-8.484529 18.943829-18.948815 0-10.465283-8.48054-18.949813-18.943829-18.949813h-81.301677c-10.463289 0-18.942831 8.485527-18.942831 18.949813s8.479542 18.948815 18.942831 18.948815zM556.362509 319.764125h155.963939c10.469273 0 18.949813-8.484529 18.949813-18.948816s-8.48054-18.949813-18.949813-18.949812H556.362509c-10.463289 0-18.947818 8.485527-18.947818 18.949812s8.484529 18.948815 18.947818 18.948816z" fill="#F57324" p-id="22090"></path><path d="M336.646413 705.705982a63.513788 59.103468 0 1 0 127.027575 0 63.513788 59.103468 0 1 0-127.027575 0Z" fill="#79DEB4" p-id="22091"></path><path d="M341.81273 472.256259a63.514785 59.102471 0 1 0 127.02957 0 63.514785 59.102471 0 1 0-127.02957 0Z" fill="#79DEB4" p-id="22092"></path><path d="M404.759021 344.96937c45.346902 0 82.138461-36.705787 82.247174-82.053686a81.329604 81.329604 0 0 0-12.696375-43.022059l34.488659-34.298163c7.432316-7.433313 7.432316-19.480407 0-26.908734-7.428327-7.432316-19.476418-7.432316-26.908734 0l-77.320222 77.315236-43.016075-43.017072c-7.391424-7.346543-19.329806-7.346543-26.718238 0-7.346543 7.391424-7.346543 19.328809 0 26.719235a81.078269 81.078269 0 0 0-12.129875 43.211557c-0.000997 45.316981 36.737702 82.053686 82.053686 82.053686z m-41.499092-96.837532l28.237215 28.237216a18.939839 18.939839 0 0 0 13.261877 5.496443 18.954799 18.954799 0 0 0 12.697372-5.496443l28.238213-28.237216a48.350946 48.350946 0 0 1 2.649981 14.783846c-1.522967 23.314254-20.879701 41.444238-44.246815 41.444238-23.368111 0-42.723849-18.129984-44.247812-41.444238a43.43696 43.43696 0 0 1 3.409969-14.783846z m41.499092 304.536455c33.284847 0.077794 63.331271-19.914258 76.121397-50.637889 12.791124-30.726622 5.801635-66.136841-17.707104-89.69445-23.508739-23.562596-58.897015-30.632871-89.653558-17.913557-30.754549 12.71333-50.814421 42.719859-50.814421 76.003709 0.102728 45.305013 36.748673 82.036731 82.053686 82.242187z m0-126.397245a44.343559 44.343559 0 0 1 41.123088 27.281746 44.355527 44.355527 0 0 1-9.574642 48.416771 44.357522 44.357522 0 0 1-48.416771 9.574642c-16.585075-6.911695-27.364527-23.151684-27.28773-41.119098 0.102728-24.34253 19.810533-44.051333 44.156055-44.154061z m0.376004 365.130973c33.28385 0.077794 63.330274-19.914258 76.1204-50.637889 12.791124-30.725625 5.801635-66.136841-17.707104-89.694449-23.508739-23.561599-58.897015-30.632871-89.654555-17.913557-30.753551 12.71333-50.814421 42.719859-50.814421 76.003709 0.103725 45.305013 36.749671 82.036731 82.05568 82.242186z m0-126.396247a44.344556 44.344556 0 0 1 41.123088 27.281746 44.356525 44.356525 0 0 1-9.574642 48.416771 44.362509 44.362509 0 0 1-48.416771 9.575639c-16.585075-6.91369-27.364527-23.152682-27.28773-41.120095 0.101731-24.343528 19.810533-44.05233 44.156055-44.154061z m-0.376004-238.734726" fill="#F57324" p-id="22093"></path></svg>