<svg xmlns="http://www.w3.org/2000/svg" viewBox="0 0 170.05 268.25"><defs><style>.cls-1{fill:#f9dab4;}.cls-2{fill:#f7cea6;}.cls-3{fill:#3b8d93;}.cls-4{fill:#5c9ea0;}.cls-5{fill:#f9f7f2;}.cls-6{fill:#e5be9e;}.cls-7{fill:#f4c7a2;}.cls-8{fill:#9d7657;}.cls-9{fill:#3b3d3d;}.cls-10{fill:#fff;}.cls-11{fill:#ad3936;}.cls-12{fill:#e0605c;}.cls-13{fill:#896150;}.cls-14{fill:#8c6753;}</style></defs><title>资源 23</title><g id="图层_2" data-name="图层 2"><g id="Layer_1" data-name="Layer 1"><path class="cls-1" d="M154.48,268.25H135.55l-5.93-57.62h19.14S152.26,247.4,154.48,268.25Z"/><path class="cls-2" d="M150.37,227.32h0s-9.29-3.91-14.29-3.21-2.52,9.84-1.45,20.56c.51,5.12,1.17,14.82,1.72,23.58h-.8l-5.93-57.62h19.14S149.43,217.66,150.37,227.32Z"/><path class="cls-3" d="M119.33,166.48s33.53,14.69,37.94,56.92H115.78V166.48Z"/><path class="cls-4" d="M139.65,220.64s10.62-.27,11.94-8.22-14.15-31.8-20.39-35.11-9-3.1-7.61,5.52,5,34,5,37.26C132.12,221.74,139.65,220.64,139.65,220.64Z"/><path class="cls-1" d="M12.29,268.25H31.22l5.94-57.62H18S14.52,247.4,12.29,268.25Z"/><path class="cls-2" d="M16.41,227.32h0s9.29-3.91,14.29-3.21,2.51,9.84,1.44,20.56c-.51,5.12-1.16,14.82-1.71,23.58h.79l5.94-57.62H18S17.35,217.66,16.41,227.32Z"/><path class="cls-3" d="M47.45,166.48S13.91,181.17,9.51,223.4H51V166.48Z"/><path class="cls-4" d="M27.13,220.64s-10.62-.27-11.94-8.22,14.14-31.8,20.39-35.11,9-3.1,7.61,5.52-5,34-5,37.26C34.66,221.74,27.13,220.64,27.13,220.64Z"/><path class="cls-3" d="M118.56,159c-52.51,0-69.76.37-69.76.37S36.05,223.41,36.59,268.25h93.26C129.47,245,127.61,190.63,118.56,159Z"/><path class="cls-4" d="M55,167a149,149,0,0,0-11.57,41.68C41.29,226,37,254,42.65,268.25h83.29c1.52-7.22,1.52-17.11,1.52-23.19,0-10.46-4.45-70.64-12.57-78.76C83.77,148.4,55,167,55,167Z"/><polygon class="cls-3" points="85.66 198.97 61.1 180.97 71.66 165.36 99.66 165.36 110.22 180.97 85.66 198.97"/><polygon class="cls-2" points="68.19 172.54 85.66 198.97 103.13 172.54 68.19 172.54"/><path class="cls-1" d="M150.84,60.39,22.07,60.24s.64,30.24-1.11,44.27c-1,8.06-.44,15-.65,18.19-1.91,29.06,28.88,52.92,64.92,53.15s65.41-23.19,65.6-52.31a79.77,79.77,0,0,0-.45-9.64c-.25-2.46-.25-5.13-.39-8.15C149.4,92.65,150.84,60.39,150.84,60.39Z"/><path class="cls-5" d="M45.2,136.89A1.17,1.17,0,0,1,44,138l-4-.15a1.18,1.18,0,0,1-1.14-1.22h0a1.19,1.19,0,0,1,1.22-1.14l4,.15a1.17,1.17,0,0,1,1.13,1.23Z"/><path class="cls-5" d="M130.8,137.44a1.18,1.18,0,0,1-1.22,1.13l-4-.15a1.17,1.17,0,0,1-1.13-1.22h0a1.18,1.18,0,0,1,1.22-1.14l4,.15a1.18,1.18,0,0,1,1.13,1.23Z"/><path class="cls-1" d="M142.49,142.29a21.63,21.63,0,0,0,18.21-.24c9.56-4.67,14.27-23.86,1.89-28.45s-16.2,9.65-16.2,9.65Z"/><path class="cls-2" d="M148.25,136.46s3.93-21,13.13-13.76c5.64,4.45,2.29,10.69-2.95,13.24C155.14,137.54,150.87,137.68,148.25,136.46Z"/><path class="cls-6" d="M148.37,136.22l1.36-5.3s17.48-5,12.57,2S148.37,136.22,148.37,136.22Z"/><path class="cls-1" d="M27.34,141.09a21.64,21.64,0,0,1-18.2-.48c-9.5-4.8-14-24-1.52-28.47S23.69,122,23.69,122Z"/><path class="cls-2" d="M21.66,135.18S18,114.11,8.71,121.25c-5.7,4.38-2.43,10.66,2.77,13.28C14.75,136.17,19,136.37,21.66,135.18Z"/><path class="cls-6" d="M21.55,134.93l-1.3-5.31s-17.41-5.21-12.6,1.86S21.55,134.93,21.55,134.93Z"/><path class="cls-7" d="M86,135.33A19.75,19.75,0,0,1,75,132a1.27,1.27,0,0,1,1.54-2c.36.27,8.69,6.37,18.81-.06A1.27,1.27,0,0,1,96.74,132,19.9,19.9,0,0,1,86,135.33Z"/><path class="cls-8" d="M108.72,99.33s4.08-1.82,11-1.5c6.73.3,12.35,3.36,12.64,1.91.51-2.59-3.07-7-8.64-9.07-5.23-1.91-9.9-.28-13.48,2.37S105.12,100.31,108.72,99.33Z"/><path class="cls-8" d="M64.08,99.33S60,97.51,53,97.83c-6.73.3-12.35,3.36-12.64,1.91-.51-2.59,3.07-7,8.63-9.07,5.24-1.91,9.91-.28,13.49,2.37S67.68,100.31,64.08,99.33Z"/><path class="cls-9" d="M128.54,112.21a10.53,10.53,0,1,1-14.6-2.94A10.53,10.53,0,0,1,128.54,112.21Z"/><path class="cls-10" d="M121.4,109.74c1,1.58-.33,4.32-3.06,6.14s-5.8,2-6.85.44.33-4.31,3.06-6.13S120.35,108.17,121.4,109.74Z"/><path class="cls-9" d="M61.92,109.8a10.53,10.53,0,1,1-14.6-2.94A10.53,10.53,0,0,1,61.92,109.8Z"/><path class="cls-10" d="M54.77,107.33c1,1.57-.32,4.32-3.05,6.14s-5.8,2-6.85.44.33-4.32,3.06-6.13S53.73,105.76,54.77,107.33Z"/><path class="cls-11" d="M49.7,142.92q35.11,10,71.67,0s-7.08,25.7-35.77,25.7S49.7,142.92,49.7,142.92Z"/><path class="cls-12" d="M85.6,168.57c9.3,0,16.31-2.7,21.57-6.35-6.1-4-14.82-7.58-21.62-7.58a34.18,34.18,0,0,0-21.36,7.72h0C69.44,165.94,76.41,168.57,85.6,168.57Z"/><path class="cls-13" d="M157.58,61.58,147.12,66c-.09,8.61,1.31,41.25,3.44,49.88l5.47-3a137.61,137.61,0,0,0,2.68-25.15C158.75,79.05,157.87,66.45,157.58,61.58Z"/><path class="cls-14" d="M165.79,25.34c-1.46-7-14.53-22.91-30.66-25.21-4.91-.7-13,1.33-11.64,8.61,0,0,3.61-4.73,7.49,2.34,2.78,5.07-1.09,11-1.09,11S115.24,8.86,83.35,9C44.86,9.25,26.17,26.5,26.17,26.5s-7-.46-19.36,6.59c0,0,4.57,17.32,5.65,50.15.67,20.16,2,28.31,2,28.31l5.84,3.87c2.53-20.76,4.46-48.17,4.46-48.17S41.12,82.43,87.89,81.12c43.21-1.2,57.37-9.24,63.62-12.44S171.87,54.53,165.79,25.34Z"/></g></g></svg>