<svg xmlns="http://www.w3.org/2000/svg" viewBox="0 0 171.72 260.02"><defs><style>.cls-1{fill:#f4efed;}.cls-2{fill:#3a332d;}.cls-3{fill:#e2dcd9;}.cls-4{fill:#3f3e3d;}.cls-5{fill:#302f2d;}.cls-6{fill:#515151;}.cls-7{fill:#f4d3b0;}.cls-8{fill:#f9dab4;}.cls-9{fill:#efc4a0;}.cls-10{fill:#e8dfd9;}</style></defs><title>资源 95</title><g id="图层_2" data-name="图层 2"><g id="Layer_1" data-name="Layer 1"><rect class="cls-1" x="59.55" y="153.55" width="57.28" height="106.47"/><path class="cls-2" d="M90.44,169.75H85.26a2.07,2.07,0,0,1-2.13-2v-6.42a2.08,2.08,0,0,1,2.13-2h5.18a2.09,2.09,0,0,1,2.14,2v6.42A2.08,2.08,0,0,1,90.44,169.75Z"/><polygon class="cls-2" points="84.99 168.74 80.09 233.07 88.19 242.38 95.84 232.7 90.48 168.74 84.99 168.74"/><polygon class="cls-3" points="62.46 156.81 70.71 178.46 88.14 164.52 105.88 178.46 112.73 156.71 62.46 156.81"/><path class="cls-4" d="M72.07,200.38c-2.66-3.9-17.4-20.25-6.28-44.4,0,0-31.28-.5-36.27,29.84C25.3,211.47,25.77,249,26,260H82.61c2.25-6.87,3.17-15.25,1.92-25.47C81.1,206.57,74.74,204.28,72.07,200.38Z"/><path class="cls-5" d="M40.94,260h3.8c-.07-10.67-.19-45.74,1.17-58.56C45.91,201.46,41.06,221.4,40.94,260Z"/><path class="cls-6" d="M72.07,200.38c-2.49-3.66-15.6-18.25-8.08-39.95l-.67-2.31S46.21,180.24,49.59,186c1,1.81,6.73,0,6.73,0s-4.5,9.63-2.26,13.48,14,7.39,23.7,8.45C75.5,203.77,73.36,202.26,72.07,200.38Z"/><path class="cls-4" d="M104.2,200.38c2.67-3.9,17.41-20.25,6.29-44.4,0,0,31.27-.5,36.27,29.84,4.22,25.65,3.74,63.22,3.5,74.2H93.66c-2.24-6.87-3.16-15.25-1.91-25.47C95.17,206.57,101.54,204.28,104.2,200.38Z"/><path class="cls-5" d="M135.33,260h-3.79c.07-10.67.18-45.74-1.17-58.56C130.37,201.46,135.22,221.4,135.33,260Z"/><path class="cls-6" d="M104.2,200.38c2.5-3.66,15.61-18.25,8.08-39.95l.67-2.31s17.12,22.12,13.74,27.91c-1,1.81-6.73,0-6.73,0s4.49,9.63,2.25,13.48-14,7.39-23.7,8.45C100.77,203.77,102.92,202.26,104.2,200.38Z"/><path class="cls-4" d="M11.41,115S-20.79,34.66,23,28.47C23,28.47,18.13,0,80.53,0c77.76,0,107.94,19.1,82.2,115.14Z"/><path class="cls-7" d="M27.31,114.22s-9.13-7-15.79-1.44-.88,36.13,36,36.16Z"/><path class="cls-7" d="M147.87,114.22s9.14-7,15.8-1.44.87,36.13-36,36.16Z"/><path class="cls-8" d="M152.62,77.13c-9-31.09-65,0-65,0s-56-31.09-65,0A60.21,60.21,0,0,0,21,101c3.46,26.57,25,65.79,66.57,65.79S150.71,127.6,154.16,101A60.21,60.21,0,0,0,152.62,77.13Z"/><path class="cls-9" d="M73.43,126.09s3.49,8.29,11.72,7.83,10.47-12,10.47-12-4.23,8.86-10.79,8.9S73.43,126.09,73.43,126.09Z"/><path class="cls-9" d="M67.79,150.22a1.28,1.28,0,0,1,0-2.55c.38,0,38-.65,47.34-9.35a1.22,1.22,0,0,1,1.75.09,1.3,1.3,0,0,1-.09,1.8c-10.07,9.34-47.38,10-49,10Z"/><path class="cls-9" d="M121.58,141.83h-.17a1.27,1.27,0,0,1-1-1.44c.72-5.43-2.13-6.39-2.25-6.43a1.28,1.28,0,0,1-.87-1.56,1.25,1.25,0,0,1,1.53-.9c.21.06,5.07,1.49,4,9.24A1.26,1.26,0,0,1,121.58,141.83Z"/><ellipse class="cls-2" cx="48.63" cy="106.07" rx="8.64" ry="8.9"/><path class="cls-10" d="M46,100.22c-.25,1.28,1.28,2.67,3.41,3.11s4.07-.23,4.32-1.5-1.28-2.67-3.41-3.11S46.26,99,46,100.22Z"/><path class="cls-2" d="M63.4,94.2l-1.61-7.37s-17-3.32-29-1.38l-1.25,6.91S40,90.15,63.4,94.2Z"/><ellipse class="cls-2" cx="117.83" cy="106.07" rx="8.64" ry="8.9"/><path class="cls-10" d="M115.21,100.22c-.25,1.28,1.28,2.67,3.41,3.11s4.07-.23,4.32-1.5-1.28-2.67-3.41-3.11S115.46,99,115.21,100.22Z"/><path class="cls-2" d="M103.06,94.2l1.61-7.37s17-3.32,29-1.38l1.25,6.91S126.51,90.15,103.06,94.2Z"/></g></g></svg>