<svg xmlns="http://www.w3.org/2000/svg" viewBox="0 0 151.33 260"><defs><style>.cls-1{fill:#302f2d;}.cls-2{fill:#f4efed;}.cls-3{fill:#e2dcd9;}.cls-4{fill:#f9dab4;}.cls-5{fill:#c65044;}.cls-6{fill:#c6c2c1;}.cls-7{fill:#b5b2b1;}.cls-8{fill:#3f3e3d;}.cls-9{fill:#efc4a0;}.cls-10{fill:#3a332d;}</style></defs><title>资源 87</title><g id="图层_2" data-name="图层 2"><g id="Layer_1" data-name="Layer 1"><path class="cls-1" d="M23.36,199s9.85-13.31,52.31-13.31S127.85,199,127.85,199V138.51H23.36Z"/><polygon class="cls-2" points="114.31 260 98.46 161.01 54.16 161.01 38.31 260 114.31 260"/><path class="cls-3" d="M79.47,178.73a3.31,3.31,0,1,1-3.31-3.3A3.31,3.31,0,0,1,79.47,178.73Z"/><path class="cls-3" d="M79.47,197.18a3.31,3.31,0,1,1-3.31-3.31A3.31,3.31,0,0,1,79.47,197.18Z"/><circle class="cls-3" cx="76.16" cy="215.62" r="3.3"/><circle class="cls-3" cx="76.16" cy="234.06" r="3.3"/><path class="cls-3" d="M79.47,252.51a3.31,3.31,0,1,1-3.31-3.3A3.31,3.31,0,0,1,79.47,252.51Z"/><path class="cls-4" d="M26.19,233A229.06,229.06,0,0,0,26,260H41.39a190.13,190.13,0,0,0,1.23-27Z"/><path class="cls-5" d="M50.49,159.61s-24.72,38.53-27,75.47c0,0,3.51,3.93,20.79,0l10.82-75.47Z"/><path class="cls-6" d="M52.87,159.61C40,180.19,35.6,231.52,34.11,260H53.33c20.84-35.94,17.1-100.39,17.1-100.39Z"/><path class="cls-7" d="M70.62,165.2s-11.88,4-15.49,13.67c0,0,5.81,0,7.74,2.71a18.35,18.35,0,0,0-7.74,7.75S68.05,193.82,69,204.16A306.22,306.22,0,0,0,70.62,165.2Z"/><path class="cls-4" d="M110,233a191,191,0,0,0,1.22,27h15.37a227.93,227.93,0,0,0-.17-27Z"/><path class="cls-5" d="M102.13,159.61s24.72,38.53,27,75.47c0,0-3.51,3.93-20.78,0L97.49,159.61Z"/><path class="cls-6" d="M99.75,159.61H82.19S78.44,224.06,99.29,260H118.5C117,231.52,112.6,180.19,99.75,159.61Z"/><path class="cls-7" d="M82,165.2s11.88,4,15.5,13.67c0,0-5.81,0-7.75,2.71a18.34,18.34,0,0,1,7.75,7.75s-12.92,4.49-13.82,14.83A308.58,308.58,0,0,1,82,165.2Z"/><path class="cls-4" d="M83.33,166H68A59.35,59.35,0,0,1,8.66,106.65V56.06h134v50.59A59.35,59.35,0,0,1,83.33,166Z"/><path class="cls-5" d="M64.33,139.47s3.13-4.72,6.75-4.5,5.59,3.69,5.59,3.69,3.26-3.61,7.06-3.54,5.47,4.71,5.47,4.71-3.78,8.83-12.81,8.83S64.33,139.47,64.33,139.47Z"/><path class="cls-8" d="M75.67,0h0C-56.85,0,25,208,25,208L22.92,85H128.41l-2.07,123S208.18,0,75.67,0Z"/><polygon class="cls-1" points="27.39 64.04 27.39 85.01 23.05 85.01 27.39 64.04"/><polygon class="cls-1" points="52.27 64.04 52.27 85.01 47.94 85.01 52.27 64.04"/><polygon class="cls-1" points="77.66 64.04 77.66 85.01 73.32 85.01 77.66 64.04"/><polygon class="cls-1" points="103.04 64.04 103.04 85.01 98.71 85.01 103.04 64.04"/><polygon class="cls-1" points="128.43 64.04 128.43 85.01 124.1 85.01 128.43 64.04"/><path class="cls-9" d="M70.58,123.75s.62-5.57,6-5.6,6.47,5.6,6.47,5.6-2.94-3.44-6.37-3.44S70.58,123.75,70.58,123.75Z"/><path class="cls-10" d="M39.77,122.32a1.38,1.38,0,0,1-1.34-1.08c-.76-3.54-.39-10.7,6.46-12.38,6.69-1.65,10.92,3.26,12.22,6.08a1.36,1.36,0,1,1-2.48,1.14c-.11-.24-2.93-6.09-9.09-4.57-6,1.47-4.5,8.85-4.44,9.16a1.36,1.36,0,0,1-1.05,1.62A1.33,1.33,0,0,1,39.77,122.32Z"/><path class="cls-10" d="M113,122.32a1.43,1.43,0,0,1-.29,0,1.38,1.38,0,0,1-1-1.62h0c.07-.31,1.55-7.69-4.43-9.16-6.21-1.53-9,4.32-9.1,4.57a1.35,1.35,0,0,1-1.81.67,1.37,1.37,0,0,1-.67-1.81c1.31-2.82,5.53-7.73,12.23-6.08s7.22,8.84,6.45,12.38A1.36,1.36,0,0,1,113,122.32Z"/></g></g></svg>