<svg xmlns="http://www.w3.org/2000/svg" viewBox="0 0 173.74 260"><defs><style>.cls-1{fill:#f2ac2f;}.cls-2{fill:#ffc55f;}.cls-3{fill:#348789;}.cls-4{fill:#51989e;}.cls-5{fill:#4c3626;}.cls-6{fill:#f4d3b0;}.cls-7{fill:#f9dab4;}.cls-8{fill:#efc4a0;}.cls-9{fill:#3a332d;}.cls-10{fill:#3d2b1e;}</style></defs><title>资源 175</title><g id="图层_2" data-name="图层 2"><g id="Layer_1" data-name="Layer 1"><path class="cls-1" d="M113.23,260h34.21v-.72c-.34-18.59-31.2-105.89-31.2-105.89C102.09,139.25,105.73,230.49,113.23,260Z"/><path class="cls-1" d="M47.23,260H13v-.72c.33-18.59,31.2-105.89,31.2-105.89C58.36,139.25,54.72,230.49,47.23,260Z"/><path class="cls-2" d="M93.13,153v-1.09l-13.43.54-13.43-.54V153l-19.36.78S32.87,225.27,34.55,260h90.31c1.68-34.73-12.36-106.21-12.36-106.21Z"/><polygon class="cls-1" points="91.48 206.56 89.95 160.17 92.39 160.01 93.92 206.4 91.48 206.56"/><path class="cls-1" d="M97.58,208.09c0,2.85-2,5.17-4.43,5.17s-4.43-2.32-4.43-5.17,2-5.17,4.43-5.17S97.58,205.23,97.58,208.09Z"/><polygon class="cls-1" points="67.94 206.56 69.47 160.17 67.03 160.01 65.5 206.4 67.94 206.56"/><path class="cls-1" d="M61.83,208.09c0,2.85,2,5.17,4.43,5.17s4.43-2.32,4.43-5.17-2-5.17-4.43-5.17S61.83,205.23,61.83,208.09Z"/><path class="cls-3" d="M165,146.29c0,2.14-2.1,3.87-4.69,3.87s-4.68-1.73-4.68-3.87,2.09-3.87,4.68-3.87S165,144.15,165,146.29Z"/><path class="cls-4" d="M9.6,117S-1.3,92.91.13,69.27,26.82,0,88.55,0s84.76,70.1,85.17,96.89-5.09,49-21.09,51.84-34.74-11.61-34.74-11.61Z"/><polygon class="cls-5" points="8.38 104.8 13.88 115.22 27.02 108.97 25.19 69.98 8.38 72.43 8.38 104.8"/><path class="cls-6" d="M129.71,115.52s7.95-15.59,17.42-9.17-4,35.45-24.14,34.84Z"/><path class="cls-6" d="M26.15,115.52S18.2,99.93,8.73,106.35s4,35.45,24.14,34.84Z"/><path class="cls-7" d="M112.44,51.34,78.52,56.08,44.6,51.34,16.94,83.43s-.29,70.9,44,81a80.93,80.93,0,0,0,16.6,2.13v0l1,0,1,0v0a80.93,80.93,0,0,0,16.6-2.13c44.25-10.09,44-81,44-81Z"/><path class="cls-8" d="M87,136.09s-1.92-6.15-8.1-6.55-8.81,7.53-8.81,7.53,3.89-5.88,8.8-5.33A13.66,13.66,0,0,1,87,136.09Z"/><path class="cls-8" d="M52.62,149.24l2.24.39c1.41.25,3.46.5,5.9.81l3.94.41,4.4.32,4.7.17,4.85-.06c1.56,0,3.26-.18,4.86-.27s3.14-.32,4.66-.46,3-.44,4.36-.62,2.68-.5,3.89-.7c4.83-.92,8-1.88,8-1.88s-.73.4-2.06,1c-.66.27-1.47.63-2.42,1s-2,.79-3.21,1.12-2.48.79-3.88,1.07-2.84.73-4.41.92-3.17.57-4.78.67-3.22.29-5,.34h-5l-4.8-.36a80.88,80.88,0,0,1-8.4-1.41A54.26,54.26,0,0,1,52.62,149.24Z"/><path class="cls-9" d="M41.62,129.5a1.51,1.51,0,0,1-1.49-1.37,8.07,8.07,0,0,1,6.09-8.38c5.26-1.55,9.15,2.54,10.47,4.92a1.5,1.5,0,0,1-2.63,1.46c-.1-.19-2.73-4.74-7-3.49a5,5,0,0,0-3.94,5.21,1.5,1.5,0,0,1-1.35,1.64Z"/><path class="cls-9" d="M115.42,129.5h-.15a1.5,1.5,0,0,1-1.35-1.63,5.05,5.05,0,0,0-3.94-5.22c-4.26-1.25-6.89,3.3-7,3.49a1.49,1.49,0,0,1-2,.58,1.5,1.5,0,0,1-.58-2c1.32-2.38,5.21-6.46,10.47-4.92a8.08,8.08,0,0,1,6.09,8.38A1.5,1.5,0,0,1,115.42,129.5Z"/><path class="cls-5" d="M96.73,112.67s8.44-10.13,25.84-5.32L121.26,112s-15-2.53-21.83,4.83Z"/><path class="cls-5" d="M60.36,111.78s-9.15-9.5-26.16-3.47l1.64,4.55s14.79-3.59,22.12,3.28Z"/><path class="cls-5" d="M9.6,81.9s23.23,27.85,59,27.07c0,0,15.92,4.36,23.22-4.17,3.35-3.91,0-1.5,0-1.5s18.65,3,27.2-1.84c0,0,9.75,2.88,14.67,1.53l4.22,3.2,14.73-8.7L144.38,59.9,101,39.12,43.83,37.59,11.44,51.34Z"/><path class="cls-10" d="M48.72,90.16A125.1,125.1,0,0,0,58.19,100c3.29,3.1,6.81,5.88,10.4,8.94a31.19,31.19,0,0,1-12.07-7.16,34.19,34.19,0,0,1-4.64-5.34A22,22,0,0,1,48.72,90.16Z"/><path class="cls-10" d="M64.92,92.29c4.8,1.91,9.33,4.07,14,6A103.73,103.73,0,0,0,93,103.47a22.49,22.49,0,0,1-7.75-.5,41.25,41.25,0,0,1-7.37-2.41A52.35,52.35,0,0,1,71.07,97,37.67,37.67,0,0,1,64.92,92.29Z"/><path class="cls-10" d="M99.76,92.29a66.34,66.34,0,0,1,9.86,4.18c3.16,1.6,6.17,3.25,9.39,5a15.59,15.59,0,0,1-5.44-.77,32.09,32.09,0,0,1-5-2A31.54,31.54,0,0,1,99.76,92.29Z"/><path class="cls-10" d="M119,92.29a23,23,0,0,1,8.65,3.53,21.2,21.2,0,0,1,3.64,3,8.12,8.12,0,0,1,2.38,4.17,24,24,0,0,0-3.61-2.71l-3.75-2.42A49.09,49.09,0,0,1,119,92.29Z"/><path class="cls-4" d="M161.23,51c-6-12.36-14.45-24.53-25.61-33.89H31.84C10.64,32.54,1,55,.13,69.27-.79,84.55,3.43,100,6.54,109a6.34,6.34,0,0,1,2.19-2.64,9.22,9.22,0,0,1,2.11-1c-1.6-7.42-1.6-21.78,18.32-30.75,14.11-6.34,31.43-8.37,45.08-8.83,13.65.46,31,2.49,45.08,8.83,21.08,9.49,19.86,25,18,32,2.8-1.85,6.17-2.59,9.77-.16a6.93,6.93,0,0,1,2.78,4.32l15.05-22Z"/><path class="cls-3" d="M146.6,94.62c.11-8.62-3-19.45-9.56-25.48-5.4-5-12.21-7-19.21-8.68-8.67-2-17.21-4.13-26.14-4.79-17.62-1.31-37.4-2.48-54.56,2.3-8.68,2.41-20,5.53-26.25,12.51C6.8,75,4.36,80.7.87,85.69A125.52,125.52,0,0,0,6.54,109a6.34,6.34,0,0,1,2.19-2.64,9.22,9.22,0,0,1,2.11-1c-1.6-7.42-1.6-21.78,18.32-30.75,14.11-6.34,31.43-8.37,45.08-8.83,13.65.46,31,2.49,45.08,8.83,21.08,9.49,19.86,25,18,32a8.34,8.34,0,0,1,7.82-1.16A55.67,55.67,0,0,0,146.6,94.62Z"/><path class="cls-3" d="M141.49,104.89c5.06-13.65-1.92-30.6-15.86-38.24-14.42-7.91-72.32-11.34-91.85-2.76C21,69.51,3.19,80.09,2.31,93.89A132.56,132.56,0,0,0,6.54,109a6.34,6.34,0,0,1,2.19-2.64,9.22,9.22,0,0,1,2.11-1c-1.6-7.42-1.6-21.78,18.32-30.75,14.11-6.34,31.43-8.37,45.08-8.83,13.65.46,31,2.49,45.08,8.83,21.08,9.49,19.86,25,18,32A9.8,9.8,0,0,1,141.49,104.89Z"/><path class="cls-4" d="M10.3,97.53c-2.38-.07-4.77-.1-7.15-.07,1.09,4.43,2.3,8.38,3.39,11.53a6.34,6.34,0,0,1,2.19-2.64,9.22,9.22,0,0,1,2.11-1A27.07,27.07,0,0,1,10.3,97.53Z"/><path class="cls-4" d="M8.94,80.22C5.2,84.3,2.63,88.87,2.31,93.89c.09.39.18.75.27,1.13,2.68,0,5.36,0,8,.07a23.26,23.26,0,0,1,3.91-9.29Z"/><path class="cls-4" d="M41,61.62a42.16,42.16,0,0,0-7.19,2.27c-2.82,1.24-5.89,2.73-9,4.44,1,2.27,2.13,4.51,3.24,6.75l1.1-.53A84.76,84.76,0,0,1,42.27,70C41.8,67.25,41.47,64.42,41,61.62Z"/><path class="cls-4" d="M59.11,59.24a121.69,121.69,0,0,0-15.75,1.87c.48,2.77.81,5.56,1.28,8.33a132.24,132.24,0,0,1,14.47-2.55Z"/><path class="cls-4" d="M79.4,59c-6-.2-12.1-.18-17.84.09v7.5c4.42-.47,8.71-.75,12.68-.89,1.53,0,3.11.13,4.72.23C79.11,63.64,79.27,61.33,79.4,59Z"/><path class="cls-4" d="M96.78,60.2c-4.8-.5-9.83-.87-14.93-1.09-.14,2.34-.31,4.67-.46,7,4.47.32,9.18.83,13.92,1.61C95.91,65.24,96.41,62.73,96.78,60.2Z"/><path class="cls-4" d="M116.43,63.43a141.55,141.55,0,0,0-17.23-3c-.37,2.59-.88,5.15-1.48,7.7A104.57,104.57,0,0,1,112.66,72C114,69.15,115.37,66.34,116.43,63.43Z"/><path class="cls-4" d="M132.88,72a33.67,33.67,0,0,0-7.25-5.37A34.53,34.53,0,0,0,118.71,64c-1.09,3-2.5,5.85-3.82,8.74,1.5.57,3,1.14,4.43,1.79a42.45,42.45,0,0,1,8.81,5.25C129.62,77.15,131.19,74.55,132.88,72Z"/><path class="cls-4" d="M136,89.28c2-.59,4.08-1.09,6.16-1.48a34.17,34.17,0,0,0-7.53-14c-1.63,2.46-3.13,5-4.57,7.59A25.73,25.73,0,0,1,136,89.28Z"/><path class="cls-4" d="M136.9,91.53a25.76,25.76,0,0,1,.46,15,9.8,9.8,0,0,1,4.13-1.62,27.89,27.89,0,0,0,1.14-14.72C140.7,90.52,138.79,91,136.9,91.53Z"/><path class="cls-4" d="M22.71,69.55a64.94,64.94,0,0,0-12.06,8.92L16,83.86a34.13,34.13,0,0,1,9.86-7.68C24.81,74,23.74,71.78,22.71,69.55Z"/><path class="cls-3" d="M151.83,77.45a38.19,38.19,0,0,0-3.64-10.52c-.33,7.46,0,14.51-.28,21.48a69.52,69.52,0,0,1-1,10.25,30.36,30.36,0,0,1-2,6.58,8.48,8.48,0,0,1,1.66.77,18.44,18.44,0,0,0,4-6.23A32.74,32.74,0,0,0,152.8,88.6,47.19,47.19,0,0,0,151.83,77.45Z"/></g></g></svg>