<svg xmlns="http://www.w3.org/2000/svg" viewBox="0 0 146.69 260.02"><defs><style>.cls-1{fill:#f4efed;}.cls-2{fill:#e2dcd9;}.cls-3{fill:#61aa90;}.cls-4{fill:#4d9980;}.cls-5{fill:#ea9628;}.cls-6{fill:#f4d3b0;}.cls-7{fill:#f9dab4;}.cls-8{fill:#3a332d;}.cls-9{fill:#efc4a0;}.cls-10{fill:#492020;}.cls-11{fill:#c65044;}.cls-12{fill:#e08a22;}</style></defs><title>资源 99</title><g id="图层_2" data-name="图层 2"><g id="Layer_1" data-name="Layer 1"><rect class="cls-1" x="36.72" y="162.46" width="71.51" height="67.33"/><path class="cls-2" d="M83.09,178.36a3.77,3.77,0,1,1-3.77-3.76A3.77,3.77,0,0,1,83.09,178.36Z"/><path class="cls-2" d="M83.09,195.32a3.77,3.77,0,1,1-3.77-3.76A3.77,3.77,0,0,1,83.09,195.32Z"/><path class="cls-2" d="M83.09,212.28a3.77,3.77,0,1,1-3.77-3.76A3.76,3.76,0,0,1,83.09,212.28Z"/><path class="cls-2" d="M42.79,157.47l-3.22,18.14c16.23,0,33.18-10,33.18-10a55.51,55.51,0,0,0,31.38,10l-5.07-18.14Z"/><path class="cls-2" d="M73.16,168.4v61.39S67,194.65,73.16,168.4Z"/><path class="cls-3" d="M49.4,157.69S29,156.62,22.27,180.47c0,0-16.95,53.83-19.65,79.55H146.69l-21-79.12s-7-24-30.17-23.42V172.2a22.71,22.71,0,0,1-22.7,22.71h-.46A22.71,22.71,0,0,1,49.6,172.2V157.69Z"/><polygon class="cls-4" points="28.02 260.02 28.02 191.27 24.04 260.02 28.02 260.02"/><polygon class="cls-4" points="122.92 195.32 122.92 260.02 127.12 260.02 122.92 195.32"/><path class="cls-5" d="M5.21,104.93S-1.84,77.49.46,52.3C3,25.1,16.28,0,58.89,0,108,0,108.74,16.51,108.74,16.51s43-.47,25,88.42L83.6,140.45Z"/><path class="cls-6" d="M18.84,106.11s-10.11-6.8-15,.38,1.74,32.62,20.33,34Z"/><path class="cls-6" d="M120.9,106.11s10.11-6.8,15,.38-1.74,32.62-20.34,34Z"/><path class="cls-7" d="M70.1,166.76H69c-30.44,0-55.12-21.71-55.12-48.49V69.33H125.23v48.94C125.23,145.05,100.55,166.76,70.1,166.76Z"/><path class="cls-8" d="M51.37,126.06a1.54,1.54,0,0,1-1.61-1.33c0-.55-.62-5.42-7.42-5.34-2.89,0-4.9.9-6,2.55a5.3,5.3,0,0,0-.84,2.67,1.62,1.62,0,0,1-3.21.07,7.82,7.82,0,0,1,2.49-5.61,11,11,0,0,1,7.49-2.51c8-.1,10.49,5.19,10.68,8a1.51,1.51,0,0,1-1.52,1.5Z"/><polygon class="cls-5" points="26.29 107.38 26.29 110.97 53.59 109.18 53.59 104.93 26.29 107.38"/><path class="cls-8" d="M107.11,126.06h0a1.51,1.51,0,0,1-1.56-1.45,5.34,5.34,0,0,0-.83-2.67c-1.08-1.65-3.09-2.51-6-2.55-6.8-.08-7.38,4.79-7.42,5.34a1.56,1.56,0,0,1-1.71,1.32,1.49,1.49,0,0,1-1.51-1.49c.19-2.78,2.62-8,10.46-8h.22a11,11,0,0,1,7.49,2.51,7.77,7.77,0,0,1,2.49,5.61A1.53,1.53,0,0,1,107.11,126.06Z"/><polygon class="cls-5" points="114.74 107.38 114.74 110.97 87.44 109.18 87.44 104.93 114.74 107.38"/><path class="cls-9" d="M64.83,134.76s4.54-6.5,10.24-6.5,10.24,6.5,10.24,6.5a19,19,0,0,0-10.24-3.4A19,19,0,0,0,64.83,134.76Z"/><path class="cls-10" d="M54.7,147.42s26.27,1.4,44.79-7.7c0,0,6.76,14.56-16.28,19.29S54.7,147.42,54.7,147.42Z"/><path class="cls-11" d="M98,151.56a39,39,0,0,0-11.3-1.6c-9.79,0-18.15,3.32-21.46,8,4.26,1.83,10.1,2.68,18,1.06S95.6,154.55,98,151.56Z"/><path class="cls-5" d="M112.12,39.87s9.5,27.76,25.34,32.46c0,0-10.72,5.81-30,2.2,0,0,3.39,5.33,9.62,4.86a72.26,72.26,0,0,1-36.71.94s.17,2.2,5.34,3c0,0-26.91,7.37-51-4.23,0,0,.17,5.24,6.23,6.54,0,0-33.23,2.55-38.72-25.2Z"/><path class="cls-12" d="M92.81,68.18,92.69,68Z"/><path class="cls-12" d="M92.81,68.18c.82,1.13,5.92,7.6,16.87,8.72a11.68,11.68,0,0,1-2.19-2.37S94.85,70.82,92.81,68.18Z"/><path class="cls-12" d="M62.94,72.53s6,8.92,19.1,9.64c-1.56-.87-1.64-1.84-1.64-1.84S68.17,77.59,62.94,72.53Z"/><path class="cls-12" d="M19.25,69.33s5.8,9.79,16.33,12.47a6.87,6.87,0,0,1-.81-2.72S24.18,74.58,19.25,69.33Z"/></g></g></svg>