<svg xmlns="http://www.w3.org/2000/svg" viewBox="0 0 176.74 260.02"><defs><style>.cls-1{fill:#3f3e3d;}.cls-2{fill:#f2d0af;}.cls-3{fill:#6b4627;}.cls-4{fill:#ddb58e;}.cls-5{fill:#302f2d;}.cls-6{fill:#515151;}.cls-7{fill:#f4d3b0;}.cls-8{fill:#3a332d;}.cls-9{fill:#e8dfd9;}.cls-10{fill:#eae5dc;}.cls-11{fill:#e8e8e8;}.cls-12{fill:#ddd;}</style></defs><title>资源 227</title><g id="图层_2" data-name="图层 2"><g id="Layer_1" data-name="Layer 1"><path class="cls-1" d="M176.73,66.41C176.73,37.27,136.14,0,89.41,0l-1,0-1,0C40.6,0,0,37.27,0,66.41c-.46,35.46,14.72,55.88,14.72,55.88s34.67,4.59,70.79,6.58v.3l2.85-.14,2.84.14v-.3c36.13-2,70.8-6.58,70.8-6.58S177.19,101.87,176.73,66.41Z"/><path class="cls-2" d="M128.05,208.34,134.56,260h15.71c-3.17-24-6.57-54.55-6.57-54.55Z"/><path class="cls-3" d="M122.75,167.92s16.86,3.65,26.94,44a89.94,89.94,0,0,0-25.21,6.26S110.7,167.14,122.75,167.92Z"/><path class="cls-2" d="M49,208.34,42.49,260H26.78c3.17-24,6.57-54.55,6.57-54.55Z"/><path class="cls-3" d="M54.3,167.92s-16.86,3.65-26.94,44a89.83,89.83,0,0,1,25.2,6.26S66.34,167.14,54.3,167.92Z"/><path class="cls-3" d="M53.26,165.53S43.85,223.9,41.1,260h96.69c-2.75-36.12-12.16-94.49-12.16-94.49H53.26Z"/><rect class="cls-4" x="73.63" y="161.14" width="31.64" height="31.64" transform="translate(-98.93 115.07) rotate(-45)"/><path class="cls-5" d="M41.1,260H73l2.8-94.49H53.26S43.85,223.9,41.1,260Z"/><path class="cls-5" d="M125.63,165.53H107.29L110.08,260h27.71C135,223.9,125.63,165.53,125.63,165.53Z"/><path class="cls-6" d="M66.16,198.33a2.95,2.95,0,1,1-2.94-2.94A2.95,2.95,0,0,1,66.16,198.33Z"/><path class="cls-6" d="M66.16,215.13a2.95,2.95,0,1,1-2.94-2.94A2.94,2.94,0,0,1,66.16,215.13Z"/><path class="cls-6" d="M66.16,231.93a2.95,2.95,0,1,1-2.94-3A2.94,2.94,0,0,1,66.16,231.93Z"/><path class="cls-6" d="M116.93,235.89c.63,5.49,1.81,12.2,3.79,12.73,3.39.91,8.16.44,9.26-1.43,1.49-2.56,1.74-8.12,1.66-12.66A89.33,89.33,0,0,0,116.93,235.89Z"/><path class="cls-6" d="M131.58,232.45c-.11-2.79-.31-4.81-.31-4.81l-15,1.08s.12,2.19.41,5.1A93.78,93.78,0,0,1,131.58,232.45Z"/><path class="cls-6" d="M34.89,144.46s-1,9.64,2.09,11.73a83.09,83.09,0,0,0,9.9,4.95s-8-3.52-7.69,1.18.78,4.82,6.91,6.38,28.29,7.44,47.46,7.7,47.84-8.74,49-11.48-.1-5.92-3.7-6.22c0,0,5.78-2.25,5.26-4.34s-2.08-12.25-2.08-12.25Z"/><path class="cls-7" d="M27.6,112.31s-7.42-13.82-17.38-6.79c-13,9.17,5.86,39.66,20.51,34.39Z"/><path class="cls-7" d="M151.29,112.31s7.43-13.82,17.39-6.79c13,9.17-5.86,39.66-20.51,34.39Z"/><path class="cls-2" d="M129.39,157.49l-15,4.43a87.81,87.81,0,0,1-49.82,0l-15-4.43a41.63,41.63,0,0,1-29.82-39.92s.15-42.75,0-52.27c-.08-4.75,34.8-25.76,69.7-25.68,17.45,0,34.91,5.35,48,11.2s21.82,29.54,21.82,40.44v26.31A41.63,41.63,0,0,1,129.39,157.49Z"/><path class="cls-8" d="M34.86,108.45a8.71,8.71,0,1,0,8.7-8.7A8.71,8.71,0,0,0,34.86,108.45Z"/><path class="cls-9" d="M40.93,102.73c-.25,1.25,1.29,2.61,3.43,3s4.1-.22,4.35-1.47-1.29-2.6-3.44-3S41.18,101.49,40.93,102.73Z"/><circle class="cls-8" cx="133.1" cy="108.45" r="8.7" transform="translate(-21.36 33.48) rotate(-13.28)"/><path class="cls-9" d="M130.46,102.73c-.25,1.25,1.28,2.61,3.43,3s4.1-.22,4.35-1.47-1.29-2.6-3.44-3S130.71,101.49,130.46,102.73Z"/><path class="cls-1" d="M111.38,91.37l1.92-8.56S133.65,79,148,81.2l1.5,8Z"/><path class="cls-1" d="M67.52,91.37l-1.93-8.56S45.25,79,30.91,81.2l-1.5,8Z"/><path class="cls-3" d="M154.73,135.59c-16.95-8.85-52.13-28-63.57-28.94-12.61-1.05-52.1,21.55-67,30.38a41.63,41.63,0,0,0,25,20.46l15,4.43a87.81,87.81,0,0,0,49.82,0l15-4.43A41.61,41.61,0,0,0,154.73,135.59Z"/><path class="cls-10" d="M72.3,135.06l30.87,19.13s-1,4.88,3.37,4.91,2.06-3.94,2.06-3.94,2.93,1.4,3.69-1.17-3.19-6.42-6.88-3.56L76.1,131.68s2.8-4,0-6.35-10.8,1.75-5.76,5.38c0,0-4.79,1-4.44,3.37S69.32,138.44,72.3,135.06Z"/><path class="cls-11" d="M98.48,151.27a3.33,3.33,0,0,1,.19-2c.22-.49,1.32-.74,1.74-.82a8,8,0,0,0,1.31-.4L77.86,132.82a5.91,5.91,0,0,0-1.76,4.6L98.49,151.3S98.49,151.27,98.48,151.27Z"/><path class="cls-10" d="M78.41,152s-4.2-3.63-6.72-.05.13,5.89,4.58,4c0,0-2.35,5.42,2.06,5.46S81,155.88,81,155.88l26.18-25s5.79,1.15,5.92-3.09-6.44-1.25-6.44-1.25,1.6-3.48-1.44-4.24-6,4.64-2.35,6Z"/><path class="cls-11" d="M105.07,132.81a9.16,9.16,0,0,0-4.56-2.26L81.29,149.18c.85.19,1.66.56,1.72,1.53a21.32,21.32,0,0,1-.17,3.37Z"/><path class="cls-10" d="M84.33,149s-7.86.18-7.41-9,8.38-11.11,17.33-10,12.42,5.26,12.33,9.25-.37,7.73-9.29,9.19c0,0,1.52,9.35-1.3,9.51s-2.62-2.29-2.62-2.29a2.63,2.63,0,0,1-2.91,2.67c-3,0-2.57-2.23-2.57-2.23a2.47,2.47,0,0,1-2.65,2.19C82.91,158.08,84.33,149,84.33,149Z"/><path class="cls-11" d="M95,156.74c-1.35-.66-1.29-2.87-1.25-4.1.07-1.79-.89,2-1,2.49a3.7,3.7,0,0,1-.59,1.58,1.75,1.75,0,0,1-2.65.31,4.31,4.31,0,0,1-1-2.51c0-.15-.4-2.54-.61-1.91-.76,2.29-1.69,5.66-3.58,4.75.21.54.51.89.95.93a2.47,2.47,0,0,0,2.65-2.19s-.44,2.27,2.57,2.23a2.61,2.61,0,0,0,2.9-2.55c0,.48.17,2.31,2.63,2.17a1.43,1.43,0,0,0,1.19-1A2.78,2.78,0,0,1,95,156.74Z"/><path class="cls-12" d="M88.43,140.53c0,2.29-1.62,4.13-3.57,4.12s-3.52-1.88-3.5-4.17,1.62-4.14,3.57-4.12S88.44,138.24,88.43,140.53Z"/><path class="cls-12" d="M101.78,140.64c0,2.29-1.61,4.13-3.57,4.12s-3.51-1.89-3.49-4.18,1.62-4.13,3.56-4.11A3.87,3.87,0,0,1,101.78,140.64Z"/><path class="cls-5" d="M88.43,139.92a3.53,3.53,0,1,1-3.5-3.56A3.53,3.53,0,0,1,88.43,139.92Z"/><path class="cls-5" d="M101.78,140a3.53,3.53,0,1,1-3.5-3.56A3.52,3.52,0,0,1,101.78,140Z"/><path class="cls-5" d="M160.6,85.27s-1.65-.59-1.68-1.57c-.24-8.62-5.37-17.44-9.06-25.23-4-8.4-7.05-17.55-14.3-20.81-15.75-7.09-32.29-12.34-49.65-13.25-9.2-.49-22.93,6.42-31.66,9.74-7,2.65-14.62,5.63-21,9.64C26,48.36,21.35,55.49,18.51,63.52,16.17,70.13,19.75,85,19.75,85S29.08,68.59,33.5,64.58C40,58.67,52.28,57.89,57,52.68c0,0,8.6.52,16.17-2.87,0,0,9.6,2.34,15.23,0,0,0,15.27-1.05,20.75,13.56s25.81,46.67,42,36c0,0,12.77,6,15.9-6S160.6,85.27,160.6,85.27Z"/><path class="cls-5" d="M144.32,88.4a23.49,23.49,0,0,0,1,2.61,20.88,20.88,0,0,0,3.8,6.09,9.55,9.55,0,0,0,3.74,2.62,9.29,9.29,0,0,0,2.38.56,11.75,11.75,0,0,0,2.56-.18l1.23-.25,1.37-.51a4.87,4.87,0,0,0,1.23-.61,8.24,8.24,0,0,0,1.12-.69,10.37,10.37,0,0,0,3.43-4.24,8.45,8.45,0,0,0,.71-5.24,3.51,3.51,0,0,0-3-3l-1.2.07c-.4.07-.8.23-1.2.32a5.1,5.1,0,0,0-.56.16l-.62.28a9,9,0,0,0-1.16.57,6.28,6.28,0,0,0-3,3.13,3.89,3.89,0,0,0,.43,3.51,3.94,3.94,0,0,0,2.38,1.66,3.87,3.87,0,0,0,2-.16l.68-.28-.63.39a3.89,3.89,0,0,1-2.06.46,4.57,4.57,0,0,1-3-1.59,4.64,4.64,0,0,1-.93-4.35,7.65,7.65,0,0,1,3.38-4.11,10.38,10.38,0,0,1,5.58-1.89,11.25,11.25,0,0,1,1.7.38,5.1,5.1,0,0,1,1.51,1,4.74,4.74,0,0,1,1.08,1.42,5,5,0,0,1,.6,1.63,10.46,10.46,0,0,1-.77,6.56,12.42,12.42,0,0,1-4.16,5,12,12,0,0,1-1.43.85,6.79,6.79,0,0,1-1.44.63l-1.39.47c-.64.16-1.06.19-1.59.28a11.33,11.33,0,0,1-3,.06,10.48,10.48,0,0,1-2.78-.86,11,11,0,0,1-4-3.25A15.26,15.26,0,0,1,146,94.2a23.38,23.38,0,0,1-1.1-3.06A16.42,16.42,0,0,1,144.32,88.4Z"/></g></g></svg>