<svg xmlns="http://www.w3.org/2000/svg" viewBox="0 0 209.29 307.63"><defs><style>.cls-1{fill:#f9f5ed;}.cls-2{fill:#e2e2e2;}.cls-3{fill:#2f3233;}.cls-4{fill:#393c3d;}.cls-5{fill:#515151;}.cls-6{fill:#ad3936;}.cls-7{fill:#c65044;}.cls-8{fill:#4c3626;}.cls-9{fill:#f4d3b0;}.cls-10{fill:#f9dab4;}.cls-11{fill:#efc4a0;}.cls-12{fill:#3a332d;}</style></defs><title>资源 170</title><g id="图层_2" data-name="图层 2"><g id="Layer_1" data-name="Layer 1"><path class="cls-1" d="M114.78,188.78c-.31-.08-.61-.19-.92-.27v.54c-45.63,13.53-58,71.56-59.93,118.58h121.7c-1.92-47-14.3-105-59.93-118.58v-.54C115.39,188.59,115.09,188.7,114.78,188.78Z"/><rect class="cls-2" x="113.34" y="196.96" width="2.87" height="110.67"/><rect class="cls-3" x="109.08" y="211.15" width="10.31" height="0.41"/><path class="cls-4" d="M47,249.93S32.52,282,24.55,307.63H63.18C64,275,59.51,238,47,249.93Z"/><path class="cls-5" d="M96.94,198.63s-51.87,40.54-53.18,60.9c-.53,8.16-1.16,27.51-1.18,48.1H79a183,183,0,0,1-1.58-27.26C78.29,231.61,96.94,198.63,96.94,198.63Z"/><path class="cls-3" d="M101.13,191.94s-37.24,23.42-52,44c-3.41,4.74-8.61,10.63-9.6,16.61-.83,5.07,4,7.13,8,8.71,1.32.52,16.66,5.87,16.89,5.27a90,90,0,0,0-4.15,14.15c-2.33,11.4,17.19,6,17.19,6s-.05-4.13,0-6.23c.87-48.76,19.52-81.74,19.5-81.73,2.5-4.07,4.16-6.47,4.16-6.47Z"/><path class="cls-4" d="M182.52,249.93c-12.47-11.93-17,25.05-16.14,57.7H205C197,282,182.52,249.93,182.52,249.93Z"/><path class="cls-5" d="M187,307.63c0-20.59-.64-39.94-1.17-48.1-1.31-20.36-53.17-60.9-53.17-60.9s18.64,33,19.51,81.74a183,183,0,0,1-1.58,27.26Z"/><path class="cls-3" d="M128.43,191.94s37.24,23.42,52,44c3.41,4.74,8.61,10.63,9.59,16.61.84,5.07-4,7.13-8,8.71-1.31.52-16.66,5.87-16.89,5.27a88.94,88.94,0,0,1,4.14,14.15c2.35,11.4-17.18,6-17.18,6s.05-4.13,0-6.23c-.87-48.76-19.51-81.74-19.5-81.73-2.5-4.07-4.16-6.47-4.16-6.47Z"/><path class="cls-2" d="M129.23,187.56l-14.45,4.86-14.45-4.86s-22,28.63-18,31.06c2.46,1.49,19.53-6.79,32.43-13.45,12.9,6.66,30,14.94,32.43,13.45C151.23,216.19,129.23,187.56,129.23,187.56Z"/><path class="cls-6" d="M14.92,120c0,3.52-3.34,6.37-7.46,6.37S0,123.56,0,120s3.34-6.37,7.46-6.37S14.92,116.52,14.92,120Z"/><path class="cls-7" d="M93.39,35.15s-40.65,1.28-52,11.32S2.06,107.69,12.35,119.53c0,0-4.12,2.83-1,13.63s26.94,49.66,37,58.14,41.2,0,41.2,0Z"/><path class="cls-6" d="M12.35,119.53a4.76,4.76,0,0,0-1.42,2.06H66.19V118.5H11.63A7,7,0,0,0,12.35,119.53Z"/><path class="cls-8" d="M38.22,135.48s-6.88-49,11.49-58.66,11.66,62.52,11.66,62.52Z"/><path class="cls-8" d="M190.86,135.48s7-46.31-11.35-56-11.8,59.82-11.8,59.82Z"/><path class="cls-9" d="M169.79,138.56s13.12-15.43,20.84-8.87-6.95,44.38-20.84,37.82S169.79,138.56,169.79,138.56Z"/><path class="cls-9" d="M60,138.56s-13.12-15.43-20.84-8.87S46.12,174.07,60,167.51,60,138.56,60,138.56Z"/><path class="cls-10" d="M177.82,89.18H52s-10.16,73.58,15,97.75c10.46,10.06,22,16.93,33.52,20.22a45.79,45.79,0,0,0,14.41,2.13,45.79,45.79,0,0,0,14.41-2.13c11.52-3.29,23.06-10.16,33.51-20.22C188,162.76,177.82,89.18,177.82,89.18Z"/><path class="cls-8" d="M42.58,83s13.12,36.11,48.23,45.07L75.38,109.62s21.61,19.68,54,13.12L102,105.53s31.19,8,76.18,2.16l-7.11-8.1A85,85,0,0,0,205,98l-10-4.62,14.28-1.55s-18.53-7-22.77-13.12S190,49,169.92,44,74.22,18.55,42.58,83Z"/><path class="cls-3" d="M39.68,87.24s34.79-37.82,82.23-35.89,64.2,27.4,64.2,27.4,10,7,6.61-24.7-12.34-52.48-43-54c-11.1-.56-40.62,6.86-60.92,20.84C53,45.48,26.36,83.8,39.68,87.24Z"/><polygon class="cls-8" points="136.6 127.29 135.84 133.48 166.31 132.23 163.05 125.77 136.6 127.29"/><polygon class="cls-8" points="93.29 127.29 94.04 133.48 63.58 132.23 66.84 125.77 93.29 127.29"/><path class="cls-11" d="M104.33,159.35s2.61,8.36,11,8.9,12-10.24,12-10.24-5.29,8-12,7.25S104.33,159.35,104.33,159.35Z"/><path class="cls-11" d="M82.32,177.16a99.3,99.3,0,0,0,18,2.83,143.37,143.37,0,0,0,18.07.17c12.07-.56,24-2.63,36-5.06a106.84,106.84,0,0,1-35.85,8.14,94.56,94.56,0,0,1-18.5-.86A59.65,59.65,0,0,1,82.32,177.16Z"/><path class="cls-12" d="M140.42,153.86a1.54,1.54,0,0,1-1.27-2.42c.37-.55,9.34-13.37,24.36-13.91a1.57,1.57,0,0,1,1.6,1.49,1.54,1.54,0,0,1-1.49,1.6c-13.44.48-21.84,12.45-21.93,12.57A1.53,1.53,0,0,1,140.42,153.86Z"/><path class="cls-12" d="M89.47,153.86a1.53,1.53,0,0,1-1.27-.67c-.08-.12-8.49-12.09-21.93-12.57a1.55,1.55,0,0,1-1.49-1.6,1.66,1.66,0,0,1,1.6-1.49c15,.54,24,13.36,24.36,13.91a1.54,1.54,0,0,1-.39,2.15A1.59,1.59,0,0,1,89.47,153.86Z"/></g></g></svg>