<svg xmlns="http://www.w3.org/2000/svg" viewBox="0 0 248.15 305.66"><defs><style>.cls-1{fill:#eae5dc;}.cls-2{fill:#f9f5ed;}.cls-3{fill:#f9dab4;}.cls-4{fill:#f7cea6;}.cls-5{fill:#e2d9d3;}.cls-6{fill:#424141;}.cls-7{fill:#5a5b5b;}.cls-8{fill:#474747;}.cls-9{fill:#6a6b6b;}.cls-10{fill:#4b4c4c;}.cls-11{fill:#3f3f3f;}.cls-12{fill:#3b3d3d;}.cls-13{fill:#e5be9e;}.cls-14{fill:#2f3030;}.cls-15{fill:#7f5732;}.cls-16{fill:#684427;}</style></defs><title>资源 204</title><g id="图层_2" data-name="图层 2"><g id="Layer_1" data-name="Layer 1"><path class="cls-1" d="M117.51,199.8S77,202.24,48.78,216.89L70.9,253.73s28-36.16,51-35.06Z"/><path class="cls-2" d="M77.23,209.12s10.89-5.42,21.45,2,6.35,9.09,0,12.2-7.44.44-8.64-3.66S85.11,211.12,77.23,209.12Z"/><path class="cls-3" d="M12.55,215.33S1.71,216,.23,232.47s4.44,43.77,8,47.43,15.1,2,16.74-6.32h4.27s-9.52,16,7.23,16c10.5,0,20,1.33,23.31-2s14.12-7.33,19-7.33,10.84-8.65,10.84-16.31S93,218,79.86,212s-39.08-4-47-4S17.64,210.17,12.55,215.33Z"/><path class="cls-4" d="M37.39,288.55c-10.94,0-7.11-10.31-3.94-13.53s10.62-.33,14-3.77,16-5.88,20.25-5.88,3.83-3.66-3.17-3.66S51.29,264.92,48,266.25s-1.86-9.82-1.86-18.3c0-1.83-.77-5.82-2.74-3.83s-.33,14.26-.33,18.7-.87,6.21-5,6.21-7.88,3.33-12.26,1.77-5-22.63-5-27.73,0-7.77-2-5.77,0,9.54,0,19.52c0,18.2,4.15,15.76,4.15,15.76s-3.55,7.9-12.25,3.77-9.2-34-9.2-44.6,12-15.09,12-15.09a4.46,4.46,0,0,0-1-1.33c-.14,0-10.84.78-12.31,17.14s4.44,43.77,8,47.43,15.1,2,16.74-6.32h4.27s-9.52,16,7.23,16c10.5,0,20,1.33,23.31-2,2.48-2.51,9.24-5.4,14.54-6.67-4.4.45-9.67,1-13.34,3.23C54.47,288.11,48.34,288.55,37.39,288.55Z"/><path class="cls-4" d="M66.29,250.61s.86,7.13-.84,11.12,1,1.26,1,1.26,4.91-4.83,2.45-13.27C68.91,249.72,66.29,248.84,66.29,250.61Z"/><path class="cls-4" d="M72,225.76s-11.66-4.6-23.32.22-16.58,15.48-.49,22.63,28.41-2.66,31.28-7.9-1.89-12.56-3.53-12.56-.66,2.33,1.48,6-2.63,9.82-6.24,11.65-18.8,5.4-26.93-2.83c-4.51-4.58-3.28-10.65,2-12.82s13.37-5.12,22-3.33C72,228,74.5,228.31,72,225.76Z"/><path class="cls-4" d="M48.34,234.64s10-7.49,21.67-2.83c3.61,1.49,3.12,3.33-1,1.83s-12.15-.5-16.25,1.33S45.87,237.13,48.34,234.64Z"/><path class="cls-4" d="M88.18,226.09c-1.47-6.69-4-12.12-8.32-14.09-13.14-6-39.08-4-47-4-7.12,0-13.84,1.78-18.82,5.93,1.47.45,4.91.66,11-3.33,8.51-5.59,9.17,2.06,16.06,2.06s11.17-4.66,16.75-2.33,8.86,5.33,16.42,5.33S87.43,222.05,88.18,226.09Z"/><path class="cls-1" d="M200,234.3c-11.82-22.3-27.59-33-27.59-33-12.67-5.09-2.8,62.19,6.06,104.31h39.83C216.88,295.51,210.38,253.81,200,234.3Z"/><path class="cls-2" d="M210.9,286.22c-4.4-43.23-19.62-60.9-26-69.33s-5.69,0-1.53,15.08,9.74,61.58,9.74,61.58a10.81,10.81,0,0,0,10.8,6.85C208.64,300.21,211.6,293.15,210.9,286.22Z"/><path class="cls-2" d="M112.69,197s-15.1,61.9-15.1,100.51h91.94S182,222.32,171.14,196.69Z"/><path class="cls-1" d="M184.6,276.9c0,15-27.25,12-42,12s-30.2.17-35.54-17.5,7.8-59,7.8-59L119,197l-6.3,0s-15.1,61.9-15.1,100.51h91.94s-2.42-24.06-6.48-49.6C183.06,248,184.6,262,184.6,276.9Z"/><polygon class="cls-5" points="139.38 218.76 128.97 227.95 126.73 224.61 139.89 216.09 140.9 217.82 139.38 218.76"/><polygon class="cls-5" points="154.37 218.76 164.77 227.95 167.02 224.61 153.86 216.09 152.85 217.82 154.37 218.76"/><path class="cls-2" d="M127.44,226.1l19.49-14.27-29.41-3.53Zm19.49-14.27,18.2,14.27,6.73-17.8Z"/><path class="cls-6" d="M143,220.55h8.76s6.15,34.94,1.37,47.59-19.81,31.06-59.65,15.53c0,0,.13-13.75-1.36-23.07,0,0,11.95.66,22.31-2,0,0,.68,12.87,8.65,12.87S144.93,267,143,220.55Z"/><path class="cls-7" d="M153.13,268.14c4.78-12.65-1.37-47.59-1.37-47.59H143c1,24.52-2.36,37.34-7,44-14.69,23.9-42.56,19.14-42.56,19.14C133.32,299.2,148.35,280.79,153.13,268.14Z"/><path class="cls-8" d="M94.19,265.25a3.76,3.76,0,0,1,.74-2c1.33-1.56,4.36-.92,6.17-.92,7,0,11.05-1.54,12.08,2.46a12.4,12.4,0,0,0,11.78,9c1.87,0-8,6.83-15.54,7.66S95.85,283,95.08,278.9a44.78,44.78,0,0,1-1-6.5c-.08-1.89-.06-3.82,0-5.7C94.13,266.25,94.14,265.75,94.19,265.25Z"/><path class="cls-9" d="M143.57,228.91s6.12-3.86,8.42,3.73,3.69,30.39-2.73,40.16-19.35,20.64-44.62,13.09c-6.16-1.84,4.27-1.33,7.51-2.33s19.29-4.49,26.12-20.63S143.57,230.72,143.57,228.91Z"/><path class="cls-10" d="M141.52,210.23s-7.63,7,0,14.42c5.46,2.89,10.93,0,10.93,0s5.35-7.65-.57-13.87A9.72,9.72,0,0,0,141.52,210.23Z"/><path class="cls-11" d="M141.52,210.23a12.16,12.16,0,0,0-2.79,4.25s14.43,1,9.7,11.34a13.13,13.13,0,0,0,4-1.17s5.35-7.65-.57-13.87A9.72,9.72,0,0,0,141.52,210.23Z"/><path class="cls-12" d="M55.58,160.85H232.44S235,120.31,235,109.53s.73-14.88-7-14.88c0-15.62,4.41-15.25-15-33.84S167.12,6.14,167.12,6.14l-.55,7.06s-4-10.22-4-12.64c0,0-2.2,7.25-2.2,11.53,0,0-3.67-9.49-3.67-11.9,0,0-3.67,6.32-2.94,9.11,0,0-1.65-6.7-1.65-9.3,0,0-3.67,5.39-2.38,8.37A58,58,0,0,0,144.1,1a26.34,26.34,0,0,1-8.9,15.16c-7.89,6.88-22.93,19.15-47.7,34.21S56.41,78.57,56.41,83.59a34.44,34.44,0,0,0,.82,8.09s-4.54,1.81-6.33,3.62S49,110.36,55.58,160.85Z"/><path class="cls-3" d="M211.34,103.39s-2.48,38.22,6,54.11c9.36,31.8-35.22,53.56-66.59,53.56-79.81,0-78.71-41.84-73.2-61.37s0-46.3,0-46.3,46.78-16.73,59.16-29.29l-4.4,8.65s6.88-7.53,8.25-11.44v10.6a44.4,44.4,0,0,0,6.61-12.55A35.7,35.7,0,0,0,149.7,80s1.51-9.06,3.85-11.44c0,0,2.34,8.23,6.6,12.56V71.31S179.42,93.35,211.34,103.39Z"/><path class="cls-13" d="M139.07,163.08h0Zm16.19.52h0a12.44,12.44,0,0,0-2.33-5.62,6.83,6.83,0,0,0-2.47-1.94,8.19,8.19,0,0,0-3.52-.72h0a6.1,6.1,0,0,0-3.71,1.29,11.39,11.39,0,0,0-3.18,4.06,15.58,15.58,0,0,0-1,2.4h0a1,1,0,0,0,0,.25.89.89,0,0,0,.63.85,1.09,1.09,0,0,0,.25,0,.89.89,0,0,0,.84-.64h0l0-.09a14.42,14.42,0,0,1,1.56-3.31,8.41,8.41,0,0,1,2-2.16,4.37,4.37,0,0,1,2.64-.91,6.5,6.5,0,0,1,2.79.56,5.57,5.57,0,0,1,2.53,2.46,13.12,13.12,0,0,1,1.28,3.82.87.87,0,0,0,.86.72h.16a.91.91,0,0,0,.72-.88A1.11,1.11,0,0,0,155.26,163.6Z"/><path class="cls-13" d="M178.3,176.7a1,1,0,0,0-.29,0,1,1,0,0,0-1,.75,17.53,17.53,0,0,1-1,2.85,6.43,6.43,0,0,1-1,1.51,9.27,9.27,0,0,1-2.7,1.94,38.94,38.94,0,0,1-5.13,2.09,54,54,0,0,1-8.25,1.8,182.25,182.25,0,0,1-24.38,1.52h-2a1,1,0,0,0-1,1v0a1,1,0,0,0,1,1h2c2.92,0,8.77-.07,15.12-.53,3.17-.22,6.47-.55,9.6-1a56.26,56.26,0,0,0,8.58-1.87h0a45.11,45.11,0,0,0,4.94-2,14.6,14.6,0,0,0,2.51-1.5,8.37,8.37,0,0,0,2.38-2.75A17,17,0,0,0,179,178a1.05,1.05,0,0,0-.69-1.29Zm4.4-1.49a8.68,8.68,0,0,0-2.36-2.37,4.47,4.47,0,0,0-2.43-.75h0a4.61,4.61,0,0,0-2.2.59,7.57,7.57,0,0,0-2.13,1.82c-.24.29-.43.56-.57.75s-.2.32-.21.33h0a1,1,0,0,0-.14.52,1.06,1.06,0,0,0,.5.9,1,1,0,0,0,.52.14,1,1,0,0,0,.69-.27l.06,0,.13-.27.17-.24h0a8,8,0,0,1,.89-1.06,4.84,4.84,0,0,1,1.09-.83,2.49,2.49,0,0,1,1.21-.34,2.45,2.45,0,0,1,1.35.44,6.67,6.67,0,0,1,1.78,1.82,1,1,0,0,0,.83.44,1,1,0,0,0,1-1A1.15,1.15,0,0,0,182.7,175.21Z"/><path class="cls-3" d="M76.92,151.51s-4.43-19.15-21.43-14.38-15.51,23.42-9.43,32,26.79,20.78,32.09,4C78,162.52,76.92,151.51,76.92,151.51Z"/><path class="cls-4" d="M55.49,137.13c17-4.77,21.43,14.38,21.43,14.38s0,.13,0,.36c0,0-7.46-16-22.82-12.2s-8.36,28.86-1.36,32.55,18.17,10,25.37.88c-5.3,16.76-26,4.51-32.09-4S38.49,141.89,55.49,137.13Z"/><path class="cls-13" d="M69.15,157.9A17.15,17.15,0,0,0,67,150.71a1,1,0,0,0-.15-.24A10.5,10.5,0,0,0,61.61,146a8.69,8.69,0,0,0-2.74-.6,1.44,1.44,0,0,0-1.43,1.29,1.2,1.2,0,0,0,1.2,1.32h.08a6.54,6.54,0,0,1,1.79.43,8.12,8.12,0,0,1,3,2,18.45,18.45,0,0,0-2.77,1A15,15,0,0,0,52.84,159c-.11.25-.22.51-.33.8a1.22,1.22,0,0,0,.68,1.59l.09,0a1.41,1.41,0,0,0,1.69-.88c.08-.21.17-.42.26-.63a12.06,12.06,0,0,1,6.39-6.1,15.94,15.94,0,0,1,3-1l.42-.08a16,16,0,0,1,1.49,5.61,1.15,1.15,0,0,0,.76,1,1.35,1.35,0,0,0,.67.07A1.43,1.43,0,0,0,69.15,157.9Z"/><path class="cls-3" d="M213.08,151.51s4.43-19.15,21.43-14.38,15.51,23.42,9.43,32-26.79,20.78-32.09,4C212.05,162.52,213.08,151.51,213.08,151.51Z"/><path class="cls-4" d="M234.51,137.13c-17-4.77-21.43,14.38-21.43,14.38s0,.13,0,.36c0,0,7.46-16,22.82-12.2s8.36,28.86,1.36,32.55-18.17,10-25.37.88c5.3,16.76,26,4.51,32.09-4S251.51,141.89,234.51,137.13Z"/><path class="cls-13" d="M220.85,157.9a17,17,0,0,1,2.13-7.19,1.38,1.38,0,0,1,.14-.24,10.56,10.56,0,0,1,5.27-4.47,8.69,8.69,0,0,1,2.74-.6,1.45,1.45,0,0,1,1.43,1.29,1.2,1.2,0,0,1-1.2,1.32h-.08a6.66,6.66,0,0,0-1.8.43,8.17,8.17,0,0,0-3,2,18.84,18.84,0,0,1,2.77,1,15,15,0,0,1,7.87,7.56c.11.25.22.51.32.8a1.21,1.21,0,0,1-.68,1.59l-.08,0a1.41,1.41,0,0,1-1.69-.88c-.08-.21-.17-.42-.26-.63a12.06,12.06,0,0,0-6.39-6.1,16.17,16.17,0,0,0-3-1l-.42-.08a16,16,0,0,0-1.49,5.61,1.15,1.15,0,0,1-.76,1,1.35,1.35,0,0,1-.67.07A1.43,1.43,0,0,1,220.85,157.9Z"/><path class="cls-12" d="M89,128.68s17.61-10,34.31-8.55c0,0-6.79-15.44-15.78-9.3S87,126.63,89,128.68Z"/><ellipse class="cls-14" cx="106.95" cy="143.74" rx="11.74" ry="11.9"/><path class="cls-2" d="M114.49,138.49c-.41,1-2.73,1.08-5.18.08s-4.08-2.65-3.66-3.7,2.73-1.09,5.17-.09S114.91,137.44,114.49,138.49Z"/><path class="cls-12" d="M198.17,128.68s-17.61-10-34.3-8.55c0,0,6.78-15.44,15.77-9.3S200.19,126.63,198.17,128.68Z"/><ellipse class="cls-14" cx="182.08" cy="143.74" rx="11.74" ry="11.9"/><path class="cls-2" d="M189.62,138.49c-.42,1-2.74,1.08-5.18.08s-4.08-2.65-3.67-3.7,2.74-1.09,5.18-.09S190,137.44,189.62,138.49Z"/><rect class="cls-15" x="93.65" y="293.55" width="99.49" height="12.11"/><rect class="cls-16" x="133.05" y="291.22" width="22.33" height="14.44"/></g></g></svg>