<svg xmlns="http://www.w3.org/2000/svg" viewBox="0 0 170.5 260"><defs><style>.cls-1{fill:#5dacb5;}.cls-2{fill:#4e979b;}.cls-3{fill:#ffbc36;}.cls-4{fill:#efa92b;}.cls-5{fill:#2f3233;}.cls-6{fill:#f7cea6;}.cls-7{fill:#e2af86;}</style></defs><title>资源 146</title><g id="图层_2" data-name="图层 2"><g id="Layer_1" data-name="Layer 1"><path class="cls-1" d="M0,260H31.68c4.57-9.35,13.79-26.56,15.43-30.26,2.17-4.87,4.15-53.45,4.15-53.45C40.93,171.42,8.8,243.86,0,260Z"/><path class="cls-2" d="M50,176.07l-6,4.2a83.25,83.25,0,0,0-8,11c1.84,7.39,4.81,22.25,2.27,33-3.52,14.88-11.63,26.23-14.33,34.89-.09.26-.16.52-.24.78h8.06c4.57-9.35,13.79-26.56,15.43-30.26,2.17-4.87,4.15-53.45,4.15-53.45A2.62,2.62,0,0,0,50,176.07Z"/><path class="cls-1" d="M119.24,176.29s2,48.58,4.15,53.45c1.64,3.7,10.86,20.91,15.43,30.26H170.5C161.7,243.86,129.57,171.42,119.24,176.29Z"/><path class="cls-2" d="M146.64,259.22c-2.7-8.66-10.81-20-14.33-34.89-2.54-10.76.43-25.62,2.27-33a82.36,82.36,0,0,0-8-11l-6-4.2a2.62,2.62,0,0,0-1.31.22s2,48.58,4.15,53.45c1.64,3.7,10.86,20.91,15.43,30.26h8.06Q146.78,259.61,146.64,259.22Z"/><polygon class="cls-1" points="48.2 173.94 39.95 260 130.54 260 122.3 173.94 109.85 165.51 60.64 165.51 48.2 173.94"/><path class="cls-2" d="M57.13,172.69l0,87.31H80.81c.91-5.06.42-12.11-.87-20.42C77.28,222.42,73.48,180,73.48,180s18.25,2.8,27,2.8,25-.35,22-10.15Z"/><path class="cls-3" d="M51.67,174.13s-3.33,28.52-3.33,36.06-2.72,27.62-4.76,32.86c-1.47,3.75-6.43,12.76-7.12,16.95h7c2.64-1.09,4.9-1.7,7.14,0H74.69c.16-.64.32-1.33.47-2.09,2.27-11.51-5.68-83.53-5.68-83.53S55,173.87,51.67,174.13Z"/><path class="cls-4" d="M64.86,173.12s.67,23.77-1.08,29.21-4.37.2-4.37.2l-.66-4s4.37,6.64,4.37-4A152.22,152.22,0,0,1,64.86,173.12Z"/><path class="cls-4" d="M51.67,174.13s-3.33,28.52-3.33,36.06-2.72,27.62-4.76,32.86c-1.47,3.75-6.43,12.76-7.12,16.95h7c2.64-1.09,4.9-1.7,7.14,0h2.12c-2.53-3-3.86-5.38-8.66-3.35-5.45,2.3-2.05,0-.68-3.14s11.81-14.23,11.81-34.74c0-16.66,2.09-37.46,2.87-44.69C55.29,174,52.81,174,51.67,174.13Z"/><path class="cls-4" d="M67.89,244.93c0,2.3.68,4.4-1.14,9.42A28.62,28.62,0,0,1,63.68,260h4.4C72.72,251.07,67.89,243.05,67.89,244.93Z"/><path class="cls-3" d="M117.26,157.11H48.42s-4,.88-3.33,3.19,1.61,3.83,1.61,5.55-.63,3.47.46,4.43l1.1,1-2.36.65a2,2,0,0,0,.51,2.77C48,176,50.5,176.72,53.73,176s19.57.7,25.21,1.41,41,2.18,43.54-1.33,1.36-5.22,1.36-6.43-2.53-2-2.53-2l1.38-2.22v-4.33C122.69,159.8,120.47,157.11,117.26,157.11Z"/><path class="cls-4" d="M104.38,167.46a72.82,72.82,0,0,0,18.31-6v4l-1.38,2.22s2.53.81,2.53,2a5,5,0,0,0,.13,1c-27.06,4.64-62.28,3.94-78.17,3.3a2,2,0,0,1,.1-2l2.36-.65-1.1-1C71,173.91,91.26,169.87,104.38,167.46Z"/><path class="cls-4" d="M48.42,157.11H62.13c10.94,1.8,21.86,5.78,17.75,9.37-21.62,1.61-31.39-4.81-34.58-7.63C46.13,157.61,48.42,157.11,48.42,157.11Z"/><path class="cls-5" d="M156.81,116.41c4.08-10,8-21,8-32.62C164.79,37.51,128.64,0,84.06,0S3.34,37.51,3.34,83.79a86.41,86.41,0,0,0,6.34,32.62Z"/><path class="cls-5" d="M154.22,122.4c-.17.25-.27.38-.27.38S154.05,122.65,154.22,122.4Z"/><path class="cls-6" d="M136.54,108.68s5.24-8.7,11-10.75,12.78.41,12.4,9.42-13.36,34.42-23.47,28.89C136.44,121.69,136.54,108.68,136.54,108.68Z"/><path class="cls-7" d="M151.07,106.53s-6.87,4.37-7.12,10.93,4.57,6.28,5.08,3a5.12,5.12,0,0,0-1.78-4.91A13.31,13.31,0,0,1,151.07,106.53Z"/><path class="cls-6" d="M28.81,108.68s-5.24-8.7-11-10.75-12.78.41-12.4,9.42,13.36,34.42,23.47,28.89C28.91,121.69,28.81,108.68,28.81,108.68Z"/><path class="cls-7" d="M14.28,106.53s6.87,4.37,7.13,10.93-4.58,6.28-5.09,3a5.12,5.12,0,0,1,1.78-4.91A13.31,13.31,0,0,0,14.28,106.53Z"/><path class="cls-6" d="M24.71,86.21v48.31c0,9.29,18.19,28.35,47.45,30.91S141,158.86,141,130.35V57.69S120.27,70,107.69,77.54l2-22.92L50.09,82,60.16,58.53Z"/><path class="cls-7" d="M76.23,128.44a1.24,1.24,0,0,1-.86-1.48h0a13,13,0,0,1,1.46-3.52h0a6.42,6.42,0,0,1,6-3.41H83a8,8,0,0,1,5.73,3.27h0a9.07,9.07,0,0,1,1.44,2.86h0a1.24,1.24,0,0,1-.79,1.52h0a1.13,1.13,0,0,1-1.41-.85h0a1,1,0,0,1,0-.12h0c0-.11-.09-.26-.17-.45h0a6.92,6.92,0,0,0-.82-1.43h0a5.67,5.67,0,0,0-4.17-2.35h-.1a3.93,3.93,0,0,0-3.56,1.83h0a9.8,9.8,0,0,0-1.41,3h0c0,.15-.06.21-.06.21h0a1.16,1.16,0,0,1-1.19.94h0a.57.57,0,0,1-.18,0Z"/><polygon class="cls-7" points="109.65 54.62 50.09 82.02 109.1 61.13 109.65 54.62"/><path class="cls-7" d="M141,63.48V57.69S120.27,70,107.69,77.54Z"/><polygon class="cls-7" points="55.45 69.52 60.16 58.53 25.05 85.95 55.45 69.52"/><path class="cls-5" d="M122.73,115.67a1.82,1.82,0,0,1,0-.27h0c0-.19-.09-.48-.18-.82h0a9.53,9.53,0,0,0-1.09-2.54h0c-1.15-1.8-3-3.55-7-3.58h0c-3.53,0-5.4,1.24-6.58,2.58h0a7.63,7.63,0,0,0-1.69,3.47h0l0,.22h0a1.21,1.21,0,0,1-1.32,1.07h0a1.21,1.21,0,0,1-1.07-1.32h0a9.92,9.92,0,0,1,1.69-4.23h0c1.44-2.11,4.3-4.2,9-4.18h0a10,10,0,0,1,9,4.72h0a11.77,11.77,0,0,1,1.65,4.66h0a1.19,1.19,0,0,1-1.08,1.3h-.11a1.2,1.2,0,0,1-1.19-1.09Z"/><path class="cls-5" d="M60.63,115.67s0-.07,0-.27h0c0-.19-.1-.48-.19-.82h0A9.8,9.8,0,0,0,59.33,112h0c-1.16-1.8-3-3.55-7-3.58h0c-3.53,0-5.4,1.24-6.59,2.58h0a7.58,7.58,0,0,0-1.68,3.47h0l0,.22h0a1.2,1.2,0,0,1-1.31,1.07h0a1.21,1.21,0,0,1-1.07-1.32h0a9.83,9.83,0,0,1,1.68-4.23h0c1.45-2.11,4.3-4.2,9-4.18h0a10,10,0,0,1,9,4.72h0A12,12,0,0,1,63,115.45h0a1.2,1.2,0,0,1-1.08,1.3h-.12a1.2,1.2,0,0,1-1.19-1.09Z"/><path class="cls-7" d="M102.15,139.93a17.32,17.32,0,0,0-3.86-2.13,1.2,1.2,0,0,0-.83,2.25s.39.14,1,.44a14.36,14.36,0,0,1,3,1.94,1.11,1.11,0,0,0-.77.28c-7.23,6.44-16.77,7.52-24.08,7.1a51.66,51.66,0,0,1-7.61-1c-1.88-.39-2.95-.73-2.95-.73a1.2,1.2,0,1,0-.72,2.28,50.28,50.28,0,0,0,11.15,1.85c7.61.44,17.84-.63,25.8-7.69a1.2,1.2,0,0,0,.39-.81,4.36,4.36,0,0,1,1,2.91,1.21,1.21,0,0,0,1.13,1.27,1.2,1.2,0,0,0,1.26-1.13C106.14,143.56,104,141.32,102.15,139.93Z"/><path class="cls-5" d="M59.65,94.63s-4.45-5.95-11.58-5-9.82,8.8-9.82,8.8a10.05,10.05,0,0,0,0,5.78S47.17,94.29,59.65,94.63Z"/><path class="cls-5" d="M106.73,94.63s4.44-5.95,11.57-5,9.83,8.8,9.83,8.8a10.06,10.06,0,0,1,0,5.78S119.2,94.29,106.73,94.63Z"/></g></g></svg>