<svg xmlns="http://www.w3.org/2000/svg" viewBox="0 0 210.72 263.5"><defs><style>.cls-1{fill:#7f5732;}.cls-2{fill:#f9dab4;}.cls-3{fill:#e8e3d9;}.cls-4{fill:#cec8bc;}.cls-5{fill:#f9f5ed;}.cls-6{fill:#f4d3b0;}.cls-7{fill:#efc4a0;}.cls-8{fill:#4c3626;}.cls-9{fill:#515151;}</style></defs><title>资源 299</title><g id="图层_2" data-name="图层 2"><g id="Layer_1" data-name="Layer 1"><path class="cls-1" d="M78.62.77c10.83-2.64,12.92,2.32,23.19,3s15.58-1.66,20.22,0,6.3,6.63,9.28,7.62,9.92-2.61,14.91,0c7,3.64,3.31,13.59,7.29,15.91s11.93,2.71,17.23,8.15,4.32,14,6.64,17.7,8.88,8.43,10.26,13.25c1.79,6.24,2.41,22.54,5.52,26.18s15,13.13,16.36,26.62,2.87,24.78-3.3,32.46c-4.17,5.19-6.31,4.22-8,7.86s3.31,10.94-.33,14.91-11.93,2.65-15.25,5.3-.33,9.28-10.93,11.93S77.29,215.5,61.05,209.21,50.78,197,43.49,193,27.58,188,22.61,183,14.33,166.13,11,162.48-.91,157.18.08,151.22,12.65,139,12.34,132.33c-.22-4.65-9.81-7.34-10.6-13.15C.75,111.93,9.36,108.8,9,103S3.32,97.11,3.19,91.14C3,82.92,21.62,78.64,22.28,73.67S16.16,65.6,17,59.42c.89-6.72,13.53-4.08,14.91-8,2-5.71-4.69-10.59-1-17.57,3.61-6.81,18.72-7.63,22.53-9.94C66,16.34,57.74,5.85,78.62.77Z"/><path class="cls-2" d="M41.06,263.5H63.71l8.43-63.42L51.32,203.8C46.82,223.58,43.27,241.59,41.06,263.5Z"/><path class="cls-2" d="M166.44,203.8l-20.81-3.72,8.42,63.42H176.7C174.5,241.59,171,223.58,166.44,203.8Z"/><path class="cls-3" d="M134.72,152.55H83.05s-25.76,26.27-36.94,61.91c0,0,10.92,4.16,15.34,4.16,0,0-2.28,22.3-3.39,44.88H159.7c-1.11-22.58-3.39-44.88-3.39-44.88,4.42,0,15.35-4.16,15.35-4.16C160.47,178.82,134.72,152.55,134.72,152.55Z"/><path class="cls-4" d="M57.88,218.13a18.1,18.1,0,0,0,3.57.49,227.9,227.9,0,0,1,3.94-23.05A133.24,133.24,0,0,0,57.88,218.13Z"/><path class="cls-4" d="M159.88,218.13a17.91,17.91,0,0,1-3.57.49,229.61,229.61,0,0,0-3.93-23.05A133.67,133.67,0,0,1,159.88,218.13Z"/><path class="cls-5" d="M115.68,253,105,255.61l-1.87-7.76a4.78,4.78,0,0,0-5.77-3.53l-12.34,3-2.53-10.51a2.46,2.46,0,0,0-4.78,1.15l2.53,10.51-14.33,3.45-2.53-10.51a2.44,2.44,0,0,0-3-1.81,2.28,2.28,0,0,0-.81.36c-.13,1.66-.26,3.39-.39,5.16L61.11,253l-2.49.6c-.21,3.23-.4,6.54-.56,9.86h48.81l-.75-3.11,10.71-2.58a2.46,2.46,0,0,0-1.15-4.78Z"/><path class="cls-4" d="M143.51,199.31l-3.88-1.05,1.41-5.18,3.88,1a.9.9,0,0,0,.47-1.73l-3.88-1.05.77-2.81a1.74,1.74,0,0,0-1.22-2.13l-4.46-1.22,1-3.8a.9.9,0,0,0-1.73-.47l-1,3.8-5.18-1.41,1-3.8A.89.89,0,0,0,129,179l-1,3.8-4.45-1.21a1.74,1.74,0,0,0-2.13,1.22l-.77,2.81-3.88-1.06a.9.9,0,0,0-.47,1.73l3.88,1.06-1.41,5.18-3.88-1.06a.9.9,0,1,0-.47,1.73l3.88,1-.52,1.93a1.73,1.73,0,0,0,1.22,2.13l4.45,1.21-1,3.82a.9.9,0,1,0,1.73.47l1-3.82,5.18,1.41-1,3.82a.89.89,0,1,0,1.72.47l1-3.82,4.46,1.22a1.75,1.75,0,0,0,2.14-1.22l.52-1.93L143,201a.9.9,0,0,0,.47-1.73Z"/><path class="cls-6" d="M48.69,103s-8.55-7.06-16.64-3.83c-7,2.78-20.74,22,24,40.86Z"/><path class="cls-6" d="M168.92,103s8.55-7.06,16.64-3.83c7,2.78,20.74,22-24,40.86Z"/><circle class="cls-2" cx="108.89" cy="103" r="67.57" transform="translate(-40.94 107.16) rotate(-45)"/><path class="cls-7" d="M104.08,144.54a137.71,137.71,0,0,1-23-1.74,1.36,1.36,0,1,1,.51-2.67,149,149,0,0,0,54.12-1.72,1.38,1.38,0,0,1,1.63,1,1.35,1.35,0,0,1-1,1.63A146.8,146.8,0,0,1,104.08,144.54Z"/><path class="cls-7" d="M108.37,117c8,0,7.33,6.91,7.33,6.91a8.58,8.58,0,0,0-7.41-4.42,10,10,0,0,0-7.94,4.42S100.39,117,108.37,117Z"/><polygon class="cls-8" points="81.38 88.51 81.38 94.6 50.28 98.51 50.28 92.73 81.38 88.51"/><path class="cls-9" d="M61.26,111.4a1.36,1.36,0,0,1-.4-2.66l16.41-5a1.36,1.36,0,1,1,.79,2.6l-16.41,5A1.32,1.32,0,0,1,61.26,111.4Z"/><polygon class="cls-8" points="136.05 88.51 136.05 94.6 167.14 98.51 167.14 92.73 136.05 88.51"/><path class="cls-9" d="M156.17,111.4a1.32,1.32,0,0,1-.39-.06l-16.41-5a1.36,1.36,0,1,1,.79-2.6l16.41,5a1.36,1.36,0,0,1-.4,2.66Z"/><path class="cls-7" d="M145.66,137h-.14c-7.54-.76-13.12-4.25-16.58-10.37a1.37,1.37,0,1,1,2.38-1.34c3,5.38,7.77,8.32,14.47,9a1.36,1.36,0,0,1-.13,2.72Z"/><path class="cls-7" d="M72,139.58a1.36,1.36,0,0,1-.12-2.72c6.27-.59,10.82-3.73,13.9-9.58a1.36,1.36,0,1,1,2.41,1.27c-3.49,6.64-8.89,10.35-16.06,11Z"/><path class="cls-8" d="M142.12,146.32c-2.49-6.42-12.74-9.71-12.74-9.71,6.24-.36,8.11,0,8.11,0-13.8-12.65-28.6-11.93-28.6-11.93S94.08,124,80.28,136.61c0,0,1.87-.36,8.11,0,0,0-10.25,3.29-12.74,9.71a13.55,13.55,0,0,1,6.68-3.12s-5.52,9.17-3.12,18.08c0,0,1-2.94,5-6,0,0-4.15,21.64,24.69,32.86,28.83-11.22,24.68-32.86,24.68-32.86,4,3,5,6,5,6,2.4-8.91-3.12-18.08-3.12-18.08A13.55,13.55,0,0,1,142.12,146.32Z"/><path class="cls-1" d="M51.16,143.2s1.43-8.37,0-10.33S46,131.09,46,128.24s4.09-6.06,4.27-8.73-6.41-9.62-5.16-11.75,9.26,3,10.5,0-2.31-9.62-2.13-12.11,6.59-3,7.3-6.24-7-7.83-5.17-12.64,12.29-4.63,15-9.62S72.89,54,84.82,47.56c0,0,0,11.75,7.13,15s17.45-2.85,26.36,1.07,9.44,7.3,15.85,8.19,13-3.74,16.21-1.07,3.2,10.87,8.9,12.47,7.12-1.25,10.33,1.07,3.38,10.33,11.22,7.66V65.55L89.63,11.94,39.94,61.27s-5.38,37.46,1.92,51.41c4.82,9.2,1.54,13.07,1.64,15.92.17,4.37,5.39,2.69,6.27,7.46C50.38,139.38,51.16,143.2,51.16,143.2Z"/></g></g></svg>