<svg xmlns="http://www.w3.org/2000/svg" viewBox="0 0 150.46 260.98"><defs><style>.cls-1{fill:#563a28;}.cls-2{fill:#f4efed;}.cls-3{fill:#3a332d;}.cls-4{fill:#e2dcd9;}.cls-5{fill:#3f3e3d;}.cls-6{fill:#302f2d;}.cls-7{fill:#4c453f;}.cls-8{fill:#f4d3b0;}.cls-9{fill:#f9dab4;}.cls-10{fill:#efc4a0;}.cls-11{fill:#e8dfd9;}</style></defs><title>资源 59</title><g id="图层_2" data-name="图层 2"><g id="Layer_1" data-name="Layer 1"><path class="cls-1" d="M36.6,261h83.45c.41-6.27.66-10.06.66-10.06H36Z"/><path class="cls-2" d="M115.3,257.49a241.18,241.18,0,0,0-71.68,0v-109H115.3Z"/><rect class="cls-3" x="71.99" y="165.03" width="9.04" height="10.58"/><polygon class="cls-3" points="73.77 174.58 63.98 234.87 77.79 250.4 90.81 234.38 79.03 174.58 73.77 174.58"/><polygon class="cls-4" points="52.22 162.51 52.22 184.41 76.79 170.32 99.35 184.41 100.31 162.42 52.22 162.51"/><path class="cls-5" d="M37.66,154.08S5,209,4.83,234.68C4.77,243.42,26,258.51,26,258.51L25.89,261H49.62c3.15-36.72,7.45-88.93,7.37-98.85Z"/><path class="cls-6" d="M21.7,255.23h0c2.53,2,4.31,3.28,4.31,3.28s2.59-47.61,2.18-61.76C28.19,196.75,24.45,252,21.7,255.23Z"/><path class="cls-5" d="M96.93,162.13c-.08,9.92,4.22,62.13,7.37,98.85H128l-.12-2.47s21.23-15.09,21.18-23.83c-.16-25.73-32.83-80.6-32.83-80.6Z"/><path class="cls-6" d="M132.22,255.23h0c-2.53,2-4.31,3.28-4.31,3.28s-2.6-47.61-2.19-61.76C125.72,196.75,129.46,252,132.22,255.23Z"/><path class="cls-7" d="M5.1,93.82s-6.49-52,6.3-52.49c0,0,2.23-47.56,77.08-39.4,0,0,24.73,4.06,32.93-.71s32.06,3,22.22,49.8c0,0,9.39-3.8,1,44.18l-34.29,40.07H34.18Z"/><path class="cls-3" d="M126.09,68.93s25-10.46,2.61-40.79c0,0-27.66,12.33-68.95,11.85C27,39.61,23.81,72.35,23.49,74.33l81.38,2.75Z"/><path class="cls-8" d="M22.8,101.83s-6.93-18-18.59-10,3.28,45,15.67,49.92Z"/><path class="cls-8" d="M127.67,101.83s6.92-18,18.58-10-3.28,45-15.67,49.92Z"/><path class="cls-9" d="M23.49,74.33s7.83-13.66,28.66-20.16,33.61,2.09,47.17,9.47a46.09,46.09,0,0,0,26.77,5.29l11.66,74.86a7.25,7.25,0,0,1-1.42,5.56c-4.55,5.86-19.1,18.44-60.27,18.44S19.27,155.3,14.11,149.41a7.24,7.24,0,0,1-1.71-5.93Z"/><path class="cls-10" d="M76.66,149.91c-9.5,0-17.75-1.23-24.5-3.65a35.61,35.61,0,0,1-13.42-8.16c-5.94-6-6.6-11.93-6.63-12.18a1.18,1.18,0,0,1,2.34-.23c0,.09.66,5.52,6.07,10.88,5.07,5,15.45,11,36.14,11s30.62-6,35.33-11c5.05-5.35,5.31-10.78,5.32-10.84a1.17,1.17,0,0,1,2.34.08c0,.26-.26,6.24-5.82,12.23a32.61,32.61,0,0,1-12.9,8.18C94.33,148.68,86.17,149.91,76.66,149.91Z"/><path class="cls-10" d="M61.94,125.29S68.84,130,75.36,130s15.11-4.69,15.11-4.69-9,7.29-15.11,7.29S61.94,125.29,61.94,125.29Z"/><circle class="cls-3" cx="44.79" cy="98.66" r="8.19" transform="translate(-21.54 12.99) rotate(-13.33)"/><path class="cls-11" d="M42.31,93.29c-.23,1.17,1.21,2.45,3.23,2.86s3.86-.22,4.09-1.39-1.21-2.45-3.23-2.86S42.55,92.11,42.31,93.29Z"/><path class="cls-3" d="M27.71,77.7v8.19a113.22,113.22,0,0,0,31.8-1.64V75.1A118.57,118.57,0,0,1,27.71,77.7Z"/><path class="cls-3" d="M99.38,98.66a8.19,8.19,0,1,0,8.19-8.18A8.19,8.19,0,0,0,99.38,98.66Z"/><path class="cls-11" d="M105.09,93.29c-.24,1.17,1.21,2.45,3.23,2.86s3.85-.22,4.09-1.39-1.21-2.45-3.23-2.86S105.33,92.11,105.09,93.29Z"/><path class="cls-3" d="M124.65,77.7v8.19a113.26,113.26,0,0,1-31.8-1.64V75.1A118.61,118.61,0,0,0,124.65,77.7Z"/></g></g></svg>