<svg xmlns="http://www.w3.org/2000/svg" viewBox="0 0 200.85 259.81"><defs><style>.cls-1{fill:#ad3936;}.cls-2{fill:#992b2b;}.cls-3{fill:#ba443e;}.cls-4{fill:#c65044;}.cls-5{fill:#f4d3b0;}.cls-6{fill:#ea9628;}.cls-7{fill:#f9dab4;}.cls-8{fill:#492020;}.cls-9{fill:#f9f5ed;}.cls-10{fill:#e0dbd3;}.cls-11{fill:#3a332d;}.cls-12{fill:#e8dfd9;}.cls-13{fill:#efc4a0;}</style></defs><title>资源 159</title><g id="图层_2" data-name="图层 2"><g id="Layer_1" data-name="Layer 1"><path class="cls-1" d="M35.87,148.6s-24.24,26.61-23.55,33.78,7.85,16.72,39.93,18.77,24.57-46.07,24.57-46.07Z"/><path class="cls-1" d="M133.18,148.6s24.24,26.61,23.55,33.78-7.85,16.72-39.93,18.77-24.57-46.07-24.57-46.07Z"/><path class="cls-2" d="M133.65,159c0,10.08-22,18.25-49.12,18.25S35.41,169.09,35.41,159s22-18.26,49.12-18.26S133.65,148.92,133.65,159Z"/><path class="cls-3" d="M47.62,154.74s-28.27,79.95-31.73,105H51.75C58.72,225.55,61.49,140.88,47.62,154.74Z"/><path class="cls-3" d="M111.77,152.35s90.09,44,89.07,77.46-22.18,25.26-22.18,25.26V220.26l-50.85-1Z"/><path class="cls-1" d="M188.21,237.78c0,17.72-3.46,19.33-7.73,19.33s-7.74-1.61-7.74-19.33,3.47-19.33,7.74-19.33S188.21,220.06,188.21,237.78Z"/><path class="cls-4" d="M98.33,154.3v-1.08l-13.8.54-13.81-.54v1.08l-19.91.78S36.62,224.9,38.06,259.73H131c1.44-34.83-12.75-104.65-12.75-104.65Z"/><path class="cls-5" d="M24.07,105.4S16.18,94.92,4.34,99.79s1.83,36.73,25.19,39.33Z"/><path class="cls-5" d="M145,105.4s7.89-10.48,19.72-5.61-1.81,36.73-25.18,39.33Z"/><path class="cls-6" d="M160.46,70.81c0,43.63-19.55,87.18-75.93,87.18S8.6,114.44,8.6,70.81,42.59,0,84.53,0,160.46,27.18,160.46,70.81Z"/><path class="cls-7" d="M136.65,69.88c-5.61-5.23-16.7-9.66-21.42-8.3S94.13,83.87,84.72,83.41h0a.86.86,0,0,1-.16,0,1,1,0,0,1-.17,0h0c-9.4.46-25.84-20.48-30.5-21.83S38,64.65,32.4,69.88c-4.23,4-11.67,32.68-15,46.46,9,26.79,29.87,50,67.18,50s58.13-23.21,67.17-50C148.32,102.56,140.89,73.84,136.65,69.88Z"/><path class="cls-8" d="M72.87,148.6a69.26,69.26,0,0,0,17.06-4c8-3.19,15.7-8,17.75-7.51s8.87,8.87,5.68,14.56-29,10.8-36.11,7.34S72.87,148.6,72.87,148.6Z"/><path class="cls-4" d="M111.44,153.57c-1.52-4.41-8.77-6.55-16.72-4.75-7.78,1.75-13.4,6.62-13.15,11.17C90.26,160.79,105.7,157.59,111.44,153.57Z"/><path class="cls-9" d="M137.7,240.16c-10.31,0-17.24-7.31-17.24-18.2,0-11.69,7.73-21.2,17.24-21.2,10.62,0,17.23,6.56,17.23,17.11C154.93,230,147,240.16,137.7,240.16Zm0-31.21c-4.91,0-9,6-9,13,0,6.36,3.3,10,9,10,4.65,0,9-6.86,9-14.11C146.74,214,145.8,209,137.7,209Z"/><path class="cls-10" d="M130.22,238.65c1.24-2.45,2.38-4.94,3.37-7.49-3.18-1.39-4.94-4.57-4.94-9.2,0-7.05,4.14-13,9-13l.33,0c.18-2.71.27-5.43.31-8.15-.22,0-.42-.06-.64-.06-9.51,0-17.24,9.51-17.24,21.2C120.46,229.93,124.19,236,130.22,238.65Z"/><path class="cls-9" d="M71.73,197.39h64.16s6.14,49.37-30.26,49.37S71.73,197.39,71.73,197.39Z"/><path class="cls-7" d="M181.62,228.79s-.91-15-14.79-15.7-33.18-.7-33.18,9.79c0,13.45,25,9.78,25,9.78s-12.29-.23-12.06,6.59,11,8,11,8-6,0-5.92,5.23,16.06,11.89,28.43,3C183.31,253.22,181.62,228.79,181.62,228.79Z"/><path class="cls-6" d="M30.57,96.23s17.47-1.82,32.09.52l.23-6.5L32.12,88.77Z"/><path class="cls-6" d="M132.07,96.67s-17.4-2.39-32.09-.53V89.65l30.8-.48Z"/><path class="cls-11" d="M58,110a7.06,7.06,0,1,1-7.06-7.06A7.07,7.07,0,0,1,58,110Z"/><path class="cls-12" d="M52.08,105c.18.85-.87,1.78-2.35,2.08s-2.81-.15-3-1,.88-1.78,2.36-2.08S51.92,104.18,52.08,105Z"/><path class="cls-11" d="M117.91,110a7.07,7.07,0,1,1-7.06-7.06A7.07,7.07,0,0,1,117.91,110Z"/><path class="cls-12" d="M112,105c.17.85-.89,1.78-2.36,2.08s-2.81-.15-3-1,.88-1.78,2.35-2.08S111.84,104.18,112,105Z"/><path class="cls-13" d="M71.57,126.83A11.18,11.18,0,0,0,81.64,133c7.21-.12,9.42-8.72,9.42-8.72s-3.89,6.55-9.63,6.4A16.76,16.76,0,0,1,71.57,126.83Z"/></g></g></svg>