<svg xmlns="http://www.w3.org/2000/svg" viewBox="0 0 146.74 259.9"><defs><style>.cls-1{fill:#f4efed;}.cls-2{fill:#4d9980;}.cls-3{fill:#e2dcd9;}.cls-4{fill:#bf8660;}.cls-5{fill:#ba8156;}.cls-6{fill:#7f5732;}.cls-7{fill:#515151;}.cls-8{fill:#f4d3b0;}.cls-9{fill:#f9dab4;}.cls-10{fill:#393c3d;}.cls-11{fill:#efc4a0;}</style></defs><title>资源 320</title><g id="图层_2" data-name="图层 2"><g id="Layer_1" data-name="Layer 1"><rect class="cls-1" x="34.76" y="146.74" width="77.23" height="113.16"/><rect class="cls-2" x="68.24" y="161.75" width="11.67" height="13.65" rx="2.64"/><polygon class="cls-2" points="70.53 174.08 57.7 258.05 60.26 259.9 87.72 259.9 90.72 257.57 77.32 174.08 70.53 174.08"/><polygon class="cls-3" points="42.38 158.51 45.77 186.76 74.09 168.58 102.79 186.76 104.45 158.38 42.38 158.51"/><path class="cls-4" d="M23.78,259.9l2.9-107.49S8.33,185.56,0,259.9Z"/><path class="cls-4" d="M120.07,152.41,123,259.9h23.78C138.42,185.56,120.07,152.41,120.07,152.41Z"/><path class="cls-5" d="M34.75,152l-8.07.46s-4.9,42-7,107.49H127.05c-2.09-65.45-7-107.49-7-107.49L112,152,73.37,223.44Z"/><polygon class="cls-6" points="73.37 223.44 102.11 217.04 97.17 202.59 115.1 196.19 108.97 157.54 73.37 223.44"/><polygon class="cls-6" points="73.37 223.44 44.63 217.04 49.57 202.59 31.65 196.19 37.77 157.54 73.37 223.44"/><path class="cls-6" d="M78.7,235.22a5.33,5.33,0,1,1-5.33-5.33A5.33,5.33,0,0,1,78.7,235.22Z"/><path class="cls-6" d="M78.7,254.15a5.33,5.33,0,1,1-5.33-5.33A5.33,5.33,0,0,1,78.7,254.15Z"/><path class="cls-7" d="M7.07,103.34S-30.52,0,73.37,0s66.47,103.34,66.47,103.34Z"/><path class="cls-8" d="M21.63,103.65s-7.46-9.58-14.35-5c-9.13,6.12-5.05,19.42,1.77,27.81a31.22,31.22,0,0,0,12.58,8.86Z"/><path class="cls-8" d="M125.39,103.65s7.47-9.58,14.36-5c9.12,6.12,5.05,19.42-1.78,27.81a31.22,31.22,0,0,1-12.58,8.86Z"/><path class="cls-9" d="M129.44,129.31a30.36,30.36,0,0,1-18.07,27.83,95.18,95.18,0,0,1-38,8.43,95.21,95.21,0,0,1-37.73-8.31A30.52,30.52,0,0,1,17.3,129.31V53.2H129.44Z"/><polygon class="cls-10" points="46.6 75.22 46.6 82.6 20.95 83.09 20.95 75.22 46.6 75.22"/><polygon class="cls-10" points="100.14 75.22 100.14 82.6 125.79 83.09 125.79 75.22 100.14 75.22"/><path class="cls-7" d="M26.63,106.32a1.32,1.32,0,0,1-1.31-1.18c-.05-.46-1.11-11.28,6.83-13.32,6.38-1.64,10.63,4.34,12,7.72a1.32,1.32,0,0,1-2.45,1c-.12-.31-3.16-7.62-8.88-6.15s-4.88,10.39-4.87,10.48a1.32,1.32,0,0,1-1.17,1.45Z"/><path class="cls-7" d="M120.84,106.32h-.14a1.32,1.32,0,0,1-1.17-1.45h0c0-.09.87-9-4.87-10.48s-8.85,6.07-8.88,6.15a1.32,1.32,0,1,1-2.45-1c1.36-3.38,5.62-9.36,12-7.72,8,2,6.88,12.86,6.83,13.32A1.32,1.32,0,0,1,120.84,106.32Z"/><polygon class="cls-11" points="63.54 96.43 63.54 125.27 75.76 131.46 86.53 126.22 76 127.65 66.21 122.17 63.54 96.43"/><path class="cls-11" d="M94.92,145.79H50.47a1.32,1.32,0,0,1,0-2.64H94.92a1.32,1.32,0,0,1,0,2.64Z"/><path class="cls-7" d="M16.5,73.89s21.41-13.47,32-15.39,25,6.73,16.84,23.81c0,0,17.07-2.18,18.72-19.73,0,0,13.37,6.36,4.94,18,0,0,21.28-1.87,18.75-13.71,0,0,9.76,2.08,6.58,13.16,0,0,15.12.11,18.83-9.75V44.79H16.5Z"/></g></g></svg>