<svg xmlns="http://www.w3.org/2000/svg" viewBox="0 0 154.99 260"><defs><style>.cls-1{fill:#f4efed;}.cls-2{fill:#e2dcd9;}.cls-3{fill:#3f3e3d;}.cls-4{fill:#515151;}.cls-5{fill:#302f2d;}.cls-6{fill:#f4d3b0;}.cls-7{fill:#f9dab4;}.cls-8{fill:#7f5732;}.cls-9{fill:#3a332d;}.cls-10{fill:#efc4a0;}</style></defs><title>资源 94</title><g id="图层_2" data-name="图层 2"><g id="Layer_1" data-name="Layer 1"><rect class="cls-1" x="47.69" y="166.09" width="60.53" height="56.98"/><path class="cls-2" d="M86.94,179.55a3.19,3.19,0,1,1-3.19-3.19A3.18,3.18,0,0,1,86.94,179.55Z"/><path class="cls-2" d="M86.94,193.9a3.19,3.19,0,1,1-3.19-3.18A3.19,3.19,0,0,1,86.94,193.9Z"/><path class="cls-2" d="M86.94,208.25a3.19,3.19,0,1,1-3.19-3.18A3.19,3.19,0,0,1,86.94,208.25Z"/><path class="cls-2" d="M49.38,161.87s-13,15.35.72,15.35,28.08-8.5,28.08-8.5a47,47,0,0,0,26.56,8.5c15.61,0,1.48-15.35,1.48-15.35Z"/><path class="cls-2" d="M78.54,171.12v51.95S73.3,193.33,78.54,171.12Z"/><path class="cls-3" d="M77.8,217.1c-20.75-14.25-28.42-55.23-28.42-55.23-9.4,2.3-12.21,5.2-12.21,5.2L34,260h87.55l-3.15-92.93s-2.8-2.9-12.2-5.2C106.22,161.87,98.54,202.85,77.8,217.1Z"/><path class="cls-4" d="M49.38,161.87s-11.83,8.38-10,18,16.42,18.77,16.42,18.77-6,6.15-3.35,11.77c3,6.46,25.37,6.67,25.37,6.67l-.26-.18C57,202.51,49.38,161.87,49.38,161.87Z"/><path class="cls-4" d="M106.22,161.87s11.82,8.38,10,18-16.42,18.77-16.42,18.77,6,6.15,3.36,11.77c-3,6.46-25.37,6.67-25.37,6.67l.25-.18C98.6,202.51,106.22,161.87,106.22,161.87Z"/><path class="cls-3" d="M34.17,260c1.56-32.64,2.63-63.82,3-92.93,0,0-22.8,24.25-26.53,92.93Z"/><path class="cls-3" d="M118.42,167.07c-.17,18.31,1.4,55.3,3,92.93H145C141.22,191.32,118.42,167.07,118.42,167.07Z"/><polygon class="cls-5" points="34.07 260 36.34 191.95 30.55 260 34.07 260"/><polygon class="cls-5" points="119.25 191.95 121.52 260 125.05 260 119.25 191.95"/><path class="cls-6" d="M21.1,94.4s-5.1-10.46-16-4.57S.31,134.94,26.07,139.25Z"/><path class="cls-6" d="M133.89,94.4s5.1-10.46,16-4.57,4.84,45.11-20.92,49.42Z"/><path class="cls-7" d="M18.08,66v58.58c2.25,37.34,35,42.26,59.29,42.26s57-4.92,59.3-42.26h0V71.26Z"/><path class="cls-8" d="M5.14,89.83S-8.22,0,77.37,0s72.47,89.83,72.47,89.83a9.49,9.49,0,0,0-12.26,2.48c-1.64,2.45-1.17,4.44-.12,7.24C71.76,105.65,47,88,35.94,77.83c-4.36-4-8.39-9.77-14.65-8.39L19.56,92.13C14.85,89.07,9.64,87.71,5.14,89.83Z"/><path class="cls-9" d="M43.37,121.6a1.24,1.24,0,0,1-.56-.13,1.32,1.32,0,0,1-.63-1.74c.09-.18,2.17-4.47,8.68-4.6s8.66,4.43,8.74,4.63a1.29,1.29,0,0,1-.66,1.72,1.31,1.31,0,0,1-1.73-.67c-.05-.12-1.53-3.17-6.3-3.07s-6.3,3-6.36,3.11A1.3,1.3,0,0,1,43.37,121.6Z"/><path class="cls-9" d="M104,121.6a1.4,1.4,0,0,1-.53-.11,1.32,1.32,0,0,1-.67-1.73c.09-.2,2.18-4.76,8.75-4.63s8.59,4.42,8.67,4.6a1.31,1.31,0,0,1-2.36,1.12c-.08-.15-1.58-3-6.37-3.11s-6.24,3-6.3,3.08A1.29,1.29,0,0,1,104,121.6Z"/><path class="cls-10" d="M69,130.67s1.79,9.1,11.31,8.82a11.62,11.62,0,0,0,11.31-8.82s-5.7,5.76-11.31,5.76S69,130.67,69,130.67Z"/><path class="cls-10" d="M82.05,157c-.6,0-1.22,0-1.83,0-10.44-.33-20.56-3.43-27.77-8.52a1.18,1.18,0,0,1,1.36-1.92c13.13,9.27,38,12.08,55.15.46a1.18,1.18,0,0,1,1.32,1.95C102.55,154.11,92.59,157,82.05,157Z"/><path class="cls-8" d="M39.27,108.43l0,0-3.46-3.92c.41-.36,4.23-3.54,12.14-3.58s11.78,3.24,12.19,3.61l-3.52,3.87,0,0c-.11-.09-2.76-2.28-8.68-2.27S39.38,108.34,39.27,108.43Z"/><path class="cls-8" d="M123.48,108.43c-.11-.09-2.81-2.27-8.73-2.3s-8.57,2.18-8.68,2.27l0,0-3.52-3.87c.4-.37,4.19-3.61,12.06-3.61h.13c7.9,0,11.73,3.22,12.14,3.58l-3.46,3.92Z"/></g></g></svg>