<svg xmlns="http://www.w3.org/2000/svg" viewBox="0 0 204.06 260.01"><defs><style>.cls-1{fill:#f9f5ed;}.cls-2{fill:#494949;}.cls-3{fill:#9e6f4c;}.cls-4{fill:#f4d3b0;}.cls-5{fill:#f9dab4;}.cls-6{fill:#c65044;}.cls-7{fill:#efc4a0;}.cls-8{fill:#3a332d;}.cls-9{fill:#e8dfd9;}</style></defs><title>资源 169</title><g id="图层_2" data-name="图层 2"><g id="Layer_1" data-name="Layer 1"><path class="cls-1" d="M74.36,192.13S49.83,247.81,48.68,260H71.75C77.91,239,84,183.86,74.36,192.13Z"/><path class="cls-1" d="M129.71,192.13c-9.62-8.27-3.56,46.91,2.6,67.88h23.07C154.23,247.81,129.71,192.13,129.71,192.13Z"/><path class="cls-2" d="M192.61,144.82c6.72-3.87,11.45-13.22,11.45-24.15,0-10.08-4-18.81-9.92-23.15,6.83-7.16,8-20.87,2-33.81-5.69-12.3-16.07-20.17-25.57-20.43,2.22-8.45-2.36-19.6-12.07-27.48-11.7-9.51-26.52-10.73-33.61-3-3.37-7-11.13-12-20.36-12.7L103.43.07c-.38,0-.73-.07-1.11-.07h-.57c-.38,0-.74.06-1.11.07L99.55.14c-9.23.71-17,5.72-20.36,12.7-7.09-7.77-21.9-6.55-33.61,3-9.71,7.88-14.29,19-12.06,27.48C24,43.54,13.63,51.41,7.94,63.71c-6,12.94-4.85,26.65,2,33.81C4,101.86,0,110.59,0,120.67,0,131.6,4.74,141,11.45,144.82,4.74,147.89,0,155.29,0,163.94c0,11.4,8.21,20.64,18.34,20.64a15.11,15.11,0,0,0,1.51-.09,14.07,14.07,0,0,0-1.51,6.27c0,9.42,9.6,17.06,21.43,17.06.62,0,1.22,0,1.82-.07v.07c0,8.38,8.78,15.16,19.61,15.16,8.21,0,15.23-3.89,18.15-9.41h45.36c2.93,5.52,10,9.41,18.15,9.41,10.83,0,19.61-6.78,19.61-15.16v-.07c.6,0,1.21.07,1.82.07,11.84,0,21.43-7.64,21.43-17.06a13.93,13.93,0,0,0-1.51-6.27,15.11,15.11,0,0,0,1.51.09c10.13,0,18.34-9.24,18.34-20.64C204.06,155.29,199.33,147.89,192.61,144.82Z"/><path class="cls-3" d="M147.14,188.88c-1.72-8.6-9.46-4.88-9.46-4.88s3.44-8.59,0-11.75-14.19-1.43-14.19-1.43,5.59-6.3,4.73-9.46-9.46-4.3-9.46-4.3L85.3,158.5s-8.6,1.14-9.46,4.3,4.73,9.45,4.73,9.45-10.75-1.72-14.18,1.44,0,11.75,0,11.75-7.74-3.73-9.46,4.87-5.44,49-9.46,59.33A9.83,9.83,0,0,0,49.78,260H66.17a19.85,19.85,0,0,0,3.08-3.78,21.44,21.44,0,0,0,.39,3.78h64.15a28.81,28.81,0,0,0,1-5.21,18.24,18.24,0,0,0,4.85,5.21h13c3.66-2.64,5.69-7.33,4-11.8C152.58,237.89,148.86,197.48,147.14,188.88Z"/><path class="cls-4" d="M57.88,121.81S45,111.49,38.67,116.94,39,139,62.18,139.29Z"/><path class="cls-4" d="M146.19,121.81s12.9-10.32,19.2-4.87-.29,22.07-23.5,22.35Z"/><path class="cls-5" d="M159.87,85.41,104,73.09h-3.91L44.19,85.41S39,156.49,100.94,167.09h2.18C165,156.49,159.87,85.41,159.87,85.41Z"/><path class="cls-6" d="M87.31,143.1s3.45-5.36,7.43-5.12,6.15,4.21,6.15,4.21,3.58-4.12,7.77-4,6,5.37,6,5.37-4.15,10-14.09,10S87.31,143.1,87.31,143.1Z"/><path class="cls-7" d="M94.13,131.87s.69-6.34,6.6-6.37,7.12,6.37,7.12,6.37-3.23-3.91-7-3.91S94.13,131.87,94.13,131.87Z"/><path class="cls-2" d="M144.84,102.65s-11.49-2.21-21.2-.57l.35-2c.43-2.4,3.55-4.26,9.82-4.64s10,1.52,10.52,4.3Z"/><path class="cls-8" d="M130.42,121a1.23,1.23,0,0,1-1.24-1.12,1.25,1.25,0,0,1,1.12-1.37c.08,0,8.62-.85,12-2.88a1.27,1.27,0,0,1,1.72.43,1.25,1.25,0,0,1-.43,1.71c-3.82,2.32-12.64,3.19-13,3.23Z"/><path class="cls-8" d="M131.75,118.29h-.18a1.26,1.26,0,0,1-1.23-1.27,1.23,1.23,0,0,1,1.24-1.23h.16c6.29,0,10-5.13,10.06-5.18a1.25,1.25,0,0,1,2,1.43C143.66,112.3,139.35,118.29,131.75,118.29Z"/><path class="cls-8" d="M124.5,116.31a6.14,6.14,0,1,0,4.51-7.42A6.15,6.15,0,0,0,124.5,116.31Z"/><path class="cls-9" d="M127.7,111.38c0,.9,1.32,1.57,2.87,1.51s2.77-.84,2.73-1.73-1.32-1.58-2.86-1.52S127.67,110.48,127.7,111.38Z"/><path class="cls-2" d="M57.15,102.65s11.48-2.21,21.19-.57l-.35-2c-.43-2.4-3.55-4.26-9.82-4.64s-10,1.52-10.52,4.3Z"/><path class="cls-8" d="M71.57,121a1.24,1.24,0,0,0,1.24-1.12,1.26,1.26,0,0,0-1.13-1.37c-.08,0-8.62-.85-12-2.88a1.25,1.25,0,0,0-1.71.43,1.24,1.24,0,0,0,.42,1.71c3.83,2.32,12.64,3.19,13,3.23Z"/><path class="cls-8" d="M70.23,118.29h.19A1.27,1.27,0,0,0,71.65,117a1.25,1.25,0,0,0-1.25-1.23h-.16c-6.29,0-10-5.13-10.06-5.18a1.25,1.25,0,0,0-2,1.43C58.32,112.3,62.63,118.29,70.23,118.29Z"/><path class="cls-8" d="M77.48,116.31A6.14,6.14,0,1,1,73,108.89,6.14,6.14,0,0,1,77.48,116.31Z"/><path class="cls-9" d="M74.28,111.38c0,.9-1.32,1.57-2.87,1.51s-2.77-.84-2.73-1.73,1.32-1.58,2.86-1.52S74.32,110.48,74.28,111.38Z"/><path class="cls-2" d="M38.41,108.63S46.14,96,55.6,97.45,80,100.6,84.84,93.15c0,0,7.45,5.73,21.78,2.29S128.5,78.82,128.5,78.82s-1.25,6.88,9.07,12.9,20.35,8.59,20.92,16.91l18.35-25.8L134.13,55.89,83.69,49,42.6,63.34,27.23,98.88Z"/></g></g></svg>