<svg xmlns="http://www.w3.org/2000/svg" viewBox="0 0 250.87 260"><defs><style>.cls-1{fill:#e0dbd3;}.cls-2{fill:#c4c0bb;}.cls-3{fill:#7f5732;}.cls-4{fill:#f9dab4;}.cls-5{fill:#2f3233;}.cls-6{fill:#ddac8c;}.cls-7{fill:#5b391d;}.cls-8{fill:#ddc357;}.cls-9{fill:#8e6644;}.cls-10{fill:#e5be9e;}.cls-11{fill:#f7cea6;}.cls-12{fill:#44302c;}.cls-13{fill:#f9f5ed;}.cls-14{fill:#c46345;}</style></defs><title>资源 148</title><g id="图层_2" data-name="图层 2"><g id="Layer_1" data-name="Layer 1"><path class="cls-1" d="M59.64,184.4C56.82,195,44.45,239.13,40.49,260h41.7l.42-86.34s-9.1.15-12.38.15S62.77,172.62,59.64,184.4Z"/><path class="cls-2" d="M59.64,184.4c-.68,2.56-1.91,7.06-3.45,12.7,4.27,6,12,20.08,10.46,42.34-.62,9-1.05,15.66-1.36,20.56h16.9l.42-86.34s-9.1.15-12.38.15S62.77,172.62,59.64,184.4Z"/><path class="cls-1" d="M187.17,184.4c-3.13-11.78-7.3-10.59-10.59-10.59s-12.38-.15-12.38-.15l.42,86.34h41.71C202.37,239.13,190,195,187.17,184.4Z"/><path class="cls-2" d="M187.17,184.4c-3.13-11.78-7.3-10.59-10.59-10.59s-12.38-.15-12.38-.15l.42,86.34h16.9c-.3-4.9-.74-11.55-1.36-20.56-1.52-22.26,6.2-36.36,10.46-42.34C189.09,191.46,187.85,187,187.17,184.4Z"/><path class="cls-1" d="M87.83,152.63s-8.8,4.78-8.8,8.8,10.89,6.12,10.89,6.12-12.28-2-13,0c-2.09,5.9-1.65,8-1.65,8s60.56,6.56,93.68,0c0,0,4.32.45-2.39-6.26,4.47-4.48,11-1.2,7.76-4.48s-10.15-11.93-14.92-11.93S125.12,159.79,87.83,152.63Z"/><path class="cls-1" d="M81,170.63s-4.37,4-6.76,47.33c-.91,16.5-1.87,30.34-2.83,42H178.86c-3.93-38.34-9.71-87-15-89.52C145.41,172.22,81,170.63,81,170.63Z"/><path class="cls-2" d="M85.45,169.34c19.09,1.79,7-2.24,1.79-7.46s14.32-.45,14.32-.45a12.49,12.49,0,0,0-1.22-6.86c-4-.48-8.23-1.12-12.51-1.94,0,0-8.8,4.78-8.8,8.8s10.89,6.12,10.89,6.12-12.28-2-13,0c-2.09,5.9-1.65,8-1.65,8s12,1.3,28.17,2.16c-2-.56-5.32-1.28-10.56-2.16C78.94,173.27,77,171.13,85.45,169.34Z"/><path class="cls-2" d="M166.59,169.34c4.47-4.48,11-1.2,7.76-4.48s-10.15-11.93-14.92-11.93c-2.1,0-9,1.33-19.26,2.21l-11.91,2.27-3.73,10.44s9.09,4.32,21-.9,17.6-10.14,19.46-8.28,7.09,4.7,1.87,7.09-7.16,3.58-4.25,5.44,5.59,2.91-.23,3.66-25.65,2-22.52,3.52A180.85,180.85,0,0,0,169,175.6S173.3,176.05,166.59,169.34Z"/><path class="cls-3" d="M200.21,81.61c0,45.07-33.67,81.6-75.21,81.6s-75.21-36.53-75.21-81.6S83.46,0,125,0,200.21,36.54,200.21,81.61Z"/><path class="cls-4" d="M181.49,63.76v61.07c0,17-18.43,40.41-56.88,40.24-37.43-.16-56.3-23.89-56.3-37.72V68.93s16.48-23.47,51.92-23.47C168.39,45.46,181.49,63.76,181.49,63.76Z"/><path class="cls-5" d="M140.56,98.53s15.27-16.86,26.87.18c0,0,.5-4.44-5-8.7-5.94-4.6-14.58-3.16-19.55,2.45C139.37,96.41,140.56,98.53,140.56,98.53Z"/><path class="cls-5" d="M105,98.53S89.7,81.67,78.1,98.71c0,0-.5-4.44,5-8.7,5.94-4.6,14.59-3.16,19.56,2.45C106.16,96.41,105,98.53,105,98.53Z"/><path class="cls-6" d="M129.4,122a1.31,1.31,0,0,1,.89,1.57h0a13.25,13.25,0,0,1-1.52,3.72h0a6.61,6.61,0,0,1-6.16,3.61h0l-.19,0h0a8.23,8.23,0,0,1-6-3.44h0a9.66,9.66,0,0,1-1.5-3h0a1.33,1.33,0,0,1,.83-1.6h0a1.18,1.18,0,0,1,1.46.9h0a1,1,0,0,1,0,.13h0l.18.47h0a7.08,7.08,0,0,0,.85,1.51h0a5.9,5.9,0,0,0,4.33,2.49h.1a4,4,0,0,0,3.69-1.94h0a10.12,10.12,0,0,0,1.47-3.18h0c0-.16.06-.22.06-.22h0a1.2,1.2,0,0,1,1.23-1h0a1.08,1.08,0,0,1,.19,0Z"/><path class="cls-3" d="M181.49,99.87S177.85,71.72,164.4,63c0,0-9.55,11.64-21.32,15.37,0,0,5-8.6,5-17C133.13,81.26,99.3,86,99.3,86s15.29-12.32,15.29-23.86c-14.54,15.91-46.28,37.92-46.28,37.92L65.16,61l54.16-27.06,38.9,1.6L183.3,59.38l1.09,8Z"/><path class="cls-3" d="M238.47,59.25c-9.16,2.26-18.79-5.57-21.5-17.48s2.51-23.41,11.68-25.67,18.79,5.57,21.5,17.49S247.64,57,238.47,59.25Z"/><path class="cls-7" d="M249.75,47.43c-10.64,12.23-24.84-.71-24.84-.71L222.78,43l-5.12,1.26c3.41,10.48,12.31,17.07,20.81,15C243.87,57.91,247.91,53.37,249.75,47.43Z"/><path class="cls-7" d="M221.87,39.81s-4.69-15.45,8.89-24a13.81,13.81,0,0,0-2.11.33c-9.13,2.25-14.34,13.65-11.72,25.51Z"/><path class="cls-8" d="M191,43.62s21.54-3.11,32.92-8.12c6.51,7.83,3.17,12.73,3.17,12.73S202,54.81,194.72,60.69C189.43,58.22,186.29,46.58,191,43.62Z"/><path class="cls-3" d="M223.12,49.33c2.41-.69,3.94-1.1,3.94-1.1s3.34-4.9-3.17-12.73c-1.08.48-2.25.93-3.48,1.38C221.84,39.13,223.57,43.21,223.12,49.33Z"/><path class="cls-3" d="M216.71,38.09c-1.54.46-3.13.9-4.74,1.32,1.74,6,1.81,10.14,1.26,13,1.77-.59,3.48-1.14,5.07-1.63A31.79,31.79,0,0,0,216.71,38.09Z"/><path class="cls-3" d="M203.53,56c1.88-.78,3.88-1.55,5.88-2.26.92-4.77-.24-10.33-1.07-13.41-2,.47-3.92.88-5.74,1.26C204.17,46.89,203.78,53.43,203.53,56Z"/><path class="cls-3" d="M197.82,42.48c-4.07.74-6.85,1.14-6.85,1.14-4.68,3-1.54,14.6,3.75,17.07a24.1,24.1,0,0,1,3.81-2.4A30.24,30.24,0,0,0,197.82,42.48Z"/><path class="cls-9" d="M243.56,29c-.89.72-2.87-.58-4.42-2.92s-2.07-4.82-1.17-5.55,2.87.58,4.42,2.92S244.46,28.25,243.56,29Z"/><path class="cls-3" d="M12.39,59.25c9.17,2.26,18.79-5.57,21.51-17.48S31.38,18.36,22.22,16.1,3.43,21.67.72,33.59,3.23,57,12.39,59.25Z"/><path class="cls-7" d="M1.11,47.43C11.76,59.66,26,46.72,26,46.72L28.09,43l5.11,1.26c-3.4,10.48-12.3,17.07-20.81,15C7,57.91,3,53.37,1.11,47.43Z"/><path class="cls-7" d="M29,39.81s4.69-15.45-8.89-24a14,14,0,0,1,2.11.33c9.12,2.25,14.34,13.65,11.71,25.51Z"/><path class="cls-8" d="M59.9,43.62S38.36,40.51,27,35.5c-6.51,7.83-3.18,12.73-3.18,12.73s25.06,6.58,32.35,12.46C61.43,58.22,64.57,46.58,59.9,43.62Z"/><path class="cls-3" d="M27.75,49.33c-2.42-.69-3.95-1.1-3.95-1.1S20.47,43.33,27,35.5c1.08.48,2.25.93,3.48,1.38A20,20,0,0,0,27.75,49.33Z"/><path class="cls-3" d="M34.15,38.09c1.54.46,3.14.9,4.74,1.32-1.74,6-1.8,10.14-1.26,13-1.77-.59-3.48-1.14-5.07-1.63A32.15,32.15,0,0,1,34.15,38.09Z"/><path class="cls-3" d="M47.33,56c-1.88-.78-3.87-1.55-5.87-2.26-.92-4.77.23-10.33,1.07-13.41,2,.47,3.91.88,5.74,1.26C46.69,46.89,47.09,53.43,47.33,56Z"/><path class="cls-3" d="M53.05,42.48c4.07.74,6.85,1.14,6.85,1.14,4.67,3,1.53,14.6-3.75,17.07a24.24,24.24,0,0,0-3.82-2.4A30.33,30.33,0,0,1,53.05,42.48Z"/><path class="cls-9" d="M7.3,29c.9.72,2.88-.58,4.42-2.92s2.08-4.82,1.18-5.55-2.88.58-4.42,2.92S6.41,28.25,7.3,29Z"/><path class="cls-4" d="M177.92,99.16s8.16-11.52,17.4-1.55.11,31.06-15.59,21.07Z"/><path class="cls-10" d="M184.74,113.49s-2-12.4,2.68-12.81S194.73,112.6,184.74,113.49Z"/><path class="cls-11" d="M187.42,100.68a3.54,3.54,0,0,1,3.22,2.16c-1.93,2.6-4.82,6.88-5.93,10.42C184.47,111.59,183.16,101.06,187.42,100.68Z"/><path class="cls-4" d="M71,102s-9.2-10.7-17.48.08S56.33,133.05,71,121.64Z"/><path class="cls-10" d="M65.56,116.94s.78-12.52-3.87-12.5S55.52,117,65.56,116.94Z"/><path class="cls-11" d="M61.69,104.44a3.53,3.53,0,0,0-3,2.45c2.16,2.42,5.44,6.41,6.88,9.82C65.65,115,66,104.42,61.69,104.44Z"/><path class="cls-12" d="M145.33,114.62l.23.22a11.15,11.15,0,0,0,6.73,2.43c4.48.36,10.93-.22,13.51-5.14,2.38-4.54-3.17-4.83-5.63-3.47-2.3,1.28-5.11,2.79-7.75,2.18-2.11-.48-4.71-3.17-6.9-1.91S143.76,113,145.33,114.62Z"/><path class="cls-13" d="M161.17,110c-.26.61.37,1.39,1.41,1.73s2.1.12,2.37-.49-.37-1.39-1.41-1.73S161.44,109.41,161.17,110Z"/><path class="cls-12" d="M138.8,114.2a.75.75,0,0,1-.25-1h0a.74.74,0,0,1,1-.25h0a3.68,3.68,0,0,0,1.21.45h0a7.89,7.89,0,0,0,4.05-.59h0a3.75,3.75,0,0,0,.39-.17h0a.75.75,0,0,1,1,.34h0a.76.76,0,0,1-.34,1h0a9.77,9.77,0,0,1-5.37.88h0a5,5,0,0,1-1.7-.64Z"/><path class="cls-12" d="M143.11,117.49a.74.74,0,0,1,.75-.75h0c1.83,0,3.58-1.77,4.29-2.73h0c.24-.31.36-.5.36-.5h0a.74.74,0,0,1,1-.23h0a.76.76,0,0,1,.24,1h0c-.07,0-2.26,3.82-5.92,3.92h-.14a.75.75,0,0,1-.61-.73Z"/><path class="cls-12" d="M83.55,114.62l.24.22a11.15,11.15,0,0,0,6.73,2.43c4.47.36,10.92-.22,13.5-5.14,2.38-4.54-3.17-4.83-5.63-3.47-2.29,1.28-5.11,2.79-7.75,2.18-2.1-.48-4.71-3.17-6.9-1.91S82,113,83.55,114.62Z"/><path class="cls-13" d="M99.4,110c-.27.61.36,1.39,1.41,1.73s2.09.12,2.36-.49-.37-1.39-1.41-1.73S99.66,109.41,99.4,110Z"/><path class="cls-12" d="M77,114.2a.76.76,0,0,1-.25-1h0a.74.74,0,0,1,1-.25h0a3.68,3.68,0,0,0,1.21.45h0a7.93,7.93,0,0,0,4.06-.59h0a4.09,4.09,0,0,0,.38-.17h0a.75.75,0,0,1,1,.34h0a.75.75,0,0,1-.34,1h0a9.74,9.74,0,0,1-5.37.88h0a5.2,5.2,0,0,1-1.7-.64Z"/><path class="cls-12" d="M81.34,117.49a.73.73,0,0,1,.74-.75h0c1.83,0,3.59-1.77,4.3-2.73h0a5.07,5.07,0,0,0,.35-.5h0a.74.74,0,0,1,1-.23h0a.75.75,0,0,1,.24,1h0c-.07,0-2.26,3.82-5.91,3.92H82a.74.74,0,0,1-.61-.73Z"/><path class="cls-14" d="M120.73,151.6s5.26-16.94,14.6-1.17Z"/></g></g></svg>