<svg xmlns="http://www.w3.org/2000/svg" viewBox="0 0 212.78 282.35"><defs><style>.cls-1{fill:#515151;}.cls-2{fill:#393c3d;}.cls-3{fill:#f4bb3b;}.cls-4{fill:#ea9628;}.cls-5{fill:#7f5732;}.cls-6{fill:#f4d3b0;}.cls-7{fill:#f9dab4;}.cls-8{fill:#efc4a0;}.cls-9{fill:#e8e3d9;}</style></defs><title>资源 300</title><g id="图层_2" data-name="图层 2"><g id="Layer_1" data-name="Layer 1"><path class="cls-1" d="M137.92,196.26l-31.53,2-31.54-2S62.16,196.1,61,198c-.77,1.3-12.55,51.7-20.12,84.33h131c-7.58-32.63-19.35-83-20.12-84.33C150.62,196.1,137.92,196.26,137.92,196.26Z"/><circle class="cls-2" cx="106.39" cy="222.68" r="4.94"/><path class="cls-2" d="M111.33,241.9a4.94,4.94,0,1,1-4.94-4.94A4.95,4.95,0,0,1,111.33,241.9Z"/><path class="cls-2" d="M111.33,261.13a4.94,4.94,0,1,1-4.94-4.95A4.94,4.94,0,0,1,111.33,261.13Z"/><path class="cls-2" d="M106.39,275.4a5,5,0,0,0-4.52,7h9a5,5,0,0,0-4.52-7Z"/><rect class="cls-3" x="117.98" y="227.63" width="21.34" height="12.49"/><rect class="cls-4" x="120.21" y="230.2" width="16.8" height="2.49"/><polygon class="cls-2" points="143.56 234.53 149.7 282.35 153.44 282.35 143.56 234.53"/><polygon class="cls-2" points="63.07 282.35 69.22 234.53 59.33 282.35 63.07 282.35"/><path class="cls-2" d="M137.92,179.6H74.85v16.66s10.39,10.6,31.54,10.6h0c21.14,0,31.53-10.6,31.53-10.6Z"/><path class="cls-5" d="M31.35,136.05s-27.61-93.17,75-93.17,75.18,93.17,75.18,93.17Z"/><path class="cls-6" d="M44.23,134.84s-5.07-7.33-12.94-3.09S25.89,169.2,61,168.82Z"/><path class="cls-6" d="M169.3,134.84s5.07-7.33,12.93-3.09,5.41,37.45-29.73,37.07Z"/><path class="cls-7" d="M36.33,95.52c0,92.62,70.06,99,70.06,99s70.06-6.41,70.06-99Z"/><path class="cls-8" d="M102.18,176.25a134.33,134.33,0,0,1-22.12-1.67,1.3,1.3,0,0,1-1-1.5,1.28,1.28,0,0,1,1.5-1,143.68,143.68,0,0,0,52.17-1.65,1.28,1.28,0,0,1,.57,2.5A141.71,141.71,0,0,1,102.18,176.25Z"/><path class="cls-8" d="M105.67,184.81a24.09,24.09,0,0,1-8-1.37,1.28,1.28,0,1,1,.93-2.39c.11,0,7.54,2.85,14.24-.33a1.28,1.28,0,0,1,1.1,2.32A19.27,19.27,0,0,1,105.67,184.81Z"/><path class="cls-8" d="M105.84,165.66a18.21,18.21,0,0,1-12.34-4.81s7.4,2.41,12.41,2.41,12.74-2.41,12.74-2.41A20.18,20.18,0,0,1,105.84,165.66Z"/><polygon class="cls-5" points="132.99 131.35 132.99 125.47 162.96 121.71 162.96 127.28 132.99 131.35"/><path class="cls-1" d="M60.91,150.61a1.28,1.28,0,0,1-1.27-1.15c0-.44-1.08-11,6.63-12.93,6.19-1.59,10.32,4.21,11.64,7.5a1.28,1.28,0,1,1-2.37.95c-.13-.3-3.07-7.39-8.63-6s-4.73,10.09-4.73,10.18a1.28,1.28,0,0,1-1.13,1.41Z"/><polygon class="cls-5" points="80.3 131.35 80.3 125.47 50.34 121.71 50.34 127.28 80.3 131.35"/><path class="cls-1" d="M152.38,150.61h-.13a1.28,1.28,0,0,1-1.14-1.41c0-.14.82-8.75-4.73-10.18s-8.59,5.9-8.62,6a1.28,1.28,0,1,1-2.38-.95c1.32-3.29,5.45-9.09,11.64-7.5,7.72,2,6.68,12.49,6.64,12.93A1.29,1.29,0,0,1,152.38,150.61Z"/><path class="cls-5" d="M34.29,102.07s9.47,18.41,38.15,16.4c17.46-1.22,21.76-9.3,21.76-9.3s7.52,5.14,20.15-4.4c0,0,1.61,10.52,17.46-6.86,0,0-2.41,15.91,16.39,0,0,0-.54,12.73,14,2.94,0,0,4,10.28,15.32,2.45V75.88H34.29Z"/><path class="cls-1" d="M106.39,0h0C55.12,0-1.2,65.36,0,83.72c.59,8.78,10.49,12.56,17.06,18A49.44,49.44,0,0,1,28.1,115c17-29.56,42-42.44,78.29-42.44S167.63,85.48,184.67,115a49.68,49.68,0,0,1,11-13.27c6.58-5.49,16.48-9.27,17.07-18C214,65.36,157.66,0,106.39,0Z"/><path class="cls-9" d="M106.39,44.25c-10,0-50.81.71-85.5,47.31L30,111.94c17-27.36,41.45-39.34,76.43-39.34s59.44,12,76.43,39.34l9.06-20.38C157.2,45,116.43,44.25,106.39,44.25Z"/></g></g></svg>