<svg xmlns="http://www.w3.org/2000/svg" viewBox="0 0 166.12 260"><defs><style>.cls-1{fill:#f9dab4;}.cls-2{fill:#f7cea6;}.cls-3{fill:#f2ac2f;}.cls-4{fill:#ffc55f;}.cls-5{fill:#4c3626;}.cls-6{fill:#f9f7f2;}.cls-7{fill:#e5be9e;}.cls-8{fill:#f4c7a2;}.cls-9{fill:#3f2412;}.cls-10{fill:#fff;}</style></defs><title>资源 34</title><g id="图层_2" data-name="图层 2"><g id="Layer_1" data-name="Layer 1"><path class="cls-1" d="M154.21,260H135.4l-5.9-57.26,19,0S152,239.28,154.21,260Z"/><path class="cls-2" d="M150.12,219.33h0s-9.23-3.89-14.2-3.2-2.5,9.78-1.43,20.44c.5,5.08,1.16,14.73,1.7,23.43h-.79l-5.9-57.26,19,0S149.19,209.72,150.12,219.33Z"/><path class="cls-3" d="M119.28,158.86s33.33,14.6,37.7,56.56H115.75V158.86Z"/><path class="cls-4" d="M139.47,212.69s10.56-.28,11.87-8.18-14.06-31.6-20.26-34.88-8.93-3.09-7.57,5.48,5,33.75,5,37C132,213.78,139.47,212.69,139.47,212.69Z"/><path class="cls-1" d="M12.91,260H31.72l5.9-57.26-19,0S15.12,239.28,12.91,260Z"/><path class="cls-2" d="M17,219.33h0s9.23-3.89,14.2-3.2,2.5,9.78,1.44,20.44c-.51,5.08-1.16,14.73-1.71,23.43h.79l5.9-57.26-19,0S17.94,209.72,17,219.33Z"/><path class="cls-3" d="M47.85,158.86s-33.33,14.6-37.71,56.56H51.37V158.86Z"/><path class="cls-4" d="M27.65,212.69s-10.56-.28-11.87-8.18,14.06-31.6,20.27-34.88,8.92-3.09,7.56,5.48-5,33.75-5,37C35.14,213.78,27.65,212.69,27.65,212.69Z"/><path class="cls-3" d="M117.44,153.71c-51.67,0-68.65.36-68.65.36s-12.3,61.87-12,105.93h91.76C128.11,236.43,126.19,184.32,117.44,153.71Z"/><path class="cls-4" d="M54.93,161.66a146.55,146.55,0,0,0-11.38,41c-2.09,16.5-6.16,42.94-1.27,57.33H125c1.24-7,1.24-15.92,1.24-21.56,0-10.3-4.37-69.51-12.36-77.5C83.21,143.32,54.93,161.66,54.93,161.66Z"/><path class="cls-5" d="M166.12,84.31a15.64,15.64,0,0,0-6.75-13.11,16.18,16.18,0,0,0,3.07-9.58c0-7.13-4.43-13.12-10.43-14.8a16.69,16.69,0,0,0,.76-5c0-8.43-6.21-15.28-13.87-15.28-.3,0-.6,0-.89,0,0-.2,0-.41,0-.61,0-8.44-6.21-15.28-13.87-15.28A12.87,12.87,0,0,0,117,12.89C115.08,7,110,2.73,103.92,2.73a13.17,13.17,0,0,0-9.36,4,13.19,13.19,0,0,0-23,0,13.19,13.19,0,0,0-9.36-4C56.17,2.73,51,7,49.12,12.89A12.84,12.84,0,0,0,42,10.7c-7.66,0-13.88,6.84-13.88,15.28,0,.2,0,.41,0,.61-.29,0-.59,0-.89,0-7.66,0-13.87,6.85-13.87,15.28a16.69,16.69,0,0,0,.76,5c-6,1.68-10.43,7.67-10.43,14.8A16.24,16.24,0,0,0,6.74,71.2,15.63,15.63,0,0,0,0,84.31c0,6.61,3.81,12.24,9.14,14.37a16.4,16.4,0,0,0-1.81,7.55c0,8.44,6.21,15.28,13.87,15.28h.4c0,8.44,6.21,15.28,13.87,15.28a13.41,13.41,0,0,0,10.72-5.58,71.72,71.72,0,0,0,74.33.73,13.27,13.27,0,0,0,10.12,4.85c7.67,0,13.88-6.84,13.88-15.28h.4c7.66,0,13.87-6.84,13.87-15.28A16.29,16.29,0,0,0,157,98.68C162.31,96.55,166.12,90.92,166.12,84.31Z"/><path class="cls-1" d="M145.65,56.79,23,56.65s.61,28.81-1.06,42.17c-1,7.67-.42,14.31-.62,17.32-1.81,27.68,27.51,50.4,61.84,50.62s62.3-22.08,62.48-49.82a76.76,76.76,0,0,0-.43-9.18c-.24-2.34-.24-4.88-.37-7.76C144.27,87.52,145.65,56.79,145.65,56.79Z"/><path class="cls-6" d="M45,129.65a1.12,1.12,0,0,1-1.16,1.08l-3.79-.14A1.12,1.12,0,0,1,39,129.43h0a1.14,1.14,0,0,1,1.17-1.09l3.78.14A1.13,1.13,0,0,1,45,129.65Z"/><path class="cls-6" d="M126.56,130.18a1.13,1.13,0,0,1-1.16,1.08l-3.79-.14a1.13,1.13,0,0,1-1.08-1.17h0a1.12,1.12,0,0,1,1.16-1.08l3.79.14a1.13,1.13,0,0,1,1.08,1.17Z"/><path class="cls-1" d="M137.69,134.8a20.61,20.61,0,0,0,17.35-.23c9.1-4.45,13.59-22.72,1.8-27.1s-15.43,9.19-15.43,9.19Z"/><path class="cls-2" d="M143.18,129.24s3.75-20,12.5-13.1c5.38,4.24,2.19,10.18-2.8,12.61C149.74,130.28,145.68,130.41,143.18,129.24Z"/><path class="cls-7" d="M143.29,129l1.3-5.05s16.64-4.75,12,1.93S143.29,129,143.29,129Z"/><path class="cls-1" d="M28,133.65a20.61,20.61,0,0,1-17.34-.45c-9-4.57-13.3-22.9-1.45-27.12s15.31,9.39,15.31,9.39Z"/><path class="cls-2" d="M22.61,128S19.12,108,10.28,114.76c-5.43,4.17-2.32,10.15,2.64,12.65C16,129,20.1,129.16,22.61,128Z"/><path class="cls-7" d="M22.5,127.79l-1.23-5.06s-16.59-5-12,1.78S22.5,127.79,22.5,127.79Z"/><path class="cls-8" d="M74.18,128.19a1.2,1.2,0,0,1-.65-2.22,18.57,18.57,0,0,1,20.67,0,1.22,1.22,0,0,1,.23,1.7,1.21,1.21,0,0,1-1.69.23h0c-.33-.25-8.27-6.07-17.92,0A1.16,1.16,0,0,1,74.18,128.19Z"/><path class="cls-9" d="M124.41,106.15a10,10,0,1,1-13.91-2.8A10,10,0,0,1,124.41,106.15Z"/><path class="cls-10" d="M117.6,103.8c1,1.5-.31,4.12-2.91,5.85s-5.52,1.92-6.52.42.31-4.11,2.91-5.85S116.61,102.3,117.6,103.8Z"/><path class="cls-9" d="M61,103.85a10,10,0,1,1-13.9-2.8A10,10,0,0,1,61,103.85Z"/><path class="cls-10" d="M54.15,101.51c1,1.49-.31,4.11-2.91,5.84s-5.53,1.92-6.52.42.31-4.11,2.91-5.84S53.15,100,54.15,101.51Z"/><path class="cls-5" d="M111.51,96.52c3-.24,8.66-.62,17.79-1a2.15,2.15,0,0,0,2.07-2.22v-.14A5.43,5.43,0,0,0,125.59,88a136.5,136.5,0,0,0-15,1.65,3.45,3.45,0,0,0-2.7,4.26l0,.08A3.46,3.46,0,0,0,111.51,96.52Z"/><path class="cls-5" d="M57.38,96.52c-3-.24-8.66-.62-17.8-1a2.14,2.14,0,0,1-2.06-2.22v-.14A5.45,5.45,0,0,1,43.3,88a136.76,136.76,0,0,1,15,1.65A3.44,3.44,0,0,1,61,93.88L61,94A3.44,3.44,0,0,1,57.38,96.52Z"/><path class="cls-8" d="M83.44,150.79c-14.66,0-24-2.95-24.45-3.08a1.21,1.21,0,1,1,.74-2.3c.09,0,9.45,3,23.71,3a90.1,90.1,0,0,0,24-3,1.21,1.21,0,0,1,.72,2.31C107.79,147.84,98.11,150.79,83.44,150.79Z"/><path class="cls-5" d="M131.05,18.48H34S13.91,54.13,13.91,62.6a15.33,15.33,0,0,0,29,7,15.34,15.34,0,0,0,19.46-5.84A15.33,15.33,0,0,0,83,61.51a15.32,15.32,0,0,0,20,2.68,15.35,15.35,0,0,0,19.18,5.4,15.33,15.33,0,0,0,29-7C151.13,54.13,131.05,18.48,131.05,18.48Z"/></g></g></svg>