<?xml version="1.0" standalone="no"?><!DOCTYPE svg PUBLIC "-//W3C//DTD SVG 1.1//EN" "http://www.w3.org/Graphics/SVG/1.1/DTD/svg11.dtd"><svg t="1549024101840" class="icon" style="" viewBox="0 0 1084 1024" version="1.1" xmlns="http://www.w3.org/2000/svg" p-id="25708" xmlns:xlink="http://www.w3.org/1999/xlink" width="211.71875" height="200"><defs><style type="text/css"></style></defs><path d="M946.270627 739.442904c-56.776238-160.866007-205.475908-273.742574-375.128713-285.233003V385.267327c92.59934-14.194059 164.245545-94.627063 164.245545-191.281848C735.387459 87.192079 648.871287 0 542.077888 0S348.092409 87.192079 348.092409 193.985479C348.092409 290.640264 419.738614 371.073267 512.337954 385.267327v68.942574C342.685149 466.376238 193.985479 579.252805 137.209241 739.442904 60.831683 742.146535 0 805.005941 0 881.383498c0 78.405281 63.535314 142.616502 142.616502 142.616502 78.405281 0 142.616502-63.535314 142.616501-142.616502 0-59.479868-36.49901-110.172937-88.543894-131.80198 50.693069-132.477888 174.384158-225.077228 316.324752-236.567657v229.132674c-64.211221 13.518152-112.876568 70.970297-112.876567 139.236963 0 78.405281 63.535314 142.616502 142.616501 142.616502s142.616502-63.535314 142.616502-142.616502c0-68.266667-48.665347-125.718812-112.876568-139.236963V513.013861c141.264686 11.490429 265.631683 104.089769 315.648845 236.567657-52.044884 20.953135-88.543894 72.322112-88.543894 131.80198 0 78.405281 64.211221 142.616502 142.616502 142.616502 78.405281 0 142.616502-63.535314 142.616501-142.616502-1.351815-76.377558-62.183498-139.236964-138.561056-141.940594z m-720.517492 141.940594c0 45.961716-37.174917 83.136634-83.136633 83.136634-45.961716 0-83.136634-37.174917-83.136634-83.136634 0-45.961716 37.174917-83.136634 83.136634-83.136633 3.379538 0 6.759076 0 10.138614 0.675907 1.351815 0 2.70363 0.675908 4.055445 0.675908 38.526733 6.759076 68.942574 40.554455 68.942574 81.784818zM406.89637 193.985479c0-74.349835 60.155776-134.505611 134.50561-134.505611 74.349835 0 134.505611 60.155776 134.505611 134.505611 0 74.349835-60.155776 134.505611-134.505611 134.50561-73.673927 0-134.505611-60.155776-134.50561-134.50561z m218.318151 687.398019c0 45.961716-37.174917 83.136634-83.136633 83.136634-45.961716 0-83.136634-37.174917-83.136634-83.136634 0-45.961716 37.174917-83.136634 83.136634-83.136633 45.285809 0 83.136634 37.174917 83.136633 83.136633z m315.648845 83.812542c-45.961716 0-83.136634-37.174917-83.136633-83.136634 0-41.230363 30.415842-75.70165 69.618482-82.460726 1.351815 0 2.70363 0 4.055445-0.675908 3.379538-0.675908 6.759076-0.675908 10.138614-0.675907 45.961716 0 83.136634 37.174917 83.136634 83.136633 0 45.961716-37.850825 83.812541-83.812542 83.812542z m0 0" p-id="25709"></path></svg>