<svg xmlns="http://www.w3.org/2000/svg" viewBox="0 0 213.71 259.96"><defs><style>.cls-1{fill:#6b4627;}.cls-2{fill:#f2d0af;}.cls-3{fill:#2f3233;}.cls-4{fill:#3d868e;}.cls-5{fill:#ddb58e;}.cls-6{fill:#393c3d;}.cls-7{fill:#eae5dc;}.cls-8{fill:#f4d3b0;}.cls-9{fill:#c65044;}.cls-10{fill:#3a332d;}.cls-11{fill:#e8dfd9;}.cls-12{fill:#4c3626;}</style></defs><title>资源 237</title><g id="图层_2" data-name="图层 2"><g id="Layer_1" data-name="Layer 1"><path class="cls-1" d="M213.68,108.7C213,90.35,203.47,0,106.86,0S.68,90.35,0,108.7,7.12,137,21.28,152.78,73.41,202,73.41,202l24.42,3.51h18.06L140.31,202s38-33.47,52.13-49.24S214.32,127,213.68,108.7Z"/><path class="cls-2" d="M53.66,230.78c-1.06,8-5.07,19.47-8.92,29.18H67.93l10.33-74.14L57.87,179S55.12,219.73,53.66,230.78Z"/><path class="cls-3" d="M78.12,153.86s-28.52,30.46-26.92,35S82,193.76,82,193.76,87.57,146.75,78.12,153.86Z"/><path class="cls-2" d="M160.05,230.78c-1.46-11.05-4.21-51.82-4.21-51.82l-20.38,6.86L145.78,260H169C165.12,250.25,161.12,238.81,160.05,230.78Z"/><path class="cls-3" d="M135.59,153.86s28.52,30.46,26.92,35-30.78,4.93-30.78,4.93S126.15,146.75,135.59,153.86Z"/><path class="cls-4" d="M107.66,156.43H75.31S62.49,225.16,62.84,260h88c.34-34.8-12.48-103.53-12.48-103.53Z"/><path class="cls-5" d="M127.36,158.41c0,6.07-9.18,26.12-20.5,26.12s-20.51-20.05-20.51-26.12,9.18-11,20.51-11S127.36,152.34,127.36,158.41Z"/><path class="cls-6" d="M84.74,239.78s-8.28,3.32-7.55,5.9,5.7,8.86,7.55,8.49,7.4-2.77,12.74-3,21,.37,22.14-5.71A13.12,13.12,0,0,0,117,235.17s5.35-8.67,20.66-11.07c0,0-6.09-11.07-20.48-8.12l7.48-10.51s-20.94-1.11-22.79,8.3l2.59-16.05A26.53,26.53,0,0,0,87.09,214.5,49.85,49.85,0,0,0,84.74,239.78Z"/><path class="cls-7" d="M87.09,246.23s18.65,1.48,20.33-1.66,5.75-12.36,5.75-12.36-10.52-3.87-14.21-2.39S87.09,246.23,87.09,246.23Z"/><path class="cls-6" d="M100.63,246.45c.87-1.52.59-4.48-.88-7.45-1.32-2.69-3.23-4.61-4.87-5.13-1,1.3-2,2.77-2.93,4.24a13.54,13.54,0,0,0,1.3,4.1,12.08,12.08,0,0,0,3.44,4.37C98,246.57,99.36,246.53,100.63,246.45Z"/><path class="cls-8" d="M51.38,118.2s-7.27-9-14.65-2.51c-7.61,6.72,4.88,28,16.43,28.79Z"/><path class="cls-8" d="M162.34,118.2s7.26-9,14.64-2.51c7.62,6.72-4.88,28-16.43,28.79Z"/><path class="cls-2" d="M132.64,72.41c-8.15-1.37-18.88,2.28-25.32,4.64a.5.5,0,0,1-.12,0,1,1,0,0,1-.68,0,.69.69,0,0,1-.13,0c-6.43-2.36-17.16-6-25.31-4.64-6.82,1.14-27.26,20.7-33.79,27.09v27.69c0,21.16,21.19,38.31,47.32,38.31H119.1c26.14,0,47.33-17.15,47.33-38.31V99.49C159.89,93.1,139.46,73.55,132.64,72.41Z"/><path class="cls-9" d="M95.31,141.58s2.85-4.42,6.14-4.22,5.07,3.47,5.07,3.47,3-3.39,6.41-3.32,5,4.42,5,4.42-3.43,8.28-11.62,8.28S95.31,141.58,95.31,141.58Z"/><path class="cls-5" d="M101,121.87s.56-5.22,5.44-5.25,5.87,5.25,5.87,5.25-2.66-3.22-5.78-3.22S101,121.87,101,121.87Z"/><path class="cls-10" d="M70.54,122.42h-.13c-.36,0-9.12-.93-12.92-3.3a1.32,1.32,0,0,1-.42-1.76,1.21,1.21,0,0,1,1.7-.43c3.32,2.07,11.8,2.94,11.88,3a1.28,1.28,0,0,1-.11,2.55Z"/><path class="cls-10" d="M69.21,119.62c-7.55,0-11.82-6.14-12-6.4a1.3,1.3,0,0,1,.3-1.79,1.2,1.2,0,0,1,1.72.31c.05.07,3.81,5.4,10.13,5.32h0a1.28,1.28,0,0,1,0,2.56Z"/><path class="cls-10" d="M76.41,117.6A6.09,6.09,0,0,1,69,122.23a6.31,6.31,0,0,1-4.48-7.62A6.1,6.1,0,0,1,71.93,110,6.32,6.32,0,0,1,76.41,117.6Z"/><path class="cls-11" d="M73.23,112.54c0,.91-1.31,1.61-2.85,1.55s-2.75-.87-2.71-1.79,1.31-1.61,2.84-1.55S73.27,111.62,73.23,112.54Z"/><path class="cls-12" d="M83.7,102.13v-3a.7.7,0,0,0-.58-.7c-3.33-.48-19.94-2.59-28,1.95a.71.71,0,0,0-.25,1l1.51,2.57a.67.67,0,0,0,.79.31c2.28-.78,12.09-3.66,25.72-1.4A.68.68,0,0,0,83.7,102.13Z"/><path class="cls-12" d="M130,102.13v-3a.7.7,0,0,1,.59-.7c3.32-.48,19.93-2.59,28,1.95a.73.73,0,0,1,.25,1l-1.52,2.57a.67.67,0,0,1-.79.31c-2.28-.78-12.09-3.66-25.72-1.4A.69.69,0,0,1,130,102.13Z"/><path class="cls-10" d="M143.18,122.42a1.28,1.28,0,0,1-.12-2.55c.08,0,8.56-.88,11.88-3a1.21,1.21,0,0,1,1.7.43,1.31,1.31,0,0,1-.42,1.76c-3.79,2.37-12.55,3.27-12.92,3.3Z"/><path class="cls-10" d="M144.5,119.62h-.18a1.28,1.28,0,0,1,0-2.56h.15c6.24,0,9.94-5.27,10-5.32a1.22,1.22,0,0,1,1.73-.31,1.32,1.32,0,0,1,.3,1.79C156.33,113.48,152.05,119.62,144.5,119.62Z"/><path class="cls-10" d="M137.31,117.6a6.08,6.08,0,0,0,7.36,4.63,6.33,6.33,0,0,0,4.49-7.62,6.1,6.1,0,0,0-7.38-4.63A6.32,6.32,0,0,0,137.31,117.6Z"/><path class="cls-11" d="M140.49,112.54c0,.91,1.31,1.61,2.84,1.55s2.75-.87,2.71-1.79-1.31-1.61-2.84-1.55S140.45,111.62,140.49,112.54Z"/></g></g></svg>