<svg xmlns="http://www.w3.org/2000/svg" viewBox="0 0 199.33 260.07"><defs><style>.cls-1{fill:#f7cea6;}.cls-2{fill:#f9dab4;}.cls-3{fill:#3b8d93;}.cls-4{fill:#5c9ea0;}.cls-5{fill:#845635;}.cls-6{fill:none;}.cls-7{fill:#6b4627;}.cls-8{fill:#55371f;}.cls-9{fill:#472b18;}.cls-10{fill:#fff;}.cls-11{fill:#f9f7f2;}.cls-12{fill:#ad3936;}.cls-13{fill:#e0605c;}.cls-14{fill:#2f3233;}.cls-15{fill:#ffc55f;}.cls-16{fill:#e5be9e;}</style></defs><title>资源 48</title><g id="图层_2" data-name="图层 2"><g id="Layer_1" data-name="Layer 1"><polygon class="cls-1" points="32.25 260.07 50.95 260.07 53.36 201.52 30.74 200.99 32.25 260.07"/><path class="cls-2" d="M44.62,211.19c-6.43-1.88-12,4.62-11.32,19.67.35,8.26.64,20.15.83,29.21H46.34c.95-11.81,4.15-38.45,4.15-38.45S51.05,213.06,44.62,211.19Z"/><path class="cls-3" d="M64.81,148.2s-34.88,13.68-41.07,56.69l42.43,1.65,2.27-58.19Z"/><path class="cls-4" d="M41.87,202.77S31,202.07,30,193.89s15.73-31.95,22.25-35.08,9.3-2.82,7.56,5.94-6.51,34.52-6.64,37.9C49.53,204.2,41.87,202.77,41.87,202.77Z"/><polygon class="cls-1" points="166.01 260.07 147.3 260.07 144.9 201.52 167.51 200.99 166.01 260.07"/><path class="cls-2" d="M153.64,211.19c6.42-1.88,12,4.62,11.32,19.67-.35,8.26-.64,20.15-.83,29.21H151.92c-.95-11.81-4.15-38.45-4.15-38.45S147.21,213.06,153.64,211.19Z"/><path class="cls-3" d="M133.44,148.2s34.89,13.68,41.08,56.69l-42.43,1.65-2.27-58.19Z"/><path class="cls-4" d="M156.38,202.77s10.86-.7,11.89-8.88S152.53,161.94,146,158.81s-9.31-2.82-7.56,5.94,6.51,34.52,6.64,37.9C148.73,204.2,156.38,202.77,156.38,202.77Z"/><path class="cls-3" d="M133.51,139.53c-53.48,0-70.63.37-70.63.37S48,214.57,50.77,260.07h94.76C145.49,247,144.33,177.39,133.51,139.53Z"/><path class="cls-4" d="M69.23,147.76a151.88,151.88,0,0,0-11.78,42.45C54.37,214.61,47.07,260,68.67,260h66.48c7.84,0,7.84-22.15,7.84-32.81S138.47,155.29,130.2,147C98.5,128.78,69.23,147.76,69.23,147.76Z"/><path class="cls-3" d="M99.57,181.06c-11.42,0-24.41-28.2-24.19-29.53l1-5.93H122.8l1,5.93C124,152.86,111,181.06,99.57,181.06Z"/><path class="cls-1" d="M82.36,152.67S94.6,174,99.57,174s17.21-21.31,17.21-21.31Z"/><path class="cls-2" d="M139.68,58.85C121.56,51.41,100.62,50,100.62,50a36.41,36.41,0,0,0-.69-5.84h0a91.59,91.59,0,0,0-27.72,4c2.18,18.72,4.56,37-.56,38.37C66.3,88,64.05,85.13,60.41,75.18,58,88.35,49.87,92.43,45.22,79.58c-1.86,13.22-7.84,21.87-14.06,5.24-.07,11.45-1.66,17.93-7.51,18.7q0,.74,0,1.47c-.22,33.87,33.59,61.55,75.5,61.82s76.08-27,76.3-60.84C175.42,106,170.07,73,139.68,58.85Z"/><path class="cls-5" d="M100.62,50s-20.15.17-32,5.58c-2.24-20.76-2.45-33.65,10.89-35.19s24,11.44,24.65,30C102.24,50.14,100.62,50,100.62,50Z"/><path class="cls-6" d="M99.93,44.16c-1.09-5.67-3.94-14-11.3-18.53-11.8-7.18-19,.47-16.72,20,.09.84.19,1.68.29,2.52a91.59,91.59,0,0,1,27.72-4Z"/><path class="cls-7" d="M178.61,41C165.42,18.13,128-5.82,77.82,1.27-14.72,16.08,7.15,102.44,7.15,102.44s8.68,2.42,10.46.66a19.27,19.27,0,0,0,1.3-7.24c2,7,4.74,7.66,4.74,7.66h0c5.85-.77,7.44-7.25,7.51-18.7,6.22,16.63,12.2,8,14.06-5.24,4.65,12.85,12.78,8.77,15.19-4.4C64.05,85.13,66.3,88,71.64,86.56c5.12-1.39,2.74-19.65.56-38.37-.1-.84-.2-1.68-.29-2.52-2.25-19.57,4.92-27.22,16.72-20C96,30.12,98.84,38.49,99.93,44.16a36.41,36.41,0,0,1,.69,5.84s20.94,1.41,39.06,8.85C170.07,73,175.42,106,175.42,106l8.06.33C187.59,96.37,191.79,63.93,178.61,41Z"/><path class="cls-8" d="M186.93,90.42c-3.71-.41-9.23-.11-12.23,4.51-6.7-17.23-17-30.63-35.6-38.75S106.27,48,106.27,48,104,32.25,90.42,23.57s-20.94.65-21,10.14S74.8,79.46,70.75,84s-8.61-9.68-10.28-18.78-2.23-13.89-2.22-14.78c0-2.22-2.35-2.83-1.22,4.74s2.66,22.33-.91,27.25-7,1.73-8.43-2.28-3.61-15-3.42-21.8-2.34-4.75-2.37-.46,1.69,14.38,1.65,20S40.65,91.84,38,91.82,31.22,83,31.26,77.11,32,63,30.62,61.55s-1.46,8-1.48,11.85S29.4,90,28.05,93.09c-4.91-2.35-17-9.19-22.54-.72a78.7,78.7,0,0,0,1.64,10.07s8.68,2.42,10.46.66a19.27,19.27,0,0,0,1.3-7.24c2,7,4.74,7.66,4.74,7.66h0c5.85-.77,7.44-7.25,7.51-18.7,6.22,16.63,12.2,8,14.06-5.24,4.65,12.85,12.78,8.77,15.19-4.4C64.05,85.13,66.3,88,71.64,86.56c5.12-1.39,2.74-19.65.56-38.37-.1-.84-.2-1.68-.29-2.52-2.25-19.57,4.92-27.22,16.72-20C96,30.12,98.84,38.49,99.93,44.16a36.41,36.41,0,0,1,.69,5.84s20.94,1.41,39.06,8.85C170.07,73,175.42,106,175.42,106l8.06.33C184.83,103.05,186.18,97.38,186.93,90.42Z"/><path class="cls-8" d="M80.92,26.77c0-.36,6.22,2.13,9.87,9,3.66,6.7,3.68,13,3.32,13s-1-6-4.53-12.34S80.67,27.14,80.92,26.77Z"/><path class="cls-8" d="M76.75,31c0-.49,5.56,1,8.88,6.59C89,42.9,89.82,48,89.47,48.06s-1.76-4.69-5-9.72C81.35,33.08,76.63,31.31,76.75,31Z"/><path class="cls-8" d="M76.3,38.1c.09-.35,3.08.81,4.71,4.12s1.33,6.21,1,6.18-.73-2.68-2.19-5.55S76.1,38.46,76.3,38.1Z"/><path class="cls-9" d="M125.83,82.91s4.61-2.34,12.6-1,14.94,2.61,14.95,1.43S149,75.36,143,72.88s-10.15-.14-14.32,2.94S121.65,84.06,125.83,82.91Z"/><path class="cls-9" d="M148.89,97.89a12.25,12.25,0,1,1-17-3.42A12.25,12.25,0,0,1,148.89,97.89Z"/><path class="cls-10" d="M140.58,95c1.21,1.83-.38,5-3.56,7.14s-6.74,2.35-8,.52.38-5,3.56-7.14S139.36,93.2,140.58,95Z"/><path class="cls-9" d="M71.4,95.09a12.24,12.24,0,1,1-17-3.42A12.24,12.24,0,0,1,71.4,95.09Z"/><path class="cls-10" d="M63.09,92.22c1.22,1.83-.37,5-3.55,7.14s-6.75,2.35-8,.52.38-5,3.56-7.14S61.88,90.39,63.09,92.22Z"/><path class="cls-1" d="M92.23,125.35v0a30.73,30.73,0,0,1,2.25-3,19,19,0,0,1,2.09-2.12,7.73,7.73,0,0,1,2.16-1.39,2,2,0,0,1,.8-.14,4.1,4.1,0,0,1,1.94.6,12.61,12.61,0,0,1,3.17,2.79,17.88,17.88,0,0,1,2.37,3.56,1,1,0,0,0,1.86-.92,20.33,20.33,0,0,0-3.79-5.22,13.24,13.24,0,0,0-2.59-2,6.24,6.24,0,0,0-3-.87,4.47,4.47,0,0,0-1.56.28,10,10,0,0,0-2.84,1.82,25.37,25.37,0,0,0-3.3,3.59c-.84,1.09-1.36,1.9-1.37,1.92a1,1,0,0,0,1.75,1.12Z"/><path class="cls-1" d="M106.66,162.46c-.06,1.58-4.14,2.7-9.1,2.52s-9-1.61-8.89-3.19,4.13-2.71,9.1-2.52S106.71,160.88,106.66,162.46Z"/><path class="cls-11" d="M52.57,125.71A1.37,1.37,0,0,1,51.15,127l-4.62-.17a1.37,1.37,0,0,1-1.32-1.42h0a1.37,1.37,0,0,1,1.42-1.33l4.62.17a1.38,1.38,0,0,1,1.32,1.43Z"/><path class="cls-11" d="M152.12,126.36a1.36,1.36,0,0,1-1.41,1.31l-4.63-.17a1.37,1.37,0,0,1-1.32-1.42h0a1.38,1.38,0,0,1,1.42-1.33l4.62.17a1.38,1.38,0,0,1,1.32,1.44Z"/><path class="cls-12" d="M74.74,144.3s23.89,4.6,51.7-7.88c0,0,.78,15.19-15.91,19.78C83,163.77,74.74,144.3,74.74,144.3Z"/><path class="cls-13" d="M91.74,157.23c4.92,1.09,11.1,1.09,18.79-1a21.83,21.83,0,0,0,11.29-6.87,17.33,17.33,0,0,0-10.18-3C106.5,146.34,95.45,149.36,91.74,157.23Z"/><path class="cls-14" d="M184.27,94.25s-12-3.18-18-3.78h0c-3.14-.61-9.57-.88-22.67-.88-32.83,0-39.18,6.9-39.18,6.9h-10s-6.35-6.9-39.18-6.9c-14.11,0-20.48.31-23.34,1h0s-17.24,2.58-19.32,3.1l1.19,7.91S27.15,98.1,31.27,101A14.15,14.15,0,0,1,36,109c1.53,6.68.87,25.37,26.05,26,14.88,0,23.2-3.78,27.69-13a106,106,0,0,0,5.91-14,3.9,3.9,0,0,1,7.53,0,106,106,0,0,0,5.91,14c4.49,9.24,12.81,13,27.69,13,25.18-.67,24.52-19.36,26.05-26a13.67,13.67,0,0,1,5.82-8.74s10.48.09,15.59,1.45Z"/><path class="cls-10" d="M159.14,96.82a1.22,1.22,0,0,0,1.2,1.23h4.49A1.22,1.22,0,0,0,166,96.82h0a1.22,1.22,0,0,0-1.21-1.22h-4.49a1.21,1.21,0,0,0-1.2,1.22Z"/><path class="cls-10" d="M39.75,96.82a1.22,1.22,0,0,1-1.21,1.23H34.06a1.22,1.22,0,0,1-1.21-1.23h0a1.22,1.22,0,0,1,1.21-1.22h4.48a1.22,1.22,0,0,1,1.21,1.22Z"/><path class="cls-15" d="M50.91,95.16s14.67-2,28.9,2c8.42,2.67,11.16,6.9,7.66,16.69s-9,17.37-25.28,17S41.61,122.64,41.06,112C40.51,102.61,39.75,96.27,50.91,95.16Z"/><path class="cls-10" d="M79.81,97.16l-.24-.07-20,33.65c.69,0,1.4.09,2.14.12L82.21,98Q81.1,97.57,79.81,97.16Zm-8.19-1.71-20,33.63a25,25,0,0,0,4.3,1.19L77.44,96.55C75.48,96.09,73.52,95.73,71.62,95.45Z"/><path class="cls-15" d="M148,95.16s-14.67-2-28.9,2c-8.42,2.67-11.16,6.9-7.66,16.69s9,17.37,25.28,17,20.58-8.23,21.13-18.91C158.38,102.61,159.14,96.27,148,95.16Z"/><path class="cls-10" d="M154,96.75l-19.54,34.11c.73,0,1.49,0,2.27,0h0l19.46-32.36A7.47,7.47,0,0,0,154,96.75Zm-6-1.59s-.74-.1-2-.21l-19.87,34.69a27.89,27.89,0,0,0,4.57,1l21.28-34.68A19.7,19.7,0,0,0,148,95.16Z"/><path class="cls-2" d="M167.27,128.21a25.22,25.22,0,0,0,21.18-.28c11.12-5.44,16.6-27.76,2.2-33.1s-18.84,11.22-18.84,11.22Z"/><path class="cls-1" d="M174,121.42s4.58-24.45,15.27-16c6.56,5.19,2.67,12.44-3.43,15.41C182,122.68,177,122.84,174,121.42Z"/><path class="cls-16" d="M174.1,121.14l1.59-6.16s20.33-5.8,14.63,2.35S174.1,121.14,174.1,121.14Z"/><path class="cls-2" d="M31.8,126.38a25.17,25.17,0,0,1-21.17-.55c-11-5.58-16.24-28-1.77-33.12s18.69,11.46,18.69,11.46Z"/><path class="cls-1" d="M25.19,119.5S20.93,95,10.13,103.31c-6.63,5.1-2.83,12.39,3.23,15.44C17.16,120.67,22.12,120.89,25.19,119.5Z"/><path class="cls-16" d="M25.06,119.23,23.55,113S3.3,107,8.9,115.21,25.06,119.23,25.06,119.23Z"/></g></g></svg>