<svg xmlns="http://www.w3.org/2000/svg" viewBox="0 0 229.38 284.79"><defs><style>.cls-1{fill:#6fb0b6;}.cls-2{fill:#81c6c6;}.cls-3{fill:#2d2723;}.cls-4{fill:#231f1c;}.cls-5{fill:#7f5732;}.cls-6{fill:#6b4627;}.cls-7{fill:#f4d3b0;}.cls-8{fill:#f9dab4;}.cls-9{fill:#6dbdc6;}.cls-10{fill:#f9f5ed;}.cls-11{fill:#393c3d;}.cls-12{fill:#c65044;}.cls-13{fill:#efc4a0;}</style></defs><title>资源 186</title><g id="图层_2" data-name="图层 2"><g id="Layer_1" data-name="Layer 1"><path class="cls-1" d="M104.46,189.73l4.14,52.79L123.75,257s-9.17,9.79-12.84,21.7a8,8,0,0,0,.41,6.08H142c5.14-7.3,10.25-17.3,9.88-23.94C151.27,249.79,104.46,189.73,104.46,189.73Z"/><path class="cls-1" d="M43.14,190.77s-35,69.38-36.27,84.54a12,12,0,0,0,3.07,9.48h26.7l.47-.45C46.91,274.63,59.65,178.76,43.14,190.77Z"/><path class="cls-2" d="M105.41,190.68s-2.22-5.5-30.33-5.5-30.31,5.5-30.31,5.5a111.31,111.31,0,0,1-5,26c-8.53,27.5-11.52,55.56-10.63,68.13h92.1c.92-12.55-2.31-40.81-10.78-68.13A110.92,110.92,0,0,1,105.41,190.68Z"/><rect class="cls-1" x="83.74" y="197.46" width="2.12" height="23.68" transform="translate(-11.61 5.09) rotate(-3.22)"/><path class="cls-1" d="M89.71,222.31a3.85,3.85,0,1,1-3.85-3.85A3.85,3.85,0,0,1,89.71,222.31Z"/><rect class="cls-1" x="51.71" y="208.23" width="23.68" height="2.12" transform="translate(-148.99 260.99) rotate(-86.78)"/><path class="cls-1" d="M58.63,222.31a3.86,3.86,0,1,0,3.85-3.85A3.85,3.85,0,0,0,58.63,222.31Z"/><path class="cls-1" d="M96.84,182.65l-21.68,5-21.68-5s-5.09,11.48-2.29,14.49,7.16,4.2,23.27,4.5v0h1.41v0c16.1-.3,20.55-1.57,23.26-4.5S96.84,182.65,96.84,182.65Z"/><path class="cls-3" d="M155.38,31S158.66-3.43,177.19.28s22,20.5,24.22,41.33,3.7,30.86,4.36,30.86S214.93,52.19,216,52.19s3.93,4.14,3.27,12.54c0,0,8.29-10.58,9.16-10.58s5.67,34-19.63,46.9-45.37-16.36-43.19-53.33Z"/><path class="cls-4" d="M200.6,69c1,3.7,3.26,4.9,4.93,3.14-.75-1.92-2.17-11.89-4.12-30.5-.1-.87-.19-1.72-.29-2.58a86.57,86.57,0,0,0-1,10.75C200,56,199,62.91,200.6,69Z"/><path class="cls-5" d="M153.1,38.34s-5-4.8,3-9.89c5-3.18,10.52,4.46,14.84,13.38,2,4.17-1.29,11-8.11,7.61Z"/><path class="cls-6" d="M132.09,47.72,154.84,32s10.82,3.82,10.79,15.71l-19.95,17Z"/><rect class="cls-5" x="132.19" y="40.96" width="29.53" height="1.31" transform="translate(1.6 88.52) rotate(-33.69)"/><rect class="cls-5" x="134.51" y="45.86" width="31.93" height="1.31" transform="translate(2.31 99.95) rotate(-37.01)"/><rect class="cls-5" x="138.09" y="51.54" width="30.89" height="1.31" transform="translate(0.83 106.77) rotate(-38.44)"/><path class="cls-5" d="M124.41,50s11.45-13,20.94,6.11-7.52,17.77-7.52,17.77Z"/><path class="cls-3" d="M9.52,135.4S-.62,110.86,0,81.74,22,43.14,27.84,48.37c0,0,5.23-22.57,38.28-22.9s60.19,11.45,78.19,48.09-10.14,66.09-10.14,66.09Z"/><path class="cls-7" d="M30.39,132.18S17,115.24,7.21,127.43,18.8,161.54,36,157Z"/><path class="cls-7" d="M119.93,132.18s13.38-16.94,23.18-4.75S131.52,161.54,114.29,157Z"/><path class="cls-8" d="M105.25,99.5c-16-9.27-35.75-15-54.33-14.81-10.1.08-19.46,1.77-24,11.82-1.47,3.26-2.74,6.69-4.81,9.52,0,9.37,0,28.16,0,28.82,0,33.85,23.74,56.06,53,56.06s53-22.21,53-56.06c0-.54,0-13,0-22.71C119.81,108.34,111.81,103.31,105.25,99.5Z"/><path class="cls-3" d="M18.47,80.54S15,111.19,21.12,126.89L34.17,94.5s4.37,21.81,15.71,31V99.3s15.26,28.36,33.58,32.94l-10-21.6s11.34,20.5,40.57,21.6,15.7-40.36,15.7-40.36L59,56.12Z"/><path class="cls-9" d="M126,121.11H24.36s-.92,29.43.92,32.92,35.54,13.05,49.88-6.24c14.34,19.29,48.06,9.72,49.89,6.24S126,121.11,126,121.11Z"/><path class="cls-10" d="M44.48,121.11,32.1,157.31a57.52,57.52,0,0,0,15.44,2.18l13.11-38.38Z"/><path class="cls-10" d="M102.78,121.11,90.23,157.85a46.88,46.88,0,0,0,15.65,1.54L119,121.11Z"/><path class="cls-11" d="M102.6,162.11h0c-8.37,0-19.56-1.84-27.44-10.14-7.88,8.3-19.07,10.14-27.44,10.14-10.93,0-23-3.36-24.9-6.91s-1.48-25.13-1.2-34.17l.08-2.54H128.62l.08,2.54c.29,9,.73,30.49-1.2,34.17S113.54,162.11,102.6,162.11ZM75.16,143.26l2.24,3c6.51,8.76,17.3,10.6,25.2,10.6,9.91,0,18.38-2.88,20.05-4.19.82-2.58,1-16.15.64-29H27c-.33,12.77-.18,26.29.65,29,1.69,1.31,10.14,4.18,20,4.18,7.9,0,18.69-1.84,25.2-10.6Z"/><path class="cls-12" d="M62.28,174.92s3.25-5,7-4.82,5.79,4,5.79,4,3.37-3.87,7.31-3.79,5.66,5,5.66,5-3.91,9.46-13.26,9.46S62.28,174.92,62.28,174.92Z"/><path class="cls-13" d="M68.71,162.25s.64-6,6.21-6,6.7,6,6.7,6-3.05-3.68-6.6-3.68S68.71,162.25,68.71,162.25Z"/></g></g></svg>