<svg xmlns="http://www.w3.org/2000/svg" viewBox="0 0 165.22 260.64"><defs><style>.cls-1{fill:#7f5732;}.cls-2{fill:#e0dbd3;}.cls-3{fill:#492f22;}.cls-4{fill:#3a241b;}.cls-5{fill:#8e633f;}.cls-6{fill:#6b4627;}.cls-7{fill:#302f2d;}.cls-8{fill:#f4d3b0;}.cls-9{fill:#f2d0af;}.cls-10{fill:#3a332d;}.cls-11{fill:#e8dfd9;}.cls-12{fill:#3f3e3d;}.cls-13{fill:#ddb58e;}</style></defs><title>资源 275</title><g id="图层_2" data-name="图层 2"><g id="Layer_1" data-name="Layer 1"><path class="cls-1" d="M29.28,169.2c-1.45,6.73-7,66.37-9.37,91.44H46.09V162S31.12,160.67,29.28,169.2Z"/><path class="cls-1" d="M135.92,169.2c1.45,6.73,7.05,66.37,9.36,91.44H119.11V162S134.07,160.67,135.92,169.2Z"/><polygon class="cls-2" points="127.21 260.64 122.04 157.49 43.18 157.49 38.01 260.64 127.21 260.64"/><rect class="cls-3" x="78.05" y="164.4" width="9.12" height="12.5"/><rect class="cls-4" x="78.05" y="170.65" width="9.12" height="6.25"/><polygon class="cls-3" points="92.93 201.38 82.61 212.89 72.29 201.38 78.05 172.4 87.17 172.4 92.93 201.38"/><polygon class="cls-5" points="127.21 260.64 122.06 157.9 65.09 222.78 65.09 260.64 127.21 260.64"/><path class="cls-1" d="M84.39,200.8l-19.3,22v37.86h37.48V219l-18-18Z"/><polygon class="cls-6" points="121.02 159.09 114.44 196.09 106.22 187.32 102.44 210.51 75.97 210.39 121.02 159.09"/><polygon class="cls-5" points="38.01 260.64 100.13 260.64 100.13 222.78 43.16 157.9 38.01 260.64"/><polygon class="cls-6" points="44.2 159.09 52.37 205.03 62.58 194.14 67.27 222.94 100.13 222.78 44.2 159.09"/><path class="cls-7" d="M165,60.94C163.43,54.07,149.43,1.06,82.71,0h-.2C15.79,1.06,1.79,54.07.2,60.94s6.62,48.92,6.62,48.92H158.4S166.61,67.81,165,60.94Z"/><path class="cls-8" d="M20,104.43s-8.37-10.38-16.88-2.88c-8.78,7.74,5.63,32.31,18.93,33.17Z"/><path class="cls-8" d="M145.2,104.43s8.37-10.38,16.88-2.88c8.78,7.74-5.63,32.31-18.93,33.17Z"/><path class="cls-9" d="M124,59c-9.36,1.42-31.61,12.93-41.2,12.87h-.28C72.88,71.91,50.63,60.4,41.27,59,34.18,57.91,21,70.71,14.82,77.15v45.59c0,24.38,24.11,44.15,53.86,44.15H96.55c29.74,0,53.85-19.77,53.85-44.15V77.15C144.26,70.71,131,57.91,124,59Z"/><path class="cls-7" d="M150.4,122.74V79.5C146.79,96.85,141.58,121,140,123.67c-2.51,4.27-24.1,10.8-26.11,12.56s-8,21.34-12.31,22.35a120.22,120.22,0,0,1-18.92,1.87h-.07a120.24,120.24,0,0,1-18.93-1.87c-4.27-1-10.3-20.6-12.31-22.35s-23.6-8.29-26.12-12.56c-1.58-2.7-6.79-26.81-10.4-44.16v43.23c0,24.38,24.11,44.15,53.86,44.15H96.55C126.29,166.89,150.4,147.12,150.4,122.74Z"/><path class="cls-10" d="M32.56,102.91a8,8,0,1,0,8-8A8,8,0,0,0,32.56,102.91Z"/><path class="cls-11" d="M38.12,97.67c-.23,1.14,1.18,2.39,3.15,2.78s3.75-.2,4-1.34-1.18-2.39-3.15-2.79S38.35,96.53,38.12,97.67Z"/><circle class="cls-10" cx="122.63" cy="102.91" r="7.98" transform="translate(-19.37 176.82) rotate(-67.5)"/><path class="cls-11" d="M120.21,97.67c-.23,1.14,1.18,2.39,3.15,2.78s3.75-.2,4-1.34-1.19-2.39-3.15-2.79S120.44,96.53,120.21,97.67Z"/><path class="cls-12" d="M102.71,87.25l1.77-7.85s18.65-3.53,31.81-1.47l1.37,7.36Z"/><path class="cls-12" d="M62.5,87.25,60.73,79.4s-18.64-3.53-31.8-1.47l-1.37,7.36Z"/><path class="cls-13" d="M93,116.58s-1.64-8.34-10.36-8.09a10.65,10.65,0,0,0-10.36,8.09s5.22-5.28,10.36-5.28S93,116.58,93,116.58Z"/><path class="cls-13" d="M63.26,139.41s.61.12,1.67.27,2.57.29,4.37.51l2.92.21c1,.11,2.13.09,3.26.13l3.48.11,3.6-.08c1.21,0,2.42.05,3.61-.07s2.35-.15,3.48-.22l3.28-.15,2.92-.3c1.82-.18,3.35-.24,4.42-.33s1.69-.08,1.69-.08-.59.18-1.62.46-2.52.69-4.32,1.1c-.9.2-1.87.45-2.91.64l-3.3.42c-1.14.13-2.33.29-3.53.4s-2.45.09-3.68.14H78.92c-1.22-.06-2.41-.19-3.56-.28a48.51,48.51,0,0,1-6.25-1c-.9-.2-1.72-.47-2.44-.67s-1.34-.42-1.85-.61A13.49,13.49,0,0,1,63.26,139.41Z"/><path class="cls-13" d="M74.91,148.45s1,0,2.46,0c.73-.05,1.55,0,2.44,0s1.83,0,2.77-.05,1.89,0,2.78,0,1.74,0,2.46,0a17.45,17.45,0,0,1,2.49.13,16.17,16.17,0,0,1-2.3,1,11.35,11.35,0,0,1-2.48.63,15.29,15.29,0,0,1-2.92.3,15.63,15.63,0,0,1-2.93-.2,14,14,0,0,1-2.51-.6,10.69,10.69,0,0,1-1.68-.76A4.14,4.14,0,0,1,74.91,148.45Z"/></g></g></svg>