<?xml version="1.0" standalone="no"?><!DOCTYPE svg PUBLIC "-//W3C//DTD SVG 1.1//EN" "http://www.w3.org/Graphics/SVG/1.1/DTD/svg11.dtd"><svg t="1548835392552" class="icon" style="" viewBox="0 0 1024 1024" version="1.1" xmlns="http://www.w3.org/2000/svg" p-id="2444" xmlns:xlink="http://www.w3.org/1999/xlink" width="200" height="200"><defs><style type="text/css"></style></defs><path d="M1023.84128 853.46816v6.06208c0 90.27584-73.73824 164.18816-163.84 164.18816H163.84c-90.10176 0-163.84-73.91744-163.84-164.18816V164.18816C0 73.91744 73.73824 0 163.84 0h696.36096c90.10688 0 163.84 73.91744 163.84 164.18816v529.3312l-0.19968 159.9488zM276.36224 787.83488c-159.7952 0-206.86848-125.21472-127.06816-194.88768 26.66496-22.62016 73.73824-34.93888 100.4032-36.95616 94.14144-10.30144 182.2208 26.65472 286.6688 77.95712-75.56096 94.51008-167.87968 153.88672-260.00384 153.88672z m567.2704-145.60768c-41.0112-14.34112-96.15872-34.93888-157.7728-57.35936 36.76672-63.616 65.45408-137.52832 86.06208-215.48544H569.2928V297.48224h247.67488v-40.99584H569.088V135.51104H468.6848c-18.38592 0-18.38592 18.37568-18.38592 18.37568v104.61696H200.60672v40.99584H450.5088v69.67296H243.6352v40.99584h401.41312c-14.34624 51.29728-34.74432 98.55488-57.37472 141.568-129.09056-43.01312-268.27776-77.95712-356.36224-55.33696-55.35232 14.34112-92.11904 38.97856-112.72704 63.616-96.15872 116.93568-26.66496 295.46496 176.16384 295.46496 120.8064 0 237.57824-67.65568 327.68-178.52928 135.14752 65.63328 401.41312 176.512 401.41312 176.512v-157.93152c0 0.01024-32.73216-4.02944-180.20864-53.30432z" fill="#1dacec" p-id="2445"></path></svg>