<svg xmlns="http://www.w3.org/2000/svg" viewBox="0 0 245.13 260.57"><defs><style>.cls-1{fill:#7f5732;}.cls-2{fill:#f9dab4;}.cls-3{fill:#393c3d;}.cls-4{fill:#515151;}.cls-5{fill:#efc4a0;}.cls-6{fill:#f4d3b0;}.cls-7{fill:#2f3233;}</style></defs><title>资源 303</title><g id="图层_2" data-name="图层 2"><g id="Layer_1" data-name="Layer 1"><rect class="cls-1" x="144.88" y="140.93" width="45.94" height="94.49"/><path class="cls-2" d="M46.43,197s-11.68-9.48-14.93-12.87l24.21-23,15.63,19.78Z"/><path class="cls-3" d="M79.64,162A13.15,13.15,0,0,1,72,159.25a3.28,3.28,0,0,1,4.1-5.13,6.24,6.24,0,0,0,4.18,1.26,5.41,5.41,0,0,0,3.42-2.6,3.29,3.29,0,0,1,5.43,3.7c-2.66,3.89-5.77,5.08-7.92,5.4A10,10,0,0,1,79.64,162Z"/><rect class="cls-4" x="7.76" y="87.6" width="10.23" height="12.44" transform="translate(-64.3 38.94) rotate(-46.77)"/><path class="cls-3" d="M17.87,87.63,0,106.64l50.59,47.55L23.86,182.63l-1.46-1.37-2,2.11,1.45,1.37,1,.94,16,15,28.72-30.55,11-11.69.07-.07a9.94,9.94,0,0,0-.43-14Z"/><path class="cls-2" d="M74.29,181.53a25.93,25.93,0,0,0,.36-8.27c-1-8.16-6.23-18.62-14.32-15.24-9.37,3.92,3,19.76,3,19.76L46.43,197a48.56,48.56,0,0,0,11.08,7.41l17.28-19.56Z"/><path class="cls-2" d="M30.85,162.68c-1.42.54-12.28,3.34-4.84,12.87,5.76,7.38,10.88,6.82,12.77,4.38,3.3-4.24.26-7.57.26-7.57Z"/><path class="cls-5" d="M40.57,174.77l-.36,1.61s-7.79,2-12.12-12l-.06-.19a12.61,12.61,0,0,1,1.86-1.08Z"/><path class="cls-2" d="M37.19,155.2s-10.33,2.12-6.41,12.16,11.13,10.07,13.31,7.89c3.81-3.8,0-9.42,0-9.42Z"/><path class="cls-5" d="M45.33,168.41h0s-7.46.89-11.15-12h0a12.55,12.55,0,0,1,1.7-.77Z"/><path class="cls-3" d="M47.57,176.6,29.16,157.42a11.36,11.36,0,0,1-.45-15.27l5.66-6.66,5,4.25-5.67,6.67a4.8,4.8,0,0,0,.19,6.46l18.41,19.19Z"/><path class="cls-2" d="M49.73,154.53c1.2,2,5.54,9.48.94,12.92s-9.35-.88-11.77-4.7-5.4-10.53-.52-13.27S48.52,152.5,49.73,154.53Z"/><path class="cls-4" d="M133.06,197l-30.45,28.53a13.69,13.69,0,0,1-17.59,1l-29.31-22L75,183.32l15.5,13c29.69-24.22,45.26-35.9,45.26-35.9Z"/><path class="cls-4" d="M200,160.45l10.68,100.12h24C228.49,176.3,200,160.45,200,160.45Z"/><polygon class="cls-3" points="206.12 196.43 212.51 260.57 217.26 260.57 206.12 196.43"/><path class="cls-4" d="M141.37,154.68h-5s-11,54.35-14.88,105.89h92.21c-3.9-51.54-14.88-105.89-14.88-105.89h-5l-26.27,62.94Z"/><polygon class="cls-3" points="167.63 217.62 144.58 201.66 147.71 187.49 131.54 181.57 143.32 156.67 167.63 217.62"/><polygon class="cls-3" points="167.63 217.62 190.69 201.66 187.55 187.49 203.73 181.57 191.95 156.67 167.63 217.62"/><circle class="cls-3" cx="167.63" cy="226.59" r="4.02"/><circle class="cls-3" cx="167.63" cy="246.3" r="4.02"/><path class="cls-3" d="M168.56,0c-22.9,0-40.22,3.81-52.23,7.9A30.71,30.71,0,0,0,95.58,37v68.31h146V37a30.83,30.83,0,0,0-21-29.19C208.54,3.76,191.29,0,168.56,0Z"/><polygon class="cls-4" points="119.06 86.65 95.58 81.57 95.58 85.84 118.18 90.72 119.06 86.65"/><polygon class="cls-4" points="95.58 72.64 95.58 76.91 118.18 81.79 119.06 77.71 95.58 72.64"/><polygon class="cls-4" points="95.58 67.97 118.18 72.86 119.06 68.78 95.58 63.71 95.58 67.97"/><polygon class="cls-4" points="119.06 95.58 95.58 90.51 95.58 94.77 118.18 99.66 119.06 95.58"/><polygon class="cls-4" points="218.05 86.65 241.53 81.57 241.53 85.84 218.93 90.72 218.05 86.65"/><polygon class="cls-4" points="241.53 72.64 241.53 76.91 218.93 81.79 218.05 77.71 241.53 72.64"/><polygon class="cls-4" points="241.53 67.97 218.93 72.86 218.05 68.78 241.53 63.71 241.53 67.97"/><polygon class="cls-4" points="218.05 95.58 241.53 90.51 241.53 94.77 218.93 99.66 218.05 95.58"/><path class="cls-6" d="M113.22,109s-7.48-12.32-15.51-9.68-10.34,40.92,15.51,41.14Z"/><path class="cls-6" d="M224.16,109s7.48-12.32,15.51-9.68,10.34,40.92-15.51,41.14Z"/><path class="cls-2" d="M230.05,143.4a20.79,20.79,0,0,1-18.35,20.66c-9.3,1.09-23,2-43.14,2s-33.84-.89-43.15-2a20.78,20.78,0,0,1-18.34-20.66V67.27a20.36,20.36,0,0,1,14.84-19.6l1.89-.54a53.59,53.59,0,0,1,29.89.26l14.87,4.46,14.86-4.46a53.62,53.62,0,0,1,29.9-.26l1.88.54a20.37,20.37,0,0,1,14.85,19.6Z"/><path class="cls-3" d="M168.56,115c-26.2,0-48,8-61.49,14.58V143.4a20.79,20.79,0,0,0,9.34,17.37c-.32-33.13,36.65-36,52.15-36s52.47,2.91,52.14,36a20.8,20.8,0,0,0,9.35-17.37V129.55C216.55,123,194.75,115,168.56,115Z"/><path class="cls-5" d="M203.34,147.62a1,1,0,0,1-.35-.05c-.12,0-12.21-3.28-34.28-3.28s-34.5,3.25-34.62,3.29a1.31,1.31,0,1,1-.68-2.54c.51-.14,12.84-3.38,35.3-3.38s34.47,3.24,35,3.38a1.32,1.32,0,0,1,.92,1.62A1.31,1.31,0,0,1,203.34,147.62Z"/><path class="cls-7" d="M241.53,91.79c-27.82-4-73-4.32-73-4.32s-45.16.37-73,4.32v6.79l11.49-1.22s14.21,18.08,24.7,18.46S168.56,93,168.56,93s26.29,23.19,36.78,22.82,24.71-18.46,24.71-18.46l11.48,1.22Z"/><path class="cls-5" d="M168.56,106.84c-4.88,0-10.65,5.47-10.65,5.47s6-2.73,10.65-2.73,10.95,2.73,10.95,2.73S173.44,106.84,168.56,106.84Z"/></g></g></svg>