<svg xmlns="http://www.w3.org/2000/svg" viewBox="0 0 226.71 259.54"><defs><style>.cls-1{fill:#f4efed;}.cls-2{fill:#e2dcd9;}.cls-3{fill:#ba8156;}.cls-4{fill:#ad3e3b;}.cls-5{fill:#d19865;}.cls-6{fill:#f9dab4;}.cls-7{fill:#efc4a0;}.cls-8{fill:#3f3e3d;}.cls-9{fill:#302f2d;}.cls-10{fill:#515151;}.cls-11{fill:#f4d3b0;}.cls-12{fill:#3a332d;}.cls-13{fill:#e8dfd9;}</style></defs><title>资源 65</title><g id="图层_2" data-name="图层 2"><g id="Layer_1" data-name="Layer 1"><rect class="cls-1" x="69.74" y="155.9" width="51.05" height="103.64"/><rect class="cls-2" x="69.74" y="250.2" width="51.05" height="9.35"/><path class="cls-3" d="M175.57,157.41c6.64-2.51,25.57,8.94,42.68,59.74l-24.33,15.54A138.22,138.22,0,0,1,182,208.93C174.09,188.11,167.5,160.47,175.57,157.41Z"/><path class="cls-4" d="M218.25,217.15c.89,1.39-3.84,6-10.56,10.28s-12.88,6.65-13.77,5.26,3.84-6,10.56-10.29S217.36,215.76,218.25,217.15Z"/><path class="cls-5" d="M202.53,181a51.15,51.15,0,0,0-25.26,11.28l-.66.57.75,2.52c.46-.42.94-.84,1.45-1.27a49,49,0,0,1,25-10.89C203.36,182.45,202.94,181.72,202.53,181Z"/><path class="cls-5" d="M214.53,206.78a50.62,50.62,0,0,0-22.4,10.76,47.82,47.82,0,0,0-4.41,4.23c.4.78.79,1.54,1.18,2.25a45.22,45.22,0,0,1,4.76-4.67A48.39,48.39,0,0,1,215.38,209C215.1,208.27,214.81,207.52,214.53,206.78Z"/><path class="cls-5" d="M171.89,166.49a49,49,0,0,1,13.73-6.11,23.46,23.46,0,0,0-2.7-1.69,51.75,51.75,0,0,0-10.83,4.87A28.73,28.73,0,0,0,171.89,166.49Z"/><path class="cls-5" d="M184.75,207.47a49.08,49.08,0,0,1,25.57-11l-1-2.26a51.4,51.4,0,0,0-26.1,11.41c-.65.55-1.26,1.1-1.83,1.64.2.55.41,1.1.61,1.64l.3.77C183,209,183.86,208.22,184.75,207.47Z"/><path class="cls-5" d="M195.81,170.78c-.55-.72-1.1-1.42-1.64-2.08a50.91,50.91,0,0,0-21,9.88c.17.87.34,1.75.53,2.65l.06,0A48.38,48.38,0,0,1,195.81,170.78Z"/><path class="cls-6" d="M157.06,194.41s3.36-24.12,20.46-18.66,14.21,22.78,11.25,25.95a8.46,8.46,0,0,1-7.79,1.74c1.29,6.49,4.21,13.6,8.19,21.1-8.63,8.88-22.35,6.28-22.35,6.28Z"/><path class="cls-7" d="M181,203.44a26.58,26.58,0,0,1-8.2-4.7s3.89,8.37,9.72,10.47h0A52.54,52.54,0,0,1,181,203.44Z"/><path class="cls-6" d="M216.49,190.13s15.19-3.44,8.52,16.57c-4.92,14.77-13.95,6.88-13.91,2Z"/><path class="cls-7" d="M221.47,190.22a11.08,11.08,0,0,0-3.41-.29c-.21.74-5.57,20-6.49,20.88h0s9.38-6.22,9.9-20.59Z"/><path class="cls-6" d="M210.63,179.58c9.22-.62,7.91,12.63,6.25,20.4s-5.76,13.32-10.31,12.66c-4.85-.7-7.35-5.43-5.24-18.23S206.47,179.86,210.63,179.58Z"/><path class="cls-6" d="M3.38,219.23s-6,19.9.72,35q1.26,2.83,2.55,5.36H23.43c-1.5-2.2-2.79-3.85-3-4.2,0,0,3.7,1.85,5.08-.81,1.28-2.49,1.52-15.85-2-27.76Z"/><path class="cls-7" d="M15,246.74s-2.34,11.07,8.39,12.71c-1.47-2.16-2.73-3.76-2.92-4.11C20.44,255.34,16.55,254.07,15,246.74Z"/><path class="cls-8" d="M0,225.16l23,2.4a186.33,186.33,0,0,0-4.37,32h59C89,234.71,93,199.57,75.11,151.32,75.11,151.32,8.38,164.08,0,225.16Z"/><path class="cls-9" d="M59.23,257.7l-22.39-2.22A6.51,6.51,0,0,1,31,248.36l.81-8.18,35.35,3.5-.81,8.18A6.5,6.5,0,0,1,59.23,257.7Z"/><path class="cls-9" d="M23,227.56s9.36-38.65,16.46-45.75c0,0-15.21,13.06-21.65,45.21Z"/><path class="cls-10" d="M75.4,152.13c-.11.06-17.32,9.73-18,21-.43,7,17.41,15.23,17.41,15.23s-8.33,6.12-8.86,12.74c-.85,10.59,18.19,39.37,18.24,39.46C89.64,217.84,88.85,188.78,75.4,152.13Z"/><path class="cls-8" d="M168.33,227.56c-15.5-69.31-52.1-76.24-52.1-76.24-17.9,48.25-13.89,83.39-2.55,108.22h59.65A189.18,189.18,0,0,0,168.33,227.56Z"/><path class="cls-9" d="M132.1,257.7l22.39-2.22a6.5,6.5,0,0,0,5.84-7.12l-.81-8.18-35.35,3.5.81,8.18A6.51,6.51,0,0,0,132.1,257.7Z"/><path class="cls-10" d="M115.94,152.13c.1.06,17.32,9.73,18,21,.42,7-17.41,15.23-17.41,15.23s8.33,6.12,8.86,12.74c.85,10.59-18.19,39.37-18.25,39.46C101.7,217.84,102.48,188.78,115.94,152.13Z"/><path class="cls-11" d="M27.88,102.49s-14.39-7.85-20.74,0,9.34,38.5,36.07,33.08Z"/><path class="cls-11" d="M164.76,102.49s14.39-7.85,20.74,0-9.34,38.5-36.06,33.08Z"/><ellipse class="cls-6" cx="96.13" cy="81.06" rx="78.6" ry="81.06"/><circle class="cls-12" cx="52.46" cy="87.75" r="9.66"/><path class="cls-13" d="M49.53,81.4c-.28,1.38,1.43,2.9,3.82,3.38s4.54-.25,4.82-1.64-1.43-2.89-3.81-3.37S49.81,80,49.53,81.4Z"/><path class="cls-12" d="M126.94,70.23a2.46,2.46,0,0,1-1.84-4.1c.38-.43,9.59-10.56,29.24-5.33a2.46,2.46,0,1,1-1.26,4.75c-16.55-4.4-24,3.51-24.3,3.85A2.44,2.44,0,0,1,126.94,70.23Z"/><circle class="cls-12" cx="139.33" cy="87.75" r="9.66"/><path class="cls-13" d="M136.4,81.4c-.27,1.38,1.43,2.9,3.82,3.38s4.54-.25,4.82-1.64-1.43-2.89-3.81-3.37S136.68,80,136.4,81.4Z"/><path class="cls-12" d="M64.82,70.34A2.45,2.45,0,0,1,63,69.5c-.33-.37-7.7-8.31-24.26-4.06a2.46,2.46,0,0,1-1.22-4.77c19.7-5.05,28.81,5.16,29.19,5.6a2.46,2.46,0,0,1-1.86,4.07Z"/><path class="cls-7" d="M82.25,109.21s.53-8.6,10.35-8.6,10.35,8.6,10.35,8.6-4.34-5.63-10.35-5.63S82.25,109.21,82.25,109.21Z"/><path class="cls-7" d="M92.36,137.6c-2.08,0-4-.07-5.83-.18a89,89,0,0,1-17.34-2.69,1.11,1.11,0,0,1-.75-1.37,1.09,1.09,0,0,1,1.36-.76,88.39,88.39,0,0,0,16.92,2.61c9,.56,22.42,0,34.76-5.58a1.11,1.11,0,0,1,.92,2C112.08,136.35,101.11,137.6,92.36,137.6Z"/><path class="cls-7" d="M134,127.08a1.1,1.1,0,0,1-1.09-1c-.27-1.92-.87-3.14-1.68-3.44-1.1-.4-2.87.73-3.55,1.34a1.11,1.11,0,0,1-1.48-1.65c.32-.29,3.17-2.73,5.8-1.77,1.65.61,2.7,2.36,3.1,5.21a1.11,1.11,0,0,1-.94,1.25Z"/><path class="cls-12" d="M107.18,114.49s11.67,2.43,20.78,0v6.13S115.81,122,107.18,114.49Z"/><path class="cls-12" d="M78.75,114.49s-11.67,2.43-20.78,0v6.13S70.12,122,78.75,114.49Z"/><path class="cls-7" d="M83.24,147.7s-4.49,11.91,14.46,8.87,9.48-11.3,9.48-11.3,3.28,5.95-10,8.75S83.24,147.7,83.24,147.7Z"/></g></g></svg>