<?xml version="1.0" standalone="no"?><!DOCTYPE svg PUBLIC "-//W3C//DTD SVG 1.1//EN" "http://www.w3.org/Graphics/SVG/1.1/DTD/svg11.dtd"><svg t="1548422581879" class="icon" style="" viewBox="0 0 1025 1024" version="1.1" xmlns="http://www.w3.org/2000/svg" p-id="23680" xmlns:xlink="http://www.w3.org/1999/xlink" width="200.1953125" height="200"><defs><style type="text/css"></style></defs><path d="M696.771968 84.255069a48.807758 48.807758 0 0 1 1.504555-68.607699A48.145754 48.145754 0 0 1 766.884222 14.142815a49.168851 49.168851 0 0 1-1.504555 68.90861 48.506847 48.506847 0 0 1-68.607699 1.203644zM1025.667649 534.718778L538.191892 1024 122.332944 745.055539l206.72583-90.273288-17.753747-347.853071 347.853071 17.753747 89.069645-207.327652z m-390.281517-44.835734l-2.106376 139.923597-139.622686 2.407288-1.805466 65.297678 203.415809-5.115486 5.416398-204.318542z m-436.320893-201.610343a65.8995 65.8995 0 1 1 91.476932-1.504555 64.966676 64.966676 0 0 1-91.476932 1.504555zM16.412286 760.401998a50.071584 50.071584 0 1 1 68.90861-1.504555 48.898031 48.898031 0 0 1-68.90861 1.504555z" fill="#E0BA7F" p-id="23681"></path></svg>