<svg xmlns="http://www.w3.org/2000/svg" viewBox="0 0 181.84 260"><defs><style>.cls-1{fill:#515151;}.cls-2{fill:#f4efed;}.cls-3{fill:#e2dcd9;}.cls-4{fill:#c65044;}.cls-5{fill:#ad3e3b;}.cls-6{fill:#f4d3b0;}.cls-7{fill:#f9dab4;}.cls-8{fill:#3a332d;}.cls-9{fill:#efc4a0;}.cls-10{fill:#393c3d;}</style></defs><title>资源 83</title><g id="图层_2" data-name="图层 2"><g id="Layer_1" data-name="Layer 1"><path class="cls-1" d="M90.92,0C-10,0-7.54,100.09,8.06,158.74c7.32,27.5,22.07,39.45,22.07,39.45-1.34-4.23,1.34-9.81,1.34-9.81,10,23.63,59.45,25.86,59.45,25.86s49.42-2.23,59.45-25.86c0,0,2.68,5.58,1.34,9.81,0,0,14.75-11.95,22.06-39.45C189.38,100.09,191.86,0,90.92,0Z"/><path class="cls-2" d="M116.21,157.65H62.7S34.52,196.4,27.3,260H151.61C144.39,196.4,116.21,157.65,116.21,157.65Z"/><path class="cls-3" d="M120.67,191.35c2.25,11.43,6.89,50.15,9,68.65h5.44C130.72,230.65,120.67,191.35,120.67,191.35Z"/><path class="cls-3" d="M49.19,260c2.16-18.5,6.8-57.22,9.05-68.65,0,0-10.05,39.3-14.5,68.65Z"/><path class="cls-3" d="M94.4,185.07A4.44,4.44,0,1,1,90,180.63,4.44,4.44,0,0,1,94.4,185.07Z"/><path class="cls-3" d="M94.4,203.24A4.44,4.44,0,1,1,90,198.8,4.44,4.44,0,0,1,94.4,203.24Z"/><path class="cls-3" d="M94.4,221.41A4.44,4.44,0,1,1,90,217,4.44,4.44,0,0,1,94.4,221.41Z"/><path class="cls-3" d="M94.4,239.58A4.44,4.44,0,1,1,90,235.14,4.44,4.44,0,0,1,94.4,239.58Z"/><path class="cls-3" d="M90,253.3a4.44,4.44,0,0,0-3.82,6.7h7.64A4.44,4.44,0,0,0,90,253.3Z"/><path class="cls-4" d="M90,170.08v3.34l-19.23,5.14a3.44,3.44,0,0,1-4.32-3.32v-7.8a3.44,3.44,0,0,1,4.45-3.28Z"/><path class="cls-4" d="M90,170.08v3.34l19.23,5.14a3.44,3.44,0,0,0,4.32-3.32v-7.8a3.44,3.44,0,0,0-4.45-3.28Z"/><rect class="cls-5" x="83.86" y="166.39" width="12.18" height="10.91" rx="3.8"/><path class="cls-6" d="M27.94,109.63s-14-5.64-20.67,4,6.19,37.58,38.47,33.27Z"/><path class="cls-6" d="M153.83,109.63s14-5.64,20.67,4-6.19,37.58-38.46,33.27Z"/><path class="cls-7" d="M113.16,162.69,100.8,166.1a37,37,0,0,1-19.76,0l-12.36-3.41a61.16,61.16,0,0,1-44.89-58.95V49H158v54.7A61.15,61.15,0,0,1,113.16,162.69Z"/><path class="cls-8" d="M46.63,119.1a1.32,1.32,0,0,1-1.32-1.32c0-3.51,1.76-10.23,8.59-10.46s9.71,5.28,10.38,8.21a1.32,1.32,0,0,1-2.58.6c-.06-.28-1.58-6.36-7.71-6.16s-6,7.49-6,7.8a1.31,1.31,0,0,1-1.31,1.33Z"/><path class="cls-8" d="M44.36,119a17.29,17.29,0,0,1-5.68-1,1.32,1.32,0,1,1,.86-2.5,12.46,12.46,0,0,0,6.73.68,1.34,1.34,0,0,1,1.63.92,1.3,1.3,0,0,1-.9,1.62A9.8,9.8,0,0,1,44.36,119Z"/><path class="cls-8" d="M46.8,116.28c-3.88,0-8.34-3.64-8.53-3.79a1.33,1.33,0,0,1,1.68-2h0c1.1.91,4.47,3.24,6.9,3.19h0a1.33,1.33,0,0,1,0,2.65Z"/><path class="cls-8" d="M134.33,119.1h0a1.31,1.31,0,0,1-1.31-1.33c0-.31-.07-7.6-6-7.8-6.15-.21-7.65,5.9-7.71,6.16a1.32,1.32,0,1,1-2.58-.6c.67-2.93,3.7-8.44,10.38-8.21s8.61,7,8.59,10.46A1.32,1.32,0,0,1,134.33,119.1Z"/><path class="cls-8" d="M136.59,119a9.76,9.76,0,0,1-2.63-.29,1.32,1.32,0,0,1,.73-2.54,12.48,12.48,0,0,0,6.73-.68,1.32,1.32,0,0,1,.86,2.5A17.3,17.3,0,0,1,136.59,119Z"/><path class="cls-8" d="M134.16,116.28h-.1a1.33,1.33,0,0,1,0-2.65h.09c2.43,0,5.75-2.3,6.84-3.19a1.32,1.32,0,0,1,1.86.17,1.34,1.34,0,0,1-.18,1.87C142.5,112.64,138,116.28,134.16,116.28Z"/><path class="cls-4" d="M76.79,146.36s3-4.57,6.55-4.35,5.41,3.57,5.41,3.57,3.16-3.5,6.85-3.43,5.3,4.57,5.3,4.57-3.67,8.55-12.42,8.55S76.79,146.36,76.79,146.36Z"/><path class="cls-9" d="M82.81,131.65s.6-5.4,5.8-5.43,6.27,5.43,6.27,5.43-2.84-3.33-6.17-3.33S82.81,131.65,82.81,131.65Z"/><path class="cls-10" d="M112.76,88.09,111.65,91a.73.73,0,0,0,.33.9c3.14,1.73,18.93,10.09,28.63,8.77a.72.72,0,0,0,.61-.85l-.56-3.06a.73.73,0,0,0-.68-.6c-2.56-.12-13.41-1.07-26.17-8.45A.74.74,0,0,0,112.76,88.09Z"/><path class="cls-10" d="M67.57,88.09,68.68,91a.73.73,0,0,1-.33.9c-3.14,1.73-18.93,10.09-28.63,8.77a.74.74,0,0,1-.62-.85l.57-3.06a.73.73,0,0,1,.68-.6c2.56-.12,13.41-1.07,26.17-8.45A.74.74,0,0,1,67.57,88.09Z"/><path class="cls-1" d="M22.07,41.8s-5.94,35.83,1.72,55.43c0,0,25.93,0,37.68-19.32,0,0,4,9.85,0,15,0,0,46.84-2.75,56.17-35.59,0,0,13.83,33,43.38,29.73l1.55-49.26Z"/></g></g></svg>