<svg xmlns="http://www.w3.org/2000/svg" viewBox="0 0 175.32 259.97"><defs><style>.cls-1{fill:#e0605c;}.cls-2{fill:#d14e4e;}.cls-3{fill:#cc4242;}.cls-4{fill:#bc3131;}.cls-5{fill:#211913;}.cls-6{fill:#f9dab4;}.cls-7{fill:#47413e;}.cls-8{fill:#f9f5ed;}.cls-9{fill:#f7cea6;}.cls-10{fill:#f9f7f2;}.cls-11{fill:#edcdae;}</style></defs><title>资源 107</title><g id="图层_2" data-name="图层 2"><g id="Layer_1" data-name="Layer 1"><path class="cls-1" d="M25.6,207.38C22.74,225.59,19.42,245,16.81,260H44.13C46.66,227.3,50,177.44,47,173.83,47,173.83,31.33,170.86,25.6,207.38Z"/><path class="cls-2" d="M31.28,186.92c2.42,1.93,7.45,7.87,6,23.19-1,10.51-3.15,31.91-5,49.86H44.13C46.66,227.3,50,177.44,47,173.83,47,173.83,38.11,172.15,31.28,186.92Z"/><path class="cls-1" d="M150.9,206.57c-5.35-36.58-21.05-33.77-21.05-33.77-3.06,3.62-.16,54.5,2,87.17h27.36C156.78,244.92,153.61,225.11,150.9,206.57Z"/><path class="cls-2" d="M129.85,172.8c-3.06,3.62-.16,54.5,2,87.17h11.83c-1.68-18.14-3.68-40.1-4.56-50.79-1.26-15.34,3.83-21.22,6.28-23.13C138.76,171.21,129.85,172.8,129.85,172.8Z"/><path class="cls-1" d="M131.81,172.56c-15.58-3.6-31.73-4.79-47.18-4.77-6.58,0-13.2-.28-19.72.7-2.22.33-21.86,4.35-21.84,5.94,0,0,.93,61.65.93,80.33A5.83,5.83,0,0,0,42.08,260h92.43Z"/><path class="cls-3" d="M78.25,167.76V260H98V168q-5.78-.24-11.45-.22C83.75,167.79,81,167.75,78.25,167.76Z"/><path class="cls-4" d="M88.14,260h.1c5.43-40.16.52-71.86-.91-79.69C89.24,193.74,88.28,252.18,88.14,260Z"/><path class="cls-4" d="M87.33,180.28a14.88,14.88,0,0,0-.36-1.87S87.11,179.06,87.33,180.28Z"/><path class="cls-2" d="M62.37,169.91s20.24,11.83,51.38,0c.85-.32.9-6.38.91-7.13a19.62,19.62,0,0,0-.72-5.76c-.48-1.57-1.46-3.65-3.18-4-2.6-.59-6.2,1.41-8.79,1.83a179.56,179.56,0,0,1-19.08,2c-3.48.19-7,.13-10.47,0-2.31-.09-6.16-1.53-8.3-.36-1.68.93-1.61,3.65-1.9,5.33A24.51,24.51,0,0,0,62.37,169.91Z"/><path class="cls-5" d="M62.2,147.26s-20.43,15.62-44.92.52C-10.39,130.71-.23,74.25,15.87,40c13-27.58,45.28-52.34,68-29.62,36.1-26.78,66.64,2.12,80.48,44.25s16.36,80.7-2.9,92.73-41.48,2.33-54.11-4.28S62.2,147.26,62.2,147.26Z"/><path class="cls-6" d="M143.14,86.48s3.84,15.41,3,39.45c-.92,25.86-40,48.41-82.7,37.57s-27.69-77-27.69-77S93.8,102.2,143.14,86.48Z"/><path class="cls-7" d="M132.46,113.52a9.59,9.59,0,1,1-9.59-9.82A9.7,9.7,0,0,1,132.46,113.52Z"/><path class="cls-8" d="M127.78,106.9c1.52.9,2.2,2.56,1.52,3.71s-2.47,1.37-4,.47-2.2-2.56-1.52-3.72S126.26,106,127.78,106.9Z"/><path class="cls-1" d="M64.49,147.35a32.14,32.14,0,0,0,6.68,3.87,44,44,0,0,0,18,3.82c7.62,0,16.68-1.91,26.69-7.6a.9.9,0,1,0-.9-1.57c-9.75,5.54-18.47,7.37-25.79,7.37a42.15,42.15,0,0,1-17.31-3.67,36.37,36.37,0,0,1-4.69-2.51c-.53-.34-.93-.62-1.2-.82a3,3,0,0,1-.3-.22l-.07-.05,0,0a.91.91,0,0,0-1.27.13A.9.9,0,0,0,64.49,147.35Z"/><path class="cls-9" d="M86.2,117.05c-1.27,2.58-1.8,5.36-2.72,8s-3.47,5.72-2.3,8.69c1.06,2.68,4.19,3.67,7.15,3.82,8,.39,11.64-2.51,9.41-9.58C96.77,124.94,91.15,107,86.2,117.05Z"/><path class="cls-6" d="M87,116.19a64.55,64.55,0,0,0-2.33,7.22c-.81,2.48-2.92,5.15-2,7.81.84,2.39,3.41,3.25,5.85,3.36,6.59.29,9.62-2.34,7.85-8.65C95.59,123.18,91.14,107.18,87,116.19Z"/><path class="cls-10" d="M88.09,133.92c.08.37,1,.53,2,.35s1.76-.62,1.68-1-1-.53-2-.35S88,133.54,88.09,133.92Z"/><path class="cls-7" d="M110.52,105.28s12-8.84,21.32-2.71a18,18,0,0,0-1.13-2.4A4.61,4.61,0,0,0,129,98.62c-4-2-10.39-1-14.14,1.45A12.81,12.81,0,0,0,110.52,105.28Z"/><path class="cls-7" d="M68,105.28s-12-8.84-21.31-2.71a15.82,15.82,0,0,1,1.13-2.4,4.58,4.58,0,0,1,1.71-1.55c4-2,10.39-1,14.14,1.45A12.81,12.81,0,0,1,68,105.28Z"/><path class="cls-7" d="M50.14,111.78h.1a34.53,34.53,0,0,1,6.06.65c3,.58,6.37,1.72,8.61,3.74a5.53,5.53,0,0,1,.72.76,1.27,1.27,0,0,1,.12.18v0l.06,0-.07,0h0l.06,0-.07,0,.29-.07-.3,0v.05l.29-.07-.3,0,.49,0-.38-.29-.11.32.49,0-.38-.29.24.19-.15-.27-.09.08.24.19-.15-.27,0,0a3.17,3.17,0,0,1-.69.09,47,47,0,0,1-4.87-.27,51.77,51.77,0,0,0-6.52-.2,15.78,15.78,0,0,0-4.29.73.9.9,0,0,0,.59,1.71,13.93,13.93,0,0,1,3.79-.64,50.79,50.79,0,0,1,6.29.2,47.91,47.91,0,0,0,5.11.28,3.69,3.69,0,0,0,1.35-.27,1.51,1.51,0,0,0,.63-.47,1.32,1.32,0,0,0,.27-.87,2,2,0,0,0-.47-1.12,6.78,6.78,0,0,0-1-1c-2.84-2.54-6.82-3.7-10.1-4.29a36.46,36.46,0,0,0-5.9-.57.91.91,0,0,0,0,1.81Z"/><path class="cls-11" d="M143.14,86.48c-40.79,13-87.55,4.5-102.53,1.17,14.52,7.1,51.93,20.9,99.07,4.32,4.56,24.72,5.39,44.64-2,53.58,5.12-5.91,8.15-12.64,8.4-19.62C147,101.89,143.14,86.48,143.14,86.48Z"/></g></g></svg>