<svg xmlns="http://www.w3.org/2000/svg" viewBox="0 0 155.25 259.98"><defs><style>.cls-1{fill:#7f5732;}.cls-2{fill:#6b4627;}.cls-3{fill:#997752;}.cls-4{fill:#eae5dc;}.cls-5{fill:#d3cec7;}.cls-6{fill:#ddb58e;}.cls-7{fill:#9e6f4c;}.cls-8{fill:#3a332d;}.cls-9{fill:#f4d3b0;}.cls-10{fill:#f2d0af;}.cls-11{fill:#302f2d;}</style></defs><title>资源 260</title><g id="图层_2" data-name="图层 2"><g id="Layer_1" data-name="Layer 1"><path class="cls-1" d="M81.69,241.74H38.19A136.42,136.42,0,0,0,37.44,260H117.8a135.42,135.42,0,0,0-.74-18.24Z"/><path class="cls-1" d="M127.16,187c-16.45-29.91-24.79-27.42-24.79-27.42l9.2,51.46s4.51,34.09,9.6,49h22.89C143.06,244.07,139.5,209.41,127.16,187Z"/><path class="cls-1" d="M28.38,187c16.45-29.91,24.78-27.42,24.78-27.42L44,211s-4.5,34.09-9.59,49H11.47C12.48,244.07,16,209.41,28.38,187Z"/><path class="cls-2" d="M80.19,238.85c-7.38-.35-15.39,0-22.62-1.68-6.24-1.44-11.14-4.69-16.3-8-2.15,7.64-3.53,13.22-3.53,13.66,0,5.71,17.86,10.33,39.88,10.33s39.89-4.62,39.89-10.33c0-.35-.78-4.15-2.07-9.68C104.5,238.23,92.78,239.45,80.19,238.85Z"/><path class="cls-3" d="M85.68,239c-1.81,0-3.64,0-5.49-.12-3.83-.18-7.83-.18-11.81-.37v14.36c3,.18,6.06.29,9.24.29q4.16,0,8.06-.21Z"/><path class="cls-4" d="M117.51,234.82c0,5.71-17.86,10.33-39.89,10.33s-39.88-4.62-39.88-10.33c0-1.49,15.66-61.32,23.71-62,14.8-1.31,20.23-1.33,34.9,0C104.24,173.5,117.51,233.35,117.51,234.82Z"/><path class="cls-5" d="M100.53,166.17c0,7.78-10.26,14.1-22.91,14.1s-22.9-6.32-22.9-14.1,10.25-14.1,22.9-14.1S100.53,158.38,100.53,166.17Z"/><path class="cls-6" d="M93.79,166.17c0,5.5-7.24,10-16.17,10s-16.17-4.45-16.17-10,7.24-9.95,16.17-9.95S93.79,160.67,93.79,166.17Z"/><path class="cls-7" d="M50.56,156.22S36.77,215.3,35.21,260h17.5c8.48-10.37,17-25.24,17.46-43.6,1-37.23-3-58.17-3-58.17Z"/><path class="cls-2" d="M67.7,161.46C63.29,172,54.88,192.27,54.88,194.11c0,2.49,9.31,2.82,9.31,4.82s-9.14,16.95-9.31,19.61c-.13,2.09,10,5.62,14.35,7a62,62,0,0,0,.94-9.19C70.94,187.68,68.75,168.67,67.7,161.46Z"/><path class="cls-7" d="M104.69,156.22l-16.62,2s-4,20.94-3,58.17c.49,18.36,9,33.23,17.46,43.6H120C118.48,215.3,104.69,156.22,104.69,156.22Z"/><path class="cls-2" d="M87.55,161.46C92,172,100.37,192.27,100.37,194.11c0,2.49-9.31,2.82-9.31,4.82s9.14,16.95,9.31,19.61c.13,2.09-10,5.62-14.35,7a62,62,0,0,1-.94-9.19C84.31,187.68,86.5,168.67,87.55,161.46Z"/><path class="cls-8" d="M146.91,27.54C140.59,15.89,107.72,0,76.24,0S14.66,15.89,8.34,27.54C-8.61,58.78,5.53,98.32,5.53,98.32s.85,2.78,5.45,13.25S23.14,118,23.14,118L26.63,81s15,21.19,34.16,25.67c0,0-8.73-8.72-10.22-13.71,0,0,27.08,14.15,58.83,7.66L97.93,89.76s22.66,5.55,35.27,10.54c-.6,9.82-1.09,17.66-1.09,17.66s7.56,4.08,12.16-6.39,5.45-13.25,5.45-13.25S163.86,58.78,146.91,27.54Z"/><path class="cls-9" d="M19,118.68S17,91.22,6.24,96.32s-4.77,39.13,20.64,42.87Z"/><path class="cls-9" d="M136,118.73s2.29-27.51,13-22.41,4.77,39.13-20.64,42.87Z"/><path class="cls-10" d="M135.09,72.49H20.67C21.54,88.73,23.4,118,23.4,118a8,8,0,0,1-4.4.72v6.06c2.22,36.85,34.56,41.71,58.51,41.71s56.27-4.86,58.5-41.71v-6a8.07,8.07,0,0,1-3.65-.77S134.22,88.73,135.09,72.49Z"/><path class="cls-8" d="M134.59,100.3c-.13,2.06-.25,4-.36,5.86C136,103.37,145,72.35,138,63.05,125.18,45.94,96.7,34.46,75.71,33.73c-17.66-.62-37.38,4.16-49.56,17.9-7.54,8.51-13.57,20.29-10.88,32,1.33,5.77,7.41,23,7.41,23L28,81s15,21.19,34.16,25.67c0,0-8.72-8.72-10.22-13.71,0,0,27.08,14.15,58.83,7.66L99.32,89.76S122,95.31,134.59,100.3Z"/><path class="cls-11" d="M136.6,113.78H18.65l.37,3.86s25.5,19.32,35.31,20c9.56.65,17.09-12.66,20.82-13.6h3.7c3.73.94,11.26,14.25,20.82,13.6,9.81-.67,36.44-20.47,36.44-20.47Z"/><path class="cls-6" d="M88,143.94s-2-10.32-9.51-10.64-11.16,13.26-11.16,13.26,5.07-10.19,11-9.54S88,143.94,88,143.94Z"/><path class="cls-6" d="M47.79,144.58l2.46,1.1c1.56.71,3.84,1.6,6.57,2.64a78.4,78.4,0,0,0,9.49,2.87c1.76.42,3.6.7,5.46.95a27.64,27.64,0,0,0,5.6.09,52.42,52.42,0,0,0,5.75-.77c1.84-.39,3.67-.65,5.43-1.16,3.53-.86,6.82-1.78,9.61-2.67l3.81-1.21,2.93-1,2.56-.87s-.86.48-2.41,1.23-3.76,1.81-6.52,2.88c-1.36.57-2.87,1.09-4.46,1.67S90.78,151.49,89,152s-3.67,1-5.6,1.38a54.93,54.93,0,0,1-5.81.84,29.65,29.65,0,0,1-6-.16,42.77,42.77,0,0,1-5.65-1.17,62.67,62.67,0,0,1-9.5-3.53A70.63,70.63,0,0,1,50.08,146C48.6,145.15,47.79,144.58,47.79,144.58Z"/></g></g></svg>