<svg xmlns="http://www.w3.org/2000/svg" viewBox="0 0 316.54 260"><defs><style>.cls-1{fill:#44919b;}.cls-2{fill:#348789;}.cls-3{fill:#5c9ea0;}.cls-4{fill:#257777;}.cls-5{fill:#4c3626;}.cls-6{fill:#f4d3b0;}.cls-7{fill:#f9dab4;}.cls-8{fill:#c65044;}.cls-9{fill:#efc4a0;}.cls-10{fill:#3a332d;}</style></defs><title>资源 176</title><g id="图层_2" data-name="图层 2"><g id="Layer_1" data-name="Layer 1"><path class="cls-1" d="M195.23,143.68l0-1.29H121.34l0,1.29c-7.33,4.46-30.58,20-29.32,36.73,1.5,19.87,28.9,42.63,28.9,42.63l37.39-2.43L195.66,223s27.4-22.76,28.9-42.63C225.82,163.67,202.57,148.14,195.23,143.68Z"/><path class="cls-2" d="M127.09,193.89a259.41,259.41,0,0,0,40.3.17c13.6-.92,29.58-2.69,42-9a40.89,40.89,0,0,0,14.11-12.18c-4.47-13.68-22.06-25.41-28.28-29.19l0-1.29H121.34l0,1.29c-6.44,3.92-25.13,16.36-28.75,30.67C97.22,187,114.71,192.78,127.09,193.89Z"/><path class="cls-1" d="M122.19,165.31s-7.79,1.55-10.92,16.22-25.59,49.36-28,60.49c-1.34,6.2-2,12.6.08,18h36.11C127.22,243.23,151.09,170,122.19,165.31Z"/><path class="cls-2" d="M97,239.18l9.5-21.75-9.68-4c-4.48,8.44-8.86,16.6-11.43,22.59Z"/><path class="cls-1" d="M205.27,181.53c-3.13-14.67-10.93-16.22-10.93-16.22-28.9,4.68-5,77.92,2.74,94.69h36.1c2.07-5.38,1.43-11.78.08-18C230.86,230.89,208.4,196.21,205.27,181.53Z"/><path class="cls-2" d="M219.55,239.18,210,217.43l9.69-4c4.48,8.44,8.86,16.6,11.43,22.59Z"/><path class="cls-3" d="M158.27,159.93c-33.37,0-36,6.13-36,6.13s-.49,12.41-6,29c-7.64,23.14-10,48.41-10.74,64.94H211c-.7-16.53-3.11-41.8-10.74-64.94-5.47-16.59-6-29-6-29S191.63,159.93,158.27,159.93Z"/><path class="cls-4" d="M187.77,150,159,155.17,130.21,150s-6.76,12-3,15.16,9.5,4.39,30.88,4.71v0h1.88v0c21.37-.32,27.28-1.64,30.88-4.71S187.77,150,187.77,150Z"/><rect class="cls-4" x="156.21" y="153.95" width="4.11" height="106.05"/><path class="cls-5" d="M84.14,38.51S77.42,18,56.15,24,38.24,49.7,40.48,65.75s4.48,31.34-6,32.83S22.57,85.9,25.93,78.81c0,0-8.58,0-10.07,14.18,0,0-3.74-7.84-4.85-7.46S5.78,98.21,7.65,100.82c0,0-5.6-5.59-6.72-4.85s-6.34,31,28.73,34,54.85-25,59-57.09S84.14,38.51,84.14,38.51Z"/><path class="cls-4" d="M95.31,39.27S79.78,32,71.1,42.93s-4.57,34.25,12.1,27.4S95.31,39.27,95.31,39.27Z"/><path class="cls-5" d="M232.4,38.51S239.12,18,260.38,24s17.91,25.74,15.68,41.79-4.48,31.34,6,32.83S294,85.9,290.61,78.81c0,0,8.58,0,10.07,14.18,0,0,3.73-7.84,4.85-7.46s5.23,12.68,3.36,15.29c0,0,5.6-5.59,6.72-4.85s6.34,31-28.73,34-54.85-25-59-57.09S232.4,38.51,232.4,38.51Z"/><path class="cls-4" d="M221.23,39.27s15.53-7.3,24.21,3.66,4.56,34.25-12.1,27.4S221.23,39.27,221.23,39.27Z"/><path class="cls-5" d="M226.89,127.41a85.45,85.45,0,0,0,12-43.84C238.87,37.41,202.78,0,158.27,0s-80.6,37.41-80.6,83.57a85.45,85.45,0,0,0,12,43.84Z"/><path class="cls-6" d="M107.46,113.25s-13.71-16-24.38-10,8.39,48.31,30.14,35.12Z"/><path class="cls-6" d="M209.08,113.25s13.71-16,24.38-10-8.39,48.31-30.14,35.12Z"/><path class="cls-7" d="M217.43,111.58c0,29.67-26.49,53.73-59.16,53.73S99.1,141.25,99.1,111.58s3.07-53.74,59.17-53.74S217.43,81.9,217.43,111.58Z"/><path class="cls-5" d="M175.89,99.36s8.51-6.63,21.6.22l-1.86,3.5s-11.57-4.62-18.29.09Z"/><path class="cls-5" d="M142,98.86s-8.82-6.21-21.55,1.28l2,3.41s11.33-5.19,18.28-.81Z"/><path class="cls-8" d="M148.28,140.55s2.7-4.19,5.82-4,4.81,3.29,4.81,3.29,2.8-3.22,6.08-3.16,4.7,4.2,4.7,4.2-3.25,7.86-11,7.86S148.28,140.55,148.28,140.55Z"/><path class="cls-9" d="M164.35,120.69s-.53,5-5.16,5-5.57-5-5.57-5,2.53,3,5.49,3S164.35,120.69,164.35,120.69Z"/><path class="cls-10" d="M192,120.69h0a1.09,1.09,0,0,1-1.07-1.1c0-.25-.06-6.23-4.95-6.39-5.06-.18-6.27,4.83-6.32,5a1.08,1.08,0,1,1-2.11-.48c.55-2.41,3-6.92,8.51-6.73s7.05,5.69,7,8.57A1.09,1.09,0,0,1,192,120.69Z"/><path class="cls-10" d="M193.82,120.63a8.1,8.1,0,0,1-2.16-.24,1.07,1.07,0,0,1-.74-1.34,1.09,1.09,0,0,1,1.33-.75,10.16,10.16,0,0,0,5.52-.55,1.08,1.08,0,0,1,.71,2A14.35,14.35,0,0,1,193.82,120.63Z"/><path class="cls-10" d="M191.82,118.37h-.08a1.09,1.09,0,0,1,0-2.17h.06c2,0,4.72-1.88,5.61-2.61a1.09,1.09,0,0,1,1.53.15,1.08,1.08,0,0,1-.15,1.52C198.66,115.39,195,118.37,191.82,118.37Z"/><path class="cls-10" d="M126,120.69h0a1.11,1.11,0,0,0,1.08-1.1c0-.25.05-6.23,4.94-6.39,5.07-.18,6.27,4.83,6.32,5a1.08,1.08,0,0,0,1.3.82,1.1,1.1,0,0,0,.82-1.3c-.55-2.41-3-6.92-8.51-6.73s-7.06,5.69-7,8.57A1.09,1.09,0,0,0,126,120.69Z"/><path class="cls-10" d="M124.15,120.63a8.1,8.1,0,0,0,2.16-.24,1.07,1.07,0,0,0,.74-1.34,1.09,1.09,0,0,0-1.33-.75,10.16,10.16,0,0,1-5.52-.55,1.08,1.08,0,0,0-.7,2A14.3,14.3,0,0,0,124.15,120.63Z"/><path class="cls-10" d="M126.15,118.37h.08a1.09,1.09,0,0,0,0-2.17h-.07c-2,0-4.72-1.88-5.61-2.61a1.08,1.08,0,0,0-1.38,1.67C119.31,115.39,123,118.37,126.15,118.37Z"/></g></g></svg>