<svg xmlns="http://www.w3.org/2000/svg" viewBox="0 0 160.29 259.9"><defs><style>.cls-1{fill:#f9f5ed;}.cls-2{fill:#515151;}.cls-3{fill:#393c3d;}.cls-4{fill:#4c3626;}.cls-5{fill:#f4d3b0;}.cls-6{fill:#f9dab4;}.cls-7{fill:#efc4a0;}</style></defs><title>资源 321</title><g id="图层_2" data-name="图层 2"><g id="Layer_1" data-name="Layer 1"><rect class="cls-1" x="56.82" y="140.59" width="45.44" height="93.46"/><path class="cls-1" d="M13.41,259.9H37.1l10.66-100S19.34,175.7,13.41,259.9Z"/><path class="cls-1" d="M145.87,259.9H122.18l-10.66-100S139.94,175.7,145.87,259.9Z"/><path class="cls-2" d="M53.77,154.19h-4.9s-11,54.45-14.79,105.71h91.35c-3.79-51.26-14.8-105.71-14.8-105.71h-4.9l-26,62.26Z"/><polygon class="cls-3" points="79.75 216.45 102.55 200.66 99.45 186.65 115.45 180.79 103.8 156.16 79.75 216.45"/><polygon class="cls-3" points="79.75 216.45 56.95 200.66 60.05 186.65 44.05 180.79 55.7 156.16 79.75 216.45"/><path class="cls-3" d="M75.77,225.33a4,4,0,1,0,4-4A4,4,0,0,0,75.77,225.33Z"/><path class="cls-3" d="M75.77,244.82a4,4,0,1,0,4-4A4,4,0,0,0,75.77,244.82Z"/><path class="cls-4" d="M79.94,0h0C33.57,0,0,7.57,0,7.57L3,98.88H156.86l3-91.31S126.31,0,79.94,0Z"/><path class="cls-5" d="M18.59,99.51s-6.71-9.44-14.93-5.26c-9.47,4.81.84,34.08,14.93,37.24Z"/><path class="cls-5" d="M141.69,99.51s6.71-9.44,14.94-5.26c9.46,4.81-.84,34.08-14.94,37.24Z"/><path class="cls-6" d="M145.91,122.89a33,33,0,0,1-15.55,28c-11.56,7.16-29,14.9-50.42,14.9s-38.85-7.74-50.42-14.9a33,33,0,0,1-15.55-28V72.2a12,12,0,0,1,12-12h32.6a17,17,0,0,1,13.86,7.12l7.52,10.5,7.52-10.5a17.07,17.07,0,0,1,13.87-7.12h32.6a12,12,0,0,1,12,12Z"/><path class="cls-7" d="M57.85,141.66c-2.24,0-3.55-.07-3.69-.08a1.26,1.26,0,0,1,.15-2.52c.34,0,34.57,1.8,62.18-14.72a1.26,1.26,0,0,1,1.3,2.17c-14.8,8.85-31.3,12.47-42.54,14A134.62,134.62,0,0,1,57.85,141.66Z"/><path class="cls-7" d="M78.65,112.69c7.22,0,6.63,6.25,6.63,6.25a7.76,7.76,0,0,0-6.7-4,9,9,0,0,0-7.18,4S71.43,112.69,78.65,112.69Z"/><polygon class="cls-4" points="100.53 86.42 100.53 80.91 128.66 77.38 128.66 82.61 100.53 86.42"/><path class="cls-2" d="M39.19,110.57a1.26,1.26,0,0,1-1.25-1.13c0-.42-1-10.32,6.27-12.2,5.85-1.5,9.75,4,11,7.08a1.26,1.26,0,0,1-2.34.94c-.12-.28-2.87-6.9-8-5.57s-4.4,9.4-4.39,9.48a1.26,1.26,0,0,1-1.12,1.39Z"/><polygon class="cls-4" points="57.39 86.42 57.39 80.91 29.27 77.38 29.27 82.61 57.39 86.42"/><path class="cls-2" d="M118.73,110.57h-.13a1.25,1.25,0,0,1-1.12-1.39h0c0-.08.78-8.15-4.4-9.48s-8,5.5-8,5.57a1.26,1.26,0,0,1-2.34-.94c1.24-3.11,5.14-8.58,11-7.08C121,99.12,120,109,120,109.44A1.27,1.27,0,0,1,118.73,110.57Z"/></g></g></svg>