<?xml version="1.0" standalone="no"?><!DOCTYPE svg PUBLIC "-//W3C//DTD SVG 1.1//EN" "http://www.w3.org/Graphics/SVG/1.1/DTD/svg11.dtd"><svg t="1548412494449" class="icon" style="" viewBox="0 0 1024 1024" version="1.1" xmlns="http://www.w3.org/2000/svg" p-id="5060" xmlns:xlink="http://www.w3.org/1999/xlink" width="200" height="200"><defs><style type="text/css"></style></defs><path d="M942.592 427.008c-5.632-27.648-22.528-45.056-43.008-44.544h-3.584c-59.392 0-108.032-48.64-108.032-108.032 0-18.944 9.216-40.96 9.216-40.96 10.24-24.576 2.048-53.76-19.456-68.096l-110.08-61.44-1.536-0.512c-7.68-3.072-15.36-4.608-23.04-4.608-16.896 0-33.28 6.656-44.032 17.92-13.824 14.848-54.272 47.616-84.992 47.616-32.256 0-72.704-35.328-86.016-48.64-15.872-16.896-43.52-23.552-67.584-13.824l-112.64 62.464-2.048 1.024c-21.504 15.36-29.696 44.544-18.944 68.096 0 0 9.216 22.016 9.216 40.96 0 59.392-48.64 108.032-108.032 108.032h-3.584c-20.992-0.512-37.888 16.896-43.008 44.544-1.024 3.072-9.216 49.152-9.216 86.016 0 36.352 8.704 82.944 9.216 86.016 5.12 27.136 21.504 44.544 41.984 44.544h4.096c59.392 0 108.032 48.64 108.032 108.032 0 18.944-9.216 40.96-9.216 40.96-10.24 24.576-2.048 52.736 18.944 68.096L353.28 921.088l1.536 0.512c7.68 3.072 15.36 4.608 23.04 4.608 17.408 0 33.792-7.168 44.544-18.944 15.36-16.384 56.32-50.688 87.04-50.688 31.232 0 72.704 34.816 88.064 51.712 10.752 11.776 27.648 18.944 44.544 18.944 7.168 0 14.336-1.024 22.016-4.096l112.128-61.952 1.536-1.024c21.504-15.36 29.696-44.544 18.944-68.096 0 0-9.216-22.016-9.216-40.96 0-59.392 48.64-108.032 108.032-108.032H900.096c20.48 0 36.864-17.408 41.984-44.544 1.024-3.072 9.216-49.152 9.216-86.016 0.512-35.84-8.192-82.944-8.704-85.504z m-59.392 155.648c-88.064 6.656-156.16 79.872-156.16 168.448 0 26.112 8.704 50.688 12.288 60.928L641.536 865.28l-2.048-2.048c-5.632-5.632-18.944-18.432-36.864-30.72-32.768-24.576-64.512-36.864-93.696-36.864-29.184 0-60.416 12.288-93.184 36.352-12.8 9.216-25.6 20.48-37.376 32.768l-93.184-52.224c4.096-11.264 12.288-35.84 12.288-61.44 0-88.576-68.608-161.792-156.672-168.448-2.048-11.776-7.168-44.032-7.168-70.144 0-25.088 5.12-57.344 7.68-70.144 88.064-6.656 156.16-79.872 156.16-168.448 0-26.112-8.704-50.688-12.288-60.928L384.512 158.72h0.512c14.336 14.336 28.672 25.6 37.888 32.256 31.744 22.528 62.976 34.816 91.648 34.816 28.16 0 58.88-11.264 91.136-34.304 17.408-12.288 30.208-24.576 37.376-31.744h0.512l96.256 53.248c-4.096 9.728-12.288 34.816-12.288 60.928 0 88.576 68.608 161.792 156.672 168.448 2.048 11.776 7.168 44.544 7.168 70.144-0.512 25.088-6.144 57.344-8.192 70.144z" fill="#333333" p-id="5061"></path><path d="M512 341.504c-95.744 0-170.496 74.752-170.496 170.496 0 95.744 74.752 170.496 170.496 170.496s170.496-74.752 170.496-170.496c0-95.744-74.752-170.496-170.496-170.496z m0 283.648c-58.368 0-113.664-54.784-113.664-113.152 0-58.368 55.296-113.664 113.664-113.664 58.368 0 113.152 55.296 113.152 113.664 0 58.368-54.784 113.152-113.152 113.152z" fill="#333333" p-id="5062"></path></svg>