<svg xmlns="http://www.w3.org/2000/svg" viewBox="0 0 230.71 259.85"><defs><style>.cls-1{fill:#edac45;}.cls-2{fill:#fc6;}.cls-3{fill:#3a332d;}.cls-4{fill:#6b4627;}.cls-5{fill:#f4ba53;}.cls-6{fill:#393c3d;}.cls-7{fill:#ddb58e;}.cls-8{fill:#f4d3b0;}.cls-9{fill:#f2d0af;}.cls-10{fill:#e8dfd9;}.cls-11{fill:#c65044;}.cls-12{fill:#eae5dc;}</style></defs><title>资源 232</title><g id="图层_2" data-name="图层 2"><g id="Layer_1" data-name="Layer 1"><path class="cls-1" d="M46.11,169.55c-4,16-9.45,73-25.31,84.39a36.67,36.67,0,0,0,7.81,5.91H54.7L62,156.74S50.12,153.56,46.11,169.55Z"/><path class="cls-1" d="M132.58,169.55c-4-16-15.91-12.81-15.91-12.81L124,259.85h26.09a36.91,36.91,0,0,0,7.82-5.91C142,242.55,136.59,185.53,132.58,169.55Z"/><path class="cls-2" d="M125,155.1l-34.27-2.57v-.21l-1.41.1-1.41-.1v.21L53.66,155.1s-4.24,77-3.87,101.32c0,1.15,0,2.29,0,3.43h79.13c0-1.14,0-2.28,0-3.43C129.28,232.12,125,155.1,125,155.1Z"/><path class="cls-3" d="M50.1,234.66c-.23,8.12-.37,15.25-.32,20.43a65.5,65.5,0,0,0,7.35,4.76H75.18V245.09C66.1,244.23,56.76,241.67,50.1,234.66Z"/><path class="cls-4" d="M77.27,245.26v14.59H99.41V244.06a91.08,91.08,0,0,1-15.79,1.43C81.56,245.47,79.43,245.41,77.27,245.26Z"/><path class="cls-3" d="M111.26,241.58c-3.23.78-6.49,1.5-9.76,2.12v16.15h18.16c3.09-1.33,6.17-2.73,9.25-4.14.06-5-.06-12-.29-20A140.87,140.87,0,0,1,111.26,241.58Z"/><path class="cls-5" d="M59.07,204.53s.25.51.72,1.35a23.17,23.17,0,0,0,2.15,3.22,13.19,13.19,0,0,0,3.73,3.32,7.89,7.89,0,0,0,2.42.91,5.71,5.71,0,0,0,1.3.16l.33,0,.31,0,.74-.05a16.44,16.44,0,0,0,2.75-.33c.44-.14.87-.26,1.31-.37s.82-.32,1.23-.48a11.1,11.1,0,0,0,3.88-3,12.91,12.91,0,0,0,2.45-4.75,7.46,7.46,0,0,1-.11,1.61,16,16,0,0,1-.44,1.81,12,12,0,0,1-1,2.2,10.93,10.93,0,0,1-4.07,4.06,12.69,12.69,0,0,1-2.87,1.19,18.17,18.17,0,0,1-3.07.47,10.4,10.4,0,0,1-3.16-.24,5.93,5.93,0,0,1-1.53-.54,8.21,8.21,0,0,1-1.38-.79A12.63,12.63,0,0,1,61,210a19.88,19.88,0,0,1-1.58-3.86A13,13,0,0,1,59.07,204.53Z"/><path class="cls-5" d="M119.92,204.53s-.24.51-.71,1.35a24.11,24.11,0,0,1-2.15,3.22,13.1,13.1,0,0,1-3.74,3.32,7.7,7.7,0,0,1-2.42.91,5.64,5.64,0,0,1-1.3.16l-.32,0-.32,0-.73-.05a16.56,16.56,0,0,1-2.76-.33c-.43-.14-.87-.26-1.3-.37s-.82-.32-1.23-.48a11.1,11.1,0,0,1-3.88-3,12.38,12.38,0,0,1-2-3.28,11.56,11.56,0,0,1-.51-1.47,8,8,0,0,0,.12,1.61,16,16,0,0,0,.44,1.81,11.32,11.32,0,0,0,1,2.2,10.93,10.93,0,0,0,4.07,4.06,12.8,12.8,0,0,0,2.86,1.19,18.43,18.43,0,0,0,3.08.47,10.42,10.42,0,0,0,3.16-.24,5.86,5.86,0,0,0,1.52-.54,7.49,7.49,0,0,0,1.38-.79A12.56,12.56,0,0,0,118,210a19.73,19.73,0,0,0,1.57-3.86A10.89,10.89,0,0,0,119.92,204.53Z"/><path class="cls-6" d="M175.21,118.36s10.57-7.22,19.95,0,18.41,18.56,13.2,41.65-12.57,58.74,1.53,62.39,16.54-16.21,11-25.12c0,0,18.41,11.34,4.86,35.65s-98,1.62-63.92-93.17Z"/><path class="cls-1" d="M163.55,98.44s19.11,7.29,16.33,24.3-19.45,31.34-28.14,9.8S163.55,98.44,163.55,98.44Z"/><path class="cls-7" d="M101.74,166.63c0,9.66-6.41,17.49-14.33,17.49s-14.33-7.83-14.33-17.49,6.42-17.49,14.33-17.49S101.74,157,101.74,166.63Z"/><path class="cls-6" d="M174.83,82.94c0,45.81-39.14,82.94-87.42,82.94S0,128.75,0,82.94,39.14,0,87.41,0,174.83,37.13,174.83,82.94Z"/><path class="cls-8" d="M46.76,127.52s-4.88-10.59-11.43-5.2c-8.53,7,3.85,30.4,13.48,26.36Z"/><path class="cls-8" d="M128.07,127.52s4.88-10.59,11.43-5.2c8.53,7-3.85,30.4-13.49,26.36Z"/><path class="cls-9" d="M117.52,88.67c-13.54-5.2-12.77-16.11-12.77-16.11-2.57,32.19-29.44,33.47-41.94,36.35s-21.22,12.54-21.23,12.55c0,5.81,0,10.1,0,10.1,0,14.14,8,26.59,19.61,30.59l9.88,3.4a49.83,49.83,0,0,0,32.75,0l9.88-3.4c11.62-4,19.6-16.45,19.6-30.59V101.79C131,97,126.48,92.11,117.52,88.67Z"/><path class="cls-6" d="M123.89,111.31s-10.3-2.31-19-.59l.31-2c.38-2.51,3.18-4.46,8.8-4.86s9,1.59,9.43,4.49Z"/><path class="cls-3" d="M111,130.52a1.19,1.19,0,0,1-1.11-1.18,1.26,1.26,0,0,1,1-1.43c.07,0,7.73-.89,10.73-3a1,1,0,0,1,1.54.44,1.44,1.44,0,0,1-.39,1.79c-3.42,2.42-11.33,3.34-11.67,3.37Z"/><path class="cls-3" d="M112.15,127.66H112a1.24,1.24,0,0,1-1.11-1.32,1.23,1.23,0,0,1,1.12-1.29h.14c5.65,0,9-5.36,9-5.42a1,1,0,0,1,1.56-.31,1.47,1.47,0,0,1,.27,1.82C122.83,121.41,119,127.66,112.15,127.66Z"/><path class="cls-3" d="M105.65,125.6c.72,3.45,3.7,5.56,6.66,4.72s4.76-4.32,4-7.76-3.7-5.56-6.65-4.72S104.93,122.16,105.65,125.6Z"/><path class="cls-10" d="M108.52,120.44c0,.94,1.19,1.65,2.57,1.58s2.49-.87,2.45-1.81-1.18-1.64-2.56-1.58S108.49,119.51,108.52,120.44Z"/><path class="cls-3" d="M63.87,130.25A1.2,1.2,0,0,0,65,129.07a1.27,1.27,0,0,0-1-1.43c-.08,0-7.73-.89-10.73-3a1,1,0,0,0-1.54.45,1.44,1.44,0,0,0,.38,1.79c3.43,2.42,11.34,3.33,11.67,3.37Z"/><path class="cls-3" d="M62.67,127.39h.17a1.32,1.32,0,0,0,0-2.61h-.14c-5.64,0-9-5.36-9-5.42a1,1,0,0,0-1.56-.31,1.47,1.47,0,0,0-.27,1.82C52,121.14,55.86,127.39,62.67,127.39Z"/><path class="cls-3" d="M69.17,125.33c-.72,3.45-3.7,5.56-6.65,4.72s-4.77-4.32-4.05-7.77,3.7-5.55,6.66-4.71S69.89,121.89,69.17,125.33Z"/><path class="cls-10" d="M66.3,120.17c0,.94-1.18,1.64-2.57,1.58s-2.49-.87-2.45-1.81,1.18-1.64,2.57-1.58S66.33,119.24,66.3,120.17Z"/><path class="cls-11" d="M77.63,152.88s2.47-4.47,5.32-4.26,4.39,3.5,4.39,3.5,2.56-3.43,5.56-3.36,4.29,4.47,4.29,4.47-3,8.37-10.07,8.37S77.63,152.88,77.63,152.88Z"/><path class="cls-7" d="M82.51,133s.49-5.28,4.72-5.31S92.31,133,92.31,133s-2.3-3.25-5-3.25S82.51,133,82.51,133Z"/><path class="cls-12" d="M136.8,59.24s8.88-30,15.89-26.73S162.33,51,141,63.19Z"/><path class="cls-12" d="M131.21,60.85S119.89,32,126.91,28.71s17.94,5.66,9.65,31.65Z"/><path class="cls-12" d="M126.69,63.79s-23.49-16-19.36-23.42S124.8,33,130.83,59.8Z"/><path class="cls-12" d="M126.57,71.28s-26.91,4.74-27.68-4,9.61-18.56,28.75-2.12Z"/><path class="cls-12" d="M129.1,77.39S109.63,99.57,104.61,93s-1.49-21.6,22.28-21.3Z"/><path class="cls-12" d="M139.94,61.35s26.2-8.63,27.9-.05-7.55,19.81-28.3,6.29Z"/><path class="cls-12" d="M144,70.61s25.61,10.74,22.71,18.88-16,11-26.16-14.07Z"/><path class="cls-12" d="M140.18,77.08s16.58,25.19,10.37,30.2S132,106.45,135.06,79Z"/><path class="cls-12" d="M134.88,78.64s-.86,31.73-8.39,31-13.92-14.37,3.4-33.36Z"/><ellipse class="cls-2" cx="135.37" cy="70.03" rx="13.42" ry="15.65"/></g></g></svg>