<?xml version="1.0" standalone="no"?><!DOCTYPE svg PUBLIC "-//W3C//DTD SVG 1.1//EN" "http://www.w3.org/Graphics/SVG/1.1/DTD/svg11.dtd"><svg t="1548222193038" class="icon" style="" viewBox="0 0 1087 1024" version="1.1" xmlns="http://www.w3.org/2000/svg" p-id="3052" xmlns:xlink="http://www.w3.org/1999/xlink" width="212.3046875" height="200"><defs><style type="text/css"></style></defs><path d="M515.1992 1024a511.872032 511.872032 0 1 1 0-1023.744064 511.872032 511.872032 0 0 1 511.872032 511.872032 511.872032 511.872032 0 0 1-511.872032 511.872032z m305.523619-343.722069L485.63859 581.742564c0-0.447888 0.255936-0.703824 0.255936-1.087728v-358.950262c0-24.825794-21.114721-44.916771-47.092227-44.916771-26.04149 0-47.028243 20.090977-47.028243 44.852787v358.950262c0 10.365409 4.286928 19.387153 10.429393 26.937266a44.084979 44.084979 0 0 0 31.16021 52.786803l359.270183 105.765559c24.76181 7.294176 51.187203-6.014496 58.993251-29.624594a44.340915 44.340915 0 0 0-30.84029-56.177955z" p-id="3053"></path></svg>