<svg xmlns="http://www.w3.org/2000/svg" viewBox="0 0 169.28 262.41"><defs><style>.cls-1{fill:#ddb58e;}.cls-2{fill:#f2d0af;}.cls-3{fill:#3f3e3d;}.cls-4{fill:#c65044;}.cls-5{fill:#fc6;}.cls-6{fill:#393c3d;}.cls-7{fill:#2f3233;}.cls-8{fill:#f4d3b0;}.cls-9{fill:#3a332d;}.cls-10{fill:#e8dfd9;}.cls-11{fill:#492020;}.cls-12{fill:#f4e7d7;}</style></defs><title>资源 226</title><g id="图层_2" data-name="图层 2"><g id="Layer_1" data-name="Layer 1"><polygon class="cls-1" points="35.52 212.02 28.96 245.05 50.9 250.34 52.41 214.54 35.52 212.02"/><path class="cls-2" d="M125,213.79l2.46,46.26h19.36c-2.7-17.73-6.7-49-6.7-49Z"/><path class="cls-3" d="M130.81,175.47l16.89,35.29a28,28,0,0,1-22.82,10.09l-6.36-43.53Z"/><path class="cls-3" d="M44.65,175.47,27.76,210.76a28,28,0,0,0,22.83,10.09L57,177.32Z"/><path class="cls-4" d="M44.57,176.73v83.32h86.28V176.73l-43.14,2Z"/><path class="cls-5" d="M119.92,199l-14,18.82-8.74-16L83.36,231.18,71,217.82l3.33,38-16,3.55.84.7h71.69v-42l-8.5,4.14Z"/><path class="cls-4" d="M126.13,247.68q-4.06-7.29-10.23-8.54a10.08,10.08,0,0,0-4.64.08,17,17,0,0,0-1.91.63,13.43,13.43,0,0,0-7.58-4.68,10,10,0,0,0-4.64.07,22.26,22.26,0,0,0-5,2.12l-7.06,3.94A4,4,0,0,0,83,243.49a3.93,3.93,0,0,0,.63,3l7.56,13.59h7.1l-8.71-15.64,3.57-2a16.79,16.79,0,0,1,4.53-1.82,6.11,6.11,0,0,1,4.35.87,8.27,8.27,0,0,1,1.66,1.31l-4.47,2.49a3.26,3.26,0,0,0-1.47,5.17l5.35,9.61h9.17c.12-.15.24-.29.35-.45a10.74,10.74,0,0,0,1.49-2.85,12.89,12.89,0,0,0,.65-4.11,14.79,14.79,0,0,0-.7-4.3,24.08,24.08,0,0,0-1.62-3.85,6.43,6.43,0,0,1,3.71,1q2.3,1.31,4.5,5.26,3.09,5.55,1.72,9.34h6.06a13.31,13.31,0,0,0,.46-3.43,14.88,14.88,0,0,0-.71-4.31A24.23,24.23,0,0,0,126.13,247.68Zm-17.95,8.48-.07.18-4.43-7.95,2.85-1.59Q109.6,252.36,108.18,256.16Z"/><path class="cls-5" d="M45.67,152.27s-5.51,10.59-5.7,11.94,4.9,5.21,4.9,5.21a5.1,5.1,0,0,0-4.08,4.7c-.5,4.2-1.27,5.55,7.26,9.58s13.58,4.54,29.55,3.36,16.64-2.52,35.8-3.52,20.67-2.86,21.51-6.22,1.68-5.83-5.55-7.37c0,0,4.88-2.18,5-5.06S128.35,153,128.35,153Z"/><path class="cls-6" d="M167.66,64.9V63.46h-.12C164.6,28,131.41,0,90.86,0,58.67,0,31.13,17.65,19.67,42.68L17.23,26.9s-4.73,15.45-3,26a27.42,27.42,0,0,0-8,13.26,56.9,56.9,0,0,1,8.19-4c-.74,2.76-.33,8.83-.26,10l6.05,50.44H43.66a82.68,82.68,0,0,0,47.2,14.45,82.64,82.64,0,0,0,47.2-14.45h23.55l6-50.45c.07-1.21.11-2.44.11-3.67S167.73,66.12,167.66,64.9Z"/><path class="cls-7" d="M154.4,87.52c0,28.28-28.44,51.21-63.54,51.21S27.33,115.8,27.33,87.52,55.77,36.31,90.86,36.31,154.4,59.24,154.4,87.52Z"/><path class="cls-8" d="M33.58,106s-9-11.22-18.22-3.12c-9.49,8.36,6.07,34.9,20.44,35.83Z"/><path class="cls-8" d="M148.15,106s9-11.22,18.22-3.12c9.49,8.36-6.07,34.9-20.44,35.83Z"/><path class="cls-2" d="M125.53,68.57c-17.4.76-34.95,7.66-34.95,7.66s-17-6.9-34.38-7.66c-12.91-.56-24,10-28.87,15.46v33.18c0,26.33,22.6,47.68,50.47,47.68h26.12c27.88,0,50.48-21.35,50.48-47.68V84C149.54,78.55,138.44,68,125.53,68.57Z"/><path class="cls-2" d="M125.53,68.57c-17.4.76-34.95,7.66-34.95,7.66s-17-6.9-34.38-7.66c-12.91-.56-24,10-28.87,15.46v33.18c0,26.33,22.6,47.68,50.47,47.68h26.12c27.88,0,50.48-21.35,50.48-47.68V84C149.54,78.55,138.44,68,125.53,68.57Z"/><path class="cls-2" d="M125.53,68.57c-17.4.76-34.95,7.66-34.95,7.66s-17-6.9-34.38-7.66c-12.91-.56-24,10-28.87,15.46v33.18c0,26.33,22.6,47.68,50.47,47.68h26.12c27.88,0,50.48-21.35,50.48-47.68V84C149.54,78.55,138.44,68,125.53,68.57Z"/><circle class="cls-9" cx="50.45" cy="118.24" r="7.06"/><path class="cls-10" d="M48.31,113.6c-.2,1,1,2.12,2.79,2.47s3.33-.18,3.53-1.19-1-2.12-2.79-2.47S48.52,112.59,48.31,113.6Z"/><path class="cls-9" d="M116.09,118.24a7.07,7.07,0,1,0,7.06-7.06A7.07,7.07,0,0,0,116.09,118.24Z"/><path class="cls-10" d="M121,113.6c-.2,1,1,2.12,2.79,2.47s3.32-.18,3.53-1.19-1-2.12-2.79-2.47S121.21,112.59,121,113.6Z"/><path class="cls-7" d="M105.52,104.38l1.56-7s16.52-3.12,28.17-1.3l1.21,6.52Z"/><path class="cls-7" d="M69.91,104.38l-1.57-7s-16.51-3.12-28.16-1.3L39,102.64Z"/><path class="cls-1" d="M101.77,125.84s-7.08-7.6-14.16-7.6-14,8.41-14,8.41,10.41-6,14.06-6S101.77,125.84,101.77,125.84Z"/><path class="cls-11" d="M108.3,141c-14.29,4.38-41.18,0-41.18,0l2.24,23.21a54.61,54.61,0,0,0,8.44.67h26.12c1.21,0,2.41,0,3.6-.13Z"/><path class="cls-4" d="M107.73,158.1a61.58,61.58,0,0,0-18-2.91c-7.4,0-13.86,1.67-21,2.91l.59,6.12a54.61,54.61,0,0,0,8.44.67h26.12c1.21,0,2.41,0,3.6-.13Z"/><path class="cls-2" d="M21.51,222c-5.06,1.27-17.68,4.11-20.44,8.43s.14,21.32,5.2,24.36,10-1.64,10-1.64a24.12,24.12,0,0,0,7.11-.88s-7,6.59.5,9.64c6,2.44,7.18-4.27,11.68-5.31s18.72.08,12.29-15.42c0,0,6.9-7.52-4.54-14.33S30.35,219.75,21.51,222Z"/><path class="cls-12" d="M38.94,232c-2.89.48-7,1.41-6.49,4.73.17,1,4.29-.1,7.35-.77s6.38.25,6.08-1.57C45.39,231.39,41.83,231.49,38.94,232Z"/><path class="cls-1" d="M23.33,252.24a15.81,15.81,0,0,1-1.89.47c2.53-1.85,5.41-5.06,3-10.48-2.57-5.75-2-8.43-2-8.43s.75,2.69,1.77,5.28c1.16,2.94,3.13,5.42,3.81,7.28L32.59,244A7,7,0,0,1,29.85,243c-3-2-6.3-6.31,3.17-11.67,0,0-6.1,4.62-4.32,8.27s6.49,2.94,9.23,2.32a101.54,101.54,0,0,1,10.59-1.74,7.22,7.22,0,0,1-.72,1S33.33,242.45,23.33,252.24Z"/><path class="cls-1" d="M14.75,252.34c-5.46-11.88-3.59-15.17-3.59-15.17-.06,4.12,2.74,11.63,4.16,14.77.44,1,.9,1.18.9,1.18s-.21.2-.6.5A6.11,6.11,0,0,1,14.75,252.34Z"/></g></g></svg>