<svg xmlns="http://www.w3.org/2000/svg" viewBox="0 0 177.81 260.02"><defs><style>.cls-1{fill:#f9dab4;}.cls-2{fill:#f7cea6;}.cls-3{fill:#0c4666;}.cls-4{fill:#1f6e89;}.cls-5{fill:#545454;}.cls-6{fill:#472b18;}.cls-7{fill:#fff;}.cls-8{fill:#f9f7f2;}.cls-9{fill:#e5be9e;}.cls-10{fill:#a5a5a5;}.cls-11{fill:#ad3936;}.cls-12{fill:#e0605c;}</style></defs><title>资源 11</title><g id="图层_2" data-name="图层 2"><g id="Layer_1" data-name="Layer 1"><path class="cls-1" d="M161.8,259.88H142.29l-7.24-70.31,19.62,0S160,246,161.8,259.88Z"/><path class="cls-2" d="M156.31,206.67s-9.51-4-14.64-3.29-2.58,10.08-1.48,21.07c.76,7.67,1.85,25.4,2.43,35.43h-.33l-7.24-70.31,19.62,0S155.35,196.77,156.31,206.67Z"/><path class="cls-3" d="M124.49,144.33s34.36,15,38.88,58.32H120.85V144.33Z"/><path class="cls-4" d="M145.31,199.83s10.89-.29,12.24-8.43-14.5-32.59-20.9-36-9.2-3.19-7.8,5.65,5.17,34.8,5.17,38.18C137.59,201,145.31,199.83,145.31,199.83Z"/><path class="cls-1" d="M17.06,259.88H36.58l7.23-70.31-19.61,0S18.84,246,17.06,259.88Z"/><path class="cls-2" d="M22.55,206.67s9.52-4,14.64-3.29,2.58,10.08,1.49,21.07c-.77,7.67-1.85,25.4-2.44,35.43h.34l7.23-70.31-19.61,0S23.52,196.77,22.55,206.67Z"/><path class="cls-3" d="M54.38,144.33S20,159.38,15.5,202.65H58V144.33Z"/><path class="cls-4" d="M33.56,199.83s-10.89-.29-12.24-8.43,14.5-32.59,20.89-36,9.21-3.19,7.8,5.65-5.16,34.8-5.16,38.18C41.27,201,33.56,199.83,33.56,199.83Z"/><path class="cls-3" d="M54.67,147.65S39.81,218.44,43.06,260h91.78s.36-74.22-11.25-112.71C71.72,147.31,54.67,147.65,54.67,147.65Z"/><path class="cls-4" d="M60.84,154.87a133.85,133.85,0,0,0-11.43,39C46.42,216.29,39.34,258,60.29,258s56.87,0,64.48,0,7.61-20.35,7.61-30.14S128,161.79,120,154.18C89.22,137.43,60.84,154.87,60.84,154.87Z"/><path class="cls-3" d="M89.55,180c-9.69,0-15.16-4-18-7.43-7-8.2-5.36-19.59-5.15-20.87l.93-5.69h44.52l.93,5.69c.2,1.28,1.82,12.67-5.15,20.87C104.71,176,99.24,180,89.55,180Z"/><path class="cls-2" d="M73.05,152.83s-3.33,20.42,16.5,20.42S106,152.83,106,152.83Z"/><path class="cls-1" d="M131.8,48.56c-16.28-6.68-25.12.83-42,.3h0a82.47,82.47,0,0,0-24.92,3.62c-38.71,10.43-43.08,42-43.68,51.07-2,30.39,30.2,55.34,67.89,55.58s68.39-24.25,68.59-54.7C157.71,104.43,159.13,61.3,131.8,48.56Z"/><path class="cls-5" d="M113.13,83.7s4.27-1.9,11.56-1.57c7,.32,12.9,3.51,13.21,2,.54-2.71-3.2-7.37-9-9.49-5.47-2-10.36-.29-14.1,2.49S109.37,84.73,113.13,83.7Z"/><path class="cls-5" d="M66.46,83.7s-4.28-1.9-11.56-1.57c-7,.32-12.91,3.51-13.21,2-.54-2.71,3.2-7.37,9-9.49,5.47-2,10.36-.29,14.11,2.49S70.22,84.73,66.46,83.7Z"/><path class="cls-6" d="M133.85,97.17a11,11,0,1,1-15.26-3.08A11,11,0,0,1,133.85,97.17Z"/><path class="cls-7" d="M126.38,94.59c1.1,1.64-.33,4.52-3.19,6.42s-6.07,2.11-7.16.46.34-4.52,3.2-6.42S125.29,92.94,126.38,94.59Z"/><path class="cls-6" d="M64.19,94.65a11,11,0,1,1-15.26-3.08A11,11,0,0,1,64.19,94.65Z"/><path class="cls-7" d="M56.72,92.07c1.1,1.64-.33,4.51-3.19,6.42s-6.07,2.1-7.16.46.34-4.52,3.2-6.42S55.63,90.42,56.72,92.07Z"/><path class="cls-2" d="M82.92,121.85h0a29.32,29.32,0,0,1,2-2.69,17.76,17.76,0,0,1,1.88-1.9A6.79,6.79,0,0,1,88.77,116a2,2,0,0,1,.72-.13,3.57,3.57,0,0,1,1.74.55,11.07,11.07,0,0,1,2.86,2.5,16.36,16.36,0,0,1,2.12,3.2.93.93,0,0,0,1.68-.82,18.36,18.36,0,0,0-3.41-4.7,11.34,11.34,0,0,0-2.33-1.81A5.4,5.4,0,0,0,89.5,114a3.61,3.61,0,0,0-1.4.25,8.88,8.88,0,0,0-2.56,1.63,22.57,22.57,0,0,0-3,3.23c-.76,1-1.22,1.71-1.23,1.72a.93.93,0,0,0,1.57,1Z"/><path class="cls-8" d="M47.27,122.18A1.24,1.24,0,0,1,46,123.36l-4.16-.15a1.24,1.24,0,0,1-1.19-1.28h0a1.24,1.24,0,0,1,1.28-1.19l4.16.15a1.25,1.25,0,0,1,1.19,1.29Z"/><path class="cls-8" d="M136.76,122.76a1.22,1.22,0,0,1-1.27,1.18l-4.16-.16a1.22,1.22,0,0,1-1.18-1.27h0a1.22,1.22,0,0,1,1.27-1.19l4.16.15a1.23,1.23,0,0,1,1.18,1.29Z"/><path class="cls-1" d="M149,124a22.63,22.63,0,0,0,19-.25c10-4.89,14.92-25,2-29.75s-16.94,10.08-16.94,10.08Z"/><path class="cls-2" d="M155,117.94s4.12-22,13.73-14.39c5.9,4.66,2.4,11.18-3.08,13.85C162.22,119.07,157.75,119.22,155,117.94Z"/><path class="cls-9" d="M155.13,117.69l1.43-5.54s18.27-5.22,13.15,2.12S155.13,117.69,155.13,117.69Z"/><path class="cls-1" d="M28.59,122.78a22.64,22.64,0,0,1-19-.5C-.38,117.27-5,97.14,8,92.51s16.81,10.3,16.81,10.3Z"/><path class="cls-2" d="M22.65,116.6S18.82,94.57,9.11,102c-6,4.59-2.55,11.15,2.9,13.89C15.42,117.64,19.89,117.85,22.65,116.6Z"/><path class="cls-9" d="M22.53,116.35l-1.36-5.56S3,105.34,8,112.74,22.53,116.35,22.53,116.35Z"/><path class="cls-10" d="M22.65,116.6s8.86,21.11,35,24.55c7.84,1,10.14-10.91,31.75-10.91s23.48,11.81,31.17,11.12c24.9-2.23,34.41-23.42,34.41-23.42l-2.5,7.34s-15.26,41.34-62.67,41.34-64.93-43.26-64.93-43.26Z"/><path class="cls-11" d="M72.19,141.85s12.85,5.9,33.55-.95c0,0-2.53,12-16.31,12S72.19,141.85,72.19,141.85Z"/><path class="cls-12" d="M89.43,152.89a17.06,17.06,0,0,0,10-2.85,17.5,17.5,0,0,0-20.26.18A19.31,19.31,0,0,0,89.43,152.89Z"/><path class="cls-5" d="M159.58,30.7C146.84,11.74,129.68,0,89.45,0S34,9.81,20.32,29.07c-6.63,9.37-8,24.71-8,38.26,0,16.6,1.6,24.35,1.6,24.35L22.05,97c4.66-19.3,11.69-24.88,16.15-28.52,8.38-6.82,23.72-12.66,43-9.82,38.85,5.7,45.55-9.8,45.55-9.8,9.73,4,26.44,17.85,30.06,48.27l8.42-4s1.37-9.15,1.37-25.75C166.6,53.78,166,40.23,159.58,30.7Z"/></g></g></svg>