<?xml version="1.0" standalone="no"?><!DOCTYPE svg PUBLIC "-//W3C//DTD SVG 1.1//EN" "http://www.w3.org/Graphics/SVG/1.1/DTD/svg11.dtd"><svg t="1548743174622" class="icon" style="" viewBox="0 0 1024 1024" version="1.1" xmlns="http://www.w3.org/2000/svg" p-id="5037" xmlns:xlink="http://www.w3.org/1999/xlink" width="200" height="200"><defs><style type="text/css"></style></defs><path d="M418.65 235.972L524.46 82.23h55.858l20.961-22.153h-91.155L389.597 235.972h29.053z m-39.442-0.93l22.072-31.775c-56.151-16.141-26.495-51.934 29.823-44.032l28.922-42.72c-162.377-15.05-231.517 103.887-80.817 118.527z m54.732 54.845h93.568l37.876-55.341v-0.014c171.355 18.253 226.205-84.689 79.895-118.199H554.35L433.94 289.887z m206.025-137.276c20.771 0 37.624 10.721 37.624 23.943 0 13.221-16.853 23.939-37.624 23.939-20.779 0-37.632-10.723-37.632-23.939 0-13.218 16.853-23.943 37.632-23.943z" fill="#040000" p-id="5038"></path><path d="M412.944 262.838h29.058l104.566-151.715h55.846l20.951-22.16h-91.137L412.944 262.838zM264.808 557.783c12.748-13.76-8.014-28.932-51.697-45.059-0.146-50.086 24.248-111.241 39.328-163.663-32.627 2.639-62.22 58.619-90.146 144.5l-23.297-10.589c34.541-87.091 15.794-124.368-36.858-125.863-5.801 1.279-5.931 67.415-2.144 110.583-27.97-5.206-44.33 30.769-8.391 54.404 5.31 13.688 8.852 41.168 15.912 41.033 11.622-5.508 8.242-22.596 12.374-33.891 9.568-0.441 32.82 3.566 35.772 13.809-13.405 44.92-27.495 116.928-14.583 142.279 14.142 20.889 36.7 21.779 63.785 21.316 13.196 2.383-12.75-109.623 3.405-156.436 10.902-8.149 50.476 21.511 56.54 7.577z" fill="#040000" p-id="5039"></path><path d="M486.413 398.615L89.028 193.536l386.846 236.987 15.047 533.401L504.18 429.05l448.853-261.341-466.62 230.906z" fill="#040000" p-id="5040"></path><path d="M337.287 719.213c-28.576 39.307 20.316 180.686 60.093 172.139 36.083-27.717 1.522-189.952-60.093-172.139z m400.336-191.889l123.72-222.989-228.89 93.645c-36.524 12.714-50.666 43.78-49.486 87.403 7.359 7.439 108.403-40.425 162.601-60.646l-71.572 125.77v32.102c44.771-8.305 106.565 28.143 84.786 103.963-35.048 64.42-107.696 133.064-182.895 211.789 155.836-74.186 248.639-173.496 270.437-217.641 26.585-53.742 31.151-102.652 3.54-144.5-24.812-29.824-66.214-24.32-112.241-8.896z" fill="#040000" p-id="5041"></path><path d="M389.138 628.166c3.932-29.121 17.104-72.91 11.786-87.344-13.569-12.467-34.187-23.77-61.862-33.885 8.665-19.19 16.271-42.326 9.962-68.19-21.604-22.824-72.363-31.44-82.658-22.55-1.815 13.903 20.483 21.046 29.711 23.437 8.208 4.377 1.603 38.398-2.97 47.667-10.34 6.382-35.561-23.329-47.653-14.723-6.001 34.908 16.583 48.469 40.112 56.211 6.258-0.482 5.756 64.289-2.849 60.213-6.411 3.824-43.098-25.918-55.913-19.645-12.669 7.012-5.886 45.586-0.867 66.006 13.549 5.963 35.016 4.783 40.639 17.848-12.668 54.715-28.857 153.115-16.796 185.52 28.873-31.201 55.979-113.268 60.108-167.676 22.437-12.287 86.331 37.205 131.683 40.061 5.603-27.473 5.904-44.064-2.617-51.348-22.776-17.2-53.933-15.299-49.816-31.602z m-18.74-46.541c-1.311 13.98-13.885 22.748-28.081 19.555-14.2-3.197-24.644-17.141-23.338-31.139 1.315-13.988 13.889-22.752 28.085-19.563 14.206 3.198 24.649 17.131 23.334 31.147z" fill="#040000" p-id="5042"></path></svg>