<svg xmlns="http://www.w3.org/2000/svg" viewBox="0 0 211.9 259.17"><defs><style>.cls-1{fill:#f9dab4;}.cls-2{fill:#f9f5ed;}.cls-3{fill:#ba8156;}.cls-4{fill:#e2dcd9;}.cls-5{fill:#7f5732;}.cls-6{fill:#ea9628;}.cls-7{fill:#c65044;}.cls-8{fill:#efc4a0;}.cls-9{fill:#3a332d;}.cls-10{fill:#e8dfd9;}</style></defs><title>资源 89</title><g id="图层_2" data-name="图层 2"><g id="Layer_1" data-name="Layer 1"><path class="cls-1" d="M65.09,255.66s-.21,1.56-.48,3.51H76.84l6.08-55.52-11.2-2C67.6,216.76,66.48,235.82,65.09,255.66Z"/><path class="cls-1" d="M173.41,255.66c-1.39-19.84-2.51-38.9-6.62-54l-11.2,2,6.08,55.52h12C173.5,257.11,173.41,255.66,173.41,255.66Z"/><path class="cls-2" d="M146.78,162l-4.36-.57H96.09l-4.37.57s-21.33,27.08-22.8,40.58c0,0,9.11,6.34,25.21,6.67h50.24c16.1-.33,25.21-6.67,25.21-6.67C168.11,189.06,146.78,162,146.78,162Z"/><rect class="cls-3" x="112.87" y="167.47" width="12.6" height="8.26" rx="2.22"/><polygon class="cls-3" points="116.44 171.6 122.11 171.6 128.22 236.58 119.17 244 110.13 236.27 116.44 171.6"/><polygon class="cls-4" points="109.55 178.83 119.21 166.33 128.88 178.83 142.87 161.77 95.94 161.77 109.55 178.83"/><path class="cls-5" d="M96.88,159.53H92.49s-11.65,33.67-15,99.64H161c-3.37-66-15-99.64-15-99.64h-4.39l-22.37,48.4Z"/><path class="cls-6" d="M38.54,137.37s-3.85-10.68-21.37-8.31S-3.6,155.67,3.52,168.49s20.18,33.58-1.19,37.15c0,0,.89,7.12,13.66,3.56,0,0-.89,7.71-11.88,10.09,0,0,16.43,3.27,30.58-3.39,21.1-9.94,39.64-35,11.12-69.62Z"/><path class="cls-2" d="M39.86,121.83s-10,1.39-9.34,9.07,8.73,22.45,19.66,19.24C58.9,147.58,55.3,137,55.3,137Z"/><path class="cls-6" d="M119.26,0C19.35-1.91,18.6,75.64,33.81,121c13.7,40.88,47.11,28.68,47.11,28.68l38.34.54,38.34-.54S191,161.88,204.71,121C219.91,75.64,219.16-1.91,119.26,0Z"/><path class="cls-1" d="M148.6,160l-22.85,6.34a24,24,0,0,1-13,0L89.92,160C72.43,155.1,60,136.28,60,114.59V54.46H178.49v60.13C178.49,136.28,166.09,155.1,148.6,160Z"/><path class="cls-7" d="M107.13,146.24s3.14-4.73,6.78-4.51,5.62,3.71,5.62,3.71,3.27-3.64,7.09-3.56,5.49,4.73,5.49,4.73-3.8,8.87-12.86,8.87S107.13,146.24,107.13,146.24Z"/><path class="cls-8" d="M125.88,124.82s-.63,5.6-6,5.62-6.5-5.62-6.5-5.62,3,3.45,6.4,3.45S125.88,124.82,125.88,124.82Z"/><path class="cls-9" d="M86.54,121.08H86.4c-.41,0-10.1-1-14.3-3.54a1.38,1.38,0,0,1-.46-1.89,1.37,1.37,0,0,1,1.88-.46c3,1.84,10.52,2.9,13.15,3.16a1.37,1.37,0,0,1-.13,2.73Z"/><path class="cls-9" d="M85.07,118.09c-8.36,0-13.09-6.58-13.28-6.86A1.37,1.37,0,0,1,74,109.65c.06.08,4.21,5.78,11.2,5.69h0a1.38,1.38,0,0,1,0,2.75Z"/><path class="cls-9" d="M93,115.92a6.75,6.75,0,1,1-5-8.15A6.75,6.75,0,0,1,93,115.92Z"/><path class="cls-10" d="M89.52,110.5c0,1-1.45,1.73-3.15,1.66s-3.05-.92-3-1.91,1.45-1.72,3.15-1.66S89.56,109.52,89.52,110.5Z"/><path class="cls-6" d="M98.37,99.36V96.12a.76.76,0,0,0-.65-.75c-3.69-.51-22.07-2.77-31,2.09a.76.76,0,0,0-.28,1.06l1.68,2.75a.76.76,0,0,0,.88.33c2.52-.83,13.38-3.92,28.46-1.49A.76.76,0,0,0,98.37,99.36Z"/><path class="cls-6" d="M139.59,99.36V96.12a.75.75,0,0,1,.65-.75c3.68-.51,22.06-2.77,31,2.09a.76.76,0,0,1,.28,1.06l-1.68,2.75a.76.76,0,0,1-.87.33c-2.53-.83-13.38-3.92-28.46-1.49A.76.76,0,0,1,139.59,99.36Z"/><path class="cls-9" d="M151.42,121.08a1.37,1.37,0,0,1-.13-2.73c.09,0,9.47-.94,13.14-3.16a1.37,1.37,0,1,1,1.42,2.35c-4.2,2.54-13.89,3.5-14.3,3.54Z"/><path class="cls-9" d="M152.88,118.09h-.19a1.38,1.38,0,0,1,0-2.75c7.05.1,11.17-5.63,11.21-5.69a1.37,1.37,0,0,1,2.24,1.58C166,111.51,161.24,118.09,152.88,118.09Z"/><path class="cls-9" d="M144.92,115.92a6.75,6.75,0,1,0,5-8.15A6.76,6.76,0,0,0,144.92,115.92Z"/><path class="cls-10" d="M148.44,110.5c0,1,1.45,1.73,3.15,1.66s3-.92,3-1.91-1.45-1.72-3.15-1.66S148.4,109.52,148.44,110.5Z"/><path class="cls-6" d="M65.29,65.91s-12.63,33.61,1.67,41c0,0-1.27,4.37-4.7,4.49,0,0,2.25,2.25,6.66,0,0,0-.51,5.46-4,8.17-5.09,3.94-14.14,3.58-17.33-15.27,0,0-3.72-29.47,2.35-38.34Z"/><path class="cls-6" d="M172.83,65.91s12.63,33.61-1.67,41c0,0,1.28,4.37,4.7,4.49,0,0-2.25,2.25-6.66,0,0,0,.51,5.46,4,8.17,5.09,3.94,14.14,3.58,17.33-15.27,0,0,3.72-29.47-2.35-38.34l-6.63-10.08Z"/><path class="cls-6" d="M176.94,69.54a56.15,56.15,0,0,1-42.8,13.7s6.71-4,6.55-13.7c0,0-4.15,11.58-20.92,9.07,0,0,9.1-6.37,8.62-16.41,0,0-26.67,29.53-71.71,25.67l-2.4-39.95L181.57,46Z"/></g></g></svg>