<?xml version="1.0" standalone="no"?><!DOCTYPE svg PUBLIC "-//W3C//DTD SVG 1.1//EN" "http://www.w3.org/Graphics/SVG/1.1/DTD/svg11.dtd"><svg t="1548134552174" class="icon" style="" viewBox="0 0 1024 1024" version="1.1" xmlns="http://www.w3.org/2000/svg" p-id="24761" xmlns:xlink="http://www.w3.org/1999/xlink" width="200" height="200"><defs><style type="text/css"></style></defs><path d="M857.4 893.2c-30.6 0-78.7-10.5-121.9-40l-8-5.5-9.3 2.5c-31.9 8.7-64.4 13-96.7 13-45.8 0-90.1-8.2-131.7-24.4-17.7-6.9-34.5-15-50.5-24.5 214.7-2.4 388.6-160.2 388.6-353.9 0-47.5-10.5-94-30.8-137.2 37 20.7 69.2 47.9 94.7 80.4 38.7 49.2 59.2 106.9 59.2 167 0 43.7-10.4 85.5-31 124.3-20.7 39-50.4 72.9-88.5 100.8l-16.6 12.2 11.9 16.8c15.6 22.1 33.6 39.2 53.3 50.8 7 4.1 10.3 8.1 9.8 9.8-0.7 2.6-9.6 7.9-32.5 7.9z" fill="" p-id="24762"></path><path d="M423.9 130C230.2 130 72.5 269.9 72.5 442c0 46.6 11.1 91.2 33.1 132.6 22 41.6 53.8 77.7 94.4 107.5l16.6 12.2-11.8 16.7c-16.5 23.3-35.4 41.4-56.3 53.6-7.3 4.3-11.7 9-11 11.8 1 3.8 11.4 9.4 35.8 9.4 32.7 0 84.1-11.2 130.2-42.7l8-5.5 9.3 2.5c34 9.2 68.6 13.9 103 13.9 193.8 0 351.5-140 351.5-312S617.7 130 423.9 130zM231.3 505.3c-33.6 0-60.8-27.2-60.8-60.8s27.2-60.8 60.8-60.8 60.8 27.2 60.8 60.8-27.2 60.8-60.8 60.8z m194.8 0c-33.6 0-60.8-27.2-60.8-60.8s27.2-60.8 60.8-60.8 60.8 27.2 60.8 60.8-27.2 60.8-60.8 60.8z m191.6 0c-33.6 0-60.8-27.2-60.8-60.8s27.2-60.8 60.8-60.8c33.6 0 60.8 27.2 60.8 60.8s-27.2 60.8-60.8 60.8z" fill="" p-id="24763"></path></svg>