<svg xmlns="http://www.w3.org/2000/svg" viewBox="0 0 193.89 260.49"><defs><style>.cls-1{fill:#f2d0af;}.cls-2{fill:#8e633f;}.cls-3{fill:#6b4627;}.cls-4{fill:#ddb58e;}.cls-5{fill:#e5c4a5;}.cls-6{fill:#353434;}.cls-7{fill:#393c3d;}.cls-8{fill:#f4d3b0;}.cls-9{fill:#492020;}.cls-10{fill:#c65044;}.cls-11{fill:#3a332d;}.cls-12{fill:#e8dfd9;}</style></defs><title>资源 250</title><g id="图层_2" data-name="图层 2"><g id="Layer_1" data-name="Layer 1"><path class="cls-1" d="M14.83,260.49h24.9l10.15-48.87L30,207.72S18.25,241,14.83,260.49Z"/><path class="cls-2" d="M52.4,170.65s-3.26-3.19-5-3.87S24,207.36,24,207.36l24.85,14.46Z"/><path class="cls-2" d="M123.39,170.65s3.25-3.19,5-3.87,23.39,40.58,23.39,40.58L127,221.82Z"/><path class="cls-3" d="M87.89,163.8,70,163.6l-22.82,3.18s-3.85,35.2-5.42,41.47c-1,4.12-9.41,31.94-14.61,52.24H148.65c-5.21-20.3-13.58-48.12-14.61-52.24-1.58-6.27-5.43-41.47-5.43-41.47L105.8,163.6Z"/><path class="cls-2" d="M146.33,251.71c-2.89-10.7-6.19-22.16-8.66-30.7H38.11c-2.47,8.54-5.77,20-8.66,30.7Z"/><path class="cls-4" d="M105,164.11c0,10.7-7.64,19.37-17.07,19.37s-17.06-8.67-17.06-19.37,7.64-19.37,17.06-19.37S105,153.41,105,164.11Z"/><path class="cls-1" d="M121.34,202a20.7,20.7,0,0,1,6,8.33c1.86,5.1,5.79,10.19,8.92,11.58s15.86-1.85,15.86-1.85,4.86,5.32,8.33,6.71S182.7,225,179.69,209c0,0,9.73-1.85,10.19-5.56s-4.63-9.95-4.63-9.95,6.5-2.58,7.87-6c1.86-4.63,1.62-11.33-16-11.22,0,0,11.57-10.72,9.72-15s-8.57-10.1-16-6.16-13.64,12.61-13.64,12.61,2.53-17.94-7.89-17.7-9,9.49-10.19,39.82c0,0-10.52-5.55-15.45-5.55s-19.11-1.39-18.27,7.41S112.78,195.31,121.34,202Z"/><path class="cls-5" d="M155.84,201.79a3.26,3.26,0,0,1,.27.57,8.53,8.53,0,0,1,.47,1.58,12.09,12.09,0,0,1,.23,2.3,14.68,14.68,0,0,1-.18,2.62,14.4,14.4,0,0,1-.61,2.55,10.5,10.5,0,0,1-.86,2.12,13.57,13.57,0,0,1-1.17,1.93,14.52,14.52,0,0,1,.15-2.23c.1-.64.19-1.39.29-2.19s.29-1.61.37-2.46.27-1.66.39-2.45.2-1.51.33-2.16C155.69,202.7,155.84,201.79,155.84,201.79Z"/><path class="cls-5" d="M157.25,167.63a34.89,34.89,0,0,0-.09-9.29c-.09,1.68-.15,3.48-.16,5.31,0,3.14.16,6.28.4,8.64s.53,3.93.53,3.93.31-1.57.53-3.93c.19-1.86.32-4.22.37-6.67C157.83,166.83,157.25,167.63,157.25,167.63Z"/><path class="cls-5" d="M185.25,193.46s1-.4,2.3-1.09c-.3.06-.61.12-.92.2a15.6,15.6,0,0,1-2.2.47c-1.5.23-3,.46-4.41.75-.71.14-1.4.18-2.05.28s-1.28.17-1.85.26c-2.29.35-3.84.75-3.84.75s1.56.22,3.9.31c.59,0,1.22.05,1.9.05a16.66,16.66,0,0,0,2.11,0c1.46-.13,3-.34,4.58-.55a7.71,7.71,0,0,0,1.33-.29C185.6,193.88,185.25,193.46,185.25,193.46Z"/><path class="cls-5" d="M139.17,189.75a16,16,0,0,1,1.62-.13c1,0,2.5-.08,4.27,0,.89.08,1.85.11,2.85.27s2.08.27,3.17.51a45.21,45.21,0,0,1,6.72,1.88c1.09.49,2.21.91,3.25,1.45a29.12,29.12,0,0,1,3,1.72,22.11,22.11,0,0,1,2.6,1.91,19.56,19.56,0,0,1,2.13,2c.61.66,1.14,1.29,1.6,1.84s.75,1.13,1,1.55c.57.87.85,1.38.85,1.38L171.15,203c-.36-.37-.75-.84-1.27-1.32s-1.16-.95-1.8-1.52-1.47-1-2.24-1.63-1.73-1.05-2.63-1.62-2-1-2.93-1.51-2.09-.87-3.14-1.32-2.15-.8-3.24-1.12-2.13-.68-3.19-.91c-2.08-.58-4.07-1-5.78-1.32s-3.15-.59-4.16-.71Z"/><path class="cls-6" d="M133.21,51.56s27.29-.19,30.21,11.2-3.89,41.72-3.89,41.72l-26.32-1.94Z"/><path class="cls-7" d="M14.62,110.29S2.08,85.35.13,51.56,18.64,5.16,39.64,1.7C94.87-7.4,129,23.14,146.53,18.92c3.42-.82,1-10.07,1-10.07S177.8,42,154.85,62.76,14.62,110.29,14.62,110.29Z"/><path class="cls-8" d="M29.53,104.08s-9.76-11.25-17.63-2.79c-8.67,9.31,2.43,32.62,20.18,32.77Z"/><path class="cls-8" d="M145.89,104.08s9.77-11.25,17.64-2.79c8.66,9.31-2.44,32.62-20.19,32.77Z"/><path class="cls-1" d="M139.06,72.71c-23.58,8.86-55.61,1.7-75.75-4.11-24.6-7.09-38.87,2.87-39,3v45.52A47.91,47.91,0,0,0,45.6,157.25c7,4.57,30.71,10.15,42.11,9.9s34.81-5.22,41.69-9.63a47.86,47.86,0,0,0,21.69-40.45V85.3C151.09,75.13,144.67,75.05,139.06,72.71Z"/><path class="cls-7" d="M145.22,109.65s-4.39,27.53-6.82,32.89-32.66-.48-34.61,0c-1.45.37-1.82,15.42-1.91,23,10.87-1.87,22.9-5.07,27.52-8a47.86,47.86,0,0,0,21.69-40.45v-8.29Z"/><path class="cls-7" d="M71.63,142.54c-1.95-.48-32.17,5.36-34.6,0s-6.82-32.89-6.82-32.89l-5.88-.87v8.29A47.91,47.91,0,0,0,45.6,157.25c4.69,3.07,16.95,6.59,27.95,8.5C73.46,158.23,73.1,142.91,71.63,142.54Z"/><path class="cls-9" d="M77.48,150.1H96.85S96,160.21,94.9,161.92s-12.18.6-13.52,0S77.48,150.1,77.48,150.1Z"/><path class="cls-10" d="M79.9,159c.53,1.57,1.06,2.78,1.48,3,1.34.6,12.42,1.7,13.52,0a12.26,12.26,0,0,0,.93-3.44A23.44,23.44,0,0,0,79.9,159Z"/><path class="cls-4" d="M75.14,131.23a13.78,13.78,0,0,1,12.21-6.48c6.27.18,11.84,6.49,11.84,6.49s-6.56-4.28-11.43-4.45C80.6,126.54,75.14,131.23,75.14,131.23Z"/><polygon class="cls-6" points="66.45 79.26 68.48 87.1 35 91.49 36.56 81.77 66.45 79.26"/><polygon class="cls-6" points="107.88 79.26 105.85 87.1 139.33 91.49 137.77 81.77 107.88 79.26"/><path class="cls-11" d="M60,105.78a8.28,8.28,0,1,1-8.28-8.28A8.28,8.28,0,0,1,60,105.78Z"/><path class="cls-12" d="M53.11,100c.2,1-1,2.1-2.76,2.45s-3.29-.18-3.5-1.19,1-2.09,2.77-2.44S52.91,99,53.11,100Z"/><path class="cls-11" d="M130.88,107.82a8.29,8.29,0,1,1-8.29-8.28A8.29,8.29,0,0,1,130.88,107.82Z"/><path class="cls-12" d="M124,102.05c.21,1-1,2.1-2.76,2.45s-3.29-.18-3.49-1.19,1-2.09,2.76-2.44S123.76,101.05,124,102.05Z"/></g></g></svg>