<svg xmlns="http://www.w3.org/2000/svg" viewBox="0 0 186.08 281.96"><defs><style>.cls-1{fill:#f9dab4;}.cls-2{fill:#f7cea6;}.cls-3{fill:#f2ac2f;}.cls-4{fill:#ffc55f;}.cls-5{fill:#f9f7f2;}.cls-6{fill:#e5be9e;}.cls-7{fill:#2f3233;}.cls-8{fill:#4c3626;}.cls-9{fill:#f4c7a2;}.cls-10{fill:#ad3936;}.cls-11{fill:#e0605c;}</style></defs><title>资源 19</title><g id="图层_2" data-name="图层 2"><g id="Layer_1" data-name="Layer 1"><path class="cls-1" d="M166.14,282H145.7s-5-55.31-6.84-62.23c-1.16-4.4-7.27-11.58-7.27-11.58l-3.18-27.36s19.46,2.91,29.8,26.87C163.63,220.21,164.27,267.37,166.14,282Z"/><path class="cls-2" d="M146.42,282c-.61-10.51-2.4-33.08-3.2-41.11-1.15-11.51-3.82-21.35,1.55-22.07,5.87-.78,13,1.46,16.59,2.89-.83-6-1.85-11-3.15-14-10.34-24-29.8-26.87-29.8-26.87l3.18,27.36s6.11,7.18,7.27,11.58c1.81,6.92,6.84,62.23,6.84,62.23Z"/><path class="cls-1" d="M17.17,282H37.61s5-55.31,6.84-62.23c1.16-4.4,7.27-11.58,7.27-11.58l3.18-27.36s-19.46,2.91-29.8,26.87C19.68,220.21,19,267.37,17.17,282Z"/><path class="cls-2" d="M36.89,282c.61-10.51,2.4-33.08,3.2-41.11,1.15-11.51,3.82-21.35-1.55-22.07-5.87-.78-13,1.46-16.59,2.89.83-6,1.85-11,3.15-14,10.34-24,29.8-26.87,29.8-26.87l-3.18,27.36s-6.11,7.18-7.27,11.58C42.64,226.65,37.61,282,37.61,282Z"/><rect class="cls-2" x="64.55" y="167.93" width="61.91" height="68.58"/><path class="cls-3" d="M86.57,207.54C69.65,206,67.92,176.13,67.92,176.13l-13.58-1.29S44.4,234.33,39.18,282H143C142.21,247.61,131.56,180,131.56,180H116.89C116.89,204.23,101.66,209,86.57,207.54Z"/><path class="cls-4" d="M131.09,192.56c-1.12-6.62-5.59-5.47-9.58-4.32s-2.87,1.3-7.18,10.52-19.78,12.68-29,11-14.21-11.67-15.64-16-1.79-5.35-8.94-5.91c-5.82-.46-6.64,2.55-6.64,2.55s-7.79,53.87-9.45,64.95c-1.35,8.94-2.7,22.23-.79,25.69a6.51,6.51,0,0,0,.94,1h92.3c6.08-6.92,1.8-23.62.87-32.77C136.83,238.24,132.2,199.19,131.09,192.56Z"/><path class="cls-3" d="M99.65,218.64s-23.82,32.28-35.73,39.19,2.55,5.76,8.29.58S104.55,223.06,99.65,218.64Z"/><path class="cls-3" d="M100.78,232.61s-16.53,24.92-25.36,30.61,2.34,4.09,6.48,0S104.85,235.59,100.78,232.61Z"/><path class="cls-1" d="M155.92,72.28H33.17s-8.32,23.81-10.23,39.16c-1.1,8.82-.49,16.44-.72,19.9-2.08,31.8,31.6,57.91,71,58.17s71.58-25.38,71.79-57.25a98.33,98.33,0,0,0-1.81-19.55C160.56,98.79,155.92,72.28,155.92,72.28Z"/><path class="cls-5" d="M49.46,150.84a1.29,1.29,0,0,1-1.33,1.24l-4.35-.17a1.27,1.27,0,0,1-1.24-1.33h0a1.29,1.29,0,0,1,1.33-1.25l4.35.16a1.3,1.3,0,0,1,1.24,1.35Z"/><path class="cls-5" d="M143.13,151.44a1.3,1.3,0,0,1-1.34,1.24l-4.35-.16a1.29,1.29,0,0,1-1.24-1.34h0a1.3,1.3,0,0,1,1.34-1.25l4.35.16a1.3,1.3,0,0,1,1.24,1.35Z"/><path class="cls-1" d="M155.92,152.79a23.69,23.69,0,0,0,19.93-.27c10.46-5.11,15.61-26.11,2.06-31.13s-17.72,10.55-17.72,10.55Z"/><path class="cls-2" d="M162.22,146.4s4.31-23,14.37-15.06c6.17,4.88,2.51,11.7-3.22,14.49C169.76,147.59,165.09,147.74,162.22,146.4Z"/><path class="cls-6" d="M162.35,146.14l1.49-5.8s19.13-5.46,13.76,2.22S162.35,146.14,162.35,146.14Z"/><path class="cls-1" d="M29.92,151.46A23.66,23.66,0,0,1,10,151C-.39,145.7-5.28,124.63,8.33,119.79s17.59,10.78,17.59,10.78Z"/><path class="cls-2" d="M23.7,145s-4-23.06-14.17-15.24c-6.24,4.79-2.66,11.66,3,14.53C16.14,146.09,20.82,146.3,23.7,145Z"/><path class="cls-6" d="M23.58,144.73l-1.42-5.81s-19-5.71-13.79,2S23.58,144.73,23.58,144.73Z"/><path class="cls-7" d="M133.77,120.75a1.74,1.74,0,0,1-1.89-1.54c0-.7-.31-6.9-8.47-6.9-8.37,0-8.46,6.62-8.46,6.9a1.93,1.93,0,0,1-3.78,0c0-3.45,2.56-10,12.24-10s12.24,6.53,12.24,10A1.73,1.73,0,0,1,133.77,120.75Z"/><path class="cls-7" d="M77.64,120.75a1.74,1.74,0,0,1-1.89-1.54c0-.7-.3-6.9-8.46-6.9-8.37,0-8.47,6.62-8.47,6.9a1.93,1.93,0,0,1-3.78,0c0-3.45,2.56-10,12.25-10s12.24,6.53,12.24,10A1.74,1.74,0,0,1,77.64,120.75Z"/><path class="cls-8" d="M159.59,45.51c7-5.32,7.6-13.71,5.76-23.3a28,28,0,0,1-20,9.89c7.37-10.88,4.58-21.52-1.11-32.1-9.9,28-109.41,10.33-128,51.92-3.06,6.84-4,24.62-4,39.48a114.38,114.38,0,0,0,3.23,27.66l6.76,4.32A320,320,0,0,1,31.3,83.9s34.76,6,63.18,6,61.56-6,61.56-6c-.11,8.37,6.09,31.53,8.7,39.92l8-3.46s2-15.6,2-25.89C174.74,89.79,177.78,49.37,159.59,45.51Z"/><path class="cls-9" d="M86.86,122c-2.6,4.31-3.68,8.94-5.56,13.4s-7.1,9.54-4.71,14.5c2.16,4.47,8.57,6.12,14.63,6.37,16.36.65,23.78-4.19,19.23-16C108.47,135.12,97,105.25,86.86,122Z"/><path class="cls-1" d="M88.4,120.53c-2.2,3.88-3.15,8-4.75,12s-6,8.59-4.06,13c1.72,4,7,5.43,12,5.6,13.48.49,19.66-3.89,16.06-14.42C106,132.18,97,105.5,88.4,120.53Z"/><path class="cls-5" d="M90.71,150.09c.18.62,2,.88,4.05.58s3.59-1,3.42-1.64-2-.89-4.05-.59S90.54,149.47,90.71,150.09Z"/><path class="cls-10" d="M118.7,170.93c0,3.65-10.58,6.61-23.63,6.61s-23.64-3-23.64-6.61,10.58-6.6,23.64-6.6S118.7,167.29,118.7,170.93Z"/><path class="cls-11" d="M95.07,177.54a67.43,67.43,0,0,0,15.71-1.67c-3.36-3.8-9.14-6.31-15.71-6.31s-12.36,2.51-15.72,6.31A67.46,67.46,0,0,0,95.07,177.54Z"/></g></g></svg>