<?xml version="1.0" standalone="no"?><!DOCTYPE svg PUBLIC "-//W3C//DTD SVG 1.1//EN" "http://www.w3.org/Graphics/SVG/1.1/DTD/svg11.dtd"><svg t="1548763891281" class="icon" style="" viewBox="0 0 1024 1024" version="1.1" xmlns="http://www.w3.org/2000/svg" p-id="26509" xmlns:xlink="http://www.w3.org/1999/xlink" width="200" height="200"><defs><style type="text/css"></style></defs><path d="M532.4 612.7c-34.9 0-52.3 25.3-52.3 63.3 0 42.2 17.4 63.3 52.3 63.3s52.3-21.1 52.3-63.3c-4.4-38-17.4-59.1-52.3-63.3z m187.5-392.6c21.8 50.7 26.2 126.6-17.4 168.9C628.3 110.3 440.8 51.2 440.8 51.2c21.8 143.5-78.5 299.7-178.8 417.9-4.4-59.1-8.7-97.1-39.2-152-8.7 105.5-87.2 190-113.4 291.3-17.4 88.7-4.4 168.9 61 240.6 104.6 97.1 375 219.5 649.6 4.2 253-249-39.1-590.9-100.1-633.1zM410.3 777.3H358v-80.2h-87.2v80.2h-48V578.9h48v80.2h91.6v-80.2h48v198.4z m122.1 4.2c-65.4-4.2-100.3-38-104.6-101.3 4.4-67.5 39.2-101.3 104.6-105.5 65.4 4.2 95.9 38 100.3 105.5 0 63.3-34.9 97.1-100.3 101.3z m235.4-164.6v164.6h-48V616.9h-65.4v-38h178.8v38h-65.4z" p-id="26510"></path></svg>