<svg xmlns="http://www.w3.org/2000/svg" viewBox="0 0 177.32 273.5"><defs><style>.cls-1{fill:#39788e;}.cls-2{fill:#5086a3;}.cls-3{fill:#f9f5ed;}.cls-4{fill:#e2d9d3;}.cls-5{fill:#edefef;}.cls-6{fill:#664027;}.cls-7{fill:#492c19;}.cls-8{fill:#4f301f;}.cls-9{fill:#3b3d3d;}.cls-10{fill:#2c3030;}.cls-11{fill:#f9dab4;}.cls-12{fill:#f4c7a2;}.cls-13{fill:#6b4627;}.cls-14{fill:#999593;}.cls-15{opacity:0.38;}.cls-16{fill:#f7cea6;}.cls-17{fill:#848484;}</style></defs><title>资源 208</title><g id="图层_2" data-name="图层 2"><g id="Layer_1" data-name="Layer 1"><path class="cls-1" d="M18.27,273.5h32c.64-13.39,2.57-43.56,7.45-61.74,2-32.72-2.08-41.37-2.08-41.37S25.56,190.64,18.27,273.5Z"/><path class="cls-2" d="M50.93,179.14S71.28,195.05,70.45,205s-5.72,23.19-10.08,30-8.07,22.38-9.44,29.9-5.33,4.61-14.47,4.61-15.29,0-15.29-7.17,7.69-37.77,11-48.54C37,198,45.53,181.84,50.93,179.14Z"/><path class="cls-2" d="M128.68,168.74s17.19,17.89,23.54,36.67,14.08,48.05,3.59,61.3-27.34,4.42-34.52-27.06V169.23Z"/><path class="cls-1" d="M128.68,168.74l-7.39.49V180l.46.38a13.27,13.27,0,0,1,15.19,2.87c7.08,7.07,18.31,35.79,20.16,43.52s3.68,18,1.84,24.86c-1.29-8.84-3.87-13.81-3.87-13.81s-.73.73.92,6.63,2.58,18.59-3.68,21.9S136.48,268,135,260.45s.37-19.61.74-21.17c-1.38-1.38-1.84-1.1-1.84-1.1a89,89,0,0,0-1.57,10.49c-.36,5,0,13.65-1.28,12.33-.88-.87-3.3-4-4.81-6,8.32,18.7,21,22.51,29.57,11.74,10.49-13.25,2.76-42.53-3.59-61.3S128.68,168.74,128.68,168.74Z"/><path class="cls-3" d="M60.76,173s28.66-24.82,58.48.45v71L61.12,244Z"/><polygon class="cls-4" points="83.38 184.36 74.28 192.42 72.32 189.49 83.82 182.02 84.7 183.53 83.38 184.36"/><polygon class="cls-4" points="96.47 184.36 105.56 192.42 107.53 189.49 96.03 182.02 95.15 183.53 96.47 184.36"/><path class="cls-3" d="M72.94,190.79l17-12.5-25.71-3.1Zm17-12.5,15.9,12.5,5.88-15.6Z"/><polygon class="cls-5" points="94.36 183.45 85.78 183.45 85.63 184.34 77.66 229.92 90.98 250.03 105.07 229.41 94.36 183.45"/><polygon class="cls-6" points="86.69 184.52 93.51 184.52 103.91 229.2 91 248.1 78.8 229.68 86.69 184.52"/><polygon class="cls-7" points="103.91 229.2 93.51 184.52 90.58 184.52 90.58 247.47 91 248.1 103.91 229.2"/><path class="cls-3" d="M95.18,191.73a28.21,28.21,0,0,1-2.38,2.59A29.36,29.36,0,0,1,84,200.1l-1.14,6.53a35.48,35.48,0,0,0,13.94-8.16Z"/><path class="cls-3" d="M100.37,214l-1.62-7a27.69,27.69,0,0,1-4.27,4.66,33.59,33.59,0,0,1-13.8,7.16L79.61,225a39.9,39.9,0,0,0,19.06-9.35C99.29,215.1,99.85,214.55,100.37,214Z"/><path class="cls-3" d="M102.59,223.55c-2.42,2.9-8.51,8.73-20.16,11.62l3.34,5.05a46.3,46.3,0,0,0,16.14-8.09l2-2.93Z"/><path class="cls-8" d="M84.4,179.14H96.18c.45,0,.19,6,0,6.59-.77,3.19-4.19,3.13-6.68,3.1-1.74,0-3.92-.19-5-1.87C83.3,184.81,84.28,181.48,84.4,179.14Z"/><path class="cls-1" d="M89.89,222.23a307.56,307.56,0,0,1-29-49.11l-5.77-.2S48.2,235.5,47,273.5h81.48c-.06-6.32-.22-24.7-.38-37.09-.2-15.18-4.38-63.49-4.38-63.49h-4.37S106.6,201.87,89.89,222.23Z"/><path class="cls-2" d="M56.48,184.1s-6,52.31-6,65.09c0,10.84-2.43,20.53,3,24.31h29V232a48.57,48.57,0,0,0,6.16-7.49s-19.59-30.95-24-37.94S57.67,177.41,56.48,184.1Z"/><path class="cls-2" d="M123.21,187.49c0-10.58-5.07-7.89-5.66-5.89s-7.47,13.78-10.75,20.27-21.58,30.55-21.58,30.55-.6,32.68.1,41.08h38c3.46-5.75,3-33.48,3-41.88C126.3,222.33,123.21,198.07,123.21,187.49Z"/><rect class="cls-1" x="98.94" y="256.67" width="22.68" height="5.39"/><path class="cls-9" d="M7.56,108.59C3.75,124.18,16.84,130,16.84,130s55-1.23,141.33-1.23c16.21-16,13.62-35.48,8.17-44.89,4.63,4.57,7.9,1.62,7.9,1.62-2.45,0-4.9-4.3-6.81-15.86A25.1,25.1,0,0,0,157.35,53C164.84,50.4,165,40.59,165,40.59,163.35,47,152.73,47.84,145.37,36s-23.69-18.82-40-18.82C114.87,4.84,101.25,0,101.25,0c0,11.83-14.43,14.25-14.43,14.25S52.91,15.46,42.69,25.53c-17.7,0-25.6,10.49-28.59,29-4.63,0-8.17-9.14-8.17-9.14,0,7,5.45,18.81,5.45,18.81-8.18,0-9.27-9.14-9.27-9.14-3.4,3.36-3.54,19.36,6,22.58C8.11,77.68-1.31,89.92,7.56,108.59Z"/><path class="cls-10" d="M16.84,130s55-1.23,141.33-1.23c16-15.77,13.68-34.94,8.39-44.49,5.65,13.19-2,29.08-2,29.08-4.45-2.42-9.72-.18-9.72-.18v-6.09a38,38,0,0,0-4.17-7.88c-2.46-3.32-8.9-5.11-8.9-5.11s2.27,2.24,2.82,9.41c-2.67-3-7.09-9-13.08-10.85S119.32,84.31,118,81.35c-.91,2.61-2,10,3.08,12.1-10.08,0-18.43-9.59-21.33-17.74,1.08,6.45-2.09,16.4-4.77,19S92.85,102,92.85,102a10.84,10.84,0,0,1-2.58-5.51c-.64-3.59-2.64-5.65-8.9-6.18C71,89.78,66.31,85.4,65.75,79.83c-3.72,5.91-.45,12.1,6.36,14.88-8.08-.45-12-4-17.07-12.19-2.08,7.08,3.54,17.83,3.54,17.83a82.32,82.32,0,0,1-13.25-6.81,24,24,0,0,1-9.08-11.29s.45,9.77-1.54,15.5-11.9,8-11.9,8v8.42a11.36,11.36,0,0,0-13.43,0A8.41,8.41,0,0,0,7,116.33C8.19,126.15,16.84,130,16.84,130Z"/><path class="cls-10" d="M5.93,45.43c0,7,5.45,18.81,5.45,18.81-8.18,0-9.27-9.14-9.27-9.14C-1.28,58.45-1.42,74.38,8,77.66l4-1.1s-7.95-3-9.63-7.88a22.93,22.93,0,0,1-.72-11.61c.68,4.3,3.08,9.1,11.21,7.89C9.79,59,7.21,51.42,7.11,49.59c3.13,5.07,4.9,6.63,8,6.37l-1-1.39C9.46,54.56,5.93,45.43,5.93,45.43Z"/><path class="cls-10" d="M167.43,69.62A25.1,25.1,0,0,0,157.35,53C164.84,50.4,165,40.59,165,40.59,163.35,47,152.73,47.84,145.37,36s-23.69-18.82-40-18.82C114.87,4.84,101.25,0,101.25,0c0,11.83-14.43,14.25-14.43,14.25S52.91,15.46,42.69,25.53C25,25.53,17.11,36,14.11,54.5c.37-1.35,6.47-22.49,21.23-25.74,5-.87,8.72-1.21,13.76,2.42s7.76,1.48,7.76-.4c0,0-3.14,3.36-7-.41s-5.72-4.43-5.72-4.43S51,21,64.62,19s39.08-1.48,38.27-16c5.54,4,4.49,10.75-1.64,16.8,7.08-1.08,27.94,1,35.22,8.92s19.66,24,26.06,16.48c0,5.78-6.94,7.39-12,6.58,0,0,11,3,14.16,13.44s3.27,21.37,9.53,20.3C171.79,85.48,169.34,81.18,167.43,69.62Z"/><path class="cls-10" d="M152.83,102.75s2.56-11.76,0-20.5-9.37-15.46-9.37-15.46,10.08,3.63,12.81,20.84c1.22,10.21-2.73,19.66-2.73,19.66A17.87,17.87,0,0,1,152.83,102.75Z"/><path class="cls-11" d="M144.83,98s3.27,6.27,2.17,11.11c0,0-2.54-5.38-10.89-10.75S121.59,90.49,118.86,86c0,0,.37,5.91,5.27,8.06,0,0-16.71,3.76-23.42-12.54,0,0,.54,7-2.18,11.47s-5.09,9.31-1.82,12.54c0,0-4.35-.72-7.44-7.35s-7.72-6.36-12.08-7.26-10.8-1.52-11.53-8c0,0-2.18,8.78,10.72,12,0,0-13.26,4.66-20.52-8.6,0,0,1.09,13.44,11.8,17.38,0,0-22.33-.89-30.14-15.76,0,0,4.54,13.62-7.63,19.89-1.29.67-2.56,1.32-3.81,2v34c0,8.33-1.9,37.9,62.91,37.9,32.41,0,63.74-7.26,63.74-30.11V107.29C151,103.7,150.4,100,144.83,98Z"/><path class="cls-12" d="M98.25,137.82a7.22,7.22,0,0,0-1.82-3.91h0A8.16,8.16,0,0,0,90,131.1h0a8.71,8.71,0,0,0-6.2,2.75h0a14.65,14.65,0,0,0-2.72,3.82h0l-.13.28h0a.82.82,0,0,1-1.07.44h0a.82.82,0,0,1-.44-1.06h0A16.12,16.12,0,0,1,82,133.44h0a10.68,10.68,0,0,1,8-3.95h0a9.79,9.79,0,0,1,7.68,3.37h0a8.59,8.59,0,0,1,2.22,5h0a.82.82,0,0,1-.82.81h0a.82.82,0,0,1-.82-.81Z"/><path class="cls-13" d="M44.54,127.05a.72.72,0,0,1-.68-.76h0c0-.07.31-5.72,3.32-8.85h0a5.64,5.64,0,0,1,4.14-1.77h0c3.44,0,5.64,2.53,6.92,4.86h0a19,19,0,0,1,1.8,4.69h0a.72.72,0,0,1-.56.85h0a.71.71,0,0,1-.85-.55h0a13.53,13.53,0,0,0-.38-1.33h0a17.14,17.14,0,0,0-1.27-3h0c-1.2-2.16-3-4.13-5.66-4.12h0c-2,0-3.23,1.15-4.19,2.79h0a15.59,15.59,0,0,0-1.64,5h0c-.15.9-.19,1.48-.19,1.48h0a.71.71,0,0,1-.71.67h-.05Z"/><path class="cls-13" d="M113.48,127.05a.71.71,0,0,1-.67-.76h0c0-.07.3-5.72,3.32-8.85h0a5.63,5.63,0,0,1,4.13-1.77h0c3.45,0,5.64,2.53,6.93,4.86h0a19.5,19.5,0,0,1,1.8,4.69h0a.72.72,0,0,1-.56.85h0a.72.72,0,0,1-.86-.55h0s-.11-.52-.37-1.33h0a18.86,18.86,0,0,0-1.27-3h0c-1.21-2.16-3-4.13-5.67-4.12h0c-2,0-3.23,1.15-4.18,2.79h0a15.35,15.35,0,0,0-1.64,5h0a13.3,13.3,0,0,0-.19,1.48h0a.72.72,0,0,1-.72.67h0Z"/><rect class="cls-14" x="22" y="118.54" width="13.16" height="3.9"/><path class="cls-3" d="M67.61,107.52,53.26,135.3h2.3l14.35-27.78Zm-7.16,0L46.1,135.3h4.58L65,107.52Z"/><rect class="cls-14" x="144.01" y="118.54" width="13.17" height="3.9"/><path class="cls-3" d="M135.07,107.52,120.71,135.3H123l14.35-27.78Zm-7.17,0L113.55,135.3h4.59l14.35-27.78Z"/><path class="cls-14" d="M100.14,117.48c-2.76-1.91-6.43-3.89-10.29-3.9a10.64,10.64,0,0,0-1.26.07c-5.26.68-9.66,3.65-12,5.57v2.85c1.26-1.19,6.41-5.58,12.3-6.29.32,0,.65-.06,1-.06,3.07,0,6.46,1.72,9,3.52a30.93,30.93,0,0,1,3.13,2.47c.24.2.43.39.6.54v-2.88C101.92,118.79,101.09,118.14,100.14,117.48Z"/><g class="cls-15"><path class="cls-4" d="M109.15,107.52h28.32A6.5,6.5,0,0,1,144,114v14.87a6.5,6.5,0,0,1-6.54,6.46H109.15a6.5,6.5,0,0,1-6.54-6.46V114A6.5,6.5,0,0,1,109.15,107.52Z"/></g><path class="cls-14" d="M109.15,135.83a7,7,0,0,1-7.08-7h0V114a7,7,0,0,1,7.08-7h0v1.08a6,6,0,0,0-6,5.91h0v14.87a6,6,0,0,0,6,5.92h28.32a6,6,0,0,0,6-5.92h0V114a6,6,0,0,0-6-5.91H109.15V107h28.32a7,7,0,0,1,7.08,7h0v14.87a7,7,0,0,1-7.08,7H109.15Z"/><g class="cls-15"><path class="cls-4" d="M70,107.52H41.7A6.5,6.5,0,0,0,35.16,114v14.87a6.5,6.5,0,0,0,6.54,6.46H70a6.5,6.5,0,0,0,6.54-6.46V114A6.5,6.5,0,0,0,70,107.52Z"/></g><path class="cls-14" d="M41.7,135.83a7,7,0,0,1-7.09-7h0V114a7,7,0,0,1,7.09-7H70v1.08H41.7a6,6,0,0,0-6,5.91h0v14.87a6,6,0,0,0,6,5.92H70a6,6,0,0,0,6-5.92h0V114a6,6,0,0,0-6-5.91h0V107a7,7,0,0,1,7.08,7h0v14.87a7,7,0,0,1-7.08,7H41.7Z"/><path class="cls-11" d="M28.41,123.79s-2.62-11.17-12.68-8.39S6.55,129.06,10.15,134s15.85,12.12,19,2.34C29,130.21,28.41,123.79,28.41,123.79Z"/><path class="cls-16" d="M15.73,115.4c10.06-2.78,12.68,8.39,12.68,8.39s0,.07,0,.21c0,0-4.41-9.32-13.5-7.12s-4.95,16.83-.81,19,10.75,5.83,15,.51C26,146.16,13.75,139,10.15,134S5.67,118.18,15.73,115.4Z"/><path class="cls-12" d="M23.81,127.52a9.8,9.8,0,0,0-1.26-4.2.64.64,0,0,0-.08-.14,6.31,6.31,0,0,0-3.12-2.61,5.08,5.08,0,0,0-1.62-.34.83.83,0,0,0-.84.75.68.68,0,0,0,.7.76h.05a4,4,0,0,1,1.06.25,4.93,4.93,0,0,1,1.76,1.17,11,11,0,0,0-1.64.56,8.81,8.81,0,0,0-4.66,4.41c-.06.15-.13.3-.19.47a.69.69,0,0,0,.4.92l.05,0a.84.84,0,0,0,1-.51c.05-.13.1-.25.16-.37a7,7,0,0,1,3.78-3.55,8.68,8.68,0,0,1,1.78-.57l.25,0a9.41,9.41,0,0,1,.88,3.27.67.67,0,0,0,.45.59.73.73,0,0,0,.39,0A.82.82,0,0,0,23.81,127.52Z"/><path class="cls-11" d="M150.71,123.79s2.62-11.17,12.68-8.39S172.57,129.06,169,134s-15.85,12.12-19,2.34C150.1,130.21,150.71,123.79,150.71,123.79Z"/><path class="cls-16" d="M163.39,115.4c-10.06-2.78-12.68,8.39-12.68,8.39l0,.21s4.41-9.32,13.5-7.12,4.95,16.83.81,19-10.75,5.83-15,.51c3.14,9.78,15.39,2.63,19-2.34S173.45,118.18,163.39,115.4Z"/><path class="cls-12" d="M155.31,127.52a9.8,9.8,0,0,1,1.26-4.2.64.64,0,0,1,.08-.14,6.31,6.31,0,0,1,3.12-2.61,5.07,5.07,0,0,1,1.63-.34.84.84,0,0,1,.84.75.7.7,0,0,1-.71.76h-.05a4,4,0,0,0-1.06.25,5,5,0,0,0-1.76,1.17,11,11,0,0,1,1.64.56,8.81,8.81,0,0,1,4.66,4.41,3.29,3.29,0,0,1,.19.47.69.69,0,0,1-.4.92l-.05,0a.84.84,0,0,1-1-.51,2.43,2.43,0,0,0-.16-.37,7,7,0,0,0-3.77-3.55,8.94,8.94,0,0,0-1.79-.57l-.24,0a9,9,0,0,0-.88,3.27.7.7,0,0,1-.45.59.77.77,0,0,1-.4,0A.82.82,0,0,1,155.31,127.52Z"/><path class="cls-12" d="M56.56,154.12a.84.84,0,0,1,.25-1.16h0a.85.85,0,0,1,1.17.26h0s.14.22.44.64h0c.3.42.76,1,1.37,1.75h0A39.32,39.32,0,0,0,65.25,161h0a33.72,33.72,0,0,0,21.36,7.75h0c9.53,0,16.87-1.43,22.31-3.95h0A21.8,21.8,0,0,0,120,154.27h0a.84.84,0,0,1,1.12-.4h0a.84.84,0,0,1,.4,1.12h0a23.51,23.51,0,0,1-11.89,11.29h0c-5.75,2.65-13.32,4.1-23,4.11h0c-19.75,0-30-16.19-30-16.27Z"/><path class="cls-11" d="M131.49,230.1s-18.06,8.48-24.45-1c-1.58-2.35-3.56-6-1.76-8.67a9.63,9.63,0,0,1,5.47-3.39,7.59,7.59,0,0,1,6.85,2c1.48,1.43,3.06,3.32,5.17,3.82a5,5,0,0,0,3.71-.8c3-1.81,2.36-4.74,1.72-7.59-.79-3.5-.87-7.52-3.23-10.43-2.52-3.1-7-3.77-9.26-.09-1.21,1.94-1.52,4.34-2.27,6.47-.94,2.65-2.18,7.28-5.92,6.27-3.94-1.08-9.9-13.59-1.46-22.09,10.32-10.37,23.34-3.57,26.29,1.8,0,0,6.53-26.85,10.68-33.1s14.41-4.39,12.26,3.5-7,25.66-7,25.66l.88.66s5.15-15.2,7.22-18.32,4-5.85,9.07-3.6,1.73,12.8-3.21,20.22L155.12,202l.81.85s9.36-8.68,12.55-10.44,13.55-3.1,6.35,6.56-23,14.33-22.85,20.81,2.53,16.28,2.53,16.28l-20.79,4.18Z"/><path class="cls-16" d="M129.08,226.48c-4.58,4.09-14,5.43-16.63-.2-1.93-4.13,3.06-5.93,5.84-6.59-.23-.24-.47-.47-.69-.69a7.59,7.59,0,0,0-6.85-2,9.63,9.63,0,0,0-5.47,3.39c-1.8,2.72.18,6.32,1.76,8.67,6.39,9.53,24.45,1,24.45,1l2.23,10.18,3.05-.61-1.81-9C134,226,133.67,222.39,129.08,226.48Zm-23-31.92c-8.44,8.5-2.48,21,1.46,22.09,3.74,1,5-3.62,5.92-6.27.42-1.18.7-2.45,1.08-3.68-2.26,2.24-5.56,4.23-7.92,0-3.92-6.95,4-17,13.76-15.94,6.56.69,10.92,4.57,11.88,6.78.39.9.42.63.08-1.26C129.32,191,116.35,184.22,106.06,194.56Zm50.24,8-.37.34-.81-.85,7.08-10.66c3.47-5.21,6.12-11.95,5.66-16.28,0,.05-.34,4.3-2,6.56s-6.17,1.31-8.55-2.55,4.63-8.72,4.71-8.77a3.87,3.87,0,0,0-.48,0h0c-2.35.28-3.73,2.24-5.16,4.39-2.07,3.12-7.22,18.32-7.22,18.32l-.88-.66s4.91-17.77,7-25.66a5.74,5.74,0,0,0-.64-5.06c1.26,6.28-3,9.16-7.88,10-3.33.53-4.66-3.25-5.16-5.69-2.62,5.83-5.7,16.74-7.57,23.78h0s1.84-4.65,2.9-6.5,5.7-6.29,9.18-5,1.69,7,1.46,9.35a56.47,56.47,0,0,1-1.09,6s-4.6-1-7.53-1.63-3,1.3-1,1.66a31.84,31.84,0,0,1,11.41,4.91c5,3.33,5.92,7.2,7.19,9.33s1.47-.3.61-2.16A11.14,11.14,0,0,1,156.3,202.55Zm21-8.44Zm0,0s-.17.34-.44.85A7.66,7.66,0,0,0,177.29,194.11Zm-8.59,6.41c-4.51-.21-2.7-5.08-1.79-7-2.57,1.87-6.43,5.28-8.83,7.44a8.88,8.88,0,0,1,3.81,2.36c1.36,1.63-.76,6.12-1.42,7.42,4.74-3.13,10.4-6.63,14.05-11.31.94-1.77,1.83-3.46,2.33-4.44C175.84,196.75,173.08,200.72,168.7,200.52Z"/><path class="cls-17" d="M132.41,234.14s12.82,3.37,20.81-4.62c7.19,1.15,5.21,9-3.17,10.91C143.4,242,127,244.25,132.41,234.14Z"/></g></g></svg>