<svg xmlns="http://www.w3.org/2000/svg" viewBox="0 0 181.09 266.53"><defs><style>.cls-1{fill:#267070;}.cls-2{fill:#f9f5ed;}.cls-3{fill:#c65044;}.cls-4{fill:#efc4a0;}.cls-5{fill:#348789;}.cls-6{fill:#44919b;}.cls-7{fill:#423a31;}.cls-8{fill:#f4d3b0;}.cls-9{fill:#f9dab4;}.cls-10{fill:#332c26;}.cls-11{fill:#492020;}.cls-12{fill:#3a332d;}.cls-13{fill:#e8dfd9;}</style></defs><title>资源 152</title><g id="图层_2" data-name="图层 2"><g id="Layer_1" data-name="Layer 1"><path class="cls-1" d="M120,197.55s28-8,26.94-21.28-9.93-32-9.93-32l-30.64,2.93v50.32Z"/><path class="cls-1" d="M61.08,197.55s-28-8-26.94-21.28,9.93-32,9.93-32l30.64,2.93v50.32Z"/><rect class="cls-2" x="65.59" y="157.1" width="49.91" height="109.43"/><path class="cls-3" d="M108.1,173.86c0,7-4,12.65-17.55,12.65S73,180.85,73,173.86s7.85-12.65,17.55-12.65S108.1,166.87,108.1,173.86Z"/><path class="cls-4" d="M104.87,171.45c0,6.21-3.27,11.25-14.32,11.25s-14.33-5-14.33-11.25,6.41-11.24,14.33-11.24S104.87,165.24,104.87,171.45Z"/><path class="cls-5" d="M166.05,266.53H138.5c-2.63-9.39-11.51-41.41-15.3-57.74-4.47-19.27-5.68-48.58-5.68-48.58S145.55,176.48,166.05,266.53Z"/><path class="cls-5" d="M14.71,266.53H42.26c2.62-9.39,11.5-41.41,15.29-57.74,4.47-19.27,5.68-48.58,5.68-48.58S35.2,176.48,14.71,266.53Z"/><path class="cls-6" d="M58.71,160.21s.67,36.34-2,45.37c-2.39,8.13-7.74,43.06-8.06,60.95H79c-.76-9.6-2.53-28.07-2.67-47.1-.21-29,2.87-59.22,2.87-59.22Z"/><path class="cls-5" d="M62.59,186.61l10.24,4.22L62.59,208.59l13.76,3.92,0-.18c.2-21,1.85-41.19,2.55-48.87Z"/><path class="cls-6" d="M102.07,266.53h30.37c-.33-17.89-5.68-52.82-8.07-60.95-2.66-9-2-45.37-2-45.37H101.87s3.08,30.22,2.87,59.22C104.6,238.46,102.83,256.93,102.07,266.53Z"/><path class="cls-5" d="M118.5,186.61l-10.24,4.22,10.24,17.76-13.76,3.92,0-.18c-.2-21-1.85-41.19-2.55-48.87Z"/><path class="cls-7" d="M7.63,108s-8.07-50.59,6.8-71.47,19.3-14,25.72-22.08l-2.41,10S58.22,9.64,77.09,7.63s42.57,6,49.79,3.21S144.15,0,144.15,0s2,10.44-2,15.26c0,0,7.63-.8,12.45-12,0,0,5.22,9.24,3.61,18.07,0,0,5.27-6.42,7.85-12.44a154.6,154.6,0,0,0,3.8,20.47c2.81,10.84,10,61.44,2.4,81.11Z"/><path class="cls-8" d="M24.42,110.18s-9.83-12.07-20.77-6.45S7.86,146,29.47,149Z"/><path class="cls-8" d="M156.67,110.18s9.82-12.07,20.77-6.45S173.23,146,151.62,149Z"/><path class="cls-9" d="M20,58v71.31a34.89,34.89,0,0,0,13.65,27.73s22.07,15.85,56.93,15.29,56.91-15.29,56.91-15.29a34.87,34.87,0,0,0,13.66-27.73V58Z"/><path class="cls-7" d="M96.18,41.76H15.05l-2,53s6.43,34.53,18.07,36.14c0,0-8.43-38.95-2-58.62H152c6.42,19.67-2,58.62-2,58.62C161.6,129.29,168,94.76,168,94.76l-2-53Z"/><path class="cls-10" d="M154,39.35l-4.52,8.13c1.51-5.42,0-12,0-12l-5.72,6.32c1.81-3.92,0-8.13,0-8.13l-6.93,8.13c1.51-5.12-2.41-10.54-2.41-10.54-.9,4.52-9,12.35-9,12.35,1.81-4.52,0-12.35,0-12.35-2.41,5.42-10.84,10.54-10.84,10.54.6-8.13-3-12-3-12A93.53,93.53,0,0,1,62,72.28h90a51.49,51.49,0,0,1,2.09,11.37C166.11,68,154,39.35,154,39.35Z"/><polygon class="cls-7" points="35.56 80.47 72.09 92.83 67.72 99.7 35.05 89.82 35.56 80.47"/><polygon class="cls-7" points="144.69 79.42 108.17 91.78 112.53 98.65 145.2 88.77 144.69 79.42"/><path class="cls-4" d="M78.65,122.77a24.23,24.23,0,0,1,4.22-7A15.43,15.43,0,0,1,86,112.89a7.49,7.49,0,0,1,4.48-1.37C93.81,112,96,114,97.92,116a24.7,24.7,0,0,1,4.52,6.82c-1.92-1.92-3.81-3.79-5.81-5.46s-4.24-3.16-6.31-3.39-4.23,1.48-6.12,3.14A79.24,79.24,0,0,0,78.65,122.77Z"/><path class="cls-11" d="M68.43,142.64S77.16,154.39,81.38,155s30.11-1.51,31-3.61S114.5,132.4,68.43,142.64Z"/><path class="cls-3" d="M92,149.69a13.67,13.67,0,0,0-3,5.22c9.15-.5,22.7-2,23.35-3.53a7.18,7.18,0,0,0-1.62-6.7C104,143.75,97.08,144.19,92,149.69Z"/><circle class="cls-12" cx="53.7" cy="109.53" r="7.65"/><path class="cls-13" d="M55,104.21c.19.92-.95,1.93-2.55,2.25s-3-.16-3.23-1.09,1-1.93,2.56-2.26S54.79,103.28,55,104.21Z"/><path class="cls-12" d="M135,109.53a7.65,7.65,0,1,1-7.65-7.65A7.65,7.65,0,0,1,135,109.53Z"/><path class="cls-13" d="M128.65,104.21c.19.92-1,1.93-2.55,2.25s-3-.16-3.23-1.09,1-1.93,2.56-2.26S128.47,103.28,128.65,104.21Z"/></g></g></svg>