<svg xmlns="http://www.w3.org/2000/svg" viewBox="0 0 160.4 259.98"><defs><style>.cls-1{fill:#f2d0af;}.cls-2{fill:#d3cec7;}.cls-3{fill:#393c3d;}.cls-4{fill:#f9f5ed;}.cls-5{fill:#ddb58e;}.cls-6{fill:#6d6d6d;}.cls-7{fill:#6b4627;}.cls-8{fill:#f4d3b0;}.cls-9{fill:#3a332d;}.cls-10{fill:#e8dfd9;}.cls-11{fill:#492020;}</style></defs><title>资源 261</title><g id="图层_2" data-name="图层 2"><g id="Layer_1" data-name="Layer 1"><path class="cls-1" d="M116.4,256.22c0,1.42.06,2.66.17,3.76h15.21a68.52,68.52,0,0,0-1.17-12.07S116.4,243.67,116.4,256.22Z"/><path class="cls-2" d="M131.82,241.71s.9,6.8,0,8-16.18,2.72-16.18,2.72l-1.81-8.92Z"/><path class="cls-3" d="M111.41,156.45s22.68,84.35,21.92,86.62-16,4.08-16,4.08l-15.88-86.37Z"/><path class="cls-1" d="M29.79,247.91A68.52,68.52,0,0,0,28.62,260H43.83c.11-1.1.17-2.34.17-3.76C44,243.67,29.79,247.91,29.79,247.91Z"/><path class="cls-2" d="M28.58,241.71s-.9,6.8,0,8,16.18,2.72,16.18,2.72l1.82-8.92Z"/><path class="cls-3" d="M49,156.45S26.32,240.8,27.07,243.07s16,4.08,16,4.08L59,160.78Z"/><path class="cls-2" d="M57.68,167.88,46.94,246.73c0,3.16,3.11,8.44,8.23,13.25h50.06c5.12-4.81,8.23-10.09,8.23-13.25l-12.52-78.85Z"/><path class="cls-4" d="M98.12,167.88c0,5.1-8,9.23-17.92,9.23S62.28,173,62.28,167.88s8-9.23,17.92-9.23S98.12,162.78,98.12,167.88Z"/><path class="cls-5" d="M98.12,164.25c0,5.1-8,9.23-17.92,9.23s-17.92-4.13-17.92-9.23S70.3,155,80.2,155,98.12,159.15,98.12,164.25Z"/><path class="cls-6" d="M105.18,155.63l-19.35,4.9s-1.51,79.82,0,93.42a11.3,11.3,0,0,0,2.35,6h28c6.65-5,3.84-17.18,3.84-17.18Z"/><path class="cls-3" d="M99.29,178.9c0-7.9-9.49-15.34-13.46-18.12,0,2.37-.39,21.48-.57,41.95,3.36.51,9.77.71,11.3-4.8,1.14-4.07-3.4-6.56-3.4-6.56S99.29,190.92,99.29,178.9Z"/><path class="cls-6" d="M55.22,155.63,40.4,242.8S37.59,255,44.24,260h28a11.38,11.38,0,0,0,2.35-6c1.51-13.6,0-93.42,0-93.42Z"/><path class="cls-3" d="M61.1,178.9c0-7.9,9.5-15.34,13.47-18.12.05,2.37.39,21.48.57,41.95-3.36.51-9.77.71-11.3-4.8-1.14-4.07,3.39-6.56,3.39-6.56S61.1,190.92,61.1,178.9Z"/><path class="cls-7" d="M6.59,114.59S-26.37,0,80,0s73.85,114.59,73.85,114.59l-73.71,18Z"/><path class="cls-8" d="M25.48,102.48s-15.5-9.23-23.34.87,7.15,35.36,23.34,36.06Z"/><path class="cls-8" d="M134.92,102.48s15.5-9.23,23.34.87-7.15,35.36-23.34,36.06Z"/><path class="cls-1" d="M91.08,165H69c-27.51,0-49.82-18.59-49.82-41.52V72.31c0-6.08,3.19-11.86,8.73-15.81l.29-.21c12-8.55,29.38-9.27,42.31-1.74L80,60.11l9.45-5.53c12.91-7.54,30.31-6.86,42.31,1.67l.35.24c5.57,4,8.78,9.75,8.78,15.85v51.09C140.91,146.36,118.6,165,91.08,165Z"/><path class="cls-7" d="M34.76,93.42s13.87-2.67,25.58-.68l-.42-2.37c-.51-2.9-4.28-5.15-11.86-5.61S36,86.6,35.37,90Z"/><path class="cls-9" d="M55.08,105.87a7.71,7.71,0,1,1-7.7-7.71A7.7,7.7,0,0,1,55.08,105.87Z"/><path class="cls-10" d="M48.65,100.5c.19.93-1,2-2.57,2.28s-3.06-.17-3.25-1.1,1-2,2.57-2.28S48.47,99.57,48.65,100.5Z"/><path class="cls-7" d="M125.64,93.42s-13.87-2.67-25.58-.68l.42-2.37c.51-2.9,4.28-5.15,11.86-5.61S124.44,86.6,125,90Z"/><path class="cls-9" d="M120.73,105.87A7.71,7.71,0,1,1,113,98.16,7.7,7.7,0,0,1,120.73,105.87Z"/><path class="cls-10" d="M114.3,100.5c.19.93-1,2-2.57,2.28s-3.07-.17-3.26-1.1,1-2,2.58-2.28S114.11,99.57,114.3,100.5Z"/><path class="cls-5" d="M67.08,118.64s3.17,8.71,12.79,9.28,13.45-10.66,13.45-10.66-5.86,8.32-13.5,7.54A22.38,22.38,0,0,1,67.08,118.64Z"/><path class="cls-11" d="M56.52,138.31S91,139.41,103.77,137c0,0,3.37,12.35-24.5,12.17C55.24,149,56.52,138.31,56.52,138.31Z"/></g></g></svg>