<svg xmlns="http://www.w3.org/2000/svg" viewBox="0 0 177.81 260"><defs><style>.cls-1{fill:#e59a23;}.cls-2{fill:#0c4666;}.cls-3{fill:#1f6e89;}.cls-4{fill:#f7cea6;}.cls-5{fill:#f9dab4;}.cls-6{fill:#f9f7f2;}.cls-7{fill:#e5be9e;}.cls-8{fill:#f4c7a2;}.cls-9{fill:#2c3030;}.cls-10{fill:#3b3d3d;}.cls-11{fill:#fff;}.cls-12{fill:#393c3d;}</style></defs><title>资源 29</title><g id="图层_2" data-name="图层 2"><g id="Layer_1" data-name="Layer 1"><path class="cls-1" d="M175.94,154.22a8.43,8.43,0,0,0-8.43-8.44,8.21,8.21,0,0,0-1.8.2c-2.92-13.47-2.72-39.36-2.72-39.36H15.88s.2,25.89-2.72,39.36a8.21,8.21,0,0,0-1.8-.2,8.43,8.43,0,0,0-4.42,15.61,13,13,0,0,0,18.15,16.38,14,14,0,0,0,21.45,6.61,14.5,14.5,0,0,0,21.49,0,15.26,15.26,0,0,0,21.82,3,15.25,15.25,0,0,0,21.7-2.83,14.51,14.51,0,0,0,21.35-.15A14,14,0,0,0,154.26,178a13,13,0,0,0,17.67-16.62A8.4,8.4,0,0,0,175.94,154.22Z"/><path class="cls-2" d="M122.94,144.12l-10.3.87.26,115h47.7c1-6.5,2.05-13.45,2.8-19.94,1.71-14.95,2.55-38.79-9-56.12C144.91,169.77,122.94,144.12,122.94,144.12Z"/><path class="cls-3" d="M130.45,161.12c-2.35-.11-.6,9.74-.6,9.74s5.52,37.7,9.35,44.6a32.61,32.61,0,0,1,8.49-.14,22.44,22.44,0,0,1,6.81,1.9c1.54.73,4.66,2.1,4.3,4.21a1.08,1.08,0,0,1-.42.76,1,1,0,0,1-.89.1,3,3,0,0,1-.81-.44,18,18,0,0,0-4.21-2.45,18.39,18.39,0,0,0-7.18-.91c-.89.06-3.6.23-3.68,1.56,3.36.16,6.34-.33,9.19,2.56.9.9,2.51,3.22,1.49,4.56s-3.8-1.11-4.64-1.65c-1.75-1.11-4-1.92-5.48-.14-1.88,2.24-2.6,5.6-3.21,8.37a66.74,66.74,0,0,0-1.51,11.61c-.12,2.75-.31,6,.71,8.6a28.09,28.09,0,0,0,3.3,6h14a69.24,69.24,0,0,0,6.35-26c.51-13.91-2-30.93-4.55-38.15C150.59,177.11,132.8,161.23,130.45,161.12Z"/><path class="cls-2" d="M19.08,183.94c-11.58,17.33-10.74,41.17-9,56.12.74,6.49,1.75,13.44,2.79,19.94H60.55l.26-115-10.31-.87S28.53,169.77,19.08,183.94Z"/><path class="cls-3" d="M43,161.12c-2.35.11-20.13,16-26.82,34.73-2.58,7.22-5.06,24.24-4.55,38.15A69.44,69.44,0,0,0,18,260H32a28,28,0,0,0,3.29-6c1-2.62.83-5.85.71-8.6a66.73,66.73,0,0,0-1.5-11.61c-.62-2.77-1.34-6.13-3.22-8.37-1.5-1.78-3.73-1-5.48.14-.84.54-3.64,2.95-4.63,1.65s.59-3.66,1.48-4.56c2.86-2.89,5.84-2.4,9.19-2.56-.08-1.33-2.79-1.5-3.68-1.56a18.41,18.41,0,0,0-7.18.91,18.09,18.09,0,0,0-4.2,2.45,3.25,3.25,0,0,1-.82.44,1,1,0,0,1-.89-.1,1.12,1.12,0,0,1-.42-.76c-.36-2.11,2.76-3.48,4.31-4.21a22.36,22.36,0,0,1,6.81-1.9,32.54,32.54,0,0,1,8.48.14c3.84-6.9,9.35-44.6,9.35-44.6S45.34,161,43,161.12Z"/><path class="cls-3" d="M141.05,260c-3.37-28.47-10.76-83.15-20.24-105.93l-70.59.41S36.05,213.53,32.68,260Z"/><path class="cls-2" d="M53.25,154.46l-3,0S36.05,213.53,32.68,260h18c-2.94-3.16-5.37-7.7-7.31-14.2-6.44-21.7,5.73-72.48,5.73-72.48Z"/><path class="cls-2" d="M132.15,260H141c-1.34-11.38-3.33-26.95-5.84-43a232.06,232.06,0,0,1,.36,35.57A11.53,11.53,0,0,1,132.15,260Z"/><path class="cls-2" d="M89.41,191c-10.2,0-16-4.25-19-7.82-7.34-8.63-5.64-20.63-5.42-22l1-6h46.87l1,6c.22,1.34,1.92,13.34-5.42,22C105.37,186.71,99.61,191,89.41,191Z"/><path class="cls-4" d="M72.05,162.32s-3.51,21.5,17.36,21.5,17.36-21.5,17.36-21.5Z"/><path class="cls-5" d="M157.72,46.25,23.08,46.09s.66,31.63-1.16,46.29c-1.05,8.43-.47,15.72-.69,19-2,30.39,30.2,55.34,67.89,55.58s68.4-24.25,68.59-54.7a82.42,82.42,0,0,0-.47-10.08c-.26-2.57-.26-5.36-.4-8.52C156.21,80,157.72,46.25,157.72,46.25Z"/><path class="cls-6" d="M47.27,130A1.25,1.25,0,0,1,46,131.22l-4.16-.16a1.23,1.23,0,0,1-1.18-1.28h0a1.23,1.23,0,0,1,1.27-1.19l4.16.16A1.24,1.24,0,0,1,47.27,130Z"/><path class="cls-6" d="M136.77,130.61a1.24,1.24,0,0,1-1.28,1.18l-4.16-.15a1.23,1.23,0,0,1-1.18-1.28h0a1.22,1.22,0,0,1,1.27-1.19l4.16.15a1.25,1.25,0,0,1,1.19,1.29Z"/><path class="cls-5" d="M149,131.89a22.63,22.63,0,0,0,19-.25c10-4.88,14.92-24.95,2-29.75S153.07,112,153.07,112Z"/><path class="cls-4" d="M155,125.79s4.12-22,13.73-14.39c5.9,4.66,2.4,11.18-3.08,13.85C162.22,126.93,157.75,127.07,155,125.79Z"/><path class="cls-7" d="M155.13,125.54l1.43-5.54s18.28-5.21,13.15,2.12S155.13,125.54,155.13,125.54Z"/><path class="cls-5" d="M28.59,130.63a22.64,22.64,0,0,1-19-.5C-.38,125.12-5,105,8,100.36s16.81,10.3,16.81,10.3Z"/><path class="cls-4" d="M22.65,124.45s-3.83-22-13.54-14.56c-6,4.58-2.55,11.14,2.9,13.88C15.42,125.49,19.89,125.7,22.65,124.45Z"/><path class="cls-7" d="M22.53,124.2l-1.36-5.56S3,113.19,8,120.59,22.53,124.2,22.53,124.2Z"/><path class="cls-8" d="M89.88,124.61a20.63,20.63,0,0,1-11.42-3.5,1.33,1.33,0,0,1,1.6-2.12c.38.28,9.09,6.66,19.67-.06a1.33,1.33,0,1,1,1.42,2.24A20.74,20.74,0,0,1,89.88,124.61Z"/><path class="cls-8" d="M90.06,149.16c-15,0-22.68-3.3-23-3.44a1.33,1.33,0,0,1,1.06-2.43h0c.08,0,7.55,3.22,21.94,3.22s22.45-3.2,22.53-3.23a1.33,1.33,0,1,1,1,2.46C113.25,145.88,105.06,149.16,90.06,149.16Z"/><path class="cls-9" d="M113.68,87s4.27-1.9,11.56-1.57c7,.32,12.9,3.51,13.21,2,.53-2.7-3.21-7.36-9-9.48-5.47-2-10.36-.29-14.1,2.48S109.92,88,113.68,87Z"/><path class="cls-9" d="M67,87s-4.28-1.9-11.56-1.57c-7,.32-12.91,3.51-13.21,2-.54-2.7,3.2-7.36,9-9.48,5.47-2,10.36-.29,14.11,2.48S70.76,88,67,87Z"/><path class="cls-10" d="M134.4,100.43a11,11,0,1,1-15.26-3.07A11,11,0,0,1,134.4,100.43Z"/><path class="cls-11" d="M126.93,97.86c1.1,1.64-.33,4.51-3.19,6.41s-6.07,2.11-7.16.47.34-4.52,3.2-6.42S125.84,96.21,126.93,97.86Z"/><path class="cls-10" d="M64.74,97.91a11,11,0,1,1-15.26-3.07A11,11,0,0,1,64.74,97.91Z"/><path class="cls-11" d="M57.27,95.34c1.09,1.64-.34,4.51-3.2,6.41s-6.06,2.11-7.15.47.34-4.52,3.2-6.42S56.18,93.69,57.27,95.34Z"/><path class="cls-1" d="M161.5,33.44C145.4,1.93,114.57,0,89.44,0s-56,1.93-72.07,33.44c-3.46,6.78-3.65,25.22-3.65,40.45,0,23.93,2.16,26.06,2.16,26.06l5.36,3.82c2.79-20,11-35.74,11.08-37.34C32.32,66.43,30,52,41.5,52c11.11,0,31.06,6.22,48,6.22,17.71,0,38.23-6.19,49.42-6.17,10.59,0,7.63,14.5,7.63,14.5.1,2.36,8.14,18.06,10.88,37.77l5.26-3.08s2.46-3.94,2.46-27.33C165.15,58.66,165,40.22,161.5,33.44Z"/><path class="cls-12" d="M89.86,61C59.92,61,30,57.18,14,54.73c-.23,5.37-.29,11.08-.3,16.5,15.88,2.45,46,6.36,76.14,6.36,29.6,0,59.2-3.78,75.29-6.23,0-5.42-.07-11.13-.29-16.5C148.7,57.31,119.28,61,89.86,61Z"/></g></g></svg>