<svg xmlns="http://www.w3.org/2000/svg" viewBox="0 0 164.63 259.83"><defs><style>.cls-1{fill:#393c3d;}.cls-2{fill:#515151;}.cls-3{fill:#3f2c20;}.cls-4{fill:#f4d3b0;}.cls-5{fill:#f9dab4;}.cls-6{fill:#6dbdc6;}.cls-7{fill:#2f3233;}</style></defs><title>资源 347</title><g id="图层_2" data-name="图层 2"><g id="Layer_1" data-name="Layer 1"><path class="cls-1" d="M4.92,259.83H32.51L48.32,164l-5.18-.53S11.76,217.53,4.92,259.83Z"/><path class="cls-1" d="M111.29,163.44l-5.18.53,15.81,95.86h27.59C142.67,217.53,111.29,163.44,111.29,163.44Z"/><path class="cls-2" d="M77.21,156.79c-31.92,0-34.42,6.65-34.42,6.65a142.66,142.66,0,0,1-5.7,31.45c-6.6,22.65-9.11,47.19-10,64.94h100.3c-.91-17.75-3.43-42.29-10-64.94a142.66,142.66,0,0,1-5.7-31.45S109.13,156.79,77.21,156.79Z"/><path class="cls-1" d="M76.76,163.3c-.07.68-5,55.75-2.23,96.53h2.91c-2.77-40.46,2.16-95.58,2.22-96.26Z"/><path class="cls-1" d="M76.8,170.53s1.71,9.95,5.11,11.65,5.82-1.94,5.82-4.61S75,163.79,76.8,170.53Z"/><path class="cls-3" d="M78.54,0H75.88C35.2.72,5.07,29.67,5.07,65.29A62,62,0,0,0,6,75.9l4.26,48.88H46.92a80.42,80.42,0,0,0,29,5.79h0c.37,0,.74,0,1.1,0h.45l1.11,0h0a80.42,80.42,0,0,0,29-5.79h36.67l4.26-48.88a62,62,0,0,0,.92-10.61C149.35,29.67,119.22.72,78.54,0Z"/><path class="cls-4" d="M20.82,112.88s-8.38-10.29-17.71-5.5,3.6,36.06,22,38.61Z"/><path class="cls-4" d="M133.6,112.88s8.38-10.29,17.71-5.5-3.58,36.06-22,38.61Z"/><path class="cls-5" d="M96.7,49.69c-7.15-.06-13.61-.1-19.49-.13s-12.34.07-19.48.13c-19,.16-32.08,6-40.7,12.24V129.2a29.74,29.74,0,0,0,11.64,23.64s18.82,13.53,48.55,13,48.52-13,48.52-13a29.69,29.69,0,0,0,11.65-23.64V61.92C128.77,55.65,115.71,49.85,96.7,49.69Z"/><path class="cls-6" d="M137.39,79.33H17v35a6.12,6.12,0,0,0,.51,1.69c2.11,3.74,36.07,14.46,54.12-4.1.67-.69,2.91-3.93,5.25-3.88s4.39,2.38,5,3c18,18.82,52.88,8.72,55,5a5.94,5.94,0,0,0,.51-1.72Z"/><path class="cls-1" d="M43.13,126.83c-11.56,0-26.59-3.72-29.4-8.71a9.78,9.78,0,0,1-1-3,4.45,4.45,0,0,1-.08-.81v-35A4.37,4.37,0,0,1,17,75H137.39a4.36,4.36,0,0,1,4.37,4.37v34.93a4.54,4.54,0,0,1-.07.82,10,10,0,0,1-1,3c-2.76,4.9-17.47,8.31-28.95,8.31h0c-9.65,0-23.21-2.15-33-12.4a8.58,8.58,0,0,0-1.7-1.52,14.16,14.16,0,0,0-1.56,1.65c-.28.33-.51.6-.68.77C67.22,122.72,56.27,126.83,43.13,126.83ZM21.4,113.58c2.43,1.42,11.12,4.51,21.73,4.51,7.48,0,17.95-1.61,25.4-9.26l.24-.28c1.33-1.6,4.11-4.92,8.08-4.92,4.18.09,7.14,3.23,8.11,4.26,7.75,8.12,18.83,9.8,26.78,9.8,10.37,0,18.79-2.73,21.28-4.14V83.7H21.4Z"/><path class="cls-1" d="M113,145.6s-5.57-.16-8-3.07-5.09-6.35-16.47-6.26S67,134.66,65.77,142.65s-1.34,21.56,4,22.65,32.57.85,36-2.06S113,145.6,113,145.6Z"/><path class="cls-1" d="M164.6,79.6a491.87,491.87,0,0,0-3.75-52.85l-20.16,2.72A477.14,477.14,0,0,1,144.26,80c.55,46.12-8.39,55.06-10.18,56.39-11.35,8.36-24.8,8.65-33.9,7.49C98.07,147,95.6,149,95.73,154.16c.1,3.55,1.82,7.09,2.88,10.05a56.25,56.25,0,0,0,9.3.56c11.58,0,25.52-2.62,38.24-12C159.23,143.13,165.1,119.88,164.6,79.6Z"/><path class="cls-7" d="M89,141.47H87.25c-1.13,0-2.75.06-4.67.18-1,.06-2,.17-3.08.34a18.1,18.1,0,0,0-3.26.82,4.86,4.86,0,0,0-.77.34,2.58,2.58,0,0,0-.7.43l-.32.24a3.11,3.11,0,0,0-.23.28,1.56,1.56,0,0,1-.22.26l-.21.42a13.76,13.76,0,0,0-1.12,3.48,20.34,20.34,0,0,0-.46,3.71,18.31,18.31,0,0,0,.16,3.58,4.13,4.13,0,0,0,1.22,2.65,11.61,11.61,0,0,0,1.44.53c.48.1.92.25,1.41.32a46.56,46.56,0,0,0,4.62.59l1.78.15s-.65.08-1.78.14c-.57,0-1.27,0-2.06,0a21.56,21.56,0,0,1-2.68-.13c-.49,0-1-.15-1.57-.23a9.9,9.9,0,0,1-1.64-.48,4.72,4.72,0,0,1-2-3.34,20.26,20.26,0,0,1,.13-7.83,14.76,14.76,0,0,1,1.3-3.84l.22-.42a6.09,6.09,0,0,1,.38-.49,5.23,5.23,0,0,1,.39-.42l.44-.31a3.34,3.34,0,0,1,.91-.52,5.48,5.48,0,0,1,.92-.36,14.73,14.73,0,0,1,3.56-.67c1.14-.08,2.2-.12,3.18-.1a40.4,40.4,0,0,1,4.72.35C88.4,141.34,89,141.47,89,141.47Z"/></g></g></svg>