<?xml version="1.0" standalone="no"?><!DOCTYPE svg PUBLIC "-//W3C//DTD SVG 1.1//EN" "http://www.w3.org/Graphics/SVG/1.1/DTD/svg11.dtd"><svg t="1549081495151" class="icon" style="" viewBox="0 0 1024 1024" version="1.1" xmlns="http://www.w3.org/2000/svg" p-id="29452" xmlns:xlink="http://www.w3.org/1999/xlink" width="200" height="200"><defs><style type="text/css"></style></defs><path d="M813.215821 947.98147H277.680485V211.635586h234.2587v305.412044l118.588906-90.005939 115.791424 90.005939V211.635586h133.914242v669.449579c0 36.975413-30.042523 66.896306-67.017936 66.896305zM630.528091 383.133389l-85.019123 66.896306V178.187433h167.362394v271.963891L630.528091 383.133389zM177.214396 144.617651v33.448153c0 18.487706 14.960447 33.448153 33.448153 33.448153h33.448153v736.467513H210.662549c-36.975413 0-66.896306-30.042523-66.896306-66.896305V144.617651c0-36.975413 29.920893-66.896306 66.896306-66.896306h602.553272c24.690818 0 45.976007 13.500891 57.652453 33.448153H210.662549c-18.487706 0-33.448153 14.960447-33.448153 33.448153z" fill="#FF8803" p-id="29453"></path></svg>