<svg xmlns="http://www.w3.org/2000/svg" viewBox="0 0 183.39 260"><defs><style>.cls-1{fill:#f9dab4;}.cls-2{fill:#f7cea6;}.cls-3{fill:#dd491b;}.cls-4{fill:#eb5f24;}.cls-5{fill:#f9f7f2;}.cls-6{fill:#e5be9e;}.cls-7{fill:#2f3233;}.cls-8{fill:#f4c7a2;}.cls-9{fill:#ffbc36;}</style></defs><title>资源 20</title><g id="图层_2" data-name="图层 2"><g id="Layer_1" data-name="Layer 1"><path class="cls-1" d="M155.61,201.8l-19.61,0L142,260h19.39C159.1,238.5,155.61,201.8,155.61,201.8Z"/><path class="cls-2" d="M136,201.82,142,260h.84c-.54-8.74-1.19-18.22-1.69-23.29-1.1-11-3.65-20.36,1.48-21.08s14.64,3.3,14.64,3.3c-1-9.91-1.65-17.13-1.65-17.13Z"/><path class="cls-3" d="M125.43,156.58s34.37,15,38.89,58.32H121.79V156.58Z"/><path class="cls-4" d="M146.25,212.08s10.89-.29,12.24-8.43-14.49-32.59-20.89-36-9.2-3.19-7.8,5.65,5.16,34.8,5.16,38.19C138.54,213.21,146.25,212.08,146.25,212.08Z"/><path class="cls-1" d="M22,260h19.4l6-58.18-19.61,0S24.26,238.5,22,260Z"/><path class="cls-2" d="M26.1,218.93s9.51-4,14.64-3.3,2.57,10.09,1.48,21.08c-.51,5.07-1.15,14.55-1.7,23.29h.85l6-58.18-19.61,0S27.06,209,26.1,218.93Z"/><path class="cls-3" d="M57.92,156.58S23.56,171.63,19,214.9H61.56V156.58Z"/><path class="cls-4" d="M37.1,212.08s-10.89-.29-12.24-8.43,14.5-32.59,20.9-36,9.2-3.19,7.8,5.65-5.17,34.8-5.17,38.19C44.81,213.21,37.1,212.08,37.1,212.08Z"/><path class="cls-4" d="M141,260c-3-27-9.69-80.53-18.31-102.67l-63.53.4S46.18,215.24,43.27,260Z"/><path class="cls-3" d="M131.85,260H141c-1.21-11-3-26.38-5.37-42.25a238.61,238.61,0,0,1,.33,34.16A11.51,11.51,0,0,1,131.85,260Z"/><path class="cls-3" d="M61.85,157.71l-2.73,0S46.18,215.24,43.27,260H60.43c-3-3.06-5.54-7.66-7.47-14.59-5.8-20.84,5.15-69.59,5.15-69.59Z"/><path class="cls-1" d="M153.67,51.21h-121S24.49,74.67,22.6,89.8c-1.08,8.69-.48,16.2-.7,19.61-2,31.34,31.15,57.07,70,57.32s70.55-25,70.75-56.41a96.7,96.7,0,0,0-1.78-19.27C158.24,77.33,153.67,51.21,153.67,51.21Z"/><path class="cls-5" d="M48.75,128.62a1.28,1.28,0,0,1-1.32,1.23l-4.28-.16a1.27,1.27,0,0,1-1.23-1.32h0a1.27,1.27,0,0,1,1.32-1.23l4.29.16a1.27,1.27,0,0,1,1.22,1.32Z"/><path class="cls-5" d="M141.06,129.22a1.27,1.27,0,0,1-1.32,1.22l-4.28-.16a1.28,1.28,0,0,1-1.23-1.32h0a1.28,1.28,0,0,1,1.32-1.23l4.29.16a1.28,1.28,0,0,1,1.22,1.33Z"/><path class="cls-1" d="M153.67,130.54a23.34,23.34,0,0,0,19.64-.25c10.3-5,15.39-25.74,2-30.69S157.87,110,157.87,110Z"/><path class="cls-2" d="M159.88,124.25s4.24-22.67,14.16-14.84c6.08,4.81,2.47,11.53-3.18,14.28C167.31,125.42,162.71,125.57,159.88,124.25Z"/><path class="cls-6" d="M160,124l1.48-5.71s18.84-5.38,13.56,2.18S160,124,160,124Z"/><path class="cls-1" d="M29.49,129.24a23.33,23.33,0,0,1-19.64-.51C-.39,123.56-5.2,102.8,8.21,98s17.34,10.63,17.34,10.63Z"/><path class="cls-2" d="M23.36,122.87s-3.95-22.72-14-15c-6.14,4.73-2.62,11.49,3,14.32C15.91,123.94,20.51,124.15,23.36,122.87Z"/><path class="cls-6" d="M23.24,122.61l-1.4-5.74s-18.78-5.61-13.59,2S23.24,122.61,23.24,122.61Z"/><path class="cls-7" d="M56.11,89.18A1.71,1.71,0,0,1,58,90.7c0,.69.3,6.8,8.34,6.8,8.25,0,8.35-6.52,8.35-6.8a1.9,1.9,0,0,1,3.72,0c0,3.4-2.52,9.84-12.07,9.84S54.25,94.1,54.25,90.7A1.71,1.71,0,0,1,56.11,89.18Z"/><path class="cls-7" d="M111.43,89.18a1.72,1.72,0,0,1,1.86,1.52c0,.69.3,6.8,8.34,6.8,8.25,0,8.34-6.52,8.34-6.8a1.9,1.9,0,0,1,3.72,0c0,3.4-2.52,9.84-12.06,9.84s-12.07-6.44-12.07-9.84A1.72,1.72,0,0,1,111.43,89.18Z"/><path class="cls-8" d="M94.27,123a21.35,21.35,0,0,1-11.79-3.61,1.37,1.37,0,0,1,1.66-2.18h0c.37.28,9.36,6.87,20.28-.06a1.37,1.37,0,0,1,1.47,2.31A21.39,21.39,0,0,1,94.27,123Z"/><path class="cls-8" d="M92.89,147.88c-15.71,0-23.75-6.91-24.08-7.21a1.37,1.37,0,1,1,1.81-2h0c.07.06,7.66,6.52,22.27,6.52s22.8-6.49,22.88-6.55a1.37,1.37,0,1,1,1.74,2.12C117.15,141,108.57,147.88,92.89,147.88Z"/><path class="cls-9" d="M168.24,36c-3.05-5.75-7.9-4.77-7.9-4.77C156.11.8,104.46,0,92,0s-64,.8-68.19,31.19c0,0-3.77-1.64-7.91,4.77-4.91,7.6-4.48,26.3-2.33,38.5a110.53,110.53,0,0,1,1.56,22.83,17.42,17.42,0,0,1,6.76,4.27c2.34-12.93,5.19-24.44,10-36,.94-5.67,49.84-5.58,60.17,3,11.4-8.44,59.31-8.25,60.17-3,4.8,11.58,7.77,23.62,10.11,36.55a19.3,19.3,0,0,1,6.65-3.4,124.7,124.7,0,0,1,1.55-24.23C172.72,62.26,172.49,44,168.24,36Z"/></g></g></svg>