<svg xmlns="http://www.w3.org/2000/svg" viewBox="0 0 207.61 260.26"><defs><style>.cls-1{fill:#2f3233;}.cls-2{fill:#ef7554;}.cls-3{fill:#e56548;}.cls-4{fill:#e06244;}.cls-5{fill:#ce4f36;}.cls-6{fill:#f9dab4;}.cls-7{fill:#e5bf9e;}.cls-8{fill:#e2b79a;}.cls-9{fill:#f4d0a8;}.cls-10{fill:#6b4627;}.cls-11{fill:#af7041;}.cls-12{fill:#60381a;}.cls-13{fill:#292c2d;}</style></defs><title>资源 141</title><g id="图层_2" data-name="图层 2"><g id="Layer_1" data-name="Layer 1"><path class="cls-1" d="M71,147.76s-8.14,14.92-22.57,10.6-10-15.31-10-15.31-15.54,7.07-24-7.85,4.07-15.7,4.07-15.7S-2.67,113.21.28,92.8,18.41,72.38,18.41,72.38-.7,54.19,21,31.19C33,18.4,48.75,30.38,48.75,30.38s.74-17.28,15.54-21.6,22.2,7.86,22.2,7.86S91.3-1.82,109.79.15s16.65,17.66,16.65,17.66S135.32,6,154.93,13.1s15.54,25.52,15.54,25.52,13.87-3.73,24.05,7.07,9.61,33.76-5.92,36.9c0,0,15.9,5.5,18.49,19.63s-4.81,27.48-18.12,22c9.62,13.74,3,24.34-11.84,22,4.07,16.88-16.65,16.88-27-.78C118.3,145.41,71,147.76,71,147.76Z"/><path class="cls-2" d="M68,176.37c-1.66,6.26-12,63.7-15.29,83.89H79.37l2.45-90.34s-5.47.09-7.44.09S69.9,169.3,68,176.37Z"/><path class="cls-3" d="M68,176.37c-.3,1.16-.91,4.06-1.71,8.15,2.61,3.84,6.8,12.14,5.92,24.9-.47,6.87-4,39.63-5.06,50.84h12.2l2.45-90.34s-5.47.09-7.44.09S69.9,169.3,68,176.37Z"/><path class="cls-2" d="M144.82,176.37c-1.88-7.07-4.39-6.36-6.36-6.36s-7.43-.09-7.43-.09l2.44,90.34h26.64C156.86,240.07,146.48,182.63,144.82,176.37Z"/><path class="cls-3" d="M144.82,176.37c-1.88-7.07-4.39-6.36-6.36-6.36s-7.43-.09-7.43-.09l2.44,90.34h12.21c-1.11-11.21-4.6-44-5.07-50.84-.88-12.76,3.31-21.06,5.92-24.9C145.73,180.43,145.13,177.53,144.82,176.37Z"/><path class="cls-2" d="M130.6,168c-11.08,1.05-49.77.09-49.77.09s-2.63,2.39-4.06,28.42-3.1,41.08-4.3,50.63c-.68,5.44-1.28,10.1-.92,13.11h71.51c.39-2.62-.23-6.67-.85-12.15C141,237.6,135.46,170.31,130.6,168Z"/><path class="cls-4" d="M85,157.3s-5.28,2.86-5.28,5.28,6.53,3.67,6.53,3.67-7.37-1.18-7.79,0c-1.25,3.55-1,4.84-1,4.84s36.36,3.94,56.24,0c0,0,2.6.27-1.43-3.76,2.68-2.69,6.62-.72,4.65-2.69s-6.09-7.16-8.95-7.16S107.34,161.6,85,157.3Z"/><path class="cls-5" d="M83.52,167.33c11.46,1.07,4.21-1.35,1.07-4.48s8.6-.27,8.6-.27a7.57,7.57,0,0,0-.73-4.12c-2.43-.29-4.94-.67-7.51-1.16,0,0-5.28,2.86-5.28,5.28s6.53,3.67,6.53,3.67-7.37-1.18-7.79,0c-1.25,3.55-1,4.84-1,4.84s7.18.78,16.91,1.3a63.19,63.19,0,0,0-6.35-1.3C79.61,169.69,78.41,168.4,83.52,167.33Z"/><path class="cls-5" d="M132.24,167.33c2.68-2.69,6.62-.72,4.65-2.69s-6.09-7.16-8.95-7.16c-1.26,0-5.41.79-11.57,1.32l-7.15,1.36L107,166.43s5.46,2.6,12.63-.54,10.57-6.09,11.69-5,4.25,2.82,1.12,4.26-4.3,2.15-2.56,3.27,3.36,1.74-.13,2.19-15.4,1.19-13.53,2.12a109.56,109.56,0,0,0,17.47-1.67S136.27,171.36,132.24,167.33Z"/><path class="cls-6" d="M162,113.1a55.26,55.26,0,1,1-55.25-55.26A55.26,55.26,0,0,1,162,113.1Z"/><path class="cls-7" d="M115.47,130.42c-.14.07-.29.37-.42,1a4.34,4.34,0,0,1-1.19,2.36,6.64,6.64,0,0,1-4.75,1.73,6.89,6.89,0,0,1-4.58-1.56,3.22,3.22,0,0,1-1-2.08,4.87,4.87,0,0,0-.32-1.8,1.72,1.72,0,0,0-.84.88,4.37,4.37,0,0,0-.34,1.75c0,2.82,3.18,5.1,7.11,5.1a8.73,8.73,0,0,0,5.56-1.87,4.64,4.64,0,0,0,1.49-2.51C116.21,133.17,116.06,130.14,115.47,130.42Z"/><path class="cls-8" d="M86.8,151.48a1.06,1.06,0,0,1-.4-1.45h0a1.05,1.05,0,0,1,1.44-.4h0l.42.21h0c.29.15.73.35,1.34.61h0a46.56,46.56,0,0,0,5.52,1.87h0a85.83,85.83,0,0,0,22.75,2.75h0a1.07,1.07,0,0,1,1.07,1.07h0a1.07,1.07,0,0,1-1.07,1.06h0c-20.88,0-30.94-5.64-31.07-5.72Z"/><path class="cls-9" d="M66.16,97.87s4-8,2.12-12.05c12.4,1.42,24.09-2.23,24.09-14.17,13.82,11,30.37,4.8,34.36-1.77,0,12.76,7.91,17.71,17,15.24-4.6,9.91,6.73,13.1,17,13.1,6.24-17.85-8.29-47.71-33.36-47.71S58,45.8,49.51,88.3C46,103.18,58,97.87,66.16,97.87Z"/><path class="cls-10" d="M57,93.12s73.59,9.19,105.53,2.25l.36,30.58s-5,11.55-17.51,11.7-16.75-1.55-26-10.57-10.89-10.24-19.51-1.42-29.05,26-49,1.4c-.27-23-.42-35.3-.42-35.3Z"/><path class="cls-11" d="M60,135.57a24.15,24.15,0,0,0,11.75,4.14l-.53-45c-5.22-.52-9.3-1-11.72-1.25Z"/><path class="cls-11" d="M74.82,139.71a24.36,24.36,0,0,0,4.91-.84l-.51-43.45L74.29,95Z"/><path class="cls-12" d="M124,99.16s37.28,1.82,37.57,26.73l1.34,0-.36-30.5c-10,2.17-24,2.76-38.65,2.56Z"/><path class="cls-13" d="M49.9,127.84l-.27-.33v-.43c-.28-23-.42-35.3-.42-35.3h0l0-1.53,8,1.65c.34,0,2.87.36,7,.81h0c4.44.48,10.73,1.12,18.09,1.75h0C97,95.71,116,96.91,133.1,96.71h0c11.15-.13,21.48-.87,29.2-2.54h0l1.47-.33,0,1.51.36,30.58h0v.27l-.1.24a23,23,0,0,1-4.31,6.16h0a19.85,19.85,0,0,1-14.32,6.28h0c-6.31.07-10.68-.3-14.7-1.93h0c-4-1.64-7.51-4.45-12.16-9h0a68.81,68.81,0,0,0-6-5.46h0a6.38,6.38,0,0,0-3.76-1.63h0a5.74,5.74,0,0,0-3.18,1.28h0a38,38,0,0,0-4.84,4.37h0C95.41,132,85.54,140.81,73.56,141h0c-7.55.09-15.75-3.45-23.61-13.15Zm23.63,10.69c10.71-.09,20.28-8.37,25.49-13.73h0a38.94,38.94,0,0,1,5.19-4.67h0a8.16,8.16,0,0,1,4.56-1.72h0a8.71,8.71,0,0,1,5.27,2.12h0a70.45,70.45,0,0,1,6.24,5.66h0c4.58,4.49,7.83,7,11.36,8.47h0c3.54,1.44,7.54,1.83,13.75,1.76h0a17.25,17.25,0,0,0,11.52-4.51h0a21.42,21.42,0,0,0,4.67-6h0a1.89,1.89,0,0,0,.1-.21h0c0-1.84-.15-12.62-.34-28.8h0c-7.79,1.52-17.65,2.17-28.21,2.29h0c-34.39.41-76.23-4.82-76.26-4.83h0L57,93.12l.25-1.2L57,93.12l-.15,1.22h0l-5.13-1.06c.05,3.91.18,15.28.39,33.34h0c7.49,9,14.78,12,21.45,11.91Z"/><path class="cls-1" d="M130.72,63.31c-6.12,18.26,12.8,24.33,18.57,14.56,0,0-6.18,6.23-1.82,12.61s11,3.15,11,3.15-9.48,15,6.19,18.4c15,2.75,15.94.36,15.94.36s2.13-56.68-36.13-72.62c-18.82-7.84-74.39-14.52-94.22,18.07-15.59,25.61-7.44,40.73-7.44,40.73s15,12.63,21.2-7.14a25.53,25.53,0,0,0-.28-13C68,90.55,96.18,75.12,86.91,61.5,86.91,61.5,103.45,85.78,130.72,63.31Z"/></g></g></svg>