<svg xmlns="http://www.w3.org/2000/svg" viewBox="0 0 176.84 260.11"><defs><style>.cls-1{fill:#cc7d2e;}.cls-2{fill:#f4a556;}.cls-3{fill:#f9dab4;}.cls-4{fill:#f9f5ed;}.cls-5{fill:#ad3936;}.cls-6{fill:#d15852;}.cls-7{fill:#6dbdc6;}.cls-8{fill:#515151;}.cls-9{fill:#6b4627;}.cls-10{fill:#eae5dc;}</style></defs><title>资源 342</title><g id="图层_2" data-name="图层 2"><g id="Layer_1" data-name="Layer 1"><path class="cls-1" d="M121.34,169.56s5.72,63.56,17,88.43c.31.71.64,1.42,1,2.12h26.07c-2.16-32.67-15.06-71.85-21.95-82.31C137.2,168.39,121.34,169.56,121.34,169.56Z"/><path class="cls-1" d="M55.66,169.56s-5.72,63.56-17,88.43c-.31.71-.64,1.42-1,2.12H11.65c2.16-32.67,15.06-71.85,22-82.31C39.8,168.39,55.66,169.56,55.66,169.56Z"/><path class="cls-2" d="M88.52,169.56c-36.07,0-38.9,7.52-38.9,7.52s-.53,15.21-6.44,35.54a206.21,206.21,0,0,0-7.56,47.49h105.8a205.63,205.63,0,0,0-7.55-47.49c-5.92-20.33-6.44-35.54-6.44-35.54S124.59,169.56,88.52,169.56Z"/><path class="cls-1" d="M85,169.59v90.52h7V169.59c-1.14,0-2.31,0-3.53,0S86.14,169.57,85,169.59Z"/><path class="cls-1" d="M120.12,157.37l-31.6,6.37-31.6-6.37S49.5,172.09,53.58,176s10.44,5.38,33.91,5.76v0l1,0,1,0v0c23.47-.38,30-2,33.92-5.76S120.12,157.37,120.12,157.37Z"/><path class="cls-3" d="M137.42,154.5s-19,12.21-49,12.68-49-12.68-49-12.68a28.57,28.57,0,0,1-11.75-23V48.81H149.18v82.71A28.53,28.53,0,0,1,137.42,154.5Z"/><path class="cls-4" d="M89.13,113.69H87.71l-60,12.59v5.24a28.57,28.57,0,0,0,11.75,23s19,13.15,49,12.68,49-12.68,49-12.68a28.53,28.53,0,0,0,11.76-23v-5.24Z"/><path class="cls-5" d="M6.17,73.2S1.51,43.29,30.05,30.39c0,0-18.12,23.32-12.08,40.61Z"/><path class="cls-6" d="M29.56,73.45c-2.2-6.58-6.1-11.23-17.35-8.76S-1.24,86.31.56,107.49c1.5,17.57,18.92,38.06,32.36,35.32S31.75,80,29.56,73.45Z"/><path class="cls-5" d="M29.56,73.45C27.63,67.67,24.38,63.39,16,64.1c5.91.6,8.5,4.43,10.14,9.35,2.2,6.59,16.81,66.61,3.37,69.36-.28.05-.56,0-.84.08a13.2,13.2,0,0,0,4.26-.08C46.37,140.06,31.75,80,29.56,73.45Z"/><path class="cls-5" d="M170.66,73.2s4.67-29.91-23.87-42.81c0,0,18.12,23.32,12.08,40.61Z"/><path class="cls-6" d="M147.28,73.45c2.2-6.58,6.1-11.23,17.35-8.76s13.45,21.62,11.65,42.8c-1.5,17.57-18.92,38.06-32.36,35.32S145.09,80,147.28,73.45Z"/><path class="cls-5" d="M147.28,73.45c1.93-5.78,5.18-10.06,13.57-9.35-5.9.6-8.5,4.43-10.14,9.35-2.2,6.59-16.82,66.61-3.37,69.36.28.05.56,0,.84.08a13.2,13.2,0,0,1-4.26-.08C130.47,140.06,145.09,80,147.28,73.45Z"/><path class="cls-7" d="M149,67.31H27s-1.1,37,1.1,41.42S70.79,125.15,88,100.88c17.21,24.27,57.67,12.23,59.86,7.85S149,67.31,149,67.31Z"/><path class="cls-4" d="M51.17,67.31,36.32,112.86a65.83,65.83,0,0,0,18.53,2.74L70.58,67.31Z"/><path class="cls-4" d="M121.14,67.31l-15.06,46.22a53.81,53.81,0,0,0,18.78,1.94l15.69-48.16Z"/><path class="cls-8" d="M120.92,118.89h0c-10,0-23.47-2.31-32.93-12.76-9.45,10.45-22.88,12.76-32.92,12.76-13.13,0-27.65-4.22-29.89-8.69-2.31-4.63-1.78-31.61-1.44-43L23.83,64H152.15l.09,3.19c.34,11.38.87,38.36-1.44,43C148.56,114.67,134,118.89,120.92,118.89ZM88,95.18,90.68,99c7.81,11,20.75,13.34,30.24,13.34,11.9,0,22-3.62,24.06-5.26,1-3.25,1.16-20.33.77-36.45H30.24c-.4,16.06-.22,33.07.77,36.45,2,1.66,12.18,5.26,24.06,5.26,9.48,0,22.42-2.31,30.24-13.34Z"/><path class="cls-9" d="M29.43,57.76s11.32,10.5,43.22,10.29L57.42,53.64s22.43,15.44,61.94,15.85L101.67,53.64l45.27,20-7-16.67s14.42,9.26,15.55,23.46c0,0,6.53-57.72-26-72.24C110.06-.48,66.39-4.48,43.55,7.48c-7.92,4.15-19.19,16.37-21,26.15C16.91,63.1,24.08,80.4,24.08,80.4Z"/><rect class="cls-10" x="118.83" y="129.07" width="3.29" height="21.81"/><rect class="cls-10" x="100.72" y="122.59" width="3.29" height="34.78"/><rect class="cls-10" x="84.67" y="127.83" width="3.29" height="24.28"/><rect class="cls-10" x="50.51" y="129.07" width="3.29" height="21.81"/><rect class="cls-10" x="68.62" y="122.59" width="3.29" height="34.78"/></g></g></svg>