<svg xmlns="http://www.w3.org/2000/svg" viewBox="0 0 186.99 281.1"><defs><style>.cls-1{fill:#f9dab4;}.cls-2{fill:#798937;}.cls-3{fill:#82983d;}.cls-4{fill:#efc4a0;}.cls-5{fill:#423a31;}.cls-6{fill:#f4d3b0;}.cls-7{fill:#3a332d;}.cls-8{fill:#e8dfd9;}</style></defs><title>资源 345</title><g id="图层_2" data-name="图层 2"><g id="Layer_1" data-name="Layer 1"><path class="cls-1" d="M141.77,213.19l-18.85.08,14.74,67.83h21.52C150.57,249.05,141.77,213.19,141.77,213.19Z"/><path class="cls-1" d="M26.77,213.19l18.85.08L30.87,281.1H9.35C18,249.05,26.77,213.19,26.77,213.19Z"/><path class="cls-2" d="M117.66,171.71s31.61,28.21,36.66,46.93c0,0-.85,11.16-33.84,12.8L110,175.59Z"/><path class="cls-2" d="M50.73,171.71s-31.6,28.21-36.65,46.93c0,0,.85,11.16,33.83,12.8l10.45-55.85Z"/><path class="cls-3" d="M34.57,281.1h99.26c-4.53-39.35-19.65-107.78-19.65-107.78l-30,2.21-30-2.21S39.09,241.75,34.57,281.1Z"/><path class="cls-4" d="M106.2,185.89c0,9.08-1.56,22.65-22,22.65-21,0-22-13.57-22-22.65s9.85-16.45,22-16.45S106.2,176.8,106.2,185.89Z"/><path class="cls-5" d="M14.51,135.3S0,91.88,0,84.27,17.09,45.06,17.09,45.06V55.94s23.83-42,46.1-51.8V24.86S75.63,6.73,120.17,0L104.63,22.27s30.56-12.43,55.94-1L138.3,28s36.77,13.32,41.43,20.91l-23.3,5.51L187,79.25l-26.42,5-6.73,51Z"/><path class="cls-6" d="M28.21,130.78s-8.32-11-17.58-5.87,3.57,38.47,21.86,41.19Z"/><path class="cls-6" d="M140.18,130.78s8.32-11,17.58-5.87-3.56,38.47-21.86,41.19Z"/><path class="cls-1" d="M25.3,94.3a4.63,4.63,0,0,1-.85-.08v54A32.6,32.6,0,0,0,36,173.41s18.68,14.42,48.19,13.9,48.18-13.9,48.18-13.9A32.61,32.61,0,0,0,144,148.19V94.3Z"/><path class="cls-4" d="M95,151.25s-2.45-7.81-10.31-8.31-11.19,9.56-11.19,9.56,4.94-7.47,11.18-6.78A17.49,17.49,0,0,1,95,151.25Z"/><path class="cls-4" d="M51.28,168l2.84.49c1.8.33,4.4.64,7.5,1l5,.52,5.59.41,6,.21,6.16-.07c2,0,4.15-.23,6.18-.34s4-.41,5.93-.59,3.77-.56,5.54-.79,3.4-.63,4.95-.88c6.13-1.17,10.16-2.4,10.16-2.4s-.92.52-2.61,1.26c-.85.35-1.88.81-3.08,1.26s-2.56,1-4.08,1.41-3.15,1-4.93,1.37-3.62.91-5.61,1.17-4,.72-6.08.84-4.09.37-6.28.45l-6.33,0-6.1-.46a102.87,102.87,0,0,1-10.67-1.78A69,69,0,0,1,51.28,168Z"/><path class="cls-7" d="M60.29,120.68c2.7,1.07,3,7,3,7H33.66s.29-5.39,2.66-7.23S57.59,119.61,60.29,120.68Z"/><path class="cls-7" d="M108.11,120.68c-2.7,1.07-3,7-3,7h29.59s-.28-5.39-2.66-7.23S110.81,119.61,108.11,120.68Z"/><path class="cls-7" d="M127.2,140.77a7.26,7.26,0,1,1-7.26-7.26A7.26,7.26,0,0,1,127.2,140.77Z"/><path class="cls-8" d="M121.14,135.72c.18.88-.91,1.84-2.42,2.14s-2.89-.16-3.07-1,.91-1.84,2.43-2.14S121,134.84,121.14,135.72Z"/><path class="cls-7" d="M41.2,140.77a7.26,7.26,0,1,0,7.26-7.26A7.26,7.26,0,0,0,41.2,140.77Z"/><path class="cls-8" d="M47.26,135.72c-.17.88.91,1.84,2.42,2.14s2.89-.16,3.07-1-.91-1.84-2.43-2.14S47.44,134.84,47.26,135.72Z"/><path class="cls-3" d="M147.28,120.14c-4.27,3.73-124.27,3.5-126.51,0s-4-24.18,0-28.68,123.57-2.74,126.51,0S151.55,116.4,147.28,120.14Z"/></g></g></svg>