<?xml version="1.0" standalone="no"?><!DOCTYPE svg PUBLIC "-//W3C//DTD SVG 1.1//EN" "http://www.w3.org/Graphics/SVG/1.1/DTD/svg11.dtd"><svg t="1548133031463" class="icon" style="" viewBox="0 0 1024 1024" version="1.1" xmlns="http://www.w3.org/2000/svg" p-id="20514" xmlns:xlink="http://www.w3.org/1999/xlink" width="200" height="200"><defs><style type="text/css"></style></defs><path d="M403.244552 707.093327c0 14.843056-12.036128 26.880207-26.882254 26.880207-14.826684 0-26.863834-12.037151-26.863834-26.880207L349.498464 563.619658c0-23.437805 9.550517-44.717458 24.952298-60.117193 15.415085-15.415085 36.691667-24.965601 60.132542-24.965601l153.287175 0c23.436782 0 44.731784 9.550517 60.131519 24.965601 15.415085 15.399735 24.965601 36.679387 24.965601 60.117193l0 227.322355c0 27.15957-11.063987 51.800783-28.900214 69.64008-17.838274 17.83725-42.479487 28.900214-69.63701 28.900214L300.091194 889.482307c-32.080649 0-61.213153-13.085016-82.292238-34.164101-21.076014-21.077038-34.161031-50.210565-34.161031-82.290191L183.637925 495.819482l-95.531773 0c-14.84408 0-26.879184-12.037151-26.879184-26.881231 0-8.810666 4.243651-16.633842 10.81737-21.541619L496.24262 95.92063c10.354835-8.578376 25.25929-8.054443 34.982746 0.648776l419.74076 351.800391c11.356652 9.505491 12.853749 26.433022 3.349281 37.790698-5.294586 6.340405-12.899798 9.613962-20.571525 9.613962l0 0.046049-95.544053 0 0 322.004785c0 19.750833-8.039093 37.664831-21.016663 50.641377-12.96222 12.961196-30.892591 21.016663-50.643424 21.016663l-6.882757 0c-14.82873 0-26.862811-12.037151-26.862811-26.879184 0-14.846126 12.034081-26.881231 26.862811-26.881231l6.882757 0c4.922103 0 9.397021-2.00568 12.638855-5.262864 3.255137-3.25616 5.275143-7.731078 5.275143-12.636808L784.45374 468.938252c0-14.827707 12.038174-26.865881 26.881231-26.865881l48.575322 0-346.644975-290.540166L162.603867 442.072371l47.91222 0c14.82873 0 26.863834 12.038174 26.863834 26.865881l0 304.089763c0 17.250896 7.051603 32.92897 18.410302 44.300972 11.372002 11.357675 27.049053 18.408255 44.300972 18.408255l274.340205 0c12.311397 0 23.514553-5.045923 31.631418-13.162788 8.117888-8.115841 13.161764-19.318998 13.161764-31.632441L619.224582 563.619658c0-8.610098-3.5345-16.449647-9.211802-22.127973-5.693676-5.677303-13.532201-9.210779-22.1423-9.210779L434.583305 532.280906c-8.611122 0-16.45067 3.533476-22.127973 9.210779-5.679349 5.678326-9.211802 13.517875-9.211802 22.127973L403.243529 707.093327z" p-id="20515"></path></svg>