<?xml version="1.0" standalone="no"?><!DOCTYPE svg PUBLIC "-//W3C//DTD SVG 1.1//EN" "http://www.w3.org/Graphics/SVG/1.1/DTD/svg11.dtd"><svg t="1548308724655" class="icon" style="" viewBox="0 0 1024 1024" version="1.1" xmlns="http://www.w3.org/2000/svg" p-id="2866" xmlns:xlink="http://www.w3.org/1999/xlink" width="200" height="200"><defs><style type="text/css"></style></defs><path d="M917.333333 214.976c-10.794667-0.021333-25.941333-1.152-36.629333 0.512-15.914667 2.816-32.128-1.834667-48.170667-2.325333-0.234667-3.925333 2.752-10.944 2.602667-14.848-3.008-0.384-5.994667-0.597333-8.896-1.28-2.709333-9.749333-1.664-20.032-1.984-30.037334a594.325333 594.325333 0 0 1-6.165333-0.128c-0.490667 11.392-0.448 22.784-0.576 34.176-3.946667-3.221333-6.698667-9.472-12.437334-9.024L648.362667 192c-8.277333 0.896-14.741333-4.757333-21.418667-8.746667a212.373333 212.373333 0 0 0-2.496-15.616c-4.693333 6.464-5.12 14.741333-6.848 22.357334-12.458667 2.474667-24.768 9.450667-37.461333 10.56-1.109333-7.338667-2.282667-14.656-3.093334-22.058667 6.72-3.242667 14.272-5.418667 19.84-10.709333 6.549333-19.157333-1.024-39.082667-5.354666-57.813334A206.250667 206.250667 0 0 0 547.776 85.333333h-22.229333c-15.274667 4.992-30.485333 13.162667-39.168 27.541334-13.44 21.098667-15.296 48.192-6.848 71.616l-4.778667 3.328c-14.549333-11.52-34.666667-5.824-48.597333 3.84-20.224 15.338667-31.018667 40.426667-35.498667 65.173333-4.629333 20.970667-2.56 42.496-0.085333 63.573333-8.362667 2.069333-16.938667 2.474667-25.450667 3.114667-3.562667 0.149333-8.064 1.578667-8.448 5.824-2.56 16.682667-0.661333 33.834667-4.096 50.410667a135.936 135.936 0 0 0-3.285333 32.298666c9.322667 2.112 18.709333 4.138667 28.074666 6.122667-6.4 2.944-13.76 5.034667-18.325333 10.858667-4.010667 26.901333 5.546667 53.418667 4.693333 80.405333-4.693333 4.096-10.56 7.786667-12.096 14.357333-2.88 7.744 1.706667 15.616 0.576 23.530667-1.088 8.618667 0.853333 17.194667 3.605334 25.258667 2.581333 6.762667 0.426667 14.016-0.597334 20.906666-3.029333 17.834667-6.506667 35.712-7.253333 53.824-0.597333 9.557333 2.709333 19.413333-0.341333 28.693334-9.941333 22.784-26.645333 41.792-35.477334 65.152-3.904 10.752-1.92 23.04-7.530666 33.237333-5.994667 11.477333-14.272 22.805333-13.525334 36.565333-0.661333 9.322667 6.762667 17.685333 3.626667 27.008a2202.24 2202.24 0 0 1-14.485333 56.938667c-3.498667 12.565333-4.16 26.325333-0.256 38.869333 5.226667 2.752 11.114667 3.669333 16.832 4.906667h21.994666c7.104-0.661333 14.144-1.856 21.248-2.858667 2.048-9.856-0.362667-19.477333-3.690666-28.650666-4.138667-23.125333-0.448-47.701333 11.093333-68.096 3.989333-5.290667 11.242667-7.338667 14.08-13.653334 4.245333-9.024 6.272-18.901333 10.154667-28.074666 5.461333-13.056 12.928-25.322667 16.341333-39.210667 1.898667-7.594667-0.277333-15.381333 0.405333-23.061333 2.069333-8.512 5.888-16.853333 12.16-22.997334 8.405333-7.872 11.690667-19.925333 20.885334-27.072 6.272-4.693333 6.570667-13.098667 7.893333-20.288 1.237333-9.514667 4.330667-18.624 7.765333-27.52 4.885333-12.309333 8.256-25.813333 17.664-35.52 5.973333-6.250667 8.96-14.570667 11.136-22.848 3.733333 7.232 6.72 15.253333 12.714667 20.928 6.72 3.370667 16.512 1.557333 20.586667 9.258667 11.712 17.834667 12.586667 27.989333 24.341333 45.824 5.610667 11.072 19.136 8.362667 29.141333 8.661333 5.76 7.914667 12.181333 10.197333 10.261334 19.797334-0.362667 10.816-9.493333 19.157333-8.213334 30.229333 1.002667 22.528 2.666667 45.248 8.512 67.072 2.048 10.176 7.338667 19.52 7.509334 30.101333 0.256 12.245333-2.069333 32.298667-4.522667 44.394667-5.973333 16.192-10.048 33.130667-10.816 50.474667 14.122667 8.32 30.421333-0.128 45.184 4.8 16.192 5.354667 33.173333 7.274667 50.133333 6.954666 10.432-0.192 20.885333-1.216 31.146667-2.816 0.064-5.909333 1.984-12.330667-0.704-17.856-8.533333-10.090667-22.805333-10.133333-33.173333-17.109333-8.384-7.552-15.232-16.768-22.229334-25.621333-5.909333-6.954667 2.005333-16.576 1.770667-25.344 0.085333-13.312 0.021333-27.029333 4.928-39.573334 3.626667-9.984 2.410667-20.778667 0.448-30.954666-2.645333-12.522667 1.834667-24.874667 2.986667-37.269334a1443.626667 1443.626667 0 0 0 3.925333-50.773333c0.768-9.664-2.538667-18.88-4.885333-28.074667-1.386667-8.661333-9.621333-13.546667-12.032-21.76-14.122667-38.954667-27.050667-71.018667-54.869334-102.08-10.688-10.645333-16.085333-28.437333-9.6-42.752 6.016 1.642667 11.989333 3.456 18.090667 4.992 6.506667-8.768 12.864-18.453333 13.909333-29.717333 1.066667-11.605333 1.386667-23.274667 2.410667-34.88 0.469333-12.650667 3.2-25.685333-0.064-38.101333-2.133333-8.490667-10.517333-12.16-17.002667-16.469334 1.557333-5.909333 3.136-11.776 4.522667-17.728 21.397333 10.432 41.237333 25.557333 65.194667 29.269334 6.421333 0.981333 13.290667 4.053333 19.669333 1.109333 8.789333-4.224 15.573333-11.605333 23.253333-17.536 13.909333-10.944 11.989333-30.912 16.832-46.528 4.736-1.834667 9.557333-3.52 14.357334-5.312-3.157333-13.845333-8.661333-27.84-6.784-42.282667 5.76-7.872 13.034667-12.586667 19.029333-20.288 4.288-5.845333 11.712-7.36 18.474667-7.189333 20.373333-0.106667 40.768 0.256 61.162666 0.021333 0.661333-2.965333-1.749333 2.965333-1.024 0 21.205333 1.216 42.432-3.392 63.68-0.746666 13.248 2.282667 31.04 1.344 44.352 0.362666-0.704-3.925333-1.045333-15.445333-1.216-19.349333z m-262.336 74.602667c-4.032-7.210667-10.069333-13.994667-11.264-22.314667 0.64-0.874667 1.962667-2.56 2.602667-3.413333 8.661333-0.917333 17.386667-0.341333 26.069333 0.085333-5.610667 8.661333-11.541333 17.152-17.408 25.642667z m-1.258666-27.904c5.76-2.944 7.616-9.024 8.362666-15.146667 4.629333-0.234667 9.28-0.384 13.973334-0.490667l0.490666 13.461334c-7.509333 1.685333-15.210667 1.664-22.826666 2.176z" p-id="2867"></path><path d="M917.333333 490.666667h-149.333333v-42.666667h192c-2.794667-16.917333-14.08-32.021333-29.76-38.570667-10.517333-4.821333-22.272-4.053333-33.493333-4.053333L768 405.333333c-21.333333 0-42.666667 21.333333-42.666667 42.666667v42.666667c1.173333 21.290667 21.333333 42.666667 42.666667 42.666666h149.333333v42.666667h-192c2.858667 13.589333 10.026667 26.389333 21.717334 33.984 10.24 7.381333 23.104 9.045333 35.349333 8.682667H917.333333c21.333333 0 42.666667-21.333333 42.666667-42.666667v-42.666667c0-21.333333-18.773333-42.261333-42.666667-42.666666zM106.666667 448h170.666666a42.666667 42.666667 0 0 0-42.666666-42.666667H106.666667a42.666667 42.666667 0 0 0-42.666667 42.666667v128a42.666667 42.666667 0 0 0 42.666667 42.666667h128a42.666667 42.666667 0 0 0 42.666666-42.666667H106.666667v-128z" p-id="2868"></path></svg>