<svg xmlns="http://www.w3.org/2000/svg" viewBox="0 0 246.99 260.02"><defs><style>.cls-1{fill:#f2d0af;}.cls-2{fill:#edac45;}.cls-3{fill:#e5c4a5;}.cls-4{fill:#393c3d;}.cls-5{fill:#fc6;}.cls-6{fill:#231e1b;}.cls-7{fill:#f4d3b0;}.cls-8{fill:#3a332d;}.cls-9{fill:#c65044;}.cls-10{fill:#ddb58e;}</style></defs><title>资源 234</title><g id="图层_2" data-name="图层 2"><g id="Layer_1" data-name="Layer 1"><path class="cls-1" d="M157.09,162.27s8.16-5,11.36,0,14,57.1,14,57.1L202,195l9.19-2,4.29,8.27s-22.06,38.44-30.33,41.12-17.76-5.9-22.66-18.46S157.09,162.27,157.09,162.27Z"/><path class="cls-2" d="M209.43,211.3c2.75-4.47,4.83-8,5.64-9.41-5.75-.25-11.49-1.92-13.51-6.41l-5.27,6.59c0,.07,1.65,4.47,4.77,6.66C204.46,211.12,209.38,211.31,209.43,211.3Z"/><path class="cls-1" d="M209.09,195s-11.09,4.23-14.36,0-.82-8.32-2.25-10.77-12.25-12.49-6.94-15.84,11,1.16,14.7,9c0,0,4.9-24.21,10.21-24.21s9,3.21,7,16.61c0,0,9.8-11.94,17.76-7.54s-4.49,15.84-4.49,15.84,14.09-5.71,16.13,4.7-12.66,7.2-14.09,8.5c-.94.86-4.48,9.84-10.13,11.75-2.89,1-6.34.09-10.29-4.69C212.29,198.31,211.17,193,209.09,195Z"/><path class="cls-3" d="M225.36,185.91c-.73-.9-1.51-1.78-2.31-2.64a31.2,31.2,0,0,0-2.65-2.34,24.57,24.57,0,0,0-3-2,26.73,26.73,0,0,0-3.21-1.61,25.51,25.51,0,0,0-3.44-1.1,18.83,18.83,0,0,0-3.58-.58,19.25,19.25,0,0,0-3.64,0c-.61.07-1.21.14-1.81.26-.32.06-.62.12-.93.2l-.21-.55c-.25,1.11-.39,1.78-.39,1.78a29.19,29.19,0,0,0-1.79-3.29c.27,1.2.54,2.4.83,3.59l.22.86,1.06-.21c.45-.08,1-.2,1.54-.25s1.09-.09,1.63-.11a25.68,25.68,0,0,1,3.28.11,15,15,0,0,1,1.62.23,12.5,12.5,0,0,1,1.62.3c1.08.2,2.12.59,3.18.89s2.09.76,3.09,1.26a32.7,32.7,0,0,1,3,1.51c1,.51,1.92,1.18,2.94,1.73S224.36,185.3,225.36,185.91Z"/><path class="cls-1" d="M80.59,173c-4.24,12.52-10,55.5-13.33,87H90l12.2-93.85S87.12,153.7,80.59,173Z"/><path class="cls-2" d="M63.44,255.85c-.24,1.07-.48,2.51-.71,4.17H90.8l.2-5.39S64.87,249.52,63.44,255.85Z"/><path class="cls-4" d="M91.81,154.77S81.62,232.26,80.2,260h93.31c-1.42-27.76-11.61-105.25-11.61-105.25H91.81Z"/><path class="cls-5" d="M126.85,146.79c-12.39,0-22.43,12.91-22.43,28.83s10,28.83,22.43,28.83,22.44-12.91,22.44-28.83S139.24,146.79,126.85,146.79Zm0,31.31c-9.17,0-16.61-6.44-16.61-14.39s7.44-14.4,16.61-14.4,16.62,6.45,16.62,14.4S136,178.1,126.85,178.1Z"/><path class="cls-2" d="M128.08,204.37V178.05c-.41,0-.81,0-1.23,0s-.82,0-1.22,0v26.32c.41,0,.81.08,1.22.08S127.67,204.39,128.08,204.37Z"/><path class="cls-2" d="M129.13,178a19,19,0,0,1-2.28.15l-.65,0,14.46,20.23a23.06,23.06,0,0,0,1.68-1.87Z"/><path class="cls-2" d="M115.89,174.5a14.8,14.8,0,0,1-3.53-3.76l-7.19-2.4c-.16.8-.3,1.61-.41,2.44Z"/><path class="cls-2" d="M148.55,182.84l-16.42-5.49a19,19,0,0,1-5.28.75h-.22L148,185.24Q148.31,184.05,148.55,182.84Z"/><path class="cls-2" d="M126.85,178.1a18.81,18.81,0,0,1-2.27-.15l-13.21,18.49a25,25,0,0,0,1.67,1.87l14.46-20.23Z"/><path class="cls-2" d="M148.54,168.34l-7.2,2.4a14.94,14.94,0,0,1-3.52,3.76L149,170.78C148.84,170,148.7,169.14,148.54,168.34Z"/><path class="cls-2" d="M105.72,185.24l21.36-7.14h-.23a19,19,0,0,1-5.27-.75l-16.42,5.49C105.32,183.65,105.51,184.45,105.72,185.24Z"/><rect class="cls-2" x="31.66" y="143.46" width="66.16" height="24.5" transform="translate(-93.84 98.34) rotate(-47.53)"/><polygon class="cls-6" points="42.72 161.62 33.37 171.84 51.44 188.39 58.68 180.48 42.72 161.62"/><polygon class="cls-6" points="46.34 157.67 44.39 159.8 60.35 178.66 62.29 176.53 46.34 157.67"/><polygon class="cls-6" points="50.37 153.27 48 155.85 63.96 174.71 66.32 172.13 50.37 153.27"/><polygon class="cls-6" points="54.4 148.87 52.03 151.45 67.99 170.31 70.36 167.72 54.4 148.87"/><polygon class="cls-6" points="58.85 144.01 56.07 147.04 72.02 165.9 74.8 162.87 58.85 144.01"/><polygon class="cls-6" points="76.47 161.04 96.11 139.59 78.04 123.04 60.51 142.19 76.47 161.04"/><circle class="cls-4" cx="125.89" cy="83.2" r="83.2" transform="translate(-21.96 113.39) rotate(-45)"/><path class="cls-7" d="M63,108.82s-7.68-5.69-13.92,0c-6,5.48-2,33.9,22.86,30.85Z"/><path class="cls-7" d="M188.77,108.82s7.68-5.69,13.91,0c6,5.48,2,33.9-22.86,30.85Z"/><path class="cls-4" d="M48.44,171.86s-18-17.44-31.89-6.72S0,182.89,0,182.89l11.74,17.67,11.54-9.76-5.34,13.29,12.78-3.86-10.57,8.68,12.66,11.48S79.64,204.3,48.44,171.86Z"/><path class="cls-1" d="M159,57.38C137.89,55.76,127.9,72.1,125.89,76c0,0-12-20.2-33.08-18.58-16.27,1.25-27,14.07-32.11,22.11,0,17.94,0,39.66,0,40.2,0,34.28,29.21,46.48,65.23,46.48s65.24-12.2,65.24-46.48c0-.71,0-21.48-.08-40.25C185.89,71.39,175.22,58.63,159,57.38Z"/><path class="cls-8" d="M164.16,106.55c-6.65,0-15.86-3.68-17.12-4.19a1.23,1.23,0,0,1,.93-2.27c4,1.62,15.16,5.4,19.4,3.49a8.48,8.48,0,0,0,5.25-6.72,1.23,1.23,0,0,1,2.45.15,10.9,10.9,0,0,1-6.69,8.8A10.31,10.31,0,0,1,164.16,106.55Z"/><path class="cls-8" d="M179.2,100.06a1.23,1.23,0,0,0-1.67.47c-1.13,2-2.52,3.17-4.14,3.46a6.31,6.31,0,0,1-3.5-.49c-.92.43-1.82.89-2.71,1.37a10.64,10.64,0,0,0,5.33,1.65,7.23,7.23,0,0,0,1.3-.12c2.38-.42,4.35-2,5.85-4.67A1.23,1.23,0,0,0,179.2,100.06Z"/><path class="cls-8" d="M87.62,106.55c6.66,0,15.87-3.68,17.12-4.19a1.22,1.22,0,0,0,.67-1.6,1.24,1.24,0,0,0-1.6-.67c-4,1.62-15.15,5.4-19.4,3.49a8.48,8.48,0,0,1-5.25-6.72,1.23,1.23,0,0,0-2.45.15,10.94,10.94,0,0,0,6.7,8.8A10.26,10.26,0,0,0,87.62,106.55Z"/><path class="cls-8" d="M72.59,100.06a1.23,1.23,0,0,1,1.67.47c1.12,2,2.51,3.17,4.13,3.46a6.36,6.36,0,0,0,3.51-.49c.91.43,1.82.89,2.7,1.37a10.57,10.57,0,0,1-5.33,1.65,7.31,7.31,0,0,1-1.3-.12c-2.38-.42-4.34-2-5.85-4.67A1.23,1.23,0,0,1,72.59,100.06Z"/><path class="cls-9" d="M114.4,138.15s2.89-4.51,6.24-4.3,5.17,3.53,5.17,3.53,3-3.45,6.53-3.38,5,4.5,5,4.5-3.5,8.44-11.84,8.44S114.4,138.15,114.4,138.15Z"/><path class="cls-10" d="M120.13,115.63s.58-5.33,5.54-5.35,6,5.35,6,5.35-2.71-3.28-5.88-3.28S120.13,115.63,120.13,115.63Z"/></g></g></svg>