<svg xmlns="http://www.w3.org/2000/svg" viewBox="0 0 203.09 260.37"><defs><style>.cls-1{fill:#515151;}.cls-2{fill:#f9dab4;}.cls-3{fill:#efc4a0;}.cls-4{fill:#b5b2b1;}.cls-5{fill:#e8e3d9;}.cls-6{fill:#f9f5ed;}.cls-7{fill:#f4d3b0;}.cls-8{fill:#3a332d;}.cls-9{fill:#e8dfd9;}</style></defs><title>资源 282</title><g id="图层_2" data-name="图层 2"><g id="Layer_1" data-name="Layer 1"><rect class="cls-1" x="54.81" y="157.54" width="48.76" height="49.74"/><path class="cls-2" d="M153.16,158.2l40.06,2.41L196,180.42s-10.31,26.1-23.32,35.07l-19.51-25Z"/><path class="cls-3" d="M180,171.84s-12.05,8.21-5.82,16.41c4.84,6.38,13.89,2.06,18.82-1.05,1.92-4,3-6.78,3-6.78l-1.76-12.57-5-1.47Z"/><path class="cls-3" d="M161.4,166.61l-7.84-2a14.31,14.31,0,0,0,6.1,4.24Z"/><rect class="cls-4" x="165.08" y="144.56" width="16.37" height="27.28"/><rect class="cls-5" x="159.62" y="166.38" width="27.28" height="5.46" rx="2.7"/><path class="cls-6" d="M176,106.36h-5.46V87.24a2.7,2.7,0,0,1,2.7-2.7h.06a2.7,2.7,0,0,1,2.7,2.7Z"/><rect class="cls-5" x="165.08" y="100.91" width="16.37" height="10.91" rx="1.98"/><path class="cls-6" d="M186.9,155.47H159.62v-46a3.12,3.12,0,0,1,3.11-3.12h21.06a3.12,3.12,0,0,1,3.11,3.12Z"/><rect class="cls-5" x="154.16" y="150.01" width="38.19" height="5.46" rx="2.7"/><path class="cls-4" d="M169.86,114.66a1.09,1.09,0,0,0,1.09,1.09h16v-2.18H171A1.09,1.09,0,0,0,169.86,114.66Z"/><path class="cls-4" d="M175.31,122.85a1.09,1.09,0,0,0,1.09,1.09h10.5v-2.18H176.4A1.09,1.09,0,0,0,175.31,122.85Z"/><path class="cls-4" d="M169.86,131a1.09,1.09,0,0,0,1.09,1.09h16v-2.18H171A1.09,1.09,0,0,0,169.86,131Z"/><path class="cls-4" d="M175.31,139.22a1.09,1.09,0,0,0,1.09,1.09h10.5v-2.19H176.4A1.09,1.09,0,0,0,175.31,139.22Z"/><path class="cls-2" d="M154.4,192s-8.88-38-2-39.13,25.28,4.95,22.92,11.77c-1.86,5.37-9.45,3-12.63,2.24l-9.42-2.6,6.15,28.44Z"/><path class="cls-2" d="M189.09,169.8s-20.34,9.09-13.52,17.24,20.75-5.47,23.12-10.42-3-7.13-3-7.13a8,8,0,0,0,6.71-4.44c2.58-4.54-2.58-9.19-8.26-10.63s-15.69-3.41-16.73,3.82S189.09,169.8,189.09,169.8Z"/><path class="cls-6" d="M142,207.19c-17.25-26.6-31-47.14-31-47.14l-10.38-1L79.14,202.37,57.6,159.08l-10.38,1S14.4,232.13,10.35,260.37h114.1c-.59-11.06-1.11-18.4-1.11-18.4,12.38,10.19,21.51,15.27,24.67,15.28s26.6-35.35,30-45.77l-25.69-28.29C147.15,190.55,142,207.19,142,207.19Z"/><polygon class="cls-5" points="58.88 161.67 48.31 177.83 60.65 181.16 57.05 191.14 79.14 202.37 58.88 161.67"/><path class="cls-5" d="M33.73,260.37c.75-13.37,2.28-36.08,4.65-50a447.12,447.12,0,0,0-8.94,50Z"/><polygon class="cls-5" points="99.4 161.67 109.97 177.83 97.63 181.16 101.23 191.14 79.14 202.37 99.4 161.67"/><path class="cls-5" d="M119.9,210.36c1.46,8.61,2.61,20.58,3.44,31.62h0c1.15.94,2.26,1.84,3.35,2.69C123.67,225.56,119.9,210.36,119.9,210.36Z"/><circle class="cls-5" cx="79.12" cy="210.64" r="4.1"/><circle class="cls-5" cx="79.12" cy="227.01" r="4.1"/><circle class="cls-5" cx="79.12" cy="243.37" r="4.1"/><path class="cls-1" d="M5.35,101.64S-26.74,0,79.14,0s74.4,101.64,74.4,101.64Z"/><path class="cls-7" d="M18.19,99.83S13.41,92.94,5.78,95s-11.94,31.52,15.08,44.11Z"/><path class="cls-7" d="M140.17,99.83S145,92.94,152.57,95s12,31.52-15.07,44.11Z"/><path class="cls-2" d="M112.82,161.35l-19.59,4.08a69.3,69.3,0,0,1-28.18,0l-19.59-4.08a40,40,0,0,1-31.89-39.2V67.71S44.66,80,79.14,80s65.57-12.3,65.57-12.3v54.44A40,40,0,0,1,112.82,161.35Z"/><polygon class="cls-4" points="126.05 115.34 144.71 95.88 144.71 92.72 124.47 113.83 126.05 115.34"/><polygon class="cls-4" points="37 114.69 13.57 92.88 13.57 95.86 35.51 116.28 37 114.69"/><path class="cls-6" d="M30.23,109.76v44.9a40,40,0,0,0,15.23,6.69l19.59,4.08a69.3,69.3,0,0,0,28.18,0l19.59-4.08a40,40,0,0,0,16.79-7.87V109.76s-17.13,3.78-50.47,3.78S30.23,109.76,30.23,109.76Z"/><path class="cls-8" d="M47.51,100a6.24,6.24,0,1,1-6.24-6.24A6.24,6.24,0,0,1,47.51,100Z"/><path class="cls-9" d="M42.3,95.6c.15.76-.78,1.58-2.08,1.84s-2.48-.13-2.63-.89.78-1.58,2.08-1.84S42.15,94.85,42.3,95.6Z"/><rect class="cls-8" x="28.55" y="84.12" width="20.26" height="5.14" rx="2.18"/><path class="cls-8" d="M123.62,100a6.24,6.24,0,1,1-6.23-6.24A6.23,6.23,0,0,1,123.62,100Z"/><path class="cls-9" d="M118.42,95.6c.15.76-.78,1.58-2.08,1.84s-2.48-.13-2.63-.89.78-1.58,2.08-1.84S118.27,94.85,118.42,95.6Z"/><rect class="cls-8" x="109.85" y="84.12" width="20.26" height="5.14" rx="2.18"/></g></g></svg>