<svg xmlns="http://www.w3.org/2000/svg" viewBox="0 0 193.25 260"><defs><style>.cls-1{fill:#7f5732;}.cls-2{fill:#f9f5ed;}.cls-3{fill:#ba8156;}.cls-4{fill:#e2dcd9;}.cls-5{fill:#515151;}.cls-6{fill:#393c3d;}.cls-7{fill:#f4d3b0;}.cls-8{fill:#f9dab4;}.cls-9{fill:#ea9628;}.cls-10{fill:#3a332d;}.cls-11{fill:#c65044;}.cls-12{fill:#efc4a0;}</style></defs><title>资源 77</title><g id="图层_2" data-name="图层 2"><g id="Layer_1" data-name="Layer 1"><path class="cls-1" d="M182.08,190.94s7.19-1.67,9.81-12.15c0,0-15.19-1.09-13.95-34.19S202.36,0,96.62,0,14.07,111.49,15.31,144.6,1.36,178.79,1.36,178.79c2.62,10.48,9.81,12.15,9.81,12.15-4.13,2.9-11.17,0-11.17,0,6.62,57.94,96.62,54.63,96.62,54.63s90,3.31,96.63-54.63C193.25,190.94,186.21,193.84,182.08,190.94Z"/><rect class="cls-2" x="69.76" y="155.33" width="54.12" height="55.66"/><rect class="cls-3" x="89.99" y="164.05" width="12.8" height="8.39" rx="2.26"/><polygon class="cls-3" points="93.61 168.24 99.37 168.24 102.79 234.24 96.39 241.77 89.99 233.92 93.61 168.24"/><polygon class="cls-4" points="86.61 175.58 96.42 162.89 106.24 175.58 120.46 158.25 72.79 158.25 86.61 175.58"/><path class="cls-5" d="M96.62,197.91l-27-40.36c-7,4.2-13.86,12.62-18.46,28.53C39.74,225.68,34,253.15,32.63,260h128c-1.37-6.85-7.11-34.32-18.57-73.92-4.6-15.91-11.46-24.33-18.46-28.53Z"/><path class="cls-6" d="M134.44,200.51c3.32,12.9,6.09,45.64,7.15,59.49h5.1C143.78,231.16,134.44,200.51,134.44,200.51Z"/><path class="cls-6" d="M51.66,260c1.06-13.85,3.82-46.59,7.15-59.49,0,0-9.34,30.65-12.25,59.49Z"/><polygon class="cls-6" points="72.76 162.18 64.46 181.66 77.16 184.23 73.12 193.2 96.62 197.91 72.76 162.18"/><polygon class="cls-6" points="120.49 162.18 128.79 181.66 116.09 184.23 120.13 193.2 96.62 197.91 120.49 162.18"/><path class="cls-7" d="M34.43,96.14s-12.11-7.71-20.32-2-1,36.13,21,34.15Z"/><path class="cls-7" d="M158.82,96.14s12.11-7.71,20.32-2,1,36.13-21,34.15Z"/><path class="cls-8" d="M122.11,164.75h-51A41.1,41.1,0,0,1,30,123.66V50.82H163.21v72.84A41.1,41.1,0,0,1,122.11,164.75Z"/><path class="cls-1" d="M23,86.14s73.16-5.76,94.92-29c0,0,1.49,14.93-8.1,18.56,0,0,21.75,2.35,27.3-12.8,0,0,7.67,21.12,28.79,22l-2.35-36.68H27.65Z"/><path class="cls-1" d="M37.87,78.5s-.26,6.09-1,14.92c-1.23,13.89,1.76,32.12,14.93,27.3,0,0-1.75,10.37-14.29,6.39-8.71-2.76-11.5-18.66-10.88-31.77.47-9.83,1-18,1.28-19.2Z"/><path class="cls-1" d="M155.16,78.5s.26,6.09,1.05,14.92c1.23,13.89-1.76,32.12-14.93,27.3,0,0,1.75,10.37,14.29,6.39,8.71-2.76,11.5-18.66,10.87-31.77-.46-9.83-1-18-1.27-19.2Z"/><path class="cls-9" d="M24.32,123.24s4.48,7,0,13.88-12.62,5.37-12.62,5.37a11,11,0,0,0,4.21,4c4.15,2.11,12.17.35,15.39-6.09S33.37,127.34,30,125A11.39,11.39,0,0,0,24.32,123.24Z"/><path class="cls-9" d="M168.93,123.24s-4.48,7,0,13.88,12.62,5.37,12.62,5.37a11,11,0,0,1-4.21,4c-4.15,2.11-12.17.35-15.4-6.09s-2.06-13.09,1.27-15.42A11.39,11.39,0,0,1,168.93,123.24Z"/><path class="cls-10" d="M50.66,112a1.37,1.37,0,0,1-1.38-1.37c0-3.66,1.83-10.66,9-10.9,7-.25,10.12,5.5,10.82,8.56a1.38,1.38,0,0,1-2.69.62c-.06-.27-1.58-6.43-7.72-6.43h-.32c-6.22.22-6.29,7.82-6.29,8.14A1.38,1.38,0,0,1,50.66,112Z"/><path class="cls-10" d="M48.3,112a18.4,18.4,0,0,1-5.93-1,1.38,1.38,0,0,1-.85-1.76,1.37,1.37,0,0,1,1.75-.85,12.94,12.94,0,0,0,7,.7,1.38,1.38,0,0,1,.75,2.66A10.76,10.76,0,0,1,48.3,112Z"/><path class="cls-10" d="M50.83,109.1c-4,0-8.69-3.8-8.89-4A1.38,1.38,0,1,1,43.7,103h0c1.13.93,4.6,3.33,7.13,3.33h.09a1.38,1.38,0,0,1,0,2.76Z"/><path class="cls-10" d="M142.1,112h0a1.38,1.38,0,0,1-1.37-1.39c0-.32-.07-7.92-6.3-8.14-6.44-.22-8,6.15-8,6.42a1.38,1.38,0,1,1-2.69-.61c.7-3.07,3.86-8.8,10.83-8.56s9,7.24,9,10.9A1.39,1.39,0,0,1,142.1,112Z"/><path class="cls-10" d="M144.46,112a10.89,10.89,0,0,1-2.75-.3,1.38,1.38,0,0,1,.76-2.66,13,13,0,0,0,7-.7,1.38,1.38,0,0,1,.9,2.61A18.45,18.45,0,0,1,144.46,112Z"/><path class="cls-10" d="M141.92,109.1h-.1a1.38,1.38,0,0,1,0-2.76h.09c2.53,0,6-2.4,7.13-3.33a1.38,1.38,0,0,1,1.75,2.13C150.62,105.3,146,109.1,141.92,109.1Z"/><path class="cls-11" d="M82.11,140.46s3.16-4.76,6.82-4.54,5.65,3.73,5.65,3.73,3.29-3.65,7.13-3.58,5.53,4.76,5.53,4.76-3.82,8.92-12.94,8.92S82.11,140.46,82.11,140.46Z"/><path class="cls-12" d="M88.38,125.12s.62-5.63,6.05-5.66,6.54,5.66,6.54,5.66-3-3.47-6.44-3.47S88.38,125.12,88.38,125.12Z"/><path class="cls-1" d="M120.91,89.2l.12-3.26a.75.75,0,0,1,.68-.72c3.73-.38,22.29-1.94,31.05,3.29a.76.76,0,0,1,.24,1.07l-1.79,2.71a.76.76,0,0,1-.89.29c-2.51-.93-13.3-4.45-28.56-2.6A.75.75,0,0,1,120.91,89.2Z"/><path class="cls-1" d="M71.32,88.77l-.17-3.26a.76.76,0,0,0-.69-.72c-3.73-.32-22.31-1.64-31,3.71a.76.76,0,0,0-.22,1.07l1.83,2.68a.74.74,0,0,0,.89.28c2.5-1,13.24-4.62,28.52-3A.76.76,0,0,0,71.32,88.77Z"/></g></g></svg>