<svg xmlns="http://www.w3.org/2000/svg" viewBox="0 0 169.51 259.62"><defs><style>.cls-1{fill:#515151;}.cls-2{fill:#6d6d6d;}.cls-3{fill:#44919b;}.cls-4{fill:#3a332d;}.cls-5{fill:#f4d3b0;}.cls-6{fill:#f9dab4;}.cls-7{fill:#4c3626;}.cls-8{fill:#efc4a0;}.cls-9{fill:#492020;}.cls-10{fill:#e8dfd9;}</style></defs><title>资源 182</title><g id="图层_2" data-name="图层 2"><g id="Layer_1" data-name="Layer 1"><path class="cls-1" d="M145.55,245.29c3.46-6.47-8.37-53.25-14-70.74a32.29,32.29,0,0,0-21.38-21.3s4.08,69.37,9,106.37h31.51c0-3.85-.14-7.14-.28-9C149.9,244.15,145.55,245.29,145.55,245.29Z"/><path class="cls-1" d="M24,245.29c-3.47-6.47,8.36-53.25,14-70.74a32.27,32.27,0,0,1,21.37-21.3s-4.07,69.37-9,106.37H18.88c0-3.85.15-7.14.29-9C19.65,244.15,24,245.29,24,245.29Z"/><path class="cls-2" d="M110.73,149.37l-26,2.39-26-2.39s-10.36,6.93-12.07,46.48c-1,23.88-2.67,47.76-2,63.77h80c.72-16-.91-39.89-2-63.77C121.09,156.3,110.73,149.37,110.73,149.37Z"/><rect class="cls-1" x="84.91" y="179.12" width="2.28" height="80.5"/><path class="cls-1" d="M86.05,184.25s3,11.6,6.28,9.13S94.8,187.29,86.05,184.25Z"/><polygon class="cls-3" points="54.71 154.78 86.14 183.45 114.8 154.78 54.71 154.78"/><ellipse class="cls-4" cx="84.76" cy="72.16" rx="77.55" ry="72.16"/><path class="cls-5" d="M146.6,99.25S158,86.71,166,90.13s4.56,42.78-33.66,42.78Z"/><path class="cls-5" d="M22.91,99.25S11.5,86.71,3.51,90.13-1,132.91,37.17,132.91Z"/><path class="cls-6" d="M155.71,75.87,141.24,47.35,85,51.91l-.2.45-.21-.45L28.27,47.35,13.8,75.87S22.59,152.46,74,165.12a25.76,25.76,0,0,0,10.81,1.65,25.76,25.76,0,0,0,10.8-1.65C146.92,152.46,155.71,75.87,155.71,75.87Z"/><path class="cls-4" d="M10.32,85.56s14.54,37.08,20.53,36.51L16.31,76.44s21.1-8.56,27.09-16.26c0,0,11.18,7.13,39.67,6.85s29.93-8.28,34.49-5.42,14.26,14,13.4,22.53c0,0,7.81-10.84.06-27.1,0,0,12.21,5.42,14.21,8.56s10.55,17.4-4,56.47c0,0,3.69-2.56,10-12.83s16.84-54.76-6-70.45S58.8,28.24,58.8,28.24l-36.22,10-10,15.4Z"/><polygon class="cls-7" points="26.12 88.47 27.73 95.85 55.68 90.97 54.17 81.04 26.12 88.47"/><polygon class="cls-7" points="143.4 88.62 141.19 95.85 113.73 88.72 116.03 78.94 143.4 88.62"/><path class="cls-8" d="M95.48,121.21s-5.4-8.12-10.8-8.12-10.65,9-10.65,9,8-6.39,10.73-6.39S95.48,121.21,95.48,121.21Z"/><path class="cls-9" d="M66.44,140.79s26.05,2.3,35.57-9.88c0,0,3.15,16.26-1.41,18S73.63,147.81,66.44,140.79Z"/><circle class="cls-4" cx="49.41" cy="107.05" r="7.37"/><path class="cls-10" d="M50.63,101.92c.18.89-.92,1.86-2.46,2.17s-2.93-.16-3.11-1,.92-1.86,2.46-2.18S50.45,101,50.63,101.92Z"/><path class="cls-4" d="M127.78,107.05a7.37,7.37,0,1,1-7.36-7.37A7.36,7.36,0,0,1,127.78,107.05Z"/><path class="cls-10" d="M121.63,101.92c.18.89-.92,1.86-2.46,2.17s-2.93-.16-3.11-1,.93-1.86,2.46-2.18S121.45,101,121.63,101.92Z"/></g></g></svg>