<svg xmlns="http://www.w3.org/2000/svg" viewBox="0 0 193.04 259.93"><defs><style>.cls-1{fill:#f9dab4;}.cls-2{fill:#f7cea6;}.cls-3{fill:#3b8d93;}.cls-4{fill:#5c9ea0;}.cls-5{fill:#545454;}.cls-6{fill:#472b18;}.cls-7{fill:#fff;}.cls-8{fill:#f9f7f2;}.cls-9{fill:#e5be9e;}.cls-10{fill:#f4c7a2;}.cls-11{fill:#aaa;}</style></defs><title>资源 4</title><g id="图层_2" data-name="图层 2"><g id="Layer_1" data-name="Layer 1"><path class="cls-1" d="M166.85,182.08l-21.41,0,8,77.83h21.17C171.57,231.16,166.85,182.08,166.85,182.08Z"/><path class="cls-2" d="M145.44,182.1l8,77.83h1.1c-.53-8.11-1.1-16.16-1.56-20.8-1.2-12-4-22.23,1.62-23,5.45-.77,15.43,3.36,16,3.58-2-20.18-3.67-37.62-3.67-37.62Z"/><path class="cls-1" d="M15.81,259.93H37l8-77.83-21.42,0S18.8,231.16,15.81,259.93Z"/><path class="cls-2" d="M19.86,219.7c.52-.22,10.51-4.35,16-3.58s2.81,11,1.62,23c-.47,4.64-1,12.69-1.56,20.8H37l8-77.83-21.42,0S21.84,199.52,19.86,219.7Z"/><path class="cls-3" d="M140.23,147.48s14-3.14,40.7,33.68L143,207.3l-13.12-56.92Z"/><path class="cls-4" d="M174.14,181c2.81-7-15.74-23.86-22.3-27s-15.13-3.19-13.69,4.87,7.63,36.66,7.63,39.75C145.78,198.66,172.52,185.05,174.14,181Z"/><path class="cls-3" d="M51.35,147.48s-14-3.14-40.7,33.68l38,26.14,13.12-56.92Z"/><path class="cls-4" d="M17.45,181c-2.81-7,15.74-23.86,22.3-27s15.13-3.19,13.69,4.87-7.64,36.66-7.64,39.75C45.8,198.66,19.07,185.05,17.45,181Z"/><path class="cls-3" d="M147.79,259.93c-.72-30.48-3.34-87.85-12.81-121-59.54,0-79.12.42-79.12.42s-13,69.45-13.66,120.56Z"/><path class="cls-4" d="M62.94,148.11a169.2,169.2,0,0,0-13.12,47.27c-2.33,18.45-6.82,47.67-1.94,64.55h96c1.18-7.77,1.18-17.23,1.18-23.32,0-11.87-5-80.12-14.25-89.33C95.53,127,62.94,148.11,62.94,148.11Z"/><path class="cls-3" d="M97.31,180.66c-12.5,0-26.71-30.85-26.47-32.3l1.06-6.5h50.81l1.06,6.5C124,149.81,109.8,180.66,97.31,180.66Z"/><path class="cls-2" d="M78.48,149.6s13.38,23.32,18.83,23.32,18.82-23.32,18.82-23.32Z"/><path class="cls-1" d="M140.37,54.36c-17.68-7.25-24.55-8.91-42.83-9.49h0a89.51,89.51,0,0,0-27,3.93c-42,11.32-46.77,45.6-47.42,55.45-2.16,33,32.78,60.07,73.7,60.33S171,138.26,171.22,105.2C171.22,105.2,170,68.2,140.37,54.36Z"/><path class="cls-5" d="M122.81,82.69s4.65-2.06,12.55-1.7c7.65.35,14,3.81,14.35,2.17.58-2.94-3.48-8-9.8-10.3-5.94-2.17-11.25-.31-15.31,2.7S118.74,83.81,122.81,82.69Z"/><path class="cls-5" d="M72.15,82.69S67.51,80.63,59.6,81c-7.64.35-14,3.81-14.34,2.17-.59-2.94,3.47-8,9.8-10.3,5.94-2.17,11.24-.31,15.31,2.7S76.23,83.81,72.15,82.69Z"/><path class="cls-6" d="M145.32,97.31A12,12,0,1,1,128.75,94,12,12,0,0,1,145.32,97.31Z"/><path class="cls-7" d="M137.21,94.51c1.18,1.79-.37,4.91-3.47,7s-6.59,2.29-7.77.51.37-4.91,3.47-7S136,92.73,137.21,94.51Z"/><path class="cls-6" d="M69.69,94.58a12,12,0,1,1-16.57-3.34A11.95,11.95,0,0,1,69.69,94.58Z"/><path class="cls-7" d="M61.58,91.78c1.19,1.78-.37,4.9-3.47,7s-6.58,2.29-7.77.5.37-4.9,3.47-7S60.4,90,61.58,91.78Z"/><path class="cls-2" d="M90,124.11h0a30.43,30.43,0,0,1,2.2-2.92,19.82,19.82,0,0,1,2-2.07,7.55,7.55,0,0,1,2.11-1.35,2.09,2.09,0,0,1,.79-.14,4,4,0,0,1,1.88.59,12.08,12.08,0,0,1,3.11,2.72,18.29,18.29,0,0,1,2.3,3.48,1,1,0,0,0,1.82-.9,20,20,0,0,0-3.7-5.1,12.29,12.29,0,0,0-2.53-2,5.84,5.84,0,0,0-2.87-.85,4.09,4.09,0,0,0-1.53.27,9.87,9.87,0,0,0-2.77,1.77,25.32,25.32,0,0,0-3.22,3.51c-.82,1.06-1.32,1.85-1.34,1.87A1,1,0,1,0,90,124.11Z"/><path class="cls-8" d="M51.31,124.47a1.33,1.33,0,0,1-1.38,1.28l-4.52-.16a1.33,1.33,0,0,1-1.28-1.39h0a1.33,1.33,0,0,1,1.38-1.29l4.51.16a1.34,1.34,0,0,1,1.29,1.4Z"/><path class="cls-8" d="M148.48,125.1a1.35,1.35,0,0,1-1.39,1.28l-4.51-.17a1.34,1.34,0,0,1-1.29-1.38h0a1.34,1.34,0,0,1,1.39-1.3l4.51.17a1.34,1.34,0,0,1,1.29,1.4Z"/><path class="cls-1" d="M161.75,126.49a24.59,24.59,0,0,0,20.67-.27c10.85-5.31,16.2-27.09,2.14-32.3s-18.38,11-18.38,11Z"/><path class="cls-2" d="M168.29,119.86s4.46-23.86,14.9-15.62c6.41,5.06,2.61,12.14-3.34,15C176.11,121.1,171.26,121.26,168.29,119.86Z"/><path class="cls-9" d="M168.42,119.59l1.55-6s19.84-5.66,14.27,2.3S168.42,119.59,168.42,119.59Z"/><path class="cls-1" d="M31,125.12a24.57,24.57,0,0,1-20.67-.54C-.41,119.14-5.48,97.29,8.65,92.26s18.24,11.18,18.24,11.18Z"/><path class="cls-2" d="M24.58,118.41S20.43,94.49,9.89,102.6c-6.47,5-2.76,12.1,3.15,15.07C16.75,119.54,21.59,119.76,24.58,118.41Z"/><path class="cls-9" d="M24.46,118.14l-1.47-6s-19.77-5.91-14.3,2.12S24.46,118.14,24.46,118.14Z"/><path class="cls-10" d="M96.35,151.21a66.27,66.27,0,0,1-22.64-4.05,1.44,1.44,0,0,1,1.1-2.67h0c.24.1,24.29,9.72,45.31-2a1.44,1.44,0,0,1,1.4,2.52A51.61,51.61,0,0,1,96.35,151.21Z"/><path class="cls-11" d="M172.51,31.87C153.66,3.29,116.82,0,97.12,0S40.57,3.29,21.72,31.87c-6.86,10.4-8.36,18.34-8.36,33.06,0,18,1.73,26.43,1.73,26.43l8.85,5.77c5-21,12.69-27,17.54-31,9.09-7.41,40.91-9.87,55.64-9.87s46.54,2.46,55.63,9.87c4.85,4,12.44,10.15,17.49,31.11l9.14-4.39s1.49-9.94,1.49-27.95C180.87,50.21,179.37,42.27,172.51,31.87Z"/></g></g></svg>