<svg xmlns="http://www.w3.org/2000/svg" viewBox="0 0 153.58 260.08"><defs><style>.cls-1{fill:#e0605c;}.cls-2{fill:#d15656;}.cls-3{fill:#ad281e;}.cls-4{fill:#bc3c3c;}.cls-5{fill:#c94545;}.cls-6{fill:#e2af86;}.cls-7{fill:#8e2525;}.cls-8{fill:#7c1f1f;}.cls-9{fill:#2f3233;}.cls-10{fill:#f7cea6;}.cls-11{fill:#ad3936;}.cls-12{fill:#fff;}.cls-13{fill:#efc19c;}</style></defs><title>资源 102</title><g id="图层_2" data-name="图层 2"><g id="Layer_1" data-name="Layer 1"><path class="cls-1" d="M133.7,256.66c-1.48-6.67-2.91-13.34-4.36-20q-2.25-10.41-4.53-20.84-2-9-4-18.05c-.85-3.8-1.68-7.6-2.61-11.38-3.33-13.55-14.88-14.88-14.88-14.88s2.82,54.39,4.59,88.59h26.52Z"/><path class="cls-2" d="M103.66,171.53v5.59l7,83h9.73c-2.95-17.11-6.5-38.72-7.47-49.08-1.73-18.59,3.7-29.22,3.72-29.24A18.31,18.31,0,0,0,103.66,171.53Z"/><path class="cls-1" d="M19.61,256.66c1.48-6.67,2.9-13.34,4.35-20q2.26-10.41,4.54-20.84,2-9,4-18.05c.85-3.8,1.68-7.6,2.61-11.38C38.4,172.82,50,171.49,50,171.49s-2.82,54.39-4.59,88.59H18.83C19.1,258.92,19.36,257.77,19.61,256.66Z"/><path class="cls-2" d="M49.65,171.53v5.59l-7,83H33c3-17.11,6.51-38.72,7.48-49.08,1.72-18.59-3.7-29.22-3.72-29.24A18.31,18.31,0,0,1,49.65,171.53Z"/><path class="cls-3" d="M48.28,165.71,78,226.57l28.43-61.3S79.82,151.94,48.28,165.71Z"/><path class="cls-1" d="M56.28,168.38H46.06L38,260.08h77l-8.1-91.7H96.7A179.65,179.65,0,0,1,76,210.24,157,157,0,0,1,56.28,168.38Z"/><path class="cls-4" d="M47.1,243.15a158,158,0,0,0-1.46,16.93h1.84c.38-4.59.8-9.7,1.25-15.3,18.5-21.77,29-36.37,32.42-42.5C81.15,202.28,54.2,236,47.1,243.15Z"/><path class="cls-4" d="M82,200.8c6.11.36,17,.83,22,0-1.38-4.36-7.2-19.05-9.75-25.42A186.93,186.93,0,0,1,82,200.8Z"/><path class="cls-4" d="M75.63,209.62c-2.35-3.52-4.47-7.05-6.36-10.47A163.25,163.25,0,0,1,57.9,173.51c-1.87,4.65-9,22.42-10.51,27.29,4.79.8,15.07.39,21.28,0l5,10.74Z"/><path class="cls-5" d="M61.9,247.89a4.74,4.74,0,1,1-4.74-4.74A4.74,4.74,0,0,1,61.9,247.89Z"/><path class="cls-4" d="M57.16,243.15a4.62,4.62,0,0,0-1.4.24,5.38,5.38,0,0,1,3.43,8.76,4.73,4.73,0,0,0-2-9Z"/><path class="cls-6" d="M90.91,164c0,10.95-6.44,19.81-14.39,19.81S62.13,174.91,62.13,164s6.44-19.8,14.39-19.8S90.91,153,90.91,164Z"/><path class="cls-7" d="M153.58,75.79c0,13.07-34.38,23.67-76.79,23.67S0,88.86,0,75.79,34.38,52.12,76.79,52.12,153.58,62.72,153.58,75.79Z"/><path class="cls-8" d="M149.22,80c0,10.73-32.43,19.43-72.43,19.43S4.35,90.76,4.35,80,36.79,60.59,76.79,60.59,149.22,69.3,149.22,80Z"/><path class="cls-9" d="M140.91,132.35c3.55-8.7,6.93-18.28,6.93-28.33,0-40.2-31.39-72.79-70.13-72.79S7.59,63.82,7.59,104a74.87,74.87,0,0,0,5.51,28.33Z"/><path class="cls-9" d="M138.67,137.56l-.25.34S138.52,137.78,138.67,137.56Z"/><path class="cls-10" d="M123.3,125.64s4.56-7.56,9.53-9.34,11.11.36,10.77,8.19-11.6,29.9-20.38,25.09C123.22,137,123.3,125.64,123.3,125.64Z"/><path class="cls-6" d="M135.92,123.78s-6,3.79-6.18,9.49,4,5.46,4.42,2.61a4.46,4.46,0,0,0-1.55-4.27A11.54,11.54,0,0,1,135.92,123.78Z"/><path class="cls-10" d="M29.72,125.64s-4.56-7.56-9.53-9.34-11.11.36-10.77,8.19S21,154.39,29.8,149.58C29.8,137,29.72,125.64,29.72,125.64Z"/><path class="cls-6" d="M17.1,123.78s6,3.79,6.18,9.49-4,5.46-4.42,2.61a4.46,4.46,0,0,1,1.55-4.27A11.54,11.54,0,0,0,17.1,123.78Z"/><path class="cls-10" d="M26.16,106.12v42c0,8.07,15.8,24.63,41.21,26.85s59.78-5.7,59.78-30.47V81.35S109.17,92,98.24,98.59L100,78.68,48.2,102.48,57,82.08Z"/><path class="cls-1" d="M61.1,151.56H91.26S92.92,166.15,77,167.4C64.41,168.11,61.26,157.25,61.1,151.56Z"/><path class="cls-11" d="M77,167.4c5.29-.42,8.63-2.31,10.74-4.65a14.23,14.23,0,0,0-23-.43C67.13,165.43,71,167.74,77,167.4Z"/><path class="cls-9" d="M59.58,127.89c0,4.46-3.95,8.08-8.83,8.08s-8.82-3.62-8.82-8.08,4-8.09,8.82-8.09S59.58,123.42,59.58,127.89Z"/><path class="cls-12" d="M55.7,125.64A2.72,2.72,0,1,1,53,123.16,2.6,2.6,0,0,1,55.7,125.64Z"/><path class="cls-9" d="M110.05,127.89c0,4.46-4,8.08-8.83,8.08s-8.83-3.62-8.83-8.08,4-8.09,8.83-8.09S110.05,123.42,110.05,127.89Z"/><path class="cls-12" d="M106.16,125.64a2.72,2.72,0,1,1-2.71-2.48A2.6,2.6,0,0,1,106.16,125.64Z"/><path class="cls-13" d="M70.08,141.15a1.07,1.07,0,0,1-.74-1.29h0a10.84,10.84,0,0,1,1.26-3.06h0a5.59,5.59,0,0,1,5.17-3h.16a6.9,6.9,0,0,1,5,2.83h0a8.08,8.08,0,0,1,1.26,2.5h0a1.08,1.08,0,0,1-.69,1.31h0a1,1,0,0,1-1.23-.74h0a.4.4,0,0,0,0-.1h0c0-.09-.08-.23-.15-.39h0a5.93,5.93,0,0,0-.71-1.24h0a4.94,4.94,0,0,0-3.62-2h-.1a3.39,3.39,0,0,0-3.08,1.59h0a8.3,8.3,0,0,0-1.23,2.61h0c0,.13,0,.18,0,.18h0a1,1,0,0,1-1,.82h0l-.16,0Z"/><path class="cls-11" d="M146.24,73.32C139.44-.35,90.71-7.48,49.34,4.89,12.9,15.79,7,60.58,6,74,18.22,64.55,45.23,58,76.61,58,107.19,58,133.64,64.23,146.24,73.32Z"/><path class="cls-7" d="M7.17,65.8A81.46,81.46,0,0,0,6,74c12.19-7.92,39.2-13.43,70.58-13.43,30.58,0,57,5.24,69.63,12.85q-.5-4.47-1.28-8.55c-12.79-7.59-38.52-12.77-68.17-12.77C46,52.12,19.39,57.72,7.17,65.8Z"/><polygon class="cls-6" points="99.95 78.68 48.2 102.48 99.46 84.33 99.95 78.68"/><path class="cls-6" d="M127.15,86.37v-5S109.17,92,98.24,98.59Z"/><polygon class="cls-6" points="52.86 91.62 56.95 82.08 26.45 105.89 52.86 91.62"/><polygon class="cls-9" points="61.13 116 37.14 114.33 40.65 109.44 61.49 110.89 61.13 116"/><polygon class="cls-9" points="91.12 116 115.11 114.33 111.61 109.44 90.76 110.89 91.12 116"/></g></g></svg>