<svg xmlns="http://www.w3.org/2000/svg" viewBox="0 0 183.73 260.05"><defs><style>.cls-1{fill:#f9dab4;}.cls-2{fill:#ffbc36;}.cls-3{fill:#e59d29;}.cls-4{fill:#f2ac30;}.cls-5{fill:#c47e18;}.cls-6{fill:#e0605c;}.cls-7{fill:#d15656;}.cls-8{fill:#eac3a7;}.cls-9{fill:#ddb394;}.cls-10{fill:#2f3233;}.cls-11{fill:#44302c;}.cls-12{fill:#47413e;}.cls-13{fill:#f7cea6;}.cls-14{fill:#f9f7f2;}.cls-15{fill:#e5be9e;}.cls-16{fill:#2c2c2d;}</style></defs><title>资源 104</title><g id="图层_2" data-name="图层 2"><g id="Layer_1" data-name="Layer 1"><polygon class="cls-1" points="157.65 260.05 132.66 260.05 131.28 246.85 156 244.26 157.65 260.05"/><polygon class="cls-1" points="24.17 260.05 49.16 260.05 50.54 246.85 25.83 244.26 24.17 260.05"/><path class="cls-2" d="M56.22,152.16s-13.7-1.46-18.21,17-15.3,72.25-15.3,72.25,27.1,5.13,38.46,3.09C61.17,200.26,56.22,152.16,56.22,152.16Z"/><path class="cls-3" d="M38.7,166.77c2,3.71,5.86,13.59,5,33.45-.94,21.28-1.37,31.21-1.89,43,7.94,1.24,15.86,2,20.33,1.22,0-44.28-5.91-92.24-5.91-92.24S43.77,150.84,38.7,166.77Z"/><path class="cls-4" d="M57.67,236.06s-17.55-1.49-24.76-3.79-14.27-1.85-14.27,1.46-3,6.5,2,8.44c-4.67,4.67-2.34,9.62-2.34,9.62H56.22A70,70,0,0,0,57.67,236.06Z"/><path class="cls-3" d="M50.39,239.55s-10.49-3.2-16.6-3.2,3.05,4.22.58,6.7-9.62,2.47-11.66,2.47-2,3.65-2,3.65,20.39-2.63,30.59,0C55.34,240.43,50.39,239.55,50.39,239.55Z"/><path class="cls-2" d="M125.81,152.16s13.69-1.46,18.21,17,15.29,72.25,15.29,72.25-27.09,5.13-38.45,3.09C120.86,200.26,125.81,152.16,125.81,152.16Z"/><path class="cls-3" d="M143.33,166.77c-2,3.71-5.87,13.59-5,33.45.93,21.28,1.37,31.21,1.89,43-7.95,1.24-15.86,2-20.34,1.22,0-44.28,5.92-92.24,5.92-92.24S138.26,150.84,143.33,166.77Z"/><path class="cls-4" d="M124.35,236.06s17.55-1.49,24.76-3.79,14.28-1.85,14.28,1.46,3,6.5-2,8.44c4.66,4.67,2.33,9.62,2.33,9.62H125.81A70.38,70.38,0,0,1,124.35,236.06Z"/><path class="cls-3" d="M131.63,239.55s10.49-3.2,16.61-3.2-3.06,4.22-.58,6.7,9.61,2.47,11.65,2.47,2,3.65,2,3.65-20.39-2.63-30.59,0C126.68,240.43,131.63,239.55,131.63,239.55Z"/><polygon class="cls-2" points="56.8 146.91 48.12 154.11 48.2 260.05 133.71 260.05 133.71 154 123.51 146.62 56.8 146.91"/><rect class="cls-5" x="48.2" y="210.71" width="20.54" height="17.48"/><rect class="cls-5" x="48.2" y="234.6" width="24.04" height="17.48"/><rect class="cls-5" x="113.77" y="210.71" width="19.94" height="17.48"/><rect class="cls-5" x="109.39" y="234.6" width="24.32" height="17.48"/><path class="cls-3" d="M48.25,148.76s7.16,17.31,19.62,29.76l14.86,14.86s3.06,3.71,14.42-3.17,27-27.54,27.14-35.57v-9.77Z"/><path class="cls-6" d="M49.51,147.93s9.07,16.5,13.33,20.76S80.21,185,83.16,187.92s2.63,5.24,11.47.32,13.66-13.87,19.12-19.33,12.9-17.48,11.58-23.6C103.92,145.31,48.42,137,49.51,147.93Z"/><path class="cls-7" d="M75.78,159.89s5.57,11.22,9,13.73c4.1,3,1.66-2.67-.08-4.88-2-2.49-7.18-10.14-9.29-10.16A2.94,2.94,0,0,0,75.78,159.89Z"/><path class="cls-7" d="M97.39,166.37c-.63,2.28-1.39,6.68.71,6,1.75-.59,1.9-6.78,3-9s2.69-6.17,4.45-6.18-.88-6.09-3.67-.57a76.34,76.34,0,0,0-4,8.21C97.73,165.24,97.55,165.79,97.39,166.37Z"/><path class="cls-7" d="M71.57,167.16c-1-2.52-2.21-6.81-2.9-7.29,4.57,3.2,16.26,24.31,23.67,16.9,1.33-1.33,16.21-15.69,14.13-17.25,6.49,4.87-10.17,16.57-12.82,19.22-4.69,4.69-11.5-.28-15.32-3.59a37.83,37.83,0,0,1-6-6.56A7.39,7.39,0,0,1,71.57,167.16Z"/><path class="cls-7" d="M56.72,147.93s2.3,7.1,4.16,9,4.42,2,3.77-.06-2,1.15-6.18-7.59S56.72,147.93,56.72,147.93Z"/><path class="cls-7" d="M107.2,144.39v6.31s13.11,5.53,7.86,10.78-10.43,19-14.69,19-6,13.66-16.94,2.71c-7.14-7.13-14.49-11.22-18-11.91,5.55,5.3,15.22,14.2,17.7,16.69,3,3,2.63,5.24,11.47.32s13.66-13.87,19.12-19.33,12.9-17.48,11.58-23.6C120.62,145.31,114.25,144.91,107.2,144.39Z"/><path class="cls-7" d="M49.51,147.93s3.28,5.95,6.81,11.63c.59-8.84,13.19-5.73,25.31-5.73,14,0,16.39-3.13,16.39-3.13l5.12-6.6C78.75,142.28,48.71,139.86,49.51,147.93Z"/><path class="cls-8" d="M62.42,150.62s10,4.57,12.43,7.09,9.18,12.13,16,9.73,18.25-16.64,31.73-16.58C127.4,150.89,62.42,150.62,62.42,150.62Z"/><path class="cls-9" d="M89.75,162.71c-8.56,0-14.55-11.85-14.55-11.85l-.9-.19-10.55,0,.26.74c2.92,1.4,9,4.45,10.84,6.34,2.44,2.52,9.18,12.13,16,9.73,2.41-.84,5.38-3.15,8.8-5.78A48.49,48.49,0,0,1,89.75,162.71Z"/><path class="cls-10" d="M14.31,99.73H174.66s4.65-29.75,4.65-50.66c0-11.62-9.76-7.9-9.76-7.9s2.79-22.78,2.79-30.21-6-13-30.68-10.23S64.51,3.52,42.2,3.52,7.81,5.84,9.43,22.81s1.63,19.52-.93,19.52S4.09,47.21,5,61.62,6.52,95.51,14.31,99.73Z"/><path class="cls-1" d="M159.31,153.73l-.24.21c-2.1,1.54-8.33.32-10.81.32H48.5c-8,0-16.51.79-24.5-.06-1-.11-1.51-39.37-1.64-43.09q-.88-24.61-1.78-49.23c-.07-1.87-.12-3.74-.18-5.6-.16-4.73,3.86-4.7,7.28-5,4.14-.31,34.54.32,46.3.17,13.08-.16,26.18-.28,39.25-.15,11.06.11,22.13.18,33.19.09,3.26,0,6.52-.11,9.78-.13,1.72,0,3.38,0,4.81,1.37,1.88,1.78,1.59,5.6,1.46,7.8-.46,7.67-.35,15.4-.58,23.08-.55,17.93-.43,36-1.52,53.87-.24,3.87.41,7.72-.07,11.59C160.13,150.45,160.35,152.66,159.31,153.73Z"/><polygon class="cls-11" points="58.93 68.13 60.03 74.01 30.01 79.38 31.8 71.52 58.93 68.13"/><polygon class="cls-11" points="127.85 68.13 126.75 74.01 156.77 79.38 154.97 71.52 127.85 68.13"/><path class="cls-12" d="M32,90.18a23.36,23.36,0,0,0,3.39,4.47,17.48,17.48,0,0,0,4,3.13,10.93,10.93,0,0,0,5.36,1.48A11.19,11.19,0,0,0,51,97.2a24.89,24.89,0,0,0,6.48-6.92,1.4,1.4,0,0,0-2.32-1.55,22.06,22.06,0,0,1-5.71,6.15,8.4,8.4,0,0,1-4.73,1.59,8.11,8.11,0,0,1-4-1.13,16.51,16.51,0,0,1-4.57-4.06c-.55-.69-1-1.32-1.27-1.76L34.53,89l-.08-.14v0h0L34.1,89l.33-.18h0L34.1,89l.33-.18A1.39,1.39,0,0,0,32,90.18Z"/><path class="cls-12" d="M126.66,90.18a23.36,23.36,0,0,0,3.39,4.47A17.48,17.48,0,0,0,134,97.78a10.93,10.93,0,0,0,5.36,1.48,11.19,11.19,0,0,0,6.28-2.06,24.89,24.89,0,0,0,6.48-6.92,1.4,1.4,0,0,0-2.32-1.55,22.06,22.06,0,0,1-5.71,6.15,8.4,8.4,0,0,1-4.73,1.59,8.11,8.11,0,0,1-4-1.13,16.51,16.51,0,0,1-4.57-4.06c-.55-.69-1-1.32-1.27-1.76l-.33-.52-.08-.14v0h0l-.33.18.33-.18h0l-.33.18.33-.18a1.39,1.39,0,0,0-2.43,1.35Z"/><path class="cls-12" d="M85,145a81,81,0,0,1-23.15-5.42A1.44,1.44,0,1,1,63,136.92c.3.13,30.34,13.1,56.88-1.33a1.44,1.44,0,1,1,1.37,2.53C108.8,144.87,95.69,145.9,85,145Z"/><path class="cls-12" d="M129.24,139.27l-.19,0a1.26,1.26,0,0,1-1.26-1.23c0-1.94-.53-3.29-1.54-4-1.84-1.35-4.89-.43-4.93-.43a1.24,1.24,0,0,1-.74-2.36c.18-.06,4.26-1.3,7.13.78,1.67,1.22,2.54,3.24,2.56,6A1.24,1.24,0,0,1,129.24,139.27Z"/><path class="cls-13" d="M85.84,90.45c-2.19,4.44-3.1,9.21-4.68,13.82s-6,9.84-4,15c1.81,4.6,7.21,6.31,12.3,6.56,13.77.68,20-4.32,16.18-16.47C104,104,94.35,73.21,85.84,90.45Z"/><path class="cls-1" d="M87.14,89c-1.86,4-2.65,8.27-4,12.41s-5,8.86-3.42,13.43c1.45,4.1,5.88,5.59,10.07,5.78,11.34.5,16.54-4,13.51-14.88C102,101,94.32,73.47,87.14,89Z"/><path class="cls-14" d="M89.08,119.45c.15.64,1.67.92,3.4.61s3-1.06,2.88-1.7-1.67-.91-3.4-.61S88.93,118.82,89.08,119.45Z"/><path class="cls-1" d="M25.93,88.35s-11.73-10.57-22.31,0,3.55,30.44,22.31,19.28Z"/><path class="cls-15" d="M19,103S20,90.67,14,90.67,6.15,103,19,103Z"/><path class="cls-13" d="M14,90.67a4.38,4.38,0,0,0-3.83,2.4c2.75,2.38,6.94,6.32,8.77,9.69C19.07,101.1,19.49,90.67,14,90.67Z"/><path class="cls-1" d="M157.79,88.35s11.74-10.57,22.31,0-3.54,30.44-22.31,19.28Z"/><path class="cls-15" d="M164.77,103s-1-12.31,4.92-12.31S177.58,103,164.77,103Z"/><path class="cls-13" d="M169.69,90.67a4.4,4.4,0,0,1,3.84,2.4c-2.76,2.38-6.94,6.32-8.78,9.69C164.65,101.1,164.23,90.67,169.69,90.67Z"/><path class="cls-16" d="M146.42,37.36s14.66-20.6,7.33-34.3c0,0,14.95-.43,11.14,21.31S161.25,47.8,152.7,47.8,138,47.77,146.42,37.36Z"/><path class="cls-16" d="M24.23,34.2c-1.78-4.87-2-9.91-2.55-11.8-.3-1,1.07-13.86,3.45-13.8,0,0-13.25,2.3-10.6,16.77s2.54,20,8.51,20C29.52,45.36,26.31,39.89,24.23,34.2Z"/><path class="cls-16" d="M36.62,22.58S22.68,8.63,50.57,8.63s69.71,5.58,86.45,0,11.15,23.24-13.48,23.24S70.09,19.78,36.62,22.58Z"/><path class="cls-13" d="M160.37,137.42c.57-9.31.8-18.66,1-28-4.75,4.76-1,32.05-6.67,37.73s-86.45,2.32-109.17,3.2c-20,.77-22.81-32.75-23.21-40.93l.06,1.7c.13,3.72.61,43,1.64,43.09,8,.85,16.46.06,24.5.06h99.76c2.48,0,8.71,1.22,10.81-.32l.24-.21c1-1.07.82-3.28,1-4.72C160.78,145.14,160.13,141.29,160.37,137.42Z"/></g></g></svg>