<?xml version="1.0" standalone="no"?><!DOCTYPE svg PUBLIC "-//W3C//DTD SVG 1.1//EN" "http://www.w3.org/Graphics/SVG/1.1/DTD/svg11.dtd"><svg t="1549081297113" class="icon" style="" viewBox="0 0 1024 1024" version="1.1" xmlns="http://www.w3.org/2000/svg" p-id="27467" xmlns:xlink="http://www.w3.org/1999/xlink" width="200" height="200"><defs><style type="text/css"></style></defs><path d="M942.08 204.8h-81.92v-122.88c0-45.056-36.864-81.92-81.92-81.92h-696.32c-45.056 0-81.92 36.864-81.92 81.92v491.52c0 45.056 36.864 81.92 81.92 81.92h81.92v163.84c0 45.056 36.864 81.92 81.92 81.92h389.12l159.744 110.592c36.864 24.576 65.536 8.192 65.536-36.864v-73.728h81.92c45.056 0 81.92-36.864 81.92-81.92v-532.48c0-45.056-36.864-81.92-81.92-81.92z m-778.24 81.92v286.72h-81.92v-491.52h696.32v122.88h-532.48c-45.056 0-81.92 36.864-81.92 81.92z m225.28 327.68c-32.768 0-61.44-28.672-61.44-61.44s28.672-61.44 61.44-61.44 61.44 28.672 61.44 61.44-28.672 61.44-61.44 61.44z m204.8 0c-32.768 0-61.44-28.672-61.44-61.44s28.672-61.44 61.44-61.44 61.44 28.672 61.44 61.44-28.672 61.44-61.44 61.44z m204.8 0c-32.768 0-61.44-28.672-61.44-61.44s28.672-61.44 61.44-61.44 61.44 28.672 61.44 61.44-28.672 61.44-61.44 61.44z" fill="#3195F3" p-id="27468"></path></svg>