<svg xmlns="http://www.w3.org/2000/svg" viewBox="0 0 184.6 260"><defs><style>.cls-1{fill:#3b3d3d;}.cls-2{fill:#1f6e89;}.cls-3{fill:#0c4666;}.cls-4{fill:#2c7d93;}.cls-5{fill:#f9dab4;}.cls-6{fill:#fff;}.cls-7{fill:#f7cea6;}.cls-8{fill:#f9f7f2;}.cls-9{fill:#e5be9e;}.cls-10{fill:#2c3030;}.cls-11{fill:#f4c7a2;}</style></defs><title>资源 43</title><g id="图层_2" data-name="图层 2"><g id="Layer_1" data-name="Layer 1"><path class="cls-1" d="M170.49,160.56a680.18,680.18,0,0,1-79,4.38c-45.22,0-76.63-4.38-76.63-4.38,2.24-20.2,1.65-30.47.79-49.18h154C169,129.19,168.49,142.67,170.49,160.56Z"/><path class="cls-2" d="M153.46,202.08c3.48,22.22,7.8,46.68,9.82,57.92H139.39c-1.88-22.49-33.87-85.57-3.54-85.52C135.85,174.48,148.74,172,153.46,202.08Z"/><path class="cls-3" d="M149.45,260H139.39c-1.88-22.49-33.87-85.57-3.54-85.52,0,0,7.31-1.38,12.94,10.77-2,1.59-6.13,6.47-5,19.08C144.92,216.18,147.88,244.88,149.45,260Z"/><path class="cls-2" d="M33,202.08c-3.48,22.22-7.81,46.68-9.82,57.92H47.06c1.88-22.49,33.87-85.57,3.54-85.52C50.6,174.48,37.71,172,33,202.08Z"/><path class="cls-3" d="M37,260H47.06c1.88-22.49,33.87-85.57,3.54-85.52,0,0-7.31-1.38-12.93,10.77,2,1.59,6.13,6.47,5,19.08C41.54,216.18,38.58,244.88,37,260Z"/><path class="cls-2" d="M71.87,169.47s-8.07-2.24-13,2.8c-4.79,4.87-11,47.79-17.33,87.73H145.34c-2.41-19.54-9.67-60.8-12.48-73.09a22.63,22.63,0,0,0-16.41-17.44Z"/><path class="cls-4" d="M64.59,153.49S51.66,150,49.17,157.22s10,8.39,10,8.39-10.77-1.35-8.72,5.84,12,15,39,12.12,52.11-.43,37.95-9.65c8.47,0,11-6.51,9.75-10.11s-3.85-10.38-15.39-6.57S83.81,160.62,64.59,153.49Z"/><path class="cls-3" d="M113.88,166.92c12.19-1.77,17.43-5.8,19.68-8.94-2.22-1.83-5.8-2.73-11.82-.74-11.54,3.82-37.93,3.38-57.15-3.75,0,0-10.94.2-12.49.37C55.45,160.08,77,173.56,113.88,166.92Z"/><path class="cls-3" d="M127.38,173.92l.32,0c-7.29-2-15.86-1.75-21.4-1.58,10.71.15,20.8,4.45,25,6.47C131.92,177.69,130.81,176.15,127.38,173.92Zm-53.8-3.52a47.67,47.67,0,0,1-14.79-4.83c-1.43-.12-6.41-.33-8.06,2.24,16.5,8.52,38.24,5.52,52.46,4.58h-.25C97.47,172.39,89.75,173.14,73.58,170.4Zm32.72,1.92c-1,0-2,0-3.08.07C104.08,172.39,105.12,172.36,106.3,172.32Z"/><path class="cls-3" d="M78.52,197.34c0-.16,0-.32,0-.49a51.64,51.64,0,0,1,1.54-11.47c.77-3.24,1.53-5.44,1.53-5.44a.64.64,0,0,0-.39-.81.64.64,0,0,0-.81.39h0s-3.13,9-3.14,17.33c0,.2,0,.4,0,.6a5.41,5.41,0,0,0-4.11,5.35,5.2,5.2,0,1,0,5.37-5.46Z"/><path class="cls-3" d="M115.66,194.43c0-.15,0-.31-.07-.47a50.56,50.56,0,0,0-3.4-10.72c-1.28-3-2.38-4.94-2.38-4.94a.62.62,0,1,1,1.08-.6h0s4.51,8.09,5.91,16.05c0,.19,0,.38.09.58a5.25,5.25,0,0,1,4.82,4.43,5,5,0,1,1-6-4.33Z"/><path class="cls-5" d="M143.22,38.33c-16.91-6.94-83.08-4.78-91.1-2.3C11.93,46.86,22.66,98.09,22,107.51,20,139.05,53.39,165,92.52,165.21s71-25.17,71.22-56.79C163.74,108.42,171.59,51.55,143.22,38.33Z"/><path class="cls-1" d="M117.45,86.9s4.44-2,12-1.63c7.31.33,13.4,3.64,13.71,2.07.56-2.8-3.32-7.64-9.36-9.85-5.69-2.07-10.76-.3-14.65,2.58S113.55,88,117.45,86.9Z"/><path class="cls-1" d="M69,86.9s-4.44-2-12-1.63c-7.31.33-13.41,3.64-13.72,2.07-.56-2.8,3.32-7.64,9.37-9.85,5.68-2.07,10.75-.3,14.64,2.58S72.9,88,69,86.9Z"/><path class="cls-1" d="M139,100.88a11.43,11.43,0,1,1-15.85-3.19A11.44,11.44,0,0,1,139,100.88Z"/><path class="cls-6" d="M131.21,98.2c1.14,1.71-.35,4.69-3.32,6.66s-6.29,2.19-7.43.49.36-4.69,3.32-6.67S130.08,96.5,131.21,98.2Z"/><path class="cls-1" d="M66.65,98.26A11.43,11.43,0,1,1,50.8,95.07,11.44,11.44,0,0,1,66.65,98.26Z"/><path class="cls-6" d="M58.89,95.59c1.13,1.7-.35,4.68-3.32,6.66s-6.29,2.19-7.43.48.35-4.69,3.32-6.66S57.76,93.88,58.89,95.59Z"/><path class="cls-7" d="M86.09,126.51v0a30,30,0,0,1,2.11-2.78,19.2,19.2,0,0,1,1.94-2,7.21,7.21,0,0,1,2-1.29,2.08,2.08,0,0,1,.75-.13,3.89,3.89,0,0,1,1.81.56,11.57,11.57,0,0,1,3,2.61,16.92,16.92,0,0,1,2.21,3.32,1,1,0,1,0,1.73-.86,19.16,19.16,0,0,0-3.53-4.88,11.81,11.81,0,0,0-2.42-1.87,5.68,5.68,0,0,0-2.75-.82,4.17,4.17,0,0,0-1.46.26,9.34,9.34,0,0,0-2.65,1.7,24.4,24.4,0,0,0-3.08,3.35c-.78,1-1.26,1.77-1.27,1.79a1,1,0,0,0,1.63,1.05Z"/><path class="cls-8" d="M49.07,126.85a1.29,1.29,0,0,1-1.32,1.23l-4.32-.17a1.26,1.26,0,0,1-1.23-1.32h0a1.28,1.28,0,0,1,1.32-1.24l4.32.16a1.29,1.29,0,0,1,1.23,1.34Z"/><path class="cls-8" d="M142,127.45a1.27,1.27,0,0,1-1.32,1.22l-4.32-.16a1.27,1.27,0,0,1-1.23-1.32h0a1.29,1.29,0,0,1,1.33-1.24l4.31.16a1.28,1.28,0,0,1,1.23,1.34Z"/><path class="cls-5" d="M154.68,128.78a23.53,23.53,0,0,0,19.77-.26c10.38-5.07,15.49-25.9,2.05-30.89s-17.58,10.47-17.58,10.47Z"/><path class="cls-7" d="M160.94,122.44s4.27-22.82,14.24-14.93c6.13,4.84,2.5,11.6-3.19,14.37C168.42,123.62,163.78,123.78,160.94,122.44Z"/><path class="cls-9" d="M161.06,122.18l1.48-5.75s19-5.41,13.65,2.2S161.06,122.18,161.06,122.18Z"/><path class="cls-5" d="M29.68,127.47A23.49,23.49,0,0,1,9.92,127C-.39,121.75-5.24,100.85,8.27,96s17.45,10.7,17.45,10.7Z"/><path class="cls-7" d="M23.51,121.05s-4-22.87-14-15.12c-6.19,4.76-2.65,11.58,3,14.42C16,122.13,20.65,122.35,23.51,121.05Z"/><path class="cls-9" d="M23.39,120.79,22,115s-18.9-5.66-13.67,2S23.39,120.79,23.39,120.79Z"/><path class="cls-1" d="M165.68,31.87C152.45,12.19,134.63,0,92.87,0S35.25,10.19,21.1,30.18c-6.89,9.73-8.33,25.65-8.33,39.73,0,17.22,1.66,25.27,1.66,25.27l8.46,5.52c.24-11.55,2.95-34.31,2.95-34.31,20,2.16,115.57,1.15,135.1.25,0,0,1.14,19.91,1.86,34.19l8.75-4.19S173,87.13,173,69.91C173,55.83,172.33,41.77,165.68,31.87Z"/><path class="cls-10" d="M55.61,67.51l3.66,0V38.07Z"/><path class="cls-10" d="M82.67,67.68h4L85.54,38.07Z"/><path class="cls-10" d="M115.85,67.52l4.41,0L118,41.91Z"/><path class="cls-10" d="M142.37,67.15l3.85-.08-1.73-23.39Z"/><path class="cls-10" d="M34,67l3.52.14L38.6,43.68Z"/><path class="cls-11" d="M92.93,149.67a63.77,63.77,0,0,1-21.65-3.88,1.38,1.38,0,0,1,1-2.55h0c.23.1,23.22,9.29,43.33-1.87a1.37,1.37,0,1,1,1.34,2.4A49.4,49.4,0,0,1,92.93,149.67Z"/></g></g></svg>