<svg xmlns="http://www.w3.org/2000/svg" viewBox="0 0 184.27 260.1"><defs><style>.cls-1{fill:#7f5732;}.cls-2{fill:#9e6f4c;}.cls-3{fill:#ad3936;}.cls-4{fill:#c65044;}.cls-5{fill:#f4d3b0;}.cls-6{fill:#f9dab4;}.cls-7{fill:#6d4c3a;}.cls-8{fill:#efc4a0;}.cls-9{fill:#492020;}.cls-10{fill:#3a332d;}.cls-11{fill:#e8dfd9;}</style></defs><title>资源 156</title><g id="图层_2" data-name="图层 2"><g id="Layer_1" data-name="Layer 1"><path class="cls-1" d="M55.53,183c-21.82-5.24-31.27,56.75-33.76,77.07h30c2.72-18.86,8-41.75,14.06-51.81C76.56,190.58,55.53,183,55.53,183Z"/><path class="cls-1" d="M128.59,183c21.82-5.24,31.27,56.75,33.76,77.07h-30c-2.73-18.86-8-41.75-14.07-51.81C107.57,190.58,128.59,183,128.59,183Z"/><path class="cls-2" d="M94.49,177.11H55.36s-15.62,75.58-8.41,83h90.37c7.21-7.41-8.41-83-8.41-83Z"/><path class="cls-3" d="M154.34,208c-6-14.54-10.81-32.06-16.78-32.8s-16.84,6.71-16.84,6.71,9.44,8.94,12.58,32c2.59,19,10.6,40.26,17.1,46.19h25.12C171.12,249.23,159.16,219.7,154.34,208Z"/><path class="cls-4" d="M132,166.53c6-10.11-12.3-13.9-12.3-13.9l-27.54,1.48L64.6,152.63s-18.26,3.79-12.3,13.9c0,0-14.53-2.19-6,14.21,5.25,10,21.24,10.81,45.79,10.81s40.55-.76,45.8-10.81C146.5,164.34,132,166.53,132,166.53Z"/><path class="cls-5" d="M33.12,110.29s-8.27-10.16-17.48-5.43,3.55,35.6,21.73,38.11Z"/><path class="cls-5" d="M151.15,110.29s8.27-10.16,17.48-5.43-3.54,35.6-21.73,38.11Z"/><path class="cls-6" d="M30,62.09v65.14a32.3,32.3,0,0,0,12,25.32s19.44,14.48,50.14,14,50.12-14,50.12-14a32.28,32.28,0,0,0,12-25.32V62.09Z"/><path class="cls-7" d="M136.63,96.14l.51,4.44c-.14,0-14.18,1.7-22.3,8.45L112,105.59C121.15,98,136,96.21,136.63,96.14Z"/><path class="cls-7" d="M47.63,96.14l-.5,4.44c.14,0,14.18,1.7,22.3,8.45l2.86-3.44C63.13,98,48.26,96.21,47.63,96.14Z"/><path class="cls-8" d="M112.63,131.74a11.57,11.57,0,0,0-3.85-5,12.54,12.54,0,0,1,3.07,5.15,2.55,2.55,0,0,1-.62,2.42,5.32,5.32,0,0,1-2.44,1.22,8.63,8.63,0,0,1-5.56-.17,6.22,6.22,0,0,1-3.38-3.86L99,128.78l-1.15,2.69a10.45,10.45,0,0,1-2.5,3.61,5.48,5.48,0,0,1-3.76,1.49,3.86,3.86,0,0,1-3.29-1.77,10.12,10.12,0,0,1-1.59-4.07L86,126.5l-1.28,4.05A8.41,8.41,0,0,1,81.59,135a5.68,5.68,0,0,1-5.29.27c-1.81-.69-3.61-1.85-4-3.75s.69-3.94,1.92-5.57a7.59,7.59,0,0,0-2.72,5.67A4.79,4.79,0,0,0,73,134.69a9.89,9.89,0,0,0,2.78,1.84,7.28,7.28,0,0,0,6.75,0,8.43,8.43,0,0,0,2.85-2.78,10.71,10.71,0,0,0,1.19,2.3,6.13,6.13,0,0,0,5.06,2.74,7.7,7.7,0,0,0,5.21-2.11,11.51,11.51,0,0,0,2.06-2.59,7.45,7.45,0,0,0,3.68,3,10.19,10.19,0,0,0,6.6-.2,6.33,6.33,0,0,0,2.91-1.76A3.48,3.48,0,0,0,112.63,131.74Z"/><path class="cls-9" d="M67.48,143h49.31s.84,19-24.65,19.31S67.48,143,67.48,143Z"/><path class="cls-4" d="M78.1,159.66c3.44,1.64,8,2.69,14,2.62a32.92,32.92,0,0,0,14-2.86c-1.18-5-7-7.23-14-7.23S79.11,154.88,78.1,159.66Z"/><path class="cls-1" d="M53.29,223a62.74,62.74,0,0,1,18.18-11.89,53.23,53.23,0,0,1,21.43-4.6,45.76,45.76,0,0,1,21.25,5.37,57.2,57.2,0,0,1,9.12,6.08,65,65,0,0,1,7.71,7.67,70.68,70.68,0,0,0-17.59-12.21,48.85,48.85,0,0,0-20.5-4.68,58,58,0,0,0-20.77,4,70.84,70.84,0,0,0-9.73,4.51A72.43,72.43,0,0,0,53.29,223Z"/><circle class="cls-10" cx="57.93" cy="116.3" r="6.88"/><path class="cls-11" d="M59.07,111.52c.17.83-.86,1.73-2.3,2s-2.73-.15-2.9-1,.86-1.74,2.3-2S58.9,110.68,59.07,111.52Z"/><path class="cls-10" d="M131.1,116.3a6.89,6.89,0,1,1-6.88-6.88A6.87,6.87,0,0,1,131.1,116.3Z"/><path class="cls-11" d="M125.35,111.52c.17.83-.85,1.73-2.29,2s-2.74-.15-2.91-1,.87-1.74,2.3-2S125.19,110.68,125.35,111.52Z"/><path class="cls-7" d="M183,77.29a26.83,26.83,0,0,0-9.87-13.85,19.37,19.37,0,0,0,2.7-4c5.37-10.76-.22-24.44-12.48-30.55a28.09,28.09,0,0,0-7.46-2.48A26,26,0,0,0,142.1,10c-9.39-4.68-19.95-3.54-26.8,2.08C109.61,4.5,99.32-.37,87.72,0,75.54.44,65.22,6.55,60.3,15.1c-7.78-4.46-18.54-3.71-27,2.68-7.6,5.74-11.35,14.49-10.5,22.52-.39,0-.78-.07-1.18-.07C10.9,40.23,2.24,50,2.24,62A23.11,23.11,0,0,0,8,77.49a19.33,19.33,0,0,0,4.59,33.76c.07-3,1-5.35,3.07-6.39,6.58-3.38,12.67.84,15.62,3.52a19.3,19.3,0,0,0,7.46-15.25s0,0,0-.06a18.3,18.3,0,0,0,25.6-12.78A18.32,18.32,0,0,0,94.19,78a18.31,18.31,0,0,0,29.48,6.1,18.34,18.34,0,0,0,18,14.61,18.88,18.88,0,0,0,3.79-.39c2.33,4.87,5.29,7.73,8.58,9.25,3.19-2.61,8.71-5.72,14.63-2.68a4.89,4.89,0,0,1,2.12,2.17C181.46,102.91,186.93,89.91,183,77.29Z"/></g></g></svg>