<svg xmlns="http://www.w3.org/2000/svg" viewBox="0 0 200.41 260.04"><defs><style>.cls-1{fill:#f9dab4;}.cls-2{fill:#eaeaea;}.cls-3{fill:#fff;}.cls-4{fill:#bababa;}.cls-5{fill:#dddad4;}.cls-6{fill:#309ab2;}.cls-7{fill:#207499;}.cls-8{fill:#1f6c87;}.cls-9{fill:#845635;}.cls-10{fill:none;}.cls-11{fill:#6b4627;}.cls-12{fill:#55371f;}.cls-13{fill:#f7cea6;}.cls-14{fill:#e5be9e;}.cls-15{fill:#472b18;}.cls-16{fill:#f9f7f2;}</style></defs><title>资源 210</title><g id="图层_2" data-name="图层 2"><g id="Layer_1" data-name="Layer 1"><path class="cls-1" d="M132.18,253.37a45.3,45.3,0,0,0,3.2,6.67h7.67c2.62-6.66,19.33-21,19.33-21l-23.87-19.86C133,224.57,127.22,240.38,132.18,253.37Z"/><path class="cls-2" d="M131.61,150s53.32,42.45,61.73,50.67S161.16,242,161.16,242L135,219.37l14.25-16.27L111,171.93Z"/><path class="cls-3" d="M150.83,200.63s-11-7-15.61-15.26c-12.27-22,13.21-21.36,30.26-6.1s23.42,21.48,23.42,21.48-1.23,4.74,0,8.57c-3.07,9.19-22.7,27.46-28.22,25.82s-20.29-10.26-20.29-16.08,7.8-13.73,11.76-13.73,12.37.46,14.53,2.58,3.43-.41.84-2.94S156.84,200.63,150.83,200.63Z"/><path class="cls-4" d="M162.72,240.65S142.19,227.07,136.23,218c-2.77-1.4-9.33,1.42-5.65,6.74,3.75,3.66,7.52,7.31,11.48,10.76a106.06,106.06,0,0,0,10.21,7.94c.9.61,1.81,1.19,2.76,1.71,1.49.83,4,2.74,5.66,1.41a7.71,7.71,0,0,0,2.53-4.15C163.28,241.93,163.18,241,162.72,240.65Z"/><path class="cls-2" d="M29.84,192c-8.91,13.37-18.66,23.29-9.4,40.59C24.63,240.39,30,250.89,34.59,260H77l.25-113-9.72-.82S38.74,178.61,29.84,192Z"/><path class="cls-3" d="M60.48,162.2c-2.22.11-19.27,17.05-29.07,33.07s-13.24,23.24-8.49,37.18c3.82,11.24,11.47,23.4,16.33,27.59H45.8a24.74,24.74,0,0,0,7.4-10.24c2.16-5.55-.79-28.18-5.54-28s-7.29,2.8-9.23,4.76-2.94-1.3-.25-4S46.78,218,50,217.8c-.13-2.1-10.1-2.39-14.08,1.64s-4.45,6.74-4.34,8.46-3.28,1.88-1.92-3.56,8.1-12.86,22.61-10.87C55.84,207,61,171.39,61,171.39S62.69,162.1,60.48,162.2Z"/><path class="cls-3" d="M144.21,260c-.53-5.49-8-80.55-18.44-106.76l-58.69.36S52,219,51.92,260Z"/><path class="cls-2" d="M69.61,153.62l-2.53,0S52,219,51.92,260h92.29c-.29-3-2.66-27-6.47-52.35a289.52,289.52,0,0,1,.3,30.76c-1.27,22.7-31.6,18.33-46.44,18.33S58,258.2,58,234c-.35-19.63,8.2-64,8.2-64Z"/><polygon class="cls-5" points="90.56 167.6 78.89 178.78 76.37 174.72 91.13 164.35 92.26 166.45 90.56 167.6"/><polygon class="cls-5" points="107.37 167.6 119.04 178.78 121.56 174.72 106.8 164.35 105.67 166.45 107.37 167.6"/><path class="cls-3" d="M77.17,176.53,99,159.17l-33-4.29ZM99,159.17l20.41,17.36L127,154.88Z"/><polygon class="cls-5" points="104.66 166.33 93.65 166.33 93.45 167.57 83.22 230.82 100.32 258.75 118.4 230.13 104.66 166.33"/><polygon class="cls-6" points="94.81 167.82 103.56 167.82 116.92 229.84 100.34 256.07 84.68 230.5 94.81 167.82"/><polygon class="cls-7" points="116.92 229.84 103.56 167.82 99.8 167.82 99.8 255.19 100.34 256.07 116.92 229.84"/><path class="cls-3" d="M105.72,177.83a36.33,36.33,0,0,1-3.07,3.59,37.65,37.65,0,0,1-11.33,8l-1.47,9.06a44.92,44.92,0,0,0,17.88-11.33Z"/><path class="cls-3" d="M112.38,208.75l-2.09-9.67a37.23,37.23,0,0,1-5.48,6.47,42.23,42.23,0,0,1-17.71,9.93L85.72,224a50,50,0,0,0,24.47-13C111,210.26,111.71,209.5,112.38,208.75Z"/><path class="cls-3" d="M115.23,222c-3.11,4-10.93,12.12-25.89,16.12l4.3,7a58.09,58.09,0,0,0,20.71-11.22l2.57-4.07Z"/><path class="cls-8" d="M91.87,160.36H107c.57,0,.24,8.3,0,9.14-1,4.43-5.37,4.34-8.57,4.3-2.22,0-5-.26-6.34-2.6C90.46,168.22,91.72,163.6,91.87,160.36Z"/><path class="cls-1" d="M137.9,57.09c-18.3-6.75-39.2-7.4-39.2-7.4a36.66,36.66,0,0,0-.9-5.8h0a91.41,91.41,0,0,0-27.45,5c2.85,18.57,5.87,36.67.83,38.23C65.89,88.76,63.54,86,59.56,76.2c-1.92,13.2-9.87,17.56-15,4.93-1.38,13.23-7,22.06-13.81,5.72.34,11.41-1,17.92-6.81,18.9,0,.48,0,1,0,1.46,1,33.74,35.66,60.08,77.41,58.84s74.78-29.6,73.78-63.33C175.19,102.72,168.68,70.1,137.9,57.09Z"/><path class="cls-9" d="M98.7,49.69s-20.06.89-31.7,6.7C64,35.8,63.35,23,76.58,21s24.29,10.52,25.62,28.93C100.31,49.77,98.7,49.69,98.7,49.69Z"/><path class="cls-10" d="M97.8,43.89c-1.3-5.61-4.43-13.84-11.92-18C73.86,19.12,67,27,70,46.41c.12.83.25,1.66.38,2.49a91.41,91.41,0,0,1,27.45-5Z"/><path class="cls-11" d="M176,37.94c-14-22.33-52.13-44.82-101.78-36C-17.37,20.06,7.51,105.26,7.51,105.26s8.74,2.1,10.44.29a18.9,18.9,0,0,0,1-7.26c2.24,6.89,5,7.46,5,7.46h0c5.8-1,7.15-7.49,6.81-18.9,6.78,16.34,12.43,7.51,13.81-5.72,5.09,12.63,13,8.27,15-4.93,4,9.78,6.33,12.56,11.6,10.93,5-1.56,2-19.66-.83-38.23-.13-.83-.26-1.66-.38-2.49C67,27,73.86,19.12,85.88,25.85c7.49,4.2,10.62,12.43,11.92,18a36.66,36.66,0,0,1,.9,5.8s20.9.65,39.2,7.4c30.78,13,37.29,45.63,37.29,45.63l8,0C187,92.72,190,60.26,176,37.94Z"/><path class="cls-12" d="M186.09,86.82c-3.71-.28-9.2.23-12,4.93-7.3-16.91-18-29.89-36.85-37.3s-33-7-33-7-2.83-15.57-16.65-23.73S66.76,25.14,67,34.58,74,80,70.17,84.64s-8.91-9.33-10.9-18.32a142.15,142.15,0,0,1-2.75-14.64c-.07-2.21-2.45-2.73-1,4.76s3.45,22.14.07,27.17-6.88,2-8.48-2-4.13-14.79-4.18-21.58-2.5-4.65-2.38-.37S42.71,74,42.88,79.55s-2.4,14-5.05,14-7-8.5-7.22-14.4.24-14.11-1.2-15.47-1.17,8-1.05,11.84.86,16.52-.38,19.66C23,93,10.74,86.66,5.51,95.3a79.94,79.94,0,0,0,2,10s8.74,2.1,10.44.29a18.9,18.9,0,0,0,1-7.26c2.24,6.89,5,7.46,5,7.46h0c5.8-1,7.15-7.49,6.81-18.9,6.78,16.34,12.43,7.51,13.81-5.72,5.09,12.63,13,8.27,15-4.93,4,9.78,6.33,12.56,11.6,10.93,5-1.56,2-19.66-.83-38.23-.13-.83-.26-1.66-.38-2.49C67,27,73.86,19.12,85.88,25.85c7.49,4.2,10.62,12.43,11.92,18a36.66,36.66,0,0,1,.9,5.8s20.9.65,39.2,7.4c30.78,13,37.29,45.63,37.29,45.63l8,0A63.11,63.11,0,0,0,186.09,86.82Z"/><path class="cls-1" d="M32.4,131a25.12,25.12,0,0,1-21.11.22C.1,126.1-5.88,104,8.34,98.34s19,10.74,19,10.74Z"/><path class="cls-13" d="M25.57,124.44S20.44,100.19,10,108.85c-6.42,5.32-2.37,12.45,3.77,15.26C17.61,125.88,22.57,125.93,25.57,124.44Z"/><path class="cls-14" d="M25.43,124.16l-1.73-6.1s-20.38-5.3-14.51,2.69S25.43,124.16,25.43,124.16Z"/><path class="cls-1" d="M169.19,127a25.11,25.11,0,0,0,21.08-1c10.87-5.82,15.53-28.24,1-33s-18.35,11.85-18.35,11.85Z"/><path class="cls-13" d="M175.62,120s3.67-24.51,14.62-16.49c6.73,4.93,3.11,12.29-2.85,15.46C183.65,121,178.7,121.29,175.62,120Z"/><path class="cls-14" d="M175.74,119.69l1.36-6.19s20-6.51,14.65,1.82S175.74,119.69,175.74,119.69Z"/><path class="cls-12" d="M78.24,27.26c0-.36,6.27,1.89,10.15,8.61,3.89,6.55,4.14,12.86,3.78,12.83s-1.26-5.91-5-12.12S78,27.64,78.24,27.26Z"/><path class="cls-12" d="M74.24,31.61c0-.48,5.57.78,9.08,6.25,3.58,5.17,4.55,10.23,4.2,10.29s-1.92-4.6-5.32-9.5C78.9,33.52,74.13,31.94,74.24,31.61Z"/><path class="cls-12" d="M74.05,38.71c.08-.36,3.1.69,4.84,3.93s1.54,6.14,1.17,6.12-.82-2.65-2.38-5.45S73.86,39.08,74.05,38.71Z"/><path class="cls-15" d="M126.07,86.24s4.5-2.5,12.51-1.41,15,2.06,14.94.88-4.66-7.83-10.71-10.09-10.11.23-14.15,3.45S122,87.53,126.07,86.24Z"/><path class="cls-15" d="M149.76,107.6a12.2,12.2,0,1,1-6.34-16A12.19,12.19,0,0,1,149.76,107.6Z"/><path class="cls-3" d="M147.66,99.1c-.87,2-4.41,2.41-7.9.89s-5.61-4.36-4.74-6.37,4.4-2.41,7.9-.89S148.53,97.09,147.66,99.1Z"/><path class="cls-15" d="M66.3,110.61a12.2,12.2,0,1,1-5.56-16.34A12.19,12.19,0,0,1,66.3,110.61Z"/><path class="cls-3" d="M64.61,102c-1,2-4.52,2.2-7.93.52s-5.4-4.63-4.44-6.6,4.52-2.19,7.93-.51S65.57,100.05,64.61,102Z"/><path class="cls-13" d="M91.9,119.55h0A28.94,28.94,0,0,1,94,116.49a18.12,18.12,0,0,1,2-2.19,7.6,7.6,0,0,1,2.09-1.46,2.21,2.21,0,0,1,.8-.17,4.1,4.1,0,0,1,2,.53,12.56,12.56,0,0,1,3.26,2.66,18,18,0,0,1,2.48,3.46,1,1,0,0,0,1.82-1,20,20,0,0,0-4-5.07,13,13,0,0,0-2.65-1.91,6.13,6.13,0,0,0-3-.76,4,4,0,0,0-1.55.34,9.63,9.63,0,0,0-2.76,1.91,25.24,25.24,0,0,0-3.16,3.69c-.79,1.12-1.28,1.94-1.29,2a1,1,0,1,0,1.78,1Z"/><path class="cls-14" d="M64.35,137.91a31.42,31.42,0,0,0,6.92,5.37,44.72,44.72,0,0,0,20.25,6.15c2.45.15,5,.2,7.61.12a73.31,73.31,0,0,0,24-4.5,36.06,36.06,0,0,0,9.62-5.45,20.17,20.17,0,0,0,6.11-8,1,1,0,1,0-1.92-.78,18.15,18.15,0,0,1-5.5,7.17c-3.75,3.07-8.86,5.37-14.53,6.93a76.58,76.58,0,0,1-17.83,2.55c-2.54.08-5,0-7.42-.11a42.63,42.63,0,0,1-19.31-5.86A35.91,35.91,0,0,1,67.47,138c-.54-.46-.94-.85-1.2-1.11l-.3-.3-.07-.07v0h0l-.26.23.26-.23h0l-.26.23.26-.23a1,1,0,1,0-1.54,1.38Z"/><path class="cls-13" d="M112.21,159.1c0,1.58-4,2.85-9,2.84s-9-1.28-9-2.86,4-2.84,9-2.83S112.21,157.53,112.21,159.1Z"/><path class="cls-16" d="M53.58,126.8a1.36,1.36,0,0,1-1.37,1.36H47.6a1.36,1.36,0,0,1-1.36-1.37h0a1.36,1.36,0,0,1,1.37-1.37h4.6a1.38,1.38,0,0,1,1.37,1.38Z"/><path class="cls-16" d="M152.73,123.85a1.37,1.37,0,0,1-1.37,1.37h-4.61a1.35,1.35,0,0,1-1.36-1.37h0a1.37,1.37,0,0,1,1.36-1.37h4.61a1.37,1.37,0,0,1,1.37,1.37Z"/></g></g></svg>