<?xml version="1.0" standalone="no"?><!DOCTYPE svg PUBLIC "-//W3C//DTD SVG 1.1//EN" "http://www.w3.org/Graphics/SVG/1.1/DTD/svg11.dtd"><svg t="1548836563655" class="icon" style="" viewBox="0 0 1024 1024" version="1.1" xmlns="http://www.w3.org/2000/svg" p-id="6917" xmlns:xlink="http://www.w3.org/1999/xlink" width="200" height="200"><defs><style type="text/css"></style></defs><path d="M221.28 180.64v-11.84c0-4.48 1.44-4.32 2.88-8.16l20.32-82.56 4.48-26.08h-39.52l-35.36 145.6-30.88 133.76-11.2 48.96-19.52 86.72h41.44l45.44-205.44 2.08-4.32c0-9.6 2.72-29.28 11.84-29.28h2.08l31.2-0.16 10.24-47.36H220.8l0.48 0.16z m-72-0.32l24.48-110.4H132.48l-0.96 6.24s-0.16 1.12-2.4 7.52l-2.24 9.76-41.6 184.16c-2.72 3.52-3.36 8.16-4.32 12.48-1.28 6.72-1.44 8.48-2.88 14.24-0.8 3.36-2.56 3.52-3.52 9.6-3.04 14.72-8.48 36.16-11.36 48.48-1.44 6.08-13.92 52.48-13.92 53.44v7.84H92.8l7.36-32.48 1.28-5.28L142.88 206.4c0-0.16 6.4-26.08 6.4-26.08z m477.12 87.84c20-8.8 17.44-3.36 28.8-20.48l0.96-7.36 4.16-30.4-4.16 0.96-22.56 5.44 17.6-77.28c1.92 0 3.52 0 5.12 0.16 17.92 0.96 26.72 4.64 29.12-11.36 1.44-10.72 4.8-25.28 7.52-36.16h-29.6L672 52.32h-15.68l-30.72-0.16-9.28 35.2-3.04 4c-7.84 0.32-43.68-1.92-47.36 2.08-1.12 0.96-9.44 33.12-9.44 37.76v7.84h45.28l-23.68 108.16c-6.72 6.4-17.28 16.48-22.08 15.68-6.4 9.44-26.24 2.4-29.44 18.08-1.76 7.84-7.68 33.28-7.68 39.68l45.28-12.16-16.64 75.36-49.92 58.08-20 23.36 2.08 1.76h51.68l59.2-67.2 17.28-70.72 2.88-6.08 0.96-9.12 2.08-11.36c-0.96-12.8 3.52-30.4 12.64-34.4z" fill="#015BC7" p-id="6918"></path><path d="M515.68 156.96c1.6-14.08 5.28-30.08-5.76-42.24-4.64-5.12-8.48-9.28-12.32-12.8-9.28-8.32-19.04-12.16-41.76-12.16l-32.64-0.16h-7.68l7.68-33.28 0.96-4.32h-45.12l-8.64 37.28-83.84 0.32c-6.72 13.28-12.32 34.08-12.32 39.52v5.92h82.72v7.84c0 5.92-18.72 74.72-21.92 79.04 0 9.28 0.64 29.6-7.84 29.6h-84.96l-5.12 20.96c-0.16 0.16-0.16 0.32-0.16 0.48 0 1.12-0.96 5.28-4.32 18.08v5.92h78.88c-10.72 20-16.64 21.28-30.08 37.12-14.08 16.16-47.52 44.8-66.4 73.76-11.68 17.76-15.68 21.28-24.96 37.12-0.96 1.44-2.08 3.04-3.04 4.64l-13.44 17.44 41.44-0.8 10.88-0.16 117.92-137.76 79.52 84.16 38.56 40.8c4.16-2.08 23.84-23.36 23.84-27.52 0-6.4-31.84-38.72-62.08-69.76-24-24.64-47.2-48.8-52.32-58.56h135.68l8.48-45.28h-19.68c0.8-3.2 1.44-6.72 2.24-9.92 6.24-28.48 14.4-57.92 17.6-85.28z m-47.84-6.08l-8.32 55.2-3.68 5.76c0.32 8.64-4.32 39.68-11.52 39.68H379.2l11.04-50.88 13.28-53.44 4.32-11.68 15.84-0.16 24.64-0.32c8.8 0 19.68 3.68 19.68 11.84v4h-0.16zM860.64 89.6l1.44-13.28 0.48-0.32 4.32-23.84h-43.52l-5.12 18.08c-0.96 16.16 3.36 19.68-12.48 19.68-10.56 0-21.12-0.16-31.52-0.16h-63.04l-6.88 21.92c-0.96 11.2-9.76 25.44 1.12 25.44h96.64v7.84c0 0.64-5.12 16.16-5.92 19.84h-90.72c-0.32 10.72-4 14.08-4 25.6l-4 5.92v11.84h82.72c8.48 0 4.48 7.68 4 15.68-2.4 12-4.8 25.6-13.92 25.6h-98.72l-10.56 47.36 105.12 0.16-24.64 106.4c-1.28 3.68-2.88 3.52-2.88 8.16v9.92h-13.92c-8.8 0-25.6-12.48-25.6-19.84v-11.84c0-1.28 12.96-57.28 13.92-59.36h-45.28l-10.72 42.08-4.8 19.04-9.28 18.56c-1.92 3.52-4.64 6.56-8.48 8.16l-6.08 2.88-2.08 17.92c-1.44 4.8-2.08 9.6-5.92 21.92v6.24l17.44-1.44c3.68-0.32 7.52-1.44 10.72-3.52 3.2-2.08 5.76-3.36 8-4.48 6.56-3.36 10.56-5.28 20.64-16.32l-1.28 1.28 12.48 12c2.88 2.72 6.56 4.8 10.56 5.76 24.32 5.92 20.96 6.4 39.52 6.4h147.84c8.64 0 13.6-31.04 13.92-39.52h-46.72l-72.32-0.16 8.48-43.2h118.72l9.6-45.44-64.64-0.32-52.64-0.16c0-8.48 6.56-40.96 14.56-40.96h37.92l74.08-0.16 6.4-19.68 4.48-27.68h-16.32l6.72-39.36-0.96-2.08c0-31.52-18.24-41.44-49.28-41.44h-37.44c0.32-12.48 5.92-14.72 5.92-23.84v-8.32h114.4c6.88 0 13.92-32.32 13.92-39.52v-5.76h-114.08v0.32h-0.32z m-7.36 118.56h17.28c7.04 0 6.72 2.4 13.92 4l-5.6 37.6-25.6-0.16-31.2-0.16 9.12-41.12 22.08-0.16z" fill="#015BC7" p-id="6919"></path><path d="M177.92 536.96h763.84c14.56 0 23.84 12 20.64 26.56L878.4 936.8c-3.36 14.56-18.08 26.56-32.64 26.56H82.24c-14.56 0-23.84-12-20.64-26.56L145.6 563.36c3.2-14.4 17.92-26.4 32.32-26.4z" fill="#FF8201" p-id="6920"></path><path d="M415.68 708l-35.52-2.24-58.08-0.16 14.72-63.04h132.32v-9.92c0-0.16 0.48-1.28 0.96-3.52 2.08-6.72 6.4-21.92 6.88-28h-6.88l-123.52-0.32 2.08-15.68c2.4-3.52 4-3.36 4-7.84v-5.92l-44.48 0.16-5.12 29.44-129.76 0.16-8.48 39.36 127.68 0.32-15.2 64.96-125.12 0.32-9.12 39.2h248.64c-0.32 11.2-18.4 19.68-26.88 24.48-11.52 6.72-22.08 12.96-32.8 20.48-6.72 4.64-60.8 39.84-64.8 39.84-3.52 0-54.88-59.36-61.12-59.36l-58.08 0.96 81.76 80.16v5.92c-2.88 0.8-44.48 22.88-52.16 26.72-12.8 6.56-47.2 14.72-66.08 14.72h-5.44l-6.24 35.52c43.52 0 55.04-5.28 86.72-15.68 10.88-3.52 68.32-33.44 69.12-33.44 0.32 0 48.32 37.12 56.96 41.92 21.28 11.84 52.8 15.52 85.12 15.52h7.84c7.52 0 11.84-31.2 11.84-39.52h-29.44c-38.88 0-77.76-20.8-92.64-43.36 5.12-7.04 65.12-42.72 78.4-52 20.48-14.56 65.76-32.96 65.76-64.64 0-20.48-11.84-27.84-23.84-35.52z m197.44-133.44l-2.08-1.12h-41.6c-4.64 17.92-31.52 57.12-43.2 69.28-19.84 20.48-39.52 27.84-41.44 64.64-0.32 4.48-1.44 8.64-3.52 12.32l-1.76 18.72 36.64-24.64-13.28 67.52-2.88 6.08-24.64 114.4-4.32 5.6c0 3.52-0.48 6.72-0.96 9.76v0.8c-2.08 10.08-6.72 16.16-6.72 19.2v7.84h6.88v-0.16h26.56c8.96 0 11.84-27.52 13.12-37.28l8.16-40 2.88-5.92 26.56-122.4 3.36-5.92 8.16-37.44 7.84-36.64 42.24-77.12c-0.16 0.16 4-7.52 4-7.52z m49.44 178.4c-10.08-30.72-6.24-32-31.68-49.12l-21.76-1.28h0.16l-6.88-0.32-6.72 35.36 13.28 1.76 1.92 0.16c24.16 36.32 14.08 100.64 65.12 100.64h7.68l6.24-35.52c-21.6-0.64-21.12-33.28-27.36-51.68z" fill="#FFFFFF" p-id="6921"></path><path d="M804 549.76l-15.36 53.12H615.04v9.92c0 0.64-3.52 9.44-5.76 18.72-1.12 4.48-2.08 8.96-2.08 12.8h177.6l-6.24 21.6-16.48 84.96-3.04 5.92c0.32 14.08-28.64 132-33.12 138.72-11.04 16.32-46.24 11.84-73.12 11.84-9.12 0-36.48-3.52-40.8 2.72-0.16 0.16-1.12 5.92-2.88 12.8-1.92 9.6-4.16 20.96-4.16 22.08h98.72c9.92 0 31.2-10.24 38.24-15.04 10.4-6.72 17.92-16.48 21.92-29.6 7.68-25.6 15.36-58.56 20.32-84.48 6.24-31.04 13.12-54.08 18.72-86.08 3.52-21.28 18.88-62.08 19.2-85.44h104.48c-0.16 0-122.56-94.56-122.56-94.56z" fill="#FFFFFF" p-id="6922"></path></svg>