<svg xmlns="http://www.w3.org/2000/svg" viewBox="0 0 165.66 260.07"><defs><style>.cls-1{fill:#eae5dc;}.cls-2{fill:#f9f5ed;}.cls-3{fill:#efc4a0;}.cls-4{fill:#606060;}.cls-5{fill:#393c3d;}.cls-6{fill:#f4d3b0;}.cls-7{fill:#f9dab4;}.cls-8{fill:#e0b594;}</style></defs><title>资源 328</title><g id="图层_2" data-name="图层 2"><g id="Layer_1" data-name="Layer 1"><path class="cls-1" d="M39.45,153.13s-28,59-34.15,83.38,35.06,18.9,35.06,18.9S51.3,139.42,39.45,153.13Z"/><path class="cls-2" d="M.06,253.58a61.21,61.21,0,0,0,15.07,6.49h22l.33-11.22S11.56,239,4.67,233.32C4.67,233.32-.62,250.39.06,253.58Z"/><path class="cls-1" d="M123,153.13s28,59,34.16,83.38-35.07,18.9-35.07,18.9S111.16,139.42,123,153.13Z"/><path class="cls-2" d="M125,248.85l.32,11.22h22a61,61,0,0,0,15.06-6.49c.69-3.19-4.61-20.26-4.61-20.26C150.89,239,125,248.85,125,248.85Z"/><path class="cls-3" d="M33.17,260.07h96.12c-2.4-42.85-6.51-108.95-6.51-108.95l-41.55,2-41.56-2S35.57,217.22,33.17,260.07Z"/><path class="cls-2" d="M39.67,151.12s-4.1,66.1-6.5,109h96.12c-.23-4-.47-8.22-.72-12.56C112,242,96.33,233.73,84.62,221.69,66.89,203.48,48.26,177.21,43,151.28Z"/><path class="cls-1" d="M35.72,260.07h93.57c-.23-4-.47-8.22-.72-12.56C112,242,96.33,233.73,84.62,221.69c-.4-.4-.79-.82-1.18-1.23C72.94,238.12,54.37,250.2,35.72,260.07Z"/><path class="cls-4" d="M77.12,229.68c11.34,11.66,26.87,20.81,46.22,27.22l5.87,1.86c-.2-3.62-.42-7.38-.64-11.25a128.89,128.89,0,0,1-25.5-11.5l-.26-.15c-1.4-.84-2.78-1.69-4.13-2.59A81.58,81.58,0,0,1,85,222.06c-.87-.89-1.87-1.95-2.92-3.08-16.92-18.06-34-43-39-67.7l-3.37-.16-1.24,20.25C48.31,198,68.05,220.35,77.12,229.68Z"/><path class="cls-2" d="M42.71,260.07h86.58c-2.4-42.85-6.51-108.95-6.51-108.95l-7.29.35A221.61,221.61,0,0,1,80.1,228.56C70.27,242.09,57.09,252,42.71,260.07Z"/><path class="cls-4" d="M115.49,151.47a226.14,226.14,0,0,1-19.35,51.16,174.93,174.93,0,0,1-16.73,26.7c-8.57,11.27-20,21.38-36.59,30.74H63.9a107.3,107.3,0,0,0,24.41-23.75,226.5,226.5,0,0,0,35.12-74.7c-.4-6.57-.65-10.5-.65-10.5Z"/><path class="cls-5" d="M10.59,108.54s-5-49.65-2.5-59S26.47,6.91,63,1.28C81.5-1.57,113.74-2.13,149.26,27l-9.34,1.82s16.86,2.73,25.74,22.09L154,48.65s7.67,8.69,8.54,17.24c1.23,12.08-1.48,24.88-1.48,24.88l-6.38-7.52-3.18,23.69L127.4,122.19l-98.59,1.37Z"/><path class="cls-6" d="M27.77,110.25S18.25,98.55,7.63,104s4.09,41,25,43.91Z"/><path class="cls-6" d="M134.69,110.25s9.52-11.7,20.13-6.26-4.08,41-25,43.91Z"/><path class="cls-7" d="M126.74,154.33S109.1,166.1,81.23,166.55s-45.52-12.22-45.52-12.22a27.91,27.91,0,0,1-10.92-22.17V78.28s9.78-8.39,26.74-8.1a67.31,67.31,0,0,1,29.7,7.66s16.85-8,31.61-7.83a43.21,43.21,0,0,1,24.82,8.27v53.88A27.88,27.88,0,0,1,126.74,154.33Z"/><path class="cls-3" d="M91.88,123.62s-2.42-7.74-10.21-8.24-11.09,9.49-11.09,9.49,4.89-7.41,11.07-6.72A17.31,17.31,0,0,1,91.88,123.62Z"/><path class="cls-3" d="M48.6,137.12l2.82.48c1.78.33,4.36.64,7.43,1l5,.51,5.54.4,5.93.22,6.11-.07c2-.05,4.11-.24,6.13-.35s4-.4,5.87-.58,3.74-.55,5.49-.78,3.37-.62,4.9-.88c6.08-1.15,10.07-2.37,10.07-2.37s-.91.51-2.58,1.25c-.84.34-1.86.8-3,1.24s-2.54,1-4,1.41-3.12,1-4.89,1.35-3.58.91-5.55,1.16-4,.72-6,.84-4,.36-6.23.43l-6.26,0-6-.45a98.77,98.77,0,0,1-10.58-1.78A66.68,66.68,0,0,1,48.6,137.12Z"/><path class="cls-5" d="M39.74,120.11a1.69,1.69,0,0,1-1.69-1.53,9.09,9.09,0,0,1,6.85-9.42c5.92-1.74,10.3,2.86,11.78,5.53a1.69,1.69,0,1,1-3,1.64c-.12-.21-3.07-5.33-7.87-3.92a5.68,5.68,0,0,0-4.43,5.86,1.69,1.69,0,0,1-1.52,1.84Z"/><polygon class="cls-5" points="56.83 96.4 58.37 100.38 30.43 103.38 31.73 96.73 56.83 96.4"/><path class="cls-5" d="M122.72,120.11h-.16a1.7,1.7,0,0,1-1.53-1.83,5.66,5.66,0,0,0-4.43-5.87c-4.79-1.41-7.74,3.71-7.87,3.93a1.69,1.69,0,0,1-3-1.65c1.48-2.67,5.86-7.27,11.78-5.53a9.07,9.07,0,0,1,6.84,9.42A1.68,1.68,0,0,1,122.72,120.11Z"/><polygon class="cls-5" points="105.63 96.4 104.09 100.38 132.02 103.38 130.72 96.73 105.63 96.4"/><path class="cls-5" d="M69.1,165.88a87.1,87.1,0,0,0,12.16.67,100.35,100.35,0,0,0,12.1-1l-2.54-12.47H71.69Z"/><path class="cls-8" d="M81.36,172.92s.61,6.23,1,12.47c.1,1.56.29,3.11.33,4.57a27.75,27.75,0,0,1-.33,4,19.83,19.83,0,0,1-1,3.89h-.27a19.83,19.83,0,0,1-1-3.89,27.75,27.75,0,0,1-.33-4c0-1.46.23-3,.33-4.57.36-6.24,1-12.47,1-12.47Z"/><path class="cls-8" d="M90.8,172.79s2.49-1.59,5.07-2.94c.64-.35,1.25-.79,1.87-1.06a5.74,5.74,0,0,1,1.84-.35,5.87,5.87,0,0,1,2,.25l.1.26a6.44,6.44,0,0,1-3,2.5c-.65.2-1.4.28-2.11.44-2.82.7-5.74,1.16-5.74,1.16Z"/><path class="cls-8" d="M71.65,172.79s-2.49-1.59-5.06-2.94c-.64-.35-1.25-.79-1.87-1.06a6.37,6.37,0,0,0-3.88-.1l-.09.26a6.44,6.44,0,0,0,3,2.5c.65.2,1.39.28,2.1.44,2.83.7,5.75,1.16,5.75,1.16Z"/><path class="cls-4" d="M33.78,248.85c-.22,3.87-.44,7.62-.64,11.22h96.12c-.18-3.1-.36-6.31-.55-9.61a361.21,361.21,0,0,1-47.9,4.72A136.94,136.94,0,0,1,33.78,248.85Z"/></g></g></svg>