<svg xmlns="http://www.w3.org/2000/svg" viewBox="0 0 173.9 259.13"><defs><style>.cls-1{fill:#ad3e3b;}.cls-2{fill:#f4efed;}.cls-3{fill:#3f3e3d;}.cls-4{fill:#515151;}.cls-5{fill:#302f2d;}.cls-6{fill:#e2dcd9;}.cls-7{fill:#c65044;}.cls-8{fill:#f9dab4;}.cls-9{fill:#efc4a0;}.cls-10{fill:#3a332d;}.cls-11{fill:#e8dfd9;}</style></defs><title>资源 85</title><g id="图层_2" data-name="图层 2"><g id="Layer_1" data-name="Layer 1"><path class="cls-1" d="M33,183s38.73,11.18,117.68,0l12.1-33.9-.55-46.78L16.09,76.38,6.59,102.3l22,74Z"/><rect class="cls-2" x="58.52" y="155.82" width="60.27" height="96.69"/><path class="cls-3" d="M58.52,155.82h-.14s-33.15-1-37.59,103.31H159.17c-1.32-34-8.35-101.54-43.42-104.44l-1.86.87c8.42,67.78-24.61,92.06-24.61,92.06C59.68,225.11,62.75,168,63.44,156.17,63.44,156.17,58.48,156.15,58.52,155.82Z"/><path class="cls-4" d="M63.23,160.13s-26.17,19.11-16.72,31.16L56,203.34s-7.72,10.41-3.25,19.8,36.57,24.48,36.57,24.48C62.2,227,62.46,177.5,63.23,160.13Z"/><path class="cls-4" d="M123.75,223.14c4.47-9.39-3.24-19.8-3.24-19.8L130,191.29c8.85-11.27-12.72-28.73-15.53-30.93,6.32,64.13-25.14,87.26-25.14,87.26S119.28,232.53,123.75,223.14Z"/><polygon class="cls-5" points="40.13 201.69 39.03 259.13 43.67 259.13 40.13 201.69"/><polygon class="cls-5" points="138.53 200.48 136.56 259.13 140.46 259.13 138.53 200.48"/><path class="cls-6" d="M92,188.77a3.08,3.08,0,1,1-3.08-3.08A3.08,3.08,0,0,1,92,188.77Z"/><path class="cls-6" d="M92,211.16a3.08,3.08,0,1,1-3.08-3.07A3.08,3.08,0,0,1,92,211.16Z"/><path class="cls-6" d="M92,233.56a3.08,3.08,0,1,1-3.08-3.07A3.07,3.07,0,0,1,92,233.56Z"/><path class="cls-7" d="M88.86,169.41v3.4L69.27,178a3.5,3.5,0,0,1-4.4-3.38v-7.94a3.49,3.49,0,0,1,4.53-3.34Z"/><path class="cls-7" d="M88.86,169.41v3.4L108.44,178a3.5,3.5,0,0,0,4.4-3.38v-7.94a3.49,3.49,0,0,0-4.53-3.34Z"/><rect class="cls-1" x="82.65" y="165.65" width="12.41" height="11.11" rx="3.87"/><path class="cls-8" d="M89.24,165.3H87.91A65.92,65.92,0,0,1,22,99.38V43.67H155.16V99.38A65.92,65.92,0,0,1,89.24,165.3Z"/><path class="cls-9" d="M80.75,132.65s2.66-8.18,7.55-8.18,7.54,8.18,7.54,8.18-3.19-5.2-7.54-5.2S80.75,132.65,80.75,132.65Z"/><path class="cls-7" d="M74.32,148.61s3.77-4.76,8.12-4.54a9.22,9.22,0,0,1,6.72,3.73s3.91-3.65,8.49-3.58,6.57,4.76,6.57,4.76-4.73,5.92-15.58,5.92S74.32,148.61,74.32,148.61Z"/><path class="cls-1" d="M35.81,100.8s19.78-3.09,26.77,0l-6-6.09S38.87,94.71,35.81,100.8Z"/><path class="cls-10" d="M44.58,119.71a22.09,22.09,0,0,1-6.13-.68,1.38,1.38,0,1,1,.83-2.63c3.42,1.07,11,.33,13.59-.05a1.38,1.38,0,0,1,.4,2.73A69.28,69.28,0,0,1,44.58,119.71Z"/><path class="cls-10" d="M47.55,116.92a17.82,17.82,0,0,1-10.91-4,1.37,1.37,0,0,1,1.81-2.07c.09.07,5.51,4.64,12.31,2.89a1.38,1.38,0,1,1,.68,2.67A15.47,15.47,0,0,1,47.55,116.92Z"/><circle class="cls-10" cx="51.73" cy="112.46" r="6.79"/><path class="cls-11" d="M53.78,108c.2,1-1,2-2.67,2.37s-3.2-.18-3.39-1.15,1-2,2.68-2.37S53.59,107,53.78,108Z"/><path class="cls-1" d="M139.79,100.8S120,97.71,113,100.8l6-6.09S136.74,94.71,139.79,100.8Z"/><path class="cls-10" d="M131,119.71a68.89,68.89,0,0,1-8.69-.63,1.38,1.38,0,1,1,.39-2.73c.09,0,9.48,1.34,13.59.05a1.38,1.38,0,0,1,.83,2.63A22.07,22.07,0,0,1,131,119.71Z"/><path class="cls-10" d="M128.05,116.92a15.53,15.53,0,0,1-3.89-.49,1.38,1.38,0,1,1,.69-2.67c6.82,1.75,12.25-2.85,12.3-2.9a1.38,1.38,0,0,1,1.81,2.08A17.82,17.82,0,0,1,128.05,116.92Z"/><circle class="cls-10" cx="123.87" cy="112.46" r="6.79"/><path class="cls-11" d="M121.82,108c-.2,1,1,2,2.68,2.37s3.19-.18,3.38-1.15-1-2-2.67-2.37S122,107,121.82,108Z"/><path class="cls-7" d="M120.63,47.43S126.4,108.36,20.72,92c0,0-5.53,55.16,12.29,90.94,0,0-21.65-20.68-29-54.42C-7.6,75.39,1.91,0,88.3,0s87.46,63.05,85,118.34c-1.38,31-22.61,64.64-22.61,64.64S169.72,76.65,120.63,47.43Z"/></g></g></svg>