<svg xmlns="http://www.w3.org/2000/svg" viewBox="0 0 187.7 259.46"><defs><style>.cls-1{fill:#6b4627;}.cls-2{fill:#f2d0af;}.cls-3{fill:#6d6d6d;}.cls-4{fill:#393c3d;}.cls-5{fill:#f4d3b0;}.cls-6{fill:#ddb58e;}.cls-7{fill:#3a332d;}.cls-8{fill:#c65044;}</style></defs><title>资源 253</title><g id="图层_2" data-name="图层 2"><g id="Layer_1" data-name="Layer 1"><path class="cls-1" d="M186.75,157.93c-4.44.56-11.56-3.93-11.56-3.93,15.45-3.94,12.64-16.58,11-16.56s-20-5.63-12.64-39.34,5.61-58.71-13.29-76.69C150.92,12.56,131.07,1,111.91.06,92.13-.89,73.13,9,70.37,15.23c0,0-24-11.79-42.89,6.18S6.89,64.39,14.19,98.1,3.24,137.45,1.55,137.44s-4.49,12.62,11,16.56c0,0-7.12,4.49-11.57,3.93S8,186.86,30.76,189.67c0,0-13.48,30.62,12.64,42.14a97,97,0,0,0,50.45,7.31,96.92,96.92,0,0,0,50.44-7.31c26.13-11.52,12.64-42.14,12.64-42.14C179.69,186.86,191.2,157.37,186.75,157.93Z"/><path class="cls-2" d="M59.77,166.66c-7.47,11.21-28.26,60.66-30.21,92.8H58.09l22.28-92.8S67.64,154.85,59.77,166.66Z"/><path class="cls-2" d="M128.17,166.66c7.47,11.21,28.26,60.66,30.21,92.8H129.85l-22.28-92.8S120.3,154.85,128.17,166.66Z"/><path class="cls-3" d="M127,198.19c-2.82-18.11-6-32.83-9.41-41.2l-23-2.12v-.13l-.65.07-.66-.07v.13l-23,2.12c-3.41,8.37-6.59,23.09-9.42,41.2Z"/><path class="cls-4" d="M93.85,190.9c-3.43-6.27-8.91-11.06-15.12-11.06-9.48,0-17.31,11.13-18.6,21.72-2.6,17.31-4.88,37.41-6.73,57.9h80.9c-1.85-20.49-4.13-40.59-6.73-57.9-1.29-10.59-9.12-21.72-18.6-21.72C102.76,179.84,97.27,184.63,93.85,190.9Z"/><path class="cls-5" d="M36.82,98.78s-8.73-6.48-15.57-2.12c-8.58,5.47,1.57,29.48,11.89,40.78Z"/><path class="cls-5" d="M150.88,98.78s8.73-6.48,15.57-2.12c8.58,5.47-1.58,29.48-11.9,40.78Z"/><path class="cls-2" d="M138.69,79.84c-4.5,1.5-28.47,4.49-38.21,1.5A76.22,76.22,0,0,1,85.13,75s-3.37,7.87-29.21,8.62c-11,.31-18.14-2.14-22.78-5.07v58.92s17.63,28.72,60.71,28.72,60.71-28.72,60.71-28.72V92C147.22,89.34,142.31,78.63,138.69,79.84Z"/><path class="cls-6" d="M101.2,119.49s-2.8-4.81-7.35-4.81-7.35,4.81-7.35,4.81S88.59,113,93.85,113,101.2,119.49,101.2,119.49Z"/><path class="cls-1" d="M66.71,89.37s-4.95,11.07-21.54,11.15V96.07s13.91-1.5,18.1-9.72Z"/><path class="cls-1" d="M121,89.37s5,11.07,21.54,11.15V96.07s-13.91-1.5-18.1-9.72Z"/><path class="cls-7" d="M135.9,113.61h0a1.24,1.24,0,0,1-1.23-1.25c0-.29-.07-7.13-5.66-7.32-5.8-.19-7.18,5.53-7.24,5.78a1.24,1.24,0,0,1-2.42-.55c.63-2.76,3.47-7.93,9.74-7.71s8.08,6.51,8.06,9.81A1.24,1.24,0,0,1,135.9,113.61Z"/><path class="cls-7" d="M138,113.55a9.55,9.55,0,0,1-2.47-.27,1.24,1.24,0,0,1,.68-2.39,11.68,11.68,0,0,0,6.31-.63,1.24,1.24,0,1,1,.81,2.34A16.27,16.27,0,0,1,138,113.55Z"/><path class="cls-7" d="M135.74,111h-.09a1.25,1.25,0,0,1,0-2.49h.08c2.27,0,5.39-2.15,6.42-3a1.24,1.24,0,0,1,1.57,1.92C143.57,107.55,139.38,111,135.74,111Z"/><path class="cls-7" d="M51.8,113.61h0A1.24,1.24,0,0,0,53,112.36c0-.29.06-7.13,5.66-7.32,5.8-.19,7.18,5.53,7.23,5.78a1.25,1.25,0,0,0,2.43-.55c-.63-2.76-3.47-7.93-9.74-7.71s-8.08,6.51-8.06,9.81A1.23,1.23,0,0,0,51.8,113.61Z"/><path class="cls-7" d="M49.67,113.55a9.63,9.63,0,0,0,2.47-.27,1.24,1.24,0,0,0-.68-2.39,11.68,11.68,0,0,1-6.31-.63,1.24,1.24,0,1,0-.81,2.34A16.19,16.19,0,0,0,49.67,113.55Z"/><path class="cls-7" d="M52,111h.1a1.25,1.25,0,0,0,0-2.49H52c-2.28,0-5.4-2.15-6.42-3A1.24,1.24,0,0,0,44,107.41C44.13,107.55,48.31,111,52,111Z"/><path class="cls-8" d="M82.54,139.19s2.85-4.29,6.15-4.09,5.08,3.36,5.08,3.36,3-3.29,6.42-3.22,5,4.28,5,4.28-3.43,8-11.64,8S82.54,139.19,82.54,139.19Z"/></g></g></svg>