<svg xmlns="http://www.w3.org/2000/svg" viewBox="0 0 171.13 260.01"><defs><style>.cls-1{fill:#f7cea6;}.cls-2{fill:#f9dab4;}.cls-3{fill:#f2ac2f;}.cls-4{fill:#ffc55f;}.cls-5{fill:#dd491b;}.cls-6{fill:#eb5f24;}.cls-7{fill:#f9f7f2;}.cls-8{fill:#e5be9e;}.cls-9{fill:#f4c7a2;}.cls-10{fill:#3b3d3d;}.cls-11{fill:#fff;}.cls-12{fill:#393c3d;}</style></defs><title>资源 33</title><g id="图层_2" data-name="图层 2"><g id="Layer_1" data-name="Layer 1"><path class="cls-1" d="M7.05,255.47c0,1.5.06,3,.17,4.54H53.9V211.77L13,209.41S9,238.15,7.05,255.47Z"/><path class="cls-2" d="M22.62,224.55c-2.94.06-6.65-.34-8.8,1.68a4.88,4.88,0,0,0-1.26,2c-1.1,2.94-.43,6.37-.81,9.42-.92,7.51-2.62,14.84-2.89,22.41H19.07c.34-4.08,11.8-5.18,11.8-8.08s3.34-18.31.19-24.21C29.51,224.8,25.53,224.5,22.62,224.55Z"/><path class="cls-2" d="M24.17,259.6l-.9.41h8.19C30.92,257.66,28.07,257.83,24.17,259.6Z"/><path class="cls-3" d="M46.48,159.12s-32.18,14.12-41,51.93C4.28,216,6.92,218.14,16.25,220c11.94,2.34,32.13.65,32.13.65v-61Z"/><path class="cls-4" d="M22.8,217.68s-11.39-.3-12.81-8.82,15.17-34.09,21.86-37.63,9.63-3.33,8.16,5.91-5.4,36.41-5.4,40C30.87,218.86,22.8,217.68,22.8,217.68Z"/><path class="cls-1" d="M114.21,211.77V260h46.68c.11-1.52.17-3,.17-4.54-2-17.32-5.91-46.06-5.91-46.06Z"/><path class="cls-2" d="M156.35,237.6c-.37-3,.29-6.48-.8-9.42a4.88,4.88,0,0,0-1.26-2c-2.15-2-5.86-1.62-8.8-1.68s-6.89.25-8.45,3.17c-3.15,5.9.2,21.25.2,24.21s11.45,4,11.79,8.08h10.22C159,252.44,157.27,245.11,156.35,237.6Z"/><path class="cls-2" d="M136.65,260h8.19l-.91-.41C140,257.83,137.19,257.66,136.65,260Z"/><path class="cls-3" d="M123.53,159.61s29.53,12.94,38.58,49.06c.4,1.61,0,7.13-9.11,9.39-11.89,3-33.28,2.57-33.28,2.57v-61Z"/><path class="cls-4" d="M145.31,217.68s11.39-.3,12.8-8.82S143,174.77,136.26,171.23s-9.63-3.33-8.16,5.91,5.4,36.41,5.4,40C137.24,218.86,145.31,217.68,145.31,217.68Z"/><rect class="cls-1" x="57" y="149.88" width="62.09" height="68.78"/><path class="cls-5" d="M84.9,190.17c-23.15.3-24.53-32.07-24.53-32.07l-13.78-1.81S36.15,209.31,31.73,260H135.54c-1.48-35.47-11.84-102.74-11.84-102.74H109S108,189.87,84.9,190.17Z"/><path class="cls-6" d="M123.72,174.59c-1.11-6.65-5.6-5.49-9.6-4.34s-2.88,1.3-7.2,10.55-19.84,12.72-29.12,11-14.24-11.7-15.68-16-1.92-4.48-9-5.92S45,172.28,45,172.28s-7.44,56.63-8.88,65.59c-1.07,6.63-2.22,16.2-2,22.14H132c2.5-8.11-.6-21-1.38-28.63C129.49,220.4,124.85,181.24,123.72,174.59Z"/><path class="cls-2" d="M151.8,50.58,22.21,50.43S22.85,80.86,21.09,95c-1,8.11-.45,15.12-.65,18.3-1.92,29.25,29.06,53.26,65.33,53.49s65.83-23.33,66-52.64a79.89,79.89,0,0,0-.46-9.71c-.25-2.47-.25-5.15-.39-8.2C150.35,83,151.8,50.58,151.8,50.58Z"/><path class="cls-7" d="M45.49,127.56a1.19,1.19,0,0,1-1.23,1.14l-4-.15a1.17,1.17,0,0,1-1.14-1.23h0a1.18,1.18,0,0,1,1.23-1.14l4,.14a1.19,1.19,0,0,1,1.14,1.24Z"/><path class="cls-7" d="M131.63,128.12a1.19,1.19,0,0,1-1.23,1.14l-4-.15a1.18,1.18,0,0,1-1.14-1.23h0a1.19,1.19,0,0,1,1.23-1.15l4,.15a1.2,1.2,0,0,1,1.14,1.24Z"/><path class="cls-2" d="M143.39,133a21.77,21.77,0,0,0,18.33-.24c9.62-4.7,14.36-24,1.9-28.63s-16.3,9.7-16.3,9.7Z"/><path class="cls-1" d="M149.19,127.13s4-21.16,13.21-13.85c5.68,4.49,2.31,10.76-3,13.33C156.13,128.22,151.83,128.36,149.19,127.13Z"/><path class="cls-8" d="M149.31,126.89l1.37-5.33s17.59-5,12.65,2S149.31,126.89,149.31,126.89Z"/><path class="cls-2" d="M27.52,131.79a21.8,21.8,0,0,1-18.33-.48c-9.55-4.83-14-24.2-1.53-28.66s16.18,9.92,16.18,9.92Z"/><path class="cls-1" d="M21.79,125.84s-3.68-21.2-13-14c-5.74,4.42-2.45,10.73,2.79,13.37C14.84,126.84,19.14,127,21.79,125.84Z"/><path class="cls-8" d="M21.68,125.6l-1.3-5.35S2.86,115,7.7,122.12,21.68,125.6,21.68,125.6Z"/><path class="cls-9" d="M76.28,126a1.28,1.28,0,0,1-.68-2.36,19.64,19.64,0,0,1,21.84.06,1.28,1.28,0,0,1-1.55,2c-.36-.27-8.74-6.41-18.92.06A1.34,1.34,0,0,1,76.28,126Z"/><path class="cls-10" d="M129.35,102.73a10.59,10.59,0,1,1-14.69-3A10.6,10.6,0,0,1,129.35,102.73Z"/><path class="cls-11" d="M122.17,100.24c1,1.59-.33,4.35-3.08,6.18s-5.84,2-6.89.45.33-4.35,3.08-6.18S121.11,98.66,122.17,100.24Z"/><path class="cls-10" d="M62.31,100.3a10.6,10.6,0,1,1-14.69-3A10.59,10.59,0,0,1,62.31,100.3Z"/><path class="cls-11" d="M55.12,97.82c1.05,1.58-.32,4.35-3.08,6.18s-5.83,2-6.88.44.32-4.34,3.08-6.17S54.07,96.24,55.12,97.82Z"/><path class="cls-12" d="M156.57,28.87c-5.09-5.14-9.77-5-10.29-4.92,4-6.41,5.14-16.35,2.65-23.95H75.45C29.71,0,26.44,24,26.44,24s-4.94-.53-10.34,4.92c0,0-2.8,15.54-2.81,50.8A187.94,187.94,0,0,0,14.42,102a25.46,25.46,0,0,1,6,3.93c2.78-22.29,6.3-43.45,6.3-43.45s13,14.89,68.87,14.89c26.65,0,42.12-5,50.37-12.5.32,7.49,3.21,23,5.51,41.55a18.73,18.73,0,0,1,6.56-3.21s1.32-3.18,1.31-23.57C159.38,44.41,156.57,28.87,156.57,28.87Z"/><path class="cls-10" d="M112,87.82s6.32,2,22.32,8.55a50.87,50.87,0,0,0,2.84-7.69s-14.8-6.17-23.95-7.74A25.44,25.44,0,0,0,112,87.82Z"/><path class="cls-10" d="M59.73,87.69s-14,1.62-21.81,9.79A50.45,50.45,0,0,1,34.65,90S48,81.58,58.13,80.89A25.79,25.79,0,0,1,59.73,87.69Z"/><path class="cls-9" d="M86.08,149.9c-15.5,0-25.42-3.13-25.84-3.26a1.28,1.28,0,0,1-.83-1.6,1.29,1.29,0,0,1,1.61-.83c.1,0,10,3.13,25.06,3.13a95.49,95.49,0,0,0,25.39-3.13,1.28,1.28,0,1,1,.76,2.44C111.8,146.78,101.57,149.9,86.08,149.9Z"/></g></g></svg>