<?xml version="1.0" standalone="no"?><!DOCTYPE svg PUBLIC "-//W3C//DTD SVG 1.1//EN" "http://www.w3.org/Graphics/SVG/1.1/DTD/svg11.dtd"><svg t="1548763747878" class="icon" style="" viewBox="0 0 1103 1024" version="1.1" xmlns="http://www.w3.org/2000/svg" p-id="25777" xmlns:xlink="http://www.w3.org/1999/xlink" width="215.4296875" height="200"><defs><style type="text/css"></style></defs><path d="M 890.286 439.817 a 19.0822 19.0822 0 0 0 -10.6064 -32.4212 l -208.19 -30.2443 a 19.0822 19.0822 0 0 1 -14.4043 -10.4674 L 577.097 217.407 a 19.0822 19.0822 0 0 0 -34.2738 0 l -79.9877 175.538 a 19.0822 19.0822 0 0 1 -14.4043 10.4674 l -170.258 22.5096 a 19.0822 19.0822 0 0 0 -10.6064 32.4212 l 121.44 118.986 a 19.0822 19.0822 0 0 1 5.5116 16.9053 l -31.1707 190.405 a 19.0822 19.0822 0 0 0 27.7896 20.1475 l 146.822 -71.6508 a 19.0822 19.0822 0 0 1 17.7853 0 l 186.19 97.912 a 19.0822 19.0822 0 0 0 27.7896 -20.1475 l -35.5707 -207.357 a 19.0822 19.0822 0 0 1 5.5116 -16.9053 Z m -303.138 -127.878 l -48.2612 108.472 a 9.29099 9.29099 0 1 1 -16.5811 -8.38319 l 48.2612 -108.472 a 9.2632 9.2632 0 1 1 16.5348 8.33688 Z" fill="#f0f0f0" p-id="25778"></path><path d="M 342.877 837.717 a 23.7601 23.7601 0 0 1 -23.158 -27.7896 l 35.5707 -207.357 a 14.4506 14.4506 0 0 0 -4.16844 -12.8295 l -150.666 -146.822 a 23.7138 23.7138 0 0 1 13.1537 -40.4802 l 208.422 -30.2443 a 14.4506 14.4506 0 0 0 10.8843 -7.92003 l 92.7246 -188.46 a 23.7138 23.7138 0 0 1 42.5644 0 l 93.0488 188.46 a 14.4969 14.4969 0 0 0 10.8843 7.92003 l 208.19 30.2443 a 23.7138 23.7138 0 0 1 13.1537 40.4802 l -150.666 146.822 a 14.4506 14.4506 0 0 0 -4.16844 12.8295 l 35.5707 207.357 a 23.7138 23.7138 0 0 1 -34.4128 25.0106 l -186.237 -97.912 a 14.4506 14.4506 0 0 0 -13.478 0 l -186.19 97.912 a 23.7601 23.7601 0 0 1 -11.0232 2.77896 Z m 203.79 -666.024 a 14.219 14.219 0 0 0 -12.9685 8.05898 l -93.0951 188.645 a 23.7138 23.7138 0 0 1 -17.878 12.9685 l -208.422 30.2443 a 14.4506 14.4506 0 0 0 -8.01266 24.6864 l 150.666 146.822 a 23.7138 23.7138 0 0 1 6.80845 21.0275 l -35.5707 207.357 a 14.4969 14.4969 0 0 0 20.9811 15.238 l 186.19 -97.912 a 23.7138 23.7138 0 0 1 22.0927 0 l 186.19 97.912 a 14.4506 14.4506 0 0 0 20.9811 -15.238 l -35.5707 -207.357 a 23.7138 23.7138 0 0 1 6.80845 -21.0275 l 150.62 -146.822 a 14.4506 14.4506 0 0 0 -8.01266 -24.6864 l -208.19 -30.2443 a 23.7601 23.7601 0 0 1 -17.878 -12.9685 l -93.0951 -188.645 a 14.219 14.219 0 0 0 -12.4127 -8.1053 Z" fill="#bbbbbb" p-id="25779"></path><path d="M 27.9749 633 a 27.7896 27.7896 0 1 1 27.7896 -27.7896 a 27.7896 27.7896 0 0 1 -27.7896 27.7896 Z m 0 -46.6402 a 18.5264 18.5264 0 1 0 18.5264 18.5264 a 18.5264 18.5264 0 0 0 -18.5264 -18.5264 Z" fill="#dbdbdb" p-id="25780"></path><path d="M 858.189 55.7644 a 27.7896 27.7896 0 1 1 27.7896 -27.7896 a 27.7896 27.7896 0 0 1 -27.7896 27.7896 Z m 0 -41.6844 a 13.8948 13.8948 0 1 0 13.8948 13.8948 a 13.8948 13.8948 0 0 0 -13.8948 -14.2653 Z" fill="#bbbbbb" p-id="25781"></path><path d="M 301.147 43.6297 m -11.6253 0 a 11.6253 11.6253 0 1 0 23.2506 0 a 11.6253 11.6253 0 1 0 -23.2506 0 Z" fill="#d6d6d6" p-id="25782"></path><path d="M 1086.9 234.776 m -16.8127 0 a 16.8127 16.8127 0 1 0 33.6254 0 a 16.8127 16.8127 0 1 0 -33.6254 0 Z" fill="#f0f0f0" p-id="25783"></path><path d="M 149.462 405.589 m -14.8674 0 a 14.8674 14.8674 0 1 0 29.7349 0 a 14.8674 14.8674 0 1 0 -29.7349 0 Z" fill="#d6d6d6" p-id="25784"></path><path d="M 1005.29 793.069 a 17.0906 17.0906 0 1 1 17.0906 -17.0906 a 17.0906 17.0906 0 0 1 -17.0906 17.0906 Z m 0 -24.918 a 7.8274 7.8274 0 1 0 7.8274 7.8274 a 7.8274 7.8274 0 0 0 -7.8274 -7.8274 Z" fill="#e0e0e0" p-id="25785"></path><path d="M 943.781 364.97 a 17.0906 17.0906 0 1 1 17.0906 -17.0906 a 17.0906 17.0906 0 0 1 -17.0906 17.0906 Z m 0 -24.918 a 7.8274 7.8274 0 1 0 7.8274 7.8274 a 7.8274 7.8274 0 0 0 -7.8274 -7.78108 Z" fill="#bbbbbb" p-id="25786"></path><path d="M 699.001 868.841 m -13.7558 0 a 13.7558 13.7558 0 1 0 27.5117 0 a 13.7558 13.7558 0 1 0 -27.5117 0 Z" fill="#f5f5f5" p-id="25787"></path><path d="M 128.805 179.567 h -29.0401 V 150.527 h -13.8948 v 29.0401 h -29.0864 v 13.8948 h 29.0864 v 29.0864 h 13.8948 v -29.0864 h 29.0401 v -13.8948 Z M 690.757 88.0004 h -20.0548 v -20.1011 h -9.2632 V 88.0004 h -20.0548 v 9.2632 h 20.0548 v 20.0548 h 9.2632 V 97.2636 h 20.0548 v -9.2632 Z M 164.7 817.709 h -15.8401 v -15.8864 h -9.2632 v 15.8864 h -15.8864 v 9.2632 h 15.8864 v 15.8401 h 9.2632 v -15.8401 h 15.8401 v -9.2632 Z M 910.433 661.346 h -17.1832 v -17.1832 h -13.8948 v 17.1832 h -17.1832 v 13.8948 h 17.1832 v 17.1832 h 13.8948 v -17.1832 h 17.1832 v -13.8948 Z" fill="#bbbbbb" p-id="25788"></path><path d="M 738.045 988.105 c 0 23.7138 -85.5919 35.8949 -191.192 35.8949 s -191.285 -12.1811 -191.285 -35.8949 s 85.5919 -35.8949 191.192 -35.8949 s 191.285 12.1348 191.285 35.8949 Z" fill="#c1c1c1" p-id="25789"></path></svg>