<svg xmlns="http://www.w3.org/2000/svg" viewBox="0 0 170.75 260.12"><defs><style>.cls-1{fill:#f4efed;}.cls-2{fill:#423429;}.cls-3{fill:#382b23;}.cls-4{fill:#e2dcd9;}.cls-5{fill:#3f3e3d;}.cls-6{fill:#515151;}.cls-7{fill:#383735;}.cls-8{fill:#f4d3b0;}.cls-9{fill:#f9dab4;}.cls-10{fill:#3a332d;}.cls-11{fill:#e8dfd9;}.cls-12{fill:#4c3626;}.cls-13{fill:#efc4a0;}.cls-14{fill:#7f5732;}</style></defs><title>资源 55</title><g id="图层_2" data-name="图层 2"><g id="Layer_1" data-name="Layer 1"><rect class="cls-1" x="66.48" y="167.39" width="50.89" height="92.73"/><polygon class="cls-2" points="87.47 176.36 72.93 246.1 80.99 260.12 101.46 260.12 110.06 246.28 93.97 176.36 87.47 176.36"/><rect class="cls-3" x="84" y="168.67" width="13.66" height="10.94" rx="3.8"/><polygon class="cls-4" points="70.65 161.34 72.66 189.59 90.58 168.89 109.1 188.83 110.8 161.34 70.65 161.34"/><path class="cls-5" d="M70.83,163.93a28.63,28.63,0,0,0-7.4,2L54,260.12H81.51c4.42-8.26,7.67-19.35,8.15-34.25V206.4A58,58,0,0,0,70.83,163.93Z"/><path class="cls-6" d="M69.06,184.31c2.1,1.15,10.57,0,10.57,0l-4,14.48s12.61-.22,14.06,5.21a58.56,58.56,0,0,0-18.81-40.07S67,183.15,69.06,184.31Z"/><path class="cls-7" d="M31.81,260.12H59.2l6-91L63.43,166C54,168.82,37.62,237.52,31.81,260.12Z"/><path class="cls-7" d="M118,166l-1.81,3.15,6,91h27.39C143.83,237.52,127.47,168.82,118,166Z"/><path class="cls-5" d="M70.83,163.93a28.63,28.63,0,0,0-7.4,2L54,260.12H81.51c4.42-8.26,7.67-19.35,8.15-34.25V206.4A58,58,0,0,0,70.83,163.93Z"/><path class="cls-5" d="M118,166a28.65,28.65,0,0,0-7.41-2A58,58,0,0,0,91.79,206.4v19.47c.47,14.9,3.73,26,8.15,34.25h27.51Z"/><path class="cls-6" d="M69.06,184.31c2.1,1.15,10.57,0,10.57,0l-4,14.48s12.61-.22,14.06,5.21a58.56,58.56,0,0,0-18.81-40.07S67,183.15,69.06,184.31Z"/><path class="cls-6" d="M112.38,184.31c-2.1,1.15-10.57,0-10.57,0l4.06,14.48s-12.62-.22-14.06,5.21a58.58,58.58,0,0,1,18.8-40.07S114.48,183.15,112.38,184.31Z"/><path class="cls-8" d="M29.38,97.53S18.51,87.1,11,93.54s.67,29.29,22.64,39.72Z"/><path class="cls-8" d="M149.59,97.53s10.88-10.43,18.42-4-.66,29.29-22.63,39.72Z"/><rect class="cls-9" x="26.04" y="52.94" width="127.1" height="69.19"/><path class="cls-9" d="M89.59,116.36,26,122.13s.58,44.6,63.55,44.6,63.55-44.6,63.55-44.6Z"/><circle class="cls-10" cx="50.79" cy="108.25" r="8.1" transform="matrix(0.92, -0.38, 0.38, 0.92, -37.56, 27.67)"/><path class="cls-11" d="M53.24,102.93c.23,1.16-1.2,2.43-3.2,2.83s-3.81-.21-4-1.37,1.2-2.43,3.2-2.83S53,101.77,53.24,102.93Z"/><circle class="cls-10" cx="122.97" cy="108.25" r="8.1" transform="matrix(0.92, -0.38, 0.38, 0.92, -32.06, 55.3)"/><path class="cls-11" d="M125.43,102.93c.23,1.16-1.2,2.43-3.2,2.83s-3.81-.21-4-1.37,1.2-2.43,3.2-2.83S125.19,101.77,125.43,102.93Z"/><polygon class="cls-12" points="66.22 87.01 66.22 93.62 41.39 94.67 40.82 85.89 66.22 87.01"/><polygon class="cls-12" points="135.83 87.01 135.83 93.62 111 94.67 110.43 85.89 135.83 87.01"/><path class="cls-13" d="M76,129.27s7.45,8.21,14.89,8.21,14.67-9.09,14.67-9.09-11,6.46-14.78,6.46S76,129.27,76,129.27Z"/><path class="cls-13" d="M90.06,151.29a165.59,165.59,0,0,1-23.41-1.56.77.77,0,0,1-.65-.88.78.78,0,0,1,.89-.64,169.42,169.42,0,0,0,29.73,1.41c15.81-.62,26.53-1.89,27.52-6.11a.78.78,0,0,1,1.51.35c-1.22,5.21-11.55,6.63-29,7.31C94.4,151.25,92.18,151.29,90.06,151.29Z"/><path class="cls-13" d="M130.37,141.86a.77.77,0,0,1-.71-.46c-.66-1.5-1.47-2.36-2.41-2.56a3.6,3.6,0,0,0-2.72.86.77.77,0,1,1-1-1.16,5.1,5.1,0,0,1,4.07-1.21c1.45.31,2.63,1.47,3.5,3.45a.78.78,0,0,1-.4,1A.85.85,0,0,1,130.37,141.86Z"/><path class="cls-14" d="M108.82,53.59S85.43,88.14,51.54,90.3a9.41,9.41,0,0,1,1.58-5.2S40,97.09,30.05,97.53c0,0-.23-4,3.55-8.88A47.78,47.78,0,0,1,.75,97.53S-14.11.11,88.18.11c0,0,90-7.15,75.91,91.5-6.55-.68-10.05,2.56-11,8V85.4S152.61,52.12,108.82,53.59Z"/><path class="cls-12" d="M115.81,53.66h0C120.6,42.47,113.48,33,113.48,33a39.65,39.65,0,0,1-4.66,20.58C111.29,53.51,113.61,53.54,115.81,53.66Z"/></g></g></svg>