<?xml version="1.0" standalone="no"?><!DOCTYPE svg PUBLIC "-//W3C//DTD SVG 1.1//EN" "http://www.w3.org/Graphics/SVG/1.1/DTD/svg11.dtd"><svg t="1548835598960" class="icon" style="" viewBox="0 0 1024 1024" version="1.1" xmlns="http://www.w3.org/2000/svg" p-id="3217" xmlns:xlink="http://www.w3.org/1999/xlink" width="200" height="200"><defs><style type="text/css"></style></defs><path d="M826.1 268.1h-25.2c13.95-13.95 26.1-32.4 26.1-52.2v-4.5c0-15.75 0.9-36.45-22.5-60.3-14.85-14.85-47.25-22.5-64.35-22.5-82.8 0.9-189 111.6-214.65 139.5h-22.5c-25.2-27-133.2-138.6-216.9-139.5-17.55 0-49.5 7.65-64.35 22.5-23.4 23.4-22.5 44.55-22.5 60.3v4.5c0 20.7 12.15 38.25 27 52.2h-27c-38.25 0-69.75 31.5-69.75 69.75v104.85c0 38.25 31.5 69.75 69.75 69.75v313.65c0 38.25 31.5 69.75 69.75 69.75h488.25c38.25 0 69.75-31.5 69.75-69.75V512c38.25 0 69.75-31.5 69.75-69.75V337.85c-0.9-38.7-32.4-69.75-70.65-69.75z m-86.4-104.85c11.25 0 33.3 7.2 38.25 12.15 13.05 13.05 13.05 22.5 12.15 34.65v5.4c0 19.35-30.6 41.85-48.15 52.2h-169.2c44.1-43.2 116.1-103.5 166.95-104.4zM245.15 175.4c6.3-5.4 27.9-12.15 40.05-12.15 51.75 0.9 124.65 61.2 168.3 104.85H288.8c-20.25-8.55-55.8-31.5-55.8-52.2V210.5c0-13.05 0-22.05 12.15-35.1zM163.25 442.25V337.85c0-19.35 15.75-35.1 35.1-35.1h296.55v174.15H198.35c-19.35 0.45-35.1-15.3-35.1-34.65zM233 825.65V512h261.45v348.75H268.1c-19.35 0-35.1-15.75-35.1-35.1z m558 0c0 19.35-15.75 35.1-35.1 35.1h-226.8V512H791v313.65z m69.75-383.4c0 19.35-15.75 35.1-35.1 35.1h-296.55V302.75h296.55c19.35 0 35.1 15.75 35.1 35.1v104.4z" p-id="3218"></path></svg>