<svg xmlns="http://www.w3.org/2000/svg" viewBox="0 0 178.52 260.03"><defs><style>.cls-1{fill:#d88832;}.cls-2{fill:#c17325;}.cls-3{fill:#c66c12;}.cls-4{fill:#f7cea6;}.cls-5{fill:#2f3233;}.cls-6{fill:#bf6710;}.cls-7{fill:#f9f5ed;}.cls-8{fill:#efc19c;}.cls-9{fill:#dd2626;}.cls-10{fill:#e0605c;}.cls-11{fill:#af621c;}</style></defs><title>资源 115</title><g id="图层_2" data-name="图层 2"><g id="Layer_1" data-name="Layer 1"><path class="cls-1" d="M26.76,187.15c-8,28.08-17.55,58.94-21.89,72.88H38.38c6.16-30.33,20-100.93,16.53-105.75C54.91,154.28,37.54,149.44,26.76,187.15Z"/><path class="cls-2" d="M35.59,166.29c2.52,2.3,7.5,9.08,4.09,25-3.12,14.59-10.95,49.3-15.36,68.74H38.38c6.16-30.33,20-100.93,16.53-105.75C54.91,154.28,45.06,151.54,35.59,166.29Z"/><path class="cls-1" d="M149.3,187.15c8,28.08,17.55,58.94,21.89,72.88H137.68c-6.16-30.33-20-100.93-16.53-105.75C121.15,154.28,138.52,149.44,149.3,187.15Z"/><path class="cls-2" d="M140.47,166.29c-2.51,2.3-7.5,9.08-4.09,25,3.12,14.59,11,49.3,15.36,68.74H137.68c-6.16-30.33-20-100.93-16.53-105.75C121.15,154.28,131,151.54,140.47,166.29Z"/><path class="cls-1" d="M63.46,149C48.74,146.21,39,219.37,33.81,260H145.25c-4.55-26.43-14.76-71.8-18-88.56-4-20.67-15.43-22.49-15.43-22.49Z"/><path class="cls-2" d="M67.31,161.14s6.73,8.54,15.47,10.73,23.76-.72,29.79-10.07C103.4,164.57,81.19,157.15,67.31,161.14Z"/><path class="cls-3" d="M72.78,181.37c0-.16,0-.32,0-.48a47.91,47.91,0,0,1,1.64-11.38c.83-3.21,1.64-5.39,1.64-5.39a.62.62,0,0,0-.42-.81.7.7,0,0,0-.86.39h0s-3.35,8.94-3.35,17.19c0,.2,0,.4,0,.59a5.59,5.59,0,1,0,1.35-.11Z"/><path class="cls-3" d="M102.45,181.25c0-.15,0-.3,0-.45a44.84,44.84,0,0,0-2.36-10.48c-1-2.92-1.92-4.9-1.92-4.9a.57.57,0,0,1,.33-.77.64.64,0,0,1,.83.3h0s3.77,8.1,4.38,15.77c0,.18,0,.37,0,.55a5.16,5.16,0,0,1,4.47,4.66,5,5,0,0,1-4.76,5.39,5.17,5.17,0,0,1-5.55-4.69A5,5,0,0,1,102.45,181.25Z"/><path class="cls-3" d="M46.76,256.61a.9.9,0,0,1,.93-.86h0c3.45,0,13.39-2.17,16.06-8.92h0a10.53,10.53,0,0,0,.79-4.05h0a17.63,17.63,0,0,0-3.12-9.2h0c-.35-.52-.56-.79-.56-.79h0a.81.81,0,0,1,.19-1.2h0a1,1,0,0,1,1.3.18h0c0,.07,4,5,4,11h0a12.36,12.36,0,0,1-.9,4.67h0c-3.36,7.89-13.84,10-17.8,10h0a.89.89,0,0,1-.93-.86Z"/><path class="cls-3" d="M123.38,256.29a15.52,15.52,0,0,1-9.74-8h0a12,12,0,0,1-1.38-5.49h0c0-6.55,5.49-10.95,5.54-11h0a1,1,0,0,1,1.31.08h0a.81.81,0,0,1-.07,1.21h0s-.29.24-.75.71h0a15.73,15.73,0,0,0-1.71,2h0a12.23,12.23,0,0,0-2.46,7h0a10.28,10.28,0,0,0,1.19,4.75h0a13.65,13.65,0,0,0,8.64,7.09h0a33.68,33.68,0,0,0,9.78,1h0a.9.9,0,0,1,.93.86h0a.9.9,0,0,1-.93.86h0a35.39,35.39,0,0,1-10.35-1.12Z"/><path class="cls-4" d="M159.7,99.3c6,36.49-30.82,66.81-68.85,66.81S18.35,136.05,22,99.3c1.88-19,9-41.17,27.06-52.28,16.43-10.1,39.85-15.47,59-9.71C138.43,46.46,155.12,71.4,159.7,99.3Z"/><path class="cls-5" d="M111.81,37.47s-13,39.36-90,39.36c0,0,5.73-60.43,83.37-54.7,42.86,5.73,53.41,50.45,53.41,50.45S111.81,65.11,111.81,37.47Z"/><path class="cls-6" d="M50,74.54a3.26,3.26,0,0,1-2.76,3.87h0a3.68,3.68,0,0,1-4.35-2.47L40.11,64.78a3.26,3.26,0,0,1,2.77-3.87h0a3.67,3.67,0,0,1,4.34,2.46Z"/><path class="cls-6" d="M61.26,72.88a3.26,3.26,0,0,1-2.76,3.87h0a3.66,3.66,0,0,1-4.35-2.46L51.36,63.13a3.26,3.26,0,0,1,2.76-3.87h0a3.66,3.66,0,0,1,4.35,2.46Z"/><path class="cls-5" d="M112,90.6s15.67-14.08,27.58.16c0,0,.51-3.71-5.15-7.27-6.1-3.84-15-2.64-20.07,2.05C110.75,88.83,112,90.6,112,90.6Z"/><path class="cls-5" d="M44.09,90.6s15.67-14.08,27.58.16c0,0,.51-3.71-5.14-7.27-6.1-3.84-15-2.64-20.08,2.05C42.87,88.83,44.09,90.6,44.09,90.6Z"/><path class="cls-5" d="M58.33,97.87c-5,0-9.08,3.62-9.08,8.08a7.22,7.22,0,0,0,.17,1.55,4.63,4.63,0,0,1-.82-.32,4,4,0,0,1-2.22-2.9.52.52,0,0,0-.62-.37.47.47,0,0,0-.42.55A5,5,0,0,0,48.09,108a6.77,6.77,0,0,0,1.65.54c.11.27.23.54.36.8a8.05,8.05,0,0,1-2.42.41,5.53,5.53,0,0,1-2.25-.46,5.77,5.77,0,0,1-2.2-1.72.58.58,0,0,0-.74-.1.44.44,0,0,0-.12.66,6.94,6.94,0,0,0,2.59,2,6.75,6.75,0,0,0,2.72.55,9.3,9.3,0,0,0,2.93-.52A9.33,9.33,0,0,0,58.33,114c5,0,9.08-3.61,9.08-8.08S63.35,97.87,58.33,97.87Z"/><path class="cls-7" d="M63,102c1,.87,1.18,2.16.39,2.88a2.54,2.54,0,0,1-3.26-.25,1.93,1.93,0,0,1-.38-2.89A2.54,2.54,0,0,1,63,102Z"/><path class="cls-5" d="M125.92,97.87c5,0,9.08,3.62,9.08,8.08a7.22,7.22,0,0,1-.17,1.55,4.35,4.35,0,0,0,.82-.32,4,4,0,0,0,2.22-2.9.52.52,0,0,1,.62-.37.48.48,0,0,1,.42.55,5,5,0,0,1-2.75,3.55,6.77,6.77,0,0,1-1.65.54c-.11.27-.23.54-.36.8a8.12,8.12,0,0,0,2.43.41,5.52,5.52,0,0,0,2.24-.46,5.87,5.87,0,0,0,2.21-1.72.56.56,0,0,1,.73-.1.44.44,0,0,1,.12.66,7,7,0,0,1-2.59,2,6.7,6.7,0,0,1-2.71.55,9.31,9.31,0,0,1-2.94-.52,9.32,9.32,0,0,1-7.72,3.85c-5,0-9.08-3.61-9.08-8.08S120.9,97.87,125.92,97.87Z"/><path class="cls-7" d="M131.07,102c1,.87,1.18,2.16.39,2.88a2.53,2.53,0,0,1-3.25-.25,1.93,1.93,0,0,1-.39-2.89A2.54,2.54,0,0,1,131.07,102Z"/><path class="cls-8" d="M82.55,122.72a1.09,1.09,0,0,1-.91-1.3h0a10.35,10.35,0,0,1,1.56-3.11h0a7.13,7.13,0,0,1,6.33-3h.2a8.94,8.94,0,0,1,6.1,2.88h0a7.42,7.42,0,0,1,1.54,2.53h0a1.08,1.08,0,0,1-.85,1.34h0a1.24,1.24,0,0,1-1.5-.76h0l0-.1h0l-.18-.4h0a6.67,6.67,0,0,0-.88-1.26h0a6.38,6.38,0,0,0-4.44-2.07h-.11a4.48,4.48,0,0,0-3.78,1.61h0a8.27,8.27,0,0,0-1.52,2.66h0a1.68,1.68,0,0,0,0,.19h0a1.22,1.22,0,0,1-1.27.83h0a.69.69,0,0,1-.2,0Z"/><path class="cls-9" d="M102.73,139.82a5.54,5.54,0,0,0-2-.84c-3.1-.91-3.9-3.53-6.09-2.9s-3.77,3.81-5.8,2.22-3-2.67-5.61-.68c-2.18,1.66-5.62,1-6.22,1.88a.68.68,0,0,0,0,.57,1.89,1.89,0,0,0,.06.18,51.5,51.5,0,0,0,25.61,0l.11-.06C102.85,140.13,102.94,140,102.73,139.82Z"/><path class="cls-10" d="M90.23,145.87c4.2,0,7.87,1.59,9.88,4a15.11,15.11,0,0,0,2.69-8.67c0-.33,0-.65,0-1l-.11.06a51.5,51.5,0,0,1-25.61,0,1.89,1.89,0,0,1-.06-.18c0,.36,0,.72,0,1.09a15.12,15.12,0,0,0,3,9.17C81.85,147.68,85.74,145.87,90.23,145.87Z"/><path class="cls-9" d="M89.86,155.41a12.52,12.52,0,0,0,10.25-5.58c-2-2.37-5.68-4-9.88-4-4.49,0-8.38,1.81-10.27,4.46A12.47,12.47,0,0,0,89.86,155.41Z"/><path class="cls-2" d="M90.85,166.85c19.19,0,22.78-3.54,31.13-6.33,10.07-3.38,17.23-6.19,24.43-13.65,8.78-9.12,17.31-18.69,23.54-29.53,6.62-11.51,7.85-22.48,8.48-35.28,1.67-33.8-19.33-61.28-52.6-74.12A122.33,122.33,0,0,0,98.6.66C72-2.83,51.13,8,32,21.9S-8.3,75.17,3.31,108.77c0,0,12.32,45.5,76,56.91-13.46-8.78-19.65-11.38-29.63-17.06-12.48-7.12-15.77-11.56-19.87-25-3.92-12.82-3.21-27.49-.44-40.44A87.33,87.33,0,0,1,35.54,64c7.89-16.44,24.89-27.19,43.72-28.36,16.32-1,35.46-1,48.63,9.32,7.44,5.85,16.71,13.32,19.69,22,4.95,14.33,5.83,34,4.2,49-2.57,23.69-14.19,33-36.67,40.84C106.77,159.71,104.18,161.57,90.85,166.85Z"/><path class="cls-11" d="M71.43,164c-3.56-3-8.55-7.1-14.25-11.28h0c-26.4-8.64-31-29.4-31-29.4C25,117.62,3.74,75,21.41,129.7c2.05,6.34-4.1,0-9-10.94-3.26-7.21-6.9-9.26-9-9.81C4.22,111.85,16.73,151,71.43,164Z"/><path class="cls-11" d="M166.2,118.58C160.72,129.66,148.8,137,148.8,137c-2.74,7.9-23.51,19.42-47.15,27.48a38.4,38.4,0,0,0-5.53,2.28c14.67-.6,18.34-3.72,25.86-6.23,10.07-3.38,17.23-6.19,24.43-13.65,8.78-9.12,17.31-18.69,23.54-29.53a56.07,56.07,0,0,0,5.4-12.75C173.11,103.35,170.5,109.9,166.2,118.58Z"/></g></g></svg>