<svg xmlns="http://www.w3.org/2000/svg" viewBox="0 0 175.19 260"><defs><style>.cls-1{fill:#f4efed;}.cls-2{fill:#3a332d;}.cls-3{fill:#e2dcd9;}.cls-4{fill:#3f3e3d;}.cls-5{fill:#302f2d;}.cls-6{fill:#515151;}.cls-7{fill:#f9dab4;}.cls-8{fill:#f4e7d7;}.cls-9{fill:#efc4a0;}.cls-10{fill:#4c453f;}.cls-11{fill:#f4d3b0;}.cls-12{fill:#e8dfd9;}</style></defs><title>资源 62</title><g id="图层_2" data-name="图层 2"><g id="Layer_1" data-name="Layer 1"><rect class="cls-1" x="64.58" y="150.73" width="45.7" height="53.18"/><rect class="cls-2" x="82.59" y="156.53" width="9.03" height="10.56" rx="2.04"/><polygon class="cls-2" points="84.36 166.07 69.33 226.26 88.38 241.76 106.63 225.77 89.62 166.07 84.36 166.07"/><polygon class="cls-3" points="62.85 154.02 62.85 175.88 87.38 161.81 109.9 175.88 110.86 153.93 62.85 154.02"/><path class="cls-4" d="M132.15,167.31S121.81,154.06,110,156.86l-3.7,2.24L86.85,195.25,65.68,155.82h-4s-13.95-.18-18.91,11.49-21.62,54.95-21.1,62.51,13.86,20.81,16.89,24.12c0,0-.12,2.51-.2,6.06h94.21c-.79-22-3-51.69-3-51.69L157.69,196Z"/><path class="cls-5" d="M84.07,260h2.78V195.25S82.68,228.6,84.07,260Z"/><path class="cls-5" d="M94.5,203a2.82,2.82,0,1,1-2.82-2.82A2.82,2.82,0,0,1,94.5,203Z"/><circle class="cls-5" cx="91.68" cy="218.74" r="2.82"/><path class="cls-5" d="M94.5,234.5a2.82,2.82,0,1,1-2.82-2.81A2.82,2.82,0,0,1,94.5,234.5Z"/><path class="cls-5" d="M94.5,250.27a2.82,2.82,0,1,1-2.82-2.82A2.82,2.82,0,0,1,94.5,250.27Z"/><path class="cls-6" d="M67.44,159.1S54.1,170.42,58,174.5s12.07,4.76,12.07,4.76l-3,11.25,19.76,4.74Z"/><path class="cls-6" d="M106.26,159.1s13.34,11.32,9.41,15.4-12.08,4.76-12.08,4.76l3,11.25-19.77,4.74Z"/><path class="cls-5" d="M38.57,253.94l6.19-71.78L34.37,249.45C36.21,251.46,37.76,253.06,38.57,253.94Z"/><polygon class="cls-5" points="129.53 208.31 126.38 183.23 133.46 206.6 129.53 208.31"/><path class="cls-7" d="M149.64,194.67c4.76.4,16.59,1.08,19.73,4.58s3,19.29-1.07,22.79-9.24,0-9.24,0a22,22,0,0,1-6.55.27s7.3,4.91,1,8.78c-5.08,3.11-7.13-2.79-11.35-3.05s-16.91,2.85-13.41-12.12c0,0-7.36-5.76,2-13.62S141.31,194,149.64,194.67Z"/><path class="cls-8" d="M135.37,206.3c2.68,0,6.57.22,6.57,3.31,0,1-3.89.55-6.75.4s-5.73,1.17-5.73-.51C129.46,206.74,132.69,206.3,135.37,206.3Z"/><path class="cls-9" d="M152.51,222.31a14.9,14.9,0,0,0,1.77.14c-2.56-1.29-5.64-3.77-4.26-9,1.47-5.58.59-7.93.59-7.93s-.27,2.55-.81,5c-.61,2.84-2,5.37-2.36,7.16l-4.53-1.41a6.68,6.68,0,0,0,2.32-1.37c2.44-2.24,4.76-6.64-4.61-10.08,0,0,6.21,3.27,5.14,6.83s-5.42,3.62-8,3.47a95,95,0,0,0-9.84,0,6.48,6.48,0,0,0,.8.78S142,214.94,152.51,222.31Z"/><path class="cls-9" d="M160.27,221.11c3.17-11.54,1-14.24,1-14.24.67,3.72-.74,10.92-1.56,14a2,2,0,0,1-.64,1.19,6.92,6.92,0,0,0,.62.36A5.48,5.48,0,0,0,160.27,221.11Z"/><path class="cls-10" d="M6.28,91.38S-24.72,0,87.51,0,166.9,92.63,166.9,92.63L88.48,121.29Z"/><path class="cls-11" d="M24.69,97.65S13.6,83.43,3.56,91.17s1.89,42.89,26.36,48.53Z"/><path class="cls-11" d="M150.5,97.65s11.09-14.22,21.13-6.48-1.88,42.89-26.35,48.53Z"/><path class="cls-7" d="M153.31,139.7V86.81a33.82,33.82,0,0,0-49-30.22L87.51,65,70.72,56.59a33.83,33.83,0,0,0-49,30.22V139.7s-3.15,23.2,65.81,23.2S153.31,139.7,153.31,139.7Z"/><path class="cls-10" d="M153.31,139.7V117.54c-2.42.71-5.79,2.62-8.66,7.66-5.14,9-2.38,15.56-14.93,16.69s-17.43-17-42.3-17-29.75,18.09-42.29,17-9.79-7.66-14.94-16.69c-2.8-4.92-6.07-6.86-8.49-7.61V139.7s-2.44,18,44,22.28C57,143.21,82.12,138.84,87.43,138.84s30.48,4.37,21.66,23.16C155.76,157.73,153.31,139.7,153.31,139.7Z"/><path class="cls-9" d="M74,115.4s1.7-12,10.72-11.62,11.15,11.13,11.15,11.13-3.91-7.79-11.27-7.7C77.5,107.29,74,115.4,74,115.4Z"/><path class="cls-9" d="M82.93,155a94.1,94.1,0,0,1-10.59-.56,1.18,1.18,0,0,1,.28-2.34c.16,0,15.49,1.83,28.31-1.44a1.18,1.18,0,1,1,.59,2.29A77.28,77.28,0,0,1,82.93,155Z"/><circle class="cls-2" cx="46.82" cy="99.33" r="8.25"/><path class="cls-12" d="M44.32,93.91c-.24,1.18,1.22,2.47,3.26,2.88s3.88-.21,4.12-1.4-1.22-2.47-3.26-2.88S44.56,92.72,44.32,93.91Z"/><polygon class="cls-2" points="33.05 76.53 33.05 82.8 61.08 84.27 61.08 77.58 33.05 76.53"/><circle class="cls-2" cx="129.53" cy="99.33" r="8.25"/><path class="cls-12" d="M132,93.91c.23,1.18-1.22,2.47-3.26,2.88s-3.89-.21-4.12-1.4,1.22-2.47,3.25-2.88S131.8,92.72,132,93.91Z"/><polygon class="cls-2" points="143.3 76.53 143.3 82.8 115.28 84.27 115.28 77.58 143.3 76.53"/></g></g></svg>