<svg xmlns="http://www.w3.org/2000/svg" viewBox="0 0 175.83 280.98"><defs><style>.cls-1{fill:#f9dab4;}.cls-2{fill:#f7cea6;}.cls-3{fill:#dd491b;}.cls-4{fill:#eb5f24;}.cls-5{fill:#d3cec7;}.cls-6{fill:#eae5dc;}.cls-7{fill:#f9f7f2;}.cls-8{fill:#e5be9e;}.cls-9{fill:#3f2412;}.cls-10{fill:#fff;}.cls-11{fill:#f4c7a2;}.cls-12{fill:#393c3d;}.cls-13{fill:#777;}</style></defs><title>资源 44</title><g id="图层_2" data-name="图层 2"><g id="Layer_1" data-name="Layer 1"><path class="cls-1" d="M153.44,223.46l-18,2.48,12.45,55h18.34C161.41,260.57,153.44,223.46,153.44,223.46Z"/><path class="cls-2" d="M135.43,225.94l12.45,55h.94c-1.54-8.28-3.44-18.94-4.38-23-2.36-10.17-5.85-18.63-1.23-19.95s13.85,1.25,13.85,1.25h0c-2.1-9.17-3.62-15.85-3.62-15.85Z"/><path class="cls-3" d="M150.13,189.36c6.2,15,13.9,44.17,13.9,44.17s-26.52,11.54-32.34,9.11l-13.3-65.08S143.93,174.33,150.13,189.36Z"/><path class="cls-4" d="M130.57,197.88c-2.4,4.18-2.39,12,1.82,28.22,4.11,15.85,7.72,12.51,15.91,10.51s14.15-3.93,12.43-9.59c-7.08-23.33-9.78-28.56-15.74-32C141.8,193.11,133.16,193.35,130.57,197.88Z"/><path class="cls-1" d="M9.15,281H27.49l12.45-55-18-2.48S14,260.57,9.15,281Z"/><path class="cls-2" d="M18.31,239.31h0s9.23-2.56,13.85-1.25,1.13,9.78-1.23,19.95c-.94,4-2.84,14.69-4.38,23h.94l12.45-55-18-2.48S20.41,230.14,18.31,239.31Z"/><path class="cls-3" d="M25.24,189.36c-6.2,15-13.9,44.17-13.9,44.17s26.52,11.54,32.34,9.11L57,177.56S31.44,174.33,25.24,189.36Z"/><path class="cls-4" d="M44.8,197.88c2.4,4.18,2.39,12-1.82,28.22-4.11,15.85-7.72,12.51-15.91,10.51S12.92,232.68,14.64,227c7.08-23.33,9.78-28.56,15.74-32C33.57,193.11,42.21,193.35,44.8,197.88Z"/><rect class="cls-2" x="60.17" y="171.27" width="59.73" height="67.58"/><path class="cls-5" d="M40,281h95.81c-1.21-34.81-11.1-100.28-11.1-100.28l-61.27-1.36-13.1-1.26S43.11,231.66,40,281Z"/><path class="cls-6" d="M124.37,195.54c-1.08-6.53-5.39-5.39-9.24-4.26s-51.88,1-58.65-.42-6.14,2.41-6.14,2.41S46,241.82,44.27,256.9c-.84,7.6-.42,18.87.88,24.08h86.62c3.35-7.79,0-21.64-.78-29.65C129.91,240.55,125.45,202.07,124.37,195.54Z"/><path class="cls-1" d="M156,69.22,22.82,69.07s.66,31.27-1.15,45.77c-1,8.33-.46,15.54-.67,18.81-2,30,29.86,54.71,67.12,54.95s67.64-24,67.83-54.08a83.13,83.13,0,0,0-.47-10c-.25-2.54-.25-5.3-.4-8.43C154.47,102.58,156,69.22,156,69.22Z"/><path class="cls-7" d="M46.74,148.32a1.22,1.22,0,0,1-1.26,1.17l-4.12-.15a1.23,1.23,0,0,1-1.17-1.27h0a1.22,1.22,0,0,1,1.27-1.17l4.1.15a1.22,1.22,0,0,1,1.18,1.27Z"/><path class="cls-7" d="M135.24,148.89a1.22,1.22,0,0,1-1.26,1.17l-4.11-.15a1.23,1.23,0,0,1-1.18-1.27h0a1.22,1.22,0,0,1,1.27-1.17l4.11.15a1.21,1.21,0,0,1,1.17,1.27Z"/><path class="cls-1" d="M147.33,153.91a22.41,22.41,0,0,0,18.83-.25c9.88-4.83,14.75-24.67,2-29.42s-16.75,10-16.75,10Z"/><path class="cls-2" d="M153.28,147.87s4.07-21.73,13.57-14.22c5.84,4.61,2.38,11-3,13.69C160.41,149,156,149.14,153.28,147.87Z"/><path class="cls-8" d="M153.4,147.63l1.41-5.48s18.07-5.16,13,2.09S153.4,147.63,153.4,147.63Z"/><path class="cls-1" d="M28.27,152.66a22.38,22.38,0,0,1-18.82-.49c-9.82-5-14.44-24.86-1.58-29.44s16.62,10.19,16.62,10.19Z"/><path class="cls-2" d="M22.39,146.55S18.61,124.77,9,132.15c-5.9,4.53-2.52,11,2.86,13.73C15.25,147.58,19.67,147.78,22.39,146.55Z"/><path class="cls-8" d="M22.28,146.3l-1.34-5.5s-18-5.38-13,1.93S22.28,146.3,22.28,146.3Z"/><path class="cls-9" d="M132.9,122.8a10.89,10.89,0,1,1-15.09-3A10.89,10.89,0,0,1,132.9,122.8Z"/><path class="cls-10" d="M125.52,120.25c1.08,1.63-.34,4.47-3.17,6.35s-6,2.08-7.07.46.33-4.47,3.16-6.35S124.44,118.63,125.52,120.25Z"/><path class="cls-9" d="M64,120.31a10.88,10.88,0,1,1-15.09-3A10.88,10.88,0,0,1,64,120.31Z"/><path class="cls-10" d="M56.63,117.76c1.08,1.63-.33,4.47-3.16,6.35s-6,2.08-7.07.46.33-4.47,3.16-6.35S55.55,116.14,56.63,117.76Z"/><path class="cls-11" d="M88.44,171.27c-15.93,0-26.12-3.21-26.55-3.35a1.31,1.31,0,1,1,.8-2.5c.1,0,10.26,3.22,25.75,3.22s26-3.19,26.09-3.22a1.31,1.31,0,0,1,.78,2.51C114.87,168.06,104.35,171.27,88.44,171.27Z"/><path class="cls-2" d="M95,141.73v0a27.43,27.43,0,0,1-2,2.65,18.34,18.34,0,0,1-1.85,1.89,7,7,0,0,1-1.92,1.23,1.92,1.92,0,0,1-.72.13,3.61,3.61,0,0,1-1.72-.54A11.19,11.19,0,0,1,84,144.63a16.47,16.47,0,0,1-2.1-3.16.92.92,0,0,0-1.66.81,18.37,18.37,0,0,0,3.37,4.65,11.75,11.75,0,0,0,2.31,1.79,5.45,5.45,0,0,0,2.61.77,3.52,3.52,0,0,0,1.39-.25,8.88,8.88,0,0,0,2.53-1.61,22.72,22.72,0,0,0,2.93-3.2c.75-1,1.21-1.68,1.22-1.7a.92.92,0,0,0-.28-1.27A.93.93,0,0,0,95,141.73Z"/><path class="cls-12" d="M27,80.39S41.48,91.6,89,92.66c47.51-1.06,61.19-12.27,61.19-12.27s.13,7.15,1.76,22.69l12.23-2.41a278,278,0,0,0-7.59-63.1L142.5,35.25,125.31,17.78,118.1,27,88.6,0,59.11,27,51.9,17.78,34.7,35.25,20.63,37.57A278,278,0,0,0,13,100.67L25.1,103C27.26,87.61,27,80.39,27,80.39Z"/><path class="cls-13" d="M153.28,114.53a100.3,100.3,0,0,0,2.39,12.1l6.87-3.33a175.56,175.56,0,0,0,1.63-21.1v-1.53l-12.23,2.41C152.31,107,152.52,110,153.28,114.53Z"/><path class="cls-13" d="M14.49,122l6.54,4.1a105.61,105.61,0,0,0,2.09-10.67c.78-4.91,1.37-8.15,2-12.49L13,100.67v1.53A160.43,160.43,0,0,0,14.49,122Z"/><path class="cls-12" d="M135.18,114.27a4.76,4.76,0,0,1-2.5-.7c-7.9-4.75-18.82-3-18.93-3A4.88,4.88,0,0,1,112,101c.59-.1,14.54-2.48,25.66,4.21a4.87,4.87,0,0,1-2.52,9Z"/><path class="cls-12" d="M41.69,114.27a4.87,4.87,0,0,1-2.52-9c11.13-6.69,25.07-4.31,25.66-4.21a4.87,4.87,0,0,1-1.7,9.6c-.19,0-11-1.8-18.93,3A4.82,4.82,0,0,1,41.69,114.27Z"/></g></g></svg>