<svg xmlns="http://www.w3.org/2000/svg" viewBox="0 0 185.53 260.02"><defs><style>.cls-1{fill:#4c3626;}.cls-2{fill:#e0605c;}.cls-3{fill:#d14e4e;}.cls-4{fill:#f7cea6;}.cls-5{fill:#f9dab4;}.cls-6{fill:#f9f7f2;}.cls-7{fill:#e5be9e;}.cls-8{fill:#f4c7a2;}.cls-9{fill:#2f3233;}</style></defs><title>资源 12</title><g id="图层_2" data-name="图层 2"><g id="Layer_1" data-name="Layer 1"><path class="cls-1" d="M171.34,161.37A683.86,683.86,0,0,1,92,165.77c-45.45,0-77-4.4-77-4.4,2.24-20.3,1.66-30.62.79-49.43H170.55C169.8,129.84,169.34,143.38,171.34,161.37Z"/><path class="cls-2" d="M41,195.77c-4.35,27.78-10,59-11,64.25H54.72c1.37-15.84,7.39-88.2,4.06-92.21C58.78,167.81,45.73,165.34,41,195.77Z"/><path class="cls-3" d="M45.68,178.71c2,1.62,6.21,6.56,5,19.33-1.27,13.7-5,49.65-6.28,62H54.72c1.37-15.84,7.39-88.2,4.06-92.21C58.78,167.81,51.38,166.41,45.68,178.71Z"/><path class="cls-2" d="M145.36,195.09C140.9,164.61,127.82,167,127.82,167c-3.43,4,2.1,79.1,3.16,93.06h24.76C155.25,257.15,149.61,224.22,145.36,195.09Z"/><path class="cls-3" d="M140.8,178c-5.56-12.36-13-11-13-11-3.43,4,2.1,79.1,3.16,93.06h10.29c-1.08-11.6-4.54-48.76-5.69-62.76C134.53,184.48,138.76,179.59,140.8,178Z"/><path class="cls-2" d="M131.67,257.67l-2.22-90.92a174.37,174.37,0,0,0-39.31-4c-5.48,0-11-.24-16.43.58-1.85.27-18.22,3.63-18.2,4.95,0,0,.78,71.37.78,86.93A4.8,4.8,0,0,0,54.77,260H134A4.26,4.26,0,0,0,131.67,257.67Z"/><path class="cls-3" d="M90.14,162.78c-5.48,0-11-.24-16.43.58-.85.13-4.8.91-8.81,1.85a27.83,27.83,0,0,0,5.95,13c3.48,4.09,10.09,9,21.8,9s18.32-4.88,21.8-9a27.93,27.93,0,0,0,6-13.19A187.77,187.77,0,0,0,90.14,162.78Z"/><path class="cls-4" d="M72.72,154.28S68.7,179,92.65,179s19.93-24.68,19.93-24.68Z"/><path class="cls-5" d="M143.94,38.52c-17-7-83.49-4.81-91.56-2.31C12,47.09,22.78,98.59,22.16,108.05c-2.08,31.7,31.5,57.73,70.83,58s71.36-25.3,71.57-57.07C164.56,109,172.45,51.81,143.94,38.52Z"/><path class="cls-1" d="M118,87.34s4.46-2,12.06-1.64c7.35.33,13.47,3.66,13.78,2.08.57-2.82-3.34-7.68-9.41-9.9-5.71-2.08-10.81-.3-14.72,2.59S114.12,88.41,118,87.34Z"/><path class="cls-1" d="M69.34,87.34s-4.46-2-12.06-1.64c-7.34.33-13.47,3.66-13.78,2.08-.56-2.82,3.34-7.68,9.41-9.9,5.71-2.08,10.81-.3,14.72,2.59S73.27,88.41,69.34,87.34Z"/><path class="cls-4" d="M86.52,127.14h0a28.4,28.4,0,0,1,2.11-2.8,18.42,18.42,0,0,1,2-2,7,7,0,0,1,2-1.3,1.94,1.94,0,0,1,.76-.14,3.77,3.77,0,0,1,1.81.57,11.69,11.69,0,0,1,3,2.62,17.35,17.35,0,0,1,2.22,3.33,1,1,0,0,0,1.75-.85,19.26,19.26,0,0,0-3.56-4.91,12,12,0,0,0-2.43-1.89,5.7,5.7,0,0,0-2.76-.81,3.78,3.78,0,0,0-1.47.26,9.46,9.46,0,0,0-2.66,1.7,24.08,24.08,0,0,0-3.1,3.37c-.78,1-1.27,1.78-1.28,1.8a1,1,0,1,0,1.64,1Z"/><path class="cls-6" d="M49.32,127.48A1.3,1.3,0,0,1,48,128.72l-4.34-.16a1.28,1.28,0,0,1-1.24-1.33h0A1.29,1.29,0,0,1,43.74,126l4.34.16a1.29,1.29,0,0,1,1.24,1.34Z"/><path class="cls-6" d="M142.7,128.09a1.28,1.28,0,0,1-1.33,1.23l-4.33-.16a1.28,1.28,0,0,1-1.24-1.33h0a1.29,1.29,0,0,1,1.33-1.25l4.34.16a1.29,1.29,0,0,1,1.23,1.35Z"/><path class="cls-5" d="M155.46,129.43a23.62,23.62,0,0,0,19.87-.26c10.42-5.1,15.57-26,2.06-31s-17.68,10.53-17.68,10.53Z"/><path class="cls-4" d="M161.75,123.06s4.29-22.94,14.31-15c6.16,4.86,2.51,11.66-3.21,14.45C169.26,124.24,164.6,124.4,161.75,123.06Z"/><path class="cls-7" d="M161.87,122.8l1.49-5.78s19.07-5.44,13.72,2.21S161.87,122.8,161.87,122.8Z"/><path class="cls-5" d="M29.83,128.11A23.59,23.59,0,0,1,10,127.59C-.39,122.36-5.26,101.36,8.31,96.53s17.54,10.75,17.54,10.75Z"/><path class="cls-4" d="M23.63,121.66s-4-23-14.13-15.19c-6.22,4.78-2.65,11.63,3,14.48C16.09,122.75,20.75,123,23.63,121.66Z"/><path class="cls-7" d="M23.51,121.4l-1.42-5.8s-19-5.69-13.74,2S23.51,121.4,23.51,121.4Z"/><path class="cls-1" d="M166.51,32C153.22,12.25,135.31,0,93.34,0S35.42,10.24,21.2,30.33c-6.92,9.78-8.36,25.78-8.36,39.93,0,17.31,1.66,25.4,1.66,25.4,3.19.49,6,2.49,8.51,5.54.24-11.6,6.92-46.34,6.92-46.34C50,57,138.17,56,157.79,55.11c0,0,5.1,31.88,5.83,46.23a14.15,14.15,0,0,1,8.79-4.21s1.43-9.56,1.43-26.87C173.84,56.11,173.19,42,166.51,32Z"/><path class="cls-8" d="M93.4,150.42a62.67,62.67,0,0,1-6.91-.39,60.2,60.2,0,0,1-14.85-3.51,1.38,1.38,0,1,1,1-2.56c.28.12,23.36,9.33,43.55-1.88a1.38,1.38,0,1,1,1.34,2.42A49.58,49.58,0,0,1,93.4,150.42Z"/><path class="cls-1" d="M149.07,18.71H37.89s-23,32.94-23,42.64a17.57,17.57,0,0,0,33.2,8,17.56,17.56,0,0,0,22.29-6.69A17.54,17.54,0,0,0,94,60.09a17.54,17.54,0,0,0,22.9,3.08,17.55,17.55,0,0,0,22,6.18,17.57,17.57,0,0,0,33.2-8C172.07,51.65,149.07,18.71,149.07,18.71Z"/><path class="cls-9" d="M47,97.54a1.73,1.73,0,0,1,1.88,1.54c0,.69.3,6.88,8.44,6.88,8.34,0,8.44-6.6,8.44-6.88a1.92,1.92,0,0,1,3.77,0c0,3.44-2.56,10-12.21,10s-12.2-6.51-12.2-10A1.73,1.73,0,0,1,47,97.54Z"/><path class="cls-9" d="M118.73,97.54a1.73,1.73,0,0,1,1.88,1.54c0,.69.3,6.88,8.44,6.88,8.35,0,8.44-6.6,8.44-6.88a1.92,1.92,0,0,1,3.77,0c0,3.44-2.55,10-12.21,10s-12.2-6.51-12.2-10A1.73,1.73,0,0,1,118.73,97.54Z"/></g></g></svg>