<svg xmlns="http://www.w3.org/2000/svg" viewBox="0 0 171.67 260"><defs><style>.cls-1{fill:#7f5732;}.cls-2{fill:#563a28;}.cls-3{fill:#f9f5ed;}.cls-4{fill:#8c6244;}.cls-5{fill:#515151;}.cls-6{fill:#f4d3b0;}.cls-7{fill:#f9dab4;}.cls-8{fill:#efc4a0;}.cls-9{fill:#3a332d;}.cls-10{fill:#e8dfd9;}</style></defs><title>资源 281</title><g id="图层_2" data-name="图层 2"><g id="Layer_1" data-name="Layer 1"><path class="cls-1" d="M.12,260H40.46L51.74,159.5S29.9,173.67,17.56,195.58C4.13,219.41.12,241.66.12,260Z"/><path class="cls-2" d="M29.06,260l6.87-58.19S28.27,225.56,22.48,260Z"/><path class="cls-1" d="M170.47,260H130.13L118.85,159.5s21.84,14.17,34.18,36.08C166.46,219.41,170.47,241.66,170.47,260Z"/><path class="cls-2" d="M141.53,260l-6.87-58.19s7.66,23.75,13.45,58.19Z"/><rect class="cls-3" x="61.42" y="154.77" width="48.53" height="31.51"/><path class="cls-1" d="M59,156.69H52.24C38.35,177.32,31,221.58,27.56,260H143.3c-3.39-38.42-10.79-82.68-24.68-103.31h-6.78L85.43,178.81Z"/><path class="cls-4" d="M58.36,159.5s-11.52,16.41-2.68,24.93,29.75-5.62,29.75-5.62L59.86,157.39Z"/><path class="cls-4" d="M112.51,159.5s11.52,16.41,2.68,24.93-29.75-5.62-29.75-5.62L111,157.39Z"/><path class="cls-2" d="M82.16,260h3.27V178.81C82.76,207.62,82,235.78,82.16,260Z"/><path class="cls-5" d="M6.25,106.75S-28.18,0,85.43,0,166,106.75,166,106.75Z"/><path class="cls-6" d="M19.17,103.41s-6.82-6-14.83-2.38-8.95,41.13,31.34,41.41Z"/><path class="cls-6" d="M152.5,103.41s6.82-6,14.83-2.38,8.95,41.13-31.34,41.41Z"/><path class="cls-7" d="M86.2,167H84.67A75.76,75.76,0,0,1,8.9,91.25v-38H162v38A75.76,75.76,0,0,1,86.2,167Z"/><path class="cls-8" d="M83.91,154.19a90.26,90.26,0,0,1-16.67-1.58,1.68,1.68,0,0,1,.68-3.29c.27.06,26.44,5.32,39.25-4.33a1.68,1.68,0,0,1,2,2.68C102.32,152.84,92.39,154.19,83.91,154.19Z"/><path class="cls-8" d="M78.83,128.91s1.37-4.35,7.15-4.48,7.16,4.48,7.16,4.48S91,126.67,86,126.67,78.83,128.91,78.83,128.91Z"/><circle class="cls-9" cx="49" cy="113.3" r="9.6"/><path class="cls-10" d="M50.59,106.61c.24,1.17-1.2,2.43-3.2,2.84s-3.82-.21-4-1.37,1.2-2.43,3.2-2.84S50.36,105.45,50.59,106.61Z"/><circle class="cls-9" cx="123.71" cy="113.3" r="9.6"/><path class="cls-10" d="M125.3,106.61c.23,1.17-1.2,2.43-3.2,2.84s-3.82-.21-4-1.37,1.2-2.43,3.2-2.84S125.07,105.45,125.3,106.61Z"/><path class="cls-5" d="M6.48,57.23S23.21,93.39,53.78,97.1a15.55,15.55,0,0,1-2.36-7.94s26.86,16,53.72,13c0,0-4.9-3.71-4.9-6.42,0,0,14.87,9.79,46.46,4.14,0,0-3.71-2.45-3.55-5.66,0,0,10.65,3.21,20.95,2l-.84-45.11H6.48Z"/></g></g></svg>