<svg xmlns="http://www.w3.org/2000/svg" viewBox="0 0 188.01 259.93"><defs><style>.cls-1{fill:#e8e3d9;}.cls-2{fill:#d3ccc1;}.cls-3{fill:#f9f5ed;}.cls-4{fill:#393c3d;}.cls-5{fill:#d8d4cb;}</style></defs><title>资源 296</title><g id="图层_2" data-name="图层 2"><g id="Layer_1" data-name="Layer 1"><path class="cls-1" d="M5.78,259.93h29l2-111.1S11.62,173.26,5.78,259.93Z"/><rect class="cls-2" x="31.49" y="158.25" width="5.86" height="28.67" rx="2.9" transform="matrix(0.26, -0.97, 0.97, 0.26, -141.23, 161.79)"/><rect class="cls-2" x="28.9" y="165.88" width="5.86" height="28.67" rx="2.9" transform="translate(-150.67 166.6) rotate(-75.71)"/><path class="cls-2" d="M39.51,193.65,17.3,188.2a2.9,2.9,0,0,1-2.13-3.51l0-.05a2.89,2.89,0,0,1,3.5-2.13L40.9,188A2.91,2.91,0,0,1,43,191.46l0,.06A2.89,2.89,0,0,1,39.51,193.65Z"/><rect class="cls-2" x="24.17" y="181.95" width="5.86" height="28.67" rx="2.9" transform="translate(-170.3 179.12) rotate(-77.17)"/><rect class="cls-2" x="21.32" y="190.12" width="5.86" height="28.67" rx="2.9" transform="translate(-180.67 184.61) rotate(-77.71)"/><path class="cls-1" d="M128.7,148.83l2.06,111.1h29C153.9,173.26,128.7,148.83,128.7,148.83Z"/><rect class="cls-2" x="116.77" y="169.65" width="28.67" height="5.86" rx="2.9" transform="matrix(0.97, -0.26, 0.26, 0.97, -39.72, 39.2)"/><rect class="cls-2" x="119.36" y="177.29" width="28.67" height="5.86" rx="2.9" transform="translate(-40.34 38.56) rotate(-14.29)"/><path class="cls-2" d="M126,193.65l22.21-5.45a2.9,2.9,0,0,0,2.12-3.51v-.05a2.9,2.9,0,0,0-3.51-2.13L124.62,188a2.9,2.9,0,0,0-2.12,3.51v.06A2.9,2.9,0,0,0,126,193.65Z"/><rect class="cls-2" x="124.09" y="193.36" width="28.67" height="5.86" rx="2.9" transform="translate(-40.13 35.64) rotate(-12.83)"/><rect class="cls-2" x="126.94" y="201.52" width="28.67" height="5.86" rx="2.9" transform="translate(-40.29 34.77) rotate(-12.29)"/><path class="cls-3" d="M37,148s-10.29,45.51-12.14,112H140.65c-1.85-66.46-12.13-112-12.13-112H37Z"/><polygon class="cls-1" points="82.46 147.96 80.56 147.96 80.56 259.93 85.56 259.93 85.56 147.96 83.06 147.96 82.46 147.96"/><rect class="cls-1" x="95.58" y="182.43" width="30.23" height="13.86"/><circle class="cls-3" cx="83.06" cy="83.06" r="83.06" transform="translate(-34.4 83.06) rotate(-45)"/><path class="cls-4" d="M148.7,43.68H17.42c-4.26,31.51-2,62.45,2,92.71a83,83,0,0,0,126.33,1.19C149.58,106.73,152.38,75.43,148.7,43.68Z"/><path class="cls-5" d="M149.63,53.47,86.74,166a81.5,81.5,0,0,0,13.81-1.77L150.42,75C150.42,67.87,150.18,60.68,149.63,53.47Z"/><path class="cls-5" d="M139.43,43.68H95.24L35.28,151a82.58,82.58,0,0,0,36.18,14.32Z"/><path class="cls-5" d="M173.22,109.67a53,53,0,0,0-13.58-6.9c-5.33,3-6.94,9.41-5,16h0c.17,0,16.64,5.5,16.64,16.73,0,8.75-6.73,15.79-20,20.91a90.23,90.23,0,0,1-14.51,4.14c1.05,1.93,2.16,4.14,3.31,6.63l1.41-.37a2.9,2.9,0,0,1,3.55,2.06V169a2.89,2.89,0,0,1-2.06,3.54l-.56.15c.28.69.57,1.4.85,2.13l.85-.21a2.88,2.88,0,0,1,2.87.87,103,103,0,0,0,10-3.19c8.54-3.26,15.45-7.42,20.54-12.39,7-6.83,10.57-15,10.57-24.34C188,125.45,182.89,116.51,173.22,109.67Z"/></g></g></svg>