<svg xmlns="http://www.w3.org/2000/svg" viewBox="0 0 197.65 308.88"><defs><style>.cls-1{fill:#f9dab4;}.cls-2{fill:#efc4a0;}.cls-3{fill:#4d9980;}.cls-4{fill:#3f3e3d;}.cls-5{fill:#4c3626;}.cls-6{fill:#7f5732;}.cls-7{fill:#515151;}.cls-8{fill:#f4d3b0;}.cls-9{fill:#3a332d;}.cls-10{fill:#c65044;}</style></defs><title>资源 287</title><g id="图层_2" data-name="图层 2"><g id="Layer_1" data-name="Layer 1"><path class="cls-1" d="M65.58,207.7s-27.12-22-36.44-53.85C19.7,121.55,28,79.33,19.52,74.48,9.68,68.86-8.13,121.66,4.19,168.59c8.75,33.32,43,63,59.87,69.74Z"/><path class="cls-1" d="M132.07,207.7s27.12-22,36.44-53.85c9.44-32.3,1.14-74.52,9.62-79.37,9.84-5.62,27.65,47.18,15.33,94.11-8.75,33.32-43,63-59.87,69.74Z"/><path class="cls-1" d="M134.19,198.16l-35.37.72-35.36-.72s-2.59,15.62-4.86,37.52c-2.22,21.32-4.14,48.59-3.1,73.2h86.65c1-24.61-.89-51.88-3.1-73.19C136.77,213.78,134.19,198.16,134.19,198.16Z"/><path class="cls-2" d="M23.34,85a74.1,74.1,0,0,0-9.07,31.83c-.89,20.8,6,29.88,6,29.88A88.09,88.09,0,0,0,21,160.12c2.21,14.75,17.27,22,17.27,22,4.54,10.58,17,26.74,33.76,32.9l4.21-12.76Z"/><path class="cls-2" d="M174.31,85a74.19,74.19,0,0,1,9.08,31.83c.88,20.8-6,29.88-6,29.88a86.79,86.79,0,0,1-.68,13.37c-2.21,14.75-17.27,22-17.27,22-6.76,18.71-23.46,28.08-33.7,32.9l-3.85-11.61Z"/><path class="cls-3" d="M141.7,268.7c-.63-11.58-1.63-23.11-2.65-33-9.7-7.24-13.64-21.38-16.33-37.53l-23.9.72-23.89-.72c-2.79,17-7,31.45-16.33,37.52-1,10-2,21.29-2.65,33A459.14,459.14,0,0,0,141.7,268.7Z"/><circle class="cls-2" cx="98.91" cy="209.78" r="17.06"/><path class="cls-4" d="M92.85,27.32S81.62,9.43,100.54,2.26c20-7.57,28.16,5.61,32.16,14s14.46,31.77,23.14,27.19c6.53-3.46,3.41-10.72,3.41-10.72s7.26,9.18,3.86,13.77c0,0,2.93-1.44,3.65-3,0,0,8.91,13.22-8.16,19.62s-38-7.22-44.15-21.93L107,25.8Z"/><path class="cls-5" d="M108.11,96H89.54V15.82a25.74,25.74,0,0,1,18.57,0Z"/><path class="cls-6" d="M118,54.58H79.65V44.06a6.43,6.43,0,0,1,5.2-6.3,71.55,71.55,0,0,1,28,0A6.43,6.43,0,0,1,118,44Z"/><path class="cls-7" d="M165.62,72.2c-13.82-14.65-28.14-23.83-66.8-23.83h0c-38.65,0-53,9.18-66.8,23.83-22.54,23.91-17.49,72.13-5.41,75.61H171C183.11,144.33,188.17,96.11,165.62,72.2Z"/><path class="cls-8" d="M40.39,147.28s-2.27-7.9-10.3-6.94c-8.45,1-14.3,30.71,14.33,38.51Z"/><path class="cls-8" d="M157.09,147.28s2.28-7.9,10.31-6.94c8.45,1,14.3,30.71-14.34,38.51Z"/><path class="cls-1" d="M160.69,158.16A57,57,0,0,1,109.85,215a104.74,104.74,0,0,1-11,.59c-3.51,0-7-.19-10.33-.52A57.18,57.18,0,0,1,37,158.15V89H160.69Z"/><path class="cls-7" d="M174.48,125.16,169,81.06H28.7l-5.54,44.1,13.8,17s-1.94-26.5,9.8-37.34c19.35-17.86,43.05-9.93,52.06.91h0c9-10.84,32.71-18.77,52.07-.91,11.74,10.84,9.8,37.34,9.8,37.34Z"/><path class="cls-9" d="M63.46,152.16H63c-7.9-.27-10-8-9.94-12.1a1.53,1.53,0,0,1,1.53-1.52h0a1.53,1.53,0,0,1,1.53,1.53c0,.36.07,8.8,7,9,7.16.25,8.85-6.82,8.92-7.12a1.53,1.53,0,0,1,3,.68C74.26,146,70.87,152.16,63.46,152.16Z"/><path class="cls-9" d="M134.94,152.16c-7.41,0-10.8-6.18-11.55-9.51a1.53,1.53,0,0,1,3-.68c.07.3,1.81,7.35,8.92,7.12,6.91-.23,7-8.67,7-9a1.53,1.53,0,0,1,1.52-1.53h0a1.54,1.54,0,0,1,1.54,1.52c0,4.07-2,11.83-9.94,12.1Z"/><path class="cls-10" d="M85.06,179.51s3.52-5.29,7.58-5,6.26,4.14,6.26,4.14,3.65-4,7.92-4,6.13,5.29,6.13,5.29-4.24,9.89-14.36,9.89S85.06,179.51,85.06,179.51Z"/><path class="cls-2" d="M92,162.48s.7-6.25,6.72-6.27,7.25,6.27,7.25,6.27-3.29-3.85-7.14-3.85S92,162.48,92,162.48Z"/></g></g></svg>