<svg xmlns="http://www.w3.org/2000/svg" viewBox="0 0 158.01 260.54"><defs><style>.cls-1{fill:#393c3d;}.cls-2{fill:#39788e;}.cls-3{fill:#f4d3b0;}.cls-4{fill:#f9dab4;}.cls-5{fill:#e8dfd9;}.cls-6{fill:#efc4a0;}</style></defs><title>资源 198</title><g id="图层_2" data-name="图层 2"><g id="Layer_1" data-name="Layer 1"><path class="cls-1" d="M34.78,182.41c-9.41,26-17.12,45.73-17.88,56.41-.2,2.82-1.85,12.66-1.44,21.72H40.92A125.34,125.34,0,0,0,47,242.16L54.39,156S44.19,156.41,34.78,182.41Z"/><path class="cls-1" d="M126.19,182.41c9.42,26,17.12,45.73,17.89,56.41.2,2.82,1.84,12.66,1.43,21.72H120.05a125.34,125.34,0,0,1-6.1-18.38L106.58,156S116.78,156.41,126.19,182.41Z"/><path class="cls-2" d="M52,152.7s-19.2,87.4-15.36,107.84h87.22c3.84-20.44-15.36-107.84-15.36-107.84Z"/><polygon class="cls-1" points="91.61 187.81 90.14 161.91 92.49 161.78 93.96 187.68 91.61 187.81"/><path class="cls-1" d="M97.49,189.05a4.27,4.27,0,1,1-4.27-4.22A4.24,4.24,0,0,1,97.49,189.05Z"/><polygon class="cls-1" points="68.95 187.81 70.42 161.91 68.07 161.78 66.6 187.68 68.95 187.81"/><path class="cls-1" d="M63.07,189.05a4.27,4.27,0,1,0,4.27-4.22A4.24,4.24,0,0,0,63.07,189.05Z"/><path class="cls-1" d="M2.41,102.47S-10.93,34.18,29.48,25.26c0,0,12.16-19.79,39.61-23.67s71.12-3.49,77.66,34.92c0,0,9,2.33,10.59,19.4s-2.35,52-2.35,52Z"/><path class="cls-3" d="M19.9,103.21S11.9,93.49,3,98,6.41,132.11,24,134.52Z"/><path class="cls-3" d="M138.12,103.21s8-9.72,16.92-5.2-3.43,34.1-21,36.51Z"/><path class="cls-4" d="M148,82.81,134.74,50.87l-50.6-1.55h-8.9l-50.6,1.55L9.82,82.81S8.17,115.67,26.21,137c15.85,18.74,33.81,27.6,49.65,29.22a23.1,23.1,0,0,0,3.83.24,23.1,23.1,0,0,0,3.83-.24c15.83-1.62,33.8-10.48,49.65-29.22C151.22,115.67,148,82.81,148,82.81Z"/><path class="cls-1" d="M137.11,107.91s-9.33,30-24.79,30-13.59-9.23-21.85-10c-2.07-.2-4.17-.35-6.13-.46a32.13,32.13,0,0,0-5.33-.23,32.13,32.13,0,0,0-5.33.23c-2,.11-4.06.26-6.13.46-8.26.79-6.4,10-21.86,10s-24.79-30-24.79-30H12.46c2.24,9.59,6.33,20.32,13.75,29.1,15.85,18.74,33.81,27.6,49.65,29.22a23.1,23.1,0,0,0,3.83.24,23.1,23.1,0,0,0,3.83-.24c15.83-1.62,33.8-10.48,49.65-29.22,7.43-8.78,11.25-19.51,13.18-29.1Z"/><path class="cls-1" d="M137.11,107.91s-9.33,30-24.79,30-13.59-9.23-21.85-10c-2.07-.2-4.17-.35-6.13-.46a32.13,32.13,0,0,0-5.33-.23,32.13,32.13,0,0,0-5.33.23c-2,.11-4.06.26-6.13.46-8.26.79-6.4,10-21.86,10s-24.79-30-24.79-30H12.46c2.24,9.59,6.33,20.32,13.75,29.1,15.85,18.74,33.81,27.6,49.65,29.22a23.1,23.1,0,0,0,3.83.24,23.1,23.1,0,0,0,3.83-.24c15.83-1.62,33.8-10.48,49.65-29.22,7.43-8.78,11.25-19.51,13.18-29.1Z"/><path class="cls-4" d="M99.16,147.1c-2.06-3.79-8.56-8.44-15.9-8.15-1.65.06-6.86.06-8.5,0-7.34-.29-13.84,4.36-15.9,8.15-1.26,2.31-1.75,9-1.94,13.9a61.49,61.49,0,0,0,18.94,5.23,23.1,23.1,0,0,0,3.83.24,23.1,23.1,0,0,0,3.83-.24,61.12,61.12,0,0,0,17.6-4.65C100.94,156.66,100.47,149.5,99.16,147.1Z"/><path class="cls-1" d="M13.6,110.62c4.21,9.75,8,5.25,8.58-12.41a195.07,195.07,0,0,0-.58-23.32S41,78.77,44.46,57c0,0,33.72,5.43,41.85-2.71,0,0,3.49,7,10.08,1.94,0,0,3.49,5,8.91,1.55,0,0,6.2,4.65,10.47.77,0,0,6.58,6.6,10.85.39,0,0-1.17,4.27,5,4.27,0,0-9.19,10.07,5.43,12.42a161.46,161.46,0,0,0-1,21.14c.28,7.82,1.54,16.06,5.32,15.66,13.53-1.46,7.24-60.24,7.24-60.24L110.34,29.49H49.11L16.17,52.76,7.87,68.52S7.92,97.45,13.6,110.62Z"/><polygon class="cls-1" points="28.98 89.29 30.65 96.81 59.47 91.84 57.93 81.71 28.98 89.29"/><polygon class="cls-1" points="129.28 89.44 127.01 96.81 98.68 89.55 101.06 79.57 129.28 89.44"/><path class="cls-1" d="M53.5,105.55a6.09,6.09,0,1,1-6.08-6A6.05,6.05,0,0,1,53.5,105.55Z"/><path class="cls-5" d="M48.42,101.36c.15.73-.76,1.53-2,1.78s-2.42-.13-2.57-.86.76-1.52,2-1.78S48.28,100.64,48.42,101.36Z"/><path class="cls-1" d="M116.94,105.55a6.09,6.09,0,1,1-6.09-6A6.06,6.06,0,0,1,116.94,105.55Z"/><path class="cls-5" d="M111.86,101.36c.14.73-.77,1.53-2,1.78s-2.42-.13-2.56-.86.76-1.52,2-1.78S111.71,100.64,111.86,101.36Z"/><path class="cls-6" d="M87.17,117.92s-1.57-5-6.62-5.29-7.19,6.09-7.19,6.09,3.17-4.76,7.18-4.31A11.21,11.21,0,0,1,87.17,117.92Z"/><path class="cls-6" d="M79.41,154.51a46.93,46.93,0,0,1-14.76-2.64.5.5,0,1,1,.36-.94,45.31,45.31,0,0,0,14.4,2.58,45.47,45.47,0,0,0,14.4-2.58.5.5,0,0,1,.64.29.5.5,0,0,1-.29.65A46.91,46.91,0,0,1,79.41,154.51Z"/></g></g></svg>