<svg xmlns="http://www.w3.org/2000/svg" viewBox="0 0 152 260.12"><defs><style>.cls-1{fill:#f9dab4;}.cls-2{fill:#438970;}.cls-3{fill:#e0dbd3;}.cls-4{fill:#7f5732;}.cls-5{fill:#efc4a0;}.cls-6{fill:#4c3626;}.cls-7{fill:#f4d3b0;}.cls-8{fill:#3a332d;}.cls-9{fill:#492020;}.cls-10{fill:#c65044;}</style></defs><title>资源 337</title><g id="图层_2" data-name="图层 2"><g id="Layer_1" data-name="Layer 1"><path class="cls-1" d="M111.57,195.38l-13,3.43,10.09,61.31h14.15C120,232.63,111.57,195.38,111.57,195.38Z"/><path class="cls-1" d="M22.35,260.12H36.51L46.6,198.81l-13-3.43S25.19,232.63,22.35,260.12Z"/><path class="cls-2" d="M100.61,159.08s20.88,8.22,28.25,36.3c0,0-10.69,7.53-32.25,8.68L93,161.17Z"/><path class="cls-2" d="M44.57,159.08s-20.88,8.22-28.25,36.3c0,0,10.7,7.53,32.26,8.68l3.57-42.89Z"/><path class="cls-3" d="M98.47,160H46.71s-5.21,15.72-8.82,42a368.88,368.88,0,0,0-3.28,58.13h76A368.88,368.88,0,0,0,107.29,202C103.68,175.72,98.47,160,98.47,160Z"/><path class="cls-2" d="M110.56,244.44c-.16-7.6-.51-14.86-1-21.64H35.66c-.53,6.78-.88,14-1,21.65Z"/><rect class="cls-2" x="82.41" y="184.65" width="18.72" height="6.62"/><path class="cls-4" d="M91,165.36C91,171.21,84.91,179,72.59,179c-13,0-18.42-7.79-18.42-13.64s8.24-7.53,18.42-7.53S91,159.52,91,165.36Z"/><path class="cls-5" d="M86,165.67c0,5.25-6,9.51-13.42,9.51s-13.42-4.26-13.42-9.51,6-9.5,13.42-9.5S86,160.43,86,165.67Z"/><path class="cls-6" d="M73.93,0H71.26C30.34.68,0,27.89,0,61.38a54.89,54.89,0,0,0,.93,10l4.28,46H42.12a85.84,85.84,0,0,0,29.14,5.44h0c.37,0,.73,0,1.11,0h.45c.37,0,.74,0,1.11,0h0a85.82,85.82,0,0,0,29.13-5.44h36.88l4.28-45.95a54,54,0,0,0,.93-10C145.15,27.89,114.85.68,73.93,0Z"/><path class="cls-7" d="M19.58,117.39s-7.88-9.68-16.66-5.18,3.38,33.91,20.71,36.3Z"/><path class="cls-7" d="M125.61,117.39s7.87-9.68,16.65-5.18-3.38,33.91-20.7,36.3Z"/><path class="cls-1" d="M16,75.56v57.17A28,28,0,0,0,27,155s17.69,12.71,45.64,12.25S118.22,155,118.22,155a27.94,27.94,0,0,0,10.95-22.23V75.56Z"/><path class="cls-6" d="M135.22,35.81s2.51-10.27,1.14-17.58c0,0,6.17,5.71,5.71,16.21L152,28.13a36.49,36.49,0,0,1-6.12,14.76s4.18,8,3.27,12.55a24.51,24.51,0,0,0-12.1-8.67Z"/><path class="cls-5" d="M83.24,130.5s-2.42-7.74-10.21-8.24-11.09,9.48-11.09,9.48S66.84,124.33,73,125A17.29,17.29,0,0,1,83.24,130.5Z"/><path class="cls-6" d="M48.9,91.69c2.68,1.88,2.94,12.42,2.94,12.42H22.53s.28-9.5,2.63-12.76S46.23,89.81,48.9,91.69Z"/><path class="cls-6" d="M96.28,91.69c-2.68,1.88-2.94,12.42-2.94,12.42h29.32s-.28-9.5-2.64-12.76S99,89.81,96.28,91.69Z"/><path class="cls-8" d="M31.12,120.83a1.69,1.69,0,0,1-1.68-1.53,9.07,9.07,0,0,1,6.84-9.42c5.92-1.74,10.29,2.86,11.77,5.53a1.69,1.69,0,1,1-2.95,1.64c-.12-.21-3.07-5.33-7.87-3.92A5.67,5.67,0,0,0,32.8,119a1.68,1.68,0,0,1-1.52,1.84Z"/><path class="cls-8" d="M114.07,120.83h-.16a1.68,1.68,0,0,1-1.53-1.83,5.66,5.66,0,0,0-4.43-5.86c-4.79-1.41-7.74,3.71-7.87,3.93a1.69,1.69,0,0,1-3-1.65c1.49-2.67,5.86-7.27,11.77-5.53a9.08,9.08,0,0,1,6.85,9.42A1.69,1.69,0,0,1,114.07,120.83Z"/><path class="cls-9" d="M49.38,143H95.8s.79,17.87-23.21,18.17S49.38,143,49.38,143Z"/><path class="cls-10" d="M59.37,158.71a29.68,29.68,0,0,0,13.22,2.46,31,31,0,0,0,13.18-2.69,13.39,13.39,0,0,0-26.4.23Z"/></g></g></svg>