<svg xmlns="http://www.w3.org/2000/svg" viewBox="0 0 223.83 280.18"><defs><style>.cls-1{fill:#6b4627;}.cls-2{fill:#7f5732;}.cls-3{fill:#3a332d;}.cls-4{fill:#f2d0af;}.cls-5{fill:#c65044;}.cls-6{fill:#ddb58e;}.cls-7{fill:#e2963b;}</style></defs><title>资源 236</title><g id="图层_2" data-name="图层 2"><g id="Layer_1" data-name="Layer 1"><path class="cls-1" d="M99.41,190.64S87,197.93,78.92,280.18H106.7C108.46,247,110.26,186.12,99.41,190.64Z"/><path class="cls-1" d="M180,190.64s12.41,7.29,20.49,89.54H172.73C171,247,169.18,186.12,180,190.64Z"/><path class="cls-2" d="M172.76,186.54H107.69s-11.75,0-12.46,16.39c-.41,9.53-.26,47.29-.06,77.25h90.11c.2-30,.34-67.72-.07-77.25C184.51,186.54,172.76,186.54,172.76,186.54Z"/><path class="cls-3" d="M169.34,170l-29.12,6.67L111.1,170s-6.83,15.42-3.08,19.47,9.62,5.63,31.25,6v0l.95,0,.95,0v0c21.63-.4,27.61-2.1,31.25-6S169.34,170,169.34,170Z"/><path class="cls-2" d="M10.05,141.76a5.09,5.09,0,0,1-5,5.15,5.15,5.15,0,0,1,0-10.29A5.08,5.08,0,0,1,10.05,141.76Z"/><path class="cls-1" d="M90.66,155.05s-56.24,9.32-75.85-5.79S2.6,80.17,59.48,35.18s97.06-46.6,136.27-6.11S226,129.66,211.49,144.12Z"/><path class="cls-4" d="M163.11,63.58l-22.65-.39L116.6,64.72,66.34,115c3.93,32.13,20.2,68.87,74.12,68.87,53.07,0,69.49-36.64,73.59-69.33Z"/><path class="cls-3" d="M178.62,149.76h0a1.28,1.28,0,0,1-1.28-1.29c0-.3-.07-7.36-5.85-7.56-6-.2-7.41,5.71-7.46,6a1.28,1.28,0,0,1-2.5-.56c.65-2.85,3.58-8.18,10.05-8s8.34,6.72,8.32,10.13A1.28,1.28,0,0,1,178.62,149.76Z"/><path class="cls-3" d="M180.81,149.69a9.29,9.29,0,0,1-2.54-.28A1.28,1.28,0,0,1,179,147a12.14,12.14,0,0,0,6.51-.66,1.29,1.29,0,0,1,.84,2.43A16.78,16.78,0,0,1,180.81,149.69Z"/><path class="cls-3" d="M178.46,147h-.1a1.29,1.29,0,0,1-1.26-1.31,1.28,1.28,0,0,1,1.28-1.25h.05c2.38,0,5.61-2.23,6.66-3.09a1.28,1.28,0,0,1,1.63,2C186.53,143.51,182.22,147,178.46,147Z"/><path class="cls-2" d="M158.94,128.55l.12-3a.69.69,0,0,1,.63-.67c3.46-.35,20.71-1.8,28.84,3.06a.7.7,0,0,1,.22,1l-1.66,2.51a.7.7,0,0,1-.83.28c-2.33-.87-12.35-4.14-26.52-2.42A.7.7,0,0,1,158.94,128.55Z"/><path class="cls-3" d="M100.69,149.76h0a1.29,1.29,0,0,0,1.28-1.29c0-.3.06-7.36,5.85-7.56,6-.2,7.4,5.71,7.46,6a1.28,1.28,0,1,0,2.5-.56c-.65-2.85-3.58-8.18-10-8-6.62.23-8.34,6.72-8.32,10.13A1.28,1.28,0,0,0,100.69,149.76Z"/><path class="cls-3" d="M98.49,149.69a9.4,9.4,0,0,0,2.55-.28,1.28,1.28,0,1,0-.7-2.46,12.14,12.14,0,0,1-6.51-.66,1.29,1.29,0,0,0-.84,2.43A16.77,16.77,0,0,0,98.49,149.69Z"/><path class="cls-3" d="M100.85,147h.1a1.29,1.29,0,0,0,1.26-1.31,1.28,1.28,0,0,0-1.28-1.25h-.08c-2.35,0-5.58-2.23-6.63-3.09a1.28,1.28,0,0,0-1.63,2C92.77,143.51,97.09,147,100.85,147Z"/><path class="cls-2" d="M120.37,128.55l-.12-3a.69.69,0,0,0-.63-.67c-3.46-.35-20.7-1.8-28.84,3.06a.7.7,0,0,0-.22,1l1.66,2.51a.7.7,0,0,0,.83.28c2.33-.87,12.36-4.14,26.53-2.42A.71.71,0,0,0,120.37,128.55Z"/><path class="cls-5" d="M127.28,168.23s3.12-4.69,6.72-4.47,5.56,3.67,5.56,3.67,3.24-3.59,7-3.52S152,168.6,152,168.6s-3.76,8.78-12.74,8.78S127.28,168.23,127.28,168.23Z"/><path class="cls-6" d="M146.44,148s-.68,6.06-6.53,6.09-7-6.09-7-6.09,3.2,3.73,6.93,3.73S146.44,148,146.44,148Z"/><path class="cls-7" d="M217.36,100.41S217.28,80,199,60.35c-9.7-10.38-29.5-12.9-46-17.4l-13.33-2.57L126.33,43c-16.48,4.5-35.51,7.45-45.21,17.83C62.8,80.38,62,100.41,62,100.41,52.23,134.8,74.4,236.35,74.4,236.35s-2.41-42.1-2.09-69.09c.24-20.36,2.5-46.91,3.59-58.75,2.87,5.4,15,14,21.83,15,32.13,4.85,40.44-4.49,41.92-5.29a27.94,27.94,0,0,0,4.73,2.06c8.16,2.6,16.4,1.19,21.69-3.05a27.78,27.78,0,0,0,6.06.68,24.85,24.85,0,0,0,17.14-6.41,25.09,25.09,0,0,0,2.62.15,21.32,21.32,0,0,0,11.52-3.15c1.09,11.84,3.34,38.39,3.58,58.75.33,27-2.09,69.09-2.09,69.09S227.08,134.8,217.36,100.41Z"/><path class="cls-2" d="M169,40.38c-8.69-2.75-49.63-2.75-58.32,0-59.57,18.85-48.39,60-48.39,60,3.59-20.63,22.65-41.65,63.44-44.22h28.23c40.78,2.57,59.84,23.59,63.44,44.22C217.36,100.41,228.54,59.23,169,40.38Z"/></g></g></svg>