<?xml version="1.0" standalone="no"?><!DOCTYPE svg PUBLIC "-//W3C//DTD SVG 1.1//EN" "http://www.w3.org/Graphics/SVG/1.1/DTD/svg11.dtd"><svg t="1548739191112" class="icon" style="" viewBox="0 0 1024 1024" version="1.1" xmlns="http://www.w3.org/2000/svg" p-id="10767" xmlns:xlink="http://www.w3.org/1999/xlink" width="200" height="200"><defs><style type="text/css"></style></defs><path d="M143.632 428.415v-58.24c0-101.107 41.604-193.132 108.167-259.948l0.507-1.008C319.117 43.156 411.146 1.807 512 1.807c101.101 0 193.639 41.856 260.2 108.42 67.319 66.056 108.674 158.841 108.674 259.948v58.24c10.581 0 20.925 2.523 30.751 6.813 10.842 4.789 20.678 10.84 28.499 18.655 7.811 8.067 14.874 17.397 18.908 28.492l1.262 2.271c3.28 10.339 5.546 20.672 5.546 31.512v155.066c0 11.347-2.524 23.191-6.808 33.274v0.26c-4.034 10.841-11.098 20.42-18.908 28.24-7.821 8.315-17.657 15.122-28.499 19.416l-2.771 0.755c-9.578 3.525-20.418 5.793-30.763 5.793h-14.368c-5.296 50.684-36.555 95.556-85.719 131.862-49.175 35.551-114.725 62.283-191.124 74.643-9.331 33.276-40.342 56.727-74.88 56.727-42.359 0-77.911-34.551-77.911-77.156 0-42.358 35.552-77.651 77.911-77.651 32.521 0 61.514 20.666 72.862 50.425 66.066-11.347 123.299-34.289 165.15-65.051 36.814-27.237 60.264-59.25 65.808-93.798h-11.594c-11.855 0-23.203-2.514-33.537-6.548-10.592-4.294-20.677-11.101-28.992-19.416-15.382-15.891-25.726-37.32-25.726-61.774V516.157c0-11.594 2.523-22.688 6.806-33.529h0.258l-0.258-0.253c4.54-11.095 11.1-20.425 18.92-28.492 15.37-15.129 36.803-24.961 60.006-25.468v-39.834c-15.382-45.13-40.852-85.979-74.126-119.007-54.969-55.469-131.616-89.505-215.577-89.505-83.713 0-160.362 34.036-215.319 89.505-33.535 33.028-59.002 73.877-74.384 119.007v39.834c11.348 0 21.174 2.523 31.271 6.813 10.841 4.789 20.926 10.84 28.735 18.655 7.82 8.067 14.378 17.397 18.909 28.492l1.015 2.271c3.527 10.339 5.792 20.672 5.792 31.512v155.066c0 11.347-2.513 23.191-6.807 33.274v0.26c-4.53 10.841-11.088 20.42-18.909 28.24-7.809 8.315-17.894 15.122-28.735 19.416l-2.783 0.755c-9.32 3.525-20.418 5.793-30.752 5.793h-73.876c-11.606 0-23.202-2.514-33.535-6.548-10.593-4.294-20.926-11.101-28.746-19.416-15.877-15.891-25.715-37.32-25.715-61.774V516.157c0-11.594 2.524-22.688 6.807-33.529v-0.253c4.282-11.095 11.099-20.425 18.909-28.492 15.887-15.129 36.564-24.961 59.755-25.468zM512 914.274c-16.645 0-30.008 13.365-30.008 30.763 0 16.891 13.364 30.254 30.008 30.254 16.892 0 30.256-14.118 30.256-30.254 0-17.397-13.364-30.763-30.256-30.763zM182.959 507.086h-36.803c-2.524 0-4.293 1.004-6.052 2.519-1.521 1.009-2.017 1.764-2.524 3.025-0.507 1.01-0.507 2.271-0.507 3.527v155.066c0 2.017 1.014 4.788 3.031 6.052 0.507 1.263 1.759 1.768 2.514 2.017 1.013 0.505 2.276 0.505 3.538 0.505h73.876c1.262 0 1.758 0 2.773-0.505h0.247c1.263-0.249 2.277-0.754 3.787-2.017 0.496-0.755 1.003-1.769 1.758-2.526 0.507-1.509 0.507-2.521 0.507-3.525V516.157v-2.518l-0.507-1.01c-0.755-1.262-1.262-2.017-1.758-3.025-1.51-0.501-2.524-1.515-3.787-2.017h0.507c-0.754 0-2.265-0.502-3.527-0.502h-37.073v0.001z m657.822 0h-36.555c-2.523 0-4.542 1.004-6.818 2.519-0.755 1.009-1.252 1.764-2.018 3.025-0.248 1.01-0.495 2.271-0.495 3.527v155.066c0 2.017 1.261 4.788 2.513 6.052 1.77 1.263 2.276 1.768 3.03 2.017 1.265 0.505 2.266 0.505 3.788 0.505H878.091c1.014 0 2.276 0 2.783-0.505h0.248c1.004-0.249 2.266-0.754 3.528-2.017 0.754-0.755 1.768-1.769 1.768-2.526 0.506-1.509 1.004-2.521 1.004-3.525V516.157c0-1.002-0.498-1.763-0.498-2.518l-0.506-1.01c0-1.262-1.014-2.017-1.768-3.025-1.263-0.501-2.524-1.515-3.528-2.017h0.248c-0.496 0-1.759-0.502-3.279-0.502h-37.31v0.001zM776.235 252.43c-14.627-32.781-35.045-61.521-60.006-86.48v-0.253C664.282 113.252 591.669 80.726 512 80.726c-79.681 0-152.036 32.779-204.738 84.971-24.453 25.212-45.13 53.952-59.757 86.733 4.8-5.55 9.837-10.84 15.641-16.137C326.678 172.502 415.429 132.414 512 132.414c96.57 0 185.321 40.088 248.852 103.879h0.251c5.553 5.297 10.591 10.339 15.132 16.137z" fill="" p-id="10768"></path></svg>