<svg xmlns="http://www.w3.org/2000/svg" viewBox="0 0 190.59 292.32"><defs><style>.cls-1{fill:#4596a3;}.cls-2{fill:#efc4a0;}.cls-3{fill:#54a3b5;}.cls-4{fill:#c65044;}.cls-5{fill:#515151;}.cls-6{fill:#438f9b;}.cls-7{fill:#f4bb3b;}.cls-8{fill:#f4d3b0;}.cls-9{fill:#f9dab4;}.cls-10{fill:#3a332d;}</style></defs><title>资源 315</title><g id="图层_2" data-name="图层 2"><g id="Layer_1" data-name="Layer 1"><path class="cls-1" d="M21.93,261.11c-1.85,8-3.3,20.05-4.35,31.21h31L60,183.17S34.23,208.07,21.93,261.11Z"/><path class="cls-1" d="M162.81,261.11c1.85,8,3.3,20.05,4.35,31.21h-31L124.72,183.17S150.51,208.07,162.81,261.11Z"/><rect class="cls-2" x="68.86" y="175.46" width="48.15" height="64.18"/><path class="cls-3" d="M72.25,183.17H60S43.46,223.25,39.71,292.32H144.56c-3.75-69.07-20.3-109.15-20.3-109.15H112L92.14,230.34Z"/><path class="cls-1" d="M95.83,243.34a3.7,3.7,0,1,1-3.69-3.7A3.7,3.7,0,0,1,95.83,243.34Z"/><path class="cls-1" d="M95.83,264.8a3.7,3.7,0,1,1-3.69-3.69A3.69,3.69,0,0,1,95.83,264.8Z"/><path class="cls-1" d="M95.83,286.27a3.7,3.7,0,1,1-3.69-3.7A3.7,3.7,0,0,1,95.83,286.27Z"/><rect class="cls-1" x="105.87" y="235.68" width="24.19" height="5.98"/><polygon class="cls-1" points="92.14 230.34 71 226.71 72.74 184.34 92.14 230.34"/><polygon class="cls-1" points="92.14 230.34 113.27 226.71 111.53 184.34 92.14 230.34"/><polygon class="cls-4" points="114.67 191.2 139.78 193.87 138.6 204.1 113.98 194.76 114.67 191.2"/><polygon class="cls-4" points="116.06 192.83 132.27 214.49 124.16 219.23 112.64 194.32 116.06 192.83"/><path class="cls-4" d="M65.44,187.94s20,18.92,50.81,7.68v-8.27Z"/><path class="cls-5" d="M92.14,185.25s-106.48,36.6-90.51-81c9-66.49,67-72.33,90.51-72.33S138.28,50.16,148.56,71c0,0,45.13,25.92,36.1,74.2C177.19,185.2,137.82,195.53,92.14,185.25Z"/><path class="cls-6" d="M144.8,22.86s33.53,28.47,45.79,71.93H179.08L140.72,32.62Z"/><path class="cls-3" d="M124.86,51.55,144.8,22.86s18.52,47,45.79,71.93L156,104.26S133.2,85.94,124.86,51.55Z"/><polygon class="cls-7" points="98.02 21.49 95.39 29.46 121.52 41.16 122.63 38.94 98.02 21.49"/><polygon class="cls-7" points="103.87 9.99 111.64 3.63 124.86 36.52 122.63 38.03 103.87 9.99"/><polygon class="cls-7" points="122.63 0 131.71 1.51 128.63 36.07 125.71 35.56 122.63 0"/><circle class="cls-4" cx="120.64" cy="44.76" r="6.1"/><path class="cls-4" d="M134.83,38a6.1,6.1,0,1,1-6.1-6.1A6.1,6.1,0,0,1,134.83,38Z"/><path class="cls-8" d="M147.39,121.29s7.46-6.49,13.49-2.66c9.26,5.88,3.27,56.41-28.61,50.89Z"/><path class="cls-8" d="M36.67,121.29s-7.46-6.49-13.49-2.66c-9.26,5.88-3.27,56.41,28.61,50.89Z"/><path class="cls-9" d="M154,117.06a99.57,99.57,0,0,1-.83,12.92c-4.85,37.24-30.31,65.64-61,65.64-34.14,0-61.82-35.17-61.82-78.56a98.43,98.43,0,0,1,2.52-22.27C68.84,115.42,109.14,123.08,154,117.06Z"/><path class="cls-4" d="M81.8,173.45s2.68-4,5.78-3.85,4.79,3.17,4.79,3.17,2.78-3.1,6-3,4.68,4,4.68,4-3.23,7.55-11,7.55S81.8,173.45,81.8,173.45Z"/><path class="cls-10" d="M53.24,145.36a1.17,1.17,0,0,1-1.17-1.16c0-3.11,1.55-9,7.59-9.24s8.58,4.66,9.17,7.25a1.17,1.17,0,0,1-2.28.53c-.06-.25-1.39-5.62-6.81-5.44s-5.33,6.61-5.33,6.89a1.17,1.17,0,0,1-1.17,1.17Z"/><path class="cls-5" d="M48.05,130.15s16.77-2.63,22.7,0L65.67,125S50.64,125,48.05,130.15Z"/><path class="cls-5" d="M137.37,130.15s-16.77-2.63-22.7,0l5.08-5.17S134.78,125,137.37,130.15Z"/><path class="cls-10" d="M51.24,145.3a15.42,15.42,0,0,1-5-.89,1.16,1.16,0,0,1-.73-1.48A1.18,1.18,0,0,1,47,142.2a10.91,10.91,0,0,0,5.93.6,1.17,1.17,0,1,1,.65,2.25A9,9,0,0,1,51.24,145.3Z"/><path class="cls-10" d="M53.39,142.87c-3.43,0-7.37-3.21-7.54-3.35a1.17,1.17,0,0,1,1.49-1.8h0c1,.79,3.9,2.82,6,2.82h.08a1.17,1.17,0,0,1,0,2.33Z"/><path class="cls-10" d="M130.7,145.36h0a1.17,1.17,0,0,1-1.17-1.17c0-.27-.06-6.72-5.33-6.89-5.46-.19-6.76,5.2-6.81,5.43a1.17,1.17,0,0,1-2.28-.52c.59-2.59,3.27-7.46,9.17-7.25s7.61,6.13,7.59,9.24A1.16,1.16,0,0,1,130.7,145.36Z"/><path class="cls-10" d="M132.7,145.3a9,9,0,0,1-2.32-.25,1.17,1.17,0,0,1,.64-2.25,11,11,0,0,0,5.94-.6,1.18,1.18,0,0,1,1.49.73,1.16,1.16,0,0,1-.72,1.48A15.47,15.47,0,0,1,132.7,145.3Z"/><path class="cls-10" d="M130.55,142.87h-.08a1.17,1.17,0,0,1,0-2.33h.08c2.15,0,5.08-2,6-2.82a1.17,1.17,0,0,1,1.65.16,1.16,1.16,0,0,1-.16,1.64C137.92,139.66,134,142.87,130.55,142.87Z"/></g></g></svg>