<svg xmlns="http://www.w3.org/2000/svg" viewBox="0 0 152.76 260.05"><defs><style>.cls-1{fill:#2f3233;}.cls-2{fill:#393c3d;}.cls-3{fill:#232526;}.cls-4{fill:#303030;}.cls-5{fill:#ad3936;}.cls-6{fill:#6d4c3a;}.cls-7{fill:#f4d3b0;}.cls-8{fill:#f9dab4;}.cls-9{fill:#efc4a0;}</style></defs><title>资源 164</title><g id="图层_2" data-name="图层 2"><g id="Layer_1" data-name="Layer 1"><path class="cls-1" d="M32.36,172.89S8.89,211.2,3.47,260.05H36.22C41.44,221.71,48.4,156.35,32.36,172.89Z"/><path class="cls-1" d="M120.91,172.89s23.47,38.31,28.89,87.16H117.05C111.83,221.71,104.88,156.35,120.91,172.89Z"/><path class="cls-2" d="M121.62,260.05l-1.82-81.48H34.61s-2.4,44.39-3.69,81.48Z"/><rect class="cls-3" x="75.31" y="228.19" width="2.13" height="31.86"/><path class="cls-3" d="M76.38,238.56s13.4,6.92,12,10.29S80.91,256.13,76.38,238.56Z"/><path class="cls-4" d="M128.5,169c-5.86-8.87-16.15-18.19-16.15-18.19l-36,2.2-36-2.2S30.12,160.11,24.26,169s-6.21,16.33,3,18.46,22.72,0,27.33,13.49S70.58,241,76.38,241c6.63,0,17.16-26.62,21.77-40.11s18.11-11.36,27.34-13.49S134.36,177.86,128.5,169Z"/><path class="cls-5" d="M106.74,149.19,76.89,158h-1L46,149.19s-1.13,18.73,8,23.34S70.16,185.31,71.23,197s2.19,19.52,4.64,19.52h1c2.45,0,3.58-7.81,4.64-19.52s8.17-19.88,17.25-24.5S106.74,149.19,106.74,149.19Z"/><path class="cls-6" d="M149.23,43.88C144.86,24,106.4,1.29,78.32.06,78.11,0,76.82,0,76.38,0s-1.73,0-1.94.06C46.37,1.29,7.9,24,3.53,43.88c-4.54,20.68,4,75.83,4,75.83H145.2S153.77,64.56,149.23,43.88Z"/><path class="cls-7" d="M20.6,109.57S12.31,99.4,3.08,104.13s3.55,35.68,21.78,38.2Z"/><path class="cls-7" d="M132.17,109.57s8.28-10.17,17.51-5.44-3.55,35.68-21.78,38.2Z"/><path class="cls-7" d="M132.17,109.57s8.28-10.17,17.51-5.44-3.55,35.68-21.78,38.2Z"/><path class="cls-8" d="M16.84,57.51V117.2c0,9.2,4.28,26.37,11.52,31.91,0,0,18.62,17.64,48,17.16s48-17.16,48-17.16c7.26-5.54,11.53-22.71,11.53-31.91V57.51Z"/><path class="cls-6" d="M8.27,55.22S79,79.74,111.84,102.88l-9.32-12.25,23.7,12.25-5.33-15.71,13.58,12.24-5.31-17.3L140,97.72s7-32.92,3.5-49.16-54.31-21-54.31-21L18.1,33.65Z"/><path class="cls-2" d="M17.81,101.71H75.32s4.8,33.48-28.76,35S17.81,101.71,17.81,101.71Z"/><path class="cls-2" d="M135,101.71H77.44s-4.8,33.48,28.76,35S135,101.71,135,101.71Z"/><path class="cls-2" d="M140.88,103.41v-1.85h-129v2a17.05,17.05,0,0,1,4.25,2.21H136A17,17,0,0,1,140.88,103.41Z"/><path class="cls-9" d="M84.31,139.79s-1.8-5.77-7.6-6.13-8.25,7.06-8.25,7.06,3.64-5.51,8.24-5A12.85,12.85,0,0,1,84.31,139.79Z"/><path class="cls-9" d="M75.73,153.44A95.07,95.07,0,0,1,54,150.8a.82.82,0,0,1-.59-1,.83.83,0,0,1,1-.6,94.61,94.61,0,0,0,22.18,2.58,76.17,76.17,0,0,0,21.59-3.57.83.83,0,1,1,.56,1.57,77.13,77.13,0,0,1-22.13,3.66Z"/></g></g></svg>