<svg xmlns="http://www.w3.org/2000/svg" viewBox="0 0 198.24 279.76"><defs><style>.cls-1{fill:#efc4a0;}.cls-2{fill:#f4d3b0;}.cls-3{fill:#ea9628;}.cls-4{fill:#c65044;}.cls-5{fill:#f9dab4;}.cls-6{fill:#ad3936;}.cls-7{fill:#3a332d;}.cls-8{fill:#492020;}</style></defs><title>资源 331</title><g id="图层_2" data-name="图层 2"><g id="Layer_1" data-name="Layer 1"><path class="cls-1" d="M67.91,185s-14.75,3.48-28.58,20.57l20.61,18.17S79.68,202.43,67.91,185Z"/><path class="cls-1" d="M189,270.42c-1.82-4.78-2.55-37.22-5.1-56.67-1-7.88-11.06-25.25-27.4-28.52-20-4-2.32,50.91-.8,66.85,1,10.89,6.07,20.65,10,27.68h26.63C190.75,275.2,189.51,271.77,189,270.42Z"/><path class="cls-2" d="M151.29,184.45c-2.45-.82-2.45-11.94-2.45-11.94H75s0,11.12-2.44,11.94-9-4.62-16.55,24.14-9.49,42.85,0,54.52c3,3.62,4.38,9.82,5,16.65H162.88c.58-6.83,2-13,5-16.65,9.5-11.67,7.59-25.77,0-54.52S153.73,185.26,151.29,184.45Z"/><path class="cls-1" d="M105.41,258a12.27,12.27,0,0,1-1.22.87,26.72,26.72,0,0,1-3.49,1.86,36.74,36.74,0,0,1-5.24,1.87c-1,.25-2,.57-3,.78l-3.19.54a41.92,41.92,0,0,1-6.32.51,30.64,30.64,0,0,1-5.53-.18,43.22,43.22,0,0,1-5.34-.83,46.45,46.45,0,0,1,5.28-1l2.54-.34c.9-.16,1.84-.34,2.81-.46s2-.31,3-.4,2-.33,3.08-.47c2.08-.25,4.13-.59,6.07-.9s3.73-.65,5.31-.85Z"/><path class="cls-1" d="M118.42,258l5.26,1c1.58.2,3.36.59,5.31.85s4,.65,6.07.9c1,.14,2.05.38,3.08.47s2,.27,3,.4,1.92.3,2.81.46l2.54.34a46.45,46.45,0,0,1,5.28,1,43.22,43.22,0,0,1-5.34.83,30.6,30.6,0,0,1-5.53.18,42,42,0,0,1-6.32-.51l-3.19-.54c-1-.21-2.05-.53-3-.78a36.74,36.74,0,0,1-5.24-1.87,28.11,28.11,0,0,1-3.49-1.86A14.07,14.07,0,0,1,118.42,258Z"/><path class="cls-1" d="M86.76,195a12.92,12.92,0,0,1,3.87-.58,17.3,17.3,0,0,1,4,.39,17.81,17.81,0,0,1,4.44,1.55,14.26,14.26,0,0,1,3.8,3,8.78,8.78,0,0,1,1.3,1.83,9.21,9.21,0,0,1,1.28,4.69c0,.7,0,1.08,0,1.08s-.24-.34-.59-.91l-.59-1c-.28-.36-.6-.74-.9-1.17a12.39,12.39,0,0,0-1.11-1.24,16.12,16.12,0,0,0-1.35-1.22c-.44-.45-1.08-.71-1.57-1.14s-1.15-.7-1.75-1-1.2-.66-1.85-.9-1.25-.57-1.88-.79c-1.23-.5-2.43-.9-3.48-1.29Z"/><path class="cls-1" d="M137.07,195l-3.58,1.26c-1.05.39-2.25.79-3.49,1.29-.62.22-1.24.53-1.87.79s-1.23.6-1.85.9-1.19.66-1.75,1-1.13.69-1.57,1.14a14.69,14.69,0,0,0-1.35,1.22,12.39,12.39,0,0,0-1.11,1.24c-.3.43-.62.81-.9,1.17l-.59,1c-.35.57-.59.91-.59.91s0-.38,0-1.08a7.52,7.52,0,0,1,.45-2.88,7.77,7.77,0,0,1,.82-1.81,8.48,8.48,0,0,1,1.31-1.83,13.91,13.91,0,0,1,3.79-3,17.81,17.81,0,0,1,4.44-1.55,17.3,17.3,0,0,1,4-.39A12.92,12.92,0,0,1,137.07,195Z"/><path class="cls-1" d="M111.91,213.75a52.82,52.82,0,0,1,.93,5.84,116.66,116.66,0,0,1,.7,12.87,119,119,0,0,1-.69,12.86,54,54,0,0,1-.94,5.85,55.87,55.87,0,0,1-.93-5.85,119,119,0,0,1-.69-12.86,116.66,116.66,0,0,1,.7-12.87A54.6,54.6,0,0,1,111.91,213.75Z"/><path class="cls-3" d="M34.64,49.23c.41-4.48,1.63-28.48,12.21-37.84,0,0-2.85,11.4-2,17.09,0,0,13-23.19,30.11-25.63l-9.36,13S83.87.82,95.26,0l-9,16.27S111.54,0,125.77,2.85L111.13,16.68s26-11.39,46-4.88l-16.68,4.47s27.26-4.47,40.28,2.45l-20.34,7.73s19.12.4,28.88,4.47c0,0-16.27,4.88-23.19,7.73,0,0,15.06,2,23.19,6.51,0,0-13.42,2-19.53,11.8S36.27,57,36.27,57A13.52,13.52,0,0,1,34.64,49.23Z"/><path class="cls-4" d="M193.86,48.82c-3.32-4.88-42.74-7-82-6.91-39.2-.14-78.61,2-81.94,6.91-6.64,9.77-6.1,106.17,4.2,113.3s30.39,2,30.39,2l47.35-1,47.37,1s20.07,5.1,30.38-2S200.51,58.59,193.86,48.82Z"/><path class="cls-5" d="M164.69,167.41s-20.45,13.65-52.77,14.17-52.78-14.17-52.78-14.17a32.34,32.34,0,0,1-12.66-25.7s-2.89-56.48,0-59.22,128.94-2.68,130.88,0,0,59.22,0,59.22A32.32,32.32,0,0,1,164.69,167.41Z"/><path class="cls-6" d="M81.37,229.28c0,13.15-5.14,20.05-11.47,20.05s-11.46-6.9-11.46-20.05,5.13-20.06,11.46-20.06S81.37,216.12,81.37,229.28Z"/><path class="cls-4" d="M68.35,237c0,32.44-5.15,42.45-34.17,42.45C6,279.47,0,269.46,0,237s15.3-52.21,34.18-52.21S68.35,204.59,68.35,237Z"/><path class="cls-1" d="M124.09,143.77s-2.29-9.39-11.52-10.56-13.89,10.44-13.89,10.44,6.38-8.43,13.67-7.15S124.09,143.77,124.09,143.77Z"/><polygon class="cls-3" points="132.02 106.65 131.2 116.89 164.81 115.51 161.21 104.97 132.02 106.65"/><polygon class="cls-3" points="90.75 106.65 91.58 116.89 57.96 115.51 61.56 104.97 90.75 106.65"/><path class="cls-7" d="M131.2,133.45a1.63,1.63,0,0,1,0-3.26l33.62-.27h0a1.63,1.63,0,0,1,0,3.25l-33.61.28Z"/><path class="cls-7" d="M91.58,133.45h0L58,133.17a1.61,1.61,0,0,1-1.61-1.63A1.67,1.67,0,0,1,58,129.92l33.61.27a1.63,1.63,0,0,1,0,3.26Z"/><path class="cls-8" d="M111.68,154.87H85.13s4.34,15.47,6.41,17.64c1.28,1.35,10.38,2.07,19.88,2s18.61-.68,19.89-2c2.06-2.17,6.4-17.64,6.4-17.64Z"/><path class="cls-4" d="M98.74,174.07c3.57.32,8.07.49,12.68.47s9.12-.15,12.69-.47c-.1-5.88-5.73-10.62-12.69-10.62S98.84,168.19,98.74,174.07Z"/></g></g></svg>