<svg xmlns="http://www.w3.org/2000/svg" viewBox="0 0 215.24 296.97"><defs><style>.cls-1{fill:#79a348;}.cls-2{fill:#88b559;}.cls-3{fill:#efc4a0;}.cls-4{fill:#2d2723;}.cls-5{fill:#231f1c;}.cls-6{fill:#3a332e;}.cls-7{fill:#f4d3b0;}.cls-8{fill:#f9dab4;}.cls-9{fill:#3a332d;}.cls-10{fill:#c65044;}</style></defs><title>资源 172</title><g id="图层_2" data-name="图层 2"><g id="Layer_1" data-name="Layer 1"><path class="cls-1" d="M54.23,203.61C46.6,212.18,12.17,274,5.1,280.89.22,285.63-1.54,291.57,1.51,297H37.25L73,202.69S61.85,195,54.23,203.61Z"/><path class="cls-1" d="M120.79,203.61c-7.62-8.57-18.8-.92-18.8-.92L137.77,297h35.74c3.05-5.4,1.29-11.34-3.6-16.08C162.85,274,128.42,212.18,120.79,203.61Z"/><path class="cls-2" d="M61.87,198.6S48.3,262.81,43,297h89.08c-5.33-34.16-18.9-98.37-18.9-98.37H61.87Z"/><path class="cls-1" d="M109.21,206.23a21.12,21.12,0,0,1-21.7,20.59c-15.27,0-21.7-11.77-21.7-20.59s9.71-11.38,21.7-11.38S109.21,197.41,109.21,206.23Z"/><path class="cls-3" d="M103.32,206.7c0,7.92-7.08,14.35-15.81,14.35S71.7,214.62,71.7,206.7s7.08-14.35,15.81-14.35S103.32,198.78,103.32,206.7Z"/><path class="cls-4" d="M163.76,95.34s5.16-14.11,16.52-13.77,15.49,20.65,17.21,40.28,3.79,86.73,8.95,85.35,5.85-14.45,5.85-14.45,10.67,28.91-8.6,31.66-44.75-34.07-43.72-94.3Z"/><path class="cls-5" d="M175.94,149.31c-.44-4.69-4.34-8.31-4.6-12.66-.29-4.86,1.1-9.46.85-14.35-.39-7.32,6.1-10.93,5.72-17.81-.31-5.65-2.46-15.51-8.55-18a29,29,0,0,0-5.6,8.84L160,130.11a180.38,180.38,0,0,0,3.63,40.25C170.3,165,176.73,157.85,175.94,149.31Z"/><path class="cls-1" d="M157.91,93.28s5.85-4.48,9.64-2.76,7.45,16.92,3.86,19.62-10.75,0-10.75,0Z"/><path class="cls-4" d="M164.47,152.71a71.86,71.86,0,0,0,4.76-25.7c0-42.58-37.29-77.1-83.29-77.1S2.64,84.43,2.64,127a71.86,71.86,0,0,0,4.76,25.7Z"/><path class="cls-4" d="M80.47,32S62.57,30.63,66.7,9.29l3.78,4.13A35.3,35.3,0,0,1,76.68,0S82.19,7.23,82,14.46l3.93-10,2.44,6.88,1.47-4.29S102.24,22.37,80.47,32Z"/><path class="cls-1" d="M70.48,41s1-13.42,10.33-13.42S93.55,41,93.55,41Z"/><path class="cls-6" d="M84.83,35.83v0h-.75v0c-36.52,1.29-40.2,21.05-38.35,34s17.5,11.7,17.5,11.7h42.44s15.64,1.38,17.5-11.7S121.34,37.12,84.83,35.83Z"/><path class="cls-4" d="M62.22,81.57A24.82,24.82,0,0,1,57,72.83a29.78,29.78,0,0,1-1.8-10.18,29,29,0,0,1,7-18.94,68.59,68.59,0,0,0-3.13,9.4,40.7,40.7,0,0,0-1.15,9.55A45.7,45.7,0,0,0,62.22,81.57Z"/><path class="cls-4" d="M103.38,81.57a45.7,45.7,0,0,0,4.28-18.91,40.7,40.7,0,0,0-1.15-9.55,68.59,68.59,0,0,0-3.13-9.4,29,29,0,0,1,7,18.94,29.78,29.78,0,0,1-1.8,10.18A24.82,24.82,0,0,1,103.38,81.57Z"/><path class="cls-4" d="M82,41a117.42,117.42,0,0,1,2.6,18.84,116.22,116.22,0,0,1-.16,19A116.13,116.13,0,0,1,81.86,60,117.33,117.33,0,0,1,82,41Z"/><path class="cls-7" d="M30.48,149s-10-19.62-23.4-12,1,40.61,31,38.21Z"/><path class="cls-7" d="M144.54,149s10-19.62,23.41-12-1,40.61-31,38.21Z"/><ellipse class="cls-8" cx="87.51" cy="136.99" rx="66.77" ry="67.12"/><path class="cls-3" d="M95.72,148.3s-3.13-5.37-8.21-5.37-8.22,5.37-8.22,5.37S81.63,141,87.51,141,95.72,148.3,95.72,148.3Z"/><path class="cls-9" d="M131.9,141.73h0a1.37,1.37,0,0,1-1.38-1.39c0-.32-.08-8-6.33-8.18-6.48-.22-8,6.18-8.08,6.45a1.39,1.39,0,0,1-2.71-.61c.7-3.08,3.88-8.85,10.88-8.61,7.16.24,9,7.28,9,11A1.38,1.38,0,0,1,131.9,141.73Z"/><path class="cls-9" d="M134.28,141.66a10.4,10.4,0,0,1-2.76-.3,1.38,1.38,0,1,1,.76-2.66,13.26,13.26,0,0,0,7.05-.71,1.39,1.39,0,0,1,.91,2.62A18.33,18.33,0,0,1,134.28,141.66Z"/><path class="cls-9" d="M131.72,138.78h-.1a1.39,1.39,0,0,1,0-2.77h.09c2.54,0,6-2.41,7.17-3.35a1.39,1.39,0,0,1,1.95.19,1.37,1.37,0,0,1-.19,2C140.46,135,135.79,138.78,131.72,138.78Z"/><path class="cls-9" d="M43.11,141.73h0a1.37,1.37,0,0,0,1.38-1.39c0-.32.07-8,6.33-8.18,6.47-.22,8,6.18,8.08,6.45a1.39,1.39,0,1,0,2.71-.61c-.71-3.08-3.88-8.85-10.89-8.61s-9,7.28-9,11A1.38,1.38,0,0,0,43.11,141.73Z"/><path class="cls-9" d="M40.74,141.66a10.4,10.4,0,0,0,2.76-.3,1.38,1.38,0,1,0-.76-2.66,13.26,13.26,0,0,1-7.05-.71,1.39,1.39,0,1,0-.91,2.62A18.33,18.33,0,0,0,40.74,141.66Z"/><path class="cls-9" d="M43.29,138.78h.1a1.39,1.39,0,0,0,0-2.77h-.08c-2.55,0-6-2.41-7.17-3.35a1.4,1.4,0,0,0-2,.19,1.38,1.38,0,0,0,.19,2C34.55,135,39.22,138.78,43.29,138.78Z"/><path class="cls-9" d="M35.14,126.62H35a2.75,2.75,0,0,1-2.62-2.88c.25-5.13,3.45-15,13.81-15.76,10.21-.79,15.44,8.08,16.81,12.84a2.75,2.75,0,1,1-5.29,1.52c-.12-.39-2.91-9.39-11.14-8.86S37.91,123.59,37.89,124A2.76,2.76,0,0,1,35.14,126.62Z"/><path class="cls-9" d="M139.87,126.62H140a2.75,2.75,0,0,0,2.62-2.88c-.25-5.13-3.46-15-13.81-15.76s-15.45,8.08-16.81,12.84a2.75,2.75,0,1,0,5.29,1.52c.11-.39,2.9-9.39,11.13-8.86s8.68,10.12,8.7,10.52A2.75,2.75,0,0,0,139.87,126.62Z"/><path class="cls-10" d="M74.88,170.31s3.18-4.79,6.86-4.57,5.67,3.75,5.67,3.75,3.31-3.67,7.18-3.6,5.55,4.79,5.55,4.79-3.84,9-13,9S74.88,170.31,74.88,170.31Z"/></g></g></svg>