<svg xmlns="http://www.w3.org/2000/svg" viewBox="0 0 178.03 260.01"><defs><style>.cls-1{fill:#e06969;}.cls-2{fill:#ed7272;}.cls-3{fill:#d1d0cf;}.cls-4{fill:#d35f5f;}.cls-5{fill:#717272;}.cls-6{fill:#515151;}.cls-7{fill:#f9f5ed;}.cls-8{fill:#595958;}.cls-9{fill:#7f5732;}.cls-10{fill:#684427;}.cls-11{fill:#616363;}.cls-12{fill:#8e8e8e;}.cls-13{fill:#f9dab4;}.cls-14{fill:#444;}.cls-15{fill:#f7cea6;}.cls-16{fill:#f4c7a2;}.cls-17{fill:#dddcdb;}.cls-18{fill:#edeae8;}</style></defs><title>资源 202</title><g id="图层_2" data-name="图层 2"><g id="Layer_1" data-name="Layer 1"><path class="cls-1" d="M122,159.77s13.82,11,23.53,32.88a347.45,347.45,0,0,1,15.31,42s-11.84,16-35.11,14.71C119.32,209.76,110,153.93,122,159.77Z"/><path class="cls-2" d="M143.77,194.31s-9.46-18.56-12.58-21.77-9.12-7.73-5.88,3.45,3.23,16.89,8.77,32.35c6.69-3.57,11.77-6.9,11.77-6.9Z"/><path class="cls-3" d="M175,232.87c0,1.62-.92,2.93-2.06,2.93s-2.06-1.31-2.06-2.93.92-2.94,2.06-2.94S175,231.25,175,232.87Z"/><path class="cls-2" d="M64.14,162.2s-25,27.71-35.55,39-17.55,14,1.84,31.4,37.4,24.26,37.4,24.26l12-28.78L45.21,213.81l34.62-39.24S81.68,162.2,64.14,162.2Z"/><path class="cls-1" d="M79.83,228.08,45.21,213.81l34.62-39.24s1.85-12.37-15.69-12.37l-11,12.18s7.11-3.77,5.26,3.2-1.61,20.53-6.77,25.85l-9.08,9.35c-6.31,0-14.15,1.74-15.23,5.23-.31,1.51,2.35-1.38,4.35-2.49s9.88-1.23,12.65-.68,8.7,4,7.93,8.09-2.12,17-6.6,17.26c-4,.24-13.4-6.17-15.71-8.07l.53.48c19.39,17.36,37.4,24.26,37.4,24.26Z"/><path class="cls-2" d="M64.76,158.56S51,217.87,51,254.86h83.62s-6.87-72.06-16.72-96.62Z"/><path class="cls-1" d="M129,235.09c-1.14,14.3-28.62,11.48-42.06,11.48s-22.5.17-27.35-16.76,4.31-56.55,4.31-56.55L67,158.55H64.76S51,217.87,51,254.86h83.62s-2.2-23.05-5.89-47.52A187.52,187.52,0,0,1,129,235.09Z"/><polygon class="cls-4" points="85.98 171.86 75.79 180.57 73.59 177.41 86.49 169.33 87.47 170.97 85.98 171.86"/><polygon class="cls-4" points="100.67 171.86 110.87 180.57 113.06 177.41 100.17 169.33 99.19 170.97 100.67 171.86"/><path class="cls-2" d="M74.29,178.82l19.1-13.52L64.57,162Zm19.1-13.52,17.83,13.52L117.81,162Z"/><polygon class="cls-4" points="98.3 170.88 88.69 170.88 88.51 171.84 79.58 221.1 94.51 242.84 110.31 220.56 98.3 170.88"/><polygon class="cls-5" points="89.7 172.04 97.35 172.04 109.01 220.33 94.53 240.76 80.85 220.85 89.7 172.04"/><polygon class="cls-6" points="109.01 220.33 97.35 172.04 94.06 172.04 94.06 240.07 94.53 240.76 109.01 220.33"/><path class="cls-7" d="M99.23,179.83a29.5,29.5,0,0,1-2.68,2.79,33.1,33.1,0,0,1-9.9,6.26l-1.29,7.06A40.23,40.23,0,0,0,101,187.12Z"/><path class="cls-7" d="M105,203.91l-1.82-7.53a30.15,30.15,0,0,1-4.79,5A38.07,38.07,0,0,1,83,209.15l-1.2,6.65a45.49,45.49,0,0,0,21.37-10.11C103.83,205.09,104.46,204.49,105,203.91Z"/><path class="cls-7" d="M107.54,214.22c-2.72,3.13-9.55,9.44-22.62,12.56l3.76,5.46a52.43,52.43,0,0,0,18.08-8.74l2.25-3.17Z"/><path class="cls-8" d="M87.13,166.22h13.21c.5,0,.22,6.47,0,7.13-.85,3.45-4.69,3.38-7.48,3.34-2,0-4.4-.2-5.54-2C85.9,172.35,87,168.75,87.13,166.22Z"/><rect class="cls-9" x="49.77" y="251.03" width="85.83" height="8.98"/><rect class="cls-10" x="83.76" y="248.8" width="19.26" height="11.21"/><path class="cls-11" d="M8.35,123.92s-6.7-44.83-6.7-56S14.78,59,14.78,59s-9-38.84,20.37-49.44c51.56-18.62,84-5.13,102.91-.93,12.17,2.71,26.55,12.9,20.22,44.62,20.82,0,20.37,13.84,13.28,70.59C83.13,123.87,8.35,123.92,8.35,123.92Z"/><path class="cls-12" d="M1.76,71.06c.13,2.23.38,5,.7,8.07C12.93,87.38,29.71,90,29.71,90V81.11C13.26,81.11,5.22,75,1.76,71.06Z"/><path class="cls-12" d="M175.89,73c-4.19,3.73-12.09,8.13-26,8.13V90s15.53-2.41,26-9.94Q176,76.19,175.89,73Z"/><path class="cls-13" d="M26.54,85.62v63.91c0,8.86.46,16.32,41.2,16.32s84.2,3.73,84.2-13.53V82.82c0-13.52-6.64-21.45-17.51-24.87s-29,2.47-35.16,8.85c0,0,4.7,4.48.06,9.26,0,0,1.13-4.67-2.83-6.76,0,0,.23,6.64-5.66,8,0,0,2.83-4.08,1.13-7.58,0,0-2.71,5.83-7.92,5.25,0,0,4.87-4.08,3.28-7.46C77.86,57.78,26.54,45.82,26.54,85.62Z"/><path class="cls-14" d="M69.31,113.39c0,5.93-4.35,10.74-9.72,10.74s-9.71-4.81-9.71-10.74,4.35-10.75,9.71-10.75S69.31,107.45,69.31,113.39Z"/><path class="cls-7" d="M65.39,108.11c-.38,1.34-2.29,1.88-4.26,1.21s-3.28-2.32-2.9-3.66,2.28-1.88,4.26-1.21S65.76,106.77,65.39,108.11Z"/><path class="cls-14" d="M41.57,99.88S56.33,97.77,60,97.46C65.64,97,72.71,97,72.71,97s-1.53-7.86-2.89-9.32-13.28,0-20.43,1.83S41.57,91.3,41.57,99.88Z"/><path class="cls-14" d="M119.21,113.39c0,5.93,4.35,10.74,9.72,10.74s9.71-4.81,9.71-10.74-4.35-10.75-9.71-10.75S119.21,107.45,119.21,113.39Z"/><path class="cls-7" d="M123.13,108.11c.38,1.34,2.28,1.88,4.26,1.21s3.28-2.32,2.9-3.66-2.28-1.88-4.26-1.21S122.76,106.77,123.13,108.11Z"/><path class="cls-14" d="M147,99.88s-14.76-2.11-18.46-2.42c-5.62-.47-12.68-.5-12.68-.5s1.53-7.86,2.89-9.32,13.28,0,20.42,1.83S147,91.3,147,99.88Z"/><path class="cls-13" d="M27.46,116.17s-3.48-18-16.78-13.51-12.15,22-7.39,30,21,19.51,25.13,3.78C28.27,126.5,27.46,116.17,27.46,116.17Z"/><path class="cls-15" d="M10.68,102.66c13.3-4.47,16.78,13.51,16.78,13.51s0,.12,0,.33c0,0-5.83-15-17.86-11.45s-6.54,27.1-1.06,30.56,14.22,9.38,19.86.83c-4.15,15.73-20.36,4.24-25.13-3.78S-2.63,107.14,10.68,102.66Z"/><path class="cls-16" d="M21.37,122.17a18.36,18.36,0,0,0-1.66-6.75,1,1,0,0,0-.12-.23,8.88,8.88,0,0,0-4.12-4.2,5.9,5.9,0,0,0-2.15-.56,1.21,1.21,0,0,0-1.11,1.21,1.05,1.05,0,0,0,.93,1.24h.07a4.19,4.19,0,0,1,1.4.4,6.5,6.5,0,0,1,2.33,1.88,12.93,12.93,0,0,0-8.33,8c-.09.23-.18.48-.26.75a1.21,1.21,0,0,0,.53,1.49l.07,0a1.07,1.07,0,0,0,1.32-.82c.06-.2.13-.4.2-.6a10.68,10.68,0,0,1,7.36-6.63l.33-.08a17.29,17.29,0,0,1,1.17,5.27,1.1,1.1,0,0,0,.59.94.86.86,0,0,0,.53.06A1.31,1.31,0,0,0,21.37,122.17Z"/><path class="cls-13" d="M149.38,116.17s3.48-18,16.78-13.51,12.15,22,7.39,30-21,19.51-25.13,3.78C148.58,126.5,149.38,116.17,149.38,116.17Z"/><path class="cls-15" d="M166.16,102.66c-13.3-4.47-16.78,13.51-16.78,13.51s0,.12,0,.33c0,0,5.83-15,17.86-11.45s6.55,27.1,1.06,30.56-14.22,9.38-19.86.83c4.15,15.73,20.36,4.24,25.13-3.78S179.47,107.14,166.16,102.66Z"/><path class="cls-16" d="M155.47,122.17a18.36,18.36,0,0,1,1.66-6.75,1.67,1.67,0,0,1,.12-.23,8.88,8.88,0,0,1,4.12-4.2,5.9,5.9,0,0,1,2.15-.56,1.21,1.21,0,0,1,1.11,1.21,1.05,1.05,0,0,1-.93,1.24h-.07a4.19,4.19,0,0,0-1.4.4,6.5,6.5,0,0,0-2.33,1.88,13,13,0,0,1,8.34,8c.08.23.17.48.25.75a1.21,1.21,0,0,1-.53,1.49l-.07,0a1.07,1.07,0,0,1-1.32-.82c-.06-.2-.13-.4-.2-.6a10.37,10.37,0,0,0-5-5.72,10.5,10.5,0,0,0-2.35-.91l-.33-.08a17.6,17.6,0,0,0-1.17,5.27,1.1,1.1,0,0,1-.59.94.84.84,0,0,1-.52.06A1.3,1.3,0,0,1,155.47,122.17Z"/><path class="cls-16" d="M102.57,122.05a18.86,18.86,0,0,0-4.43-5.83h0a5.84,5.84,0,0,0-3.71-1.48h0c-1.9,0-3.77,1.2-5.27,2.72h0a20,20,0,0,0-3,3.89h0l-.16.28h0a1.13,1.13,0,0,1-1.54.47h0a1.19,1.19,0,0,1-.45-1.59h0a22.88,22.88,0,0,1,2.82-4h0c1.76-2,4.31-4.1,7.55-4.12h0a8,8,0,0,1,5.1,2h0a21,21,0,0,1,5,6.53h0a1.2,1.2,0,0,1-.44,1.59h0a1.14,1.14,0,0,1-.55.15h0a1.12,1.12,0,0,1-1-.6Z"/><path class="cls-14" d="M93.66,130.87s-5,11.19-23.69,13.21c2-.9,4-1.92,5.91-3a47,47,0,0,0,9.92-6.81,20.31,20.31,0,0,0,2-2.18c1.24-1.62,1.88-2.82,3.87-3.43.49-.15,1.35-.52,1.81-.14S93.87,130.38,93.66,130.87Z"/><path class="cls-14" d="M96.46,130.87s5,11.19,23.69,13.21c-2-.9-4-1.92-5.92-3a47,47,0,0,1-9.92-6.81,20.31,20.31,0,0,1-2-2.18c-1.23-1.62-1.88-2.82-3.87-3.43-.49-.15-1.34-.52-1.81-.14S96.24,130.38,96.46,130.87Z"/><path class="cls-16" d="M75.81,153a118.1,118.1,0,0,0,19,1.4,123.13,123.13,0,0,0,18.79-1.4,1.15,1.15,0,0,0,1-1.33,1.13,1.13,0,0,0-1.28-1,122.13,122.13,0,0,1-18.46,1.36,131.71,131.71,0,0,1-13.44-.68c-1.64-.17-2.94-.34-3.82-.47l-1-.15-.25-.05H76.2a1.13,1.13,0,0,0-1.31.95A1.16,1.16,0,0,0,75.81,153Z"/><path class="cls-15" d="M67.74,165.85c40.74,0,84.2,3.73,84.2-13.53V139.87c-1.36,14.83-12.68,22.25-22.18,22.25s-55,.93-78.32,0-24.9-21.29-24.9-21.29v8.7C26.54,158.39,27,165.85,67.74,165.85Z"/><path class="cls-17" d="M130.48,253.82c13.36,3.64,45.77,0,45.77,0s4.13-24.9-.2-61.33c-33.39-5.27-48.12,2.22-48.12,2.22S126.73,227.46,130.48,253.82Z"/><path class="cls-18" d="M131.33,203.35s-2.29,40.48,4,45.34,34.08,7,39.58-6.21c2.86-6.2,2.36-41-3.93-45.34S133.69,190.92,131.33,203.35Z"/><path class="cls-3" d="M166.28,198.08c2.14,1.59,4.44,7.25,4.76,8.07a35.7,35.7,0,0,1,2.46,13.26c0,14-4.32,8.29-4.32,2.63,0-6.29-.88-13.23-3.51-19-.48-1.05-2-2.91-1.72-4.15A1.39,1.39,0,0,1,166.28,198.08Z"/><path class="cls-17" d="M160.34,158.58c.12-.16,1.82.92,3.33,3.77a12.14,12.14,0,0,1-.55,12.2c-3.51,3.43-1.78,7.5-.68,10.22s2.24,4.31,2,4.48-1.6-1.16-3.18-3.86a14.91,14.91,0,0,1-1.92-5.29,7,7,0,0,1,.34-3.56,16.06,16.06,0,0,1,1.87-3,11.54,11.54,0,0,0,.91-10.62C161.43,160.19,160.12,158.79,160.34,158.58Z"/><path class="cls-17" d="M149.62,164.05c.1-.19,1.47.21,3.07,1.94a6.28,6.28,0,0,1,1.65,3.94,6.62,6.62,0,0,1-2.15,4.82c-1.57,1.35-2.05,1.73-1.86,3a8.32,8.32,0,0,0,1.45,3.09c1.21,1.72,2.13,2.71,2,2.92s-1.38-.43-3-2.06a8,8,0,0,1-2.11-3.61,3.63,3.63,0,0,1,.42-2.85,11.26,11.26,0,0,1,1.81-1.87,4.81,4.81,0,0,0,.76-6.57C150.55,165.12,149.45,164.29,149.62,164.05Z"/></g></g></svg>