<?xml version="1.0" standalone="no"?><!DOCTYPE svg PUBLIC "-//W3C//DTD SVG 1.1//EN" "http://www.w3.org/Graphics/SVG/1.1/DTD/svg11.dtd"><svg t="1548836366205" class="icon" style="" viewBox="0 0 1024 1024" version="1.1" xmlns="http://www.w3.org/2000/svg" p-id="5272" xmlns:xlink="http://www.w3.org/1999/xlink" width="200" height="200"><defs><style type="text/css"></style></defs><path d="M956.536 1024H68.668C30.118 1024 0 993.882 0 956.536V68.668C0 30.118 30.118 0 68.668 0h887.868C993.882 0 1024 30.118 1024 68.668v887.868c0 37.346-30.118 67.464-67.464 67.464z" fill="#40BA49" p-id="5273"></path><path d="M395.144 613.195c-13.252 7.229-30.118 1.205-38.551-12.047l-2.41-3.614-78.305-172.273c-1.205-1.205-1.205-3.614-1.205-6.023 0-3.614 1.205-7.229 3.614-9.638 2.41-2.41 6.024-4.819 9.638-3.614 3.614 0 6.023 1.205 8.433 2.41l92.762 66.258c10.842 7.228 25.299 9.638 38.55 4.819l436.104-193.958c-78.306-91.557-207.21-151.793-352.979-151.793-238.531 0-431.284 161.43-431.284 360.207 0 108.424 57.825 206.005 149.383 272.264 7.228 4.819 12.047 14.456 12.047 22.89 0 3.613 0 6.023-1.205 9.637l-19.275 72.282c-1.205 3.614-2.41 7.229-2.41 10.843 0 8.433 6.024 14.456 14.457 14.456 2.41 0 6.024-1.205 8.433-2.41l93.967-54.211c10.843-7.228 24.094-8.433 36.141-4.819 45.78 13.252 92.763 19.275 140.951 19.275 238.532 0 431.285-161.43 431.285-359.002 0-59.03-16.866-116.856-49.393-166.25l-496.34 283.107-2.408 1.204z m0 0" fill="#FFFFFF" p-id="5274"></path></svg>