<svg xmlns="http://www.w3.org/2000/svg" viewBox="0 0 214.69 259.8"><defs><style>.cls-1{fill:#ad3e3b;}.cls-2{fill:#f4efed;}.cls-3{fill:#c65044;}.cls-4{fill:#3f3e3d;}.cls-5{fill:#f9dab4;}.cls-6{fill:#efc4a0;}.cls-7{fill:#89c5d3;}.cls-8{fill:#3a332d;}</style></defs><title>资源 74</title><g id="图层_2" data-name="图层 2"><g id="Layer_1" data-name="Layer 1"><polygon class="cls-1" points="112.4 158.21 55.67 159.3 48.88 164.16 40.54 254.5 45.05 259.8 122.43 259.8 125.48 256.23 119.75 164.13 112.4 158.21"/><path class="cls-2" d="M57.67,156.27h52s-19.54,55-27.1,55S57.67,156.27,57.67,156.27Z"/><circle class="cls-2" cx="82.69" cy="226.9" r="5.02"/><circle class="cls-2" cx="82.69" cy="250.51" r="5.02"/><path class="cls-3" d="M153.09,259.8c-2.43-78.31-25.47-97.52-40.69-101.59,3.42,11.79,14,54.13,5.37,101.59Z"/><path class="cls-1" d="M132.57,259.8h2.94c2.12-20.61-3.36-33.51-3.36-33.51C134.55,235.56,133.31,252.25,132.57,259.8Z"/><path class="cls-3" d="M15,259.8H50.29c-8.61-47.46,2-89.8,5.38-101.59C40.45,162.28,17.41,181.49,15,259.8Z"/><path class="cls-1" d="M32.56,259.8H35.5c-.74-7.55-2-24.24.42-33.51C35.92,226.29,30.44,239.19,32.56,259.8Z"/><path class="cls-4" d="M159.55,66.89s5.75-16.6,24.7-3.19c6.2,4.39,12.68,12.67,13.87,22,2.43,19.22-11.51,42.94,13,42,0,0,1.19,4.13-1.52,5.25a5.64,5.64,0,0,0,5.07-1.37c-1.29,22.65-48.2,26.58-52.43-38.38Z"/><path class="cls-2" d="M159.55,61.42s9.14,1.2,12.91,5.82c6.6,8.1,1.65,29.45-11.75,32.43Z"/><path class="cls-4" d="M45.12,144.53S14.46,135.56,6.6,115C-9.79,72.21.25,0,84,0,160.4,0,175.21,72.42,158,116.22c-9.16,23.33-39.56,28.15-39.56,28.15Z"/><path class="cls-5" d="M83.79,166.5H82.65c-31,0-56.11-23.71-56.11-52.95V100.92c20.63-12.94,37.73-32.5,51.59-58,1.76,11.45-2,21.28-10.6,29.7,11.19-4.38,20.16-12.67,27-24.75C93.24,58.65,90,67,85.29,73.43a38,38,0,0,0,16.92-20.11c2.37,18.84,16,36.81,37.69,50.6v9.63C139.9,142.79,114.78,166.5,83.79,166.5Z"/><path class="cls-6" d="M76,131.61s2.67-7.76,7.58-7.76,7.59,7.76,7.59,7.76-3.21-4.94-7.59-4.94S76,131.61,76,131.61Z"/><path class="cls-3" d="M73.69,146.75s2.54-4.52,5.47-4.31S83.69,146,83.69,146s2.63-3.46,5.71-3.39,4.43,4.51,4.43,4.51-2.76,8.33-10.07,8.33S73.69,146.75,73.69,146.75Z"/><ellipse class="cls-7" cx="60.4" cy="112.87" rx="13.02" ry="9.92"/><ellipse class="cls-7" cx="107.53" cy="112.87" rx="13.02" ry="9.92"/><path class="cls-8" d="M73.42,114.18a1.4,1.4,0,0,1-1.31-.87,1.29,1.29,0,0,1,.84-1.67,32.88,32.88,0,0,1,22.06,0,1.3,1.3,0,0,1,.8,1.69,1.41,1.41,0,0,1-1.79.76,29.58,29.58,0,0,0-20.14,0A1.48,1.48,0,0,1,73.42,114.18Z"/><path class="cls-8" d="M47.38,114.74H26.54a1.31,1.31,0,1,1,0-2.62H47.38a1.31,1.31,0,1,1,0,2.62Z"/><path class="cls-8" d="M139.9,114.74H120.55a1.31,1.31,0,1,1,0-2.62H139.9a1.31,1.31,0,1,1,0,2.62Z"/></g></g></svg>