<svg xmlns="http://www.w3.org/2000/svg" viewBox="0 0 200.29 276.5"><defs><style>.cls-1{fill:#eae5dc;}.cls-2{fill:#393c3d;}.cls-3{fill:#4c3626;}.cls-4{fill:#3f2c20;}.cls-5{fill:#f4d3b0;}.cls-6{fill:#f9f5ed;}.cls-7{fill:#efc4a0;}.cls-8{fill:#e0b594;}.cls-9{fill:#f9dab4;}.cls-10{fill:#3a332d;}.cls-11{fill:#e8dfd9;}</style></defs><title>资源 348</title><g id="图层_2" data-name="图层 2"><g id="Layer_1" data-name="Layer 1"><path class="cls-1" d="M131.91,172.36s27.34,38.55,37.48,69.54H129.07Z"/><path class="cls-2" d="M142.4,233.25c5.66-5.1,15.21-6.25,22.44-3.24,1.73,4,3.28,8,4.55,11.89h-31.5A15.9,15.9,0,0,1,142.4,233.25Z"/><path class="cls-1" d="M68.38,172.36S41,210.91,30.9,241.9H71.22Z"/><path class="cls-2" d="M57.89,233.25c-5.67-5.1-15.22-6.25-22.45-3.24-1.72,4-3.28,8-4.54,11.89H62.4A16,16,0,0,0,57.89,233.25Z"/><path class="cls-3" d="M23.46,133.64s-1.51-52.88,0-65.16C26.65,42.59,62.1,9.17,62.1,9.17v23.7S77,18.26,107.52,0l-1.08,22.34L149.57.44l-1.86,27.27,42.37-9.56S176.59,58.21,175.53,72.6c-1,13.07,2.05,56.79,2.05,56.79Z"/><path class="cls-4" d="M35.2,110.22S50.77,108,50.77,91.71,64.5,54.47,64.5,54.47l1,18.68s6.79-27.72,29.43-41.89c0,0-9.48,28.39-7.36,37.31l32.13-46.23S118,51.63,113.32,59.7c0,0,17.41-24.8,21.23-34.05,0,0,3.82,31.93,2.55,40.63,0,0,8.91-5.41,11-20.85,0,0,8.21,26.16,8.21,34.22,0,15,8.73,28,8.73,28l-66.62,6.93Z"/><path class="cls-5" d="M39.33,128.19s-9-17.89-19.1-12.73S24.1,154.36,44,157.11Z"/><path class="cls-5" d="M161,128.19s9-17.89,19.1-12.73-3.86,38.9-23.74,41.65Z"/><path class="cls-6" d="M68.3,169.36S57.11,235.16,51.47,276.5h97.34C143.18,235.16,132,169.36,132,169.36H68.3Z"/><path class="cls-2" d="M55.41,276.5h13c20.37-26,47.27-60.85,66.76-88.38-1-6.13-1.85-11.08-2.4-14.36C111.79,204.18,78.17,247.6,55.41,276.5Z"/><path class="cls-2" d="M102.88,224.64C89.94,207.57,77.24,190.4,67.2,175.92c-.61,3.58-1.42,8.48-2.39,14.32,9.38,13.17,20.34,27.9,31.4,42.46C98.29,229.9,100.6,227.28,102.88,224.64Z"/><polygon class="cls-7" points="65.63 174.33 100.14 222 134.65 174.33 65.63 174.33"/><path class="cls-8" d="M100.28,187.7s.6,6.18,1,12.37c.1,1.54.28,3.09.32,4.54a25.92,25.92,0,0,1-.32,4,19.84,19.84,0,0,1-1,3.86H100a19,19,0,0,1-1-3.86,25.84,25.84,0,0,1-.33-4c0-1.45.23-3,.33-4.54.35-6.19,1-12.37,1-12.37Z"/><path class="cls-8" d="M109.64,187.57s2.47-1.57,5-2.92c.63-.35,1.24-.78,1.85-1.05a6,6,0,0,1,1.83-.35,6.14,6.14,0,0,1,2,.25l.1.26a5.76,5.76,0,0,1-1.35,1.52,5.67,5.67,0,0,1-1.6,1c-.64.2-1.38.28-2.08.44-2.81.69-5.7,1.14-5.7,1.14Z"/><path class="cls-8" d="M90.65,187.57s-2.47-1.57-5-2.92c-.64-.35-1.24-.78-1.85-1.05a6.28,6.28,0,0,0-3.85-.1l-.1.26a6.31,6.31,0,0,0,3,2.48c.64.2,1.38.28,2.08.44,2.81.69,5.7,1.14,5.7,1.14Z"/><path class="cls-9" d="M108.82,89.8c-1.48,1.82-4.94,8.94-8.4,9.06a2.74,2.74,0,0,1-.28,0,2.56,2.56,0,0,1-.27,0c-3.46-.12-6.92-7.24-8.4-9.06-1.34-1.64-47.15,14.46-56.24,17.68V142.4a32.11,32.11,0,0,0,12.56,25.5S68.08,182.48,100.15,182s52.34-14.06,52.34-14.06a32.08,32.08,0,0,0,12.56-25.5V107.48C156,104.26,110.16,88.16,108.82,89.8Z"/><polygon class="cls-3" points="121.19 115.77 122.92 123.7 152.97 118.46 151.36 107.78 121.19 115.77"/><polygon class="cls-3" points="79.21 115.93 76.84 123.7 47.32 116.04 49.79 105.53 79.21 115.93"/><path class="cls-10" d="M151.86,130.88,124.51,136s1.66,16.27,18.71,12.06C152.68,145.7,151.86,130.88,151.86,130.88Z"/><path class="cls-11" d="M142.84,140.26a3.3,3.3,0,1,1-3.58-3A3.3,3.3,0,0,1,142.84,140.26Z"/><path class="cls-10" d="M48.54,130.11l27,6.73S72.89,153,56.12,147.75C46.82,144.85,48.54,130.11,48.54,130.11Z"/><path class="cls-11" d="M57,140a3.3,3.3,0,1,0,3.75-2.76A3.3,3.3,0,0,0,57,140Z"/><path class="cls-7" d="M110,151.36s-5-7.44-9.9-7.44-9.75,8.23-9.75,8.23,7.28-5.85,9.82-5.85S110,151.36,110,151.36Z"/><path class="cls-7" d="M72.68,162.36s3.54.28,8.79.4c2.63.11,5.69.07,9,0s6.74-.26,10.2-.61c1.72-.22,3.46-.31,5.14-.63s3.36-.46,4.94-.84,3.15-.59,4.59-1,2.84-.65,4.06-1.13,2.38-.78,3.4-1.09,1.86-.75,2.57-1l2.27-.87-2,1.32a38.72,38.72,0,0,1-5.7,3c-1.2.61-2.6,1-4,1.56a39.12,39.12,0,0,1-4.62,1.41,49.56,49.56,0,0,1-5,1.08c-1.73.36-3.51.48-5.28.73a84.35,84.35,0,0,1-10.46.32c-3.34-.09-6.43-.47-9.07-.8A57.06,57.06,0,0,1,72.68,162.36Z"/><path class="cls-7" d="M92.76,171.7a6.31,6.31,0,0,1,.66-.14c.42,0,1-.21,1.7-.32,1.38-.18,3.18-.55,5-.85a18.27,18.27,0,0,0,2.66-.41c.84-.19,1.65-.28,2.34-.41a20.24,20.24,0,0,1,2.4-.21,18,18,0,0,1-2.11,1.12c-.66.28-1.43.65-2.28,1a6.6,6.6,0,0,1-1.33.4l-1.41.23c-1,.12-1.91.24-2.81.29s-1.76-.13-2.47-.17A8.75,8.75,0,0,1,92.76,171.7Z"/><path class="cls-7" d="M18.18,219.73c-19,0-18.18,5.75-18.18,12.84C0,234.5.21,252.34,1,257A36.57,36.57,0,0,0,4,267.14l8.38,3.7,2.38-25.51c1.07,0,2.22.08,3.45.08,19,0,18.19-5.75,18.19-12.84S37.16,219.73,18.18,219.73Z"/><path class="cls-9" d="M5.15,249H3.25S.4,271,9.18,274.31s51,2,54.39.83c5.64-2,3.22-26.19,3.22-26.19Z"/><path class="cls-9" d="M54.88,267.14c6.58,0,11.91.78,11.91-18.19s-5.33-18.18-11.91-18.18S43,230,43,249,48.3,267.14,54.88,267.14Z"/><path class="cls-7" d="M45.54,234.11c1.39,6.76,2.68,14.89,1.79,21.85a44.57,44.57,0,0,1-1.89,7.84C43.9,261.26,43,256.82,43,249s1-12.46,2.55-15C45.53,234,45.53,234.06,45.54,234.11Z"/><path class="cls-9" d="M34.39,267.14c6.58,0,11.91.78,11.91-18.19S41,230.77,34.39,230.77,22.49,230,22.49,249,27.82,267.14,34.39,267.14Z"/><path class="cls-7" d="M25.21,255.73c0,2.81,0,5.6-.08,8.37-1.65-2.48-2.64-7-2.64-15.15A43.64,43.64,0,0,1,23.73,237C26.42,242.33,25.15,249.93,25.21,255.73Z"/><path class="cls-9" d="M13.72,269.7c5.77,0,10.45.78,10.45-18.19s-4.68-18.18-10.45-18.18-10.44-.79-10.44,18.18S8,269.7,13.72,269.7Z"/><path class="cls-7" d="M182.1,219.73c19,0,18.18,5.75,18.18,12.84,0,1.93-.2,19.77-1,24.47a37,37,0,0,1-2.94,10.1l-8.38,3.7-2.39-25.51c-1.07,0-2.21.08-3.45.08-19,0-18.18-5.75-18.18-12.84S163.13,219.73,182.1,219.73Z"/><path class="cls-9" d="M195.14,249H197s2.85,22-5.94,25.36-51,2-54.39.83c-5.63-2-3.21-26.19-3.21-26.19Z"/><path class="cls-9" d="M145.41,267.14c-6.58,0-11.91.78-11.91-18.19s5.33-18.18,11.91-18.18,11.9-.79,11.9,18.18S152,267.14,145.41,267.14Z"/><path class="cls-7" d="M154.75,234.11C153.36,240.87,152.07,249,153,256a44.55,44.55,0,0,0,1.88,7.84c1.55-2.54,2.47-7,2.47-14.85s-1-12.46-2.55-15A.66.66,0,0,1,154.75,234.11Z"/><path class="cls-9" d="M165.89,267.14c-6.58,0-11.9.78-11.9-18.19s5.32-18.18,11.9-18.18S177.8,230,177.8,249,172.47,267.14,165.89,267.14Z"/><path class="cls-7" d="M175.08,255.73c0,2.81,0,5.6.07,8.37,1.65-2.48,2.65-7,2.65-15.15A44,44,0,0,0,176.56,237C173.86,242.33,175.14,249.93,175.08,255.73Z"/><path class="cls-9" d="M186.56,269.7c-5.76,0-10.44.78-10.44-18.19s4.68-18.18,10.44-18.18S197,232.54,197,251.51,192.33,269.7,186.56,269.7Z"/></g></g></svg>