<svg xmlns="http://www.w3.org/2000/svg" viewBox="0 0 181.44 265.1"><defs><style>.cls-1{fill:#efc4a0;}.cls-2{fill:#ea9628;}.cls-3{fill:#e08a22;}.cls-4{fill:#393c3d;}.cls-5{fill:#302f2d;}.cls-6{fill:#515151;}.cls-7{fill:#3f3e3d;}.cls-8{fill:#f4d3b0;}.cls-9{fill:#f9dab4;}.cls-10{fill:#3a332d;}.cls-11{fill:#e8dfd9;}.cls-12{fill:#492020;}.cls-13{fill:#c65044;}</style></defs><title>资源 71</title><g id="图层_2" data-name="图层 2"><g id="Layer_1" data-name="Layer 1"><rect class="cls-1" x="58.36" y="155.39" width="43.35" height="21.7"/><path class="cls-2" d="M96,155.39c0,9.09-7.12,16.46-15.91,16.46s-15.91-7.37-15.91-16.46A17.6,17.6,0,0,1,64.3,153H45.52V265.1h65.64V153H95.77A16.16,16.16,0,0,1,96,155.39Z"/><path class="cls-3" d="M96,155.39c0,9.09-7.12,16.46-15.91,16.46s-15.91-7.37-15.91-16.46A17.6,17.6,0,0,1,64.3,153H58.49c-.08.8-.13,1.61-.13,2.43,0,12.26,9.73,22.23,21.68,22.23s21.67-10,21.67-22.23a21.72,21.72,0,0,0-.13-2.43H95.77A16.16,16.16,0,0,1,96,155.39Z"/><path class="cls-4" d="M0,230.82c.4,11.79,21.63,30.27,21.63,30.27l-.47,4h29L60.51,154.53,43.23,151.8S-.39,219,0,230.82Z"/><path class="cls-5" d="M21.63,261.09l11.49-67-17,61.86C19.29,259.06,21.63,261.09,21.63,261.09Z"/><polygon class="cls-6" points="60.45 155.18 40.71 167.14 47.76 177.04 41.85 187.14 55.31 210.02 60.45 155.18"/><path class="cls-4" d="M159.73,230.82c-.4,11.79-21.63,30.27-21.63,30.27l.47,4h-29L99.22,154.53l17.28-2.73S160.12,219,159.73,230.82Z"/><path class="cls-5" d="M138.1,261.09l-11.49-67,17,61.86C140.44,259.06,138.1,261.09,138.1,261.09Z"/><polygon class="cls-6" points="99.28 155.18 119.02 167.14 111.97 177.04 117.88 187.14 104.42 210.02 99.28 155.18"/><path class="cls-7" d="M5.75,101.85S1.41,64.31,4.32,55.93,29.23,17.37,53.63,8.09v7.64S63.28,4.26,86,1.17V6.08s20.21-9.28,38.05-4.91L123.18,7s26.24,2.18,35.69,13.29l-3.1,4.36S174.52,33.21,178,43.59l-3.1,8.92s5.65,3.46,6.56,12.74l-3.83,7.1a28.88,28.88,0,0,1,1.64,10.93s-15.11,0-16.93,4.19L156,101.85Z"/><path class="cls-8" d="M22.44,97.72S17.74,91.39,8.69,95s-1.63,33.46,15.19,33.82Z"/><path class="cls-8" d="M141.24,97.72S145.94,91.39,155,95s1.63,33.46-15.19,33.82Z"/><path class="cls-9" d="M101.53,160.82H61.94a44.05,44.05,0,0,1-44.06-44.06V92.94A13.65,13.65,0,0,1,31.53,79.29H131.94a13.65,13.65,0,0,1,13.65,13.65v23.82A44.06,44.06,0,0,1,101.53,160.82Z"/><circle class="cls-10" cx="40.71" cy="111.35" r="8.24"/><path class="cls-11" d="M43.21,106c.23,1.18-1.22,2.46-3.25,2.87s-3.88-.21-4.12-1.39,1.22-2.46,3.25-2.88S43,104.77,43.21,106Z"/><path class="cls-10" d="M28.45,87.42s15.5,5.22,23.37,15a8.13,8.13,0,0,0,2.74-6.63S48.09,86,29.7,81.12A8.18,8.18,0,0,0,28.45,87.42Z"/><circle class="cls-10" cx="120.8" cy="111.35" r="8.24"/><path class="cls-11" d="M118.3,106c-.24,1.18,1.22,2.46,3.25,2.87s3.88-.21,4.11-1.39-1.21-2.46-3.25-2.88S118.54,104.77,118.3,106Z"/><path class="cls-10" d="M133.05,87.42s-15.49,5.22-23.37,15A8.14,8.14,0,0,1,107,95.78s6.46-9.77,24.86-14.66A8.15,8.15,0,0,1,133.05,87.42Z"/><path class="cls-1" d="M70.49,128.82s5.9-9.13,9.9-9.23,9.4,9.23,9.4,9.23-3.43-11.3-9.53-11.3S70.49,128.82,70.49,128.82Z"/><path class="cls-12" d="M103.68,154.53H60.51a6,6,0,0,1-5.95-5.95v-9.3c17.59,2,40.41.75,55.07-4v13.29A6,6,0,0,1,103.68,154.53Z"/><path class="cls-13" d="M64,154.53h36.73c-1.57-6.82-9.19-12-18.36-12S65.56,147.71,64,154.53Z"/></g></g></svg>