<?xml version="1.0" standalone="no"?><!DOCTYPE svg PUBLIC "-//W3C//DTD SVG 1.1//EN" "http://www.w3.org/Graphics/SVG/1.1/DTD/svg11.dtd"><svg t="1549024625853" class="icon" style="" viewBox="0 0 1024 1024" version="1.1" xmlns="http://www.w3.org/2000/svg" p-id="26468" xmlns:xlink="http://www.w3.org/1999/xlink" width="200" height="200"><defs><style type="text/css"></style></defs><path d="M753.734375 490.90625c14.765625 0 27 13.5 27 29.953125 0 16.453125-12.234375 29.953125-27 29.953125h-93.234375c-14.765625 0-27-13.5-27-29.953125 0-16.453125 12.234375-29.953125 27-29.953125h93.234375z m0 121.921875c14.765625 0 27 13.5 27 29.953125 0 16.453125-12.234375 29.953125-27 29.953125h-93.234375c-14.765625 0-27-13.5-27-29.953125 0-16.453125 12.234375-29.953125 27-29.953125h93.234375z m72.5625-442.125H196.015625C137.796875 170.703125 90.125 224.28125 90.125 290.09375v435.796875c0 65.8125 47.671875 118.96875 105.890625 118.96875h630.28125c58.21875 0 105.890625-53.578125 105.890625-118.96875V290.09375c0-65.8125-47.671875-119.390625-105.890625-119.390625z m46.40625 243.84375v317.671875c0 22.78125-15.1875 48.9375-40.5 48.9375h-645.46875c-25.3125 0-40.5-26.15625-40.5-48.9375V414.546875h726.46875z m0.84375-83.953125H145.8125v-41.34375c0-22.78125 15.1875-48.9375 40.5-48.9375H832.625c25.3125 0 40.5 26.15625 40.5 48.9375l0.421875 41.34375z" p-id="26469"></path></svg>