<?xml version="1.0" standalone="no"?><!DOCTYPE svg PUBLIC "-//W3C//DTD SVG 1.1//EN" "http://www.w3.org/Graphics/SVG/1.1/DTD/svg11.dtd"><svg t="1548739079412" class="icon" style="" viewBox="0 0 1024 1024" version="1.1" xmlns="http://www.w3.org/2000/svg" p-id="8701" xmlns:xlink="http://www.w3.org/1999/xlink" width="200" height="200"><defs><style type="text/css"></style></defs><path d="M684.96768 78.0992H252.71808c-59.64544 0-108.05632 48.54144-108.05632 108.42624V837.4528c0 59.8848 48.41088 108.44928 108.05632 108.44928h540.32768c59.6224 0 108.03456-48.5632 108.03456-108.44928V295.01824L684.96768 78.0992zM847.06432 837.4528c0 29.92128-24.20608 54.25792-54.01728 54.25792H252.71808c-29.83424 0-54.01728-24.33664-54.01728-54.25792V186.52544c0-29.96352 24.18432-54.23488 54.01728-54.23488H603.136c-0.45568 64.98944 0.78208 162.7264 0.78208 162.7264 0 59.92704 48.36864 81.37344 108.07936 81.37344h135.06688V837.4528zM711.99744 322.1568c-29.85472 0-54.03904-24.29312-54.03904-54.25664V132.29184l189.10464 189.86496h-135.0656z m-27.02976 216.96128H360.7744c-14.88384 0-26.98752 12.12544-26.98752 27.09632 0 14.99264 12.10368 27.13856 26.98752 27.13856H684.9664c14.9056 0 26.98624-12.14592 26.98624-27.13856 0.00128-14.97216-12.08064-27.09632-26.98496-27.09632z m0 135.60832H360.7744c-14.88384 0-26.98752 12.10368-26.98752 27.09632s12.10368 27.13856 26.98752 27.13856H684.9664c14.9056 0 26.98624-12.14592 26.98624-27.13856s-12.08064-27.09632-26.98496-27.09632z" fill="#231815" p-id="8702"></path></svg>