<svg xmlns="http://www.w3.org/2000/svg" viewBox="0 0 226.25 267.37"><defs><style>.cls-1{fill:#4d9980;}.cls-2{fill:#42896f;}.cls-3{fill:#f9dab4;}.cls-4{fill:#efc4a0;}.cls-5{fill:#f4bb3b;}.cls-6{fill:#e5aa33;}.cls-7{fill:#f4d3b0;}.cls-8{fill:#492020;}.cls-9{fill:#c65044;}.cls-10{fill:#3a332d;}.cls-11{fill:#e8dfd9;}</style></defs><title>资源 309</title><g id="图层_2" data-name="图层 2"><g id="Layer_1" data-name="Layer 1"><path class="cls-1" d="M177.53,167.49l3.26,99.88h35C213.59,197.66,177.53,167.49,177.53,167.49Z"/><path class="cls-2" d="M182.88,188.93l1.19,78.44h11.22C193.41,213.27,182.88,188.93,182.88,188.93Z"/><path class="cls-3" d="M48.05,191.31s-1.76-10.25,0-16.6c.66-2.46,2.24-2.86,3.82-4.81,3.25-4-12.76-8.43-15.68,5,0,0-9.92-12.39-15.68-8.84s6.15,17.36,6.15,17.36S15.24,170.34,10,173.23s5.82,18.45,5.82,18.45S5.05,178.4.86,182.49s7,22.07,31.64,35.38l16.87-20.54Z"/><path class="cls-4" d="M36.14,174.94s-.43,4.22.79,6.62c0,0-15.12,6.19-18.15,13.8,0,0,.52-8.62,16.07-14.56C34.85,180.8,33.27,176.81,36.14,174.94Z"/><path class="cls-1" d="M112.42,167.49,77.28,215.17,48.7,191.74,28.6,216.1c13.73,13,47.31,32.64,50.4,31.83,15.68-4.12,26.69-21.5,26.69-21.5Z"/><path class="cls-2" d="M105,227.48l2.1-38.55a318.61,318.61,0,0,0-10.36,48.2A67.3,67.3,0,0,0,105,227.48Z"/><path class="cls-1" d="M99.28,267.37h90.81c-1.26-31.92-4.5-78.1-12.84-104.19H112.11C103.77,189.27,100.54,235.45,99.28,267.37Z"/><path class="cls-5" d="M69.63,99.44S49,7.89,146.25,7.89s76.93,91.55,76.93,91.55Z"/><path class="cls-6" d="M82.21,80.59s-3.34-29.54,26.93-49.42l-3.22,13.61L155,0l8.24,19.52,2.68-4.47,13.8,18.8,2.33-5.73,14.68,19s2.51-4.48,2.51-8.6c0,0,11,21.29,11,42.08Z"/><path class="cls-7" d="M85,101.53s-3.43-11.89-13.27-8.11S65.52,134,85,140.45Z"/><path class="cls-7" d="M207.72,101.53s3.43-11.89,13.27-8.11,6.2,40.55-13.27,47Z"/><path class="cls-3" d="M210.32,135a33,33,0,0,1-20.89,30.78c-9.55,3.74-23.35,6.62-43.18,6.62s-33.63-2.88-43.18-6.62A33,33,0,0,1,82.18,135V81.72A19.87,19.87,0,0,1,98.33,62.2l30.22-5.76,17.7,8.84,17.69-8.84,30.23,5.76a19.87,19.87,0,0,1,16.15,19.52Z"/><polygon class="cls-6" points="115.76 80.9 115.76 89.3 86.55 89.85 86.55 80.9 115.76 80.9"/><polygon class="cls-6" points="176.74 80.9 176.74 89.3 205.95 89.85 205.95 80.9 176.74 80.9"/><path class="cls-8" d="M125,146.13s27.37,1.63,42.84-2.17l1.35,17.91s-12.88,8.26-42.41,2.62Z"/><path class="cls-9" d="M129,164.88c20.56,3.56,32.63.26,37.58-1.73A21.31,21.31,0,0,0,129,164.88Z"/><path class="cls-4" d="M146.06,122.52c-6.81-.17-8.75,6.25-8.75,6.25a15.24,15.24,0,0,1,8.75-3.13,14.09,14.09,0,0,1,8.75,3.13A9.47,9.47,0,0,0,146.06,122.52Z"/><circle class="cls-10" cx="106.11" cy="108.62" r="8.52"/><path class="cls-11" d="M107.52,102.69c.2,1-1.07,2.16-2.85,2.52s-3.38-.19-3.59-1.22,1.06-2.16,2.84-2.52S107.31,101.66,107.52,102.69Z"/><circle class="cls-10" cx="187.34" cy="108.62" r="8.52"/><path class="cls-11" d="M185.93,102.69c-.21,1,1.06,2.16,2.84,2.52s3.39-.19,3.6-1.22-1.07-2.16-2.85-2.52S186.14,101.66,185.93,102.69Z"/></g></g></svg>