<svg xmlns="http://www.w3.org/2000/svg" viewBox="0 0 163.34 260.03"><defs><style>.cls-1{fill:#6b4627;}.cls-2{fill:#6d6d6d;}.cls-3{fill:#4c3626;}.cls-4{fill:#393c3d;}.cls-5{fill:#515151;}.cls-6{fill:#f4d3b0;}.cls-7{fill:#f9dab4;}.cls-8{fill:#efc4a0;}.cls-9{fill:#3a332d;}</style></defs><title>资源 195</title><g id="图层_2" data-name="图层 2"><g id="Layer_1" data-name="Layer 1"><path class="cls-1" d="M112,175.39s7.72,2.5,9.13,17.76,20,53.13,21.12,64.71c.07.72.13,1.45.18,2.17H100.29C93.94,232.23,86.66,176.47,112,175.39Z"/><path class="cls-1" d="M51.27,175.39s-7.72,2.5-9.13,17.76-20,53.13-21.12,64.71c-.07.72-.13,1.45-.18,2.17H63C69.35,232.23,76.63,176.47,51.27,175.39Z"/><path class="cls-2" d="M81.67,169.64c-28.17,0-30.4,5.75-30.4,5.75a124.74,124.74,0,0,1-5,27.87c-5.75,19.76-8,41.15-8.81,56.77H125.9c-.83-15.62-3.07-37-8.82-56.77A127.18,127.18,0,0,1,112,175.39S109.84,169.64,81.67,169.64Z"/><path class="cls-3" d="M123.25,232.63c-8.71.2-19.33-1-21.57,9.05-1.24,5.5-.76,12.3-.42,18.35H125.9C125.48,252.07,124.69,242.62,123.25,232.63Z"/><path class="cls-3" d="M40.09,232.63c-1.44,10-2.23,19.44-2.65,27.4H62.08c.34-6,.82-12.85-.42-18.35C59.42,231.67,48.79,232.83,40.09,232.63Z"/><path class="cls-4" d="M79.52,175.62c0,.6,4.35,48.75,2,84.41h2.57c2.35-35.93-2-84-2-84.64Z"/><path class="cls-4" d="M81.32,182.41s1.51,8.78,4.5,10.28S91,191,91,188.62,79.72,176.47,81.32,182.41Z"/><path class="cls-1" d="M59.94,160.11l21.73,5,21.73-5s5.1,11.5,2.29,14.52-7.17,4.2-23.31,4.51v0H81v0c-16.14-.31-20.6-1.58-23.31-4.51S59.94,160.11,59.94,160.11Z"/><path class="cls-5" d="M10.76,115.37S.9,70.8,0,55.37,11.19,23.22,14.19,21.94s16.71,0,16.71,0A20.54,20.54,0,0,1,43.76,6.51C55.33,1.79,80.22-.46,86.19.08c26,2.33,43.92,19.46,48.86,19.29,8.22-.29,12.86-4.29,12.86-4.29v12l11.57,1.72-7.71,5.14,11.57,12-9.43,1.71s6.86,6.86-4.71,67.72L81.05,127Z"/><path class="cls-6" d="M28,114.63S18,102.41,8,105s-4.71,21.86,5.68,31.18S43.4,147.41,43.4,147.41Z"/><path class="cls-6" d="M131.3,114.63s10-12.22,19.93-9.65,4.72,21.86-5.68,31.18-29.68,11.25-29.68,11.25Z"/><path class="cls-7" d="M79.63,71.09,14.06,73.8s2.81,61.29,22.13,78c17.13,14.83,32.36,14.81,43.44,14.62,11.09.19,26.32.21,43.46-14.62,19.31-16.72,22.12-78,22.12-78Z"/><path class="cls-8" d="M65,153.63a120,120,0,0,1,16.16-1,116.91,116.91,0,0,1,16.16,1,118.49,118.49,0,0,1-16.16,1A120,120,0,0,1,65,153.63Z"/><path class="cls-8" d="M88.53,121s-2-6.46-8.53-6.88-9.26,7.92-9.26,7.92,4.09-6.19,9.25-5.61A14.41,14.41,0,0,1,88.53,121Z"/><path class="cls-9" d="M119.72,105.88a1.58,1.58,0,0,1,1.08,1.83,8.51,8.51,0,0,1-8.73,6.53c-5.77-.08-8.4-5.41-9-8.2a1.58,1.58,0,1,1,3.09-.65c0,.22,1.27,5.61,6,5.69a5.31,5.31,0,0,0,5.58-4,1.58,1.58,0,0,1,1.87-1.23Z"/><path class="cls-9" d="M39.49,106.24l.14,0a1.57,1.57,0,0,1,1.92,1.13,5.32,5.32,0,0,0,5.76,3.78c4.66-.27,5.65-5.71,5.7-5.94a1.58,1.58,0,0,1,3.11.52c-.47,2.82-2.87,8.25-8.64,8.58a8.5,8.5,0,0,1-9-6.15A1.59,1.59,0,0,1,39.49,106.24Z"/><path class="cls-5" d="M126.25,141c-6.11,1-12.54-.82-16.72-6.35s-11.18-11.57-29.89-10.69c-18.72-.88-25.75,5.18-29.9,10.69S39.13,142,33,141c-1.64-.25-3.87-1.46-6.27-3.06,2.6,5.78,5.7,10.66,9.43,13.89.44.38.87.71,1.32,1.08,14.63,3.33,25.35-5.48,28.62-8,3.81-3,11-3.22,13.18-3.22H80c2.15,0,9.37.24,13.18,3.22,3.27,2.57,14,11.38,28.63,8,.44-.37.87-.7,1.32-1.08,3.72-3.23,6.82-8.11,9.42-13.89C130.11,139.52,127.88,140.73,126.25,141Z"/><path class="cls-5" d="M14.07,88.37S12.9,73.94,27.82,73.32s75.4-2.09,78.4,3.06,6,15.43,3,23.14c0,0,8.57-10.71,6.86-23.14,0,0,9.43,8.14,7.71,17.57,0,0,5.22-12.1,1.76-21,0,0,7.67,7.76,7.67,18,0,0,3.86-7.17,0-17.72,0,0,8.15,4,8.58,15.15,0,0,2.25-2.09,1.36-14.74,0,0,6.83,4.77,4.21,15.17,0,0,8.75-9,.52-25.29S20.5,53.66,20.5,53.66L6.78,71.09Z"/></g></g></svg>