<svg xmlns="http://www.w3.org/2000/svg" viewBox="0 0 212.18 260.64"><defs><style>.cls-1{fill:#357c5a;}.cls-2{fill:#22563c;}.cls-3{fill:#2c684a;}.cls-4{fill:#492d1a;}.cls-5{fill:#f9dab4;}.cls-6{fill:#f7cea6;}.cls-7{fill:#e5be9e;}.cls-8{fill:#a53835;}.cls-9{fill:#871f1f;}.cls-10{fill:#2d2929;}.cls-11{fill:#66402b;}.cls-12{fill:#774f35;}.cls-13{fill:#f4c7a2;}.cls-14{fill:#fff;}</style></defs><title>资源 356</title><g id="图层_2" data-name="图层 2"><g id="Layer_1" data-name="Layer 1"><path class="cls-1" d="M26.83,125.27c0,36.21,36.6,48.8,36.6,48.8l8.08,86.57h61.63c2.45-24.34,7.42-72.82,9.29-85.69,37.14-5.93,48.11-46,48.11-46l-4.24-4.24C87.8,105.58,26.83,125.27,26.83,125.27Z"/><path class="cls-2" d="M70.79,145.63C52.5,151.88,32.7,165.79,32.7,165.79l28,94.85h93.77l25.78-91.41a138.19,138.19,0,0,0-29.37-21.49C134.1,138.85,89.08,139.39,70.79,145.63Z"/><path class="cls-3" d="M180.21,160.61l16.24-37.07-10.15,1.18S159,166.61,109.76,171.48c0,0-.33,33.14-.38,89.16h56.91v-25.9l6,25.9h38.23c2-11.08,3.68-30.56-4.67-47.93C192.41,184.73,180.21,160.61,180.21,160.61Z"/><path class="cls-1" d="M186.68,180.12c-5.27-6.67-10.79-14.94-16.5-11.51s-4.76-.77,2.09-5.15,15-24.37,19.24-32.36-4.19-5-6.13-3c-1.52,6.48-8.57,12.7-18.66,24.69s-45.85,21.28-50,23.18-2.24,68.27-3.57,77.22,41.67,4.56,45,1.88c6.81-5.54,5.69-48.14,3.31-50.52s6.32-11.74,10.31-2.79-.34,31.3-.34,31.3c0,10.17,4.19,17.8,5.57,22a22.88,22.88,0,0,0,2.6,5.59h25.32c2.56-5.87,1.68-16.68,1-23.45C204.29,221.21,195.49,191.28,186.68,180.12Z"/><path class="cls-2" d="M205.87,212.71c-6.8-14.13-13.28-27.28-18-36.83-5.07,5.56-10.82,16.93-3.32,30.12,6.67,11.71,17.46,14.48,25,16.47A59.62,59.62,0,0,0,205.87,212.71Z"/><path class="cls-3" d="M32,160.61,15.73,123.54l10.15,1.18s27.33,41.89,76.54,46.76c0,0,.34,33.14.38,89.16H45.9v-25.9l-6,25.9H1.65c-2-11.08-3.69-30.56,4.67-47.93C19.78,184.73,32,160.61,32,160.61Z"/><path class="cls-1" d="M25.5,180.12c5.27-6.67,10.79-14.94,16.51-11.51s4.76-.77-2.1-5.15-15-24.37-19.23-32.36,4.19-5,6.12-3c1.53,6.48,8.57,12.7,18.66,24.69s45.85,21.28,50,23.18,2.24,68.27,3.58,77.22-41.68,4.56-45,1.88c-6.81-5.54-5.69-48.14-3.31-50.52s-6.31-11.74-10.31-2.79.35,31.3.35,31.3c0,10.17-4.2,17.8-5.58,22a22.53,22.53,0,0,1-2.59,5.59H7.33c-2.55-5.87-1.68-16.68-1-23.45C7.89,221.21,16.69,191.28,25.5,180.12Z"/><path class="cls-2" d="M6.32,212.71c6.8-14.13,13.27-27.28,18-36.83,5.07,5.56,10.82,16.93,3.31,30.12-6.66,11.71-17.45,14.48-25,16.47A59.62,59.62,0,0,1,6.32,212.71Z"/><path class="cls-4" d="M39.46,120.68H161.18l8.17-49.78s-16.18-22.5-62.16-27.07-77.76,23.1-77.76,23.1Z"/><path class="cls-5" d="M49.25,88.23,55.78,152c18.08,12.18,70.27,18.78,96.62-3,2.58-58.9,3.1-82.76,3.1-82.76s-20.44-16.9-55.09-15.49c0,0-.58,19.81-11,30.09s-22.09,8.76-22.09,8.76,3.49-6.86,3.49-11.93A19.44,19.44,0,0,1,49.25,88.23Z"/><path class="cls-5" d="M55,115.24s-3.23-11.42-14.1-8.21-9.55,14.37-5.46,19.37,17.67,12,20.76,1.78C55.91,121.83,55,115.24,55,115.24Z"/><path class="cls-6" d="M40.94,107c10.87-3.21,14.1,8.21,14.1,8.21l0,.21S50,106,40.13,108.58s-4.84,17.5-.26,19.58,11.9,5.64,16.37,0c-3.09,10.18-16.68,3.23-20.76-1.78S30.08,110.22,40.94,107Z"/><path class="cls-7" d="M50.15,119.23A9.77,9.77,0,0,0,48.64,115l-.1-.14a6.76,6.76,0,0,0-3.48-2.58,6,6,0,0,0-1.78-.3.89.89,0,0,0-.89.8.74.74,0,0,0,.79.77h.06a4.76,4.76,0,0,1,1.16.22,5.45,5.45,0,0,1,2,1.15,11.61,11.61,0,0,0-1.77.63,9.35,9.35,0,0,0-4.93,4.7c-.07.15-.14.31-.2.48a.73.73,0,0,0,.47.95H40a.92.92,0,0,0,1.07-.56c0-.13.1-.26.15-.38a7.57,7.57,0,0,1,4-3.79,11.18,11.18,0,0,1,1.93-.65l.27-.06a9.3,9.3,0,0,1,1.06,3.35.71.71,0,0,0,.51.58.78.78,0,0,0,.43,0A.87.87,0,0,0,50.15,119.23Z"/><path class="cls-5" d="M152.28,115.24s3.23-11.42,14.1-8.21,9.55,14.37,5.46,19.37-17.67,12-20.77,1.78C151.41,121.83,152.28,115.24,152.28,115.24Z"/><path class="cls-6" d="M166.38,107c-10.87-3.21-14.1,8.21-14.1,8.21l0,.21s5.12-9.45,14.94-6.87,4.84,17.5.26,19.58-11.9,5.64-16.38,0c3.1,10.18,16.68,3.23,20.77-1.78S177.24,110.22,166.38,107Z"/><path class="cls-7" d="M157.17,119.23a9.77,9.77,0,0,1,1.51-4.28l.1-.14a6.76,6.76,0,0,1,3.48-2.58,6,6,0,0,1,1.78-.3.9.9,0,0,1,.89.8.74.74,0,0,1-.79.77h-.06a4.68,4.68,0,0,0-1.16.22,5.45,5.45,0,0,0-2,1.15,12,12,0,0,1,1.77.63,9.35,9.35,0,0,1,4.93,4.7c.07.15.14.31.2.48a.73.73,0,0,1-.47.95h-.06a.92.92,0,0,1-1.07-.56c0-.13-.1-.26-.15-.38a7.6,7.6,0,0,0-4-3.79,11.18,11.18,0,0,0-1.93-.65l-.27-.06a9.3,9.3,0,0,0-1.06,3.35.71.71,0,0,1-.51.58.78.78,0,0,1-.43,0A.87.87,0,0,1,157.17,119.23Z"/><path class="cls-8" d="M30.24,71.29s71.54-27.71,138.18,5.29c0,0,3.61-17.75.42-28.69-5.33-18.28-18-42.39-62.17-47.22S40.52,17.79,33,38,29.63,68,30.24,71.29Z"/><path class="cls-9" d="M78.64,61.15a189.46,189.46,0,0,1,41.85.92V3A114,114,0,0,0,106.67.67a95.58,95.58,0,0,0-28,.77Z"/><path class="cls-10" d="M90,38c-1.46,0-2.32-.56-2.56-1.68a12.83,12.83,0,0,1-1.37-4.85,8.6,8.6,0,0,1,3.68-7.36A13.63,13.63,0,0,1,98,21.72a14.38,14.38,0,0,1,8.52,2.43,7.6,7.6,0,0,1,3.39,6.52,11.28,11.28,0,0,1-1.95,6.22,28.44,28.44,0,0,1-5.76,6q-1.07.89-6.86,5.13h14a2.06,2.06,0,1,1,0,4.12H89c-1.61,0-2.41-.61-2.41-1.81a2.34,2.34,0,0,1,1.16-1.89l10.43-7.62a55.46,55.46,0,0,0,4.69-4.06,9.38,9.38,0,0,0,2.51-6.08A3.34,3.34,0,0,0,104.1,28,9.33,9.33,0,0,0,98,25.84a10,10,0,0,0-5.26,1.26,4.94,4.94,0,0,0-2.48,4.46A13.17,13.17,0,0,0,91.4,35a2,2,0,0,1,.34,1.07A1.8,1.8,0,0,1,91,37.5,1.73,1.73,0,0,1,90,38Z"/><path class="cls-4" d="M58,104.91A1.53,1.53,0,0,1,59,103h0s2.84-.9,6.44-2.13h0c3.58-1.23,7.93-2.8,10.84-4.09h0a1.56,1.56,0,0,1,2,.76h0a1.53,1.53,0,0,1-.77,2h0c-6.17,2.73-17.58,6.33-17.61,6.34h0a1.49,1.49,0,0,1-.47.07h0a1.56,1.56,0,0,1-1.48-1Z"/><path class="cls-4" d="M139,105.47s-11.61-3-17.91-5.45h0a1.52,1.52,0,0,1-.88-2h0a1.56,1.56,0,0,1,2-.86h0c3,1.15,7.4,2.5,11,3.54h0c3.65,1,6.53,1.81,6.54,1.81h0a1.52,1.52,0,0,1,1.09,1.86h0a1.54,1.54,0,0,1-1.49,1.13h0a1.83,1.83,0,0,1-.4,0Z"/><path class="cls-4" d="M148.47,84.43a.37.37,0,0,0-.31-.26l-29.74-4.48a.4.4,0,0,0-.41.22l-2.71,5.71a.38.38,0,0,0,.29.54l26.73,4.38h.07a.39.39,0,0,0,.27-.11l5.72-5.62A.36.36,0,0,0,148.47,84.43Z"/><path class="cls-11" d="M153.14,131.7s-4.94,5.3-14,4.35-9.89-17.33-21.13-23.61-16,3.13-16,3.13-4-4.27-8-4.27c-9.83-2.34-15.5,18.27-23.83,22.46a19.86,19.86,0,0,1-16.15.56L55.78,152c6.35,4.28,16.91,7.87,29.08,9.78a19.48,19.48,0,0,0,5.86,14.84s1-4.12,7.65-8.76c0,0-2.61,13.14,8.82,20.19,0,0-1.65-8.86,1.55-12,0,0,3.1,7.62,1.55,14.28,0,0,8.52-1.71,8.52-21.32,2.72,0,3.3,4.38,2.33,7,0,0,9.7-3.91,6.14-15.35,9.44-2.22,18.18-6,25.12-11.75Q152.8,139.75,153.14,131.7Z"/><path class="cls-12" d="M56.81,137.51s.52,11.42,4,13.45,16.17,8.7,27.12,8.7c-1.35,3.42-1,9.71,2.13,14.56,0,0,2.72-8,11.24-9.14a16.62,16.62,0,0,0,3.78,18.76c0-5.71,2.23-9.52,3.39-10.66,2.42,2.38,5,8.47,3.39,14.28,3.82-2.27,7-15.43,3.49-21.71,4.31-1.95,8.91,2.76,8.23,7,4-6.85,1.65-11.32.68-13.89,6-.77,24.13-7,25.48-12.67s2.62-11.52-2.47-9.47-14.29,4.9-19.52-5.85-8.5-14-13.45-14.29c-5.73,5.81-14.84,10.67-26.37,2.77,0,0-4.16.28-6.68,5.33S74.8,141,56.81,137.51Z"/><path class="cls-4" d="M86.52,141.13c-.79,0-1.61,0-2.47-.08h0a.81.81,0,0,1-.77-.87h0a.81.81,0,0,1,.88-.76h0c.82.06,1.61.08,2.36.08h0c6.17,0,9.75-1.79,11.89-3.73h0a10.06,10.06,0,0,0,3-4.93h0a2.5,2.5,0,0,0,.07-.33h0a.82.82,0,0,1,.93-.7h0a.81.81,0,0,1,.71.92h0a10.91,10.91,0,0,1-2.68,5.27h0c-2.29,2.6-6.52,5.13-13.92,5.13h0Z"/><path class="cls-4" d="M106.71,135.14a11.9,11.9,0,0,1-2.37-4.52h0a.82.82,0,0,1,.63-1h0a.83.83,0,0,1,1,.62h0s0,.09.09.3h0c.06.2.17.51.32.87h0a11.33,11.33,0,0,0,1.62,2.68h0c1.62,1.94,4.29,3.87,9,3.88h0a21.14,21.14,0,0,0,3.89-.39h0a.82.82,0,0,1,1,.64h0a.82.82,0,0,1-.65,1h0a23.57,23.57,0,0,1-4.21.43h0c-5.2,0-8.44-2.25-10.26-4.5Z"/><path class="cls-13" d="M113.05,110c0,6.36-6,11.51-13.46,11.51S86.13,116.38,86.13,110s6-11.51,13.46-11.51S113.05,103.67,113.05,110Z"/><path class="cls-5" d="M110.93,108.59c0,4.88-5.88,9.47-12.35,9.47s-10.89-4.77-10.89-9.65,4.66-11.8,11.13-11.8C106.72,96.61,110.93,103.71,110.93,108.59Z"/><path class="cls-14" d="M108.24,111.45c.36,1.36-1.74,3.07-4.68,3.83s-5.64.27-6-1.08,1.74-3.07,4.69-3.83S107.88,110.09,108.24,111.45Z"/></g></g></svg>