<svg xmlns="http://www.w3.org/2000/svg" viewBox="0 0 172.6 260.5"><defs><style>.cls-1{fill:#ed7474;}.cls-2{fill:#e26969;}.cls-3{fill:#b24b4b;}.cls-4{fill:#2f3233;}.cls-5{fill:#f9dab4;}.cls-6{fill:#e5be9e;}.cls-7{fill:#f7cea6;}.cls-8{fill:#44302c;}.cls-9{fill:#f9f5ed;}.cls-10{fill:#f9f7f2;}.cls-11{fill:#e0605c;}.cls-12{fill:#ad3936;}</style></defs><title>资源 143</title><g id="图层_2" data-name="图层 2"><g id="Layer_1" data-name="Layer 1"><path class="cls-1" d="M156.94,204.07c-9.92-27.32-27.51-39.63-36.81-41.43,0,0,2.05,22.83,6.49,38.18,0,0,7.58,7.76,12.28,31a154.7,154.7,0,0,1,2.68,28.64H165C164.61,246.56,163.09,221,156.94,204.07Z"/><path class="cls-2" d="M145.73,182.51c-9-12.49-19.24-18.64-25.6-19.87,0,0,2.05,22.83,6.49,38.18,0,0,3.27,3.35,6.85,12.23,0,0-7.24-22.81-4.65-28.11C133,176.29,145.7,182.5,145.73,182.51Z"/><path class="cls-1" d="M14.6,204.07c9.91-27.32,27.51-39.63,36.8-41.43,0,0-2,22.83-6.49,38.18,0,0-7.58,7.76-12.28,31A156.45,156.45,0,0,0,30,260.5H6.57C6.92,246.56,8.44,221,14.6,204.07Z"/><path class="cls-2" d="M25.8,182.51c9-12.49,19.25-18.64,25.6-19.87,0,0-1.4,22.41-5.84,37.77,0,0-3.92,3.76-7.49,12.64,0,0,7.23-22.81,4.65-28.11C38.5,176.29,25.83,182.5,25.8,182.51Z"/><path class="cls-1" d="M65.79,148.4v14.53l-14.39-.29c-1.93,4.71-10.58,69.7-13.83,97.86h99.37c-4.11-26.94-13.48-87.34-16.38-97.86l-9.56.05V148.4Z"/><path class="cls-2" d="M136.93,260.5c-4.08-26.68-13.34-86.21-16.37-97.86l-3.83,0-5.73,0V148.4H90a4,4,0,0,0-.51,1.29s16.06-1,17.94,5.25-2.77,7.14-5.55,7.14H75.41c-2.78,0-7.44-.89-5.55-7.14s17.94-5.25,17.94-5.25a4.24,4.24,0,0,0-.51-1.29H65.79v14.53l-14.39-.29c-2,5.64-10.61,69.93-13.83,97.86h7c-.88-3.89-.78-8.69-.78-13.75,0-12.2,5.36-62.17,10.41-72.58,4.78-9.84,30.09-8.51,32.82-8.34v0s24.39-.22,28.35,10.09,11.9,43.22,14.28,67.42c.77,7.78,1,13.27.29,17.12Z"/><rect class="cls-2" x="83.54" y="165.68" width="2.18" height="94.83"/><polygon class="cls-3" points="84.94 165.36 93.82 168.3 91.74 171.65 84.41 166.42 84.94 165.36"/><path class="cls-2" d="M90.43,167.76s-1.55,1.06-.6,2a2.72,2.72,0,0,0,1.72,1l1.31-2.12A14.34,14.34,0,0,0,90.43,167.76Z"/><path class="cls-4" d="M167.34,48c-.12,6.76-.34,13.53-.91,20.33q-1.38,16.36-2.35,32.79H17.59c-8.61,0-9.79-25.86-10-31.82,0,0-6-43.47-6-49.76S1.49,7,20.36,3.6,139,0,154.71,0C166.27,0,168.56,6.55,168,16.74,167.43,27.2,167.51,37.61,167.34,48Z"/><path class="cls-5" d="M145.85,154.49c-7.49,6-25,3.83-34.27,3.83h-66c-7.55,0-15-.38-19.41-4.89S21.13,117,21,113.09q-.83-25.82-1.67-51.61-.09-2.94-.16-5.88c-.15-5,3.59-5.18,6.83-5.19,3.81,0,32.45.34,43.5.18,12.28-.17,24.59-.3,36.88-.16,10.38.11,20.78.19,31.17.09,3.06,0,6.12-.12,9.19-.13,1.61,0,3.65-.27,5,1.15,1.77,1.87,1,6.15.9,8.46-.43,8-.33,16.15-.55,24.19-.52,18.8-.4,37.71-1.43,56.48C150.43,144.73,150.74,150.58,145.85,154.49Z"/><path class="cls-5" d="M24.36,89.22s-11-11.08-21,0,3.33,31.91,21,20.22Z"/><path class="cls-6" d="M17.81,104.57s1-12.92-4.63-12.92S5.78,104.57,17.81,104.57Z"/><path class="cls-7" d="M13.18,91.65a4.14,4.14,0,0,0-3.6,2.52c2.59,2.5,6.52,6.63,8.25,10.16C17.92,102.59,18.31,91.65,13.18,91.65Z"/><path class="cls-5" d="M148.23,89.22s11-11.08,21,0-3.33,31.91-21,20.22Z"/><path class="cls-6" d="M154.79,104.57s-.95-12.92,4.62-12.92S166.82,104.57,154.79,104.57Z"/><path class="cls-7" d="M159.41,91.65A4.14,4.14,0,0,1,163,94.17c-2.6,2.5-6.53,6.63-8.25,10.16C154.68,102.59,154.28,91.65,159.41,91.65Z"/><path class="cls-7" d="M151.57,111.31c-4.46,5-1.63,33-8.42,39.12-7.36,6.61-79.06,2.86-100.4,3.78C24,155,21.91,119.83,21,111.31h0c0,.59,0,1.18.05,1.78.13,3.89.8,35.84,5.15,40.34s11.86,4.89,19.41,4.89h66c9.23,0,26.78,2.15,34.27-3.83,4.89-3.91,4.58-9.76,4.8-13.82C151.19,130.91,151.41,121.11,151.57,111.31Z"/><path class="cls-8" d="M60.17,79.23S58.34,69,50.49,67.14s-14.36,8.12-14.36,8.12a19.54,19.54,0,0,0-2.73,8.12S47.34,73.37,60.17,79.23Z"/><path class="cls-8" d="M110.78,80.47s1.84-10.27,9.68-12.1,14.36,8.13,14.36,8.13a19.49,19.49,0,0,1,2.73,8.11S123.61,74.61,110.78,80.47Z"/><path class="cls-4" d="M57.72,99.82l-.23.3a10.55,10.55,0,0,1-6.73,3.71c-4.57.85-11.23.66-14.21-5.45-2.76-5.63,2.92-6.48,5.54-4.94,2.44,1.44,5.44,3.14,8.09,2.13,2.13-.8,4.62-4.49,7-3S59.21,97.64,57.72,99.82Z"/><path class="cls-9" d="M41.15,95.28c.31.76-.28,1.82-1.32,2.35s-2.15.34-2.47-.43.29-1.82,1.33-2.34S40.84,94.51,41.15,95.28Z"/><path class="cls-4" d="M133.7,99.82l-.23.3a10.55,10.55,0,0,1-6.73,3.71c-4.57.85-11.23.66-14.21-5.45-2.76-5.63,2.92-6.48,5.53-4.94,2.45,1.44,5.44,3.14,8.1,2.13,2.13-.8,4.62-4.49,7-3S135.19,97.64,133.7,99.82Z"/><path class="cls-9" d="M117.13,95.28c.31.76-.28,1.82-1.33,2.35s-2.14.34-2.46-.43.28-1.82,1.33-2.34S116.82,94.51,117.13,95.28Z"/><path class="cls-7" d="M81.14,88.58c-1.72,3.48-2.53,7.25-3.82,10.88S72.7,107.13,74,111.28c1.13,3.73,4.94,5.26,8.57,5.62,9.82,1,14.46-2.82,12.14-12.64C93.67,100,87.83,75.09,81.14,88.58Z"/><path class="cls-5" d="M82.12,87.44c-1.46,3.13-2.18,6.53-3.29,9.79s-3.9,6.91-2.91,10.61c.9,3.32,4,4.65,7,4.92,8.09.76,12-2.69,10.17-11.45C92.32,97.5,87.8,75.29,82.12,87.44Z"/><path class="cls-10" d="M82.45,111.83c.09.51,1.16.78,2.42.59s2.2-.75,2.11-1.27-1.16-.78-2.41-.59S82.37,111.32,82.45,111.83Z"/><path class="cls-11" d="M79.43,125.53l34.39-5.37s6.7,28.33-7.38,29S93.1,145,88.7,138.12A128.47,128.47,0,0,0,79.43,125.53Z"/><path class="cls-12" d="M115.34,131.15c-12.57-4.76-20.5,4.17-24.44,10.85,2.5,4.73,4.29,7.71,15.54,7.17C114.56,148.77,115.77,139.2,115.34,131.15Z"/></g></g></svg>