<svg xmlns="http://www.w3.org/2000/svg" viewBox="0 0 176.91 269.12"><defs><style>.cls-1{fill:#ad3936;}.cls-2{fill:#c65044;}.cls-3{fill:#fff;}.cls-4{fill:#3a332d;}.cls-5{fill:#f4d3b0;}.cls-6{fill:#f9dab4;}.cls-7{fill:#393c3d;}.cls-8{fill:#6d6d6d;}.cls-9{fill:#efc4a0;}</style></defs><title>资源 153</title><g id="图层_2" data-name="图层 2"><g id="Layer_1" data-name="Layer 1"><path class="cls-1" d="M134.1,198.2A232.66,232.66,0,0,0,118.73,165c-14.36-3.43,3.83,83.91,8.23,104.15h24.65C151,254.47,142.51,221.18,134.1,198.2Z"/><path class="cls-1" d="M42.49,198.2A232.66,232.66,0,0,1,57.86,165c14.36-3.43-3.84,83.91-8.23,104.15H25C25.55,254.47,34.08,221.18,42.49,198.2Z"/><path class="cls-2" d="M81.44,164.87H63.06s-8.41,12.06-12.46,51c-2.42,23.29-6.4,41.52-6.55,53.24h88.8c-.14-11.72-4.12-30-6.55-53.24-4-38.95-12.46-51-12.46-51H81.44Z"/><path class="cls-3" d="M88.8,162.82v0h-.25v0L69.19,164.6s11.6,30.16,18.51,29.85c.3,0,1.66,0,2,0,6.9.31,18.51-29.85,18.51-29.85Z"/><path class="cls-4" d="M5.13,118.93S-2.19,77.86.66,64.17,25.08,28.35,25.08,28.35V41.5S39.73,9.84,80.44,0c0,0-5.87,10.7-5.58,15.83,0,0,30.93-21.82,68.53-12,0,0-12.48,5.56-13.29,6.85,0,0,30.53,3,46.81,29.08L163.47,38.5s11,7.75,13.44,35.32l-6.23-7.51s5.83,18.23-1.91,46.58l-80.32,12Z"/><path class="cls-5" d="M25.17,115.31S16.07,103.57,5.94,109s3.9,41.17,23.91,44.08Z"/><path class="cls-5" d="M147.66,115.31s9.1-11.74,19.24-6.28S163,150.2,143,153.11Z"/><path class="cls-6" d="M21.05,68.88V134a34.59,34.59,0,0,0,12.65,27s20.44,15.44,52.72,14.88,52.71-14.88,52.71-14.88a34.56,34.56,0,0,0,12.65-27V68.88Z"/><path class="cls-4" d="M15.86,108.52S46.32,90.69,58.12,76.15l-8,29.2S87.52,87.31,97,73.82L86.68,97.61S115.52,84.7,129,71.44L118,99.79s26.25-11,38.33-32.63S15.86,57.75,15.86,57.75Z"/><path class="cls-7" d="M71.27,108.06l-2.65-1.74a20.32,20.32,0,0,1,18.6-9.17c12.36.86,17.21,8.83,17.4,9.17L102,108.06c-.16-.28-4.28-6.89-15-7.64A17.17,17.17,0,0,0,71.27,108.06Z"/><path class="cls-7" d="M75.61,102.88S22,96.53,21.39,107.18s9.75,23.58,27.11,22.75S75.61,102.88,75.61,102.88Z"/><path class="cls-7" d="M97.23,102.88s53.63-6.35,54.21,4.3-9.75,23.58-27.1,22.75S97.23,102.88,97.23,102.88Z"/><path class="cls-8" d="M28.77,123.33a24.79,24.79,0,0,0,6,4l21.82-26c-3-.16-6-.27-9.1-.31Z"/><path class="cls-8" d="M117.88,128.38l22.41-26.72c-2.68-.33-5.69-.53-8.84-.61L111.77,124.5A25.18,25.18,0,0,0,117.88,128.38Z"/><path class="cls-9" d="M73.93,129.38s3.84,9.29,13.1,8.86S98.9,125,98.9,125s-4.83,9.84-12.21,9.82S73.93,129.38,73.93,129.38Z"/><path class="cls-4" d="M84,158.71H59.19c-2.42,0-4.25,6.27-5.41,12a96.38,96.38,0,0,0,32.68,5.08,109.06,109.06,0,0,0,32.6-5.53c-1.17-5.62-3-11.57-5.33-11.57H84Z"/><path class="cls-9" d="M59.58,148.87a248.46,248.46,0,0,1,26.84-1.28,243.68,243.68,0,0,1,26.84,1.28,248.7,248.7,0,0,1-26.84,1.28A248.46,248.46,0,0,1,59.58,148.87Z"/></g></g></svg>