<svg xmlns="http://www.w3.org/2000/svg" viewBox="0 0 195.12 266.51"><defs><style>.cls-1{fill:#f9dab4;}.cls-2{fill:#e0dbd1;}.cls-3{fill:#e8e3d9;}.cls-4{fill:#efc4a0;}.cls-5{fill:#515151;}.cls-6{fill:#ad3e3b;}.cls-7{fill:#f4d3b0;}.cls-8{fill:#393c3d;}.cls-9{fill:#3a332d;}.cls-10{fill:#e8dfd9;}</style></defs><title>资源 279</title><g id="图层_2" data-name="图层 2"><g id="Layer_1" data-name="Layer 1"><path class="cls-1" d="M43.93,266.51H59.3l8.79-56.3-13-2S47.1,243.53,43.93,266.51Z"/><path class="cls-1" d="M165,266.51H149.6l-8.79-56.3,13-2S161.81,243.53,165,266.51Z"/><path class="cls-2" d="M71.4,165.64S57,189.63,52.58,210.9c0,0,6.71,4.69,18.82,5.93l7.4-49.09Z"/><path class="cls-2" d="M137.57,165.64s14.36,24,18.81,45.26c0,0-6.7,4.69-18.81,5.93l-7.4-49.09Z"/><path class="cls-3" d="M62.41,266.51h84.14c-.94-58.88-11.45-102.91-11.45-102.91H73.87S63.36,207.63,62.41,266.51Z"/><circle class="cls-4" cx="104.39" cy="168.34" r="16.37" transform="translate(-25.62 18.9) rotate(-9.22)"/><path class="cls-5" d="M17.27,111.4a72.28,72.28,0,0,1-4.13-22.32c0-11.37,2.06-14.47,2.06-19.63s-1.72-11.55,0-14.26a7.29,7.29,0,0,1,8.89-3.1S17.48,48.58,20,39.69,35.45,31,46.82,22.75s16.53-12,23.76-12.19S82,16.34,90.21,14.9c0,0,9.92-15.5,27.9-14.88s16.53,9.5,25.21,15.7,19.63,6.41,23.55,12.4,0,14.88,4.76,19.63,14.05,9.71,16.11,19.43,0,15.08,2.48,19.63,5.79,14.87,2.69,24.59Z"/><path class="cls-5" d="M28.54,136.51s-6.3.87-7.82,8.9c-1.2,6.38,1.94,10.43,4.67,12.91,3.24,2.94,13.67,17.56,28.54,15.94S71.4,162.33,71.4,162.33Z"/><path class="cls-5" d="M22.35,170.25s-12.81-1.49-14.54,19C6.4,206,19.21,206,19.42,217.56c.16,8.58-5.53,17.14-19.42,16.93,0,0,2.71,3,5.32,3.14,0,0-2.82,4-2.5,7.49,0,0,3-4.23,12.26-4.12s18.51.25,21.92-5.43c3.58-6,.11-10.63,1.84-16.06s6.19-6.11,7.09-13.45c1.81-14.87-4.92-26.48-9.69-30.27Z"/><path class="cls-6" d="M25.39,158.32s-7.52,2.2-4.93,12c0,0,18.53,8.13,19.46,9.56,0,0,7.64-1.89,9.11-6.28C49,173.6,50.38,165.42,25.39,158.32Z"/><path class="cls-7" d="M30.55,104.29s-5.47-8.46-13.79-4.59S5.39,138,44.51,144.68Z"/><path class="cls-7" d="M176.09,104.29s5.46-8.46,13.79-4.59,11.37,38.25-27.75,45Z"/><ellipse class="cls-1" cx="103.15" cy="104.29" rx="76.8" ry="69.97"/><path class="cls-5" d="M26.88,86.44S19.06,145.74,49.19,145c0,0-12.93-8.39-11.61-24.21,0,0,16.13-3.19,16.19-15.07A52.46,52.46,0,0,0,49.3,84.62,67.65,67.65,0,0,0,70.62,87.1c21.27-.88,51.54-7.44,57.28-23.54,0,0-1,5,4.95,9.34s19.45,2.67,26.89,9.15,13.35,20.21,8.77,32.8-18.69,19.64-8,33.17c0,0-.73-9.61,4.22-15.16s11.7-4.71,13.9-10-.88-9.62,0-14.57c1.92-10.79,7.54-9.61,7.54-9.61L159.7,27.92,40.3,30.24Z"/><path class="cls-8" d="M49.35,84.73c-12-2.44-21.34-15-21.34-15C31.32,82,46.16,87.3,50.9,88.68A41,41,0,0,0,49.35,84.73Z"/><path class="cls-4" d="M96.88,125.29s1.34-6.5,6.77-6.5,8.44,5.7,8.44,5.7-4.18-3.76-8.44-3.51S96.88,125.29,96.88,125.29Z"/><path class="cls-4" d="M101,158a93.64,93.64,0,0,1-14.72-1.2,1.33,1.33,0,0,1,.46-2.61c.21,0,21.43,3.66,32-2.18a1.32,1.32,0,0,1,1.28,2.32C114.75,157.16,107.44,158,101,158Z"/><path class="cls-4" d="M125.83,156.2a1.32,1.32,0,0,1-1.25-1.75,3.29,3.29,0,0,0-.1-2.87c-1.07-1.75-4-2.24-4-2.25a1.32,1.32,0,1,1,.4-2.61c.17,0,4.19.66,5.91,3.49a5.79,5.79,0,0,1,.34,5.09A1.32,1.32,0,0,1,125.83,156.2Z"/><path class="cls-5" d="M75.14,143.37a1.36,1.36,0,0,1-1.1-.58,1.33,1.33,0,0,1,.35-1.84c6.38-4.35,11.89-4.2,12.12-4.19a1.32,1.32,0,0,1,1.27,1.37,1.34,1.34,0,0,1-1.37,1.28c-.08,0-4.93-.09-10.53,3.73A1.32,1.32,0,0,1,75.14,143.37Z"/><path class="cls-5" d="M71.4,149.91a1.33,1.33,0,0,1-1.08-.56,1.31,1.31,0,0,1,.31-1.84A32.75,32.75,0,0,1,83,142.32a1.32,1.32,0,0,1,.43,2.61,30.63,30.63,0,0,0-11.24,4.73A1.33,1.33,0,0,1,71.4,149.91Z"/><path class="cls-5" d="M68.1,157.52a1.32,1.32,0,0,1-.85-2.34,52.63,52.63,0,0,1,13.58-7.84,1.33,1.33,0,0,1,1.7.78,1.31,1.31,0,0,1-.78,1.7,50.34,50.34,0,0,0-12.8,7.4A1.36,1.36,0,0,1,68.1,157.52Z"/><path class="cls-5" d="M63.83,170.2a1.35,1.35,0,0,1-.44-.07,1.33,1.33,0,0,1-.81-1.69,19,19,0,0,1,11.2-11.38,1.33,1.33,0,0,1,.83,2.52h0a16.62,16.62,0,0,0-9.53,9.74A1.32,1.32,0,0,1,63.83,170.2Z"/><path class="cls-5" d="M133.05,141.8a1.3,1.3,0,0,1-.88-.34c-2.12-1.9-7.15-2.85-8.92-3.05a1.32,1.32,0,0,1,.3-2.63c.3,0,7.21.85,10.39,3.72a1.33,1.33,0,0,1,.1,1.87A1.31,1.31,0,0,1,133.05,141.8Z"/><path class="cls-5" d="M138.69,149.35a1.31,1.31,0,0,1-.81-.28c-6.19-4.86-11.93-4.91-12.09-4.91h0a1.33,1.33,0,0,1,0-2.65c.27,0,6.74,0,13.76,5.47a1.33,1.33,0,0,1-.82,2.37Z"/><path class="cls-5" d="M142.65,158.25a1.33,1.33,0,0,1-1.07-.54,17.7,17.7,0,0,0-10.34-6.45,1.32,1.32,0,1,1,.43-2.61,20.14,20.14,0,0,1,12.05,7.5,1.32,1.32,0,0,1-.29,1.85A1.34,1.34,0,0,1,142.65,158.25Z"/><path class="cls-5" d="M145.26,167.74a1.33,1.33,0,0,1-1.21-.78,12.94,12.94,0,0,0-8.19-6.89,1.32,1.32,0,1,1,.58-2.58,15.39,15.39,0,0,1,10,8.38,1.32,1.32,0,0,1-.65,1.75A1.37,1.37,0,0,1,145.26,167.74Z"/><circle class="cls-9" cx="73.87" cy="113.42" r="7.57"/><path class="cls-10" d="M75.12,108.15c.18.91-1,1.91-2.53,2.23s-3-.17-3.19-1.08.94-1.92,2.52-2.24S74.93,107.23,75.12,108.15Z"/><polygon class="cls-5" points="81.43 89.05 82.16 96.87 59.75 98 59.75 90.46 81.43 89.05"/><circle class="cls-9" cx="136.56" cy="113.42" r="7.57"/><path class="cls-10" d="M137.81,108.15c.19.91-.94,1.91-2.52,2.23s-3-.17-3.2-1.08.95-1.92,2.53-2.24S137.63,107.23,137.81,108.15Z"/><polygon class="cls-5" points="128.99 89.05 128.27 96.87 150.68 98 150.68 90.46 128.99 89.05"/></g></g></svg>