<svg xmlns="http://www.w3.org/2000/svg" viewBox="0 0 201.51 300.96"><defs><style>.cls-1{fill:#ea9628;}.cls-2{fill:#7f5732;}.cls-3{fill:#f4efed;}.cls-4{fill:#e2dcd9;}.cls-5{fill:#f4d3b0;}.cls-6{fill:#f9dab4;}.cls-7{fill:#c65044;}.cls-8{fill:#3a332d;}.cls-9{fill:#e08a22;}</style></defs><title>资源 80</title><g id="图层_2" data-name="图层 2"><g id="Layer_1" data-name="Layer 1"><path class="cls-1" d="M102.3,39.43S75.54,28,95.05,5.18c0,0-2.5,7.42,5.1,9.75,0,0,2.27-14.07,16.55-14.93,0,0-3.74,9.58-.9,13.11,0,0,4.08-8.11,16.89-6.73,0,0-9.18,4.4-5.78,11.91,0,0,3.06-4.92,12.36-3.19,0,0-8.62,4.92-8.28,10.7,0,0,6.58-.86,8.28-1.81,0,0-3.74,14.32-21.89,16.3Z"/><path class="cls-2" d="M97.54,42.24s-1.81-3.72,5.78-3.9,18,.78,17.24,5.35S114.32,48,114.32,48Z"/><path class="cls-1" d="M183.23,221.86s-49.71-14-29.71-86.16S132.38,41.8,86.63,41.8,19.83,63.54,4.41,93.1s14.28,97.81,18.44,133.4-18.44,44-18.44,44c16,18.69,37.7,9.13,37.7,9.13.4,8.72-1.39,16.25-3.91,21.06H201.35c2.74-39.63-29.55-78.8-29.55-78.8C176.37,222.81,183.23,221.86,183.23,221.86Z"/><path class="cls-3" d="M113.7,193.13H61S31.68,220.24,25.91,301h122.9C142.64,209.86,113.7,193.13,113.7,193.13Z"/><path class="cls-4" d="M118.38,223.67c-.1-.54-.2-1-.29-1.45C118.09,222.22,118.19,222.73,118.38,223.67Z"/><path class="cls-4" d="M132.75,301c-3.73-25-12.63-68.81-14.37-77.29,2.51,13.14,7.34,59.89,9.1,77.29Z"/><path class="cls-4" d="M47.24,301c1.76-17.4,6.59-64.15,9.09-77.29C54.6,232.15,45.7,275.94,42,301Z"/><path class="cls-4" d="M56.33,223.67c.2-.94.3-1.45.3-1.45C56.54,222.64,56.44,223.13,56.33,223.67Z"/><path class="cls-2" d="M91.39,213.6H83a2.17,2.17,0,0,1-2.29-2v-3.45a2.16,2.16,0,0,1,2.29-2h8.4a2.16,2.16,0,0,1,2.29,2v3.45A2.17,2.17,0,0,1,91.39,213.6Z"/><polygon class="cls-2" points="84.38 209.87 90.21 209.87 95 276.79 87.19 286.95 79.38 276.51 84.38 209.87"/><polygon class="cls-4" points="73.97 216.4 87.23 205.12 100.49 216.4 114.29 193.13 61.02 193.13 73.97 216.4"/><path class="cls-5" d="M139.21,141s9.95-9.37,19.5-3.75-2.27,33-30.33,33.15Z"/><path class="cls-5" d="M33.82,141s-10-9.37-19.5-3.75,2.27,33,30.33,33.15Z"/><path class="cls-6" d="M150.41,119.31c0,46.27-28.56,83.78-63.78,83.78s-63.78-37.51-63.78-83.78c0-21.73,28.15-33.26,58-34.57,17.46-.77,39.85-6.35,53.18-.13C146.43,90.39,150.41,107.5,150.41,119.31Z"/><path class="cls-7" d="M70.94,177.43s4.37-5,9.42-4.78a10.92,10.92,0,0,1,7.8,3.92s4.54-3.84,9.85-3.76,7.63,5,7.63,5a20.75,20.75,0,0,1-17.87,9.37C75.18,187.18,70.94,177.43,70.94,177.43Z"/><path class="cls-8" d="M41.54,142.59a1.73,1.73,0,0,1-1.91-1.44c0-3.85,2.53-11.2,12.37-11.46,9.61-.25,14,5.78,14.94,9,.24.78-.41,1.56-1.43,1.73a2,2,0,0,1-2.28-1.08c-.09-.3-2.2-6.75-10.66-6.75h-.44c-8.59.22-8.69,8.21-8.69,8.55a1.72,1.72,0,0,1-1.9,1.45Z"/><path class="cls-9" d="M33.09,123.73s27.32-3.26,37,0l-8.28-6.41S37.3,117.32,33.09,123.73Z"/><path class="cls-9" d="M142.44,123.73s-27.32-3.26-37,0l8.28-6.41S138.22,117.32,142.44,123.73Z"/><path class="cls-8" d="M38.28,142.52a32.3,32.3,0,0,1-8.19-1.1c-1-.27-1.52-1.09-1.18-1.85a2.09,2.09,0,0,1,2.42-.89,23.35,23.35,0,0,0,9.69.74,2,2,0,0,1,2.34,1c.28.77-.29,1.56-1.3,1.79A19.55,19.55,0,0,1,38.28,142.52Z"/><path class="cls-8" d="M41.78,139.51c-5.59,0-12-4-12.28-4.16a1.23,1.23,0,0,1-.26-2,2.35,2.35,0,0,1,2.68-.2h0c1.58,1,6.44,3.55,9.94,3.5A1.72,1.72,0,0,1,43.79,138c0,.8-.82,1.46-1.87,1.48Z"/><path class="cls-8" d="M131.59,142.59h0a1.72,1.72,0,0,1-1.9-1.45c0-.34-.1-8.33-8.69-8.55-8.84-.22-11,6.46-11.1,6.75a2,2,0,0,1-2.28,1.08c-1-.18-1.66-.95-1.43-1.73,1-3.22,5.33-9.25,14.94-9,9.84.26,12.39,7.61,12.37,11.46A1.73,1.73,0,0,1,131.59,142.59Z"/><path class="cls-8" d="M134.84,142.52a19.55,19.55,0,0,1-3.78-.31c-1-.23-1.6-1-1.3-1.8a2,2,0,0,1,2.34-1,23.38,23.38,0,0,0,9.69-.74,2.11,2.11,0,0,1,2.42.89c.34.76-.19,1.58-1.18,1.85A32.3,32.3,0,0,1,134.84,142.52Z"/><path class="cls-8" d="M131.34,139.51h-.14c-1,0-1.89-.68-1.87-1.48a1.72,1.72,0,0,1,1.9-1.42h.12c3.51,0,8.29-2.52,9.85-3.49a2.33,2.33,0,0,1,2.68.19,1.23,1.23,0,0,1-.26,2C143.35,135.52,136.93,139.51,131.34,139.51Z"/><path class="cls-9" d="M135.91,90.4c5.55,7.55,12.74,30.14,9.7,46.55a15.86,15.86,0,0,1,7.95-1.39C170.58,73.93,143,49.13,106,43.25l-35.46,24L68,91.59S130,82.38,135.91,90.4Z"/><path class="cls-1" d="M20.77,135.28s76.58-18.43,85.24-92L23,86.39Z"/></g></g></svg>