<svg xmlns="http://www.w3.org/2000/svg" viewBox="0 0 183.03 269.23"><defs><style>.cls-1{fill:#f9f5ed;}.cls-2{fill:#eae5dc;}.cls-3{fill:#353331;}.cls-4{fill:#282726;}.cls-5{fill:#d19f62;}.cls-6{fill:#bc8e5c;}.cls-7{fill:#f9dab4;}.cls-8{fill:#f7cea6;}.cls-9{fill:#f4af5d;}.cls-10{fill:#e59e51;}.cls-11{fill:#c49178;}.cls-12{fill:#47413e;}.cls-13{fill:#595959;}.cls-14{fill:#474747;}.cls-15{fill:#a2a2a2;}.cls-16{fill:#cecece;}.cls-17{fill:#bcbcbc;}</style></defs><title>资源 200</title><g id="图层_2" data-name="图层 2"><g id="Layer_1" data-name="Layer 1"><path class="cls-1" d="M85.72,166.18s-5.35-1.29-15,7.06-18.72,38-19.2,51.14l17.77,5Z"/><path class="cls-2" d="M73.34,192.29c-2.53-.15-5.4.09-7.66-1.22-1.71-1-2.44-3-3.87-4.46-5.75,12.32-10,28.86-10.34,37.77l17.77,5,9.38-36A20.57,20.57,0,0,0,73.34,192.29Z"/><path class="cls-2" d="M60,207.42a33.21,33.21,0,0,0-4.38-4.22c-2.41,8.09-4,16-4.15,21.18l17.77,5,2.54-9.7C68.48,215,63.75,211.72,60,207.42Z"/><path class="cls-2" d="M81.08,166.82C69.88,173,65.52,186.34,63,198.24a79.17,79.17,0,0,0-1.56,11.88c-.11,2-.38,3.94-.42,5.92a10.52,10.52,0,0,1-.33,3.45,3,3,0,0,1-.83,1.16,2.8,2.8,0,0,1-1,1.24c-1.84,1.32-4.46.35-6.33-.42-.3-.12-.58-.26-.87-.38-.13,1.17-.23,2.29-.26,3.29l17.77,5,16.48-63.15A9.5,9.5,0,0,0,81.08,166.82Z"/><path class="cls-3" d="M18.26,191.19s-7.43-10.14-4-13.6,11,5.84,11,5.84Z"/><path class="cls-4" d="M22.34,180.32c-1,.89-2.11,1.72-3.23,2.52-.49.34-1,.69-1.43,1l-.92.86-.22.24,0,0c-.32.29-.62.58-.95.87-.12.1-.26.16-.39.25a39.76,39.76,0,0,0,3.08,5.1l7-7.76A35.29,35.29,0,0,0,22.34,180.32Z"/><path class="cls-5" d="M73.56,209.52S59,178.72,50,170.38C38.59,168.6,0,208.53,0,211.67s42.53,60.5,49.11,57.44,26-37.05,26-37.05Z"/><path class="cls-6" d="M73.56,209.52S63,187.15,54.25,175.38a4.73,4.73,0,0,1-.37.79c11.17,16.75,17.35,35.14,11.31,55.32C60.64,246.71,46.72,262.88,31,248.73,20.42,239.17.61,218.76,7.7,203c.31-.7.66-1.37,1-2C3.51,206.42,0,210.72,0,211.67c0,3.13,42.53,60.5,49.11,57.44s26-37.05,26-37.05Z"/><polygon class="cls-6" points="9.2 211.31 43.62 179.24 66.1 216.62 65.78 226.63 42.43 252.84 9.2 211.31"/><polygon class="cls-1" points="9.55 209.54 43.97 177.47 66.45 214.85 66.13 224.86 42.78 251.07 9.55 209.54"/><path class="cls-2" d="M37.14,190.87c1.76-2.12.64-4.38-.19-6.86L20.33,199.49c1.16,1.42,2.31,3,3.47,4.55C28.22,199.67,33.2,195.63,37.14,190.87Z"/><path class="cls-2" d="M66.45,214.85l-.64-1.06a32.33,32.33,0,0,1-4,7.79c-3.08,4.57-8,9.4-13.94,9.55-16.75.44-25.5-13.22-34.9-24.82l-3.47,3.23,33.23,41.53,23.34-26.21Z"/><polygon class="cls-3" points="13.82 191.53 20.93 202.13 36.12 188.11 29.59 176.92 13.82 191.53"/><path class="cls-4" d="M33.05,182.86a20.73,20.73,0,0,1-16.77,12.33l4.65,6.94,15.19-14Z"/><path class="cls-7" d="M27.15,238.27c1.07-1.7,4.09-2.43,5.93-2,3,.72,2.15,2.55,1,4.72s-2.55,3.17-4.19,4.76c-1.45,1.4-3.1,2.84-5.25,2.91-2.78.09-4.67-2.32-3-4.85Z"/><path class="cls-8" d="M21.69,243.82l.19-.2a4.21,4.21,0,0,0,1.41,2c1.8,1.5,4.16-.24,5.51-1.47,2-1.82,4.32-4.13,3.95-7.13a4.15,4.15,0,0,0-.18-.84,4.17,4.17,0,0,1,.51.08c3,.72,2.15,2.55,1,4.72s-2.55,3.17-4.19,4.76c-1.45,1.4-3.1,2.84-5.25,2.91C21.89,248.76,20,246.35,21.69,243.82Z"/><path class="cls-7" d="M21.38,233.69c1.58-1.32,4.25-2.68,6.28-2.09,2.46.7,2.55,2.66,1.51,4.75a28.25,28.25,0,0,1-3.83,5c-1.29,1.52-2.58,3-4.77,3.19-3.33.32-7.74-1.33-5.8-5.55Z"/><path class="cls-8" d="M14.77,239l1.14-.93a4.61,4.61,0,0,0,1.57,3.38c2.21,1.76,4.79.5,6.45-1.44,1.48-1.73,4.94-5.19,3.85-7.82a3.22,3.22,0,0,0-.35-.64,1,1,0,0,1,.23,0c2.46.7,2.55,2.66,1.51,4.75a28.25,28.25,0,0,1-3.83,5c-1.29,1.52-2.58,3-4.77,3.19C17.24,244.88,12.83,243.23,14.77,239Z"/><path class="cls-7" d="M18.35,227.57c1.86-.82,3.67-1.77,5.7-1,2.45.94.88,3.88-.41,5.39-2.66,3.13-6.39,7.09-10.66,7.61-1.52.19-3,.11-3.84-1.4a3.94,3.94,0,0,1,.12-4.11S15.7,228.73,18.35,227.57Z"/><path class="cls-8" d="M9.14,238.17a4,4,0,0,1,.1-4.08,2.38,2.38,0,0,0,1.63,2.78c2.88.9,5.61-1.67,7.69-3.35s4.6-4.14,4.8-7.14a5.91,5.91,0,0,1,.69.19c2.45.94.88,3.88-.41,5.39-2.66,3.13-6.39,7.09-10.66,7.61C11.46,239.76,10,239.68,9.14,238.17Z"/><path class="cls-1" d="M135.29,176.51c-9.32-8.77-14.72-7.71-14.72-7.71l17.64,91.36H152a32.09,32.09,0,0,0,1.91-3.07,22.85,22.85,0,0,0,2.1-15C152.92,221.94,144.61,185.28,135.29,176.51Z"/><path class="cls-2" d="M148.32,259.52a.57.57,0,0,1-.78-.21c-1.45-3.61-2.48-8.11-1.65-12a24.48,24.48,0,0,1,2.46-5.74,4.71,4.71,0,0,0-.15-4.74c-3.21-3-7.18-5.39-8.94-9.69-2.84-6.91-1.27-15-1.16-22.28.19-12.76-3.51-26.19-12.72-35.15-3.12-1.24-4.81-.92-4.81-.92l17.64,91.36H152a32.09,32.09,0,0,0,1.91-3.07,20.06,20.06,0,0,0,1.55-3.71A18.34,18.34,0,0,1,148.32,259.52Z"/><path class="cls-1" d="M99.51,206l-4.68,54.18H144c-1.39-10.08-3.12-19.76-4.67-23.57-3.42-8.45-5-49.84-5-49.84S130,168.2,111.74,166.26c0,0,.56,16.46-1.68,27.83Z"/><path class="cls-2" d="M99.51,205.21l-4.68,55h5.23c.44-9.48.89-19,1.44-28.44.29-5,.4-9.45.74-14.46.25-3.79.52-5.8-.28-8.3C101.51,207.54,100.6,205.76,99.51,205.21Z"/><path class="cls-1" d="M91.11,161.13,85.6,171.28l14,38.27,10.51-17.75s5-22,1.48-27.79S91.11,161.13,91.11,161.13Z"/><path class="cls-2" d="M111.59,164c-3.53-5.84-20.48-2.88-20.48-2.88L85.6,171.28l14,38.27,10.51-17.75S115.13,169.84,111.59,164ZM108,187a65.37,65.37,0,0,1-4.41,10.27c-.52,1.08-2.49,3.93-3.84,4.26-1.53.38-1.83-.9-2.19-2.15a97.18,97.18,0,0,1-2.72-9.75c-.64-3.56-1.44-7.07-2.26-10.59a66.49,66.49,0,0,1-1.8-9.37.57.57,0,0,1,.74-.53,22.9,22.9,0,0,0,2.68.8c2.57.09,5.17.3,7.74.15,3-.16,5.26-1.55,7.73-3.06a.57.57,0,0,1,.85.51C109.63,174.34,110.4,178.68,108,187Z"/><rect class="cls-2" x="84.69" y="187.43" width="29.66" height="0.47" transform="translate(-93.15 277.11) rotate(-86.97)"/><polygon class="cls-2" points="94.34 167.24 95.43 179.78 100.16 173.62 105.02 178.88 105.31 165.61 94.34 167.24"/><path class="cls-1" d="M99.67,168.1c-.14-.71-.29-1.41-.39-2.11l-4.39.65,1,11.29,3.9-5.08A21.5,21.5,0,0,0,99.67,168.1Z"/><path class="cls-1" d="M100.4,165.82a29.27,29.27,0,0,1,.49,3.38c0,1.34,0,2.68,0,4l3.61,3.91.26-12Z"/><path class="cls-2" d="M99.85,170.56a14.18,14.18,0,0,0-.18-2.46c-.14-.71-.29-1.41-.39-2.11l-4.39.65.31,3.5A25.86,25.86,0,0,0,99.85,170.56Z"/><path class="cls-2" d="M100.91,170.44a27.63,27.63,0,0,0,3.76-.82l.1-4.45-4.37.65a29.27,29.27,0,0,1,.49,3.38C100.91,169.61,100.91,170,100.91,170.44Z"/><path class="cls-1" d="M95.56,201.62c-4.82-4.68-9.33-32.49-4.73-36.76,0,0-15.84,2.19-20.68,15-3.74,9.89-9.18,24.85-9.24,80.27H98.34l2.26-50.59S100.37,206.28,95.56,201.62Z"/><path class="cls-2" d="M105.47,207.19c3.27-.36,7-.45,10.18-1.61,4.21-1.56,2.44-7.66,1.83-11.08-.55-3.1-1.87-6.07-2.34-9.14-.14-.87-.57-2.4.42-3,.47-.26,1.06-.16,1.56-.33,2-.72,2-2.56,1.63-4.23-.87-4.34-2.94-7.73-5.1-11.3-.62-.12-1.25-.21-1.91-.28,0,0,.56,16.46-1.68,27.83L99.51,206l-.14,1.67Q102.43,207.52,105.47,207.19Z"/><path class="cls-1" d="M111.59,164s6.79,15.7,6.06,16.4-5-.11-5-.11,5.31,17.53,3.62,22.91a71.51,71.51,0,0,0-9.43,1.94,27,27,0,0,1-9.75.89,43.23,43.23,0,0,0,10-14C110.89,183.55,112.34,171.76,111.59,164Z"/><path class="cls-2" d="M100.77,205.74c-.38-.7-.82-2.22-1.26-2.94-1.42,1.57-2.94,3.62-2.94,3.62a28.64,28.64,0,0,0,4.39-.32C100.9,206,100.84,205.86,100.77,205.74Z"/><path class="cls-2" d="M87.7,165.57c-2.09,3.73-8.33,14.89-6,15.36,1,.21,2.74.51,3,1.75.48,2.24,0,4.77-.29,7-.4,3.42-1.15,7.39-.42,10.8s4.32,3.89,7.13,4.7c3,.87,6.09,1.72,9.08,2.78a18.69,18.69,0,0,0-4.59-6.35c-4.82-4.68-9.33-32.49-4.73-36.76A25,25,0,0,0,87.7,165.57Z"/><path class="cls-1" d="M90.16,165.79a13.48,13.48,0,0,0-4.56,5.49,36.67,36.67,0,0,0-2.48,9.08l3.59.08s-1.74,19.37-1,21.24S99,206,99,206,88.57,173,90.16,165.79Z"/><path class="cls-9" d="M45.07,96.23,31.13,94s-7.71-53,1.14-66.24S78-1.22,110.83.07,163.67,11.23,166.62,33c0,0,18.33-2.73,11.88,30.81s-9.42,38.6-9.42,38.6Z"/><path class="cls-10" d="M54.78,54.36c7,.4,14.14-.28,21.07.34,5.41.48,8.56,2.34,12.27,6.24,6.13,6.45,14.7,9.83,23.45,7,3.64-1.17,8.65-2.94,11.4-5.82,1.43-1.5,2.65-4,4.47-5.1,4.84-3,12.29-1,17.65-.77,11.47.57,23,1,34.43.77,1.13-10.51-.68-16.47-3.28-19.83-9.85,2-20.13,1-30.57.81-5.49-.13-13.07.83-18.06-2-2.23-1.25-3.61-4.41-5.26-6.2-2.49-2.69-5.38-5.41-9-6.51a28.39,28.39,0,0,0-26.29,5.89c-4.15,3.75-7.35,6.32-13.26,5.71a117.19,117.19,0,0,0-25.12-.18c-6.39.68-12.84.2-19.23.62A92.78,92.78,0,0,0,28,53.28C36.94,53.51,45.87,53.84,54.78,54.36Z"/><path class="cls-10" d="M153.22,67.52c11.18-6.76,14.63-19.25,12.68-31.75-4.93,8.45-8.77,17.59-16.59,23.89a.61.61,0,0,1-.14.07c-.32.76-.7,1.49-1.08,2.22C148.21,64.69,150.29,67.75,153.22,67.52Z"/><path class="cls-10" d="M67.08,97.33C75.9,95.67,84.55,92.42,92.67,89c7.89-3.32,15.76-6.64,23.32-10.65,5.18-2.74,10.28-5.6,15.46-8.33-10.46,1.91-21,3.39-31.65,3.39-11.92,0-24.71-1.21-35.94-5.46C54.39,64.38,45.55,58,43,47.68c-2.45-9.71.39-29.75.44-29.84-4.82,3-9,6.71-11.12,9.9C23.42,41,31.13,94,31.13,94l13.94,2.25Z"/><path class="cls-10" d="M172.05,80.39c-4.17-.27-9.15-.27-12.69,2.3-5.2,3.78-10.55,11.9-9.13,18.77l18.85.93s1.9-3.26,6-21.69C174.05,80.57,173.05,80.46,172.05,80.39Z"/><path class="cls-7" d="M41.35,83.6s-16,.16-16.26,12.74S29,112.69,40.72,112.1Z"/><path class="cls-8" d="M41,98.13a17.16,17.16,0,0,1-8.51-5.54A8.69,8.69,0,0,0,31,95.38c-1.49,4.42-.2,7.7,2.35,10.13a13.81,13.81,0,0,1,7.63-2.75Z"/><path class="cls-7" d="M153.06,91.2s7.53-4.77,12.31-1.77,8.95,8.64,7,17.24-8,12.59-19.89,9.13Z"/><path class="cls-8" d="M163.62,109.43c.07-.14.15-.26.21-.4a18,18,0,0,0,.7-12.74,17.76,17.76,0,0,1-11.69,5l-.13,6A16.17,16.17,0,0,1,163.62,109.43Z"/><path class="cls-7" d="M40.73,64.17S58.25,80.66,95.63,77s58.7-21.92,61.31-19.32-.41,53.19-1.45,65.89-.79,34.49-12.22,36.73c-20.94,4.11-32.06,3.87-32.06,3.87s-2.38,4.59-12.28,4.76-10.54-5.27-10.54-5.27-27.77-.73-33-3S42.2,152.8,41.29,142.55,36.17,64.07,40.73,64.17Z"/><path class="cls-11" d="M70.26,134c.24.82,1.7,7.95,10.47,9.15s35.58-2.32,37.62-2.57,2.78,1.16.05,2.28-26.52,5.12-39.54,1.6-12-9.37-11.27-10.4S70,133.21,70.26,134Z"/><path class="cls-8" d="M149.74,139.42c-1.49,5.55-3.25,12.24-7.86,16.11-5,4.18-12.24,4.3-18.44,4.61a36.44,36.44,0,0,0-11.33,2.09,49,49,0,0,1-9.53,2.92,15.59,15.59,0,0,1-8.9-1.34,35.57,35.57,0,0,0-12.06-3.28c-7.2-.62-14.2-1-20.87-4.08-6-2.75-10.92-6.81-13.51-13a60.31,60.31,0,0,1-3.05-9.73,50.09,50.09,0,0,1-1.63-8.19c-.19-3.32.26-7-.66-10.18a3.53,3.53,0,0,0-2.42-2.68c.63,13.71,1.46,26,1.81,29.88.91,10.25,8.78,15.82,14.06,18.12s33,3,33,3S89,169.13,98.93,169s12.28-4.76,12.28-4.76,11.12.24,32.06-3.87c11.43-2.24,11.18-24,12.22-36.73.09-1.08.19-2.43.3-4C153.74,126.2,151.53,132.74,149.74,139.42Z"/><path class="cls-8" d="M67.87,79.17A90,90,0,0,0,112,77.83a135.64,135.64,0,0,0,22.4-9.3c4.82-2.43,9.34-5.83,14.76-6.7a19.35,19.35,0,0,1,8.58.38c-.16-2.47-.43-4.08-.84-4.49C154.33,55.12,133,73.44,95.63,77s-54.9-12.87-54.9-12.87c-.52,0-.93.86-1.24,2.44C48.19,72.34,57.61,76.91,67.87,79.17Z"/><path class="cls-9" d="M48,93,65.8,88.13s-1.24-8.95-11.56-6.89S48,93,48,93Z"/><path class="cls-9" d="M124.43,82.41l23.41,12.75s5.11-11.75-5.9-17.09S124.43,82.41,124.43,82.41Z"/><path class="cls-12" d="M64,93.4c3.82,3.22,4.68,10.16,1.59,13.81a8.87,8.87,0,0,1-12.5.77c-3.81-3.23-4.67-10.17-1.58-13.82A8.85,8.85,0,0,1,64,93.4Z"/><path class="cls-1" d="M59.89,94.55c.77,1.48-.22,3.5-2.19,4.52s-4.19.63-5-.85.22-3.5,2.19-4.52S59.13,93.06,59.89,94.55Z"/><path class="cls-12" d="M130.22,89.68c4.95.64,9.45,6,8.84,10.73A8.86,8.86,0,0,1,129,107.85c-4.95-.64-9.45-6-8.84-10.73A8.86,8.86,0,0,1,130.22,89.68Z"/><path class="cls-1" d="M128.15,93.12c1.2,1.16.92,3.39-.62,5s-3.77,1.94-5,.78-.92-3.39.62-5S127,92,128.15,93.12Z"/><path class="cls-8" d="M83.7,92.83l-7.21,24.58s-.23,9.55,7.18,9.67,24.19-.46,24.19-.46,6.42.37,3.42-9.06-7.75-22-7.75-22S99.41,86,83.7,92.83Z"/><path class="cls-7" d="M86.35,91l-6.28,22.16s-.22,8.61,6.17,8.7,20.87-.47,20.87-.47,5.55.32,3-8.17-6.64-19.84-6.64-19.84S99.91,84.84,86.35,91Z"/><path class="cls-11" d="M65.34,134.42s.69-3.67,4-3.91.2-2.49-1.75-1.78a6.87,6.87,0,0,0-3.13,3S63.27,136.1,65.34,134.42Z"/><path class="cls-13" d="M178.77,55.28c-6.12-.13-145.14-3-149.92-3.31s-5.27-14.74.33-14.86c9.42.21,145.13,3,149.92,3.31S184.89,55.4,178.77,55.28Z"/><path class="cls-14" d="M127.59,39.17l-46.86-1c-1.06,4.88-2.18,10.55-1.64,15l46.2,1C127.46,49.39,128.88,43.89,127.59,39.17Z"/><path class="cls-2" d="M120.63,58.35a21.26,21.26,0,1,1-3.54-29.85A21.26,21.26,0,0,1,120.63,58.35Z"/><path class="cls-15" d="M117.09,28.5a21.26,21.26,0,1,0,3.54,29.85A21.25,21.25,0,0,0,117.09,28.5ZM88.76,47.18a1.21,1.21,0,0,1-.71-2.31A1.21,1.21,0,0,1,88.76,47.18Zm8.89-15.44a13.82,13.82,0,0,0-7.39,10.92c-.19,1.54-2.54,1-2.35-.55A16.07,16.07,0,0,1,96.36,29.7C97.73,29,99,31,97.65,31.74Z"/><path class="cls-16" d="M107,47.58a3.86,3.86,0,1,1-.64-5.41A3.85,3.85,0,0,1,107,47.58Z"/><path class="cls-17" d="M107.94,40.1a6.4,6.4,0,0,1,2.22,3.31,139.06,139.06,0,0,0,13.41-6.33A21.19,21.19,0,0,0,102.72,24a72.91,72.91,0,0,0,.83,9.78c.24,1.65.45,3.3.66,4.95A6.38,6.38,0,0,1,107.94,40.1Z"/><path class="cls-17" d="M104.56,51.64a6.42,6.42,0,0,1-4.64-1.35,6.73,6.73,0,0,1-1.3-1.37c-4.72,1.61-9.5,3.1-14.27,4.54a21.2,21.2,0,0,0,22.51,12.77C106,61.38,105.13,56.53,104.56,51.64Z"/></g></g></svg>