<svg xmlns="http://www.w3.org/2000/svg" viewBox="0 0 210.79 284.25"><defs><style>.cls-1{fill:#4d9980;}.cls-2{fill:#438970;}.cls-3{fill:#3c7a62;}.cls-4{fill:#c6d9de;}.cls-5{fill:#f2d0af;}.cls-6{fill:#e5c4a5;}.cls-7{fill:#7f5732;}.cls-8{fill:#f4d3b0;}.cls-9{fill:#ddb58e;}.cls-10{fill:#3a332d;}.cls-11{fill:#6b4627;}</style></defs><title>资源 263</title><g id="图层_2" data-name="图层 2"><g id="Layer_1" data-name="Layer 1"><path class="cls-1" d="M40.58,189s-10,2.56-29.38,92.48A13.84,13.84,0,0,0,14,284.25H35.89C38.4,268.26,51,185.12,40.58,189Z"/><polygon class="cls-1" points="115.43 183.42 161.99 201.21 167.67 223.36 143.28 235 116.71 228.13 115.43 183.42"/><path class="cls-2" d="M79.82,193.56l-40.41-3.2s-7.95,48.07-5.56,93.71a2.43,2.43,0,0,0,.29.18h91.37a2.43,2.43,0,0,0,.29-.18c2.38-45.64-5.57-93.71-5.57-93.71Z"/><polygon class="cls-3" points="75.83 284.25 77.87 284.25 78.69 204.05 76.64 204.01 75.83 284.25"/><path class="cls-3" d="M77.66,216.12s3.58,9.84,5.67,10,5.91-3.19,5.28-5S75.28,209,77.66,216.12Z"/><path class="cls-1" d="M28.17,190.36,77.66,212.8l46.2-22.44s1.55-13.2-14.76-13.5C95.56,176.62,25.71,166.88,28.17,190.36Z"/><polygon class="cls-4" points="77.66 212.8 96.02 175.97 50.43 175.54 77.66 212.8"/><path class="cls-5" d="M130.76,216.12a22.86,22.86,0,0,1,6.64,9.2c2,5.62,6.39,11.24,9.83,12.77s17.5-2,17.5-2,5.37,5.87,9.2,7.41,24.52-2.05,21.2-19.67c0,0,10.73-2,11.24-6.14s-5.11-11-5.11-11,7.17-2.85,8.69-6.64c2-5.11,1.79-12.5-17.63-12.38,0,0,12.78-11.83,10.73-16.59s-9.45-11.14-17.62-6.8-15.05,13.92-15.05,13.92,2.78-19.79-8.71-19.54-10,10.48-11.24,43.94c0,0-11.61-6.13-17.05-6.13s-21.08-1.53-20.16,8.18S121.31,208.71,130.76,216.12Z"/><path class="cls-6" d="M168.82,215.87a4.76,4.76,0,0,1,.3.62,9.79,9.79,0,0,1,.51,1.75,12.75,12.75,0,0,1,.25,2.53,15.14,15.14,0,0,1-.19,2.9,15.39,15.39,0,0,1-.68,2.81,11.07,11.07,0,0,1-.95,2.34,15.08,15.08,0,0,1-1.28,2.12,15.32,15.32,0,0,1,.16-2.46c.11-.71.21-1.53.32-2.41s.32-1.78.41-2.71.29-1.84.42-2.7.23-1.68.38-2.39C168.65,216.87,168.82,215.87,168.82,215.87Z"/><path class="cls-6" d="M170.38,178.18a38.68,38.68,0,0,0-.11-10.25c-.1,1.84-.17,3.84-.17,5.85,0,3.47.17,6.94.43,9.53s.59,4.34.59,4.34.34-1.73.59-4.34c.2-2.05.35-4.65.4-7.35C171,177.29,170.38,178.18,170.38,178.18Z"/><path class="cls-6" d="M201.26,206.67a28.06,28.06,0,0,0,2.54-1.2c-.34.07-.67.13-1,.22a17.46,17.46,0,0,1-2.43.52c-1.66.26-3.32.51-4.87.82-.78.16-1.55.2-2.27.31s-1.4.19-2,.29c-2.53.39-4.23.83-4.23.83s1.71.25,4.3.34c.64,0,1.35.06,2.09.06a18.33,18.33,0,0,0,2.33,0c1.62-.14,3.34-.37,5.06-.61a8.26,8.26,0,0,0,1.46-.31C201.65,207.14,201.26,206.67,201.26,206.67Z"/><path class="cls-6" d="M150.43,202.58s.64-.09,1.78-.14a46.66,46.66,0,0,1,4.72,0c1,.08,2,.12,3.14.29s2.29.3,3.49.57A50.15,50.15,0,0,1,171,205.4c1.2.53,2.43,1,3.59,1.6a30.3,30.3,0,0,1,3.31,1.89,23,23,0,0,1,2.88,2.11,20.76,20.76,0,0,1,2.35,2.16c.66.73,1.25,1.42,1.76,2s.83,1.24,1.15,1.71c.62,1,.94,1.52.94,1.52s-.47-.45-1.25-1.27c-.4-.4-.83-.92-1.4-1.45s-1.29-1-2-1.68-1.61-1.15-2.46-1.8-1.9-1.16-2.9-1.79-2.15-1.06-3.24-1.66-2.3-1-3.46-1.46-2.37-.88-3.57-1.23-2.36-.75-3.52-1c-2.3-.64-4.49-1.06-6.38-1.45s-3.47-.65-4.59-.79Z"/><path class="cls-7" d="M145.06,138.25l2.4-34,11-20.44h-4.3L168.82,41.9l-21.36,1.78V17.12L130.4,29.63,127.87,0s-22.5,13.54-32.61,18.9S22.21,46.75,17.15,60s-6.32,19.42-6.32,19.42S2,77.92.21,83s8,55.22,8,55.22Z"/><path class="cls-8" d="M26.07,130.82s-8.51-10.57-17.16-2.94c-8.93,7.87,5.72,32.87,19.26,33.74Z"/><path class="cls-8" d="M127.34,130.82s8.51-10.57,17.16-2.94c8.93,7.87-5.72,32.87-19.26,33.74Z"/><path class="cls-5" d="M88.47,190.36H65.23a44.92,44.92,0,0,1-44.92-44.92V78.2l113.07.69v66.55A44.91,44.91,0,0,1,88.47,190.36Z"/><path class="cls-7" d="M128.16,149.2c.69,14.5-8.91,14.63-11.84,15.1-13.1,2.15-9-18.69-38.32-18.69S49.09,166.45,36,164.3c-2.93-.47-11,.17-10.31-14.34.39-8-2.62-10.82-5.36-11.71v7.19a44.93,44.93,0,0,0,29.53,42.21,21.56,21.56,0,0,1-.59-5c0-13.79,12.93-25,28.88-25s28.87,11.17,28.87,25a22.05,22.05,0,0,1-.39,3.91,44.92,44.92,0,0,0,26.77-41.09v-7.19C130.65,139.14,127.77,141.16,128.16,149.2Z"/><path class="cls-9" d="M64.69,138.67s2.46-8.24,9-8.41S86,140.44,86,140.44s-7.3-8.06-12.42-8S64.69,138.67,64.69,138.67Z"/><path class="cls-10" d="M35.34,129.4a1.47,1.47,0,0,1-1.46-1.33,7.93,7.93,0,0,1,6-8.23c5.16-1.52,9,2.5,10.28,4.83a1.48,1.48,0,1,1-2.58,1.44c-.11-.19-2.69-4.66-6.87-3.43a5,5,0,0,0-3.87,5.11,1.48,1.48,0,0,1-1.33,1.61Z"/><polygon class="cls-7" points="50.26 108.71 51.6 112.18 27.23 114.81 28.36 109 50.26 108.71"/><path class="cls-10" d="M117.29,129.4h-.14a1.48,1.48,0,0,1-1.33-1.6,4.94,4.94,0,0,0-3.86-5.12c-4.18-1.23-6.76,3.24-6.87,3.43a1.48,1.48,0,0,1-2.58-1.44c1.3-2.33,5.11-6.34,10.28-4.83a7.93,7.93,0,0,1,6,8.23A1.47,1.47,0,0,1,117.29,129.4Z"/><polygon class="cls-7" points="102.38 108.71 101.04 112.18 125.41 114.81 124.28 109 102.38 108.71"/><path class="cls-7" d="M14.27,109.68S24,87,27.23,85.84s98.42-1.88,100.46.34,5.69,28.1,5.69,28.1l2.86-45.15L19,70Z"/><path class="cls-11" d="M134.33,80.22s5.32-9.77,6.91-14.29c-5.14,2.51-17.64,3.56-17.64,3.56L128,60.24l-16.69,4.6-.12-6S85.71,75.09,67.29,84.77c27.5-.18,59.23.14,60.4,1.41s2.65,9.16,3.86,16.31a87.09,87.09,0,0,0,13.19-24.07C142.47,80.14,134.33,80.22,134.33,80.22Z"/><path class="cls-9" d="M60.68,171.08l1.47.07c.93.1,2.28.07,3.86.17s3.45.13,5.43.12c1,0,2,0,3.06,0s2.1,0,3.15,0h3.16l3-.12,2.87-.05c.91,0,1.77-.09,2.57-.11,1.59-.09,2.93-.08,3.87-.11s1.48,0,1.48,0-.51.16-1.42.38-2.22.57-3.8.89c-.79.14-1.65.38-2.57.46l-2.88.33c-1,.09-2,.23-3.1.29l-3.22.07c-1.07,0-2.15,0-3.21,0s-2.1-.15-3.11-.22c-2-.15-3.87-.49-5.46-.76s-2.89-.67-3.8-.94S60.68,171.08,60.68,171.08Z"/><path class="cls-9" d="M72,177.55s.78-.14,1.84-.22c.54-.06,1.15-.09,1.8-.11s1.33,0,2-.06l2,0c.65,0,1.27.09,1.8.1a10,10,0,0,1,1.85.27,8.77,8.77,0,0,1-1.67.89,8.06,8.06,0,0,1-1.83.54,9,9,0,0,1-1.06.17l-1.1,0a11.67,11.67,0,0,1-2.17-.2,9.88,9.88,0,0,1-1.84-.52A6.09,6.09,0,0,1,72,177.55Z"/></g></g></svg>