<svg xmlns="http://www.w3.org/2000/svg" viewBox="0 0 166.13 260"><defs><style>.cls-1{fill:#e0dbd3;}.cls-2{fill:#d1ccc7;}.cls-3{fill:#c6c2bd;}.cls-4{fill:#3f3633;}.cls-5{fill:#f9dab4;}.cls-6{fill:#e5be9e;}.cls-7{fill:#f7cea6;}.cls-8{fill:#efc4a0;}.cls-9{fill:#e5c29c;}.cls-10{fill:#2f3233;}.cls-11{fill:#f9f7f2;}.cls-12{fill:#fff;}</style></defs><title>资源 138</title><g id="图层_2" data-name="图层 2"><g id="Layer_1" data-name="Layer 1"><path class="cls-1" d="M17.46,209.59C6.5,236.12-.42,250.88,0,260H34a108.06,108.06,0,0,0,7.79-13.29c3.86-7.38,11.93-91.16,11.93-91.16S35,167.26,17.46,209.59Z"/><path class="cls-2" d="M28.38,186.94c7,3.66,16.24,13,14.32,36.57,1.79-4.42,3.46-8.67,5-12.76,3.13-25.57,6-55.2,6-55.2S42,162.89,28.38,186.94Z"/><path class="cls-1" d="M148.67,209.59c11,26.53,17.88,41.29,17.44,50.41h-34a109,109,0,0,1-7.78-13.29c-3.86-7.38-11.93-91.16-11.93-91.16S131.18,167.26,148.67,209.59Z"/><path class="cls-2" d="M137.75,186.94c-7,3.66-16.25,13-14.32,36.57q-2.69-6.63-5-12.76c-3.13-25.57-6-55.2-6-55.2S124.17,162.89,137.75,186.94Z"/><path class="cls-1" d="M49.53,163.55c-3.26,7-12,79.56-15.39,96.45h105c-1.53-8.27-3.66-17.55-5.39-26.19-4.17-20.87-21.32-77.68-21.32-77.68H57S53,156.13,49.53,163.55Z"/><path class="cls-3" d="M49.53,163.55c-1,2-2.36,9.62-4,19.78,6.83,1.47,15.23,1.37,17.68-6.86,2.3-7.72-.18-15.11-3-20.34H57S53,156.13,49.53,163.55Z"/><path class="cls-3" d="M121.45,187.07c-4.8-16.78-9.07-30.94-9.07-30.94h-1.75c-3.41,5.06-7.94,14.14-5.08,23.74C107.79,187.4,115,188.12,121.45,187.07Z"/><path class="cls-3" d="M86.22,249.77v-42H73.55V181l16.51-8.93a.79.79,0,0,1,1.09.36h0a.86.86,0,0,1-.35,1.14h0L75.17,182v24.09H87.84v43.68a.82.82,0,0,1-.81.84h0a.82.82,0,0,1-.81-.84Z"/><path class="cls-3" d="M91.05,189a4.48,4.48,0,1,1-4.48-4.48A4.49,4.49,0,0,1,91.05,189Z"/><path class="cls-3" d="M34.14,260h105c-1-5.55-2.32-11.56-3.59-17.52-44,10.84-84.78,3.35-98.56.15C35.83,250.19,34.86,256.38,34.14,260Z"/><ellipse class="cls-4" cx="84.45" cy="80.17" rx="81.02" ry="80.17"/><path class="cls-5" d="M24.14,109.86s-10-11.38-19,0,3,32.76,19,20.75Z"/><path class="cls-6" d="M18.2,125.61s.86-13.26-4.19-13.26S7.3,125.61,18.2,125.61Z"/><path class="cls-7" d="M14,112.35a3.8,3.8,0,0,0-3.27,2.59c2.35,2.56,5.91,6.8,7.47,10.43C18.3,123.58,18.66,112.35,14,112.35Z"/><path class="cls-5" d="M142.84,109.86s10-11.38,19,0-3,32.76-19,20.75Z"/><path class="cls-6" d="M148.78,125.61s-.86-13.26,4.19-13.26S159.68,125.61,148.78,125.61Z"/><path class="cls-7" d="M153,112.35a3.8,3.8,0,0,1,3.27,2.59c-2.35,2.56-5.91,6.8-7.47,10.43C148.68,123.58,148.32,112.35,153,112.35Z"/><path class="cls-5" d="M20.63,62.92v49.25c0,18.86,17.05,53.45,55.47,54.55,28.57.82,58.55-4.87,67.16-35A132,132,0,0,0,148.61,96V70.94S78.22,83.28,20.63,62.92Z"/><path class="cls-8" d="M62.77,144.83a33.84,33.84,0,0,0,6.11,5.71,27.24,27.24,0,0,0,15.9,5.67c6.24,0,13.41-2.6,20.88-10.08a1.65,1.65,0,0,0,.18-1.94.94.94,0,0,0-1.52-.23c-7.15,7.13-13.78,9.48-19.54,9.48A25.24,25.24,0,0,1,70,148.14a34,34,0,0,1-4.21-3.65c-.48-.49-.85-.9-1.1-1.19s-.22-.25-.27-.32l-.07-.08,0,0h0a.93.93,0,0,0-1.53,0A1.67,1.67,0,0,0,62.77,144.83Z"/><path class="cls-9" d="M91.43,80.56c33.53,0,49.5-4.41,57-9.58-4.17.7-72,11.67-127.78-8.06v7.32C28.79,74.48,49.6,80.56,91.43,80.56Z"/><polygon class="cls-10" points="62.04 92.66 61.4 98.92 31.27 96.3 35.23 88.81 62.04 92.66"/><polygon class="cls-10" points="100.5 92.66 101.15 98.92 131.28 96.3 127.31 88.81 100.5 92.66"/><path class="cls-7" d="M78.1,110.38c-1.43,3.15-2,6.53-3,9.8s-3.93,7-2.53,10.6c1.25,3.23,4.89,4.4,8.3,4.54,9.24.37,13.39-3.21,10.72-11.77C90.4,119.82,83.67,98.13,78.1,110.38Z"/><path class="cls-5" d="M79,109.32c-1.21,2.84-1.71,5.87-2.58,8.81s-3.29,6.3-2.18,9.51c1,2.89,4,3.91,6.81,4,7.6.26,11-3,8.93-10.62C89,117.7,83.65,98.31,79,109.32Z"/><path class="cls-11" d="M80.52,130.85c.1.45,1.12.63,2.28.4s2-.78,1.92-1.23-1.13-.63-2.29-.4S80.41,130.4,80.52,130.85Z"/><path class="cls-4" d="M58,112.77a10.55,10.55,0,1,1-10.55-10.55A10.55,10.55,0,0,1,58,112.77Z"/><path class="cls-12" d="M55.21,108.46A3.46,3.46,0,1,1,51.75,105,3.46,3.46,0,0,1,55.21,108.46Z"/><path class="cls-4" d="M126.16,112.77a10.55,10.55,0,1,1-10.54-10.55A10.54,10.54,0,0,1,126.16,112.77Z"/><path class="cls-12" d="M123.39,108.46a3.46,3.46,0,1,1-3.46-3.46A3.46,3.46,0,0,1,123.39,108.46Z"/></g></g></svg>