<svg xmlns="http://www.w3.org/2000/svg" viewBox="0 0 189.47 259.69"><defs><style>.cls-1{fill:#3f3e3d;}.cls-2{fill:#f2d0af;}.cls-3{fill:#8e633f;}.cls-4{fill:#7f5732;}.cls-5{fill:#eae5dc;}.cls-6{fill:#c6c1ba;}.cls-7{fill:#ddb58e;}.cls-8{fill:#9e6f4c;}.cls-9{fill:#db9a6e;}.cls-10{fill:#f4d3b0;}.cls-11{fill:#c65044;}</style></defs><title>资源 239</title><g id="图层_2" data-name="图层 2"><g id="Layer_1" data-name="Layer 1"><path class="cls-1" d="M173.21,182.64c-4.2-24.06-3-95.83-3-95.83C170.26,38.87,137.8,0,97.76,0H91.71c-40,0-72.5,38.87-72.5,86.81,0,0,1.26,71.77-3,95.83S8.44,205.49.62,202.49c0,0-3.61,13.31,6.61,16.58,0,0-16.33,32.81,23.46,40.62H158.78c39.79-7.81,23.46-40.62,23.46-40.62,10.22-3.27,6.61-16.58,6.61-16.58C181,205.49,177.42,206.7,173.21,182.64Z"/><path class="cls-2" d="M145.13,250.11c-.34-2.59-.78-7.47-1.22-12.84H130.37l3.12,22.42h14A60.06,60.06,0,0,1,145.13,250.11Z"/><path class="cls-3" d="M117.51,164.4s6.42-9.52,12.43-2.55S153,235.37,153,235.37L134.15,240Z"/><path class="cls-4" d="M156.79,230.5s-30,0-31.57.91-2.31,3.53-1.22,4.22,6.26,1,6.26,1-5.65,1-5.79,3,5,5,17.8,4.26,22.06-3.17,8.12-5.16C150.39,238.76,164.63,236.25,156.79,230.5Z"/><path class="cls-2" d="M62.56,251.38a287,287,0,0,1-16.2-25H30c1.79,11.29,14.49,30.33,16.54,33.35H66.63A27.68,27.68,0,0,0,62.56,251.38Z"/><path class="cls-3" d="M77.82,169.11S69.4,159.18,64,161.29C61.14,162.39,51.14,178,41.73,193c-8.53,13.6-16.73,26.44-15.8,32L47,222.93l32.61-46Z"/><path class="cls-4" d="M22.48,225.36s27.82-11.27,29.62-11,3.46,2.4,2.71,3.46-5.41,3.3-5.41,3.3,5.6-1.2,6.48.61-2.73,6.49-14.9,10.61-21.65,5.32-9.48-1.74C31.5,230.63,17.37,233.63,22.48,225.36Z"/><path class="cls-5" d="M95.43,156.67H73.77s-10.22,6.72-15.63,35c-4,20.8-7.8,47.94-9.19,68h90.24c-1.38-20.09-5.2-47.23-9.18-68-5.41-28.27-15.64-35-15.64-35Z"/><path class="cls-6" d="M87.75,218.83a5.12,5.12,0,1,1-5.11-5.12A5.11,5.11,0,0,1,87.75,218.83Z"/><path class="cls-6" d="M95,223.94a5.12,5.12,0,1,1-5.11-5.11A5.11,5.11,0,0,1,95,223.94Z"/><path class="cls-6" d="M103.59,222.63a5.11,5.11,0,1,1-5.11-5.11A5.11,5.11,0,0,1,103.59,222.63Z"/><path class="cls-6" d="M109.38,215.82a5.11,5.11,0,1,1-5.11-5.11A5.11,5.11,0,0,1,109.38,215.82Z"/><path class="cls-1" d="M111.5,175.79c0,11.42-7.8,20.68-17.43,20.68s-17.42-9.26-17.42-20.68,7.8-20.68,17.42-20.68S111.5,164.37,111.5,175.79Z"/><path class="cls-7" d="M108.51,171c0,11.42-6.46,20.68-14.44,20.68S79.64,182.4,79.64,171,86.1,150.3,94.07,150.3,108.51,159.56,108.51,171Z"/><path class="cls-8" d="M130,191.66c-5.41-28.27-15.64-35-15.64-35H73.71s-10.22,6.72-15.63,35c-4,20.81-7.8,47.94-9.18,68H66.15a292,292,0,0,0,15.18-53.24c2.45-13.87,4.7-31,6.61-47.57H99.62c1.63,14.11,3.68,29.43,6.22,44.73,4.12,24.77,10,43.32,15,56.08h18.27C137.74,239.6,133.93,212.47,130,191.66Z"/><path class="cls-5" d="M158.86,78.59c-12.88-24.11-35.43-40.1-61.1-40.1H91.71c-25.67,0-48.21,16-61.1,40.1,0,0,16.9-28.14,64.12-28.87S158.86,78.59,158.86,78.59Z"/><path class="cls-9" d="M137.83,43c-1.33,2.17-4.74,2.5-7.62.74s-4.14-5-2.82-7.13,4.75-2.5,7.63-.74S139.16,40.78,137.83,43Z"/><path class="cls-9" d="M145.72,50c-1.33,2.17-4.74,2.5-7.62.73s-4.14-5-2.81-7.13,4.74-2.5,7.62-.73S147.05,47.78,145.72,50Z"/><path class="cls-9" d="M149.8,57.85c-1.33,2.17-4.75,2.5-7.63.73s-4.14-4.95-2.81-7.12S144.1,49,147,50.72,151.13,55.67,149.8,57.85Z"/><path class="cls-9" d="M147.59,66.77c-1.33,2.17-4.74,2.5-7.62.73s-4.14-5-2.81-7.12,4.74-2.5,7.62-.74S148.92,64.59,147.59,66.77Z"/><path class="cls-9" d="M137.19,67.42c-1.33,2.17-4.74,2.5-7.62.74s-4.14-4.95-2.81-7.12,4.74-2.51,7.62-.74S138.52,65.25,137.19,67.42Z"/><path class="cls-9" d="M127.39,61.42c-1.33,2.17-4.74,2.5-7.63.74s-4.14-5-2.81-7.13,4.75-2.5,7.63-.73S128.72,59.25,127.39,61.42Z"/><path class="cls-9" d="M119,54.14c-1.33,2.17-4.74,2.5-7.62.74s-4.14-5-2.81-7.13,4.74-2.51,7.62-.74S120.35,52,119,54.14Z"/><path class="cls-9" d="M118.93,44.35c-1.33,2.17-4.74,2.5-7.62.74s-4.14-5-2.81-7.13,4.74-2.5,7.62-.73S120.26,42.18,118.93,44.35Z"/><path class="cls-9" d="M126.73,41.56c-1.33,2.17-4.75,2.5-7.63.74s-4.14-5-2.81-7.13,4.75-2.5,7.63-.74S128.06,39.39,126.73,41.56Z"/><path class="cls-8" d="M143.75,59.55c-2.52,4.13-11,3.53-19-1.34S112.45,46.05,115,41.93s11-3.53,19,1.34S146.28,55.42,143.75,59.55Z"/><path class="cls-10" d="M36.71,116.83s-6.48-8-13.69-4.26,2.77,27.88,17,29.85Z"/><path class="cls-10" d="M152.76,116.83s6.48-8,13.69-4.26-2.77,27.88-17,29.85Z"/><path class="cls-2" d="M100.54,108.66,104.75,93c-22.56,16.68-57.81,14.56-70,13.21v17.19c0,10.28,4.3,20,11.61,26.15,0,0,18.77,17.36,48.42,16.82s48.42-16.82,48.42-16.82c7.32-6.19,11.62-15.87,11.62-26.15V82.88C140.51,109.93,100.54,108.66,100.54,108.66Z"/><path class="cls-1" d="M154.77,112.72H140.15l-.15.16v-.16H49.48v.17l-.16-.17H34.7V122l16.45,2c2,6.75,6.31,14.25,15.77,15.37,17.74,2.11,20.15-18.49,23.46-18.49H99.1c3.31,0,5.71,20.6,23.46,18.49,9.46-1.12,13.79-8.62,15.77-15.37l16.44-2Z"/><path class="cls-11" d="M83.16,154.49s2.92-4.39,6.29-4.19,5.2,3.44,5.2,3.44,3-3.36,6.57-3.3,5.09,4.39,5.09,4.39-3.51,8.22-11.92,8.22S83.16,154.49,83.16,154.49Z"/><path class="cls-7" d="M101.08,135.51s-.63,5.67-6.1,5.7-6.59-5.7-6.59-5.7,3,3.49,6.48,3.49S101.08,135.51,101.08,135.51Z"/></g></g></svg>