<svg xmlns="http://www.w3.org/2000/svg" viewBox="0 0 165.4 260.01"><defs><style>.cls-1{fill:#3b8d93;}.cls-2{fill:#5c9ea0;}.cls-3{fill:#ad3936;}.cls-4{fill:#f9dab4;}.cls-5{fill:#f9f7f2;}.cls-6{fill:#f7cea6;}.cls-7{fill:#e5be9e;}.cls-8{fill:#3a332d;}.cls-9{fill:#e8dfd9;}.cls-10{fill:#3b3d3d;}.cls-11{fill:#fff;}.cls-12{fill:#f4c7a2;}.cls-13{fill:#9b2c2c;}</style></defs><title>资源 15</title><g id="图层_2" data-name="图层 2"><g id="Layer_1" data-name="Layer 1"><path class="cls-1" d="M115.63,144.09l-10.31.87.26,115H153.3c1-6.5,2.06-13.46,2.8-19.94,1.71-15,2.55-38.81-9-56.15C137.61,169.75,115.63,144.09,115.63,144.09Z"/><path class="cls-2" d="M123.14,161.1c-2.35-.12-.6,9.74-.6,9.74s5.52,37.71,9.36,44.61a33.51,33.51,0,0,1,8.49-.14,22.45,22.45,0,0,1,6.81,1.91c1.54.72,4.66,2.09,4.31,4.21a1.16,1.16,0,0,1-.42.76,1.05,1.05,0,0,1-.9.1,3.19,3.19,0,0,1-.81-.44,18,18,0,0,0-4.21-2.45,18.42,18.42,0,0,0-7.18-.92c-.89.07-3.6.24-3.68,1.56,3.35.17,6.33-.32,9.19,2.56.9.91,2.51,3.23,1.49,4.57s-3.8-1.11-4.64-1.65c-1.75-1.11-4-1.92-5.48-.14-1.88,2.24-2.6,5.6-3.22,8.37a66.73,66.73,0,0,0-1.5,11.61c-.12,2.75-.31,6,.71,8.61a28.28,28.28,0,0,0,3.29,6h14a69.3,69.3,0,0,0,6.35-26c.51-13.91-2-30.94-4.55-38.16C143.29,177.09,125.49,161.21,123.14,161.1Z"/><path class="cls-1" d="M20.84,183.92c-11.58,17.34-10.75,41.19-9,56.15.74,6.48,1.75,13.44,2.79,19.94H62.32l.26-115-10.3-.87S30.3,169.75,20.84,183.92Z"/><path class="cls-2" d="M44.76,161.1c-2.35.11-20.14,16-26.83,34.74-2.58,7.22-5.06,24.25-4.56,38.16a69.49,69.49,0,0,0,6.35,26h14a28.33,28.33,0,0,0,3.3-6c1-2.62.83-5.86.71-8.61a66.74,66.74,0,0,0-1.51-11.61c-.61-2.77-1.33-6.13-3.21-8.37-1.5-1.78-3.73-1-5.48.14-.85.54-3.65,2.95-4.64,1.65s.59-3.66,1.49-4.57c2.85-2.88,5.83-2.39,9.19-2.56-.08-1.32-2.8-1.49-3.69-1.56a18.42,18.42,0,0,0-7.18.92,18.09,18.09,0,0,0-4.2,2.45,3.25,3.25,0,0,1-.82.44,1,1,0,0,1-.89-.1,1.12,1.12,0,0,1-.42-.76c-.36-2.12,2.76-3.49,4.31-4.21a22.37,22.37,0,0,1,6.81-1.91,33.51,33.51,0,0,1,8.49.14c3.83-6.9,9.35-44.61,9.35-44.61S47.11,161,44.76,161.1Z"/><path class="cls-2" d="M128.78,260c-3.62-28.31-10.14-82.5-17.29-101.17H50.93S39,218.46,34.6,260Z"/><path class="cls-1" d="M34.6,260h9.93q-.16-.57-.33-1.17c-5.63-20.6,5-68.79,5-68.79l6.61-31.35-4.88.14S39,218.46,34.6,260Z"/><path class="cls-1" d="M128.78,260c-1.1-8.59-2.43-20.63-4-30.62,0,.05.91,16.23.24,30.62Z"/><path class="cls-3" d="M163.1,74.3c.24,13.92-4.11,36.85-11.28,48-13.95,21.7-39.46,26.31-68.63,26.31-24.82,0-47-.61-61.66-17.13C10.13,118.62,3.28,92.26,3.28,74.3c0-41,35.78-75,79.91-74.29,20.22.32,34.53,5.73,41.8,12.37a30.42,30.42,0,0,1,9.38,18.24S162.34,28.85,163.1,74.3Z"/><path class="cls-4" d="M146.71,54.44,21.47,54.3s.62,29.41-1.08,43.06c-1,7.83-.44,14.61-.64,17.69-1.85,28.26,28.09,51.47,63.15,51.7s63.62-22.56,63.8-50.88a76.49,76.49,0,0,0-.44-9.38c-.24-2.39-.24-5-.37-7.93C145.31,85.82,146.71,54.44,146.71,54.44Z"/><path class="cls-5" d="M44,128.85a1.16,1.16,0,0,1-1.19,1.1l-3.87-.14a1.15,1.15,0,0,1-1.1-1.19h0A1.14,1.14,0,0,1,39,127.51l3.86.14a1.16,1.16,0,0,1,1.11,1.2Z"/><path class="cls-5" d="M127.22,129.39a1.15,1.15,0,0,1-1.19,1.1l-3.86-.15a1.14,1.14,0,0,1-1.11-1.18h0a1.15,1.15,0,0,1,1.19-1.11l3.87.14a1.15,1.15,0,0,1,1.1,1.2Z"/><path class="cls-4" d="M138.59,134.11a21.06,21.06,0,0,0,17.71-.24c9.3-4.54,13.88-23.2,1.84-27.67s-15.76,9.38-15.76,9.38Z"/><path class="cls-6" d="M144.19,128.43S148,108,157,115.05c5.49,4.33,2.23,10.4-2.86,12.88C150.9,129.49,146.74,129.62,144.19,128.43Z"/><path class="cls-7" d="M144.3,128.2l1.33-5.16s17-4.85,12.23,2S144.3,128.2,144.3,128.2Z"/><path class="cls-4" d="M26.6,132.93a21,21,0,0,1-17.71-.46c-9.24-4.66-13.58-23.38-1.48-27.69S23,114.36,23,114.36Z"/><path class="cls-6" d="M21.06,127.18S17.5,106.69,8.47,113.64C2.93,117.9,6.1,124,11.17,126.55,14.35,128.15,18.5,128.34,21.06,127.18Z"/><path class="cls-7" d="M21,127l-1.26-5.17s-16.94-5.07-12.26,1.81S21,127,21,127Z"/><path class="cls-8" d="M56.81,111.33a7.14,7.14,0,1,1-7.14-7.13A7.14,7.14,0,0,1,56.81,111.33Z"/><path class="cls-9" d="M50.85,106.36c.18.86-.88,1.81-2.37,2.11s-2.84-.16-3-1,.89-1.8,2.38-2.1S50.68,105.5,50.85,106.36Z"/><path class="cls-8" d="M122.85,111.33a7.14,7.14,0,1,1-7.13-7.13A7.13,7.13,0,0,1,122.85,111.33Z"/><path class="cls-9" d="M116.9,106.36c.17.86-.9,1.81-2.38,2.11s-2.84-.16-3-1,.89-1.8,2.38-2.1S116.73,105.5,116.9,106.36Z"/><path class="cls-10" d="M124.18,106.53a10.24,10.24,0,1,1-14.2-2.86A10.24,10.24,0,0,1,124.18,106.53Z"/><path class="cls-11" d="M117.23,104.13c1,1.53-.32,4.2-3,6s-5.65,2-6.66.43.31-4.2,3-6S116.21,102.6,117.23,104.13Z"/><path class="cls-10" d="M59.38,105.78a10.24,10.24,0,1,1-14.2-2.86A10.24,10.24,0,0,1,59.38,105.78Z"/><path class="cls-11" d="M52.43,103.38c1,1.53-.31,4.21-3,6s-5.64,2-6.66.44.32-4.21,3-6S51.42,101.86,52.43,103.38Z"/><path class="cls-12" d="M73.57,131.78a1.24,1.24,0,0,1-.66-2.28,19,19,0,0,1,21.11.06,1.24,1.24,0,0,1-1.5,2c-.34-.27-8.45-6.2-18.29.05A1.22,1.22,0,0,1,73.57,131.78Z"/><path class="cls-12" d="M83,151.33c-15,0-24.57-3-25-3.15a1.23,1.23,0,0,1-.8-1.55,1.25,1.25,0,0,1,1.56-.8c.09,0,9.65,3,24.21,3a92.13,92.13,0,0,0,24.55-3,1.23,1.23,0,0,1,1.54.81,1.24,1.24,0,0,1-.81,1.55C107.89,148.32,98,151.33,83,151.33Z"/><path class="cls-13" d="M104.9,97.75s4-1.77,10.75-1.46c6.55.3,12,3.26,12.29,1.85.5-2.51-3-6.84-8.4-8.82-5.09-1.85-9.63-.27-13.12,2.31S101.4,98.71,104.9,97.75Z"/><path class="cls-13" d="M61.49,97.75s-4-1.77-10.76-1.46c-6.54.3-12,3.26-12.28,1.85-.51-2.51,3-6.84,8.39-8.82,5.09-1.85,9.63-.27,13.12,2.31S65,98.71,61.49,97.75Z"/><path class="cls-3" d="M37.81,165.15s-8.68-48.65,2.8-68.87c18.63-32.81,56-3.19,88.55-30,0,0,13.44,13,17.55,41.92l10.62-53.06L110.28,31.89,22,41.39l-14,63.17C15.05,123.86,24.91,144,37.81,165.15Z"/></g></g></svg>