<svg xmlns="http://www.w3.org/2000/svg" viewBox="0 0 225.78 259.14"><defs><style>.cls-1{fill:#7f5732;}.cls-2{fill:#f9dab4;}.cls-3{fill:#e8b897;}.cls-4{fill:#54a3b5;}.cls-5{fill:#3a8c99;}.cls-6{fill:#6fbc9f;}.cls-7{fill:#4e9b7b;}.cls-8{fill:#f4d0a8;}.cls-9{fill:#dbb48f;}.cls-10{fill:#4c3626;}.cls-11{fill:#edc298;}.cls-12{fill:#2f3233;}.cls-13{fill:#f9f5ed;}.cls-14{fill:#efc19c;}.cls-15{fill:#684223;}</style></defs><title>资源 129</title><g id="图层_2" data-name="图层 2"><g id="Layer_1" data-name="Layer 1"><path class="cls-1" d="M97.48,137.3S52.85,113.06,68.24,48s128.23-64.58,149.28,4.62,0,147.74-41.55,155.43V137.3Z"/><polygon class="cls-2" points="105.89 172.96 96.72 215.96 174.98 215.96 166.01 172.65 105.89 172.96"/><path class="cls-2" d="M190.2,219.16c-1.06-3.25-2.14-6.5-3.33-9.72-5.39-14.69-9.67-30.36-14.5-31.59,0,0-15.93,2-.63,40.65l15.55,40.64h16.18C199.52,245.87,194.38,232,190.2,219.16Z"/><path class="cls-3" d="M190.2,219.16c-1.06-3.25-2.14-6.5-3.33-9.72-5.39-14.69-9.67-30.36-14.5-31.59,0,0-51.62-1.68-52.61,8.18,1.63-.08,48.45,2.23,49.44,2,5.08,0,7.87,1,11.58,10,3.22,7.84,17.62,49.92,21.42,61h1.27C199.51,245.87,194.38,232,190.2,219.16Z"/><path class="cls-2" d="M105.89,177.85c-4.83,1.23-9.11,16.9-14.5,31.59-1.18,3.22-2.27,6.47-3.33,9.72-4.18,12.79-9.31,26.71-13.27,40H91l15.56-40.64C121.82,179.81,105.89,177.85,105.89,177.85Z"/><path class="cls-3" d="M108.63,180l-.84-1.45a5.87,5.87,0,0,0-1.9-.7c-4.83,1.23-9.11,16.9-14.5,31.59-1.18,3.22-2.27,6.47-3.33,9.72-2.34,7.17-5,14.7-7.56,22.27l1.44,1.44s9-26.45,13.23-40.6A51.1,51.1,0,0,1,108.63,180Z"/><path class="cls-4" d="M138.55,203.85c-9.51-15.3-24.16-11.64-31.55-.74l-6.66,56h79.35l-7.17-56C167.25,190.44,148.79,188.55,138.55,203.85Z"/><path class="cls-5" d="M137.94,202.89v56.25h1.39V202.76c-.26.35-.52.71-.78,1.09C138.35,203.52,138.14,203.2,137.94,202.89Z"/><path class="cls-5" d="M172.73,204.72l-.21-1.61c-5.27-12.67-23.73-14.56-34,.74-9.51-15.3-24.16-11.64-31.55-.74l-.12,1c4.55-3.1,21.06-12.52,31.06,6.28C152.84,195.48,161.68,195.23,172.73,204.72Z"/><path class="cls-6" d="M121.62,176.52l-15.31,1.39s-2.79,53.13-7.66,61.48-19.26,5.11-16.94-6.73c1.39-4.64-10.21,10.21-6.26,17.87,2.28,4.43,3.42,7.5,3,8.61h43.89c13-25.11,10.41-47.45,4.88-63.83S121.62,176.52,121.62,176.52Z"/><path class="cls-7" d="M121.68,177h-5.17l-10.2.93s-2.79,53.13-7.66,61.48a9.3,9.3,0,0,1-6.6,4.53c4.09.6,10.78-.71,13.79-14.2,4.49-20.1,2-42.77,2.65-43.46,6.17,4.18,15.76,5.11,18.08,26.91,1.45,13.63-.76,31.78-8.44,46h4.18c13-25.11,10.41-47.45,4.88-63.83C122.84,182.46,121.89,178.22,121.68,177Z"/><path class="cls-7" d="M110.71,243.1c-5.22,5.22-1.85,6.27-13.68,13.46-8.41,5.11-16,.85-19.68-2,1,2.29,1.36,3.89,1.07,4.62H99.55a37.26,37.26,0,0,0,4.09-2.46C110.71,251.69,115.93,237.88,110.71,243.1Z"/><path class="cls-6" d="M110,158.42s34.48,10.67,63.1-2.55c10.27,0,15.41,11.13,2.94,14.85,7.58,3.71-.74,12.06-8.08,13.45s-49.4,2.55-59.43-2.09-6.12-12.29-2-12.29C98.46,165.84,103.59,158.42,110,158.42Z"/><path class="cls-7" d="M177,156.48a12.88,12.88,0,0,0-4-.61c-28.62,13.22-63.1,2.55-63.1,2.55a8.39,8.39,0,0,0-3.85.94C115.08,163.38,146,174.71,177,156.48Z"/><path class="cls-7" d="M144.94,170.48c-3,0-25.76-.34-33.41-1.74-5.11-.92-7.84-3.3-9.1-4.78-.29,2,.81,4.22,4.1,5.83-4.16,0-8.07,7.65,2,12.29a10,10,0,0,0,1,.4c-3.73-3.08-5.3-7.85-3.16-10,2.7-2.71,29.93.19,36.54.19S148,170.48,144.94,170.48Z"/><path class="cls-7" d="M161.86,184.81a58.63,58.63,0,0,0,6.06-.64c7.34-1.39,15.66-9.74,8.08-13.45,5.62-1.68,7.65-4.86,7.26-7.85-2.14,5.93-12,5.29-12,5.29l2.78,4.41C176.93,178.32,167,182.89,161.86,184.81Z"/><path class="cls-2" d="M88.1,103.49s-9.09-9.09-17.17-1,6.88,40.16,17.12,29.91Z"/><path class="cls-8" d="M80.68,121.33s2.57-12.38-3-15.13S68.18,116.63,80.68,121.33Z"/><path class="cls-9" d="M72.51,110c-.56,3.64,1.35,8.72,8.15,11.28C79.64,117.24,75.07,112.47,72.51,110Z"/><path class="cls-4" d="M69.21,56.82a5.78,5.78,0,0,1-6.48,5h0a5.78,5.78,0,0,1-4.4-6.86L60,45.46a5.77,5.77,0,0,1,6.47-5h0a5.76,5.76,0,0,1,4.41,6.85Z"/><path class="cls-1" d="M64.9,51A26,26,0,0,0,65.24,46S48.63,30.78,32.82,44.56s-13.54,38.7-13,57-5.51,15.89-8.33,8.06S4,104.54,7.16,116.29c-9.28-6.22-10.06,6,.75,18.58s49.85,13.6,54.65-16.07S46.4,55,63.16,56.71c.38,0,1.63-5.12,1.73-5.63C64.89,51.05,64.9,51,64.9,51Z"/><path class="cls-2" d="M83.63,77.28v48.48c0,16.54,15.77,40,56.56,40S196,149.61,196,128.45v-44Z"/><path class="cls-1" d="M71.14,58.69s5.4,24.48,31.26,26.55c0,0,11.38,15.39,36.71,11.2,0,0,7.55,7.26,28,2,0,0,13.65,5,25.16-1.18,0,0,4.44,4.09,13,2.71L167.58,17Z"/><path class="cls-10" d="M183.73,85.21a34.79,34.79,0,0,0,4.34,13.88,24.6,24.6,0,0,0,4.25-1.78S187.14,93.59,183.73,85.21Z"/><path class="cls-10" d="M156.47,83s-1.41,9.67,5.45,16.62q2.46-.42,5.24-1.12A18.41,18.41,0,0,1,156.47,83Z"/><path class="cls-10" d="M132.4,80.49s-1.93,9.5,1.33,16.57a53.86,53.86,0,0,0,5.38-.62A25,25,0,0,1,132.4,80.49Z"/><path class="cls-10" d="M97.2,70s-1.57,5.5,1.91,14.87c1.06.17,2.15.3,3.29.39A42.44,42.44,0,0,1,97.2,70Z"/><path class="cls-11" d="M144.16,150.81a63.72,63.72,0,0,1-30.62-7.91h0a.86.86,0,0,1-.29-1.19h0a.86.86,0,0,1,1.19-.29h0s.78.47,2.24,1.2h0a62,62,0,0,0,6.27,2.67h0a61.27,61.27,0,0,0,21.19,3.79h0A50,50,0,0,0,171.23,141h0a.87.87,0,0,1,1.2.25h0a.87.87,0,0,1-.26,1.2h0a51.62,51.62,0,0,1-28,8.41h0Z"/><path class="cls-12" d="M121.55,112.18l-.19.26a9,9,0,0,1-5.73,3.15c-3.89.73-9.56.57-12.1-4.63-2.35-4.8,2.49-5.52,4.72-4.21,2.07,1.23,4.63,2.67,6.89,1.81,1.81-.68,3.93-3.82,5.91-2.6S122.83,110.32,121.55,112.18Z"/><path class="cls-13" d="M107.45,108.32c.26.65-.24,1.54-1.13,2s-1.83.29-2.09-.36.24-1.55,1.12-2S107.18,107.66,107.45,108.32Z"/><path class="cls-12" d="M186.24,112.18l-.19.26a9,9,0,0,1-5.74,3.15c-3.88.73-9.55.57-12.09-4.63-2.35-4.8,2.49-5.52,4.71-4.21s4.63,2.67,6.89,1.81c1.82-.68,3.93-3.82,5.92-2.6S187.51,110.32,186.24,112.18Z"/><path class="cls-13" d="M172.14,108.32c.26.65-.25,1.54-1.14,2s-1.82.29-2.09-.36a1.79,1.79,0,0,1,1.13-2C170.93,107.5,171.87,107.66,172.14,108.32Z"/><path class="cls-14" d="M148.71,128.43a1,1,0,0,1,.76,1.2h0a9.61,9.61,0,0,1-1.3,2.85h0a5.83,5.83,0,0,1-5.32,2.77h-.16a7.29,7.29,0,0,1-5.12-2.65h0a7.18,7.18,0,0,1-1.29-2.33h0A1,1,0,0,1,137,129h0a1,1,0,0,1,1.26.7h0l0,.1h0c0,.08.08.21.15.36h0a5.45,5.45,0,0,0,.73,1.16h0a5.19,5.19,0,0,0,3.73,1.9H143a3.59,3.59,0,0,0,3.17-1.48h0a7.48,7.48,0,0,0,1.27-2.45h0l0-.16h0a1,1,0,0,1,1.06-.77h0a.47.47,0,0,1,.17,0Z"/><path class="cls-15" d="M56.31,52.66c-7.31,4.23-10,11.92-3.85,32.7S45.54,119.6,40.92,119.6s-1.73-24.81-6.73-16S21.68,130,21.68,115.37a72.74,72.74,0,0,0-2-16.85c0,1,.07,2.07.1,3.07.53,18.34-5.51,15.89-8.33,8.06S4,104.54,7.16,116.29c-9.28-6.22-10.06,6,.75,18.58s49.85,13.6,54.65-16.07S46.4,55,63.16,56.71c.38,0,1.63-5.12,1.73-5.63,0,0,0,0,0-.07A26,26,0,0,0,65.24,46a32.11,32.11,0,0,0-9.15-5.46C58.53,44.64,60.6,50.17,56.31,52.66Z"/></g></g></svg>