<svg xmlns="http://www.w3.org/2000/svg" viewBox="0 0 171.12 260"><defs><style>.cls-1{fill:#bc423c;}.cls-2{fill:#f4efed;}.cls-3{fill:#e2dcd9;}.cls-4{fill:#c65044;}.cls-5{fill:#f4d3b0;}.cls-6{fill:#f9dab4;}.cls-7{fill:#7f5732;}.cls-8{fill:#3a332d;}.cls-9{fill:#efc4a0;}</style></defs><title>资源 57</title><g id="图层_2" data-name="图层 2"><g id="Layer_1" data-name="Layer 1"><path class="cls-1" d="M43.65,175.49C39.34,188.88,21.57,244.21,16.5,260H57.84l4.57-99.77S48.68,159.82,43.65,175.49Z"/><path class="cls-1" d="M131.42,175.49c4.31,13.39,22.08,68.72,27.15,84.51H117.23l-4.57-99.77S126.39,159.82,131.42,175.49Z"/><rect class="cls-2" x="67.56" y="152.99" width="41.34" height="80.07"/><polygon class="cls-3" points="68.3 155.9 68.3 179.54 88.28 159.65 108.9 179.54 108.9 153.83 68.3 155.9"/><circle class="cls-3" cx="93.27" cy="178.34" r="2.85"/><path class="cls-3" d="M96.12,191.61a2.85,2.85,0,1,1-2.85-2.85A2.85,2.85,0,0,1,96.12,191.61Z"/><path class="cls-3" d="M88.28,160.23v63.33s-1.44-20.51-1.44-34.66S88.28,160.23,88.28,160.23Z"/><path class="cls-4" d="M88.28,223.56,70.45,155.9a13.63,13.63,0,0,0-13.57,12.35L48.2,260h80.15l-8.68-91.75A13.63,13.63,0,0,0,106.1,155.9Z"/><path class="cls-5" d="M22.15,94.72s-10.36-11.2-17.64,0,12.32,41.71,30,44.23Z"/><path class="cls-5" d="M149,94.72s10.36-11.2,17.64,0-12.32,41.71-30,44.23Z"/><path class="cls-6" d="M102.36,162.75H68.76a49.41,49.41,0,0,1-49.41-49.41V53.57H151.77v59.77A49.41,49.41,0,0,1,102.36,162.75Z"/><path class="cls-7" d="M85.56,0h0C-31.59,0,5.61,93.22,5.61,93.22c7.3-5.86,13.74-.88,13.74-.88,2.08-49.27,65.71-15,66.21-14.74h0c.5-.27,64.13-34.53,66.21,14.74,0,0,6.44-5,13.74.88C165.51,93.22,202.71,0,85.56,0Z"/><path class="cls-8" d="M38.06,112.29a38,38,0,0,1-4-.18.8.8,0,1,1,.19-1.58c.14,0,14.57,1.58,26.31-5.77a.8.8,0,0,1,1.1.25.79.79,0,0,1-.25,1.1C53,111.44,43.33,112.29,38.06,112.29Z"/><path class="cls-7" d="M59.44,84.33l2.82,7s-12.12,8.08-32.41,6.93L30.33,91S48.57,92.21,59.44,84.33Z"/><path class="cls-8" d="M133.68,112.29c-5.26,0-14.88-.85-23.4-6.18a.8.8,0,0,1,.85-1.35c11.76,7.37,26.17,5.78,26.32,5.77a.8.8,0,1,1,.18,1.58A37.56,37.56,0,0,1,133.68,112.29Z"/><path class="cls-7" d="M112.3,84.33l-2.81,7s12.11,8.08,32.41,6.93L141.42,91S123.17,92.21,112.3,84.33Z"/><path class="cls-9" d="M71,133.37S75.8,121.73,85,121s15.29,10.1,15.29,10.1-3.17-12.21-15.2-12.21S71,133.37,71,133.37Z"/><path class="cls-9" d="M95.44,152.26a1.2,1.2,0,0,1-1.12-.78A1.19,1.19,0,0,1,95,150c.09,0,10-3.72,19.64-8.11,18.19-8.29,18.22-11.22,18.16-11.52a1.2,1.2,0,0,1,2.35-.44c.42,2.25-1.43,5.89-19.53,14.14-9.71,4.42-19.69,8.13-19.79,8.17A1.23,1.23,0,0,1,95.44,152.26Z"/><path class="cls-9" d="M129.9,127.68a1.22,1.22,0,0,1-.72-.24,1.2,1.2,0,0,1-.24-1.67c.2-.26,2-2.57,4.58-2.74a4.9,4.9,0,0,1,3.92,1.68,1.18,1.18,0,0,1,0,1.69,1.2,1.2,0,0,1-1.69,0,2.6,2.6,0,0,0-2-1,4.66,4.66,0,0,0-2.84,1.8A1.18,1.18,0,0,1,129.9,127.68Z"/></g></g></svg>