<svg xmlns="http://www.w3.org/2000/svg" viewBox="0 0 172.04 260"><defs><style>.cls-1{fill:#b78e72;}.cls-2{fill:#cca281;}.cls-3{fill:#eae5dc;}.cls-4{fill:#f9f5ed;}.cls-5{fill:#f9f7f2;}.cls-6{fill:#c4987a;}.cls-7{fill:#3f2412;}.cls-8{fill:#fff;}.cls-9{fill:#4c3626;}.cls-10{fill:#bc9173;}.cls-11{fill:#ce6655;}.cls-12{fill:#ad3e3b;}</style></defs><title>资源 24</title><g id="图层_2" data-name="图层 2"><g id="Layer_1" data-name="Layer 1"><path class="cls-1" d="M13.43,247a62.06,62.06,0,0,0,1.39,13H58.5V204.92l-39.39-2.27S15.32,230.3,13.43,247Z"/><path class="cls-2" d="M36.34,243.56c0-2.84,3.22-17.62.19-23.3-1.5-2.81-5.32-3.1-8.12-3s-6.4-.32-8.47,1.62a4.87,4.87,0,0,0-1.22,1.87c-1,2.83-.41,6.13-.77,9.07-1,7.85-2.82,15.49-2.82,23.44a29.26,29.26,0,0,0,1.4,6.79H37v-7.83c0-3.12-2.93-3.12-7.1-1.23s-4.92,1.91-4.92.57C25,247.44,36.34,246.4,36.34,243.56Z"/><path class="cls-3" d="M49.54,154.73s-29.14,13.11-37.67,49.5c-1.11,4.74,1.44,6.82,10.41,8.58,11.49,2.26,30.92.63,30.92.63V154.73Z"/><path class="cls-4" d="M28.58,210.6s-11-.29-12.32-8.48,14.59-32.81,21-36.21,9.26-3.21,7.85,5.68-5.2,35-5.2,38.44C36.34,211.74,28.58,210.6,28.58,210.6Z"/><path class="cls-1" d="M115.22,204.92V260H158.9a62.06,62.06,0,0,0,1.39-13c-1.89-16.66-5.68-44.31-5.68-44.31Z"/><path class="cls-2" d="M155,220.7a4.85,4.85,0,0,0-1.21-1.87c-2.07-1.94-5.65-1.56-8.47-1.62s-6.63.24-8.13,3c-3,5.68.19,20.46.19,23.3s11.36,3.88,11.36,7.95c0,1.34-.75,1.33-4.92-.57s-7.1-1.89-7.1,1.23V260h20.47a29.26,29.26,0,0,0,1.4-6.79c0-8-1.86-15.59-2.82-23.44C155.41,226.83,156.05,223.53,155,220.7Z"/><path class="cls-3" d="M124.18,154.73s28.42,12.45,37.13,47.2c.39,1.55,0,6.86-8.76,9-11.45,2.87-32,2.47-32,2.47V154.73Z"/><path class="cls-4" d="M145.14,210.6s11-.29,12.33-8.48-14.6-32.81-21-36.21-9.26-3.21-7.85,5.68,5.2,35,5.2,38.44C137.38,211.74,145.14,210.6,145.14,210.6Z"/><path class="cls-3" d="M123,150.23c-53.76,0-71.43.38-71.43.38S38.94,214.22,39.08,260h95.46C134.07,235.1,132,181.73,123,150.23Z"/><path class="cls-4" d="M58,158.5a152.53,152.53,0,0,0-11.84,42.67C44,218,39.87,244.86,44.54,260H131c1.15-7.11,1.15-16,1.15-21.61,0-10.71-4.54-72.32-12.86-80.64C87.4,139.42,58,158.5,58,158.5Z"/><path class="cls-2" d="M152.6,50,22.33,49.8S23,80.4,21.2,94.59c-1,8.15-.45,15.2-.66,18.4-1.92,29.4,29.22,53.54,65.68,53.77s66.18-23.45,66.37-52.92a80.53,80.53,0,0,0-.46-9.75c-.25-2.49-.25-5.19-.38-8.25C151.14,82.59,152.6,50,152.6,50Z"/><path class="cls-5" d="M45.73,127.35a1.19,1.19,0,0,1-1.23,1.14l-4-.15a1.17,1.17,0,0,1-1.14-1.23h0A1.19,1.19,0,0,1,40.56,126l4,.15a1.2,1.2,0,0,1,1.15,1.25Z"/><path class="cls-5" d="M132.33,127.91a1.2,1.2,0,0,1-1.24,1.14l-4-.15a1.2,1.2,0,0,1-1.15-1.24h0a1.2,1.2,0,0,1,1.24-1.15l4,.15a1.2,1.2,0,0,1,1.15,1.25Z"/><path class="cls-2" d="M144.15,132.82a21.93,21.93,0,0,0,18.43-.25c9.67-4.72,14.44-24.14,1.91-28.78s-16.39,9.76-16.39,9.76Z"/><path class="cls-6" d="M150,126.91s4-21.27,13.28-13.92c5.71,4.51,2.33,10.82-3,13.4C157,128,152.63,128.15,150,126.91Z"/><path class="cls-1" d="M150.1,126.67l1.38-5.36s17.68-5,12.72,2S150.1,126.67,150.1,126.67Z"/><path class="cls-2" d="M27.66,131.59a21.88,21.88,0,0,1-18.42-.48c-9.6-4.85-14.12-24.32-1.53-28.8s16.26,10,16.26,10Z"/><path class="cls-6" d="M21.91,125.61s-3.7-21.31-13.1-14.09C3,116,6.35,122.31,11.62,125,14.92,126.62,19.24,126.82,21.91,125.61Z"/><path class="cls-1" d="M21.8,125.37,20.49,120s-17.62-5.27-12.75,1.89S21.8,125.37,21.8,125.37Z"/><path class="cls-7" d="M130,102.38a10.65,10.65,0,1,1-14.77-3A10.65,10.65,0,0,1,130,102.38Z"/><path class="cls-8" d="M122.81,99.88c1.06,1.6-.32,4.37-3.09,6.21s-5.87,2-6.92.45.33-4.37,3.09-6.21S121.76,98.29,122.81,99.88Z"/><path class="cls-7" d="M62.64,99.94a10.65,10.65,0,1,1-14.77-3A10.65,10.65,0,0,1,62.64,99.94Z"/><path class="cls-8" d="M55.41,97.45c1.06,1.59-.32,4.37-3.09,6.2s-5.87,2-6.92.45.32-4.37,3.09-6.2S54.36,95.86,55.41,97.45Z"/><path class="cls-9" d="M35.47,93.48s14.41-2.06,18-2.36c5.48-.46,12.38-.49,12.38-.49s-1.5-7.68-2.83-9.1-13,0-19.94,1.78S35.47,85.1,35.47,93.48Z"/><path class="cls-9" d="M138.4,93.48s-14.42-2.06-18-2.36c-5.48-.46-12.38-.49-12.38-.49s1.49-7.68,2.82-9.1,13,0,20,1.78S138.4,85.1,138.4,93.48Z"/><path class="cls-6" d="M93,120.9h0a25.34,25.34,0,0,1-2,2.6,17.57,17.57,0,0,1-1.81,1.85,6.81,6.81,0,0,1-1.88,1.2,1.85,1.85,0,0,1-.7.13,3.57,3.57,0,0,1-1.69-.53,10.74,10.74,0,0,1-2.76-2.43,15.87,15.87,0,0,1-2.05-3.09.9.9,0,0,0-1.62.8A17.58,17.58,0,0,0,81.8,126a10.89,10.89,0,0,0,2.26,1.75,5.26,5.26,0,0,0,2.56.76,3.62,3.62,0,0,0,1.36-.24,8.71,8.71,0,0,0,2.47-1.58,21.83,21.83,0,0,0,2.87-3.13c.73-.94,1.18-1.65,1.19-1.66a.9.9,0,1,0-1.52-1Z"/><path class="cls-9" d="M158.34,33.05C142.3,1.91,111.58,0,86.53,0S30.76,1.91,14.72,33.05C11.28,39.74,11.08,58,11.08,73c0,23.65,2.9,28.56,2.9,28.56a11.58,11.58,0,0,1,6.59,4c2.87-20.43,4.36-48.24,4.36-48.24s29.91,8.69,61.67,8.69,61.53-8.69,61.53-8.69,1.32,28.3,4.19,48.73a13.58,13.58,0,0,1,6.3-3.2S162,96.67,162,73C162,58,161.79,39.74,158.34,33.05Z"/><path class="cls-10" d="M124.63,62.58l-3.58-22.19-3.77,23.35C119.84,63.37,122.3,63,124.63,62.58Z"/><path class="cls-11" d="M55.74,134.67a11.77,11.77,0,0,1,2.42.25c.37.07,15.23,3.05,28.37,3.05s28.23-3,28.38-3.05c5.68-1.16,11.35,1.91,12.68,6.86s-2.19,9.9-7.86,11.06c-.7.15-17.46,3.54-33.2,3.54S54,153,53.33,152.84c-5.67-1.16-9.19-6.11-7.86-11.06C46.62,137.53,51,134.67,55.74,134.67Z"/><path class="cls-12" d="M117.32,140.59A3.71,3.71,0,0,1,121,143.1a3.28,3.28,0,0,1-2.76,4,169.7,169.7,0,0,1-31.34,3.36,182.19,182.19,0,0,1-32-3.35,3.29,3.29,0,0,1-2.81-4,3.82,3.82,0,0,1,4.53-2.45,177.41,177.41,0,0,0,30.27,3.17,164,164,0,0,0,29.54-3.16A4,4,0,0,1,117.32,140.59Z"/></g></g></svg>