<svg xmlns="http://www.w3.org/2000/svg" viewBox="0 0 169.67 260.03"><defs><style>.cls-1{fill:#3f3e3d;}.cls-2{fill:#3c7a62;}.cls-3{fill:#f2d0af;}.cls-4{fill:#d3cec7;}.cls-5{fill:#f9f5ed;}.cls-6{fill:#ddb58e;}.cls-7{fill:#4d9980;}.cls-8{fill:#f4d3b0;}.cls-9{fill:#3a332d;}.cls-10{fill:#c65044;}</style></defs><title>资源 244</title><g id="图层_2" data-name="图层 2"><g id="Layer_1" data-name="Layer 1"><path class="cls-1" d="M158.71,168.3s-10.51,10.6-10.56-3.53,21.16-44.54,21.52-71.41S154.41-1.73,82.5,0-19.67,72.5,16.85,139.31c0,0-17.57,59,38.28,74.6S156.26,208.62,158.71,168.3Z"/><path class="cls-2" d="M55.75,177.05S7.59,197.47,1.31,189.51s12-64.16,12-64.16l27.87,6.1-6.66,28.61,15.64-7.66Z"/><path class="cls-3" d="M110.59,260h13.08l5.47-15.82-12.55-4.32S110.85,252.15,110.59,260Z"/><path class="cls-2" d="M114.7,160.6s28.9,44.63,28.63,53.47S129,246,129,246l-16.47-4s13.38-28.63,13.34-30.75-17.48-27.31-17.48-27.31S106.21,155.83,114.7,160.6Z"/><path class="cls-4" d="M82.36,154.16H53.07S42.58,247,44,260h75.6c1.4-13-9.09-105.87-9.09-105.87Z"/><ellipse class="cls-5" cx="81.78" cy="169.45" rx="28.8" ry="22.77"/><ellipse class="cls-6" cx="81.78" cy="167.59" rx="21.9" ry="17.32"/><path class="cls-7" d="M43.53,257.44c1.24.95,5.93,1.85,11.77,2.59H70.82V154.16H53.07S40.35,255,43.53,257.44Z"/><polygon class="cls-2" points="70.82 210.97 70.82 165.35 59.88 182.97 69.27 187.04 59.88 203.01 70.82 210.97"/><path class="cls-7" d="M92.74,154.16V260h15.52c5.84-.74,10.53-1.64,11.77-2.59,3.18-2.41-9.54-103.28-9.54-103.28Z"/><polygon class="cls-2" points="92.74 210.97 92.74 165.35 103.69 182.97 94.29 187.04 103.69 203.01 92.74 210.97"/><path class="cls-6" d="M32.59,108.27s-7.38-5.34-13.38,0c-5.77,5.14-1.91,31.82,22,29Z"/><path class="cls-8" d="M132.4,107.07s7.38-5.34,13.38,0c5.78,5.14,1.91,31.82-22,29Z"/><path class="cls-3" d="M134.36,109.71c0,15.15-4.21,31.93-11.26,41.33-9.5,12.68-24.16,15.41-40.6,15.41-15.91,0-30.15-2.29-39.66-14.2-7.61-9.52-12.2-26.73-12.2-42.54,0-1.8.06-13.33.18-15.17C33,60,55.3,37.59,82.5,37.59S132,60,134.18,94.5C134.3,96.35,134.36,107.9,134.36,109.71Z"/><path class="cls-9" d="M112.54,120.74h0a1.06,1.06,0,0,1-1-1.06c0-.25,0-6.08-4.82-6.24-4.94-.16-6.12,4.71-6.16,4.92a1.06,1.06,0,1,1-2.06-.47c.53-2.35,3-6.74,8.29-6.56s6.88,5.55,6.86,8.36A1,1,0,0,1,112.54,120.74Z"/><path class="cls-9" d="M114.35,120.69a8.67,8.67,0,0,1-2.11-.23,1.06,1.06,0,0,1,.58-2,9.94,9.94,0,0,0,5.38-.54,1.06,1.06,0,0,1,.69,2A14.07,14.07,0,0,1,114.35,120.69Z"/><path class="cls-9" d="M112.4,118.49h-.08a1.06,1.06,0,0,1,0-2.11h.06c1.94,0,4.6-1.84,5.47-2.55a1.06,1.06,0,1,1,1.35,1.63C119.06,115.58,115.5,118.49,112.4,118.49Z"/><path class="cls-1" d="M96.3,103.24l.1-2.49a.58.58,0,0,1,.52-.56c2.85-.29,17.08-1.48,23.79,2.53a.56.56,0,0,1,.18.81l-1.37,2.07a.58.58,0,0,1-.69.23c-1.92-.71-10.18-3.41-21.87-2A.58.58,0,0,1,96.3,103.24Z"/><path class="cls-9" d="M48.24,120.74h0a1.06,1.06,0,0,0,1-1.06c0-.25.05-6.08,4.82-6.24,4.94-.16,6.12,4.71,6.16,4.92a1.06,1.06,0,0,0,1.27.8,1,1,0,0,0,.79-1.27c-.53-2.35-3-6.74-8.29-6.56s-6.88,5.55-6.86,8.36A1,1,0,0,0,48.24,120.74Z"/><path class="cls-9" d="M46.43,120.69a8.67,8.67,0,0,0,2.11-.23,1.06,1.06,0,0,0-.58-2,9.94,9.94,0,0,1-5.38-.54,1.06,1.06,0,0,0-.69,2A14.11,14.11,0,0,0,46.43,120.69Z"/><path class="cls-9" d="M48.38,118.49h.08a1.06,1.06,0,0,0,0-2.11h-.07c-1.93,0-4.6-1.84-5.46-2.55a1.06,1.06,0,0,0-1.35,1.63C41.71,115.58,45.28,118.49,48.38,118.49Z"/><path class="cls-1" d="M64.48,103.24l-.1-2.49a.58.58,0,0,0-.52-.56c-2.85-.29-17.08-1.48-23.79,2.53a.57.57,0,0,0-.18.81l1.37,2.07a.58.58,0,0,0,.68.23c1.92-.71,10.2-3.41,21.88-2A.58.58,0,0,0,64.48,103.24Z"/><path class="cls-10" d="M68.45,148.71s3-3.87,6.49-3.69a7.34,7.34,0,0,1,5.36,3s3.13-3,6.78-2.91S92.33,149,92.33,149A14.16,14.16,0,0,1,80,156.25,12.57,12.57,0,0,1,68.45,148.71Z"/><path class="cls-6" d="M86,129.85s-.56,5-5.39,5-5.81-5-5.81-5,2.64,3.08,5.72,3.08S86,129.85,86,129.85Z"/><path class="cls-6" d="M40.54,119.66c3-7.29,9.87-11.74,12.92-19C46.35,95.36,39.24,90,32,84.92a83.49,83.49,0,0,0-1.17,9.62c-.12,1.84-.18,13.37-.18,15.17,0,14.29,3.75,29.69,10.09,39.56.49-6.16,3.88-18.88,3.88-18.88l-5.43-2.52S39.41,122.42,40.54,119.66Z"/><path class="cls-1" d="M115.93,71.09s4.8,23.23,18.41,34.8l12-52.12L66.44,29,16.85,72.15l13.8,35S79.17,119.17,115.93,71.09Z"/><path class="cls-3" d="M16.85,131.72s3.64-16,1.52-19.81S7.23,99.1,6.43,96.19s3.86-7.69,10.42-1.33c0,0-3.26-13.78-1.93-16.17s6.63-4,9,0,5.09,14,5.09,14,2.6-19.62,6.58-19.62,6.69,1.59,5.6,21.48c0,0,9.28-14.32,11.78-13.26s3,5.3-1.74,13.52c0,0,.27,6.42-2.38,11s-7.16-.16-13.79,25.83Z"/><path class="cls-2" d="M12.38,190.93l22.7-33.22,6.12-26.26-27.87-6.1s-18.3,56.21-12,64.16C2.87,191.49,7,191.71,12.38,190.93Z"/><path class="cls-10" d="M18.37,120.23s3.81-3.63,10.65-2.74S38.6,122,38.6,122l3.8-9a29.87,29.87,0,0,0-12.55-4.48,14.53,14.53,0,0,0-12.21,3.78Z"/></g></g></svg>