<svg xmlns="http://www.w3.org/2000/svg" viewBox="0 0 186.19 260"><defs><style>.cls-1{fill:#6b4627;}.cls-2{fill:#f26d49;}.cls-3{fill:#e05a3b;}.cls-4{fill:#d3411a;}.cls-5{fill:#f9dab4;}.cls-6{fill:#472b18;}.cls-7{fill:#fff;}.cls-8{fill:#f7cea6;}.cls-9{fill:#f9f7f2;}.cls-10{fill:#e5be9e;}.cls-11{fill:#ad3936;}.cls-12{fill:#e0605c;}</style></defs><title>资源 22</title><g id="图层_2" data-name="图层 2"><g id="Layer_1" data-name="Layer 1"><path class="cls-1" d="M175.92,161.93a809.25,809.25,0,0,1-83.6,4.42,734.82,734.82,0,0,1-81.26-4.42c4-13.69,5.64-30.72,4.76-49.59H171.15A182.71,182.71,0,0,0,175.92,161.93Z"/><path class="cls-2" d="M45.11,195.75c-4.36,27.78-10,59-11,64.25H58.87c1.37-15.83,7.39-88.19,4.06-92.2C62.93,167.8,49.88,165.32,45.11,195.75Z"/><path class="cls-3" d="M49.83,178.7c2,1.62,6.21,6.56,5,19.32-1.27,13.71-5,49.65-6.27,62H58.87c1.37-15.83,7.39-88.19,4.06-92.2C62.93,167.8,55.53,166.4,49.83,178.7Z"/><path class="cls-2" d="M140.4,195.08c-4.46-30.48-17.54-28.14-17.54-28.14C119.43,171,125,246,126,260h24.76C150.29,257.13,144.65,224.2,140.4,195.08Z"/><path class="cls-3" d="M135.85,178c-5.57-12.36-13-11-13-11C119.43,171,125,246,126,260h10.3c-1.09-11.6-4.55-48.76-5.7-62.75C129.57,184.47,133.81,179.57,135.85,178Z"/><path class="cls-2" d="M62.93,167.8S73.33,163,78,163h34.93l10.29,3.92L135,260H52.57Z"/><path class="cls-4" d="M61.93,234.68H82a84.38,84.38,0,0,1,0,12.49C80.88,257,63.68,259.4,61.8,247,61.8,239,61.93,234.68,61.93,234.68Z"/><path class="cls-5" d="M139.74,39.17c-17.05-7-73.94-5.07-82-2.57C17.17,47.52,22.86,98.93,22.23,108.43c-2.08,31.82,31.62,57.94,71.08,58.19s71.62-25.38,71.83-57.27C165.14,109.35,168.35,52.51,139.74,39.17Z"/><path class="cls-1" d="M118.45,87.64s4.48-2,12.11-1.64c7.37.33,13.51,3.67,13.83,2.09.57-2.83-3.35-7.71-9.45-9.93-5.73-2.09-10.84-.31-14.77,2.6S114.52,88.72,118.45,87.64Z"/><path class="cls-1" d="M69.59,87.64s-4.48-2-12.11-1.64c-7.37.33-13.51,3.67-13.83,2.09-.56-2.83,3.35-7.71,9.45-9.93,5.73-2.09,10.85-.31,14.77,2.6S73.52,88.72,69.59,87.64Z"/><path class="cls-6" d="M140.16,101.74a11.53,11.53,0,1,1-16-3.22A11.54,11.54,0,0,1,140.16,101.74Z"/><path class="cls-7" d="M132.34,99c1.14,1.73-.36,4.73-3.35,6.72s-6.35,2.21-7.49.49.35-4.73,3.35-6.72S131.19,97.32,132.34,99Z"/><path class="cls-6" d="M67.22,99.1a11.53,11.53,0,1,1-16-3.22A11.54,11.54,0,0,1,67.22,99.1Z"/><path class="cls-7" d="M59.4,96.4c1.14,1.73-.36,4.73-3.35,6.72s-6.35,2.21-7.49.49.35-4.73,3.34-6.72S58.25,94.68,59.4,96.4Z"/><path class="cls-8" d="M86.82,127.59h0A30.86,30.86,0,0,1,89,124.77a17.73,17.73,0,0,1,2-2,7.36,7.36,0,0,1,2-1.31,2.13,2.13,0,0,1,.76-.13,3.84,3.84,0,0,1,1.82.57,11.72,11.72,0,0,1,3,2.62,17.29,17.29,0,0,1,2.22,3.35,1,1,0,0,0,1.31.45,1,1,0,0,0,.45-1.31,19.12,19.12,0,0,0-3.57-4.92,12,12,0,0,0-2.44-1.89,5.8,5.8,0,0,0-2.77-.83,4,4,0,0,0-1.47.27,9.24,9.24,0,0,0-2.68,1.71,24.12,24.12,0,0,0-3.1,3.38c-.79,1-1.28,1.79-1.29,1.81a1,1,0,0,0,1.64,1Z"/><path class="cls-9" d="M49.49,127.93a1.29,1.29,0,0,1-1.33,1.24L43.8,129a1.29,1.29,0,0,1-1.24-1.34h0a1.29,1.29,0,0,1,1.34-1.24l4.35.16a1.29,1.29,0,0,1,1.24,1.34Z"/><path class="cls-9" d="M143.21,128.54a1.3,1.3,0,0,1-1.34,1.24l-4.35-.17a1.27,1.27,0,0,1-1.24-1.33h0a1.28,1.28,0,0,1,1.33-1.25l4.36.16a1.3,1.3,0,0,1,1.24,1.35Z"/><path class="cls-5" d="M156,129.88a23.69,23.69,0,0,0,19.94-.26c10.46-5.12,15.62-26.13,2.06-31.15S160.28,109,160.28,109Z"/><path class="cls-8" d="M162.32,123.49s4.3-23,14.36-15.06c6.19,4.88,2.52,11.7-3.22,14.5C169.86,124.68,165.18,124.84,162.32,123.49Z"/><path class="cls-10" d="M162.44,123.23l1.49-5.8s19.14-5.46,13.77,2.22S162.44,123.23,162.44,123.23Z"/><path class="cls-5" d="M29.94,128.56A23.73,23.73,0,0,1,10,128C-.39,122.79-5.28,101.72,8.34,96.87s17.6,10.78,17.6,10.78Z"/><path class="cls-8" d="M23.71,122.09S19.7,99,9.54,106.84c-6.25,4.8-2.67,11.67,3,14.54C16.15,123.18,20.83,123.4,23.71,122.09Z"/><path class="cls-10" d="M23.59,121.83,22.17,116s-19.06-5.7-13.79,2S23.59,121.83,23.59,121.83Z"/><path class="cls-11" d="M75.59,141.39l35.13-1S108.07,153,93.65,153,75.59,141.39,75.59,141.39Z"/><path class="cls-12" d="M93.65,153a18,18,0,0,0,10.45-3,18.3,18.3,0,0,0-21.22.18A20.26,20.26,0,0,0,93.65,153Z"/><path class="cls-1" d="M167.1,32.15C153.76,12.29,135.78,0,93.67,0S35.55,10.27,21.28,30.44c-7,9.81-8.4,25.87-8.4,40.06,0,17.38,1.67,25.5,1.67,25.5l8.54,5.56c.24-11.65,9.73-32.31,9.73-32.31,20.12,2.18,48.65-12.12,60.34-28.46,13.82,17.77,40.6,29.59,60.3,28.68,0,0,10,17.83,10.74,32.23L173,97.47s1.43-9.59,1.43-27C174.45,56.31,173.8,42.13,167.1,32.15Z"/></g></g></svg>