<svg xmlns="http://www.w3.org/2000/svg" viewBox="0 0 145.29 260"><defs><style>.cls-1{fill:#f4efed;}.cls-2{fill:#3a332d;}.cls-3{fill:#e2dcd9;}.cls-4{fill:#126e89;}.cls-5{fill:#0b5668;}.cls-6{fill:#1e8096;}.cls-7{fill:#d19865;}.cls-8{fill:#f4d3b0;}.cls-9{fill:#f9dab4;}.cls-10{fill:#e8dfd9;}.cls-11{fill:#7f5732;}.cls-12{fill:#efc4a0;}</style></defs><title>资源 96</title><g id="图层_2" data-name="图层 2"><g id="Layer_1" data-name="Layer 1"><polygon class="cls-1" points="42.93 158.4 99.44 158.4 105.88 175.8 71.55 228.81 35.09 176.29 42.93 158.4"/><rect class="cls-2" x="66.88" y="161.67" width="9.12" height="10.66" rx="2.06"/><polygon class="cls-2" points="68.67 171.3 55.99 236.9 71.77 246.38 87.1 236.51 73.98 171.3 68.67 171.3"/><polygon class="cls-3" points="46.94 159.13 49.59 181.21 71.72 167 94.14 181.21 95.43 159.04 46.94 159.13"/><path class="cls-4" d="M30.4,162.89S15.15,197.59,11.93,260H30.56C31.64,228.51,30.23,190.22,30.4,162.89Z"/><path class="cls-5" d="M29.51,260h.89V162.89C23.48,216.09,27.55,248.78,29.51,260Z"/><path class="cls-4" d="M112,162.89c.17,27.33-1.24,65.62-.16,97.11h18.63C127.22,197.59,112,162.89,112,162.89Z"/><path class="cls-5" d="M112,260h.88c2-11.22,6-43.91-.88-97.11Z"/><path class="cls-4" d="M99.44,162.89c-.22,37-28.2,56.67-28.26,56.71s-28-19.73-28.25-56.71V158.4L30.4,162.89V260H112V162.89L99.44,158.4Z"/><circle class="cls-5" cx="71.18" cy="228.81" r="4.11"/><path class="cls-5" d="M75.29,250a4.11,4.11,0,1,1-4.11-4.11A4.11,4.11,0,0,1,75.29,250Z"/><path class="cls-6" d="M35.32,190.92c2.29,4,9.93,3.19,9.93,3.19s-3.18,17.06,4.71,22,21.23,3.46,21.23,3.46-28-19.7-28.26-56.71V158.4S29.4,180.74,35.32,190.92Z"/><path class="cls-6" d="M107.05,190.92c-2.29,4-9.93,3.19-9.93,3.19s3.18,17.06-4.72,22-21.22,3.46-21.22,3.46,28-19.7,28.26-56.71V158.4S113,180.74,107.05,190.92Z"/><path class="cls-7" d="M6,99.8S-23.89,0,72.48,0s66.9,99.8,66.9,99.8L72.61,116.07Z"/><path class="cls-8" d="M23.08,100.34S9,92,1.94,101.13s6.47,32,21.14,32.66Z"/><path class="cls-8" d="M122.2,100.34s14-8.36,21.14.79-6.46,32-21.14,32.66Z"/><path class="cls-9" d="M82.5,166.78h-20a45.13,45.13,0,0,1-45.14-45.13V70.07a22.61,22.61,0,0,1,7.92-17.19l.26-.23a31.33,31.33,0,0,1,38.32-1.89l8.66,6.05,8.56-6a31.33,31.33,0,0,1,38.32,1.81l.32.27a22.62,22.62,0,0,1,7.95,17.22v51.55A45.12,45.12,0,0,1,82.5,166.78Z"/><circle class="cls-2" cx="39.4" cy="104.1" r="8.95" transform="translate(-69.65 126.37) rotate(-80.81)"/><path class="cls-10" d="M42.12,98.22c.26,1.29-1.33,2.69-3.54,3.13s-4.21-.23-4.47-1.51,1.33-2.68,3.54-3.13S41.86,96.94,42.12,98.22Z"/><path class="cls-11" d="M47.19,74.75s3.86,3.1,3.7,10.36c0,0-11.94,5.51-30.08,5.14l.38-5.07S44.62,82.84,47.19,74.75Z"/><circle class="cls-2" cx="97.82" cy="104.1" r="8.95" transform="translate(-15.37 16.96) rotate(-9.19)"/><path class="cls-10" d="M95.11,98.22c-.26,1.29,1.32,2.69,3.53,3.13s4.21-.23,4.47-1.51-1.32-2.68-3.53-3.13S95.37,96.94,95.11,98.22Z"/><path class="cls-11" d="M90,74.75s-3.85,3.1-3.7,10.36c0,0,11.94,5.51,30.09,5.14L116,85.18S92.6,82.84,90,74.75Z"/><path class="cls-12" d="M61.25,121.66s1.27-6.5,7.27-6.5,7.28,6.5,7.28,6.5-3-3.43-7.28-3.43S61.25,121.66,61.25,121.66Z"/><path class="cls-12" d="M46.31,147.1a1.28,1.28,0,0,1-.13-2.55c.44-.05,44.31-4.53,54.7-22.13a1.28,1.28,0,0,1,2.21,1.31c-4.67,7.91-15.67,14.25-32.68,18.84a166.4,166.4,0,0,1-24,4.53Z"/></g></g></svg>