<?xml version="1.0" standalone="no"?><!DOCTYPE svg PUBLIC "-//W3C//DTD SVG 1.1//EN" "http://www.w3.org/Graphics/SVG/1.1/DTD/svg11.dtd"><svg t="1549081944478" class="icon" style="" viewBox="0 0 1024 1024" version="1.1" xmlns="http://www.w3.org/2000/svg" p-id="35894" xmlns:xlink="http://www.w3.org/1999/xlink" width="200" height="200"><defs><style type="text/css"></style></defs><path d="M898.2 459.1L774.9 384V96.7c0-18.2-15.7-32.9-35.1-32.9H284.2c-19.4 0-35.1 14.7-35.1 32.9v287.4l-123.5 75.2c-10.4 6.3-16.7 17.6-16.7 29.7v436.3c0 19.3 15.6 34.9 34.9 34.9h736.5c19.3 0 34.9-15.6 34.9-34.9V489.2c-0.1-12.3-6.5-23.7-17-30.1zM396.3 217h231.4c23.2 0 42.1 18.8 42.1 42.1 0 23.2-18.8 42.1-42.1 42.1H396.3c-23.2 0-42.1-18.8-42.1-42.1 0.1-23.3 18.9-42.1 42.1-42.1z m0 175.3h231.4c23.2 0 42.1 18.8 42.1 42.1 0 23.2-18.8 42.1-42.1 42.1H396.3c-23.2 0-42.1-18.8-42.1-42.1 0.1-23.3 18.9-42.1 42.1-42.1z m111.2 309.9l-346-185.1 87.6-52.6v70.6l258.4 129.6L774.9 534v-69.5l87.6 52.6-355 185.1z" p-id="35895"></path></svg>