<svg xmlns="http://www.w3.org/2000/svg" viewBox="0 0 208.87 260.11"><defs><style>.cls-1{fill:#6b4627;}.cls-2{fill:#4c3626;}.cls-3{fill:#60b2bf;}.cls-4{fill:#4793a0;}.cls-5{fill:#3d868e;}.cls-6{fill:#f4d3b0;}.cls-7{fill:#f9dab4;}.cls-8{fill:#c65044;}.cls-9{fill:#393c3d;}</style></defs><title>资源 174</title><g id="图层_2" data-name="图层 2"><g id="Layer_1" data-name="Layer 1"><path class="cls-1" d="M208.87,234.45a30.3,30.3,0,0,1-14.79-3.91c6-.74,14.08-6.91,14.19-18.26,0,0-7.82,6.65-16.62,1.9S209,55.76,161.74,17.81c-29.6-23.75-82.06-23.75-111.66,0C2.78,55.76,29,209.44,20.17,214.18s-16.62-1.9-16.62-1.9c-4.4,12.34,9.78,19.52,9.78,19.52A23.24,23.24,0,0,1,0,236.49c2.55,6,20.36,15.68,40.75,18.74,40.58,6.1,121.8,4,145.63-4C205.38,244.86,208.87,234.45,208.87,234.45Z"/><path class="cls-2" d="M185.19,64.13c-4-18.43-10.5-34.21-20.85-44-12,1.08-19.14,9.15-24.84,22.36-9.17,21.3,3.58,36.57,18.89,49.89l0,0C169.41,84.78,179.32,75.32,185.19,64.13Z"/><path class="cls-2" d="M43.15,108.14C52.38,113.27,59,127,69.91,128.46c12.75,1.73,9.4-19.08,7.73-26.26-3-13-8.92-22.77-18.69-31.83,0,0-.05-.08-.09-.12a45.25,45.25,0,0,0-10-1.69c-7.11,0-10.4,8.84-13.42,13.68a217.46,217.46,0,0,0-14.22,26.53c-.07,1.19-.12,2.38-.17,3.57C28.43,110.64,36,104.15,43.15,108.14Z"/><path class="cls-3" d="M79.7,193.07s-18.21,42.56-26.13,67h27C86.08,230.68,89.31,184.61,79.7,193.07Z"/><path class="cls-3" d="M138.62,193.07c-9.62-8.46-6.38,37.61-.87,67h27C156.83,235.63,138.62,193.07,138.62,193.07Z"/><path class="cls-4" d="M109.16,196.1l-12.77,0v.09h-.34s-24.17-2.84-26.23,23.25c-.66,8.33-2.22,23.29-4.35,40.72h87.38c-2.14-17.43-3.7-32.39-4.35-40.72-2.05-26.09-26.23-23.25-26.23-23.25h-.34v-.09Z"/><path class="cls-5" d="M150.65,195.69c-5-15.34-9-30.66-38.14-34v-.55c-1.15.06-2.26.13-3.35.22-1.08-.09-2.2-.16-3.35-.22v.55c-29.17,3.37-33.1,18.69-38.14,34-5.46,16.59-14.52,34.14-2.87,37.94s17.63-5.22,17.63-5.22,5.19,7.59,13.49,8.06c6.25.36,13.15-8.3,13.24-8.46.1.16,7,8.82,13.25,8.46,8.29-.47,13.48-8.06,13.48-8.06s6,9,17.62,5.22S156.11,212.28,150.65,195.69Z"/><path class="cls-6" d="M57.76,122.19s-7.49-8.73-14.37-4.52.6,28.12,24,28.06Z"/><path class="cls-6" d="M154.05,122.19s7.49-8.73,14.37-4.52-.6,28.12-23.95,28.06Z"/><path class="cls-7" d="M47.32,72.66s-6.53,94.13,59.43,94.13c67,0,57.44-94.13,57.44-94.13L105.76,54.53Z"/><path class="cls-8" d="M95.79,149.66s2.75-4.28,5.93-4.09,4.92,3.36,4.92,3.36,2.86-3.28,6.2-3.22,4.81,4.28,4.81,4.28-3.33,8-11.26,8S95.79,149.66,95.79,149.66Z"/><path class="cls-9" d="M106.56,106.9l-58.11-1.34S49.23,145.4,74.57,144c20.36-1.14,29.26-12.8,32-17.36,2.73,4.56,11.64,16.22,32,17.36,25.35,1.42,26.12-38.42,26.12-38.42Z"/><path class="cls-1" d="M135,39.11s35.58-25.61,50.28-4.74-27,68.06-95.34,79.09L100.83,85.6S67.67,115.82,44,122.05L65.78,89.39s-20.4,14.23-37.47,15.18l18.83-38S89.45,48.6,135,39.11Z"/></g></g></svg>