<svg xmlns="http://www.w3.org/2000/svg" viewBox="0 0 200.5 298.19"><defs><style>.cls-1{fill:#f2d0af;}.cls-2{fill:#3c7a62;}.cls-3{fill:#438970;}.cls-4{fill:#61aa90;}.cls-5{fill:#ddb58e;}.cls-6{fill:#393c3d;}.cls-7{fill:#bc9173;}.cls-8{fill:#f4d3b0;}.cls-9{fill:#c65044;}.cls-10{fill:#3f3e3d;}.cls-11{fill:#3a332d;}.cls-12{fill:#e8dfd9;}</style></defs><title>资源 240</title><g id="图层_2" data-name="图层 2"><g id="Layer_1" data-name="Layer 1"><path class="cls-1" d="M176.05,262.59a294.13,294.13,0,0,1-10.86,28.61,29.41,29.41,0,0,0-2,7h17.23c2.52-5.38,12.73-28,12.13-39.14Z"/><path class="cls-2" d="M132.15,211.94s6.32-11.77,12.2-10.83c3.09.5,16.49,14,29.17,27C185,240,196,251.08,196.27,256.88l-21.6,2.43L132,220.17Z"/><path class="cls-3" d="M198.6,254.83s-29.14-3.69-30.89-3-1.47,8-1.47,10.09c0,3.87,3.41,4.05,16.51,5.56,6.55.75,14.46,1.12,15.85.34S202.06,258.43,198.6,254.83Z"/><path class="cls-2" d="M68.68,232c-6,32.29-13.41,56.76-20.42,66.2H73l17.56-95.67S75.78,194,68.68,232Z"/><path class="cls-4" d="M114.67,197.63l-5,0v.06l-14.59.08S79.94,195,77.7,214.4c-1.44,12.46-9.33,53.44-13.11,83.79H164.75c-3.78-30.35-11.66-71.33-13.1-83.79-2.25-19.44-17.38-16.66-17.38-16.66l-14.59-.08v-.06Z"/><path class="cls-3" d="M91.68,211.47a22.86,22.86,0,0,1,4.59-13.74H95.08S79.94,195,77.7,214.4c-1.44,12.46-9.33,53.44-13.11,83.79h40.75V232.47A23,23,0,0,1,91.68,211.47Z"/><path class="cls-3" d="M124,232.47v65.72h40.74c-3.78-30.35-11.66-71.33-13.1-83.79-2.25-19.44-17.38-16.66-17.38-16.66h-1.19A23,23,0,0,1,124,232.47Z"/><path class="cls-2" d="M124,251.43h33.62c-.61-3.65-1.21-7.2-1.78-10.57H124Z"/><path class="cls-2" d="M71.71,251.43h33.63V240.86H73.5C72.93,244.23,72.33,247.78,71.71,251.43Z"/><path class="cls-2" d="M124,283.47h38.73c-.51-3.49-1.05-7-1.61-10.57H124Z"/><path class="cls-2" d="M66.61,283.47h38.73V272.9H68.21C67.66,276.44,67.12,280,66.61,283.47Z"/><path class="cls-5" d="M130.22,202.52c0,6.57-7,11.88-15.55,11.88s-15.54-5.31-15.54-11.88,7-11.88,15.54-11.88S130.22,196,130.22,202.52Z"/><path class="cls-6" d="M60.24,40.82C77.1,53,80.75,76.74,68.39,93.87s-36,21.15-52.91,9S-5,66.94,7.33,49.81,43.38,28.65,60.24,40.82Z"/><rect class="cls-7" x="21" y="34.33" width="73.43" height="4.94" transform="translate(17.96 92.51) rotate(-87.01)"/><rect class="cls-7" x="36.74" y="40.06" width="71.04" height="4.94" transform="translate(3.11 89.95) rotate(-64.92)"/><path class="cls-3" d="M77.4,59C88,66.66,88.85,83.56,79.31,96.77S53.47,114.5,42.88,106.85,31.43,82.31,41,69.1,66.8,51.37,77.4,59Z"/><path class="cls-6" d="M187.22,109.89c0,39.31-33.43,71.18-74.68,71.18S37.86,149.2,37.86,109.89,71.3,38.7,112.54,38.7,187.22,70.57,187.22,109.89Z"/><path class="cls-8" d="M57.82,152.89s-6.2-8.16-13.12-4.36S47.36,177.14,61,179.16Z"/><path class="cls-8" d="M169,152.89s6.21-8.16,13.12-4.36-2.66,28.61-16.31,30.63Z"/><path class="cls-1" d="M55.89,118.05v41.61c0,10.55,4.13,20.48,11.13,26.83a68.48,68.48,0,0,0,46.4,17.27c28.41-.55,46.39-17.27,46.39-17.27,7-6.35,11.13-16.28,11.13-26.83V118.05Z"/><path class="cls-9" d="M101.56,187.08s3-4.65,6.44-4.44,5.33,3.65,5.33,3.65,3.1-3.57,6.73-3.49,5.22,4.64,5.22,4.64-3.61,8.7-12.22,8.7S101.56,187.08,101.56,187.08Z"/><path class="cls-5" d="M106.87,170.86s.65-6.06,6.3-6.08,6.8,6.08,6.8,6.08-3.09-3.73-6.7-3.73S106.87,170.86,106.87,170.86Z"/><path class="cls-10" d="M160.24,143.51s-11-2.12-20.24-.55l.33-1.88c.41-2.29,3.39-4.07,9.38-4.43s9.58,1.45,10,4.1Z"/><path class="cls-11" d="M146.47,161.05a1.19,1.19,0,0,1-.12-2.38c.08,0,8.24-.82,11.43-2.75a1.2,1.2,0,0,1,1.64.41A1.18,1.18,0,0,1,159,158c-3.65,2.21-12.07,3-12.43,3.08Z"/><path class="cls-11" d="M147.74,158.44h-.18a1.19,1.19,0,0,1,0-2.38h.15c6,0,9.58-4.91,9.61-5a1.19,1.19,0,0,1,1.95,1.38C159.12,152.73,155,158.44,147.74,158.44Z"/><path class="cls-11" d="M140.81,156.56a5.87,5.87,0,1,0,4.31-7.09A5.88,5.88,0,0,0,140.81,156.56Z"/><path class="cls-12" d="M143.87,151.85c0,.85,1.27,1.5,2.74,1.44s2.65-.8,2.61-1.66-1.26-1.5-2.73-1.44S143.84,151,143.87,151.85Z"/><path class="cls-10" d="M66.6,143.51s11-2.12,20.24-.55l-.33-1.88c-.41-2.29-3.39-4.07-9.39-4.43s-9.57,1.45-10,4.1Z"/><path class="cls-11" d="M80.37,161.05a1.19,1.19,0,0,0,.11-2.38c-.07,0-8.23-.82-11.42-2.75a1.2,1.2,0,0,0-1.64.41,1.18,1.18,0,0,0,.41,1.63c3.65,2.21,12.07,3,12.43,3.08Z"/><path class="cls-11" d="M79.1,158.44h.17a1.2,1.2,0,0,0,1.18-1.21,1.19,1.19,0,0,0-1.19-1.17h-.15c-6,0-9.58-4.91-9.62-5a1.19,1.19,0,0,0-1.94,1.38C67.72,152.73,71.83,158.44,79.1,158.44Z"/><path class="cls-11" d="M86,156.56a5.87,5.87,0,1,1-4.31-7.09A5.87,5.87,0,0,1,86,156.56Z"/><path class="cls-12" d="M83,151.85c0,.85-1.26,1.5-2.73,1.44s-2.65-.8-2.61-1.66,1.25-1.5,2.73-1.44S83,151,83,151.85Z"/><path class="cls-6" d="M50.83,107.66s-.46,17.86,40.69,32.68,60.68,12.52,73.89,35c0,0,21.63-56.05,8.84-72.9S59.85,58.38,50.83,107.66Z"/></g></g></svg>