<svg xmlns="http://www.w3.org/2000/svg" viewBox="0 0 182.15 260.06"><defs><style>.cls-1{fill:#c65044;}.cls-2{fill:#54a3b5;}.cls-3{fill:#4493a0;}.cls-4{fill:#3f3e3d;}.cls-5{fill:#f4d3b0;}.cls-6{fill:#f9dab4;}.cls-7{fill:#efc4a0;}.cls-8{fill:#3a332d;}</style></defs><title>资源 73</title><g id="图层_2" data-name="图层 2"><g id="Layer_1" data-name="Layer 1"><rect class="cls-1" x="82.83" y="150.98" width="58.72" height="67.41"/><path class="cls-2" d="M141.55,153.42l-1.49.05c-.25.65-.52,1.33-.79,2-.54-.07-1-.11-1.44-.13a105.26,105.26,0,0,1-4.29,14c-2.71,6.23-5.85,13-9.26,19.65a182.55,182.55,0,0,1-13.19,20.5A184.08,184.08,0,0,1,97.9,189c-3.41-6.61-6.55-13.42-9.25-19.65a105.3,105.3,0,0,1-4.3-14c-.41,0-.9.06-1.43.13-.28-.71-.55-1.39-.8-2l-1.49-.05c-12.08,0-19.06,17.78-27.67,34.4C45.28,202.64,39.81,216.08,40,223.74c.31,10.25,7,26,12,36.32H170.18c4.93-10.28,11.65-26.07,12-36.32.24-7.66-5.24-21.1-12.92-35.92C160.61,171.2,153.64,153.42,141.55,153.42Z"/><polygon class="cls-3" points="69.5 260.06 69.5 195.07 65.95 260.06 69.5 260.06"/><polygon class="cls-3" points="152.69 195.07 152.69 260.06 156.23 260.06 152.69 195.07"/><path class="cls-3" d="M97.24,222.4v37.66h.62l1-36.09c9-7.64,12.69-13.87,12.69-13.87C108.73,214.1,97.24,222.4,97.24,222.4Z"/><path class="cls-3" d="M113.15,228.57a4.38,4.38,0,1,1-4.38-4.38A4.38,4.38,0,0,1,113.15,228.57Z"/><path class="cls-3" d="M113.15,248.72a4.38,4.38,0,1,1-4.38-4.38A4.38,4.38,0,0,1,113.15,248.72Z"/><path class="cls-3" d="M84,180.41l-3.59,14.66,24.42,5.5h0C98.52,190.82,89.31,174.76,85,157.9h0L73.83,178.84Z"/><path class="cls-3" d="M138.08,158.48c-4.68,11.62-12,28.51-20.21,42.09l24.42-5.5-3.59-14.66,10.21-1.57Z"/><path class="cls-4" d="M61,87.85S0,103.66,0,50.1,84.81.25,98.38.07c8.46-.12,41.34-1.66,61.75,19.71C175.94,36.33,176.87,54.63,176.87,90V104.4H61Z"/><path class="cls-5" d="M61,103.14s-10.62-10.3-17.94-3.72c-8.68,7.79,4.14,25.48,17,25.58Z"/><path class="cls-5" d="M158.84,103.14s10.61-10.3,17.93-3.72c8.68,7.79-4.14,25.48-17,25.58Z"/><path class="cls-6" d="M164.63,131.88V59.19H55.06v72.69A12.26,12.26,0,0,0,47,143.42v.24c0,6.77,5.27,10.7,12.35,13.27,0,0,18.67,6.56,50.54,6.56S161,156.55,161,156.55c7.37-2.87,11.71-6.12,11.71-12.89v-.24A12.26,12.26,0,0,0,164.63,131.88Z"/><path class="cls-4" d="M52.65,70.37S77.06,83.25,101,67.8c0,0,6.94,10.41,30.12-2,0,0,4.47,8.29,14.1,2.24,0,0,8.85,8.74,22.06-1.68V43.06l-114.65.67Z"/><path class="cls-7" d="M97.24,128.91s2.07-9.92,10.57-11.55,14.81,9.15,14.81,9.15-8-8.15-14.7-6.75S97.24,128.91,97.24,128.91Z"/><path class="cls-7" d="M109.75,149.13a90.14,90.14,0,0,1-18.57-2.06A58.56,58.56,0,0,1,75,141.26,1.29,1.29,0,0,1,76.27,139a57.52,57.52,0,0,0,15.45,5.51c12.43,2.65,42.64,6.39,54.62-16.24a1.3,1.3,0,1,1,2.29,1.21c-5.21,9.85-14.15,16.07-26.58,18.49A64.2,64.2,0,0,1,109.75,149.13Z"/><path class="cls-7" d="M151.39,126.3a1.31,1.31,0,0,1-1.28-1.09c-.54-3.3-3.58-3.21-4.86-3a4.34,4.34,0,0,0-2.64,1.59,1.3,1.3,0,0,1-2.13-1.48,7,7,0,0,1,4.38-2.67c3.14-.48,7.06.58,7.81,5.15a1.3,1.3,0,0,1-1.07,1.49Z"/><path class="cls-8" d="M86.07,113a1.45,1.45,0,0,1-1.44-1.37,5.88,5.88,0,0,0-11.72,0A1.45,1.45,0,0,1,71.4,113a1.42,1.42,0,0,1-1.36-1.5,8.76,8.76,0,0,1,17.47,0,1.44,1.44,0,0,1-1.37,1.5Z"/><polygon class="cls-4" points="65.03 90.39 91.45 96.46 91.45 90.39 65.03 85 65.03 90.39"/><path class="cls-8" d="M146.31,113a1.45,1.45,0,0,1-1.44-1.37,5.88,5.88,0,0,0-11.72,0,1.44,1.44,0,0,1-2.87-.14,8.76,8.76,0,0,1,17.47,0,1.43,1.43,0,0,1-1.37,1.5Z"/><polygon class="cls-4" points="152.76 90.39 126.33 96.46 126.33 90.39 152.76 85 152.76 90.39"/></g></g></svg>