<svg xmlns="http://www.w3.org/2000/svg" viewBox="0 0 317.4 278.16"><defs><style>.cls-1{fill:#f7cea6;}.cls-2{fill:#f9dab4;}.cls-3{fill:#404042;}.cls-4{fill:#fff;}.cls-5{fill:#e5be9e;}.cls-6{fill:#2e6d4d;}.cls-7{fill:#357c5a;}</style></defs><title>资源 357</title><g id="图层_2" data-name="图层 2"><g id="Layer_1" data-name="Layer 1"><path class="cls-1" d="M243.5,126.45c-30.79-9.12-77.25,19.88-85.81,25.48l-3.89-3.07s-47.06-35.64-81.09-25.56S8,155.23,8,215.32c21.3,9.11,25.2,9.11,25.2,9.11s34.46-13.32,45.8-31.8c0,25.21,10.93,42.43,10.93,42.43v43.1H226.28v-40S237.2,221,237.2,195.78c11.34,18.49,45.8,31.8,45.8,31.8s3.91,0,25.21-9.11C308.21,158.38,277.54,136.54,243.5,126.45Z"/><path class="cls-2" d="M15.87,193.89s-1.56-23.32,7.26-29.2c5-3.15,8.19-4.41,9.45-4.41S34.69,157,30,157s-.26-4.46,3-7.72S63.05,126.87,75,126.87s32.14,2.52,32.14,29.2c0,0-1,16.74,11.62,24.38,17,10.26,32.07,5.25,49,6.3,20.17,1.4,40.53-2.3,45.75-10.6s3.71-23.7,10.56-32,19.41-15.77,40.13-5.13,22.33,20,22.33,24.74,3.08,5.88,5.6,3.36,9,14,10.36,23,0,30.53,0,30.53H279.85s-24.93-8.13-21.85-20.73-2.36-6.64-4,.46-11.15-.74-14.37-7.88-3.5-19.75-1.54-21.71-2-5-5-2-2.8,16.8-1.12,23.53S228,219,212.9,225.12s-33.89,6.16-45.09.28-14.15-4.34-11.21-1.4,13.73,8.4,25.49,9.8,21.22-1.68,27.45-1.68,6.16,23,4.2,34.17S182.37,275,163.32,275s-58.82,0-61.06-11.21-3.36-31.65,2.24-29.69,16.25,5.88,27.73-.56S149,221.2,152.68,223.44c1.54,1.54,2.66-1.54-1.26-3.36s-6.44,2.8-12,6.16-25.28,10.5-37.88,1.26-20.8-22.9-17.44-35.92,3.15-22.27,0-25.42-4.62,3.78-4.62,11.13-4,15.55-9.87,17.23-7.07-4.13-12.12-5.53.84,4.48,3,6.58-.43,8.54-6.59,10.78-19.88,7.57-19.88,7.57l-18.49-2.8Z"/><path class="cls-1" d="M120,223.61c0,1.92-2.59,3.47-5.78,3.47s-5.78-1.55-5.78-3.47,2.59-3.46,5.78-3.46S120,221.7,120,223.61Z"/><path class="cls-1" d="M200.54,223.57c0,1.92-2.58,3.47-5.78,3.47s-5.77-1.55-5.77-3.47,2.58-3.46,5.77-3.46S200.54,221.66,200.54,223.57Z"/><path class="cls-2" d="M111.54,81.71v71.11a29.3,29.3,0,0,0,29.31,29.3h46.46a29.3,29.3,0,0,0,29.3-29.3V81.71Z"/><path class="cls-3" d="M204.55,111.26a9.56,9.56,0,1,1-13.49-.75A9.56,9.56,0,0,1,204.55,111.26Z"/><path class="cls-4" d="M199.83,111c1,1.89-.19,4.54-2.72,5.92s-5.42,1-6.45-.91.19-4.54,2.72-5.92S198.8,109.13,199.83,111Z"/><path class="cls-3" d="M139.33,111.26a9.56,9.56,0,1,1-13.5-.75A9.57,9.57,0,0,1,139.33,111.26Z"/><path class="cls-4" d="M134.6,111c1,1.89-.19,4.54-2.72,5.92s-5.42,1-6.45-.91.19-4.54,2.72-5.92S133.57,109.13,134.6,111Z"/><path class="cls-2" d="M113.68,134.56s-2.87-10.35-12.87-7.54S91.92,140,95.63,144.5s16.13,10.95,19.05,1.78C114.43,140.53,113.68,134.56,113.68,134.56Z"/><path class="cls-1" d="M100.81,127c10-2.81,12.87,7.54,12.87,7.54s0,.07,0,.19-4.61-8.58-13.66-6.33-4.58,15.79-.39,17.71,10.88,5.19,15,.15c-2.92,9.17-15.34,2.79-19.05-1.78S90.8,129.83,100.81,127Z"/><path class="cls-5" d="M109.16,138.13a8.76,8.76,0,0,0-1.35-3.88l-.09-.13a6.27,6.27,0,0,0-3.17-2.36,5.68,5.68,0,0,0-1.64-.29.82.82,0,0,0-.82.72.67.67,0,0,0,.72.7h0a3.81,3.81,0,0,1,1.06.21,4.79,4.79,0,0,1,1.79,1,12,12,0,0,0-1.63.55,8.62,8.62,0,0,0-4.56,4.21c-.07.14-.13.29-.19.44a.66.66,0,0,0,.43.86l0,0a.87.87,0,0,0,1-.51c0-.11.09-.23.14-.34a6.93,6.93,0,0,1,3.71-3.4,9.91,9.91,0,0,1,1.77-.56l.25-.06a8.32,8.32,0,0,1,1,3,.64.64,0,0,0,.46.54.89.89,0,0,0,.4,0A.79.79,0,0,0,109.16,138.13Z"/><path class="cls-2" d="M214.23,134.56s2.87-10.35,12.87-7.54S236,140,232.28,144.5s-16.13,10.95-19.06,1.78C213.47,140.53,214.23,134.56,214.23,134.56Z"/><path class="cls-1" d="M227.1,127c-10-2.81-12.87,7.54-12.87,7.54l0,.19s4.62-8.58,13.67-6.33,4.58,15.79.39,17.71-10.89,5.19-15,.15c2.93,9.17,15.34,2.79,19.06-1.78S237.1,129.83,227.1,127Z"/><path class="cls-5" d="M218.74,138.13a8.88,8.88,0,0,1,1.36-3.88.51.51,0,0,1,.09-.13,6.23,6.23,0,0,1,3.17-2.36,5.59,5.59,0,0,1,1.63-.29.84.84,0,0,1,.83.72.67.67,0,0,1-.72.7h0a3.8,3.8,0,0,0-1.07.21,4.86,4.86,0,0,0-1.79,1,11.68,11.68,0,0,1,1.64.55,8.65,8.65,0,0,1,4.56,4.21l.18.44a.65.65,0,0,1-.42.86l-.05,0a.85.85,0,0,1-1-.51,2.52,2.52,0,0,0-.15-.34,6.94,6.94,0,0,0-3.7-3.4,10.17,10.17,0,0,0-1.77-.56l-.25-.06a8.13,8.13,0,0,0-1,3,.66.66,0,0,1-.46.54.9.9,0,0,1-.4,0A.81.81,0,0,1,218.74,138.13Z"/><path class="cls-3" d="M215,103.15c-.51,1.64-16.25,1.42-20.77,1.71-5.26.34-9.79,1.36-9.89-1.16-.12-2.91,14.65-2.45,19.25-2.33S215.52,101.51,215,103.15Z"/><path class="cls-3" d="M114.52,103.15c.51,1.64,16.25,1.42,20.77,1.71,5.27.34,9.8,1.36,9.9-1.16.12-2.91-14.66-2.45-19.25-2.33S114,101.51,114.52,103.15Z"/><path class="cls-3" d="M151.45,133.63s-8.3.65-11,7.1-3.08,16.46-.14,19.41c2.59,2.59,3.72-7.1,8.08-10.38a1.27,1.27,0,0,1,2,.87c.63,5.5,4,8.83,6.07,9.72,2.24,1,5.25-6.52,5.25-9.32s3.5-2.1,4.48,2.1,5.32,7.85,8.54,7,1.68-7.29,2-10.93,2.66-4.48,3.78-.14,4.06,9.8,7.22,9.87,1.51-10.83.11-15.45S181,134,178,132.93C168.36,132.93,151.45,133.63,151.45,133.63Z"/><polygon class="cls-3" points="160.05 182.12 164.16 182.12 165.83 163.5 159.11 163.5 160.05 182.12"/><path class="cls-1" d="M183.28,128.45c0,7.6-8.46,13.76-18.9,13.76s-18.91-6.16-18.91-13.76,8.47-13.76,18.91-13.76S183.28,120.85,183.28,128.45Z"/><path class="cls-2" d="M180.69,125.84c0,7.07-7.25,12.8-16.18,12.8s-16.18-5.73-16.18-12.8,7.24-12.79,16.18-12.79S180.69,118.78,180.69,125.84Z"/><path class="cls-4" d="M174.24,132.44c0,1.26-1.63,2.27-3.64,2.27s-3.64-1-3.64-2.27,1.63-2.28,3.64-2.28S174.24,131.18,174.24,132.44Z"/><path class="cls-6" d="M223.56,75.68s12.23-8.26,25.25-6.16,7,23.11,23.88,12.61c3.47-3.36,3.69.21-.87,10.08s-11.94,14.29-18.45,10.5-9.77-10.92-10.85-18.06-12.27-8.72-16.29-4.83Z"/><path class="cls-7" d="M227.32,75.54s10.56-6,17.66-4.9,10.42,3.5,12.3,8.69,2.89,8,5.93,8,6.88-1.61,8-2.66,3.47-.42,1.09,3.78-10.5,13.16-16.57,11.06-9-9.38-9-13.16-3.61-9.1-7.09-9.1-2.75-1.83,0-1.83,9.26-.56,10.71,5,1.59,7.84,4.7,8.75,2.1-.07.22-1.89-3.47-6.3-3.47-8.68-4.34-6.31-10.86-5.19-8.1,2.1-8.1,2.1S224.57,78.21,227.32,75.54Z"/><path class="cls-6" d="M223.41,76.45s3-30.46,3.69-38.65,2.61-8,13.9-11.13S258.8,6.92,260.1,2.51s3.47-3.57,3.47,7.14,3.48,12.39-3,22.06S241,59.65,236.65,67.21,221.89,85.28,223.41,76.45Z"/><path class="cls-7" d="M226.23,73.09s3.65-32.28,6.06-37.78,7.62-4,14.35-7.8,9.12-11.14,11.72-15.76,3.4-2.87,3.4,4.27-.79,8.55-5.35,15.48-20.19,29.2-20.19,29.2-4.56,1-.87-8.19,3.37-13.34,2.39-14.29-1.09,2.94-3,8.61-4.34,12.82-4.34,17.65S225.53,79,226.23,73.09Z"/><path class="cls-6" d="M209.45,78.87s5.1-14.07,15.84-10.4c7.71,3,3.15,7.67,3.15,7.67s5.21,1.47,5.21,8.61-12.59,11.14-23.23.84Z"/><path class="cls-7" d="M217.48,77.51s-2.06-6.31.76-7.15,8-.42,8.68,1.68-4.45,5.68-6.4,5.68-3,2.2.76,2.2,7.6-2.52,9.77,1.16-1,8.08-7,8.08-6.51-2.41-5.64-4.41S217.48,77.51,217.48,77.51Z"/><path class="cls-6" d="M111.54,90.11H216.61c.69-19.43-.58-42.29-26.05-52.94S126.88,34.37,117,55.38C110.38,66.86,111.54,85.07,111.54,90.11Z"/><path class="cls-7" d="M115.45,86.75s-4.34-8.19,0-10.51,8.47-.63,10.85-.63,3.91-2.1-1.62-3.88-8.14-8.72-4.24-15.65,18.89-18.49,36.47-20,38,1.42,47.75,14.44,8.48,16.65-2.81,16-10.2,3.36-5.21,3.36,13.68-.84,15.63,4.41,2.82,11.35-6.08,11.35S203.88,86.33,190,87C175.44,87,115.45,86.75,115.45,86.75Z"/><path class="cls-6" d="M153.66,42.63s15.84,16,26.48,20,6.3,4.62.22,3.36S155,50.45,150.62,42.63C150,38.41,153,42.63,153.66,42.63Z"/><path class="cls-6" d="M139.55,53.24S163.79,70.75,179,74s9.35,4.79.84,4.2-37.23-15.36-44.43-24.49C133.85,48.53,138.6,53.36,139.55,53.24Z"/><path class="cls-3" d="M67.16,163c-.29-8.44-8.49-9.68-8.49-9.68s-.13-10.68-12.94-8-9.31,17.78-9.31,17.78c-7.34,2.74-12.13,13.51-7.23,13.84s9.31-7.11,9.31-7.11-2.58,11.34.6,12.11,6.68-7.7,6.68-7.7,0,8.92,1.81,10.93,5.45.36,6.18-10.68C60,178.22,67.44,171.41,67.16,163ZM46,160.43a3.78,3.78,0,1,1,3.88-3.53A3.71,3.71,0,0,1,46,160.43Zm10.18,7.41a3.78,3.78,0,1,1,3.88-3.53A3.72,3.72,0,0,1,56.19,167.84Z"/><path class="cls-1" d="M274.23,211.76c6-4.88,16.37-8.36,26.36-3.75s14.42,14.88,16.26,24.78-1.46,21.6-2.65,33.2c-.33,3.28-1.36,8.68-3.43,12.17H265.11c-1.52-13.06,2.13-50.65,2.13-50.65S268.24,216.64,274.23,211.76Z"/><path class="cls-2" d="M270,264.48a24,24,0,0,0,4.82,1.48c2.44.48,3.48-3.25,1-3.74-4-.79-7.47-2.3-9.52-5.59.49-6.38,1.3-15.08,1.68-18.8a83.43,83.43,0,0,1,2-13.05c2-7.69,6.36-13.52,14.37-15.37,4.39-1,8.17-1.65,12.5.11a28.7,28.7,0,0,1,15.59,15.22,47.49,47.49,0,0,1,2.26,6.56,37.5,37.5,0,0,1,.51,14.62c-.74,4.4-2.18,13.06-3.41,20.53a16.27,16.27,0,0,1-7,3.07c-2.44.52-1.41,4.25,1,3.74.52-.12,1-.24,1.54-.39,1.65-.46,1.53,1,1.26,2.67-.17,1-.31,1.93-.42,2.62H267.8c-.06-3.72-2.14-7.52-2-11.06A3,3,0,0,1,270,264.48Z"/><path class="cls-1" d="M43.17,211.76c-6-4.88-16.38-8.36-26.36-3.75S2.39,222.89.55,232.79,2,254.39,3.2,266c.33,3.28,1.36,8.68,3.42,12.17H52.28c1.53-13.06-2.12-50.65-2.12-50.65S49.16,216.64,43.17,211.76Z"/><path class="cls-2" d="M47.42,264.48A23.88,23.88,0,0,1,42.61,266c-2.44.48-3.48-3.25-1-3.74,4-.79,7.46-2.3,9.52-5.59-.49-6.38-1.3-15.08-1.68-18.8a83.43,83.43,0,0,0-2-13.05c-2-7.69-6.36-13.52-14.37-15.37-4.39-1-8.17-1.65-12.5.11A28.7,28.7,0,0,0,5,224.74a47.49,47.49,0,0,0-2.26,6.56,37.61,37.61,0,0,0-.52,14.62C3,250.32,4.39,259,5.62,266.45a16.22,16.22,0,0,0,7,3.07c2.44.52,1.4,4.25-1,3.74-.53-.12-1-.24-1.54-.39-1.65-.46-1.53,1-1.26,2.67.17,1,.31,1.93.42,2.62H49.6c.06-3.72,2.13-7.52,2-11.06A3,3,0,0,0,47.42,264.48Z"/></g></g></svg>