<svg xmlns="http://www.w3.org/2000/svg" viewBox="0 0 164 260.07"><defs><style>.cls-1{fill:#f2d0af;}.cls-2{fill:#ad3936;}.cls-3{fill:#c65044;}.cls-4{fill:#ddb58e;}.cls-5{fill:#e0b594;}.cls-6{fill:#e2963b;}.cls-7{fill:#f4d3b0;}.cls-8{fill:#3a332d;}</style></defs><title>资源 256</title><g id="图层_2" data-name="图层 2"><g id="Layer_1" data-name="Layer 1"><path class="cls-1" d="M136.48,255.24c-3.56-8.31-9.09-22.06-10.24-30.73s-3.3-40.71-3.3-40.71l-16,5.39,9.87,70.88H138A26.88,26.88,0,0,0,136.48,255.24Z"/><path class="cls-2" d="M104.81,164.56s8-5.93,15,3.6,8.49,21.27,8.49,21.27a35.68,35.68,0,0,0-18.36,4.49Z"/><path class="cls-1" d="M36.68,224.51c-1.15,8.67-6.67,22.42-10.24,30.73a27.7,27.7,0,0,0-1.5,4.83H46.13L56,189.19,40,183.8S37.83,215.83,36.68,224.51Z"/><path class="cls-2" d="M58.11,164.56s-8-5.93-15,3.6-8.49,21.27-8.49,21.27A35.68,35.68,0,0,1,53,193.92Z"/><path class="cls-3" d="M82.23,160.34H55s-15,56.73-13.46,99.73h79.8c1.48-43-13.46-99.73-13.46-99.73Z"/><path class="cls-2" d="M101.63,170.2l2.14,22.62-6.82-3s.88,13.9,0,16.68-15.51,6.83-15.51,6.83V171.71Z"/><path class="cls-2" d="M61.33,170.2l-2.14,22.62,6.82-3s-.88,13.9,0,16.68,15.51,6.83,15.51,6.83V171.71Z"/><path class="cls-4" d="M103.78,160.34l-22.3,2.39-22.3-2.39s-.71,13.31,4.86,22.07c5.38,8.49,15.64,22.66,17.36,30.51v.76c0-.12.06-.26.08-.38,0,.12.06.26.08.38v-.76c1.72-7.85,12-22,17.36-30.51C104.49,173.65,103.78,160.34,103.78,160.34Z"/><path class="cls-2" d="M49.31,219a17.13,17.13,0,0,0,3.33,1.93c.55.2,1.07.51,1.7.68a19.94,19.94,0,0,0,1.93.56,19.51,19.51,0,0,0,2.1.4l2.12.22,2.33-.06c.73-.07,1.35-.22,2-.31s1.28-.4,1.9-.56,1.12-.51,1.65-.72.93-.54,1.34-.77l1-.69c.54-.42.84-.68.84-.68a8.38,8.38,0,0,1-.54,1,11.2,11.2,0,0,1-2,2.15,14.8,14.8,0,0,1-1.65,1.12,15.18,15.18,0,0,1-2.07.91,21.59,21.59,0,0,1-2.41.55l-2.33.12c-1-.08-1.67-.21-2.52-.31a15.78,15.78,0,0,1-2.29-.63,11.63,11.63,0,0,1-2-.89,11.23,11.23,0,0,1-1.68-1.05,11,11,0,0,1-1.26-1.08,9.59,9.59,0,0,1-.86-.94A7.78,7.78,0,0,1,49.31,219Z"/><path class="cls-2" d="M114,219a6.78,6.78,0,0,1-.61.91,12.11,12.11,0,0,1-2.12,2,11.23,11.23,0,0,1-1.68,1.05,12.08,12.08,0,0,1-2,.89,14.79,14.79,0,0,1-2.29.63c-.83.1-1.53.23-2.51.31l-2.33-.12a21.59,21.59,0,0,1-2.41-.55,15.18,15.18,0,0,1-2.07-.91,14.8,14.8,0,0,1-1.65-1.12,11.2,11.2,0,0,1-2-2.15,8.38,8.38,0,0,1-.54-1s.3.26.83.68l1,.69c.42.23.86.51,1.35.77s1,.51,1.65.72,1.24.43,1.89.56,1.29.24,2,.31l2.34.06,2.11-.22a20,20,0,0,0,2.1-.4,19.15,19.15,0,0,0,1.93-.56,19.89,19.89,0,0,0,5-2.61Z"/><path class="cls-5" d="M81.42,203.19a20,20,0,0,0-.52-2.44,20.9,20.9,0,0,0-.77-2.38,18.79,18.79,0,0,0-1.24-2.56,14.42,14.42,0,0,0-1.62-2.31,12,12,0,0,0-.88-1,5.88,5.88,0,0,0-.86-.81,14.13,14.13,0,0,0-1.4-1.13c-.34-.27-.55-.42-.55-.42l.65.25a8.81,8.81,0,0,1,1.64.84,6.85,6.85,0,0,1,1,.72,8,8,0,0,1,1,.92,11.8,11.8,0,0,1,1.84,2.41,13.27,13.27,0,0,1,1.69,5.35A9.3,9.3,0,0,1,81.42,203.19Z"/><path class="cls-5" d="M81.67,203.19a9.83,9.83,0,0,1,0-2.53,13.45,13.45,0,0,1,1.7-5.35,11.46,11.46,0,0,1,1.84-2.41,7.38,7.38,0,0,1,1-.92,6.37,6.37,0,0,1,1-.72,8.52,8.52,0,0,1,1.64-.84l.64-.25-.55.42a13.11,13.11,0,0,0-1.39,1.13,6.49,6.49,0,0,0-.87.81,11.92,11.92,0,0,0-.87,1,13.81,13.81,0,0,0-1.62,2.31A17.69,17.69,0,0,0,83,198.37a23.33,23.33,0,0,0-.78,2.38A20,20,0,0,0,81.67,203.19Z"/><path class="cls-6" d="M136.51,23.54h0c0-.12-11.06-34.32-68.6-20.06S-11.37,68,5.65,110.55c14.92,37.3,10.93,56.17,10.93,56.17s5.31-.06,7.84-3.6l-1,7.83s22.75-2.27,24.52-13.39c.74-4.68,67.24-4.64,68,0,1.77,11.12,24.52,13.39,24.52,13.39l-1-7.83c2.53,3.54,7.84,3.6,7.84,3.6s-4-18.87,10.93-56.17C170.34,80.17,163.59,29.13,136.51,23.54Z"/><path class="cls-7" d="M23.36,107.15s-8.17-5.91-14.81,0c-6.39,5.69-2.11,35.21,24.33,32Z"/><path class="cls-7" d="M140.64,107.15s8.17-5.91,14.81,0c6.39,5.69,2.12,35.21-24.33,32Z"/><path class="cls-1" d="M144.68,118.43c0,35.61-28.06,48.29-62.68,48.29S19.32,154,19.32,118.43c0-1.8.07-21.82.21-23.66,2.65-34.58,29.6-57,62.47-57s59.81,22.36,62.47,56.94C144.61,96.58,144.68,116.62,144.68,118.43Z"/><path class="cls-8" d="M124.57,124.45h0a1.4,1.4,0,0,1-1.39-1.41c0-.32-.07-8-6.39-8.25-6.54-.22-8.09,6.24-8.16,6.51a1.39,1.39,0,0,1-2.72-.62c.7-3.11,3.91-8.93,11-8.69,7.23.25,9.11,7.35,9.09,11.07A1.4,1.4,0,0,1,124.57,124.45Z"/><path class="cls-8" d="M127,124.38a11.13,11.13,0,0,1-2.79-.3,1.4,1.4,0,0,1,.77-2.7,13.23,13.23,0,0,0,7.11-.71,1.4,1.4,0,1,1,.92,2.64A18.48,18.48,0,0,1,127,124.38Z"/><path class="cls-8" d="M124.39,121.47h-.1a1.4,1.4,0,0,1,0-2.8h.08c2.57,0,6.09-2.43,7.24-3.38a1.4,1.4,0,1,1,1.78,2.16C133.21,117.62,128.5,121.47,124.39,121.47Z"/><path class="cls-6" d="M103.07,101.28l.13-3.3a.77.77,0,0,1,.69-.74c3.78-.38,22.61-2,31.5,3.34a.76.76,0,0,1,.24,1.09l-1.82,2.74a.76.76,0,0,1-.9.3c-2.54-.94-13.5-4.52-29-2.64A.77.77,0,0,1,103.07,101.28Z"/><path class="cls-8" d="M39.44,124.45h0A1.4,1.4,0,0,0,40.83,123c0-.32.07-8,6.39-8.25,6.54-.22,8.09,6.24,8.15,6.51a1.4,1.4,0,0,0,1.68,1,1.39,1.39,0,0,0,1.05-1.67c-.7-3.11-3.91-8.93-11-8.69-7.23.25-9.1,7.35-9.09,11.07A1.4,1.4,0,0,0,39.44,124.45Z"/><path class="cls-8" d="M37,124.38a11.09,11.09,0,0,0,2.78-.3,1.4,1.4,0,0,0-.76-2.7,13.27,13.27,0,0,1-7.12-.71,1.4,1.4,0,1,0-.92,2.64A18.49,18.49,0,0,0,37,124.38Z"/><path class="cls-8" d="M39.61,121.47h.11a1.4,1.4,0,0,0,0-2.8h-.09c-2.57,0-6.09-2.43-7.24-3.38a1.4,1.4,0,0,0-1.78,2.16C30.79,117.62,35.5,121.47,39.61,121.47Z"/><path class="cls-6" d="M60.93,101.28,60.81,98a.78.78,0,0,0-.7-.74c-3.78-.38-22.61-2-31.5,3.34a.77.77,0,0,0-.24,1.09l1.81,2.74a.78.78,0,0,0,.91.3c2.55-.94,13.5-4.52,29-2.64A.76.76,0,0,0,60.93,101.28Z"/><path class="cls-6" d="M146.72,94.1S145.48,84,138.52,81c-4.6-2-13.68-9.1-15.17-15.17,0,0-28.1,31-60.67,36.46C34.56,107,18.64,124.61,28.12,131c1.5,1,6.18.25,8.21-1,0,0-.64,10.95-13.33,3.81s-5.32-52.1-5.32-52.1L28.12,43.29l46-16.43,59.17,10.93,17.9,40.89Z"/><path class="cls-3" d="M67.2,147.2s3.73-5.61,8-5.35,6.65,4.39,6.65,4.39,3.88-4.3,8.41-4.21,6.5,5.6,6.5,5.6-4.5,10.51-15.24,10.51S67.2,147.2,67.2,147.2Z"/><path class="cls-4" d="M74.59,129.13s.74-6.63,7.13-6.66,7.7,6.66,7.7,6.66-3.5-4.08-7.58-4.08S74.59,129.13,74.59,129.13Z"/></g></g></svg>