<svg xmlns="http://www.w3.org/2000/svg" viewBox="0 0 172.57 260.14"><defs><style>.cls-1{fill:#2f3233;}.cls-2{fill:#f9dab4;}.cls-3{fill:#f7cea6;}.cls-4{fill:#3d868e;}.cls-5{fill:#266e72;}.cls-6{fill:#9dcece;}.cls-7{opacity:0.45;}.cls-8{fill:#39868e;}.cls-9{fill:#0e5151;}.cls-10{fill:#f9f7f2;}.cls-11{fill:#e0605c;}.cls-12{fill:#ad3936;}.cls-13{fill:#e5be9e;}.cls-14{fill:#393c3d;}.cls-15{fill:#54a3b5;}.cls-16{fill:#f9f5ed;}</style></defs><title>资源 124</title><g id="图层_2" data-name="图层 2"><g id="Layer_1" data-name="Layer 1"><path class="cls-1" d="M119.84,16.67S114.14,0,82.1,0C40.39,0,0,39.51,0,91.92S12.58,211,23.18,233.66s53,22.63,53,22.63,57.61,17.27,75.49-48.84,29.79-128,12.58-166.15S124.81,12.21,119.84,16.67Z"/><path class="cls-2" d="M150.81,240.4c-1-12.31-1.79-22.07-4.29-30.86A106.05,106.05,0,0,0,135,216c-2,1.33-4.05,2.6-6.09,3.81,0,0,2.51,16.79,3.09,24,.48,5.92.9,13.73.78,16.35h19C151.29,250.44,150.81,240.4,150.81,240.4Z"/><path class="cls-3" d="M150.81,240.4c-1-12.31-1.79-22.07-4.29-30.86-1,.5-2.06,1-3.08,1.55l3.73,46.27a14,14,0,0,0,.54,2.78h4.07C151.29,250.44,150.81,240.4,150.81,240.4Z"/><path class="cls-4" d="M129.71,176.71c3.84,3,16.52,25.46,16.52,25.46l-23.3,14.89-13.19-27.51.89-20.76A40.33,40.33,0,0,1,129.71,176.71Z"/><path class="cls-5" d="M118.9,187.62c3.44-8,9.33-5.37,17.61-1.73-2.75-4.32-5.38-8.09-6.8-9.18a40.33,40.33,0,0,0-19.08-7.92l-.89,20.76,13.19,27.51,1.8-1.15,0-.18S116.37,193.51,118.9,187.62Z"/><path class="cls-6" d="M121.71,214.16,145,200.65s1.87-1.26,3.23,2.93,2.82,5.61-1.31,8.65-19,15.58-21.94,11S120.62,215,121.71,214.16Z"/><g class="cls-7"><path class="cls-8" d="M122.94,219.71c.55,1.07,1.24,2.24,2,3.49,3,4.61,17.81-7.93,21.94-11s2.67-4.47,1.31-8.65C148.24,203.58,136.75,217.64,122.94,219.71Z"/></g><path class="cls-2" d="M27.74,240.4c1-12.31,1.79-22.07,4.28-30.86A105.25,105.25,0,0,1,43.55,216c2,1.33,4.05,2.6,6.09,3.81,0,0-2.51,16.79-3.09,24-.48,5.92-.91,13.73-.78,16.35h-19C27.26,250.44,27.74,240.4,27.74,240.4Z"/><path class="cls-3" d="M27.74,240.4c1-12.31,1.79-22.07,4.28-30.86,1,.5,2.07,1,3.09,1.55l-3.74,46.27a13.28,13.28,0,0,1-.53,2.78H26.77C27.26,250.44,27.74,240.4,27.74,240.4Z"/><path class="cls-4" d="M48.84,176.71c-3.84,3-16.52,25.46-16.52,25.46l23.3,14.89,13.19-27.51-.89-20.76A40.29,40.29,0,0,0,48.84,176.71Z"/><path class="cls-5" d="M59.65,187.62c-3.44-8-9.33-5.37-17.61-1.73,2.75-4.32,5.38-8.09,6.8-9.18a40.29,40.29,0,0,1,19.08-7.92l.89,20.76L55.62,217.06l-1.8-1.15,0-.18S62.18,193.51,59.65,187.62Z"/><path class="cls-6" d="M56.84,214.16l-23.3-13.51s-1.87-1.26-3.23,2.93-2.83,5.61,1.3,8.65,19,15.58,22,11S57.92,215,56.84,214.16Z"/><g class="cls-7"><path class="cls-8" d="M55.61,219.71c-.55,1.07-1.24,2.24-2,3.49-3,4.61-17.82-7.93-22-11s-2.66-4.47-1.3-8.65C30.31,203.58,41.79,217.64,55.61,219.71Z"/></g><path class="cls-4" d="M109.52,157.7c-26,15.38-42.91,1.74-42.91,1.74-4.15,0-10,6,0,10.43-2.16,12.24-10.44,59.41-15.21,90.27h77.35l-18.18-91.86C114.67,164.76,113.63,158.93,109.52,157.7Z"/><path class="cls-9" d="M65,260.14l-.61-17.61H54.17c-1,6.19-2,12.16-2.81,17.61Z"/><polygon class="cls-9" points="128.71 260.14 125.23 242.53 117.61 242.53 117.01 260.14 128.71 260.14"/><path class="cls-9" d="M56.46,228.64h66l-3.78-19.1h-59C58.63,215.73,57.54,222.19,56.46,228.64Z"/><path class="cls-5" d="M86.2,168.74c13.23-.69,21.91-4.69,26.62-7.82a5,5,0,0,0-3.3-3.22c-26,15.38-42.91,1.74-42.91,1.74a5.67,5.67,0,0,0-2.33.55C67.09,163.54,73.66,169.39,86.2,168.74Z"/><path class="cls-5" d="M92.22,172s-12.73-.08-19.35-.93a43.16,43.16,0,0,1-6.75-1.38l.45.22-.34,2C77.59,174.94,92.22,172,92.22,172Z"/><path class="cls-2" d="M147.44,99.58c0,37.19-27.6,67.34-61.65,67.34S24.14,136.77,24.14,99.58V78.39s43.75-4.54,64.73-25.53c4,6.88-4.74,19.68-4.74,19.68s31.06-6,32.49-25.92c4.76,17.36,5.92,15.65,12.09,19.44,0,0-2.73-6.68,0-9.4C149.34,72.31,147.44,99.58,147.44,99.58Z"/><path class="cls-3" d="M82,104.55c-1.58,3.57-2.23,7.4-3.37,11.1s-4.3,7.91-2.85,12c1.3,3.7,5.19,5.07,8.86,5.27,9.91.55,14.4-3.46,11.65-13.23C95.07,115.45,88.11,90.7,82,104.55Z"/><path class="cls-2" d="M82.91,103.36c-1.33,3.21-1.9,6.65-2.88,10s-3.61,7.12-2.46,10.79c1.05,3.3,4.24,4.49,7.26,4.64,8.16.4,11.9-3.23,9.72-12C93.6,113,88.09,90.91,82.91,103.36Z"/><path class="cls-10" d="M84.31,127.85c.11.52,1.2.74,2.45.49s2.18-.85,2.07-1.36-1.2-.74-2.45-.49S84.21,127.34,84.31,127.85Z"/><path class="cls-11" d="M74.18,140.46H101.6s1.51,18.12-13,19.67C77.19,161,74.33,147.53,74.18,140.46Z"/><path class="cls-12" d="M88.64,160.13a12.78,12.78,0,0,0,9.77-5.77c-2.47-4.6-6.31-7.57-10.62-7.57-4.14,0-7.84,2.73-10.32,7C79.67,157.69,83.17,160.55,88.64,160.13Z"/><path class="cls-1" d="M103.91,88.18s14.51-14,25.53.15c0,0,.47-3.7-4.76-7.25-5.65-3.82-13.86-2.63-18.59,2C102.78,86.41,103.91,88.18,103.91,88.18Z"/><path class="cls-1" d="M41.07,88.18s14.51-14,25.53.15c0,0,.48-3.7-4.76-7.25-5.64-3.82-13.86-2.63-18.58,2C39.94,86.41,41.07,88.18,41.07,88.18Z"/><path class="cls-2" d="M142.19,106.08s10.15-10.21,19.29,0-3.07,29.37-19.29,18.61Z"/><path class="cls-13" d="M148.22,120.2s-.87-11.89,4.26-11.89S159.29,120.2,148.22,120.2Z"/><path class="cls-3" d="M152.48,108.31a3.83,3.83,0,0,1,3.32,2.32c-2.39,2.3-6,6.1-7.59,9.35C148.12,118.38,147.75,108.31,152.48,108.31Z"/><path class="cls-2" d="M29.42,104.18s-10.15-10.2-19.29,0,3.06,29.38,19.29,18.61Z"/><path class="cls-13" d="M23.39,118.3s.87-11.88-4.26-11.88S12.31,118.3,23.39,118.3Z"/><path class="cls-3" d="M19.13,106.42a3.81,3.81,0,0,0-3.32,2.31c2.39,2.3,6,6.1,7.59,9.35C23.49,116.49,23.85,106.42,19.13,106.42Z"/><path class="cls-14" d="M86.54,89.14H19.47V99.51s9.63,1.93,13.86,9.52c3.75,6.73,3.87,20.9,21.59,22.74,23,2.4,17.89-15.19,25.89-17.39,4.3-1.19,4.3-1.16,5.73-1.16s1.42,0,5.73,1.16c8,2.2,2.88,19.79,25.88,17.39,17.72-1.84,17.84-16,21.59-22.74,4.24-7.59,13.87-8.3,13.87-8.3V89.14Z"/><path class="cls-15" d="M137.39,92.45H35.68A64.46,64.46,0,0,0,38,109.75c2.54,8.6,6.22,16.67,16.33,18.57,17,3.18,17.33-12.33,21.44-15.82,3.47-2.94,8.59-3.63,10.76-3.63s7.28.69,10.75,3.63c4.11,3.49,4.48,19,21.45,15.82,10.1-1.9,13.78-10,16.32-18.57A64.46,64.46,0,0,0,137.39,92.45Z"/><path class="cls-16" d="M97.6,92.45,84.44,109a16.54,16.54,0,0,1,2.1-.15c2.17,0,7.28.69,10.75,3.63a11.29,11.29,0,0,1,2.36,3.67l18.83-23.72Z"/><path class="cls-16" d="M126.13,92.45l-23.5,29.61a14.88,14.88,0,0,0,4.1,4.47l27.06-34.08Z"/></g></g></svg>