<?xml version="1.0" standalone="no"?><!DOCTYPE svg PUBLIC "-//W3C//DTD SVG 1.1//EN" "http://www.w3.org/Graphics/SVG/1.1/DTD/svg11.dtd"><svg t="1548743294685" class="icon" style="" viewBox="0 0 1024 1024" version="1.1" xmlns="http://www.w3.org/2000/svg" p-id="5881" xmlns:xlink="http://www.w3.org/1999/xlink" width="200" height="200"><defs><style type="text/css"></style></defs><path d="M997.577 308.92a63.516 63.516 0 0 1-33.43 38.445 63.47 63.47 0 0 1-50.974 1.098 64.305 64.305 0 0 1-13.876-7.946c-45.591-24.444-197.23-92.23-354.001-14.122 0 0 163.621-201.518 410.604-95.959 33.123 10.225 51.768 45.31 41.677 78.484z m-370.63-91.982h-0.121a55.14 55.14 0 0 1-12.9 7.458c-140.823 85.991-122.852 248.39-122.852 248.39C358.2 253.79 549.138 125.255 549.138 125.255a60.492 60.492 0 0 1 59.104-13.875 60.426 60.426 0 0 1 41.681 47.125c3.961 22.249-4.925 44.836-22.976 58.433z m-216.736 56.833c-21.514 156.417 80.614 209.159 80.614 209.159-151.147-53.906-168.379-204.081-168.379-204.081-8.142-23.795 4.55-49.685 28.346-57.826 23.796-8.139 49.685 4.55 57.826 28.349a45.537 45.537 0 0 1 1.415 24.403h0.179v-0.004z m-82.264 128.54c67.166 91.25 147.792 91.982 147.792 91.982-114.848 12.721-174.319-43.325-190.15-61.115a26.464 26.464 0 0 1-7.271-27.258c4.267-14.089 19.146-22.049 33.233-17.782a26.646 26.646 0 0 1 16.396 14.173zM170.312 817.937l30.073-169.982a146.996 146.996 0 0 1-48.78 13.761l5.254-29.896c33.249-3.177 58.675-16.439 76.159-39.602h39.48l-39.785 225.78h-62.401v-0.061zM28.937 631.753c33.317-3.173 58.738-16.438 76.22-39.596h39.485L104.73 817.936H42.45l30.013-169.982a147.023 147.023 0 0 1-48.78 13.761l5.254-29.962z m249.313 97.002l32.339-87.344H289.14l3.54-23.524h79.888l-31.726 79.639h19.926l-31.781 100.667h102.259a898.139 898.139 0 0 0 13.568 21.332H267.13l30.253-90.77H278.25z m461.59-73.834c15.829 17.357 21.267 39.786 16.433 67.23a110.506 110.506 0 0 1-44.61 72.604c-24.329 18.042-54.583 27.081-90.52 27.081-65.162 0-93.771-22.663-85.761-68.084 1.226-6.474 3.547-14.664 7.216-24.329l38.019-7.76a172.209 172.209 0 0 0-9.051 31.53c-5.069 28.551 7.397 42.853 37.349 42.853 35.874 0 58.372-25.846 67.483-77.563 6.473-36.545-5.508-54.768-36.014-54.768-18.262 0-36.172 9.659-53.907 29.349l-31.295-7.95 53.854-154.826h165.45l-21.52 60.326h-134.04l-21.379 61.371c25.42-15.589 50.17-23.287 74.499-23.287 29.529 0.009 52.084 8.739 67.794 26.223zM498.469 819.524a198.896 198.896 0 0 1-33.065-21.332h44.925l-3.241 21.332h-8.619zM309.97 602.852l3.917-49.879h61.233l-3.899 49.879H309.97z m223.463 12.462h-41.135l-7.518 49.636h45.472l-3.292 21.574h-21.153l-11.863 78.237h20.663l-3.304 21.816h-60.199a478.96 478.96 0 0 1-13.875-12.102l13.325-87.956h-6.726l-23.349 72.559c-10.204-9.659-16.813-16.574-16.813-16.574 3.187 9.407 7.705 19.438 12.777 29.268l-4.832 14.865h-54.27l31.907-100.117h-16.509l3.304-21.57h50.358l7.519-49.642h-10.883l-7.271 36.069H374.2l18.029-88.505h41.563l-6.231 31.293h9.536l6.113-40.525h58.429l-6.108 40.525h41.019l-3.117 21.149z m11.427 233.852c111.073 34.102 231.348-9.006 295.458-105.918h-0.37a172.232 172.232 0 0 0 15.984-152.052 172.29 172.29 0 0 0-111.208-104.902 172.11 172.11 0 0 0-99.877-0.611c-32.575 9.719-40.581 10.878-61.85 4.274a81.051 81.051 0 0 1-47.862-39.599c-21.055-39.55-6.056-88.682 33.495-109.734a80.963 80.963 0 0 1 10.392-4.628l-0.12-0.184a297.003 297.003 0 0 1 187.702-3.973c157.439 48.117 246.06 214.754 197.945 372.189-0.056 0.175-0.11 0.352-0.162 0.522-48.575 157.57-215.693 245.922-373.264 197.361a296.788 296.788 0 0 1-170.706-135.567 260.519 260.519 0 0 0 124.443 82.822z" fill="#040000" p-id="5882"></path></svg>