<svg xmlns="http://www.w3.org/2000/svg" viewBox="0 0 167.05 260.12"><defs><style>.cls-1{fill:#f9dab4;}.cls-2{fill:#6dbdc6;}.cls-3{fill:#59aaaa;}.cls-4{fill:#8fc4c6;}.cls-5{opacity:0.62;}.cls-6{fill:#4b8c8a;}.cls-7{fill:#efc4a0;}.cls-8{fill:#2f3233;}.cls-9{fill:#f9f5ed;}.cls-10{fill:#459b9b;}</style></defs><title>资源 127</title><g id="图层_2" data-name="图层 2"><g id="Layer_1" data-name="Layer 1"><path class="cls-1" d="M19.07,260.12h22.1l1.21-5.39-20-3.52S20.76,255.16,19.07,260.12Z"/><path class="cls-2" d="M63,157.94s-12.51-4.77-22.08,25.87-21.35,65.3-21.35,65.3l24,6.53S66,163.22,63,157.94Z"/><path class="cls-3" d="M43.51,255.64S66,163.22,63,157.94c0,0-7.1-2.7-14.69,9.05,1.74,2,5.09,7.82,1.89,20.82-3.67,14.85-14.12,55.31-16.65,65.11Z"/><path class="cls-4" d="M45.34,251.73l-25-6.85s-2-.71-2.33,3.34-1.33,5.64,3.25,7.44c2.08.81,6.7,2.89,11.28,4.46h12C46.12,255.55,46.51,252.19,45.34,251.73Z"/><path class="cls-3" d="M18.06,248.22c.29-4.05,2.33-3.34,2.33-3.34l2,.54a33,33,0,0,0-1.84,9.9C16.86,253.65,17.79,252,18.06,248.22Z"/><path class="cls-3" d="M29.55,247.39l-2.09,10.8c-1.4-.56-2.69-1.1-3.78-1.55l2.6-10.15Z"/><path class="cls-3" d="M32.36,260l.23.08h3.95l1.88-10.29-3.83-1.05Z"/><path class="cls-3" d="M45.34,251.73l-3.4-.93c-.11,2.35-.32,6.25-.67,9.32h3.28C46.12,255.55,46.51,252.19,45.34,251.73Z"/><g class="cls-5"><path class="cls-6" d="M18.06,248.22c-.29,4-1.33,5.64,3.25,7.44,2.08.81,6.7,2.89,11.28,4.46h12c.39-1.14.71-2.2,1-3.15C32.09,258.21,18.06,248.22,18.06,248.22Z"/></g><path class="cls-1" d="M151,260.12h-22.1l-1.21-5.39,20-3.52S149.27,255.16,151,260.12Z"/><path class="cls-2" d="M107,157.94s12.51-4.77,22.08,25.87,21.35,65.3,21.35,65.3l-24,6.53S104.07,163.22,107,157.94Z"/><path class="cls-3" d="M126.52,255.64s-22.45-92.42-19.48-97.7c0,0,7.1-2.7,14.69,9.05-1.75,2-5.09,7.82-1.89,20.82,3.67,14.85,14.12,55.31,16.65,65.11Z"/><path class="cls-4" d="M124.69,251.73l24.95-6.85s2-.71,2.33,3.34,1.33,5.64-3.25,7.44c-2.08.81-6.7,2.89-11.28,4.46h-12C123.91,255.55,123.52,252.19,124.69,251.73Z"/><path class="cls-3" d="M152,248.22c-.29-4.05-2.33-3.34-2.33-3.34l-2,.54a33,33,0,0,1,1.84,9.9C153.16,253.65,152.24,252,152,248.22Z"/><path class="cls-3" d="M140.48,247.39l2.09,10.8c1.4-.56,2.69-1.1,3.78-1.55l-2.6-10.15Z"/><path class="cls-3" d="M137.67,260l-.23.08h-3.95l-1.88-10.29,3.83-1.05Z"/><path class="cls-3" d="M124.69,251.73l3.4-.93c.11,2.35.32,6.25.67,9.32h-3.28C123.91,255.55,123.52,252.19,124.69,251.73Z"/><g class="cls-5"><path class="cls-6" d="M152,248.22c.29,4,1.33,5.64-3.25,7.44-2.08.81-6.7,2.89-11.28,4.46h-12c-.39-1.14-.71-2.2-1-3.15C137.93,258.21,152,248.22,152,248.22Z"/></g><path class="cls-2" d="M42.87,260.12h87.32c-4.77-35.75-16.65-94.44-23.64-104.63-21.36,5-43.6-1.09-43.6-1.09S45.17,199.67,42.87,260.12Z"/><path class="cls-7" d="M57.9,157.2s11.4,16.85,29.74,15.6,24.12-18.09,24.12-18.09Z"/><ellipse class="cls-8" cx="86.94" cy="79.61" rx="80.11" ry="79.61"/><path class="cls-1" d="M24.63,135.17c0,11.85,32.87,30.53,58,30.53,18,0,60.6-13.41,60.6-30.08V65.88l-118.63.23Z"/><path class="cls-8" d="M104.6,87.3s15.71-14.76,27.65.16c0,0,.51-3.89-5.16-7.62-6.11-4-15-2.77-20.13,2.15C103.38,85.44,104.6,87.3,104.6,87.3Z"/><path class="cls-8" d="M36.56,87.3s15.71-14.76,27.64.16c0,0,.52-3.89-5.15-7.62-6.11-4-15-2.77-20.13,2.15C35.33,85.44,36.56,87.3,36.56,87.3Z"/><path class="cls-8" d="M50.83,94.92c-5,0-9.1,3.79-9.1,8.47A8,8,0,0,0,41.9,105a5.21,5.21,0,0,1-.82-.33,4.19,4.19,0,0,1-2.23-3.05.52.52,0,0,0-.62-.39.5.5,0,0,0-.42.58,5.15,5.15,0,0,0,2.76,3.72,6.52,6.52,0,0,0,1.65.58c.11.28.23.56.36.83a7.75,7.75,0,0,1-2.43.43,5.25,5.25,0,0,1-2.25-.48,5.79,5.79,0,0,1-2.21-1.8A.56.56,0,0,0,35,105a.47.47,0,0,0-.12.69,7,7,0,0,0,2.6,2.11,6.46,6.46,0,0,0,2.72.57,9,9,0,0,0,2.94-.53,9.28,9.28,0,0,0,7.74,4c5,0,9.11-3.79,9.11-8.47S55.86,94.92,50.83,94.92Z"/><path class="cls-9" d="M55.49,99.19a2.08,2.08,0,0,1,.39,3,2.46,2.46,0,0,1-3.26-.27,2.08,2.08,0,0,1-.39-3A2.46,2.46,0,0,1,55.49,99.19Z"/><path class="cls-8" d="M118.59,94.92c5,0,9.1,3.79,9.1,8.47a8,8,0,0,1-.18,1.62,5.31,5.31,0,0,0,.83-.33,4.18,4.18,0,0,0,2.22-3.05.54.54,0,0,1,.63-.39.49.49,0,0,1,.41.58,5.14,5.14,0,0,1-2.75,3.72,6.58,6.58,0,0,1-1.66.58,8.58,8.58,0,0,1-.35.83,7.8,7.8,0,0,0,2.43.43,5.28,5.28,0,0,0,2.25-.48,5.86,5.86,0,0,0,2.21-1.8.56.56,0,0,1,.74-.11.48.48,0,0,1,.12.69,7.08,7.08,0,0,1-2.6,2.11,6.46,6.46,0,0,1-2.72.57,9,9,0,0,1-2.94-.53,9.28,9.28,0,0,1-7.74,4c-5,0-9.11-3.79-9.11-8.47S113.56,94.92,118.59,94.92Z"/><path class="cls-9" d="M123.75,99.19a2.09,2.09,0,0,1,.39,3,2.46,2.46,0,0,1-3.26-.27,2.07,2.07,0,0,1-.39-3A2.46,2.46,0,0,1,123.75,99.19Z"/><path class="cls-7" d="M89.71,114.66a5.39,5.39,0,0,1,1,3.06c0,3.62-3.71,6.56-8.28,6.56s-8.27-2.94-8.27-6.56a5.46,5.46,0,0,1,1-3.06,7,7,0,0,0-2.6,5.29c0,4.34,4.44,7.86,9.91,7.86s9.92-3.52,9.92-7.86A7,7,0,0,0,89.71,114.66Z"/><path class="cls-7" d="M86,150.32c-17,0-28.8-11.39-28.88-11.44h0a.83.83,0,0,1,0-1.2h0a.9.9,0,0,1,1.24,0h0a25.14,25.14,0,0,0,2,1.69h0a47.16,47.16,0,0,0,5.74,3.78h0A41.05,41.05,0,0,0,86,148.62h0c7.58,0,16.19-2.4,25.22-9.57h0a.89.89,0,0,1,1.23.12h0a.83.83,0,0,1-.12,1.19h0c-9.3,7.39-18.35,10-26.31,10h0Z"/><path class="cls-3" d="M149.27,88.73s17.55-2.11,17.55,12.87v29c0,5.85-12.28,11.58-16.61,7.25C150.21,117.27,149.27,88.73,149.27,88.73Z"/><path class="cls-10" d="M162.84,92.06v44.46c2.31-1.63,4-3.76,4-5.91v-29C166.82,97,165.15,94,162.84,92.06Z"/><path class="cls-2" d="M141.08,92.94v45.34c0,6.3,12.17,9.11,12.17-7.59V94.81C153.25,86.86,141.08,79.84,141.08,92.94Z"/><path class="cls-3" d="M17.55,88.73S0,86.62,0,101.6v29c0,5.85,12.28,11.58,16.61,7.25C16.61,117.27,17.55,88.73,17.55,88.73Z"/><path class="cls-10" d="M4,92.06v44.46c-2.32-1.63-4-3.76-4-5.91v-29C0,97,1.67,94,4,92.06Z"/><path class="cls-2" d="M25.74,92.94v45.34c0,6.3-12.17,9.11-12.17-7.59V94.81C13.57,86.86,25.74,79.84,25.74,92.94Z"/></g></g></svg>