<?xml version="1.0" standalone="no"?><!DOCTYPE svg PUBLIC "-//W3C//DTD SVG 1.1//EN" "http://www.w3.org/Graphics/SVG/1.1/DTD/svg11.dtd"><svg t="1548738933180" class="icon" style="" viewBox="0 0 1024 1024" version="1.1" xmlns="http://www.w3.org/2000/svg" p-id="7971" xmlns:xlink="http://www.w3.org/1999/xlink" width="200" height="200"><defs><style type="text/css"></style></defs><path d="M411.4 209.7c1-0.3 1-0.3 2-0.5 114.6-31.9 193.1-53.6 218-60.1 40.2-10.5 68.8 5.6 68.8 34.9v77l47.9 3.1V184c0-68.6-66.2-97.6-128.9-81.2S173.1 226.5 173.1 226.5l144.3 9.4c32.1-9 63.7-17.8 94-26.2z m0 0c1-0.3 1-0.3 2-0.5 114.6-31.9 193.1-53.6 218-60.1 40.2-10.5 68.8 5.6 68.8 34.9v77l47.9 3.1V184c0-68.6-66.2-97.6-128.9-81.2S173.1 226.5 173.1 226.5l144.3 9.4c32.1-9 63.7-17.8 94-26.2z" p-id="7972"></path><path d="M826.3 414.2v-60.9c0-46.3-33.5-82.4-72.9-82.4H198.3c-39.4 0-72.9 36.1-72.9 82.4v476.3c0 46.3 33.5 82.4 72.9 82.4h555.1c39.4 0 72.9-36.1 72.9-82.4V686.8h47.9v142.8c0 72-54.1 130.3-120.8 130.3H198.3c-66.7 0-120.8-58.3-120.8-130.3V353.2c0-72 54.1-130.3 120.8-130.3h555.1c66.7 0 120.8 58.5 120.8 130.4v60.9h-47.9z m0 0v-60.9c0-46.3-33.5-82.4-72.9-82.4H198.3c-39.4 0-72.9 36.1-72.9 82.4v476.3c0 46.3 33.5 82.4 72.9 82.4h555.1c39.4 0 72.9-36.1 72.9-82.4V686.8h47.9v142.8c0 72-54.1 130.3-120.8 130.3H198.3c-66.7 0-120.8-58.3-120.8-130.3V353.2c0-72 54.1-130.3 120.8-130.3h555.1c66.7 0 120.8 58.5 120.8 130.4v60.9h-47.9z" p-id="7973"></path><path d="M595.5 476.4v136.1c0 16.1 13 29.1 29.1 29.1h244.3c16.1 0 29.1-13 29.1-29.1V476.4c0-16.1-13-29.1-29.1-29.1H624.6c-16.1 0.1-29.1 13.1-29.1 29.1z m-48 0c0-42.5 34.5-77 77-77h244.3c42.5 0 77 34.4 77 77v136.1c0 42.5-34.5 77-77 77H624.6c-42.5 0-77-34.4-77-77V476.4z" p-id="7974"></path><path d="M669 555.3a30.2 30.2 0 1 0 60.4 0 30.2 30.2 0 1 0-60.4 0Z" p-id="7975"></path></svg>