<?xml version="1.0" standalone="no"?><!DOCTYPE svg PUBLIC "-//W3C//DTD SVG 1.1//EN" "http://www.w3.org/Graphics/SVG/1.1/DTD/svg11.dtd"><svg t="1549018551125" class="icon" style="" viewBox="0 0 1077 1024" version="1.1" xmlns="http://www.w3.org/2000/svg" p-id="5988" xmlns:xlink="http://www.w3.org/1999/xlink" width="210.3515625" height="200"><defs><style type="text/css"></style></defs><path d="M1076.434763 308.361938c0-24.791468-20.0757-44.867168-44.84022-44.867167H44.84022C20.0757 263.494771 0 283.57047 0 308.361938v668.291747c0 24.764521 20.0757 44.84022 44.84022 44.840221h986.754323c24.764521 0 44.84022-20.0757 44.84022-44.840221v-170.441342H793.865922v-0.026948h-2.236621a163.704531 163.704531 0 0 1 0-327.409061l2.236621 0.026947h282.568841v-170.441343z m-381.249663 334.145874a96.4442 96.4442 0 1 0 192.888401 0 96.4442 96.4442 0 0 0-192.888401 0zM968.780508 221.753484L913.107494 26.870987a37.079413 37.079413 0 0 0-45.810321-25.411255L89.842124 221.753484H968.753561z" p-id="5989"></path></svg>