<svg xmlns="http://www.w3.org/2000/svg" viewBox="0 0 210.33 260.7"><defs><style>.cls-1{fill:#e2963b;}.cls-2{fill:#f4a556;}.cls-3{fill:#ad281e;}.cls-4{fill:#2d2723;}.cls-5{fill:#f4d3b0;}.cls-6{fill:#b83e26;}.cls-7{fill:#f9dab4;}.cls-8{fill:#6dbdc6;}.cls-9{fill:#f9f5ed;}.cls-10{fill:#393c3d;}.cls-11{fill:#efc4a0;}</style></defs><title>资源 162</title><g id="图层_2" data-name="图层 2"><g id="Layer_1" data-name="Layer 1"><path class="cls-1" d="M138.58,188.29c-8.06-15.73-22.05-9.42-22.05-9.42l8.33,74.37a17.26,17.26,0,0,0,1.24,7.46h36.33C158.43,243.51,145.22,201.25,138.58,188.29Z"/><path class="cls-1" d="M49.59,188.29c-6.64,13-19.86,55.22-23.86,72.41H62.06a17.18,17.18,0,0,0,1.25-7.46l8.32-74.37S57.65,172.56,49.59,188.29Z"/><path class="cls-2" d="M95.24,172.56H62.45s-14.54,72.21-13.57,81.08a18.12,18.12,0,0,0,1.73,7.06h86.94a18.13,18.13,0,0,0,1.74-7.06c1-8.87-13.57-81.08-13.57-81.08Z"/><path class="cls-3" d="M112.39,175s22.19,2.82,26.63,16.14,12.1,68.58,39.13,69,35.5-33.89,31.06-37.52-11.7,1.21-12.51-.4,11.3-8.47,11.3-13.31,2.42-9.69-.4-10.49-11.3,10.08-19.37,7.66-35.77-40.47-54.59-37.38S112.39,175,112.39,175Z"/><path class="cls-4" d="M179.15,105.32c7-5.63,10.6-13.92,8.34-21.66-1.94-6.65-7.71-11.33-15-13.13,8-5.61,12.19-14.51,9.78-22.77-2.18-7.47-9.19-12.48-17.75-13.67a17,17,0,0,0-.44-7.5c-3.2-11-16.87-16.68-30.53-12.69-.7.2-1.38.44-2.06.69,0,0,0-.07,0-.11C128.29,3.49,114.62-2.19,101,1.79A32.4,32.4,0,0,0,95.48,4c-6.86-4.21-17.32-5.31-28-2.19C57.1,4.81,49,11.06,45.34,18c-8.29-.94-18.63,4.22-26.05,13.87-7.6,9.88-9.86,21.52-6.48,29.3C5.45,63.94,0,73.81,0,85.6c0,10,4,18.67,9.67,22.72a16.92,16.92,0,0,0,16.86,28.8,16.23,16.23,0,0,0-.31,3.14,15.81,15.81,0,0,0,31.56,1.3l32.07-13.38,40.21,8.94a27.52,27.52,0,0,0,9.54,14.61c10.38,8.42,24.3,8.47,31.08.12a17.54,17.54,0,0,0,3.33-14.2c8.83-5.53,13.59-14.91,11.06-23.59A17.55,17.55,0,0,0,179.15,105.32Z"/><path class="cls-5" d="M46.55,110.61s-7.27-8.92-15.35-4.77,3.11,31.25,19.08,33.46Z"/><path class="cls-5" d="M141.63,110.61s7.25-8.92,15.34-4.77-3.1,31.25-19.08,33.46Z"/><path class="cls-6" d="M128.07,165.45s5.44-2,8.27-4.39-2.22-19.16-2.22-19.16l-38.73-.7v0l-1.31,0-1.31,0v0l-38.72.7s-5,16.74-2.22,19.16,8.27,4.39,8.27,4.39-9.28,3.07-9.28,5.9,7.12,8.06,7.12,8.06A200,200,0,0,0,86.73,183a69.49,69.49,0,0,0,7.35,0,69.68,69.68,0,0,0,7.36,0,200,200,0,0,0,28.79-3.63s7.12-5.24,7.12-8.06S128.07,165.45,128.07,165.45Z"/><path class="cls-7" d="M144,76.55H44.69L38.43,91.91S37.1,122,51.62,141.59c12.74,17.17,27.2,23,39.93,24.45a21.67,21.67,0,0,0,6.16,0c12.74-1.48,27.19-7.28,39.94-24.45,14.52-19.57,11.94-49.68,11.94-49.68Z"/><path class="cls-8" d="M144.9,97.8H43.28s-.92,28.79.91,32.2,35.56,12.77,49.9-6.1c14.33,18.87,48.07,9.51,49.89,6.1S144.9,97.8,144.9,97.8Z"/><path class="cls-9" d="M63.39,97.8,51,133.22a58.9,58.9,0,0,0,15.44,2.13L79.57,97.8Z"/><path class="cls-9" d="M121.71,97.8l-12.55,35.94a47.6,47.6,0,0,0,15.65,1.5L137.89,97.8Z"/><path class="cls-10" d="M121.53,137.91h0c-8.37,0-19.56-1.8-27.44-9.92-7.88,8.12-19.08,9.92-27.45,9.92-10.94,0-23-3.28-24.9-6.76s-1.49-24.58-1.21-33.42l.08-2.49h107l.08,2.49c.28,8.84.72,29.82-1.21,33.42S132.47,137.91,121.53,137.91ZM94.09,119.47l2.23,3c6.52,8.57,17.3,10.37,25.21,10.37,9.92,0,18.38-2.81,20.06-4.09.82-2.52,1-15.81.64-28.34H45.94c-.32,12.49-.17,25.71.65,28.35,1.7,1.28,10.15,4.08,20,4.08,7.9,0,18.69-1.8,25.21-10.37Z"/><path class="cls-4" d="M143.3,64.52a19.77,19.77,0,0,0-12.22,4.22,19.5,19.5,0,0,0-35.52-6.53,18.93,18.93,0,0,0-35,9.42,20.17,20.17,0,1,0,4.8,13.17,18.92,18.92,0,0,0,29.89-2.08,19.46,19.46,0,0,0,28.59,5.52A19.87,19.87,0,1,0,143.3,64.52Z"/><path class="cls-11" d="M78.05,154.71a49.5,49.5,0,0,1,19.6-4.15,24.27,24.27,0,0,1,6.72.82c-4.45.74-8.72,1.42-13.08,2.06A110.56,110.56,0,0,1,78.05,154.71Z"/></g></g></svg>