<svg xmlns="http://www.w3.org/2000/svg" viewBox="0 0 175.09 291.38"><defs><style>.cls-1{fill:#f9dab4;}.cls-2{fill:#efc4a0;}.cls-3{fill:#ba443e;}.cls-4{fill:#4c3626;}.cls-5{fill:#273245;}.cls-6{fill:#3d2b1f;}.cls-7{fill:#f4d3b0;}.cls-8{fill:#3a332d;}.cls-9{fill:#a87a54;}.cls-10{fill:#c65044;}</style></defs><title>资源 333</title><g id="图层_2" data-name="图层 2"><g id="Layer_1" data-name="Layer 1"><path class="cls-1" d="M31.79,201.52c-5,12.8-17.58,57.46-22.58,89.86h28l17.23-95.85S39.5,181.9,31.79,201.52Z"/><polygon class="cls-2" points="39.91 226.96 31.79 291.38 24.38 291.38 39.91 226.96"/><path class="cls-1" d="M127.84,201.5c-7.6-19.67-22.64-6.13-22.64-6.13l16.68,96h28C145.08,259,132.8,214.32,127.84,201.5Z"/><polygon class="cls-2" points="118.94 226.96 127.06 291.38 134.46 291.38 118.94 226.96"/><path class="cls-1" d="M79.46,182.5l-1.11,0v.06C63.43,183,48.9,185,48.9,185S34,249.45,29,291.38H129.91C124.94,249.45,110,185,110,185s-14.52-2-29.43-2.51v-.06Z"/><path class="cls-3" d="M79.26,264.2c14.36-.37,36.38,2,44.83-10.57C118,220.19,110,185,110,185s-14.52-2-29.43-2.51v-.06l-1.11,0-1.11,0v.06C63.43,183,48.9,185,48.9,185s-8.21,35.44-14.48,70.86C48.5,264.68,63.3,264.61,79.26,264.2Z"/><path class="cls-2" d="M101.56,193.94c0,4.93,0,33-22.1,33s-22.11-28.09-22.11-33,9.9-8.9,22.11-8.9S101.56,189,101.56,193.94Z"/><path class="cls-4" d="M129.11,42.25s6.15,4.92,13,4.38c9.3-.73,23.12-8.4,33-21.05l-16.91,5.14,9.19-15.38L149.6,25.4l5.28-15.7-13.95,7.85L144.45,0S112.9,20.71,129.11,42.25Z"/><path class="cls-5" d="M126.63,36.49c3.66.75,12.24,8.43,12.86,11.16s-.62,4.54-3.71,4.28-11.87-8.85-12.86-11.15S123,35.74,126.63,36.49Z"/><path class="cls-4" d="M9.58,149.45S-8.87,118.93,5.44,76,95,19.84,127.43,42.44s41.11,66.7,20.77,101.73S9.58,149.45,9.58,149.45Z"/><polygon class="cls-6" points="14.1 138.71 15.42 100 22.39 139.84 14.1 138.71"/><path class="cls-6" d="M122.59,39.49c-5.92,2.91-15.07,13.72-14,35.72.72,15.15,7.63,18.59,19.06,28.33,5.08,4.34,14.77,14.91,18.49,3.7,2.37-7.18,3.48-34.59-8-55.66C133.79,45.49,123.43,40,122.59,39.49Z"/><path class="cls-7" d="M23.1,142.33s-8.37-10.64-17.7-5.69,3.6,37.3,22,39.93Z"/><path class="cls-7" d="M135.81,142.33s8.37-10.64,17.7-5.69-3.58,37.3-22,39.93Z"/><path class="cls-1" d="M108.57,75.21c-.43-1.79-.76-3.64-1-5.52l-7.26-2.36-81,12.81v79.07A31.17,31.17,0,0,0,31,183.66s18.8,14,48.51,13.48S128,183.66,128,183.66a31.14,31.14,0,0,0,11.64-24.45V107.07C124,74.42,110.24,75,108.57,75.21Z"/><path class="cls-8" d="M119.49,144.13h0a1.54,1.54,0,0,1-1.53-1.55c0-.35-.08-8.81-7-9.05-7.18-.24-8.89,6.84-8.95,7.15a1.54,1.54,0,1,1-3-.69c.78-3.41,4.29-9.79,12-9.53,7.93.27,10,8.06,10,12.14A1.53,1.53,0,0,1,119.49,144.13Z"/><path class="cls-8" d="M122.12,144.06a10.61,10.61,0,0,1-3.05-.35,1.52,1.52,0,0,1-1-1.9,1.55,1.55,0,0,1,1.89-1.05c.07,0,3.17.82,7.8-.78a1.53,1.53,0,1,1,1,2.9A20,20,0,0,1,122.12,144.06Z"/><path class="cls-8" d="M119.3,140.86h-.11a1.54,1.54,0,0,1,0-3.07h.09c2.81,0,6.68-2.67,7.94-3.7a1.54,1.54,0,1,1,2,2.37C129,136.64,123.8,140.86,119.3,140.86Z"/><path class="cls-8" d="M39.41,144.13h0a1.54,1.54,0,0,0,1.52-1.55c0-.35.08-8.81,7-9.05,7.17-.24,8.88,6.84,8.95,7.15a1.54,1.54,0,0,0,1.83,1.16A1.56,1.56,0,0,0,59.89,140c-.78-3.41-4.29-9.79-12-9.53-7.93.27-10,8.06-10,12.14A1.53,1.53,0,0,0,39.41,144.13Z"/><path class="cls-8" d="M36.78,144.06a10.8,10.8,0,0,0,3.06-.35,1.53,1.53,0,0,0-.84-3c-.08,0-3.18.82-7.81-.78a1.54,1.54,0,0,0-1,2.9A20.11,20.11,0,0,0,36.78,144.06Z"/><path class="cls-8" d="M39.61,140.86h.11a1.54,1.54,0,0,0,0-3.07h-.1c-2.81,0-6.68-2.67-7.94-3.7a1.52,1.52,0,0,0-2.15.21,1.54,1.54,0,0,0,.2,2.16C29.93,136.64,35.1,140.86,39.61,140.86Z"/><path class="cls-4" d="M130.15,120.51s-17.11-3.3-31.57-.86l.52-2.92c.63-3.58,5.28-6.35,14.63-6.92s14.94,2.27,15.66,6.4Z"/><path class="cls-9" d="M28.76,120.51s17.12-3.3,31.57-.86l-.52-2.92c-.63-3.58-5.28-6.35-14.63-6.92s-14.94,2.27-15.66,6.4Z"/><path class="cls-10" d="M63.32,173.22s3.69-4.73,7.95-4.52a9,9,0,0,1,6.57,3.72s3.83-3.63,8.31-3.56,6.43,4.74,6.43,4.74a17.35,17.35,0,0,1-15.06,8.87A15.41,15.41,0,0,1,63.32,173.22Z"/><path class="cls-2" d="M68.76,154.57s.92-8.21,8.84-8.26,9.54,8.26,9.54,8.26-4.33-5.06-9.39-5.06S68.76,154.57,68.76,154.57Z"/><path class="cls-4" d="M108.56,71.59c-1.06-5.29,0-10.79.24-16.59-38.91-4.27-95.89,4.41-98,31.54l8.2,52.1s8.75-2,16.28-18.95L23.08,146.06S93,123.46,108.4,75.24l.25,0C108.56,74,108.55,72.8,108.56,71.59Z"/></g></g></svg>