<svg xmlns="http://www.w3.org/2000/svg" viewBox="0 0 199.22 260.02"><defs><style>.cls-1{fill:#f2d0af;}.cls-2{fill:#ad3936;}.cls-3{fill:#6b4627;}.cls-4{fill:#4c3626;}.cls-5{fill:#7f5732;}.cls-6{fill:#ba443e;}.cls-7{fill:#ddb58e;}.cls-8{fill:#8e633f;}.cls-9{fill:#f4d3b0;}.cls-10{fill:#3a332d;}.cls-11{fill:#e8dfd9;}</style></defs><title>资源 269</title><g id="图层_2" data-name="图层 2"><g id="Layer_1" data-name="Layer 1"><path class="cls-1" d="M17,260h20c3.37-31.39,7.71-68.41,7.71-68.41L26,185.93S20.44,227.18,17,260Z"/><path class="cls-2" d="M45.41,155.53s-6.86-2.47-13.86,11.25S15.93,200.7,15.93,200.7s8.48,10.28,23.61,5.69Z"/><path class="cls-3" d="M179.9,211.25s8.24-4.95,13.75,0,13.22,40.31-12.12,38.06Z"/><path class="cls-4" d="M180.35,221.72h17.81c-.17-.76-.35-1.5-.55-2.21H180.26Z"/><path class="cls-5" d="M130.36,143.23c-28.56,0-51.72,29.59-51.72,66.1,0,22,17.27,39.95,37.24,50.69h62.19c8.44-11.48,9.78-30.81,6.17-52.45C178.24,171.56,158.93,143.23,130.36,143.23Z"/><path class="cls-4" d="M156.29,160.22l-6.58-.56c.58-6.83-.9-12.06-4.41-15.53-6.37-6.3-17.39-5.33-17.51-5.32l-.62-6.58c.57,0,14.24-1.25,22.78,7.2C154.92,144.35,157.05,151.34,156.29,160.22Z"/><path class="cls-4" d="M157.72,160.24a5.38,5.38,0,1,1-5.36-4.88A5.14,5.14,0,0,1,157.72,160.24Z"/><path class="cls-4" d="M123.4,155.17s-15.59,13.12-14,47.27,12.44,50.67,39,55.63l4.57-8.76S118.72,197.76,135.42,157C135.42,157,132.13,150.86,123.4,155.17Z"/><path class="cls-1" d="M147.79,199.88l-15.55,3.27L148.94,260h15.73C160.15,244.38,147.79,199.88,147.79,199.88Z"/><path class="cls-2" d="M127.42,156s7-2.2,13.43,11.77,14.32,34.48,14.32,34.48-8.85,9.95-23.8,4.79Z"/><path class="cls-6" d="M88.61,147.91H74.43c-16.35,2.36-31.83,5.79-31.83,5.79S24.49,214.54,27.21,260H135.84c2.71-45.48-15.39-106.32-15.39-106.32S105,150.27,88.61,147.91Z"/><path class="cls-4" d="M123.4,155.17s-15.59,13.12-14,47.27,12.44,50.67,39,55.63c0,0-7.09-26.3-13.5-49-4.58-16.22-6.47-35.08.49-52.06C135.42,157,132.13,150.86,123.4,155.17Z"/><polygon class="cls-2" points="62.75 155.36 51.92 181.46 82.39 186.56 62.75 155.36"/><polygon class="cls-2" points="100.2 155.36 111.03 181.46 80.56 186.56 100.2 155.36"/><rect class="cls-2" x="80.44" y="151.31" width="2.2" height="108.7"/><path class="cls-7" d="M56.81,159.94s18.93,26.61,25.58,26.62c7.71,0,24-26.62,24-26.62Z"/><path class="cls-8" d="M153.43,19C144.48,6.26,122.79.86,86.29.1V0c-1.61,0-3.14,0-4.69,0s-3.09,0-4.69,0V.1C40.41.86,18.72,6.26,9.77,19,.08,32.89,2.2,109.24,2.2,109.24l79.4-8.71L161,109.24S163.11,32.89,153.43,19Z"/><path class="cls-9" d="M23,107.56s-9.85-11.39-19.85-3.17c-10.34,8.49,6.61,35.43,22.27,36.38Z"/><path class="cls-9" d="M140.17,107.56S150,96.17,160,104.39c10.34,8.49-6.62,35.43-22.28,36.38Z"/><path class="cls-1" d="M136.4,70.71C125.79,72,118.77,64.29,110.51,65s-13,6.43-22.21,7-16.53-4-18.55-5-34.33.19-36.35,1.11S27,80.26,24.22,85.59c-1.72,3.33-5.47,4.8-8,5.42v25.7c0,26.74,23.27,48.42,52,48.42H95c28.7,0,52-21.68,52-48.42V68.13A45.75,45.75,0,0,1,136.4,70.71Z"/><path class="cls-8" d="M34.16,97.66s14.47-2.79,26.7-.72l-.44-2.47c-.53-3-4.47-5.38-12.38-5.85S35.41,90.53,34.79,94Z"/><path class="cls-10" d="M55.37,110.65a8,8,0,1,1-8-8.05A8,8,0,0,1,55.37,110.65Z"/><path class="cls-11" d="M48.66,105.05c.2,1-1,2-2.68,2.37s-3.2-.17-3.4-1.15,1-2,2.69-2.37S48.47,104.07,48.66,105.05Z"/><path class="cls-8" d="M129,97.66s-14.48-2.79-26.71-.72l.44-2.47c.54-3,4.47-5.38,12.38-5.85S127.79,90.53,128.4,94Z"/><path class="cls-10" d="M123.91,110.65a8,8,0,1,1-8-8.05A8,8,0,0,1,123.91,110.65Z"/><path class="cls-11" d="M117.2,105.05c.2,1-1,2-2.69,2.37s-3.2-.17-3.39-1.15,1-2,2.68-2.37S117,104.07,117.2,105.05Z"/><path class="cls-7" d="M94.78,127.78s-3-9.59-12.64-10.2-13.73,11.74-13.73,11.74,6.07-9.17,13.72-8.32S94.78,127.78,94.78,127.78Z"/><path class="cls-7" d="M56.75,144.7l2.17.06,5.68.14c4.69.08,10.93.16,17.15-.09,1.55-.08,3.1-.12,4.63-.23s3-.17,4.47-.36,2.86-.23,4.18-.45,2.58-.32,3.73-.51,2.21-.39,3.15-.54,1.74-.38,2.41-.52c1.34-.29,2.12-.44,2.12-.44s-.71.33-2,.85A46.86,46.86,0,0,1,99,144.49c-1.14.34-2.4.6-3.73.91s-2.75.51-4.21.75a90.39,90.39,0,0,1-9.26.86c-3.16.08-6.32.09-9.28-.1s-5.7-.44-8-.75-4.28-.71-5.63-1S56.75,144.7,56.75,144.7Z"/></g></g></svg>