<svg xmlns="http://www.w3.org/2000/svg" viewBox="0 0 244.35 283.17"><defs><style>.cls-1{fill:#f9dab4;}.cls-2{fill:#f7cea6;}.cls-3{fill:#eae5dc;}.cls-4{fill:#f9f5ed;}.cls-5{fill:#e2d9d3;}.cls-6{fill:#edefef;}.cls-7{fill:#598fad;}.cls-8{fill:#2e6889;}.cls-9{fill:#366f96;}.cls-10{fill:#59361d;}.cls-11{fill:#6b4627;}.cls-12{fill:#f9f7f2;}.cls-13{fill:#d36c6c;}.cls-14{fill:#c94643;}.cls-15{fill:#717272;}.cls-16{fill:#515151;}</style></defs><title>资源 205</title><g id="图层_2" data-name="图层 2"><g id="Layer_1" data-name="Layer 1"><path class="cls-1" d="M179.69,203.26l.08,0S179.71,203.21,179.69,203.26Z"/><path class="cls-1" d="M199.39,199l-19.62,4.22c1.1,1.11,9.92,41.17,18.38,79.93h21.41A628.23,628.23,0,0,0,199.39,199Z"/><path class="cls-2" d="M208.34,230.28c-2.82-11-5.84-21.58-9-31.26l-19.62,4.22c.79.8,5.57,21.72,11.34,47.82-.22-1.24-1.41-14.24-1.6-20.06,0,0-1.95-17.18,5.56-19.52C202.23,209.25,208,229.11,208.34,230.28Z"/><path class="cls-3" d="M183.54,177.57s11,6.06,22,19.55c-9.75,10.59-25,17.65-25,17.65s-10-19.82-9.22-31.77C171.25,176.75,178.24,173.53,183.54,177.57Z"/><path class="cls-4" d="M189.6,206.8s-3.73,1.31-5.71-5.74-4.61-14.12-.53-16.16a7.64,7.64,0,0,1,7.69.15c3.1,1.78,7.59,6,8.66,9.71a7.31,7.31,0,0,1-2.12,7.61C195.44,204.07,192.66,206.18,189.6,206.8Z"/><path class="cls-1" d="M113.6,211.89s-16.77,34.77-25.75,40.66-29.64,12.09-38.62-19.74H73.34s1.63,8.55,9-1,15.12-27.26,15.12-27.26Z"/><path class="cls-2" d="M97.43,204.52s-7.78,17.68-15.12,27.26-9,1-9,1H65.87c3.88,3.67,7.56,6.4,10.18,6.77a4.46,4.46,0,0,1,2.37,6.57c-2.37,4.86,2.37,3.75,2.37-1.33s-1.57-7.23,2.18-7.23,11.39-4.27,13.75-11.45,3.93-6.74,7.07-6.74,1,9.69-2.21,15h0c6.44-10.92,12-22.47,12-22.47Z"/><path class="cls-2" d="M66.64,254.53c-6.88-2.19-7.85-12.72-7.33-21.72H49.23c9,31.83,29.64,25.64,38.62,19.74a14.47,14.47,0,0,0,2.27-1.91C87.3,253.28,75.48,257.34,66.64,254.53Zm23.73-4.15h0l.3-.31A2.88,2.88,0,0,0,90.37,250.38Z"/><path class="cls-3" d="M114.89,178.11s-11,6.06-22,19.55c9.75,10.59,25,17.65,25,17.65s10-19.82,9.22-31.77C127.19,177.29,120.2,174.07,114.89,178.11Z"/><path class="cls-4" d="M108.83,207.35s3.74,1.3,5.71-5.75,4.61-14.12.53-16.16a7.62,7.62,0,0,0-7.68.16c-3.11,1.77-7.6,6-8.67,9.7a7.32,7.32,0,0,0,2.12,7.61C103,204.61,105.77,206.73,108.83,207.35Z"/><path class="cls-4" d="M124.46,169.15S107.6,233.68,107.6,276h84.66c0-46-20.22-106.64-20.22-106.64Z"/><polygon class="cls-5" points="143 192.14 134.07 200.72 132.15 197.6 143.44 189.64 144.3 191.26 143 192.14"/><polygon class="cls-5" points="155.87 192.14 164.79 200.72 166.72 197.6 155.43 189.64 154.56 191.26 155.87 192.14"/><path class="cls-4" d="M132.76,199l16.72-13.32-25.24-3.3Zm16.72-13.32L165.1,199l5.77-16.62Z"/><polygon class="cls-6" points="153.79 191.16 145.37 191.16 145.21 192.11 137.39 240.64 150.47 262.06 164.3 240.11 153.79 191.16"/><polygon class="cls-7" points="146.25 192.31 152.95 192.31 163.17 239.88 150.48 260.01 138.5 240.39 146.25 192.31"/><polygon class="cls-8" points="163.17 239.88 152.95 192.31 150.07 192.31 150.07 259.34 150.48 260.01 163.17 239.88"/><path class="cls-4" d="M154.6,200a29.21,29.21,0,0,1-2.35,2.75,28.81,28.81,0,0,1-8.67,6.16l-1.12,6.95a34.49,34.49,0,0,0,13.68-8.69Z"/><path class="cls-4" d="M159.69,223.71l-1.59-7.42a29.25,29.25,0,0,1-4.2,5,32.24,32.24,0,0,1-13.54,7.62l-1.06,6.55a38.11,38.11,0,0,0,18.72-10C158.63,224.87,159.18,224.28,159.69,223.71Z"/><path class="cls-4" d="M161.87,233.87c-2.38,3.08-8.36,9.3-19.8,12.37l3.29,5.38A44.27,44.27,0,0,0,161.2,243l2-3.13Z"/><path class="cls-9" d="M144,186.58h11.58c.43,0,.18,6.37,0,7-.75,3.4-4.11,3.33-6.56,3.29-1.7,0-3.85-.2-4.85-2C142.92,192.61,143.89,189.07,144,186.58Z"/><path class="cls-1" d="M79,130v22.8c0,6.78,5.33,17.1,37.56,28.77s46.61,6.78,67.92-3.8,33.3-13.57,33.3-29.59V61.34L186.06,38.13H112.19L78.75,61.34Z"/><path class="cls-10" d="M98.76,99.6s19,1.43,32.59,5.5c0,0,2.37-10.18-6.91-13.84S104.49,93.7,98.76,99.6Z"/><path class="cls-10" d="M200.15,99.6s-19,1.43-32.59,5.5c0,0-2.37-10.18,6.92-13.84S194.43,93.7,200.15,99.6Z"/><path class="cls-11" d="M123.05,119.75a11.26,11.26,0,1,1-11.25-11.6A11.44,11.44,0,0,1,123.05,119.75Z"/><path class="cls-4" d="M118.51,114.06c-.43,1.45-2.64,2-4.94,1.3s-3.79-2.5-3.36-4,2.65-2,4.94-1.3S119,112.61,118.51,114.06Z"/><path class="cls-11" d="M197.51,119.75a11.26,11.26,0,1,1-11.26-11.6A11.44,11.44,0,0,1,197.51,119.75Z"/><path class="cls-4" d="M193,114.06c-.43,1.45-2.64,2-4.94,1.3s-3.79-2.5-3.36-4,2.65-2,4.94-1.3S193.41,112.61,193,114.06Z"/><path class="cls-10" d="M59.72,121.88s11.2-5.79,16.5,2.31c3.28,4.46,7,19.73,9.64,29.42,1-22.51-2.37-53.19-2.37-53.19l49-39.08-3.16,7.87L144.05,54,138,67l17.64-16-2.37,10.32,5.79-9.5,3.95,9.5,1.32-8.42L211.21,95.8l-1.32,51.84s5-16.95,11.17-24.69c3.83-4.81,12-4.93,14.16-1.59,2.85-35.6,4.69-45.64-5.84-52.15,0-15.47-14.75-23.61-38.45-41.8C173.55,14.38,161.7,4.89,159.59,0c0,0-1.18,6.11-.26,9.91,0,0-4.21-6.52-4.87-9.77,0,0-2.9,5.56-1.72,9.36,0,0-5-3.53-6.45-7.87,0,0-5.7,5.73-3.13,8.38-14.42,3.25-57,24.86-68.1,31.17S58.47,54.82,58.47,68.12c-10.27,13-10.53,11.67-7.11,25.78S59.72,121.88,59.72,121.88Z"/><path class="cls-2" d="M142.13,113.37c-2,4.4-2.85,9.11-4.3,13.66s-5.5,9.72-3.65,14.78c1.67,4.55,6.64,6.24,11.32,6.49,12.67.67,18.41-4.27,14.89-16.28C158.86,126.79,150,96.34,142.13,113.37Z"/><path class="cls-1" d="M143.33,111.92c-1.71,4-2.44,8.18-3.68,12.27s-4.63,8.75-3.15,13.26c1.34,4.06,5.41,5.53,9.27,5.72,10.43.49,15.22-4,12.43-14.7C157,123.79,149.94,96.6,143.33,111.92Z"/><path class="cls-12" d="M145.11,142c.14.63,1.54.9,3.14.6s2.78-1,2.64-1.68-1.53-.9-3.13-.6S145,141.41,145.11,142Z"/><path class="cls-13" d="M122.14,151.71h53.32s-.39,19.95-21.92,22.6S122.14,157.41,122.14,151.71Z"/><path class="cls-14" d="M148.8,157.56c-8.1,0-14.89,4.6-16.63,10.78a27.39,27.39,0,0,0,21.37,6,26.21,26.21,0,0,0,12.22-4.45C164.78,162.94,157.56,157.56,148.8,157.56Z"/><path class="cls-1" d="M79.56,132s-3.58-17.28-17.31-13S49.72,140.2,54.64,147.9s21.63,18.75,25.91,3.63C80.39,142,79.56,132,79.56,132Z"/><path class="cls-2" d="M62.25,119.07c13.73-4.31,17.31,13,17.31,13s0,.12,0,.33c0,0-6-14.42-18.43-11s-6.75,26-1.1,29.37,14.67,9,20.49.8c-4.28,15.12-21,4.07-25.91-3.63S48.53,123.37,62.25,119.07Z"/><path class="cls-2" d="M73.28,137.81a16.75,16.75,0,0,0-1.71-6.49,1.59,1.59,0,0,0-.13-.22,8.79,8.79,0,0,0-4.25-4,6.43,6.43,0,0,0-2.21-.54,1.21,1.21,0,0,0-1.15,1.16,1,1,0,0,0,1,1.19h.07a5.25,5.25,0,0,1,1.45.39,6.68,6.68,0,0,1,2.4,1.81,13.24,13.24,0,0,0-2.24.86,12.72,12.72,0,0,0-6.35,6.82,6.93,6.93,0,0,0-.27.73,1.14,1.14,0,0,0,.55,1.43l.07,0a1.11,1.11,0,0,0,1.36-.8c.06-.19.14-.38.21-.57a10.32,10.32,0,0,1,5.16-5.5,12.58,12.58,0,0,1,2.43-.87l.34-.08a15.71,15.71,0,0,1,1.2,5.06,1.06,1.06,0,0,0,.62.91,1,1,0,0,0,.54.06A1.26,1.26,0,0,0,73.28,137.81Z"/><path class="cls-1" d="M216,132s3.58-17.28,17.31-13S245.87,140.2,241,147.9s-21.63,18.75-25.91,3.63C215.2,142,216,132,216,132Z"/><path class="cls-2" d="M233.34,119.07C219.61,114.76,216,132,216,132s0,.12,0,.33c0,0,6-14.42,18.43-11s6.75,26,1.1,29.37-14.67,9-20.49.8c4.28,15.12,21,4.07,25.91-3.63S247.06,123.37,233.34,119.07Z"/><path class="cls-2" d="M222.3,137.81a16.92,16.92,0,0,1,1.72-6.49l.12-.22a8.88,8.88,0,0,1,4.25-4,6.5,6.5,0,0,1,2.22-.54,1.21,1.21,0,0,1,1.15,1.16,1,1,0,0,1-1,1.19h-.07a5.25,5.25,0,0,0-1.45.39,6.68,6.68,0,0,0-2.4,1.81,13.24,13.24,0,0,1,2.24.86,12.72,12.72,0,0,1,6.35,6.82,6.93,6.93,0,0,1,.27.73,1.14,1.14,0,0,1-.55,1.43l-.07,0a1.11,1.11,0,0,1-1.36-.8l-.21-.57a10.32,10.32,0,0,0-5.16-5.5,12.58,12.58,0,0,0-2.43-.87l-.34-.08a15.71,15.71,0,0,0-1.2,5.06,1.06,1.06,0,0,1-.62.91,1,1,0,0,1-.54.06A1.28,1.28,0,0,1,222.3,137.81Z"/><rect class="cls-15" x="106.38" y="274.73" width="87.47" height="8.44"/><rect class="cls-16" x="141.4" y="272.87" width="17.43" height="10.3"/><path class="cls-2" d="M144.53,181.32a.83.83,0,0,1,.15-1.14h0a12.38,12.38,0,0,1,6.84-2.46h0a7.83,7.83,0,0,1,5.79,2.53h0a.83.83,0,0,1,0,1.15h0a.77.77,0,0,1-1.12,0h0a6.25,6.25,0,0,0-4.67-2.05h0a10.58,10.58,0,0,0-5.42,1.8h0c-.31.2-.46.32-.46.32h0a.72.72,0,0,1-.48.17h0a.79.79,0,0,1-.63-.32Z"/><path class="cls-15" d="M10.6,179.11s5-32.62,6.64-38.11,9.15-13,23.9-1.27,41.21,34.52,52.36,44.5,5.37,29.15.72,44.58-19,9.76-40.47-7.67S9.55,185.86,10.6,179.11Z"/><path class="cls-16" d="M79.59,237.11c7.23,2,12.22-.33,14.63-8.3,4.65-15.43,10.43-34.6-.72-44.58s-37.62-32.76-52.36-44.5S18.9,135.5,17.24,141c-.57,1.9-1.55,7.08-2.58,13,2.16-7.17,2.87-14.4,8.81-17.53s34.93,24.24,46.87,34.26,20.83,16,22.09,22.83C94.15,208.6,82.5,231.64,79.59,237.11Z"/><path class="cls-1" d="M34.59,207.07c2.06,3.36,4.34,6.5,6.07,10.07,4.37,9,4.34,22.51,15.1,27.43,8,3.66,19.38-1.84,24.65-7.77,3.56-4,3.87-12.7,4-17.83a19.17,19.17,0,0,1,3.71-10.79s4-4,9.08-1.68c3.25.86.41,9.72.41,9.72s10.82.35,9.33-16.15c-.47-6.37-10.45-18.39-10.45-18.39s-9-6.47-13-5.62c-2-7.38-3.63-10.21-5.37-10.67-7.07-1.88-14.59-1.95-20,.93s-9.17,19.2-9.17,19.2a67.06,67.06,0,0,1-10.53-9.89c-5.61-6.41-18.3-19.75-27.65-19.59s-14.43,5-7.57,9.89C14.42,174,34.59,207.06,34.59,207.07Z"/><path class="cls-2" d="M83.5,176.06c-2-7.38-3.63-10.21-5.37-10.67-7.07-1.88-14.59-1.95-20,.93s-9.17,19.2-9.17,19.2a67.06,67.06,0,0,1-10.53-9.89c-5.61-6.41-18.3-19.75-27.65-19.59s-14.43,5-7.57,9.89a49.64,49.64,0,0,1,7.93,7.77h0S10,168,5.67,164.79s7.22-5.65,12.8-3.09S30.79,171.51,35.64,176c3.88,3.59,9.62,8.8,9.62,8.8s2,2.7.51,4.88-3.4,5.11-3.14,6.26,2.31,1.82,4-1.28,4.88-11.87,6-15.41,3.9-11.34,9.85-12.47,13.87-.34,15.54,1.72,2.55,4.76,2.08,6.26c-5.2,3.67-10.7,8.46-12,12.61s1.14,1.14,3-1.6,8.27-9.7,12.09-8.69,10,3.26,13.32,7.68,3.06,4.35-.49,4.85S85.57,188,82,192.12s-1.51,3.93,1.57,1.38,5.3-2.44,10.29-2.31,7.3.37,10,5.18,1.81,16.7-3.31,17.38c-1.06.56-1.85-2.61-1.86-2.62a28.92,28.92,0,0,1-1.07,5.09s10.82.35,9.33-16.15c-.47-6.37-10.45-18.39-10.45-18.39S87.55,175.21,83.5,176.06Z"/><path class="cls-2" d="M80.41,236.8c2.92-3.28,3.65-9.71,3.91-14.75-.14,3.09-3.7,13-12.15,16.63s-18.34,0-21.71-7.85-11.75-17.24-11.75-17.24h0c.69,1.15,1.36,2.32,1.95,3.55,4.37,9,4.34,22.51,15.1,27.43C63.76,248.23,75.14,242.73,80.41,236.8Z"/></g></g></svg>