<svg xmlns="http://www.w3.org/2000/svg" viewBox="0 0 188.94 260"><defs><style>.cls-1{fill:#4f1b1b;}.cls-2{fill:#348789;}.cls-3{fill:#5c9ea0;}.cls-4{fill:#f9dab4;}.cls-5{fill:#efc4a0;}.cls-6{fill:#4c3626;}.cls-7{fill:#393c3d;}.cls-8{fill:#3f2d20;}.cls-9{fill:#6d4c3a;}.cls-10{fill:#492020;}.cls-11{fill:#c65044;}.cls-12{fill:#ad3936;}</style></defs><title>资源 163</title><g id="图层_2" data-name="图层 2"><g id="Layer_1" data-name="Layer 1"><path class="cls-1" d="M186.26,113c8.48-48.64-23.17-74.36-24.52-75.43L157.36,43l2.19-2.76L157.36,43c1.21,1,29.7,24.31,22,68.7Z"/><path class="cls-1" d="M2.68,113C-5.81,64.31,25.85,38.59,27.2,37.52L31.58,43l-2.19-2.76L31.58,43c-1.21,1-29.7,24.31-22,68.7Z"/><path class="cls-2" d="M143.55,188.41c-9.53-26.18-23.17-26.71-23.17-26.71l7.35,86.91A32.42,32.42,0,0,0,135.8,260H162C157.7,223.15,150.44,207.33,143.55,188.41Z"/><path class="cls-3" d="M66.28,158.36S50.11,232,50.44,260h88.05c.34-28-15.83-101.64-15.83-101.64Z"/><path class="cls-2" d="M64.82,207.67s9.76-43.3,3.88-46-14.82,2.84-24.22,29.07c-2.26,6.33-4.48,12.09-6.55,17.29C44.71,213.16,57,212.05,64.82,207.67Z"/><path class="cls-4" d="M40.57,198.29c-2,1.9-8.08,13.67-12,16.1s-9.73.27-10.31,3.1,4.19,11.42,15.95,6.24c0,0-11.41,14.27-4.82,17.8S40.05,233,40.05,233s-5,11.12,1.63,12.18,9.84-10.53,9.84-10.53-.24,14.59,7.46,13.7,6.66-20,6.66-20,7.09-26-10.65-30.48C51.33,197,42.62,196.39,40.57,198.29Z"/><path class="cls-5" d="M29.72,224.81c1.28-.67,2.5-1.38,3.76-2l.68-.35.54.27c.56.28,1.21.59,1.84.83s1.28.51,1.94.74a18.7,18.7,0,0,0,2,.64c.67.16,1.32.45,2,.56s1.36.29,2,.46,1.38.19,2.08.3l1,.17,1.06,0c.7,0,1.42.08,2.15.14-.69.18-1.4.35-2.11.5a9.44,9.44,0,0,1-2.17.29c-.73,0-1.47.07-2.21.07s-1.46-.13-2.19-.19a17.39,17.39,0,0,1-2.18-.36,19.11,19.11,0,0,1-2.14-.53,19.15,19.15,0,0,1-2.1-.7c-.51-.19-1-.41-1.5-.64l-1.6.83c.9-1.28,1.56-2.11,1.56-2.11a18.63,18.63,0,0,1-5.29,1.5Z"/><rect class="cls-2" x="105.04" y="167.55" width="2.35" height="26.17" transform="translate(-9.97 6.25) rotate(-3.22)"/><path class="cls-2" d="M111.64,195a4.26,4.26,0,1,1-4.25-4.26A4.25,4.25,0,0,1,111.64,195Z"/><rect class="cls-2" x="69.64" y="179.47" width="26.17" height="2.35" transform="translate(-102.27 253.09) rotate(-86.78)"/><path class="cls-2" d="M77.29,195a4.26,4.26,0,1,0,4.26-4.26A4.25,4.25,0,0,0,77.29,195Z"/><path class="cls-6" d="M167.61,44.05c-4.38-20-43-42.76-71.19-44-.21,0-1.51-.07-2-.06s-1.74,0-2,.06c-28.19,1.23-66.81,24-71.2,44-4.55,20.77,4.06,76.13,4.06,76.13H163.56S172.17,64.82,167.61,44.05Z"/><path class="cls-4" d="M34.69,57.74v59.93c0,9.23,4.29,26.48,11.57,32,0,0,18.69,17.71,48.21,17.23s48.2-17.23,48.2-17.23c7.29-5.55,11.57-22.8,11.57-32V57.74Z"/><path class="cls-7" d="M31.05,91.35H93.32s5.2,36.25-31.14,37.86S31.05,91.35,31.05,91.35Z"/><path class="cls-7" d="M157.88,91.35H95.62s-5.2,36.25,31.13,37.86S157.88,91.35,157.88,91.35Z"/><path class="cls-7" d="M164.3,93.19v-2H24.63V93.4a19.1,19.1,0,0,1,4.61,2.4H159.05A18.68,18.68,0,0,1,164.3,93.19Z"/><path class="cls-5" d="M87,136.66s2.25,5.64,8.08,5.56,7.72-7.7,7.72-7.7-3.23,5.8-7.86,5.64A12.92,12.92,0,0,1,87,136.66Z"/><path class="cls-6" d="M29.75,80s16.37,4.31,25.77-14.48c0,0,16.67,1.24,31-5.45,0,0,3.72,4,10.41,0,0,0,1.6,2.34,7.87,0a15.88,15.88,0,0,0,11.28,0s4.06,6.23,8.33,4.66A8.8,8.8,0,0,0,133,67.48s0,3.2,6.26,2.78c0,0-.12,7.8,7.44,6.23,0,0,1.17,10.57,9.78,10.18S159.27,46,159.27,46L95.48,34.21,45.73,38.13l-18,12.52Z"/><path class="cls-8" d="M147.92,47.07c-8-3.76-17.46-3.65-26.1-3-6.8.53-13.69,1.36-19.88,4.46-4.39,2.19-8.32,5.6-12.1,8.69-.14.12-3.38,2.77-2.94,3.12,1,.84,4.54,3,10.07-.3,0,0,1.6,2.34,7.87,0a15.88,15.88,0,0,0,11.28,0s4.06,6.23,8.33,4.66A8.8,8.8,0,0,0,133,67.48s0,3.2,6.26,2.78c0,0-.12,7.8,7.44,6.23,0,0,1.17,10.57,9.78,10.18,4.38-.2,5-10.71,4.59-21-.12-2.64-1.89-6.18-3-8.53a21.46,21.46,0,0,0-5.16-6.86A21.74,21.74,0,0,0,147.92,47.07Z"/><path class="cls-9" d="M111.52,83s13.35-.27,23.94,3.44V84.12c0-2.79-3.17-5.48-10.15-7.12s-11.57-.22-12.65,2.81Z"/><path class="cls-9" d="M77.38,82.86s-13.34-.13-23.9,3.7V84.29c0-2.79,3.11-5.52,10.07-7.23s11.57-.35,12.68,2.67Z"/><path class="cls-10" d="M112.65,146.56a104.18,104.18,0,0,1-18.18,1.92,104.38,104.38,0,0,1-18.19-1.92S69.8,159.62,78.7,163c3.3,1.25,28.24,1.25,31.54,0C119.14,159.62,112.65,146.56,112.65,146.56Z"/><path class="cls-11" d="M81.23,163.44c6.47.7,22,.66,27.44-.12-1.28-4.6-6.93-8.07-13.71-8.07S82.43,158.78,81.23,163.44Z"/><path class="cls-12" d="M35.89,93.75c-1.38-5.27-4.84-9.34-17.18-9.19S1.23,98.76,0,114.92c-1,13.4,14.55,31.39,29.25,31.36S37.25,99,35.89,93.75Z"/><path class="cls-1" d="M35.89,93.75c-1.21-4.63-4.05-8.33-13.07-9.06C29,86,31.22,89.3,32.24,93.23c1.37,5.28,8.12,52.5-6.59,52.54-.3,0-.6-.05-.9-.07a19,19,0,0,0,4.54.58C44,146.25,37.25,99,35.89,93.75Z"/><path class="cls-12" d="M153.06,93.75c1.37-5.27,4.84-9.34,17.17-9.19s17.48,14.2,18.66,30.36c1,13.4-14.54,31.39-29.25,31.36S151.69,99,153.06,93.75Z"/><path class="cls-1" d="M153.06,93.75c1.2-4.63,4-8.33,13.06-9.06-6.2,1.34-8.39,4.61-9.42,8.54-1.37,5.28-8.12,52.5,6.59,52.54.3,0,.6-.05.9-.07a19.11,19.11,0,0,1-4.55.58C144.94,146.25,151.69,99,153.06,93.75Z"/></g></g></svg>