<svg xmlns="http://www.w3.org/2000/svg" viewBox="0 0 154.06 260"><defs><style>.cls-1{isolation:isolate;}.cls-2{fill:#f9dab4;}.cls-3{fill:#515151;}.cls-4{fill:#c65044;}.cls-5{opacity:0.3;mix-blend-mode:hard-light;}.cls-6{fill:#ad3e3b;}.cls-7{fill:#932c2c;}.cls-8{fill:#e8e3d9;}.cls-9{fill:#ea9628;}</style></defs><title>资源 290</title><g class="cls-1"><g id="图层_2" data-name="图层 2"><g id="Layer_1" data-name="Layer 1"><path class="cls-2" d="M138.46,243.21,118.17,249s.79,4.21,1.77,11h12.71Z"/><polygon class="cls-3" points="137.52 246.92 135.41 252.86 128.35 252.12 129.62 246.08 137.52 246.92"/><path class="cls-4" d="M115.61,156.66s36.1,35.49,38.24,43c1.79,6.26-8.52,34.09-14.26,45.32a5.29,5.29,0,0,1-2.49,2.56L125.32,247l-16.2-79.92Z"/><path class="cls-3" d="M153.85,199.66c-.5-1.78-2.92-5.14-6.32-9.22a14.49,14.49,0,0,0,3,27C153.06,209.48,154.65,202.44,153.85,199.66Z"/><g class="cls-5"><path class="cls-3" d="M114.75,168.91l13.6,83.21,6,.63h0c-1.26-64.22-18.66-95.06-18.66-95.06Z"/></g><polygon class="cls-2" points="19.17 252.82 1.34 254.81 0.88 260 19.63 260 19.17 252.82"/><path class="cls-3" d="M1.58,247.54.4,256.31a117.25,117.25,0,0,0,21.47,3.38l2.56-10.05Z"/><path class="cls-4" d="M35.56,157.69S18.81,176.41,8.3,210.46c-10.56,34.21-8.63,38.63-7,39.18,0,0,14.12,4.3,25.4,3l12.21-87.75Z"/><path class="cls-3" d="M5.34,220.4a10.36,10.36,0,0,0,2.63.34c6.33,0,11.46-5.61,11.46-12.53A12.71,12.71,0,0,0,13.06,197c-1.67,4.18-3.28,8.68-4.76,13.49C7.18,214.1,6.19,217.4,5.34,220.4Z"/><g class="cls-5"><path class="cls-3" d="M16.2,259.23c1.86.21,3.78.38,5.67.46l17-94.84-3.3-7.16S15.56,200.81,16.2,259.23Z"/></g><path class="cls-4" d="M35.87,154.9l-1.42,13S20.58,199,19.45,260H131.83c-1.13-61-15-92.08-15-92.08l-1.41-13H35.87Z"/><path class="cls-3" d="M36.79,202.53l-11-4.31a329.17,329.17,0,0,0-5.94,49.32l12.92-1.16a11.1,11.1,0,0,0,10.11-10.6l.93-22.45A11.1,11.1,0,0,0,36.79,202.53Z"/><path class="cls-3" d="M114.49,202.53l11-4.31a329.17,329.17,0,0,1,5.94,49.32l-12.92-1.16a11.11,11.11,0,0,1-10.11-10.6l-.93-22.45A11.1,11.1,0,0,1,114.49,202.53Z"/><path class="cls-6" d="M115.42,154.9H35.87l-1.42,13s14,7.79,41.19,7.79,41.2-7.79,41.2-7.79Z"/><path class="cls-7" d="M60.14,165.45s-4.18.19-4.87,4.14,3.38,5,3.38,5-6.5-.78-5.51-5.68C54.17,163.89,60.14,165.45,60.14,165.45Z"/><path class="cls-6" d="M73.74,175.69V260h3.8V175.69l-1.9,0Z"/><path class="cls-4" d="M146,105.25a63.19,63.19,0,0,1-42.08,56.34c-9.15,3.21-18.92,5.49-28.25,5.49s-19.1-2.28-28.24-5.49A63.19,63.19,0,0,1,5.31,105.25l-2-29.81A71.66,71.66,0,0,1,74.88,0H76.4A71.66,71.66,0,0,1,148,75.44Z"/><path class="cls-3" d="M3.32,75.44l2,29.81a63.31,63.31,0,0,0,3.83,18.61A622.39,622.39,0,0,0,77.05,128a555.51,555.51,0,0,0,65.07-4.09A63.4,63.4,0,0,0,146,105.25l2-29.81S119.25,80.3,77.05,80.3A536.65,536.65,0,0,1,3.32,75.44Z"/><path class="cls-8" d="M87.83,80.2,51.71,127.36c8.06.39,16.64.65,25.34.65,3.07,0,6.12,0,9.11-.09L123.9,78.28C114.21,79.14,102,79.92,87.83,80.2Z"/><path class="cls-8" d="M135.09,77.16,96.82,127.59q4.82-.2,9.36-.46L145,75.9C142.78,76.22,139.44,76.67,135.09,77.16Z"/><path class="cls-9" d="M111.49,9.16A71.27,71.27,0,0,0,76.4,0H74.88A71.23,71.23,0,0,0,39.8,9.16c27.07,6.76,27.07,26.52,27.07,26.52H49L75.64,63.92l26.67-28.24H84.41S84.41,15.92,111.49,9.16Z"/></g></g></g></svg>