<svg xmlns="http://www.w3.org/2000/svg" viewBox="0 0 203.21 273.46"><defs><style>.cls-1{fill:#f9dab4;}.cls-2{fill:#286584;}.cls-3{fill:#1a5066;}.cls-4{fill:#818689;}.cls-5{fill:#284c66;}.cls-6{fill:#515151;}.cls-7{fill:#f4d3b0;}.cls-8{fill:#efc4a0;}.cls-9{fill:#2f3233;}.cls-10{fill:#ea9628;}</style></defs><title>资源 317</title><g id="图层_2" data-name="图层 2"><g id="Layer_1" data-name="Layer 1"><polygon class="cls-1" points="27.08 273.46 47.57 273.46 52.65 216.03 32.17 214.84 27.08 273.46"/><polygon class="cls-1" points="171.04 215.44 150.56 216.62 155.62 273.46 176.11 273.46 171.04 215.44"/><path class="cls-2" d="M58.3,172s-31.83,8.32-36.09,59.27c0,0,19.62,6.54,32.7,2.08Z"/><path class="cls-2" d="M144.91,172s25.87,6.75,36.09,59.27c0,0-19.62,6.54-32.7,2.08Z"/><path class="cls-2" d="M65.78,171.6,58.3,172s-6.36,39.73-9,101.43H153.89c-2.62-61.7-9-101.43-9-101.43l-7.48-.43L101.6,172Z"/><path class="cls-3" d="M106.54,204.7a4.94,4.94,0,1,1-4.93-4.94A4.94,4.94,0,0,1,106.54,204.7Z"/><path class="cls-3" d="M106.54,230.44a4.94,4.94,0,1,1-4.93-4.93A4.94,4.94,0,0,1,106.54,230.44Z"/><path class="cls-3" d="M106.54,256.19a4.94,4.94,0,1,1-4.93-4.94A4.94,4.94,0,0,1,106.54,256.19Z"/><polygon class="cls-3" points="72.86 177.68 76.01 203.89 102.27 187.02 128.89 203.89 130.43 177.57 72.86 177.68"/><path class="cls-3" d="M59.41,226.12c.12,1.11.23,2.23.33,3.35l.3,3.35.26,3.36c.09,1.12.16,2.24.24,3.36l-.82-.34.68-.62c.23-.2.48-.38.73-.57a6.92,6.92,0,0,1,.77-.52,8.28,8.28,0,0,1,.83-.45l.21-.11.22-.08.44-.18c.29-.12.61-.18.91-.27s.63-.11.95-.16.64,0,1,0,.64,0,1,.07a7.83,7.83,0,0,1,.94.19,7.15,7.15,0,0,1,.9.27c.3.12.59.22.87.36s.57.26.84.42.54.3.79.48.52.33.77.52l.73.55-.84,0,.7-.62c.24-.21.5-.38.75-.58a9.06,9.06,0,0,1,.79-.53,7.42,7.42,0,0,1,.83-.47c.14-.07.28-.15.43-.21l.45-.18a6,6,0,0,1,.93-.31,7.41,7.41,0,0,1,1-.19,3.89,3.89,0,0,1,.49,0l.49,0c.32,0,.65,0,1,.07s.64.12,1,.21l.47.15a2.69,2.69,0,0,1,.45.16,8.65,8.65,0,0,1,.87.41c.27.16.56.3.82.48a8.29,8.29,0,0,1,.77.55c.24.2.49.39.72.6l.68.63-.83.34c.08-1.12.15-2.24.24-3.36l.27-3.36.29-3.35c.1-1.12.22-2.24.34-3.35,0,1.12,0,2.24,0,3.36l0,3.37,0,3.37c0,1.12-.06,2.24-.08,3.36l0,1-.81-.69-.66-.57c-.22-.19-.47-.35-.7-.52a6.93,6.93,0,0,0-.72-.48,6.65,6.65,0,0,0-.74-.41,5.94,5.94,0,0,0-.78-.34,2.58,2.58,0,0,0-.39-.14l-.4-.11c-.27-.08-.55-.1-.82-.16l-.82,0a5.67,5.67,0,0,0-.82.07,4.67,4.67,0,0,0-.81.17,4.46,4.46,0,0,0-.78.26A5.89,5.89,0,0,0,76,238a6.58,6.58,0,0,0-.73.42,8.17,8.17,0,0,0-.71.49c-.22.18-.46.34-.67.53l-.65.58-.41.36-.44-.33-.67-.52c-.23-.18-.47-.32-.7-.49s-.49-.29-.73-.43a5.83,5.83,0,0,0-.74-.39c-.25-.13-.52-.22-.77-.32a8,8,0,0,0-.79-.25,7.27,7.27,0,0,0-.81-.17,7.17,7.17,0,0,0-.81-.08c-.27,0-.54,0-.81,0s-.54.06-.81.12a7.69,7.69,0,0,0-.79.21l-.39.14-.2.07-.18.09a7.54,7.54,0,0,0-.75.38c-.23.15-.49.27-.71.44s-.47.32-.69.5l-.66.55-.8.66,0-1c0-1.12-.06-2.24-.08-3.36l0-3.37,0-3.37C59.39,228.36,59.4,227.24,59.41,226.12Z"/><path class="cls-3" d="M116.7,226.12c.11,1.11.23,2.23.33,3.35l.29,3.35.27,3.36c.09,1.12.16,2.24.24,3.36l-.83-.34.69-.62c.23-.2.48-.38.72-.57a10.88,10.88,0,0,1,1.6-1l.21-.11.22-.08.44-.18c.3-.12.61-.18.92-.27s.63-.11.94-.16.64,0,1,0,.64,0,1,.07a7.3,7.3,0,0,1,.93.19,6.83,6.83,0,0,1,.91.27c.29.12.59.22.87.36s.57.26.83.42.55.3.8.48.52.33.76.52l.74.55-.85,0,.71-.62c.23-.21.5-.38.75-.58s.52-.36.78-.53a7.57,7.57,0,0,1,.84-.47c.14-.07.28-.15.43-.21l.45-.18a5.85,5.85,0,0,1,.92-.31,7.76,7.76,0,0,1,1-.19,4,4,0,0,1,.49,0l.49,0c.33,0,.66,0,1,.07s.65.12,1,.21l.46.15a2.51,2.51,0,0,1,.46.16,8.48,8.48,0,0,1,.86.41,9.29,9.29,0,0,1,.82.48,7.14,7.14,0,0,1,.77.55c.24.2.5.39.73.6l.68.63-.83.34c.08-1.12.15-2.24.24-3.36l.26-3.36.3-3.35c.1-1.12.21-2.24.33-3.35,0,1.12,0,2.24,0,3.36l0,3.37-.06,3.37c0,1.12,0,2.24-.08,3.36l0,1-.81-.69-.67-.57c-.22-.19-.46-.35-.69-.52a8.19,8.19,0,0,0-.72-.48,7.83,7.83,0,0,0-.75-.41,5.3,5.3,0,0,0-.77-.34,2.7,2.7,0,0,0-.4-.14l-.4-.11c-.27-.08-.54-.1-.81-.16l-.82,0a5.55,5.55,0,0,0-.82.07,4.49,4.49,0,0,0-.81.17,4.56,4.56,0,0,0-.79.26,5.23,5.23,0,0,0-.76.35,7.78,7.78,0,0,0-.74.42,8,8,0,0,0-.7.49c-.22.18-.46.34-.68.53l-.65.58-.41.36-.43-.33-.68-.52c-.22-.18-.47-.32-.7-.49s-.48-.29-.72-.43a6,6,0,0,0-.75-.39,7.35,7.35,0,0,0-.77-.32,6.61,6.61,0,0,0-.79-.25,7.1,7.1,0,0,0-.8-.17,7.4,7.4,0,0,0-.81-.08c-.27,0-.54,0-.82,0s-.54.06-.8.12a7.23,7.23,0,0,0-.8.21l-.39.14-.19.07-.19.09a7.39,7.39,0,0,0-.74.38c-.24.15-.49.27-.72.44s-.47.32-.69.5l-.66.55-.8.66,0-1c0-1.12-.07-2.24-.08-3.36l-.06-3.37,0-3.37C116.68,228.36,116.68,227.24,116.7,226.12Z"/><rect class="cls-4" x="35.48" y="169.95" width="35.01" height="9.53" transform="translate(-91.78 63.46) rotate(-35.58)"/><rect class="cls-4" x="144.76" y="157.21" width="9.53" height="35.01" transform="translate(-79.57 194.66) rotate(-54.42)"/><path class="cls-5" d="M101.6,0C36.27,0-3.42,78.17.23,88.21c1.65,4.54,10,5.93,18,6.15,9.39.27,16.87,6.85,16.87,6.85h133s7.49-6.58,16.88-6.85c8-.22,16.37-1.61,18-6.15C206.63,78.17,166.94,0,101.6,0Z"/><path class="cls-6" d="M30.94,110.56A120.92,120.92,0,0,1,29.25,93.9S42.59,54.23,101.6,54.23,174,93.91,174,93.91c-.38,9.77-1.17,16.65-1.17,16.65Z"/><path class="cls-7" d="M44.5,108.3s-7.42-8-12.76-2.69c-13.9,13.9,15.13,39.61,15.13,39.61Z"/><path class="cls-7" d="M158.75,108.3s7.42-8,12.76-2.69c13.9,13.9-15.13,39.61-15.13,39.61Z"/><path class="cls-1" d="M163.28,134.81a46.51,46.51,0,0,1-27.18,42.37A83.29,83.29,0,0,1,101.6,185a83.24,83.24,0,0,1-34.49-7.83,46.51,46.51,0,0,1-27.18-42.37V71.6H163.28Z"/><path class="cls-8" d="M99.81,161.42a132.67,132.67,0,0,1-22.22-1.69,1.28,1.28,0,1,1,.48-2.52,144.29,144.29,0,0,0,52.4-1.66,1.29,1.29,0,1,1,.57,2.51A141.78,141.78,0,0,1,99.81,161.42Z"/><path class="cls-8" d="M103.31,170a23.76,23.76,0,0,1-8-1.39,1.28,1.28,0,0,1-.73-1.66,1.29,1.29,0,0,1,1.67-.73h0c.08,0,7.56,2.87,14.3-.33a1.28,1.28,0,1,1,1.1,2.32A19.25,19.25,0,0,1,103.31,170Z"/><path class="cls-8" d="M103.48,150.78A18.26,18.26,0,0,1,91.09,146s7.43,2.41,12.47,2.41S116.35,146,116.35,146A20.27,20.27,0,0,1,103.48,150.78Z"/><path class="cls-9" d="M163.28,101.21s-25.9,5.31-61.68,5.31-61.67-5.31-61.67-5.31v3.64l9.78,3.64s1.49,18,17.3,22,28.17-16.31,28.17-16.31l6.42,0h0l6.43,0s12.35,20.26,28.17,16.31,17.29-22,17.29-22l9.79-3.61Z"/><path class="cls-6" d="M36.52,79.08s9.8,15.28,33.29,19.62A34.55,34.55,0,0,1,68,87.29s11.4,11.18,23.26,13.92c0,0-1.37-7.3,0-11.06,0,0,12.32,9.23,24.17,11.06,0,0-2.5-5.93-1.59-11.06,0,0,12.08,9.46,24.4,11.06,0,0-3.42-4.79-2.28-10,0,0,8.44,8.9,20.07,10,0,0-.82-8.9,3.58-12.55,0,0,2.8,9.58,6,11V70.52l-64-17.13L36.52,70.52Z"/><path class="cls-4" d="M101.6,43.28c-64,0-72.35,36.49-72.35,36.49V93.9C52.1,65.15,101.6,66.77,101.6,66.77S151.11,65.15,174,93.9V79.77S165.57,43.28,101.6,43.28Z"/><path class="cls-10" d="M117.73,13.21A20.86,20.86,0,0,1,101.6,5.72a20.84,20.84,0,0,1-16.13,7.49S84.14,34.44,101.6,39.56C119.07,34.44,117.73,13.21,117.73,13.21Z"/></g></g></svg>