<svg xmlns="http://www.w3.org/2000/svg" viewBox="0 0 152.85 260"><defs><style>.cls-1{fill:#c65044;}.cls-2{fill:#ad3e3b;}.cls-3{fill:#ea9628;}.cls-4{fill:#dd861f;}.cls-5{fill:#7f5732;}.cls-6{fill:#f4d3b0;}.cls-7{fill:#f9dab4;}.cls-8{fill:#efc4a0;}.cls-9{fill:#393c3d;}.cls-10{fill:#54a3b5;}.cls-11{fill:#f9f5ed;}.cls-12{fill:#4c3626;}</style></defs><title>资源 276</title><g id="图层_2" data-name="图层 2"><g id="Layer_1" data-name="Layer 1"><path class="cls-1" d="M33.27,181.74c-8,15.13-23.12,69.49-25.53,78.26H36.22l12.07-92.23S42,165.26,33.27,181.74Z"/><path class="cls-2" d="M26.09,260h5l12.13-68.69s-5.55,8.43-10.56,32.89C30.68,233.94,27.5,245.38,26.09,260Z"/><path class="cls-1" d="M119.46,181.74c-8.76-16.48-15-14-15-14L116.52,260H145C142.59,251.23,127.51,196.87,119.46,181.74Z"/><path class="cls-2" d="M120.06,224.2c-5-24.46-10.56-32.89-10.56-32.89L121.63,260h5C125.23,245.38,122.06,233.94,120.06,224.2Z"/><path class="cls-1" d="M28.71,260H124c-.78-18.54-18.12-90.75-18.12-90.75l-29.54,3.31-29.54-3.31S29.48,241.46,28.71,260Z"/><path class="cls-2" d="M76.37,175.85H56.89a11,11,0,0,1-11-11v-9H76.37Z"/><path class="cls-2" d="M76.37,175.85H95.85a11,11,0,0,0,11-11v-9H76.37Z"/><path class="cls-3" d="M112.49,197.76H40.25c-2,9-4.22,19.17-6.15,28.76h84.54C116.71,216.93,114.51,206.8,112.49,197.76Z"/><path class="cls-2" d="M74,260h2.38V226.52H72.82A295.33,295.33,0,0,0,74,260Z"/><path class="cls-2" d="M76.37,166.33c-1.1,11.62-1.89,22.06-2.45,31.43h2.45Z"/><path class="cls-4" d="M73.92,197.76c-.66,11-1,20.53-1.1,28.76h3.55V197.76Z"/><path class="cls-5" d="M5.82,105.24s-13.4-67.6,4-66.23c0,0,2.4-39,65.37-39,20.42,0,43,8,54.77,22.57,28.7,35.45,19.44,84.74,19.44,84.74Z"/><path class="cls-6" d="M18.45,104.9s-6.61-8.77-14.61-5.57S-.63,137.07,24.67,142.5Z"/><path class="cls-6" d="M134.4,104.9S141,96.13,149,99.33s4.47,37.74-20.82,43.17Z"/><path class="cls-7" d="M102.87,161.93,88.71,165a57.17,57.17,0,0,1-24.29,0L49.93,161.9a45.38,45.38,0,0,1-35.76-44.34L15.77,94a60.17,60.17,0,0,1,60-56.09h1.14A60.17,60.17,0,0,1,137,94l1.6,23.65A45.36,45.36,0,0,1,102.87,161.93Z"/><path class="cls-8" d="M68.57,136.48s1.09-6,7.3-6,7.29,6,7.29,6a10.39,10.39,0,0,0-14.59,0Z"/><path class="cls-8" d="M73.79,154.6a137.59,137.59,0,0,1-16.05-1,1.08,1.08,0,0,1,.29-2.15c.28,0,28.06,3.61,38.71-3.36a1.08,1.08,0,1,1,1.18,1.81C92.21,153.66,82.33,154.6,73.79,154.6Z"/><path class="cls-8" d="M102.46,148.28a1.08,1.08,0,0,1-1.08-1.06,3.09,3.09,0,0,0-1-2.68c-1.05-.67-2.9-.12-3.46.12a1.08,1.08,0,1,1-.87-2c.33-.14,3.3-1.37,5.5,0,1.29.83,2,2.33,2,4.46a1.08,1.08,0,0,1-1.06,1.1Z"/><path class="cls-9" d="M76.37,87.52H3.14V99.14s10.51,2.16,15.13,10.66c4.09,7.53,4.22,23.41,23.58,25.47,25.12,2.68,19.53-17,28.26-19.48,4.7-1.33,4.7-1.3,6.26-1.3s1.55,0,6.25,1.3c8.74,2.46,3.15,22.16,28.27,19.48,19.36-2.06,19.48-17.94,23.58-25.47,4.62-8.5,15.13-10.66,15.13-10.66V87.52Z"/><path class="cls-10" d="M131.9,91.23H20.84a73.74,73.74,0,0,0,2.55,19.38c2.77,9.62,6.79,18.67,17.82,20.79,18.52,3.56,18.93-13.8,23.42-17.71,3.78-3.3,9.37-4.07,11.74-4.07s7.95.77,11.74,4.07C92.6,117.6,93,135,111.53,131.4c11-2.12,15-11.17,17.82-20.79A73.74,73.74,0,0,0,131.9,91.23Z"/><path class="cls-11" d="M88.45,91.23,74.08,109.79a18.12,18.12,0,0,1,2.29-.17c2.37,0,7.95.77,11.74,4.07a12.48,12.48,0,0,1,2.58,4.1l20.55-26.56Z"/><path class="cls-11" d="M119.6,91.23,93.94,124.39a16.67,16.67,0,0,0,4.48,5L128,91.23Z"/><path class="cls-5" d="M13.67,52.29s5,19.53,30.6,21.49c0,0,11.07,12.37,36.25,9.33,0,0,7.38,5.86,27.79,2,0,0,13.45,4.13,25-.65,0,0,4.34,3.31,12.8,2.31L123.93,18.64Z"/><path class="cls-12" d="M124.93,74.69A23.52,23.52,0,0,0,129,85.78a28,28,0,0,0,4.25-1.37A24.21,24.21,0,0,1,124.93,74.69Z"/><path class="cls-12" d="M97.93,72.61a14.55,14.55,0,0,0,5.16,13.29c1.63-.21,3.37-.48,5.22-.84C108.31,85.06,98.74,81.94,97.93,72.61Z"/><path class="cls-12" d="M74.1,70.34S72,77.88,75.17,83.54c1.71-.07,3.49-.2,5.35-.43C80.52,83.11,74.28,78.13,74.1,70.34Z"/><path class="cls-12" d="M39.34,61.57S37.71,65.93,41,73.42q1.56.22,3.24.36A29.84,29.84,0,0,1,39.34,61.57Z"/></g></g></svg>