<svg xmlns="http://www.w3.org/2000/svg" viewBox="0 0 222.04 260"><defs><style>.cls-1{fill:#ad3936;}.cls-2{fill:#515151;}.cls-3{fill:#d15852;}.cls-4{fill:#f9f5ed;}.cls-5{fill:#efc4a0;}.cls-6{fill:#f9dab4;}.cls-7{fill:#492020;}.cls-8{fill:#c9c9c9;}.cls-9{fill:#353535;}.cls-10{fill:#3f3e3d;}.cls-11{fill:#3a332d;}.cls-12{fill:#e8dfd9;}</style></defs><title>资源 340</title><g id="图层_2" data-name="图层 2"><g id="Layer_1" data-name="Layer 1"><path class="cls-1" d="M32.69,203.7s-5.92,20-2.22,41.39c0,0-7,6.28-3,12.2A17.41,17.41,0,0,0,26.17,260H71.5C72,237,66,203.7,66,203.7Z"/><path class="cls-2" d="M30.4,244.62c0,.16,0,.31.07.47,0,0-7,6.28-3,12.2A17.41,17.41,0,0,0,26.17,260H71.5c.09-4.08,0-8.48-.28-13C59.41,253,42.67,250.18,30.4,244.62Z"/><path class="cls-1" d="M191.57,245.09c3.7-21.44-2.22-41.39-2.22-41.39H156.09S150,237,150.53,260h45.34a17.41,17.41,0,0,0-1.34-2.71C198.59,251.37,191.57,245.09,191.57,245.09Z"/><path class="cls-2" d="M191.57,245.09c0-.16,0-.31.07-.47-12.27,5.56-29,8.34-40.82,2.41-.25,4.49-.37,8.89-.28,13h45.33a17.41,17.41,0,0,0-1.34-2.71C198.59,251.37,191.57,245.09,191.57,245.09Z"/><path class="cls-3" d="M152.9,150.75l-4.07-.09-.15-1.63-37.66.81L73.36,149l-.15,1.63-4.07.09s-43.56-7.27-58,8.11-20.51,51.37,17.71,55.31c28,2.89,27,26.22,25.15,45.83H168c-1.82-19.61-2.84-42.94,25.16-45.83,38.21-3.94,32.15-39.92,17.7-55.31S152.9,150.75,152.9,150.75Z"/><polygon class="cls-4" points="85.1 220.56 120.9 220.56 101.75 260 117.38 260 136.94 219.24 136.94 207.08 85.1 207.08 85.1 220.56"/><path class="cls-4" d="M221.86,183.44a43.51,43.51,0,0,0-11-24.58c-7.28-7.75-22-9.75-34.72-9.82-.05.77-.11,1.55-.11,2.33a34.11,34.11,0,0,0,34,34.23A33.7,33.7,0,0,0,221.86,183.44Z"/><path class="cls-4" d="M11.14,158.86a43.51,43.51,0,0,0-11,24.58A33.7,33.7,0,0,0,12,185.6a34.11,34.11,0,0,0,34-34.23c0-.78-.07-1.56-.12-2.33C33.09,149.11,18.42,151.11,11.14,158.86Z"/><path class="cls-5" d="M138.2,167.55c0,11-12.17,19.86-27.18,19.86s-27.18-8.89-27.18-19.86S96,147.69,111,147.69,138.2,156.58,138.2,167.55Z"/><path class="cls-2" d="M91.62,168.7c0-4.59,5.42-5.35,19.4-5.35s19.4.76,19.4,5.35S125,177,111,177,91.62,173.3,91.62,168.7Z"/><path class="cls-3" d="M186,53.52C186,27.32,151.75,2.09,112.17,0h-2.3C70.28,2.09,36.06,27.32,36.06,53.52c0,0-1.1,50.1,18.11,77.88l55.92-.7H112l55.91.7C187.08,103.62,186,53.52,186,53.52Z"/><path class="cls-4" d="M127.65,2a102.05,102.05,0,0,0-15.48-2h-2.3A102.22,102.22,0,0,0,94.39,2V119.35h33.26Z"/><path class="cls-6" d="M156.86,155.4S139.09,168.13,111,168.62,65.18,155.4,65.18,155.4a31,31,0,0,1-11-24V79S68.55,71.88,111,71.88,167.86,79,167.86,79V131.4A31,31,0,0,1,156.86,155.4Z"/><path class="cls-7" d="M148.13,138.37c-1.57-7-6.09-13-13.34-11.57-8.24,1.58-15.08,5.94-23.77,6.34-8.69-.4-15.53-4.76-23.77-6.34-7.26-1.39-11.77,4.61-13.34,11.57-2.83,12.56,11.25,17,21.26,18.73a98.39,98.39,0,0,0,15.23,1.72v0l.62,0,.62,0v0a98.53,98.53,0,0,0,15.23-1.72C136.88,155.34,151,150.93,148.13,138.37Z"/><path class="cls-4" d="M139.93,127.13a9.83,9.83,0,0,0-5.14-.33c-8.24,1.58-15.08,5.94-23.77,6.34-8.69-.4-15.53-4.76-23.77-6.34a9.73,9.73,0,0,0-5.17.35,29,29,0,0,1-8.14,17.36c2.2,8,13.07,11.16,21.23,12.59a98.39,98.39,0,0,0,15.23,1.72v0l.62,0,.62,0v0a98.53,98.53,0,0,0,15.23-1.72c7-1.24,16.1-3.81,19.85-9.6A41.64,41.64,0,0,1,139.93,127.13Z"/><path class="cls-8" d="M142.45,139.08A88.74,88.74,0,0,1,111,145a78.3,78.3,0,0,1-32.37-6.92A30.38,30.38,0,0,1,77,140.71,81.26,81.26,0,0,0,111,148a91.44,91.44,0,0,0,32.54-6.12C143.15,141,142.8,140,142.45,139.08Z"/><path class="cls-2" d="M167.86,131.4s0,.6.06,1.71a26.18,26.18,0,0,1-.17,4.86,36.38,36.38,0,0,1-1.84,7.44,33.6,33.6,0,0,1-2.06,4.32,25.25,25.25,0,0,1-3.29,4.2c-.63.68-1.37,1.3-2.07,2l-.54.5-.13.12-.24.18-.3.2c-.38.26-.81.52-1.24.78-1.69,1.08-3.49,2-5.31,2.94s-3.82,1.73-5.8,2.62l-6.24,2.26a97.47,97.47,0,0,1-13.48,3.2l-3.51.61c-1.18.18-2.37.19-3.57.3l-7.26.49-7.07-.3a35,35,0,0,1-3.53-.22L96.71,169a84.79,84.79,0,0,1-13.57-3.17l-6.23-2.32c-2-.94-3.91-1.8-5.75-2.74s-3.59-2-5.23-3.07c-.41-.27-.82-.52-1.23-.83l-.31-.23a1.22,1.22,0,0,1-.25-.19l-.13-.12-.5-.47c-.68-.64-1.36-1.21-2-1.88a24.33,24.33,0,0,1-5.39-8.59A36.36,36.36,0,0,1,54.3,138a25.43,25.43,0,0,1-.18-4.86c0-1.11.05-1.71.05-1.71s.08.59.25,1.69c.08.55.14,1.23.31,2s.41,1.66.65,2.65a34.28,34.28,0,0,0,2.77,6.72,32.16,32.16,0,0,0,2.47,3.65,47,47,0,0,0,2.94,3.73c.58.61,1.29,1.22,2,1.85l.51.47.13.12c-.15-.13,0,0,0,0l.26.18c.34.26.74.5,1.13.75,1.52,1,3.25,1.94,5,2.92s3.65,1.73,5.53,2.64l6,2.24a81.2,81.2,0,0,0,13,3l3.36.54a33.34,33.34,0,0,0,3.49.23l7.08.3,6.87-.48c1.15-.11,2.31-.12,3.45-.29l3.39-.6a94.41,94.41,0,0,0,13.07-3.09l6-2.19c1.91-.86,3.79-1.67,5.59-2.53s3.51-1.8,5-2.78c.4-.24.78-.46,1.18-.73l.29-.2s.2-.14,0,0l.12-.11.48-.45c.63-.61,1.29-1.16,1.87-1.77a39.29,39.29,0,0,0,3-3.79,32.28,32.28,0,0,0,2.48-3.65c.61-1.24,1.23-2.41,1.68-3.54s.84-2.19,1.08-3.17l.66-2.64c.17-.78.23-1.47.33-2C167.77,132,167.86,131.4,167.86,131.4Z"/><path class="cls-9" d="M176.74,108.37a6.41,6.41,0,0,0-5-2.14h0c-6.69.3-12.47,2.22-19.16,4.44-9.59,3.19-21.54,7.16-41.23,7.38h-.9c-19.46-.22-31.4-4.18-41-7.38C62.77,108.45,57,106.53,50,106.22a6.14,6.14,0,0,0-4.68,2.15c-5.87,6.37-4.53,26.38-4.2,30.3,1.19,20.25,23.17,30.79,67.22,32.23.48,0,1,0,1.44,0h2.5c.47,0,1,0,1.44,0,44-1.43,66-12,67.2-32.18C181.25,134.77,182.57,114.71,176.74,108.37Zm-128.16,3a1.89,1.89,0,0,1,1.53-.71c6.08.28,11.58,2.11,17.94,4.22l.13,0a100.25,100.25,0,0,0-2.29,26.45,193.2,193.2,0,0,1-20.57-6.77C45,126.12,45.53,114.68,48.58,111.37Zm128.16,23c-6,2-13,4.22-20.55,6.18a100.83,100.83,0,0,0-2.33-25.65l.13-.05c6.37-2.12,11.87-3.95,18.06-4.23a1.87,1.87,0,0,1,1.43.72C176.48,114.65,177.07,125.92,176.74,134.4Zm-67.82,12.85a164.59,164.59,0,0,1-38.54-4.74,94.85,94.85,0,0,1,2-26.2,120.88,120.88,0,0,0,36,6.13Zm42.79-5.55a194.56,194.56,0,0,1-38.35,5.49l-.48-24.73a121,121,0,0,0,36.75-6.15A95.32,95.32,0,0,1,151.71,141.7ZM66.23,146A87.76,87.76,0,0,0,69.06,161c-14.42-4.5-22.25-11.67-23.36-21.47A194.52,194.52,0,0,0,66.23,146Zm4.59,1.13a168.78,168.78,0,0,0,37.92,4.56H109l.29,14.77h-.82c-13.68-.45-25.1-1.83-34.35-4.1A81.88,81.88,0,0,1,70.82,147.16Zm42.63,4.47a197,197,0,0,0,37.88-5.3,81.68,81.68,0,0,1-3.41,16q-13.8,3.39-34.18,4.09ZM153,161a86.82,86.82,0,0,0,2.89-15.74c7.57-1.91,14.52-4,20.51-6C175.43,149.15,167.59,156.42,153,161Z"/><path class="cls-10" d="M63.15,89s12.65-.26,22.7,3.26l0-2.15c0-2.64-3-5.2-9.62-6.75s-11-.21-12,2.67Z"/><path class="cls-11" d="M81.86,102.16A6.91,6.91,0,1,1,75,95.26,6.91,6.91,0,0,1,81.86,102.16Z"/><path class="cls-12" d="M76.09,97.36c.17.83-.86,1.75-2.3,2s-2.75-.15-2.91-1,.86-1.75,2.3-2S75.93,96.52,76.09,97.36Z"/><path class="cls-10" d="M158.88,88.89s-12.65-.12-22.65,3.51V90.25c0-2.64,2.94-5.23,9.55-6.85s11-.33,12,2.53Z"/><path class="cls-11" d="M154,102.16a6.92,6.92,0,1,1-6.91-6.9A6.91,6.91,0,0,1,154,102.16Z"/><path class="cls-12" d="M148.21,97.36c.17.83-.86,1.75-2.31,2s-2.74-.15-2.91-1,.86-1.75,2.31-2S148,96.52,148.21,97.36Z"/><path class="cls-5" d="M119.69,108.89s-2-6.31-8.31-6.71-9,7.73-9,7.73,4-6,9-5.48A14,14,0,0,1,119.69,108.89Z"/></g></g></svg>