<svg xmlns="http://www.w3.org/2000/svg" viewBox="0 0 177.09 260.02"><defs><style>.cls-1{fill:#f7cea6;}.cls-2{fill:#f9dab4;}.cls-3{fill:#f2ac2f;}.cls-4{fill:#ffc55f;}.cls-5{fill:#6b4627;}.cls-6{fill:#51321a;}.cls-7{fill:#f4c7a2;}.cls-8{fill:#3f2412;}.cls-9{fill:#f9f5ed;}</style></defs><title>资源 8</title><g id="图层_2" data-name="图层 2"><g id="Layer_1" data-name="Layer 1"><path class="cls-1" d="M13.44,247a62.06,62.06,0,0,0,1.39,13H58.52V204.93l-39.4-2.27S15.33,230.31,13.44,247Z"/><path class="cls-2" d="M36.36,243.57c0-2.84,3.22-17.61.19-23.3-1.5-2.81-5.33-3.1-8.13-3S22,216.9,20,218.84a4.91,4.91,0,0,0-1.22,1.88c-1.05,2.83-.41,6.13-.77,9.07-1,7.84-2.82,15.49-2.82,23.44a29.26,29.26,0,0,0,1.4,6.79H37v-7.83c0-3.13-2.94-3.13-7.11-1.23s-4.92,1.91-4.92.57C25,247.46,36.36,246.41,36.36,243.57Z"/><path class="cls-3" d="M49.55,154.74s-29.14,13.11-37.67,49.5c-1.11,4.75,1.44,6.82,10.41,8.59,11.49,2.25,30.92.63,30.92.63V154.74Z"/><path class="cls-4" d="M28.59,210.61s-11-.28-12.32-8.48,14.59-32.81,21-36.22,9.27-3.2,7.85,5.69-5.2,35-5.2,38.45C36.36,211.75,28.59,210.61,28.59,210.61Z"/><path class="cls-1" d="M113.07,204.93V260h43.69a62.06,62.06,0,0,0,1.39-13c-1.89-16.67-5.68-44.32-5.68-44.32Z"/><path class="cls-2" d="M152.86,220.72a5,5,0,0,0-1.21-1.88c-2.07-1.94-5.65-1.56-8.48-1.61s-6.62.23-8.12,3c-3,5.69.19,20.46.19,23.3s11.36,3.89,11.36,8c0,1.34-.76,1.32-4.92-.57s-7.11-1.9-7.11,1.23V260h20.48a29.26,29.26,0,0,0,1.4-6.79c0-7.95-1.86-15.6-2.82-23.44C153.27,226.85,153.91,223.55,152.86,220.72Z"/><path class="cls-3" d="M122,154.74s28.42,12.44,37.13,47.2c.39,1.56,0,6.86-8.76,9.05-11.45,2.86-32,2.47-32,2.47V154.74Z"/><path class="cls-4" d="M143,210.61s11-.28,12.32-8.48-14.59-32.81-21-36.22-9.27-3.2-7.85,5.69,5.2,35,5.2,38.45C135.24,211.75,143,210.61,143,210.61Z"/><path class="cls-4" d="M135.54,260c-1.89-18.32-9.22-84.16-19.12-108.93l-62.33.38S39.12,216.35,38,260Z"/><path class="cls-3" d="M56.77,151.45l-2.68,0S39.12,216.35,38,260H61.33c-9.43-1.93-16.93-7.47-16.93-23.23-.37-20.86,8.7-68,8.7-68Z"/><path class="cls-3" d="M111.67,260h23.87c-.93-9-3.19-29.62-6.42-51.14a301.19,301.19,0,0,1,.32,32.66C128.8,253,121.18,258,111.67,260Z"/><path class="cls-3" d="M88.6,181.14c-9.56,0-15-4-17.8-7.32-6.88-8.1-5.28-19.34-5.08-20.6l.92-5.61h43.92l.92,5.61c.2,1.26,1.8,12.5-5.08,20.6C103.56,177.16,98.16,181.14,88.6,181.14Z"/><path class="cls-1" d="M72.33,154.3S69,174.45,88.6,174.45s16.27-20.15,16.27-20.15Z"/><path class="cls-5" d="M152.24,130S169.92,120.4,172.56,88s-7.15-50.92-19-55.07c8.85,0,16.19-7.1-.85-10.16,8.38-8.79,4.62-15.89-7.62-3.06,0-18.16-7.53-21.32-7.53-1.19-9.34-9.79-26.66-16.94-39.31-18-24.15-2-45.53.41-64.43,18C28.89,23.13,22,29.07,18.24,34.74,7.71,50.62.7,73.63,6.05,93.28a68.58,68.58,0,0,0,8,17.56c1.86,3,3.87,6,5.94,8.91.88,1.23,5.32,8.94,6.58,8.94C122.5,128.69,152.24,130,152.24,130Z"/><path class="cls-6" d="M163.15,102.83a142.68,142.68,0,0,0-.94-15.39C160,74,151.11,69.28,151.11,69.28c4.32,4.54,6.39,13.82,6.39,19.34C147,86.06,131,70.31,128,56.06c2.16-7.51.94-10.07.94-10.07-9.32,28.13-44.23,39.08-57.22,39.08A63.17,63.17,0,0,0,92.2,59a65.1,65.1,0,0,1-7.53,9.47c-12.23,15.4-38.77,24-45.92,22.11,21-11.84,23.15-30,23.15-30-7.15,15.6-29,30.2-44.23,35.34-2.82-5.53,0-23.3,0-23.3C13,80.92,14.85,96.71,15.79,106a10.64,10.64,0,0,0-5.16-1.14c1,2,2.18,4,3.37,6,1.86,3,3.87,6,5.94,8.91.88,1.23,5.32,8.94,6.58,8.94,96,0,125.72,1.28,125.72,1.28s11.56-6.26,17.38-25.77C165.59,102,163.15,102.83,163.15,102.83Z"/><path class="cls-2" d="M17.67,98.29c0,44.37,30.49,68.48,70.2,68.48s71.89-28.25,71.89-72.62c0,0-25.59-8.29-34-35.63C117.7,73.23,92.86,92.77,67.73,87.14c-15.81,7.7-28.23,9.48-32.18,5.33C27.65,96.91,17.67,98.29,17.67,98.29Z"/><path class="cls-2" d="M153.69,114.27s6.73-12.33,17.18-5.47,5.79,19.47,0,24.1-22,8.78-22.29-3.93C150.83,121.68,153.69,114.27,153.69,114.27Z"/><path class="cls-1" d="M170.87,108.8c-10.45-6.86-17.18,5.47-17.18,5.47l-.1.24s8.15-9.5,17.69-3.66-.07,21.73-5.5,22.82-14.13,3.11-17.17-4.7c.26,12.71,16.54,8.57,22.29,3.93S181.32,115.66,170.87,108.8Z"/><path class="cls-7" d="M157.64,120.33a12.18,12.18,0,0,1,2.84-4.54.93.93,0,0,1,.14-.14,7.27,7.27,0,0,1,4.41-2,6,6,0,0,1,1.95.17,1,1,0,0,1,.7,1.18.82.82,0,0,1-1.05.67l-.06,0a4.92,4.92,0,0,0-1.29-.07,5.61,5.61,0,0,0-2.38.76,15.33,15.33,0,0,1,1.67,1.25,11,11,0,0,1,3.78,6.88,6.12,6.12,0,0,1,.06.63.85.85,0,0,1-.77,1h-.06a1,1,0,0,1-1-1c0-.16,0-.32-.05-.49a8.82,8.82,0,0,0-3.08-5.56,11,11,0,0,0-1.82-1.3l-.27-.15a11.69,11.69,0,0,0-2.1,3.57.82.82,0,0,1-.71.54,1,1,0,0,1-.46-.09A1,1,0,0,1,157.64,120.33Z"/><path class="cls-2" d="M23.4,114.27s-6.74-12.33-17.19-5.47-5.78,19.47,0,24.1,22,8.78,22.29-3.93C26.26,121.68,23.4,114.27,23.4,114.27Z"/><path class="cls-1" d="M6.21,108.8c10.45-6.86,17.19,5.47,17.19,5.47l.09.24s-8.14-9.5-17.68-3.66.07,21.73,5.49,22.82,14.14,3.11,17.17-4.7c-.25,12.71-16.53,8.57-22.29,3.93S-4.24,115.66,6.21,108.8Z"/><path class="cls-7" d="M19.45,120.33a12.31,12.31,0,0,0-2.84-4.54,1,1,0,0,0-.15-.14,7.25,7.25,0,0,0-4.4-2,6.08,6.08,0,0,0-2,.17A1,1,0,0,0,9.4,115a.83.83,0,0,0,1.06.67l.06,0a4.83,4.83,0,0,1,1.28-.07,5.65,5.65,0,0,1,2.39.76,14.42,14.42,0,0,0-1.67,1.25,11,11,0,0,0-3.78,6.88c0,.2-.05.41-.07.63a.86.86,0,0,0,.77,1H9.5a1,1,0,0,0,1-1c0-.16,0-.32.06-.49a8.82,8.82,0,0,1,3.08-5.56,10.6,10.6,0,0,1,1.82-1.3l.27-.15a11.89,11.89,0,0,1,2.1,3.57.81.81,0,0,0,.7.54.93.93,0,0,0,.46-.09A1.05,1.05,0,0,0,19.45,120.33Z"/><path class="cls-8" d="M135.08,114.28a11,11,0,1,1-3.56-15.55A11.28,11.28,0,0,1,135.08,114.28Z"/><path class="cls-9" d="M132.24,103.18c-.44,1.89-3.34,2.92-6.48,2.29s-5.35-2.68-4.91-4.57,3.34-2.92,6.48-2.29S132.68,101.28,132.24,103.18Z"/><path class="cls-8" d="M63.94,114.28A11,11,0,1,1,45,103a11,11,0,1,1,18.92,11.25Z"/><path class="cls-9" d="M61.1,103.18c-.43,1.89-3.34,2.92-6.48,2.29s-5.35-2.68-4.91-4.57S53.05,98,56.2,98.61,61.54,101.28,61.1,103.18Z"/><path class="cls-8" d="M115.24,90.8a1.44,1.44,0,0,1-.58-2h0a20.42,20.42,0,0,1,2.79-3.48h0a13.71,13.71,0,0,1,7.64-4.21h0a16.6,16.6,0,0,1,2.2-.15h0A13,13,0,0,1,139,87.5h0a1.43,1.43,0,0,1-.67,2h0a1.61,1.61,0,0,1-2.12-.63h0a9.85,9.85,0,0,0-8.91-5h0a13.32,13.32,0,0,0-1.75.12h0a10,10,0,0,0-5.19,2.73h0A19.14,19.14,0,0,0,117.53,90h0l-.14.21h0A1.59,1.59,0,0,1,116,91h0a1.69,1.69,0,0,1-.78-.19Z"/><path class="cls-7" d="M88.16,130.42a16.1,16.1,0,0,1-12.24-7.33h0a1.05,1.05,0,0,1,.32-1.42h0a1,1,0,0,1,1.36.33h0l.14.22h0c.1.16.27.39.48.67h0a15.78,15.78,0,0,0,2,2.09h0a13.64,13.64,0,0,0,8.08,3.37h0c3.64.23,5.85-.93,7.27-2.39h0a7.49,7.49,0,0,0,2-4.41h0a1,1,0,0,1,1-1h0a1,1,0,0,1,.93,1.09h0A9.5,9.5,0,0,1,97,127.43h0c-1.78,1.88-4.66,3.27-8.74,3h0Z"/><path class="cls-7" d="M53.53,142.19a1.06,1.06,0,0,1,.41-1.4h0a1,1,0,0,1,1.33.43h0l0,.09h0l.18.3h0a12.92,12.92,0,0,0,.82,1.17h0a21,21,0,0,0,3.74,3.68h0c3.55,2.75,9.35,5.67,18.44,6.22h0l1.84.08h0c10,.23,20.26-.31,28.48-2.62h0c8.25-2.32,14.28-6.34,16.26-12.9h0a1,1,0,0,1,1.25-.67h0a1,1,0,0,1,.64,1.3h0c-2.32,7.57-9.13,11.89-17.64,14.27h0c-8.54,2.4-19,2.92-29,2.69h0c-.65,0-1.29,0-1.91-.08h0c-18.89-1.14-24.74-12.36-24.81-12.56Z"/><path class="cls-7" d="M129.78,136.9h0s0-.07-.05-.14h0a6.66,6.66,0,0,0-.35-.74h0a20.77,20.77,0,0,0-2.38-3.31h0a2,2,0,0,0-1.43-.82h0c-1.12-.15-2.72,1.32-3,1.71h0l-.06.07h0a1,1,0,0,1-1.39.12h0a1.06,1.06,0,0,1-.11-1.46h0a8.45,8.45,0,0,1,1.34-1.29h0a5.17,5.17,0,0,1,3.35-1.22h0a4,4,0,0,1,2.79,1.51h0c2.73,3.22,3.17,4.86,3.22,5.08h0a1,1,0,0,1-.73,1.25h0a1.43,1.43,0,0,1-.29,0h0a1,1,0,0,1-.9-.79Z"/></g></g></svg>