<svg xmlns="http://www.w3.org/2000/svg" viewBox="0 0 168.16 268"><defs><style>.cls-1{fill:#f2ac30;}.cls-2{fill:#dd992a;}.cls-3{fill:#e59d29;}.cls-4{fill:#c18329;}.cls-5{fill:#cc8723;}.cls-6{fill:#f7cea6;}.cls-7{fill:#ffbc36;}.cls-8{fill:#ce952e;}.cls-9{fill:#e0605c;}.cls-10{fill:#ad3936;}.cls-11{fill:#44302c;}.cls-12{fill:#47413e;}.cls-13{fill:#e0b592;}.cls-14{fill:#f9f7f2;}.cls-15{fill:#b57e26;}.cls-16{fill:#d15656;}</style></defs><title>资源 105</title><g id="图层_2" data-name="图层 2"><g id="Layer_1" data-name="Layer 1"><path class="cls-1" d="M142.85,208.4c-3.17-32.9-22.4-33.38-22.4-33.38H83.31l-.75,93h40.8c-2-17.28-5-44.05-5-50.29,0-9.39,2.58-9.33,4.74-.31,1.18,4.9,2.89,32.71,7.16,50.6h21C148.32,249.88,143.31,213.19,142.85,208.4Z"/><path class="cls-2" d="M117,193.8a198.71,198.71,0,0,0,1.3,22.36c.28-7.8,2.68-7.25,4.72,1.24.12.51.25,1.28.39,2.26h0C124,202.56,117,179.61,117,193.8Z"/><path class="cls-1" d="M25.46,208.4C28.63,175.5,47.86,175,47.86,175H85l.74,93H45c2-17.28,5-44.05,5-50.29,0-9.39-2.58-9.33-4.74-.31-1.18,4.9-2.89,32.71-7.16,50.6h-21C20,249.88,25,213.19,25.46,208.4Z"/><path class="cls-2" d="M51.27,193.8A196.49,196.49,0,0,1,50,216.16c-.27-7.8-2.67-7.25-4.71,1.24a21.45,21.45,0,0,0-.39,2.26h0C44.29,202.56,51.3,179.61,51.27,193.8Z"/><rect class="cls-3" x="75.05" y="176.87" width="15.93" height="91.13"/><rect class="cls-4" x="83.24" y="175.16" width="1.28" height="92.84"/><path class="cls-5" d="M52.83,177.6s2.19-8.74,0-10.8,3.29-3.6,19.17-3.6h28.63c3.59,0,10-.46,13.26,1.59,3,1.88-1,5.89,2.22,9.24,4.43,4.61-8.09,6.21-12.59,7.06A114.53,114.53,0,0,1,89,183C76.76,183.66,64.3,182.3,52.83,177.6Z"/><path class="cls-6" d="M17.19,83.46S3.05,171.33,82.32,175c27-.62,89.11-30.11,66.37-96.48C148.69,78.54,89.7,55.8,17.19,83.46Z"/><path class="cls-7" d="M13.81,89.6H153s9.53-57.15-29.49-73.74S12,7.57,13.81,89.6Z"/><path class="cls-8" d="M81,9.05C46.84,11.4,12.53,32.85,13.81,89.6H28.42C27.43,74.17,28.5,24.35,81,9.05Z"/><path class="cls-8" d="M81.85,9c-1.18.07-2.36.16-3.55.27C39.15,33.52,37.18,78.11,37.36,89.6H57.81C57.39,47.6,75.42,18.15,81.85,9Z"/><path class="cls-8" d="M81.35,9c2,11.64,4,36.31-1.82,80.57h19C100,76.78,102.64,37.85,85.12,8.85,83.86,8.88,82.6,9,81.35,9Z"/><path class="cls-8" d="M90,8.86c-1.36,0-2.72,0-4.09,0,13.83,9.85,32.08,32,33.24,80.76h16.12C136.73,75.06,136.77,31.81,90,8.86Z"/><path class="cls-8" d="M123.5,15.86a93.85,93.85,0,0,0-35.94-7c23.22,4.26,59.09,20.62,60.7,80.77H153S162.52,32.45,123.5,15.86Z"/><path class="cls-8" d="M95.26,6.88c0,3.79-4.05,6.87-9.05,6.87s-9-3.08-9-6.87,4-6.88,9-6.88S95.26,3.08,95.26,6.88Z"/><path class="cls-9" d="M73.54,147.8H98.23s1.36,17.06-11.67,18.52C76.25,167.15,73.67,154.46,73.54,147.8Z"/><path class="cls-10" d="M86.56,166.32a11.45,11.45,0,0,0,8.8-5.43c-2.23-4.34-5.69-7.13-9.57-7.13-3.72,0-7.05,2.57-9.29,6.62C78.48,164,81.63,166.71,86.56,166.32Z"/><polygon class="cls-11" points="59.28 92.75 60.37 98.58 30.6 103.91 32.38 96.12 59.28 92.75"/><polygon class="cls-11" points="111.81 92.75 110.72 98.58 140.5 103.91 138.71 96.12 111.81 92.75"/><path class="cls-12" d="M136.32,119.42A23.24,23.24,0,0,0,133,115a17.42,17.42,0,0,0-3.92-3.1,10.9,10.9,0,0,0-5.32-1.47,11.08,11.08,0,0,0-6.22,2,24.61,24.61,0,0,0-6.43,6.86,1.38,1.38,0,0,0,2.3,1.54,21.71,21.71,0,0,1,5.67-6.1,8.21,8.21,0,0,1,4.68-1.58,8.09,8.09,0,0,1,4,1.12,16.38,16.38,0,0,1,4.53,4,19.46,19.46,0,0,1,1.26,1.74l.33.52.08.13v0h0l.32-.19-.32.19h0l.32-.19-.32.19a1.38,1.38,0,0,0,2.41-1.34Z"/><path class="cls-12" d="M61.11,119.42A23.24,23.24,0,0,0,57.75,115a17.42,17.42,0,0,0-3.92-3.1,10.87,10.87,0,0,0-5.32-1.47,11.08,11.08,0,0,0-6.22,2,24.47,24.47,0,0,0-6.43,6.86,1.38,1.38,0,0,0,2.3,1.54,21.71,21.71,0,0,1,5.67-6.1,8.21,8.21,0,0,1,4.68-1.58,8.09,8.09,0,0,1,4,1.12,16.38,16.38,0,0,1,4.53,4,19.46,19.46,0,0,1,1.26,1.74l.33.52.07.13,0,0h0l.33-.19-.33.19h0l.33-.19-.33.19a1.38,1.38,0,0,0,2.42-1.34Z"/><path class="cls-13" d="M80.77,109.07c-1.72,3.49-2.43,7.23-3.67,10.85s-4.69,7.72-3.11,11.73c1.42,3.61,5.66,4.95,9.65,5.15,10.8.53,15.7-3.39,12.7-12.92C95,119.72,87.44,95.55,80.77,109.07Z"/><path class="cls-6" d="M81.79,107.92c-1.46,3.13-2.08,6.49-3.14,9.74s-3.94,7-2.68,10.53c1.14,3.22,4.61,4.39,7.9,4.54,8.9.39,13-3.16,10.6-11.68C93.43,117.34,87.43,95.75,81.79,107.92Z"/><path class="cls-14" d="M83.31,128.14c.12.5,1.31.72,2.67.48s2.38-.83,2.26-1.33-1.31-.72-2.67-.48S83.2,127.64,83.31,128.14Z"/><rect class="cls-15" x="13.5" y="81.92" width="143.18" height="8.3"/><path class="cls-9" d="M158.1,97.54A18.67,18.67,0,0,1,166,105.8c3.35,7.46,2.09,16.75.73,24.55-1.09,6.23-2.94,15.33-9,18.78-4.43,2.51-11.53.31-15.09-2.63-6-4.93,0-12.31,1.74-18.18a60,60,0,0,0,2.44-17.26c0-3.31-1.12-9.56,1.34-12.6a4.07,4.07,0,0,1,1-.94,6.61,6.61,0,0,1,.77-.44c0-3.49-.15-7.52-.17-7.84-.58-10.26-.69-20.62-2.47-30.76a74.45,74.45,0,0,0-8.76-23.64c-3.78-6.72-9.08-14.81-14.95-18.92a38.23,38.23,0,0,1,6.9,3.08,31.08,31.08,0,0,1,6.21,4.61,60.72,60.72,0,0,1,11.16,15.2c7.69,14.21,10.84,29.53,10.86,45.63C158.75,85.72,157.58,97.28,158.1,97.54Z"/><path class="cls-16" d="M158,119.4c1.18-10.82,4.37-14.7,6.52-16.1a14.56,14.56,0,0,1,1.46,2.5c3.35,7.46,2.09,16.75.73,24.55-1.07,6.15-2.9,15.08-8.78,18.63C154.27,141.68,156.66,132,158,119.4Z"/><path class="cls-9" d="M10.07,97.54a18.64,18.64,0,0,0-7.93,8.26c-3.35,7.46-2.09,16.75-.73,24.55,1.09,6.23,2.94,15.33,9,18.78,4.43,2.51,11.53.31,15.09-2.63,6-4.93,0-12.31-1.74-18.18a60,60,0,0,1-2.44-17.26c0-3.31,1.12-9.56-1.34-12.6a4.07,4.07,0,0,0-1-.94,6.61,6.61,0,0,0-.77-.44c0-3.49.15-7.52.17-7.84a165.2,165.2,0,0,1,5.12-31.86A80.32,80.32,0,0,1,37.3,29.2c2.13-2.84,5.07-8,8.46-9.65C7.91,38,8.61,82.28,10.07,97.54Z"/><path class="cls-16" d="M10.12,119.4c-1.18-10.82-4.37-14.7-6.52-16.1a14.56,14.56,0,0,0-1.46,2.5c-3.35,7.46-2.09,16.75-.73,24.55,1.07,6.15,2.9,15.08,8.79,18.63C13.89,141.68,11.5,132,10.12,119.4Z"/></g></g></svg>