<svg xmlns="http://www.w3.org/2000/svg" viewBox="0 0 170.76 292.95"><defs><style>.cls-1{fill:#7f5732;}.cls-2{fill:#9e6f4c;}.cls-3{fill:#eae5dc;}.cls-4{fill:#ddb58e;}.cls-5{fill:#393c3d;}.cls-6{fill:#f4d3b0;}.cls-7{fill:#f2d0af;}.cls-8{fill:#492020;}.cls-9{fill:#c65044;}</style></defs><title>资源 268</title><g id="图层_2" data-name="图层 2"><g id="Layer_1" data-name="Layer 1"><path class="cls-1" d="M51.17,186.27c-7.21,1-29.27,96.24-29,100.21.09,1.53,1.66,4.27,4.29,6.47h18c.33-.24.66-.49,1-.76l15.22-97.48S58.37,185.26,51.17,186.27Z"/><path class="cls-1" d="M119,186.27c-7.2-1-9.51,8.44-9.51,8.44l15.22,96.55A25.27,25.27,0,0,0,127,293h16.28c2.87-2.07,4.59-4.87,4.69-6.47C148.23,282.51,126.17,187.29,119,186.27Z"/><path class="cls-2" d="M85.38,179c-6.75-.11-25.29.43-28.83,9.52-4.35,11.16-18.07,94-17,99.12a6.75,6.75,0,0,0,4.8,5.27h82.1a6.75,6.75,0,0,0,4.8-5.27c1.05-5.08-12.67-88-17-99.12C110.67,179.47,92.13,178.93,85.38,179Z"/><path class="cls-3" d="M48.66,225.21H75.82V213.8h-25C50.09,217.43,49.38,221.27,48.66,225.21Z"/><rect class="cls-3" x="78.8" y="213.8" width="19.35" height="11.41"/><path class="cls-3" d="M120,213.8H101.86v11.41H122.1C121.38,221.27,120.67,217.43,120,213.8Z"/><path class="cls-3" d="M42.33,263.41H90.11V232.9H47.3C45.47,243.41,43.71,254.2,42.33,263.41Z"/><path class="cls-3" d="M123.46,232.9H112.11v30.51h16.32C127.05,254.2,125.29,243.41,123.46,232.9Z"/><rect class="cls-3" x="97.04" y="232.9" width="9.53" height="30.51"/><path class="cls-3" d="M39.53,287.68a6.75,6.75,0,0,0,4.8,5.27H64.82v-21.2H41.12C39.92,280.34,39.27,286.42,39.53,287.68Z"/><path class="cls-3" d="M86.82,271.75V293h39.61a6.75,6.75,0,0,0,4.8-5.27c.26-1.26-.39-7.34-1.59-15.93Z"/><rect class="cls-3" x="71.75" y="271.75" width="9.53" height="21.19"/><path class="cls-3" d="M104.21,191.33c0,9.08-8.43,16.44-18.83,16.44s-18.83-7.36-18.83-16.44S75,174.89,85.38,174.89,104.21,182.25,104.21,191.33Z"/><path class="cls-4" d="M99.48,191.33c0,6.8-6.32,12.3-14.1,12.3s-14.1-5.5-14.1-12.3S77.59,179,85.38,179,99.48,184.54,99.48,191.33Z"/><path class="cls-5" d="M13.7,131.21S2.4,112.85,0,96.24L6.85,99s-3.73-5-3.73-7.69,3.73-30,3.73-30S13.7,74.41,17.31,75.9c0,0-2.17-4.71-1.69-8.44S29.36,32.24,29.36,32.24l5.23,14.39S55.52,12.9,79.08,1.24l-5,24.06S114.25,0,121.18,0L118,31.5s10.34-8.43,13.7-18.85c0,0,8.52,9.67,12.92,36.21L150,31.75s14.18,20.34,12.26,42.41L167.53,67s11.77,32.43-9.62,59.13Z"/><path class="cls-6" d="M25,124.87s-4.39-10.33-13.72-4.52-4.16,44.52,18,48.78Z"/><path class="cls-6" d="M145.78,124.87s4.38-10.33,13.71-4.52,4.16,44.52-18,48.78Z"/><path class="cls-7" d="M135.14,88.8c4.14,5.45,1.82,12.89,1.82,12.89-9.75-8.43-18.52-7.6-18.52-7.6,6.12,4.63,7.94,8.27,7.94,8.27a182.55,182.55,0,0,0-33.89-9.6l15.7,10.09c-22.49,2.15-39-2.31-39-2.31l11.24,5C57.59,110,42.21,93.43,39.9,90.78s-9.26-3.31-10.64-3.31c-.75,0-3.92,4.44-6.71,8.55v46.39C25,191.56,63.73,193.22,85.38,193s60.43-1.41,62.82-50.56V94.31C140.5,88.47,135.14,88.8,135.14,88.8Z"/><circle class="cls-5" cx="110.72" cy="133.32" r="18.23"/><polygon class="cls-5" points="148.2 126.1 124.01 127.63 124.14 129.61 148.2 128.08 148.2 126.1"/><path class="cls-5" d="M95.47,131.21c-.36-.32-8.84-7.66-19-.91l-1.1-1.65c11.42-7.61,21.29,1,21.39,1.08Z"/><circle class="cls-5" cx="60.04" cy="133.32" r="18.23"/><polygon class="cls-5" points="22.55 128.08 46.62 129.61 46.75 127.63 22.55 126.1 22.55 128.08"/><path class="cls-5" d="M33.76,112.85a25.42,25.42,0,0,1-2.7-.13l.48-3.94a33.68,33.68,0,0,0,18.86-4.34l2,3.43A37.7,37.7,0,0,1,33.76,112.85Z"/><path class="cls-5" d="M135,112.85a25.2,25.2,0,0,0,2.7-.13l-.48-3.94a33.65,33.65,0,0,1-18.85-4.34l-2,3.43A37.75,37.75,0,0,0,135,112.85Z"/><path class="cls-4" d="M76.59,153s1.54-7.86,8.79-7.86S94.17,153,94.17,153s-3.66-4.15-8.79-4.15S76.59,153,76.59,153Z"/><path class="cls-8" d="M67.11,165s9.09,1.16,15.54,0,17.86-4.46,17.86-4.46-.83,9.59,3.14,12.4a41.38,41.38,0,0,1-19,6.45c-11.08.83-13.23,2.65-13.23,2.65S74.55,176.27,67.11,165Z"/><path class="cls-9" d="M89.12,172.07c-6.14-1.7-14.64,2.2-15.29,9a54.59,54.59,0,0,1,10.81-1.64,40.63,40.63,0,0,0,12.06-2.86A19.37,19.37,0,0,0,89.12,172.07Z"/></g></g></svg>