<svg xmlns="http://www.w3.org/2000/svg" viewBox="0 0 202.55 259.68"><defs><style>.cls-1{fill:#f4d3b0;}.cls-2{fill:#f9dab4;}.cls-3{fill:#efc4a0;}.cls-4{fill:#c65044;}.cls-5{fill:#ea9628;}.cls-6{fill:#d88725;}.cls-7{fill:#515151;}.cls-8{fill:#3a332d;}.cls-9{fill:#e8dfd9;}</style></defs><title>资源 346</title><g id="图层_2" data-name="图层 2"><g id="Layer_1" data-name="Layer 1"><path class="cls-1" d="M19.69,190.91c-6.33,22.37-9.15,51-10.83,68.77H36.61C39.85,217.21,44,160.47,44,160.47S29.49,156.27,19.69,190.91Z"/><path class="cls-1" d="M120.53,190.91c-9.8-34.64-24.3-30.44-24.3-30.44s4.14,56.74,7.37,99.21h27.76C129.68,241.91,126.85,213.28,120.53,190.91Z"/><path class="cls-2" d="M70.11,145.8l-.22,0v0c-9.78.05-19.1,5.89-25.08,8.94C31,161.82,28.44,231.7,28,259.68h84.24c-.45-28-3-97.86-16.82-104.93-6-3.05-15.3-8.89-25.09-8.94v0Z"/><path class="cls-1" d="M54.08,167.14a50.06,50.06,0,0,0,16.24,2,66.12,66.12,0,0,0,30-8.47c-1.46-2.87-3.07-4.94-4.9-5.87-6-3.05-15.29-8.89-25.08-8.94v0l-.21,0-.22,0v0c-9.79.05-19.1,5.89-25.09,8.94-1.84.94-3.47,3.05-4.94,6C43.16,164.32,49.54,165.8,54.08,167.14Z"/><path class="cls-3" d="M64.51,218.62a11.24,11.24,0,0,1-1.05.74,22,22,0,0,1-3,1.61,32,32,0,0,1-4.5,1.6c-.85.22-1.72.49-2.62.68l-2.74.46a36.44,36.44,0,0,1-5.43.44,26.83,26.83,0,0,1-4.76-.16,39.15,39.15,0,0,1-4.6-.71,40.31,40.31,0,0,1,4.55-.9l2.18-.29c.78-.14,1.59-.29,2.42-.39s1.7-.27,2.59-.34,1.76-.29,2.65-.42c1.79-.2,3.56-.49,5.22-.77s3.21-.55,4.57-.73Z"/><path class="cls-3" d="M75.71,218.62l4.52.82c1.36.18,2.89.52,4.57.73s3.43.57,5.22.77c.89.13,1.76.34,2.65.42s1.75.23,2.59.34,1.64.25,2.41.39l2.19.29a40.31,40.31,0,0,1,4.55.9,39.62,39.62,0,0,1-4.6.71,26.86,26.86,0,0,1-4.76.16,36.68,36.68,0,0,1-5.44-.44l-2.74-.46c-.89-.19-1.76-.46-2.61-.68a32.11,32.11,0,0,1-4.51-1.6,22.38,22.38,0,0,1-3-1.61A9.7,9.7,0,0,1,75.71,218.62Z"/><path class="cls-3" d="M48.47,170.09a11.19,11.19,0,0,1,3.33-.5,15,15,0,0,1,3.44.33,15.43,15.43,0,0,1,3.82,1.34,11.74,11.74,0,0,1,3.26,2.56,7.43,7.43,0,0,1,1.12,1.57,6,6,0,0,1,.71,1.56,6.6,6.6,0,0,1,.39,2.47c0,.6,0,.93,0,.93s-.2-.29-.5-.78q-.23-.36-.51-.87c-.25-.3-.52-.64-.77-1a10.41,10.41,0,0,0-1-1.07,15.2,15.2,0,0,0-1.17-1c-.37-.38-.92-.6-1.34-1s-1-.59-1.51-.86-1-.57-1.59-.78-1.07-.49-1.61-.68c-1.07-.43-2.1-.78-3-1.11Z"/><path class="cls-3" d="M91.75,170.09l-3.09,1.08c-.9.33-1.93.68-3,1.11-.54.19-1.07.45-1.61.68s-1.06.52-1.59.78-1,.56-1.51.86-1,.6-1.35,1a13.36,13.36,0,0,0-1.16,1,10.41,10.41,0,0,0-1,1.07c-.26.36-.53.7-.77,1l-.51.87c-.3.49-.5.78-.5.78a8.6,8.6,0,0,1,0-.93,6.44,6.44,0,0,1,.4-2.47,6.31,6.31,0,0,1,.7-1.56,7.43,7.43,0,0,1,1.12-1.57,11.79,11.79,0,0,1,3.27-2.56A15.16,15.16,0,0,1,85,169.92a14.93,14.93,0,0,1,3.44-.33A11.28,11.28,0,0,1,91.75,170.09Z"/><path class="cls-3" d="M70.11,180.59a46.66,46.66,0,0,1,.8,5,103.35,103.35,0,0,1,.6,11.06,101,101,0,0,1-.6,11.07,46.66,46.66,0,0,1-.8,5,48,48,0,0,1-.81-5,103.77,103.77,0,0,1-.59-11.07,100.8,100.8,0,0,1,.6-11.06A46.66,46.66,0,0,1,70.11,180.59Z"/><path class="cls-3" d="M84.66,238.78a13.32,13.32,0,0,0-5.58-5.85,14.62,14.62,0,0,0-4-1.42c-.71-.1-1.46-.22-2.13-.27s-1.21-.08-2,0a39.86,39.86,0,0,0-4.11.59l-2,.7a6.22,6.22,0,0,0-1.88.88l-1.75,1.12a11.6,11.6,0,0,0-1.5,1.39,14.78,14.78,0,0,0-2.46,3.1,20.7,20.7,0,0,0-1.7,3.35c-.43,1.14-.73,2.29-1.07,3.38s-.44,2.21-.65,3.26-.24,2.08-.35,3.06a42.58,42.58,0,0,0-.09,5.35c0,.83.09,1.59.15,2.29h.76c0-.7.07-1.45.12-2.27.13-1.56.35-3.3.61-5.18.18-.94.37-1.91.56-2.91s.55-2,.84-3,.76-2,1.22-3a24.83,24.83,0,0,1,1.67-2.91,12.08,12.08,0,0,1,2.2-2.58,9.69,9.69,0,0,1,1.29-1.11l1.47-.9a4.61,4.61,0,0,1,1.56-.71l1.66-.56c1.14-.27,2.36-.29,3.53-.46.47,0,1.24,0,1.85,0s1.13.14,1.7.19a12.1,12.1,0,0,1,3.23,1.11A11.2,11.2,0,0,1,82.49,240c2.21,3.93,2.82,8.48,3,12.24.13,2.89.11,5.44,0,7.48h.77a45.09,45.09,0,0,0,.8-7.5,38.67,38.67,0,0,0-.34-6.39A20.8,20.8,0,0,0,84.66,238.78Z"/><path class="cls-3" d="M70.11,236.55s-.47,2.32-.8,5.8-.59,8.11-.6,12.75c0,1.54,0,3.08.08,4.58h2.64c0-1.5.07-3,.08-4.58,0-4.64-.25-9.28-.6-12.75S70.11,236.55,70.11,236.55Z"/><path class="cls-3" d="M60.77,248.79a18.35,18.35,0,0,1,2.92-.8,35.15,35.15,0,0,1,6.42-.6,34.26,34.26,0,0,1,6.41.6,17.14,17.14,0,0,1,2.92.8,17.65,17.65,0,0,1-2.92.81,34.32,34.32,0,0,1-6.41.59,35.22,35.22,0,0,1-6.42-.59A17.65,17.65,0,0,1,60.77,248.79Z"/><polygon class="cls-4" points="26.8 259.68 113.43 259.68 112.75 254.12 70.11 255.3 27.46 254.12 26.8 259.68"/><path class="cls-5" d="M122.74,18.48s20.76-11.66,30.33,14.7c0,0,14.93-2.34,15.86,18.2,0,0,9.34,3.26,6.3,15.16,0,0,7,3,4.43,11.2,0,0,5.6,2.57,2.34,10s-14.24,2.34-14-2.1,4.2-7.23,4.2-7.23-7.94,1.4-10.5-3,.23-12.6.23-12.6-10.87,2.8-9.05-10.5c0,0-7.28.93-11.48-4.2s-.7-14.7-.7-14.7-8.7,2.8-14,0S122.74,18.48,122.74,18.48Z"/><path class="cls-6" d="M145.47,31.23a3.55,3.55,0,0,1-1.33,1.07,6.76,6.76,0,0,1-3.41.52l-.27,0-.17.18-.67.74c.67-.18,1.08-.31,1.08-.31s-.22.61-.49,1.6a2,2,0,0,1,.22-.34L141,34a7.45,7.45,0,0,0,3.52-1,3.64,3.64,0,0,0,1.31-1.52,3.53,3.53,0,0,0,.26-1.91A4.23,4.23,0,0,1,145.47,31.23Z"/><path class="cls-6" d="M153.63,38.22a17.41,17.41,0,0,0,.22-3.1,16.42,16.42,0,0,0-.11-2,6.31,6.31,0,0,0-.67.06c-.23-.64-.47-1.23-.72-1.82,0,.26,0,.52,0,.8,0,1,.12,2,.07,3s0,2-.06,3,0,1.85-.15,2.6c-.19,1.51-.21,2.59-.21,2.59s.45-.93,1-2.44A16.29,16.29,0,0,0,153.63,38.22Z"/><path class="cls-6" d="M153.94,50a22.3,22.3,0,0,1-1.84,2,3.17,3.17,0,0,1-.52.45,12.07,12.07,0,0,0,1.3-.06c0,.3,0,.56-.07.84.08-.07.17-.13.25-.21a14.09,14.09,0,0,0,1.88-2.26,11.5,11.5,0,0,0,1.13-2.29,22.23,22.23,0,0,0,.52-2.42s-.57.85-1.23,2.07A18.36,18.36,0,0,1,153.94,50Z"/><path class="cls-6" d="M161.57,64a16.65,16.65,0,0,0,1.54-1.4,17.6,17.6,0,0,0,1.71-2,12.72,12.72,0,0,0,1.19-2,4.9,4.9,0,0,0,.51-1.58,5.79,5.79,0,0,0,.1-.6l-.36.52a7.86,7.86,0,0,1-.91,1.25c-.43.48-.89,1-1.48,1.61s-1.13,1.22-1.76,1.81L160.84,63a8.45,8.45,0,0,0,1.09-.18S161.77,63.28,161.57,64Z"/><path class="cls-6" d="M168.78,57.71c.21-.74.5-1.59.73-2.52a12.29,12.29,0,0,0,.46-2.95c0-.13,0-.24,0-.36a7.57,7.57,0,0,0-1.06-.5c0-.51-.09-1-.13-1.44-.08.72-.16,1.43-.22,2.17a19.11,19.11,0,0,1-.29,2.89c-.14.92-.19,1.79-.28,2.54-.13,1.5-.11,2.55-.11,2.55A24,24,0,0,0,168.78,57.71Z"/><path class="cls-6" d="M175.23,66.54a18,18,0,0,0,.46-2.5c-.22.4-.43.81-.66,1.23-.32.64-.75,1.2-1.05,1.81l-1.06,1.48c-.74.71-1.28,1.33-1.28,1.33s.18,0,.49-.17a9.27,9.27,0,0,0,1.31-.57c.43-.38,1-.79,1.52-1.33.25-.32.51-.67.76-1Z"/><path class="cls-6" d="M174.23,76.65c-1,.56-2.33,1.2-3.69,1.89l-.16.08a15.53,15.53,0,0,0,1.82-.18,12.4,12.4,0,0,0-1.76,1.67c.25-.12.5-.2.74-.33a14.43,14.43,0,0,0,2-1.19,10.12,10.12,0,0,0,1.56-1.33,4,4,0,0,0,.87-1.18,4.13,4.13,0,0,0,.24-.48s-.16.12-.46.31A6.44,6.44,0,0,1,174.23,76.65Z"/><path class="cls-6" d="M181.08,93a8.48,8.48,0,0,0-5.36,5.25c-1.88,5.65-.79,15.68,4.2,24.63l1.16-11.22,6.77,9.22L186.33,108l7.93,7-1.16-10.15,9.45,6.42S197.76,88.83,181.08,93Z"/><path class="cls-7" d="M185.5,91.71c-1.35,2-8,5.11-9.74,4.8s-2.52-1.49-1.6-3.24,8.15-4.79,9.74-4.8S186.85,89.75,185.5,91.71Z"/><path class="cls-7" d="M112.24,19.18s8.56-6.78,14.43-3.27,10.06,25.67,10.06,25.67l-10.06,2.56Z"/><path class="cls-5" d="M71.38,0H68.83C29.74.7.79,28.5.79,62.73a59.25,59.25,0,0,0,.89,10.2l4.09,47H41a77.52,77.52,0,0,0,27.83,5.56h0l1.06,0h.43c.36,0,.71,0,1.06,0h0a77.53,77.53,0,0,0,27.84-5.56h35.23l4.09-47a60.26,60.26,0,0,0,.89-10.2C139.43,28.5,110.48.7,71.38,0Z"/><path class="cls-1" d="M20.66,111.43s-8.31-10.67-17.57-5.71,3.56,37.4,21.85,40Z"/><path class="cls-1" d="M119.56,111.43s8.31-10.67,17.57-5.71-3.56,37.4-21.85,40Z"/><path class="cls-2" d="M114.37,150.3s-17.16,15.37-44.26,16a65.91,65.91,0,0,1-44.26-16c-6.69-6.85-10.62-17.57-10.62-28.94V51a35.13,35.13,0,0,1,26-10.58c16.5.38,28.87,10,28.87,10S86.5,40.07,100.85,40.22,125,51,125,51v70.33C125,132.73,121.06,143.45,114.37,150.3Z"/><path class="cls-5" d="M26.92,79s13.26-.26,23.79,3.45l1.13-6.57L29.17,71.54Z"/><path class="cls-5" d="M113.3,79S100,78.71,89.51,82.42l-1.13-6.57L111,71.54Z"/><path class="cls-8" d="M46.62,95.56a7.25,7.25,0,1,1-7.24-7.24A7.24,7.24,0,0,1,46.62,95.56Z"/><path class="cls-9" d="M40.57,90.52c.18.88-.9,1.83-2.41,2.14s-2.88-.16-3.06-1,.91-1.83,2.42-2.14S40.4,89.65,40.57,90.52Z"/><path class="cls-8" d="M108.08,95.56a7.25,7.25,0,1,1-7.24-7.24A7.24,7.24,0,0,1,108.08,95.56Z"/><path class="cls-9" d="M102,90.52c.17.88-.91,1.83-2.42,2.14s-2.88-.16-3.06-1,.91-1.83,2.42-2.14S101.86,89.65,102,90.52Z"/><path class="cls-3" d="M80.18,126.69a11.48,11.48,0,0,0-9.75-7.21C63.06,119,60,127.55,60,127.55s4.56-6.33,10.41-5.68A17.17,17.17,0,0,1,80.18,126.69Z"/><path class="cls-3" d="M31,138.83s1.28.25,3.52.64l4,.6c1.58.15,3.34.34,5.26.57l6.24.42,7,.08,7.4-.35,7.57-.94c2.38-.42,5-1.09,7.49-1.61s4.71-1.51,7-2.21,4.34-1.81,6.38-2.62,3.83-1.95,5.55-2.82l4.55-2.68c1.33-.84,2.45-1.64,3.39-2.27,1.84-1.32,2.87-2.13,2.87-2.13s-.86,1-2.52,2.56a67,67,0,0,1-7.47,5.87c-1.68,1-3.45,2.23-5.44,3.29s-4.1,2.22-6.43,3.1-4.77,1.91-7.26,2.54-4.92,1.23-7.66,1.74l-7.82.87L57,143.6c-2.47-.11-4.84-.34-7.09-.51l-6.29-.89A92.22,92.22,0,0,1,34.4,140C32.21,139.31,31,138.83,31,138.83Z"/><path class="cls-3" d="M59.49,151.66s1.48.21,3.56.39c1,.09,2.24.14,3.5.18a30.4,30.4,0,0,0,3.9-.22,21.62,21.62,0,0,0,3.78-.74,24.41,24.41,0,0,0,3.25-1.15c1-.38,1.75-.79,2.32-1.07s.93-.42.93-.42a12.55,12.55,0,0,1-2.39,2.84,6.94,6.94,0,0,1-1.45,1.11,9.18,9.18,0,0,1-1.8,1,11,11,0,0,1-2.08.76,13.05,13.05,0,0,1-2.24.44,16,16,0,0,1-4.44-.11,15.43,15.43,0,0,1-3.68-1.07A11,11,0,0,1,59.49,151.66Z"/><rect class="cls-3" x="68.71" y="83.82" width="2.8" height="37.09"/></g></g></svg>