<svg xmlns="http://www.w3.org/2000/svg" viewBox="0 0 186.98 274.41"><defs><style>.cls-1{fill:#f2ac2f;}.cls-2{fill:#ffc55f;}.cls-3{fill:#eb5f24;}.cls-4{fill:#f7cea6;}.cls-5{fill:#f9dab4;}.cls-6{fill:#292c2d;}.cls-7{fill:#472b18;}.cls-8{fill:#fff;}.cls-9{fill:#f9f7f2;}.cls-10{fill:#e5be9e;}.cls-11{fill:#f4c7a2;}.cls-12{fill:#393c3d;}.cls-13{fill:#f26d49;}</style></defs><title>资源 1</title><g id="图层_2" data-name="图层 2"><g id="Layer_1" data-name="Layer 1"><path class="cls-1" d="M129,158.45l-10.31.87.26,115.09h47.74c1-6.5,2-13.46,2.79-20,1.72-15,2.55-38.81-9-56.16C151,184.13,129,158.45,129,158.45Z"/><path class="cls-2" d="M136.51,175.46c-2.36-.11-.61,9.75-.61,9.75s5.52,37.73,9.36,44.63a32.61,32.61,0,0,1,8.49-.14,22.52,22.52,0,0,1,6.82,1.91c1.54.72,4.67,2.09,4.31,4.21a1.16,1.16,0,0,1-.42.76,1.05,1.05,0,0,1-.9.1,3.19,3.19,0,0,1-.81-.44,17.61,17.61,0,0,0-4.21-2.45,18.24,18.24,0,0,0-7.18-.92c-.89.07-3.61.24-3.69,1.56,3.36.16,6.34-.32,9.2,2.56.89.91,2.51,3.23,1.49,4.57s-3.8-1.11-4.65-1.65c-1.75-1.11-4-1.92-5.48-.14-1.88,2.24-2.6,5.6-3.21,8.37a66.85,66.85,0,0,0-1.51,11.62c-.12,2.75-.31,6,.71,8.61a28.09,28.09,0,0,0,3.3,6h14a69.3,69.3,0,0,0,6.35-26c.51-13.91-2-30.95-4.55-38.17C156.65,191.46,138.86,175.58,136.51,175.46Z"/><path class="cls-1" d="M25.49,198.3c-11.59,17.35-10.75,41.2-9,56.16.75,6.49,1.76,13.45,2.8,20H67l.26-115.09-10.31-.87S35,184.13,25.49,198.3Z"/><path class="cls-2" d="M49.42,175.46c-2.35.12-20.15,16-26.84,34.76C20,217.44,17.51,234.48,18,248.39a69.49,69.49,0,0,0,6.35,26h14a28,28,0,0,0,3.29-6c1-2.62.83-5.86.71-8.61a66.84,66.84,0,0,0-1.5-11.62c-.62-2.77-1.34-6.13-3.22-8.37-1.5-1.78-3.73-1-5.48.14-.85.54-3.65,3-4.64,1.65s.59-3.66,1.49-4.57c2.85-2.88,5.84-2.4,9.19-2.56-.08-1.32-2.79-1.49-3.68-1.56a18.26,18.26,0,0,0-7.19.92,17.74,17.74,0,0,0-4.2,2.45,3.25,3.25,0,0,1-.82.44,1,1,0,0,1-.89-.1,1.12,1.12,0,0,1-.42-.76c-.36-2.12,2.76-3.49,4.31-4.21a22.37,22.37,0,0,1,6.81-1.91,32.61,32.61,0,0,1,8.49.14c3.84-6.9,9.36-44.63,9.36-44.63S51.77,175.35,49.42,175.46Z"/><path class="cls-2" d="M146.54,274.41c-2.37-44.86-17.35-106.11-17.35-106.11l-68.38-.39c-9.9,23.34-17.45,81.93-20.29,106.5Z"/><path class="cls-1" d="M40.52,274.41H57.9c-6.38-2.85-10.87-7-11.37-12.94a216.83,216.83,0,0,1,.35-33.78C44,245.93,41.78,263.51,40.52,274.41Z"/><path class="cls-1" d="M130.29,274.41h16.25c-2.37-44.86-17.35-106.11-17.35-106.11l-2.94,0,4,17.92s13.69,54.32,7.44,74.94C135.85,267.3,133.34,271.52,130.29,274.41Z"/><path class="cls-3" d="M93.86,254.33a210.61,210.61,0,0,1-50-5.92c-1,7.21-1.84,13.87-2.52,19.49a230.75,230.75,0,0,0,52.57,6A230.31,230.31,0,0,0,146.12,268c-.48-6.37-1.17-13-2-19.62A209.26,209.26,0,0,1,93.86,254.33Z"/><path class="cls-3" d="M142.75,238.37c-.95-6.57-2-13.08-3.1-19.33A212.8,212.8,0,0,1,93.86,224a214.72,214.72,0,0,1-45.57-4.86c-1.11,6.49-2.13,13-3.06,19.32a233.48,233.48,0,0,0,48.63,5.06A233,233,0,0,0,142.75,238.37Z"/><path class="cls-1" d="M93.09,202c-10.32,0-16.15-4.31-19.22-7.92-7.42-8.73-5.7-20.87-5.48-22.23l1-6.06H116.8l1,6.06c.22,1.36,1.94,13.5-5.48,22.23C109.24,197.67,103.41,202,93.09,202Z"/><path class="cls-4" d="M75.52,173S72,194.75,93.09,194.75,110.66,173,110.66,173Z"/><path class="cls-5" d="M138.6,65.39c-17.13-7-26.42.88-44.12.31h0a86.55,86.55,0,0,0-26.2,3.82c-40.71,11-45.31,44.16-45.93,53.7-2.1,31.95,31.75,58.18,71.38,58.44s71.92-25.5,72.13-57.52C165.84,124.14,167.33,78.79,138.6,65.39Z"/><path class="cls-6" d="M119,102.34s4.49-2,12.15-1.65c7.41.34,13.58,3.69,13.9,2.1.56-2.84-3.37-7.74-9.49-10-5.76-2.1-10.9-.31-14.84,2.61S115,103.43,119,102.34Z"/><path class="cls-6" d="M69.88,102.34s-4.49-2-12.15-1.65c-7.4.34-13.57,3.69-13.89,2.1-.57-2.84,3.36-7.74,9.49-10,5.75-2.1,10.89-.31,14.83,2.61S73.84,103.43,69.88,102.34Z"/><path class="cls-7" d="M140.76,116.5a11.58,11.58,0,1,1-16.06-3.23A11.58,11.58,0,0,1,140.76,116.5Z"/><path class="cls-8" d="M132.9,113.79c1.15,1.73-.36,4.75-3.36,6.75s-6.38,2.22-7.53.49.36-4.75,3.37-6.75S131.75,112.07,132.9,113.79Z"/><path class="cls-7" d="M67.5,113.85a11.58,11.58,0,1,1-16-3.23A11.58,11.58,0,0,1,67.5,113.85Z"/><path class="cls-8" d="M59.65,111.14c1.15,1.73-.36,4.75-3.36,6.75s-6.38,2.22-7.53.49.36-4.75,3.37-6.75S58.5,109.41,59.65,111.14Z"/><path class="cls-4" d="M87.19,142.46h0a30.23,30.23,0,0,1,2.13-2.83,20.66,20.66,0,0,1,2-2,7.31,7.31,0,0,1,2-1.31,2,2,0,0,1,.77-.14,3.86,3.86,0,0,1,1.82.58,11.65,11.65,0,0,1,3,2.63,17.43,17.43,0,0,1,2.23,3.36,1,1,0,0,0,1.76-.86,19.25,19.25,0,0,0-3.58-4.94A11.79,11.79,0,0,0,96.9,135a5.8,5.8,0,0,0-2.78-.83,4,4,0,0,0-1.48.27A9.24,9.24,0,0,0,90,136.2a23.84,23.84,0,0,0-3.12,3.39c-.79,1-1.28,1.8-1.29,1.81a1,1,0,0,0,.3,1.36A1,1,0,0,0,87.19,142.46Z"/><path class="cls-9" d="M49.7,142.81a1.3,1.3,0,0,1-1.34,1.24L44,143.89a1.3,1.3,0,0,1-1.25-1.34h0a1.3,1.3,0,0,1,1.34-1.26l4.37.16a1.31,1.31,0,0,1,1.25,1.36Z"/><path class="cls-9" d="M143.82,143.41a1.3,1.3,0,0,1-1.34,1.25l-4.38-.17a1.28,1.28,0,0,1-1.24-1.34h0a1.28,1.28,0,0,1,1.34-1.25l4.37.16a1.3,1.3,0,0,1,1.25,1.35Z"/><path class="cls-8" d="M150.45,115.5a1.14,1.14,0,0,0,1.14,1.15h4.24A1.14,1.14,0,0,0,157,115.5h0a1.15,1.15,0,0,0-1.14-1.16h-4.24a1.15,1.15,0,0,0-1.14,1.16Z"/><path class="cls-8" d="M37.58,115.5a1.14,1.14,0,0,1-1.14,1.15H32.2a1.14,1.14,0,0,1-1.14-1.15h0a1.15,1.15,0,0,1,1.14-1.16h4.24a1.15,1.15,0,0,1,1.14,1.16Z"/><path class="cls-5" d="M156.67,144.76a23.81,23.81,0,0,0,20-.26c10.5-5.14,15.69-26.24,2.07-31.28S161,123.82,161,123.82Z"/><path class="cls-4" d="M163,138.35s4.32-23.12,14.43-15.13c6.2,4.9,2.52,11.75-3.24,14.56C170.58,139.54,165.89,139.7,163,138.35Z"/><path class="cls-10" d="M163.13,138.08l1.5-5.82s19.22-5.48,13.83,2.23S163.13,138.08,163.13,138.08Z"/><path class="cls-5" d="M30.06,143.44a23.8,23.8,0,0,1-20-.52C-.4,137.64-5.31,116.48,8.37,111.61s17.68,10.83,17.68,10.83Z"/><path class="cls-4" d="M23.81,136.94s-4-23.17-14.23-15.32c-6.27,4.83-2.68,11.72,3.05,14.61C16.22,138,20.92,138.25,23.81,136.94Z"/><path class="cls-10" d="M23.69,136.67l-1.42-5.84s-19.15-5.73-13.86,2S23.69,136.67,23.69,136.67Z"/><path class="cls-11" d="M93.33,168.71a61.27,61.27,0,0,1-7-.4,60.49,60.49,0,0,1-15-3.53,1.39,1.39,0,1,1,1.06-2.58h0c.23.1,23.52,9.41,43.89-1.9a1.39,1.39,0,0,1,1.35,2.44A49.94,49.94,0,0,1,93.33,168.71Z"/><path class="cls-12" d="M167.81,46.61c-13.4-19.94-31.45-32.28-73.74-32.28-20.82,0-34.39,1.71-45.28,7C39.08,26,36.13,37.12,36.13,37.12S27.3,35.78,21.37,44.9c-6.58,10.12-8.43,26-8.43,40.23,0,17.45,1.67,25.6,1.67,25.6l8.58,5.59c4.89-20.29,12.29-26.17,17-30C49,79.16,69.5,74.64,83.75,73.94c39.08-1.93,44.48,1.66,53.11,5.12s22.65,11.6,28,37.4l8.85-4.25s1.44-9.63,1.44-27.08C175.19,70.88,174.54,56.63,167.81,46.61Z"/><path class="cls-6" d="M165.47,43.28,132.77,77.4h0c27-2.22,38.49-24,38.5-24a33.73,33.73,0,0,0-3.46-6.77C167.05,45.48,166.27,44.36,165.47,43.28Z"/><path class="cls-12" d="M94.05,28s52.26-.26,54.15-28c0,0,23.07,12.72,17.27,43.28C158.94,77.65,101.64,94.38,73.06,75Z"/><path class="cls-12" d="M85.71,146.24s-13.44.48-16.79,15.13c-2.24,9.83-13.19,9.15-17.72,5.24-2.13-1.84-2.83-4.89-.64-7a5.89,5.89,0,0,1,4-1.18,3.33,3.33,0,0,1,3.28,3.29,3.28,3.28,0,0,1-3.28,3.28,4.17,4.17,0,0,1-.93-.13c-.71-.17-.25.44,0,.67a5,5,0,0,0,1.25.82,4.24,4.24,0,0,0,3.28.09s3.77-1.63,2.55-7.1c-.44-1.92-4-5.68-9.32-4.63-.38.08-.76.15-1.14.26a12.14,12.14,0,0,0-2.61,1.07,9.32,9.32,0,0,0-2.82,2.29,8.32,8.32,0,0,0-1.74,3.94,13.34,13.34,0,0,0,.59,6c.08.27.16.54.26.81a6.33,6.33,0,0,0,.55,1.25c.21.35.43.69.67,1a20.57,20.57,0,0,0,2.6,3,20.42,20.42,0,0,0,11,5.38,24.6,24.6,0,0,0,2.84.28,31,31,0,0,0,14-3.15S88.84,171.19,93,161.35C93,161.35,100.33,146.24,85.71,146.24Z"/><path class="cls-12" d="M102.42,146.24s13.44.48,16.79,15.13c2.24,9.83,13.19,9.15,17.72,5.24,2.13-1.84,2.83-4.89.65-7a5.93,5.93,0,0,0-4-1.18,3.33,3.33,0,0,0-3.28,3.29,3.28,3.28,0,0,0,3.28,3.28,4.17,4.17,0,0,0,.93-.13c.71-.17.25.44,0,.67a5,5,0,0,1-1.25.82,4.24,4.24,0,0,1-3.28.09s-3.77-1.63-2.54-7.1c.43-1.92,4-5.68,9.31-4.63.38.08.77.15,1.14.26a12.43,12.43,0,0,1,2.62,1.07,9.41,9.41,0,0,1,2.81,2.29,8.32,8.32,0,0,1,1.74,3.94,13.47,13.47,0,0,1-.58,6c-.09.27-.17.54-.27.81a6.33,6.33,0,0,1-.55,1.25c-.21.35-.43.69-.67,1a20.57,20.57,0,0,1-2.6,3,20.43,20.43,0,0,1-11,5.38,24.77,24.77,0,0,1-2.85.28,31,31,0,0,1-14-3.15s-13.28-5.74-17.42-15.58C95.15,161.35,87.8,146.24,102.42,146.24Z"/><path class="cls-13" d="M163.39,102.29c-26.12-9.15-61.85.7-61.85.7a30.35,30.35,0,0,1-6.86,1H92.77a30.35,30.35,0,0,1-6.86-1s-35.73-9.85-61.85-.7a26.38,26.38,0,0,0,0,8.68A1.33,1.33,0,0,0,25,112a5.74,5.74,0,0,1,3.59,3.8s1.63,6.55,2.16,9.56c0,0,.89,5.79,4.07,9,0,0,2.77,3.55,9.86,5.12a62.59,62.59,0,0,0,20.75,1s8.21-1,12.43-5a28.13,28.13,0,0,0,7.25-11.72s.81-2.38,2.53-7.53c0,0,.84-3.52,6.11-3.75,5.28.23,6.11,3.75,6.11,3.75,1.73,5.15,2.54,7.53,2.54,7.53a28.06,28.06,0,0,0,7.24,11.72c4.22,4,12.44,5,12.44,5a62.51,62.51,0,0,0,20.74-1c7.1-1.57,9.87-5.12,9.87-5.12,3.18-3.23,4.07-9,4.07-9,.52-3,2.16-9.56,2.16-9.56a5.74,5.74,0,0,1,3.59-3.8,1.35,1.35,0,0,0,.91-1.07A26.38,26.38,0,0,0,163.39,102.29ZM83.17,116.48S80.13,130.25,75,134c0,0-5,4.08-14.65,4.25,0,0-14.44.63-20.91-4.19,0,0-4.26-3-5.63-12.63,0,0-1.83-11.23.53-14.43,0,0,3.2-5.34,12.89-5.18a148.92,148.92,0,0,1,15,.5,78.5,78.5,0,0,1,15.74,3S86,107.6,83.17,116.48Zm70.46,5c-1.37,9.6-5.63,12.63-5.63,12.63-6.47,4.82-20.91,4.19-20.91,4.19-9.7-.17-14.65-4.25-14.65-4.25-5.12-3.76-8.17-17.53-8.17-17.53-2.83-8.88,5.23-11.11,5.23-11.11a78.38,78.38,0,0,1,15.74-3,148.92,148.92,0,0,1,15-.5c9.69-.16,12.89,5.18,12.89,5.18C155.46,110.21,153.63,121.44,153.63,121.44Z"/></g></g></svg>