<svg xmlns="http://www.w3.org/2000/svg" viewBox="0 0 226.01 272.58"><defs><style>.cls-1{fill:#f4d3b0;}.cls-2{fill:#efc4a0;}.cls-3{fill:#f9dab4;}.cls-4{fill:#515151;}.cls-5{fill:#f2ac2f;}.cls-6{fill:#82a6ce;}.cls-7{fill:#688cad;}</style></defs><title>资源 344</title><g id="图层_2" data-name="图层 2"><g id="Layer_1" data-name="Layer 1"><path class="cls-1" d="M109.46,201.9s63.32-31.27,94-121.54c0,0,7.29-2,8.73-5.43,3.62-8.5,2.78-23,5.43-43,3.71-28.07-2.11-43.42-17.47-7.94,0,0-8.48-28.6-18-23.31s-1.06,33.9-1.06,33.9-16-.53-17,9.53,17,20.12,17,20.12-8.55,39.86-47.7,70.25-49.14,37.21-49.14,37.21Z"/><path class="cls-2" d="M199.32,47.11C195.2,53.63,192,63,200,68.24c3.37,2.22,4.15,8.58,7.18,10.12.22.12.46.2.69.3,1.85-.92,3.74-2.17,4.4-3.73,3.2-7.51,2.93-19.72,4.65-36.3C210,38.26,203.19,41,199.32,47.11Z"/><path class="cls-2" d="M116.38,179c-.69-4.84,3.94-6.85,7.61-8.61,6.44-3.09,8.08-8.57,13-12.92,3.47-3,8-5.81,11-9.32,6.53-7.67,13.63-24,6.08-33.45a139.31,139.31,0,0,1-20.64,19.74c-39.15,30.38-49.14,37.21-49.14,37.21l25.18,30.24a91.81,91.81,0,0,0,10.84-6.23C118.85,190.11,117.18,184.66,116.38,179Z"/><path class="cls-1" d="M19.86,206.4c-5.9,20.85-9.12,46.5-11.13,66.18H40c3.49-46.25,7.47-100.73,7.47-100.73S31,167.08,19.86,206.4Z"/><path class="cls-3" d="M76.94,155.2l-.24,0v0c-11.11.06-21.68,6.68-28.47,10.15-14,7.16-17.81,70.95-18.83,107.22h95.09c-1-36.27-4.81-100.06-18.83-107.22-6.79-3.47-17.36-10.09-28.47-10.15v0Z"/><path class="cls-1" d="M112.8,175.61c-2-5.17-4.38-8.84-7.14-10.25-6.79-3.47-17.36-10.09-28.47-10.15v0l-.25,0-.24,0v0c-11.11.06-21.68,6.68-28.47,10.15-2.55,1.3-4.76,4.51-6.68,9.06C60.69,188,90.55,183.71,112.8,175.61Z"/><path class="cls-4" d="M147.13,76.39c-4.06-11-35.78-18.29-69.2-19v0l-1,0-1,0v0c-33.41.71-65.14,8-69.2,19-8.58,23.31,4.86,47.14,4.86,47.14L76,124.92v0l1,0,1,0v0l64.34-1.39S155.71,99.7,147.13,76.39Z"/><path class="cls-1" d="M20.75,121.37s-8.35-11.22-17.65-6S6.68,154.7,25,157.48Z"/><path class="cls-1" d="M133.14,121.37s8.35-11.22,17.65-6-3.57,39.33-21.94,42.11Z"/><path class="cls-3" d="M17,74v65.13A33.6,33.6,0,0,0,28.57,165S47.32,179.69,77,179.17,125.31,165,125.31,165a33.58,33.58,0,0,0,11.61-25.78V74Z"/><path class="cls-5" d="M150.27,83.51c0-.3,0-.59,0-.89,0-38.83-29.34-70.31-73.36-70.31S3.6,43.79,3.6,82.62c0,.3,0,.59,0,.89Z"/><polygon class="cls-6" points="16.97 115.19 38.66 115.72 38.82 109.37 16.97 108.83 16.97 115.19"/><polygon class="cls-6" points="136.92 108.83 115.07 109.37 115.22 115.72 136.92 115.19 136.92 108.83"/><path class="cls-6" d="M91.35,118.11c-13-6-29.55-1.38-29.72-1.33l-1.76-6.1c.76-.23,19-5.34,34.15,1.66Z"/><path class="cls-7" d="M122.52,113.39c0,8.66-7.6,15.69-17,15.69s-17-7-17-15.69,7.61-15.69,17-15.69S122.52,104.72,122.52,113.39Z"/><path class="cls-6" d="M122.52,110.41c0,7-6.61,12.71-14.76,12.71S93,117.43,93,110.41,99.6,97.7,107.76,97.7,122.52,103.39,122.52,110.41Z"/><path class="cls-7" d="M65.33,113.39c0,8.66-7.61,15.69-17,15.69s-17-7-17-15.69S39,97.7,48.35,97.7,65.33,104.72,65.33,113.39Z"/><path class="cls-6" d="M65.33,110.41c0,7-6.61,12.71-14.77,12.71S35.8,117.43,35.8,110.41,42.41,97.7,50.56,97.7,65.33,103.39,65.33,110.41Z"/><path class="cls-2" d="M87.56,133.2s-2.41-7.72-10.18-8.21-11,9.46-11,9.46,4.88-7.39,11-6.7A17.24,17.24,0,0,1,87.56,133.2Z"/><path class="cls-2" d="M44.43,146.65l2.81.49c1.78.32,4.34.63,7.4,1l5,.51,5.52.4,5.91.22,6.09-.08c2,0,4.09-.23,6.1-.34s4-.4,5.86-.58,3.72-.55,5.46-.78,3.37-.62,4.89-.87c6.06-1.16,10-2.37,10-2.37s-.91.51-2.57,1.25c-.85.33-1.86.8-3,1.23s-2.52,1-4,1.41-3.11,1-4.87,1.35-3.57.9-5.54,1.15-4,.71-6,.84-4,.35-6.21.43l-6.25,0-6-.46a97.8,97.8,0,0,1-10.54-1.76A67.89,67.89,0,0,1,44.43,146.65Z"/><path class="cls-2" d="M71.87,228.14a7.85,7.85,0,0,1-1,.67,19.27,19.27,0,0,1-2.72,1.46,28.76,28.76,0,0,1-4.09,1.45c-.76.2-1.55.45-2.36.62l-2.48.42a33.86,33.86,0,0,1-4.93.4A24.83,24.83,0,0,1,50,233a35.08,35.08,0,0,1-4.16-.64,36,36,0,0,1,4.12-.81l2-.27c.69-.13,1.43-.27,2.19-.36s1.54-.24,2.35-.31,1.59-.26,2.4-.37c1.62-.19,3.22-.45,4.73-.7s2.91-.5,4.14-.66Z"/><path class="cls-2" d="M82,228.14l4.1.75c1.23.16,2.62.46,4.14.66s3.11.51,4.73.7c.81.11,1.6.3,2.41.37s1.58.21,2.34.31,1.49.23,2.19.36l2,.27a36,36,0,0,1,4.12.81,35.06,35.06,0,0,1-4.17.64,24.68,24.68,0,0,1-4.31.15,33.86,33.86,0,0,1-4.93-.4l-2.48-.42c-.81-.17-1.6-.42-2.37-.62a29.06,29.06,0,0,1-4.08-1.45A19.27,19.27,0,0,1,83,228.81,7.85,7.85,0,0,1,82,228.14Z"/><path class="cls-2" d="M76.94,193.67a41.59,41.59,0,0,1,.73,4.56,93.32,93.32,0,0,1,.54,10,93.69,93.69,0,0,1-.53,10,42.86,42.86,0,0,1-.74,4.56,43.41,43.41,0,0,1-.72-4.56,90.94,90.94,0,0,1-.54-10,93.32,93.32,0,0,1,.54-10A43.41,43.41,0,0,1,76.94,193.67Z"/><path class="cls-2" d="M177.78,34.7l3.14.91h.31a31.92,31.92,0,0,1,8.36,1,8.57,8.57,0,0,1,3.31,1.64l.56.56a6.18,6.18,0,0,0,.4.64,4.28,4.28,0,0,1,.29,1.55l0,.43v.1c.05-.24,0,0,0,0l0,.26-.17,1.1a6.66,6.66,0,0,1-.67,1.51,5.57,5.57,0,0,1-1.15,1.43A9.2,9.2,0,0,1,190.57,47a22.83,22.83,0,0,1-8.26,2.4,16.48,16.48,0,0,0,9.18-.41,11.49,11.49,0,0,0,2.2-1.2A7.18,7.18,0,0,0,195.56,46a9.35,9.35,0,0,0,1.27-2.48l.26-1.08.06-.28a1.27,1.27,0,0,0,0-.28V41a7,7,0,0,0-.5-2.79L196,36.9a11.94,11.94,0,0,0-1-1,11.6,11.6,0,0,0-4.64-2.22,25.66,25.66,0,0,0-9.28-.17l-.26,0c.18.68.3,1.1.3,1.1A29.49,29.49,0,0,0,177.78,34.7Z"/><path class="cls-1" d="M221.86,70.12c-5.36,6.2-12.05,9.19-14.94,6.69s-.89-9.55,4.47-15.75,9.64-6.39,12.53-3.89S227.22,63.93,221.86,70.12Z"/><path class="cls-2" d="M214.65,66c3.8-2.52,5.93-5.82,7.85-9.73-2.8-1.36-6.56-.44-11.11,4.81a26.08,26.08,0,0,0-5.13,8.72A37,37,0,0,0,214.65,66Z"/><path class="cls-1" d="M218.27,59.12c-6.4,7.39-15,10.42-19.27,6.75s-2.49-12.64,3.91-20,12.15-7.09,16.39-3.42S224.66,51.72,218.27,59.12Z"/></g></g></svg>