<svg xmlns="http://www.w3.org/2000/svg" viewBox="0 0 209.81 269.12"><defs><style>.cls-1{fill:#efc4a0;}.cls-2{fill:#f9dab4;}.cls-3{fill:#7f5732;}.cls-4{fill:#936a4c;}.cls-5{fill:#4c3626;}.cls-6{fill:#d8d0c3;}.cls-7{fill:#e8e3d9;}.cls-8{fill:#515151;}.cls-9{fill:#f4d3b0;}</style></defs><title>资源 298</title><g id="图层_2" data-name="图层 2"><g id="Layer_1" data-name="Layer 1"><rect class="cls-1" x="83.95" y="168.14" width="41.93" height="33.2"/><polygon class="cls-2" points="62.22 196.69 75.55 199.44 67.17 269.12 52.93 269.12 62.22 196.69"/><polygon class="cls-2" points="147.74 196.69 134.41 199.44 142.79 269.12 157.03 269.12 147.74 196.69"/><path class="cls-3" d="M125.66,168.7,104.9,193,84.14,168.7c-8.89,4.55-19.26,12.79-28.19,27.68l17.53,10.74s-5,37.74-6.44,62h75.73c-1.46-24.26-6.45-62-6.45-62l17.54-10.74C144.93,181.49,134.56,173.25,125.66,168.7Z"/><polygon class="cls-4" points="104.9 193 118.65 196.69 124.57 169.97 104.9 193"/><path class="cls-5" d="M110.65,205.17a5.73,5.73,0,1,1-5.73-5.73A5.73,5.73,0,0,1,110.65,205.17Z"/><circle class="cls-5" cx="104.92" cy="228.65" r="5.73"/><path class="cls-5" d="M110.65,252.13a5.73,5.73,0,1,1-5.73-5.73A5.73,5.73,0,0,1,110.65,252.13Z"/><polygon class="cls-4" points="104.9 193 91.16 196.69 85.23 169.97 104.9 193"/><circle class="cls-6" cx="104.9" cy="8.31" r="8.31"/><path class="cls-7" d="M180.33,77.94S188.64,9.18,104.9,9.18,29.48,77.94,29.48,77.94c-8.7,2.76-36.08,20.37-28,26.52s103.43,5.31,103.43,5.31,95.37.85,103.44-5.31S189,80.7,180.33,77.94Z"/><polygon class="cls-8" points="104.9 36.21 33.74 82.11 45.07 129.15 104.9 129.15 164.74 129.15 176.06 82.11 104.9 36.21"/><path class="cls-9" d="M54.27,125.77s-5.58-4.78-10.71-2.3c-7.58,3.64.35,28.65,17,28.65Z"/><path class="cls-9" d="M155.83,125.77s5.58-4.78,10.71-2.3c7.57,3.64-.35,28.65-17,28.65Z"/><path class="cls-2" d="M159,134.48a40.26,40.26,0,0,1-28.3,35.17c-10,3.07-20.26,5.75-25.84,5.75S89,172.72,79.06,169.65a40.29,40.29,0,0,1-28.3-35.17L47.08,90.16H162.73Z"/><path class="cls-1" d="M100.81,157a122.69,122.69,0,0,1-20.26-1.53,1.18,1.18,0,1,1,.44-2.31,131.45,131.45,0,0,0,47.79-1.51,1.16,1.16,0,0,1,1.4.88,1.18,1.18,0,0,1-.88,1.41A129.48,129.48,0,0,1,100.81,157Z"/><path class="cls-1" d="M104.6,132.65c7,0,6.47,6.1,6.47,6.1a7.57,7.57,0,0,0-6.54-3.9,8.81,8.81,0,0,0-7,3.9S97.55,132.65,104.6,132.65Z"/><polygon class="cls-8" points="80.77 104.05 80.77 109.43 53.32 112.88 53.32 107.77 80.77 104.05"/><path class="cls-8" d="M63,130.52a1.16,1.16,0,0,1-1.16-1.05c-.05-.41-1-10,6.08-11.84,5.67-1.46,9.45,3.85,10.66,6.87a1.17,1.17,0,0,1-2.18.87c-.11-.27-2.81-6.77-7.9-5.47s-4.34,9.24-4.33,9.32a1.16,1.16,0,0,1-1,1.29Z"/><polygon class="cls-8" points="129.04 104.05 129.04 109.43 156.49 112.88 156.49 107.77 129.04 104.05"/><path class="cls-8" d="M146.8,130.52h-.12a1.17,1.17,0,0,1-1-1.3h0c0-.08.77-8-4.34-9.32s-7.87,5.4-7.9,5.47a1.17,1.17,0,1,1-2.17-.87c1.2-3,5-8.33,10.66-6.87,7.07,1.81,6.12,11.43,6.08,11.84A1.16,1.16,0,0,1,146.8,130.52Z"/><path class="cls-1" d="M137.52,150.25h-.12c-6.65-.66-11.56-3.74-14.61-9.14a1.17,1.17,0,1,1,2-1.15c2.69,4.76,6.88,7.36,12.81,8a1.17,1.17,0,0,1-.12,2.34Z"/><path class="cls-1" d="M72.52,152.57a1.18,1.18,0,0,1-.11-2.35c5.55-.52,9.57-3.29,12.3-8.47a1.18,1.18,0,0,1,2.08,1.1C83.71,148.7,79,152,72.63,152.56Z"/><path class="cls-7" d="M104.9,20.61h0l-75,62.07,3.84,12.54S59.37,82.68,104.9,82.68v0c45.54,0,71.16,12.54,71.16,12.54l3.83-12.54Z"/><path class="cls-6" d="M180.56,72.89a46.53,46.53,0,0,1-.23,5,62.87,62.87,0,0,0-18.78-5.19A78.92,78.92,0,0,1,180.56,72.89Z"/><path class="cls-6" d="M29.25,72.89a46.53,46.53,0,0,0,.23,5,62.88,62.88,0,0,1,18.79-5.19A79,79,0,0,0,29.25,72.89Z"/></g></g></svg>