<svg xmlns="http://www.w3.org/2000/svg" viewBox="0 0 225.85 287"><defs><style>.cls-1{fill:#e2963b;}.cls-2{fill:#f2d0af;}.cls-3{fill:#e0605c;}.cls-4{fill:#2f3233;}.cls-5{fill:#ddb58e;}.cls-6{fill:#393c3d;}.cls-7{fill:#f4d3b0;}.cls-8{fill:#3a332d;}.cls-9{fill:#c65044;}</style></defs><title>资源 228</title><g id="图层_2" data-name="图层 2"><g id="Layer_1" data-name="Layer 1"><path class="cls-1" d="M201.84,203c-2.29,16.62-16.6,8-17.21-.72s9.89-19.26,14.24-28-3.31-25.08-3.31-25.08c4.8-44.27-9.15-63.75-9.15-63.75l-54.84-8.31H94.28L39.44,85.47s-14,19.48-9.16,63.75c0,0-7.66,16.37-3.31,25.08s14.86,19.25,14.25,28S26.3,219.6,24,203c0,0-8.21,6.3-3.56,18.6,3.37,8.9,17.21,5.34,19.79,7.91s-10.49,18.6,4.55,26.91c0,0-.6-11.47,5.73-9.89,3.62.9-12.86,31.3,36,30.07,11.54-.29,20.08-.62,26.4-.95,6.33.33,14.86.66,26.41.95,48.86,1.23,32.38-29.17,36-30.07,6.33-1.58,5.74,9.89,5.74,9.89,15-8.31,2-24.33,4.55-26.91s16.42,1,19.78-7.91C210.05,209.28,201.84,203,201.84,203Z"/><path class="cls-2" d="M151.71,201.05c-5.47-16.17-18.11-5.74-18.11-5.74L145.52,287h18.63C161.88,261.35,155.89,213.42,151.71,201.05Z"/><path class="cls-3" d="M143,269.34l.66,17.66h23.76a84.41,84.41,0,0,0-1.36-16.64C164.87,265.06,143,269.34,143,269.34Z"/><path class="cls-2" d="M73.36,201.05c-4.19,12.37-10.17,60.3-12.44,85.95H79.55l11.92-91.69S78.83,184.88,73.36,201.05Z"/><path class="cls-3" d="M59,270.36A84.41,84.41,0,0,0,57.65,287H81.41l.66-17.66S60.2,265.06,59,270.36Z"/><path class="cls-4" d="M75.78,182.42s-8.51,3.36-11.87,16.42-9.1,16.81-9.1,16.81,14.44,7.72,23.54,2.18l4.07-34.23Z"/><path class="cls-4" d="M149.29,182.42s8.51,3.36,11.87,16.42,9.1,16.81,9.1,16.81-14.44,7.72-23.54,2.18l-4.07-34.23Z"/><path class="cls-1" d="M175,161.82c-4-.78-6.26.33-9.57,3.17-1.7,1.45-3.29,3-4.84,4.58,5.28,5.56,12.11,11.14,20,10.86A36.48,36.48,0,0,1,175,162,1.55,1.55,0,0,1,175,161.82Z"/><path class="cls-3" d="M112.53,173.1c-11.54-.2-22.44,1.52-28.09,6.94C75.83,188.3,71,216.18,75.38,287h74.31c4.39-70.82-.45-98.7-9.06-107C135,174.62,124.08,172.9,112.53,173.1Z"/><path class="cls-5" d="M135.28,190.33c0,7.43-10.18,13.45-22.75,13.45s-22.75-6-22.75-13.45,10.19-13.44,22.75-13.44S135.28,182.91,135.28,190.33Z"/><path class="cls-6" d="M112.53,173.1c-11.54-.2-22.44,1.52-28.09,6.94C75.83,188.3,71,216.18,75.38,287h6.73l30.25-104.58L142.91,287h6.78c4.39-70.82-.45-98.7-9.06-107C135,174.62,124.08,172.9,112.53,173.1Z"/><path class="cls-7" d="M54.59,140s-7-13-16.42-6.41c-12.27,8.66,5.53,37.47,19.37,32.49Z"/><path class="cls-7" d="M171.44,140s7-13,16.43-6.41c12.27,8.66-5.54,37.47-19.38,32.49Z"/><path class="cls-2" d="M150.75,182.72l-14.2,4.2a83,83,0,0,1-47.07,0l-14.19-4.2A39.31,39.31,0,0,1,47.11,145s.15-40.39,0-49.38c-.09-5.91,49.21-20,88.27-18.16,20.35,1,43.54,15.27,43.54,18.16V145A39.31,39.31,0,0,1,150.75,182.72Z"/><path class="cls-8" d="M151.37,137.67h0a1.25,1.25,0,0,1-1.25-1.27c0-.29-.07-7.24-5.76-7.43-5.89-.2-7.29,5.62-7.34,5.87a1.26,1.26,0,1,1-2.46-.57c.63-2.8,3.52-8,9.89-7.82s8.2,6.61,8.19,10A1.27,1.27,0,0,1,151.37,137.67Z"/><path class="cls-8" d="M153.53,137.61a9.88,9.88,0,0,1-2.51-.27,1.26,1.26,0,0,1,.69-2.43,11.87,11.87,0,0,0,6.41-.64,1.25,1.25,0,0,1,1.6.77,1.27,1.27,0,0,1-.77,1.61A16.57,16.57,0,0,1,153.53,137.61Z"/><path class="cls-8" d="M151.21,135h-.1a1.27,1.27,0,0,1,0-2.53h.08c2.31,0,5.49-2.18,6.52-3a1.26,1.26,0,1,1,1.6,1.94C159.16,131.52,154.91,135,151.21,135Z"/><path class="cls-1" d="M132,116.8l.11-3a.7.7,0,0,1,.63-.66c3.4-.34,20.37-1.77,28.38,3a.69.69,0,0,1,.21,1l-1.63,2.47a.7.7,0,0,1-.82.27c-2.29-.85-12.16-4.07-26.1-2.38A.69.69,0,0,1,132,116.8Z"/><path class="cls-8" d="M74.67,137.67h0a1.26,1.26,0,0,0,1.26-1.27c0-.29.06-7.24,5.75-7.43,5.89-.2,7.3,5.62,7.35,5.87a1.26,1.26,0,1,0,2.46-.57c-.64-2.8-3.52-8-9.89-7.82s-8.21,6.61-8.19,10A1.26,1.26,0,0,0,74.67,137.67Z"/><path class="cls-8" d="M72.51,137.61a9.88,9.88,0,0,0,2.51-.27,1.26,1.26,0,0,0-.69-2.43,11.91,11.91,0,0,1-6.42-.64,1.26,1.26,0,1,0-.82,2.38A16.53,16.53,0,0,0,72.51,137.61Z"/><path class="cls-8" d="M74.83,135h.09a1.27,1.27,0,0,0,0-2.53h-.07c-2.32,0-5.49-2.18-6.53-3a1.26,1.26,0,1,0-1.6,1.94C66.88,131.52,71.13,135,74.83,135Z"/><path class="cls-1" d="M94,116.8l-.12-3a.69.69,0,0,0-.62-.66c-3.41-.34-20.38-1.77-28.38,3a.69.69,0,0,0-.22,1l1.64,2.47a.68.68,0,0,0,.81.27c2.29-.85,12.16-4.07,26.1-2.38A.69.69,0,0,0,94,116.8Z"/><path class="cls-9" d="M99.69,167.67s3.36-5.06,7.24-4.83,6,4,6,4,3.49-3.87,7.57-3.79,5.86,5.05,5.86,5.05-4,9.46-13.73,9.46S99.69,167.67,99.69,167.67Z"/><path class="cls-5" d="M106.34,151.39s.66-6,6.42-6,6.94,6,6.94,6-3.15-3.68-6.83-3.68S106.34,151.39,106.34,151.39Z"/><path class="cls-1" d="M141.52,66.28s2.67,22.25,3.26,35,14.84,17.22,19.29,26.12-3.65,25.36-1.53,31.85c3.55,10.9,7.3,15.93,16.29,19.49,0,0-10.61-15.63-2.49-27.8,6.33-9.5.79-18.79,5.24-32.15s0-34.17,0-34.17Z"/><path class="cls-1" d="M45,95.36s0,46.29,6.79,58.46,13,9.34,13.65,23.07c0,0,5.34-8.82,0-17.73s-10.35-14.62-9-23,7.84-12.27,15.56-12.27,49-8.31,56.68-16,16-30.66,16-30.66L78.45,69.82Z"/><path class="cls-6" d="M168.57,59s56.78-10.5,57.27,16.9-51.34,6.32-57.27,4.2Z"/><path class="cls-4" d="M202.23,75.74c2.23-1.37,3.21-3.48,4-5.74v-.18c-3.86,2.49-9.66,6.09-17.21,3.69v3.07C193.27,77.67,198.3,78.14,202.23,75.74Z"/><path class="cls-4" d="M129.4,0H81.14C16.65,0,19.42,25.92,19.42,25.92v54l85.44,1.59v0h.81v0l85.45-1.59v-54S193.89,0,129.4,0Z"/><path class="cls-6" d="M29.25,132.1c-1.79,1.39-22.91,5.6-28.45-17s18.6-40,43.53-53.81,66.86-15.83,91-4.75,60.54,26.12,68.06,16.23,22.31-4.16,22.31,5.34-17.32,20-50.29,14.44C154.3,89,110.65,76.55,75.87,87c-17.07,5.12-32,15.75-41.08,35.67C33.5,125.48,30.87,130.85,29.25,132.1Z"/></g></g></svg>