<svg xmlns="http://www.w3.org/2000/svg" viewBox="0 0 153.37 260"><defs><style>.cls-1{fill:#9e6f4c;}.cls-2{fill:#ddb58e;}.cls-3{fill:#bc9173;}.cls-4{fill:#7f5732;}.cls-5{fill:#6b4627;}.cls-6{fill:#302f2d;}.cls-7{fill:#f4d3b0;}.cls-8{fill:#f2d0af;}.cls-9{fill:#3a332d;}.cls-10{fill:#e8dfd9;}</style></defs><title>资源 264</title><g id="图层_2" data-name="图层 2"><g id="Layer_1" data-name="Layer 1"><path class="cls-1" d="M114.17,170.44c-5.9.78-10.52,8.37-10.52,8.37S105.42,236,112.78,260H143c3-7.56,5.3-21.86,5.3-26.67,0-6.09-16.93-38.79-21.63-48S120.07,169.66,114.17,170.44Z"/><path class="cls-1" d="M36.71,169.28c-6.16.25-9.49,4.1-15.13,33.34C18,221.43,13,244.7,10.08,260H40.8l7.45-79.44S42.87,169,36.71,169.28Z"/><path class="cls-2" d="M75.94,174.55l-34-3.21S28.51,215.87,29.58,260H122.3c1.15-44.12-11.23-88.54-11.23-88.54Z"/><path class="cls-3" d="M97.54,256.9h24.83c.29-24.32-3.36-48.43-6.58-64.8H97.54Z"/><path class="cls-3" d="M29.53,256.9H54.15V192.1H36.77C33.27,208.5,29.3,232.61,29.53,256.9Z"/><rect class="cls-1" x="74.92" y="161.12" width="2.05" height="98.88"/><path class="cls-4" d="M76.07,148.6c-14.43,0-27,3.08-33.86,7.67l-.45,15.07c6.84,4.58,19.88,8.37,34.31,8.37s28-3.73,34.84-8.25l-1.16-15.31C102.87,151.63,90.38,148.6,76.07,148.6Z"/><path class="cls-5" d="M74.92,179.69l1.15,0H77V161.12h-2Z"/><ellipse class="cls-6" cx="76.69" cy="80.66" rx="76.69" ry="80.66"/><path class="cls-7" d="M22.52,110.1S14,99.49,5.29,107.15c-9,7.9,5.74,33,19.33,33.88Z"/><path class="cls-7" d="M130.85,110.1s8.55-10.61,17.24-2.95c9,7.9-5.75,33-19.34,33.88Z"/><path class="cls-8" d="M89.18,165.77H64.48c-26.36,0-47.73-20.19-47.73-45.1V53.17l120.16.68v66.82C136.91,145.58,115.54,165.77,89.18,165.77Z"/><path class="cls-8" d="M89,165.77H64.34c-26.36,0-47.73-20.19-47.73-45.1V53.17l120.16.68v66.82C136.77,145.58,115.4,165.77,89,165.77Z"/><path class="cls-6" d="M104.56,55.22A34.78,34.78,0,0,0,76.89,68.9,34.81,34.81,0,0,0,49.21,55.22c-14.71,0-27.46,10.3-32.6,23.18L11.66,49.33,81.42,38l60.3,11.29L137,77.2A34.93,34.93,0,0,0,104.56,55.22Z"/><polygon class="cls-9" points="94.98 86.5 99.54 98.73 126.11 94.89 126.03 88.59 94.98 86.5"/><polygon class="cls-9" points="58.4 88.55 53.84 100.79 27.27 96.94 27.35 90.64 58.4 88.55"/><path class="cls-9" d="M99.68,109.3c-.71,3.09,3.12,6.61,8.56,7.86s10.42-.24,11.13-3.33-4.41-4.77-9.84-6S100.39,106.21,99.68,109.3Z"/><path class="cls-10" d="M115.81,111.84c-.2.73-1.68,1-3.29.49s-2.76-1.41-2.55-2.14,1.68-.94,3.29-.49S116,111.12,115.81,111.84Z"/><path class="cls-9" d="M53.7,109.3c.71,3.09-3.13,6.61-8.56,7.86s-10.43-.24-11.14-3.33,4.41-4.77,9.85-6S53,106.21,53.7,109.3Z"/><path class="cls-10" d="M37.56,111.84c.21.73,1.68,1,3.29.49s2.76-1.41,2.55-2.14-1.67-.94-3.29-.49S37.36,111.12,37.56,111.84Z"/><path class="cls-2" d="M40.4,144.91l3.35-.07c2.14-.06,5.18-.25,8.82-.31,3.64-.22,7.88-.59,12.42-.83L79.11,142c4.82-.78,9.6-1.6,14.09-2.4s8.67-1.58,12.13-2.59a14.43,14.43,0,0,0,4.38-1.84,4.2,4.2,0,0,0,.29-.32l.24-.47.46-.89c.3-.57.58-1.1.82-1.57.51-.94.84-1.7,1.09-2.21l.37-.8-.27.84a24.4,24.4,0,0,1-.83,2.34l-.66,1.64c-.13.3-.25.61-.38.93l-.2.49a4.14,4.14,0,0,1-.38.55,12.7,12.7,0,0,1-4.57,2.41,105.51,105.51,0,0,1-12.14,3.26c-4.47,1-9.29,1.83-14.1,2.65-4.88.54-9.75,1.11-14.33,1.51-4.59.12-8.87.14-12.54.18-3.67-.12-6.71-.34-8.84-.44Z"/><path class="cls-2" d="M64.38,154.66s1.58-.09,3.89-.18l3.93-.21c.72,0,1.46-.11,2.21-.12s1.51-.11,2.27-.17c1.53-.07,3-.19,4.48-.34.72-.07,1.41-.1,2.08-.14s1.27-.12,1.85-.17a38.81,38.81,0,0,1,3.91-.21,36.86,36.86,0,0,1-3.69,1.37,26.08,26.08,0,0,1-3.91.95c-.73.12-1.47.3-2.24.38l-2.34.2c-.79,0-1.57.13-2.34.11s-1.54,0-2.28,0a35.76,35.76,0,0,1-4-.43A20.8,20.8,0,0,1,64.38,154.66Z"/><path class="cls-2" d="M66,123.59s2.47-8.28,9.08-8.45S87.4,122.7,87.4,122.7s-7.33-5.42-12.47-5.38S66,123.59,66,123.59Z"/></g></g></svg>