<svg xmlns="http://www.w3.org/2000/svg" viewBox="0 0 213.4 260.63"><defs><style>.cls-1{fill:#d3cec7;}.cls-2{fill:#f2d0af;}.cls-3{fill:#e0dbd3;}.cls-4{fill:#ddb58e;}.cls-5{fill:#3c7a62;}.cls-6{fill:#3a332d;}.cls-7{fill:#422a17;}</style></defs><title>资源 274</title><g id="图层_2" data-name="图层 2"><g id="Layer_1" data-name="Layer 1"><path class="cls-1" d="M39.55,171.91S-.72,228.31,0,237.82c.31,4.09,5,13.46,10.18,22.81H41.71c-3.84-7.58-9.3-18-12.66-22.81,0,0,16.6-25.15,19.53-34.91s1.34-25.14,1.34-25.14Z"/><path class="cls-1" d="M144.17,207.72c-4.23-15.13-9.93-34.65-15.43-34.66s-11.21,8.79-11.21,8.79l10.22,78.78h26.13C150.37,243.52,147,217.73,144.17,207.72Z"/><polygon class="cls-2" points="86.21 160.59 37.88 173.09 37.88 260.63 135.02 260.63 135.02 173.09 86.7 160.59 86.21 160.59"/><polygon class="cls-3" points="37.88 260.63 48.16 260.63 48.16 170.44 37.88 173.09 37.88 260.63"/><polygon class="cls-3" points="124.32 260.63 135.02 260.63 135.02 173.09 124.32 170.32 124.32 260.63"/><path class="cls-4" d="M81.74,208.2a5,5,0,0,1-.56.88,5.46,5.46,0,0,1-.78.92,8,8,0,0,1-1.15,1.07c-.45.35-.94.73-1.48,1.11s-1.16.68-1.8,1a11.67,11.67,0,0,1-2,.92l-2.14.75a27.84,27.84,0,0,1-4.33.95,14.84,14.84,0,0,1-2,.27c-.65,0-1.26,0-1.82,0a36.56,36.56,0,0,1-3.75-.12s1.45-.5,3.6-1c.53-.13,1.12-.27,1.73-.38s1.25-.36,1.91-.51,1.33-.38,2-.54a13.57,13.57,0,0,0,2.07-.59c1.36-.47,2.77-.81,4-1.37l1.81-.72c.54-.29,1.07-.54,1.56-.77a12.64,12.64,0,0,0,1.3-.72,7.56,7.56,0,0,0,1-.61A8.27,8.27,0,0,0,81.74,208.2Z"/><path class="cls-4" d="M91.17,208.2a5.2,5.2,0,0,0,.55.88,6.1,6.1,0,0,0,.79.92,7.91,7.91,0,0,0,1.14,1.07c.45.35.94.73,1.49,1.11s1.16.68,1.79,1a12.14,12.14,0,0,0,2,.92l2.14.75a28,28,0,0,0,4.32.95,15,15,0,0,0,2,.27c.65,0,1.26,0,1.82,0A36.45,36.45,0,0,0,113,216s-1.44-.5-3.59-1c-.54-.13-1.12-.27-1.74-.38s-1.24-.36-1.9-.51-1.33-.38-2-.54a13.57,13.57,0,0,1-2.07-.59c-1.36-.47-2.77-.81-4-1.37l-1.81-.72c-.54-.29-1.07-.54-1.57-.77a13.55,13.55,0,0,1-1.29-.72,8.55,8.55,0,0,1-1-.61A8.75,8.75,0,0,1,91.17,208.2Z"/><path class="cls-4" d="M84.91,186.24a7.63,7.63,0,0,1,.49.8,17.91,17.91,0,0,1,1,2.27,16.41,16.41,0,0,1,.5,1.58,15.29,15.29,0,0,1,.44,1.8c.1.63.23,1.29.32,2a19.38,19.38,0,0,1,.16,2c0,.69,0,1.38,0,2s-.12,1.33-.17,2-.15,1.25-.23,1.84a8.63,8.63,0,0,1-.37,1.61,26.81,26.81,0,0,1-1.06,3.24S86,206,86,204c0-.5.07-1,0-1.6s0-1.17,0-1.79,0-1.25,0-1.89-.08-1.3-.11-1.95,0-1.32-.08-1.95-.1-1.28-.15-1.89-.11-1.21-.17-1.77-.11-1.1-.16-1.6C85.1,187.6,84.91,186.24,84.91,186.24Z"/><path class="cls-4" d="M67.25,258.8s-.1-1.53-.07-4.22a94.41,94.41,0,0,1,.75-11.11c.31-2.29.71-4.77,1.32-7.36a43.47,43.47,0,0,1,2.59-8,24.06,24.06,0,0,1,5.06-7.6,14.28,14.28,0,0,1,4-2.74,13.47,13.47,0,0,1,4.8-1.08,15.2,15.2,0,0,1,2.4.14,13.06,13.06,0,0,1,2.46.64,11.77,11.77,0,0,1,4.14,2.58,19.73,19.73,0,0,1,4.84,7.79,38.82,38.82,0,0,1,2,8.18,71.74,71.74,0,0,1,.66,7.45,90,90,0,0,1-.3,11.14c-.23,2.68-.48,4.19-.48,4.19s.08-1.53.1-4.21,0-6.5-.41-11.05A55.93,55.93,0,0,0,98,228.44a18.15,18.15,0,0,0-4.49-7.05,9.92,9.92,0,0,0-3.56-2.14,11.9,11.9,0,0,0-2-.51,16.73,16.73,0,0,0-2.18-.1,11.57,11.57,0,0,0-4.11.85,12.77,12.77,0,0,0-3.5,2.34,22.18,22.18,0,0,0-4.77,7A61.74,61.74,0,0,0,69,243.64c-.78,4.5-1.25,8.29-1.46,11S67.25,258.8,67.25,258.8Z"/><path class="cls-4" d="M86.06,225.12s.09.55.19,1.5.26,2.31.37,3.94c.25,3.27.41,7.62.42,12s-.17,8.71-.42,12c-.1,1.63-.28,3-.37,3.95s-.19,1.49-.19,1.49-.08-.54-.19-1.49-.26-2.32-.37-3.95c-.24-3.26-.4-7.61-.41-12s.17-8.7.42-12c.11-1.63.28-3,.37-3.94S86.06,225.12,86.06,225.12Z"/><path class="cls-4" d="M73.44,235.21s1.57.29,3.88.61c1.15.16,2.5.29,3.93.44s3,.23,4.49.2a43.77,43.77,0,0,0,4.48-.14c1.43-.11,2.77-.24,3.91-.44s2.12-.35,2.79-.49l1.08-.18-1,.55a14.44,14.44,0,0,1-2.64,1.2,11.15,11.15,0,0,1-1.85.6,16.48,16.48,0,0,1-2.12.47,24.27,24.27,0,0,1-4.72.38,27.09,27.09,0,0,1-8.67-1.51A16.59,16.59,0,0,1,73.44,235.21Z"/><path class="cls-4" d="M71.65,251.32a8.19,8.19,0,0,0,1,.54,6.82,6.82,0,0,0,1.23.49,12.16,12.16,0,0,0,1.61.53c.62.14,1.27.29,1.95.48s1.46.17,2.22.3a13.92,13.92,0,0,0,2.37.22l2.47.06c.41,0,.83.05,1.24.05l1.23-.11c.82-.08,1.63-.1,2.41-.15s1.56,0,2.27-.14,1.4-.2,2-.28c2.52-.32,4.27-.37,4.27-.37s-1.57.69-4,1.47c-.62.2-1.29.41-2,.61a13.6,13.6,0,0,1-2.3.42c-.81.11-1.65.24-2.5.32l-1.29.15c-.43,0-.88,0-1.31,0l-2.62-.13a12.29,12.29,0,0,1-2.51-.41,20.29,20.29,0,0,1-2.3-.59c-.71-.28-1.37-.57-2-.84a9,9,0,0,1-1.55-.91,5.83,5.83,0,0,1-1.11-.84A5.09,5.09,0,0,1,71.65,251.32Z"/><path class="cls-5" d="M33.67,151.42S8.78,123,8.29,117.79,2.71,9.38,84.33.59s87.23,82.25,74.05,115.69c0,0,6.35-6.59,8.3-6.84s1.95,2.93,3.42,6.35S175,129,174,144.59s14.16,65.89,16.6,62.72,4.64-16.35,9.27-17.57,12.21,24.4,13.18,30.75-.24,20.25-2,20.74-6.35-8-7.32-11c0,0-2.69,14.4-6.35,19.77S196,222.2,192.31,222.2s-5.86,13.66-10,12.69-7.32-8.55-13.42-10-6.35-8-7.81-19.52-.73-56.38-3.91-57.85-18.79,15.38-20.74,17.82-4.39,7.32-12.45,10-24.89,8-40.75,8.54-48.33-9.52-49.3-12-1-8.3,0-8.54a29.22,29.22,0,0,1,4.15-.25s-9-5.36-9.28-7.32S31.48,154.84,33.67,151.42Z"/><path class="cls-2" d="M136.05,94.8c-6.93-7.57-38.5-26.6-58.35-25.87-16.31.6-39.54,33.27-47.32,44.93,0,6.75,0,11.79,0,11.79a35.52,35.52,0,0,0,25,34.15L68,163.6a72.29,72.29,0,0,0,41.77,0l12.6-3.8a35.52,35.52,0,0,0,25-34.15V107.11C144.26,103.76,139.94,99,136.05,94.8Z"/><path class="cls-6" d="M50.29,125.42a1.16,1.16,0,0,1-.48-.11,1.12,1.12,0,0,1-.53-1.49c.08-.16,1.91-3.94,7.68-4.06s7.66,3.92,7.73,4.09a1.11,1.11,0,0,1-2,.9c0-.11-1.37-2.85-5.65-2.77s-5.65,2.69-5.71,2.8A1.12,1.12,0,0,1,50.29,125.42Z"/><path class="cls-6" d="M114,125.41a1.17,1.17,0,0,1-.45-.09,1.11,1.11,0,0,1-.57-1.47c.07-.17,1.92-4.2,7.73-4.09s7.6,3.9,7.68,4.06a1.11,1.11,0,0,1-.54,1.48,1.09,1.09,0,0,1-1.47-.52c-.07-.13-1.41-2.71-5.71-2.8s-5.64,2.74-5.66,2.77A1.11,1.11,0,0,1,114,125.41Z"/><path class="cls-7" d="M77.7,68.93c-16.31.6-39.54,33.27-47.32,44.93,0,6.75,0,11.79,0,11.79a36.34,36.34,0,0,0,1.72,11l1.07,2.39-1.51-21.64,4.91,8.71V108a44.24,44.24,0,0,0,26.6,13.5s-10.38-8-9.43-27.82c0,0,8.49,10.74,30.38,15.62l-4.53-4.88s19.29,10.57,40.5,3.9l-15-9.65c6.14,3.48,16.81,8.15,28.66,7.21l-1.51-8.13s9.35,4.14,15.14,10.18v-.81c-3.07-3.35-7.39-8.08-11.28-12.31C129.12,87.23,97.55,68.2,77.7,68.93Z"/><path class="cls-4" d="M78.77,132.05s1.59,8.1,10.07,7.85a10.33,10.33,0,0,0,10.06-7.85s-5.07,5.12-10.06,5.12S78.77,132.05,78.77,132.05Z"/><path class="cls-4" d="M108.15,149.47h0l-38.63-.34a1,1,0,1,1,0-2l38.63.33a1,1,0,0,1,0,2Z"/><path class="cls-4" d="M93.47,155.35H83.09a.88.88,0,1,1,0-1.76H93.47a.88.88,0,0,1,0,1.76Z"/></g></g></svg>