<svg xmlns="http://www.w3.org/2000/svg" viewBox="0 0 164.59 259.49"><defs><style>.cls-1{fill:#efeae1;}.cls-2{fill:#efc4a0;}.cls-3{fill:#f9f5ed;}.cls-4{fill:#e8e3d9;}.cls-5{fill:#7f5732;}.cls-6{fill:#f4d3b0;}.cls-7{fill:#f9dab4;}.cls-8{fill:#515151;}.cls-9{fill:#492020;}.cls-10{fill:#c65044;}</style></defs><title>资源 311</title><g id="图层_2" data-name="图层 2"><g id="Layer_1" data-name="Layer 1"><path class="cls-1" d="M26,259.49l8.52-86.8S13.87,194.24,0,259.49Z"/><rect class="cls-2" x="56.22" y="154.23" width="52.34" height="47.95"/><path class="cls-1" d="M130.07,172.69l8.52,86.8h26C150.71,194.24,130.07,172.69,130.07,172.69Z"/><path class="cls-3" d="M105.83,162.34,82.29,199.7,58.75,162.34l-13.48-5.83v11.23l-10.76,4.95S29,208.27,23.63,259.49H141c-5.35-51.22-10.88-86.8-10.88-86.8l-10.75-4.95V156.51Z"/><path class="cls-4" d="M68.54,245.82S68.76,257,49.4,257s-19.14-11.18-19.14-11.18V220H68.54Z"/><path class="cls-4" d="M82.29,199.7c-1,22.52-1.71,42.34-2.2,59.79h2.2Z"/><path class="cls-4" d="M134.51,245.82S134.73,257,115.37,257s-19.13-11.18-19.13-11.18V220h38.27Z"/><polygon class="cls-4" points="82.29 199.7 58.75 162.34 50.02 188.77 82.29 199.7"/><polygon class="cls-4" points="82.29 199.7 105.83 162.34 114.57 188.77 82.29 199.7"/><path class="cls-5" d="M5.38,98.71S-26,0,82.07,0s77.12,98.71,77.12,98.71Z"/><path class="cls-6" d="M21,97s-7.33-7.11-14.79-2.17C-.95,99.52,3.11,126.72,21,133.58Z"/><path class="cls-6" d="M143.83,97s7.33-7.11,14.79-2.17c7.14,4.73,3.07,31.93-14.79,38.79Z"/><path class="cls-7" d="M147,121a43.59,43.59,0,0,1-32.79,42.25,129.76,129.76,0,0,1-32.09,3.92A129.88,129.88,0,0,1,50,163.24,43.58,43.58,0,0,1,17.2,121V50.77H147Z"/><polygon class="cls-5" points="54.74 71.94 54.74 79.47 28.57 79.97 28.57 71.94 54.74 71.94"/><polygon class="cls-5" points="109.38 71.94 109.38 79.47 135.55 79.97 135.55 71.94 109.38 71.94"/><path class="cls-8" d="M34.36,103.68A1.36,1.36,0,0,1,33,102.47c0-.47-1.13-11.52,7-13.6,6.51-1.68,10.86,4.42,12.25,7.88a1.36,1.36,0,0,1-2.53,1c-.12-.32-3.22-7.76-9-6.27s-5,10.59-5,10.68a1.36,1.36,0,0,1-1.21,1.5Z"/><path class="cls-8" d="M130.5,103.68h-.15a1.37,1.37,0,0,1-1.21-1.5c0-.11.88-9.18-4.95-10.68s-9,6.19-9,6.27a1.36,1.36,0,0,1-2.52-1c1.38-3.46,5.73-9.56,12.24-7.88,8.12,2.08,7,13.13,7,13.6A1.35,1.35,0,0,1,130.5,103.68Z"/><polygon class="cls-2" points="72.03 93.58 72.03 123 84.5 129.33 95.48 123.98 84.74 125.44 74.76 119.84 72.03 93.58"/><path class="cls-9" d="M66.05,138.32s24.52,1.46,38.38-1.94l1.22,16.05s-11.55,7.4-38,2.34Z"/><path class="cls-10" d="M69.61,155.12c18.42,3.19,29.23.23,33.67-1.55a19.09,19.09,0,0,0-33.67,1.55Z"/><path class="cls-5" d="M10.62,62.62S8.82,83.81,2.85,87.25c0,0,13.31.19,21.52-4.77,0,0-1.48,6.39-9.17,9,0,0,8.21.38,12.8-2.67,0,0-2.87,7.06-5.35,8,0,0,31.86,5.08,49.83-29.21,13.31-25.41,48-17.2,64.57-5.33,12.92,9.23,9.9,20.6,9.9,20.6l2.83-.15V35.89H10.43Z"/></g></g></svg>