<svg xmlns="http://www.w3.org/2000/svg" viewBox="0 0 166.02 260.2"><defs><style>.cls-1{fill:#307477;}.cls-2{fill:#3d868e;}.cls-3{fill:#54a3b5;}.cls-4{fill:#4c3626;}.cls-5{fill:#f4d3b0;}.cls-6{fill:#f9dab4;}.cls-7{fill:#3a332d;}.cls-8{fill:#e8dfd9;}.cls-9{fill:#efc4a0;}</style></defs><title>资源 157</title><g id="图层_2" data-name="图层 2"><g id="Layer_1" data-name="Layer 1"><path class="cls-1" d="M24.36,249.23s1.88,6.6,3.63,11H52.74c.67-3.77-6.27-15-6.27-15Z"/><path class="cls-2" d="M63.76,159.07s-9.14,4.1-17.57,19.36c-11.29,20.41-22.76,54.4-23.29,63.89-.92,16.59,10.45,19,31,9.83s21.19-92.46,21.19-92.46Z"/><path class="cls-2" d="M100.93,157.54s34.09,21.81,35.63,21.19S120,156.92,127,147.4s25.8-14.13,31.33,11.37,12,44.84-1.54,50.07-45.46-13.52-45.46-13.52Z"/><path class="cls-3" d="M83.17,159.1v0l-.16,0-.17,0v0l-20.53,1.84s-22.4,67.23-21.78,90.58a41.14,41.14,0,0,0,1,8.68h82.86a41.14,41.14,0,0,0,1-8.68c.62-23.35-21.79-90.58-21.79-90.58Z"/><path class="cls-2" d="M93.52,160c-4.15,2.32-7.24,5.81-10.66,9.23-3.24,3.25-7.65,6.14-10.09,10.09-3.11,5-2,10.1-1.87,15.64.07,2.61,0,5.2.24,7.81.23,3.08,4,2.25,5.74,2.25a1.24,1.24,0,0,1,.29.06,1.17,1.17,0,0,1,1.35,1.17V260.2h45.92a41.14,41.14,0,0,0,1-8.68c.62-23.35-21.79-90.58-21.79-90.58Z"/><path class="cls-3" d="M94.94,160.16,72.73,182.37a1,1,0,0,1-.26.16v21.08h7.07l.24,56.59h44.66a41.14,41.14,0,0,0,1-8.68c.62-23.35-21.79-90.58-21.79-90.58Z"/><path class="cls-2" d="M89.57,215.6a3.79,3.79,0,1,1-3.79-3.79A3.79,3.79,0,0,1,89.57,215.6Z"/><path class="cls-2" d="M89.57,240a3.79,3.79,0,1,1-3.79-3.79A3.78,3.78,0,0,1,89.57,240Z"/><path class="cls-4" d="M10.38,114.94s-23.35-68.4,0-70c0,0-7.7-20.89,21.95-32.77S132.84-19.39,166,47.78l-7.54-4.1s11.62,27,0,71.26L91.88,130.1Z"/><path class="cls-5" d="M28,114.58s-8.17-10-17.27-5.37,3.5,35.19,21.48,37.68Z"/><path class="cls-5" d="M138,114.58s8.18-10,17.28-5.37-3.5,35.19-21.48,37.68Z"/><path class="cls-6" d="M24.29,58.9v71.61a29,29,0,0,0,11.36,23.07S54,166.76,83,166.29s47.35-12.71,47.35-12.71a29,29,0,0,0,11.36-23.07V58.9Z"/><path class="cls-4" d="M19.58,74.91s10.75,1.53,14.74-2.15.62-8.87,8.29-11.37,49.77-4,58.68,4.92,16.28,22.11,16.28,22.11,4-10.19,0-23.37c0,0,8,6.17,11.36,20.61,0,0,5.22-8.91,3.69-22.73l12.59,25.49,5.84-26.11L139,43l-57-5.84-51.6,6.76L15,52.48Z"/><path class="cls-4" d="M58.58,87c2.76,1.09,3,7.2,3,7.2H31.39s.29-5.5,2.72-7.39S55.83,85.9,58.58,87Z"/><path class="cls-4" d="M107.43,87c-2.76,1.09-3,7.2-3,7.2h30.22s-.29-5.5-2.72-7.39S110.19,85.9,107.43,87Z"/><circle class="cls-7" cx="48.92" cy="110.5" r="6.53"/><path class="cls-8" d="M50,106c.16.79-.82,1.65-2.18,1.92s-2.6-.14-2.76-.93.82-1.65,2.19-1.93S49.84,105.17,50,106Z"/><path class="cls-7" d="M123.63,110.5A6.54,6.54,0,1,1,117.1,104,6.53,6.53,0,0,1,123.63,110.5Z"/><path class="cls-8" d="M118.18,106c.16.79-.82,1.65-2.18,1.92s-2.6-.14-2.76-.93.82-1.65,2.18-1.93S118,105.17,118.18,106Z"/><path class="cls-9" d="M74.8,123.74s1.87,6,7.87,6.35,8.54-7.31,8.54-7.31-3.77,5.7-8.53,5.17A13.33,13.33,0,0,1,74.8,123.74Z"/><path class="cls-9" d="M57.07,142.8l2.22.36c1.41.22,3.43.48,5.86.76,1.21.15,2.53.28,3.93.41s2.87.2,4.39.35,3.09.2,4.7.24S81.4,145,83,145l2.44,0,2.42,0c1.6,0,3.18-.1,4.7-.21s3-.19,4.38-.32,2.72-.24,3.93-.42l3.31-.43,2.53-.44,2.22-.37-2.18.56-2.51.62c-1,.2-2.08.4-3.29.61s-2.53.42-3.93.59l-2.15.28c-.73.09-1.49.12-2.25.19-1.53.12-3.12.23-4.73.27l-2.44.09H83c-1.64,0-3.27-.09-4.88-.16s-3.2-.21-4.73-.31-3-.3-4.4-.49-2.72-.37-3.93-.57c-2.42-.38-4.42-.83-5.82-1.13S57.07,142.8,57.07,142.8Z"/></g></g></svg>