<?xml version="1.0" standalone="no"?><!DOCTYPE svg PUBLIC "-//W3C//DTD SVG 1.1//EN" "http://www.w3.org/Graphics/SVG/1.1/DTD/svg11.dtd"><svg t="1548222451891" class="icon" style="" viewBox="0 0 2560 1024" version="1.1" xmlns="http://www.w3.org/2000/svg" p-id="3803" xmlns:xlink="http://www.w3.org/1999/xlink" width="500" height="200"><defs><style type="text/css"></style></defs><path d="M979.2 953.6H134.4c-57.6 0-102.4-44.8-102.4-102.4V204.8c0-57.6 44.8-102.4 102.4-102.4h844.8v851.2z" fill="#FF461F" p-id="3804"></path><path d="M1504 544h172.8v44.8h-172.8v-44.8z m0 76.8h172.8v44.8h-172.8v-44.8z m0 0" fill="#D81E06" p-id="3805"></path><path d="M2425.6 64H134.4C57.6 64 0 128 0 204.8v646.4c0 76.8 57.6 134.4 134.4 134.4h2291.2c76.8 0 134.4-57.6 134.4-134.4V204.8C2560 128 2496 64 2425.6 64zM979.2 953.6H134.4c-57.6 0-102.4-44.8-102.4-102.4V204.8c0-57.6 44.8-102.4 102.4-102.4h844.8v851.2z m409.6-665.6l32 6.4c-6.4 51.2-12.8 96-25.6 134.4l-32-6.4c12.8-38.4 25.6-83.2 25.6-134.4z m-140.8 12.8c6.4 38.4 19.2 76.8 25.6 121.6l-32 6.4c-6.4-44.8-12.8-83.2-25.6-121.6l32-6.4z m160 358.4c-25.6-44.8-44.8-76.8-64-102.4v236.8h-38.4V563.2c-19.2 51.2-44.8 102.4-76.8 140.8l-19.2-44.8c44.8-44.8 76.8-102.4 96-160H1216v-38.4h83.2V249.6h44.8v211.2h70.4v38.4H1344v19.2c32 32 57.6 64 89.6 102.4l-25.6 38.4z m307.2 83.2c0 32-19.2 44.8-51.2 44.8h-38.4l-12.8-38.4h38.4c12.8 0 19.2-6.4 19.2-19.2v-38.4h-172.8v96h-38.4V512h256v230.4z m32-268.8h-320v-38.4h140.8v-38.4h-108.8v-32h108.8v-38.4h-128v-38.4h128v-38.4h38.4v38.4H1728V320h-121.6v38.4h108.8v32h-108.8v38.4h140.8v44.8z m224-224l38.4 19.2c-19.2 32-38.4 64-64 96v198.4h-38.4V403.2l-76.8 57.6-12.8-44.8c64-51.2 115.2-102.4 153.6-166.4z m352 396.8h-236.8v147.2H2048v-147.2h-230.4v-44.8H2048v-57.6h44.8v57.6h236.8v44.8zM2304 524.8c-12.8 6.4-32 12.8-57.6 12.8h-108.8c-38.4 0-51.2-19.2-51.2-51.2v-44.8c-25.6 12.8-57.6 25.6-89.6 32l-25.6-38.4c38.4-12.8 76.8-25.6 108.8-44.8v-128h38.4v115.2c57.6-32 108.8-64 147.2-96l38.4 25.6c-51.2 44.8-108.8 83.2-179.2 115.2v57.6c0 12.8 6.4 19.2 25.6 19.2H2240c12.8 0 25.6 0 32-6.4 6.4-6.4 12.8-32 19.2-70.4l38.4 12.8c-6.4 44.8-12.8 76.8-25.6 89.6z m0 0" fill="#FF461F" p-id="3806"></path><path d="M870.4 505.6l-153.6-300.8H288L134.4 505.6l364.8 364.8 371.2-364.8zM326.4 268.8h352l108.8 224-288 288-281.6-288 108.8-224z m0 0" fill="#FFFFFF" p-id="3807"></path><path d="M608 403.2L505.6 518.4 396.8 409.6l-44.8 44.8 153.6 153.6L659.2 448l-51.2-44.8z m0 0" fill="#FFFFFF" p-id="3808"></path><path d="M1388.8 288l32 6.4c-6.4 51.2-12.8 96-25.6 134.4l-32-6.4c12.8-38.4 25.6-83.2 25.6-134.4zM1248 300.8c6.4 38.4 19.2 76.8 25.6 121.6l-32 6.4c-6.4-44.8-12.8-83.2-25.6-121.6l32-6.4z" fill="#FFFFFF" p-id="3809"></path><path d="M1408 659.2c-25.6-44.8-44.8-76.8-64-102.4v236.8h-38.4V563.2c-19.2 51.2-44.8 102.4-76.8 140.8l-19.2-44.8c44.8-44.8 76.8-102.4 96-160H1216v-38.4h83.2V249.6h44.8v211.2h70.4v38.4H1344v19.2c32 32 57.6 64 89.6 102.4l-25.6 38.4zM1715.2 742.4c0 32-19.2 44.8-51.2 44.8h-38.4l-12.8-38.4h38.4c12.8 0 19.2-6.4 19.2-19.2v-38.4h-172.8v96h-38.4V512h256v230.4zM1747.2 473.6h-313.6v-38.4h134.4v-38.4h-108.8v-32h108.8v-38.4h-121.6v-38.4h121.6v-38.4h44.8v38.4h121.6v38.4h-121.6v38.4h102.4v32h-102.4v38.4h134.4zM1971.2 249.6l38.4 19.2c-19.2 32-38.4 64-64 96v198.4h-38.4V403.2l-76.8 57.6-12.8-44.8c64-51.2 115.2-102.4 153.6-166.4zM2323.2 646.4h-230.4v147.2H2048v-147.2h-230.4v-44.8H2048v-57.6h44.8v57.6h230.4z" fill="#FFFFFF" p-id="3810"></path><path d="M2304 524.8c-12.8 6.4-32 12.8-57.6 12.8h-108.8c-38.4 0-51.2-19.2-51.2-51.2v-44.8c-25.6 12.8-57.6 25.6-89.6 32l-25.6-38.4c38.4-12.8 76.8-25.6 108.8-44.8v-128h38.4v115.2c57.6-32 108.8-64 147.2-96l38.4 25.6c-51.2 44.8-108.8 83.2-179.2 115.2v57.6c0 12.8 6.4 19.2 25.6 19.2H2240c12.8 0 25.6 0 32-6.4 6.4-6.4 12.8-32 19.2-70.4l38.4 12.8c-6.4 44.8-12.8 76.8-25.6 89.6z" fill="#FFFFFF" p-id="3811"></path><path d="M1504 544h172.8v44.8h-172.8v-44.8z m0 76.8h172.8v44.8h-172.8v-44.8z m0 0" fill="#FF461F" p-id="3812"></path></svg>