<svg xmlns="http://www.w3.org/2000/svg" viewBox="0 0 184.7 260"><defs><style>.cls-1{fill:#515151;}.cls-2{fill:#e2dcd9;}.cls-3{fill:#c65044;}.cls-4{fill:#f9dab4;}.cls-5{fill:#f4efed;}.cls-6{fill:#f4d3b0;}.cls-7{fill:#efc4a0;}.cls-8{fill:#3a332d;}.cls-9{fill:#e8dfd9;}.cls-10{fill:#494949;}</style></defs><title>资源 88</title><g id="图层_2" data-name="图层 2"><g id="Layer_1" data-name="Layer 1"><path class="cls-1" d="M184.7,172.29s-13.93-.16-14.63-16.5c-.54-12.33,20.76-94.66-17.92-134.4-3.48-3.57-11.55-8.37-18.76-9.69a34,34,0,0,0-14.79.74,18.16,18.16,0,0,0-7.59-8C106.14,1.65,97.82,0,92.35,0c-114.69,0-77,139.44-77.72,155.79S0,172.29,0,172.29c0,13.61,15.17,12.28,15.17,12.28-.24,8.37-9.66,12.16-9.66,12.16,4.87,7.52,14.82,3.38,14.82,3.38C.27,221.54,26.4,215.32,26.4,215.32c-15.8,28.5,65.95,17.07,65.95,17.07s81.74,11.43,65.94-17.07c0,0,26.13,6.22,6.08-15.21,0,0,9.94,4.14,14.81-3.38,0,0-9.42-3.79-9.65-12.16C169.53,184.57,184.72,185.9,184.7,172.29Z"/><polygon class="cls-2" points="55.7 260 129.13 260 129.27 253.46 55.56 253.46 55.7 260"/><polygon class="cls-3" points="79.88 260 104.82 260 104.82 149.15 79.68 149.71 79.88 260"/><path class="cls-4" d="M136.87,257.12a6.74,6.74,0,0,0,.43-2.13l-9.78-5.53-.86,6.47s.1,1.33.35,4.07h12.5A11.68,11.68,0,0,0,136.87,257.12Z"/><path class="cls-5" d="M103.8,149.15l-.08,4.85,1.09,106h8.29a70.05,70.05,0,0,0,17.45-3.77l.18-4.57,6.62,4.57s19.11-27.36,19.13-36.73-25.75-45.17-33.83-59.4C118.47,152.74,110.51,150,103.8,149.15Z"/><path class="cls-2" d="M127.38,197.13c2.13,21.22,3.35,54.53,3.35,54.53l2.61,1.8C134.12,231.6,127.38,197.13,127.38,197.13Z"/><polygon class="cls-2" points="103.78 160.1 111.91 178.17 106.51 182.43 113.37 198.57 104.23 203.49 103.78 160.1"/><path class="cls-4" d="M47.4,255a7.05,7.05,0,0,0,.43,2.13A11.75,11.75,0,0,0,45.2,260H57.7c.24-2.74.35-4.07.35-4.07l-.87-6.47Z"/><path class="cls-5" d="M62.06,160.1c-8.09,14.23-33.85,50-33.84,59.4s19.13,36.73,19.13,36.73L54,251.66l.18,4.57A70.2,70.2,0,0,0,71.6,260h8.29L81,154l-.08-4.85C74.19,150,66.24,152.74,62.06,160.1Z"/><path class="cls-2" d="M57.32,197.13C55.19,218.35,54,251.66,54,251.66l-2.61,1.8C50.58,231.6,57.32,197.13,57.32,197.13Z"/><polygon class="cls-2" points="80.92 160.1 72.79 178.17 78.19 182.43 71.33 198.57 80.47 203.49 80.92 160.1"/><path class="cls-6" d="M30,107a13.1,13.1,0,0,0-12.22-3.88C8.33,105.14,1.27,130,43.44,138.66Z"/><path class="cls-6" d="M154.67,107a13.08,13.08,0,0,1,12.21-3.88c9.48,2.07,16.55,26.94-25.62,35.59Z"/><path class="cls-4" d="M102.65,164.7l-2.36.56a34.13,34.13,0,0,1-15.89,0L82,164.7c-34.88-8.32-59.59-40.43-59.59-77.44V47.71H162.24V87.26C162.24,124.27,137.53,156.38,102.65,164.7Z"/><path class="cls-3" d="M80.53,148.65s3-4.72,6.54-4.5,5.41,3.69,5.41,3.69,3.15-3.61,6.84-3.54,5.29,4.72,5.29,4.72-3.66,8.83-12.4,8.83S80.53,148.65,80.53,148.65Z"/><path class="cls-7" d="M98.6,127.31s-.6,5.57-5.8,5.6-6.26-5.6-6.26-5.6,2.84,3.43,6.16,3.43S98.6,127.31,98.6,127.31Z"/><path class="cls-8" d="M60.69,115.38h-.13c-.4,0-9.73-1-13.78-3.53a1.39,1.39,0,0,1-.45-1.88,1.31,1.31,0,0,1,1.82-.46c3.53,2.21,12.57,3.14,12.66,3.15A1.35,1.35,0,0,1,62,114.15,1.33,1.33,0,0,1,60.69,115.38Z"/><path class="cls-8" d="M59.28,112.4c-8.06,0-12.61-6.55-12.81-6.83a1.41,1.41,0,0,1,.32-1.91,1.3,1.3,0,0,1,1.84.33c.06.08,4.06,5.76,10.8,5.67h0a1.37,1.37,0,0,1,0,2.74Z"/><path class="cls-8" d="M67,110.24a6.49,6.49,0,0,1-7.86,4.94,6.75,6.75,0,0,1-4.78-8.13,6.49,6.49,0,0,1,7.86-4.93A6.73,6.73,0,0,1,67,110.24Z"/><path class="cls-9" d="M63.56,104.84c0,1-1.4,1.72-3,1.65s-2.94-.91-2.9-1.9,1.4-1.72,3-1.65S63.6,103.86,63.56,104.84Z"/><path class="cls-10" d="M74.73,93.74V90.51a.74.74,0,0,0-.62-.74c-3.55-.52-21.27-2.77-29.85,2.08A.76.76,0,0,0,44,92.9l1.61,2.74a.72.72,0,0,0,.85.33c2.43-.83,12.89-3.9,27.43-1.49A.73.73,0,0,0,74.73,93.74Z"/><path class="cls-10" d="M111.28,93.74V90.51a.74.74,0,0,1,.63-.74c3.55-.52,21.26-2.77,29.84,2.08A.78.78,0,0,1,142,92.9l-1.62,2.74a.7.7,0,0,1-.84.33c-2.43-.83-12.89-3.9-27.43-1.49A.73.73,0,0,1,111.28,93.74Z"/><path class="cls-8" d="M125.33,115.38a1.34,1.34,0,0,1-1.32-1.23,1.36,1.36,0,0,1,1.19-1.49c.09,0,9.13-.94,12.67-3.15a1.31,1.31,0,0,1,1.82.46,1.41,1.41,0,0,1-.45,1.88c-4.05,2.53-13.39,3.49-13.78,3.53Z"/><path class="cls-8" d="M126.74,112.4h-.19a1.37,1.37,0,0,1,0-2.74h.16c6.66,0,10.6-5.62,10.64-5.68a1.3,1.3,0,0,1,1.85-.32,1.39,1.39,0,0,1,.31,1.9C139.35,105.85,134.79,112.4,126.74,112.4Z"/><path class="cls-8" d="M119.07,110.24a6.49,6.49,0,0,0,7.86,4.94,6.74,6.74,0,0,0,4.77-8.13,6.49,6.49,0,0,0-7.86-4.93A6.72,6.72,0,0,0,119.07,110.24Z"/><path class="cls-9" d="M122.46,104.84c0,1,1.39,1.72,3,1.65s2.93-.91,2.89-1.9-1.39-1.72-3-1.65S122.42,103.86,122.46,104.84Z"/><path class="cls-1" d="M24,102.92s38.61-2,58.3-27.51c0,0,1.71,3.69-1.28,9.9,0,0,23.54-4,29.32-25.89,0,0,22.91,24.33,54.59,25.89V44.37H22.11l-4.84,42Z"/></g></g></svg>