<?xml version="1.0" standalone="no"?><!DOCTYPE svg PUBLIC "-//W3C//DTD SVG 1.1//EN" "http://www.w3.org/Graphics/SVG/1.1/DTD/svg11.dtd"><svg t="1548837880226" class="icon" style="" viewBox="0 0 1024 1024" version="1.1" xmlns="http://www.w3.org/2000/svg" p-id="7844" xmlns:xlink="http://www.w3.org/1999/xlink" width="200" height="200"><defs><style type="text/css"></style></defs><path d="M341.504 994.816H164.864c-74.752 0-135.68-60.928-135.68-135.68v-176.64H11.776V865.28c0 80.896 66.048 146.944 146.944 146.944h182.784v-17.408zM994.816 682.496v176.64c0 74.752-60.928 135.68-135.68 135.68h-176.64v16.896H865.28c80.896 0 146.944-66.048 146.944-146.944v-182.784h-17.408zM341.504 11.776H158.72C77.824 11.776 11.776 77.824 11.776 158.72v182.784h16.896V164.864c0-74.752 60.928-135.68 135.68-135.68h176.64V11.776zM865.28 11.776h-182.784v16.896h176.64c74.752 0 135.68 60.928 135.68 135.68v176.64h16.896V158.72c0.512-80.896-65.536-146.944-146.432-146.944z" fill="#D43634" p-id="7845"></path><path d="M279.552 725.504l62.464-268.8h-2.048c-2.048 0-5.632 1.024-7.68 2.048-1.024 5.632-4.096 20.48-6.656 27.136-3.072 13.824-3.072 15.872-4.096 23.552l-1.024 1.024h-27.136l-1.024-1.024 6.656-25.6c5.632-23.552 6.656-32.256 8.704-44.032l1.024-1.024c11.776-2.048 14.848-2.048 29.184-4.096l1.024 1.024-2.048 7.68c2.048-1.024 4.096-3.072 6.656-4.096 1.024-1.024 2.048-1.024 4.096-2.048l32.256-136.704C386.048 269.312 416.256 245.76 444.928 245.76H249.344c-30.208 0-59.392 23.552-65.536 53.76l-98.816 425.984c-6.656 30.208 11.776 53.76 40.96 53.76h194.56c-30.208 0-48.64-24.576-40.96-53.76zM260.096 501.76c-9.728 5.632-23.552 8.704-38.912 8.704-11.776 0-32.256-2.048-38.912-13.824-3.072-4.096-4.096-8.704-4.096-13.824l2.048-19.456 1.024-5.632 16.384-70.144 1.024-4.096s5.632 1.024 35.328 0v1.024c-3.072 8.704-18.432 70.144-18.432 70.144l-3.072 18.432v3.072c1.024 8.704 6.656 13.824 16.384 13.824 6.656 0 10.752-2.048 16.384-5.632 7.68-6.656 9.728-16.384 12.8-30.208 0 0 14.848-67.584 14.848-72.192 2.048 0 8.704 1.024 30.208 0v1.024c-3.072 8.704-18.432 73.216-18.432 73.216l-2.048 6.656c-2.048 14.336-6.144 29.184-22.528 38.912z" fill="#D43634" p-id="7846"></path><path d="M513.024 725.504l16.384-71.168h-19.456c-3.072 0-5.632 0-7.68-1.024-2.048-1.024-4.096-3.072-4.096-5.632 0-2.048 1.024-5.632 2.048-9.728l33.28-109.568h23.552l-3.072 11.776 3.072-3.072 6.656-27.136h-14.848v-1.024c1.024-4.096 2.048-9.728 3.072-13.824l1.024-6.656c2.048-9.728 4.096-21.504 4.096-25.6 0-2.048 1.024-7.68-5.632-7.68-2.048 0-5.632 1.024-8.704 2.048-1.024 5.632-4.096 20.48-6.656 27.136-3.072 13.824-3.072 16.384-4.096 23.552l-1.024 1.024h-27.136l-1.024-1.024 6.656-25.6c5.632-23.552 6.656-32.256 7.68-44.032l1.024-1.024c11.776-2.048 14.848-2.048 29.184-4.096l1.024 1.024-2.048 7.68c2.048-1.024 4.096-3.072 6.656-4.096 6.656-3.072 12.8-4.096 17.408-4.096 3.072 0 6.656 0 9.728 2.048l31.232-136.704c6.656-30.208 36.352-53.76 66.56-53.76H443.904c-30.208 0-59.392 23.552-65.536 53.76L347.136 435.2c5.632-2.048 9.728-2.048 12.8-2.048 5.632 0 11.776 2.048 14.848 8.704 2.048 6.656 1.024 13.824-2.048 28.16l-2.048 7.68c-3.072 16.384-4.096 19.456-5.632 30.208l-3.072 3.072h-27.136v-1.024c1.024-4.096 2.048-9.728 3.072-13.824l1.024-6.656c2.048-9.728 4.096-21.504 4.096-25.6 0-2.048 1.024-6.656-3.072-7.68l-62.464 268.8c-6.656 30.208 11.776 53.76 40.96 53.76H552.96c-28.16 0.512-46.592-24.064-39.936-53.248z m8.704-188.416l-5.632 17.408h-37.888l-4.096 3.072c-2.048 2.048-2.048 1.024-4.096 2.048s-6.656 3.072-12.8 3.072H445.44l5.632-16.384h3.072c3.072 0 5.632 0 6.656-1.024 1.024-1.024 2.048-2.048 4.096-5.632L471.04 527.36h28.16l-4.096 9.728h26.624zM421.376 448l-5.632 21.504c-1.024 4.096-2.048 9.728-3.072 13.824-2.048 9.728-3.072 13.824-4.096 16.384-1.024 2.048-1.024 4.096-2.048 9.728h-31.232c1.024-5.632 2.048-7.68 3.072-9.728 1.024-2.048 1.024-4.096 3.072-9.728 2.048-7.68 3.072-12.8 4.096-18.432 1.024-4.096 3.072-17.408 4.096-21.504-1.024-3.072 1.024-6.656 5.632-9.728 6.656-4.096 16.384-5.632 22.528-2.048 4.608 2.048 5.632 6.656 3.584 9.728z m5.632 24.576c2.048-9.728 6.656-20.48 13.824-28.16 11.776-10.752 25.6-10.752 32.256-10.752 9.728 0 20.48 2.048 25.6 9.728 3.072 4.096 6.656 12.8 3.072 29.184-1.024 5.632-4.096 17.408-11.776 24.576-9.728 9.728-21.504 12.8-34.304 12.8-4.096 0-11.776-1.024-17.408-3.072-15.872-6.144-13.824-23.552-11.264-34.304z m57.856 181.76h-31.232c-2.048 0-4.096 0-7.68-1.024-2.048-1.024-4.096-2.048-5.632-3.072-1.024-2.048-3.072-3.072-2.048-7.68l8.704-30.208h-14.848l5.632-17.408h14.848l4.096-13.824h-14.848l5.632-16.384h67.584l-5.632 16.384h-27.136l-4.096 13.824h28.16l-4.096 17.408h-28.16l-6.656 22.528c-1.024 2.048 6.656 3.072 9.728 3.072l13.824-2.048-6.144 18.432z" fill="#034582" p-id="7847"></path><path d="M551.424 545.792l-5.632 18.432s2.048-1.024 4.096-3.072l3.072-14.848h-1.536z m-92.16-51.712c3.072 0 5.632-2.048 7.68-5.632 3.072-4.096 5.632-14.848 6.656-17.408 3.072-12.8 2.048-20.48-4.096-20.48-8.704 0-11.776 10.752-14.848 22.528-1.024 4.096-2.048 8.704-2.048 11.776 1.024 9.216 6.656 9.216 6.656 9.216z m67.584 135.68c-1.024 3.072-1.024 5.632-1.024 5.632 1.024 1.024 2.048 2.048 3.072 2.048h3.072l9.728-41.984h-5.632l-9.216 34.304z m17.408-57.856l-2.048 7.68h5.632l2.048-7.68h-5.632z" fill="#034582" p-id="7848"></path><path d="M726.016 494.08c3.072 0 8.704-2.048 10.752-5.632 1.024-1.024 2.048-4.096 3.072-6.656 1.024-3.072 2.048-7.68 2.048-10.752 1.024-2.048 1.024-4.096 1.024-6.656 1.024-8.704-2.048-13.824-7.68-13.824-8.704 0-11.776 10.752-14.848 22.528-1.024 4.096-2.048 8.704-2.048 11.776 2.048 9.216 7.68 9.216 7.68 9.216z m-145.408 84.992l2.048-7.68h-34.304l-2.048 7.68h29.184c4.096 0 5.12 1.024 5.12 0z" fill="#107C84" p-id="7849"></path><path d="M890.368 246.784h-211.968c-30.208 0-59.392 23.552-66.56 53.76l-31.232 136.704c2.048 1.024 4.096 3.072 5.632 6.656 2.048 6.656 1.024 13.824-2.048 28.16l-2.048 7.68c-3.072 16.384-4.096 19.456-5.632 30.208l-1.024 1.024H563.2l-6.656 27.136c2.048-2.048 6.656-4.096 8.704-5.632 5.632-2.048 17.408-4.096 17.408-4.096h37.888l-12.8 43.008c-2.048 7.68-4.096 11.776-6.656 13.824-1.024 2.048-3.072 4.096-6.656 6.656-3.072 2.048-6.656 3.072-8.704 3.072H542.72l-9.728 41.984 12.8-1.024-5.632 19.456h-10.752l-17.408 71.168c-6.656 30.208 11.776 53.76 40.96 53.76h211.968c30.208 0 59.392-23.552 66.56-53.76l98.816-424.96c7.68-31.232-10.752-54.784-39.936-54.784zM738.816 435.2c4.096 2.048 7.68 4.096 9.728 7.68v-3.072l1.024-1.024c12.8-2.048 16.384-2.048 30.208-4.096v0.512c-2.048 9.728-5.632 20.48-7.68 30.208-5.632 21.504-6.656 32.256-8.704 43.008l-1.024 1.024h-28.16l-1.024-1.024c0-1.024 1.024-3.072 1.024-4.096-4.096 3.072-8.704 6.656-13.824 6.656-5.632 0-9.728-1.024-14.848-3.072-16.384-6.656-13.824-24.576-11.776-34.304 2.048-9.728 6.656-20.48 13.824-28.16 11.776-10.24 24.576-12.288 31.232-10.24z m-146.432 75.264l20.48-84.992 8.704-38.912s1.024-3.072 1.024-4.096c4.096 0 12.8 1.024 36.352 0h8.704c18.432 0 33.28 0 41.984 10.752 3.072 4.096 4.096 9.728 4.096 14.848 0 4.096-1.024 8.704-1.024 11.776-3.072 13.824-10.752 25.6-20.48 33.28-14.848 11.776-35.328 11.776-52.736 11.776h-2.048l-2.048 2.048c0 1.024-4.096 17.408-4.096 17.408s-4.096 22.528-5.632 27.136c-5.12-1.024-13.824-1.024-33.28-1.024z m7.68 97.792c-1.024 3.072-2.048 5.632-4.096 7.68-2.048 2.048-5.632 4.096-12.8 4.096h-12.8v11.776c0 3.072 1.024 3.072 1.024 3.072s1.024 1.024 2.048 1.024h4.096l12.8-1.024-6.656 19.456h-13.824c-9.728 0-17.408 0-20.48-2.048-2.048-1.024-3.072-3.072-2.048-6.656l1.024-46.08h22.528v9.728h5.632c2.048 0 3.072 0 4.096-1.024 1.024-1.024 1.024-1.024 1.024-2.048l2.048-7.68h18.432l-2.048 9.728z m79.36 46.08h-24.576l2.048-5.632h-49.664l5.632-16.384h5.632l25.6-87.04 5.632-17.408h24.576l-2.048 8.704s6.656-4.096 12.8-6.656c5.632-1.024 31.232-2.048 39.936-2.048h27.136v9.728c0 2.048 1.024 2.048 4.096 2.048h4.096l-4.096 17.408H742.4c-12.8 1.024-17.408-4.096-17.408-10.752v-9.728l-2.048 8.704h-8.704l-25.6 86.016h6.656l-5.632 17.408h-7.68l-2.56 5.632z m111.104-76.288h-27.136l-4.096 13.824h27.136l-4.096 13.824H752.64l-5.632 6.656h11.776l3.072 18.432c0 2.048 0 3.072 1.024 4.096 1.024 1.024 4.096 1.024 6.656 1.024h3.072l-5.632 18.432H752.64c-3.072 0-4.096-2.048-6.656-3.072-2.048-1.024-4.096-3.072-4.096-6.656l-3.072-18.432-12.8 18.432c-4.096 5.632-9.728 9.728-19.456 9.728h-18.432l5.632-16.384h7.68c2.048 0 4.096-1.024 5.632-1.024 1.024-1.024 2.048-1.024 4.096-3.072l19.456-27.136h-25.6l4.096-14.848h29.184l4.096-13.824h-29.184l5.632-16.384h80.896l-9.216 16.384z m16.896-50.688l-1.024 1.024-10.752 18.432c-3.072 6.656-9.728 10.752-19.456 10.752h-16.384l5.632-16.384h3.072c2.048 0 3.072 0 4.096-1.024 1.024 0 1.024-1.024 2.048-2.048l5.632-9.728c8.704-12.8 10.752-18.432 19.456-32.256-1.024-16.384-2.048-21.504-3.072-31.232-1.024-6.656-2.048-12.8-2.048-19.456-1.024-12.8-1.024-10.752-3.072-19.456V424.96l1.024-1.024c12.8-1.024 12.8-2.048 27.136-4.096l1.024 1.024 2.048 35.328v2.048c7.68-16.384 7.68-11.776 16.384-32.256V424.96l1.024-1.024c11.776-1.024 13.824-2.048 28.16-4.096l1.024 1.024c-1.536 0-54.272 91.648-61.952 106.496z" fill="#107C84" p-id="7850"></path><path d="M588.288 555.52l3.072-9.728h-36.352l-3.072 14.848c5.632-3.072 10.752-5.632 16.384-5.632h19.968z m75.264-114.176c7.68-3.072 12.8-10.752 13.824-19.456 2.048-9.728-1.024-16.384-7.68-19.456l-18.432-1.024h-3.072v3.072l-8.704 37.888v2.048h4.096c7.168 0.512 14.336 0.512 19.968-3.072z m-20.48 190.464h20.48l5.632-19.456h-20.48l-5.632 19.456z m25.6-86.016l-6.656 21.504s7.68-3.072 11.776-4.096c4.096-1.024 10.752-1.024 10.752-1.024l4.096-16.384h-19.968z m-16.896 54.784s7.68-4.096 11.776-5.632c4.096-1.024 10.752-2.048 10.752-2.048l5.632-16.384h-20.48l-7.68 24.064z" fill="#107C84" p-id="7851"></path></svg>