<svg xmlns="http://www.w3.org/2000/svg" viewBox="0 0 205.55 259.88"><defs><style>.cls-1{fill:#efc4a0;}.cls-2{fill:#f9dab4;}.cls-3{fill:#393c3d;}.cls-4{fill:#515151;}.cls-5{fill:#54a3b5;}.cls-6{fill:#3f959e;}.cls-7{fill:#4c3626;}.cls-8{fill:#f4d3b0;}.cls-9{fill:#e8e3d9;}.cls-10{fill:#3a332d;}.cls-11{fill:#e8dfd9;}.cls-12{fill:#7f5732;}</style></defs><title>资源 301</title><g id="图层_2" data-name="图层 2"><g id="Layer_1" data-name="Layer 1"><rect class="cls-1" x="114.86" y="150.69" width="34.01" height="36.97"/><path class="cls-2" d="M21,193.76S10.34,185.1,7.37,182l22.11-21L43.75,179Z"/><rect class="cls-3" x="22.26" y="139.47" width="24.95" height="4.08" rx="2.02" transform="translate(-97.91 81.19) rotate(-51.76)"/><rect class="cls-4" x="0.91" y="155.78" width="46.67" height="24.95" transform="translate(-122.91 83.14) rotate(-51.76)"/><rect class="cls-3" x="22.65" y="149.7" width="16.63" height="20.05" transform="translate(-113.64 85.17) rotate(-51.76)"/><rect class="cls-3" x="21.44" y="159.82" width="3.1" height="20.05" transform="translate(-124.64 82.77) rotate(-51.76)"/><rect class="cls-3" x="18.87" y="163.09" width="3.1" height="20.05" transform="translate(-128.18 81.99) rotate(-51.76)"/><rect class="cls-3" x="16.29" y="166.35" width="3.1" height="20.05" transform="translate(-131.73 81.21) rotate(-51.76)"/><rect class="cls-3" x="13.72" y="169.62" width="3.1" height="20.05" transform="translate(-135.27 80.43) rotate(-51.76)"/><rect class="cls-3" x="11.14" y="172.89" width="3.1" height="20.05" transform="translate(-138.82 79.66) rotate(-51.76)"/><path class="cls-2" d="M46.44,179.6a23.54,23.54,0,0,0,.34-7.55c-.92-7.45-5.69-17-13.08-13.91-8.56,3.58,2.77,18,2.77,18L21,193.76a44.07,44.07,0,0,0,10.11,6.76L46.9,182.67Z"/><path class="cls-2" d="M6.78,162.39c-1.29.49-11.21,3-4.42,11.75,5.26,6.74,9.94,6.23,11.67,4,3-3.87.24-6.91.24-6.91Z"/><path class="cls-1" d="M15.66,173.43l-.33,1.47s-7.11,1.83-11.07-11l0-.17a11.36,11.36,0,0,1,1.7-1Z"/><path class="cls-2" d="M12.58,155.56s-9.44,1.94-5.86,11.11,10.16,9.19,12.16,7.19c3.47-3.46,0-8.6,0-8.6Z"/><path class="cls-1" d="M20,167.62h0s-6.8.81-10.18-11h0a12.55,12.55,0,0,1,1.56-.71Z"/><path class="cls-2" d="M24,155c1.1,1.86,5.06,8.65.86,11.79s-8.53-.8-10.75-4.29-4.93-9.61-.47-12.11S22.92,153.09,24,155Z"/><path class="cls-5" d="M100.1,193.76,72.3,219.81a12.49,12.49,0,0,1-16.06.88L29.48,200.6l17.57-19.36L61.2,193.13c27.11-22.12,41.33-32.78,41.33-32.78Z"/><path class="cls-5" d="M161.2,160.35l10.61,99.53h21.53C189.05,175.83,161.2,160.35,161.2,160.35Z"/><polygon class="cls-6" points="166.81 193.2 173.45 259.88 178.39 259.88 166.81 193.2"/><path class="cls-5" d="M107.69,155.08h-4.52S91.94,210.6,89,259.88h85.28c-2.91-49.28-14.13-104.8-14.13-104.8h-4.53l-24,24.44Z"/><polygon class="cls-6" points="131.67 179.52 143.61 185.04 153.87 156.9 131.67 179.52"/><path class="cls-6" d="M129.57,259.88h2.1V179.52C127.78,207.24,128.37,238.42,129.57,259.88Z"/><rect class="cls-6" x="140.59" y="195.22" width="20.61" height="11.17"/><polygon class="cls-6" points="131.67 179.52 119.74 185.04 109.47 156.9 131.67 179.52"/><path class="cls-7" d="M64.14,101.9S34.82,15.55,131.67,15.55s68.44,86.35,68.44,86.35Z"/><path class="cls-8" d="M78.08,103.12s-2.68-9.76-13.17-6.27C55.63,99.93,57,134.7,86,141.39Z"/><path class="cls-8" d="M185.7,103.12s2.68-9.76,13.18-6.27c9.28,3.08,8,37.85-21.13,44.54Z"/><path class="cls-2" d="M132.26,167.36h-1.17a57.8,57.8,0,0,1-57.81-57.8V42.77H190.06v66.79A57.8,57.8,0,0,1,132.26,167.36Z"/><path class="cls-5" d="M131.67,0C42.28,0,59,74.48,59,74.48H204.3S221.07,0,131.67,0Z"/><path class="cls-4" d="M132,64.18c-52.1,0-64.43,10.3-64.43,10.3S69.18,88.64,132,88.64s64.44-14.16,64.44-14.16S184.08,64.18,132,64.18Z"/><path class="cls-9" d="M82.77,50.94a2.67,2.67,0,0,1-1.62-.51A2.6,2.6,0,0,1,80.67,47a.64.64,0,0,1,.85-.25.63.63,0,0,1,.25.86s-.65,1.21.12,1.77,2.23,0,3-.45c2.36-1.42,4.22-4.13,4.09-5s-2.57-1.22-4.2-1.49a8.67,8.67,0,0,1-3.34-.91c-1-.74-1.09-2.68-.75-4.26.51-2.31,1.82-3.91,3.52-4.27s3-.15,3.7.7c1.09,1.38,0,3.71-.13,4a.63.63,0,0,1-1.13-.55h0c.24-.48.79-2,.28-2.65-.33-.42-1.21-.51-2.46-.24-1.41.3-2.24,1.91-2.55,3.31-.34,1.56-.06,2.73.27,3a9.34,9.34,0,0,0,2.79.68c2.46.4,5,.81,5.24,2.56s-2.36,4.86-4.69,6.27A5.43,5.43,0,0,1,82.77,50.94Z"/><path class="cls-9" d="M95.91,47.56a3.64,3.64,0,0,1-1-.13c-2.83-.79-2.75-10.72-2.65-13.74v-.46l5.22-1.51a.63.63,0,1,1,.35,1.2l-4.34,1.26c-.13,5.63.52,11.7,1.75,12,1.87.53,5.14-1.51,6.24-2.34a.63.63,0,0,1,.75,1C102.09,45,98.67,47.56,95.91,47.56Z"/><path class="cls-9" d="M93,40.09a.61.61,0,0,1-.62-.57.62.62,0,0,1,.57-.68,11.57,11.57,0,0,0,5.27-2.12.62.62,0,0,1,.88.11.63.63,0,0,1-.11.88A12.71,12.71,0,0,1,93,40.09Z"/><path class="cls-9" d="M109.5,44.83a4.86,4.86,0,0,1-1-.11c-1.91-.44-3.33-2.15-4.22-5.07-1.27-4.11-1-7.09.64-8.84,2.56-2.65,7.44-1.38,7.65-1.32a.63.63,0,0,1-.32,1.21h0s-4.38-1.14-6.43,1c-1.35,1.4-1.46,4-.34,7.6.75,2.46,1.86,3.88,3.3,4.21,2.86.66,6.25-2.92,6.28-3a.63.63,0,0,1,.89,0,.62.62,0,0,1,0,.88C115.83,41.55,112.72,44.83,109.5,44.83Z"/><path class="cls-9" d="M124.85,43.15A5,5,0,0,1,121.53,42c-3.8-3.2-2.49-12-2.43-12.33a.62.62,0,0,1,.71-.52.62.62,0,0,1,.53.71c0,.08-1.26,8.44,2,11.18,1.17,1,2.86,1.11,5,.38a5.58,5.58,0,0,0,3.69-3.2c1.43-3.66-1.29-8.72-1.31-8.77a.62.62,0,0,1,.25-.85.64.64,0,0,1,.85.25c.12.23,3,5.62,1.38,9.82a6.78,6.78,0,0,1-4.45,3.94A9.12,9.12,0,0,1,124.85,43.15Z"/><path class="cls-9" d="M138.73,45.32a.64.64,0,0,1-.63-.56c-.15-1.35-1.42-13.27.1-15.59A5.07,5.07,0,0,1,143,27.09a3.54,3.54,0,0,1,3,2.54c1.16,3.7-.18,7.21-3.59,9.6,1.93.67,5.51,2.13,7.25,4.16a.63.63,0,0,1-.07.88.62.62,0,0,1-.88-.06c-2.16-2.52-7.9-4.18-8-4.2l-1.46-.42,1.32-.73c5.35-3,4.71-7.18,4.18-8.85a2.29,2.29,0,0,0-2-1.68,3.82,3.82,0,0,0-3.53,1.53c-1,1.46-.45,9.83.1,14.76a.63.63,0,0,1-.55.69Z"/><path class="cls-9" d="M154.81,44.77a.63.63,0,0,1-.63-.61c0-.39-.24-9.53-.15-10.93a3.55,3.55,0,0,1,1.39-2.29c-1.76-.49-4.09-1.26-4.22-1.3a.63.63,0,0,1,.4-1.2s4,1.33,5.42,1.6l1.7.31-1.51.85c-.72.41-1.89,1.34-1.93,2.1-.08,1.35.15,10.73.15,10.83a.63.63,0,0,1-.61.64Z"/><path class="cls-9" d="M153.34,45.07c-.67,0-1.21,0-1.5,0a.63.63,0,0,1,.07-1.26c3.34.18,7.16-.28,7.51-1.32a.63.63,0,1,1,1.19.4C160,44.79,155.77,45.07,153.34,45.07Z"/><path class="cls-9" d="M171.72,33.39h-.12a55.71,55.71,0,0,1-9.44-3,.63.63,0,0,1,.49-1.16,55.47,55.47,0,0,0,9.18,2.91.63.63,0,0,1-.11,1.24Z"/><path class="cls-9" d="M168.16,46.2a.63.63,0,0,1-.62-.55,60.67,60.67,0,0,1,0-13.87.63.63,0,1,1,1.24.19,61,61,0,0,0,0,13.53.62.62,0,0,1-.55.7Z"/><path class="cls-9" d="M179.89,44.49a.63.63,0,0,1-.53-.3l-6.48-10.54A.63.63,0,0,1,174,33l6.48,10.54a.62.62,0,0,1-.21.86A.67.67,0,0,1,179.89,44.49Z"/><path class="cls-9" d="M174.16,55.43a.59.59,0,0,1-.34-.1.63.63,0,0,1-.18-.87c3.73-5.61,9.17-18.85,9.23-19a.62.62,0,0,1,.81-.34A.63.63,0,0,1,184,36c-.23.55-5.55,13.49-9.34,19.2A.63.63,0,0,1,174.16,55.43Z"/><path class="cls-1" d="M129.16,142.34c-16.25,0-25.22-2.38-25.77-2.53a1.19,1.19,0,1,1,.62-2.3c.24.07,20.55,5.42,55.39,0a1.2,1.2,0,0,1,1.36,1,1.18,1.18,0,0,1-1,1.35A198.45,198.45,0,0,1,129.16,142.34Z"/><path class="cls-1" d="M132,152.74a28.57,28.57,0,0,1-9.62-1.57,1.19,1.19,0,0,1,.87-2.22,28.06,28.06,0,0,0,17.54,0,1.19,1.19,0,1,1,.76,2.26A29.88,29.88,0,0,1,132,152.74Z"/><path class="cls-1" d="M131.58,119.83c-5.43-.14-10,5-10,5s5.9-2.44,10-2.5,10,2.5,10,2.5S137,120,131.58,119.83Z"/><path class="cls-10" d="M106.5,108.74a6.8,6.8,0,1,1-6.8-6.8A6.8,6.8,0,0,1,106.5,108.74Z"/><path class="cls-11" d="M100.82,104c.17.82-.84,1.72-2.26,2s-2.71-.15-2.87-1,.85-1.72,2.27-2S100.66,103.19,100.82,104Z"/><rect class="cls-12" x="85.84" y="91.5" width="22.08" height="5.6" rx="2.38"/><path class="cls-10" d="M157.72,108.74a6.8,6.8,0,1,0,6.8-6.8A6.79,6.79,0,0,0,157.72,108.74Z"/><path class="cls-11" d="M163.39,104c-.16.82.85,1.72,2.27,2s2.7-.15,2.87-1-.85-1.72-2.27-2S163.56,103.19,163.39,104Z"/><rect class="cls-12" x="156.3" y="91.5" width="22.08" height="5.6" rx="2.38"/></g></g></svg>