<svg xmlns="http://www.w3.org/2000/svg" viewBox="0 0 261.61 269.24"><defs><style>.cls-1{fill:#e0605c;}.cls-2{fill:#ce5555;}.cls-3{fill:#515151;}.cls-4{fill:#9b9b9b;}.cls-5{fill:#898989;}.cls-6{fill:#f9f5ed;}.cls-7{fill:#f9dab4;}.cls-8{fill:#f7cea6;}.cls-9{fill:#e06969;}.cls-10{fill:#d15d5d;}.cls-11{fill:#cc5a5a;}.cls-12{fill:#393c3d;}.cls-13{fill:#2f3233;}.cls-14{fill:#e5be9e;}.cls-15{fill:#d15852;}.cls-16{fill:#c14f4c;}.cls-17{fill:#bc4b4b;}</style></defs><title>资源 211</title><g id="图层_2" data-name="图层 2"><g id="Layer_1" data-name="Layer 1"><path class="cls-1" d="M75.46,221.31l13-43.76s-48.6,11.47-59.69,13-16.68,32.83-16.68,32.83Z"/><path class="cls-2" d="M87.08,182.13,76.8,180.26c-3.22.75-6.91,1.6-10.79,2.48l-.06.09s9.06,2.56,5.43,14S66.86,210,62,205.09s-9.43-8.08-17.73-9.58a17.84,17.84,0,0,0-11,1.64c-1.56.76-4.17,2.3-4.71,4.08-.3,1,.88,1.25,2.27-.14,2.34-2.34,18.86-8.75,24.75,3.77,2.28,5.12,3.94,13,4.69,17l15.23-.51Z"/><path class="cls-3" d="M250.65,214.63a5.43,5.43,0,0,1-4.46,6.25l-26.65,4.47a5.43,5.43,0,0,1-6.25-4.47L203.77,164a5.43,5.43,0,0,1,4.46-6.26l26.64-4.46a5.43,5.43,0,0,1,6.26,4.46Z"/><path class="cls-4" d="M246.35,205.21a4.49,4.49,0,0,1-3.89,5L219.59,214a4.49,4.49,0,0,1-5.31-3.45l-7.5-44.8a4.48,4.48,0,0,1,3.89-5L233.55,157a4.47,4.47,0,0,1,5.3,3.45Z"/><path class="cls-5" d="M236.37,217.31a4.23,4.23,0,1,1-4.49-3.94A4.24,4.24,0,0,1,236.37,217.31Z"/><path class="cls-6" d="M223.32,158.68l-.2,54.76,3.63-.6.19-54.77Zm5.88-1-.2,54.76,1.81-.3.2-54.77Z"/><path class="cls-7" d="M195.77,209.55s-4.18-11-.32-28.29c2.56-9.54,5.46-6.7,11.05-4.5a26.59,26.59,0,0,0,12.07,1.79c2-.13,3.77,6.86-.31,9.24s-10.4,2.8-10.4,2.8,8.78,16.19,3.74,23.71S197.2,215.8,195.77,209.55Z"/><path class="cls-8" d="M219.46,179c-.07,1.8-.76,8.09-6.79,8.87a11,11,0,0,1-8.63-2.46c-.72-.63-2.34,1.21,1.2,5.67s5.81,18.13.43,21.5S195,207,195,207a22,22,0,0,0,.73,2.55c1.43,6.25,10.79,12.28,15.83,4.75s-3.74-23.71-3.74-23.71,6.32-.41,10.4-2.8C221.69,185.79,221,180.52,219.46,179Z"/><path class="cls-7" d="M249.38,192.4s-7.34,8.12-8.06,11.82,3.6,9.34,10.6,1.32c3-3.39,6.88-6.57,9-10.61a4.11,4.11,0,0,0,.34-4c-.87-1.61-3.56-3.55-5.45-3.44C253.17,187.65,251,190.67,249.38,192.4Z"/><path class="cls-8" d="M260.88,194.93a4.11,4.11,0,0,0,.34-4c-.87-1.61-3.56-3.55-5.45-3.44-2.42.14-4.52,2.77-6.06,4.53h0c1.8-2.07,7.1-4.41,8.73-.9s-2.41,8.33-4.13,10.3-5.24,6-8.17,5.28-3.79-5-3.79-5a9.33,9.33,0,0,0-1,2.5c-.72,3.7,3.6,9.34,10.6,1.32C254.87,202.15,258.8,199,260.88,194.93Z"/><path class="cls-7" d="M246.81,181.46s-7.9,8.68-8.7,12.66,3.76,10.12,11.29,1.54c3.18-3.62,7.39-7,9.65-11.34a4.49,4.49,0,0,0,.4-4.31c-.91-1.75-3.76-3.87-5.78-3.77C250.89,176.37,248.5,179.61,246.81,181.46Z"/><path class="cls-8" d="M259.05,184.32a4.49,4.49,0,0,0,.4-4.31c-.91-1.75-3.76-3.87-5.78-3.77-2.59.12-4.85,2.94-6.5,4.82h0c1.93-2.2,7.61-4.68,9.31-.88s-2.65,9-4.49,11.07-5.65,6.43-8.76,5.61-4-5.42-4-5.42a9.93,9.93,0,0,0-1.12,2.68c-.8,4,3.76,10.12,11.29,1.54C252.58,192,256.79,188.64,259.05,184.32Z"/><path class="cls-7" d="M242.72,171.86s-8.22,9-9.05,13.17,3.9,10.52,11.74,1.59c3.3-3.76,7.69-7.29,10-11.79.74-1.42,1.2-3,.41-4.48-1-1.81-3.91-4-6-3.92C247,166.57,244.47,169.93,242.72,171.86Z"/><path class="cls-8" d="M255.45,174.83c.74-1.42,1.2-3,.41-4.48-1-1.81-3.91-4-6-3.92-2.7.13-5,3.06-6.77,5h0c2-2.3,7.92-4.87,9.69-.92s-2.75,9.33-4.67,11.52-5.87,6.68-9.11,5.83-4.16-5.64-4.16-5.64a10.07,10.07,0,0,0-1.16,2.79c-.84,4.14,3.9,10.52,11.74,1.59C248.71,182.86,253.1,179.33,255.45,174.83Z"/><path class="cls-9" d="M188.5,209.39s12.09,1.78,15.84,8c2.57,4.53,4.25,11.8,2.64,16.22-1.83,4.89,4,1.06,6.34-1.43s2.34-10-1.58-17.66-13.36-12.3-16.68-12.3S188.5,206,188.5,209.39Z"/><path class="cls-10" d="M213.32,232.18a6.26,6.26,0,0,0,1.39-3.19,30.28,30.28,0,0,1-7.8,4.84C205.35,238.37,211,234.63,213.32,232.18Zm-18.26-30c-3.32,0-6.56,3.77-6.56,7.17,0,0,.77.11,2,.39a21,21,0,0,1,6.43-7.26A7.78,7.78,0,0,0,195.06,202.22Zm16.08,11.23a22.66,22.66,0,0,0-4.23-5.09,52.42,52.42,0,0,1-4,7.25,9.46,9.46,0,0,1,1.4,1.78c.36.64.71,1.33,1,2.06A23.73,23.73,0,0,0,211.14,213.45Zm-4.27,10.46a24.16,24.16,0,0,1,.74,5.36,23.83,23.83,0,0,0,7.29-3.51,25.67,25.67,0,0,0-1.62-7.71A20.17,20.17,0,0,1,206.87,223.91Zm-7.36-20.43a30,30,0,0,0-5.36,7.29,26.48,26.48,0,0,1,6.74,3.14,21.1,21.1,0,0,0,3.19-7.81A28.07,28.07,0,0,0,199.51,203.48Z"/><path class="cls-1" d="M134.32,179.06s10.56-3.63,20.22,10.26,19.92,32,19.92,32,8.45-13,17.51-13c0,0,19.92,1.51,16,26-1.82,5.74-26,22-31.7,25s-16,6-27.77-15.39S116.81,184.79,134.32,179.06Z"/><path class="cls-2" d="M192,208.33c-9.06,0-17.51,13-17.51,13s-10.26-18.11-19.92-32-20.22-10.26-20.22-10.26c-17.51,5.73,2.41,43.46,14.18,64.89,4,7.25,7.8,11.7,11.32,14.3h0s-15.39-55.2-12.37-66.37c2.11-6.64,19.16,16.45,22.79,27.62,1.35,4.08,2.71,7.85,2.71,7.85s-3.24,14.71,1.36,19.32,1.36-2,.3-4.38.46-14,1.51-16.75c3-6.34,6.44-11.31,15.27-9.86,8.52,1.4,16.44,16.13,13.06,23.2,1.86-1.83,3.15-3.43,3.52-4.59C211.89,209.84,192,208.33,192,208.33Z"/><path class="cls-1" d="M151.52,247.57c-3-10.56-2.41-41-13.43-70.93-35.77,0-57.5.15-57.5.15s-5.73,8.3-8.75,29.73S64,253.31,61,260.55c-1.68,4-3.13,6-2.27,8.69h97.08A114,114,0,0,0,151.52,247.57Z"/><path class="cls-11" d="M78.18,167.89s25.92,9.15,58.16-2.6c12.62,4.56,8.69,15,1.75,17.24s-36.37,10-57.8,2.86C67.61,181,72,167.89,78.18,167.89Z"/><path class="cls-9" d="M7.55,222s3.28-9.17,5.2-11.09,10.75-4.75,25-8.15,17.49-2.15,21.68,2,8.82,9.73-.46,9.73S3.15,232,7.55,222Z"/><path class="cls-10" d="M16.57,208.82a12.72,12.72,0,0,0-3.82,2.08C10.83,212.82,7.55,222,7.55,222c-1.58,3.58,3.37,3.64,10.79,2.25C15.42,220.91,16,213.09,16.57,208.82Zm42.82-4c-2.57-2.57-4.8-4-9.41-4,2.1,3.13,4.79,8.3,4.85,14.26a23.17,23.17,0,0,1,4.1-.54C68.21,214.52,63.57,209,59.39,204.79Zm-21.68-2-2.55.62c.76,4.16,2.29,10.87,4.85,15.45,2.56-.7,5.05-1.38,7.35-2-1-3.84-2.9-10.74-3.87-15.33C41.79,201.82,39.88,202.23,37.71,202.75Zm-16.24,4.36c.14,3.3.71,9,2.83,13.45a11.85,11.85,0,0,0,1.27,2.08c2.43-.59,5-1.25,7.5-1.93-.89-4.3-2.93-11.77-3.75-15.85Q24.83,206,21.47,207.11Z"/><path class="cls-7" d="M16.15,217.84s-6.94-4.07-9.66,0S0,224.93,0,231.12-.15,251,6.19,255.87,19.77,260.7,21.73,250a19.43,19.43,0,0,0,18.11,6.94c3.47-.6,7.25-5.28,4.68-13.28,10.57-1.06,22.34-4.38,22.34-10.87,9.66,2.87,22.94,3.62,29.43-1.2s6.49-10.87-2.12-10.87-21.35-4.15-27.84-8.83-15.77-8.53-25.58-7-19.4,5.06-20.68,6.34S16.9,213.77,16.15,217.84Z"/><path class="cls-8" d="M40.37,234.67s7.13-5.21,16-5.21c2.15,0,1.92-2-1.25-1.47s-10.63,1.91-14.6,4.75C39,234.22,38.85,235.64,40.37,234.67Z"/><path class="cls-8" d="M94.17,220.71h-.81l-.23.14c5.3,3.45,1.19,7.87-8.92,10.43s-18.71-3.76-18.71-3.76h0a14.07,14.07,0,0,0-1.21-1.83c-4.3-5.58-13.28-4.15-19.47-2.34s-8.52,4.15-6.71,4.53,7.54-3.25,12.67-4.15,13,1.43,13.89,7.32-12,9.66-17.06,10.64-10-1.89-10.79-5.06-1.43-3.17-1.73-.15,1.66,6.72,7.85,7.55c4.37,12.45-7.47,12-13.44,10s-9.88-9.89-12-16.68-4.23-7.39-4.23-5.73,3.32,10.86,6.94,17.95c-2.56,11.78-10.26,7.25-14.49,3s-5-25.37-5.05-25.67A13.13,13.13,0,0,0,0,231.12c0,6.19-.15,19.92,6.19,24.75S19.77,260.7,21.73,250a19.43,19.43,0,0,0,18.11,6.94c3.47-.6,7.25-5.28,4.68-13.28,10.57-1.06,22.34-4.38,22.34-10.87,9.66,2.87,22.94,3.62,29.43-1.2S102.78,220.71,94.17,220.71Z"/><path class="cls-1" d="M27.35,114.61S13.63,93.49,22.41,70.83s20.36-42.1,40.25-54.59,31-18,50-15.73a86.56,86.56,0,0,1,50.88,25c14.11,14.11,37.35,57.13,27.1,86.16C102.75,113.55,27.35,114.61,27.35,114.61Z"/><path class="cls-7" d="M46.47,112.57S45,127,42.46,139.4c-1.75,8.61,19.12,35.16,69.08,32.7,37,0,68-26,65.49-41.64S166.13,70,166.13,70s-49-38.24-113.7,0C49.06,94,46.47,112.57,46.47,112.57Z"/><path class="cls-8" d="M175.51,139.18l-1.16-.5c-6.58,13-33.92,31.87-70.88,31.23s-55.36-24.23-55.36-24.23l-3.61,1.23C51,158,72.25,174,111.54,172.1,142.24,172.1,168.76,154.2,175.51,139.18Z"/><path class="cls-12" d="M87,106a9.84,9.84,0,0,0-2.26-5.52c-1.34-1.33-5.24-1-11.31-.41s-9.17.87-9.56,2.47c-.29,1.21-.48,3-.07,3.33s5.12-.09,7.82-.17q4.57-.14,9.15,0C82.82,105.72,84.9,105.91,87,106Z"/><path class="cls-12" d="M139,99.83a10.27,10.27,0,0,1,2.38-5.41c1.31-1.27,4.94-.79,10.58.09s8.88,1.25,8.81,2.89c0,.89.3,1.79.23,2.66-.11,1.35-1.29.88-2.28.79-1.88-.18-3.75-.51-5.64-.66q-4.11-.31-8.24-.38C142.91,99.78,141,99.88,139,99.83Z"/><path class="cls-13" d="M83.19,116c1.68.58-2.36,1.86-2.72,2-2.12,1-4.52,1.82-6.61,2.9-.91.48-4.13,2.86-2.54,4.12,1.27,1,3.7-.64,4.78-1.28,1.85-1.09,3.28-1.94,5.58-3,2.94-1.42,8.12-4.82,6.23-5.85s-6.7-3-16-6.8c-2.19.44-3.82,2.12-3.31,4.44C73.35,113.62,78.54,114.36,83.19,116Z"/><path class="cls-13" d="M154.56,114.66a9.33,9.33,0,1,1-9.33-9.33A9.32,9.32,0,0,1,154.56,114.66Z"/><path class="cls-6" d="M151.36,109.86c-.24,1.42-2.44,2.24-4.91,1.84s-4.31-1.89-4.07-3.31,2.43-2.25,4.91-1.84S151.59,108.44,151.36,109.86Z"/><path class="cls-14" d="M104.18,134.06v0h0Zm17.06.54h0a12.88,12.88,0,0,0-2.45-5.85,7.4,7.4,0,0,0-2.61-2,8.71,8.71,0,0,0-3.71-.75h0a6.49,6.49,0,0,0-3.91,1.34,11.9,11.9,0,0,0-3.35,4.23,16,16,0,0,0-1,2.48v0a.75.75,0,0,0,0,.26.91.91,0,0,0,.67.88.73.73,0,0,0,.25,0,.92.92,0,0,0,.89-.66h0s0,0,0-.1a15.15,15.15,0,0,1,1.65-3.43,8.36,8.36,0,0,1,2.06-2.25,4.58,4.58,0,0,1,2.78-.95,7,7,0,0,1,2.94.58,5.9,5.9,0,0,1,2.67,2.56,13.18,13.18,0,0,1,1.34,4,.92.92,0,0,0,.91.75h.17a.93.93,0,0,0,.76-.91A1.1,1.1,0,0,0,121.24,134.6Z"/><path class="cls-14" d="M142.83,140.89a1,1,0,0,0-.3,0,1.09,1.09,0,0,0-1,.78,17.37,17.37,0,0,1-1.08,3,6.69,6.69,0,0,1-1.07,1.57,9.67,9.67,0,0,1-2.84,2,41,41,0,0,1-5.41,2.17,57.06,57.06,0,0,1-8.69,1.87,196,196,0,0,1-25.71,1.59H94.62a1.09,1.09,0,0,0-1.08,1.06v0A1.08,1.08,0,0,0,94.6,156h2.05c3.07,0,9.24-.07,15.94-.54,3.34-.24,6.82-.58,10.12-1.07a59,59,0,0,0,9-1.94h0a47.91,47.91,0,0,0,5.2-2,15.45,15.45,0,0,0,2.65-1.56,8.92,8.92,0,0,0,2.51-2.86,18.4,18.4,0,0,0,1.43-3.71,1.54,1.54,0,0,0,0-.3A1.09,1.09,0,0,0,142.83,140.89Zm4.64-1.54a8.92,8.92,0,0,0-2.49-2.47,4.76,4.76,0,0,0-2.56-.78h0a4.92,4.92,0,0,0-2.31.61,8.13,8.13,0,0,0-2.25,1.89,9.23,9.23,0,0,0-.6.79,3.09,3.09,0,0,0-.22.34h0a1.06,1.06,0,0,0,.39,1.47,1,1,0,0,0,.54.15,1.09,1.09,0,0,0,.73-.28l.06,0,.14-.28.17-.25h0a8.17,8.17,0,0,1,.94-1.11,5.36,5.36,0,0,1,1.15-.87,2.72,2.72,0,0,1,1.27-.34,2.56,2.56,0,0,1,1.43.45,7,7,0,0,1,1.87,1.89,1.07,1.07,0,0,0,.88.46,1.08,1.08,0,0,0,.88-1.71Z"/><path class="cls-8" d="M58.88,88.17S61.59,75.29,72.37,75s17.74,8.19,12.34,25.49c0,0,7.39,1.71,10.1-5.72a21.77,21.77,0,0,1,3.28,10.61s6.54-7.1,3.27-13.11c3.86,3.85,7.41,15.11,3.24,24.21,0,0,13.88-4,17.58-21.28a12.49,12.49,0,0,1,0,12.18s8-5.24,8-11.26c2.31,4,8.17,5.09,8.17,5.09s-2.93-22,8.17-26.37,18.51,10,18.51,18.66-3.6,39.41,1.74,37.83l6-59.31s-34-23.36-74-19.52S57.1,67.93,58.88,88.17Z"/><path class="cls-12" d="M28.38,119s17.22-9.76,20.86,4.42,8.54,14.29,8.54,3.18S56.65,82,62.71,76s19.12-7.4,23.65,3.29a27.57,27.57,0,0,1,0,20.56s6.83-2.21,7.53-7.53c3.31,1.44,4.54,9.17,4.54,9.17s4.78-4.78.77-12.34c3.09,1.86,12.57,6.17,8.64,24.91,0,0,15.86-13.11,13.16-23.83,0,0,4.37,4.32,3,14,0,0,6.91-8.38,4.83-13.47,1.62,2.39,3.66,5.87,7.59,8.24,0,0-2.05-13.16,2.37-20,4.71-5.95,9-10.29,18.57-6.9s9.56,19.12,9.56,27.14-1.7,26.83-1.7,30.38,6,1.7,7.1-9.92c0-8,8-15.68,18.35-16.76,0,0-3.77-22.75-42.41-41-39.47-19.12-79.37-1.24-88.13,5.62C60.11,67.62,24.88,84.82,28.38,119Z"/><path class="cls-2" d="M163.5,25.49a86.56,86.56,0,0,0-50.88-25c-19-2.31-30.07,3.24-50,15.73A84.27,84.27,0,0,0,38,40.29c.09,0,4.68.08,11-8.25S82.24,9.26,98.28,6.48s37,1.55,50,10.49S172,39.52,173.42,38.14A81.86,81.86,0,0,0,163.5,25.49Z"/><path class="cls-2" d="M26.73,73.41c-7.09,3.08,7.09-10.49,11.41-17.89s-11.32,4.82-11.33,4.83q-2.32,5.1-4.4,10.48c-5.39,13.91-2.3,27.23.89,35.45l1.95,1.47A29.88,29.88,0,0,1,28,82.66C35.67,69.85,33.82,70.32,26.73,73.41Z"/><path class="cls-2" d="M184.47,58.8s-6.42-5.65-11.35-7.29,1.95,7.92,8.12,11.82,2.26,7.82-1.13,4.42-6.68-1.75,1.64,6.58c7.54,7.54,10.7,18.1,11.23,25.52C194,86.61,190.1,71.9,184.47,58.8Z"/><path class="cls-15" d="M29,116.58S31.26,82.87,74.8,67.81s94-4,115.8,39.21l3-1.23S190.18,92.53,176.92,75,140.84,45,106.61,44.73,43.38,67.86,35.52,82.81,24,106.71,24.63,117.37Z"/><path class="cls-16" d="M38.19,78.53a40.88,40.88,0,0,0,4.14,10,64,64,0,0,1,10.43-9.46,104.59,104.59,0,0,1-3.18-12.64A69.29,69.29,0,0,0,38.19,78.53ZM28.31,97.84a32.68,32.68,0,0,0,4.87,4.63,57,57,0,0,1,3.21-5.94c-1.28-2.07-2.82-4.69-4.14-7.35C30.71,92.3,29.39,95.16,28.31,97.84Zm-3.68,19.53,4.41-.79a37,37,0,0,1,1.73-7.89c-1.81-1.35-3.48-2.78-4.81-4A37.91,37.91,0,0,0,24.63,117.37ZM186.07,88.83a22.51,22.51,0,0,1-3.89,4.8A83.7,83.7,0,0,1,190.6,107l3-1.23S191.87,99.06,186.07,88.83ZM173.44,70.71a90.44,90.44,0,0,1-4.95,9.11,77.42,77.42,0,0,1,8.35,7.59,30.58,30.58,0,0,0,4.08-6.87q-1.83-2.72-4-5.59C175.83,73.5,174.67,72.08,173.44,70.71ZM109.79,44.79c0,3.8-.21,10.16-.82,16.7a104.82,104.82,0,0,1,14.09.52c.74-4.76,1.5-11.23,1.11-16A125.73,125.73,0,0,0,109.79,44.79ZM133,63.58a94.54,94.54,0,0,1,10,2.7c1.55-3.72,3.42-9.27,3.34-14.3a89.85,89.85,0,0,0-11.35-3.74A64.88,64.88,0,0,1,133,63.58ZM58.22,59.94a77.48,77.48,0,0,0,3.86,13.34A92.06,92.06,0,0,1,74.8,67.81l1-.32A147.31,147.31,0,0,1,73.38,51.7,95.51,95.51,0,0,0,58.22,59.94Zm93.05,9.52a83.27,83.27,0,0,1,9.54,5,62.41,62.41,0,0,0,4.31-11.64,71.62,71.62,0,0,0-11.44-7.47A88.8,88.8,0,0,1,151.27,69.46ZM85.22,47.55a89.1,89.1,0,0,0,.78,17,116,116,0,0,1,12.71-2.29,103,103,0,0,0-.43-17.14A81,81,0,0,0,85.22,47.55Z"/><path class="cls-2" d="M73.61,41.64s46.16-12.85,75.56,3.09c10.79,5.85,8.17.77,2.15-5.25s-4.31-5.55,1.86-3.08,1.85-8.95-24.37-12.95-61.45,5.8-76.48,17.88-.93,5.55,5.86,2.47,4.16-.46,1.85,1.85S60.35,50.28,73.61,41.64Z"/><path class="cls-17" d="M80.18,36.54s35.13-7.35,57.5,1.76c8.22,3.34,6.22.44,1.64-3s-3.28-3.17,1.41-1.76,1.41-5.11-18.54-7.4S75.42,29.46,64,36.36s-.7,3.17,4.46,1.41,3.17-.27,1.41,1.06S70.08,41.47,80.18,36.54Z"/><path class="cls-7" d="M48.86,123S45.22,106,31.25,110.19,18.5,131.06,23.5,138.66s22,18.51,26.37,3.59C49.71,132.81,48.86,123,48.86,123Z"/><path class="cls-8" d="M31.25,110.19C45.22,106,48.86,123,48.86,123l0,.32s-6.13-14.24-18.75-10.87-6.87,25.71-1.11,29,14.92,8.9,20.84.79c-4.35,14.92-21.37,4-26.37-3.59S17.28,114.44,31.25,110.19Z"/><path class="cls-14" d="M42.48,128.7a16.27,16.27,0,0,0-1.75-6.4,1.14,1.14,0,0,0-.12-.22,8.85,8.85,0,0,0-4.33-4,6.53,6.53,0,0,0-2.25-.53,1.21,1.21,0,0,0-1.17,1.14,1,1,0,0,0,1,1.18h.07a5.41,5.41,0,0,1,1.47.39,6.56,6.56,0,0,1,2.44,1.78,14.83,14.83,0,0,0-2.28.86,12.76,12.76,0,0,0-6.46,6.73,7.46,7.46,0,0,0-.27.71,1.11,1.11,0,0,0,.56,1.42l.06,0a1.14,1.14,0,0,0,1.39-.79c.07-.18.14-.37.22-.56A10.24,10.24,0,0,1,36.29,125a11.83,11.83,0,0,1,2.47-.86l.35-.08a15.32,15.32,0,0,1,1.22,5,1,1,0,0,0,.62.9,1,1,0,0,0,.55,0A1.25,1.25,0,0,0,42.48,128.7Z"/><path class="cls-7" d="M173,115.62s3.64-17.06,17.61-12.81,12.75,20.86,7.75,28.47-22,18.51-26.37,3.58C172.14,125.43,173,115.62,173,115.62Z"/><path class="cls-8" d="M190.6,102.81c-14-4.25-17.61,12.81-17.61,12.81s0,.12,0,.32c0,0,6.13-14.23,18.75-10.86s6.87,25.71,1.11,29S177.9,143,172,134.86c4.35,14.93,21.37,4,26.37-3.58S204.56,107.06,190.6,102.81Z"/><path class="cls-14" d="M179.37,121.32a16.32,16.32,0,0,1,1.75-6.41,2.39,2.39,0,0,1,.12-.22,8.87,8.87,0,0,1,4.33-4,6.69,6.69,0,0,1,2.25-.54,1.22,1.22,0,0,1,1.17,1.15,1,1,0,0,1-1,1.18h-.07a5,5,0,0,0-1.47.39,6.56,6.56,0,0,0-2.44,1.78,15.79,15.79,0,0,1,2.28.85,12.78,12.78,0,0,1,6.46,6.74c.09.22.19.46.27.71a1.11,1.11,0,0,1-.56,1.42l-.07,0a1.15,1.15,0,0,1-1.39-.79c-.06-.19-.13-.37-.21-.56a10.24,10.24,0,0,0-5.25-5.43,12.8,12.8,0,0,0-2.47-.87l-.35-.07a15.26,15.26,0,0,0-1.22,5,1,1,0,0,1-1.17,1A1.26,1.26,0,0,1,179.37,121.32Z"/></g></g></svg>