<svg xmlns="http://www.w3.org/2000/svg" viewBox="0 0 227.06 259.62"><defs><style>.cls-1{fill:#f9dab4;}.cls-2{fill:#515151;}.cls-3{fill:#ba443e;}.cls-4{fill:#ad3936;}.cls-5{fill:#6b4627;}.cls-6{fill:#2d2723;}.cls-7{fill:#f4d3b0;}.cls-8{fill:#c65044;}.cls-9{fill:#efc4a0;}.cls-10{fill:#3a332d;}.cls-11{fill:#e8dfd9;}.cls-12{fill:#393c3d;}</style></defs><title>资源 180</title><g id="图层_2" data-name="图层 2"><g id="Layer_1" data-name="Layer 1"><path class="cls-1" d="M167.6,208l-14,15.91s9.56,20.43,16.65,35.72h17.53C178.94,239.5,167.6,208,167.6,208Z"/><path class="cls-1" d="M51.18,259.62H68.71c7.09-15.29,16.65-35.72,16.65-35.72L71.37,208S60,239.5,51.18,259.62Z"/><path class="cls-2" d="M167.4,259.62c-1.89-33.29-16-87.77-17.3-93.18H87.69c-1.4,5.34-15.62,59.87-17.55,93.18Z"/><path class="cls-1" d="M151,170.11l-32.82,2.1-31.43-2c-1.33,5.19-3.72,14.79-6.3,26.34,7.7-1.47,27.41-3.13,37.73,15.58,10.74-19.48,31.67-16.88,38.61-15.39C154.38,185,152.18,175.3,151,170.11Z"/><path class="cls-3" d="M84.38,165.58s-14.57,4.88-16,21.27c-1.13,12.71-9.48,48.6-28.95,72.77H86.22c14.66-28,13.66-72.58.35-89.53Z"/><path class="cls-4" d="M106.61,172.21c0,3.66-5.79,6.63-12.94,6.63s-12.93-3-12.93-6.63,5.79-6.63,12.93-6.63S106.61,168.55,106.61,172.21Z"/><path class="cls-3" d="M88.39,154.43s-14.21,8-10.57,17.12,20.77,0,20.77,0-8.74,2.55-5.46,10.57,55.38-2.55,55.38-2.55V146.05Z"/><path class="cls-5" d="M13.79,6.62C-10.5,17.31-2.73,65.4,37.35,60.54l23.56-35S38.08-4.07,13.79,6.62Zm19.6,39.43c-17,2.07-20.36-18.39-10-22.94s20,8.06,20,8.06Z"/><path class="cls-5" d="M213.27,6.62C189-4.07,166.15,25.56,166.15,25.56l23.56,35C229.79,65.4,237.56,17.31,213.27,6.62Zm-19.6,39.43-10-14.88s9.71-12.6,20-8.06S210.72,48.12,193.67,46.05Z"/><path class="cls-6" d="M35.19,113.62S4.59,54.23,45.4,20.34,173.65-6.25,194.41,51s-12.75,100.56-16,114-4.37,31.7,4.74,39.35,27.33,24.42,25.5,26.24-27.69,10.56-43-2.19l4,6.8s-18.22,6.68-27.69-41.05,7.28-55,7.28-55Z"/><path class="cls-7" d="M51.59,110.34S42.12,94,32.28,98.88s7.65,43.89,26.23,37.69S51.59,110.34,51.59,110.34Z"/><path class="cls-1" d="M180.81,106.45c0,32.33-30.12,58.54-67.28,58.54s-67.29-26.21-67.29-58.54c0-10.81,1.18-27.86,7-36.55,11.7-17.3,35.51-22,60.25-22C150.69,47.91,180.81,74.12,180.81,106.45Z"/><path class="cls-8" d="M96.21,140.24s4.2-6.52,9.05-6.23,7.49,5.12,7.49,5.12,4.35-5,9.45-4.9,7.32,6.52,7.32,6.52S124.46,153,112.37,153,96.21,140.24,96.21,140.24Z"/><path class="cls-9" d="M104.52,125.83s.83-7.72,8-7.75,8.66,7.75,8.66,7.75-3.93-4.76-8.53-4.76S104.52,125.83,104.52,125.83Z"/><path class="cls-6" d="M166.24,100.43s-14-2.7-25.8-.7l.43-2.39c.51-2.92,4.32-5.19,11.95-5.65s12.21,1.85,12.81,5.23Z"/><path class="cls-10" d="M148.68,122.78a1.52,1.52,0,0,1-.14-3c.1,0,10.5-1,14.56-3.5a1.52,1.52,0,0,1,1.58,2.6c-4.66,2.82-15.4,3.88-15.86,3.93Z"/><path class="cls-10" d="M150.31,119.46h-.23a1.52,1.52,0,0,1,0-3h.19c7.66,0,12.21-6.25,12.25-6.31a1.52,1.52,0,0,1,2.48,1.75C164.81,112.18,159.57,119.46,150.31,119.46Z"/><path class="cls-10" d="M141.48,117.06a7.48,7.48,0,1,0,5.49-9A7.47,7.47,0,0,0,141.48,117.06Z"/><path class="cls-11" d="M145.38,111.06c0,1.09,1.61,1.91,3.49,1.83s3.37-1,3.33-2.11-1.61-1.91-3.49-1.84S145.34,110,145.38,111.06Z"/><path class="cls-6" d="M59.49,100.43s14-2.7,25.8-.7l-.43-2.39c-.52-2.92-4.32-5.19-12-5.65s-12.2,1.85-12.79,5.23Z"/><path class="cls-10" d="M77,122.78a1.52,1.52,0,0,0,.15-3c-.1,0-10.5-1-14.57-3.5a1.52,1.52,0,1,0-1.57,2.6c4.66,2.82,15.4,3.88,15.85,3.93Z"/><path class="cls-10" d="M75.42,119.46h.22a1.53,1.53,0,0,0,1.5-1.54,1.51,1.51,0,0,0-1.52-1.5h-.19c-7.66,0-12.21-6.25-12.25-6.31a1.52,1.52,0,0,0-2.48,1.75C60.92,112.18,66.16,119.46,75.42,119.46Z"/><path class="cls-10" d="M84.24,117.06a7.47,7.47,0,1,1-5.49-9A7.46,7.46,0,0,1,84.24,117.06Z"/><path class="cls-11" d="M80.34,111.06c0,1.09-1.6,1.91-3.48,1.83s-3.38-1-3.33-2.11,1.6-1.91,3.49-1.84S80.39,110,80.34,111.06Z"/><path class="cls-6" d="M45.64,50.22S53.29,96.86,90.82,91a35.72,35.72,0,0,0,34.25,3.64s13.48,4.74,22.59-2.18c0,0,15.3,8,32.43.36,0,0-7.25-49.92-61.92-57.2S45.64,50.22,45.64,50.22Z"/><rect class="cls-12" x="116.69" y="215.03" width="2.92" height="44.59"/><path class="cls-12" d="M118.15,217.64s2.48,14,7,12.39S124.4,222,118.15,217.64Z"/></g></g></svg>