<?xml version="1.0" standalone="no"?><!DOCTYPE svg PUBLIC "-//W3C//DTD SVG 1.1//EN" "http://www.w3.org/Graphics/SVG/1.1/DTD/svg11.dtd"><svg t="1548743438290" class="icon" style="" viewBox="0 0 1024 1024" version="1.1" xmlns="http://www.w3.org/2000/svg" p-id="6359" xmlns:xlink="http://www.w3.org/1999/xlink" width="200" height="200"><defs><style type="text/css"></style></defs><path d="M497.896296 19.135526h30.037334c1.629867 0.252207 3.250252 0.615348 4.888651 0.735763 9.223585 0.679822 18.4576 1.212681 27.674549 1.959822 15.122963 1.226904 30.098015 3.540385 45.003851 6.352593a481.962667 481.962667 0 0 1 92.310756 27.167289c64.280652 26.120533 120.622459 64.09197 168.867082 113.918103 53.430993 55.18317 91.993126 119.382281 115.527111 192.545185a479.307852 479.307852 0 0 1 19.171555 85.981867c1.968356 15.353363 3.530904 30.731378 3.504356 46.234548-0.020859 12.589511 0.003793 25.17997-0.048356 37.768534-0.018963 4.549215-0.008533 9.111704-0.340385 13.645748-1.216474 16.64-3.090015 33.202252-5.885156 49.664948-4.503704 26.514015-11.071526 52.49043-19.897837 77.88563-26.174578 75.307615-68.091259 140.564859-125.732029 195.596325-88.114252 84.123496-201.856 131.648474-323.060622 135.97203a473.050074 473.050074 0 0 1-56.372149-1.353007c-13.001007-1.087526-25.937541-2.590341-38.823822-4.612741-21.294459-3.340326-42.269393-8.087704-62.900148-14.307556-82.0224-24.727704-152.9088-67.874133-212.620326-129.244918-44.414104-45.647644-78.606222-98.077393-102.682548-157.057896-15.080296-36.944593-25.477689-75.171081-31.122015-114.689897-2.253748-15.775289-3.872237-31.60083-4.540681-47.524977-0.094815-2.264178-0.416237-4.523615-0.761363-6.766934-0.106193-0.689304-0.638104-1.313185-0.975645-1.967407v-30.037334c0.310993-0.494933 0.8192-0.961422 0.897897-1.490488 0.357452-2.393126 0.746193-4.798578 0.847644-7.209719 0.572681-13.642904 1.875437-27.211852 3.62003-40.751407 2.503111-19.414281 6.147793-38.605748 11.052563-57.550697 23.374696-90.2912 68.595674-167.942637 135.667674-232.66797C233.151526 97.554963 306.012919 56.924919 389.311526 35.100444c23.493215-6.15443 47.350519-10.409719 71.497955-12.906192 10.5472-1.09037 21.161719-1.529363 31.743052-2.309689 1.789156-0.131793 3.562193-0.493985 5.343763-0.749037z m31.650134 499.882667c-0.021807 9.937541 0.592593 17.640296 1.9456 25.272888 2.3808 13.426726 6.872178 26.062696 14.400474 37.509689a108.22163 108.22163 0 0 0 5.866192 8.105719c19.354548 24.200533 45.088237 33.705719 75.395793 32.603022 9.314607-1.304652 18.555259-2.942104 27.55603-5.769481 14.700089-4.616533 27.575941-12.611319 39.50554-22.055823 17.636504-13.961481 31.164681-31.348622 40.922074-51.618133 11.492504-23.871526 16.664652-48.956681 14.214637-75.466904-1.606163-17.3824-7.230578-33.401363-16.396326-48.208592-0.713956-1.152948-1.594785-2.209185-2.455703-3.26163-1.342578-1.640296-2.729719-3.245511-4.109274-4.855467-1.874489-2.18643-3.603911-4.523615-5.665186-6.51757-15.199763-14.699141-33.377659-22.782104-54.48154-24.251733-17.431704-1.21363-34.082133 1.885867-50.136178 8.738133-15.708919 6.703407-29.195378 16.508207-41.486222 28.261452-25.53363 24.416711-45.138489 64.507259-45.075911 101.51443z m-351.300267 9.098429c-0.576474 4.584296-2.249956 8.817778-3.575467 13.129008-1.380504 4.488533-2.905126 8.936296-4.491377 13.356563a357.536237 357.536237 0 0 1-4.869689 12.740266c-1.698133 4.217363-3.449363 8.418607-5.32006 12.561067-1.934222 4.281837-4.091259 8.461274-6.05677 12.727941-1.876385 4.073244-4.715141 7.676207-6.236919 12.199822 1.775881 0.559407 3.226548 0.352711 4.717038 0.13843 5.539081-0.794548 11.081956-1.566341 16.633362-2.267023 6.463526-0.815407 12.93843-1.545481 19.408593-2.316326 0.451319-0.054044 0.901689-0.130844 1.34637-0.223763 2.432-0.512 2.962015-1.046756 3.359289-3.581155 1.479111-9.424593 3.152593-18.825481 4.34726-28.287052 1.270519-10.065541 2.638696-20.134874 3.011318-30.298074 0.031289-0.847644 0.359348-1.682963 0.603022-2.7648 0.974696 0.24557 1.733215 0.294874 2.351408 0.612504 6.527052 3.363081 12.447289 7.54157 17.272415 13.141333 5.504 6.387674 8.808296 13.769007 9.63034 22.167704 0.699733 7.149985 0.065422 14.217481-1.751229 21.185422-0.325215 1.246815-1.262933 2.500267-0.261689 4.184178 0.849541 0.062578 1.876385 0.269274 2.880474 0.191526 5.119052-0.39917 10.228622-0.948148 15.350518-1.298963 6.197096-0.42477 12.40557-0.6912 18.607408-1.056237 1.49523-0.088178 3.040711-0.086281 4.44397-1.225956 0.643793-2.560948 0.791704-5.286874 0.637156-7.998578-0.216178-3.77363-0.439941-7.569067-1.024948-11.298133-1.511348-9.635081-4.117807-18.962963-8.731497-27.6224-8.429037-15.814163-21.4528-25.111704-39.264711-27.680237-4.227793-0.610607-8.448948-0.728178-12.698548-0.712059-1.77683 0.006637-3.617185 0.360296-5.418667-0.509156-0.700681-2.747733-0.176356-5.46797-0.13274-8.158815 0.09197-5.757156 0.149807-5.741037 5.659496-7.707496 18.017659-6.432237 36.488533-11.218489 55.173689-15.235793 4.745481-1.020207 9.499496-2.070756 14.363496-2.193066 3.320415-0.085333 6.685393-0.048356 9.970726 0.385896 5.880415 0.776533 7.917037 4.561541 5.705007 10.164148-0.554667 1.403259-1.334993 2.718341-2.010074 4.075141-2.49837 5.020444-5.136119 9.976415-7.463822 15.075555-3.848533 8.428089-6.818133 17.182341-9.0368 26.180267-0.990815 4.018252-1.060978 8.127526-0.562252 12.207408 0.462696 3.785007 2.914607 5.997985 6.729008 6.103229 1.791052 0.049304 3.67123-0.146015 5.375052-0.670341 2.592237-0.796444 5.133274-1.838459 7.5776-3.021748 3.955674-1.915259 7.809896-4.037215 11.716266-6.054874 12.664415-6.540326 25.460622-12.804741 38.683496-18.152296 1.2032-0.4864 2.341926-1.490489 4.031526-0.919704 0.280652 0.728178 0.764207 1.531259 0.894104 2.390282a706.361837 706.361837 0 0 1 2.0992 14.853689c0.249363 1.916207-0.860919 3.055881-2.468978 3.933866-6.383881 3.491081-12.714667 7.078874-19.111822 10.543408-2.1248 1.151052-4.356741 2.126696-6.601007 3.028385-2.566637 1.031585-5.286874 1.318874-8.044089 1.183289-3.705363-0.181096-6.711941-1.696237-8.877511-4.755911-0.349867-0.493037-0.601126-1.055289-0.952889-1.548326-0.901689-1.261985-1.890607-1.52083-3.078637-0.713008-0.873244 0.593541-1.667793 1.308444-2.469926 2.000593-5.28403 4.553956-10.561422 9.115496-15.840711 13.675141-0.458904 0.396326-0.926341 0.78317-1.380504 1.186133-1.6128 1.430756-2.11437 3.188622-1.810963 5.323852 0.963319 6.787793 5.00243 10.89043 11.317096 12.863526 6.272 1.958874 12.338252 1.322667 17.871645-2.353304 3.022696-2.009126 6.001778-4.137719 8.740978-6.510933 5.156978-4.468622 10.121481-9.158163 15.175111-13.745304 3.716741-3.373511 7.683793-6.418015 12.061392-8.891733 1.139674-0.644741 2.230044-1.54643 3.776474-1.315082 0.071111 0.453215 0.27117 0.915911 0.187734 1.321719-1.978785 9.665422-6.531793 17.600474-15.579023 22.258726-2.054637 1.057185-2.960119 2.300207-2.941155 4.540681 0.056889 6.825719-0.014222 13.651437 0.039822 20.478104 0.019911 2.639644 0.268326 2.783763 3.016059 3.736652 7.021985 2.434844 14.171022 2.925037 21.5296 1.890607 4.714193-0.661807 8.657541-2.558104 12.033897-5.831111 4.023941-3.90163 6.82477-8.58643 8.1664-13.964326 1.059081-4.244859 1.918104-8.6272 2.100148-12.980148 0.297719-7.112059-0.01517-14.251615-1.393778-21.286874-0.376415-1.92-0.682667-3.837156-0.160237-5.979022 1.344474 0 2.541037-0.167822 3.675022 0.026548 8.199585 1.403259 14.110341 6.143052 18.126697 13.184 4.671526 8.191052 7.016296 17.06003 6.654103 26.561422-0.028444 0.735763-0.169719 1.539793 1.063822 1.900089 0.705422-0.5632 1.549274-1.163378 2.310638-1.854578 3.364978-3.063467 6.7072-6.151585 10.054162-9.234963s6.659793-6.203733 10.042786-9.247289c2.684207-2.413037 3.305244-5.204385 2.2272-8.635733-2.521126-8.022281-6.725215-14.890667-13.3376-20.178489-8.850963-7.076978-19.00563-9.861689-30.195674-8.849067-3.910163 0.353659-7.772919 1.224059-11.663171 1.829926-0.841956 0.130844-1.702874 0.132741-2.7392 0.207645-1.283793-6.155378-3.274904-11.86323-3.202844-17.91526 0.710163-0.298667 1.106489-0.570785 1.531259-0.62957 9.682489-1.3568 19.346015-1.19277 29.005748 0.303407 7.661985 1.186133 15.136237 3.08243 22.464474 5.597867 0.929185 0.319526 1.938963 0.402015 3.289126 0.668445-0.2304-1.880178-0.300563-3.377304-0.610607-4.821334-1.353956-6.326993-0.260741-12.359111 2.080237-18.250903 2.202548-5.542874 5.295407-10.555733 9.032059-15.192178 0.718696-0.892207 1.839407-1.622281 1.629867-3.212326-1.535052-1.178548-3.422815-1.639348-5.358934-2.031882-8.429985-1.711407-16.9216-1.437393-25.368651-0.457955-10.433422 1.207941-20.513185 3.984119-30.29523 7.820326-3.386785 1.327407-6.762193 2.684207-10.168889 3.959466-0.788859 0.295822-1.682015 0.308148-2.6624 0.474074-0.311941-0.930133-0.658963-1.611852-0.761363-2.328651a1246.4128 1246.4128 0 0 1-1.969304-14.394786c-0.315733-2.398815-0.505363-4.815644-0.879881-7.204029-0.156444-0.995556-0.645689-1.938015-1.076148-3.167763-0.881778 0.428563-1.615644 0.638104-2.166519 1.077096a6548.354844 6548.354844 0 0 0-23.432533 18.77997 10.439111 10.439111 0 0 0-1.604267 1.598578c-0.621037 0.776533-0.715852 1.657363-0.126103 2.520178 0.341333 0.499674 0.755674 0.951941 1.078044 1.462044 2.261333 3.586844 4.573867 7.143348 6.7328 10.791823 1.252504 2.116267 0.908326 3.114667-1.127348 4.584296-0.36883 0.265481-0.760415 0.500622-1.153896 0.730074-7.205926 4.1984-14.379615 8.453689-21.639586 12.555378-2.497422 1.410844-5.183526 2.509748-7.841185 3.613392-1.387141 0.574578-2.880474 0.942459-4.358637 1.23923-2.896593 0.580267-5.10483-0.555615-5.72397-4.271407-0.290133-1.7408-0.052148-3.641837 0.292029-5.402548 1.026844-5.247052 3.127941-10.113896 5.542874-14.864119 2.129541-4.187022 4.161422-8.425244 6.203734-12.655881 1.199407-2.484148 1.850785-5.1456 2.129541-7.868682 0.539496-5.259378-1.361541-8.684089-6.05203-11.144533-3.127941-1.639348-6.437926-2.671881-9.986845-2.802726-7.445807-0.274963-14.866963 0-22.202785 1.386192-5.95437 1.1264-11.883141 2.386489-17.818548 3.6096-1.914311 0.395378-3.809659 0.967111-6.001778 0.297719 0.26643-1.106489 0.422874-2.130489 0.761363-3.090963 0.95763-2.715496 2.066963-5.379793 2.974341-8.111407 1.718044-5.167407 3.884563-10.215348 4.516978-15.690904 0.642844-5.568474 1.613748-11.154963 0.591644-16.755674-1.770193-9.694815-7.9872-15.905185-17.784415-16.369778-7.548207-0.356504-14.823348 0.59923-21.7856 3.590637-3.759407 1.616593-7.484681 3.310933-11.247881 4.918993-0.613452 0.261689-1.344474 0.253156-2.300207 0.416237-0.043615-8.689778 0.656119-17.116919-1.269571-25.643615-4.41363 1.509452-8.391111 3.205689-12.136296 5.328592-0.039822 0.91117-0.1024 1.508504-0.08723 2.103941 0.14317 5.450904 0.385896 10.900859 0.413393 16.350815 0.011378 2.261333-0.418133 4.524563-0.6656 6.784-0.14317 1.308444-0.799289 2.277452-2.034726 2.784711-6.605748 2.706015-13.183052 5.528652-20.615585 4.492326-1.163378-0.162133-2.42157-0.465541-3.508148 0.566993-1.014519 4.826074-1.806222 9.7792-3.136474 14.584414-1.322667 4.77677-3.183881 9.403733-4.901926 14.367289 0.758519 0.074904 1.46963 0.2816 2.142814 0.191526 5.483141-0.728178 10.610726-2.537244 15.343882-5.377896 3.509096-2.106785 6.912948-4.38803 10.390755-6.546015 0.720593-0.446578 1.403259-1.244919 2.741097-0.60397 0.056889 5.594074 0.376415 11.333215-0.361245 17.042015-0.9728 7.515022-2.23763 14.993067-3.110874 22.518518-0.308148 2.656711-1.402311 4.0192-3.851378 4.926578-12.086993 4.480948-23.916089 9.581985-35.538488 15.159941-0.772741 0.370726-1.631763 0.560356-2.85203 0.968059-0.032237-1.412741-0.162133-2.422519-0.059733-3.407645 0.690252-6.634193 1.473422-13.259852 2.143763-19.896888 1.416533-14.036385 3.489185-27.977007 6.084266-41.84083 1.757867-9.38477 3.615289-18.750578 5.419615-28.127763 0.165926-0.864711 0.470281-1.763556-0.361244-2.634904-0.331852-0.072059-0.770844-0.273067-1.193719-0.243674-6.200889 0.439941-12.40083 0.893156-18.597926 1.385245a78.3104 78.3104 0 0 0-5.418667 0.64474c-2.000593 0.301511-2.547674 0.869452-2.924088 2.887111-0.13843 0.743348-0.198163 1.502815-0.263586 2.258489-0.298667 3.474963-0.654222 6.946133-0.869451 10.426786-0.895052 14.531319-2.019556 29.042726-3.690193 43.50957-1.374815 11.898311-2.632059 23.808948-4.033422 35.704415-0.443733 3.759407-1.18803 7.484681-1.792948 11.225126-0.285393 1.761659-1.152 3.040711-2.824534 3.835259-2.326756 1.104593-4.552059 2.426311-6.893985 3.494874-2.093511 0.954785-3.079585 0.405807-3.739496-1.73037-0.781274-2.527763-0.784119-5.096296-0.3072-7.6544 0.6656-3.575467 1.332148-7.155674 2.19117-10.686578 1.93517-7.952119 4.047644-15.860622 5.967645-23.813689 0.923496-3.826726 1.636504-7.709393 2.321066-11.587319 0.229452-1.29517 0.565096-2.919348-0.74714-3.782163-1.539793-1.01357-2.456652 0.566044-3.429452 1.386193-3.6096 3.043556-7.436326 5.756207-11.672652 7.854459-5.221452 2.5856-10.624 3.456948-16.305304 1.631763-0.815407-0.261689-1.710459-0.277807-2.716444-0.430459-0.309096 1.059081-0.622933 1.897244-0.795497 2.762904-2.520178 12.636919-4.683852 25.340207-6.108918 38.144948-0.853333 7.678104-0.916859 15.45197-1.980682 23.092148-0.57363 4.123496-0.339437 8.051674 0.128949 12.073719 0.3328 2.85677 0.430459 5.748622 0.904533 8.579792 0.37357 2.229096 1.015467 4.442074 1.794844 6.567822 1.466785 3.997393 5.857659 7.481837 11.436563 4.702815 2.016711-1.005037 3.982222-2.206341 5.748622-3.601067 4.759704-3.761304 9.38477-7.69043 14.098015-11.511466 0.88557-0.717748 1.600474-1.862163 3.318519-1.603319-0.221867 1.340681-0.335644 2.682311-0.674134 3.965156-3.456948 13.087289-5.504948 26.396444-6.509985 39.8848-0.400119 5.374104 0.340385 6.188563 5.771378 5.4016 3.59917-0.521481 7.177481-1.180444 10.76243-1.797689 7.168948-1.235437 14.337896-2.461393 21.499259-3.736652 2.915556-0.520533 3.485393-1.427911 3.188622-4.385185-0.226607-2.256593-0.410548-4.522667-0.493985-6.787793-0.214281-5.757156-0.452267-11.516207-0.512948-17.275259-0.079644-7.583289-0.166874-15.172267 0.068267-22.74797 0.159289-5.148444 0.771793-10.274133 0.2816-15.442489-0.21523-2.262281 0.755674-4.139615 2.573274-5.5296a30.242133 30.242133 0 0 1 2.236681-1.560652c5.261274-3.311881 10.458074-6.734696 15.819852-9.875911 5.096296-2.986667 10.356622-5.69837 15.573333-8.474548 1.004089-0.533807 2.142815-0.814459 3.576415-1.344474 0.089126 2.235733-0.265481 4.007822-0.711111 5.724918-0.493037 1.903881-1.876385 3.078637-3.755615 3.611496-1.453511 0.411496-2.948741 0.681719-4.383289 1.146312-0.637156 0.206696-1.169067 0.737659-2.090666 1.348266 2.603615 1.227852 5.278341 0.594489 7.64397 2.5856z m634.131911 56.189156c1.166222 0.521481 1.800533 0.964267 2.490785 1.086578 3.729067 0.657067 7.459081 1.323615 11.210904 1.821392 7.707496 1.019259 15.419733 0.864711 23.130074-0.107141 15.574281-1.963615 27.740919-9.160059 35.562193-23.059911 4.632652-8.23277 6.744178-17.160533 7.247644-26.523496 0.318578-5.931615-0.196267-11.824356-0.931081-17.699081-1.025896-8.197689-3.695881-15.922252-6.978371-23.448652-1.835615-4.207881-4.449659-7.937896-7.545363-11.306667-5.638637-6.138311-12.66157-8.810193-20.896237-7.529244-4.773926 0.7424-9.502341 1.928533-14.161541 3.236977-12.981096 3.646578-25.800059 7.915141-39.214459 9.821867-2.168415 0.308148-3.485393 1.60237-4.348207 3.552711-3.740444 8.454637-7.534933 16.886519-11.257363 25.348741-0.39443 0.897896-0.446578 1.947496-0.7424 3.319467 0.987022-0.176356 1.590044-0.154548 2.066015-0.389689 2.173156-1.076148 4.287526-2.270815 6.465422-3.337482a2785.327407 2785.327407 0 0 1 18.005333-8.723911c0.641896-0.308148 1.361541-0.751881 2.00723 0.09197 0 0.290133 0.078696 0.613452-0.013274 0.877037a80.779378 80.779378 0 0 1-1.429808 3.831467c-12.183704 29.855289-28.116385 57.423644-49.630814 81.614696-6.878815 7.733096-14.432711 14.751289-22.459734 21.234726-4.948385 3.996444-10.252326 7.559585-15.467141 11.215645-2.603615 1.827081-5.316267 3.510044-8.064 5.116207-34.141867 19.946193-71.12723 30.600533-110.42797 33.468682a270.305659 270.305659 0 0 1-44.983941-0.483556 500.323556 500.323556 0 0 1-48.594489-6.961304c-20.82797-4.040059-41.632237-8.208119-62.446933-12.316444-18.139022-3.580207-36.265719-7.224889-54.422755-10.704593a1323.277274 1323.277274 0 0 0-33.12166-5.896533c-8.522904-1.408948-17.108385-2.432948-25.641718-3.779318-11.101867-1.752178-22.277689-2.746785-33.489541-3.193363-9.696711-0.385896-19.409541-0.415289-29.115733-0.494934-24.592119-0.201956-49.113126 1.248711-73.606637 3.275852-3.777422 0.311941-7.553896 0.660859-11.318993 1.1008a2708.472415 2708.472415 0 0 0-27.085748 3.282489c-7.819378 0.991763-15.635911 2.019556-23.43443 3.153541-8.997926 1.310341-18.001541 2.610252-26.9568 4.17754-9.550696 1.673481-19.051141 3.637096-28.562963 5.527704-0.9472 0.188681-1.818548 0.759467-3.228444 1.371022 4.271407 1.038222 7.968237 1.814756 11.594904 2.83686 12.577185 3.54323 24.636681 8.510578 36.58714 13.71117 16.273067 7.082667 32.082489 15.130548 47.704178 23.549156 1.582459 0.851437 3.197156 1.645037 4.676267 2.403555 0.848593-0.375467 1.403259-0.606815 1.9456-0.865659 23.191704-11.065837 47.634015-17.871644 73.057659-21.194904 8.41197-1.098904 16.890311-1.686756 25.337363-2.519229 2.865304-0.282548 5.723022-0.78317 8.593067-0.862815 11.218489-0.310993 22.438874-0.59923 33.660207-0.679823 5.755259-0.04077 11.513363 0.392533 17.271467 0.581215 23.043793 0.753778 46.036385 2.251852 69.008118 4.250548 15.855881 1.379556 31.673837 3.245511 47.578074 4.060919 0.90643 0.046459 1.805274 0.228504 2.709808 0.321422 6.933807 0.713956 13.861926 1.494281 20.805215 2.107734 5.574163 0.493037 11.178667 0.651378 16.748088 1.185185 12.679585 1.214578 25.382874 1.977837 38.108919 2.443377 6.518519 0.238933 13.029452 0.634311 19.54797 0.826786 15.320178 0.453215 30.635615 0.475022 45.924504-0.84006 7.251437-0.622933 14.52563-1.067615 21.74957-1.918103 16.734815-1.972148 33.222163-5.269807 49.453512-9.810489 28.394193-7.944533 55.062756-19.680711 79.506014-36.278045 37.33997-25.35443 65.698133-58.556681 86.151586-98.666192 4.975881-9.754548 9.381926-19.709156 11.629985-30.502874 0.2048-0.982281 0.807822-1.881126 1.230696-2.831171 1.1008-0.13843 1.993007-0.357452 2.880474-0.342281 4.752119 0.078696 7.246696 1.863111 8.931556 6.298548 0.107141 0.283496 0.180148 0.57837 0.2816 0.864711 3.017007 8.580741 2.895644 17.277156 0.780326 25.992533-0.939615 3.870341-2.761956 7.367111-5.363674 10.42963-2.973393 3.497719-6.761244 5.618726-11.239349 6.366815-2.074548 0.347022-4.253393 0.45037-6.342163 0.239881-3.092859-0.310993-5.143704 0.780326-6.841837 3.366874-6.741333 10.268444-13.6192 20.447763-20.430696 30.671645-0.576474 0.861867-1.03443 1.803378-1.8432 3.231289zM587.105659 343.248593c-1.494281 0.26643-2.222459 0.353659-2.927881 0.530014-3.234133 0.805926-6.474904 1.588148-9.690074 2.466134-16.806874 4.585244-33.588148 9.260563-50.411141 13.781333-16.237985 4.364326-32.508207 8.608237-48.780326 12.839822-4.572919 1.189926-6.376296 0.852385-6.562133 7.966341-0.003793 0.151704-0.007585 0.302459-0.017067 0.454163-0.512 7.865837-1.021156 15.731674-1.537896 23.596563-0.476919 7.261867-0.969007 14.521837-1.436445 21.784652-0.065422 1.018311-0.261689 2.119111 1.178548 2.977185 2.168415-0.915911 4.500859-1.940859 6.862697-2.888059 2.318222-0.930133 4.405096-2.631111 7.437274-2.361837-0.089126 1.175704-0.06163 2.210133-0.259793 3.199052-1.6384 8.170193-3.325156 16.331852-4.982518 24.498251-4.670578 23.016296-9.321244 46.037333-14.002252 69.051734-5.315319 26.132859-10.662874 52.257185-15.978193 78.390044-1.245867 6.125037-1.133037 6.225541 4.847882 7.53683 10.801304 2.369422 21.593126 4.782459 32.395378 7.149037a4445.09203 4445.09203 0 0 0 23.545362 5.078281c2.985719 0.638104 3.683556 0.214281 4.661097-2.689896 0.145067-0.430459 0.216178-0.884622 0.337541-1.321718 4.314074-15.469985 8.621511-30.942815 12.954548-46.407112 0.925393-3.299556 0.894104-6.541274-0.030341-9.854103-4.329244-15.500326-5.688889-31.263289-4.114963-47.289837 1.161481-11.809185 3.374459-23.43443 7.070341-34.677571 6.500504-19.77363 16.470281-37.741985 29.540503-53.958163 1.901037-2.358044 3.854222-4.7104 6.045393-6.789689 3.762252-3.571674 5.971437-7.875319 7.328237-12.832237 5.037511-18.413985 10.218193-36.790044 15.330607-55.18317 0.39917-1.430756 0.688356-2.889956 1.195615-5.046044zM428.589511 796.105007c-6.138311 0.4352-11.885985 0.222815-17.622281 0.345126-5.608296 0.120415-11.220385 0.075852-16.826786 0.254104-5.7088 0.182044-11.446044-0.044563-17.276207 0.699733-0.229452 4.141511-1.432652 7.932207-0.512948 11.960889 1.230696 0.110933 2.268919 0.276859 3.308089 0.287289 10.158459 0.097659 20.317867 0.16877 30.477274 0.250311 5.306785 0.041719 10.614519 0.078696 15.921304 0.14886 0.867556 0.011378 1.734163 0.188681 2.722133 0.303407 0.431407 2.134281 0.790756 4.012563-0.530015 6.130726-2.322015 0-4.741689-0.039822-7.160415 0.006637-9.853156 0.186785-19.705363 0.391585-29.55757 0.621985-0.850489 0.019911-1.696237 0.274963-2.694637 0.448474-0.064474 1.4592-0.178252 2.650074-0.159289 3.839052 0.219022 14.40237 0.45037 28.804741 0.711111 43.206163 0.016119 0.85523 0.31763 1.706667 0.530963 2.782815 1.698133 0.036978 3.186726 0.11757 4.67437 0.092918 10.763378-0.1792 21.525807-0.388741 32.289186-0.562252 0.85523-0.014222 1.713304 0.171615 2.715496 0.278756 0.340385 2.008178 0.919704 3.733807-0.293926 5.765689-2.249007 0.129896-4.64877 0.336593-7.051378 0.395378-10.308267 0.255052-20.617481 0.452267-30.9248 0.703526-1.952237 0.047407-3.898785 0.250311-5.752415 0.375466-0.915911 4.180385-0.935822 9.535526-0.041718 13.038934 7.307378 0.42477 14.712415-0.030341 22.106074 0.088177 7.388919 0.120415 14.791111-0.34797 22.46163 0.129897 0.091022 1.872593 0.621037 3.438933-0.498726 5.195852-1.352059 0-2.700326 0.005689-4.049541-0.001897-15.012978-0.080593-30.025956-0.176356-45.039882-0.225659-1.462993-0.005689-3.041659-0.413393-4.63834 0.914963 0.053096 4.402252-1.288533 8.953363-0.559408 13.8752 1.721837 0.078696 3.206637 0.203852 4.691437 0.2048 5.459437 0 10.918874-0.053096 16.377363-0.063526 30.482963-0.059733 60.965926-0.107141 91.448889-0.173511 5.15603-0.011378 10.311111-0.064474 15.466193-0.145067 1.171911-0.018015 2.341926-0.227556 3.420918-0.339437 1.047704-4.996741 1.220267-9.445452 0.499674-12.987733-2.436741-0.580267-5.009067-0.350815-7.550103-0.384948-14.40237-0.195319-28.805689-0.349867-43.209008-0.545185-1.165274-0.016119-2.3296-0.233244-3.70157-0.37926-0.000948-1.85363-0.59923-3.465481 0.649481-5.242311 1.552119-0.04077 3.200948-0.108089 4.851674-0.121363 11.523793-0.086281 23.047585-0.145067 34.571378-0.261689 1.299911-0.013274 2.752474 0.425719 4.061867-0.996503 0.24083-4.548267 0.574578-9.314607-0.027496-14.309452-1.5872-0.046459-2.926933-0.149807-4.263823-0.114726-12.27757 0.316681-24.553244 0.6656-36.830814 0.9728-0.857126 0.020859-1.720889-0.210489-2.629215-0.330904-0.512948-2.005333-0.748089-3.726222 0.267377-5.51443 1.270519-0.057837 2.469926-0.114726 3.670282-0.165925 5.754311-0.243674 11.525689-0.298667 17.257244-0.803082 3.130785-0.275911 6.298548-1.019259 9.264356-2.0736 4.569126-1.622281 7.513126-5.057422 8.782696-9.74317 0.589748-2.181689 1.058133-4.455348 1.139674-6.70246 0.353659-9.695763 0.550874-19.397215 0.77843-29.09677 0.017067-0.718696-0.173511-1.442133-0.295822-2.387437-1.225956-0.116622-2.246163-0.309096-3.263526-0.29677-11.521896 0.152652-23.043793 0.342281-34.566637 0.496829-0.868504 0.012326-1.739852-0.173511-2.678519-0.274963-0.412444-1.864059-0.429511-3.456948 0.187734-5.366518 1.64883-0.03603 3.293867-0.104296 4.937955-0.1024 14.103704 0.017067 28.208356 0.057837 42.312059 0.054992 1.619437 0 3.309985 0.297719 4.7872-0.425718 0.713956-4.441126 0.513896-10.735881-0.446577-14.163437-3.383941-0.766104-6.867437-0.176356-10.321541-0.249363-3.485393-0.073007-6.975526 0.026548-10.462815 0.056889-3.336533 0.028444-6.672119 0.052148-10.007704 0.098607-3.487289 0.049304-6.97837 0.254104-10.45997 0.148859-3.446519-0.103348-6.918637 0.617244-10.563319-0.148859v-4.321659c1.663052-0.060681 3.153541-0.149807 4.644978-0.164978 10.614519-0.109985 21.229037-0.197215 31.842608-0.314785 1.339733-0.01517 2.74963 0.251259 4.042903-0.733867 0.551822-2.34003 0.120415-4.748326-0.216177-7.127229-0.353659-2.492681 0.292978-5.144652-1.097956-7.668623-1.543585 0-3.050193-0.037926-4.554904 0.005689-11.216593 0.32237-22.431289 0.669393-33.646933 0.990815-14.398578 0.412444-28.798104 0.7936-43.196681 1.216474-7.122489 0.209541-14.24403 0.468385-21.365571 0.738608-1.16717 0.044563-2.464237-0.252207-3.642785 1.199407-0.065422 3.728119 0.070163 7.762489 0.502518 12.261452 13.996563 0.180148 27.736178-0.696889 41.414163-0.295822 0.252207 0.720593 0.504415 1.128296 0.519586 1.546429 0.033185 0.892207-0.055941 1.790104-0.118519 3.194311z m178.322015-8.242251c-1.081837-3.101393 0.57363-6.204681-0.602074-9.209363-2.645333-0.612504-5.224296-0.338489-7.765333-0.440889a160.403911 160.403911 0 0 0-7.730252-0.107141c-2.524919 0.019911-5.088711-0.442785-7.671467 0.256948-0.737659 3.296711 0.515793 6.486281-0.274963 9.650252-0.725333 0.169719-1.29043 0.395378-1.866904 0.420978-2.72403 0.124207-5.451852 0.235141-8.177777 0.275911-11.672652 0.171615-23.342459 0.3072-35.015112 0.479763-1.792948 0.0256-3.617185-0.136533-5.653807 0.590696-0.167822 1.1264-0.451319 2.279348-0.494933 3.442726-0.402963 10.450489-0.763259 20.90477-1.133985 31.356207-0.383052 10.755793-0.758519 21.511585-1.148208 32.26643-0.279704 7.725511-0.550874 15.45197-0.889363 23.174637-0.071111 1.614696 0.262637 3.350756-1.014518 4.993896-1.233541 0.060681-2.579911 0.106193-3.924386 0.20006-1.471526 0.100504-3.022696-0.330904-4.359585 0.550874-0.754726 4.109274-0.699733 17.374815 0.092919 20.827022 3.146904 1.521778 6.632296 1.861215 10.068385 2.343822 5.906015 0.82963 10.729244-1.076148 14.330311-5.90317 1.921896-2.576119 3.292919-5.434785 4.347259-8.456534 1.804326-5.174044 2.836859-10.53203 3.608652-15.933629 1.737956-12.173274 2.411141-24.434726 2.660504-36.712296 0.196267-9.698607 0.0768-19.403852 0.122311-29.105304 0.009481-1.932326-0.205748-3.894993 0.340385-6.018845 1.196563-0.091022 2.220563-0.227556 3.244563-0.237985 19.553659-0.18963 39.107319-0.36883 58.660978-0.540444 9.854104-0.086281 19.707259-0.144119 29.559467-0.249363 1.00883-0.011378 2.014815-0.260741 2.965807-0.391585 0.433304-6.070993-0.092919-14.882133-1.116919-18.029986-6.702459-0.199111-13.502578 0.081541-20.298903 0.234193-6.931911 0.156444-13.861926 0.713956-20.863052 0.272119z m-46.794904 60.289896c6.601007 0.267378 12.644504-0.116622 18.755319 0.468385-0.068267 1.173807-0.003793 2.096356-0.191526 2.964859-2.169363 10.043733-4.376652 20.079881-6.581096 30.148267-4.444919 1.3056-8.96-0.415289-13.215289 1.221215-0.477867 6.31277-1.385244 12.432119-0.897897 18.822637 3.85043 0.981333 7.527348 1.764504 11.290548 2.052741 1.344474 0.101452 2.733511-0.023704 4.071349-0.237037 4.700919-0.747141 8.456533-3.172504 11.512414-6.749867 3.281541-3.844741 5.651911-8.242252 7.641126-12.850252 3.18957-7.391763 5.551407-15.061333 7.490371-22.864593 1.019259-4.102637 1.995852-8.216652 3.0464-12.545896l2.605511 0.132741c4.72557 18.440533 9.621807 36.54163 18.270815 53.153185 0.805926 0.1792 1.24397 0.366933 1.67917 0.361244 7.426844-0.095763 14.854637-0.192474 22.280533-0.356503 0.83437-0.018963 1.661156-0.443733 2.410193-0.657067 0.362193-7.332978-0.4352-15.804681-1.822341-19.132681l-9.351585-0.290134c-0.351763-0.737659-0.685511-1.250607-0.851437-1.812859a7273.4464 7273.4464 0 0 1-8.768474-29.63437c-0.147911-0.506311-0.018963-1.094163-0.018963-1.917156 2.759111 0 5.327644 0.04077 7.893333-0.011378 2.691793-0.054044 5.410133 0.256 8.481185-0.315733a180.687644 180.687644 0 0 0-1.850785-18.426311c-4.226844-0.361244-8.274489 0.283496-12.308859 0.29677-4.243911 0.016119-8.484978 0.253156-12.728889 0.350815-4.02963 0.09197-8.065896 0.973748-12.253867 0.109037 0.041719-0.774637 0.019911-1.371022 0.111882-1.948444 0.627674-3.889304 1.313185-7.768178 1.902933-11.663171 0.148859-0.984178 0.022756-2.011022 0.022756-2.949689-6.290015-1.507556-17.85363-2.366578-21.471763-1.608059-1.926637 6.285274-2.57517 12.959289-4.760652 19.523319-7.340563 0.255052-14.560711 0.407704-22.00083 1.195614-0.243674 5.05363-0.841956 9.813333-0.391585 15.170371z m258.947793-424.436622c1.590044 1.372919 2.997096 1.298963 4.338726 1.390933 11.591111 0.797393 22.690133 3.565985 33.439289 7.962548 7.276089 2.977185 13.653333 7.145244 19.072 12.844563 13.300622 13.988978 20.827022 30.344533 20.668681 49.901037-0.011378 1.329304 0.132741 2.660504 0.213333 4.148148 4.006874-0.074904 7.259022-1.863111 10.705541-2.852978 3.637096-1.045807 7.207822-2.321067 10.810785-3.4816 3.459793-1.114074 6.960356-2.113422 10.379378-3.337481 3.514785-1.258193 7.268504-1.890607 10.563319-3.627615 0-0.878933 0.054044-1.481007-0.007586-2.070755-0.909274-8.697363-3.565037-16.882726-7.494162-24.645215-10.087348-19.925333-25.61517-34.309689-45.42483-44.273778-7.238163-3.640889-14.895407-5.961007-22.919585-7.022933-10.607881-1.403259-21.165511-0.610607-31.716504 0.768-2.005333 0.261689-3.401956 0.999348-4.196504 2.90797-1.300859 3.125096-3.371615 5.72397-5.714489 8.136059-0.928237 0.952889-1.714252 2.041363-2.717392 3.253097z m-404.902874 20.079881c-0.454163-1.358696-0.771793-2.336237-1.107437-3.306192-1.385244-4.004978-3.111822-7.927467-4.09126-12.029156-1.852681-7.751111-1.4848-15.622637-0.364088-23.471407 0.182044-1.278104 1.098904-2.531556 0.196266-4.148149-0.627674-0.043615-1.372919-0.225659-2.076444-0.122311-15.701333 2.301156-30.222222 7.547259-42.947319 17.262934-6.274844 4.790993-12.106904 10.076919-17.798637 15.541096-3.382044 3.246459-6.876919 6.427496-10.625896 9.232118-10.943526 8.191052-23.198341 13.020919-36.982519 13.467497-3.474015 0.11283-6.959407-0.130844-10.440059-0.13843-0.64-0.000948-1.280948 0.348919-2.122904 0.596385 2.176948 3.890252 5.227141 6.301393 8.649956 8.322845 7.748267 4.577659 16.13843 4.828919 24.682193 3.432296 7.2448-1.184237 13.98803-3.912059 20.354844-7.5264 3.29197-1.8688 6.484385-3.912059 9.710933-5.896533 13.755733-8.462222 28.628385-12.86163 44.856889-12.664415 5.784652 0.070163 11.476385 0.826785 17.19846 1.435496 0.838163 0.089126 1.697185 0.012326 2.907022 0.012326z m398.399526-7.476148c-1.595733-0.278756-2.137126 0.803081-2.846341 1.506607-11.25357 11.160652-23.812741 20.583348-37.603556 28.379971-1.581511 0.893156-3.126993 1.850785-4.69997 2.761007-1.488593 0.860919-2.060326 2.139022-1.810015 3.819141 0.089126 0.59923 0.169719 1.200356 0.220919 1.803378 0.938667 11.196681 1.364385 22.371556-1.107437 33.460148-0.452267 2.029037-0.674133 4.108326-1.063823 6.555496 0.954785-0.259793 1.606163-0.256948 1.986371-0.574578 1.157689-0.969956 2.246163-2.029985 3.298607-3.115614 9.825659-10.148978 18.629215-21.124741 26.446697-32.886519 5.467022-8.224237 10.142341-16.883674 13.485511-26.1888 1.478163-4.117807 2.522074-8.394904 3.657007-12.629333 0.24557-0.914963 0.03603-1.952237 0.03603-2.890904z m-492.253867-90.887585c1.560652 0.610607 2.685156 1.035378 3.798281 1.487644 5.446163 2.211081 8.881304 6.164859 10.189749 11.904 0.335644 1.470578 0.447526 2.990459 0.75757 4.468622 0.13843 0.663704 0.512 1.28 0.874193 2.147556 7.254281-12.877748 6.318459-13.303467 21.514429-20.980622-1.386193-0.606815-2.605511-1.131141-3.817244-1.671585-4.860207-2.164622-8.073481-5.788444-9.501393-10.918874-0.443733-1.596681-0.634311-3.260681-0.985126-4.88486-0.115674-0.536652-0.045511-1.267674-0.90074-1.3312-10.744415 17.255348-11.126519 14.03923-21.929719 19.779319z m277.338074-57.088948c-1.884919-1.595733-3.893096-2.813156-5.219555-4.551111-1.301807-1.707615-1.911467-3.943348-2.98003-6.288119-1.208889 1.827081-2.079289 3.41523-3.216119 4.782459-1.045807 1.261037-2.335289 2.334341-3.591585 3.402904-1.316978 1.122607-3.218963 1.420326-4.483792 2.718341 1.937067 1.627022 3.919644 2.823585 5.239466 4.530252 1.328356 1.718993 1.998696 3.945244 3.000889 6.040651 5.175941-6.95277 5.175941-6.95277 11.250726-10.635377z m-181.473659 46.09517c1.447822-1.821393 2.275556-3.101393 3.340326-4.137719 1.066667-1.038222 2.359941-1.8432 3.568829-2.730666 1.116919-0.820148 2.743941-0.897896 3.666489-2.249008-0.577422-0.408652-0.907378-0.750933-1.309392-0.909274-3.047348-1.19277-4.983467-3.267319-5.508741-6.587733-0.099556-0.631467-0.082489-1.559704-1.120711-1.62323-4.437333 5.909807-4.437333 5.909807-10.643911 9.503289 3.702519 1.835615 6.701511 4.225896 8.007111 8.734341z" p-id="6360"></path><path d="M562.6368 492.547793c1.360593-0.98797 1.8432-1.552119 2.444326-1.7408 4.045748-1.272415 8.152178-2.353304 12.167585-3.709156 6.022637-2.03283 12.077511-4.013511 17.955082-6.418963 11.832889-4.839348 21.269807-12.768711 28.308859-23.40883 2.917452-4.410785 5.655704-9.004563 7.890489-13.78797 3.458844-7.404089 6.421807-15.038578 9.580089-22.581096 0.4096-0.977541 0.670341-2.017659 1.103644-2.982874 0.351763-0.784119 0.566044-1.910519 1.729422-1.794845 1.207941 0.120415 1.11123 1.219319 1.185185 2.09446 0.39443 4.681007 0.751881 9.364859 1.170963 14.04397 0.705422 7.867733 2.091615 15.579022 4.602312 23.1168 3.427556 10.288356 9.84083 17.966459 19.223703 23.249541 6.366815 3.584 13.152711 6.185719 20.104534 8.36077 3.323259 1.040119 6.703407 1.891556 10.043733 2.876681 0.666548 0.196267 1.268622 0.609659 2.539141 1.238282-2.982874 0.881778-5.277393 1.599526-7.592771 2.236681-8.622459 2.375111-17.157689 4.974933-25.3696 8.581689-12.560119 5.517274-22.644622 13.870459-30.06957 25.461571-4.681956 7.309274-8.33517 15.120119-11.682133 23.087407-1.936119 4.606104-3.638044 9.310815-5.467023 13.963378-0.37357 0.950993-0.845748 1.864059-1.556859 3.417126-0.508207-1.426963-0.95763-2.205393-1.0496-3.023645-0.600178-5.268859-1.055289-10.553837-1.684859-15.818903-0.771793-6.470163-1.863111-12.883437-3.675971-19.164919-3.565037-12.345837-11.079111-21.313422-22.586785-27.064889-6.685393-3.341274-13.751941-5.541926-20.867792-7.661985-2.452859-0.73197-4.900978-1.490489-8.446104-2.569481zM204.1856 487.753956c-0.136533-4.075141-0.247467-7.659141 0.333748-11.290549 0.498726-3.118459 0.630519-6.319407 0.649482-9.485274a456.760889 456.760889 0 0 0-0.24083-18.164622c-0.124207-3.663644 1.303704-6.141156 4.743585-7.3728 2.547674-0.913067 5.134222-1.718993 7.643971-2.553363 3.007526 1.738904 4.360533 4.437333 5.807407 7.083615 1.121659 2.048948 1.731319 3.967052 0.96237 6.448356-0.749037 2.413985-0.837215 5.074489-0.935822 7.637333-0.105244 2.729719 0.079644 5.464178-1.566341 7.865837-0.402963 4.432593-2.830222 8.201481-4.0448 12.366696-0.889363 3.047348-2.884267 4.911407-5.956266 5.600711-2.3296 0.521481-4.471467 1.803378-7.396504 1.86406zM453.118104 848.392533c4.589985-0.713956 14.919111-0.73197 17.958874-0.071111 0.531911 1.73037 0.405807 3.501511 0.120415 5.253689-3.460741 0.908326-13.229511 0.782222-18.152297-0.255052-0.455111-1.52083-0.442785-3.110874 0.073008-4.927526zM410.719763 852.934163c-0.664652-1.452563-0.457007-2.904178 0.124207-4.557748 3.016059-0.956681 6.196148-0.416237 9.31366-0.440889 2.997096-0.022756 6.035911-0.416237 9.151526 0.438044 0.103348 0.909274 0.27117 1.789156 0.2816 2.669986 0.009481 0.721541-0.167822 1.443081-0.254104 2.107733-4.048593 0.677926-15.24717 0.530963-18.616889-0.217126zM453.123793 833.917156v-4.100741c3.736652-0.740504 12.3392-0.779378 17.21837-0.126104 0.633363 2.055585 0.644741 2.054637 0.186785 4.253393-3.26637 0.774637-12.080356 0.799289-17.405155-0.026548zM429.570844 833.739852c-6.316563 0.090074-11.987437 0.08723-17.744592-0.21523-0.794548-1.593837-0.569837-3.002785-0.084385-4.4032 3.682607-0.797393 12.773452-0.698785 17.37197 0.235141l0.457007 4.383289z" p-id="6361"></path></svg>