<?xml version="1.0" standalone="no"?><!DOCTYPE svg PUBLIC "-//W3C//DTD SVG 1.1//EN" "http://www.w3.org/Graphics/SVG/1.1/DTD/svg11.dtd"><svg t="1548741693143" class="icon" style="" viewBox="0 0 1031 1024" version="1.1" xmlns="http://www.w3.org/2000/svg" p-id="13092" xmlns:xlink="http://www.w3.org/1999/xlink" width="201.3671875" height="200"><defs><style type="text/css"></style></defs><path d="M146.688 441.856l-57.6 149.248H0l57.6-149.248h89.088zM6.144 607.488h314.88v154.368c0 23.808-18.688 43.776-41.472 43.776H189.44v-30.208h35.072c6.144 0 9.984-5.12 9.984-11.264v-128H135.424l-40.192 167.936H9.984l40.192-167.936H4.864v-28.928l1.28 0.256z m275.968-165.632l57.6 149.248H250.88l-57.6-149.248h88.832zM719.872 466.944h185.6v26.368h-185.6v-26.368z m0 154.112h61.44v-16.384h64v16.384h60.16v27.648h-60.16v146.688h-64v-146.688h-61.44v-27.648z m0 174.336l7.424-134.144h48.896l-7.424 134.144h-48.896z m7.424-198.144l-5.12-92.928h51.456l5.12 92.928h-51.456z m61.44 0l-5.12-92.928h51.456l5.12 92.928h-51.456z m60.16 0l5.12-92.928h51.456l-5.12 92.928h-51.456z m7.68 198.144l-6.144-134.144h50.176l6.144 134.144h-50.176z m105.216-331.008h68.864L993.28 546.048c-5.12 12.544-16.384 18.688-28.928 18.688h-54.016v-26.368h11.264c3.84 0 6.144-2.56 8.704-5.12l31.488-68.864z m0 112.896h68.864L993.28 658.688c-5.12 11.264-16.384 18.688-28.928 18.688h-54.016v-26.368h11.264c3.84 0 6.144-2.56 8.704-5.12l31.488-68.608z m0 116.736h68.864L993.28 776.704c-5.12 11.264-16.384 18.688-28.928 18.688h-54.016v-26.368h11.264c3.84 0 6.144-2.56 8.704-5.12l31.488-69.888zM379.904 607.488h313.6v154.368c0 23.808-18.688 43.776-41.472 43.776h-90.368v-30.208h35.072c6.144 0 9.984-5.12 9.984-11.264v-128h-99.072l-40.192 167.936h-85.248l40.192-167.936h-42.752v-28.672h0.256zM426.24 598.528h-50.176c0-90.368 77.824-164.352 173.056-164.352v50.176c-67.584 0-122.88 51.456-122.88 114.176z" fill="" p-id="13093"></path><path d="M589.312 466.944m-25.088 0a25.088 25.088 0 1 0 50.176 0 25.088 25.088 0 1 0-50.176 0Z" fill="" p-id="13094"></path><path d="M638.208 508.416m-25.088 0a25.088 25.088 0 1 0 50.176 0 25.088 25.088 0 1 0-50.176 0Z" fill="" p-id="13095"></path><path d="M542.976 566.016m-25.088 0a25.088 25.088 0 1 0 50.176 0 25.088 25.088 0 1 0-50.176 0Z" fill="" p-id="13096"></path><path d="M670.976 566.016m-25.088 0a25.088 25.088 0 1 0 50.176 0 25.088 25.088 0 1 0-50.176 0Z" fill="" p-id="13097"></path><path d="M524.288 584.704c-5.12-5.12-5.12-12.544 0-17.664l52.736-52.736c5.12-5.12 12.544-5.12 17.664 0s5.12 12.544 0 17.664l-52.736 52.736c-4.096 5.12-12.8 5.12-17.664 0zM291.328 384v-16.128c9.472-10.752 13.824-31.488 13.312-62.208v-128h58.368v178.944c0.512 15.616-6.912 23.296-22.528 22.528h-10.24V366.08h7.424c6.912 0.512 10.24-2.56 10.24-9.472v-52.736h-27.392c1.28 36.352-8.448 63.232-29.184 80.128z m29.184-194.048v44.288h27.392V189.952h-27.392z m0 56.32v45.312h27.392V246.272h-27.392z m132.864 133.12v-12.288h15.104c7.424 0 11.264-3.84 11.264-11.264v-32H414.72c-14.336 0.512-21.248-5.632-20.736-18.944v-12.288h16.128v9.472c0 6.912 3.328 10.24 10.24 10.24h38.656v-28.16h-64c-6.912 5.12-15.104 10.24-24.576 16.128v-12.288c19.456-13.312 33.28-26.624 41.472-40.448h-39.68v-11.264h46.08c3.84-6.912 6.4-14.336 7.424-22.528h-48.128v-12.288h16.896c-3.84-7.424-6.656-17.664-8.448-30.208h16.128c0.512 12.032 3.072 22.016 7.424 30.208h17.92c1.28-8.192 1.792-17.152 1.792-27.392v-9.472h17.92v8.448c0 9.984-0.512 19.456-1.792 28.16h22.528c3.072-7.424 5.632-17.664 7.424-30.208h16.128c-1.792 12.544-4.608 22.528-8.448 30.208h19.712v12.288h-59.392c-1.792 8.192-4.096 15.616-6.656 22.528h71.68v11.264h-39.68c9.472 16.896 24.064 30.464 44.288 40.448v12.288c-17.664-8.192-30.208-15.616-37.632-22.528V312.32h20.736v43.264c0.512 16.384-7.168 24.064-23.552 23.552h-19.2z m-79.104-29.44v-11.264h91.392v11.264h-91.392z m56.576-102.656c-5.12 9.472-12.288 17.92-21.76 25.344h61.184c-6.912-6.912-13.312-15.36-18.944-25.344h-20.48zM561.152 373.504V246.272h-22.528V232.96H581.12v115.968c9.984-3.84 20.992-9.472 33.024-16.896v15.104c-15.872 10.752-33.536 19.456-52.992 26.368z m10.496-159.232c-3.84-13.824-9.472-29.952-16.896-48.128h16.896c7.424 14.336 13.824 30.464 18.944 48.128h-18.944z m25.344 57.6v-12.288H634.88V189.952h-35.84V176.64h123.392c-1.792 32.768-2.816 57.6-2.816 74.496 0 18.176 0.256 36.352 1.024 54.784 1.792 39.68 8.448 59.648 19.712 60.416 6.4 0 9.472-6.912 9.472-20.736h13.312c0.512 23.808-6.912 35.584-22.528 34.816-23.296 1.792-35.84-24.832-37.632-80.128-1.28-33.28-1.792-70.144-1.792-110.336h-46.08v69.632h37.632v12.288h-37.632v111.104H634.88v-111.104h-37.888z" fill="" p-id="13098"></path></svg>