<svg xmlns="http://www.w3.org/2000/svg" viewBox="0 0 161.57 260.48"><defs><style>.cls-1{fill:#126e89;}.cls-2{fill:#0b5668;}.cls-3{fill:#f9f7f2;}.cls-4{fill:#dddad4;}.cls-5{fill:#9d9d9d;}.cls-6{fill:#8c8c8c;}.cls-7{fill:#024f5b;}.cls-8{fill:#f9dab4;}.cls-9{fill:#f7cea6;}.cls-10{fill:#44302c;}.cls-11{fill:#332423;}.cls-12{fill:#e5be9e;}.cls-13{fill:#ffe9cf;}.cls-14{fill:#513936;}.cls-15{fill:#47413e;}</style></defs><title>资源 199</title><g id="图层_2" data-name="图层 2"><g id="Layer_1" data-name="Layer 1"><path class="cls-1" d="M103.8,166.59a26,26,0,0,1,13.25-.14C124.68,168.24,144.4,194,144.4,194s18,17.08,17.14,32.45c-1.53,26.9-25.71,17.72-25.71,17.72s2.28-36-6.4-42.84-23.7-13-23.7-13Z"/><path class="cls-2" d="M138.54,229.4c9-1.8,9.89-9.67,6.16-17.18-4-8.15-11-10.92-17.49-16.7-1.57-1.4-6.16-6-7.9-11.3-2.68-8.19-2.26-17.77-2.26-17.77a26,26,0,0,0-13.25.14l1.93,21.7s10.88,9.75,19.56,16.63c5.16,4.09,10.59,14.84,10.78,25.82A4.45,4.45,0,0,1,138.54,229.4Z"/><path class="cls-2" d="M158.86,214c.8,1.79-.38,6.13-.73,8a29.32,29.32,0,0,1-2.41,7.59,18.49,18.49,0,0,1-4.48,5.93,11.36,11.36,0,0,1-3.28,2.13c-1.33.46-2.73,0-4,.91-1.18-2.33-.67-7.12-.53-9.84.1-1.87.7-2.87-.76-3.92-1.11-.79-3.77-1.08-5.08-1.2-.16,3.55.26,7.23-.08,10.77s-1.85,6.62-1.56,10.07c0,.5,7.18,1.14,8.13,1.16a18.44,18.44,0,0,0,7.5-1.26c7.15-3,9.53-10.82,9.94-18A27.17,27.17,0,0,0,158.86,214Z"/><path class="cls-1" d="M54.07,168.12s-9-.86-15.09,10.4c-7.18,13.34-10.68,36.83-11,47.3s14.78,31.25,24,28.75Z"/><path class="cls-2" d="M39.59,177.45c4.18-5,8.09-1,7.43,5.74-.46,4.82-2.1,9.19-2.38,14.44C44,210,45.73,217,43.67,220c-1,1.52-3.22,1.85-4.93,2.53,3.11,2.67,5.68,5,7,8.94.72,2.2,1.65,14.72,0,17-1.77,2.41-10-5.34-14.71-19-.69-2-2.8-10.23-3-3.64-.29,10.48,14.78,31.25,24,28.75l2.11-86.45S45.63,167.31,39.59,177.45Z"/><path class="cls-3" d="M116,176.21c-1.22-5.45-8.78-6.24-8.78-6.24-36.53-2.25-47,2.05-47,2.05-2.78-.1-6.62,7.87-7.22,18.29-1.36,23.45,2.46,62,3.31,70.17h60.14a40.7,40.7,0,0,0,3.33-26.54C114.42,207.51,116.66,179.37,116,176.21Z"/><path class="cls-4" d="M58.66,260.15a43.38,43.38,0,0,0,4.79-8.72c4-9.4,4.16-19.11,5.92-29,1.81-10.25,1.91-20.73,3-31.07.72-7.15.84-14.32.85-21.5-9.59.79-13,2.17-13,2.17-2.78-.1-6.62,7.87-7.22,18.29C51.45,216.64,57,260.1,57,260.1Z"/><path class="cls-4" d="M70.12,162.32s-1.55,9.7-1,11.54a6.31,6.31,0,0,0,5,4.1c6.33,1,8.81-1.61,8.81-1.61l.36-3.36Z"/><path class="cls-3" d="M71.57,160.45s-3.74,9.24-3.18,11.08a6.31,6.31,0,0,0,5,4.1c6.33,1.05,8.29.43,8.29.43l1.46-6.52Z"/><path class="cls-4" d="M76.81,170.4A49.63,49.63,0,0,0,81,176.18a4.74,4.74,0,0,0,.68-.12l1.46-6.52L72,161a6.9,6.9,0,0,0-2.22,4C72.41,166.93,75,167.52,76.81,170.4Z"/><path class="cls-4" d="M103.84,164.09s-.83,8-1.41,8.83-1.86,3.51-14.37,3.59l2.4-9.79Z"/><path class="cls-3" d="M104.78,162.44s-.82,8-1.4,8.83-1.25,3.5-13.75,3.58L92.27,165Z"/><path class="cls-4" d="M95.08,168c1.52-1,3-2.38,4.7-3.05a14.48,14.48,0,0,1,4.81-.72c.12-1,.19-1.76.19-1.76L92.27,165l-1.46,5.43A40.41,40.41,0,0,0,95.08,168Z"/><polygon class="cls-4" points="79.46 173.96 68.63 227 85.97 255.85 101.13 230.7 89.56 174.09 79.46 173.96"/><path class="cls-5" d="M80.93,174.27s-6.34,27.67-10,53.34l15,24.2,13-20.91s-3.6-30.18-12.28-56.71Z"/><path class="cls-6" d="M86.62,174.19h-1l-.69.41,1,77.2,13-20.91S95.3,200.72,86.62,174.19Z"/><path class="cls-3" d="M88.51,180.28h0s-2.4,4.58-11,9.84c-.51,2.48-1,5.18-1.6,8h0s9.93-2.91,14.6-10.54C89.91,185.17,89.23,182.72,88.51,180.28Z"/><path class="cls-3" d="M94.7,205.68h0c-.52-2.58-1.09-5.28-1.72-8.05h0A90.77,90.77,0,0,1,73.74,210h0c-.5,2.82-1,5.72-1.47,8.63C85.12,217.63,94.7,205.68,94.7,205.68Z"/><path class="cls-3" d="M78.79,240.32c9.69-3.57,19-17.28,19-17.28h0c-.31-2-.69-4.32-1.13-6.9h0C88.82,227.34,75.53,235,75.5,235Z"/><path class="cls-6" d="M78.8,167.65c-.45,1.35-.22,6.68,1.74,7.69,1.14.58,3.41.58,6,.14,4.86-.83,3.54-8.22,3.54-8.22Z"/><path class="cls-1" d="M123.9,239.71c2-12.15,6.16-35.71,2.11-54.32s-2-20.86-23.41-23.41L85.83,214.9,70.9,162c-21.46,2.55-19.36,4.8-23.41,23.41s.15,42.17,2.1,54.32c.67,4.15-4,13.34-5,20.77H84.18a32.39,32.39,0,0,0,1.08-3.5,27.94,27.94,0,0,0,1.26,3.5h42.53C129.11,254.51,123.37,243,123.9,239.71Z"/><path class="cls-7" d="M56.7,164.83l14.2,28.28-6.26,6.41s20.89,14.92,21.19,15.38L70.9,162C64.13,162.79,59.71,163.56,56.7,164.83Z"/><path class="cls-7" d="M102.6,162,85.83,214.9c.29-.46,20.81-14.85,20.81-14.85l-5.9-7L117,164.94C114,163.61,109.56,162.81,102.6,162Z"/><path class="cls-2" d="M85.83,214.9,85.26,257S82.3,232.4,85.83,214.9Z"/><circle class="cls-2" cx="91.22" cy="245.07" r="3.32"/><circle class="cls-2" cx="91.22" cy="226.14" r="3.32"/><path class="cls-8" d="M135.64,214.54s-8.6-10.27-6.38-17.08,4.24-8.12-.17-8.52-13.32,4.9-8.56,17.51c0,0-13.88,1.83-15.19,8.11s2,7,2,7-3.71,2-2.51,7.52,5.12,5.22,5.12,5.22a6.46,6.46,0,0,0-2.44,4.44c-.26,2,.41,6.32,2.7,7.81s14,.87,22.71-4.11a7,7,0,0,0,2.44-2.92Z"/><path class="cls-9" d="M121.28,216.41a6.48,6.48,0,0,1-.8.77,2.12,2.12,0,0,1-.55.74,9.12,9.12,0,0,1-7.44,2c-2.48.61-5.47-.07-6.64-2.28l-.31-.1-.23-.08c-.07.19-.16.37-.23.56.3,3.11,2.3,3.58,2.3,3.58a6,6,0,0,0-2.72,4.84,12,12,0,0,1,5.49-3.59,22.55,22.55,0,0,1,5.36-1.58c3-.51,5.35.18,6.93,2.18A16.7,16.7,0,0,0,121.28,216.41Z"/><path class="cls-9" d="M131.15,234.42c-3,3.43-10.05,9.1-14.5,9.18-2.44.77-5.86,1-8.12-.43a1.84,1.84,0,0,1-.47.07,6.08,6.08,0,0,0,2.19,3.35c1.26.83,8.18,2.16,20-2.73-.06-.81.84-6.7,1-7.5C130.5,236.61,132.35,233.87,131.15,234.42Z"/><path class="cls-9" d="M121.62,230.85a8.6,8.6,0,0,1-3.79,1.42,8.37,8.37,0,0,1-4.3.63,8.61,8.61,0,0,1-4.47-.5,6.5,6.5,0,0,1-1.86-.5l-1.13.2a4.65,4.65,0,0,0,3.92,2.24,6.1,6.1,0,0,0-1.91,2.49c3.43-3.25,9.69-3.86,13.36-.94.17-1.69.34-3.39.49-5.09Z"/><path class="cls-9" d="M129.58,203.84a10.72,10.72,0,0,1-.32-6.38c1.28-3.91,2.48-6,2.44-7.15-.42.19-.83.39-1.25.6a2.14,2.14,0,0,1-.64.41,7.52,7.52,0,0,0-.81.4c-.37.24-.74.48-1.08.75a38.69,38.69,0,0,1-2.18,3.68c-.08.4-.17.8-.24,1.16a38.19,38.19,0,0,1-1.33,5.59c-.89,2.38-4.56,1.66-4.28-.54l-.55-.75a1.15,1.15,0,0,1-.06-.17,20.68,20.68,0,0,0,1,4.27c-.15.43-.64.62-1.49.89-1.67.54-3.45,1-5.11,1.65a12.6,12.6,0,0,1,4.31-.72,29.35,29.35,0,0,1,6.2,1.52c.06-.05,0-.16.08-.18a4.14,4.14,0,0,0,.92.74l-.21-.29.33.38.14.11a2.62,2.62,0,0,1,.53.78c.24.34.47.68.68,1l-.52-.71a6.12,6.12,0,0,0,.36.68,15.62,15.62,0,0,1,1.24,2.06,23.73,23.73,0,0,1,1.67,5.07,54.1,54.1,0,0,1-.68,25.76,34.06,34.06,0,0,0,4.23-2l1-.58,1.44-2.34.21-22.57a18.72,18.72,0,0,1-6.09-12.46A2.17,2.17,0,0,1,129.58,203.84Z"/><path class="cls-1" d="M134.67,211.54s4.9.12,5.49,3.93.13,26.63-1.45,30.47c0,0-3.86,2.05-7.46,1.49C131.25,247.43,137.29,230.13,134.67,211.54Z"/><path class="cls-9" d="M23.59,83s.24,44,3,57.65,5.24,15,13.09,16.85,27.12,2.41,30.85,4.74,8.93,9,14.33,8.19c2.2-.32,4.66,0,6.11-1.19,2.12-1.76,5.44-4.7,7.33-5.21,3.19-.85,28.3-5.14,32.46-6.59s7.12-5.17,7.42-15,3.09-49.56-1.07-68.66-6.84-35-19-42.32C114.46,27.91,23.21,2.35,23.59,83Z"/><path class="cls-8" d="M135.73,120.12c20.1-.34,21.28-23.7,12.12-29.2s-15.51,6.13-15.51,6.13Z"/><path class="cls-8" d="M26.5,119.54a18.77,18.77,0,0,1-15-5c-6.69-6.37-5.57-23.49,5.88-24s10.89,12.23,10.89,12.23Z"/><path class="cls-8" d="M26.18,77.39s-1.8,25.86-.56,44.09c.36,5.51.79,12.21,1.39,15.39,2.61,13.68,7,13.18,14.47,15,2.71.65,5.4,1.57,8.12,2.07,3.65.67,7.39,0,11.07.15a24,24,0,0,1,11.08,3.57,81.07,81.07,0,0,1,7.53,4.73c2.26,1.62,3.89,3.42,6.77,3.45s5-1.68,7.73-2.32c3.31-.78,6.2-2.48,9.49-3.44,13.37-3.91,24-7.84,25.53-8.39,4-1.46,6.82-5.17,7.12-15S137.06,87.1,133.09,68s-4.61-34.92-16.21-42.23C113.35,22.18,25.91-3.26,26.18,77.39Z"/><path class="cls-9" d="M82.69,74.66a204.32,204.32,0,0,0,47.6-21.47c-2.34-12.29-5-22.12-13.41-27.42C113.47,22.3,31.79-1.54,26.46,69.52c13.42,2.86,26.8,5.68,40.45,7C72,76.05,77.33,75.05,82.69,74.66Z"/><path class="cls-10" d="M13.87,38.74s-1.78,38.51.2,52.48a14,14,0,0,1,5.38-.65c2.66.21,7.72,2,8.76,10,2,15.24-1.37,21.38-1.37,21.38s.4,1.47,4,1.5,3.81-1.78,3.81-1.78l1.8-75.29Z"/><path class="cls-11" d="M25.35,93.55c-.11-2-.45-4-.48-6.39a20,20,0,0,1-1.7-2.29c-2.87-1.34-5.51-3.14-8.35-4.56-.5,0-1-.07-1.53-.08a109.87,109.87,0,0,0,.78,11,14,14,0,0,1,5.38-.65A8.82,8.82,0,0,1,25.35,93.55Z"/><path class="cls-11" d="M13.3,45.86V57.24s11.22,9.21,22.62,9l.3-9.82Z"/><path class="cls-10" d="M26,3.49s.7,17.34,31.33,11.6C78.13,11.18,92.9-.5,110,0s29.26,15.77,29.57,26.53c0,0,12.9-8.66,19.66,8.73,4.16,10.7-1.32,29-10.58,56.15a11.44,11.44,0,0,0-1.41-.88c-2.16-1.11-6.57-2.21-11.34,2.84-3.92,4.15.77,24.93.77,24.93s.44,1.94-4.19,2.08-4.17-3.72-4.17-3.72-.85-20.79-.85-46.79c0-10.84.51-17.39-1.28-20.52,0,0-38,26-77.94,18.1S2.62,34.39,0,16.6c0,0,4.21,10.88,13.76,14.24,0,0-8.68-14.08.85-28.15,0,0,3.09,11.29,8.69,14.62C23.3,17.31,20.69,15,26,3.49Z"/><path class="cls-11" d="M151.45,83c-5.51,0-10.68.62-15.3,2.89l-.27.48c-.79,2.27-1.67,5.25-.6,7.91h0a3.5,3.5,0,0,1,.58-.86c4.77-5,9.18-4,11.34-2.84a11.44,11.44,0,0,1,1.41.88c1-2.92,1.95-5.73,2.85-8.45A0,0,0,0,0,151.45,83Z"/><path class="cls-9" d="M140,110.06s-3.27-16.68,4.73-14.29c4.91,1.47,4.46,7.12,1.75,10.66C144.82,108.66,142.07,110.12,140,110.06Z"/><path class="cls-12" d="M140,109.85l-.59-4.33s10-9.24,8.75-2.52S140,109.85,140,109.85Z"/><path class="cls-9" d="M23.26,113.2S25.51,94.76,16,98.37c-5.84,2.21-4.69,8.25-1,11.74C17.27,112.29,20.77,113.53,23.26,113.2Z"/><path class="cls-12" d="M23.23,113l.26-4.75s-13.17-8.7-10.94-1.61S23.23,113,23.23,113Z"/><path class="cls-13" d="M91.38,161.81c0,1-2.54,1.69-5.61,1.59s-5.52-1-5.49-1.93,2.53-1.68,5.6-1.59S91.41,160.84,91.38,161.81Z"/><path class="cls-9" d="M138.29,120.8l-2.08-.68s16-6.46,15.93-17.74C152.14,102.38,156.16,114.71,138.29,120.8Z"/><path class="cls-11" d="M12.12,19.33c-.43,1.51,1.05,4.29,1.52,5.46a23.59,23.59,0,0,0,3.4,5.9,20.22,20.22,0,0,0,11,7.13,7.54,7.54,0,0,0,2.35.3A13.27,13.27,0,0,0,28,36.85c-.94-.54-1.67-1.19-2.55-1.79a34.76,34.76,0,0,1-5.75-4.62,28.92,28.92,0,0,1-4-5.65c-.87-1.6-1.93-2.92-2.68-4.61a13.31,13.31,0,0,1-.59-1.38A1.27,1.27,0,0,0,12.12,19.33Z"/><path class="cls-11" d="M24.38,11.64s-2,12.13,9.44,15.45A25.35,25.35,0,0,1,24.38,11.64Z"/><path class="cls-11" d="M138.76,27.67S144.4,44.24,125.36,48C125.36,48,135.53,40.1,138.76,27.67Z"/><path class="cls-14" d="M129,12.56S120.46-.69,103.78,4.72,87.2,14.25,80.24,14.49s17.75.68,31-2.93S126.6,15.4,129,12.56Z"/><path class="cls-14" d="M135.91,52.84S149.6,45.49,148.54,35c0,0,8.67,2.17,6.51,12.13s-19.53,18.31-19.53,18.31Z"/><path class="cls-3" d="M42.69,120.36a.85.85,0,0,1-.87.82L39,121.09a.84.84,0,0,1-.82-.87h0a.84.84,0,0,1,.87-.82l2.86.09a.85.85,0,0,1,.82.87Z"/><path class="cls-3" d="M122.59,120.2a.65.65,0,0,1-.61.67l-2.69-.08a.64.64,0,0,1-.57-.71h0a.64.64,0,0,1,.61-.68l2.69.08a.65.65,0,0,1,.57.72Z"/><path class="cls-9" d="M92.57,97.22s10.54,23.69-.19,32.69-24.63,3.71-26.93-2.79c-4.07-11.5,5.77-15,7.66-30.75a11.77,11.77,0,0,1,9.14-4.2C88.41,92.08,92.57,97.22,92.57,97.22Z"/><path class="cls-8" d="M91.63,96.23s9.35,20.1-.19,28.33-21.94,3.38-24-2.57c-3.63-10.52,5-12.86,6.68-27.24a11.85,11.85,0,0,1,8.3-3.16C87.92,91.52,91.63,96.23,91.63,96.23Z"/><path class="cls-3" d="M73.94,120.57c0,.81,1.59,1.41,3.51,1.35s3.44-.76,3.41-1.56-1.6-1.4-3.5-1.34S73.92,119.77,73.94,120.57Z"/><path class="cls-10" d="M56.89,78.53s-2.79-6.27-7.84-5.61-7.38,8.69-7.38,8.69a15,15,0,0,0-.32,5.94S48.16,77.73,56.89,78.53Z"/><path class="cls-10" d="M113.66,75.37s-4.62,4.19-4.38,8.33c0,0,7.41-.79,11,7.25,0,0,4-1.51,3.22-4.53S119.6,75.55,113.66,75.37Z"/><path class="cls-15" d="M62.44,94.51a7.83,7.83,0,1,1-7.38-8.25A7.82,7.82,0,0,1,62.44,94.51Z"/><path class="cls-3" d="M59.42,92.11c-.6,1.45-2.74,1.94-4.77,1.1s-3.2-2.71-2.6-4.16,2.74-1.94,4.77-1.09S60,90.66,59.42,92.11Z"/><path class="cls-15" d="M118.22,95.51a7.83,7.83,0,1,1-7.38-8.25A7.81,7.81,0,0,1,118.22,95.51Z"/><path class="cls-3" d="M115.2,93.11c-.6,1.45-2.74,1.94-4.77,1.09s-3.2-2.7-2.6-4.15,2.74-1.94,4.78-1.1S115.8,91.66,115.2,93.11Z"/><path class="cls-15" d="M78.52,150.6a66.75,66.75,0,0,1-19.36-2.79,1.18,1.18,0,1,1,.76-2.24c.26.09,25.81,8.58,46.54-5.14a1.18,1.18,0,1,1,1.3,2C98.07,148.82,87.39,150.6,78.52,150.6Z"/><path class="cls-15" d="M112.11,143.46l-.19,0a1.18,1.18,0,0,1-1-1.35c.29-1.83,0-3.18-.8-4-1.52-1.56-4.53-1.19-4.56-1.19a1.18,1.18,0,1,1-.32-2.34c.17,0,4.21-.54,6.57,1.87,1.38,1.42,1.87,3.46,1.45,6.06A1.2,1.2,0,0,1,112.11,143.46Z"/></g></g></svg>