<svg xmlns="http://www.w3.org/2000/svg" viewBox="0 0 162.66 267.96"><defs><style>.cls-1{fill:#c65044;}.cls-2{fill:#ad3e3b;}.cls-3{fill:#f4efed;}.cls-4{fill:#563a28;}.cls-5{fill:#e2dcd9;}.cls-6{fill:#d15c56;}.cls-7{fill:#6d4c3a;}.cls-8{fill:#f4d3b0;}.cls-9{fill:#f9dab4;}.cls-10{fill:#efc4a0;}.cls-11{fill:#3a332d;}</style></defs><title>资源 97</title><g id="图层_2" data-name="图层 2"><g id="Layer_1" data-name="Layer 1"><path class="cls-1" d="M127,170.05c.17,26-3.8,67.19-3.1,97.91h22.28C143,206.76,127,170.05,127,170.05Z"/><path class="cls-2" d="M127,268h0c.4-1.55,8.72-34.76,0-97.91Z"/><path class="cls-1" d="M43.19,170.05S27.13,206.76,24,268H46.27C47,237.24,43,196,43.19,170.05Z"/><path class="cls-2" d="M43.17,268h0V170.05C34.45,233.2,42.77,266.41,43.17,268Z"/><polygon class="cls-3" points="56.06 165.72 114.11 165.72 120.73 182.51 85.46 233.68 48.01 182.98 56.06 165.72"/><path class="cls-4" d="M87.91,179.16H82.78a2.06,2.06,0,0,1-2.12-2v-6.31a2.06,2.06,0,0,1,2.12-2h5.13a2.06,2.06,0,0,1,2.12,2v6.31A2.06,2.06,0,0,1,87.91,179.16Z"/><polygon class="cls-4" points="82.51 178.17 69.48 241.49 85.69 250.65 101.44 241.12 87.96 178.17 82.51 178.17"/><polygon class="cls-5" points="60.19 166.42 62.04 187.73 85.46 174.7 108.67 187.73 110 166.33 60.19 166.42"/><path class="cls-1" d="M114.11,170.05c-.22,35.69-29,54.7-29,54.74s-28.8-19-29-54.74v-4.34l-12.88,4.34V268H127V170.05l-12.88-4.34Z"/><ellipse class="cls-2" cx="85.09" cy="233.68" rx="4.22" ry="3.97"/><path class="cls-2" d="M89.31,254.17a4.23,4.23,0,1,1-4.22-4A4.1,4.1,0,0,1,89.31,254.17Z"/><path class="cls-6" d="M121.93,194.55c-2.35,3.81-10.2,5.63-10.2,5.63s8.72,11.35.61,16.15-27.25,8.46-27.25,8.46l29-59.08S128,184.72,121.93,194.55Z"/><path class="cls-6" d="M48.24,194.55c2.36,3.81,10.21,5.63,10.21,5.63s-8.72,11.35-.61,16.15,27.25,8.46,27.25,8.46l-29-59.08S42.17,184.72,48.24,194.55Z"/><path class="cls-7" d="M15.32,110.51S-27.29,8,85.09,8s69.56,101.53,69.56,101.53L85,136.47Z"/><path class="cls-4" d="M105.24,27.11s-5.18,48.14-20.15,58.83-.76,0-.76,0L36.71,73.22S-5.13,61.6.53,18.81c0,0,12.33,14.88,25.18,17.83,0,0-7.19-14.32.52-34.8,0,0,10.48,27.48,24.68,32.83,0,0,0-25.82,10.46-34.67,0,0,3.42,22,11.65,29.32,0,0,2.4-14.74,14-21.29,0,0-3.25,24.8,1.54,36.05A46.42,46.42,0,0,0,105.24,27.11Z"/><path class="cls-8" d="M33.26,115s-9.43-12.84-19-5.44S16,144.4,36.71,145.41Z"/><path class="cls-8" d="M137.26,115s9.43-12.84,19-5.44-1.81,34.84-22.49,35.85Z"/><path class="cls-9" d="M117.71,164.68,98,171.51a39.24,39.24,0,0,1-25.81,0l-19.72-6.83c-12.76-4.42-21.41-17.2-21.41-31.62V80.48c0-6.19,5.51-10.66,11-9l33,10.19a33.76,33.76,0,0,0,20,0l33-10.19c5.53-1.71,11,2.76,11,9v52.58C139.12,147.48,130.47,160.26,117.71,164.68Z"/><path class="cls-10" d="M77.38,143.67s7.51,7,14.79,4.68,10.28-11,10.28-11-5.08,6.07-11.07,7.84S77.38,143.67,77.38,143.67Z"/><path class="cls-10" d="M68.78,160.82a1.32,1.32,0,0,1,0-2.64c.36,0,35.66-.09,55.45-7.51a1.2,1.2,0,0,1,1.56.81,1.34,1.34,0,0,1-.75,1.68C104.85,160.73,70.24,160.82,68.78,160.82Z"/><path class="cls-11" d="M47.27,127.29a1.41,1.41,0,0,1-1.36-1.39,1.43,1.43,0,0,1,1.29-1.54l23.46-1.19a1.39,1.39,0,0,1,1.42,1.39,1.43,1.43,0,0,1-1.29,1.54l-23.46,1.19Z"/><polygon class="cls-4" points="74.25 111.26 41.12 110.79 42.27 103.54 71.6 103.16 74.25 111.26"/><path class="cls-11" d="M124,127.29H124l-23.45-1.19a1.44,1.44,0,0,1-1.3-1.54,1.4,1.4,0,0,1,1.43-1.39l23.45,1.19a1.43,1.43,0,0,1,1.29,1.54A1.4,1.4,0,0,1,124,127.29Z"/><polygon class="cls-4" points="97.05 111.26 130.18 110.79 129.03 103.54 99.71 103.16 97.05 111.26"/></g></g></svg>