<svg xmlns="http://www.w3.org/2000/svg" viewBox="0 0 189.37 260.01"><defs><style>.cls-1{fill:#5ead8c;}.cls-2{fill:#6fbc9f;}.cls-3{fill:#fff;}.cls-4{fill:#d8d9d9;}.cls-5{fill:#e1e3e2;}.cls-6{fill:#b7b7b7;}.cls-7{fill:#6b6d6c;}.cls-8{fill:#8e8e8e;}.cls-9{fill:#418c6a;}.cls-10{fill:#4e9b7b;}.cls-11{fill:#684427;}.cls-12{fill:#f9dab4;}.cls-13{fill:#e5be9e;}.cls-14{fill:#f7cea6;}.cls-15{fill:#7f5732;}.cls-16{fill:#754d2c;}.cls-17{fill:#875c38;}.cls-18{fill:#8e613d;}.cls-19{fill:#eac09d;}</style></defs><title>资源 225</title><g id="图层_2" data-name="图层 2"><g id="Layer_1" data-name="Layer 1"><path class="cls-1" d="M157.63,152.84l-15,.17V260h46.61c.88-21.37-4.65-46.95-9.22-66.08C174.73,171.64,157.63,152.84,157.63,152.84Z"/><path class="cls-2" d="M184.06,255.16c5-9.25,1.66-25.58-2-41.45-4.25-18.36-9.57-33.81-11.24-36.39s-10.89-10.7-12.23,16.12c-.57,11.41-1.36,56,4.44,62.14C167.81,260.69,181.51,259.88,184.06,255.16Z"/><path class="cls-1" d="M31.74,152.84l15,.17V260H.09c-.88-21.37,4.65-46.95,9.22-66.08C14.64,171.64,31.74,152.84,31.74,152.84Z"/><path class="cls-2" d="M5.31,255.16c-5-9.25-1.66-25.58,2-41.45,4.25-18.36,9.57-33.81,11.24-36.39s10.89-10.7,12.23,16.12c.57,11.41,1.36,56-4.45,62.14C21.56,260.69,7.85,259.88,5.31,255.16Z"/><path class="cls-3" d="M60.44,164.42s32.43-23.79,66.18.42v84.44l-66.34.12Z"/><polygon class="cls-4" points="84.51 177.11 70.43 188.62 67.62 184.83 85.15 174.07 86.42 176.04 84.51 177.11"/><polygon class="cls-4" points="103.32 177.11 117.05 188.26 120.6 184.49 102.67 174.07 101.41 176.04 103.32 177.11"/><path class="cls-3" d="M69.55,185.45,94,169.23,50.55,167ZM94,169.23l22.82,16.22,14.43-18.56Z"/><polygon class="cls-5" points="100.28 175.92 87.97 175.92 87.75 177.08 76.31 236.19 95.43 256 115.65 235.54 100.28 175.92"/><polygon class="cls-6" points="89.27 177.32 99.06 177.32 113.99 235.26 95.45 259.77 77.95 235.89 89.27 177.32"/><polygon class="cls-7" points="113.99 235.26 99.06 177.32 94.85 177.32 94.85 258.95 95.45 259.77 113.99 235.26"/><path class="cls-3" d="M101.47,186.67A38.1,38.1,0,0,1,98,190a42.66,42.66,0,0,1-12.67,7.5L83.72,206a52.37,52.37,0,0,0,20-10.59Z"/><path class="cls-3" d="M108.91,215.56l-2.33-9a37.5,37.5,0,0,1-6.13,6,50.21,50.21,0,0,1-19.79,9.28l-1.55,8c12.71-2.33,21.63-7.43,27.36-12.12C107.36,217,108.17,216.25,108.91,215.56Z"/><path class="cls-3" d="M112.1,227.94c-3.48,3.75-12.22,11.32-28.94,15.06l4.8,6.56a69.6,69.6,0,0,0,23.16-10.49l2.87-3.81Z"/><path class="cls-8" d="M86,167.08s16.91,0,16.91,0a55.44,55.44,0,0,1,.07,11.81c-.85,4.19-6,4.06-9.59,4-2.48,0-5.62-.24-7.09-2.42C84.41,177.68,85.81,170.12,86,167.08Z"/><path class="cls-2" d="M94.17,196.48c-21.76-13.54-36.79-36.8-36.79-36.8l-13.16.16V260h99.91V160.73H127.37S117.5,181.52,94.17,196.48Z"/><path class="cls-1" d="M126.18,163a99.18,99.18,0,0,1-32,33.5C79,187,67.07,172.84,61.26,165.14l-4.33,18.92H69.64l-8.37,12.72,32.7-.3,32.7.3-8.38-12.72H131Z"/><path class="cls-9" d="M6.53,146.52l26,34.4V260H56.18V168.36L34.94,136.14C28.18,142.91,6.53,146.52,6.53,146.52Z"/><path class="cls-10" d="M53.45,170.83c-1.17.56-3.14.95-3.92.16s-1.69-1.51-7.46-1.51-9.31,1.12-8.81-.84.49-20.92.49-23.76-.45-3.07-3.07-1.42c0,0-11.19,4.71-17,4.71s1.68,5.27,6.12,11.38,11.72,17.22,12.73,18.23,3,.34,7.57-2.86,7-2.69,5.22-.95-9.2,6.5-10.44,7.74-.22,12.9-.22,19.29v59H54.39V174.64C54.39,172.55,54.63,170.27,53.45,170.83Z"/><path class="cls-9" d="M132.39,168.36V260H156V180.92l26-34.4s-21.64-3.61-28.41-10.38Z"/><path class="cls-10" d="M174.94,148.17c-5.86,0-17.05-4.71-17.05-4.71-2.62-1.65-3.07-1.42-3.07,1.42s.49,22.18.49,24.21c0,2.47-3,1.29-8.81,1.29s-6.67-.17-7.46.61-2.75.4-3.92-.16-.94,1.72-.94,3.81V260H154V201c0-6.39,1-18.06-.22-19.29s-8.7-6-10.44-7.74.68-2.24,5.22.95,6.56,3.87,7.57,2.86,8.3-12.11,12.73-18.23S180.8,148.17,174.94,148.17Z"/><path class="cls-11" d="M23.26,127.14H167.63v-89S141.44-9.79,75.11,1.81s-69,80.6-69,80.6,2.83-7.7,7-10.82a68.13,68.13,0,0,0,0,11.15s4.9-8.25,8-9.7a82,82,0,0,0-1.56,12l3.83-3.87Z"/><path class="cls-12" d="M104.7,167.17h48.78V73.49s-8-23.65-43-26.1S55.78,59.21,42,82l-.89-13.83-4.91,8v91H75s0,8,9.66,9.67S102.48,174.61,104.7,167.17Z"/><path class="cls-12" d="M39.18,134.44a19.42,19.42,0,0,1-15.72-1.86c-8.15-4.77-9.87-21.18,2.14-23.88s13.58,9.51,13.58,9.51Z"/><path class="cls-13" d="M22.37,126.25a.89.89,0,0,1,.87-.88h.07l.26-.06h0l.89-.23h0c.72-.21,1.64-.51,2.58-.88h0c1.88-.7,3.89-1.77,4.44-2.52h0a.72.72,0,0,0,.18-.36h0s0-.07-.16-.24h0c-1.7-1.73-4.94-2.72-6.42-3h0l-.78-.16h0a.88.88,0,0,1-.73-1h0a.88.88,0,0,1,1-.73h0c.07,0,5.22.8,8.18,3.7h0a2.13,2.13,0,0,1,.67,1.5h0a2.83,2.83,0,0,1-1.08,2h0a10.62,10.62,0,0,1-2.13,1.4h0a30.72,30.72,0,0,1-4.92,2h0a9.84,9.84,0,0,1-2,.47h0a.89.89,0,0,1-.89-.89Z"/><path class="cls-14" d="M24.73,131.75c-4.69-3.14-7-9.46-6.4-13.73a10.28,10.28,0,0,1,12.07-8.09c6.84,1.09,8.78,8.28,8.78,8.28S37.62,106,25.6,108.7s-10.29,19.11-2.14,23.88a19.42,19.42,0,0,0,15.72,1.86C37.35,134.44,29.43,134.89,24.73,131.75Z"/><path class="cls-12" d="M151.7,134.44a19.41,19.41,0,0,0,15.72-1.86c8.15-4.77,9.87-21.18-2.15-23.88s-13.58,9.51-13.58,9.51Z"/><path class="cls-13" d="M168.5,126.25a.88.88,0,0,0-.87-.88h-.06l-.27-.06h0l-.89-.23h0c-.71-.21-1.63-.51-2.58-.88h0c-1.87-.7-3.89-1.77-4.43-2.52h0a.72.72,0,0,1-.18-.36h0s0-.07.15-.24h0c1.7-1.73,4.95-2.72,6.43-3h0l.78-.16h0a.89.89,0,0,0,.73-1h0a.89.89,0,0,0-1-.73h0c-.07,0-5.21.8-8.17,3.7h0a2.14,2.14,0,0,0-.68,1.5h0a2.8,2.8,0,0,0,1.09,2h0a10.53,10.53,0,0,0,2.12,1.4h0a30.8,30.8,0,0,0,4.93,2h0a9.57,9.57,0,0,0,2,.47h0a.88.88,0,0,0,.88-.89Z"/><path class="cls-14" d="M166.14,131.75c4.69-3.14,7-9.46,6.4-13.73a10.27,10.27,0,0,0-12.06-8.09c-6.84,1.09-8.79,8.28-8.79,8.28s1.56-12.21,13.58-9.51,10.3,19.11,2.15,23.88a19.41,19.41,0,0,1-15.72,1.86C153.52,134.44,161.45,134.89,166.14,131.75Z"/><path class="cls-15" d="M10.58,66.87s-1.12,4.91-1.49,6c4.16-4.83,6.54-5.65,6.54-5.65s-1,8-.67,9.59A24.63,24.63,0,0,1,23.44,69s-.67,7-1.11,9a94.6,94.6,0,0,0,9.14-12c1.48-2.38,2.68-1.19,2.08,8.4C33.25,76,35,74,37,69.92a83,83,0,0,1,4.54-8.18s1.56-2.3,1.56,3.34.07,11.16,2.12,7.48,12.52-20.19,33.64-26,37.62-3.27,49.07.89,16.66,11.31,18.44,7.74S158.84,35,157.05,31,141,11.33,125.23,6.72,83.59-.42,67.83,5.23s-31.93,17.45-41,28C17.09,44.38,12.06,60.85,10.58,66.87Z"/><path class="cls-15" d="M148.42,60.25s8.63-19.77,10.41-23.19,3.35-3.2,4.76-1.79,3.42,3,1,9.07-9.29,21.79-10.26,22.75S146.89,63.76,148.42,60.25Z"/><path class="cls-16" d="M24.85,78.84s4.54-6.1,5.43-8.1,2.23-2.46,1.71,1.41-2.34,7.84-.52,6.77,3.42-2.16,3.42-2.16v30s-3.2-3.42-10.26-3C24.63,90.81,24.85,78.84,24.85,78.84Z"/><path class="cls-16" d="M155.27,70.66s6.09-12.34,8-16.06,2.37-.44,2.37,5.65V98.77s-8.32,3.27-10.26,7.73C155.41,93.86,155.27,70.66,155.27,70.66Z"/><path class="cls-17" d="M141.73,50.29S123.29,39.58,110.8,39.58s-7.28-4.9,5.06-3.42,22.15,5.65,17.25.75-13.09-6.4-18-6.4-3.28-3.42,7.73-2.67,15.24,3.34,17.84,5.94,3.57-2.08-3.27-6.09-13.38-7.44-7.58-7.44,12.86,4.54,16.36,8,.59-4.91-4.32-8.33,1-2.15,5.65,2.53,8.78,7.74,5.8,15.17S146.91,53,141.73,50.29Z"/><path class="cls-11" d="M52.77,85.42s13.16-5.8,19.85-6.8c-1-3.79-6.47-9.26-12.49-5.24S49.24,86.91,52.77,85.42Z"/><path class="cls-11" d="M141,85.42s-13.16-5.8-19.86-6.8c1-3.79,6.47-9.26,12.5-5.24S144.55,86.91,141,85.42Z"/><path class="cls-11" d="M129.9,110.41a10.71,10.71,0,1,1,5.67-14A10.7,10.7,0,0,1,129.9,110.41Z"/><path class="cls-3" d="M125.79,100.82c-3.17.76-6.25-.74-6.88-3.35s1.44-5.35,4.62-6.11,6.26.74,6.88,3.35S129,100.06,125.79,100.82Z"/><path class="cls-11" d="M61.4,111.26a10.71,10.71,0,1,1,10.88-10.53A10.7,10.7,0,0,1,61.4,111.26Z"/><path class="cls-3" d="M61.55,100.83c-3.21-.59-5.42-3.21-4.93-5.86s3.48-4.3,6.7-3.7,5.42,3.21,4.93,5.86S64.76,101.42,61.55,100.83Z"/><path class="cls-15" d="M80.61,120.18s-3.27-5.05-7.58-4.31-7.29,4.91-8.18,9.81-4.39,5.58-7.43,2.53-2.36-4.31-4.31-5.31a16.2,16.2,0,0,1,.83,6,10.93,10.93,0,0,0,8,10.82,18.89,18.89,0,0,0,10.24.44,3.57,3.57,0,0,1-2.08,2.08s11.08,1.79,14.8-11.37C81.13,125.83,80.09,125.16,80.61,120.18Z"/><path class="cls-18" d="M77.72,119.81a5.25,5.25,0,0,0-5.66-1.64c-3.56,1.12-4.61,4.32-5.57,7.51s-3.57,10-11.23,2.38a8.61,8.61,0,0,0,.89,4.84c1.27,2.3,3.65,6.54,9.89,6.54s10.38-2.64,12.16-5.17c0,0-.63,4.32-3.83,5.84,0,0,6.24.22,8-8C80.35,130.18,76.53,127.1,77.72,119.81Z"/><path class="cls-15" d="M69.61,127.8s-4.68,9.37-13.38,2.35a9,9,0,0,0,5.46,5.79c4.52,1.79,8.48-.5,8.92-3.51,0,0-4.07,4.65-8.3,2.33C62.31,134.76,69.61,134.38,69.61,127.8Z"/><path class="cls-15" d="M99.43,119s3.27-5.06,7.59-4.31,7.28,4.9,8.17,9.81,4.39,5.58,7.44,2.53,2.36-4.31,4.31-5.32a16.29,16.29,0,0,0-.83,6,10.93,10.93,0,0,1-8,10.82,18.92,18.92,0,0,1-10.25.44,3.57,3.57,0,0,0,2.08,2.08s-11.08,1.79-14.79-11.37C98.91,124.65,100,124,99.43,119Z"/><path class="cls-18" d="M102.33,118.63A5.23,5.23,0,0,1,108,117c3.57,1.12,4.61,4.31,5.58,7.51s3.57,10,11.23,2.38a8.56,8.56,0,0,1-.9,4.84c-1.26,2.3-3.64,6.54-9.89,6.54s-10.37-2.64-12.15-5.17c0,0,.63,4.31,3.83,5.84,0,0-6.25.22-8-8C99.69,129,103.52,125.92,102.33,118.63Z"/><path class="cls-15" d="M110.43,126.62s4.69,9.37,13.39,2.34a9,9,0,0,1-5.47,5.8c-4.51,1.79-8.47-.5-8.92-3.51,0,0,4.08,4.65,8.31,2.32C117.74,133.57,110.43,133.2,110.43,126.62Z"/><path class="cls-19" d="M125.52,142.34s-11.3,6.39-30.33,6.39-22.61-.74-21.56,2.53,6.69,6,6.69,6-10.71,4.61-3.79,17,26.47,6,28.77-7.92c.74-5.73.67-6.39-.6-6.39s-.74,4.23-3.41,8.32S92,176,84.16,173.84s-8-8.08-6-11.28a6,6,0,0,1,8-2.15c2.53,1.26,3.42-.6-.89-2.9s-6.51-3.68-7.88-5.06-.6-2.19,2.82-1.78,21.64,1.78,33.46-1.42,14.35-5.28,14.8-7.58S126.59,141.8,125.52,142.34Z"/><path class="cls-3" d="M94.83,125.17c.23.75-1,1.78-2.68,2.31s-3.28.36-3.51-.39,1-1.78,2.67-2.31S94.6,124.43,94.83,125.17Z"/><path class="cls-14" d="M86.23,128.93c-5.9-2.56-5.47-9.77-3.12-13.75s7.92-3.74,10.54-1.63,2.06,4,3.62-1.27,1-6.15-.33-7.6-2.24-1.09-2.24-.24.23,3.86.23,3.86c.14,2.17-.17,2.84-1,2s-6.58-2.66-10.65,0S77.7,120.67,80.09,127s9.3,6.42,14.39,4.47c0,0,7-3.89,6.47-9.8s-3.57-4.91-3.79-3.68,2.88,3.9-.22,7.8S89.35,130.29,86.23,128.93Z"/></g></g></svg>