<svg xmlns="http://www.w3.org/2000/svg" viewBox="0 0 144.89 260"><defs><style>.cls-1{fill:#f2d0af;}.cls-2{fill:#ddb58e;}.cls-3{fill:#3a332d;}.cls-4{fill:#2f3233;}.cls-5{fill:#f4d3b0;}.cls-6{fill:#2d2621;}</style></defs><title>资源 270</title><g id="图层_2" data-name="图层 2"><g id="Layer_1" data-name="Layer 1"><path class="cls-1" d="M113.59,176.46c-1.49-3.63-11.43-8.68-11.43-8.68l-3.58.93,1.65,49.15,8,42.14H123.6C121.53,236,114.79,179.4,113.59,176.46Z"/><path class="cls-2" d="M113,204c-.58-6.42-1.31-30-6-33.45-2.54-1.61-4.83-2.77-4.83-2.77l-3.58.93,1.65,49.15L103,232.49C106.84,222.87,113.91,214.55,113,204Z"/><path class="cls-1" d="M46,168.71l-3.58-.93s-9.94,5.05-11.42,8.68-17,63-16.16,67.86c.34,2.05,5.92,8.68,12.26,15.68h22L35.67,242.92l8.68-25.06Z"/><path class="cls-2" d="M31.81,208.62a24.24,24.24,0,0,0,.4,3.33c.82,2.5,1.64,5.05,2.54,7.55a88.06,88.06,0,0,0,5.69,9.65l3.91-11.29L46,168.71l-3.58-.93s-1.65.84-3.71,2.08c-3,5-5.21,9.78-5.62,16-.39,5.87-.88,11.75-1.21,17.62-.09,1.72-.11,3.41-.07,5.09C31.8,208.58,31.81,208.6,31.81,208.62Z"/><path class="cls-2" d="M33.05,238.48a13.16,13.16,0,0,0-5.37-1.65c5.1,2.34,7.94,6.52,8,6.12l0,0,.43-1.21A11.36,11.36,0,0,0,33.05,238.48Z"/><path class="cls-1" d="M88.73,156.75H56.16s-18.55,12.82-19,18.41-4.2,32.06-2.22,36.51,10.55,24,10.35,26.86c-.19,2.46-.05,17.6,0,21.47H99.67c0-3.87.17-19,0-21.47-.21-2.83,8.37-22.41,10.35-26.86s-1.73-30.92-2.23-36.51S88.73,156.75,88.73,156.75Z"/><path class="cls-2" d="M59.34,161.28a4.43,4.43,0,0,1,2.74,1.33,6.16,6.16,0,0,1,1.26,2.1,6.49,6.49,0,0,0,5.58,2.72c1.86.13,3.75.36,5.63.35,3.88,0,6.31-.69,7.53-4.49A4.13,4.13,0,0,1,84,161.05a40.31,40.31,0,0,1,6.8-2.84c-1.24-.9-2-1.46-2-1.46H56.16s-1.64,1.14-3.94,2.87A32.52,32.52,0,0,0,59.34,161.28Z"/><path class="cls-2" d="M42.76,219.18s1.44-.44,3.57-1l3.62-.92c1.31-.35,2.73-.67,4.1-1.09s2.76-.8,4-1.21,2.43-.89,3.41-1.32c.51-.2.92-.46,1.32-.64a7.24,7.24,0,0,0,1-.57l.87-.53s-.2.3-.61.83a5.7,5.7,0,0,1-.81.88,10.6,10.6,0,0,1-1.19,1,16.25,16.25,0,0,1-1.53,1,18.21,18.21,0,0,1-1.82.94,20.28,20.28,0,0,1-2,.82c-.69.24-1.41.48-2.13.68a35.73,35.73,0,0,1-8.09,1.22A22.76,22.76,0,0,1,42.76,219.18Z"/><path class="cls-2" d="M66.51,176.46a5.86,5.86,0,0,0-.58-.3c-.34-.19-.9-.39-1.48-.69a10.62,10.62,0,0,1-1-.39,10.28,10.28,0,0,0-1.11-.39c-.38-.14-.78-.26-1.17-.42L59.93,174a9.21,9.21,0,0,0-1.24-.36c-.42-.06-.83-.19-1.23-.27s-.79-.21-1.16-.32-.73-.13-1.07-.2a15.07,15.07,0,0,1-2.24-.63,14.14,14.14,0,0,1,2.3-.5,8,8,0,0,1,2.42-.08c.44,0,.91.06,1.37.13a11.61,11.61,0,0,1,1.39.32l1.36.44c.44.18.85.43,1.25.63a9.67,9.67,0,0,1,2,1.42,7.49,7.49,0,0,1,1.12,1.35A3.33,3.33,0,0,1,66.51,176.46Z"/><path class="cls-2" d="M102.13,219.18s-1.44-.44-3.57-1l-3.62-.92c-1.31-.35-2.72-.67-4.1-1.09s-2.76-.8-4-1.21-2.43-.89-3.42-1.32c-.5-.2-.91-.46-1.32-.64a7.07,7.07,0,0,1-1-.57l-.88-.53s.21.3.62.83a5.59,5.59,0,0,0,.8.88,11.58,11.58,0,0,0,1.19,1,17.66,17.66,0,0,0,1.53,1c.58.3,1.17.68,1.82.94a20.28,20.28,0,0,0,2,.82c.7.24,1.41.48,2.13.68a35.73,35.73,0,0,0,8.1,1.22A22.58,22.58,0,0,0,102.13,219.18Z"/><path class="cls-2" d="M78.38,176.46s.22-.13.59-.3.89-.39,1.47-.69a9.77,9.77,0,0,0,1-.39,10.1,10.1,0,0,1,1.1-.39c.38-.14.78-.26,1.17-.42L85,174a9.21,9.21,0,0,1,1.24-.36c.43-.06.84-.19,1.24-.27s.78-.21,1.16-.32.73-.13,1.06-.2a15.47,15.47,0,0,0,2.25-.63,14.46,14.46,0,0,0-2.31-.5,8,8,0,0,0-2.42-.08c-.44,0-.91.06-1.37.13a11.61,11.61,0,0,0-1.39.32l-1.36.44c-.43.18-.84.43-1.24.63a9.49,9.49,0,0,0-2,1.42,7.94,7.94,0,0,0-1.12,1.35A3.33,3.33,0,0,0,78.38,176.46Z"/><path class="cls-2" d="M71.85,185.57a13,13,0,0,1,.89,2.81c.1.43.21.89.29,1.4a10.75,10.75,0,0,1,.24,1.57c.1,1.09.13,2.27.17,3.44,0,.58,0,1.17,0,1.75a13.08,13.08,0,0,1-.19,1.68c-.17,1.09-.36,2.1-.57,3a22.91,22.91,0,0,1-.81,2.82,23.77,23.77,0,0,1-.32-2.93c0-.87-.07-1.87,0-2.94s0-2.21,0-3.34,0-2.28.08-3.35,0-2.06.08-2.93.11-1.61.14-2.12S71.85,185.57,71.85,185.57Z"/><path class="cls-2" d="M60.56,248.53s-.17-1-.3-2.65a47,47,0,0,1,0-7.07,29.13,29.13,0,0,1,2.24-9.89,12.63,12.63,0,0,1,3.64-4.74,9.74,9.74,0,0,1,6-1.86,10.43,10.43,0,0,1,3.1.56A9.56,9.56,0,0,1,78,224.4a13.58,13.58,0,0,1,3.69,4.65,31.06,31.06,0,0,1,2.72,9.75,48.33,48.33,0,0,1,.35,7.06c0,1.7-.15,2.67-.15,2.67s-.06-1-.23-2.65A68.42,68.42,0,0,0,83.34,239a32.27,32.27,0,0,0-3.16-9.11,12.45,12.45,0,0,0-3.31-4,7.42,7.42,0,0,0-2.26-1.19A8,8,0,0,0,72,224.3a7.83,7.83,0,0,0-4.8,1.42,11.4,11.4,0,0,0-3.21,4,30.46,30.46,0,0,0-2.7,9.24c-.4,2.84-.61,5.25-.67,6.94S60.56,248.53,60.56,248.53Z"/><path class="cls-2" d="M72.45,226.68s.33,1.56.56,3.9a85.34,85.34,0,0,1,.42,8.59,82.48,82.48,0,0,1-.42,8.59c-.23,2.34-.56,3.9-.56,3.9a37.42,37.42,0,0,1-.57-3.9,88.05,88.05,0,0,1,0-17.18C72.12,228.24,72.45,226.68,72.45,226.68Z"/><path class="cls-2" d="M65,234.68s1-.07,2.42-.07c.71,0,1.53,0,2.4,0,.43,0,.88,0,1.33,0l1.37.05h1.37c.44,0,.9.08,1.32,0s.84,0,1.23,0,.79,0,1.13,0a16.42,16.42,0,0,1,2.4-.06,13.61,13.61,0,0,1-2.17,1.17,6.59,6.59,0,0,1-1.14.35c-.42.1-.85.21-1.31.29a20.54,20.54,0,0,1-2.88.21,25.15,25.15,0,0,1-2.84-.32,15.67,15.67,0,0,1-2.41-.66A9.33,9.33,0,0,1,65,234.68Z"/><path class="cls-2" d="M63.29,244.33s1.2,0,2.93,0c.86,0,1.87,0,2.92.1s2.2.09,3.32.05h1.68a14.68,14.68,0,0,0,1.63,0c1-.08,2.06,0,2.91-.08a22.63,22.63,0,0,1,2.92-.1,21.32,21.32,0,0,1-2.71,1.21,16.66,16.66,0,0,1-3,.7,8,8,0,0,1-1.71.2l-1.77.06a27.48,27.48,0,0,1-3.47-.3,22.48,22.48,0,0,1-3-.71A12.65,12.65,0,0,1,63.29,244.33Z"/><path class="cls-3" d="M73.39,0C55.89,0,29.83,6.54,17.14,20.23,1.57,37,1.2,61.63,1.2,61.63S-1.2,83.55,9.62,109.4H25.88v-1.73a78,78,0,0,0,47.51,15.59c39.49,0,71.5-27.6,71.5-61.63S112.88,0,73.39,0Z"/><path class="cls-4" d="M120.37,108.07C133.17,98.44,142,85,144.26,69.7,124.75,71.46,116.07,90.55,120.37,108.07Z"/><path class="cls-5" d="M19.88,105.19S13.16,95.52,4.23,101c-10.6,6.51-.64,37.26,22.74,35.81Z"/><path class="cls-5" d="M121.06,105.19s6.71-9.67,15.65-4.19c10.59,6.51.64,37.26-22.75,35.81Z"/><path class="cls-1" d="M13.42,65.76v38.7a56.49,56.49,0,0,0,50.13,56.12,4.7,4.7,0,0,0,.72,2.78c1.64,2.35,13.29,2.23,15.15,0a4.42,4.42,0,0,0,.81-3.17,56.5,56.5,0,0,0,47.29-55.73V65.76Z"/><path class="cls-3" d="M46.14,114.43h0a1.31,1.31,0,0,1-1.29-1.33,8.92,8.92,0,0,0-1-3.87c-1.31-2.44-3.71-3.7-7.13-3.75a7.92,7.92,0,0,0-5.93,2,8.62,8.62,0,0,0-2.22,5.6,1.31,1.31,0,0,1-2.61,0,11.25,11.25,0,0,1,3-7.48,10.39,10.39,0,0,1,7.8-2.79,10.7,10.7,0,0,1,7.86,3,11,11,0,0,1,2.87,7.28A1.3,1.3,0,0,1,46.14,114.43Z"/><path class="cls-3" d="M94.8,114.43a1.31,1.31,0,0,1-1.31-1.28,11.14,11.14,0,0,1,2.87-7.28,10.72,10.72,0,0,1,7.86-3,10.43,10.43,0,0,1,7.81,2.79,11.31,11.31,0,0,1,3,7.48,1.31,1.31,0,1,1-2.61,0,8.74,8.74,0,0,0-2.24-5.61,7.94,7.94,0,0,0-5.91-2,8.22,8.22,0,0,0-6,2.21,8.44,8.44,0,0,0-2.14,5.41,1.3,1.3,0,0,1-1.28,1.33Z"/><path class="cls-2" d="M83.39,137.06S80.7,128.45,72,127.9s-12.33,10.54-12.33,10.54S65.15,130.21,72,131,83.39,137.06,83.39,137.06Z"/><path class="cls-2" d="M44,144l2.36.51,2.71.54,3.52.63c1.28.26,2.7.41,4.18.64s3.05.33,4.67.54,3.29.27,5,.39c.85,0,1.71.13,2.57.14l2.59,0H74.2l2.57-.18c1.73-.12,3.42-.2,5-.43s3.17-.34,4.65-.59,2.87-.44,4.15-.72c2.56-.5,4.7-1,6.17-1.4s2.32-.65,2.32-.65l-.56.28c-.38.17-.91.47-1.63.74s-1.58.65-2.6,1a33.32,33.32,0,0,1-3.44,1.11c-1.27.38-2.66.73-4.14,1.05a42.48,42.48,0,0,1-4.72.91c-1.65.28-3.34.49-5.06.61l-2.62.22-2.67,0H69c-.89,0-1.76-.12-2.63-.18-1.74-.13-3.45-.28-5.09-.56s-3.23-.49-4.7-.85-2.89-.61-4.16-1A62,62,0,0,1,44,144Z"/><path class="cls-2" d="M65.55,152.3s.83,0,2,0c.57,0,1.2,0,1.89,0s1.41,0,2.13,0,1.46,0,2.15,0,1.34,0,1.91,0a11.27,11.27,0,0,1,2,.13,10.26,10.26,0,0,1-1.74,1,7.5,7.5,0,0,1-1.94.62,9.61,9.61,0,0,1-2.31.29,10,10,0,0,1-2.34-.21,8.73,8.73,0,0,1-2-.59,6.59,6.59,0,0,1-1.28-.74A3.23,3.23,0,0,1,65.55,152.3Z"/><path class="cls-3" d="M74.43,44,11.72,45.85V88.07s4.5-23.59,24.41-21.73c18.69,1.74,19.79,8.37,29,19,8.14,7.52,20.9,12.37,35.26,12.37,24.57,0,44.33-14.41,44.33-31.91S74.43,44,74.43,44Z"/><path class="cls-6" d="M25.89,57.65c-8.26,2.2-9.9,12.12-9.77,19.41,3.22-5.25,10.68-11.59,20-10.72,7.45.69,12.08,2.17,15.57,4.36C44.88,62.68,35.79,55,25.89,57.65Z"/></g></g></svg>