<svg xmlns="http://www.w3.org/2000/svg" viewBox="0 0 159.48 260.02"><defs><style>.cls-1{fill:#f9dab4;}.cls-2{fill:#f7cea6;}.cls-3{fill:#61b1b5;}.cls-4{fill:#4798a0;}.cls-5{fill:#479694;}.cls-6{fill:#338282;}.cls-7{fill:#3f9e9e;}.cls-8{fill:#ffbc36;}.cls-9{fill:#edb151;}.cls-10{opacity:0.52;}.cls-11{fill:#d69a45;}.cls-12{fill:#6b4627;}.cls-13{fill:#4c3626;}.cls-14{fill:#f9f5ed;}.cls-15{fill:#e5be9e;}.cls-16{fill:#6dbdc6;}.cls-17{fill:#5faeb2;}.cls-18{fill:#4a9e9e;}.cls-19{fill:#307d89;}.cls-20{fill:#84cece;}.cls-21{fill:#3d929b;}</style></defs><title>资源 221</title><g id="图层_2" data-name="图层 2"><g id="Layer_1" data-name="Layer 1"><path class="cls-1" d="M47.46,201.34l-11.07-9.49c-9.85,11.69-18.86,21.7-22.29,31.45-5.08-2.61-5.49,5.49.14,5.9,0,2.75,4.94,10.16,10.7,19.22a136.69,136.69,0,0,0,8.63,11.35H56.4c-8-10.37-20.53-26.5-22-28-2.27-2.26-5.7-5.69-3.5-7.89S47.46,201.34,47.46,201.34Z"/><path class="cls-2" d="M40.1,211.6h0c3.83-5.29,7.36-10.26,7.36-10.26l-11.07-9.49c-9.85,11.69-18.86,21.7-22.29,31.45-3.36-1.73-4.68,1.23-3.55,3.55-.6-1.85,1.09-4.09,2.11-3.07,1.3,1.3,3.36.89,3.36-1s4.42-11.22,11.53-15.44S40.1,211.6,40.1,211.6Z"/><path class="cls-2" d="M34.35,231.74c-1.8-1.8-4.33-4.33-4.2-6.4-.09,1-.07,4.74,4.13,8.94,4.94,4.95,12.63,17.85,15.24,25.4l0,.09H56.4C48.39,249.4,35.87,233.27,34.35,231.74Z"/><path class="cls-3" d="M52.4,170.62s-13.93,5-23.55,16.23A262.13,262.13,0,0,0,55.29,209S70.46,163.62,52.4,170.62Z"/><path class="cls-4" d="M55.29,209s15.17-45.33-2.89-38.33a65.38,65.38,0,0,0-19.54,12.1c.09-.06,9.5-5.89,13.38-2.55s4.39,15.31-.74,21.27C51.38,206.19,55.29,209,55.29,209Z"/><path class="cls-5" d="M23.38,189.41c1.15-1.06,2.3-2.12,3.43-3.2s2.05-2.79,4-2.82c1.66,0,2.85,1.38,4,2.38a62.88,62.88,0,0,1,7.81,7.41c2.9,3.55,14.16,13.23,14.16,13.23s-.41,5.51-5.21,7.62S40.45,207.74,38,205.65,20.2,192.37,23.38,189.41Z"/><path class="cls-6" d="M56.77,206.41s-11.26-9.68-14.16-13.23a62.88,62.88,0,0,0-7.81-7.41c-1.15-1-2.34-2.4-4-2.38-1.94,0-2.76,1.66-4,2.82l-.38.36h0s6.73-.94,12,8.27S44.13,214,50,214.36a4,4,0,0,0,1.54-.33C56.36,211.92,56.77,206.41,56.77,206.41Z"/><path class="cls-1" d="M150.48,223.3c-3.43-9.75-12.44-19.76-22.29-31.45l-11.07,9.49s14.42,20.31,16.61,22.51-1.23,5.63-3.5,7.89c-1.52,1.53-14,17.66-22,28H131a136.69,136.69,0,0,0,8.63-11.35c5.76-9.06,10.7-16.47,10.7-19.22C156,228.79,155.56,220.69,150.48,223.3Z"/><path class="cls-2" d="M124.48,211.6h0c-3.83-5.29-7.36-10.26-7.36-10.26l11.07-9.49c9.85,11.69,18.86,21.7,22.29,31.45,3.36-1.73,4.68,1.23,3.56,3.55.59-1.85-1.1-4.09-2.12-3.07-1.3,1.3-3.36.89-3.36-1S144.14,211.6,137,207.38,124.48,211.6,124.48,211.6Z"/><path class="cls-2" d="M130.23,231.74c-1.52,1.53-14,17.66-22,28H115l0-.09c2.61-7.55,10.3-20.45,15.24-25.4,4.2-4.2,4.22-7.92,4.13-8.94C134.56,227.41,132,229.94,130.23,231.74Z"/><path class="cls-3" d="M112.18,170.62s13.93,5,23.56,16.23A262.82,262.82,0,0,1,109.29,209S94.12,163.62,112.18,170.62Z"/><path class="cls-4" d="M109.29,209s-15.17-45.33,2.89-38.33a65.38,65.38,0,0,1,19.54,12.1c-.09-.06-9.5-5.89-13.38-2.55s-4.39,15.31.74,21.27C113.2,206.19,109.29,209,109.29,209Z"/><path class="cls-5" d="M141.2,189.41c-1.15-1.06-2.29-2.12-3.43-3.2s-2.05-2.79-4-2.82c-1.66,0-2.85,1.38-4,2.38a63.59,63.59,0,0,0-7.81,7.41c-2.9,3.55-14.16,13.23-14.16,13.23s.41,5.51,5.21,7.62,11.11-6.29,13.54-8.38S144.38,192.37,141.2,189.41Z"/><path class="cls-6" d="M107.81,206.41s11.26-9.68,14.16-13.23a63.59,63.59,0,0,1,7.81-7.41c1.15-1,2.34-2.4,4-2.38,1.94,0,2.76,1.66,4,2.82l.38.36h0s-6.73-.94-12,8.27-5.74,19.17-11.63,19.52A4,4,0,0,1,113,214C108.22,211.92,107.81,206.41,107.81,206.41Z"/><path class="cls-7" d="M24.12,123.7s9.06,42.13,32.12,47.43h55.19s26.69-20.7,21.69-48.18C82.6,123,24.12,123.7,24.12,123.7Z"/><rect class="cls-1" x="61.87" y="148.89" width="40.5" height="18.12"/><path class="cls-8" d="M104.26,161.05c-11.89,7.75-22.1,12.83-44.86-1.45,0,0-7.13,11.84-7.13,33.34h59.9S111.36,168.15,104.26,161.05Z"/><path class="cls-9" d="M61.87,155.84A17,17,0,0,0,74.3,164.5c8.75,1.13,26.29-1.46,28.07-7,0,0,1.76,1.45,1.92,1.65a4.34,4.34,0,0,1,.9,2,5.56,5.56,0,0,1-.81,4.24c-1.53,2.12-4.57,3.7-7,4.57a45.54,45.54,0,0,1-13.24,2.38,32.85,32.85,0,0,1-4,0,51.58,51.58,0,0,1-9.57-1.61c-5.21-1.4-15.78-5.72-11.08-12.93C59.66,157.61,60.93,155.76,61.87,155.84Z"/><g class="cls-10"><path class="cls-11" d="M71.52,165.94c10.6,2.16,20.76,1.21,25.26-1s8.58-4.21,5.59-7.46c-1.78,5.55-19.32,8.14-28.07,7a17,17,0,0,1-12.43-8.66S60.91,163.78,71.52,165.94Z"/></g><path class="cls-1" d="M24.47,60.08v61.37c0,8.23,9.74,39.12,57.6,43.55,25,2.17,53.48-24.69,53.48-41.83V59.74S86.87,16.88,24.47,60.08Z"/><path class="cls-12" d="M76,85.11C57.72,63.85,31.89,59.74,31.89,59.74s1.15,29,2.29,46.4-3.43,10.94-7.31,2.71C18,90.34,6.29,99.51,6.29,99.51s-.91-22.4,6.63-35.66,48-37,73.37-32.91,48,14.4,57.61,28.8,6.17,42.05,6.17,42.05l-16.22,3.55c-5.15,18.94-11.22,13.25-10.75,8.11.8-8.91.68-19.43,2.28-31.31s2.4-25.26,2.4-25.26-18.27,7.37-29.37,20C85.15,92,80.7,90,76,85.11Z"/><path class="cls-13" d="M57,103.36c1.46.12-1.5,2-1.75,2.17-1.49,1.23-3.23,2.38-4.68,3.67-.63.56-2.71,3.12-1.19,3.8,1.23.55,2.83-1.26,3.56-2,1.24-1.25,2.21-2.22,3.82-3.58,2-1.73,5.49-5.49,3.77-5.93s-5.95-1-14.17-2.15c-1.66.8-2.61,2.47-1.73,4.21C48.66,103.49,53,103,57,103.36Z"/><path class="cls-13" d="M114.32,105.65a8.26,8.26,0,1,1-8.25-8.25A8.25,8.25,0,0,1,114.32,105.65Z"/><path class="cls-14" d="M111.48,101.41c-.2,1.26-2.15,2-4.34,1.63s-3.81-1.67-3.6-2.93,2.15-2,4.34-1.63S111.69,100.15,111.48,101.41Z"/><path class="cls-13" d="M40.07,90.77S61.49,92,63.38,92s.51-3.26-.69-6.69c-.6-1.54-4.62-.51-7.2-.51s-9.25-.13-12.34-1-3,1.15-3.35,3C39.47,89.05,39,90.71,40.07,90.77Z"/><path class="cls-13" d="M117,90.32s-17.33,1.2-18.86,1.2-.41-3.26.56-6.69c.48-1.54,3.74-.51,5.82-.51s7.49-.13,10-1,2.41,1.15,2.71,3C117.52,88.6,117.88,90.26,117,90.32Z"/><path class="cls-15" d="M67.54,124.82h0A51.45,51.45,0,0,1,73,121.52a35.1,35.1,0,0,1,4.68-2.06,14.25,14.25,0,0,1,4.53-.9,5.39,5.39,0,0,1,2.17.4c2.85,1.25,5.71,2.56,7.85,3.56l2.58,1.22.72.34.26.13a.78.78,0,0,0,.67-1.4s-5.72-2.74-11.45-5.26a7,7,0,0,0-2.8-.54,16.32,16.32,0,0,0-5.2,1,42.83,42.83,0,0,0-7.14,3.44c-1.93,1.15-3.21,2.06-3.22,2.07a.77.77,0,0,0,.89,1.25Z"/><path class="cls-14" d="M73.67,135.68s20.2,1.26,36.68-8.06c-4.28,22.38-20,27.43-35.57,25.72C75.38,144.42,74.67,139,73.67,135.68Z"/><path class="cls-15" d="M75.43,145.07a.51.51,0,0,1,.5-.53h0s2.61-.06,6.14-.49h0a49.48,49.48,0,0,0,11.64-2.64h0a.5.5,0,0,1,.66.29h0a.5.5,0,0,1-.29.66h0c-7.56,3-18.1,3.2-18.12,3.21h0a.51.51,0,0,1-.51-.5Z"/><path class="cls-15" d="M98.26,140.34a.51.51,0,0,1,.37-.63h0l.19-.06h0l.55-.19h0a13.49,13.49,0,0,0,1.84-.87h0a10.45,10.45,0,0,0,4.16-4.15h0a.52.52,0,0,1,.7-.22h0a.51.51,0,0,1,.22.69h0a12.65,12.65,0,0,1-7.4,5.79h0l-.13,0h0a.51.51,0,0,1-.5-.38Z"/><path class="cls-15" d="M94.63,139.62l-.81-2.74a.52.52,0,0,1,.35-.64h0a.51.51,0,0,1,.64.35h0l.8,2.74a.51.51,0,0,1-.34.64h0l-.15,0h0a.51.51,0,0,1-.49-.37Z"/><path class="cls-15" d="M96.94,147.25l-.81-2.74a.52.52,0,0,1,.35-.64h0a.52.52,0,0,1,.64.35h0l.8,2.74a.51.51,0,0,1-.35.64h0a.32.32,0,0,1-.14,0h0a.5.5,0,0,1-.49-.37Z"/><path class="cls-15" d="M113.67,127.37a11.8,11.8,0,0,0-1.14-3.47h0a1.24,1.24,0,0,0-.32-.38h0a16.71,16.71,0,0,0-2,1.42h0c-.78.6-1.42,1.13-1.42,1.13h0A.51.51,0,0,1,108,126h0a.52.52,0,0,1,.07-.73h0s.66-.55,1.45-1.15h0a15.63,15.63,0,0,1,2.26-1.55h0a1,1,0,0,1,.41-.09h0a1.38,1.38,0,0,1,1.07.67h0a5.45,5.45,0,0,1,.63,1.23h0a15.52,15.52,0,0,1,.78,2.8h0a.5.5,0,0,1-.41.59h-.09a.51.51,0,0,1-.51-.42Zm-1.48-3.85Z"/><path class="cls-15" d="M74.65,154a.69.69,0,0,1-.55-.78h0a27.11,27.11,0,0,0,.31-4.36h0A66.13,66.13,0,0,0,73.7,140h0c-.3-2.13-.6-3.68-.68-4.09h0c-.61-.09-1.22-.2-1.83-.32h0a.69.69,0,0,1-.54-.81h0a.68.68,0,0,1,.81-.53h0a39.44,39.44,0,0,0,7.75.73h0c13.64,0,27.05-6.12,30.15-7.65h0L110,127h0a.69.69,0,0,1,.72,0h0a.68.68,0,0,1,.28.67h0c-1.94,11.23-7.07,18-13,21.86h0a32.22,32.22,0,0,1-17.6,4.9h0a32.4,32.4,0,0,1-5.8-.49Zm5.8-.88a31,31,0,0,0,16.85-4.67h0c5.36-3.53,10.06-9.5,12.12-19.62h0c-4,1.9-16.86,7.52-30.21,7.53h0a42.05,42.05,0,0,1-4.76-.26h0a75.23,75.23,0,0,1,1.33,12.76h0a30.63,30.63,0,0,1-.23,3.9h0a32.63,32.63,0,0,0,4.9.36Z"/><path class="cls-16" d="M10.07,101.31S13.4,54.25,77.15,54.25c51,0,66.52,18.74,71.77,49.37l2.52,2.52s8-9.83,6.63-29.72-7.32-40.23-37.49-62.63S56.35.08,38.52,13.11s-37,30.17-37,60.11C1.49,92,7,102.94,7,102.94Z"/><path class="cls-17" d="M31.32,66.53c-5.6-3.5-18.17,6-22.06,13.32S1.9,82,6.52,65.91s-2.86-9.25-2.87-9.24A62.41,62.41,0,0,0,1.49,73.22C1.49,92,7,102.94,7,102.94l3.09-1.63A50.49,50.49,0,0,1,31.32,66.53Z"/><path class="cls-17" d="M158.07,76.42c0-.47-.07-.94-.11-1.42v0c.36,3.68-2.18,12.15-3.32,8s-1.37-7.31-3.43-.46-12.16-5.75-12.16-5.75h0c5.12,7.38,8.09,16.4,9.87,26.78l2.52,2.52S159.44,96.31,158.07,76.42Z"/><path class="cls-17" d="M102.3,53.57c-9.38-1.61-9.83-3-28.58-3s-20,6.17-20,6.17h0a101.51,101.51,0,0,1,23.4-2.52c25.95,0,42.71,4.86,53.61,13.67C125,58.27,111.67,55.17,102.3,53.57Z"/><path class="cls-17" d="M49.32,23.18S87.1,11.47,111.16,26c8.83,5.34,6.69.7,1.76-4.78s-3.53-5.06,1.52-2.81S116,10.25,94.5,6.59,44.21,11.89,31.91,22.9,31.15,28,36.7,25.15s3.41-.43,1.52,1.68S38.47,31.05,49.32,23.18Z"/><path class="cls-18" d="M54.7,18.52s28.75-6.69,47.06,1.61c6.72,3.05,5.09.4,1.34-2.73s-2.69-2.89,1.16-1.61,1.15-4.65-15.18-6.74-38.27,3-47.63,9.31-.58,2.89,3.65,1.29,2.59-.24,1.15,1S46.44,23,54.7,18.52Z"/><path class="cls-1" d="M133.49,106.68s3.28-15.39,15.88-11.56,11.5,18.82,7,25.68S136.5,137.5,132.57,124C132.72,115.53,133.49,106.68,133.49,106.68Z"/><path class="cls-2" d="M149.37,95.12c-12.6-3.83-15.88,11.56-15.88,11.56l0,.29s5.53-12.84,16.91-9.81,6.2,23.2,1,26.16-13.46,8-18.81.71c3.93,13.47,19.28,3.63,23.79-3.23S162,99,149.37,95.12Z"/><path class="cls-15" d="M139.24,111.82a14.68,14.68,0,0,1,1.58-5.78,1.28,1.28,0,0,1,.11-.2,8,8,0,0,1,3.91-3.59,5.85,5.85,0,0,1,2-.48,1.1,1.1,0,0,1,1.06,1,1,1,0,0,1-.89,1.07H147a4.54,4.54,0,0,0-1.33.35,5.89,5.89,0,0,0-2.2,1.61,12.16,12.16,0,0,1,2.05.77,11.49,11.49,0,0,1,5.83,6.07c.09.2.17.42.25.65a1,1,0,0,1-.51,1.27l-.06,0a1,1,0,0,1-1.25-.71,5.38,5.38,0,0,0-.2-.51,9.23,9.23,0,0,0-4.73-4.89,11.71,11.71,0,0,0-2.23-.79l-.31-.06a13.59,13.59,0,0,0-1.11,4.51.91.91,0,0,1-.56.8.82.82,0,0,1-.49.06A1.15,1.15,0,0,1,139.24,111.82Z"/><path class="cls-1" d="M26,107.33S22.71,91.94,10.11,95.77s-11.5,18.82-7,25.68,19.86,16.7,23.79,3.24C26.76,116.18,26,107.33,26,107.33Z"/><path class="cls-2" d="M10.11,95.77C22.71,91.94,26,107.33,26,107.33s0,.1,0,.29c0,0-5.53-12.84-16.91-9.8S2.91,121,8.1,124s13.46,8,18.81.72C23,138.15,7.63,128.31,3.12,121.45S-2.49,99.6,10.11,95.77Z"/><path class="cls-15" d="M20.24,112.47a14.68,14.68,0,0,0-1.58-5.78,1.28,1.28,0,0,0-.11-.2,8.06,8.06,0,0,0-3.91-3.59,5.85,5.85,0,0,0-2-.48,1.1,1.1,0,0,0-1,1,.93.93,0,0,0,.88,1.06h.06a4.9,4.9,0,0,1,1.33.35,5.89,5.89,0,0,1,2.2,1.61,13.48,13.48,0,0,0-2.05.77,11.49,11.49,0,0,0-5.83,6.07c-.09.21-.17.42-.25.65a1,1,0,0,0,.51,1.28l.06,0a1,1,0,0,0,1.25-.71c.06-.17.13-.34.2-.51a9.26,9.26,0,0,1,4.73-4.89,10.92,10.92,0,0,1,2.23-.78l.32-.07a13.86,13.86,0,0,1,1.1,4.51.94.94,0,0,0,.56.81.93.93,0,0,0,.5.05A1.15,1.15,0,0,0,20.24,112.47Z"/><path class="cls-3" d="M53.7,170.1a62,62,0,0,0,13.9,4.48c6.7,1.08,11.22,4.91,12.2,8.19,0,0,2.18-5.1,11.45-7.65s16-4.73,19-6.11c7.82,42.88,8.65,86.86,8.65,86.86s-38.44,9.32-71.39,0C45.54,219.76,53.7,170.1,53.7,170.1Z"/><path class="cls-19" d="M80.61,260c-.42,0-1.63-17.44-1.31-39,0-21.53.16-39,.63-39s1,17.45,1,39C80.66,242.55,81.12,260,80.61,260Z"/><path class="cls-19" d="M80.79,181.7c1.93,1.29,3.83,2.65,5.69,4.05,1.32,1,2.62,2,3.85,3.12,3.37,3.07-1.66,7-4.67,4C82.51,189.73,77.18,179.18,80.79,181.7Z"/><path class="cls-19" d="M72.66,201.69c-.83,2.77-1.77,5.44-2.86,8.12-1.41,3.49-5.58.77-4-2.19S73.65,198.57,72.66,201.69Z"/><path class="cls-19" d="M72.86,201.2c0,.4-3.59.71-7.94.19s-7.79-1.45-7.71-1.84,3.58-.08,7.87.41S72.85,200.81,72.86,201.2Z"/><path class="cls-19" d="M116.71,221.52c-3.86.8-12.69,2.47-19.06,2.47-5.22,0-3.43,2.47-3,8.23s.21,15,1.23,16.07,6,2.05,9.07,1c2.68-.91,10.57.18,13.64-.92C118.29,242.22,117.74,232.76,116.71,221.52ZM67,224c-6.25,0-14.87-1.61-18.84-2.42-.66,9-1.06,18.29-.91,27.11,3.56.6,10.08-.18,12.48.63,3,1,8,0,9.06-1S69.56,238,70,232.22,72.17,224,67,224Z"/><path class="cls-19" d="M80,183.29s-2.3-5.58-16.58-7.87S31.81,164.5,22.06,148.13a91.28,91.28,0,0,1-15-26.28s12.35,14,39.81,6.35c0,0-12.36,14.47-5.49,26.91s15.92,15.74,28.28,19.3S80,183.29,80,183.29Z"/><path class="cls-19" d="M80,183.29s2.14-5.58,16.42-7.87,31.58-8,41.32-24.37c10.78-13.33,11.9-29.2,11.9-29.2s-6.16,11.07-33.61,3.45c0,0,9.22,17.37,2.36,29.81s-15.93,15.74-28.28,19.3S80,183.29,80,183.29Z"/><path class="cls-20" d="M119.84,254.23c-9.57-2.16-56.42-1.44-71-.36-1.89,0-3.76,3.21-3,5.9h75.47A4.68,4.68,0,0,0,119.84,254.23Z"/><path class="cls-21" d="M58.13,253.39c-1.87.07-3.61.15-5.17.23a9.84,9.84,0,0,0-1.13,6.15H57C56.38,257.86,56.08,255.23,58.13,253.39Z"/><path class="cls-21" d="M49.76,253.8l-.89.07c-1.89,0-3.76,3.21-3,5.9H48C47.71,257.85,47.79,255.09,49.76,253.8Z"/><path class="cls-21" d="M119.84,254.23a34.06,34.06,0,0,0-4.19-.59,10.38,10.38,0,0,1,.72,6.13h5A4.68,4.68,0,0,0,119.84,254.23Z"/><path class="cls-21" d="M85.75,252.84c-2.76,0-5.54,0-8.28.07a25.12,25.12,0,0,0-.76,6.86h8.45A12.75,12.75,0,0,1,85.75,252.84Z"/><path class="cls-21" d="M99.56,259.77a13.63,13.63,0,0,0-.85-6.53c-.21-.13-.41-.24-.61-.34-1.93,0-3.92-.05-5.95-.06a2,2,0,0,0-.22.16,17.19,17.19,0,0,1,.34,6.77Z"/><path class="cls-21" d="M71.39,253c-2.92.06-5.73.13-8.38.21a11.77,11.77,0,0,0-.75,6.55h8.19A8.5,8.5,0,0,1,71.39,253Z"/><path class="cls-21" d="M110.73,259.77a13.64,13.64,0,0,0-.86-6.53c-2.07-.1-4.35-.18-6.77-.24a17.08,17.08,0,0,1,.33,6.77Z"/></g></g></svg>