<svg xmlns="http://www.w3.org/2000/svg" viewBox="0 0 173.58 259.57"><defs><style>.cls-1{fill:#6b4627;}.cls-2{fill:#f2d0af;}.cls-3{fill:#ad3936;}.cls-4{fill:#393c3d;}.cls-5{fill:#6d6d6d;}.cls-6{fill:#ddb58e;}.cls-7{fill:#4c3626;}.cls-8{fill:#f4d3b0;}.cls-9{fill:#3a332d;}.cls-10{fill:#c65044;}</style></defs><title>资源 254</title><g id="图层_2" data-name="图层 2"><g id="Layer_1" data-name="Layer 1"><path class="cls-1" d="M33.76,127.92s-18.19-3.29-29.3-29S-3.12-3.42,88.06.12,178,82,170.4,106.45s-34.1,70.46-7.33,75.52c0,0,3,2.27-.5,6.81l4.54-1.76s3.29,27.27-14.9,31.82-47.73-27.53-23-65.67Z"/><path class="cls-2" d="M129.58,245c2.54-38.84-14.47-86.89-14.47-86.89l-6.5,2.44s13.53,84.38,13.65,88.28c.06,2.08-.29,6.37-.66,10.72h17.86A21.19,21.19,0,0,0,129.58,245Z"/><path class="cls-2" d="M44.45,245c-2.54-38.84,14.47-86.89,14.47-86.89l6.51,2.44S51.89,245,51.78,248.85c-.06,2.08.29,6.37.66,10.72H34.57A21.22,21.22,0,0,1,44.45,245Z"/><path class="cls-3" d="M52.44,259.57h69.15c-.47-16.37-.73-27.6-.73-27.6L87,233.48,53.17,232S52.92,243.2,52.44,259.57Z"/><path class="cls-4" d="M111.32,158.08H62.71S51.18,205,52.19,233.49c0,0,7.15,3.2,34.29,3.28h1.07c27.14-.08,34.29-3.28,34.29-3.28C122.85,205,111.32,158.08,111.32,158.08Z"/><path class="cls-5" d="M85.75,201.16c-4.68,0-10.44-26.68-13.45-42.58l2-.38c3.6,19,9,40.06,11.53,41,2.44-.81,9.18-22.08,14-41.32l2,.49C98.53,171.2,90.57,201.16,85.75,201.16Z"/><polygon class="cls-5" points="86 198.75 89.93 206.7 98.71 207.98 92.36 214.17 93.86 222.91 86 218.79 78.15 222.91 79.65 214.17 73.3 207.98 82.08 206.7 86 198.75"/><path class="cls-6" d="M98.7,161.16c0,6.89-5.23,12.47-11.68,12.47s-11.69-5.58-11.69-12.47S80.56,148.69,87,148.69,98.7,154.27,98.7,161.16Z"/><path class="cls-7" d="M33,96.53l-.87-1.61s-8.05-13.3-6.71-22.73c0,0-7.91,13.13,7.58,31.14Z"/><path class="cls-8" d="M35.34,105.63s-7.85-5.83-14-1.91c-7.71,4.92,2.06,36.67,10.7,36.67Z"/><path class="cls-2" d="M108.68,103.67c-12.38,4.8-22.77,8.84-50.52,4.55-13.48-2.09-21.44-7.41-26.13-13.3v45.47s15.86,25.82,54.59,25.82,52.72-22.44,54.58-25.82,0-42.63,0-42.63C132.14,94.4,118.89,99.71,108.68,103.67Z"/><path class="cls-7" d="M56.57,44.91A29,29,0,0,1,60.5,42.8a47.42,47.42,0,0,1,19.14-4.22,41.8,41.8,0,0,1,8.84.77A50.18,50.18,0,0,1,97.6,42c1.48.67,3,1.25,4.44,2.05l2.18,1.15,2.1,1.29a65.12,65.12,0,0,1,7.78,5.93,80.79,80.79,0,0,1,6.65,6.71c1.06,1.11,2,2.31,2.88,3.46s1.8,2.29,2.57,3.46l2.33,3.34,2,3.23c1.34,2,2.33,4,3.28,5.78s1.7,3.28,2.3,4.56L138,87l-2.23-3.84c-.68-1.24-1.53-2.73-2.61-4.38s-2.19-3.56-3.58-5.53c-.68-1-1.38-2-2.12-3.11s-1.6-2.11-2.43-3.2-1.72-2.2-2.68-3.29-1.83-2.28-2.89-3.34a79.07,79.07,0,0,0-6.59-6.46,63.43,63.43,0,0,0-7.63-5.64l-2-1.28-2.09-1.14c-1.37-.8-2.84-1.37-4.25-2a47.3,47.3,0,0,0-8.75-2.69,48.47,48.47,0,0,0-8.51-1,44.33,44.33,0,0,0-7.7.38,51.48,51.48,0,0,0-11.28,2.73A36.37,36.37,0,0,0,56.57,44.91Z"/><path class="cls-7" d="M127,54.67l.38,0c.24.07.6.17,1.07.35a12.78,12.78,0,0,1,1.52.86,8,8,0,0,1,1.75,1.44,10.28,10.28,0,0,1,1.8,2c.55.77,1.14,1.59,1.72,2.45s1,1.86,1.43,2.83.9,2,1.36,3c.63,2.09,1.28,4.17,1.8,6.14a17.35,17.35,0,0,1,.59,2.88c.15.92.27,1.79.37,2.6.23,1.61.33,3,.44,3.9s.11,1.48.11,1.48-.2-.51-.5-1.41-.74-2.18-1.18-3.72c-.23-.77-.47-1.61-.7-2.49a26.91,26.91,0,0,0-.84-2.76c-.68-1.87-1.33-3.89-2-5.91-.42-1-.83-1.93-1.24-2.88s-.74-1.93-1.22-2.78-.95-1.67-1.39-2.46a11.84,11.84,0,0,0-1.42-2.08,11.3,11.3,0,0,0-1.37-1.64,13.52,13.52,0,0,0-1.23-1.1l-.91-.58Z"/><path class="cls-7" d="M141.3,59.73a6.45,6.45,0,0,1,.73.84,9.17,9.17,0,0,1,.72,1.08c.24.43.56.91.81,1.47s.51,1.18.76,1.84a13.56,13.56,0,0,1,.63,2.13,20.5,20.5,0,0,1,.52,2.31q.14,1.2.27,2.43a16.54,16.54,0,0,1,.11,2.43c0,.8-.08,1.59-.11,2.35s-.1,1.5-.18,2.19-.26,1.34-.4,1.93a37.5,37.5,0,0,1-1,3.91s-.15-1.64-.12-4c0-.59,0-1.24.05-1.91s-.07-1.39-.1-2.13-.07-1.5-.06-2.27a18.24,18.24,0,0,0-.17-2.32c-.07-.77-.13-1.55-.19-2.32s-.22-1.5-.32-2.22-.16-1.44-.35-2.08-.28-1.27-.4-1.85-.31-1.08-.42-1.55-.25-.87-.37-1.2A10.91,10.91,0,0,0,141.3,59.73Z"/><path class="cls-4" d="M149.76,89.63c-1.63-.77-11.7,7.48-14.57,9.88a6.38,6.38,0,1,0,5.68,9.31,6.42,6.42,0,0,0,.42-4.88C145.19,100.31,151.32,90.36,149.76,89.63Z"/><path class="cls-6" d="M93.23,132.85s-2.52-4.32-6.61-4.32S80,132.85,80,132.85,81.89,127,86.62,127,93.23,132.85,93.23,132.85Z"/><path class="cls-9" d="M124.43,121.5h0a1.12,1.12,0,0,1-1.11-1.12c0-.26-.06-6.41-5.09-6.58-5.21-.18-6.45,5-6.5,5.19a1.12,1.12,0,0,1-1.34.84,1.11,1.11,0,0,1-.84-1.33c.57-2.48,3.12-7.13,8.76-6.93s7.26,5.86,7.25,8.82A1.12,1.12,0,0,1,124.43,121.5Z"/><path class="cls-9" d="M126.34,121.45a8.3,8.3,0,0,1-2.22-.25,1.11,1.11,0,0,1,.61-2.14,10.65,10.65,0,0,0,5.68-.57,1.12,1.12,0,0,1,.73,2.11A14.73,14.73,0,0,1,126.34,121.45Z"/><path class="cls-9" d="M124.29,119.13h-.09a1.12,1.12,0,0,1,0-2.24h.07c2,0,4.85-1.93,5.77-2.69a1.12,1.12,0,0,1,1.42,1.73C131.32,116.06,127.56,119.13,124.29,119.13Z"/><path class="cls-9" d="M48.81,121.5h0a1.1,1.1,0,0,0,1.11-1.12c0-.26.06-6.41,5.1-6.58,5.21-.18,6.45,5,6.5,5.19a1.12,1.12,0,0,0,2.18-.49c-.57-2.48-3.12-7.13-8.76-6.93s-7.26,5.86-7.25,8.82A1.12,1.12,0,0,0,48.81,121.5Z"/><path class="cls-9" d="M46.9,121.45a8.3,8.3,0,0,0,2.22-.25,1.11,1.11,0,0,0-.61-2.14,10.65,10.65,0,0,1-5.68-.57,1.12,1.12,0,1,0-.73,2.11A14.73,14.73,0,0,0,46.9,121.45Z"/><path class="cls-9" d="M49,119.13H49a1.12,1.12,0,0,0,0-2.24H49c-2.05,0-4.86-1.93-5.77-2.69a1.12,1.12,0,0,0-1.42,1.73C41.91,116.06,45.68,119.13,49,119.13Z"/><path class="cls-10" d="M76.45,150.56S79,146.71,82,146.89a6.24,6.24,0,0,1,4.56,3s2.66-3,5.78-2.89,4.46,3.85,4.46,3.85-3.08,7.22-10.46,7.22S76.45,150.56,76.45,150.56Z"/><polygon class="cls-5" points="28.28 141.83 30.76 146.85 36.31 147.66 32.3 151.57 33.24 157.1 28.28 154.49 23.32 157.1 24.27 151.57 20.25 147.66 25.8 146.85 28.28 141.83"/><rect class="cls-5" x="21.7" y="136.52" width="13.17" height="1.7" transform="translate(-109.85 161.66) rotate(-88.34)"/><path class="cls-5" d="M31.38,132.49a3.1,3.1,0,1,1-3.1-3.1A3.1,3.1,0,0,1,31.38,132.49Z"/></g></g></svg>