<svg xmlns="http://www.w3.org/2000/svg" viewBox="0 0 199.81 260.42"><defs><style>.cls-1{fill:#ed7474;}.cls-2{fill:#e26969;}.cls-3{fill:#e0605c;}.cls-4{fill:#c64e4e;}.cls-5{fill:#f9dab4;}.cls-6{fill:#efc19c;}.cls-7{fill:#f7cea6;}.cls-8{fill:#2f3233;}.cls-9{fill:#aa3737;}.cls-10{fill:#912727;}.cls-11{fill:#efceab;}.cls-12{fill:#f9f5ed;}.cls-13{fill:#ad3936;}.cls-14{fill:#ce5959;}</style></defs><title>资源 137</title><g id="图层_2" data-name="图层 2"><g id="Layer_1" data-name="Layer 1"><path class="cls-1" d="M60,179.5s15.34-16.41,20-17.3,6.7-.42,6.7-.42h1v43.15Z"/><path class="cls-2" d="M84.62,188.73V161.66a27.55,27.55,0,0,0-4.65.54c-1.71.33-4.86,2.75-8.16,5.67,2,2.13,5.41,8,2.11,20.86Z"/><path class="cls-3" d="M35.76,187.56s2.17-13,18-13,26.06,10.8,26.06,20.91,1.55,15.39-9,19.73C64.69,217.69,37.58,194.76,35.76,187.56Z"/><path class="cls-4" d="M67.4,188.26c-5.82-11.06-21.66-9.87-26.77-9.17a16.09,16.09,0,0,0-3.18,4c-.27,3.31,1.18,7.84,4.29,12.76,6.63,7,17.21,15.42,23.95,18.37C71.78,210.5,73.49,199.83,67.4,188.26Z"/><path class="cls-5" d="M61.42,218.32c.88-1.32,1.72-2.66,2.5-4,2.62-4.59,5.65-11.93,4.51-17.26-.71-3.31-4.25-6.95-7.31-8.3-4.42-1.62-8.95-3.16-13.2-5.18-3.69-1.76-4.51-4.1-8.91-4.2-4-.1-8.49,2.07-10.23,5.42-4,7.75-14.15-1-18.76-.47-8.85,1.09-14.82,6.91-4.81,10.86s15.82.47,12.56,5.43c-2.53,3.85-8.3,13.73-8.3,22.8S31,251.19,45.53,236.65C51.93,230.26,57.37,224.34,61.42,218.32Z"/><path class="cls-6" d="M43.7,219.44c-.58.5-7,13.28-11.89,18.18-2.38,2.38-6.4.3-6.28-1.26s7.53-13.51,9.3-18.4S34,215.1,34,215.1s-8.42,15.69-10.65,18.34-8.16-1.09-7-3.83,10.12-16.34,11.43-19.23-2.85-1.89-2.92-.95a82,82,0,0,1-8.46,14.46c-3.86,5.44-5.91,1.79-6.88-1.4,0,.3,0,.6,0,.9,0,7.62,15.17,22,28.64,17.87-2.74,0-5-.4-4.24-1,1.25-1.08,8-10.4,10-15.27S44.28,218.93,43.7,219.44Z"/><path class="cls-6" d="M22.73,206.79s14.89,15.51,28.08,14.27c10.39,0,6.51-2.17,1.39-2.17S39.72,217.42,32,211.6,20.25,202,22.73,206.79Z"/><path class="cls-6" d="M10.49,216.26c2.58-5.62,6.39-13.08,8.52-15.2,3.57-3.57,4.5-6.67-.62-6.67s-9.09-1.71-11.63-4.25,2.52-5.72,2.54-5.73c-8.44,1.3-13.82,6.91-4.09,10.75,10,4,15.82.47,12.56,5.43A57.43,57.43,0,0,0,10.49,216.26Z"/><path class="cls-6" d="M63.29,215.34c.21-.34.43-.69.63-1.05,2.62-4.59,5.65-11.93,4.51-17.26-.71-3.31-4.25-6.95-7.31-8.3-4.42-1.62-8.95-3.16-13.2-5.18-3.69-1.76-4.51-4.1-8.91-4.2a11.42,11.42,0,0,0-3,.34,22.5,22.5,0,0,0,14.38,11.59C61.36,194.29,65.25,204.42,63.29,215.34Z"/><path class="cls-1" d="M141,156.69s15.61,4,26.31,25.42,20.52,31.67,10.7,31.67-24.08,7.13-24.08,7.13Z"/><path class="cls-2" d="M141,156.69l12.93,64.22s1.48-.74,3.8-1.74c-.56-3.72-2.28-9.77-3.8-19.22-2-12.7,3.3-22.47,7.27-27.74C151.51,159.4,141,156.69,141,156.69Z"/><path class="cls-1" d="M81.68,161.81c-4.19,5-4.82,16.14-6.53,35-2.07,23-4.15,47.25-6,63.59h93.76c-3.29-28.14-12.36-82.24-14.52-89.39-3.25-10.74-5.88-13.6-5.88-13.6l-50.39.9S84.91,158,81.68,161.81Z"/><path class="cls-4" d="M132.7,194.82c-2.93-3.83-3.9-9.42-4.22-14.07a54.06,54.06,0,0,1,.08-8.32.67.67,0,0,1,.74-.56.64.64,0,0,1,.61.68,53.82,53.82,0,0,0-.07,8.13c.28,4.51,1.31,9.89,3.91,13.37a4.89,4.89,0,0,1,2.11-.61,4.48,4.48,0,0,1,4.88,3.92,4.36,4.36,0,0,1-4.33,4.43,4.47,4.47,0,0,1-4.88-3.92A4,4,0,0,1,132.7,194.82Z"/><path class="cls-4" d="M101.32,191.75c-1.49-4.45-.53-10.05.72-14.56a57.93,57.93,0,0,1,2.88-7.9.72.72,0,0,1,.9-.33.6.6,0,0,1,.35.81,56.69,56.69,0,0,0-2.81,7.72c-1.25,4.38-2.08,9.79-.77,13.82a5.15,5.15,0,0,1,2.21,0,4.17,4.17,0,0,1,3.32,5.09,4.67,4.67,0,0,1-5.61,3,4.17,4.17,0,0,1-3.33-5.09A4.29,4.29,0,0,1,101.32,191.75Z"/><path class="cls-7" d="M93.05,149.74l23.29,37.32,33-38.42S117.85,134.92,93.05,149.74Z"/><path class="cls-3" d="M92.09,158.33l11.63-.21,12.9,23s10.88-11,15.12-17.56c1.66-2.58,2.81-4.69,4.21-6l6.53-.12a16.44,16.44,0,0,1,2.06,3.45c-8.26,4.16-20.86,20.87-25.43,25-5.22,4.73-5.27-1.74-14.79-14.34Z"/><path class="cls-4" d="M86.58,234.31c1.48,1.48-.24,9.87-.56,11.65a30.78,30.78,0,0,1-3.18,9.65c-1.11,1.95-3.59,5.26-6.14,4.2.47-2.66,3.06-4.64,4.35-6.92a22,22,0,0,0,2.86-8.08C84,243.89,85.23,233,86.58,234.31Z"/><path class="cls-4" d="M137.82,233.93c-1.48,1.48.25,9.87.57,11.65a30.69,30.69,0,0,0,3.18,9.65c1.1,1.94,3.58,5.25,6.14,4.19-.48-2.65-3.06-4.63-4.35-6.92a22,22,0,0,1-2.86-8.07C140.39,243.5,139.17,232.58,137.82,233.93Z"/><path class="cls-5" d="M177.11,207.09s7.58,11.59,11.15,23.19,5.8,16.5-4,19.17S146.79,257,146.79,257s-7.58-8.92-7.58-18.28l21.85-8.92-4.32-15.61S170,207.09,177.11,207.09Z"/><path class="cls-3" d="M152.88,213.63s16.5-9.81,27.5-10.85c3.12,0,4.74,8.28,3.24,10.65s-4.28,1-8.89,2.37-17.39,8.53-19.47,8.53S149.61,214.67,152.88,213.63Z"/><path class="cls-4" d="M183.62,213.43c1.5-2.37-.12-10.65-3.24-10.65l-.58.06c-3.83,3.55-16.45,14.53-27.65,16.82.77,2.44,2.11,4.67,3.11,4.67,2.08,0,14.87-7.13,19.47-8.53S182.13,215.8,183.62,213.43Z"/><path class="cls-8" d="M40.09,88.84s8.69,24.81,8.69,29.57,8.91,15.68,8.91,15.68h14V95.65Z"/><path class="cls-8" d="M171.7,125.89h11s13-35.9,4.56-64.29-26.08-48.31-72-50.38-70.4,36.9-75,58.78-2.61,26-2.61,26l6.52-5.91A72.38,72.38,0,0,0,41.91,107s7.66-11.09,9.78-13c-3.1,7,.65,13.31.65,13.31l6.71-9.05s-1.21,8.37.54,11.27c5.26-4.77,6-4.11,6-4.11Z"/><path class="cls-9" d="M36.58,64.73S148.13,28.19,175.29,83.06c0,0,15.06-28.19-5.12-58.94S47.15-21.52,36.58,64.73Z"/><path class="cls-9" d="M167.45,20.61S214.66,55.19,195,118c-16.94,54.2-64.76,46.38-58.67,38.66C161.15,112.58,167.45,20.61,167.45,20.61Z"/><path class="cls-10" d="M176,77.9s0-39.85-16.36-51.86c0,0-7.21-4.81-1.32,2s10,36.64,10,36.64Z"/><path class="cls-10" d="M37.14,60.76,47,54.07S67.73,4.05,111.5,0C79-.5,44.52,15,37.14,60.76Z"/><path class="cls-10" d="M194.55,58.53c-1.47,1.55,9.4,39.11-5,45.88s-17.28-18-17.28-18l-22.88,38.33c-3.63,11.83-7.93,22.85-13,31.86C130.28,164.33,178.1,172.15,195,118,202.57,93.87,200.25,74,194.55,58.53Z"/><path class="cls-5" d="M68.67,118s-6.21-6.53-13.27-8-9,9-5.08,17.08,11.3,21.12,18.35,14.83Z"/><path class="cls-7" d="M54.54,116c-2.78.7-2.26,4.37-1.91,6,.08.37.19.73.3,1.09,6.61-2.22,9.36,4.68,10.24,9.13.12-3.61,1.26-7.87-.77-11.2C61.11,118.93,57.72,115.19,54.54,116Z"/><path class="cls-5" d="M167.26,118s6.21-6.53,13.26-8,9,9,5.08,17.08-11.29,21.12-18.34,14.83Z"/><path class="cls-7" d="M181.38,116c2.78.7,2.27,4.37,1.91,6a10.34,10.34,0,0,1-.3,1.09c-6.6-2.22-9.35,4.68-10.24,9.13-.11-3.61-1.25-7.87.78-11.2C174.81,118.93,178.21,115.19,181.38,116Z"/><path class="cls-5" d="M63.87,86.06v41c0,8.6,13,39.94,54.2,39.94s53.63-18.43,53.63-35V77.1S140,78,117.85,78.76A301.92,301.92,0,0,0,63.87,86.06Z"/><polygon class="cls-8" points="99.22 102.37 100.22 107.14 72.87 111.5 74.51 105.13 99.22 102.37"/><polygon class="cls-8" points="133.71 102.37 132.72 107.14 160.06 111.5 158.43 105.13 133.71 102.37"/><path class="cls-11" d="M122.76,131.24a3.23,3.23,0,0,1,.67,1.94c0,2.29-2.59,4.15-5.78,4.15s-5.79-1.86-5.79-4.15a3.3,3.3,0,0,1,.67-1.94,4.31,4.31,0,0,0-1.81,3.35c0,2.75,3.1,5,6.93,5s6.93-2.22,6.93-5A4.29,4.29,0,0,0,122.76,131.24Z"/><path class="cls-8" d="M79.67,117.63l.21-.23a10.9,10.9,0,0,1,6.35-2.79c4.31-.64,10.59-.5,13.4,4.1,2.61,4.24-2.75,4.88-5.22,3.72-2.3-1.09-5.13-2.36-7.64-1.6-2,.6-4.35,3.37-6.55,2.29S78.25,119.27,79.67,117.63Z"/><path class="cls-12" d="M95.3,121c-.3-.57.26-1.36,1.25-1.76s2-.26,2.32.32-.27,1.36-1.25,1.76S95.59,121.62,95.3,121Z"/><path class="cls-8" d="M137.27,117.63a2.39,2.39,0,0,1,.22-.23,10.87,10.87,0,0,1,6.35-2.79c4.31-.64,10.59-.5,13.41,4.1,2.59,4.24-2.76,4.88-5.23,3.72-2.3-1.09-5.13-2.36-7.64-1.6-2,.6-4.35,3.37-6.55,2.29S135.86,119.27,137.27,117.63Z"/><path class="cls-12" d="M152.9,121c-.29-.57.27-1.36,1.26-1.76s2-.26,2.32.32-.27,1.36-1.26,1.76S153.2,121.62,152.9,121Z"/><path class="cls-3" d="M108.15,146.52l25.92-4s5,21.35-5.57,21.86-10-3.14-13.36-8.32A99.4,99.4,0,0,0,108.15,146.52Z"/><path class="cls-13" d="M135.21,150.76c-9.47-3.59-15.45,3.14-18.42,8.18,1.89,3.56,3.24,5.81,11.71,5.4C134.62,164,135.53,156.83,135.21,150.76Z"/><path class="cls-1" d="M37.49,74.25S127.06,32.74,172.18,92c7-16,3.21-29.68.48-32.65S150.72,37.58,96.77,39c-46.63,1.21-62,11.76-61,19.43S37.49,74.25,37.49,74.25Z"/><path class="cls-14" d="M43.7,48.44c-6,3.25-8.32,6.85-7.9,10,1,7.66,1.69,15.84,1.69,15.84s3.17-1.47,8.62-3.46Z"/><path class="cls-14" d="M57.37,67.08c4.24-1.24,9-2.49,14.17-3.57l-1.88-22.4A120.42,120.42,0,0,0,55.44,44Z"/><path class="cls-14" d="M84.24,61.34A143.85,143.85,0,0,1,98.6,60.17L96.83,39h-.06c-5.16.13-9.93.38-14.34.73Z"/><path class="cls-14" d="M112.57,60.56A99.44,99.44,0,0,1,127,62.86l0-22.34c-4.42-.62-9.21-1.09-14.41-1.36Z"/><path class="cls-14" d="M139,66.63a77.38,77.38,0,0,1,14,7.27l1.77-26a95.65,95.65,0,0,0-14.13-4.69Z"/><path class="cls-14" d="M165,53.23l-2,28.67A82.08,82.08,0,0,1,172.18,92c7-16,3.21-29.68.48-32.65A38.52,38.52,0,0,0,165,53.23Z"/></g></g></svg>