<svg xmlns="http://www.w3.org/2000/svg" viewBox="0 0 169.72 260.11"><defs><style>.cls-1{fill:#f9dab4;}.cls-2{fill:#2a6d7f;}.cls-3{fill:#2f3233;}.cls-4{fill:#76c4bb;}.cls-5{fill:#efc4a0;}.cls-6{fill:#f4d3b0;}.cls-7{fill:#3a332d;}</style></defs><title>资源 327</title><g id="图层_2" data-name="图层 2"><g id="Layer_1" data-name="Layer 1"><path class="cls-1" d="M39.26,180.9C32.4,190.77-1,237.13,0,246.57c.35,3.19,2.93,8.24,6.2,13.54H23.61c-5.23-7.63-10-15.66-8.79-17,1.92-2.15,38.65-58.38,38.65-58.38l1.94-8.63S46.13,171,39.26,180.9Z"/><path class="cls-2" d="M17.93,251.23c-4.37,2.06-8.4,4.88-12.54,7.51.27.46.55.91.83,1.37h17.4C21.53,257.06,19.52,254,17.93,251.23Z"/><path class="cls-3" d="M57.62,164.42s-18,2-33.22,33.09L51.58,210Z"/><path class="cls-2" d="M28.05,190.69c-1.23,2.11-2.45,4.36-3.65,6.82L51.58,210l.78-5.92Z"/><path class="cls-1" d="M130.45,180.9c6.87,9.87,40.28,56.23,39.24,65.67-.35,3.19-2.93,8.24-6.19,13.54H146.11c5.23-7.63,10-15.66,8.79-17-1.92-2.15-38.65-58.38-38.65-58.38l-1.94-8.63S123.59,171,130.45,180.9Z"/><path class="cls-2" d="M151.79,251.23c4.37,2.06,8.39,4.88,12.54,7.51-.27.46-.55.91-.83,1.37H146.1C148.19,257.06,150.2,254,151.79,251.23Z"/><path class="cls-3" d="M112.1,164.42s18,2,33.22,33.09L118.14,210Z"/><path class="cls-2" d="M141.67,190.69c1.23,2.11,2.44,4.36,3.65,6.82L118.14,210l-.79-5.92Z"/><path class="cls-4" d="M84.42,160.78l-21.72-1S51,165.05,49.36,180.46c-1,9.7-7,50.61-11.29,79.65h92.69c-4.28-29-10.24-70-11.28-79.65-1.66-15.41-13.34-20.67-13.34-20.67Z"/><polygon class="cls-3" points="64.09 155.82 61.95 204.01 84.42 194.9 64.09 155.82"/><polygon class="cls-3" points="104.75 155.82 106.89 204.01 84.42 194.9 104.75 155.82"/><polygon class="cls-5" points="60.14 161.37 84.42 194.9 108.69 161.37 60.14 161.37"/><path class="cls-3" d="M161.33,59.49c-2.85-24.89-59-57.6-73.59-59.38a49,49,0,0,0-6.64,0C66.52,1.89,10.35,34.6,7.5,59.49s12.3,62.92,12.3,62.92c26.18,9.93,53-3.64,64.62-10.88C96,118.77,122.85,132.34,149,122.41,149,122.41,164.18,84.37,161.33,59.49Z"/><path class="cls-6" d="M32.82,120.58s-7.21-11.08-15.71-6.44,1,30.66,15.71,31.68Z"/><path class="cls-6" d="M136,120.58s7.21-11.08,15.71-6.44-1,30.66-15.71,31.68Z"/><path class="cls-5" d="M136.53,133a20.66,20.66,0,0,1,1.2-5.08,17.37,17.37,0,0,1,2.49-4.69,8.5,8.5,0,0,1,2-1.92,4.17,4.17,0,0,1,2.89-.67,4.54,4.54,0,0,1,2.49,1.35,8,8,0,0,1,1.51,2.17c-1.26-1.15-2.67-2.3-4.12-2.32s-2.63,1.08-3.6,2.34a27.89,27.89,0,0,0-2.6,4.22Z"/><path class="cls-5" d="M145.07,130.08a12.72,12.72,0,0,0-2.38-2.75,1.9,1.9,0,0,0-2.57,0,11.75,11.75,0,0,0-2.32,2.59c-.72,1-1.4,2.05-2.19,3.08a13.36,13.36,0,0,1,1.15-3.7,8.63,8.63,0,0,1,2.45-3.22,3.48,3.48,0,0,1,2.25-.7,3.25,3.25,0,0,1,2,1.07A6.67,6.67,0,0,1,145.07,130.08Z"/><path class="cls-5" d="M32.3,133a20.21,20.21,0,0,0-1.2-5.08,17.34,17.34,0,0,0-2.48-4.69,8.37,8.37,0,0,0-2.05-1.92,4.16,4.16,0,0,0-2.89-.67A4.54,4.54,0,0,0,21.19,122a8.22,8.22,0,0,0-1.51,2.17c1.26-1.15,2.68-2.3,4.12-2.32s2.63,1.08,3.6,2.34A28.76,28.76,0,0,1,30,128.39Z"/><path class="cls-5" d="M23.77,130.08a13,13,0,0,1,2.37-2.75,1.92,1.92,0,0,1,2.58,0A12,12,0,0,1,31,129.91c.73,1,1.4,2.05,2.2,3.08a13.06,13.06,0,0,0-1.16-3.7,8.42,8.42,0,0,0-2.45-3.22,3.45,3.45,0,0,0-2.24-.7,3.25,3.25,0,0,0-2,1.07A6.53,6.53,0,0,0,23.77,130.08Z"/><path class="cls-1" d="M119.17,57.35c-4.93,0-28.67,21.95-34.66,22.38v0h-.18v0c-6-.43-29.73-22.38-34.66-22.38-3.17,0-13.37,8.33-20.38,14.4v74.17a75.15,75.15,0,0,0,54.48,24.35v0h1.3v0a75.17,75.17,0,0,0,54.48-24.35V71.75C132.53,65.68,122.33,57.35,119.17,57.35Z"/><path class="cls-3" d="M60.42,89.2C63,91,63.3,96,63.3,96H34.57a15.55,15.55,0,0,1,2.59-7.13C39.47,85.68,57.8,87.36,60.42,89.2Z"/><path class="cls-3" d="M106.85,89.2C104.22,91,104,96,104,96H132.7a15.55,15.55,0,0,0-2.59-7.13C127.8,85.68,109.47,87.36,106.85,89.2Z"/><path class="cls-7" d="M43,112.39a1.66,1.66,0,0,1-1.64-1.5,8.88,8.88,0,0,1,6.7-9.23c5.8-1.71,10.09,2.8,11.54,5.41a1.66,1.66,0,1,1-2.9,1.61c-.11-.2-3-5.22-7.7-3.84a5.57,5.57,0,0,0-4.35,5.74,1.64,1.64,0,0,1-1.49,1.8Z"/><path class="cls-7" d="M124.28,112.39h-.16a1.64,1.64,0,0,1-1.49-1.79,5.57,5.57,0,0,0-4.35-5.75c-4.69-1.38-7.58,3.64-7.71,3.85a1.66,1.66,0,0,1-2.89-1.62c1.45-2.61,5.74-7.11,11.54-5.41a8.88,8.88,0,0,1,6.7,9.23A1.64,1.64,0,0,1,124.28,112.39Z"/><path class="cls-5" d="M72.26,129.72a13,13,0,0,0,11.06,7.8c8.33.6,11.68-8.58,11.68-8.58s-5.1,6.76-11.71,6A20,20,0,0,1,72.26,129.72Z"/><path class="cls-5" d="M62.47,155.82a80.53,80.53,0,0,1,10.26-3.39,53.19,53.19,0,0,1,10.76-1.82,55.55,55.55,0,0,1,10.85,1.18,80.7,80.7,0,0,1,10.46,2.7c-3.59-.31-7.16-.67-10.7-1.06a97.44,97.44,0,0,0-10.55-.69,87.22,87.22,0,0,0-10.48,1.31C69.56,154.66,66,155.26,62.47,155.82Z"/></g></g></svg>