<svg xmlns="http://www.w3.org/2000/svg" viewBox="0 0 171.26 260.42"><defs><style>.cls-1{fill:#40896f;}.cls-2{fill:#4d9980;}.cls-3{fill:#0f5b6d;}.cls-4{fill:#126e89;}.cls-5{fill:#f9dab4;}.cls-6{fill:#f7cea6;}.cls-7{fill:#e8be9c;}.cls-8{fill:#54a3b5;}.cls-9{fill:#aae5e8;}.cls-10{fill:#35775d;}.cls-11{fill:#513f2b;}.cls-12{fill:#e5be9e;}.cls-13{fill:#f9f7f2;}.cls-14{fill:#393c3d;}.cls-15{fill:#f9f5ed;}</style></defs><title>资源 214</title><g id="图层_2" data-name="图层 2"><g id="Layer_1" data-name="Layer 1"><path class="cls-1" d="M23.32,181.86S8.5,182.5,8.5,170.58,11.73,139,18.49,139s13.65-2.91,32.22,0,60.25,1.94,77.49.49S157,135.78,157,143.84s16.76,37.69-10.95,37.69v68.08s5.15,7.32-31.9,7.32c-55.74,0-90.53,3.54-90.53-15.15S23.32,181.86,23.32,181.86Z"/><path class="cls-2" d="M44.75,144.72s-13-2.87-21.71-2.87-10.19,1.67-11.4,16.41,1.7,22.47,7.25,19.57,6.53-9.67,5.32-15.47-2.54-8.57-5.32-1.45c-.84,2.54.12,3.75,1.45,3.75s3.14,2.17-1,2.17-4-4.59-1.21-9.54,6.16-6.65,8.82.48,3.56,19-1.93,24.53c0,7.13-1.25,63,16.31,67.22s83.45,8.35,91.66,1.76c4.18-4.19,7.07-5.21,7.07-16.38s1.63-54.33,1.63-54.33a8.53,8.53,0,0,1-5.32-7.9c0-6,2.1-16.75,6.61-14.82s3.86,8.7,2.73,7.57-2.9-8-5-2.41-1.61,15,6,15,12.73-6.44,11.28-15-2.09-12.26-2.9-18-7.73-5.16-23.36-3.23S90.82,152.7,44.75,144.72Z"/><path class="cls-1" d="M51.07,148.13s-8.25-2.39-12.38-2.39,1.92,8.29,3.39,19.5.84,44.46,1.48,50.54c.84,8,.74,14.46,32.6,15.93s57.22,1.77,54.86-25.37-5-45.43-.3-54-1.18-6.78-17.69-3.83S59.31,151.57,51.07,148.13Z"/><polygon class="cls-3" points="44.47 260.42 128.03 260.42 128.18 240.46 44.47 240.3 44.47 260.42"/><path class="cls-4" d="M121.58,249.78c-9.73-1.56-49.28,3.71-73.6-1.1,0,0-.43,5.21-.64,11.74h77.72C124.44,255.54,123.35,251.4,121.58,249.78Z"/><path class="cls-5" d="M115,155.84a223.62,223.62,0,0,1,43.92,87.66A102.53,102.53,0,0,1,161,260.42H130c1.47-5.61-.92-14,5-18.25l-1-3.69-24.79-53.16S106.88,162.6,115,155.84Z"/><path class="cls-6" d="M135,242.17c6.83-2.94,7.89.44,6.37.31l-3-.28s-6.75,2.54-6.44,11.48a26.17,26.17,0,0,1-.52,6.74H130C131.45,254.81,129.06,246.47,135,242.17Z"/><path class="cls-6" d="M115,155.84a223.62,223.62,0,0,1,43.92,87.66c.27,1.37.51,2.7.73,4-.45-1.44-11.37-36.14-19-49.79-7.76-13.93-12-18-12.56-11.71s-.53,38.61-.53,38.61l-18.33-39.3S106.88,162.6,115,155.84Z"/><path class="cls-5" d="M56.81,155.84A223.62,223.62,0,0,0,12.89,243.5a102.53,102.53,0,0,0-2.06,16.92h31c-1.48-5.61.91-14-5-18.25l1-3.69,24.78-53.16S64.92,162.6,56.81,155.84Z"/><path class="cls-6" d="M36.81,242.17c-6.83-2.94-7.89.44-6.37.31l3-.28s6.75,2.54,6.44,11.48a26.64,26.64,0,0,0,.52,6.74h1.44C40.35,254.81,42.74,246.47,36.81,242.17Z"/><path class="cls-6" d="M56.81,155.84A223.62,223.62,0,0,0,12.89,243.5c-.27,1.37-.51,2.7-.73,4,.45-1.44,11.37-36.14,19-49.79,7.76-13.93,12-18,12.57-11.71s.52,38.61.52,38.61l18.33-39.3S64.92,162.6,56.81,155.84Z"/><path class="cls-7" d="M60.7,151.25v48.08h48.57V151.49S88,134.09,60.7,151.25Z"/><path class="cls-8" d="M67.7,155.84s-3.86,16.43,12.09,20.78,26.25-5.32,23.92-20.3h8.22S124.65,187,129.16,246c-40.11-4.67-85.38,1-85.38,1s-2.52-41.66,15.15-91Z"/><path class="cls-3" d="M66.89,190.67h6.6v1.78H71.17v15.1h2.32v1.65h-6.6v-1.65h2.27v-15.1H66.89Z"/><path class="cls-3" d="M60,229.29h1.65v-3.62h3.54v13.59H62.85v1.51h6.51v-1.51H67V225.67h3.47v3.62h1.72v-5.42H60Zm22.8-3.79H85v5.89H77.77V225.5h2v-1.63H73.87v1.63H76v13.76H73.87v1.51h5.94v-1.51h-2v-6.18H85v6.18H82.78v1.51h6.08v-1.51H86.71V225.5h2.15v-1.63H82.78Zm16-1.63h-2.1l-5.31,15.39H89.75v1.51h5.52v-1.51H93.16l1.32-4.07h6.22l1.26,4.07h-2v1.51h5.54v-1.51H104ZM95,233.57l2.55-7.86,2.5,7.86Zm17.37-8.07v-1.63h-6v1.63h2.06v13.76H106.4v1.51h6v-1.51H110.3V225.5Z"/><path class="cls-9" d="M92.73,194.06s-3.92-4.77-7.58-5.19-8.26,4.59-6,9.1,9.36,10.56,14.39,13a38,38,0,0,0,8.3-7.82c2.37-3,5.46-7.58,3.43-11.52a5.52,5.52,0,0,0-6.44-2.67C96.5,189.78,94.26,192.14,92.73,194.06Z"/><path class="cls-10" d="M63.23,152s14.83,45.73-18.76,104l-2.3-18.71s8.7-19.65,11.92-36.73-1.22-45.71-1.22-45.71A65.7,65.7,0,0,1,63.23,152Z"/><path class="cls-10" d="M107.86,152s-15.32,44.31,20.2,104.48L129.68,238s-9.47-20.42-12.69-37.5,1.22-45.71,1.22-45.71A65.37,65.37,0,0,0,107.86,152Z"/><ellipse class="cls-5" cx="85.34" cy="100.75" rx="63.79" ry="65.97"/><path class="cls-6" d="M23.94,118.68c7.55,27.72,32.18,48,61.4,48s53.92-20.37,61.44-48.15l-1.09-.46C131.94,155.83,94.87,166,67.3,159.83S25.57,118.1,25.57,118.1Z"/><path class="cls-11" d="M113.38,43s-5.8,18.85-35,28.52c0,0,10.39-9.19,11.84-21.27,0,0-13.63,17.12-50.75,28.52,0,0,5.56-8.46,5.56-16.19,0,0-19.93,16.54-22.89,29.53H11.89A74.49,74.49,0,0,1,11,54.74C14.12,41.33,26.5,8.12,68,.88,84.62-2,102.79,2.26,111.2,13c0-16.67,3.38-9.42,3.38-1.93,10.27-10.27,12.57-6.29,6.77,5.31,22.71,1.45,53,25.69,39.91,77.12h-12.5S130.61,66.84,128.2,60.71c0,0,.16,6.93-1.78,11.92C126.42,72.63,119.34,49,113.38,43Z"/><path class="cls-5" d="M26.5,116.6S20,130.41,5.86,114.77c-7.42-8.22-9.74-28.1,4.82-28.86,12.92-.68,14.68,15.59,14.68,15.59Z"/><path class="cls-6" d="M16.13,97.91a75.14,75.14,0,0,1,1.16,7.59,35.73,35.73,0,0,0,.87,4.11c1,3.28-4.43,1.19-5.66.5C7.58,107.32,1.81,95.93,10,93.53,13.66,92.46,15.29,94.86,16.13,97.91Z"/><path class="cls-12" d="M5.94,99.71c.41,4,3.63,8.74,6.56,10.4,1.23.69,6.67,2.78,5.66-.5a19.67,19.67,0,0,1-.53-2.24h0C15,101.18,9,99.93,5.94,99.71Z"/><path class="cls-6" d="M25.57,118.1l-1.2-1.65s-5.17,4.13-10.93,1.66S-.34,107,.12,96.39c-.71,6.34,1.79,14,5.74,18.38C16.92,127,23.32,121.2,25.57,118.1Z"/><path class="cls-5" d="M144.77,116.6s6.52,13.81,20.63-1.83c7.42-8.22,9.74-28.1-4.82-28.86-12.91-.68-14.68,15.59-14.68,15.59Z"/><path class="cls-6" d="M155.14,97.91A72.74,72.74,0,0,0,154,105.5a35.73,35.73,0,0,1-.87,4.11c-1,3.28,4.43,1.19,5.66.5,4.92-2.79,10.69-14.18,2.5-16.58C157.6,92.46,156,94.86,155.14,97.91Z"/><path class="cls-12" d="M165.33,99.71c-.42,4-3.64,8.74-6.57,10.4-1.23.69-6.67,2.78-5.66-.5a19.67,19.67,0,0,0,.53-2.24h0C156.28,101.18,162.28,99.93,165.33,99.71Z"/><path class="cls-6" d="M145.69,118.1l1.2-1.65s5.17,4.13,10.93,1.66S171.6,107,171.14,96.39c.71,6.34-1.79,14-5.74,18.38C154.34,127,147.94,121.2,145.69,118.1Z"/><path class="cls-6" d="M97.21,97.92s10.25,22.43-.16,30.94-23.91,3.49-26.16-2.66c-4-10.88,5.6-14.22,7.43-29.1a11.5,11.5,0,0,1,8.87-4C93.16,93.06,97.21,97.92,97.21,97.92Z"/><path class="cls-5" d="M96.3,97s9.09,19-.17,26.82-21.3,3.18-23.29-2.46c-3.54-10,4.84-12.16,6.46-25.77a11.59,11.59,0,0,1,8.06-3C92.69,92.53,96.3,97,96.3,97Z"/><path class="cls-13" d="M79.14,120c0,.76,1.54,1.33,3.4,1.28s3.34-.72,3.32-1.47-1.56-1.34-3.41-1.28S79.11,119.25,79.14,120Z"/><path class="cls-6" d="M120.1,130.43c-9.78,9.84-28.23,12-41.67,12-4.65,0-8.69-.25-11.57-.5s-4.57-.49-4.58-.49a1,1,0,0,0-.27,1.92h0a125.71,125.71,0,0,0,16.42,1c13.62,0,32.44-2,43-12.56a1,1,0,0,0-1.37-1.36Zm3.13-2.48a3.5,3.5,0,0,0-2.25-.73,7.79,7.79,0,0,0-2.61.53.85.85,0,0,0,.64,1.57h0l.15-.06a5.71,5.71,0,0,1,1.82-.34,1.46,1.46,0,0,1,1.64,1.79,8,8,0,0,1-.32,2,.84.84,0,0,0,.61,1,.76.76,0,0,0,.21,0,.84.84,0,0,0,.82-.63,9.8,9.8,0,0,0,.37-2.47A3.45,3.45,0,0,0,123.23,128Z"/><path class="cls-6" d="M86,154.65a10.75,10.75,0,0,1-6.39-2.37h0a.72.72,0,0,1-.08-1h0a.73.73,0,0,1,1-.08h0l.09.07h0a2.76,2.76,0,0,0,.31.23h0a11,11,0,0,0,1.16.71h0a8.66,8.66,0,0,0,3.89,1h0c1.9,0,4-.73,6.25-3.38h0a.73.73,0,0,1,1-.1h0a.73.73,0,0,1,.09,1h0c-2.38,2.92-5,3.91-7.32,3.91h0Z"/><path class="cls-14" d="M85.83,74.07H9.14s.28,4.93.38,5.86.86,6.06.86,6.06,9.36-.41,15.06,11.24c3.92,8,4.39,24.32,24.51,26.47,26.11,2.79,20.3-17.69,29.38-20.25,4.88-1.38,4.88-1.35,6.5-1.35s1.61,0,6.5,1.35c9.08,2.56,3.27,23,29.37,20.25,20.12-2.15,20.28-18.63,24.51-26.47,6.71-12.43,16.68-11.09,16.68-11.09s.8-5.07.92-6.09c.2-1.57.55-6,.55-6Z"/><path class="cls-8" d="M143.54,77.92H28.11a77,77,0,0,0,2.65,20.14c2.88,10,7.06,19.41,18.52,21.61,19.26,3.71,19.68-14.34,24.34-18.4C77.56,97.84,83.37,97,85.83,97s8.27.8,12.2,4.23c4.67,4.06,5.09,22.11,24.34,18.4,11.47-2.2,15.65-11.6,18.53-21.61A76.76,76.76,0,0,0,143.54,77.92Z"/><path class="cls-15" d="M98.38,77.92,83.45,97.21A19.66,19.66,0,0,1,85.83,97c2.46,0,8.27.8,12.2,4.23a12.87,12.87,0,0,1,2.68,4.26l21.37-27.61Z"/><path class="cls-15" d="M130.76,77.92l-26.67,34.46a17.27,17.27,0,0,0,4.66,5.22l30.7-39.68Z"/></g></g></svg>